<svg width="16" height="18" viewBox="0 0 16 18" fill="none" xmlns="http://www.w3.org/2000/svg">
<path d="M15.3723 14.0245C14.9709 13.0598 14.3885 12.1836 13.6574 11.4446C12.9285 10.7034 12.0651 10.1125 11.1149 9.70445C11.1064 9.70013 11.0979 9.69797 11.0893 9.69365C12.4149 8.72213 13.2766 7.13962 13.2766 5.35418C13.2766 2.39643 10.9149 0 8 0C5.08513 0 2.72344 2.39643 2.72344 5.35418C2.72344 7.13962 3.58514 8.72213 4.91066 9.69581C4.90215 9.70013 4.89364 9.70229 4.88513 9.70661C3.93194 10.1146 3.07663 10.6997 2.34259 11.4467C1.61219 12.1863 1.02984 13.0624 0.627709 14.0267C0.232652 14.9707 0.0195891 15.9828 5.32039e-05 17.0082C-0.000514675 17.0312 0.00346833 17.0541 0.0117677 17.0756C0.020067 17.097 0.0325146 17.1166 0.0483771 17.1331C0.0642397 17.1496 0.0831961 17.1627 0.104129 17.1716C0.125063 17.1806 0.14755 17.1852 0.170265 17.1852H1.44685C1.54047 17.1852 1.61494 17.1096 1.61706 17.0168C1.65962 15.3501 2.31919 13.7892 3.48514 12.6061C4.69151 11.3819 6.29363 10.7084 8 10.7084C9.70637 10.7084 11.3085 11.3819 12.5149 12.6061C13.6808 13.7892 14.3404 15.3501 14.3829 17.0168C14.3851 17.1118 14.4595 17.1852 14.5531 17.1852H15.8297C15.8524 17.1852 15.8749 17.1806 15.8959 17.1716C15.9168 17.1627 15.9358 17.1496 15.9516 17.1331C15.9675 17.1166 15.9799 17.097 15.9882 17.0756C15.9965 17.0541 16.0005 17.0312 15.9999 17.0082C15.9787 15.9762 15.768 14.9723 15.3723 14.0245ZM8 9.06756C7.02341 9.06756 6.10427 8.68111 5.41278 7.97945C4.7213 7.2778 4.34045 6.34513 4.34045 5.35418C4.34045 4.36322 4.7213 3.43056 5.41278 2.7289C6.10427 2.02725 7.02341 1.6408 8 1.6408C8.97659 1.6408 9.89573 2.02725 10.5872 2.7289C11.2787 3.43056 11.6595 4.36322 11.6595 5.35418C11.6595 6.34513 11.2787 7.2778 10.5872 7.97945C9.89573 8.68111 8.97659 9.06756 8 9.06756Z" fill="black"/>
</svg>
