<svg width="11" height="15" viewBox="0 0 11 15" fill="none" xmlns="http://www.w3.org/2000/svg">
<path fill-rule="evenodd" clip-rule="evenodd" d="M2.78572 1.16667H8.21429C8.69421 1.16667 9.15447 1.35732 9.49382 1.69667C9.83317 2.03602 10.0238 2.49628 10.0238 2.9762V12.0238C10.0238 12.5037 9.83317 12.964 9.49382 13.3033C9.15447 13.6427 8.69421 13.8333 8.21429 13.8333H2.78572C2.3058 13.8333 1.84555 13.6427 1.50619 13.3033C1.16684 12.964 0.976196 12.5037 0.976196 12.0238V2.9762C0.976196 2.49628 1.16684 2.03602 1.50619 1.69667C1.84555 1.35732 2.3058 1.16667 2.78572 1.16667V1.16667Z" stroke="black" stroke-linecap="round" stroke-linejoin="round"/>
<path d="M5.50001 12.0238C5.99969 12.0238 6.40477 11.6187 6.40477 11.1191C6.40477 10.6194 5.99969 10.2143 5.50001 10.2143C5.00032 10.2143 4.59525 10.6194 4.59525 11.1191C4.59525 11.6187 5.00032 12.0238 5.50001 12.0238Z" fill="black"/>
</svg>
