<svg width="13" height="14" viewBox="0 0 13 14" fill="none" xmlns="http://www.w3.org/2000/svg">
<path d="M6.49999 1.02381C7.14409 1.02381 7.76181 1.27968 8.21725 1.73512C8.6727 2.19057 8.92857 2.80829 8.92857 3.45238V5.07143C8.92857 5.71553 8.6727 6.33324 8.21725 6.78869C7.76181 7.24414 7.14409 7.5 6.49999 7.5C5.8559 7.5 5.23818 7.24414 4.78273 6.78869C4.32729 6.33324 4.07142 5.71553 4.07142 5.07143V3.45238C4.07142 2.80829 4.32729 2.19057 4.78273 1.73512C5.23818 1.27968 5.8559 1.02381 6.49999 1.02381V1.02381ZM12.1667 12.3571V11.7678C12.1667 9.18786 9.18276 7.5 6.49999 7.5C3.81723 7.5 0.833328 9.18786 0.833328 11.7678V12.3571C0.833328 12.5718 0.918617 12.7777 1.07043 12.9296C1.22225 13.0814 1.42815 13.1667 1.64285 13.1667H11.3571C11.5718 13.1667 11.7777 13.0814 11.9296 12.9296C12.0814 12.7777 12.1667 12.5718 12.1667 12.3571Z" stroke="black" stroke-linecap="round" stroke-linejoin="round"/>
</svg>
