<?xml version="1.0" standalone="no"?>
<!DOCTYPE svg PUBLIC "-//W3C//DTD SVG 20010904//EN"
 "http://www.w3.org/TR/2001/REC-SVG-20010904/DTD/svg10.dtd">
<svg version="1.0" xmlns="http://www.w3.org/2000/svg"
 width="237.000000pt" height="237.000000pt" viewBox="0 0 237.000000 237.000000"
 preserveAspectRatio="xMidYMid meet">
<metadata>
Created by potrace 1.14, written by Peter Selinger 2001-2017
</metadata>
<g transform="translate(0.000000,237.000000) scale(0.100000,-0.100000)"
fill="#000000" stroke="none">
<path d="M153 1472 l-152 -87 -1 -187 0 -186 117 -68 c65 -37 136 -77 158 -89
l40 -23 75 44 c41 24 112 65 158 91 l82 47 -2 184 -3 185 -153 88 c-84 49
-156 89 -160 89 -4 -1 -75 -40 -159 -88z m456 -278 c0 -163 -1 -173 -20 -179
-11 -4 -47 -23 -82 -44 -34 -21 -83 -49 -108 -63 -25 -14 -54 -31 -65 -38 -16
-10 -27 -7 -70 17 -27 15 -93 53 -147 83 l-97 55 0 172 0 171 78 45 c42 24 93
53 112 64 19 11 50 29 68 40 l34 21 149 -86 149 -86 -1 -172z"/>
<path d="M295 1512 c-6 -4 -10 -25 -10 -47 2 -65 2 -65 -99 -65 -62 -1 -97 -5
-109 -15 -21 -16 -26 -12 98 -83 154 -88 138 -82 166 -62 13 10 22 21 19 23
-3 2 -34 20 -70 40 -67 38 -65 44 12 38 33 -3 42 12 39 62 l-2 40 25 -17 c14
-9 54 -32 90 -52 63 -34 66 -35 91 -18 l25 17 -127 73 c-137 79 -133 77 -148
66z"/>
<path d="M465 1281 c-66 -38 -124 -73 -130 -78 -6 -5 -9 -66 -9 -149 3 -196 0
-180 22 -161 10 10 21 17 24 17 4 0 55 29 115 64 l109 65 -4 68 c-4 77 -4 73
0 171 2 39 1 72 -2 72 -3 0 -59 -31 -125 -69z m70 -64 c0 -16 -17 -32 -64 -60
-77 -46 -82 -47 -86 -23 -4 22 4 46 16 46 4 0 34 16 66 35 60 36 68 36 68 2z
m1 -122 c-2 -26 -6 -29 -107 -88 l-46 -27 1 30 c1 27 10 36 66 70 78 46 87 48
86 15z"/>
<path d="M104 1278 c2 -17 10 -34 17 -39 10 -6 14 -35 16 -104 1 -82 -1 -94
-13 -84 -16 13 -16 14 -18 -26 -1 -26 5 -34 54 -62 30 -18 58 -33 63 -33 16 0
6 60 -12 69 -16 9 -19 22 -17 98 1 79 3 88 19 85 15 -3 18 3 15 29 -2 27 -11
38 -48 59 -74 43 -80 44 -76 8z"/>
<path d="M725 1253 c0 -63 4 -88 14 -91 22 -7 29 17 29 100 0 74 -1 78 -22 78
-21 0 -22 -4 -21 -87z"/>
<path d="M808 1333 c-3 -7 -3 -127 1 -160 0 -7 10 -13 21 -13 18 0 20 7 20 55
l0 56 43 -53 c24 -29 51 -53 61 -53 18 0 20 21 17 155 -1 13 -8 20 -20 20 -17
0 -20 -8 -23 -52 l-3 -53 -38 53 c-35 47 -69 66 -79 45z"/>
<path d="M1010 1250 c0 -82 2 -90 19 -90 23 0 28 13 26 63 -1 20 1 37 4 37 4
0 24 -22 45 -50 22 -29 46 -50 57 -50 18 0 19 8 18 90 -1 79 -3 90 -19 90 -22
0 -28 -15 -25 -62 2 -21 0 -38 -4 -37 -3 0 -23 22 -44 50 -22 30 -45 49 -57
49 -18 0 -20 -7 -20 -90z"/>
<path d="M1238 1326 c-26 -19 -36 -56 -27 -96 11 -47 41 -70 94 -70 50 0 82
22 93 65 10 36 3 67 -20 95 -14 15 -30 20 -70 20 -29 0 -61 -7 -70 -14z m106
-32 c38 -38 3 -109 -47 -96 -34 8 -47 22 -47 53 0 34 23 59 55 59 13 0 31 -7
39 -16z"/>
<path d="M1413 1326 c49 -128 70 -166 91 -166 18 0 28 15 58 90 l36 90 -24 0
c-19 0 -27 -10 -46 -62 l-22 -62 -22 50 c-13 27 -23 55 -23 62 -1 6 -13 12
-27 12 -19 0 -25 -4 -21 -14z"/>
<path d="M1627 1260 c-20 -44 -37 -84 -37 -90 0 -16 29 -11 49 9 22 22 91 19
104 -4 7 -13 47 -22 47 -11 0 2 -18 43 -40 90 -33 73 -43 86 -63 86 -19 0 -29
-13 -60 -80z m78 0 l16 -30 -31 0 c-16 0 -30 2 -30 5 0 7 23 55 26 55 2 0 10
-13 19 -30z"/>
<path d="M1782 1323 c2 -12 11 -17 26 -15 21 3 22 0 23 -65 1 -37 1 -71 0 -75
0 -5 9 -8 22 -8 21 0 22 4 22 73 0 57 3 72 15 73 8 1 21 2 28 3 6 0 12 8 12
16 0 12 -15 15 -76 15 -67 0 -75 -2 -72 -17z"/>
<path d="M1952 1251 c1 -80 3 -91 18 -91 23 0 26 11 25 100 -1 68 -3 75 -22
78 -20 3 -21 -1 -21 -87z"/>
<path d="M2026 1318 c4 -13 19 -52 35 -88 34 -81 61 -92 85 -33 29 70 46 108
55 126 9 16 6 18 -17 15 -23 -3 -31 -12 -50 -63 l-22 -60 -17 40 c-10 22 -21
50 -26 63 -5 13 -17 22 -29 22 -18 0 -20 -4 -14 -22z"/>
<path d="M2229 1333 c-4 -25 -4 -150 -1 -160 3 -9 27 -13 72 -13 63 0 69 2 67
20 -1 17 -8 20 -47 20 -50 0 -61 5 -54 24 3 8 20 12 42 11 20 -1 40 3 44 8 13
21 -3 32 -42 30 -33 -2 -40 1 -40 17 0 16 7 18 42 17 34 -2 43 2 46 16 3 15
-5 17 -62 17 -36 0 -66 -3 -67 -7z"/>
<path d="M871 1113 c-12 -8 -21 -25 -21 -38 0 -48 72 -57 89 -12 17 45 -29 78
-68 50z m47 -37 c-4 -25 -36 -34 -44 -12 -8 21 13 46 32 39 8 -3 14 -15 12
-27z"/>
<path d="M1188 1111 c-16 -13 -19 -24 -14 -44 7 -30 48 -46 70 -28 17 14 10
50 -10 47 -22 -3 -29 -16 -9 -16 13 0 16 -3 9 -10 -13 -13 -44 -3 -44 14 0 18
21 35 35 30 7 -3 16 -1 19 4 11 18 -34 20 -56 3z"/>
<path d="M1410 1112 c-30 -25 -21 -69 16 -78 38 -10 72 37 37 51 -21 7 -31 -4
-14 -14 10 -7 10 -10 1 -16 -7 -4 -19 0 -28 8 -13 13 -13 19 -2 32 7 9 21 13
31 10 23 -8 26 10 3 19 -21 8 -19 9 -44 -12z"/>
<path d="M2320 1122 c-37 -12 -28 -52 12 -52 11 0 16 -4 12 -11 -3 -6 -17 -8
-33 -4 -24 6 -25 5 -9 -11 11 -11 24 -15 43 -10 33 8 30 35 -5 53 -14 7 -22
13 -17 14 4 1 11 2 16 3 5 0 12 4 16 7 8 9 -17 17 -35 11z"/>
<path d="M720 1073 c1 -43 2 -46 15 -30 7 11 11 26 8 35 -3 13 -1 12 12 -3 12
-14 19 -16 22 -7 7 19 23 14 23 -7 0 -11 5 -23 10 -26 6 -4 10 12 10 39 0 48
-19 63 -38 30 -8 -14 -10 -14 -21 0 -26 31 -41 19 -41 -31z"/>
<path d="M975 1098 c1 -13 3 -33 4 -45 1 -25 21 -32 21 -8 0 8 5 15 10 15 6 0
13 -7 16 -15 11 -28 21 -15 20 28 -1 41 -2 42 -37 45 -33 3 -36 1 -34 -20z
m55 -9 c0 -5 -7 -9 -15 -9 -8 0 -15 7 -15 15 0 9 6 12 15 9 8 -4 15 -10 15
-15z"/>
<path d="M1083 1106 c9 -7 17 -25 17 -39 0 -32 20 -46 21 -15 1 13 1 29 0 36
-1 6 5 12 14 12 8 0 15 5 15 10 0 6 -19 10 -42 10 -38 -1 -41 -2 -25 -14z"/>
<path d="M1297 1085 c-20 -43 -23 -65 -5 -47 16 16 55 15 61 0 2 -7 8 -10 12
-6 11 10 -25 88 -40 88 -6 0 -19 -16 -28 -35z m38 -5 c3 -5 -1 -10 -10 -10 -9
0 -13 5 -10 10 3 6 8 10 10 10 2 0 7 -4 10 -10z"/>
<path d="M1508 1103 c-2 -10 -2 -30 0 -44 3 -22 9 -26 32 -25 33 2 52 15 24
17 -10 1 -22 1 -26 0 -5 0 -8 4 -8 9 0 6 9 10 20 10 11 0 20 5 20 10 0 6 -3 9
-7 9 -18 -3 -33 2 -33 10 0 5 9 7 20 4 11 -3 20 0 20 6 0 19 -58 13 -62 -6z"/>
<path d="M1650 1081 c0 -23 3 -41 8 -42 4 0 15 -2 26 -4 34 -7 46 5 43 44 -2
34 -5 36 -40 39 l-37 3 0 -40z m53 12 c-7 -2 -19 -2 -25 0 -7 3 -2 5 12 5 14
0 19 -2 13 -5z m2 -33 c-3 -5 -13 -10 -21 -10 -8 0 -14 5 -14 10 0 6 9 10 21
10 11 0 17 -4 14 -10z"/>
<path d="M1760 1073 c1 -44 2 -46 15 -29 14 18 16 18 33 3 24 -22 35 -22 23 1
-5 10 -6 24 -1 32 14 23 -1 40 -36 40 -34 0 -34 0 -34 -47z m55 17 c-3 -5 -13
-10 -21 -10 -8 0 -14 5 -14 10 0 6 9 10 21 10 11 0 17 -4 14 -10z"/>
<path d="M1869 1094 c-12 -34 11 -63 48 -59 64 7 55 85 -9 85 -22 0 -31 -6
-39 -26z m65 -27 c-8 -21 -27 -22 -43 -3 -9 11 -8 18 5 31 14 14 19 14 31 2 7
-7 11 -21 7 -30z"/>
<path d="M1990 1075 c0 -25 5 -45 10 -45 6 0 10 10 10 22 l0 22 16 -22 c8 -12
20 -20 25 -16 6 4 3 14 -7 25 -16 18 -16 20 1 39 16 18 16 20 2 20 -9 0 -21
-8 -26 -17 -10 -17 -10 -17 -11 0 0 9 -4 17 -10 17 -5 0 -10 -20 -10 -45z"/>
<path d="M2092 1078 c3 -41 4 -43 36 -43 18 -1 31 4 29 10 -2 5 -14 9 -25 7
-12 -2 -22 2 -22 7 0 6 9 11 20 11 28 0 25 20 -2 21 -21 1 -21 2 -3 6 39 9 40
23 1 23 l-37 0 3 -42z"/>
<path d="M2190 1075 c0 -25 5 -45 10 -45 6 0 10 7 10 15 0 19 14 19 30 0 7 -8
16 -12 22 -9 5 4 5 10 -1 18 -6 7 -6 18 -1 25 14 24 -1 41 -36 41 -34 0 -34
-1 -34 -45z m55 15 c-3 -5 -13 -10 -21 -10 -8 0 -14 5 -14 10 0 6 9 10 21 10
11 0 17 -4 14 -10z"/>
</g>
</svg>
