<?xml version="1.0" standalone="no"?>
<!DOCTYPE svg PUBLIC "-//W3C//DTD SVG 20010904//EN"
 "http://www.w3.org/TR/2001/REC-SVG-20010904/DTD/svg10.dtd">
<svg version="1.0" xmlns="http://www.w3.org/2000/svg"
 width="74.000000pt" height="74.000000pt" viewBox="0 0 74.000000 74.000000"
 preserveAspectRatio="xMidYMid meet">
<metadata>
Created by potrace 1.14, written by Peter Selinger 2001-2017
</metadata>
<g transform="translate(0.000000,74.000000) scale(0.100000,-0.100000)"
fill="#000000" stroke="none">
<path d="M657 733 c-4 -3 -3 -11 2 -17 14 -18 19 -65 7 -70 -7 -3 -6 -5 2 -5
8 -1 10 -6 5 -13 -4 -7 -8 -20 -9 -28 -2 -26 -26 -80 -35 -80 -5 0 -8 -3 -6
-8 1 -4 -8 -18 -20 -32 -13 -13 -23 -27 -23 -31 0 -7 -64 -49 -135 -89 -16 -9
-46 -22 -67 -29 -20 -6 -47 -22 -60 -34 -21 -20 -23 -30 -23 -125 0 -57 -3
-106 -7 -108 -13 -8 16 -44 34 -44 22 0 132 50 136 61 2 5 9 9 15 9 7 0 26 12
42 28 16 15 33 26 37 24 5 -1 8 7 8 18 0 11 6 19 13 18 6 -2 11 3 9 10 -1 6 2
12 6 12 13 0 33 69 35 120 1 31 10 56 28 80 53 70 64 101 64 185 0 99 -30 176
-58 148z m-72 -423 c7 -11 -26 -63 -61 -96 -19 -18 -35 -28 -62 -36 -4 -1 -16
-10 -26 -20 -25 -23 -36 -15 -36 25 0 42 8 52 50 66 19 6 53 25 75 41 45 32
51 34 60 20z"/>
<path d="M355 706 c-27 -12 -54 -24 -60 -26 -5 -2 -33 -18 -61 -36 -29 -18
-55 -30 -59 -26 -5 4 -5 1 -1 -5 4 -7 2 -13 -4 -13 -24 0 -110 -104 -130 -157
-29 -78 -25 -107 10 -65 8 9 28 33 44 52 16 19 32 35 35 34 3 0 14 10 24 23
10 13 24 23 32 23 7 0 15 5 17 11 2 5 11 11 19 12 9 2 24 11 33 20 10 9 21 15
26 12 5 -3 10 -1 12 3 1 5 32 20 68 35 74 29 94 53 78 98 -12 34 -18 35 -83 5z"/>
<path d="M335 518 c-38 -18 -72 -35 -75 -39 -4 -5 -41 -21 -47 -20 -11 1 -143
-127 -143 -139 0 -5 -7 -15 -15 -24 -8 -8 -16 -23 -18 -33 -1 -10 -6 -23 -10
-30 -22 -35 -2 -179 29 -210 8 -8 14 -13 15 -11 6 27 6 38 -2 38 -6 0 -8 3 -5
8 2 4 5 30 7 57 3 64 26 109 86 173 42 44 203 145 203 128 0 -4 13 0 30 9 16
8 33 15 37 15 5 0 9 5 9 10 1 6 3 13 4 18 11 37 -3 82 -27 82 -4 0 -39 -15
-78 -32z"/>
</g>
</svg>
