<?xml version="1.0" standalone="no"?>
<!DOCTYPE svg PUBLIC "-//W3C//DTD SVG 20010904//EN"
 "http://www.w3.org/TR/2001/REC-SVG-20010904/DTD/svg10.dtd">
<svg version="1.0" xmlns="http://www.w3.org/2000/svg"
 width="76.000000pt" height="76.000000pt" viewBox="0 0 76.000000 76.000000"
 preserveAspectRatio="xMidYMid meet">
<metadata>
Created by potrace 1.14, written by Peter Selinger 2001-2017
</metadata>
<g transform="translate(0.000000,76.000000) scale(0.100000,-0.100000)"
fill="#000000" stroke="none">
<path d="M277 654 c-4 -4 -7 -63 -7 -130 l0 -123 -132 -3 -133 -3 0 -70 0 -70
132 -3 132 -3 3 -122 3 -122 75 0 75 0 3 122 3 123 114 0 c103 0 115 2 125 19
10 20 11 55 3 104 l-5 27 -118 0 -119 0 -3 128 -3 127 -70 3 c-39 1 -74 0 -78
-4z"/>
<path d="M467 654 c-13 -14 -8 -121 7 -133 9 -8 57 -11 147 -9 l134 3 0 70 0
70 -141 3 c-77 1 -143 -1 -147 -4z"/>
</g>
</svg>
