<svg width="155" height="157" viewBox="0 0 155 157" fill="none" xmlns="http://www.w3.org/2000/svg">
<path d="M125.566 100.434L122.155 105.245C121.912 105.585 122.113 106.05 122.539 106.141L129.758 107.624C129.758 107.624 127.874 101.763 127.773 101.838C127.671 101.913 125.566 100.434 125.566 100.434Z" fill="#DD8126"/>
<path d="M143.673 105.045C140.219 103.144 128.927 97.1072 124.653 94.8268C124.088 94.5238 123.431 95.0534 123.659 95.6263L125.566 100.434L122.166 105.231C122.028 105.425 122.033 105.655 122.134 105.837C122.216 105.984 126.106 103.413 126.106 103.413C126.106 103.413 126.297 109.812 126.39 112.845C126.412 113.592 127.256 114.061 127.957 113.719C131.557 111.977 140.563 107.62 143.639 106.132C144.105 105.91 144.124 105.293 143.673 105.045Z" fill="#F99013"/>
<path d="M122.133 105.838C122.216 105.985 126.106 103.414 126.106 103.414L138.264 105.154C138.348 105.167 138.375 105.056 138.299 105.027L125.566 100.429L122.167 105.226C122.033 105.426 122.033 105.656 122.133 105.838Z" fill="#D37816"/>
<path d="M5 56.6568C24.2461 72.3702 59.1996 83.1273 82.4335 67.7482C91.8095 61.5387 97.8058 51.5628 96.4933 40.3321C94.8357 26.1369 79.4494 25.2259 72.3101 37.2645C60.5802 57.0452 70.7939 87.2204 87.095 100.919C96.5159 108.836 109.422 111.872 120.974 105.892" stroke="white" stroke-width="2" stroke-miterlimit="10" stroke-dasharray="5 5"/>
</svg>
