<svg width="46" height="46" viewBox="0 0 46 46" fill="none" xmlns="http://www.w3.org/2000/svg">
<path d="M35.2797 9.25839V5.74984C35.2797 3.60055 33.5311 1.85156 31.3814 1.85156H15.3985C13.2487 1.85156 11.5002 3.60055 11.5002 5.74984V9.25839H14.6189V5.74984C14.6189 5.32009 14.9687 4.97032 15.3985 4.97032H31.3814C31.8114 4.97032 32.1609 5.32016 32.1609 5.74984V9.25839H35.2797Z" fill="white"/>
<path d="M0 44.1485H46V12.1821H0V44.1485ZM3.50855 15.6907H42.4918V40.6398H3.50855V15.6907Z" fill="white"/>
<path d="M35.6698 20.9531H9.9408V22.9023H35.6698V20.9531Z" fill="white"/>
<path d="M35.6698 27.3853H9.9408V29.3344H35.6698V27.3853Z" fill="white"/>
<path d="M35.6698 33.8179H9.9408V35.767H35.6698V33.8179Z" fill="white"/>
</svg>
