<svg width="50" height="48" viewBox="0 0 50 48" fill="none" xmlns="http://www.w3.org/2000/svg">
<path d="M48.3367 0.82959H1.66333C0.746197 0.82959 0 1.57589 0 2.49292V41.7969C0 42.7141 0.746197 43.4603 1.66333 43.4603H19.7858V46.4005C19.7858 46.9282 20.0502 47.0926 20.2079 47.1435C20.3656 47.1944 20.6762 47.2161 20.9852 46.7881L24.9413 41.307C24.971 41.2659 24.9951 41.2534 24.9989 41.2522C25.005 41.2534 25.0291 41.2659 25.0588 41.307L29.015 46.7882C29.2359 47.0939 29.4575 47.1702 29.6235 47.1702C29.6897 47.1702 29.7472 47.158 29.7922 47.1434C29.9498 47.0925 30.2142 46.9282 30.2142 46.4004V43.4602H48.3367C49.2538 43.4602 50 42.714 50 41.7968V2.49292C50 1.57589 49.2538 0.82959 48.3367 0.82959ZM21.2681 35.273C21.1574 35.273 21.0583 35.2582 20.9653 35.2281C20.4157 35.0496 20.037 34.3586 19.6359 33.6268C19.2841 32.9849 18.9203 32.3212 18.378 31.9267C17.8282 31.5265 17.0784 31.383 16.3533 31.2442C15.5402 31.0886 14.7723 30.9417 14.439 30.4836C14.1114 30.0334 14.207 29.263 14.3082 28.4474C14.3997 27.7103 14.4942 26.9482 14.2816 26.2932C14.0785 25.6673 13.5656 25.1233 13.0698 24.5972C12.5176 24.0113 11.9467 23.4056 11.9467 22.8104C11.9467 22.215 12.5177 21.6093 13.0699 21.0234C13.5657 20.4973 14.0785 19.9533 14.2816 19.3275C14.4942 18.6726 14.3997 17.9104 14.3082 17.1733C14.207 16.3578 14.1115 15.5874 14.4391 15.1372C14.7723 14.6792 15.5402 14.5322 16.3533 14.3765C17.0784 14.2377 17.8282 14.0942 18.3781 13.694C18.9202 13.2994 19.284 12.6357 19.6358 11.9939C20.0368 11.2623 20.4156 10.5712 20.9653 10.3927C21.0583 10.3625 21.1574 10.3478 21.2681 10.3478C21.7405 10.3478 22.3084 10.6137 22.9095 10.8951C23.5909 11.214 24.2955 11.5438 24.9998 11.5438C25.7042 11.5438 26.4088 11.214 27.0902 10.8951C27.6915 10.6137 28.2593 10.3478 28.7317 10.3478C28.8424 10.3478 28.9415 10.3626 29.0344 10.3927C29.5841 10.5712 29.9628 11.2622 30.3639 11.9939C30.7157 12.6358 31.0795 13.2995 31.6217 13.6941C32.1715 14.0942 32.9214 14.2378 33.6465 14.3766C34.4595 14.5322 35.2273 14.6792 35.5607 15.1373C35.8883 15.5874 35.7928 16.3579 35.6915 17.1735C35.6001 17.9104 35.5056 18.6726 35.7182 19.3275C35.9213 19.9533 36.4342 20.4974 36.93 21.0234C37.4822 21.6093 38.0532 22.2151 38.0532 22.8104C38.0532 23.4058 37.4821 24.0116 36.9299 24.5975C36.4342 25.1236 35.9214 25.6675 35.7182 26.2932C35.5056 26.9481 35.6001 27.7103 35.6917 28.4473C35.7929 29.263 35.8885 30.0334 35.5608 30.4836C35.2276 30.9417 34.4597 31.0886 33.6467 31.2442C32.9215 31.383 32.1716 31.5266 31.6218 31.9268C31.0796 32.3214 30.7158 32.985 30.364 33.6268C29.9629 34.3585 29.5841 35.0495 29.0345 35.2281C28.9415 35.2583 28.8424 35.273 28.7317 35.273C28.2593 35.273 27.6915 35.0071 27.0903 34.7258C26.4089 34.4068 25.7043 34.077 24.9998 34.077C24.2955 34.077 23.591 34.4068 22.9096 34.7258C22.3084 35.0071 21.7405 35.273 21.2681 35.273ZM30.2142 35.442C30.5751 35.0497 30.8542 34.5429 31.1271 34.045C31.4329 33.4871 31.7491 32.9101 32.1339 32.6302C32.5265 32.3445 33.1791 32.2195 33.8104 32.0987C34.7535 31.9182 35.7289 31.7316 36.2645 30.9956C36.7943 30.2675 36.6728 29.2876 36.5552 28.3402C36.4754 27.6976 36.393 27.0329 36.5458 26.562C36.6887 26.1221 37.1135 25.6715 37.5632 25.1944C38.2319 24.485 38.9233 23.7513 38.9233 22.8105C38.9233 21.8699 38.2319 21.1363 37.5633 20.4267C37.1135 19.9496 36.6887 19.4989 36.5458 19.0589C36.3929 18.5878 36.4754 17.9233 36.5552 17.2807C36.6728 16.3333 36.7943 15.3536 36.2645 14.6255C35.7288 13.8895 34.7534 13.7028 33.8103 13.5223C33.179 13.4014 32.5264 13.2765 32.1339 12.9909C31.749 12.7108 31.4328 12.1339 31.1271 11.576C30.6621 10.7278 30.1814 9.85069 29.3033 9.56552C29.1247 9.50748 28.9325 9.4781 28.7319 9.4781C28.0659 9.4781 27.3825 9.79798 26.7216 10.1073C26.1263 10.3859 25.5108 10.674 25.0001 10.674C24.4893 10.674 23.8738 10.3859 23.2786 10.1073C22.6176 9.79798 21.9343 9.4781 21.2684 9.4781C21.0677 9.4781 20.8754 9.50748 20.6968 9.56552C19.8187 9.85049 19.3381 10.7277 18.873 11.5761C18.5673 12.1339 18.2511 12.7108 17.8663 12.9909C17.4738 13.2765 16.8211 13.4014 16.1899 13.5222C15.2467 13.7028 14.2714 13.8895 13.7358 14.6254C13.2059 15.3535 13.3274 16.3333 13.4451 17.2806C13.5248 17.9233 13.6073 18.5878 13.4543 19.0589C13.3114 19.4989 12.8867 19.9496 12.4369 20.4267C11.7683 21.1362 11.0769 21.8698 11.0769 22.8105C11.0769 23.7511 11.7682 24.4846 12.4368 25.1941C12.8866 25.6712 13.3114 26.1219 13.4543 26.562C13.6072 27.0331 13.5247 27.6976 13.4451 28.3403C13.3275 29.2877 13.2059 30.2674 13.7357 30.9955C14.2713 31.7316 15.2467 31.9183 16.1899 32.0987C16.8212 32.2196 17.4738 32.3444 17.8663 32.6301C18.2511 32.91 18.5674 33.487 18.8732 34.045C19.146 34.5428 19.4251 35.0497 19.7859 35.442V39.2457H0.870051V12.4802H9.2986C9.53883 12.4802 9.73362 12.2855 9.73362 12.0452C9.73362 11.8048 9.53883 11.6101 9.2986 11.6101H0.870051V7.66799H49.1299V35.2551H39.0851C38.8448 35.2551 38.65 35.4497 38.65 35.6901C38.65 35.9304 38.8448 36.1251 39.0851 36.1251H49.1299V39.2457H30.2142V35.442ZM1.66333 1.69964H48.3367C48.774 1.69964 49.1299 2.05554 49.1299 2.49292V4.03424H17.4106C17.1704 4.03424 16.9756 4.22893 16.9756 4.46927C16.9756 4.70961 17.1704 4.9043 17.4106 4.9043H49.1299V6.79794H0.870051V2.49292C0.870051 2.05554 1.22595 1.69964 1.66333 1.69964ZM1.66333 42.5902C1.22595 42.5902 0.870051 42.2343 0.870051 41.7969V40.1158H19.7858V42.5902H1.66333ZM25.7642 40.7978C25.5736 40.5337 25.2951 40.3822 25 40.3822C24.705 40.3822 24.4263 40.5337 24.2357 40.7978L20.6558 45.7576V36.0401C20.6697 36.045 20.6827 36.0508 20.6967 36.0554C20.8753 36.1134 21.0676 36.1428 21.2682 36.1428C21.3639 36.1428 21.4599 36.1356 21.5561 36.1234V39.682C21.5561 39.9223 21.7509 40.117 21.9911 40.117C22.2313 40.117 22.4261 39.9223 22.4261 39.682V35.8885C22.7122 35.7785 22.9974 35.6453 23.2785 35.5137C23.8737 35.2351 24.4892 34.9471 25 34.9471C25.5108 34.9471 26.1263 35.2352 26.7215 35.5137C27.3825 35.8231 28.0658 36.1429 28.7318 36.1429C28.9324 36.1429 29.1246 36.1135 29.3032 36.0555C29.3172 36.0509 29.3303 36.0449 29.3441 36.0402V45.7577L25.7642 40.7978ZM48.3367 42.5902H30.2142V40.1158H49.1299V41.7969C49.1299 42.2343 48.774 42.5902 48.3367 42.5902Z" fill="white"/>
<path d="M3.89926 5.82507C4.76 5.82507 5.46024 5.12484 5.46024 4.2641C5.46024 3.40336 4.76 2.70312 3.89926 2.70312C3.03853 2.70312 2.33829 3.40336 2.33829 4.2641C2.33829 5.12484 3.03853 5.82507 3.89926 5.82507ZM3.89926 3.57318C4.28024 3.57318 4.59018 3.88312 4.59018 4.2641C4.59018 4.64508 4.28024 4.95502 3.89926 4.95502C3.51828 4.95502 3.20834 4.64508 3.20834 4.2641C3.20834 3.88312 3.51828 3.57318 3.89926 3.57318Z" fill="white"/>
<path d="M8.24951 5.82507C9.11025 5.82507 9.81049 5.12484 9.81049 4.2641C9.81049 3.40336 9.11025 2.70312 8.24951 2.70312C7.38878 2.70312 6.68854 3.40336 6.68854 4.2641C6.68854 5.12484 7.38878 5.82507 8.24951 5.82507ZM8.24951 3.57318C8.63049 3.57318 8.94044 3.88312 8.94044 4.2641C8.94044 4.64508 8.63049 4.95502 8.24951 4.95502C7.86853 4.95502 7.55859 4.64508 7.55859 4.2641C7.55859 3.88312 7.86853 3.57318 8.24951 3.57318Z" fill="white"/>
<path d="M12.5998 5.82507C13.4605 5.82507 14.1607 5.12484 14.1607 4.2641C14.1607 3.40336 13.4605 2.70312 12.5998 2.70312C11.739 2.70312 11.0388 3.40336 11.0388 4.2641C11.0388 5.12484 11.739 5.82507 12.5998 5.82507ZM12.5998 3.57318C12.9807 3.57318 13.2907 3.88312 13.2907 4.2641C13.2907 4.64508 12.9807 4.95502 12.5998 4.95502C12.2188 4.95502 11.9088 4.64508 11.9088 4.2641C11.9088 3.88312 12.2188 3.57318 12.5998 3.57318Z" fill="white"/>
<path d="M34.5463 22.8104C34.5463 17.5466 30.2639 13.2642 24.9999 13.2642C19.736 13.2642 15.4536 17.5466 15.4536 22.8104C15.4536 28.0743 19.736 32.3568 24.9999 32.3568C30.2639 32.3568 34.5463 28.0742 34.5463 22.8104ZM16.3238 22.8104C16.3238 18.0264 20.2159 14.1342 25 14.1342C29.7842 14.1342 33.6763 18.0263 33.6763 22.8104C33.6763 27.5945 29.7842 31.4867 25 31.4867C20.2159 31.4867 16.3238 27.5945 16.3238 22.8104Z" fill="white"/>
<path d="M31.3949 22.8104C31.3949 19.2843 28.5262 16.4155 25 16.4155C21.4737 16.4155 18.605 19.2842 18.605 22.8104C18.605 26.3365 21.4737 29.2054 25 29.2055C28.5262 29.2054 31.3949 26.3366 31.3949 22.8104ZM20.4871 25.9916H23.9358C24.1761 25.9916 24.3709 25.7969 24.3709 25.5566C24.3709 25.3163 24.1761 25.1216 23.9358 25.1216H19.9836C19.6862 24.4788 19.5089 23.7699 19.4804 23.0232H25.7782C26.0184 23.0232 26.2132 22.8285 26.2132 22.5882C26.2132 22.3478 26.0184 22.1532 25.7782 22.1532H19.5154C19.8416 19.4157 22.1759 17.2856 24.9999 17.2856C26.6596 17.2856 28.1496 18.0223 29.1633 19.1847H25.0618C24.8215 19.1847 24.6268 19.3794 24.6268 19.6198C24.6268 19.8601 24.8215 20.0548 25.0618 20.0548H29.7854C30.2548 20.8666 30.5248 21.8073 30.5248 22.8104C30.5248 25.8569 28.0464 28.3354 24.9999 28.3354C23.1374 28.3352 21.4884 27.4079 20.4871 25.9916Z" fill="white"/>
</svg>
