<svg width="33" height="32" viewBox="0 0 33 32" fill="none" xmlns="http://www.w3.org/2000/svg">
<path d="M29.0815 31.4985C30.0854 31.4985 31.0893 31.1338 31.8536 30.4043C33.3821 28.9453 33.3821 26.5713 31.8536 25.1124L22.0441 15.7492L31.8536 6.38612C33.3821 4.92712 33.3821 2.55321 31.8536 1.0942C30.325 -0.364801 27.8379 -0.364669 26.3094 1.0942L16.4999 10.4574L6.69048 1.0942C5.16199 -0.364669 2.67485 -0.364735 1.1463 1.0942C-0.382259 2.55321 -0.382259 4.92719 1.1463 6.38612L10.9558 15.7492L1.1463 25.1124C-0.382191 26.5714 -0.382191 28.9453 1.1463 30.4043C2.67492 31.8634 5.16199 31.8632 6.69048 30.4043L16.4999 21.0411L26.3094 30.4043C27.0736 31.1338 28.0775 31.4985 29.0815 31.4985ZM29.0815 1.31965C29.7313 1.31965 30.3808 1.55565 30.8755 2.02779C31.8646 2.97201 31.8646 4.50832 30.8755 5.45247L20.577 15.2824C20.3069 15.5402 20.3069 15.9582 20.577 16.2161L30.8754 26.046C31.8646 26.9902 31.8646 28.5265 30.8754 29.4707C29.8862 30.4148 28.2766 30.4148 27.2875 29.4707L16.989 19.6408C16.7189 19.383 16.2809 19.383 16.0108 19.6408L5.71225 29.4707C4.72302 30.4149 3.11348 30.415 2.12432 29.4707C1.13516 28.5265 1.13516 26.9902 2.12432 26.046L12.4229 16.2161C12.693 15.9583 12.693 15.5403 12.4229 15.2824L2.12439 5.45247C1.13516 4.50832 1.13516 2.97201 2.12439 2.02779C3.11362 1.08364 4.72316 1.08364 5.71232 2.02779L16.0109 11.8577C16.2809 12.1155 16.7189 12.1155 16.989 11.8577L27.2875 2.02779C27.7821 1.55578 28.4318 1.31965 29.0815 1.31965Z" fill="white"/>
<path d="M14.5979 13.5054C14.7749 13.5054 14.952 13.4409 15.087 13.312C15.3571 13.0542 15.3571 12.6362 15.087 12.3783L9.03525 6.60156C8.76517 6.34375 8.32723 6.34375 8.05708 6.60156C7.78693 6.85937 7.787 7.2774 8.05708 7.53527L14.1088 13.312C14.244 13.4409 14.421 13.5054 14.5979 13.5054Z" fill="white"/>
<path d="M6.57512 5.84766C6.7521 5.84766 6.92916 5.78315 7.06416 5.65427C7.33424 5.39644 7.33424 4.97836 7.06416 4.72047L5.07574 2.82223C4.80566 2.56447 4.36773 2.56447 4.09758 2.82223C3.8275 3.08006 3.8275 3.49813 4.09758 3.75603L6.086 5.65427C6.22114 5.78322 6.39813 5.84766 6.57512 5.84766Z" fill="white"/>
</svg>
