<svg width="86" height="86" viewBox="0 0 86 86" fill="none" xmlns="http://www.w3.org/2000/svg">
<path d="M12.3015 71.34H29.8302C30.5865 71.34 31.1996 70.7269 31.1996 69.9706C31.1996 69.2142 30.5865 68.6011 29.8302 68.6011H12.3015C11.5451 68.6011 10.932 69.2142 10.932 69.9706C10.932 70.7269 11.5453 71.34 12.3015 71.34Z" fill="#F99013"/>
<path d="M12.3015 77.5539H31.2908C32.0472 77.5539 32.6603 76.9408 32.6603 76.1844C32.6603 75.4281 32.0472 74.815 31.2908 74.815H12.3015C11.5451 74.815 10.932 75.4281 10.932 76.1844C10.932 76.9408 11.5453 77.5539 12.3015 77.5539Z" fill="#F99013"/>
<path d="M12.3015 65.1262H29.8302C30.5865 65.1262 31.1996 64.5131 31.1996 63.7567C31.1996 63.0004 30.5865 62.3873 29.8302 62.3873H12.3015C11.5451 62.3873 10.932 63.0004 10.932 63.7567C10.932 64.5131 11.5453 65.1262 12.3015 65.1262Z" fill="#F99013"/>
<path d="M85.5989 36.3785L79.4015 30.1811C78.8669 29.6461 77.9998 29.6463 77.465 30.1811L71.3928 36.2534V1.36945C71.3928 0.613086 70.7797 0 70.0233 0H1.36945C0.613086 0 0 0.613086 0 1.36945V67.8323C0 68.5887 0.613086 69.2018 1.36945 69.2018C2.12581 69.2018 2.7389 68.5887 2.7389 67.8323V2.7389H68.654V38.9923L58.7121 48.9342H55.3249V23.9193H59.7984C60.5548 23.9193 61.1678 23.3062 61.1678 22.5498V18.1677C61.1678 17.4113 60.5548 16.7982 59.7984 16.7982H54.356L36.4346 5.32847C35.9845 5.04057 35.4083 5.04057 34.9582 5.32847L17.0367 16.7982H11.5945C10.8382 16.7982 10.2251 17.4113 10.2251 18.1677V22.5498C10.2251 23.3062 10.8382 23.9193 11.5945 23.9193H16.0679V48.9342H11.5945C10.8382 48.9342 10.2251 49.5473 10.2251 50.3036V54.6858C10.2251 55.4421 10.8382 56.0552 11.5945 56.0552H51.5911L41.3571 66.2892C41.3541 66.2922 41.3512 66.2958 41.3482 66.2991C41.1861 66.4501 41.0583 66.6426 40.9832 66.8677L37.8847 76.1637C37.5348 77.2131 38.5666 78.2459 39.6169 77.896L48.913 74.7973C49.1391 74.7219 49.3323 74.5932 49.4834 74.43C49.489 74.4244 49.4952 74.4197 49.5004 74.4142L57.8824 65.8701C58.4118 65.3303 58.4037 64.4631 57.8637 63.9336C57.3239 63.4042 56.4568 63.4126 55.9272 63.9523L48.5136 71.5095L44.2621 67.258L73.226 38.2942L77.4867 42.5549L61.9415 58.1001C61.4067 58.6349 61.4067 59.5019 61.9415 60.0366C62.4763 60.5714 63.3434 60.5714 63.878 60.0366L68.654 55.2604V70.1149H56.8769C56.1205 70.1149 55.5075 70.728 55.5075 71.4843V83.2614H2.7389V75.1361C2.7389 74.3798 2.12581 73.7667 1.36945 73.7667C0.613086 73.7667 0 74.3796 0 75.136V84.6307C0 85.3869 0.613086 86 1.36945 86H56.8769C57.2357 86 57.5916 85.8527 57.8453 85.5989L70.9918 72.4523C71.2456 72.1987 71.3929 71.8428 71.3929 71.484V52.5213L80.3915 43.5227L85.5991 38.3152C86.1337 37.7805 86.1337 36.9133 85.5989 36.3785ZM46.009 72.8779L41.3489 74.4315L42.9022 69.7712L46.009 72.8779ZM58.2464 81.3246V72.8534H66.7175L58.2464 81.3246ZM52.586 48.9342H48.0213V23.9193H52.586V48.9342ZM26.1104 48.9342V23.9193H45.2824V48.9342H26.1104ZM35.6964 8.10768L49.2753 16.7982H22.1176L35.6964 8.10768ZM12.964 19.5371H58.4289V21.1804H12.964V19.5371ZM18.8068 23.9193H23.3715V48.9342H18.8068V23.9193ZM12.964 53.3163V51.6731H55.9732L54.33 53.3163H12.964ZM79.4232 40.6177L75.1625 36.357L78.4333 33.0863L82.6939 37.3468L79.4232 40.6177Z" fill="white"/>
</svg>
