<svg width="86" height="78" viewBox="0 0 86 78" fill="none" xmlns="http://www.w3.org/2000/svg">
<path d="M84.5667 74.5238H83.1333V54.4572H65.9333V74.5238H61.6333V41.5572H44.4333V74.5238H40.1333V30.0905H22.9333V74.5238H18.6333V18.6238H1.43333V74.5238C0.642133 74.5238 0 75.1645 0 75.9572C0 76.7498 0.642133 77.3905 1.43333 77.3905H18.6333H22.9333H40.1333H44.4333H61.6333H65.9333H83.1333H84.5667C85.3579 77.3905 86 76.7498 86 75.9572C86 75.1645 85.3579 74.5238 84.5667 74.5238ZM4.3 74.5238V21.4905H15.7667V74.5238H4.3ZM25.8 74.5238V32.9572H37.2667V74.5238H25.8ZM47.3 74.5238V44.4238H58.7667V74.5238H47.3ZM68.8 74.5238V57.3238H80.2667V74.5238H68.8Z" fill="white"/>
<path d="M71.9853 33.6393L19.3305 4.81554L27.1329 3.8796C27.9179 3.78575 28.4795 3.0719 28.3841 2.28553C28.2956 1.54631 27.6597 1.00737 26.9303 1.02397C26.8845 1.02501 26.8387 1.02892 26.7901 1.03433L14.5467 2.50286C14.5238 2.50481 14.5055 2.51956 14.4841 2.52435C14.3712 2.54269 14.263 2.57526 14.1565 2.62069C14.1366 2.62975 14.1151 2.62594 14.0952 2.63499C14.081 2.64248 14.0727 2.65558 14.0585 2.66307C14.0543 2.6646 14.05 2.66613 14.0458 2.66909C14.0302 2.67805 14.0117 2.68134 13.9961 2.69029C13.873 2.76191 13.7618 2.85476 13.6639 2.96309C13.6486 2.98064 13.6346 2.99816 13.6193 3.01715C13.5941 3.0464 13.5777 3.07831 13.5555 3.11036C13.5249 3.15407 13.4856 3.19223 13.4595 3.24014C13.4402 3.27499 13.4411 3.31368 13.4247 3.3499C13.4029 3.39914 13.3738 3.44424 13.3578 3.49622C13.3404 3.54967 13.3402 3.60415 13.3285 3.66033C13.3131 3.73953 13.3019 3.81434 13.2994 3.89325C13.2978 3.94777 13.2918 3.99809 13.2973 4.05244C13.2991 4.06961 13.2909 4.08413 13.2941 4.10126C13.2993 4.14128 13.3216 4.17232 13.3296 4.21085C13.3458 4.29077 13.3675 4.36626 13.3979 4.44155C13.4117 4.47852 13.4097 4.51584 13.4263 4.55274L18.7872 15.6567C19.1317 16.37 19.9888 16.6731 20.7006 16.3243C21.4139 15.9797 21.7127 15.1242 21.3682 14.4108L17.9527 7.33437L70.6089 36.1553C71.3057 36.5351 72.1744 36.2788 72.5544 35.5863C72.9342 34.8909 72.6793 34.0193 71.9853 33.6393Z" fill="#E1891F"/>
</svg>
