<svg width="10" height="11" viewBox="0 0 10 11" fill="none" xmlns="http://www.w3.org/2000/svg">
<path d="M9.90152 4.10204C9.96527 4.44004 10 4.79341 10 5.16218C10 8.04663 8.04903 10.0977 5.10237 10.0977C4.43226 10.0979 3.76867 9.9674 3.14953 9.71375C2.53039 9.46009 1.96783 9.08821 1.49399 8.61934C1.02015 8.15047 0.644324 7.59381 0.387979 6.98117C0.131633 6.36853 -0.000204075 5.71191 2.37108e-07 5.04883C-0.000204075 4.38575 0.131633 3.72913 0.387979 3.11649C0.644324 2.50384 1.02015 1.94718 1.49399 1.47832C1.96783 1.00945 2.53039 0.637563 3.14953 0.383908C3.76867 0.130252 4.43226 -0.000201934 5.10237 2.3462e-07C6.48007 2.3462e-07 7.63127 0.501601 8.51449 1.31606L7.07614 2.73931V2.73572C6.54071 2.23104 5.86119 1.97204 5.10237 1.97204C3.41886 1.97204 2.05048 3.37939 2.05048 5.04575C2.05048 6.7116 3.41886 8.12203 5.10237 8.12203C6.62986 8.12203 7.66962 7.25782 7.88317 6.07101H5.10237V4.10204H9.90204H9.90152Z" fill="white"/>
</svg>
