<svg width="46" height="45" viewBox="0 0 46 45" fill="none" xmlns="http://www.w3.org/2000/svg">
<path d="M3.06662 19.292H5.36662V28.8052H6.89995V19.292H39.0999V28.8052H40.6333V19.292H42.9333C43.3933 19.292 43.6999 18.9993 43.6999 18.5603V15.8527C43.6999 15.6331 43.6233 15.4136 43.3933 15.2672L23.4599 1.1439C23.1533 0.924365 22.8466 0.924365 22.5399 1.1439L3.14329 14.9014H3.06662V14.9745L2.60662 15.2672C2.37662 15.4136 2.29996 15.6331 2.29996 15.8527V18.5603C2.29996 18.9993 2.60739 19.292 3.06662 19.292ZM22.9999 2.60746L42.1666 16.2186V17.8285H39.8666H6.13329H3.83329V16.3649H34.4999V14.9014H5.67329L22.9999 2.60746Z" fill="white"/>
<path d="M24.5333 7.5835H21.4667V9.04736H24.5333V7.5835Z" fill="white"/>
<path d="M26.8333 10.511H19.1666V11.9746H26.8333V10.511Z" fill="white"/>
<path d="M9.96667 20.7559H8.43335V22.2197H9.96667V20.7559Z" fill="white"/>
<path d="M13.0333 20.7559H11.5V22.2197H13.0333V20.7559Z" fill="white"/>
<path d="M16.1 20.7559H14.5667V22.2197H16.1V20.7559Z" fill="white"/>
<path d="M19.1666 20.7559H17.6333V22.2197H19.1666V20.7559Z" fill="white"/>
<path d="M22.2333 20.7559H20.7V22.2197H22.2333V20.7559Z" fill="white"/>
<path d="M25.2999 20.7559H23.7666V22.2197H25.2999V20.7559Z" fill="white"/>
<path d="M28.3666 20.7559H26.8333V22.2197H28.3666V20.7559Z" fill="white"/>
<path d="M31.4333 20.7559H29.8999V22.2197H31.4333V20.7559Z" fill="white"/>
<path d="M34.4999 20.7559H32.9666V22.2197H34.4999V20.7559Z" fill="white"/>
<path d="M37.5667 20.7559H36.0333V22.2197H37.5667V20.7559Z" fill="white"/>
<path d="M42.9333 43.4412V34.2206L43.9299 35.1719L45.0033 34.1474L42.7033 31.952C42.3966 31.6593 41.9366 31.6593 41.6299 31.952L39.3299 34.1474L40.4033 35.1719L41.3999 34.2206V43.4412H33.7333V26.9026L34.73 27.854L35.8033 26.8295L33.5033 24.6341C33.1966 24.3414 32.7366 24.3414 32.43 24.6341L30.13 26.8295L31.2033 27.854L32.2 26.9026V43.4412H13.8V26.9026L14.7966 27.854L15.87 26.8295L13.57 24.6341C13.2633 24.3414 12.8033 24.3414 12.4967 24.6341L10.1967 26.8295L11.27 27.854L12.2666 26.9026V43.4412H4.59999V34.2206L5.59666 35.1719L6.66999 34.1474L4.36999 31.952C4.06333 31.6593 3.60333 31.6593 3.29666 31.952L0.996665 34.1474L2.07 35.1719L3.06666 34.2206V43.4412H0V44.9048H45.9999V43.4412H42.9333Z" fill="white"/>
<path d="M22.2333 27.3416H23.7666C25.07 27.3416 26.0666 28.2929 26.0666 29.5369H27.6C27.6 27.488 25.9133 25.8781 23.7666 25.8781V24.4146H22.2333V25.8781C20.0866 25.8781 18.4 27.488 18.4 29.5369C18.4 31.5859 20.0866 33.1958 22.2333 33.1958H23.7666C25.07 33.1958 26.0666 34.1471 26.0666 35.3911C26.0666 36.6351 25.07 37.5864 23.7666 37.5864H22.2333C20.93 37.5864 19.9333 36.6351 19.9333 35.3911H18.4C18.4 37.44 20.0866 39.0499 22.2333 39.0499V40.5134H23.7666V39.0499C25.9133 39.0499 27.6 37.44 27.6 35.3911C27.6 33.3421 25.9133 31.7322 23.7666 31.7322H22.2333C20.93 31.7322 19.9333 30.7809 19.9333 29.5369C19.9333 28.2929 20.93 27.3416 22.2333 27.3416Z" fill="white"/>
</svg>
