<svg width="36" height="45" viewBox="0 0 36 45" fill="none" xmlns="http://www.w3.org/2000/svg">
<path d="M31.0788 7.22809C30.6396 6.81575 30.1896 6.39653 29.7468 5.97044C29.3004 5.54778 28.8612 5.11825 28.4292 4.69903C25.3476 1.69749 23.5134 0 21.6 0H7.2C3.231 0 0 3.08401 0 6.87245V37.7985C0 41.5869 3.231 44.6709 7.2 44.6709H28.8C32.769 44.6709 36 41.5869 36 37.7985V13.7449C36 11.9203 34.2216 10.1678 31.0788 7.22809ZM32.4 37.7985C32.4 39.6952 30.7872 41.2347 28.8 41.2347H7.2C5.2128 41.2347 3.6 39.6952 3.6 37.7985V6.87245C3.6 4.97565 5.2128 3.43622 7.2 3.43622L20.3202 3.42935C21.618 3.74548 21.6 5.26773 21.6 6.79169V12.0268C21.6 12.9735 22.4082 13.7449 23.4 13.7449H28.8C30.5964 13.7449 32.4 13.7535 32.4 15.463V37.7985Z" fill="white"/>
<path d="M26.5212 25.208C26.6544 25.3695 26.7192 25.5603 26.7192 25.7544C26.7192 25.9486 26.6544 26.141 26.5212 26.299C26.3916 26.4554 23.1318 30.1184 19.4724 32.4654C19.1898 32.6458 18.8244 32.6629 18.5256 32.51C18.2268 32.3571 18.0378 32.0582 18.0378 31.7334V28.6683C16.0272 28.3453 10.3914 28.2508 10.0638 28.0275C9.57781 27.701 9.24841 26.6392 9.24841 25.7561C9.24841 24.8747 9.57781 23.9384 10.0638 23.6119C10.3932 23.3903 16.0272 23.1669 18.0378 22.8456V19.7702C18.0378 19.4472 18.225 19.1482 18.5256 18.9953C18.8262 18.8424 19.1916 18.8596 19.4724 19.04C23.1336 21.3904 26.3916 25.0534 26.5212 25.208Z" fill="white"/>
</svg>
