<svg width="49" height="47" viewBox="0 0 49 47" fill="none" xmlns="http://www.w3.org/2000/svg">
<path d="M5.86316 39.4365H4.29456V40.9341H5.86316V39.4365Z" fill="white"/>
<path d="M9.78479 39.4365H8.21619V40.9341H9.78479V39.4365Z" fill="white"/>
<path d="M5.86316 31.2026H4.29456V32.6997H5.86316V31.2026Z" fill="white"/>
<path d="M9.78479 31.2026H8.21619V32.6997H9.78479V31.2026Z" fill="white"/>
<path d="M25.4707 28.2085H23.9021V32.7009H25.4707V28.2085Z" fill="white"/>
<path d="M20.7649 28.2085H19.1963V32.7009H20.7649V28.2085Z" fill="white"/>
<path d="M16.0591 28.9563H14.4905V32.7H16.0591V28.9563Z" fill="white"/>
<path d="M34.8823 28.9563H33.3137V32.7H34.8823V28.9563Z" fill="white"/>
<path d="M30.1765 28.2085H28.6079V32.7009H30.1765V28.2085Z" fill="white"/>
<path d="M47.431 25.2138V23.7166H45.8624V25.2138H37.235V22.9679H38.8036V20.969L36.4506 20.0445V18.4762H34.882V19.4277L31.7448 18.1948V13.236H33.3134V11.7388H31.745V8.74433H31.5112C30.9778 7.58999 29.614 6.05763 27.0392 5.79332V2.75544H25.4706V0.509521H23.902V2.75544H22.3334V5.79332C19.7585 6.05763 18.3946 7.58999 17.8613 8.74433H17.6276V11.7388H16.059V13.236H17.6276V18.1948L14.4904 19.4277V18.4762H12.9218V20.0445L10.5688 20.969V22.9679H12.1374V25.2138H3.51037V23.7166H1.94177V25.2138H0.373169V46.9236H48.9998V25.2138H47.431ZM12.1376 45.4262H1.94177V43.929H12.1377V45.4262H12.1376ZM12.1376 42.4318H1.94177V37.9401H12.1377V42.4318H12.1376ZM12.1376 36.4429H9.78477V34.1969H8.21617V36.4429H5.86318V34.1969H4.29458V36.4429H1.94177V29.7053H12.1377V36.4429H12.1376ZM12.1376 28.2082H1.94177V26.711H12.1377V28.2082H12.1376ZM29.6997 8.74433H28.4738C28.3757 8.35433 28.2298 7.93734 28.0284 7.53984C28.8449 7.83769 29.3718 8.31297 29.6997 8.74433ZM23.9022 4.25266H25.4708V5.74988H23.9022V4.25266ZM23.9022 7.2471H25.4708C26.1899 7.2471 26.6095 8.07357 26.8322 8.74433H22.5374C22.7579 8.07341 23.1758 7.2471 23.9022 7.2471ZM21.3435 7.54128C21.1419 7.93798 20.996 8.35433 20.8988 8.74433H19.6737C20.0018 8.31456 20.5287 7.83912 21.3435 7.54128ZM19.1964 10.2415H30.1766V11.7388H19.1964V10.2415ZM30.1766 13.236V17.5787L29.3922 17.2703V13.236H30.1766ZM27.8236 13.236V16.6533L24.6864 15.4204L21.5492 16.6533V13.236H27.8236ZM19.1964 13.236H19.9807V17.2703L19.1964 17.5787V13.236ZM15.2748 45.4262H13.7062V43.929H15.2748V45.4262ZM19.1964 45.4262H16.8434V43.929H19.1962V45.4262H19.1964ZM23.9022 45.4262H20.765V43.929H23.9022V45.4262ZM28.608 45.4262H25.4708V43.929H28.608V45.4262ZM32.5294 45.4262H30.1764V43.929H32.5294V45.4262ZM35.6666 45.4262H34.098V43.929H35.6666V45.4262ZM35.6666 42.4318H34.098V40.1858H32.5294V42.4318H30.1764V39.4373H28.6078V42.4318H25.4706V39.4373H23.902V42.4318H20.7648V39.4373H19.1962V42.4318H16.8434V40.1858H15.2748V42.4318H13.7062V37.1914H16.8434V38.6886H18.412V37.1914H21.5492V38.6886H23.1178V37.1914H26.255V38.6886H27.8236V37.1914H30.9608V38.6886H32.5294V37.1914H35.6666V42.4318ZM13.7062 35.6943V25.9623H16.8434V35.6943H13.7062ZM18.412 35.6943V25.9623H21.5492V35.6943H18.412ZM23.1178 35.6943V25.9623H26.255V35.6943H23.1178ZM27.8236 35.6943V25.9623H30.9608V35.6943H27.8236ZM35.6666 35.6943H32.5294V25.9623H35.6666V35.6943ZM35.6666 24.4651H13.7062V22.9679H35.6666V24.4651ZM20.9164 21.4706L24.6865 20.0311L28.4565 21.4706H20.9164ZM35.6666 21.4706H32.6806L24.6862 18.4185L16.6918 21.4706H13.7062H13.4129L24.6864 17.0403L35.9599 21.4706H35.6666ZM37.2352 26.711H47.4312V28.2082H37.2352V26.711ZM37.2352 29.7053H47.4312V36.4429H45.0783V34.1969H43.5097V36.4429H41.1568V34.1969H39.5882V36.4429H37.2352V29.7053ZM47.4313 45.4262H37.2353V43.929H47.4313V45.4262ZM47.4313 42.4318H37.2353V37.9401H47.4313V42.4318Z" fill="white"/>
<path d="M45.0781 39.4365H43.5095V40.9341H45.0781V39.4365Z" fill="white"/>
<path d="M41.1567 39.4365H39.5881V40.9341H41.1567V39.4365Z" fill="white"/>
<path d="M45.0781 31.2026H43.5095V32.6997H45.0781V31.2026Z" fill="white"/>
<path d="M41.1567 31.2026H39.5881V32.6997H41.1567V31.2026Z" fill="white"/>
</svg>
