<svg width="34" height="33" viewBox="0 0 34 33" fill="none" xmlns="http://www.w3.org/2000/svg">
<path d="M32.4856 30.0776H7.41187L11.128 28.586C11.278 28.5288 11.4367 28.426 11.5431 28.3241L33.6356 7.23676C34.1214 6.77317 34.1214 6.02142 33.6356 5.55769L28.1773 0.347699C27.6916 -0.1159 26.9039 -0.1159 26.4182 0.347699C26.016 0.731558 4.97754 20.8129 4.3257 21.435C4.21307 21.5423 4.10762 21.6962 4.05131 21.831L0.101391 30.7972C-0.249301 31.5768 0.352872 32.4521 1.24478 32.4521H32.4856C33.1726 32.4521 33.7294 31.9205 33.7294 31.2649C33.7294 30.6092 33.1725 30.0776 32.4856 30.0776ZM27.2977 2.86618L30.997 6.39717L28.2885 8.98245L24.5892 5.45146L27.2977 2.86618ZM22.8302 7.13053L26.5295 10.6615L10.6637 25.8055L6.96436 22.2745L22.8302 7.13053ZM5.63444 24.3632L8.4753 27.0749L3.57318 29.0424L5.63444 24.3632Z" fill="white"/>
</svg>
