<svg width="26" height="28" viewBox="0 0 26 28" fill="none" xmlns="http://www.w3.org/2000/svg">
<path d="M8.58904 13.5491C8.35969 13.2438 8.15194 12.9238 7.96662 12.6108C7.33812 11.5493 7.87322 9.97058 8.93056 9.33503C10.11 8.6261 11.2258 7.78725 11.3236 6.75517C11.5249 4.59665 7.549 0.0842027 6.7868 0.0432053C4.70078 0.063704 0.883097 3.3107 0.43068 4.29191C-0.410266 6.32059 0.0064926 8.20853 1.45215 10.9417C3.29302 15.0073 10.1305 22.7196 14.0418 25.1405C16.63 26.9676 18.5207 27.685 20.7783 27.2518C21.828 27.0687 25.6189 24.2078 25.9986 22.2734C26.0914 21.5559 21.6846 16.7995 19.4054 16.611C18.2646 16.514 17.154 17.4924 16.183 18.519C15.3865 19.361 13.9476 19.4794 13.1075 18.6808C12.8967 18.4803 12.6759 18.2609 12.452 18.024C11.0034 16.6239 9.65731 14.9793 8.58904 13.5491Z" fill="#F99013"/>
</svg>
