<svg width="25" height="21" viewBox="0 0 25 21" fill="none" xmlns="http://www.w3.org/2000/svg">
<path d="M5.45508 20.3174C3.78516 20.3174 2.44922 19.7051 1.44727 18.4805C0.482422 17.2188 0 15.7344 0 14.0273C0 12.6172 0.259766 11.2998 0.779297 10.0752C1.29883 8.85059 1.94824 7.7373 2.72754 6.73535C3.54395 5.7334 4.39746 4.86133 5.28809 4.11914C6.21582 3.33984 7.06934 2.69043 7.84863 2.1709C8.62793 1.61426 9.25879 1.20605 9.74121 0.946289C10.2607 0.686523 10.502 0.556641 10.4648 0.556641L11.7451 2.28223C11.4111 2.43066 10.9658 2.72754 10.4092 3.17285C9.85254 3.58105 9.2959 4.08203 8.73926 4.67578C8.21973 5.26953 7.75586 5.91895 7.34766 6.62402C6.93945 7.29199 6.73535 7.94141 6.73535 8.57227C6.73535 8.94336 6.95801 9.31445 7.40332 9.68555C7.84863 10.0195 8.33105 10.4277 8.85059 10.9102C9.37012 11.3555 9.85254 11.9121 10.2979 12.5801C10.7432 13.2109 10.9658 13.9902 10.9658 14.918C10.9658 15.7344 10.7988 16.4766 10.4648 17.1445C10.168 17.8125 9.75977 18.3877 9.24023 18.8701C8.75781 19.3154 8.18262 19.668 7.51465 19.9277C6.84668 20.1875 6.16016 20.3174 5.45508 20.3174ZM19.1484 20.4287C18.2949 20.4287 17.5156 20.2432 16.8105 19.8721C16.1055 19.501 15.4932 19 14.9736 18.3691C14.4541 17.7383 14.0459 17.0146 13.749 16.1982C13.4893 15.3447 13.3594 14.4355 13.3594 13.4707C13.3594 11.541 13.7676 9.75977 14.584 8.12695C15.4375 6.45703 16.3652 5.02832 17.3672 3.84082C18.5547 2.43066 19.9092 1.15039 21.4307 0L23.0449 1.50293C22.7109 1.72559 22.3027 2.07812 21.8203 2.56055C21.375 3.04297 20.9482 3.61816 20.54 4.28613C20.1689 4.91699 19.835 5.58496 19.5381 6.29004C19.2783 6.99512 19.1484 7.68164 19.1484 8.34961C19.1484 8.79492 19.4268 9.16602 19.9834 9.46289C20.54 9.75977 21.1523 10.1309 21.8203 10.5762C22.4883 11.0215 23.1006 11.5967 23.6572 12.3018C24.2139 12.9697 24.4922 13.916 24.4922 15.1406C24.4922 15.8828 24.3438 16.5693 24.0469 17.2002C23.75 17.8311 23.3418 18.3877 22.8223 18.8701C22.3398 19.3525 21.7646 19.7422 21.0967 20.0391C20.4658 20.2988 19.8164 20.4287 19.1484 20.4287Z" fill="white"/>
</svg>
