<svg width="54" height="52" viewBox="0 0 54 52" fill="none" xmlns="http://www.w3.org/2000/svg">
<path d="M25.5338 46.1681C24.37 45.2813 23.3388 44.2472 22.4687 43.0944C22.1281 42.643 21.4688 42.5406 20.9959 42.8659C20.5232 43.191 20.416 43.8205 20.7566 44.2718C21.7389 45.5734 22.9032 46.741 24.2171 47.7423C24.4116 47.8905 24.6439 47.9624 24.8747 47.9624C25.1847 47.9624 25.4917 47.8328 25.7 47.5836C26.0636 47.1489 25.9891 46.5152 25.5338 46.1681Z" fill="white"/>
<path d="M43.7823 20.6029C45.0692 21.3132 46.2497 22.1895 47.2906 23.2076C47.4974 23.4097 47.7715 23.5112 48.0458 23.5112C48.3115 23.5112 48.5774 23.4161 48.7826 23.2248C49.1996 22.8362 49.2076 22.1986 48.8007 21.8005C47.6251 20.6509 46.2922 19.6613 44.8386 18.859C44.3338 18.5806 43.6887 18.7453 43.397 19.2267C43.1054 19.7084 43.278 20.3246 43.7823 20.6029Z" fill="white"/>
<path d="M51.5062 30.5842C51.6176 31.0515 52.0525 31.3682 52.534 31.3682C52.6115 31.3682 52.6902 31.36 52.7691 31.3429C53.3373 31.2194 53.6931 30.6797 53.5638 30.1372C53.1908 28.5722 52.5925 27.0633 51.7856 25.6528C51.5064 25.1645 50.865 24.9846 50.354 25.2515C49.8425 25.518 49.6543 26.13 49.9337 26.6181C50.6472 27.8658 51.1764 29.2002 51.5062 30.5842Z" fill="white"/>
<path d="M33.6422 49.4297C32.1641 49.2549 30.7206 48.8865 29.3516 48.3353C28.8143 48.1191 28.1958 48.3593 27.9693 48.8718C27.7427 49.3844 27.9944 49.9751 28.5313 50.1913C30.0795 50.8147 31.7116 51.2311 33.3826 51.4288C33.4267 51.434 33.4704 51.4365 33.5137 51.4365C34.0385 51.4365 34.4933 51.0631 34.5594 50.5531C34.6313 50.0011 34.2205 49.4981 33.6422 49.4297Z" fill="white"/>
<path d="M40.9502 18.2763C41.0934 17.7371 40.7515 17.1892 40.1869 17.0526C39.0448 16.7762 37.872 16.607 36.6883 16.5446C36.1545 7.33566 28.1376 0 18.3587 0C8.23567 0 0 7.86085 0 17.5232C0 26.8741 7.71329 34.5374 17.386 35.0217C17.3576 35.1258 17.3455 35.2358 17.3542 35.3491C17.4785 36.9537 17.8327 38.5303 18.4069 40.035C18.563 40.444 18.9675 40.6978 19.3984 40.6978C19.5182 40.6978 19.6402 40.6781 19.7593 40.6367C20.3068 40.4463 20.5891 39.8684 20.3898 39.3459C19.8819 38.0151 19.5688 36.6204 19.4587 35.2006C19.4538 35.137 19.4421 35.0754 19.4256 35.016C28.6814 34.5072 36.1201 27.4244 36.682 18.5971L36.683 18.598C36.6838 18.5855 36.6851 18.573 36.6858 18.5606C37.6951 18.6206 38.6947 18.7692 39.6684 19.0049C40.2335 19.1417 40.807 18.8152 40.9502 18.2763ZM19.4501 32.9975C19.9896 25.2744 26.4797 19.0798 34.571 18.5648C34.0314 26.2879 27.5413 32.4826 19.4501 32.9975ZM17.3366 33.0024L17.3355 33.0018C8.85047 32.4965 2.11019 25.7471 2.11019 17.5232C2.11019 8.97146 9.39923 2.01416 18.3587 2.01416C26.9747 2.01416 34.046 8.44768 34.5753 16.5465L34.576 16.5476C25.3163 17.066 17.8797 24.1641 17.3366 33.0024Z" fill="white"/>
<path d="M52.9963 33.8529C52.4126 33.8244 51.9195 34.2542 51.891 34.8099C51.8183 36.233 51.5419 37.6351 51.0702 38.9773C50.8848 39.5046 51.1824 40.0756 51.7348 40.2526C51.8462 40.2883 51.9593 40.3052 52.0707 40.3052C52.5117 40.3052 52.9228 40.0392 53.0708 39.6181C53.6042 38.1007 53.9166 36.5159 53.9987 34.908C54.0272 34.3525 53.5784 33.8801 52.9963 33.8529Z" fill="white"/>
<path d="M50.5583 42.5085C50.0768 42.1948 49.4206 42.3131 49.092 42.7723C48.2533 43.9452 47.2497 45.0037 46.1092 45.9186C45.663 46.2764 45.6054 46.9118 45.9803 47.3376C46.189 47.5747 46.4877 47.6968 46.7885 47.6968C47.0281 47.6968 47.2691 47.6192 47.4668 47.4606C48.7545 46.4276 49.8875 45.2324 50.8347 43.9081C51.1633 43.4488 51.0394 42.8221 50.5583 42.5085Z" fill="white"/>
<path d="M42.3488 48.1793C40.9937 48.7642 39.5601 49.1672 38.0877 49.3774C37.5114 49.4596 37.114 49.9722 37.2003 50.5223C37.2785 51.0219 37.7287 51.3804 38.2424 51.3804C38.2943 51.3804 38.347 51.3767 38.3999 51.3692C40.0647 51.1316 41.6859 50.6758 43.2182 50.0145C43.7491 49.7854 43.985 49.1888 43.7449 48.682C43.5047 48.1753 42.8797 47.9506 42.3488 48.1793Z" fill="white"/>
<path d="M9.89428 7.34924C6.62368 9.83105 4.74792 13.5393 4.74792 17.5232C4.74792 18.0793 5.2204 18.5303 5.80302 18.5303C6.38565 18.5303 6.85812 18.0794 6.85812 17.5232C6.85812 14.1569 8.44341 11.0233 11.2076 8.9258C11.6637 8.57967 11.7395 7.94613 11.3768 7.51077C11.0143 7.07542 10.3505 7.00301 9.89428 7.34924Z" fill="white"/>
<path d="M18.3588 4.53174C17.0763 4.53174 15.8066 4.70199 14.5849 5.03796C14.025 5.19189 13.7018 5.75009 13.863 6.28482C13.9961 6.72626 14.418 7.01367 14.8763 7.01367C14.973 7.01367 15.0713 7.00088 15.169 6.97408C16.2008 6.6904 17.2741 6.54654 18.3588 6.54654C18.9414 6.54654 19.4139 6.09543 19.4139 5.53914C19.4139 4.98285 18.9414 4.53174 18.3588 4.53174Z" fill="white"/>
</svg>
