<svg width="54" height="52" viewBox="0 0 54 52" fill="none" xmlns="http://www.w3.org/2000/svg">
<path d="M25.2864 3.27246C18.5321 3.27246 12.1821 5.78302 7.40605 10.3416C2.63024 14.9001 0 20.961 0 27.4079C0 33.8547 2.63024 39.9155 7.40605 44.474C12.1819 49.0325 18.5319 51.543 25.2864 51.543C25.8951 51.543 26.3885 51.072 26.3885 50.4911V4.32436C26.3885 3.74339 25.8952 3.27246 25.2864 3.27246ZM24.1844 49.4144C11.9671 48.8631 2.20408 39.203 2.20408 27.4079C2.20408 15.6126 11.9671 5.95248 24.1844 5.40118V49.4144Z" fill="white"/>
<path d="M31.4544 22.1111C31.6451 22.2433 31.8722 22.312 32.1023 22.312C32.2164 22.312 32.3313 22.2951 32.4426 22.2606L52.5782 16.0157C52.8562 15.9294 53.087 15.7413 53.2195 15.4927C53.3523 15.2441 53.376 14.9554 53.2857 14.6901C50.2466 5.76616 41.9316 0 32.1021 0C31.4936 0 31.0001 0.470941 31.0001 1.05191V21.26C31.0001 21.5968 31.169 21.9131 31.4544 22.1111ZM33.2042 2.13086C41.2116 2.5247 47.9539 7.20013 50.8219 14.3482L33.2042 19.8122V2.13086Z" fill="white"/>
<path d="M52.6347 22.6868C52.4465 22.1345 51.8249 21.8322 51.2461 22.0118L30.703 28.383C30.249 28.5238 29.9415 28.9277 29.9415 29.3834V50.0009C29.9415 50.5818 30.435 51.0527 31.0435 51.0527C42.2398 51.0527 48.5199 44.3775 51.273 39.2204C54.0267 34.0628 54.5101 28.1911 52.6347 22.6868ZM49.3093 38.2652C46.8234 42.9217 41.2666 48.2332 32.1457 48.9249V30.1476L50.8521 24.3461C52.1638 29.0184 51.6278 33.9224 49.3093 38.2652Z" fill="white"/>
</svg>
