<svg width="46" height="52" viewBox="0 0 46 52" fill="none" xmlns="http://www.w3.org/2000/svg">
<path d="M39.9601 0H5.40128C2.42239 0 0 2.31188 0 5.15379V46.3898C0 49.2309 2.42209 51.5425 5.40128 51.5425H39.9601C42.9384 51.5425 45.3605 49.2309 45.3605 46.3898V5.1555C45.362 2.3133 42.9402 0 39.9601 0ZM43.2016 46.3898C43.2016 48.0957 41.7476 49.4827 39.9601 49.4827H5.40128C3.61436 49.4827 2.16129 48.0957 2.16129 46.3898V5.1555C2.16129 3.4499 3.61436 2.06294 5.40128 2.06294H39.9601C41.7461 2.06294 43.1992 3.4499 43.1992 5.1555V46.3901H43.2016V46.3898Z" fill="white"/>
<path d="M34.0691 22.5361H11.2944C10.7462 22.5361 10.3036 22.9604 10.3036 23.4836C10.3036 24.0066 10.7462 24.4312 11.2944 24.4312H34.0688C34.6175 24.4312 35.0602 24.0069 35.0602 23.4836C35.0605 22.9607 34.6176 22.5361 34.0691 22.5361Z" fill="white"/>
<path d="M34.0691 26.8525H11.2944C10.7462 26.8525 10.3036 27.2778 10.3036 27.8013C10.3036 28.3248 10.7462 28.748 11.2944 28.748H34.0688C34.6175 28.748 35.0602 28.3248 35.0602 27.8013C35.059 27.275 34.6176 26.8525 34.0691 26.8525Z" fill="white"/>
<path d="M34.0691 31.1685H11.2944C10.7462 31.1685 10.3036 31.5936 10.3036 32.1164C10.3036 32.6397 10.7462 33.0635 11.2944 33.0635H34.0688C34.6175 33.0635 35.0602 32.6397 35.0602 32.1164C35.0605 31.5936 34.6176 31.1685 34.0691 31.1685Z" fill="white"/>
<path d="M34.0691 35.4858H22.6809C22.1336 35.4858 21.6889 35.9093 21.6889 36.4327C21.6889 36.9561 22.1336 37.3813 22.6809 37.3813H34.0688C34.6176 37.3813 35.0587 36.9561 35.0587 36.4327C35.0587 35.9093 34.6176 35.4858 34.0691 35.4858Z" fill="white"/>
<path d="M34.0691 44.0112H26.0967C25.5468 44.0112 25.1053 44.4347 25.1053 44.9578C25.1053 45.4803 25.5468 45.9038 26.0967 45.9038H34.0691C34.6179 45.9038 35.059 45.4803 35.059 44.9578C35.059 44.4347 34.6176 44.0112 34.0691 44.0112Z" fill="white"/>
<path d="M23.787 18.3745C23.787 16.5827 21.6257 14.1658 18.7082 13.4597C19.927 12.6773 20.767 11.1322 20.767 9.74068C20.767 7.77819 19.102 6.18555 17.0441 6.18555C14.9886 6.18555 13.3212 7.77819 13.3212 9.74068C13.3212 11.1308 14.1612 12.6759 15.3773 13.4597C12.464 14.1655 10.3012 16.5841 10.3012 18.3745C10.3036 20.4917 23.787 20.4917 23.787 18.3745ZM16.7439 14.491H16.727L16.1105 13.8153C16.4119 13.9172 16.7192 13.9795 17.0444 13.9795C17.3702 13.9795 17.6778 13.9189 17.9785 13.8167L17.3603 14.4907H17.3457L18.9365 18.1594L17.0444 19.9608L15.1543 18.1594L16.7439 14.491Z" fill="white"/>
</svg>
