<svg width="55" height="50" viewBox="0 0 55 50" fill="none" xmlns="http://www.w3.org/2000/svg">
<path d="M36.8881 11.3574H12.4943C11.8398 11.3574 11.3043 11.8686 11.3043 12.4934C11.3043 13.1182 11.8398 13.6294 12.4943 13.6294H36.8881C37.5425 13.6294 38.078 13.1182 38.078 12.4934C38.078 11.8686 37.5425 11.3574 36.8881 11.3574Z" fill="white"/>
<path d="M30.9384 24.9868H12.4943C11.8398 24.9868 11.3043 25.4979 11.3043 26.1226C11.3043 26.7472 11.8398 27.2583 12.4943 27.2583H30.9384C31.5928 27.2583 32.1283 26.7472 32.1283 26.1226C32.1283 25.4979 31.5928 24.9868 30.9384 24.9868Z" fill="white"/>
<path d="M35.6981 18.1724H12.4943C11.8398 18.1724 11.3043 18.6836 11.3043 19.3083C11.3043 19.9331 11.8398 20.4443 12.4943 20.4443H35.6981C36.3526 20.4443 36.8881 19.9331 36.8881 19.3083C36.8881 18.6836 36.3526 18.1724 35.6981 18.1724Z" fill="white"/>
<path d="M42.8373 18.1724H41.0524C40.3979 18.1724 39.8624 18.6836 39.8624 19.3083C39.8624 19.9331 40.3979 20.4443 41.0524 20.4443H42.8373C43.4917 20.4443 44.0272 19.9331 44.0272 19.3083C44.0272 18.6836 43.4917 18.1724 42.8373 18.1724Z" fill="white"/>
<path d="M48.7876 0H5.94971C2.67737 0 0 2.55552 0 5.67892V32.9378C0 36.0612 2.67737 38.6167 5.94971 38.6167H25.1673C25.9407 38.6167 26.7142 38.8438 27.3687 39.3549L40.934 49.4066C41.172 49.577 41.41 49.6338 41.6479 49.6338C41.8264 49.6338 42.0049 49.577 42.1834 49.5202C42.5999 49.3498 42.8379 48.9523 42.8379 48.498V38.6167H48.7876C52.0599 38.6167 54.7373 36.0612 54.7373 32.9378V5.67892C54.7373 2.55552 52.0599 0 48.7876 0ZM52.3574 32.9378C52.3574 34.8118 50.751 36.3451 48.7876 36.3451H42.8379V32.9378C42.8379 32.3131 42.3024 31.802 41.6479 31.802C40.9935 31.802 40.458 32.3131 40.458 32.9378V46.1696L28.7966 37.5377C27.7256 36.7426 26.4762 36.3451 25.1673 36.3451H5.94971C3.9863 36.3451 2.37988 34.8118 2.37988 32.9378V5.67892C2.37988 3.80488 3.9863 2.27157 5.94971 2.27157H48.7876C50.751 2.27157 52.3574 3.80488 52.3574 5.67892V32.9378Z" fill="white"/>
</svg>
