<svg width="61" height="59" viewBox="0 0 61 59" fill="none" xmlns="http://www.w3.org/2000/svg">
<path d="M30.5001 22.6624C30.0705 22.6624 29.6508 22.7025 29.2432 22.776L21.3642 8.56448C20.8492 7.63568 19.6429 7.28101 18.67 7.77268C17.6969 8.2641 17.3255 9.41552 17.8404 10.3443L25.7182 24.5541C24.5304 25.688 23.8358 27.2011 23.7525 28.7836C23.7211 29.3796 23.7806 29.9782 23.9043 30.5068L17.151 34.1779C16.1944 34.698 15.8605 35.8598 16.4054 36.7728C16.773 37.389 17.4464 37.7344 18.1394 37.7344C18.474 37.7344 18.8128 37.6538 19.1241 37.4846L25.8814 33.8114C27.0905 34.8944 28.7149 35.5599 30.5 35.5599C34.2252 35.5599 37.2561 32.667 37.2561 29.1112C37.2561 25.5553 34.2254 22.6624 30.5001 22.6624ZM30.5001 31.7544C28.9695 31.7544 27.7308 30.5624 27.7308 29.1112C27.7308 27.6356 28.9927 26.4679 30.5001 26.4679C32.027 26.4679 33.2693 27.6537 33.2693 29.1112C33.2692 30.5687 32.027 31.7544 30.5001 31.7544Z" fill="white"/>
<path d="M30.5 0C13.6554 0 0 13.0338 0 29.1118C0 45.1898 13.6554 58.2236 30.5 58.2236C47.3446 58.2236 61 45.1898 61 29.1118C61 13.0338 47.3446 0 30.5 0ZM49.2476 47.0061C44.7127 51.3346 38.8244 53.9019 32.4935 54.348L32.4936 51.4083C32.4936 50.3575 31.6012 49.5056 30.5001 49.5056C29.3993 49.5056 28.5067 50.3575 28.5067 51.4083L28.5065 54.348C22.1757 53.9018 16.2873 51.3346 11.7525 47.0061C7.21754 42.6777 4.52795 37.0573 4.06042 31.0146H7.14019C8.24111 31.0146 9.13365 30.1626 9.13365 29.1118C9.13365 28.061 8.24111 27.2091 7.14019 27.2091H4.06042C4.52795 21.1663 7.21754 15.546 11.7524 11.2175C16.2873 6.88904 22.1757 4.32174 28.5065 3.87549V6.81508C28.5065 7.8659 29.3991 8.71782 30.5 8.71782C31.6009 8.71782 32.4935 7.8659 32.4935 6.81508V3.87561C38.8243 4.32174 44.7126 6.88904 49.2475 11.2175C53.7823 15.546 56.472 21.1663 56.9394 27.2091H53.8597C52.7588 27.2091 51.8662 28.061 51.8662 29.1118C51.8662 30.1626 52.7588 31.0146 53.8597 31.0146H56.9394C56.4722 37.0573 53.7825 42.6777 49.2476 47.0061Z" fill="white"/>
</svg>
