<svg width="51" height="53" viewBox="0 0 51 53" fill="none" xmlns="http://www.w3.org/2000/svg">
<path d="M34.5943 51.1272C34.6121 51.2785 34.5992 51.4285 34.5595 51.5694C34.5257 51.6901 34.4725 51.8049 34.4034 51.9074C34.2544 52.1291 34.0289 52.3072 33.7519 52.3966C33.7112 52.4099 33.6697 52.4262 33.6273 52.4355C33.5336 52.456 33.4399 52.4763 33.3475 52.4763C33.335 52.4763 33.3225 52.4969 33.31 52.4969H25.7881C25.0959 52.4969 24.5349 51.9615 24.5349 51.3008C24.5349 50.6401 25.0959 50.1047 25.7881 50.1047H31.7541L28.4438 37.0875C27.9354 35.0908 25.2478 33.3639 22.4069 33.1501C21.4389 34.6187 19.4728 35.5889 17.2982 35.5889C15.1235 35.5889 13.1576 34.6267 12.1897 33.1581C9.34895 33.3719 6.6612 35.0896 6.1527 37.0862L2.8424 50.1048H8.80842C9.50059 50.1048 10.0616 50.6403 10.0616 51.3009C10.0616 51.9616 9.50059 52.4971 8.80842 52.4971H1.28653C1.18141 52.4971 1.07475 52.4694 0.967814 52.4459C0.926181 52.4369 0.885245 52.4046 0.845283 52.3915C0.568891 52.3024 0.352651 52.1275 0.203525 51.9064C0.203247 51.9059 0.21188 51.9053 0.21188 51.9049V51.9042C0.0726394 51.8005 0.0791838 51.6849 0.0453485 51.5626C0.00663974 51.4232 -0.0106261 51.2738 0.00677891 51.1244C0.0137409 51.0626 0.0233483 50.9983 0.0399179 50.9397L3.7185 36.4841C4.54225 33.2502 8.5241 30.7008 12.7848 30.7008H12.9571C13.4923 30.7008 13.9685 31.0372 14.1423 31.5206C14.4373 32.341 15.6162 33.1835 17.2983 33.1835C18.9806 33.1835 20.1594 32.345 20.4545 31.5244C20.6282 31.0412 21.1044 30.7008 21.6397 30.7008H21.8119C26.0732 30.7008 30.056 33.2502 30.8794 36.4843L34.5591 50.9477C34.5754 51.0056 34.5873 51.0661 34.5943 51.1272ZM16.1638 17.1446C16.1638 16.4839 15.6028 15.9485 14.9106 15.9485H13.5182C12.8261 15.9485 12.2651 16.4839 12.2651 17.1446C12.2651 17.8053 12.8261 18.3407 13.5182 18.3407H14.9106C15.6028 18.3407 16.1638 17.8053 16.1638 17.1446ZM19.6861 18.3407H21.0787C21.7708 18.3407 22.3318 17.8053 22.3318 17.1446C22.3318 16.4839 21.7708 15.9485 21.0787 15.9485H19.6861C18.994 15.9485 18.433 16.4839 18.433 17.1446C18.433 17.8053 18.994 18.3407 19.6861 18.3407ZM7.4351 19.8819C7.79824 19.9388 8.14536 19.8414 8.42621 19.6142C8.70706 19.387 8.84463 19.0532 8.84463 18.7018V16.4126C8.84463 12.0092 12.6246 8.42691 17.2377 8.42691C17.4619 8.42691 17.6975 8.43528 17.9172 8.4519C16.7558 10.1727 15.0744 11.4165 13.1737 11.9239C12.5072 12.1018 12.1214 12.7618 12.3078 13.398C12.4943 14.0343 13.1881 14.4065 13.8539 14.2276C16.6048 13.4933 18.9976 11.6137 20.4781 9.03973C23.5006 10.2448 25.6307 13.0958 25.6307 16.4126C25.6307 19.8318 23.3778 22.805 20.0614 23.9211C19.6669 23.6033 19.1579 23.3911 18.6026 23.3911H15.9268C14.6777 23.3911 13.6615 24.3917 13.6615 25.584C13.6615 26.7763 14.6777 27.7769 15.9268 27.7769H18.6026C19.6157 27.7769 20.4756 27.1286 20.7643 26.2512C23.9938 25.2091 26.4412 22.7999 27.5196 19.8115C28.9753 19.4742 29.8697 18.6084 29.8697 17.5477V14.8964C29.8697 13.7956 28.9051 12.9104 27.3534 12.602C25.7585 8.75944 21.8385 6.03464 17.2519 6.03464C12.6592 6.03464 8.72405 8.76635 7.13351 12.617C5.62442 12.9385 4.66728 13.813 4.66728 14.8963V17.5476C4.66756 18.6999 5.75684 19.6161 7.4351 19.8819ZM37.7858 12.0943C38.478 12.0943 39.039 11.5588 39.039 10.8981C39.039 10.2375 38.478 9.70199 37.7858 9.70199H37.6814C36.9892 9.70199 36.4282 10.2375 36.4282 10.8981C36.4282 11.5588 36.9892 12.0943 37.6814 12.0943H37.7858ZM42.1411 12.0943C42.8333 12.0943 43.3943 11.5588 43.3943 10.8981C43.3943 10.2375 42.8333 9.70199 42.1411 9.70199H42.0368C41.3447 9.70199 40.7837 10.2375 40.7837 10.8981C40.7837 11.5588 41.3447 12.0943 42.0368 12.0943H42.1411ZM45.0312 0H30.436C27.4737 0 25.0636 2.32143 25.0636 5.14897C25.0636 5.80963 25.6246 6.3556 26.3168 6.3556C27.0089 6.3556 27.5699 5.80432 27.5699 5.14365C27.5699 3.63519 28.8557 2.39214 30.436 2.39214H45.0312C46.6116 2.39214 47.832 3.6615 47.832 5.16983V16.7148C47.832 18.2234 46.6114 19.4037 45.0312 19.4037H32.8173C32.4229 19.4037 32.0514 19.6044 31.8147 19.9058L27.6916 25.1671C27.2765 25.6957 27.3889 26.4512 27.9427 26.8475C28.1681 27.0089 28.4318 27.0897 28.6934 27.0897C29.0745 27.0897 29.4509 26.9024 29.6971 26.5889L33.444 21.7963H45.0312C47.9935 21.7963 50.3383 19.5426 50.3383 16.7151V5.16996C50.3383 2.34243 47.9935 0 45.0312 0ZM33.4305 12.0943C34.1227 12.0943 34.6837 11.5588 34.6837 10.8981C34.6837 10.2375 34.1227 9.70199 33.4305 9.70199H33.3261C32.6339 9.70199 32.0729 10.2375 32.0729 10.8981C32.0729 11.5588 32.6339 12.0943 33.3261 12.0943H33.4305Z" fill="white"/>
</svg>
