<svg width="48" height="46" viewBox="0 0 48 46" fill="none" xmlns="http://www.w3.org/2000/svg">
<path d="M48 43.1421H0V45.0522H48V43.1421Z" fill="white"/>
<path d="M7.5 15H4.5V8L24.5 1L43.5 8V15H41M7.5 15V39H41V15M7.5 15H41" stroke="white"/>
<path d="M26.7773 31.5469C26.7773 30.8828 26.5664 30.3359 26.1445 29.9062C25.7227 29.4688 25.0195 29.0781 24.0352 28.7344C23.0508 28.3828 22.2852 28.0586 21.7383 27.7617C19.918 26.7852 19.0078 25.3398 19.0078 23.4258C19.0078 22.1289 19.4023 21.0625 20.1914 20.2266C20.9805 19.3906 22.0508 18.8945 23.4023 18.7383V16.1836H25.2773V18.7617C26.6367 18.957 27.6875 19.5352 28.4297 20.4961C29.1719 21.4492 29.543 22.6914 29.543 24.2227H26.707C26.707 23.2383 26.4844 22.4648 26.0391 21.9023C25.6016 21.332 25.0039 21.0469 24.2461 21.0469C23.4961 21.0469 22.9102 21.25 22.4883 21.6562C22.0664 22.0625 21.8555 22.6445 21.8555 23.4023C21.8555 24.082 22.0625 24.6289 22.4766 25.043C22.8984 25.4492 23.6094 25.8359 24.6094 26.2031C25.6094 26.5703 26.3945 26.9102 26.9648 27.2227C27.5352 27.5352 28.0156 27.8945 28.4062 28.3008C28.7969 28.6992 29.0977 29.1602 29.3086 29.6836C29.5195 30.207 29.625 30.8203 29.625 31.5234C29.625 32.8438 29.2188 33.9141 28.4062 34.7344C27.6016 35.5547 26.4766 36.0391 25.0312 36.1875V38.4727H23.168V36.1992C21.6211 36.0273 20.4297 35.4727 19.5938 34.5352C18.7656 33.5977 18.3516 32.3555 18.3516 30.8086H21.1992C21.1992 31.793 21.4453 32.5547 21.9375 33.0938C22.4375 33.6328 23.1406 33.9023 24.0469 33.9023C24.9375 33.9023 25.6133 33.6875 26.0742 33.2578C26.543 32.8281 26.7773 32.2578 26.7773 31.5469Z" fill="white"/>
</svg>
