<svg width="24" height="31" viewBox="0 0 24 31" fill="none" xmlns="http://www.w3.org/2000/svg">
<path d="M1.39572 11.7911C-0.980278 16.1257 0.530187 22.7039 3.15765 26.6924C4.46917 28.6865 5.797 30.4764 7.6157 30.4764C7.64997 30.4764 7.68434 30.4757 7.71954 30.4743C8.57402 30.4384 9.19149 30.1619 9.78851 29.8946C10.4588 29.5943 11.152 29.2838 12.2393 29.2838C13.2738 29.2838 13.9339 29.5842 14.5723 29.8746C15.2015 30.1608 15.8495 30.4569 16.8071 30.438C18.8557 30.3979 20.1135 28.4664 21.2232 26.7624C22.3812 24.9833 22.9621 23.2559 23.1581 22.5958L23.1661 22.5696C23.2034 22.4523 23.1507 22.3242 23.0437 22.2726C23.0407 22.2711 23.0299 22.2664 23.0268 22.265C22.6661 22.1099 19.5016 20.634 19.4683 16.6114C19.4374 13.3432 21.8423 11.6125 22.3246 11.2989L22.3471 11.2841C22.3993 11.2488 22.4357 11.1927 22.4481 11.1285C22.4604 11.0645 22.4475 10.9979 22.4125 10.944C20.7526 8.39018 18.2084 8.0053 17.1841 7.95899C17.0355 7.94339 16.882 7.93555 16.728 7.93555C15.5249 7.93555 14.3724 8.41324 13.4465 8.79706C12.8074 9.06201 12.2554 9.29083 11.8746 9.29083C11.4468 9.29083 10.8916 9.0592 10.2487 8.79105C9.38896 8.43232 8.41451 8.02583 7.38293 8.02583C7.35833 8.02583 7.3341 8.02613 7.31023 8.02661C4.91166 8.06371 2.64522 9.50638 1.39572 11.7911Z" fill="black"/>
<path d="M17.1863 0.929874C15.7338 0.992067 13.9914 1.93205 12.9499 3.21448C12.0649 4.29241 11.2003 6.08963 11.4281 7.90119C11.4423 8.01454 11.5301 8.10202 11.6385 8.11083C11.7366 8.11887 11.8366 8.12294 11.9363 8.12304C13.3566 8.12304 14.8887 7.29698 15.935 5.96689C17.0363 4.5624 17.5931 2.75994 17.4247 1.14542C17.4114 1.0189 17.3055 0.924933 17.1863 0.929874Z" fill="black"/>
</svg>
