<svg width="64" height="60" viewBox="0 0 64 60" fill="none" xmlns="http://www.w3.org/2000/svg">
<g clip-path="url(#clip0_367_1739)">
<path d="M63.9499 31.8853C63.7446 33.2787 63.5928 34.6821 63.3241 36.0572C61.0346 47.8536 51.1789 57.4806 39.3191 59.4948C30.7467 60.9516 22.9052 59.2545 15.9399 53.9379C13.8576 52.3357 12.0185 50.4404 10.4797 48.3108C9.72878 47.2779 9.86562 46.0747 10.8135 45.3838C11.7613 44.693 12.9395 44.9233 13.7071 45.9479C17.5836 51.121 22.6817 54.4151 29.0329 55.5566C43.4843 58.1548 56.3788 48.9566 59.3408 35.6317C60.744 29.3071 59.734 22.6865 56.5089 17.068C53.2839 11.4495 48.0763 7.23841 41.9073 5.26035C27.2223 0.566154 11.6829 9.62748 8.5323 24.723C8.46888 25.0267 8.4255 25.3338 8.36542 25.6392L8.55564 25.8144C8.86102 25.4389 9.13804 25.0351 9.47679 24.693C10.3412 23.8202 11.5561 23.7885 12.3704 24.5862C13.1848 25.3838 13.1798 26.612 12.3187 27.4848C10.71 29.1135 9.09078 30.7322 7.46097 32.3409C6.42801 33.3622 5.0763 33.2287 4.26361 32.0255C2.95865 30.0953 1.66648 28.1568 0.387104 26.2099C-0.292078 25.1786 -0.0784566 23.9904 0.867726 23.3496C1.81391 22.7088 2.99539 22.9708 3.70461 23.9754C3.90652 24.2608 4.09843 24.5561 4.37211 24.955C4.45721 24.6212 4.51895 24.4026 4.57068 24.179C7.42591 11.8953 14.9269 3.93203 27.1255 0.873205C43.7196 -3.28866 60.5306 7.88197 63.4593 24.6963C63.6579 25.8361 63.793 26.9909 63.9432 28.1373L63.9499 31.8853Z" fill="#FD7EA5"/>
<path d="M30.9737 21.9831C30.9737 19.006 30.9737 16.0306 30.9737 13.0536C30.9637 12.5588 31.1383 12.0781 31.4635 11.7051C31.7886 11.3321 32.2411 11.0936 32.7325 11.036C33.224 10.9807 33.7185 11.1091 34.1208 11.3965C34.5232 11.684 34.805 12.1102 34.912 12.593C34.9585 12.859 34.9759 13.1292 34.9637 13.399C34.9637 18.7273 34.9737 24.054 34.9537 29.3823C34.941 29.5842 34.9828 29.7858 35.0747 29.966C35.1666 30.1463 35.3051 30.2985 35.476 30.4069C38.9203 32.9918 42.3479 35.5984 45.7839 38.1933C46.2962 38.5805 46.7367 39.0077 46.8285 39.6785C46.9453 40.5446 46.6616 41.2555 45.9073 41.7094C45.1531 42.1633 44.3521 42.1182 43.6295 41.5792C42.0092 40.3744 40.4005 39.1579 38.7901 37.948C36.5273 36.2492 34.2728 34.5404 31.995 32.8633C31.6603 32.6339 31.3902 32.3223 31.2105 31.9585C31.0308 31.5947 30.9475 31.1909 30.9687 30.7857C30.9837 27.8521 30.9737 24.9167 30.9737 21.9831Z" fill="#FD7EA5"/>
</g>
<defs>
<clipPath id="clip0_367_1739">
<rect width="63.9499" height="60" fill="white"/>
</clipPath>
</defs>
</svg>
