<svg width="47" height="60" viewBox="0 0 47 60" fill="none" xmlns="http://www.w3.org/2000/svg">
<g clip-path="url(#clip0_367_1723)">
<path d="M11.3349 5.97716C11.645 4.89375 11.8587 4.71982 12.8918 4.71982C14.2519 4.71982 15.6161 4.73869 16.9698 4.69678C17.1038 4.67505 17.2308 4.6217 17.3401 4.54117C17.4494 4.46063 17.538 4.35522 17.5985 4.23365C18.5624 1.50943 20.6517 -0.0391874 23.355 0.00481933C25.9891 0.048826 28.0406 1.68126 28.8747 4.41806C28.8977 4.49141 28.9271 4.56265 28.9857 4.71773C30.4715 4.71773 31.9824 4.71773 33.4954 4.71773C34.5893 4.71773 34.7758 4.86022 35.1278 5.97506C37.4015 5.97506 39.6982 5.96039 41.995 5.97506C44.2309 5.99392 45.9514 7.43147 46.3705 9.60457C46.4292 9.96539 46.4545 10.3309 46.4459 10.6964C46.4459 25.5525 46.4459 40.4079 46.4459 55.2626C46.4459 58.1817 44.6228 59.9964 41.6911 59.9985C29.3762 59.9985 17.0606 59.9985 4.74434 59.9985C1.82314 59.9985 0.00836182 58.1691 0.00836182 55.2416C0.00836182 40.4107 0.00836182 25.5811 0.00836182 10.7529C0.00836182 7.77515 1.81056 5.97506 4.79463 5.97087C6.95725 5.96458 9.12614 5.97716 11.3349 5.97716ZM38.3927 52.7081V13.3116H8.05743V52.7081H38.3927ZM11.381 8.2236C11.1106 8.20893 10.8801 8.18587 10.6517 8.18378C8.69026 8.18378 6.7309 8.18378 4.76946 8.18378C3.02177 8.18378 2.19401 9.022 2.19401 10.7969V55.1829C2.19401 56.9809 3.03226 57.8003 4.84073 57.8024C17.1039 57.8024 29.3657 57.8024 41.6262 57.8024C43.4262 57.8024 44.2393 56.9642 44.2393 55.1515C44.2393 51.0191 44.2393 46.8873 44.2393 42.7563V10.9813C44.2393 8.91304 43.4828 8.16702 41.3956 8.16702H35.9053C35.6266 8.16702 35.3499 8.19007 35.067 8.20264V11.0379H38.9522C40.3206 11.0379 40.6287 11.346 40.6287 12.6767V53.3158C40.6287 54.6025 40.2997 54.9294 39.0004 54.9294H7.39101C6.13367 54.9294 5.79841 54.5941 5.79841 53.3598V12.6431C5.79841 11.3627 6.12738 11.0421 7.4371 11.04C8.74683 11.0379 10.0356 11.04 11.3768 11.04L11.381 8.2236ZM32.785 7.03122C32.6823 6.97464 32.6613 6.95369 32.6383 6.95369C31.1504 6.94321 29.6605 6.94321 28.1727 6.92435C27.2926 6.91177 26.9153 6.55553 26.8294 5.72779C26.6198 3.61127 25.2054 2.22402 23.246 2.21354C21.2511 2.20097 19.8302 3.57984 19.6039 5.74874C19.5201 6.53877 19.1408 6.90968 18.3194 6.92226C17.0117 6.94112 15.7062 6.92226 14.3986 6.92226H13.6861V10.9939H32.785V7.03122Z" fill="#FD7EA5"/>
<path d="M20.021 26.8461C19.1953 26.8461 18.4682 26.8587 17.7389 26.8461C16.8483 26.8273 16.4627 26.4417 16.4543 25.5406C16.4417 24.2833 16.4417 23.0259 16.4543 21.7686C16.4543 20.7858 16.8357 20.4316 17.85 20.4233C18.5269 20.4233 19.2058 20.4233 20.021 20.4233C20.021 19.6961 20.021 19.0046 20.021 18.313C20.0335 17.2045 20.3835 16.8461 21.4627 16.8357C22.6656 16.8357 23.8684 16.8231 25.0692 16.8357C26.0164 16.8461 26.3915 17.2233 26.4166 18.1705C26.4355 18.8495 26.4334 19.5285 26.446 20.2074C26.446 20.2556 26.4879 20.3017 26.5445 20.417C27.236 20.417 27.961 20.417 28.6861 20.417C29.5914 20.4316 29.977 20.8047 29.9853 21.7015C29.9993 22.984 29.9993 24.2651 29.9853 25.5448C29.9853 26.4375 29.5851 26.8168 28.6819 26.8336C27.9589 26.8461 27.2339 26.8336 26.4187 26.8336C26.4187 27.6152 26.4292 28.3151 26.4187 29.015C26.4019 30.0272 26.0436 30.4002 25.0545 30.4128C23.8265 30.4267 22.5978 30.4267 21.3684 30.4128C20.4149 30.4002 20.0461 30.0272 20.0252 29.0758C20.0084 28.3633 20.021 27.6362 20.021 26.8461ZM22.2171 19.0716C22.2171 19.8134 22.2171 20.4631 22.2171 21.1127C22.2045 22.2694 21.8609 22.6152 20.7272 22.6215C20.0566 22.6215 19.3839 22.6215 18.7154 22.6215V24.65H20.6559C21.9133 24.65 22.2108 24.9685 22.2192 26.2384C22.2192 26.8797 22.2192 27.5209 22.2192 28.1621H24.1346C24.1744 28.0678 24.1932 28.0448 24.1932 28.0197C24.2058 27.3428 24.21 26.6638 24.231 25.987C24.2624 25.023 24.6207 24.6668 25.5742 24.6521C26.2951 24.6416 27.0181 24.6521 27.7578 24.6521V22.6236C27.0495 22.6236 26.3768 22.6236 25.7041 22.6236C24.604 22.6236 24.2477 22.2715 24.2372 21.1777C24.2268 20.4861 24.2372 19.7925 24.2372 19.0821L22.2171 19.0716Z" fill="#FD7EA5"/>
<path d="M23.2229 36.4305C20.3478 36.4305 17.4727 36.4305 14.5976 36.4305C13.5876 36.4305 12.9589 35.6048 13.4409 34.863C13.5678 34.6932 13.7292 34.5523 13.9145 34.4493C14.0998 34.3464 14.3047 34.2838 14.5159 34.2657C20.3185 34.228 26.1211 34.2343 31.9237 34.2427C32.7053 34.2427 33.1517 34.6932 33.1328 35.3743C33.1119 36.0134 32.676 36.4221 31.9258 36.4221C29.0255 36.4367 26.1232 36.4305 23.2229 36.4305Z" fill="#FD7EA5"/>
<path d="M23.2104 42.2762C20.3353 42.2762 17.4602 42.2762 14.5872 42.2762C13.6819 42.2762 13.181 41.746 13.3298 40.9874C13.4577 40.3378 13.9292 40.0989 14.5327 40.0905C15.6035 40.0758 16.6765 40.0905 17.7473 40.0905H31.3872C31.6481 40.0764 31.9096 40.0855 32.1689 40.1177C32.785 40.2309 33.1622 40.5913 33.1286 41.2493C33.0951 41.9074 32.7095 42.251 32.0809 42.272C31.3244 42.2971 30.5658 42.2846 29.8072 42.2846L23.2104 42.2762Z" fill="#FD7EA5"/>
<path d="M23.223 45.9668C26.0981 45.9668 28.9725 45.9668 31.8462 45.9668C32.5293 45.9668 33.0344 46.1931 33.1245 46.9391C33.2062 47.616 32.762 48.1106 31.9992 48.1525C31.2364 48.1944 30.5323 48.165 29.803 48.165H15.065C14.8302 48.1763 14.5949 48.1707 14.3609 48.1483C13.7112 48.0561 13.2879 47.7124 13.3131 47.0125C13.3382 46.3126 13.7657 45.9794 14.4384 45.9752C16.3244 45.9647 18.2104 45.9752 20.0838 45.9752L23.223 45.9668Z" fill="#FD7EA5"/>
</g>
<defs>
<clipPath id="clip0_367_1723">
<rect width="46.4417" height="60" fill="white"/>
</clipPath>
</defs>
</svg>
