<svg width="47" height="50" viewBox="0 0 47 50" fill="none" xmlns="http://www.w3.org/2000/svg">
<path d="M22.4882 19.166C21.3345 19.166 20.2067 19.5081 19.2474 20.1491C18.2881 20.7901 17.5405 21.7011 17.0989 22.767C16.6574 23.8329 16.5419 25.0058 16.767 26.1374C16.9921 27.2689 17.5476 28.3083 18.3635 29.1241C19.1793 29.9399 20.2187 30.4955 21.3502 30.7206C22.4818 30.9457 23.6547 30.8302 24.7206 30.3886C25.7865 29.9471 26.6975 29.1995 27.3385 28.2402C27.9795 27.2809 28.3216 26.1531 28.3216 24.9993C28.3216 23.4523 27.707 21.9685 26.613 20.8746C25.5191 19.7806 24.0353 19.166 22.4882 19.166ZM22.4882 29.166C21.6642 29.166 20.8586 28.9216 20.1734 28.4638C19.4882 28.006 18.9541 27.3552 18.6387 26.5939C18.3234 25.8325 18.2409 24.9947 18.4016 24.1865C18.5624 23.3782 18.9592 22.6358 19.542 22.0531C20.1247 21.4704 20.8671 21.0735 21.6754 20.9127C22.4836 20.752 23.3214 20.8345 24.0828 21.1499C24.8441 21.4652 25.4949 21.9993 25.9527 22.6845C26.4105 23.3697 26.6549 24.1753 26.6549 24.9993C26.6549 26.1044 26.2159 27.1642 25.4345 27.9456C24.6531 28.727 23.5933 29.166 22.4882 29.166Z" fill="#FD7EA5"/>
<path d="M43.3215 21.6667C44.0542 21.6654 44.7661 21.4227 45.347 20.9762C45.9279 20.5297 46.3455 19.9042 46.5353 19.1965C46.725 18.4888 46.6763 17.7383 46.3966 17.0611C46.117 16.3839 45.622 15.8176 44.9882 15.45C45.0192 14.2889 44.7463 13.1398 44.1965 12.1167C43.6931 11.2797 43.0226 10.5554 42.2269 9.9891C41.4311 9.42276 40.5272 9.02649 39.5715 8.825C36.8918 8.24159 34.1179 8.24159 31.4382 8.825C29.2965 3.375 26.1132 0 22.4882 0C18.8632 0 15.6799 3.33333 13.5549 8.75C12.6175 8.58039 11.6717 8.46078 10.7215 8.39167C10.5247 7.6055 10.0482 6.91798 9.38112 6.45771C8.71407 5.99744 7.90218 5.79595 7.09733 5.89094C6.29249 5.98593 5.54981 6.37088 5.00824 6.9738C4.46666 7.57671 4.16329 8.35627 4.15487 9.16667C4.15487 9.16667 4.15487 9.16667 4.15487 9.21667C2.7495 9.76436 1.57343 10.7758 0.821538 12.0833C-1.0368 15.4167 0.429871 20.175 4.27987 25C0.396538 29.825 -1.07013 34.5833 0.821538 37.9167C1.32197 38.762 1.99198 39.4945 2.78939 40.0682C3.5868 40.6419 4.49433 41.0442 5.45487 41.25C6.6878 41.5661 7.95719 41.7174 9.22987 41.7C10.6949 41.6902 12.1561 41.5508 13.5965 41.2833C14.0218 42.3673 14.5231 43.4199 15.0965 44.4333C14.5682 45.0563 14.2869 45.8516 14.3062 46.6682C14.3255 47.4848 14.644 48.2659 15.2012 48.8632C15.7584 49.4605 16.5156 49.8324 17.3289 49.9084C18.1422 49.9843 18.9551 49.7589 19.6132 49.275C20.4978 49.7482 21.485 49.9971 22.4882 50C26.1132 50 29.2965 46.6667 31.4215 41.2417C32.8726 41.5143 34.3451 41.6566 35.8215 41.6667C37.0942 41.6841 38.3636 41.5327 39.5965 41.2167C40.5558 41.0103 41.4619 40.6077 42.2578 40.034C43.0538 39.4603 43.7224 38.7281 44.2215 37.8833C46.0882 34.55 44.6215 29.7833 40.7632 24.9583C41.612 23.9081 42.3782 22.7936 43.0549 21.625C43.1215 21.6667 43.2215 21.6667 43.3215 21.6667ZM43.3215 20C42.9919 20 42.6697 19.9023 42.3956 19.7191C42.1215 19.536 41.9079 19.2757 41.7817 18.9711C41.6556 18.6666 41.6226 18.3315 41.6869 18.0082C41.7512 17.6849 41.9099 17.3879 42.143 17.1548C42.3761 16.9217 42.6731 16.763 42.9964 16.6987C43.3197 16.6344 43.6548 16.6674 43.9593 16.7935C44.2639 16.9197 44.5242 17.1333 44.7073 17.4074C44.8905 17.6815 44.9882 18.0037 44.9882 18.3333C44.9882 18.7754 44.8126 19.1993 44.5 19.5118C44.1875 19.8244 43.7636 20 43.3215 20ZM22.4882 1.66667C25.3049 1.66667 27.8965 4.55833 29.7382 9.11667C27.2533 9.71529 24.8269 10.5352 22.4882 11.5667C20.1528 10.514 17.7261 9.67716 15.2382 9.06667C17.0799 4.55833 19.6715 1.66667 22.4882 1.66667ZM32.4882 25C32.4892 26.9492 32.3779 28.8969 32.1549 30.8333C30.6583 31.9708 29.1004 33.0251 27.4882 33.9917C25.873 34.9589 24.2036 35.8326 22.4882 36.6083C20.7728 35.8326 19.1034 34.9589 17.4882 33.9917C15.872 33.0272 14.3112 31.9727 12.8132 30.8333C12.5973 28.8964 12.4888 26.9489 12.4882 25C12.4875 23.0508 12.5988 21.1031 12.8215 19.1667C14.3181 18.0292 15.876 16.9749 17.4882 16.0083C19.1042 15.0425 20.7735 14.1689 22.4882 13.3917C24.2036 14.1674 25.873 15.0411 27.4882 16.0083C29.1001 16.9712 30.6554 18.0257 32.1465 19.1667C32.3723 21.1029 32.4864 23.0506 32.4882 25ZM33.9799 20.6C35.6041 21.9483 37.1224 23.4193 38.5215 25C37.1247 26.5803 35.6062 28.0487 33.9799 29.3917C34.0882 27.9667 34.1549 26.5 34.1549 24.9917C34.1549 23.4833 34.0882 22.0167 33.9799 20.5917V20.6ZM31.8299 33.1583C31.491 35.2513 30.9838 37.3136 30.3132 39.325C28.3422 38.8632 26.4089 38.2531 24.5299 37.5C25.8049 36.875 27.0799 36.1833 28.3382 35.4333C29.5965 34.6833 30.7132 33.9417 31.8299 33.1583ZM20.4382 37.5C18.5579 38.2597 16.6215 38.8727 14.6465 39.3333C13.9729 37.3205 13.4683 35.255 13.1382 33.1583C14.2493 33.9417 15.416 34.7 16.6382 35.4333C17.8604 36.1667 19.1271 36.8556 20.4382 37.5ZM10.9882 29.3917C9.36723 28.0485 7.85425 26.5801 6.4632 25C7.8571 23.4172 9.37285 21.946 10.9965 20.6C10.8799 22.0278 10.8215 23.4944 10.8215 25C10.8215 26.5083 10.8799 27.9667 10.9882 29.3917ZM13.1465 16.8417C13.4816 14.7514 13.9861 12.6919 14.6549 10.6833C16.6443 11.1407 18.5948 11.7537 20.4882 12.5167C19.2132 13.1417 17.9382 13.825 16.6799 14.575C15.4215 15.325 14.2549 16.0583 13.1465 16.8417ZM28.3215 14.575C27.0632 13.825 25.8215 13.1417 24.5132 12.5083C26.392 11.7524 28.3253 11.1395 30.2965 10.675C30.9632 12.6875 31.4704 14.7495 31.8132 16.8417C30.7188 16.0583 29.5549 15.3028 28.3215 14.575ZM7.4882 7.5C7.81784 7.5 8.14007 7.59775 8.41416 7.78088C8.68824 7.96402 8.90186 8.22432 9.028 8.52886C9.15415 8.8334 9.18716 9.16852 9.12285 9.49182C9.05854 9.81512 8.8998 10.1121 8.66672 10.3452C8.43363 10.5783 8.13666 10.737 7.81335 10.8013C7.49005 10.8656 7.15494 10.8326 6.8504 10.7065C6.54586 10.5803 6.28556 10.3667 6.10242 10.0926C5.91929 9.81853 5.82154 9.4963 5.82154 9.16667C5.82154 8.72464 5.99713 8.30072 6.30969 7.98816C6.62225 7.67559 7.04618 7.5 7.4882 7.5ZM2.24654 12.9C2.79096 11.9668 3.629 11.2401 4.62987 10.8333C4.96378 11.3867 5.45138 11.8311 6.0333 12.1124C6.61521 12.3937 7.26636 12.4997 7.90745 12.4176C8.54854 12.3354 9.15193 12.0687 9.64416 11.6498C10.1364 11.231 10.4962 10.678 10.6799 10.0583C11.4215 10.1167 12.1882 10.2083 12.9715 10.3417C12.1413 12.9075 11.5608 15.5475 11.2382 18.225C9.13247 19.8518 7.1799 21.6676 5.40487 23.65C2.1132 19.5167 0.821538 15.5167 2.24654 12.9ZM5.82154 39.6C5.08084 39.4529 4.37831 39.155 3.75757 38.725C3.13684 38.2949 2.61116 37.7418 2.2132 37.1C0.821538 34.4833 2.1132 30.4833 5.3632 26.3333C7.15347 28.3156 9.11986 30.1314 11.2382 31.7583C11.5615 34.4426 12.1477 37.0886 12.9882 39.6583C10.6223 40.1481 8.17917 40.1282 5.82154 39.6ZM17.4882 48.3333C17.1586 48.3333 16.8363 48.2356 16.5623 48.0524C16.2882 47.8693 16.0746 47.609 15.9484 47.3045C15.8223 46.9999 15.7893 46.6648 15.8536 46.3415C15.9179 46.0182 16.0766 45.7212 16.3097 45.4882C16.5428 45.2551 16.8398 45.0963 17.1631 45.032C17.4864 44.9677 17.8215 45.0007 18.126 45.1269C18.4306 45.253 18.6909 45.4666 18.874 45.7407C19.0571 46.0148 19.1549 46.337 19.1549 46.6667C19.1549 47.1087 18.9793 47.5326 18.6667 47.8452C18.3542 48.1577 17.9302 48.3333 17.4882 48.3333ZM22.4882 48.3333C21.8292 48.327 21.18 48.1732 20.5882 47.8833C20.7862 47.3783 20.858 46.8325 20.7972 46.2934C20.7365 45.7543 20.545 45.2382 20.2396 44.7898C19.9341 44.3415 19.5238 43.9745 19.0444 43.7206C18.5649 43.4668 18.0307 43.3339 17.4882 43.3333C17.1453 43.3415 16.8055 43.4004 16.4799 43.5083C16.0064 42.6615 15.5888 41.7847 15.2299 40.8833C17.7185 40.2881 20.1479 39.468 22.4882 38.4333C24.8271 39.4643 27.2534 40.2842 29.7382 40.8833C27.8965 45.4417 25.3049 48.3333 22.4882 48.3333ZM42.7299 37.1C42.3308 37.7408 41.8048 38.2932 41.1842 38.7231C40.5637 39.1531 39.8617 39.4515 39.1215 39.6C36.7752 40.1262 34.344 40.1489 31.9882 39.6667C32.8288 37.0884 33.4149 34.4341 33.7382 31.7417C35.8464 30.1178 37.7992 28.3017 39.5715 26.3167C42.8549 30.475 44.1965 34.4833 42.7299 37.1ZM39.6215 23.6833C37.8328 21.6941 35.8632 19.8752 33.7382 18.25C33.4149 15.5603 32.8287 12.9087 31.9882 10.3333C34.344 9.85105 36.7752 9.87378 39.1215 10.4C39.8611 10.5472 40.5624 10.8452 41.1818 11.2753C41.8011 11.7054 42.3253 12.2585 42.7215 12.9C43.0781 13.5455 43.2832 14.2636 43.3215 15C42.6143 15.0052 41.9271 15.2352 41.3592 15.6567C40.7913 16.0783 40.3722 16.6695 40.1625 17.345C39.9528 18.0204 39.9634 18.7451 40.1927 19.4141C40.4221 20.0831 40.8582 20.6619 41.4382 21.0667C40.8959 21.9772 40.2947 22.8513 39.6382 23.6833H39.6215Z" fill="#FD7EA5"/>
</svg>
