<svg width="41" height="51" viewBox="0 0 41 51" fill="none" xmlns="http://www.w3.org/2000/svg">
<path d="M29.8912 14.2136C30.9061 14.9753 31.8558 15.622 32.7241 16.3641C33.2913 16.8186 33.7711 17.3725 34.14 17.9988C34.462 18.5679 34.6101 19.2191 34.5658 19.8715C34.5215 20.524 34.2869 21.1491 33.891 21.6696C33.1023 22.7889 31.9676 23.3529 30.606 23.1866C29.9733 23.1078 29.6921 23.3393 29.3611 23.7803C23.424 31.7109 17.4775 39.6346 11.5216 47.5511C9.62264 50.0815 6.82672 50.9242 4.0963 49.8162C3.29361 49.488 2.57073 48.9914 1.97641 48.3599C1.38209 47.7284 0.930168 46.9766 0.651221 46.1555C0.372271 45.3344 0.27275 44.463 0.359397 43.6001C0.446046 42.7373 0.716871 41.9031 1.15352 41.1538C1.39227 40.7564 1.65269 40.3724 1.93362 40.0036C7.83395 32.1414 13.7347 24.2788 19.6358 16.4157C19.9609 15.9825 20.0435 15.6509 19.8153 15.1178C19.5355 14.436 19.4751 13.6839 19.6426 12.9661C19.8102 12.2484 20.1972 11.6008 20.75 11.1133C21.298 10.6218 21.9817 10.3072 22.7115 10.2106C23.4413 10.1141 24.1832 10.2401 24.8402 10.5721C25.2286 10.7763 25.5998 11.0116 25.9502 11.2756C26.8354 11.9203 27.7033 12.5912 28.6619 13.3107C29.3661 12.3723 30.0586 11.479 30.7112 10.5508C30.8168 10.4101 30.7375 10.1281 30.718 9.91302C30.5384 7.88846 30.4639 5.86706 31.0222 3.88535C31.766 1.26549 34.1405 -0.269887 36.7108 0.233798C38.777 0.640346 40.1164 1.90466 40.594 3.9426C41.0717 5.98055 40.4634 7.7194 38.7655 8.98513C36.9811 10.3204 34.8665 10.8481 32.7292 11.2659C32.4802 11.2983 32.2409 11.3836 32.0276 11.5162C31.8143 11.6487 31.6318 11.8254 31.4924 12.0343C31.0237 12.7534 30.4756 13.4348 29.8912 14.2136ZM18.8459 20.0057L18.292 20.7439C13.9729 26.4989 9.65313 32.255 5.33253 38.0122C4.4253 39.221 3.50592 40.4232 2.62371 41.6509C2.23005 42.1835 1.96853 42.802 1.86065 43.4555C1.75276 44.1089 1.80157 44.7787 2.00312 45.4095C2.53246 47.2027 3.7456 48.3356 5.57955 48.6803C7.48389 49.0387 9.01901 48.3548 10.1809 46.8066C15.3943 39.8599 20.6076 32.9131 25.821 25.9664C25.9384 25.81 26.019 25.6505 26.1223 25.4835L23.1806 23.2759C23.1087 23.3186 23.0419 23.3694 22.9815 23.4272C20.302 26.9975 17.6121 30.5623 14.9514 34.1467C14.8234 34.3172 14.839 34.6907 14.9281 34.914C15.3259 35.9019 15.2665 36.8182 14.6253 37.6791C14.1277 38.3422 13.6477 39.0209 13.1325 39.6683C12.7025 40.2097 12.0775 40.5609 11.3916 40.6467C10.7056 40.7325 10.0134 40.5459 9.46339 40.1271C8.90883 39.7123 8.53966 39.0961 8.43554 38.4114C8.33141 37.7268 8.50068 37.0287 8.90686 36.4678C9.39824 35.7707 9.9205 35.0943 10.4443 34.4191C10.7148 34.0385 11.0892 33.744 11.5227 33.5707C11.9562 33.3975 12.4305 33.3528 12.8887 33.4422C13.3725 33.5241 13.6236 33.4045 13.9072 33.0233C16.4396 29.6164 19.0032 26.233 21.5402 22.8296C21.6658 22.6622 21.7707 22.4769 21.8955 22.2846L18.8459 20.0057ZM32.2361 9.79576C33.7816 9.62573 36.127 8.91432 37.2938 8.16424C37.8515 7.80542 38.4383 7.35589 38.7728 6.80264C39.8687 4.9873 39.0951 2.74434 37.176 1.90063C36.7371 1.71197 36.2635 1.61766 35.7857 1.62379C35.308 1.62991 34.8369 1.73632 34.403 1.93617C33.969 2.13602 33.5819 2.42483 33.2668 2.78386C32.9516 3.1429 32.7154 3.56417 32.5734 4.02034C31.9597 5.88707 32.0553 7.81187 32.2361 9.79576ZM27.7152 14.5559C26.5236 13.6616 25.3984 12.7341 24.1871 11.9375C23.3934 11.4152 22.2714 11.6855 21.6486 12.3622C20.9652 13.1034 20.8327 14.1432 21.4417 14.9767C21.9085 15.6155 21.8364 16.0992 21.3654 16.6649C20.8126 17.3331 20.3154 18.0477 19.7743 18.7687L22.8317 21.0632L27.7152 14.5559ZM28.9804 15.5054L24.1086 21.997L27.0612 24.2129C27.119 24.1771 27.1735 24.1362 27.2239 24.0905C27.7063 23.4478 28.2242 22.8293 28.671 22.1623C29.083 21.5547 29.5316 21.3413 30.2694 21.609C31.2458 21.9628 32.1981 21.5506 32.7259 20.6876C33.204 19.9072 33.1536 18.7497 32.4299 18.1308C31.3489 17.1998 30.1642 16.3938 28.9804 15.5054ZM10.9005 36.2869C10.6052 36.6403 10.3311 37.011 10.0798 37.3969C9.91922 37.632 9.85787 37.9209 9.90903 38.201C9.96019 38.4811 10.1197 38.7296 10.353 38.8928C10.4627 38.9904 10.5908 39.065 10.7299 39.1122C10.8689 39.1593 11.016 39.1781 11.1624 39.1674C11.3088 39.1567 11.4516 39.1167 11.5823 39.0498C11.713 38.9829 11.8289 38.8904 11.9232 38.7779C12.4814 38.109 13.0068 37.4056 13.4959 36.6823C13.5795 36.5621 13.6385 36.4266 13.6694 36.2835C13.7003 36.1404 13.7026 35.9926 13.6761 35.8486C13.6496 35.7046 13.5948 35.5673 13.515 35.4446C13.4352 35.3219 13.3318 35.2162 13.2109 35.1336C12.9802 34.9498 12.6866 34.8639 12.3933 34.8942C12.0999 34.9245 11.8301 35.0687 11.6419 35.2958C11.3763 35.6074 11.1517 35.9523 10.9005 36.2869Z" fill="#FD7EA5"/>
</svg>
