<svg width="48" height="60" viewBox="0 0 48 60" fill="none" xmlns="http://www.w3.org/2000/svg">
<path d="M40.3172 14.1046C40.3641 14.2588 40.411 14.4197 40.4513 14.5738C40.5011 14.7574 40.6123 14.9183 40.7663 15.0297C42.3014 16.1061 43.5576 17.5331 44.4309 19.1922C45.3042 20.8512 45.7692 22.6946 45.7876 24.5694C45.7803 27.0685 44.959 29.4972 43.4479 31.4878C43.3433 31.6229 43.2744 31.7821 43.2475 31.9508C43.2205 32.1195 43.2364 32.2922 43.2937 32.4531L45.1239 37.4945L39.4591 35.4833C39.318 35.3918 39.1561 35.3377 38.9884 35.326C38.8207 35.3143 38.6528 35.3453 38.5004 35.4163C35.3058 36.8764 31.6725 37.054 28.3507 35.9124C28.1564 35.852 27.9484 35.852 27.7541 35.9124C27.5508 35.9726 27.3718 36.0956 27.2427 36.2637C27.1135 36.4317 27.0407 36.6363 27.0348 36.8482C27.0288 37.0601 27.09 37.2685 27.2096 37.4435C27.3291 37.6186 27.5009 37.7514 27.7004 37.823C31.3729 39.0797 35.3793 38.9413 38.9563 37.4341L46.4848 40.1157C46.5923 40.1546 46.7056 40.175 46.82 40.176C47.0883 40.1747 47.3456 40.0689 47.5373 39.8811C47.6711 39.7453 47.7637 39.5742 47.804 39.3879C47.8444 39.2015 47.8309 39.0075 47.7652 38.8286L45.3518 32.2654C46.939 30.0125 47.7934 27.3252 47.7987 24.5694C47.7774 22.2994 47.1989 20.0694 46.1142 18.0752C45.0294 16.0811 43.4716 14.3838 41.5775 13.1325C41.4309 13.0381 41.2586 12.9914 41.0844 12.9988C40.9101 13.0062 40.7425 13.0674 40.6044 13.1739C40.4663 13.2804 40.3646 13.427 40.3131 13.5937C40.2617 13.7603 40.2631 13.9388 40.3172 14.1046Z" fill="#FD7EA5"/>
<path d="M10.8938 33.352L11.4167 33.5531C13.6961 34.464 16.1286 34.9304 18.5832 34.9274C20.5799 34.9281 22.565 34.6229 24.4692 34.0223C31.8435 31.7028 37.1664 25.1531 37.1664 17.457C37.1654 14.8471 36.5475 12.2743 35.3631 9.94865C33.4845 6.33444 30.4459 3.45638 26.7352 1.77659C24.1792 0.599209 21.3973 -0.0070341 18.5832 6.15752e-05C8.33295 6.15752e-05 8.74977e-06 7.83692 8.74977e-06 17.4771C0.0113363 20.9344 1.10107 24.3021 3.11732 27.1106L0.0603433 35.4503C0.00517274 35.6017 -0.0125333 35.7643 0.00873629 35.924C0.0300059 36.0838 0.0896199 36.236 0.182489 36.3678C0.275357 36.4995 0.398722 36.6068 0.542053 36.6805C0.685384 36.7542 0.844423 36.7921 1.00559 36.7911C1.11929 36.7891 1.23214 36.771 1.34079 36.7374L3.82123 35.8592L6.88491 34.7799L10.8938 33.352ZM2.67486 34.1363L5.16201 27.3184C5.22123 27.1609 5.23938 26.9908 5.21475 26.8243C5.19013 26.6577 5.12353 26.5002 5.02123 26.3665C3.07231 23.8198 2.01255 20.7041 2.00447 17.4972C2.00447 8.96988 9.4458 2.03134 18.5832 2.03134C27.7206 2.03134 35.1553 8.94977 35.1553 17.4771C35.1553 26.0045 27.7206 32.9363 18.5832 32.9363C16.074 32.9364 13.5946 32.3921 11.3162 31.3408C11.1689 31.2742 11.0074 31.2448 10.8461 31.2554C10.6847 31.2659 10.5285 31.3159 10.3911 31.4011L2.67486 34.1363Z" fill="#FD7EA5"/>
<path d="M9.66715 19.7495C10.9334 19.7495 11.9599 18.723 11.9599 17.4568C11.9599 16.1906 10.9334 15.1641 9.66715 15.1641C8.40091 15.1641 7.37442 16.1906 7.37442 17.4568C7.37442 18.723 8.40091 19.7495 9.66715 19.7495Z" fill="#FD7EA5"/>
<path d="M18.5829 19.7495C19.8491 19.7495 20.8756 18.723 20.8756 17.4568C20.8756 16.1906 19.8491 15.1641 18.5829 15.1641C17.3167 15.1641 16.2902 16.1906 16.2902 17.4568C16.2902 18.723 17.3167 19.7495 18.5829 19.7495Z" fill="#FD7EA5"/>
<path d="M27.4995 19.7495C28.7658 19.7495 29.7923 18.723 29.7923 17.4568C29.7923 16.1906 28.7658 15.1641 27.4995 15.1641C26.2333 15.1641 25.2068 16.1906 25.2068 17.4568C25.2068 18.723 26.2333 19.7495 27.4995 19.7495Z" fill="#FD7EA5"/>
<path d="M8.92301 39.9961C7.64484 39.9961 6.39537 40.3751 5.3326 41.0852C4.26984 41.7953 3.44152 42.8047 2.95238 43.9855C2.46325 45.1664 2.33527 46.4658 2.58463 47.7194C2.83399 48.973 3.44949 50.1246 4.35329 51.0284C5.2571 51.9322 6.40861 52.5477 7.66223 52.797C8.91584 53.0464 10.2152 52.9184 11.3961 52.4293C12.577 51.9401 13.5863 51.1118 14.2964 50.0491C15.0065 48.9863 15.3856 47.7368 15.3856 46.4587C15.3838 44.7452 14.7023 43.1025 13.4908 41.8909C12.2792 40.6793 10.6364 39.9979 8.92301 39.9961ZM8.92301 50.91C8.04261 50.91 7.18198 50.649 6.44995 50.1598C5.71792 49.6707 5.14738 48.9755 4.81046 48.1621C4.47355 47.3487 4.38539 46.4537 4.55715 45.5902C4.72891 44.7267 5.15286 43.9336 5.7754 43.311C6.39794 42.6885 7.1911 42.2645 8.05459 42.0928C8.91807 41.921 9.8131 42.0092 10.6265 42.3461C11.4399 42.683 12.1351 43.2536 12.6242 43.9856C13.1133 44.7176 13.3744 45.5782 13.3744 46.4587C13.3726 47.6387 12.9031 48.7699 12.0687 49.6043C11.2342 50.4387 10.103 50.9083 8.92301 50.91Z" fill="#FD7EA5"/>
<path d="M6.80455 55.978H11.0347C12.1599 55.9825 13.246 56.3912 14.0951 57.1295C14.9441 57.8678 15.4997 58.8867 15.6604 60.0003H17.6716C17.5056 58.349 16.733 56.818 15.5033 55.7034C14.2736 54.5889 12.6742 53.9701 11.0146 53.9668H6.80455C5.14493 53.9701 3.54553 54.5889 2.31582 55.7034C1.08612 56.818 0.313542 58.349 0.147583 60.0003H2.15875C2.31999 58.8832 2.87842 57.8617 3.73169 57.1229C4.58496 56.3842 5.67591 55.9777 6.80455 55.978Z" fill="#FD7EA5"/>
<path d="M32.5004 46.8395C32.5004 48.1177 32.8794 49.3672 33.5895 50.4299C34.2996 51.4927 35.309 52.321 36.4898 52.8101C37.6707 53.2993 38.9701 53.4272 40.2237 53.1779C41.4773 52.9285 42.6289 52.313 43.5327 51.4092C44.4365 50.5054 45.052 49.3539 45.3013 48.1003C45.5507 46.8467 45.4227 45.5473 44.9336 44.3664C44.4444 43.1855 43.6161 42.1762 42.5534 41.4661C41.4906 40.756 40.2411 40.377 38.963 40.377C37.2495 40.3787 35.6068 41.0602 34.3952 42.2717C33.1836 43.4833 32.5022 45.1261 32.5004 46.8395ZM43.4143 46.8395C43.4143 47.7199 43.1533 48.5805 42.6641 49.3126C42.175 50.0446 41.4798 50.6151 40.6664 50.9521C39.853 51.289 38.958 51.3771 38.0945 51.2054C37.231 51.0336 36.4379 50.6097 35.8153 49.9871C35.1928 49.3646 34.7689 48.5714 34.5971 47.7079C34.4253 46.8444 34.5135 45.9494 34.8504 45.136C35.1873 44.3226 35.7579 43.6274 36.4899 43.1383C37.2219 42.6492 38.0826 42.3881 38.963 42.3881C40.143 42.3899 41.2742 42.8594 42.1086 43.6939C42.943 44.5283 43.4126 45.6595 43.4143 46.8395Z" fill="#FD7EA5"/>
<path d="M36.8516 56.353H41.0817C42.1418 56.3566 43.1694 56.719 43.9972 57.3813C44.825 58.0435 45.4041 58.9665 45.6404 59.9999H47.6515C47.4031 58.427 46.603 56.9939 45.3943 55.9571C44.1856 54.9204 42.6473 54.3478 41.0549 54.3418H36.8516C35.258 54.3462 33.7182 54.9181 32.5081 55.955C31.298 56.9918 30.4968 58.4258 30.2482 59.9999H32.2929C32.5292 58.9665 33.1083 58.0435 33.9361 57.3813C34.7639 56.719 35.7915 56.3566 36.8516 56.353Z" fill="#FD7EA5"/>
</svg>
