<svg width="60" height="60" viewBox="0 0 60 60" fill="none" xmlns="http://www.w3.org/2000/svg">
<g clip-path="url(#clip0_367_1742)">
<path d="M19.0008 57.9784H57.9604V14.0066H47.3751C46.3085 14.0066 45.9964 13.6961 45.9964 12.6363C45.9964 9.34486 45.9964 6.054 45.9964 2.76369V2.04766H19.0058V2.73198C19.0058 4.14903 19.0158 5.56941 19.0058 6.98145C19.0105 7.11243 18.9889 7.24303 18.9425 7.3656C18.896 7.48816 18.8256 7.60021 18.7353 7.69519C18.645 7.79017 18.5366 7.86617 18.4165 7.91873C18.2965 7.97128 18.1671 7.99934 18.0361 8.00126C17.9104 8.00754 17.7847 7.98892 17.6662 7.94646C17.5478 7.904 17.4389 7.83854 17.3458 7.75385C17.2528 7.66915 17.1773 7.5669 17.1239 7.45296C17.0705 7.33902 17.0402 7.21565 17.0346 7.08994C17.009 5.02807 17.009 2.96621 17.0346 0.904341C17.0346 0.391934 17.4118 0.0881627 17.9292 0.0180615C18.1157 0.00218389 18.3031 -0.00116392 18.49 0.00804485C27.8369 0.00804485 37.1876 0.0047071 46.5422 -0.00196921C46.8199 -0.0144209 47.097 0.0332717 47.3545 0.137843C47.6121 0.242414 47.844 0.401396 48.0344 0.603907C51.8176 4.41608 55.6164 8.21601 59.4308 12.0037C59.6204 12.1784 59.7702 12.3917 59.8701 12.6293C59.97 12.8668 60.0177 13.1231 60.01 13.3807C60 28.4614 60 43.5387 60.01 58.6127C60.01 59.6759 59.6962 59.9897 58.6364 59.9897H18.4016C17.335 59.9897 17.0246 59.6792 17.0229 58.6194C17.0229 56.8279 17.0229 55.0364 17.0229 53.2449C17.0229 52.4555 17.3951 51.9998 18.0244 51.9965C18.6536 51.9931 19.0258 52.4521 19.0258 53.2383C19.0024 54.8072 19.0008 56.3628 19.0008 57.9784ZM56.3965 12.0154L48.0277 3.6433V11.9887C48.1545 11.997 48.2547 12.0104 48.3615 12.0104L56.3965 12.0154Z" fill="#FD7EA5"/>
<path d="M0.00500818 30.0061C0.00500818 29.0681 0.00500818 28.1317 0.00500818 27.1937C0.00500818 26.3742 0.370527 26.0137 1.18504 26.007C2.24657 25.997 3.30979 26.007 4.37132 25.9953C4.52821 25.9953 4.76855 25.9018 4.81528 25.7883C4.86201 25.6749 4.75853 25.4395 4.64837 25.326C3.92566 24.5783 3.18127 23.8505 2.45021 23.1095C1.80762 22.4569 1.80762 21.9945 2.45021 21.3436C3.74208 20.0439 5.03782 18.7487 6.33748 17.458C6.97507 16.8254 7.46077 16.8271 8.11004 17.458C8.79436 18.1256 9.45533 18.8216 10.1497 19.4809C10.3166 19.6478 10.5819 19.7179 10.8023 19.8347C10.89 19.5996 10.9515 19.3556 10.9859 19.107C11.0059 18.149 10.9859 17.1909 10.9959 16.2329C10.9959 15.3683 11.3497 15.0044 12.196 15.0011C14.0709 14.9944 15.9447 14.9944 17.8174 15.0011C18.6269 15.0011 18.9858 15.3733 18.9858 16.1978C18.9858 17.1776 18.9741 18.1557 18.9991 19.1337C18.9991 19.3707 19.1376 19.6027 19.2127 19.8381C19.4422 19.7369 19.659 19.6092 19.8587 19.4575C20.5513 18.7899 21.214 18.1056 21.8966 17.4346C22.5242 16.8171 23.0032 16.8104 23.6174 17.4196C24.9349 18.7248 26.2451 20.0356 27.5481 21.3519C28.1657 21.9728 28.1707 22.4535 27.5631 23.0744C26.8354 23.8188 26.086 24.5415 25.365 25.291C25.3022 25.3614 25.254 25.4434 25.2231 25.5325C25.1921 25.6216 25.1791 25.7159 25.1847 25.81C25.1847 25.8868 25.4785 25.9853 25.6404 25.987C26.6819 26.0037 27.7217 25.987 28.7632 25.997C29.6228 25.997 29.98 26.3558 29.9833 27.2104C29.99 29.0653 29.99 30.9185 29.9833 32.7701C29.9833 33.6297 29.6245 33.9869 28.7699 33.9919C27.73 34.0002 26.6886 33.9919 25.647 34.0019C25.4801 34.0019 25.1997 34.0953 25.188 34.1688C25.18 34.2618 25.1906 34.3555 25.2193 34.4443C25.248 34.5332 25.2941 34.6154 25.355 34.6862C26.076 35.4373 26.8254 36.16 27.5531 36.9044C28.164 37.527 28.1623 38.0077 27.5531 38.6269C26.2479 39.9421 24.9371 41.2523 23.6208 42.5576C23.0116 43.1618 22.5142 43.1551 21.895 42.5476C21.1956 41.8632 20.5163 41.1572 19.8103 40.4796C19.625 40.3432 19.423 40.2311 19.2094 40.1458C19.136 40.3594 19.0025 40.5714 18.9974 40.7883C18.9741 41.7898 18.9974 42.7912 18.9841 43.7927C18.9841 44.6139 18.6186 44.9844 17.8157 44.9877C15.9408 44.9955 14.067 44.9955 12.1943 44.9877C11.3597 44.9877 11.0026 44.6172 10.9976 43.751C10.9976 42.7295 10.9975 41.7097 10.9875 40.6899C10.9536 40.5019 10.8899 40.3204 10.7989 40.1524C10.632 40.2259 10.4084 40.2559 10.2815 40.3794C9.54545 41.0854 8.83609 41.8198 8.11171 42.5342C7.45576 43.1801 6.9901 43.1818 6.34583 42.5342C5.04618 41.2423 3.75041 39.9471 2.45854 38.6486C1.80927 37.996 1.80761 37.5336 2.44854 36.8827C3.17793 36.1416 3.92399 35.4139 4.6467 34.6645C4.75686 34.551 4.86201 34.3207 4.81361 34.2038C4.76521 34.087 4.52819 33.9969 4.37297 33.9935C3.31144 33.9752 2.24824 33.9935 1.18671 33.9818C0.370529 33.9818 0.00834308 33.613 0.00166677 32.7985C-0.00167139 31.8788 0.00500818 30.9391 0.00500818 30.0061ZM22.7045 19.4625C21.9667 20.2053 21.2023 20.9647 20.4479 21.7408C20.0273 22.1715 19.5699 22.2416 19.0325 21.9728C18.6616 21.7864 18.2785 21.6252 17.8858 21.4905C17.2699 21.2835 16.9845 20.8913 16.9995 20.2303C17.0229 19.1755 16.9995 18.1189 16.9995 17.0457H13.0622C13.0322 17.1025 13.0155 17.1192 13.0155 17.1375C13.0155 18.1991 12.9954 19.2606 13.0004 20.3221C13.0197 20.5736 12.9509 20.8239 12.806 21.0303C12.6611 21.2367 12.449 21.3864 12.206 21.4538C11.8354 21.5873 11.4666 21.7325 11.1094 21.8977C10.3149 22.2649 10.0545 22.2315 9.45031 21.629C8.71592 20.8963 7.98819 20.1569 7.21207 19.3724C6.71135 19.8848 6.27238 20.3538 5.81506 20.8028C5.35773 21.2518 4.85869 21.7041 4.32792 22.2032C5.06399 22.9192 5.69323 23.5234 6.31246 24.1376C7.3139 25.1274 7.3139 25.1291 6.74641 26.446C6.66463 26.6362 6.59286 26.8315 6.52109 27.0268C6.21899 27.8463 6.00533 28.0015 5.1491 28.0032H2.04629V32.009H4.77188C6.11883 32.009 6.11884 32.009 6.62123 33.2858C6.68967 33.4611 6.76477 33.6313 6.84321 33.8016C7.27884 34.7363 7.24881 34.9366 6.52109 35.6609C5.81841 36.3603 5.10904 37.0546 4.44475 37.7089L7.30221 40.5463C7.90642 39.9371 8.549 39.2895 9.19327 38.6436C10.1229 37.7106 10.1663 37.7039 11.343 38.2347C11.5316 38.3198 11.7253 38.4016 11.9206 38.47C12.9003 38.8355 12.9971 38.9707 12.9988 40.0172V42.9782H17.0046C17.0046 42.1436 17.0046 41.3325 17.0046 40.5246C17.0046 38.9524 16.8961 38.8556 18.48 38.3064C18.5767 38.2695 18.6714 38.2278 18.7638 38.1812C19.7452 37.7223 19.9188 37.749 20.6732 38.505C21.3709 39.2061 22.0669 39.9087 22.6911 40.538L25.5803 37.6488C25.1029 37.2048 24.5788 36.7392 24.0781 36.2418C22.6527 34.8231 22.5759 35 23.4105 33.1824C23.9112 32.0708 23.9279 32.004 25.148 32.004H27.9737V28.065C27.9269 28.0425 27.8776 28.0257 27.8269 28.0149C26.8054 28.0149 25.7856 27.9915 24.7658 28.0149C24.1365 28.0249 23.746 27.7595 23.5407 27.1687C23.4122 26.7965 23.2552 26.4343 23.0917 26.0738C22.7579 25.3227 22.7896 25.0573 23.3804 24.4698C24.1148 23.737 24.8576 23.0127 25.5636 22.3183L22.7045 19.4625Z" fill="#FD7EA5"/>
<path d="M30 15.2796C30 14.7622 29.9833 14.3884 30 14.0162C30.0317 13.4186 30.4373 13.0147 30.9831 13.0147C31.1144 13.0104 31.2451 13.0328 31.3675 13.0805C31.4898 13.1283 31.6012 13.2004 31.6949 13.2925C31.7885 13.3846 31.8625 13.4947 31.9123 13.6162C31.9621 13.7378 31.9867 13.8682 31.9846 13.9995C32.0079 15.3347 32.0079 16.6672 31.9846 17.9969C31.9745 18.6161 31.5756 18.9984 30.9414 18.9984C29.6512 19.0167 28.3593 19.015 27.0691 18.9984C26.4282 18.99 26.0076 18.5811 25.9992 18.0153C25.9909 17.4495 26.4249 17.0222 27.1058 17.0138C27.6249 17.0005 28.1423 17.0138 28.7883 17.0138C28.5963 16.7935 28.4812 16.6399 28.3443 16.5131C24.1065 12.4556 19.0659 10.6129 13.2108 11.1236C8.8962 11.5009 5.16582 13.2367 1.9929 16.1793C1.9011 16.2644 1.81096 16.3462 1.71416 16.4296C1.21343 16.8286 0.640932 16.8035 0.26539 16.3696C0.172709 16.2757 0.101172 16.1632 0.055573 16.0394C0.0099742 15.9157 -0.00863287 15.7836 0.00101014 15.6521C0.0106531 15.5206 0.0483214 15.3926 0.111481 15.2769C0.17464 15.1611 0.261828 15.0602 0.367201 14.9809C1.46379 14.0596 2.53702 13.0781 3.74042 12.3187C12.0858 7.07113 22.4792 8.15436 29.6211 14.9592C29.7113 15.0276 29.8031 15.1061 30 15.2796Z" fill="#FD7EA5"/>
<path d="M2.00456 46.5203C2.00456 47.0494 2.01457 47.4784 2.00456 47.9073C1.98453 48.5532 1.60064 48.9772 1.03816 48.9956C0.475678 49.0139 0.0200172 48.575 0.0133409 47.904C-1.17391e-05 46.6333 -1.17391e-05 45.3631 0.0133409 44.0935C0.0133409 43.3908 0.400573 43.0136 1.10492 43.0069C2.37342 42.9913 3.64358 42.9913 4.91542 43.0069C5.56135 43.0069 5.9853 43.4092 6.00199 43.9716C6.01868 44.5341 5.57973 44.9731 4.91043 44.9998C4.68177 45.0081 4.45143 44.9998 4.22277 44.9998H3.4216C3.69867 45.2234 3.85389 45.362 4.02247 45.4838C11.6318 50.9684 22.3623 49.9186 28.7882 43.062C28.9552 42.8801 29.1221 42.6864 29.3073 42.5212C29.4869 42.3437 29.7277 42.2418 29.9801 42.2365C30.2326 42.2313 30.4774 42.323 30.6643 42.4928C30.7617 42.5728 30.8419 42.6717 30.9001 42.7835C30.9583 42.8953 30.9933 43.0177 31.0029 43.1434C31.0126 43.2691 30.9968 43.3954 30.9564 43.5148C30.9159 43.6342 30.8518 43.7442 30.7678 43.8381C30.2952 44.3927 29.7903 44.9188 29.2556 45.4137C25.6726 48.7315 21.0433 50.6938 16.1675 50.9617C11.2916 51.2296 6.47526 49.7862 2.55035 46.8808C2.39346 46.7757 2.24157 46.6805 2.00456 46.5203Z" fill="#FD7EA5"/>
<path d="M42.4546 48.9999H32.4585C32.2502 49.0102 32.0414 49.003 31.8343 48.9782C31.5937 48.9428 31.375 48.8191 31.2207 48.6311C31.0664 48.4432 30.9876 48.2046 30.9998 47.9617C31.0025 47.7291 31.0897 47.5054 31.245 47.3322C31.4004 47.1591 31.6134 47.0482 31.8443 47.0203C32.0508 46.9944 32.2592 46.9877 32.4669 47.0003H52.5225C52.7095 46.99 52.897 46.9939 53.0833 47.012C53.6258 47.1005 53.9412 47.4243 53.9746 47.9751C53.984 48.2283 53.8951 48.4753 53.7265 48.6645C53.5578 48.8536 53.3226 48.9702 53.07 48.9899C52.8828 49.0041 52.695 49.0074 52.5075 48.9999H42.4546Z" fill="#FD7EA5"/>
<path d="M43.9301 19.0063H35.4278C35.2408 19.0184 35.053 19.0128 34.867 18.9896C34.3312 18.8895 34.0041 18.5607 34.0041 18.0065C34.0041 17.4524 34.3279 17.1203 34.867 17.0235C35.0736 16.9994 35.282 16.9938 35.4896 17.0068H52.4841C52.6917 16.9939 52.9001 16.9995 53.1067 17.0235C53.6458 17.1203 53.9713 17.4541 53.9713 18.0049C53.9713 18.5557 53.6375 18.8878 53.1084 18.9896C52.9224 19.0128 52.7346 19.0184 52.5476 19.0063H43.9301Z" fill="#FD7EA5"/>
<path d="M43.9301 25.0044H35.4278C35.2408 25.0161 35.0531 25.0111 34.867 24.9893C34.3296 24.8875 34.0041 24.5571 34.0041 24.0046C34.0041 23.4521 34.3279 23.1183 34.867 23.0215C35.0736 22.9975 35.282 22.992 35.4896 23.0048H52.4841C52.6917 22.9919 52.9001 22.9975 53.1067 23.0215C53.6458 23.1183 53.9713 23.4521 53.9713 24.0046C53.9713 24.5571 53.6375 24.8875 53.1084 24.9893C52.9217 25.0111 52.7335 25.0161 52.5459 25.0044H43.9301Z" fill="#FD7EA5"/>
<path d="M43.9935 31.0033H35.4278C35.2408 31.015 35.0531 31.01 34.867 30.9883C34.3312 30.8865 34.0041 30.5577 34.0041 30.0035C34.0041 29.4494 34.3279 29.1189 34.867 29.0204C35.0737 28.997 35.282 28.9919 35.4896 29.0054C41.1544 29.0054 46.8187 29.0054 52.4825 29.0054C52.6906 28.992 52.8995 28.997 53.1067 29.0204C53.6458 29.1172 53.9713 29.4511 53.9713 30.0035C53.9713 30.556 53.6375 30.8865 53.1084 30.9883C52.9223 31.01 52.7346 31.015 52.5476 31.0033H43.9935Z" fill="#FD7EA5"/>
<path d="M44.0553 35.0043C46.8871 35.0043 49.7196 35.0043 52.5526 35.0043C52.7396 34.9925 52.9272 34.9975 53.1134 35.0193C53.6525 35.1194 53.9763 35.4516 53.9763 36.004C53.9763 36.5565 53.6425 36.8886 53.1117 36.9871C52.9045 37.0105 52.6956 37.0156 52.4875 37.0021H35.4946C35.2864 37.0159 35.0775 37.0103 34.8704 36.9854C34.3346 36.887 34.0074 36.5548 34.0091 36.0024C34.0108 35.4499 34.3429 35.1177 34.8737 35.0193C35.0598 34.9975 35.2475 34.9925 35.4345 35.0043C38.3087 35.002 41.1822 35.002 44.0553 35.0043Z" fill="#FD7EA5"/>
<path d="M43.9919 41.0023H52.5526C52.7396 40.9905 52.9273 40.9955 53.1134 41.0173C53.6508 41.1174 53.9763 41.4496 53.9763 42.0021C53.9763 42.5545 53.6425 42.885 53.1117 42.9852C52.9257 43.0083 52.7379 43.0139 52.5509 43.0018H35.4278C35.2408 43.0139 35.053 43.0083 34.867 42.9852C34.3296 42.8833 34.0041 42.5545 34.0041 42.0004C34.0041 41.4462 34.3379 41.1174 34.867 41.0173C35.0531 40.9955 35.2408 40.9905 35.4278 41.0023H43.9919Z" fill="#FD7EA5"/>
<path d="M9.00301 30.0296C8.999 28.44 9.62503 26.9136 10.744 25.7846C11.863 24.6556 13.3837 24.016 14.9733 24.0059C16.5626 24.0019 18.0887 24.6277 19.2177 25.7463C20.3466 26.8649 20.9864 28.3852 20.997 29.9745C20.9994 30.7672 20.845 31.5526 20.5425 32.2854C20.2401 33.0181 19.7956 33.6838 19.2348 34.244C18.6739 34.8043 18.0077 35.248 17.2746 35.5496C16.5415 35.8513 15.756 36.0048 14.9633 36.0015C13.3844 35.9888 11.874 35.3552 10.7586 34.2377C9.64327 33.1201 9.01261 31.6085 9.00301 30.0296ZM14.97 26.0054C13.9078 26.0156 12.8932 26.4471 12.1492 27.2052C11.4052 27.9633 10.9928 28.9858 11.0026 30.0479C11.0161 31.0996 11.4428 32.1038 12.1904 32.8436C12.938 33.5834 13.9466 33.9994 14.9983 34.002C16.0607 34.002 17.0796 33.5799 17.8308 32.8287C18.5821 32.0775 19.0041 31.0586 19.0041 29.9962C19.0021 29.469 18.8961 28.9474 18.6922 28.4613C18.4882 27.9752 18.1903 27.5341 17.8155 27.1633C17.4407 26.7926 16.9965 26.4994 16.5082 26.3007C16.0199 26.1021 15.4971 26.0017 14.97 26.0054Z" fill="#FD7EA5"/>
</g>
<defs>
<clipPath id="clip0_367_1742">
<rect width="59.9967" height="60" fill="white"/>
</clipPath>
</defs>
</svg>
