<svg width="38" height="50" viewBox="0 0 38 50" fill="none" xmlns="http://www.w3.org/2000/svg">
<g clip-path="url(#clip0_367_1423)">
<path d="M30.5587 8.89604C28.8927 9.86699 26.9881 10.2294 25.1148 10.6709C23.7173 10.999 22.7076 11.8014 22.1319 13.0483C21.5934 14.2012 21.2295 15.4346 20.8104 16.6442C20.5927 17.2766 20.4569 17.9373 20.2228 18.5623C19.4651 20.5892 17.5739 21.1529 15.8304 19.8494C15.3308 19.4765 14.9236 18.9754 14.5045 18.5071C13.6096 17.5033 12.579 17.6122 12.1017 18.877C11.356 20.8532 11.4425 22.8204 12.5015 24.6847C12.8952 25.3783 13.4888 25.8227 14.3375 25.8779C14.4591 25.8787 14.5792 25.9046 14.6903 25.9542C14.8014 26.0037 14.901 26.0758 14.9829 26.1657C15.0647 26.2557 15.127 26.3617 15.1659 26.4769C15.2047 26.5922 15.2192 26.7143 15.2085 26.8354C15.1883 27.0703 15.0763 27.2878 14.8967 27.4405C14.7171 27.5933 14.4845 27.669 14.2495 27.6513C13.0563 27.6289 12.1122 27.0875 11.3724 26.1732C11.1898 25.9147 10.9808 25.6758 10.749 25.4603C10.8027 25.9152 10.825 26.3776 10.9175 26.825C11.1218 27.8079 11.3903 28.7773 11.5782 29.7617C11.7535 30.7012 11.6222 31.6722 11.2039 32.5314C10.7855 33.3907 10.1021 34.0929 9.25453 34.5344C9.17394 34.5918 9.10711 34.6664 9.05888 34.7528C9.01065 34.8393 8.98221 34.9353 8.97562 35.034C8.95325 36.4852 8.91447 37.9394 8.97562 39.3876C9.04069 40.7366 8.65732 42.0692 7.88536 43.1775C6.85326 44.7017 5.75703 46.1813 4.69809 47.6877C4.31478 48.235 3.95235 48.8033 3.59589 49.3656C3.20662 49.9711 2.73979 50.1486 2.25357 49.8622C1.76735 49.5759 1.66593 49.0389 2.06117 48.4573C3.05598 46.9986 4.0836 45.5608 5.09929 44.1156C5.31257 43.8173 5.52585 43.5056 5.74957 43.2088C6.76825 41.8665 7.35589 40.4033 7.19481 38.6538C7.08444 37.4607 7.18437 36.2362 7.16349 35.0266C7.16349 34.8431 7.06057 34.5702 6.92187 34.4941C5.53629 33.7394 4.54745 32.594 3.70179 31.3069C2.02836 28.7594 1.12304 25.9152 0.60848 22.9457C-0.123831 18.7174 -0.219285 14.4682 0.480214 10.2234C0.86203 7.90272 1.58539 5.70579 3.14398 3.87427C4.82039 1.90404 7.0561 0.921159 9.53492 0.543817C11.553 0.212297 13.5931 0.0318258 15.638 0.00390625C19.2175 0.00390625 22.815 0.133664 26.3975 0.327555C27.6816 0.397654 28.9747 0.713847 30.2141 1.08224C32.8048 1.85035 33.7474 3.64906 32.6601 6.50522C32.3574 7.21903 32.293 8.01149 32.4767 8.76479C32.8356 10.1847 33.2364 11.5946 33.6788 12.9946C34.0293 14.1013 34.0964 15.1796 33.6639 16.2684C33.4253 16.865 33.5043 17.4138 33.8474 17.9642C34.7154 19.3512 35.5745 20.7443 36.3993 22.1567C36.7886 22.811 37.1209 23.4976 37.3926 24.209C37.7729 25.2411 37.4746 26.1046 36.5052 26.6341C35.8474 26.9935 35.0912 27.1725 34.3783 27.4275C34.2769 27.4648 34.1695 27.4797 33.9771 27.526C34.1084 28.1613 34.2307 28.7729 34.3604 29.3829C34.5096 30.0734 34.5513 30.7416 34.1009 31.362C34.0174 31.5195 33.9951 31.7022 34.0383 31.8751C34.1949 32.6343 33.9726 33.2532 33.467 33.8245C33.3165 34.0359 33.2404 34.2914 33.2508 34.5508C33.2508 34.9386 33.3447 35.3249 33.3805 35.7127C33.5714 37.7724 32.5632 39.0028 30.496 39.143C29.4774 39.2131 28.4512 39.1654 27.4281 39.1594C25.3937 39.146 25.0417 39.4876 25.0417 41.501C25.0417 41.8918 25.0417 42.2826 25.0417 42.6733C25.0232 43.1692 25.1071 43.6635 25.2883 44.1254C25.4695 44.5874 25.744 45.007 26.0947 45.358C27.085 46.3677 28.0903 47.3625 29.1 48.3528C29.5475 48.8003 29.634 49.2686 29.2939 49.6758C28.9538 50.083 28.399 50.1441 27.962 49.719C26.7405 48.5259 25.513 47.3327 24.3706 46.056C23.589 45.188 23.2878 44.0768 23.2609 42.9075C23.246 42.2557 23.249 41.604 23.2609 40.9537C23.2937 38.6956 24.4809 37.4651 26.7375 37.3935C27.7816 37.3607 28.8256 37.4353 29.8622 37.4025C31.5177 37.3503 31.7354 37.0773 31.5475 35.4442C31.5151 35.0177 31.4523 34.594 31.3596 34.1764C31.2104 33.6097 31.3596 33.1921 31.8383 32.8714C32.2724 32.5731 32.42 32.2748 32.0665 31.7692C31.9944 31.6808 31.9429 31.5775 31.9156 31.4667C31.8884 31.3559 31.8861 31.2405 31.9089 31.1287C31.9317 31.0169 31.9791 30.9116 32.0477 30.8204C32.1162 30.7292 32.2042 30.6544 32.3052 30.6014C32.7004 30.3657 32.6855 30.0794 32.6184 29.7065C32.4603 28.8116 32.2858 27.9167 32.2082 27.0129C32.1352 26.1747 32.4409 25.9241 33.2851 25.7765C33.9763 25.6428 34.6603 25.4741 35.3344 25.2709C35.737 25.1575 35.8474 24.8876 35.6326 24.5043C35.127 23.6168 34.6423 22.7145 34.1233 21.8375C33.4894 20.7637 32.8376 19.7196 32.2038 18.6756C31.9353 18.2593 31.7706 17.7847 31.7236 17.2916C31.6767 16.7985 31.7487 16.3013 31.9338 15.8418C32.2589 14.9962 32.1963 14.1878 31.9144 13.3406C31.4357 11.8954 31.0225 10.4293 30.5587 8.89604ZM18.0303 1.59829C15.5023 1.78472 12.7625 1.86377 10.0599 2.21874C5.96136 2.75567 3.43929 5.15544 2.48475 9.19285C1.86877 11.8044 1.73901 14.4577 1.81657 17.123C1.91202 20.7323 2.38184 24.282 3.79426 27.6408C4.58026 29.5126 5.60341 31.2204 7.19481 32.5418C8.08223 33.2771 8.65496 33.0593 9.33954 32.1838C9.53791 31.9303 9.63783 31.5873 9.7318 31.2711C10.0301 30.324 9.68109 29.4306 9.44543 28.5372C8.80261 26.1016 8.66987 23.6959 9.76312 21.3364C9.82392 21.1625 9.8537 20.9792 9.85111 20.795C9.93165 19.7689 10.0957 18.7636 10.5968 17.8419C11.7572 15.6778 14.1958 15.4138 15.7916 17.2736C16.1168 17.6539 16.4181 18.0909 16.8237 18.3624C17.826 19.0321 18.3003 18.7815 18.5702 17.8792C18.8775 16.8471 19.1564 15.806 19.4651 14.7724C20.4137 11.5479 22.1736 9.20478 25.7681 8.6425C26.9985 8.4501 28.2007 7.96984 29.3655 7.49556C30.3976 7.07496 31.0494 6.24869 31.2388 5.10026C31.4222 3.99359 31.1732 3.35822 30.1142 2.97491C29.1269 2.61845 28.0858 2.30823 27.0463 2.21426C24.12 1.94878 21.1848 1.80411 18.0378 1.59829H18.0303Z" fill="#FD7EA5"/>
<path d="M14.3168 45.9114C14.4659 42.563 14.5927 39.2132 15.4458 35.9484C15.9663 33.9588 16.7583 32.1093 18.4123 30.7611C19.8173 29.6156 21.4847 29.0667 23.2387 28.9101C25.5893 28.6998 27.9532 28.6506 30.3113 28.5537C30.887 28.5313 31.2688 28.9086 31.2852 29.4113C31.3016 29.9139 30.9093 30.3166 30.3113 30.33C28.5439 30.3733 26.7735 30.3584 25.0106 30.4628C23.9537 30.5257 22.905 30.688 21.8785 30.9475C19.4191 31.5664 18.0544 33.3025 17.325 35.6367C16.718 37.586 16.4466 39.595 16.3392 41.6204C16.2139 44.0366 16.1766 46.4558 16.1065 48.8734C16.0856 49.5759 15.765 49.9876 15.2116 49.9861C14.6583 49.9846 14.3242 49.5744 14.3168 48.8705C14.3138 47.8846 14.3168 46.8972 14.3168 45.9114Z" fill="#FD7EA5"/>
<path d="M19.5308 44.5627C19.7649 42.0272 19.9349 39.4917 20.2661 36.9667C20.3809 36.0971 20.7851 35.2112 21.2519 34.4535C22.1468 32.9964 23.68 32.5474 25.264 32.3655C26.6063 32.2163 27.9695 32.185 29.3252 32.1283C29.9785 32.1015 30.3857 32.4654 30.3916 33.0053C30.3976 33.5452 29.9949 33.8823 29.3476 33.9107C27.9009 33.9748 26.4482 33.9912 25.0089 34.1403C23.51 34.2969 22.4839 35.1769 22.1543 36.6505C21.856 37.9343 21.6718 39.2419 21.6039 40.5581C21.4906 43.2711 21.5055 45.9901 21.4682 48.706C21.4682 48.8179 21.4682 48.9297 21.4682 49.0416C21.4369 49.6113 21.0819 49.9872 20.5733 49.9872C20.0647 49.9872 19.6918 49.6113 19.6859 49.0416C19.6739 47.5501 19.6859 46.0587 19.6859 44.5761L19.5308 44.5627Z" fill="#FD7EA5"/>
</g>
<defs>
<clipPath id="clip0_367_1423">
<rect width="37.5477" height="50" fill="white"/>
</clipPath>
</defs>
</svg>
