<svg width="50" height="50" viewBox="0 0 50 50" fill="none" xmlns="http://www.w3.org/2000/svg">
<path d="M49.9878 28.8375C50.0101 28.693 50.002 28.5454 49.9638 28.4042C49.7108 24.9907 48.1986 21.7929 45.7208 19.4315C43.2429 17.0701 39.9762 15.7135 36.5544 15.625C36.4847 15.6187 35.6576 15.625 34.8274 15.625C33.3268 15.6267 31.8882 16.2234 30.827 17.2844C29.7659 18.3453 29.1689 19.7838 29.1669 21.2844V29.4094L26.0419 27.5344V1.04167C26.0419 0.765399 25.9322 0.500448 25.7369 0.305097C25.5415 0.109747 25.2765 0 25.0003 0C24.724 0 24.4591 0.109747 24.2637 0.305097C24.0684 0.500448 23.9586 0.765399 23.9586 1.04167V27.5354L20.8336 29.4104V21.2854C20.8322 19.7848 20.2356 18.346 19.1746 17.2848C18.1136 16.2236 16.6749 15.6267 15.1742 15.625C13.8201 15.625 13.5076 15.625 13.4461 15.625C10.0245 15.7135 6.75785 17.0702 4.28018 19.4316C1.8025 21.793 0.290545 24.9908 0.0377811 28.4042C-0.000852995 28.5453 -0.00902008 28.693 0.0138226 28.8375C-0.0101357 29.4094 0.00548935 29.0708 0.000281018 36.2156C0.000281018 43.8167 6.18466 50 13.7857 50H15.1742C16.6747 49.9983 18.1132 49.4016 19.1742 48.3406C20.2352 47.2796 20.832 45.8411 20.8336 44.3406V31.8406L25.0003 29.3406L29.1669 31.8406V44.3406C29.1689 45.8412 29.7659 47.2797 30.827 48.3406C31.8882 49.4016 33.3268 49.9983 34.8274 50H36.2159C43.8201 50 50.0003 43.8167 50.0003 36.2156V29.4094C50.0003 29.2177 50.0003 29.0271 49.9878 28.8375ZM18.7503 44.3406C18.7492 45.2887 18.3721 46.1977 17.7017 46.868C17.0313 47.5384 16.1223 47.9156 15.1742 47.9167H13.7857C12.2223 47.9181 10.6746 47.6054 9.23445 46.997C7.79431 46.3886 6.49115 45.4969 5.40236 44.375C6.96486 43.6083 8.13674 42.2812 8.80341 40.4833C9.15812 39.5249 9.35137 38.5144 9.37528 37.4927C9.37432 37.3559 9.34643 37.2206 9.2932 37.0946C9.23997 36.9686 9.16243 36.8543 9.06503 36.7583C8.96762 36.6622 8.85225 36.5863 8.72551 36.5348C8.59876 36.4834 8.46312 36.4574 8.32632 36.4583C8.18953 36.4593 8.05426 36.4872 7.92825 36.5404C7.80224 36.5936 7.68794 36.6712 7.59189 36.7686C7.49584 36.866 7.41991 36.9814 7.36845 37.1081C7.31699 37.2349 7.29099 37.3705 7.29195 37.5073C7.29195 37.5479 7.28153 41.4937 4.04403 42.6906C2.76361 40.7741 2.08128 38.5205 2.08361 36.2156V31.0938C3.88049 32.3531 5.8982 32.7292 7.80028 31.6687C7.91977 31.6021 8.02495 31.5125 8.10983 31.4052C8.1947 31.2978 8.2576 31.1748 8.29494 31.0432C8.33228 30.9115 8.34332 30.7738 8.32743 30.6379C8.31155 30.502 8.26905 30.3705 8.20236 30.251C8.13568 30.1316 8.04611 30.0264 7.93877 29.9415C7.83143 29.8566 7.70843 29.7937 7.57678 29.7564C7.44514 29.719 7.30743 29.708 7.17151 29.7239C7.0356 29.7398 6.90415 29.7823 6.78466 29.849C4.76799 30.975 2.82007 29.1271 2.13257 28.3562C2.3834 25.6218 3.5864 23.0623 5.53168 21.1242C7.47695 19.1862 10.041 17.9927 12.7763 17.7521C13.1753 20.2354 10.0805 21.9187 9.93153 21.9948C9.8104 22.0585 9.703 22.1454 9.61546 22.2506C9.52791 22.3558 9.46195 22.4771 9.42132 22.6078C9.3807 22.7385 9.36621 22.8759 9.37868 23.0122C9.39116 23.1485 9.43035 23.281 9.49403 23.4021C9.62263 23.6467 9.84315 23.8302 10.1071 23.9123C10.2377 23.9529 10.3751 23.9674 10.5114 23.9549C10.6477 23.9425 10.7802 23.9033 10.9013 23.8396C11.8129 23.3313 12.6366 22.6796 13.3409 21.9094C14.519 20.5969 15.0378 19.1656 14.8794 17.7083H15.1742C16.1223 17.7094 17.0313 18.0865 17.7017 18.7569C18.3721 19.4273 18.7492 20.3363 18.7503 21.2844V44.3406ZM45.9586 42.6885C42.7503 41.5042 42.7086 37.676 42.7086 37.5C42.7101 37.2237 42.6018 36.9582 42.4076 36.7617C42.2133 36.5653 41.9489 36.4541 41.6727 36.4526C41.3964 36.4511 41.1309 36.5594 40.9344 36.7537C40.738 36.9479 40.6268 37.2123 40.6253 37.4885C40.6509 38.5087 40.8445 39.5177 41.1982 40.475C41.8649 42.2729 43.0315 43.6 44.5992 44.3656C43.5112 45.4892 42.2084 46.3826 40.7683 46.9927C39.3281 47.6027 37.78 47.9169 36.2159 47.9167H34.8274C33.8791 47.9158 32.9699 47.5388 32.2993 46.8684C31.6286 46.198 31.2514 45.2889 31.2503 44.3406V21.2844C31.2514 20.3361 31.6286 19.427 32.2993 18.7566C32.9699 18.0862 33.8791 17.7092 34.8274 17.7083H35.1222C34.9638 19.1667 35.4826 20.5969 36.6597 21.9094C37.3642 22.6797 38.1883 23.3315 39.1003 23.8396C39.3445 23.9652 39.6284 23.9893 39.8903 23.9066C40.1521 23.8239 40.3708 23.6412 40.4986 23.3982C40.6264 23.1551 40.6531 22.8714 40.5729 22.6088C40.4926 22.3462 40.3119 22.1259 40.0701 21.9958C39.9263 21.9188 36.8253 20.2385 37.2253 17.7521C39.9602 17.9928 42.5239 19.1861 44.4691 21.1236C46.4143 23.0612 47.6175 25.6202 47.869 28.3542C47.1826 29.1167 45.2211 30.9677 43.2169 29.849C42.9767 29.725 42.6977 29.6992 42.4389 29.7771C42.18 29.855 41.9616 30.0305 41.8298 30.2665C41.6979 30.5025 41.663 30.7805 41.7323 31.0417C41.8016 31.303 41.9698 31.5271 42.2013 31.6667C44.1024 32.7271 46.1201 32.351 47.9169 31.0917V36.2135C47.9199 38.5182 47.2383 40.7718 45.9586 42.6885Z" fill="#FD7EA5"/>
</svg>
