<svg width="40" height="50" viewBox="0 0 40 50" fill="none" xmlns="http://www.w3.org/2000/svg">
<path d="M33.5973 11.7541C33.6364 11.8826 33.6755 12.0167 33.709 12.1452C33.7505 12.2981 33.8432 12.4322 33.9716 12.5251C35.2508 13.4221 36.2977 14.6112 37.0254 15.9938C37.7531 17.3763 38.1407 18.9125 38.156 20.4748C38.1499 22.5574 37.4655 24.5814 36.2063 26.2402C36.1191 26.3527 36.0617 26.4854 36.0392 26.626C36.0168 26.7665 36.03 26.9105 36.0778 27.0446L37.6029 31.2457L32.8822 29.5698C32.7647 29.4935 32.6297 29.4484 32.49 29.4387C32.3503 29.4289 32.2103 29.4548 32.0833 29.5139C29.4212 30.7306 26.3934 30.8786 23.6253 29.9273C23.4633 29.877 23.29 29.877 23.1281 29.9273C22.9587 29.9775 22.8095 30.08 22.7019 30.2201C22.5942 30.3601 22.5336 30.5306 22.5287 30.7072C22.5237 30.8838 22.5747 31.0574 22.6743 31.2033C22.7739 31.3492 22.9171 31.4598 23.0834 31.5195C26.1437 32.5667 29.4824 32.4514 32.4632 31.1955L38.737 33.4301C38.8266 33.4625 38.921 33.4795 39.0163 33.4804C39.2399 33.4792 39.4543 33.3911 39.6141 33.2346C39.7256 33.1214 39.8027 32.9789 39.8363 32.8236C39.87 32.6683 39.8588 32.5066 39.804 32.3575L37.7928 26.8882C39.1155 25.0108 39.8275 22.7714 39.8319 20.4748C39.8141 18.5831 39.3321 16.7248 38.4281 15.063C37.5242 13.4012 36.226 11.9868 34.6476 10.9441C34.5254 10.8654 34.3819 10.8265 34.2367 10.8327C34.0915 10.8388 33.9517 10.8898 33.8367 10.9786C33.7216 11.0673 33.6368 11.1895 33.5939 11.3284C33.5511 11.4672 33.5523 11.616 33.5973 11.7541Z" fill="#FD7EA5"/>
<path d="M9.07821 27.7933L9.51396 27.9609C11.4134 28.72 13.4405 29.1087 15.486 29.1062C17.15 29.1067 18.8042 28.8524 20.391 28.352C26.5363 26.419 30.972 20.9609 30.972 14.5475C30.9712 12.3726 30.4563 10.2286 29.4693 8.29055C27.9038 5.27871 25.3716 2.88032 22.2793 1.4805C20.1493 0.499341 17.8311 -0.00586175 15.486 5.13127e-05C6.94413 5.13127e-05 7.29148e-06 6.53077 7.29148e-06 14.5643C0.00944692 17.4454 0.917562 20.2518 2.59777 22.5922L0.0502861 29.5419C0.00431062 29.6681 -0.0104444 29.8036 0.00728025 29.9367C0.0250049 30.0698 0.0746833 30.1967 0.152074 30.3065C0.229465 30.4163 0.332269 30.5057 0.451711 30.5671C0.571154 30.6285 0.703687 30.6601 0.837995 30.6592C0.932746 30.6576 1.02679 30.6425 1.11732 30.6145L3.18436 29.8827L5.73743 28.9833L9.07821 27.7933ZM2.22906 28.4469L4.30168 22.7654C4.35103 22.6341 4.36616 22.4923 4.34563 22.3536C4.32511 22.2148 4.26961 22.0835 4.18436 21.9721C2.56026 19.8498 1.67713 17.2534 1.6704 14.581C1.6704 7.4749 7.87151 1.69279 15.486 1.69279C23.1005 1.69279 29.2961 7.45814 29.2961 14.5643C29.2961 21.6704 23.1005 27.447 15.486 27.447C13.395 27.4471 11.3288 26.9934 9.43017 26.1173C9.3074 26.0618 9.17286 26.0374 9.03841 26.0462C8.90396 26.0549 8.77374 26.0966 8.65922 26.1676L2.22906 28.4469Z" fill="#FD7EA5"/>
<path d="M8.05612 16.4579C9.11132 16.4579 9.96673 15.6025 9.96673 14.5473C9.96673 13.4921 9.11132 12.6367 8.05612 12.6367C7.00092 12.6367 6.14551 13.4921 6.14551 14.5473C6.14551 15.6025 7.00092 16.4579 8.05612 16.4579Z" fill="#FD7EA5"/>
<path d="M15.4858 16.4579C16.541 16.4579 17.3964 15.6025 17.3964 14.5473C17.3964 13.4921 16.541 12.6367 15.4858 12.6367C14.4306 12.6367 13.5752 13.4921 13.5752 14.5473C13.5752 15.6025 14.4306 16.4579 15.4858 16.4579Z" fill="#FD7EA5"/>
<path d="M22.9165 16.4579C23.9717 16.4579 24.8271 15.6025 24.8271 14.5473C24.8271 13.4921 23.9717 12.6367 22.9165 12.6367C21.8613 12.6367 21.0059 13.4921 21.0059 14.5473C21.0059 15.6025 21.8613 16.4579 22.9165 16.4579Z" fill="#FD7EA5"/>
<path d="M7.43625 33.3281C6.37111 33.3281 5.32988 33.644 4.44425 34.2357C3.55861 34.8275 2.86834 35.6686 2.46073 36.6527C2.05311 37.6367 1.94646 38.7196 2.15426 39.7642C2.36206 40.8089 2.87498 41.7685 3.62815 42.5217C4.38132 43.2749 5.34092 43.7878 6.3856 43.9956C7.43028 44.2034 8.51312 44.0967 9.49718 43.6891C10.4812 43.2815 11.3223 42.5912 11.9141 41.7056C12.5059 40.82 12.8217 39.7787 12.8217 38.7136C12.8202 37.2857 12.2524 35.9168 11.2427 34.9071C10.2331 33.8975 8.86411 33.3296 7.43625 33.3281ZM7.43625 42.4231C6.70258 42.4231 5.98539 42.2055 5.37537 41.7979C4.76535 41.3903 4.28989 40.811 4.00913 40.1332C3.72836 39.4553 3.6549 38.7095 3.79804 37.9899C3.94117 37.2703 4.29446 36.6094 4.81324 36.0906C5.33203 35.5718 5.993 35.2185 6.71257 35.0754C7.43214 34.9322 8.17799 35.0057 8.85581 35.2865C9.53363 35.5672 10.113 36.0427 10.5206 36.6527C10.9282 37.2627 11.1457 37.9799 11.1457 38.7136C11.1443 39.697 10.753 40.6396 10.0576 41.335C9.36228 42.0303 8.41962 42.4216 7.43625 42.4231Z" fill="#FD7EA5"/>
<path d="M5.67053 46.6486H9.19566C10.1333 46.6524 11.0384 46.993 11.746 47.6082C12.4535 48.2235 12.9165 49.0725 13.0504 50.0006H14.7264C14.5881 48.6245 13.9443 47.3486 12.9195 46.4198C11.8948 45.4911 10.5619 44.9754 9.1789 44.9727H5.67053C4.28751 44.9754 2.95467 45.4911 1.92992 46.4198C0.905163 47.3486 0.261346 48.6245 0.123047 50.0006H1.79902C1.93339 49.0697 2.39875 48.2184 3.10981 47.6028C3.82087 46.9871 4.72999 46.6484 5.67053 46.6486Z" fill="#FD7EA5"/>
<path d="M27.084 39.0339C27.084 40.0991 27.3998 41.1403 27.9916 42.0259C28.5834 42.9115 29.4245 43.6018 30.4085 44.0094C31.3926 44.417 32.4754 44.5237 33.5201 44.3159C34.5648 44.1081 35.5244 43.5952 36.2776 42.842C37.0307 42.0888 37.5436 41.1292 37.7514 40.0846C37.9592 39.0399 37.8526 37.957 37.445 36.973C37.0374 35.9889 36.3471 35.1478 35.4615 34.556C34.5758 33.9643 33.5346 33.6484 32.4695 33.6484C31.0416 33.6499 29.6726 34.2178 28.663 35.2274C27.6533 36.2371 27.0855 37.606 27.084 39.0339ZM36.1789 39.0339C36.1789 39.7676 35.9614 40.4848 35.5538 41.0948C35.1462 41.7048 34.5668 42.1803 33.889 42.461C33.2112 42.7418 32.4653 42.8153 31.7458 42.6721C31.0262 42.529 30.3652 42.1757 29.8464 41.6569C29.3277 41.1381 28.9744 40.4772 28.8312 39.7576C28.6881 39.038 28.7616 38.2922 29.0423 37.6143C29.3231 36.9365 29.7985 36.3572 30.4086 35.9496C31.0186 35.542 31.7358 35.3244 32.4695 35.3244C33.4528 35.3259 34.3955 35.7172 35.0908 36.4125C35.7862 37.1079 36.1775 38.0505 36.1789 39.0339Z" fill="#FD7EA5"/>
<path d="M30.7098 46.9611H34.235C35.1183 46.9642 35.9747 47.2662 36.6645 47.818C37.3543 48.3699 37.837 49.1391 38.0338 50.0002H39.7098C39.5028 48.6895 38.836 47.4952 37.8287 46.6313C36.8215 45.7673 35.5396 45.2901 34.2126 45.2852H30.7098C29.3819 45.2888 28.0986 45.7654 27.0902 46.6295C26.0818 47.4935 25.4142 48.6885 25.207 50.0002H26.9109C27.1078 49.1391 27.5905 48.3699 28.2803 47.818C28.9701 47.2662 29.8264 46.9642 30.7098 46.9611Z" fill="#FD7EA5"/>
</svg>
