<svg width="50" height="51" viewBox="0 0 50 51" fill="none" xmlns="http://www.w3.org/2000/svg">
<path d="M42.856 27.3099V34.1956C39.4131 32.4742 32.5274 30.2833 25.1722 34.0391C21.7294 35.8388 13.4352 37.0907 6.70601 34.8998V27.7011C6.72202 26.963 6.54219 26.2339 6.18484 25.5879C5.82748 24.9419 5.30535 24.4021 4.6716 24.0235C2.79368 22.9281 0.994003 24.1018 0.13329 25.9797C0.0695181 26.0745 0.0272698 26.182 0.00951244 26.2949C-0.00824497 26.4077 -0.00108085 26.5231 0.0305015 26.6329C0.0620839 26.7426 0.117319 26.8442 0.192326 26.9303C0.267333 27.0165 0.360293 27.0852 0.464677 27.1315C0.569061 27.1779 0.682336 27.2009 0.796547 27.1989C0.910757 27.1968 1.02313 27.1698 1.12578 27.1196C1.22843 27.0695 1.31886 26.9975 1.39071 26.9087C1.46257 26.82 1.51412 26.7165 1.54173 26.6057C1.93296 25.6667 2.87192 24.806 3.88913 25.3537C4.28548 25.6007 4.60983 25.9476 4.82959 26.3597C5.04936 26.7717 5.15678 27.2344 5.14108 27.7011V44.8371C5.15333 46.203 5.70135 47.5094 6.6672 48.4753C7.63305 49.4411 8.9395 49.9892 10.3054 50.0014H39.1784C40.5442 49.9892 41.8507 49.4411 42.8165 48.4753C43.7824 47.5094 44.3304 46.203 44.3427 44.8371V27.3099C44.3427 25.8232 45.7511 23.7105 48.0202 26.7622C48.1448 26.9282 48.3301 27.0379 48.5356 27.0673C48.741 27.0966 48.9497 27.0432 49.1157 26.9186C49.2817 26.7941 49.3915 26.6088 49.4208 26.4033C49.4502 26.1979 49.3967 25.9892 49.2722 25.8232C46.2206 21.6761 42.856 24.2583 42.856 27.3099ZM39.1784 48.5147H10.3054C9.35391 48.5045 8.4443 48.1221 7.77148 47.4492C7.09867 46.7764 6.71619 45.8668 6.70601 44.9154V36.6212C13.1222 38.4992 21.5729 37.6384 25.8764 35.4475C33.1534 31.6917 39.8826 34.4303 42.856 35.9953V44.9154C42.8415 45.8791 42.447 46.798 41.7582 47.4722C41.0694 48.1463 40.1421 48.521 39.1784 48.5147Z" fill="#FD7EA5"/>
<path d="M24.3115 30.2037C24.3115 28.717 22.1988 25.6654 21.8076 25.1177C21.7347 25.0205 21.6402 24.9416 21.5316 24.8873C21.4229 24.833 21.3031 24.8047 21.1816 24.8047C21.0602 24.8047 20.9403 24.833 20.8317 24.8873C20.723 24.9416 20.6285 25.0205 20.5557 25.1177C20.1644 25.7436 18.0518 28.717 18.0518 30.2037C18.0559 31.0533 18.3952 31.8669 18.9959 32.4676C19.5967 33.0684 20.4103 33.4077 21.2599 33.4118C21.6709 33.4017 22.076 33.3106 22.4518 33.1439C22.8277 32.9771 23.167 32.738 23.4504 32.4401C23.7338 32.1421 23.9557 31.7913 24.1035 31.4076C24.2512 31.0238 24.3219 30.6148 24.3115 30.2037ZM19.5384 30.2037C19.5384 29.656 20.3209 28.2475 21.1816 26.9173C22.0423 28.2475 22.8248 29.656 22.8248 30.2037C22.8248 30.6395 22.6517 31.0575 22.3435 31.3656C22.0354 31.6738 21.6174 31.8469 21.1816 31.8469C20.7458 31.8469 20.3279 31.6738 20.0197 31.3656C19.7116 31.0575 19.5384 30.6395 19.5384 30.2037Z" fill="#FD7EA5"/>
<path d="M40.5869 0.548107L20.8687 8.21628V8.13803C20.5813 7.53232 20.069 7.06261 19.4406 6.82881C18.8123 6.595 18.1175 6.61555 17.5041 6.88609C17.1885 6.99078 16.897 7.15748 16.6467 7.37639C16.3964 7.5953 16.1924 7.86201 16.0466 8.16087C15.9008 8.45972 15.8162 8.78469 15.7978 9.11669C15.7793 9.44869 15.8274 9.78103 15.9392 10.0942L20.321 21.3617C20.456 21.668 20.6511 21.944 20.8946 22.1736C21.1381 22.4032 21.4252 22.5816 21.7389 22.6983C22.0526 22.815 22.3864 22.8676 22.7208 22.8531C23.0552 22.8386 23.3832 22.7572 23.6856 22.6137C24.0012 22.509 24.2927 22.3423 24.543 22.1234C24.7933 21.9045 24.9973 21.6377 25.1431 21.3389C25.2889 21.04 25.3735 20.7151 25.3919 20.3831C25.4104 20.0511 25.3623 19.7187 25.2505 19.4056V19.3273L44.9687 11.6591C48.4898 10.2507 50.3677 6.65135 49.194 3.59973C48.0203 0.548107 44.1862 -0.860333 40.5869 0.548107ZM23.1379 21.127C22.9074 21.2402 22.6429 21.2628 22.3966 21.1904C22.1503 21.1179 21.9401 20.9557 21.8077 20.7357L17.4259 9.46823C17.2694 8.99875 17.6606 8.52927 18.1301 8.29453C18.3595 8.17556 18.6259 8.14984 18.8738 8.22275C19.1217 8.29566 19.3318 8.46155 19.4603 8.68576C19.5385 8.84225 21.8077 14.6325 21.6512 14.3195L23.8421 19.9533C23.89 20.2013 23.8446 20.4583 23.7146 20.6749C23.5846 20.8915 23.3792 21.0525 23.1379 21.127ZM31.432 5.79063L27.8327 16.6669L24.7028 17.9189L21.4947 9.70297L31.432 5.79063ZM44.3427 10.2507L29.7106 15.9627L33.3099 5.16466V5.08641L41.1346 2.03479C43.9515 0.93934 46.8466 2.03479 47.7073 4.2257C48.568 6.41661 47.0814 9.15524 44.3427 10.2507Z" fill="#FD7EA5"/>
<path d="M18.5996 41.9416C18.1044 41.9416 17.6203 42.0885 17.2085 42.3636C16.7967 42.6387 16.4758 43.0298 16.2863 43.4873C16.0968 43.9448 16.0472 44.4483 16.1438 44.934C16.2404 45.4197 16.4789 45.8658 16.8291 46.216C17.1793 46.5662 17.6254 46.8047 18.1111 46.9013C18.5968 46.9979 19.1003 46.9483 19.5578 46.7588C20.0153 46.5693 20.4064 46.2484 20.6815 45.8366C20.9566 45.4248 21.1035 44.9407 21.1035 44.4455C21.1077 44.1155 21.0458 43.788 20.9215 43.4824C20.7971 43.1767 20.6128 42.899 20.3795 42.6656C20.1461 42.4323 19.8684 42.248 19.5627 42.1236C19.2571 41.9993 18.9296 41.9374 18.5996 41.9416ZM18.5996 45.3845C18.4139 45.3845 18.2324 45.3294 18.0779 45.2262C17.9235 45.123 17.8032 44.9764 17.7321 44.8048C17.661 44.6333 17.6424 44.4445 17.6787 44.2623C17.7149 44.0802 17.8043 43.9129 17.9357 43.7816C18.067 43.6502 18.2343 43.5608 18.4164 43.5246C18.5986 43.4884 18.7873 43.5069 18.9589 43.578C19.1305 43.6491 19.2771 43.7694 19.3803 43.9238C19.4835 44.0783 19.5386 44.2598 19.5386 44.4455C19.5429 44.57 19.5216 44.694 19.476 44.8099C19.4304 44.9258 19.3613 45.0311 19.2733 45.1192C19.1852 45.2072 19.0799 45.2763 18.964 45.3219C18.8481 45.3675 18.7241 45.3888 18.5996 45.3845Z" fill="#FD7EA5"/>
<path d="M30.415 37.4023C30.415 38.0663 30.6788 38.7032 31.1484 39.1728C31.618 39.6424 32.2549 39.9062 32.9189 39.9062C33.583 39.9062 34.2199 39.6424 34.6895 39.1728C35.159 38.7032 35.4228 38.0663 35.4228 37.4023C35.5011 34.1159 30.415 34.1159 30.415 37.4023ZM32.9189 38.3412C32.7332 38.3412 32.5517 38.2862 32.3973 38.183C32.2429 38.0798 32.1225 37.9332 32.0514 37.7616C31.9804 37.59 31.9618 37.4012 31.998 37.2191C32.0342 37.0369 32.1237 36.8696 32.255 36.7383C32.3863 36.607 32.5536 36.5176 32.7357 36.4814C32.9179 36.4451 33.1067 36.4637 33.2783 36.5348C33.4498 36.6059 33.5965 36.7262 33.6996 36.8806C33.8028 37.035 33.8579 37.2166 33.8579 37.4023C33.8623 37.5268 33.841 37.6508 33.7953 37.7667C33.7497 37.8826 33.6807 37.9879 33.5926 38.0759C33.5045 38.164 33.3993 38.233 33.2834 38.2787C33.1675 38.3243 33.0434 38.3456 32.9189 38.3412Z" fill="#FD7EA5"/>
</svg>
