<svg width="17" height="19" viewBox="0 0 17 19" fill="none" xmlns="http://www.w3.org/2000/svg">
<path d="M8.05859 10.4766C7.36636 10.4766 6.68967 10.3006 6.1141 9.97097C5.53853 9.64133 5.08992 9.17279 4.82502 8.62461C4.56011 8.07644 4.4908 7.47324 4.62585 6.89129C4.7609 6.30935 5.09424 5.7748 5.58372 5.35524C6.07321 4.93569 6.69685 4.64996 7.37578 4.53421C8.05471 4.41845 8.75845 4.47786 9.39799 4.70493C10.0375 4.93199 10.5842 5.31651 10.9687 5.80985C11.3533 6.3032 11.5586 6.88322 11.5586 7.47656C11.5575 8.27192 11.1884 9.03443 10.5322 9.59683C9.8761 10.1592 8.98651 10.4756 8.05859 10.4766ZM8.05859 5.67656C7.64325 5.67656 7.23724 5.78213 6.8919 5.97992C6.54655 6.17771 6.27739 6.45883 6.11845 6.78773C5.9595 7.11664 5.91792 7.47856 5.99895 7.82773C6.07997 8.17689 6.27998 8.49762 6.57367 8.74936C6.86736 9.00109 7.24155 9.17252 7.64891 9.24198C8.05627 9.31143 8.47851 9.27578 8.86223 9.13955C9.24595 9.00331 9.57393 8.7726 9.80468 8.47659C10.0354 8.18058 10.1586 7.83257 10.1586 7.47656C10.158 6.99932 9.93661 6.54176 9.5429 6.2043C9.1492 5.86684 8.61538 5.67704 8.05859 5.67656Z" fill="#94A2B3"/>
<path d="M8.55859 18.4766L2.42333 12.0808C2.33808 11.9847 2.25371 11.8881 2.17024 11.7908C1.12222 10.5706 0.556062 9.08006 0.558602 7.54799C0.558602 5.67253 1.40146 3.87389 2.90175 2.54774C4.40203 1.22159 6.43686 0.476563 8.55859 0.476562C10.6803 0.476563 12.7152 1.22159 14.2154 2.54774C15.7157 3.87389 16.5586 5.67253 16.5586 7.54799C16.5611 9.07937 15.9952 10.5692 14.9477 11.7889L14.947 11.7908C14.947 11.7908 14.7288 12.0441 14.696 12.0782L8.55859 18.4766ZM3.33096 11.0162C3.33242 11.0162 3.50114 11.2142 3.53969 11.2566L8.55859 16.4888L13.584 11.2496C13.616 11.2142 13.7862 11.0149 13.787 11.0143C14.6431 10.0173 15.1057 8.79965 15.104 7.54799C15.104 6.01352 14.4144 4.5419 13.1869 3.45687C11.9594 2.37184 10.2946 1.76228 8.55859 1.76228C6.82263 1.76228 5.15777 2.37184 3.93026 3.45687C2.70275 4.5419 2.01315 6.01352 2.01315 7.54799C2.01162 8.80043 2.4748 10.0188 3.33169 11.0162H3.33096Z" fill="#94A2B3"/>
</svg>
