<svg width="70" height="70" viewBox="0 0 70 70" fill="none" xmlns="http://www.w3.org/2000/svg">
<path d="M35 0C28.0777 0 21.3108 2.05271 15.5551 5.89856C9.79934 9.74441 5.3133 15.2107 2.66423 21.6061C0.0151649 28.0015 -0.677952 35.0388 0.672531 41.8282C2.02301 48.6175 5.35644 54.8539 10.2513 59.7487C15.1461 64.6436 21.3825 67.977 28.1719 69.3275C34.9612 70.678 41.9985 69.9848 48.3939 67.3358C54.7893 64.6867 60.2556 60.2007 64.1014 54.445C67.9473 48.6892 70 41.9223 70 35C70 25.7174 66.3125 16.815 59.7487 10.2513C53.185 3.68749 44.2826 0 35 0ZM35 65C29.0666 65 23.2664 63.2405 18.3329 59.9441C13.3994 56.6476 9.55426 51.9623 7.28363 46.4805C5.013 40.9987 4.4189 34.9667 5.57646 29.1473C6.73401 23.3279 9.59124 17.9824 13.7868 13.7868C17.9824 9.59122 23.3279 6.734 29.1473 5.57644C34.9667 4.41888 40.9987 5.01298 46.4805 7.28361C51.9623 9.55424 56.6477 13.3994 59.9441 18.3329C63.2405 23.2664 65 29.0666 65 35C65 42.9565 61.8393 50.5871 56.2132 56.2132C50.5871 61.8393 42.9565 65 35 65Z" fill="#FF5480"/>
<path d="M23.75 22.5002C22.5139 22.5002 21.3055 22.8668 20.2777 23.5535C19.2499 24.2403 18.4488 25.2164 17.9758 26.3584C17.5027 27.5005 17.3789 28.7571 17.6201 29.9695C17.8613 31.1819 18.4565 32.2955 19.3306 33.1696C20.2047 34.0437 21.3183 34.639 22.5307 34.8801C23.7431 35.1213 24.9997 34.9975 26.1418 34.5245C27.2838 34.0514 28.2599 33.2503 28.9467 32.2225C29.6334 31.1947 30 29.9863 30 28.7502C30.0067 27.9276 29.8495 27.1119 29.5378 26.3506C29.2261 25.5893 28.766 24.8976 28.1843 24.3159C27.6026 23.7342 26.9109 23.2741 26.1496 22.9624C25.3883 22.6507 24.5726 22.4935 23.75 22.5002Z" fill="#FF5480"/>
<path d="M46.25 22.5002C45.0139 22.5002 43.8055 22.8668 42.7777 23.5535C41.7499 24.2403 40.9488 25.2164 40.4758 26.3584C40.0027 27.5005 39.8789 28.7571 40.1201 29.9695C40.3613 31.1819 40.9565 32.2955 41.8306 33.1696C42.7047 34.0437 43.8183 34.639 45.0307 34.8801C46.2431 35.1213 47.4997 34.9975 48.6418 34.5245C49.7838 34.0514 50.7599 33.2503 51.4467 32.2225C52.1334 31.1947 52.5 29.9863 52.5 28.7502C52.5067 27.9276 52.3495 27.1119 52.0378 26.3506C51.7261 25.5893 51.266 24.8976 50.6843 24.3159C50.1026 23.7342 49.4109 23.2741 48.6496 22.9624C47.8883 22.6507 47.0726 22.4935 46.25 22.5002Z" fill="#FF5480"/>
<path d="M35 55.0004C38.4509 54.9945 41.8416 54.0959 44.8424 52.3918C47.8433 50.6877 50.3521 48.2361 52.125 45.2754L47.85 42.7754C46.5159 44.9909 44.6315 46.8238 42.38 48.0962C40.1285 49.3687 37.5862 50.0373 35 50.0373C32.4138 50.0373 29.8715 49.3687 27.62 48.0962C25.3685 46.8238 23.4841 44.9909 22.15 42.7754L17.875 45.2754C19.6479 48.2361 22.1567 50.6877 25.1576 52.3918C28.1584 54.0959 31.5491 54.9945 35 55.0004Z" fill="#FF5480"/>
</svg>
