<svg width="70" height="70" viewBox="0 0 70 70" fill="none" xmlns="http://www.w3.org/2000/svg">
<path d="M35 0C28.0777 0 21.3108 2.05271 15.5551 5.89856C9.79934 9.74441 5.3133 15.2107 2.66423 21.6061C0.0151649 28.0015 -0.677952 35.0388 0.672531 41.8282C2.02301 48.6175 5.35644 54.8539 10.2513 59.7487C15.1461 64.6436 21.3825 67.977 28.1719 69.3275C34.9612 70.678 41.9985 69.9848 48.3939 67.3358C54.7893 64.6867 60.2556 60.2007 64.1014 54.445C67.9473 48.6892 70 41.9223 70 35C70 25.7174 66.3125 16.815 59.7487 10.2513C53.185 3.68749 44.2826 0 35 0ZM35 65C29.0666 65 23.2664 63.2405 18.3329 59.9441C13.3994 56.6476 9.55426 51.9623 7.28363 46.4805C5.013 40.9987 4.4189 34.9667 5.57646 29.1473C6.73401 23.3279 9.59124 17.9824 13.7868 13.7868C17.9824 9.59122 23.3279 6.734 29.1473 5.57644C34.9667 4.41888 40.9987 5.01298 46.4805 7.28361C51.9623 9.55424 56.6477 13.3994 59.9441 18.3329C63.2405 23.2664 65 29.0666 65 35C65 42.9565 61.8393 50.5871 56.2132 56.2132C50.5871 61.8393 42.9565 65 35 65Z" fill="#C4C4C4"/>
<path d="M23.75 22.5C22.5139 22.5 21.3055 22.8666 20.2777 23.5533C19.2499 24.2401 18.4488 25.2162 17.9758 26.3582C17.5027 27.5003 17.3789 28.7569 17.6201 29.9693C17.8613 31.1817 18.4565 32.2953 19.3306 33.1694C20.2047 34.0435 21.3183 34.6388 22.5307 34.8799C23.7431 35.1211 24.9997 34.9973 26.1418 34.5242C27.2838 34.0512 28.2599 33.2501 28.9467 32.2223C29.6334 31.1945 30 29.9861 30 28.75C30 27.0924 29.3415 25.5027 28.1694 24.3306C26.9973 23.1585 25.4076 22.5 23.75 22.5Z" fill="#C4C4C4"/>
<path d="M46.25 22.5C45.0139 22.5 43.8055 22.8666 42.7777 23.5533C41.7499 24.2401 40.9488 25.2162 40.4758 26.3582C40.0027 27.5003 39.8789 28.7569 40.1201 29.9693C40.3613 31.1817 40.9565 32.2953 41.8306 33.1694C42.7047 34.0435 43.8183 34.6388 45.0307 34.8799C46.2431 35.1211 47.4997 34.9973 48.6418 34.5242C49.7838 34.0512 50.7599 33.2501 51.4467 32.2223C52.1334 31.1945 52.5 29.9861 52.5 28.75C52.5 27.0924 51.8415 25.5027 50.6694 24.3306C49.4973 23.1585 47.9076 22.5 46.25 22.5Z" fill="#C4C4C4"/>
<path d="M20 45H50V50H20V45Z" fill="#C4C4C4"/>
</svg>
