<svg width="29" height="31" viewBox="0 0 29 31" fill="none" xmlns="http://www.w3.org/2000/svg">
<path d="M14.5549 1.10411C14.4252 0.965676 14.2711 0.855885 14.1014 0.781039C13.9317 0.706193 13.7497 0.667768 13.566 0.66797H6.57242C6.38872 0.667768 6.20679 0.706193 6.03708 0.781039C5.86738 0.855885 5.71324 0.965676 5.58353 1.10411L1.38737 5.56966C1.25723 5.70766 1.15402 5.87168 1.08368 6.05229C1.01335 6.2329 0.977274 6.42654 0.977541 6.62204V14.0646C0.977541 14.4606 1.12441 14.8387 1.38737 15.117L15.3746 30.0022C15.5042 30.1409 15.6582 30.251 15.828 30.3261C15.9977 30.4012 16.1797 30.4399 16.3635 30.4399C16.5473 30.4399 16.7293 30.4012 16.899 30.3261C17.0687 30.251 17.2228 30.1409 17.3524 30.0022L28.5421 18.0941C28.6721 17.9559 28.7753 17.7919 28.8456 17.6113C28.916 17.4307 28.9522 17.2372 28.9522 17.0417C28.9522 16.8462 28.916 16.6526 28.8456 16.472C28.7753 16.2915 28.6721 16.1274 28.5421 15.9893L14.5549 1.10411V1.10411ZM16.3635 26.8451L3.77498 13.4484V7.23829L7.15149 3.64501H12.987L25.5754 17.0417L16.3635 26.8451Z" fill="black"/>
</svg>
