<svg width="17" height="16" viewBox="0 0 17 16" fill="none" xmlns="http://www.w3.org/2000/svg">
<path d="M15.9306 12.2432C15.5293 11.4011 14.9468 10.6363 14.2158 9.99127C13.4869 9.34437 12.6235 8.82859 11.6732 8.47243C11.6647 8.46866 11.6562 8.46678 11.6477 8.46301C12.9732 7.61502 13.8349 6.23374 13.8349 4.67532C13.8349 2.09366 11.4732 0.00195312 8.55835 0.00195312C5.64348 0.00195312 3.28179 2.09366 3.28179 4.67532C3.28179 6.23374 4.14349 7.61502 5.46901 8.46489C5.4605 8.46866 5.45199 8.47055 5.44348 8.47431C4.49029 8.83047 3.63498 9.34115 2.90094 9.99316C2.17054 10.6387 1.58819 11.4034 1.18606 12.245C0.791002 13.069 0.577939 13.9524 0.558403 14.8474C0.557835 14.8675 0.561818 14.8876 0.570117 14.9063C0.578417 14.925 0.590864 14.9421 0.606727 14.9565C0.622589 14.9709 0.641546 14.9823 0.662479 14.9901C0.683412 14.9979 0.705899 15.002 0.728614 15.002H2.0052C2.09882 15.002 2.17329 14.936 2.17541 14.855C2.21797 13.4002 2.87754 12.0378 4.04349 11.0051C5.24986 9.93663 6.85198 9.34869 8.55835 9.34869C10.2647 9.34869 11.8668 9.93663 13.0732 11.0051C14.2392 12.0378 14.8987 13.4002 14.9413 14.855C14.9434 14.9379 15.0179 15.002 15.1115 15.002H16.3881C16.4108 15.002 16.4333 14.9979 16.4542 14.9901C16.4752 14.9823 16.4941 14.9709 16.51 14.9565C16.5258 14.9421 16.5383 14.925 16.5466 14.9063C16.5549 14.8876 16.5589 14.8675 16.5583 14.8474C16.537 13.9467 16.3264 13.0704 15.9306 12.2432ZM8.55835 7.91653C7.58176 7.91653 6.66262 7.57921 5.97113 6.96678C5.27965 6.35434 4.8988 5.54027 4.8988 4.67532C4.8988 3.81037 5.27965 2.9963 5.97113 2.38386C6.66262 1.77143 7.58176 1.43411 8.55835 1.43411C9.53494 1.43411 10.4541 1.77143 11.1456 2.38386C11.8371 2.9963 12.2179 3.81037 12.2179 4.67532C12.2179 5.54027 11.8371 6.35434 11.1456 6.96678C10.4541 7.57921 9.53494 7.91653 8.55835 7.91653Z" fill="#94A2B3"/>
</svg>
