<svg width="18" height="10" viewBox="0 0 18 10" fill="none" xmlns="http://www.w3.org/2000/svg">
<path d="M1.04469 9.38402C1.2791 9.61836 1.59699 9.75 1.92844 9.75C2.2599 9.75 2.57778 9.61836 2.81219 9.38402L8.99969 3.19652L15.1872 9.38402C15.4229 9.61171 15.7387 9.73771 16.0664 9.73486C16.3942 9.73201 16.7077 9.60055 16.9395 9.36879C17.1712 9.13703 17.3027 8.82351 17.3055 8.49577C17.3084 8.16802 17.1824 7.85227 16.9547 7.61652L9.88344 0.545267C9.64903 0.310927 9.33115 0.179283 8.99969 0.179283C8.66824 0.179283 8.35035 0.310927 8.11594 0.545267L1.04469 7.61652C0.810355 7.85093 0.678711 8.16881 0.678711 8.50027C0.678711 8.83172 0.810355 9.14961 1.04469 9.38402Z" fill="#FD0094"/>
</svg>
