<svg width="38" height="36" viewBox="0 0 38 36" fill="none" xmlns="http://www.w3.org/2000/svg">
<path d="M0 17C0 26.1817 8.50725 33.625 19 33.625C20.8818 33.6275 22.7559 33.3832 24.5741 32.8983C25.9611 33.6012 29.146 34.9503 34.504 35.829C34.979 35.905 35.34 35.411 35.1524 34.9692C34.3116 32.9837 33.5516 30.338 33.3236 27.925C36.233 25.0038 38 21.18 38 17C38 7.81825 29.4928 0.375 19 0.375C8.50725 0.375 0 7.81825 0 17ZM26.125 17C26.125 16.3701 26.3752 15.766 26.8206 15.3206C27.266 14.8752 27.8701 14.625 28.5 14.625C29.1299 14.625 29.734 14.8752 30.1794 15.3206C30.6248 15.766 30.875 16.3701 30.875 17C30.875 17.6299 30.6248 18.234 30.1794 18.6794C29.734 19.1248 29.1299 19.375 28.5 19.375C27.8701 19.375 27.266 19.1248 26.8206 18.6794C26.3752 18.234 26.125 17.6299 26.125 17ZM16.625 17C16.625 16.3701 16.8752 15.766 17.3206 15.3206C17.766 14.8752 18.3701 14.625 19 14.625C19.6299 14.625 20.234 14.8752 20.6794 15.3206C21.1248 15.766 21.375 16.3701 21.375 17C21.375 17.6299 21.1248 18.234 20.6794 18.6794C20.234 19.1248 19.6299 19.375 19 19.375C18.3701 19.375 17.766 19.1248 17.3206 18.6794C16.8752 18.234 16.625 17.6299 16.625 17ZM9.5 19.375C8.87011 19.375 8.26602 19.1248 7.82062 18.6794C7.37522 18.234 7.125 17.6299 7.125 17C7.125 16.3701 7.37522 15.766 7.82062 15.3206C8.26602 14.8752 8.87011 14.625 9.5 14.625C10.1299 14.625 10.734 14.8752 11.1794 15.3206C11.6248 15.766 11.875 16.3701 11.875 17C11.875 17.6299 11.6248 18.234 11.1794 18.6794C10.734 19.1248 10.1299 19.375 9.5 19.375Z" fill="white"/>
</svg>
