<svg width="14" height="10" viewBox="0 0 14 10" fill="none" xmlns="http://www.w3.org/2000/svg">
<path d="M12.9348 0H0.862319C0.633618 0 0.414283 0.0877973 0.252567 0.244078C0.0908512 0.400358 0 0.61232 0 0.833333V9.16667C0 9.38768 0.0908512 9.59964 0.252567 9.75592C0.414283 9.9122 0.633618 10 0.862319 10H12.9348C13.1635 10 13.3828 9.9122 13.5445 9.75592C13.7063 9.59964 13.7971 9.38768 13.7971 9.16667V0.833333C13.7971 0.61232 13.7063 0.400358 13.5445 0.244078C13.3828 0.0877973 13.1635 0 12.9348 0ZM12.2708 9.16667H1.57804L4.59616 6.15L3.97529 5.57083L0.862319 8.68333V1.46667L6.22163 6.62083C6.3832 6.77604 6.60175 6.86316 6.82957 6.86316C7.05738 6.86316 7.27593 6.77604 7.4375 6.62083L12.9348 1.3375V8.62917L9.76145 5.5625L9.15351 6.15L12.2708 9.16667ZM1.42714 0.833333H12.2363L6.82957 6.02917L1.42714 0.833333Z" fill="white"/>
</svg>
