<svg width="453" height="356" viewBox="0 0 453 356" fill="none" xmlns="http://www.w3.org/2000/svg">
<path d="M306.857 109.909H308.838V118.519C308.838 119.435 308.623 120.247 308.192 120.955C307.762 121.658 307.157 122.212 306.377 122.616C305.597 123.017 304.683 123.217 303.635 123.217C302.591 123.217 301.679 123.017 300.899 122.616C300.119 122.212 299.514 121.658 299.084 120.955C298.653 120.247 298.438 119.435 298.438 118.519V109.909H300.413V118.359C300.413 118.952 300.543 119.478 300.803 119.938C301.067 120.398 301.44 120.761 301.922 121.025C302.403 121.285 302.974 121.415 303.635 121.415C304.3 121.415 304.873 121.285 305.354 121.025C305.84 120.761 306.211 120.398 306.467 119.938C306.727 119.478 306.857 118.952 306.857 118.359V109.909ZM322.276 109.909V123H320.46L313.806 113.399H313.685V123H311.71V109.909H313.538L320.198 119.523H320.32V109.909H322.276ZM332.297 113.348C332.229 112.743 331.947 112.274 331.453 111.942C330.959 111.605 330.337 111.437 329.587 111.437C329.05 111.437 328.585 111.522 328.193 111.692C327.801 111.859 327.496 112.089 327.279 112.383C327.066 112.673 326.96 113.003 326.96 113.374C326.96 113.685 327.032 113.953 327.177 114.179C327.326 114.405 327.52 114.594 327.759 114.748C328.001 114.897 328.261 115.023 328.538 115.125C328.815 115.223 329.082 115.304 329.337 115.368L330.616 115.7C331.033 115.803 331.462 115.941 331.901 116.116C332.339 116.29 332.746 116.521 333.121 116.806C333.496 117.092 333.799 117.445 334.029 117.867C334.263 118.289 334.381 118.794 334.381 119.382C334.381 120.124 334.189 120.782 333.805 121.357C333.426 121.933 332.874 122.386 332.15 122.719C331.43 123.051 330.558 123.217 329.536 123.217C328.555 123.217 327.707 123.062 326.991 122.751C326.276 122.44 325.715 121.999 325.31 121.428C324.906 120.852 324.682 120.17 324.639 119.382H326.621C326.659 119.855 326.813 120.249 327.081 120.565C327.354 120.876 327.701 121.108 328.123 121.261C328.549 121.411 329.016 121.485 329.523 121.485C330.081 121.485 330.577 121.398 331.012 121.223C331.451 121.044 331.796 120.797 332.048 120.482C332.299 120.162 332.425 119.789 332.425 119.363C332.425 118.975 332.314 118.658 332.092 118.411C331.875 118.163 331.579 117.959 331.204 117.797C330.833 117.635 330.413 117.492 329.945 117.369L328.398 116.947C327.349 116.661 326.518 116.241 325.905 115.688C325.295 115.134 324.991 114.401 324.991 113.489C324.991 112.734 325.195 112.076 325.604 111.513C326.013 110.951 326.567 110.514 327.266 110.203C327.965 109.888 328.754 109.73 329.631 109.73C330.518 109.73 331.3 109.886 331.977 110.197C332.659 110.508 333.196 110.936 333.588 111.482C333.98 112.023 334.185 112.645 334.202 113.348H332.297ZM337.741 123H335.645L340.356 109.909H342.638L347.349 123H345.252L341.551 112.287H341.449L337.741 123ZM338.093 117.874H344.894V119.536H338.093V117.874ZM347.047 111.609V109.909H357.178V111.609H353.093V123H351.125V111.609H347.047ZM361.392 109.909V123H359.417V109.909H361.392ZM371.408 113.348C371.34 112.743 371.059 112.274 370.564 111.942C370.07 111.605 369.448 111.437 368.698 111.437C368.161 111.437 367.697 111.522 367.305 111.692C366.912 111.859 366.608 112.089 366.39 112.383C366.177 112.673 366.071 113.003 366.071 113.374C366.071 113.685 366.143 113.953 366.288 114.179C366.437 114.405 366.631 114.594 366.87 114.748C367.113 114.897 367.373 115.023 367.65 115.125C367.927 115.223 368.193 115.304 368.449 115.368L369.727 115.7C370.145 115.803 370.573 115.941 371.012 116.116C371.451 116.29 371.858 116.521 372.233 116.806C372.608 117.092 372.91 117.445 373.14 117.867C373.375 118.289 373.492 118.794 373.492 119.382C373.492 120.124 373.3 120.782 372.917 121.357C372.537 121.933 371.986 122.386 371.261 122.719C370.541 123.051 369.67 123.217 368.647 123.217C367.667 123.217 366.819 123.062 366.103 122.751C365.387 122.44 364.827 121.999 364.422 121.428C364.017 120.852 363.793 120.17 363.751 119.382H365.732C365.77 119.855 365.924 120.249 366.192 120.565C366.465 120.876 366.812 121.108 367.234 121.261C367.66 121.411 368.127 121.485 368.634 121.485C369.192 121.485 369.689 121.398 370.123 121.223C370.562 121.044 370.907 120.797 371.159 120.482C371.41 120.162 371.536 119.789 371.536 119.363C371.536 118.975 371.425 118.658 371.204 118.411C370.986 118.163 370.69 117.959 370.315 117.797C369.944 117.635 369.525 117.492 369.056 117.369L367.509 116.947C366.461 116.661 365.63 116.241 365.016 115.688C364.407 115.134 364.102 114.401 364.102 113.489C364.102 112.734 364.307 112.076 364.716 111.513C365.125 110.951 365.679 110.514 366.378 110.203C367.077 109.888 367.865 109.73 368.743 109.73C369.629 109.73 370.411 109.886 371.089 110.197C371.77 110.508 372.307 110.936 372.699 111.482C373.091 112.023 373.296 112.645 373.313 113.348H371.408ZM375.852 123V109.909H383.97V111.609H377.827V115.598H383.388V117.292H377.827V123H375.852ZM385.389 109.909H387.633L391.053 115.86H391.193L394.613 109.909H396.857L392.107 117.861V123H390.138V117.861L385.389 109.909ZM400.697 109.909V123H398.721V109.909H400.697ZM414.139 109.909V123H412.324L405.67 113.399H405.548V123H403.573V109.909H405.401L412.062 119.523H412.183V109.909H414.139ZM425.88 114.045C425.756 113.657 425.59 113.31 425.381 113.003C425.176 112.692 424.931 112.428 424.646 112.21C424.36 111.989 424.034 111.82 423.668 111.705C423.306 111.59 422.907 111.533 422.473 111.533C421.735 111.533 421.071 111.722 420.478 112.102C419.886 112.481 419.417 113.037 419.072 113.77C418.731 114.499 418.561 115.391 418.561 116.448C418.561 117.509 418.733 118.406 419.078 119.139C419.424 119.872 419.897 120.428 420.498 120.808C421.098 121.187 421.782 121.376 422.549 121.376C423.261 121.376 423.881 121.232 424.409 120.942C424.942 120.652 425.353 120.243 425.643 119.714C425.937 119.182 426.084 118.555 426.084 117.835L426.596 117.931H422.85V116.301H427.995V117.79C427.995 118.89 427.761 119.844 427.292 120.654C426.828 121.46 426.184 122.082 425.362 122.521C424.544 122.96 423.606 123.179 422.549 123.179C421.365 123.179 420.325 122.906 419.43 122.361C418.539 121.815 417.845 121.042 417.346 120.04C416.848 119.035 416.598 117.842 416.598 116.461C416.598 115.417 416.743 114.479 417.033 113.648C417.323 112.817 417.73 112.112 418.254 111.533C418.782 110.949 419.402 110.504 420.114 110.197C420.83 109.886 421.612 109.73 422.46 109.73C423.167 109.73 423.826 109.835 424.435 110.043C425.049 110.252 425.594 110.548 426.071 110.932C426.553 111.315 426.951 111.771 427.267 112.3C427.582 112.824 427.795 113.406 427.906 114.045H425.88Z" fill="#E0E0E0"/>
<path d="M4.55114 225.545V243H1.91761V225.545H4.55114ZM22.4744 225.545V243H20.054L11.1818 230.199H11.0199V243H8.38636V225.545H10.8239L19.7045 238.364H19.8665V225.545H22.4744ZM40.8132 231.222H38.1541C38.0518 230.653 37.8615 230.153 37.5831 229.722C37.3047 229.29 36.9638 228.923 36.5604 228.622C36.157 228.321 35.7053 228.094 35.2053 227.94C34.7109 227.787 34.1854 227.71 33.6286 227.71C32.6229 227.71 31.7223 227.963 30.9268 228.469C30.1371 228.974 29.5121 229.716 29.0518 230.693C28.5973 231.67 28.37 232.864 28.37 234.273C28.37 235.693 28.5973 236.892 29.0518 237.869C29.5121 238.847 30.1399 239.585 30.9354 240.085C31.7308 240.585 32.6257 240.835 33.62 240.835C34.1712 240.835 34.6939 240.761 35.1882 240.614C35.6882 240.46 36.1399 240.236 36.5433 239.94C36.9467 239.645 37.2876 239.284 37.5661 238.858C37.8501 238.426 38.0462 237.932 38.1541 237.375L40.8132 237.384C40.6712 238.241 40.3956 239.031 39.9865 239.753C39.5831 240.469 39.0632 241.088 38.4268 241.611C37.7962 242.128 37.0746 242.528 36.2621 242.812C35.4496 243.097 34.5632 243.239 33.603 243.239C32.0916 243.239 30.745 242.881 29.5632 242.165C28.3814 241.443 27.4496 240.412 26.7678 239.071C26.0916 237.73 25.7536 236.131 25.7536 234.273C25.7536 232.409 26.0945 230.81 26.7763 229.474C27.4581 228.134 28.3899 227.105 29.5717 226.389C30.7536 225.668 32.0973 225.307 33.603 225.307C34.5291 225.307 35.3928 225.44 36.1939 225.707C37.0007 225.969 37.7251 226.355 38.3672 226.866C39.0092 227.372 39.5405 227.991 39.9609 228.724C40.3814 229.452 40.6655 230.284 40.8132 231.222ZM59.1264 234.273C59.1264 236.136 58.7855 237.739 58.1037 239.08C57.4219 240.415 56.4872 241.443 55.2997 242.165C54.1179 242.881 52.7741 243.239 51.2685 243.239C49.7571 243.239 48.4077 242.881 47.2202 242.165C46.0384 241.443 45.1065 240.412 44.4247 239.071C43.7429 237.73 43.402 236.131 43.402 234.273C43.402 232.409 43.7429 230.81 44.4247 229.474C45.1065 228.134 46.0384 227.105 47.2202 226.389C48.4077 225.668 49.7571 225.307 51.2685 225.307C52.7741 225.307 54.1179 225.668 55.2997 226.389C56.4872 227.105 57.4219 228.134 58.1037 229.474C58.7855 230.81 59.1264 232.409 59.1264 234.273ZM56.5185 234.273C56.5185 232.852 56.2884 231.656 55.8281 230.685C55.3736 229.707 54.7486 228.969 53.9531 228.469C53.1634 227.963 52.2685 227.71 51.2685 227.71C50.2628 227.71 49.3651 227.963 48.5753 228.469C47.7855 228.969 47.1605 229.707 46.7003 230.685C46.2457 231.656 46.0185 232.852 46.0185 234.273C46.0185 235.693 46.2457 236.892 46.7003 237.869C47.1605 238.841 47.7855 239.58 48.5753 240.085C49.3651 240.585 50.2628 240.835 51.2685 240.835C52.2685 240.835 53.1634 240.585 53.9531 240.085C54.7486 239.58 55.3736 238.841 55.8281 237.869C56.2884 236.892 56.5185 235.693 56.5185 234.273ZM76.4979 225.545V243H74.0774L65.2053 230.199H65.0433V243H62.4098V225.545H64.8473L73.728 238.364H73.8899V225.545H76.4979ZM81.8651 225.545L86.723 239.761H86.919L91.777 225.545H94.6236L88.3423 243H85.2997L79.0185 225.545H81.8651ZM97.1442 243V225.545H108.087V227.812H99.7777V233.131H107.516V235.389H99.7777V240.733H108.19V243H97.1442ZM125.693 225.545V243H123.273L114.401 230.199H114.239V243H111.605V225.545H114.043L122.923 238.364H123.085V225.545H125.693ZM132.168 225.545V243H129.535V225.545H132.168ZM136.004 243V225.545H146.947V227.812H138.637V233.131H146.376V235.389H138.637V240.733H147.049V243H136.004ZM164.553 225.545V243H162.132L153.26 230.199H153.098V243H150.464V225.545H152.902L161.783 238.364H161.945V225.545H164.553ZM167.533 227.812V225.545H181.042V227.812H175.596V243H172.971V227.812H167.533Z" fill="#DFDFDF"/>
<path d="M179.156 64V32H191.406C193.719 32 195.641 32.3646 197.172 33.0937C198.714 33.8125 199.865 34.7969 200.625 36.0469C201.396 37.2969 201.781 38.7135 201.781 40.2969C201.781 41.599 201.531 42.7135 201.031 43.6406C200.531 44.5573 199.859 45.3021 199.016 45.875C198.172 46.4479 197.229 46.8594 196.188 47.1094V47.4219C197.323 47.4844 198.411 47.8333 199.453 48.4687C200.505 49.0937 201.365 49.9792 202.031 51.125C202.698 52.2708 203.031 53.6562 203.031 55.2812C203.031 56.9375 202.63 58.4271 201.828 59.75C201.026 61.0625 199.818 62.099 198.203 62.8594C196.589 63.6198 194.557 64 192.109 64H179.156ZM184.953 59.1562H191.188C193.292 59.1562 194.807 58.7552 195.734 57.9531C196.672 57.1406 197.141 56.099 197.141 54.8281C197.141 53.8802 196.906 53.026 196.438 52.2656C195.969 51.4948 195.302 50.8906 194.438 50.4531C193.573 50.0052 192.542 49.7813 191.344 49.7813H184.953V59.1562ZM184.953 45.6094H190.688C191.688 45.6094 192.589 45.4271 193.391 45.0625C194.193 44.6875 194.823 44.1615 195.281 43.4844C195.75 42.7969 195.984 41.9844 195.984 41.0469C195.984 39.8073 195.547 38.7865 194.672 37.9844C193.807 37.1823 192.521 36.7812 190.813 36.7812H184.953V45.6094ZM236.668 48C236.668 51.4479 236.022 54.401 234.73 56.8594C233.449 59.3073 231.699 61.1823 229.48 62.4844C227.272 63.7865 224.767 64.4375 221.965 64.4375C219.163 64.4375 216.652 63.7865 214.434 62.4844C212.225 61.1719 210.475 59.2917 209.184 56.8437C207.902 54.3854 207.262 51.4375 207.262 48C207.262 44.5521 207.902 41.6042 209.184 39.1562C210.475 36.6979 212.225 34.8177 214.434 33.5156C216.652 32.2135 219.163 31.5625 221.965 31.5625C224.767 31.5625 227.272 32.2135 229.48 33.5156C231.699 34.8177 233.449 36.6979 234.73 39.1562C236.022 41.6042 236.668 44.5521 236.668 48ZM230.84 48C230.84 45.5729 230.46 43.526 229.699 41.8594C228.949 40.1823 227.908 38.9167 226.574 38.0625C225.241 37.1979 223.704 36.7656 221.965 36.7656C220.225 36.7656 218.689 37.1979 217.355 38.0625C216.022 38.9167 214.975 40.1823 214.215 41.8594C213.465 43.526 213.09 45.5729 213.09 48C213.09 50.4271 213.465 52.4792 214.215 54.1562C214.975 55.8229 216.022 57.0885 217.355 57.9531C218.689 58.8073 220.225 59.2344 221.965 59.2344C223.704 59.2344 225.241 58.8073 226.574 57.9531C227.908 57.0885 228.949 55.8229 229.699 54.1562C230.46 52.4792 230.84 50.4271 230.84 48ZM242.148 64V32H254.148C256.607 32 258.669 32.4271 260.336 33.2812C262.013 34.1354 263.279 35.3333 264.133 36.875C264.997 38.4062 265.43 40.1927 265.43 42.2344C265.43 44.2865 264.992 46.0677 264.117 47.5781C263.253 49.0781 261.977 50.2396 260.289 51.0625C258.602 51.875 256.529 52.2812 254.07 52.2812H245.523V47.4687H253.289C254.727 47.4687 255.904 47.2708 256.82 46.875C257.737 46.4687 258.414 45.8802 258.852 45.1094C259.299 44.3281 259.523 43.3698 259.523 42.2344C259.523 41.099 259.299 40.1302 258.852 39.3281C258.404 38.5156 257.721 37.901 256.805 37.4844C255.888 37.0573 254.706 36.8438 253.258 36.8438H247.945V64H242.148ZM258.68 49.5L266.602 64H260.133L252.352 49.5H258.68ZM276.563 32V64H270.766V32H276.563ZM309.137 32V64H303.98L288.902 42.2031H288.637V64H282.84V32H288.027L303.09 53.8125H303.371V32H309.137ZM336.891 42.2187C336.63 41.375 336.271 40.6198 335.813 39.9531C335.365 39.276 334.823 38.6979 334.188 38.2188C333.563 37.7396 332.844 37.3802 332.031 37.1406C331.219 36.8906 330.333 36.7656 329.375 36.7656C327.656 36.7656 326.125 37.1979 324.781 38.0625C323.438 38.9271 322.38 40.1979 321.609 41.875C320.849 43.5417 320.469 45.5729 320.469 47.9687C320.469 50.3854 320.849 52.4323 321.609 54.1094C322.37 55.7865 323.427 57.0625 324.781 57.9375C326.135 58.8021 327.708 59.2344 329.5 59.2344C331.125 59.2344 332.531 58.9219 333.719 58.2969C334.917 57.6719 335.839 56.7865 336.484 55.6406C337.13 54.4844 337.453 53.1302 337.453 51.5781L338.766 51.7812H330.078V47.25H343.062V51.0937C343.062 53.8333 342.479 56.2031 341.313 58.2031C340.146 60.2031 338.542 61.7448 336.5 62.8281C334.458 63.901 332.115 64.4375 329.469 64.4375C326.521 64.4375 323.932 63.776 321.703 62.4531C319.484 61.1198 317.75 59.2292 316.5 56.7812C315.26 54.3229 314.641 51.4062 314.641 48.0312C314.641 45.4479 315.005 43.1406 315.734 41.1094C316.474 39.0781 317.505 37.3542 318.828 35.9375C320.151 34.5104 321.703 33.4271 323.484 32.6875C325.266 31.9375 327.203 31.5625 329.297 31.5625C331.068 31.5625 332.719 31.8229 334.25 32.3437C335.781 32.8542 337.141 33.5833 338.328 34.5313C339.526 35.4792 340.51 36.6042 341.281 37.9062C342.052 39.2083 342.557 40.6458 342.797 42.2187H336.891Z" fill="#960DB7"/>
<path d="M59 206.852L47.3636 206.852L47.3636 202.398C47.3636 201.557 47.4962 200.858 47.7614 200.301C48.0227 199.741 48.3807 199.322 48.8352 199.045C49.2898 198.765 49.8049 198.625 50.3807 198.625C50.8542 198.625 51.2595 198.716 51.5966 198.898C51.9299 199.08 52.2008 199.324 52.4091 199.631C52.6174 199.937 52.767 200.28 52.858 200.659L52.9716 200.659C52.9943 200.246 53.1212 199.85 53.3523 199.472C53.5795 199.089 53.9015 198.777 54.3182 198.534C54.7348 198.292 55.2386 198.17 55.8295 198.17C56.4318 198.17 56.9735 198.316 57.4545 198.608C57.9318 198.9 58.3087 199.339 58.5852 199.926C58.8617 200.513 59 201.252 59 202.142L59 206.852ZM57.2386 204.744L57.2386 202.477C57.2386 201.712 57.0928 201.161 56.8011 200.824C56.5057 200.483 56.1269 200.312 55.6648 200.312C55.3201 200.312 55.0095 200.398 54.733 200.568C54.4527 200.739 54.233 200.981 54.0739 201.295C53.911 201.61 53.8295 201.985 53.8295 202.42L53.8295 204.744L57.2386 204.744ZM52.3125 204.744L52.3125 202.659C52.3125 202.295 52.2462 201.968 52.1136 201.676C51.9773 201.384 51.786 201.155 51.5398 200.989C51.2898 200.818 50.9943 200.733 50.6534 200.733C50.2027 200.733 49.8314 200.892 49.5398 201.21C49.2481 201.525 49.1023 201.992 49.1023 202.614L49.1023 204.744L52.3125 204.744ZM53.1818 185.939C54.4356 185.939 55.5095 186.174 56.4034 186.643C57.2936 187.109 57.9754 187.746 58.4489 188.553C58.9223 189.356 59.1591 190.267 59.1591 191.286C59.1591 192.304 58.9223 193.217 58.4489 194.024C57.9716 194.827 57.2879 195.464 56.3977 195.933C55.5038 196.399 54.4318 196.632 53.1818 196.632C51.928 196.632 50.8561 196.399 49.9659 195.933C49.072 195.464 48.3883 194.827 47.9148 194.024C47.4413 193.217 47.2045 192.304 47.2045 191.286C47.2045 190.267 47.4413 189.356 47.9148 188.553C48.3883 187.746 49.072 187.109 49.9659 186.643C50.8561 186.174 51.928 185.939 53.1818 185.939ZM53.1818 188.058C52.2992 188.058 51.5549 188.196 50.9489 188.473C50.339 188.746 49.8788 189.125 49.5682 189.609C49.2538 190.094 49.0966 190.653 49.0966 191.286C49.0966 191.918 49.2538 192.477 49.5682 192.962C49.8788 193.446 50.339 193.827 50.9489 194.104C51.5549 194.376 52.2992 194.513 53.1818 194.513C54.0644 194.513 54.8106 194.376 55.4205 194.104C56.0265 193.827 56.4867 193.446 56.8011 192.962C57.1117 192.477 57.267 191.918 57.267 191.286C57.267 190.653 57.1117 190.094 56.8011 189.609C56.4867 189.125 56.0265 188.746 55.4205 188.473C54.8106 188.196 54.0644 188.058 53.1818 188.058ZM59 183.946L47.3636 183.946L47.3636 179.582C47.3636 178.688 47.5189 177.938 47.8295 177.332C48.1401 176.723 48.5758 176.262 49.1364 175.952C49.6932 175.637 50.3428 175.48 51.0852 175.48C51.8314 175.48 52.4792 175.639 53.0284 175.957C53.5739 176.272 53.9962 176.736 54.2955 177.349C54.5909 177.963 54.7386 178.717 54.7386 179.611L54.7386 182.719L52.9886 182.719L52.9886 179.895C52.9886 179.372 52.9167 178.944 52.7727 178.611C52.625 178.277 52.411 178.031 52.1307 177.872C51.8466 177.709 51.4981 177.628 51.0852 177.628C50.6723 177.628 50.3201 177.709 50.0284 177.872C49.733 178.035 49.5095 178.283 49.358 178.616C49.2027 178.95 49.125 179.38 49.125 179.906L49.125 181.838L59 181.838L59 183.946ZM53.7273 177.935L59 175.054L59 177.406L53.7273 180.236L53.7273 177.935ZM47.3636 171.432L59 171.432L59 173.54L47.3636 173.54L47.3636 171.432ZM47.3636 159.587L59 159.587L59 161.462L51.0739 166.945L51.0739 167.041L59 167.041L59 169.149L47.3636 169.149L47.3636 167.263L55.2955 161.786L55.2955 161.683L47.3636 161.683L47.3636 159.587ZM51.0795 149.494C50.7727 149.589 50.4981 149.72 50.2557 149.886C50.0095 150.049 49.7992 150.246 49.625 150.477C49.4508 150.705 49.3201 150.966 49.233 151.261C49.142 151.557 49.0966 151.879 49.0966 152.227C49.0966 152.852 49.2538 153.409 49.5682 153.898C49.8826 154.386 50.3447 154.771 50.9545 155.051C51.5606 155.328 52.2992 155.466 53.1705 155.466C54.0492 155.466 54.7936 155.328 55.4034 155.051C56.0133 154.775 56.4773 154.39 56.7955 153.898C57.1098 153.405 57.267 152.833 57.267 152.182C57.267 151.591 57.1534 151.08 56.9261 150.648C56.6989 150.212 56.3769 149.877 55.9602 149.642C55.5398 149.407 55.0473 149.29 54.483 149.29L54.5568 148.812L54.5568 151.972L52.9091 151.972L52.9091 147.25L54.3068 147.25C55.303 147.25 56.1648 147.462 56.892 147.886C57.6193 148.311 58.1799 148.894 58.5739 149.636C58.964 150.379 59.1591 151.231 59.1591 152.193C59.1591 153.265 58.9186 154.206 58.4375 155.017C57.9526 155.824 57.2651 156.455 56.375 156.909C55.4811 157.36 54.4205 157.585 53.1932 157.585C52.2538 157.585 51.4148 157.453 50.6761 157.187C49.9375 156.919 49.3106 156.544 48.7955 156.062C48.2765 155.581 47.8826 155.017 47.6136 154.369C47.3409 153.722 47.2045 153.017 47.2045 152.256C47.2045 151.612 47.2992 151.011 47.4886 150.455C47.6742 149.898 47.9394 149.403 48.2841 148.972C48.6288 148.536 49.0379 148.178 49.5114 147.898C49.9848 147.617 50.5076 147.434 51.0795 147.347L51.0795 149.494Z" fill="black"/>
<path d="M73.5135 201V141.364H98.1484C102.613 141.364 106.467 142.237 109.709 143.984C112.97 145.712 115.484 148.129 117.251 151.235C119.017 154.322 119.901 157.913 119.901 162.009C119.901 166.125 118.998 169.726 117.192 172.812C115.406 175.88 112.854 178.258 109.534 179.947C106.214 181.636 102.274 182.48 97.7116 182.48H82.5114V171.124H95.0327C97.2069 171.124 99.022 170.745 100.478 169.988C101.953 169.231 103.07 168.173 103.827 166.814C104.584 165.436 104.962 163.834 104.962 162.009C104.962 160.165 104.584 158.573 103.827 157.234C103.07 155.875 101.953 154.826 100.478 154.089C99.0026 153.351 97.1875 152.982 95.0327 152.982H87.9276V201H73.5135ZM132.699 201H117.207L137.328 141.364H156.518L176.64 201H161.148L147.142 156.389H146.676L132.699 201ZM130.631 177.53H163.012V188.479H130.631V177.53ZM197.474 141.364V201H183.06V141.364H197.474ZM257.278 141.364V201H245.048L221.316 166.581H220.937V201H206.523V141.364H218.928L242.398 175.724H242.893V141.364H257.278ZM266.342 201V141.364H307.05V153.07H280.756V165.3H304.459V177.035H280.756V201H266.342ZM350.387 141.364H364.772V179.83C364.772 184.276 363.714 188.149 361.598 191.449C359.482 194.73 356.531 197.273 352.746 199.078C348.96 200.864 344.563 201.757 339.555 201.757C334.488 201.757 330.062 200.864 326.276 199.078C322.491 197.273 319.55 194.73 317.453 191.449C315.357 188.149 314.308 184.276 314.308 179.83V141.364H328.722V178.578C328.722 180.636 329.169 182.47 330.062 184.082C330.974 185.693 332.246 186.955 333.877 187.867C335.507 188.78 337.4 189.236 339.555 189.236C341.71 189.236 343.593 188.78 345.204 187.867C346.835 186.955 348.106 185.693 349.019 184.082C349.931 182.47 350.387 180.636 350.387 178.578V141.364ZM373.806 201V141.364H388.221V189.294H413.03V201H373.806Z" fill="#F1CA16"/>
<path d="M227.841 324.727H233.455V339.739C233.455 341.473 233.042 342.985 232.216 344.273C231.39 345.553 230.239 346.545 228.761 347.25C227.284 347.947 225.568 348.295 223.614 348.295C221.636 348.295 219.909 347.947 218.432 347.25C216.955 346.545 215.807 345.553 214.989 344.273C214.17 342.985 213.761 341.473 213.761 339.739V324.727H219.386V339.25C219.386 340.053 219.561 340.769 219.909 341.398C220.265 342.027 220.761 342.519 221.398 342.875C222.034 343.231 222.773 343.409 223.614 343.409C224.455 343.409 225.189 343.231 225.818 342.875C226.455 342.519 226.951 342.027 227.307 341.398C227.663 340.769 227.841 340.053 227.841 339.25V324.727ZM256.787 324.727V348H252.014L242.753 334.568H242.605V348H236.98V324.727H241.821L250.98 338.136H251.173V324.727H256.787ZM272.903 331.705C272.828 330.871 272.491 330.223 271.892 329.761C271.301 329.292 270.456 329.057 269.358 329.057C268.631 329.057 268.025 329.152 267.54 329.341C267.055 329.53 266.691 329.792 266.449 330.125C266.206 330.451 266.081 330.826 266.074 331.25C266.059 331.598 266.127 331.905 266.278 332.17C266.438 332.436 266.665 332.67 266.96 332.875C267.263 333.072 267.627 333.246 268.051 333.398C268.475 333.549 268.953 333.682 269.483 333.795L271.483 334.25C272.634 334.5 273.65 334.833 274.528 335.25C275.415 335.667 276.157 336.163 276.756 336.739C277.362 337.314 277.82 337.977 278.131 338.727C278.441 339.477 278.6 340.318 278.608 341.25C278.6 342.72 278.229 343.981 277.494 345.034C276.759 346.087 275.703 346.894 274.324 347.455C272.953 348.015 271.297 348.295 269.358 348.295C267.411 348.295 265.714 348.004 264.267 347.42C262.82 346.837 261.695 345.951 260.892 344.761C260.089 343.572 259.676 342.068 259.653 340.25H265.04C265.085 341 265.286 341.625 265.642 342.125C265.998 342.625 266.487 343.004 267.108 343.261C267.737 343.519 268.464 343.648 269.29 343.648C270.047 343.648 270.691 343.545 271.222 343.341C271.759 343.136 272.172 342.852 272.46 342.489C272.748 342.125 272.896 341.708 272.903 341.239C272.896 340.799 272.759 340.424 272.494 340.114C272.229 339.795 271.82 339.523 271.267 339.295C270.722 339.061 270.025 338.845 269.176 338.648L266.744 338.08C264.729 337.617 263.142 336.871 261.983 335.841C260.824 334.803 260.248 333.402 260.256 331.636C260.248 330.197 260.634 328.936 261.415 327.852C262.195 326.769 263.275 325.924 264.653 325.318C266.032 324.712 267.604 324.409 269.369 324.409C271.172 324.409 272.737 324.716 274.062 325.33C275.396 325.936 276.43 326.788 277.165 327.886C277.9 328.985 278.275 330.258 278.29 331.705H272.903ZM285.764 348H279.719L287.571 324.727H295.06L302.912 348H296.866L291.401 330.591H291.219L285.764 348ZM284.957 338.841H297.594V343.114H284.957V338.841ZM301.75 329.295V324.727H321.42V329.295H314.364V348H308.818V329.295H301.75ZM329.793 324.727V348H324.168V324.727H329.793ZM345.903 331.705C345.828 330.871 345.491 330.223 344.892 329.761C344.301 329.292 343.456 329.057 342.358 329.057C341.631 329.057 341.025 329.152 340.54 329.341C340.055 329.53 339.691 329.792 339.449 330.125C339.206 330.451 339.081 330.826 339.074 331.25C339.059 331.598 339.127 331.905 339.278 332.17C339.438 332.436 339.665 332.67 339.96 332.875C340.263 333.072 340.627 333.246 341.051 333.398C341.475 333.549 341.953 333.682 342.483 333.795L344.483 334.25C345.634 334.5 346.65 334.833 347.528 335.25C348.415 335.667 349.157 336.163 349.756 336.739C350.362 337.314 350.82 337.977 351.131 338.727C351.441 339.477 351.6 340.318 351.608 341.25C351.6 342.72 351.229 343.981 350.494 345.034C349.759 346.087 348.703 346.894 347.324 347.455C345.953 348.015 344.297 348.295 342.358 348.295C340.411 348.295 338.714 348.004 337.267 347.42C335.82 346.837 334.695 345.951 333.892 344.761C333.089 343.572 332.676 342.068 332.653 340.25H338.04C338.085 341 338.286 341.625 338.642 342.125C338.998 342.625 339.487 343.004 340.108 343.261C340.737 343.519 341.464 343.648 342.29 343.648C343.047 343.648 343.691 343.545 344.222 343.341C344.759 343.136 345.172 342.852 345.46 342.489C345.748 342.125 345.896 341.708 345.903 341.239C345.896 340.799 345.759 340.424 345.494 340.114C345.229 339.795 344.82 339.523 344.267 339.295C343.722 339.061 343.025 338.845 342.176 338.648L339.744 338.08C337.729 337.617 336.142 336.871 334.983 335.841C333.824 334.803 333.248 333.402 333.256 331.636C333.248 330.197 333.634 328.936 334.415 327.852C335.195 326.769 336.275 325.924 337.653 325.318C339.032 324.712 340.604 324.409 342.369 324.409C344.172 324.409 345.737 324.716 347.062 325.33C348.396 325.936 349.43 326.788 350.165 327.886C350.9 328.985 351.275 330.258 351.29 331.705H345.903ZM354.449 348V324.727H370.335V329.295H360.074V334.068H369.324V338.648H360.074V348H354.449ZM372.009 324.727H378.293L383.213 334.466H383.418L388.338 324.727H394.622L386.111 340.227V348H380.52V340.227L372.009 324.727ZM402.605 324.727V348H396.98V324.727H402.605ZM425.943 324.727V348H421.17L411.909 334.568H411.761V348H406.136V324.727H410.977L420.136 338.136H420.33V324.727H425.943ZM444.753 332.33C444.624 331.852 444.435 331.432 444.185 331.068C443.935 330.697 443.628 330.383 443.264 330.125C442.901 329.867 442.484 329.674 442.014 329.545C441.545 329.409 441.029 329.341 440.469 329.341C439.34 329.341 438.363 329.614 437.537 330.159C436.719 330.705 436.086 331.5 435.639 332.545C435.192 333.583 434.969 334.845 434.969 336.33C434.969 337.822 435.185 339.095 435.616 340.148C436.048 341.201 436.673 342.004 437.491 342.557C438.31 343.11 439.302 343.386 440.469 343.386C441.499 343.386 442.37 343.22 443.082 342.886C443.802 342.545 444.348 342.064 444.719 341.443C445.09 340.822 445.276 340.091 445.276 339.25L446.321 339.375H440.662V335.273H450.696V338.352C450.696 340.436 450.253 342.22 449.366 343.705C448.488 345.189 447.276 346.33 445.73 347.125C444.192 347.92 442.423 348.318 440.423 348.318C438.204 348.318 436.253 347.837 434.571 346.875C432.889 345.913 431.579 344.542 430.639 342.761C429.7 340.973 429.23 338.852 429.23 336.398C429.23 334.489 429.514 332.795 430.082 331.318C430.651 329.833 431.442 328.576 432.457 327.545C433.48 326.515 434.662 325.735 436.003 325.205C437.351 324.674 438.802 324.409 440.355 324.409C441.704 324.409 442.957 324.602 444.116 324.989C445.283 325.375 446.313 325.92 447.207 326.625C448.109 327.33 448.84 328.167 449.401 329.136C449.961 330.106 450.31 331.17 450.446 332.33H444.753Z" fill="#F19916"/>
<path d="M289.915 3.81818H291.148V10.5597C291.148 11.2557 290.984 11.8771 290.656 12.424C290.331 12.9676 289.872 13.3968 289.278 13.7116C288.685 14.0232 287.989 14.179 287.19 14.179C286.392 14.179 285.696 14.0232 285.102 13.7116C284.509 13.3968 284.048 12.9676 283.72 12.424C283.395 11.8771 283.233 11.2557 283.233 10.5597V3.81818H284.466V10.4602C284.466 10.9574 284.575 11.3999 284.794 11.7876C285.013 12.1721 285.324 12.4754 285.729 12.6974C286.136 12.9162 286.624 13.0256 287.19 13.0256C287.757 13.0256 288.244 12.9162 288.652 12.6974C289.06 12.4754 289.371 12.1721 289.587 11.7876C289.805 11.3999 289.915 10.9574 289.915 10.4602V3.81818ZM301.684 3.81818V14H300.491L294.942 6.00568H294.843V14H293.61V3.81818H294.803L300.371 11.8324H300.471V3.81818H301.684ZM309.719 6.36364C309.659 5.85985 309.417 5.46875 308.993 5.19034C308.569 4.91193 308.049 4.77273 307.432 4.77273C306.981 4.77273 306.587 4.84564 306.249 4.99148C305.914 5.13731 305.652 5.33783 305.463 5.59304C305.278 5.84825 305.185 6.13826 305.185 6.46307C305.185 6.73485 305.25 6.96851 305.379 7.16406C305.511 7.3563 305.681 7.51705 305.886 7.64631C306.092 7.77225 306.307 7.87666 306.532 7.95952C306.758 8.03906 306.965 8.10369 307.154 8.15341L308.188 8.43182C308.453 8.50142 308.748 8.59754 309.073 8.72017C309.401 8.8428 309.714 9.01018 310.012 9.2223C310.314 9.43111 310.563 9.69957 310.758 10.0277C310.954 10.3558 311.051 10.7585 311.051 11.2358C311.051 11.786 310.907 12.2831 310.619 12.7273C310.334 13.1714 309.916 13.5244 309.366 13.7862C308.819 14.0481 308.155 14.179 307.373 14.179C306.643 14.179 306.012 14.0613 305.478 13.826C304.948 13.5907 304.53 13.2625 304.225 12.8416C303.924 12.4207 303.753 11.9318 303.713 11.375H304.986C305.019 11.7595 305.149 12.0777 305.374 12.3295C305.603 12.5781 305.891 12.7637 306.239 12.8864C306.59 13.0057 306.968 13.0653 307.373 13.0653C307.843 13.0653 308.266 12.9891 308.64 12.8366C309.015 12.6809 309.311 12.4654 309.53 12.1903C309.749 11.9119 309.858 11.5871 309.858 11.2159C309.858 10.8778 309.764 10.6027 309.575 10.3906C309.386 10.1785 309.137 10.0062 308.829 9.87358C308.521 9.741 308.188 9.625 307.83 9.52557L306.577 9.16761C305.782 8.93892 305.152 8.61245 304.688 8.18821C304.224 7.76397 303.992 7.20881 303.992 6.52273C303.992 5.95265 304.146 5.45549 304.454 5.03125C304.766 4.60369 305.183 4.27225 305.707 4.03693C306.234 3.7983 306.822 3.67898 307.472 3.67898C308.128 3.67898 308.712 3.79664 309.222 4.03196C309.732 4.26397 310.137 4.58215 310.435 4.98651C310.737 5.39086 310.896 5.8499 310.912 6.36364H309.719ZM313.496 14H312.204L315.942 3.81818H317.215L320.954 14H319.661L316.618 5.42898H316.539L313.496 14ZM313.974 10.0227H319.184V11.1165H313.974V10.0227ZM320.793 4.91193V3.81818H328.43V4.91193H325.228V14H323.995V4.91193H320.793ZM331.566 3.81818V14H330.333V3.81818H331.566ZM339.606 6.36364C339.546 5.85985 339.304 5.46875 338.88 5.19034C338.456 4.91193 337.935 4.77273 337.319 4.77273C336.868 4.77273 336.474 4.84564 336.136 4.99148C335.801 5.13731 335.539 5.33783 335.35 5.59304C335.165 5.84825 335.072 6.13826 335.072 6.46307C335.072 6.73485 335.136 6.96851 335.266 7.16406C335.398 7.3563 335.567 7.51705 335.773 7.64631C335.978 7.77225 336.194 7.87666 336.419 7.95952C336.644 8.03906 336.852 8.10369 337.04 8.15341L338.075 8.43182C338.34 8.50142 338.635 8.59754 338.96 8.72017C339.288 8.8428 339.601 9.01018 339.899 9.2223C340.201 9.43111 340.449 9.69957 340.645 10.0277C340.84 10.3558 340.938 10.7585 340.938 11.2358C340.938 11.786 340.794 12.2831 340.506 12.7273C340.221 13.1714 339.803 13.5244 339.253 13.7862C338.706 14.0481 338.041 14.179 337.259 14.179C336.53 14.179 335.899 14.0613 335.365 13.826C334.835 13.5907 334.417 13.2625 334.112 12.8416C333.811 12.4207 333.64 11.9318 333.6 11.375H334.873C334.906 11.7595 335.035 12.0777 335.261 12.3295C335.489 12.5781 335.778 12.7637 336.126 12.8864C336.477 13.0057 336.855 13.0653 337.259 13.0653C337.73 13.0653 338.152 12.9891 338.527 12.8366C338.902 12.6809 339.198 12.4654 339.417 12.1903C339.636 11.9119 339.745 11.5871 339.745 11.2159C339.745 10.8778 339.651 10.6027 339.462 10.3906C339.273 10.1785 339.024 10.0062 338.716 9.87358C338.408 9.741 338.075 9.625 337.717 9.52557L336.464 9.16761C335.668 8.93892 335.039 8.61245 334.575 8.18821C334.111 7.76397 333.879 7.20881 333.879 6.52273C333.879 5.95265 334.033 5.45549 334.341 5.03125C334.652 4.60369 335.07 4.27225 335.594 4.03693C336.121 3.7983 336.709 3.67898 337.359 3.67898C338.015 3.67898 338.598 3.79664 339.109 4.03196C339.619 4.26397 340.023 4.58215 340.322 4.98651C340.623 5.39086 340.782 5.8499 340.799 6.36364H339.606ZM342.965 14V3.81818H349.07V4.91193H344.198V8.35227H348.613V9.44602H344.198V14H342.965ZM350.307 3.81818H351.719L354.543 8.57102H354.662L357.486 3.81818H358.898L355.219 9.80398V14H353.986V9.80398L350.307 3.81818ZM361.726 3.81818V14H360.493V3.81818H361.726ZM372.272 3.81818V14H371.078L365.53 6.00568H365.431V14H364.198V3.81818H365.391L370.959 11.8324H371.059V3.81818H372.272ZM381.699 7C381.59 6.66525 381.445 6.36529 381.267 6.10014C381.091 5.83168 380.88 5.60298 380.635 5.41406C380.393 5.22514 380.118 5.08097 379.81 4.98153C379.502 4.8821 379.164 4.83239 378.796 4.83239C378.192 4.83239 377.644 4.98816 377.15 5.29972C376.656 5.61127 376.263 6.07031 375.972 6.67685C375.68 7.28338 375.534 8.02746 375.534 8.90909C375.534 9.79072 375.682 10.5348 375.977 11.1413C376.272 11.7479 376.671 12.2069 377.175 12.5185C377.679 12.83 378.245 12.9858 378.875 12.9858C379.459 12.9858 379.972 12.8615 380.416 12.6129C380.864 12.361 381.212 12.0064 381.46 11.549C381.712 11.0883 381.838 10.5464 381.838 9.9233L382.216 10.0028H379.154V8.90909H383.031V10.0028C383.031 10.8414 382.852 11.5705 382.494 12.1903C382.14 12.8101 381.649 13.2907 381.023 13.6321C380.4 13.9702 379.684 14.1392 378.875 14.1392C377.974 14.1392 377.182 13.9271 376.499 13.5028C375.819 13.0786 375.289 12.4754 374.908 11.6932C374.53 10.911 374.341 9.98295 374.341 8.90909C374.341 8.10369 374.449 7.3795 374.664 6.73651C374.883 6.0902 375.191 5.54001 375.589 5.08594C375.987 4.63187 376.457 4.28385 377.001 4.0419C377.544 3.79995 378.143 3.67898 378.796 3.67898C379.333 3.67898 379.833 3.76018 380.297 3.92258C380.764 4.08168 381.18 4.30871 381.545 4.60369C381.913 4.89536 382.219 5.24503 382.465 5.6527C382.71 6.05705 382.879 6.50616 382.972 7H381.699Z" fill="black"/>
<path d="M114.068 274.727V298H110.557V274.727H114.068ZM137.966 274.727V298H134.739L122.909 280.932H122.693V298H119.182V274.727H122.432L134.273 291.818H134.489V274.727H137.966ZM162.418 282.295H158.872C158.736 281.538 158.482 280.871 158.111 280.295C157.74 279.72 157.285 279.231 156.747 278.83C156.209 278.428 155.607 278.125 154.94 277.92C154.281 277.716 153.58 277.614 152.838 277.614C151.497 277.614 150.296 277.951 149.236 278.625C148.183 279.299 147.349 280.288 146.736 281.591C146.13 282.894 145.827 284.485 145.827 286.364C145.827 288.258 146.13 289.856 146.736 291.159C147.349 292.462 148.187 293.447 149.247 294.114C150.308 294.78 151.501 295.114 152.827 295.114C153.562 295.114 154.259 295.015 154.918 294.818C155.584 294.614 156.187 294.314 156.724 293.92C157.262 293.527 157.717 293.045 158.088 292.477C158.467 291.902 158.728 291.242 158.872 290.5L162.418 290.511C162.228 291.655 161.861 292.708 161.315 293.67C160.777 294.625 160.084 295.451 159.236 296.148C158.395 296.837 157.433 297.371 156.349 297.75C155.266 298.129 154.084 298.318 152.804 298.318C150.789 298.318 148.993 297.841 147.418 296.886C145.842 295.924 144.599 294.549 143.69 292.761C142.789 290.973 142.338 288.841 142.338 286.364C142.338 283.879 142.793 281.746 143.702 279.966C144.611 278.178 145.853 276.807 147.429 275.852C149.005 274.89 150.796 274.409 152.804 274.409C154.039 274.409 155.19 274.587 156.259 274.943C157.334 275.292 158.3 275.807 159.156 276.489C160.012 277.163 160.721 277.989 161.281 278.966C161.842 279.936 162.221 281.045 162.418 282.295ZM186.835 286.364C186.835 288.848 186.381 290.985 185.472 292.773C184.563 294.553 183.316 295.924 181.733 296.886C180.157 297.841 178.366 298.318 176.358 298.318C174.343 298.318 172.544 297.841 170.96 296.886C169.384 295.924 168.142 294.549 167.233 292.761C166.324 290.973 165.869 288.841 165.869 286.364C165.869 283.879 166.324 281.746 167.233 279.966C168.142 278.178 169.384 276.807 170.96 275.852C172.544 274.89 174.343 274.409 176.358 274.409C178.366 274.409 180.157 274.89 181.733 275.852C183.316 276.807 184.563 278.178 185.472 279.966C186.381 281.746 186.835 283.879 186.835 286.364ZM183.358 286.364C183.358 284.47 183.051 282.875 182.438 281.58C181.831 280.277 180.998 279.292 179.938 278.625C178.884 277.951 177.691 277.614 176.358 277.614C175.017 277.614 173.82 277.951 172.767 278.625C171.714 279.292 170.881 280.277 170.267 281.58C169.661 282.875 169.358 284.47 169.358 286.364C169.358 288.258 169.661 289.856 170.267 291.159C170.881 292.455 171.714 293.439 172.767 294.114C173.82 294.78 175.017 295.114 176.358 295.114C177.691 295.114 178.884 294.78 179.938 294.114C180.998 293.439 181.831 292.455 182.438 291.159C183.051 289.856 183.358 288.258 183.358 286.364ZM209.997 274.727V298H206.77L194.94 280.932H194.724V298H191.213V274.727H194.463L206.304 291.818H206.52V274.727H209.997ZM217.153 274.727L223.631 293.682H223.892L230.369 274.727H234.165L225.79 298H221.733L213.358 274.727H217.153ZM237.526 298V274.727H252.116V277.75H241.037V284.841H251.355V287.852H241.037V294.977H252.253V298H237.526ZM275.591 274.727V298H272.364L260.534 280.932H260.318V298H256.807V274.727H260.057L271.898 291.818H272.114V274.727H275.591ZM284.224 274.727V298H280.713V274.727H284.224ZM289.338 298V274.727H303.929V277.75H292.849V284.841H303.168V287.852H292.849V294.977H304.065V298H289.338ZM327.403 274.727V298H324.176L312.347 280.932H312.131V298H308.619V274.727H311.869L323.71 291.818H323.926V274.727H327.403ZM331.378 277.75V274.727H349.389V277.75H342.128V298H338.628V277.75H331.378Z" fill="#370971"/>
<path d="M23.9318 89.8182V116H20.8636L6.59659 95.4432H6.34091V116H3.17045V89.8182H6.23864L20.5568 110.426H20.8125V89.8182H23.9318ZM52.3668 102.909C52.3668 105.67 51.8683 108.057 50.8711 110.068C49.8739 112.08 48.506 113.631 46.7674 114.722C45.0288 115.812 43.043 116.358 40.81 116.358C38.5771 116.358 36.5913 115.812 34.8526 114.722C33.114 113.631 31.7461 112.08 30.7489 110.068C29.7518 108.057 29.2532 105.67 29.2532 102.909C29.2532 100.148 29.7518 97.7614 30.7489 95.75C31.7461 93.7386 33.114 92.1875 34.8526 91.0966C36.5913 90.0057 38.5771 89.4602 40.81 89.4602C43.043 89.4602 45.0288 90.0057 46.7674 91.0966C48.506 92.1875 49.8739 93.7386 50.8711 95.75C51.8683 97.7614 52.3668 100.148 52.3668 102.909ZM49.2987 102.909C49.2987 100.642 48.9194 98.7287 48.1609 97.169C47.4109 95.6094 46.3924 94.429 45.1055 93.6278C43.8271 92.8267 42.3952 92.4261 40.81 92.4261C39.2248 92.4261 37.7887 92.8267 36.5018 93.6278C35.2234 94.429 34.2049 95.6094 33.4464 97.169C32.6964 98.7287 32.3214 100.642 32.3214 102.909C32.3214 105.176 32.6964 107.089 33.4464 108.649C34.2049 110.209 35.2234 111.389 36.5018 112.19C37.7887 112.991 39.2248 113.392 40.81 113.392C42.3952 113.392 43.8271 112.991 45.1055 112.19C46.3924 111.389 47.4109 110.209 48.1609 108.649C48.9194 107.089 49.2987 105.176 49.2987 102.909ZM66.391 92.6307V89.8182H86.0273V92.6307H77.7944V116H74.6239V92.6307H66.391ZM90.9205 116V89.8182H94.0909V101.477H108.051V89.8182H111.222V116H108.051V104.29H94.0909V116H90.9205ZM118.643 116H115.319L124.933 89.8182H128.205L137.819 116H134.495L126.671 93.9602H126.467L118.643 116ZM119.87 105.773H133.268V108.585H119.87V105.773ZM162.658 89.8182V116H159.59L145.323 95.4432H145.067V116H141.897V89.8182H144.965L159.283 110.426H159.539V89.8182H162.658ZM169.002 116V89.8182H172.173V102.807H172.48L184.241 89.8182H188.383L177.389 101.631L188.383 116H184.548L175.446 103.83L172.173 107.511V116H169.002ZM206.805 96.3636C206.652 95.0682 206.029 94.0625 204.939 93.3466C203.848 92.6307 202.51 92.2727 200.924 92.2727C199.765 92.2727 198.751 92.4602 197.882 92.8352C197.021 93.2102 196.348 93.7259 195.862 94.3821C195.385 95.0384 195.146 95.7841 195.146 96.6193C195.146 97.3182 195.312 97.919 195.645 98.4219C195.985 98.9162 196.42 99.3295 196.949 99.6619C197.477 99.9858 198.031 100.254 198.61 100.467C199.19 100.672 199.723 100.838 200.208 100.966L202.868 101.682C203.549 101.861 204.308 102.108 205.143 102.423C205.987 102.739 206.792 103.169 207.559 103.714C208.335 104.251 208.974 104.942 209.477 105.786C209.98 106.629 210.231 107.665 210.231 108.892C210.231 110.307 209.86 111.585 209.119 112.727C208.386 113.869 207.312 114.777 205.897 115.45C204.491 116.124 202.782 116.46 200.771 116.46C198.896 116.46 197.272 116.158 195.9 115.553C194.537 114.947 193.463 114.104 192.679 113.021C191.903 111.939 191.464 110.682 191.362 109.25H194.635C194.72 110.239 195.052 111.057 195.632 111.705C196.22 112.344 196.961 112.821 197.856 113.136C198.76 113.443 199.731 113.597 200.771 113.597C201.981 113.597 203.068 113.401 204.031 113.009C204.994 112.608 205.757 112.054 206.319 111.347C206.882 110.631 207.163 109.795 207.163 108.841C207.163 107.972 206.92 107.264 206.434 106.719C205.949 106.173 205.309 105.73 204.517 105.389C203.724 105.048 202.868 104.75 201.947 104.494L198.725 103.574C196.68 102.986 195.061 102.146 193.868 101.055C192.674 99.9645 192.078 98.5369 192.078 96.7727C192.078 95.3068 192.474 94.0284 193.267 92.9375C194.068 91.8381 195.142 90.9858 196.488 90.3807C197.843 89.767 199.356 89.4602 201.027 89.4602C202.714 89.4602 204.214 89.7628 205.527 90.3679C206.839 90.9645 207.879 91.7827 208.646 92.8224C209.422 93.8622 209.831 95.0426 209.873 96.3636H206.805ZM219.023 89.8182L218.768 108.636H215.802L215.546 89.8182H219.023ZM217.285 116.205C216.654 116.205 216.113 115.979 215.661 115.527C215.21 115.075 214.984 114.534 214.984 113.903C214.984 113.273 215.21 112.732 215.661 112.28C216.113 111.828 216.654 111.602 217.285 111.602C217.915 111.602 218.457 111.828 218.908 112.28C219.36 112.732 219.586 113.273 219.586 113.903C219.586 114.321 219.479 114.705 219.266 115.054C219.062 115.403 218.785 115.685 218.435 115.898C218.094 116.102 217.711 116.205 217.285 116.205Z" fill="#FD0590"/>
<path d="M261.872 224.636V245H257.696L249.592 233.247H249.463V245H244.541V224.636H248.777L256.791 236.369H256.96V224.636H261.872ZM284.187 234.818C284.187 237.059 283.756 238.958 282.895 240.516C282.033 242.073 280.866 243.257 279.395 244.065C277.93 244.874 276.286 245.278 274.463 245.278C272.633 245.278 270.986 244.871 269.521 244.055C268.056 243.24 266.893 242.057 266.031 240.506C265.176 238.948 264.748 237.052 264.748 234.818C264.748 232.578 265.176 230.679 266.031 229.121C266.893 227.563 268.056 226.38 269.521 225.571C270.986 224.762 272.633 224.358 274.463 224.358C276.286 224.358 277.93 224.762 279.395 225.571C280.866 226.38 282.033 227.563 282.895 229.121C283.756 230.679 284.187 232.578 284.187 234.818ZM279.156 234.818C279.156 233.492 278.967 232.372 278.589 231.457C278.218 230.543 277.681 229.85 276.978 229.379C276.282 228.909 275.444 228.673 274.463 228.673C273.488 228.673 272.65 228.909 271.947 229.379C271.244 229.85 270.704 230.543 270.326 231.457C269.955 232.372 269.77 233.492 269.77 234.818C269.77 236.144 269.955 237.264 270.326 238.179C270.704 239.094 271.244 239.786 271.947 240.257C272.65 240.728 273.488 240.963 274.463 240.963C275.444 240.963 276.282 240.728 276.978 240.257C277.681 239.786 278.218 239.094 278.589 238.179C278.967 237.264 279.156 236.144 279.156 234.818ZM292.41 228.634V224.636H309.622V228.634H303.447V245H298.595V228.634H292.41ZM312.026 245V224.636H316.947V232.81H324.972V224.636H329.884V245H324.972V236.817H316.947V245H312.026ZM337.376 245H332.086L338.957 224.636H345.509L352.38 245H347.09L342.308 229.767H342.148L337.376 245ZM336.67 236.986H347.727V240.724H336.67V236.986ZM371.903 224.636V245H367.727L359.624 233.247H359.494V245H354.572V224.636H358.808L366.822 236.369H366.991V224.636H371.903ZM374.998 245V224.636H379.92V233.247H380.189L386.92 224.636H392.717L385.498 233.724L392.846 245H386.96L381.889 236.996L379.92 239.482V245H374.998ZM405.447 230.741C405.38 230.012 405.085 229.446 404.562 229.041C404.045 228.63 403.306 228.425 402.344 228.425C401.708 228.425 401.178 228.508 400.754 228.673C400.329 228.839 400.011 229.068 399.799 229.359C399.587 229.644 399.478 229.973 399.471 230.344C399.458 230.649 399.517 230.917 399.65 231.149C399.789 231.381 399.988 231.587 400.246 231.766C400.512 231.938 400.83 232.09 401.201 232.223C401.572 232.356 401.99 232.472 402.454 232.571L404.204 232.969C405.211 233.188 406.1 233.479 406.869 233.844C407.644 234.208 408.294 234.643 408.817 235.146C409.348 235.65 409.749 236.23 410.021 236.886C410.292 237.543 410.432 238.278 410.438 239.094C410.432 240.38 410.107 241.483 409.464 242.405C408.821 243.326 407.896 244.032 406.69 244.523C405.49 245.013 404.041 245.259 402.344 245.259C400.641 245.259 399.156 245.003 397.89 244.493C396.624 243.982 395.639 243.207 394.937 242.166C394.234 241.125 393.873 239.81 393.853 238.219H398.566C398.606 238.875 398.781 239.422 399.093 239.859C399.405 240.297 399.832 240.628 400.376 240.854C400.926 241.079 401.562 241.192 402.285 241.192C402.948 241.192 403.511 241.102 403.975 240.923C404.446 240.744 404.807 240.496 405.059 240.178C405.311 239.859 405.44 239.495 405.447 239.084C405.44 238.699 405.321 238.371 405.089 238.099C404.857 237.821 404.499 237.582 404.015 237.384C403.538 237.178 402.928 236.989 402.185 236.817L400.058 236.32C398.294 235.915 396.906 235.262 395.891 234.361C394.877 233.453 394.373 232.226 394.38 230.682C394.373 229.422 394.711 228.319 395.394 227.371C396.077 226.423 397.022 225.684 398.228 225.153C399.434 224.623 400.81 224.358 402.354 224.358C403.932 224.358 405.301 224.626 406.461 225.163C407.628 225.694 408.532 226.439 409.175 227.401C409.818 228.362 410.147 229.475 410.16 230.741H405.447ZM418.641 224.636L418.184 238.766H414.097L413.64 224.636H418.641ZM416.136 245.288C415.426 245.288 414.817 245.036 414.306 244.533C413.802 244.029 413.55 243.419 413.55 242.703C413.55 242 413.802 241.401 414.306 240.903C414.817 240.4 415.426 240.148 416.136 240.148C416.818 240.148 417.418 240.4 417.935 240.903C418.459 241.401 418.721 242 418.721 242.703C418.721 243.18 418.598 243.615 418.353 244.006C418.114 244.397 417.799 244.708 417.408 244.94C417.024 245.172 416.6 245.288 416.136 245.288Z" fill="#5C0971"/>
<path d="M1.43821 75V61.9091H6.1044C7.12287 61.9091 7.96662 62.0945 8.63565 62.4652C9.30469 62.8359 9.8054 63.343 10.1378 63.9865C10.4702 64.6257 10.6364 65.3459 10.6364 66.147C10.6364 66.9524 10.468 67.6768 10.1314 68.3203C9.79901 68.9595 9.29616 69.4666 8.62287 69.8416C7.95384 70.2124 7.11222 70.3977 6.09801 70.3977H2.8892V68.723H5.91903C6.5625 68.723 7.08452 68.6122 7.48509 68.3906C7.88565 68.1648 8.17969 67.858 8.36719 67.4702C8.55469 67.0824 8.64844 66.6413 8.64844 66.147C8.64844 65.6527 8.55469 65.2138 8.36719 64.8303C8.17969 64.4467 7.88352 64.1463 7.47869 63.929C7.07813 63.7116 6.54972 63.603 5.89347 63.603H3.41335V75H1.43821ZM12.669 75H10.5724L15.2834 61.9091H17.5653L22.2763 75H20.1797L16.4787 64.2869H16.3764L12.669 75ZM13.0206 69.8736H19.8217V71.5355H13.0206V69.8736ZM26.1419 61.9091V75H24.1667V61.9091H26.1419ZM39.5843 61.9091V75H37.769L31.1149 65.3991H30.9934V75H29.0183V61.9091H30.8464L37.5069 71.5227H37.6284V61.9091H39.5843ZM42.4656 75V61.9091H50.5835V63.6094H44.4407V67.598H50.0018V69.2919H44.4407V75H42.4656ZM61.4308 61.9091H63.4123V70.5192C63.4123 71.4354 63.1971 72.2472 62.7667 72.9545C62.3363 73.6577 61.7312 74.2116 60.9514 74.6165C60.1715 75.017 59.2575 75.2173 58.2092 75.2173C57.1651 75.2173 56.2532 75.017 55.4734 74.6165C54.6935 74.2116 54.0884 73.6577 53.658 72.9545C53.2276 72.2472 53.0124 71.4354 53.0124 70.5192V61.9091H54.9876V70.3594C54.9876 70.9517 55.1175 71.478 55.3775 71.9382C55.6417 72.3984 56.0146 72.7607 56.4961 73.0249C56.9776 73.2848 57.5487 73.4148 58.2092 73.4148C58.8739 73.4148 59.4471 73.2848 59.9286 73.0249C60.4144 72.7607 60.7852 72.3984 61.0408 71.9382C61.3008 71.478 61.4308 70.9517 61.4308 70.3594V61.9091ZM66.2839 75V61.9091H68.2591V73.2997H74.1909V75H66.2839Z" fill="black"/>
</svg>
