<svg width="327" height="11" viewBox="0 0 327 11" fill="none" xmlns="http://www.w3.org/2000/svg">
<path fill-rule="evenodd" clip-rule="evenodd" d="M245.224 0.0421896C241.757 0.072531 238.726 0.10824 238.487 0.121622C238.247 0.134925 239.714 0.167834 241.746 0.194674C245.43 0.243376 245.425 0.243532 239.79 0.267494C236.683 0.28072 232.086 0.319074 229.576 0.352683C226.419 0.395005 228.026 0.402707 234.792 0.377656C250.256 0.320475 266.135 0.269906 268.177 0.271228C269.316 0.272006 269.944 0.241976 269.781 0.194674C269.605 0.143561 273.407 0.116876 280.864 0.116876C288.923 0.116876 292.132 0.141382 291.925 0.201365C291.741 0.254579 292.013 0.279163 292.66 0.267649C293.224 0.257536 293.98 0.270061 294.338 0.295501C294.697 0.320864 297.924 0.379057 301.51 0.424802C305.096 0.470548 308.763 0.538855 309.66 0.576587C310.556 0.614241 311.29 0.616109 311.29 0.58071C311.29 0.492331 310.139 0.440906 303.466 0.230928C302.629 0.204633 301.065 0.146906 299.989 0.102717C297.671 0.00749152 254.635 -0.0400433 245.224 0.0421896ZM112.874 0.124111C110.831 0.167445 110.89 0.170946 113.852 0.18246C116.972 0.194519 117.915 0.16161 116.025 0.106529C115.487 0.0908136 114.069 0.0987489 112.874 0.124111ZM108.093 0.162388C107.615 0.175692 105.513 0.209067 103.421 0.23653C101.329 0.263993 99.6175 0.312228 99.6175 0.343814C99.6175 0.375322 100.253 0.387226 101.03 0.370188C102.113 0.346459 102.291 0.358362 101.791 0.421379C101.295 0.483773 101.608 0.501589 103.095 0.495443C104.878 0.48813 104.936 0.482217 103.747 0.42807L102.443 0.368709L104.036 0.359451C104.913 0.354395 105.695 0.381468 105.775 0.419667C105.857 0.459111 107.513 0.463935 109.614 0.430793C113.599 0.368087 113.53 0.338135 109.397 0.336501C107.963 0.335879 107.278 0.318296 107.876 0.297368C108.902 0.261425 110.292 0.103962 109.375 0.127457C109.148 0.133292 108.571 0.149007 108.093 0.162388ZM257.955 0.174369C256.471 0.18954 253.928 0.189618 252.305 0.174602C250.681 0.159665 251.895 0.147217 255.003 0.14714C258.111 0.146984 259.439 0.159276 257.955 0.174369ZM264.022 0.168378C263.723 0.190006 263.234 0.190006 262.935 0.168378C262.637 0.146828 262.881 0.129168 263.479 0.129168C264.076 0.129168 264.321 0.146828 264.022 0.168378ZM297.055 0.246177C296.756 0.267805 296.267 0.267805 295.968 0.246177C295.67 0.224627 295.914 0.206967 296.512 0.206967C297.109 0.206967 297.354 0.224627 297.055 0.246177ZM300.106 0.24571C299.811 0.267027 299.225 0.26835 298.802 0.248589C298.379 0.228828 298.62 0.211401 299.337 0.209845C300.054 0.208289 300.4 0.224393 300.106 0.24571ZM114.069 0.326076C114.488 0.345681 115.173 0.345681 115.591 0.326076C116.009 0.306548 115.667 0.290522 114.83 0.290522C113.993 0.290522 113.651 0.306548 114.069 0.326076ZM118.199 0.323975C118.498 0.345603 118.987 0.345603 119.285 0.323975C119.584 0.302425 119.339 0.284765 118.742 0.284765C118.144 0.284765 117.9 0.302425 118.199 0.323975ZM34.9883 0.452498C34.8632 0.488752 32.5817 0.511236 29.9182 0.502445C25.0854 0.486652 16.6207 0.601171 15.1959 0.701687C14.7191 0.735295 14.477 0.826475 14.5344 0.950719C14.6322 1.16218 14.6995 1.16972 17.1436 1.24239C19.1438 1.3019 19.305 1.42778 17.3609 1.41199C16.0665 1.40148 15.9587 1.41844 16.0735 1.6145C16.183 1.80183 16.0478 1.8286 14.9868 1.82961C13.4669 1.83116 12.9314 1.90033 12.8115 2.11069C12.7336 2.24754 13.0157 2.28473 14.4414 2.32549C16.7489 2.39155 16.6242 2.49914 14.1828 2.54839C12.2542 2.58729 9.85629 2.86752 10.3153 3.0004C10.4292 3.03346 9.9354 3.08364 9.2178 3.11188C8.0899 3.15623 7.99688 3.17817 8.53106 3.27378C8.87096 3.33462 9.40774 3.38495 9.72373 3.38558C10.1566 3.38651 10.1414 3.40448 9.66201 3.45878C9.2165 3.5092 9.7246 3.53791 11.361 3.55479C13.6677 3.57859 13.696 3.58186 13.7351 3.83175C13.7572 3.97085 13.6281 4.08459 13.4491 4.08459C13.27 4.08459 13.1231 4.15461 13.1231 4.24019C13.1231 4.35549 12.8136 4.39851 11.9278 4.40637C10.886 4.41563 10.8595 4.42131 11.7218 4.45095C12.9818 4.4942 15.2737 4.70589 14.4892 4.70652C14.1575 4.70675 14.0037 4.75553 14.1376 4.818C14.4914 4.98301 13.6308 5.07201 10.7704 5.1663C8.21117 5.25064 7.10847 5.32937 8.48673 5.32937C8.8853 5.32937 9.21128 5.38188 9.21128 5.44607C9.21128 5.53686 8.6319 5.56276 6.60341 5.56276C3.79126 5.56276 2.91675 5.71136 5.62546 5.72894C6.63427 5.73548 6.88289 5.75236 6.27743 5.77329C5.73934 5.7918 5.29948 5.83716 5.29948 5.87411C5.29948 5.91107 4.90525 5.96366 4.42367 5.99104C3.94208 6.01835 3.65608 6.07196 3.78735 6.11C3.91904 6.14812 3.38399 6.21246 2.59859 6.25299C1.36463 6.31671 1.61369 6.32799 4.43019 6.33608C7.77739 6.34573 7.9017 6.42765 4.72444 6.52988C3.31576 6.57516 3.14407 6.60098 3.59914 6.69909C4.03118 6.79229 4.20895 6.79517 4.50886 6.71395C4.79833 6.63545 5.02652 6.64712 5.53418 6.76631C6.13269 6.90673 6.10444 6.92595 5.19994 6.99597C4.35499 7.06132 4.55754 7.07843 6.60341 7.115C8.74882 7.15328 8.89921 7.16736 8.07034 7.25239C7.56267 7.30452 6.29134 7.37049 5.24515 7.39896C1.99357 7.4875 1.80623 7.58023 4.86483 7.58731L7.69003 7.59377L3.99554 7.84249L0.301059 8.09121L2.47428 8.13011L4.64751 8.16901L2.08658 8.27427C0.297148 8.34787 -0.291796 8.40023 0.130679 8.44815C0.463617 8.48588 1.12688 8.51973 1.60499 8.52338C2.4682 8.52999 2.4682 8.53046 1.61282 8.59029C0.9878 8.63393 1.52502 8.66894 3.56872 8.71772C6.12139 8.77856 6.22266 8.78751 4.64751 8.81279C3.69129 8.82812 2.72334 8.8734 2.49602 8.91331C2.24001 8.95828 4.05683 8.98823 7.27711 8.99204C11.2885 8.99679 12.199 9.016 11.2758 9.0763C10.583 9.12165 10.0806 9.21268 10.0806 9.29296C10.0806 9.40531 9.32081 9.45914 6.06576 9.5774C3.85776 9.65761 2.41952 9.73595 2.86938 9.75143C3.52395 9.77399 3.56611 9.79336 3.08062 9.84837C2.63467 9.89894 2.76158 9.91769 3.5609 9.91948C4.15853 9.9208 4.93525 9.95448 5.28731 9.99432C5.99839 10.0748 5.81366 10.0944 3.50005 10.1846C2.86894 10.2092 2.24653 10.2789 2.11657 10.3396C1.91837 10.4319 2.66944 10.444 6.7412 10.414C10.3335 10.3875 11.4319 10.4004 10.9499 10.4634C10.4 10.5354 10.4344 10.5468 11.1672 10.5364C12.6198 10.5156 12.9379 10.5405 12.2538 10.6214C11.8105 10.6738 12.4359 10.6807 14.2097 10.6428C17.4565 10.5735 17.2905 10.5727 24.6412 10.6929C29.1458 10.7665 35.7494 10.7784 50.0679 10.7392C61.9533 10.7065 73.0959 10.7177 78.9718 10.7681C98.3374 10.9345 100.264 10.9462 99.9869 10.895C99.8317 10.8663 97.6803 10.8238 95.2058 10.8006C92.7318 10.7775 90.5212 10.7273 90.2943 10.6891C89.7284 10.594 127.155 10.6014 140.355 10.699C147.926 10.755 205.116 10.8646 225.013 10.8613C229.452 10.8605 248.812 10.7622 249.7 10.7359C250.434 10.7141 250.812 10.7302 250.653 10.7764C250.507 10.8186 250.584 10.8531 250.823 10.8531C251.062 10.8531 251.378 10.818 251.526 10.7753C251.878 10.6733 253.482 10.6744 253.482 10.7767C253.482 10.8646 263.749 10.8699 271.248 10.7858C274.681 10.7472 275.807 10.7585 275.966 10.833C276.082 10.8868 276.46 10.9309 276.807 10.9309C277.155 10.9309 277.318 10.8958 277.17 10.8531C277.022 10.8103 277.255 10.7693 277.688 10.762C278.12 10.7546 278.767 10.7409 279.126 10.7313C279.484 10.7218 280.854 10.7098 282.168 10.7045C283.625 10.6988 284.336 10.6698 283.989 10.6304C283.425 10.5664 286.508 10.5068 295.208 10.4137C299.582 10.367 301.561 10.2392 298.229 10.2188C297.165 10.2123 296.099 10.1988 295.86 10.1889C295.621 10.1789 293.567 10.162 291.296 10.1512L287.167 10.1316L289.992 10.071C291.546 10.0377 294.74 9.99953 297.09 9.98623C299.44 9.97285 301.457 9.93488 301.571 9.90181C301.685 9.86875 302.17 9.84168 302.648 9.84168C303.126 9.84168 303.412 9.81126 303.284 9.77399C303.154 9.73642 302.225 9.73494 301.194 9.77065C299.113 9.84269 297.129 9.86082 297.441 9.80496C297.86 9.72996 306.865 9.45222 307.488 9.49501C307.852 9.51998 308.248 9.48645 308.395 9.41822C308.579 9.33225 309.32 9.29343 310.95 9.28441L313.246 9.27173L310.855 9.22582C308.974 9.18965 308.714 9.16997 309.634 9.13348C310.278 9.10788 311.745 9.11302 312.894 9.14476C314.044 9.1765 315.028 9.19541 315.083 9.18677C315.137 9.17806 314.87 9.09139 314.489 8.99406C314.03 8.8769 313.651 8.84329 313.365 8.89448C313.079 8.94575 312.472 8.94443 311.568 8.89044C309.139 8.74565 309.523 8.71306 313.322 8.74145C315.972 8.76121 316.963 8.74433 316.752 8.6831C316.568 8.63004 316.84 8.59418 317.458 8.5899C318.351 8.58368 314.08 8.42831 310.638 8.3418C309.92 8.32375 310.801 8.30321 312.594 8.29621C314.386 8.28913 316.147 8.24938 316.505 8.20791C317.046 8.14536 317.009 8.13206 316.288 8.13011C315.81 8.12879 315.125 8.09075 314.767 8.04554C314.29 7.98548 314.669 7.97662 316.178 8.01264C318.875 8.0769 319.446 8.00898 318.201 7.77185C317.65 7.66682 317.457 7.58552 317.759 7.58552C318.054 7.58552 318.174 7.55051 318.027 7.50772C317.879 7.46494 316.938 7.42938 315.936 7.42876C314.935 7.42806 313.821 7.39103 313.463 7.34637C312.994 7.28802 313.451 7.27946 315.093 7.31603C317.415 7.36761 318.293 7.26398 316.397 7.16214C315.443 7.11095 315.44 7.10784 316.288 7.03494C316.977 6.97582 316.839 6.96703 315.625 6.99286C313.875 7.03012 312.037 6.86239 313.268 6.77782C313.654 6.75137 314.32 6.72974 314.749 6.72974C315.178 6.72974 315.773 6.67723 316.071 6.61304C316.496 6.5214 316.497 6.49635 316.077 6.49635C315.781 6.49635 315.654 6.44438 315.793 6.37965C315.954 6.30465 315.776 6.261 315.297 6.2575C314.677 6.25291 314.698 6.24117 315.419 6.18826C316.226 6.12898 316.202 6.1184 315.065 6.03811C314.392 5.99066 313.56 5.95176 313.217 5.95176C312.874 5.95176 312.594 5.91675 312.594 5.87396C312.594 5.83117 313.718 5.79274 315.093 5.78861L317.592 5.78107L315.962 5.66133C314.195 5.53157 313.874 5.37869 315.12 5.25943C315.553 5.21796 318.095 5.15922 320.77 5.12888C323.444 5.09862 319.145 5.04673 319.145 5.01359C319.145 4.98044 318.607 4.9182 317.95 4.87518C316.949 4.80983 317.268 4.79606 319.905 4.79093C321.694 4.78743 323.057 4.75109 323.057 4.70698C323.057 4.66419 322.654 4.62918 322.162 4.62918C321.67 4.62918 321.382 4.59573 321.524 4.55481C321.665 4.51389 322.068 4.50012 322.419 4.52423C322.769 4.54827 323.057 4.53513 323.057 4.49498C323.057 4.45476 322.127 4.38287 320.992 4.33518C319.24 4.26159 313.424 4.25225 318.959 4.27326L325.479 4.29807L319.828 4.15586C309.941 3.90698 316.606 3.91344 317.841 3.84723C318.846 3.79332 318.856 3.78834 317.975 3.78118C316.65 3.77037 316.314 3.63616 317.508 3.59509C318.056 3.57618 317.69 3.5565 316.682 3.55059C315.686 3.54475 321.294 3.50546 321.214 3.4633C321.134 3.42113 318.82 3.35796 316.071 3.32303C311.175 3.26079 311.11 3.25752 312.906 3.16393C314.077 3.10301 317.126 3.07469 321.327 3.08566C327.408 3.10161 321.473 3.09126 322.042 2.95193C322.583 2.81913 316.823 2.79781 321.585 2.77509C325.903 2.75455 327 2.72693 327 2.63894C327 2.57826 326.83 2.52863 326.622 2.52863C326.011 2.52863 325.082 2.29422 324.252 2.24871C322.682 2.16251 317.091 2.06152 319.502 2.05289C321.975 2.04402 321.983 2.04324 320.263 1.9796C319.307 1.94421 323.448 1.9106 321.535 1.90499C318.129 1.89488 319.999 1.78915 321.286 1.75064C322.513 1.714 318.031 1.60656 315.034 1.6008C312.422 1.59575 311.913 1.57031 311.034 1.40055L310.027 1.20605L311.854 1.19905L313.68 1.19205L312.194 1.11557C311.377 1.07356 310.35 1.05598 309.912 1.07644C309.475 1.0969 309.116 1.08453 309.116 1.0489C309.116 1.01327 308.774 0.968068 308.356 0.948463C307.938 0.928936 308.475 0.904429 309.551 0.89416L311.507 0.87541L309.551 0.816439C303.158 0.623811 257.696 0.51746 243.05 0.66092C238.867 0.70192 233.456 0.736307 231.025 0.737318C227.906 0.738719 226.541 0.767893 226.386 0.836511C226.22 0.90972 226.076 0.911353 225.803 0.842891C225.496 0.766182 216.47 0.67788 215.668 0.743698C214.883 0.808037 100.387 0.799557 92.6631 0.734595C87.5235 0.691339 81.6558 0.642327 79.6238 0.625678C77.5918 0.609029 71.5437 0.577131 66.1841 0.554959C60.8241 0.532709 54.4674 0.492565 52.0582 0.465802C45.0917 0.388315 35.2365 0.380613 34.9883 0.452498ZM255.574 0.403407C255.887 0.425891 256.262 0.423091 256.407 0.397261C256.551 0.371432 256.294 0.353072 255.836 0.356417C255.33 0.360152 255.227 0.37859 255.574 0.403407ZM243.838 0.481206C244.152 0.50369 244.527 0.500889 244.671 0.47506C244.815 0.449231 244.559 0.43087 244.101 0.434216C243.595 0.43795 243.492 0.456388 243.838 0.481206ZM247.315 0.481206C247.629 0.50369 248.004 0.500889 248.148 0.47506C248.293 0.449231 248.036 0.43087 247.578 0.434216C247.072 0.43795 246.969 0.456388 247.315 0.481206ZM107.767 0.638592C108.305 0.657108 109.185 0.657108 109.723 0.638592C110.261 0.619998 109.821 0.604828 108.745 0.604828C107.669 0.604828 107.229 0.619998 107.767 0.638592ZM195.791 0.945896C195.497 0.967212 194.91 0.968535 194.487 0.948774C194.064 0.929014 194.305 0.911587 195.022 0.910031C195.739 0.908475 196.085 0.924579 195.791 0.945896ZM307.26 0.94185C307.116 0.967679 306.741 0.97048 306.427 0.947996C306.08 0.923179 306.183 0.90474 306.69 0.901006C307.148 0.897661 307.404 0.916021 307.26 0.94185ZM242.491 1.08002C242.639 1.10655 241.212 1.13222 239.32 1.13712C237.427 1.14195 230.891 1.16373 224.795 1.18544C218.699 1.20722 197.122 1.25195 176.846 1.28502C156.569 1.31808 138.913 1.36889 137.609 1.39806C135.214 1.45159 132.348 1.38981 132.873 1.29591C133.176 1.24184 137.29 1.22737 160.359 1.1996C169.164 1.18894 174.811 1.15315 174.811 1.10795C174.811 1.06718 175.086 1.05271 175.423 1.07582C176.352 1.13961 190.826 1.1288 201.324 1.05645C211.588 0.985651 242.062 1.00316 242.491 1.08002ZM253.844 1.01164C253.531 1.06757 246.081 1.07434 245.772 1.01895C245.63 0.993509 247.437 0.972659 249.787 0.972659C252.138 0.972659 253.963 0.990163 253.844 1.01164ZM255.537 1.01965C255.393 1.04548 255.018 1.04828 254.704 1.02579C254.358 1.00098 254.461 0.982539 254.967 0.978805C255.425 0.975459 255.682 0.993819 255.537 1.01965ZM222.519 1.10546C223.059 1.12405 223.842 1.12335 224.257 1.1039C224.673 1.08445 224.23 1.06921 223.274 1.07006C222.318 1.07092 221.978 1.08687 222.519 1.10546ZM281.883 1.10881C281.994 1.14086 279.381 1.16715 276.078 1.16715C272.774 1.16715 269.925 1.14086 269.745 1.10881C269.566 1.07675 272.178 1.05046 275.55 1.05046C278.923 1.05046 281.773 1.07675 281.883 1.10881ZM284.124 1.12826C282.937 1.21959 282.603 1.21959 282.603 1.12826C282.603 1.08547 283.141 1.05295 283.798 1.0559C284.858 1.0608 284.894 1.06897 284.124 1.12826ZM204.72 1.18139C205.034 1.20388 205.409 1.20107 205.553 1.17525C205.697 1.14942 205.441 1.13106 204.983 1.1344C204.476 1.13814 204.373 1.15657 204.72 1.18139ZM207.309 1.18466C208.09 1.20193 209.263 1.20162 209.916 1.18388C210.57 1.16607 209.93 1.15191 208.496 1.15237C207.062 1.15276 206.528 1.16731 207.309 1.18466ZM119.57 1.36624C119.257 1.40086 118.824 1.40957 118.608 1.38569C118.392 1.36181 118.471 1.31388 118.783 1.27926C119.096 1.24464 119.529 1.23593 119.745 1.25981C119.961 1.2837 119.882 1.33162 119.57 1.36624ZM127.435 1.30073C127.435 1.33427 126.017 1.35753 124.284 1.35247C121.945 1.34562 121.468 1.32827 122.436 1.28517C124.105 1.2108 127.435 1.22122 127.435 1.30073ZM131.781 1.2469C131.781 1.32999 129.435 1.44396 128.773 1.393C128.231 1.3513 128.315 1.32773 129.173 1.2809C130.501 1.20839 131.781 1.19174 131.781 1.2469ZM117.64 1.36608C117.501 1.40638 115.882 1.4389 114.044 1.43828C112.205 1.43758 110.93 1.41136 111.209 1.37993C111.983 1.29288 117.937 1.28004 117.64 1.36608ZM256.641 1.33489C256.347 1.3562 255.76 1.35753 255.337 1.33777C254.914 1.31801 255.155 1.30058 255.872 1.29902C256.59 1.29747 256.935 1.31357 256.641 1.33489ZM287.058 1.41658C286.521 1.43509 285.64 1.43509 285.102 1.41658C284.565 1.39798 285.004 1.38281 286.08 1.38281C287.156 1.38281 287.596 1.39798 287.058 1.41658ZM17.4695 2.45083C17.4695 2.49362 17.3835 2.52863 17.2779 2.52863C17.1722 2.52863 16.9654 2.49362 16.8176 2.45083C16.6698 2.40804 16.7563 2.37303 17.0092 2.37303C17.2622 2.37303 17.4695 2.40804 17.4695 2.45083ZM5.65285 5.30471C5.96622 5.32719 6.34132 5.32439 6.48563 5.29856C6.62993 5.27273 6.37349 5.25437 5.91537 5.25772C5.40901 5.26145 5.306 5.27989 5.65285 5.30471ZM314.649 6.62113C314.505 6.64696 314.13 6.64976 313.816 6.62728C313.469 6.60246 313.572 6.58402 314.079 6.58029C314.537 6.57694 314.793 6.59531 314.649 6.62113ZM9.21128 6.80754C9.21128 6.85033 9.00395 6.88534 8.75099 6.88534C8.49803 6.88534 8.41154 6.85033 8.55932 6.80754C8.7071 6.76475 8.91399 6.72974 9.01961 6.72974C9.12523 6.72974 9.21128 6.76475 9.21128 6.80754ZM138.536 7.97973C139.004 8.11517 138.471 8.14388 137.875 8.01528C137.532 7.94137 137.499 7.89672 137.788 7.89672C138.041 7.89672 138.379 7.93406 138.536 7.97973ZM166.098 8.17127C166.356 8.14272 166.455 8.08678 166.317 8.04695C166.173 8.00532 167.172 7.97452 168.664 7.97452C170.164 7.97452 171.329 8.01061 171.42 8.05994C171.508 8.10693 172.498 8.16395 173.621 8.18659C176.419 8.24307 175.781 8.36288 172.84 8.33324C171.071 8.31543 170.465 8.33612 170.465 8.41423C170.465 8.54633 168.874 8.55279 168.579 8.42186C168.452 8.36545 168.346 8.38373 168.326 8.46535C168.307 8.54276 168.131 8.58834 167.934 8.56656C167.738 8.54486 167.251 8.59527 166.852 8.67867C166.001 8.85667 163.945 8.88476 163.945 8.7185C163.945 8.63339 163.568 8.61767 162.365 8.65253C161.126 8.68855 160.832 8.67493 160.999 8.58936C161.117 8.5293 161.491 8.48378 161.83 8.48814C162.169 8.4925 162.714 8.44481 163.041 8.38226C163.557 8.28337 163.442 8.27544 162.16 8.32181C161.349 8.35114 160.359 8.39144 159.961 8.41135C159.563 8.43135 159.123 8.41446 158.983 8.37401C158.843 8.33348 159.717 8.27598 160.926 8.24626C162.135 8.21647 163.357 8.14645 163.643 8.09059C164.069 8.00735 164.294 8.01015 164.896 8.10607C165.299 8.17049 165.84 8.19982 166.098 8.17127ZM227.403 8.08242C227.403 8.14629 224.745 8.17842 224.533 8.11712C224.41 8.08149 225.006 8.05231 225.856 8.05231C226.707 8.05231 227.403 8.06585 227.403 8.08242ZM148.036 8.55085C147.662 8.72504 147.115 8.63798 147.246 8.42512C147.409 8.16045 147.42 8.15827 147.877 8.29847C148.109 8.36965 148.18 8.48324 148.036 8.55085ZM178.84 8.25895C178.546 8.28026 177.959 8.28159 177.536 8.26182C177.113 8.24206 177.354 8.22464 178.071 8.22308C178.788 8.22153 179.134 8.23763 178.84 8.25895ZM193.501 8.28968C190.713 8.37844 180.804 8.37557 180.027 8.28571C179.594 8.23568 182.083 8.2132 187.416 8.2188C192.915 8.22472 194.839 8.24704 193.501 8.28968ZM202.52 8.26361C201.862 8.28143 200.787 8.28143 200.129 8.26361C199.472 8.2458 200.01 8.23125 201.324 8.23125C202.639 8.23125 203.177 8.2458 202.52 8.26361ZM206.649 8.25941C206.35 8.28104 205.861 8.28104 205.562 8.25941C205.264 8.23786 205.508 8.2202 206.106 8.2202C206.703 8.2202 206.948 8.23786 206.649 8.25941ZM210.995 8.25941C210.697 8.28104 210.208 8.28104 209.909 8.25941C209.61 8.23786 209.854 8.2202 210.452 8.2202C211.05 8.2202 211.294 8.23786 210.995 8.25941ZM136.997 8.32375C136.997 8.43703 135.377 8.67431 134.619 8.67213C133.771 8.66964 133.775 8.66381 134.732 8.52113L135.726 8.37277L133.862 8.34281C132.226 8.31652 132.303 8.31123 134.498 8.29932C135.873 8.29186 136.997 8.30282 136.997 8.32375ZM139.052 8.3327C138.908 8.35853 138.533 8.36133 138.22 8.33885C137.873 8.31403 137.976 8.29559 138.482 8.29185C138.94 8.28851 139.197 8.30687 139.052 8.3327ZM165.684 8.36351C165.684 8.4063 165.891 8.44131 166.144 8.44131C166.397 8.44131 166.483 8.4063 166.335 8.36351C166.188 8.32072 165.981 8.28571 165.875 8.28571C165.77 8.28571 165.684 8.32072 165.684 8.36351ZM301.61 8.3327C301.465 8.35853 301.09 8.36133 300.777 8.33885C300.43 8.31403 300.533 8.29559 301.039 8.29185C301.497 8.28851 301.754 8.30687 301.61 8.3327ZM304.879 8.33721C304.58 8.35884 304.091 8.35884 303.792 8.33721C303.493 8.31566 303.738 8.298 304.335 8.298C304.933 8.298 305.178 8.31566 304.879 8.33721ZM118.189 8.4105C118.045 8.43633 117.67 8.43913 117.357 8.41664C117.01 8.39183 117.113 8.37339 117.619 8.36965C118.077 8.36631 118.334 8.38467 118.189 8.4105ZM130.378 8.45593C130.283 8.50673 129.946 8.56376 129.629 8.58267C129.305 8.60204 129.177 8.58111 129.337 8.53474C129.496 8.48853 129.189 8.43757 128.637 8.41859C127.935 8.39447 128.069 8.38163 129.101 8.37409C130.046 8.36716 130.49 8.39564 130.378 8.45593ZM144.169 8.5191C144.01 8.60834 144.09 8.6747 144.357 8.6747C144.612 8.6747 144.821 8.70388 144.821 8.73951C144.821 8.84057 143.053 8.79225 142.668 8.68061C142.401 8.60336 142.113 8.60103 141.39 8.67027C140.876 8.71943 140.245 8.73632 139.986 8.70769C139.464 8.64996 142.398 8.37984 143.654 8.36981C144.252 8.36506 144.377 8.40139 144.169 8.5191ZM226.316 8.44131C226.464 8.48409 226.378 8.5191 226.125 8.5191C225.872 8.5191 225.665 8.48409 225.665 8.44131C225.665 8.39852 225.751 8.36351 225.856 8.36351C225.962 8.36351 226.169 8.39852 226.316 8.44131ZM230.446 8.39782C230.446 8.41672 230.25 8.45375 230.011 8.4802C229.772 8.50666 229.576 8.49117 229.576 8.4459C229.576 8.40062 229.772 8.36351 230.011 8.36351C230.25 8.36351 230.446 8.37891 230.446 8.39782ZM294.021 8.41454C293.726 8.43586 293.14 8.43718 292.717 8.41742C292.294 8.39766 292.535 8.38023 293.252 8.37868C293.969 8.37712 294.315 8.39323 294.021 8.41454ZM296.394 8.4105C296.25 8.43633 295.874 8.43913 295.561 8.41664C295.214 8.39183 295.317 8.37339 295.824 8.36965C296.282 8.36631 296.538 8.38467 296.394 8.4105ZM124.61 8.5191C124.757 8.56189 124.671 8.5969 124.418 8.5969C124.165 8.5969 123.958 8.56189 123.958 8.5191C123.958 8.47631 124.044 8.44131 124.149 8.44131C124.255 8.44131 124.462 8.47631 124.61 8.5191ZM175.997 8.4883C175.853 8.51413 175.478 8.51693 175.164 8.49444C174.818 8.46962 174.921 8.45119 175.427 8.44745C175.885 8.44411 176.142 8.46247 175.997 8.4883ZM178.17 8.4883C178.026 8.51413 177.651 8.51693 177.338 8.49444C176.991 8.46962 177.094 8.45119 177.6 8.44745C178.058 8.44411 178.315 8.46247 178.17 8.4883ZM182.2 8.558C182.2 8.62219 182.396 8.6747 182.635 8.6747C182.874 8.6747 183.069 8.63098 183.068 8.57745C183.068 8.50526 184.022 8.48674 186.769 8.50541C189.007 8.52066 190.367 8.56034 190.21 8.60585C190.068 8.64716 189.606 8.6614 189.183 8.63743C188.762 8.61347 187.849 8.64693 187.156 8.71166C186.039 8.81591 185.878 8.81606 185.754 8.71313C185.597 8.58321 183.704 8.55372 183.287 8.6747C182.995 8.75911 181.203 8.78152 180.781 8.70598C180.358 8.63028 180.939 8.44131 181.595 8.44131C181.928 8.44131 182.2 8.49382 182.2 8.558ZM222.187 8.558C221.729 8.65681 221.825 8.6747 222.812 8.6747C223.478 8.6747 223.862 8.708 223.709 8.7525C223.561 8.79529 223.028 8.8303 222.524 8.8303C222.02 8.8303 221.748 8.85535 221.918 8.88592C222.09 8.9165 223.813 8.93074 225.747 8.91767C228.89 8.89635 229.236 8.90771 228.986 9.02417C228.802 9.10991 228.893 9.14227 229.25 9.11885C229.549 9.09917 229.745 9.04378 229.685 8.99562C229.625 8.94746 230.077 8.9081 230.689 8.9081C231.319 8.9081 231.685 8.94178 231.532 8.98589C231.384 9.02868 231.471 9.06369 231.724 9.06369C231.977 9.06369 232.184 9.02868 232.184 8.98589C232.184 8.85644 233.81 8.89876 234.104 9.03592C234.254 9.10625 234.313 9.17549 234.233 9.1898C234.153 9.20404 232.16 9.22528 229.804 9.23695C226.677 9.25243 225.472 9.23197 225.339 9.16094C225.239 9.10749 224.771 9.06369 224.299 9.06369C223.826 9.06369 223.561 9.0987 223.709 9.14149C223.866 9.18685 223.424 9.21929 222.648 9.21929C221.917 9.21929 221.318 9.18428 221.318 9.14149C221.318 9.0987 220.594 9.06369 219.71 9.06369C217.952 9.06369 218.176 8.93929 220.014 8.89526C220.831 8.87566 221.135 8.81614 221.238 8.65525C221.322 8.52408 221.638 8.44131 222.052 8.44131C222.604 8.44131 222.629 8.46278 222.187 8.558ZM265.435 8.62071C265.913 8.64304 265.375 8.65774 264.239 8.65346C263.104 8.64918 262.175 8.6148 262.175 8.57714C262.175 8.53941 262.59 8.53225 263.098 8.56111C263.805 8.60118 263.939 8.58873 263.667 8.50798C263.388 8.42497 263.446 8.42139 263.939 8.49125C264.283 8.54019 264.956 8.59838 265.435 8.62071ZM211.104 8.5969C210.956 8.63969 210.651 8.6747 210.426 8.6747C210.201 8.6747 210.017 8.63969 210.017 8.5969C210.017 8.55411 210.322 8.5191 210.695 8.5191C211.067 8.5191 211.252 8.55411 211.104 8.5969ZM164.814 8.6747C165.657 8.77218 166.118 8.77218 166.118 8.6747C166.118 8.63191 165.678 8.59745 165.14 8.59807C164.35 8.59908 164.287 8.61371 164.814 8.6747ZM205.671 8.70847C205.671 8.77164 206.189 8.83185 206.866 8.84733C207.825 8.86927 207.707 8.88203 206.269 8.91199C204.634 8.94598 204.476 8.93369 204.476 8.77312C204.476 8.67548 204.742 8.5969 205.073 8.5969C205.402 8.5969 205.671 8.64708 205.671 8.70847ZM219.145 8.66311C219.145 8.70216 218.359 8.73608 217.398 8.7385C216.436 8.74083 215.738 8.71726 215.845 8.68614C216.138 8.60165 219.145 8.58064 219.145 8.66311ZM83.7529 8.7525C83.9007 8.79529 83.7164 8.8303 83.3439 8.8303C82.9714 8.8303 82.6663 8.79529 82.6663 8.7525C82.6663 8.70971 82.8502 8.6747 83.0753 8.6747C83.3005 8.6747 83.6051 8.70971 83.7529 8.7525ZM170.03 8.75709C170.03 8.80237 169.813 8.81544 169.547 8.78603C169.281 8.75662 168.893 8.78082 168.684 8.83979C168.384 8.92459 168.303 8.91852 168.298 8.81085C168.294 8.7262 168.62 8.6747 169.161 8.6747C169.639 8.6747 170.03 8.71181 170.03 8.75709ZM176.115 8.73305C176.115 8.7651 175.645 8.7914 175.07 8.7914C174.495 8.7914 174.116 8.7651 174.226 8.73305C174.337 8.701 174.807 8.6747 175.271 8.6747C175.736 8.6747 176.115 8.701 176.115 8.73305ZM258.915 8.7525C258.767 8.79529 258.218 8.82781 257.694 8.82485C256.776 8.81956 256.773 8.81699 257.611 8.7525C258.807 8.66046 259.233 8.66046 258.915 8.7525ZM290.861 8.7525C290.861 8.79529 291.302 8.83084 291.839 8.83146C292.377 8.83216 293.111 8.86663 293.469 8.9081C293.95 8.96372 293.608 8.98784 292.165 8.9999C291.089 9.00892 289.525 9.03016 288.688 9.04704C287.851 9.064 280.419 9.08812 272.172 9.10065C263.924 9.11317 258.35 9.0973 259.784 9.06533C261.219 9.03343 263.37 8.98551 264.565 8.9589C269.158 8.85675 274.728 8.83014 275 8.90895C275.151 8.95267 275.475 8.96621 275.72 8.93906C275.966 8.91199 276.623 8.93354 277.182 8.98706C277.741 9.04059 278.553 9.05895 278.988 9.02783C279.422 8.99671 281.183 8.96512 282.901 8.95765C284.619 8.95018 286.152 8.92117 286.308 8.89316C286.464 8.86523 287.259 8.86173 288.075 8.88538C289.254 8.91961 289.557 8.90249 289.557 8.80159C289.557 8.7318 289.851 8.6747 290.209 8.6747C290.568 8.6747 290.861 8.70971 290.861 8.7525ZM303.647 8.77195C303.85 8.84975 303.952 8.84975 304.154 8.77195C304.427 8.66739 308.055 8.63409 308.397 8.73305C308.508 8.7651 307.737 8.77911 306.685 8.76409C305.489 8.74705 304.77 8.76899 304.77 8.82244C304.77 8.95221 302.726 8.92498 302.439 8.7914C302.135 8.64949 303.28 8.63106 303.647 8.77195ZM202.846 8.8303C202.698 8.87309 202.051 8.90561 201.407 8.90265C200.363 8.89775 200.331 8.88997 201.107 8.8303C202.315 8.73741 203.166 8.73741 202.846 8.8303ZM243.702 8.8303C243.555 8.87309 243.837 8.9081 244.329 8.9081C244.821 8.9081 245.224 8.87309 245.224 8.8303C245.224 8.73842 246.066 8.75919 246.781 8.86873C247.438 8.96917 245.206 9.14647 243.997 9.08991C243.531 9.06805 243.017 9.0882 242.856 9.13472C242.696 9.18125 242.271 9.21929 241.912 9.21929C241.554 9.21929 241.391 9.18156 241.55 9.1355C241.75 9.07746 241.224 9.0682 239.837 9.10539C238.622 9.13799 237.835 9.12935 237.835 9.08338C237.835 9.04175 238.956 8.98691 240.327 8.96162C241.698 8.93634 242.887 8.87892 242.971 8.83403C243.054 8.78922 243.314 8.7525 243.547 8.7525C243.78 8.7525 243.85 8.78751 243.702 8.8303ZM256.129 8.82423C255.793 8.86243 254.941 8.88063 254.238 8.86469C253.252 8.84236 252.907 8.87083 252.735 8.98862C252.612 9.07272 252.344 9.14149 252.141 9.14149C251.672 9.14149 252.177 8.88818 252.798 8.81201C253.055 8.78058 254.047 8.75491 255.003 8.75491C256.189 8.75491 256.547 8.77693 256.129 8.82423ZM103.095 8.89899C103.095 8.99165 101.414 9.06564 101.137 8.98527C101.015 8.95011 101.162 8.90366 101.462 8.88196C102.352 8.81769 103.095 8.82547 103.095 8.89899ZM108.745 8.9081C108.745 8.95089 108.561 8.98589 108.336 8.98589C108.111 8.98589 107.806 8.95089 107.658 8.9081C107.511 8.86531 107.695 8.8303 108.067 8.8303C108.44 8.8303 108.745 8.86531 108.745 8.9081ZM116.569 8.89962C116.569 9.01725 113.395 9.0423 112.234 8.93385C111.217 8.83885 111.337 8.83123 113.852 8.83076C115.346 8.83053 116.569 8.8615 116.569 8.89962ZM117.905 8.92949C117.851 9.02254 117.255 9.00449 117.068 8.90421C116.973 8.85286 117.129 8.82485 117.416 8.84197C117.703 8.85908 117.923 8.89845 117.905 8.92949ZM121.754 9.17456C121.77 9.21416 121.422 9.17915 120.979 9.09676C120.432 8.99523 120.327 8.9291 120.653 8.89153C121.088 8.84111 121.677 8.99243 121.754 9.17456ZM125.443 8.87752C126.328 8.93828 126.335 9.06369 125.453 9.06369C125.081 9.06369 124.889 9.0966 125.028 9.13675C125.167 9.17697 124.886 9.20459 124.404 9.19805C123.503 9.18591 123.362 8.99671 124.175 8.88981C124.707 8.81979 124.616 8.82065 125.443 8.87752ZM296.077 8.9081C296.077 8.95089 295.735 8.98535 295.316 8.98473C294.666 8.98372 294.651 8.97251 295.208 8.9081C296.028 8.81318 296.077 8.81318 296.077 8.9081ZM129.842 9.02923C128.73 9.11092 128.671 9.12904 129.408 9.1625C130.097 9.19385 130.051 9.20295 129.169 9.21027C128.54 9.21548 127.868 9.15892 127.581 9.07669C127.125 8.94598 127.253 8.93408 129.106 8.93439C131.111 8.9347 131.117 8.93556 129.842 9.02923ZM135.817 9.11893C135.992 9.28293 135.889 9.30394 135.096 9.26581C134.588 9.24139 133.389 9.21983 132.433 9.21797C131.026 9.21524 130.841 9.19922 131.464 9.13433C131.888 9.09022 132.125 9.02254 131.992 8.98387C131.858 8.94528 132.618 8.91681 133.681 8.92062C135.374 8.92669 135.638 8.9512 135.817 9.11893ZM148.589 9.10749C149.04 9.21797 149.287 9.22901 149.69 9.15674C150.414 9.02721 151.34 9.04043 151.34 9.18039C151.34 9.27134 150.788 9.29577 148.841 9.29094C147.466 9.2876 146.587 9.26714 146.885 9.24559C148.163 9.15324 147.253 9.06369 145.038 9.06369C142.452 9.06369 141.757 9.18965 144.06 9.24084C144.938 9.26029 144.537 9.27686 142.999 9.28464C141.611 9.29164 140.397 9.25998 140.233 9.21252C140.023 9.1516 139.809 9.1516 139.469 9.21252C139.209 9.25904 138.703 9.29709 138.344 9.29709C137.862 9.29709 137.82 9.27429 138.18 9.2098C138.448 9.1618 138.559 9.07202 138.427 9.01025C138.224 8.91533 138.945 8.90319 143.097 8.93159C147.217 8.95975 148.101 8.988 148.589 9.10749ZM158.292 9.08314C158.296 9.17004 155.346 9.15378 155.04 9.06517C154.881 9.01919 155.473 8.99601 156.533 9.00682C157.5 9.0167 158.291 9.05109 158.292 9.08314ZM173.942 9.0591C173.942 9.0994 173.747 9.15386 173.508 9.18023C172.75 9.2641 161.009 9.22559 160.033 9.13604C159.537 9.09053 164.921 9.0104 169.269 8.99858C171.949 8.99134 173.942 9.01709 173.942 9.0591ZM193.003 9.10423C193.461 9.18622 192.638 9.214 188.585 9.25344C184.428 9.29398 180.027 9.19486 180.027 9.06074C180.027 8.99235 192.614 9.0346 193.003 9.10423ZM208.496 9.13869C205.692 9.1835 203.584 9.15052 204.282 9.07272C204.519 9.04634 206.15 9.04105 207.908 9.06089L211.104 9.09699L208.496 9.13869ZM216.102 9.06369C216.102 9.10648 216.016 9.14149 215.911 9.14149C215.805 9.14149 215.598 9.10648 215.45 9.06369C215.303 9.0209 215.389 8.98589 215.642 8.98589C215.895 8.98589 216.102 9.0209 216.102 9.06369ZM225.882 9.06369C225.734 9.10648 225.918 9.14149 226.291 9.14149C226.663 9.14149 226.968 9.10648 226.968 9.06369C226.968 9.0209 226.785 8.98589 226.559 8.98589C226.334 8.98589 226.03 9.0209 225.882 9.06369ZM315.989 9.03903C316.303 9.06151 316.678 9.05871 316.822 9.03288C316.967 9.00706 316.71 8.98869 316.252 8.99204C315.746 8.99577 315.643 9.01421 315.989 9.03903ZM214.172 9.13418C214.038 9.17292 213.537 9.18638 213.059 9.16397C211.863 9.10804 211.971 9.06369 213.303 9.06369C213.914 9.06369 214.306 9.09544 214.172 9.13418ZM236.639 9.1152C236.341 9.13682 235.852 9.13682 235.553 9.1152C235.254 9.09365 235.498 9.07598 236.096 9.07598C236.694 9.07598 236.938 9.09365 236.639 9.1152ZM256.633 9.1152C256.334 9.13682 255.845 9.13682 255.546 9.1152C255.248 9.09365 255.492 9.07598 256.09 9.07598C256.687 9.07598 256.932 9.09365 256.633 9.1152ZM312.811 9.45268C312.959 9.49547 313.166 9.53048 313.271 9.53048C313.377 9.53048 313.463 9.49547 313.463 9.45268C313.463 9.4099 313.255 9.37489 313.003 9.37489C312.75 9.37489 312.663 9.4099 312.811 9.45268ZM317.76 9.42802C318.073 9.45051 318.448 9.44771 318.592 9.42188C318.737 9.39605 318.48 9.37769 318.022 9.38103C317.516 9.38477 317.413 9.4032 317.76 9.42802ZM146.558 10.4057C146.559 10.4378 142.598 10.4575 137.758 10.4496C131.665 10.4396 130.093 10.4216 132.65 10.3912C137.958 10.3282 146.557 10.3372 146.558 10.4057ZM150.906 10.4343C150.906 10.4506 149.977 10.4599 148.841 10.4549C147.066 10.4469 146.959 10.4382 148.08 10.3926C149.299 10.3431 150.906 10.3668 150.906 10.4343ZM128.413 10.4378C128.114 10.4594 127.625 10.4594 127.326 10.4378C127.027 10.4162 127.272 10.3986 127.869 10.3986C128.467 10.3986 128.712 10.4162 128.413 10.4378ZM89.076 10.6036C89.3772 10.6391 87.5939 10.6702 85.0608 10.6735C82.5542 10.6768 80.5822 10.6568 80.6787 10.6288C80.9421 10.5526 88.451 10.5301 89.076 10.6036ZM287.737 10.6728C288.051 10.6953 288.426 10.6925 288.57 10.6667C288.715 10.6408 288.458 10.6225 288 10.6258C287.494 10.6295 287.391 10.648 287.737 10.6728ZM255.972 10.7444C255.828 10.7703 255.452 10.7731 255.139 10.7506C254.792 10.7258 254.895 10.7073 255.402 10.7036C255.86 10.7003 256.116 10.7186 255.972 10.7444ZM104.918 10.9111C107.475 10.9248 111.778 10.9249 114.48 10.9112C117.183 10.8975 115.091 10.8863 109.832 10.8862C104.572 10.8861 102.361 10.8973 104.918 10.9111ZM143.872 10.9478C144.104 10.9893 144.657 11.0095 145.1 10.9926C145.698 10.97 145.589 10.9504 144.679 10.9172C143.886 10.8882 143.6 10.8991 143.872 10.9478ZM278.61 10.9062C278.923 10.9287 279.298 10.9259 279.443 10.9C279.587 10.8742 279.331 10.8559 278.872 10.8592C278.366 10.8629 278.263 10.8814 278.61 10.9062ZM147.325 10.9859C147.866 11.0045 148.648 11.0038 149.064 10.9843C149.479 10.9649 149.037 10.9496 148.08 10.9505C147.124 10.9513 146.784 10.9673 147.325 10.9859ZM153.41 10.9859C153.951 11.0045 154.733 11.0038 155.149 10.9843C155.564 10.9649 155.122 10.9496 154.165 10.9505C153.209 10.9513 152.869 10.9673 153.41 10.9859ZM166.887 10.9873C167.668 11.0045 168.841 11.0042 169.494 10.9865C170.148 10.9687 169.508 10.9545 168.074 10.955C166.64 10.9554 166.106 10.9699 166.887 10.9873ZM173.187 10.9867C173.848 11.0045 174.826 11.0041 175.36 10.9856C175.895 10.9672 175.354 10.9526 174.159 10.9531C172.964 10.9537 172.527 10.9688 173.187 10.9867ZM230.12 10.9845C230.538 11.0041 231.223 11.0041 231.641 10.9845C232.059 10.9649 231.717 10.9489 230.88 10.9489C230.044 10.9489 229.702 10.9649 230.12 10.9845ZM237.291 10.9824C237.59 11.004 238.079 11.004 238.378 10.9824C238.677 10.9608 238.432 10.9431 237.835 10.9431C237.237 10.9431 236.993 10.9608 237.291 10.9824Z" fill="#F1CA16"/>
</svg>
