<svg width="504" height="11" viewBox="0 0 504 11" fill="none" xmlns="http://www.w3.org/2000/svg">
<path fill-rule="evenodd" clip-rule="evenodd" d="M377.959 0.0421896C372.617 0.072531 367.944 0.10824 367.576 0.121622C367.207 0.134925 369.468 0.167834 372.6 0.194674C378.278 0.243376 378.269 0.243532 369.585 0.267494C364.795 0.28072 357.711 0.319074 353.842 0.352683C348.975 0.395005 351.453 0.402707 361.881 0.377656C385.715 0.320474 410.189 0.269906 413.337 0.271228C415.093 0.272006 416.061 0.241976 415.809 0.194674C415.537 0.143561 421.398 0.116876 432.892 0.116876C445.312 0.116876 450.258 0.141382 449.939 0.201365C449.656 0.254579 450.075 0.279163 451.072 0.267649C451.942 0.257535 453.107 0.270061 453.659 0.295501C454.212 0.320864 459.186 0.379057 464.713 0.424802C470.24 0.470548 475.892 0.538854 477.274 0.576587C478.656 0.614241 479.786 0.616108 479.786 0.58071C479.786 0.492331 478.012 0.440906 467.727 0.230928C466.438 0.204633 464.026 0.146906 462.368 0.102717C458.796 0.00749152 392.465 -0.0400433 377.959 0.0421896ZM173.971 0.124111C170.823 0.167445 170.913 0.170946 175.478 0.18246C180.287 0.194519 181.74 0.16161 178.828 0.106529C177.999 0.0908136 175.813 0.0987489 173.971 0.124111ZM166.602 0.162388C165.865 0.175692 162.625 0.209067 159.401 0.23653C156.177 0.263993 153.539 0.312228 153.539 0.343814C153.539 0.375322 154.518 0.387225 155.716 0.370188C157.385 0.346459 157.659 0.358362 156.888 0.421379C156.125 0.483773 156.607 0.501589 158.898 0.495443C161.647 0.48813 161.736 0.482217 159.903 0.42807L157.893 0.368709L160.35 0.359451C161.7 0.354394 162.906 0.381468 163.029 0.419667C163.156 0.459111 165.708 0.463935 168.947 0.430793C175.089 0.368087 174.982 0.338135 168.612 0.336501C166.401 0.335879 165.346 0.318296 166.267 0.297368C167.85 0.261425 169.992 0.103962 168.578 0.127457C168.229 0.133292 167.339 0.149007 166.602 0.162388ZM397.582 0.174369C395.295 0.18954 391.376 0.189618 388.873 0.174602C386.371 0.159665 388.242 0.147217 393.032 0.14714C397.822 0.146984 399.869 0.159276 397.582 0.174369ZM406.933 0.168378C406.473 0.190006 405.719 0.190006 405.258 0.168378C404.798 0.146828 405.174 0.129168 406.096 0.129168C407.017 0.129168 407.394 0.146828 406.933 0.168378ZM457.846 0.246177C457.386 0.267805 456.632 0.267805 456.171 0.246177C455.711 0.224627 456.088 0.206967 457.009 0.206967C457.93 0.206967 458.307 0.224627 457.846 0.246177ZM462.548 0.24571C462.095 0.267027 461.19 0.26835 460.539 0.248589C459.887 0.228828 460.258 0.211401 461.363 0.209845C462.469 0.208289 463.002 0.224393 462.548 0.24571ZM175.813 0.326076C176.458 0.345681 177.514 0.345681 178.158 0.326076C178.803 0.306548 178.275 0.290522 176.986 0.290522C175.696 0.290522 175.169 0.306548 175.813 0.326076ZM182.178 0.323975C182.638 0.345603 183.392 0.345603 183.852 0.323975C184.313 0.302425 183.936 0.284765 183.015 0.284765C182.094 0.284765 181.717 0.302425 182.178 0.323975ZM53.927 0.452498C53.7341 0.488752 50.2177 0.511236 46.1125 0.502445C38.6637 0.486652 25.6172 0.601171 23.4212 0.701686C22.6863 0.735295 22.3132 0.826475 22.4016 0.950719C22.5523 1.16218 22.6562 1.16972 26.4231 1.24239C29.506 1.3019 29.7546 1.42778 26.7581 1.41199C24.7631 1.40148 24.5969 1.41844 24.7738 1.6145C24.9426 1.80183 24.7342 1.8286 23.099 1.82961C20.7563 1.83116 19.931 1.90033 19.7461 2.11069C19.6262 2.24754 20.0609 2.28473 22.2583 2.32549C25.8148 2.39155 25.6226 2.49914 21.8597 2.54839C18.8873 2.58729 15.1913 2.86752 15.8988 3.0004C16.0743 3.03346 15.3133 3.08364 14.2073 3.11188C12.4688 3.15623 12.3255 3.17817 13.1488 3.27378C13.6727 3.33462 14.5 3.38495 14.987 3.38558C15.6543 3.38651 15.6308 3.40448 14.8919 3.45878C14.2052 3.5092 14.9884 3.53791 17.5106 3.55479C21.0658 3.57859 21.1094 3.58186 21.1697 3.83175C21.2038 3.97085 21.0048 4.08459 20.7288 4.08459C20.4528 4.08459 20.2264 4.15461 20.2264 4.24019C20.2264 4.35549 19.7494 4.39851 18.3842 4.40637C16.7784 4.41563 16.7375 4.42131 18.0666 4.45095C20.0087 4.4942 23.5411 4.70589 22.3319 4.70651C21.8208 4.70675 21.5837 4.75553 21.79 4.818C22.3353 4.98301 21.0089 5.07201 16.6002 5.1663C12.6557 5.25064 10.9562 5.32937 13.0805 5.32937C13.6948 5.32937 14.1972 5.38188 14.1972 5.44607C14.1972 5.53686 13.3042 5.56276 10.1777 5.56276C5.84341 5.56276 4.49555 5.71136 8.67044 5.72894C10.2253 5.73548 10.6085 5.75236 9.6753 5.77329C8.84595 5.7918 8.168 5.83716 8.168 5.87411C8.168 5.91107 7.56039 5.96366 6.81813 5.99104C6.07587 6.01835 5.63506 6.07195 5.83738 6.11C6.04036 6.14812 5.2157 6.21246 4.00517 6.25299C2.10329 6.31671 2.48715 6.32799 6.82818 6.33608C11.9872 6.34573 12.1788 6.42765 7.28171 6.52988C5.11053 6.57515 4.84591 6.60098 5.54731 6.69909C6.2132 6.79229 6.48719 6.79517 6.94943 6.71395C7.39559 6.63545 7.74729 6.64712 8.52975 6.76631C9.45222 6.90673 9.40868 6.92595 8.01459 6.99597C6.71228 7.06132 7.02446 7.07843 10.1777 7.115C13.4844 7.15327 13.7162 7.16736 12.4387 7.25239C11.6562 7.30451 9.69674 7.37049 8.08426 7.39896C3.07265 7.4875 2.78392 7.58023 7.49809 7.58731L11.8525 7.59377L6.15827 7.84249L0.464017 8.09121L3.81358 8.13011L7.16313 8.16901L3.21602 8.27427C0.457989 8.34787 -0.449741 8.40023 0.201413 8.44815C0.714565 8.48588 1.73685 8.51972 2.47375 8.52338C3.8042 8.52999 3.8042 8.53046 2.48581 8.59029C1.52248 8.63393 2.35049 8.66894 5.50042 8.71772C9.43481 8.77856 9.59089 8.78751 7.16313 8.81279C5.68933 8.82812 4.19744 8.8734 3.84707 8.91331C3.4525 8.95827 6.25273 8.98823 11.2161 8.99204C17.3987 8.99678 18.8022 9.016 17.3793 9.07629C16.3114 9.12165 15.537 9.21268 15.537 9.29296C15.537 9.4053 14.366 9.45914 9.34906 9.57739C5.9459 9.6576 3.72916 9.73595 4.42252 9.75143C5.43141 9.77399 5.4964 9.79336 4.74811 9.84837C4.06078 9.89894 4.25639 9.91769 5.48836 9.91947C6.40948 9.9208 7.60662 9.95448 8.14924 9.99432C9.24522 10.0748 8.96051 10.0944 5.39457 10.1846C4.42186 10.2092 3.46254 10.2789 3.26224 10.3396C2.95676 10.4319 4.11437 10.444 10.3901 10.414C15.9269 10.3875 17.6198 10.4004 16.8769 10.4634C16.0294 10.5354 16.0823 10.5468 17.2118 10.5364C19.4507 10.5156 19.941 10.5405 18.8866 10.6214C18.2033 10.6738 19.1673 10.6807 21.9012 10.6428C26.9054 10.5735 26.6495 10.5727 37.9791 10.6929C44.922 10.7665 55.1 10.7784 77.1689 10.7392C95.4876 10.7065 112.661 10.7177 121.718 10.7681C151.566 10.9345 154.535 10.9462 154.108 10.895C153.869 10.8663 150.553 10.8238 146.739 10.8006C142.926 10.7775 139.519 10.7273 139.169 10.6891C138.297 10.594 195.982 10.6014 216.326 10.699C227.996 10.755 316.142 10.8646 346.808 10.8613C353.65 10.8605 383.49 10.7622 384.859 10.7359C385.989 10.7141 386.573 10.7302 386.327 10.7764C386.103 10.8186 386.221 10.8531 386.589 10.8531C386.957 10.8531 387.445 10.818 387.673 10.7753C388.216 10.6733 390.688 10.6744 390.688 10.7767C390.688 10.8646 406.513 10.8699 418.07 10.7858C423.361 10.7472 425.097 10.7585 425.343 10.833C425.521 10.8868 426.104 10.9309 426.639 10.9309C427.174 10.9309 427.426 10.8958 427.198 10.8531C426.97 10.8103 427.329 10.7693 427.996 10.762C428.662 10.7546 429.66 10.7409 430.212 10.7313C430.765 10.7218 432.875 10.7098 434.902 10.7045C437.147 10.6988 438.243 10.6698 437.707 10.6304C436.838 10.5664 441.59 10.5068 454.999 10.4137C461.74 10.367 464.79 10.2392 459.655 10.2188C458.016 10.2123 456.372 10.1988 456.004 10.1889C455.635 10.1789 452.47 10.162 448.97 10.1512L442.606 10.1316L446.96 10.071C449.355 10.0377 454.278 9.99953 457.9 9.98623C461.523 9.97284 464.63 9.93488 464.807 9.90181C464.983 9.86875 465.73 9.84168 466.467 9.84168C467.204 9.84168 467.644 9.81126 467.447 9.77399C467.246 9.73641 465.814 9.73494 464.225 9.77065C461.018 9.84269 457.961 9.86081 458.442 9.80495C459.087 9.72996 472.966 9.45222 473.927 9.49501C474.488 9.51998 475.098 9.48645 475.324 9.41822C475.608 9.33225 476.75 9.29343 479.263 9.28441L482.8 9.27172L479.116 9.22582C476.217 9.18965 475.816 9.16996 477.235 9.13348C478.227 9.10788 480.488 9.11302 482.259 9.14476C484.03 9.1765 485.548 9.1954 485.632 9.18677C485.716 9.17805 485.304 9.09139 484.717 8.99406C484.01 8.8769 483.425 8.84329 482.985 8.89448C482.543 8.94575 481.609 8.94443 480.215 8.89043C476.472 8.74565 477.063 8.71305 482.918 8.74145C487.002 8.76121 488.53 8.74433 488.205 8.6831C487.922 8.63004 488.341 8.59418 489.293 8.5899C490.67 8.58368 484.087 8.42831 478.781 8.3418C477.676 8.32375 479.032 8.30321 481.796 8.29621C484.559 8.28913 487.272 8.24938 487.825 8.20791C488.658 8.14536 488.601 8.13206 487.49 8.13011C486.753 8.12879 485.698 8.09074 485.145 8.04554C484.41 7.98548 484.995 7.97662 487.32 8.01264C491.478 8.0769 492.357 8.00898 490.438 7.77185C489.589 7.66682 489.292 7.58552 489.757 7.58552C490.212 7.58552 490.397 7.55051 490.169 7.50772C489.942 7.46493 488.492 7.42938 486.948 7.42876C485.404 7.42806 483.688 7.39103 483.135 7.34637C482.413 7.28802 483.117 7.27946 485.648 7.31603C489.226 7.36761 490.58 7.26398 487.657 7.16214C486.187 7.11095 486.183 7.10784 487.49 7.03494C488.552 6.97582 488.339 6.96703 486.467 6.99285C483.77 7.03012 480.938 6.86239 482.835 6.77782C483.429 6.75137 484.456 6.72974 485.118 6.72974C485.779 6.72974 486.696 6.67723 487.155 6.61304C487.81 6.5214 487.812 6.49634 487.165 6.49634C486.708 6.49634 486.513 6.44438 486.727 6.37965C486.975 6.30465 486.701 6.261 485.962 6.2575C485.006 6.25291 485.039 6.24117 486.15 6.18826C487.395 6.12898 487.357 6.1184 485.604 6.03811C484.567 5.99065 483.285 5.95176 482.757 5.95176C482.228 5.95176 481.796 5.91675 481.796 5.87396C481.796 5.83117 483.529 5.79274 485.648 5.78861L489.5 5.78107L486.987 5.66133C484.264 5.53157 483.77 5.37869 485.689 5.25943C486.356 5.21796 490.275 5.15922 494.398 5.12888C498.52 5.09862 491.893 5.04673 491.893 5.01359C491.893 4.98044 491.064 4.9182 490.051 4.87518C488.508 4.80983 489 4.79606 493.065 4.79093C495.821 4.78743 497.922 4.75109 497.922 4.70698C497.922 4.66419 497.301 4.62918 496.543 4.62918C495.784 4.62918 495.342 4.59573 495.559 4.55481C495.777 4.51389 496.398 4.50012 496.939 4.52423C497.479 4.54827 497.922 4.53512 497.922 4.49498C497.922 4.45476 496.49 4.38287 494.74 4.33518C492.039 4.26159 483.076 4.25225 491.607 4.27326L501.655 4.29807L492.946 4.15586C477.707 3.90698 487.98 3.91344 489.883 3.84723C491.433 3.79332 491.448 3.78834 490.09 3.78118C488.048 3.77037 487.529 3.63616 489.371 3.59509C490.215 3.57618 489.65 3.5565 488.096 3.55059C486.562 3.54475 495.205 3.50546 495.082 3.4633C494.959 3.42113 491.392 3.35796 487.155 3.32303C479.609 3.26079 479.509 3.25752 482.278 3.16393C484.082 3.10301 488.781 3.07469 495.257 3.08566C504.628 3.10161 495.482 3.09126 496.358 2.95193C497.193 2.81913 488.315 2.79781 495.654 2.77509C502.308 2.75455 504 2.72693 504 2.63894C504 2.57826 503.738 2.52863 503.418 2.52863C502.476 2.52863 501.044 2.29422 499.764 2.24871C497.344 2.16251 488.727 2.06152 492.444 2.05289C496.255 2.04402 496.267 2.04324 493.616 1.9796C492.143 1.9442 498.525 1.9106 495.577 1.90499C490.328 1.89488 493.209 1.78915 495.194 1.75064C497.084 1.714 490.175 1.60656 485.557 1.6008C481.532 1.59575 480.746 1.57031 479.392 1.40055L477.84 1.20605L480.655 1.19905L483.47 1.19205L481.18 1.11557C479.92 1.07356 478.337 1.05598 477.663 1.07644C476.988 1.0969 476.436 1.08453 476.436 1.0489C476.436 1.01327 475.908 0.968068 475.264 0.948463C474.619 0.928936 475.448 0.904429 477.106 0.89416L480.121 0.87541L477.106 0.816439C467.253 0.62381 397.182 0.51746 374.61 0.66092C368.162 0.70192 359.821 0.736307 356.075 0.737318C351.268 0.738718 349.164 0.767893 348.925 0.836511C348.669 0.909719 348.447 0.911353 348.026 0.842891C347.554 0.766182 333.643 0.67788 332.405 0.743698C331.196 0.808037 154.725 0.799557 142.82 0.734595C134.899 0.691339 125.855 0.642326 122.723 0.625678C119.591 0.609029 110.269 0.577131 102.009 0.554959C93.7472 0.532708 83.9498 0.492564 80.2364 0.465802C69.4991 0.388315 54.3095 0.380612 53.927 0.452498ZM393.912 0.403407C394.395 0.425891 394.973 0.42309 395.195 0.397261C395.418 0.371432 395.023 0.353072 394.316 0.356417C393.536 0.360151 393.377 0.37859 393.912 0.403407ZM375.824 0.481206C376.307 0.50369 376.885 0.500889 377.108 0.47506C377.33 0.449231 376.935 0.43087 376.229 0.434216C375.448 0.43795 375.29 0.456388 375.824 0.481206ZM381.184 0.481206C381.667 0.50369 382.245 0.500889 382.467 0.47506C382.689 0.449231 382.294 0.43087 381.588 0.434216C380.808 0.43795 380.649 0.456388 381.184 0.481206ZM166.1 0.638592C166.929 0.657108 168.285 0.657108 169.114 0.638592C169.944 0.619998 169.265 0.604827 167.607 0.604827C165.949 0.604827 165.27 0.619998 166.1 0.638592ZM301.77 0.945896C301.316 0.967212 300.412 0.968535 299.76 0.948774C299.108 0.929014 299.479 0.911587 300.584 0.910031C301.69 0.908475 302.223 0.924579 301.77 0.945896ZM473.575 0.94185C473.353 0.967679 472.775 0.97048 472.292 0.947996C471.757 0.923178 471.916 0.90474 472.696 0.901006C473.402 0.897661 473.797 0.916021 473.575 0.94185ZM373.747 1.08002C373.976 1.10655 371.777 1.13222 368.86 1.13712C365.942 1.14195 355.869 1.16373 346.473 1.18544C337.078 1.20722 303.821 1.25195 272.569 1.28502C241.317 1.31808 214.104 1.36889 212.095 1.39806C208.404 1.45159 203.986 1.38981 204.796 1.29591C205.262 1.24184 211.603 1.22737 247.159 1.1996C260.729 1.18894 269.434 1.15315 269.434 1.10795C269.434 1.06718 269.858 1.05271 270.376 1.07582C271.808 1.13961 294.118 1.1288 310.298 1.05645C326.117 0.985651 373.086 1.00316 373.747 1.08002ZM391.246 1.01164C390.764 1.06757 379.281 1.07434 378.805 1.01895C378.585 0.993508 381.37 0.972658 384.993 0.972658C388.616 0.972658 391.43 0.990163 391.246 1.01164ZM393.856 1.01965C393.633 1.04548 393.055 1.04828 392.572 1.02579C392.037 1.00098 392.196 0.982539 392.977 0.978805C393.683 0.975459 394.078 0.993819 393.856 1.01965ZM342.964 1.10546C343.798 1.12405 345.004 1.12335 345.644 1.1039C346.284 1.08445 345.603 1.06921 344.129 1.07006C342.655 1.07092 342.131 1.08687 342.964 1.10546ZM434.462 1.10881C434.632 1.14086 430.606 1.16715 425.514 1.16715C420.423 1.16715 416.031 1.14086 415.754 1.10881C415.478 1.07675 419.504 1.05046 424.702 1.05046C429.9 1.05046 434.292 1.07675 434.462 1.10881ZM437.916 1.12826C436.087 1.21959 435.572 1.21959 435.572 1.12826C435.572 1.08547 436.4 1.05295 437.414 1.0559C439.046 1.0608 439.103 1.06897 437.916 1.12826ZM315.532 1.18139C316.015 1.20388 316.593 1.20107 316.816 1.17525C317.038 1.14942 316.643 1.13106 315.937 1.1344C315.156 1.13814 314.998 1.15657 315.532 1.18139ZM319.522 1.18466C320.725 1.20193 322.534 1.20162 323.541 1.18388C324.548 1.16606 323.562 1.15191 321.352 1.15237C319.141 1.15276 318.318 1.16731 319.522 1.18466ZM184.291 1.36624C183.809 1.40086 183.141 1.40957 182.808 1.38569C182.475 1.36181 182.597 1.31388 183.079 1.27926C183.561 1.24464 184.229 1.23593 184.562 1.25981C184.895 1.2837 184.773 1.33162 184.291 1.36624ZM196.413 1.30073C196.413 1.33427 194.228 1.35753 191.556 1.35247C187.952 1.34562 187.217 1.32827 188.709 1.28517C191.281 1.2108 196.413 1.22122 196.413 1.30073ZM203.112 1.2469C203.112 1.32999 199.495 1.44396 198.475 1.393C197.64 1.3513 197.77 1.32773 199.093 1.2809C201.139 1.20839 203.112 1.19174 203.112 1.2469ZM181.317 1.36608C181.102 1.40638 178.608 1.4389 175.774 1.43828C172.94 1.43758 170.974 1.41136 171.405 1.37993C172.597 1.29288 181.774 1.28004 181.317 1.36608ZM395.557 1.33489C395.104 1.3562 394.199 1.35753 393.547 1.33777C392.896 1.31801 393.267 1.30058 394.372 1.29902C395.477 1.29747 396.011 1.31357 395.557 1.33489ZM442.438 1.41658C441.61 1.43509 440.252 1.43509 439.424 1.41658C438.595 1.39798 439.273 1.38281 440.931 1.38281C442.589 1.38281 443.267 1.39798 442.438 1.41658ZM26.9255 2.45083C26.9255 2.49362 26.7929 2.52863 26.6301 2.52863C26.4673 2.52863 26.1484 2.49362 25.9207 2.45083C25.6929 2.40804 25.8262 2.37303 26.2161 2.37303C26.606 2.37303 26.9255 2.40804 26.9255 2.45083ZM8.71264 5.30471C9.19565 5.32719 9.77378 5.32439 9.99619 5.29856C10.2186 5.27273 9.82336 5.25437 9.11727 5.25772C8.33682 5.26145 8.17805 5.27989 8.71264 5.30471ZM484.964 6.62113C484.741 6.64696 484.163 6.64976 483.68 6.62728C483.145 6.60246 483.304 6.58402 484.085 6.58029C484.791 6.57694 485.186 6.5953 484.964 6.62113ZM14.1972 6.80754C14.1972 6.85033 13.8777 6.88534 13.4878 6.88534C13.0979 6.88534 12.9646 6.85033 13.1923 6.80754C13.4201 6.76475 13.739 6.72974 13.9018 6.72974C14.0646 6.72974 14.1972 6.76475 14.1972 6.80754ZM213.523 7.97973C214.244 8.11517 213.424 8.14388 212.504 8.01528C211.976 7.94137 211.925 7.89672 212.37 7.89672C212.761 7.89672 213.281 7.93406 213.523 7.97973ZM256.004 8.17127C256.402 8.14271 256.554 8.08678 256.341 8.04694C256.12 8.00532 257.659 7.97451 259.96 7.97451C262.272 7.97451 264.066 8.01061 264.208 8.05994C264.343 8.10693 265.869 8.16395 267.6 8.18659C271.912 8.24307 270.929 8.36288 266.396 8.33324C263.67 8.31543 262.734 8.33612 262.734 8.41423C262.734 8.54633 260.283 8.55279 259.828 8.42185C259.633 8.36545 259.469 8.38373 259.438 8.46534C259.409 8.54275 259.137 8.58834 258.834 8.56656C258.531 8.54485 257.781 8.59527 257.166 8.67867C255.854 8.85667 252.686 8.88476 252.686 8.7185C252.686 8.63339 252.104 8.61767 250.251 8.65253C248.341 8.68855 247.887 8.67493 248.146 8.58936C248.327 8.52929 248.903 8.48378 249.426 8.48814C249.949 8.4925 250.789 8.44481 251.292 8.38226C252.088 8.28337 251.91 8.27544 249.934 8.32181C248.684 8.35114 247.159 8.39144 246.545 8.41135C245.932 8.43135 245.253 8.41446 245.037 8.37401C244.822 8.33348 246.17 8.27598 248.033 8.24626C249.896 8.21647 251.78 8.14645 252.22 8.09059C252.877 8.00735 253.224 8.01015 254.151 8.10607C254.773 8.17049 255.607 8.19982 256.004 8.17127ZM350.493 8.08242C350.493 8.14629 346.396 8.17842 346.069 8.11712C345.88 8.08149 346.798 8.05231 348.109 8.05231C349.42 8.05231 350.493 8.06585 350.493 8.08242ZM228.165 8.55085C227.59 8.72504 226.746 8.63798 226.948 8.42512C227.2 8.16045 227.216 8.15827 227.92 8.29847C228.278 8.36965 228.388 8.48324 228.165 8.55085ZM275.643 8.25895C275.189 8.28026 274.285 8.28158 273.633 8.26182C272.981 8.24206 273.353 8.22464 274.458 8.22308C275.563 8.22152 276.096 8.23763 275.643 8.25895ZM298.24 8.28967C293.944 8.37844 278.67 8.37556 277.473 8.28571C276.806 8.23568 280.641 8.2132 288.861 8.2188C297.337 8.22471 300.302 8.24704 298.24 8.28967ZM312.14 8.26361C311.127 8.28143 309.469 8.28143 308.456 8.26361C307.442 8.2458 308.272 8.23125 310.298 8.23125C312.325 8.23125 313.154 8.2458 312.14 8.26361ZM318.505 8.25941C318.044 8.28104 317.291 8.28104 316.83 8.25941C316.37 8.23786 316.746 8.2202 317.667 8.2202C318.588 8.2202 318.965 8.23786 318.505 8.25941ZM325.204 8.25941C324.743 8.28104 323.99 8.28104 323.529 8.25941C323.069 8.23786 323.445 8.2202 324.366 8.2202C325.287 8.2202 325.665 8.23786 325.204 8.25941ZM211.151 8.32375C211.151 8.43703 208.654 8.67431 207.486 8.67213C206.179 8.66964 206.186 8.66381 207.66 8.52113L209.192 8.37276L206.32 8.34281C203.798 8.31652 203.917 8.31123 207.299 8.29932C209.418 8.29185 211.151 8.30282 211.151 8.32375ZM214.319 8.3327C214.097 8.35853 213.519 8.36133 213.036 8.33884C212.501 8.31403 212.66 8.29559 213.44 8.29185C214.146 8.28851 214.542 8.30687 214.319 8.3327ZM255.365 8.36351C255.365 8.4063 255.685 8.4413 256.075 8.4413C256.465 8.4413 256.598 8.4063 256.37 8.36351C256.142 8.32072 255.824 8.28571 255.661 8.28571C255.498 8.28571 255.365 8.32072 255.365 8.36351ZM464.866 8.3327C464.644 8.35853 464.066 8.36133 463.583 8.33884C463.048 8.31403 463.207 8.29559 463.987 8.29185C464.693 8.28851 465.089 8.30687 464.866 8.3327ZM469.905 8.33721C469.444 8.35884 468.691 8.35884 468.23 8.33721C467.77 8.31566 468.146 8.298 469.067 8.298C469.988 8.298 470.366 8.31566 469.905 8.33721ZM182.163 8.4105C181.941 8.43633 181.363 8.43913 180.88 8.41664C180.345 8.39182 180.504 8.37339 181.285 8.36965C181.991 8.36631 182.386 8.38467 182.163 8.4105ZM200.949 8.45593C200.803 8.50673 200.284 8.56376 199.795 8.58266C199.295 8.60204 199.098 8.58111 199.345 8.53474C199.591 8.48853 199.118 8.43757 198.266 8.41859C197.185 8.39447 197.391 8.38163 198.981 8.37409C200.438 8.36716 201.122 8.39564 200.949 8.45593ZM222.205 8.5191C221.961 8.60834 222.084 8.6747 222.495 8.6747C222.888 8.6747 223.21 8.70387 223.21 8.73951C223.21 8.84057 220.486 8.79225 219.892 8.68061C219.48 8.60336 219.036 8.60102 217.922 8.67027C217.13 8.71943 216.157 8.73632 215.758 8.70769C214.954 8.64996 219.476 8.37984 221.412 8.36981C222.333 8.36506 222.526 8.40139 222.205 8.5191ZM348.818 8.4413C349.046 8.48409 348.913 8.5191 348.523 8.5191C348.133 8.5191 347.813 8.48409 347.813 8.4413C347.813 8.39851 347.946 8.36351 348.109 8.36351C348.271 8.36351 348.59 8.39851 348.818 8.4413ZM355.182 8.39781C355.182 8.41672 354.881 8.45375 354.512 8.4802C354.144 8.50665 353.842 8.49117 353.842 8.4459C353.842 8.40062 354.144 8.36351 354.512 8.36351C354.881 8.36351 355.182 8.37891 355.182 8.39781ZM453.17 8.41454C452.716 8.43586 451.812 8.43718 451.16 8.41742C450.508 8.39766 450.879 8.38023 451.984 8.37868C453.09 8.37712 453.623 8.39323 453.17 8.41454ZM456.827 8.4105C456.605 8.43633 456.027 8.43913 455.544 8.41664C455.009 8.39182 455.168 8.37339 455.948 8.36965C456.654 8.36631 457.05 8.38467 456.827 8.4105ZM192.059 8.5191C192.287 8.56189 192.153 8.5969 191.763 8.5969C191.373 8.5969 191.054 8.56189 191.054 8.5191C191.054 8.47631 191.187 8.4413 191.349 8.4413C191.512 8.4413 191.831 8.47631 192.059 8.5191ZM271.262 8.4883C271.039 8.51412 270.461 8.51692 269.978 8.49444C269.444 8.46962 269.602 8.45119 270.383 8.44745C271.089 8.44411 271.484 8.46247 271.262 8.4883ZM274.611 8.4883C274.389 8.51412 273.811 8.51692 273.328 8.49444C272.793 8.46962 272.952 8.45119 273.732 8.44745C274.438 8.44411 274.834 8.46247 274.611 8.4883ZM280.822 8.558C280.822 8.62219 281.124 8.6747 281.492 8.6747C281.86 8.6747 282.161 8.63098 282.161 8.57745C282.159 8.50525 283.63 8.48674 287.863 8.50541C291.314 8.52066 293.41 8.56034 293.168 8.60585C292.948 8.64716 292.236 8.6614 291.586 8.63743C290.936 8.61347 289.529 8.64693 288.46 8.71165C286.739 8.8159 286.492 8.81606 286.3 8.71313C286.057 8.58321 283.141 8.55372 282.497 8.6747C282.048 8.75911 279.285 8.78152 278.635 8.70597C277.983 8.63028 278.879 8.4413 279.889 8.4413C280.402 8.4413 280.822 8.49382 280.822 8.558ZM342.454 8.558C341.748 8.65681 341.895 8.6747 343.417 8.6747C344.444 8.6747 345.035 8.708 344.799 8.7525C344.571 8.79529 343.75 8.8303 342.972 8.8303C342.196 8.8303 341.776 8.85535 342.039 8.88592C342.303 8.9165 344.959 8.93073 347.94 8.91766C352.785 8.89635 353.317 8.90771 352.933 9.02417C352.649 9.1099 352.789 9.14227 353.339 9.11885C353.8 9.09917 354.102 9.04377 354.01 8.99562C353.917 8.94746 354.614 8.9081 355.557 8.9081C356.529 8.9081 357.092 8.94178 356.857 8.98589C356.629 9.02868 356.763 9.06369 357.152 9.06369C357.542 9.06369 357.862 9.02868 357.862 8.98589C357.862 8.85644 360.367 8.89876 360.821 9.03592C361.053 9.10625 361.142 9.17549 361.019 9.1898C360.896 9.20404 357.824 9.22528 354.193 9.23695C349.373 9.25243 347.516 9.23197 347.311 9.16094C347.157 9.10749 346.436 9.06369 345.708 9.06369C344.98 9.06369 344.571 9.0987 344.799 9.14149C345.04 9.18685 344.359 9.21929 343.163 9.21929C342.037 9.21929 341.114 9.18428 341.114 9.14149C341.114 9.0987 339.999 9.06369 338.635 9.06369C335.926 9.06369 336.272 8.93929 339.104 8.89526C340.364 8.87565 340.831 8.81614 340.991 8.65525C341.121 8.52408 341.607 8.4413 342.246 8.4413C343.096 8.4413 343.135 8.46278 342.454 8.558ZM409.11 8.62071C409.847 8.64304 409.018 8.65774 407.268 8.65346C405.518 8.64918 404.086 8.6148 404.086 8.57714C404.086 8.53941 404.726 8.53225 405.509 8.56111C406.598 8.60118 406.804 8.58873 406.386 8.50798C405.956 8.42497 406.045 8.42139 406.804 8.49125C407.336 8.54019 408.373 8.59838 409.11 8.62071ZM325.371 8.5969C325.143 8.63969 324.674 8.6747 324.327 8.6747C323.98 8.6747 323.696 8.63969 323.696 8.5969C323.696 8.55411 324.167 8.5191 324.741 8.5191C325.315 8.5191 325.599 8.55411 325.371 8.5969ZM254.026 8.6747C255.325 8.77218 256.035 8.77218 256.035 8.6747C256.035 8.63191 255.357 8.59745 254.528 8.59807C253.309 8.59908 253.213 8.61371 254.026 8.6747ZM316.997 8.70846C316.997 8.77164 317.796 8.83185 318.84 8.84733C320.317 8.86927 320.135 8.88203 317.918 8.91199C315.4 8.94598 315.155 8.93369 315.155 8.77312C315.155 8.67548 315.566 8.5969 316.076 8.5969C316.583 8.5969 316.997 8.64708 316.997 8.70846ZM337.765 8.66311C337.765 8.70216 336.553 8.73608 335.072 8.73849C333.59 8.74083 332.514 8.71726 332.679 8.68614C333.129 8.60165 337.765 8.58064 337.765 8.66311ZM129.087 8.7525C129.315 8.79529 129.031 8.8303 128.457 8.8303C127.883 8.8303 127.412 8.79529 127.412 8.7525C127.412 8.70971 127.696 8.6747 128.043 8.6747C128.39 8.6747 128.859 8.70971 129.087 8.7525ZM262.065 8.75709C262.065 8.80237 261.73 8.81544 261.32 8.78603C260.91 8.75662 260.312 8.78082 259.99 8.83979C259.528 8.92459 259.403 8.91852 259.395 8.81085C259.389 8.7262 259.891 8.6747 260.725 8.6747C261.462 8.6747 262.065 8.71181 262.065 8.75709ZM271.443 8.73305C271.443 8.7651 270.718 8.7914 269.832 8.7914C268.947 8.7914 268.362 8.7651 268.533 8.73305C268.703 8.701 269.428 8.6747 270.143 8.6747C270.858 8.6747 271.443 8.701 271.443 8.73305ZM399.061 8.7525C398.834 8.79529 397.987 8.82781 397.18 8.82485C395.765 8.81956 395.76 8.81699 397.052 8.7525C398.895 8.66046 399.551 8.66046 399.061 8.7525ZM448.3 8.7525C448.3 8.79529 448.979 8.83084 449.807 8.83146C450.636 8.83216 451.767 8.86663 452.319 8.9081C453.06 8.96372 452.533 8.98784 450.31 8.9999C448.652 9.00892 446.24 9.03016 444.95 9.04704C443.661 9.064 432.205 9.08812 419.494 9.10065C406.782 9.11317 398.191 9.0973 400.401 9.06533C402.612 9.03343 405.928 8.98551 407.77 8.9589C414.849 8.85675 423.434 8.83014 423.853 8.90895C424.085 8.95267 424.585 8.96621 424.963 8.93906C425.341 8.91198 426.355 8.93354 427.217 8.98706C428.077 9.04059 429.33 9.05895 430 9.02783C430.669 8.99671 433.384 8.96512 436.031 8.95765C438.679 8.95018 441.041 8.92117 441.283 8.89316C441.523 8.86523 442.748 8.86173 444.005 8.88538C445.823 8.91961 446.29 8.90249 446.29 8.80159C446.29 8.7318 446.742 8.6747 447.295 8.6747C447.848 8.6747 448.3 8.70971 448.3 8.7525ZM468.007 8.77195C468.319 8.84975 468.476 8.84975 468.788 8.77195C469.209 8.66739 474.801 8.63409 475.328 8.73305C475.498 8.7651 474.311 8.77911 472.688 8.76409C470.845 8.74705 469.737 8.76899 469.737 8.82244C469.737 8.95221 466.587 8.92498 466.145 8.7914C465.676 8.64949 467.441 8.63105 468.007 8.77195ZM312.643 8.8303C312.415 8.87309 311.418 8.90561 310.426 8.90265C308.816 8.89775 308.767 8.88997 309.963 8.8303C311.824 8.7374 313.137 8.7374 312.643 8.8303ZM375.615 8.8303C375.387 8.87309 375.822 8.9081 376.58 8.9081C377.338 8.9081 377.959 8.87309 377.959 8.8303C377.959 8.73842 379.258 8.75919 380.36 8.86873C381.372 8.96917 377.932 9.14647 376.069 9.08991C375.35 9.06805 374.558 9.0882 374.311 9.13472C374.063 9.18124 373.409 9.21929 372.856 9.21929C372.303 9.21929 372.052 9.18156 372.297 9.1355C372.606 9.07746 371.795 9.0682 369.657 9.10539C367.785 9.13799 366.571 9.12935 366.571 9.08337C366.571 9.04175 368.299 8.98691 370.412 8.96162C372.525 8.93634 374.358 8.87892 374.487 8.83403C374.616 8.78922 375.016 8.7525 375.375 8.7525C375.734 8.7525 375.842 8.78751 375.615 8.8303ZM394.768 8.82423C394.249 8.86243 392.937 8.88063 391.853 8.86468C390.334 8.84236 389.801 8.87083 389.536 8.98862C389.346 9.07272 388.934 9.14149 388.621 9.14149C387.897 9.14149 388.676 8.88818 389.634 8.81201C390.029 8.78058 391.558 8.75491 393.032 8.75491C394.86 8.75491 395.412 8.77693 394.768 8.82423ZM158.898 8.89899C158.898 8.99165 156.308 9.06564 155.88 8.98527C155.693 8.95011 155.919 8.90366 156.382 8.88196C157.754 8.81769 158.898 8.82547 158.898 8.89899ZM167.607 8.9081C167.607 8.95088 167.324 8.98589 166.977 8.98589C166.63 8.98589 166.16 8.95088 165.932 8.9081C165.704 8.86531 165.988 8.8303 166.563 8.8303C167.137 8.8303 167.607 8.86531 167.607 8.9081ZM179.665 8.89962C179.665 9.01725 174.774 9.0423 172.984 8.93385C171.417 8.83885 171.602 8.83123 175.478 8.83076C177.782 8.83053 179.665 8.86149 179.665 8.89962ZM181.725 8.92949C181.642 9.02254 180.724 9.00449 180.436 8.90421C180.288 8.85286 180.53 8.82485 180.972 8.84197C181.414 8.85908 181.753 8.89845 181.725 8.92949ZM187.657 9.17455C187.683 9.21415 187.146 9.17914 186.462 9.09676C185.62 8.99523 185.458 8.9291 185.96 8.89152C186.63 8.84111 187.538 8.99243 187.657 9.17455ZM193.344 8.87752C194.707 8.93828 194.718 9.06369 193.359 9.06369C192.785 9.06369 192.49 9.0966 192.704 9.13674C192.918 9.17697 192.485 9.20459 191.742 9.19805C190.352 9.18591 190.136 8.99671 191.389 8.88981C192.21 8.81979 192.068 8.82065 193.344 8.87752ZM456.339 8.9081C456.339 8.95088 455.811 8.98535 455.167 8.98473C454.164 8.98372 454.14 8.97251 454.999 8.9081C456.263 8.81318 456.339 8.81318 456.339 8.9081ZM200.124 9.02923C198.41 9.11092 198.319 9.12904 199.454 9.1625C200.516 9.19385 200.445 9.20295 199.087 9.21026C198.117 9.21548 197.081 9.15892 196.638 9.07668C195.936 8.94598 196.133 8.93408 198.99 8.93439C202.079 8.9347 202.089 8.93556 200.124 9.02923ZM209.332 9.11893C209.602 9.28293 209.444 9.30393 208.222 9.26581C207.438 9.24138 205.591 9.21983 204.117 9.21797C201.949 9.21524 201.664 9.19922 202.624 9.13433C203.276 9.09022 203.642 9.02254 203.437 8.98387C203.231 8.94528 204.403 8.91681 206.04 8.92062C208.649 8.92669 209.056 8.9512 209.332 9.11893ZM229.017 9.10749C229.713 9.21797 230.093 9.22901 230.715 9.15674C231.831 9.0272 233.258 9.04043 233.258 9.18039C233.258 9.27134 232.408 9.29576 229.406 9.29094C227.287 9.2876 225.932 9.26713 226.392 9.24558C228.361 9.15324 226.959 9.06369 223.545 9.06369C219.559 9.06369 218.487 9.18965 222.037 9.24084C223.391 9.26029 222.773 9.27686 220.402 9.28464C218.262 9.29164 216.392 9.25998 216.139 9.21252C215.815 9.1516 215.486 9.1516 214.961 9.21252C214.56 9.25904 213.781 9.29709 213.228 9.29709C212.485 9.29709 212.419 9.27429 212.975 9.2098C213.388 9.1618 213.56 9.07202 213.355 9.01024C213.042 8.91533 214.154 8.90319 220.553 8.93159C226.904 8.95975 228.265 8.98799 229.017 9.10749ZM243.974 9.08314C243.979 9.17004 239.432 9.15378 238.961 9.06517C238.715 9.01919 239.629 8.99601 241.262 9.00682C242.752 9.0167 243.972 9.05109 243.974 9.08314ZM268.094 9.0591C268.094 9.0994 267.793 9.15386 267.426 9.18023C266.257 9.2641 248.161 9.22559 246.657 9.13604C245.892 9.09053 254.19 9.0104 260.892 8.99857C265.023 8.99134 268.094 9.01709 268.094 9.0591ZM297.472 9.10422C298.178 9.18622 296.911 9.214 290.662 9.25344C284.255 9.29397 277.473 9.19486 277.473 9.06074C277.473 8.99235 296.872 9.03459 297.472 9.10422ZM321.352 9.13869C317.03 9.1835 313.781 9.15052 314.857 9.07272C315.221 9.04634 317.736 9.04105 320.445 9.06089L325.371 9.09699L321.352 9.13869ZM333.075 9.06369C333.075 9.10648 332.943 9.14149 332.78 9.14149C332.617 9.14149 332.298 9.10648 332.07 9.06369C331.843 9.0209 331.976 8.98589 332.366 8.98589C332.756 8.98589 333.075 9.0209 333.075 9.06369ZM348.148 9.06369C347.92 9.10648 348.204 9.14149 348.779 9.14149C349.353 9.14149 349.823 9.10648 349.823 9.06369C349.823 9.0209 349.54 8.98589 349.193 8.98589C348.846 8.98589 348.376 9.0209 348.148 9.06369ZM487.03 9.03903C487.513 9.06151 488.091 9.05871 488.313 9.03288C488.536 9.00705 488.14 8.98869 487.434 8.99204C486.654 8.99577 486.495 9.01421 487.03 9.03903ZM330.099 9.13418C329.893 9.17292 329.121 9.18638 328.385 9.16397C326.542 9.10804 326.708 9.06369 328.76 9.06369C329.703 9.06369 330.306 9.09543 330.099 9.13418ZM364.728 9.11519C364.268 9.13682 363.515 9.13682 363.054 9.11519C362.593 9.09364 362.97 9.07598 363.891 9.07598C364.812 9.07598 365.189 9.09364 364.728 9.11519ZM395.544 9.11519C395.084 9.13682 394.331 9.13682 393.87 9.11519C393.409 9.09364 393.786 9.07598 394.707 9.07598C395.628 9.07598 396.005 9.09364 395.544 9.11519ZM482.13 9.45268C482.358 9.49547 482.677 9.53048 482.84 9.53048C483.003 9.53048 483.135 9.49547 483.135 9.45268C483.135 9.40989 482.816 9.37489 482.426 9.37489C482.036 9.37489 481.903 9.40989 482.13 9.45268ZM489.758 9.42802C490.241 9.45051 490.819 9.44771 491.041 9.42188C491.264 9.39605 490.869 9.37769 490.163 9.38103C489.382 9.38477 489.223 9.4032 489.758 9.42802ZM225.888 10.4057C225.889 10.4378 219.784 10.4575 212.324 10.4496C202.933 10.4396 200.51 10.4216 204.452 10.3912C212.632 10.3282 225.887 10.3372 225.888 10.4057ZM232.588 10.4343C232.588 10.4506 231.157 10.4599 229.406 10.4549C226.67 10.4469 226.506 10.4382 228.234 10.3926C230.112 10.3431 232.588 10.3668 232.588 10.4343ZM197.92 10.4378C197.46 10.4594 196.707 10.4594 196.246 10.4378C195.785 10.4162 196.162 10.3986 197.083 10.3986C198.004 10.3986 198.381 10.4162 197.92 10.4378ZM137.291 10.6036C137.756 10.6391 135.007 10.6701 131.103 10.6735C127.239 10.6768 124.2 10.6568 124.349 10.6288C124.755 10.5526 136.328 10.5301 137.291 10.6036ZM443.485 10.6728C443.968 10.6953 444.546 10.6925 444.769 10.6666C444.991 10.6408 444.596 10.6225 443.89 10.6258C443.109 10.6295 442.951 10.648 443.485 10.6728ZM394.525 10.7444C394.303 10.7703 393.725 10.7731 393.242 10.7506C392.707 10.7258 392.866 10.7073 393.647 10.7036C394.353 10.7003 394.748 10.7186 394.525 10.7444ZM161.708 10.9111C165.649 10.9248 172.281 10.9249 176.446 10.9112C180.612 10.8975 177.388 10.8863 169.282 10.8862C161.176 10.8861 157.768 10.8973 161.708 10.9111ZM221.748 10.9478C222.105 10.9893 222.957 11.0095 223.641 10.9926C224.562 10.97 224.393 10.9504 222.991 10.9172C221.769 10.8882 221.329 10.8991 221.748 10.9478ZM429.417 10.9062C429.9 10.9287 430.478 10.9259 430.701 10.9C430.923 10.8742 430.528 10.8559 429.822 10.8592C429.041 10.8629 428.883 10.8814 429.417 10.9062ZM227.07 10.9859C227.903 11.0044 229.109 11.0037 229.749 10.9843C230.39 10.9649 229.708 10.9496 228.234 10.9505C226.76 10.9513 226.236 10.9673 227.07 10.9859ZM236.448 10.9859C237.282 11.0044 238.488 11.0037 239.128 10.9843C239.769 10.9649 239.087 10.9496 237.613 10.9505C236.139 10.9513 235.615 10.9673 236.448 10.9859ZM257.22 10.9873C258.424 11.0045 260.232 11.0042 261.239 10.9865C262.246 10.9687 261.261 10.9545 259.05 10.955C256.839 10.9554 256.016 10.9699 257.22 10.9873ZM266.931 10.9867C267.949 11.0045 269.456 11.0041 270.28 10.9856C271.104 10.9672 270.271 10.9526 268.429 10.9531C266.586 10.9537 265.912 10.9688 266.931 10.9867ZM354.68 10.9845C355.324 11.0041 356.38 11.0041 357.025 10.9845C357.669 10.9649 357.142 10.9489 355.852 10.9489C354.563 10.9489 354.035 10.9649 354.68 10.9845ZM365.733 10.9824C366.194 11.004 366.948 11.004 367.408 10.9824C367.869 10.9608 367.492 10.9431 366.571 10.9431C365.65 10.9431 365.273 10.9608 365.733 10.9824Z" fill="#F1CA16"/>
</svg>
