<svg width="50" height="66" viewBox="0 0 50 66" fill="none" xmlns="http://www.w3.org/2000/svg">
<path fill-rule="evenodd" clip-rule="evenodd" d="M15.3781 5.53639C15.3781 11.5566 15.2771 12.9324 14.668 15.209C13.9673 17.8286 12.9845 19.8821 11.0859 22.6943C9.2143 25.4665 8.63198 26.9586 8.74073 28.7039C8.87653 30.8849 10.4602 32.4926 12.884 32.9099C14.988 33.2722 20.1703 32.4326 25.3804 30.8853C27.4163 30.2806 29.658 29.8393 32.3051 29.5221C37.3122 28.9221 38.0983 28.7503 38.9998 28.0601C39.7733 27.4677 40.1399 26.7484 40.1444 25.8149C40.1491 24.8107 39.8865 24.1891 38.7143 22.4297C36.9926 19.8455 35.9959 17.7232 35.3234 15.209C34.7143 12.9324 34.6134 11.5566 34.6134 5.53639V0H24.9957H15.3781V5.53639ZM30.7685 7.50879C30.7698 9.51161 30.8276 11.6932 30.8971 12.3566C31.3142 16.3376 32.7563 20.3622 34.9772 23.7444C35.7252 24.8835 35.8448 25.1349 35.6648 25.1892C35.545 25.2253 34.3793 25.3761 33.0745 25.5243C28.8785 26.0012 26.6198 26.449 23.2149 27.4787C19.4431 28.6195 14.2999 29.3957 13.1593 28.9962C12.6331 28.8118 12.6211 28.7946 12.6277 28.2291C12.6364 27.4815 13.0793 26.6167 14.6592 24.263C17.1999 20.4778 18.6233 16.6495 19.0894 12.3478C19.1641 11.6594 19.2251 9.46958 19.2251 7.48159V3.86719H24.9957H30.7663L30.7685 7.50879ZM3.95011 19.4326C3.0113 20.8735 1.86924 23.2876 1.28205 25.0723C-0.788568 31.3657 -0.33936 38.1048 2.54504 44.0215C3.32176 45.6145 4.51537 47.5664 4.71285 47.5664C4.79223 47.5664 7.06674 45.9949 7.77191 45.4529C7.78499 45.4427 7.53467 45.0295 7.21549 44.5347C5.8253 42.3783 4.62117 39.2924 4.14259 36.6589C3.82047 34.8865 3.82047 31.1135 4.14259 29.3411C4.61911 26.7185 5.85094 23.5567 7.21062 21.4653C7.53249 20.9705 7.78499 20.5573 7.77191 20.5471C7.06674 20.0051 4.79223 18.4336 4.71285 18.4336C4.65143 18.4336 4.30814 18.8832 3.95011 19.4326ZM43.6883 19.5071L42.2053 20.5805L42.7807 21.4729C44.4028 23.9886 45.5581 27.1809 45.969 30.2832C46.6118 35.1369 45.4294 40.4195 42.7807 44.5271L42.2053 45.4195L43.6883 46.4929C44.504 47.0834 45.2207 47.5664 45.2809 47.5664C45.4764 47.5664 46.6735 45.6066 47.4464 44.0215C48.7258 41.3972 49.5421 38.5391 49.8659 35.5509C50.3563 31.0264 49.4908 26.1722 47.4464 21.9785C46.6735 20.3934 45.4764 18.4336 45.2809 18.4336C45.2207 18.4336 44.504 18.9166 43.6883 19.5071ZM34.421 33.0837C34.2094 33.1085 33.4881 33.1923 32.8181 33.2699C31.1327 33.4652 28.8317 33.9378 26.8551 34.4945C21.7125 35.9432 20.8342 36.1222 16.1609 36.6745C13.4277 36.9975 12.1718 37.2431 11.52 37.5818C10.4354 38.1457 9.83804 39.0782 9.83881 40.2066C9.83945 41.1822 10.1144 41.8251 11.2771 43.5703C12.9988 46.1545 13.9956 48.2768 14.668 50.791C15.2771 53.0676 15.3781 54.4434 15.3781 60.4636V66H24.9957H34.6134V60.4636C34.6134 54.4434 34.7143 53.0676 35.3234 50.791C36.0161 48.2011 37.0302 46.0676 38.8074 43.4602C40.7104 40.6686 41.3589 39.0327 41.2507 37.2961C41.0882 34.6874 38.904 32.9618 35.8367 33.0193C35.2697 33.0299 34.6326 33.0589 34.421 33.0837ZM36.9898 37.054C37.3711 37.2141 37.4345 37.302 37.4345 37.6699C37.4345 38.2177 36.7163 39.7272 35.9298 40.8321C33.0195 44.9203 31.3716 49.1155 30.8971 53.6434C30.8276 54.3068 30.7698 56.4883 30.7685 58.4912L30.7663 62.1328H24.9957H19.2251V58.5184C19.2251 56.5304 19.1641 54.3406 19.0894 53.6522C18.6491 49.5877 17.2384 45.6426 15.0143 42.2556C14.2664 41.1167 14.1466 40.8651 14.3267 40.8111C14.4464 40.7751 15.5832 40.6257 16.8528 40.4789C21.2323 39.9728 23.3374 39.5568 26.8551 38.5025C31.008 37.258 35.8334 36.5683 36.9898 37.054Z" fill="#FCE3F2"/>
</svg>
