<svg width="139" height="139" viewBox="0 0 139 139" fill="none" xmlns="http://www.w3.org/2000/svg">
<path d="M95.8991 82.3403H90.622C90.2183 80.1454 89.6406 77.9852 88.8962 75.8847L93.462 73.2489C93.9301 72.979 94.271 72.534 94.4109 72.0125C94.5509 71.4907 94.4774 70.935 94.2075 70.4675L88.5419 60.6558C87.9794 59.682 86.7344 59.3486 85.7608 59.9106L81.1852 62.5518C79.7374 60.8572 78.1568 59.2769 76.4622 57.8294L79.1035 53.2554C79.3736 52.7876 79.4466 52.2316 79.3071 51.7101C79.1673 51.1886 78.826 50.7436 78.3583 50.4738L68.5449 44.809C67.5711 44.2462 66.3261 44.5801 65.7636 45.5539L63.1272 50.1197C61.0256 49.3748 58.8646 48.7973 56.6697 48.3937V43.1182C56.6697 41.9934 55.758 41.082 54.6335 41.082H43.302C42.1775 41.082 41.2659 41.9934 41.2659 43.1182V48.3937C39.0712 48.7973 36.9099 49.3748 34.8084 50.1197L32.172 45.5539C31.6095 44.5804 30.3639 44.2473 29.3906 44.809L19.5773 50.4738C19.1095 50.7436 18.7683 51.1886 18.6284 51.7101C18.4886 52.2319 18.5619 52.7879 18.8321 53.2554L21.4733 57.8294C19.7785 59.2769 18.1981 60.857 16.7503 62.5518L12.1747 59.9106C11.2009 59.3478 9.9556 59.6817 9.39336 60.6555L3.72748 70.4672C3.45735 70.9353 3.38432 71.491 3.52387 72.0125C3.66368 72.534 4.00494 72.979 4.47271 73.2489L9.03907 75.8847C8.29412 77.9857 7.7164 80.1459 7.31297 82.3403H2.03613C0.911644 82.3403 0 83.2517 0 84.3765V95.7058C0 96.8305 0.911644 97.7419 2.03613 97.7419H7.31297C7.71667 99.9363 8.29439 102.097 9.03907 104.198L4.47271 106.833C4.00494 107.103 3.66368 107.548 3.52387 108.07C3.38405 108.592 3.45735 109.147 3.72748 109.615L9.39336 119.427C9.95587 120.4 11.2006 120.733 12.1747 120.172L16.7503 117.53C18.1981 119.225 19.7787 120.805 21.4733 122.253L18.8321 126.827C18.5619 127.295 18.4889 127.851 18.6284 128.372C18.7683 128.894 19.1095 129.339 19.5773 129.608L29.3906 135.273C30.3639 135.835 31.6092 135.502 32.172 134.528L34.8084 129.963C36.9097 130.707 39.0707 131.285 41.2659 131.689V136.964C41.2659 138.089 42.1775 139 43.302 139H54.6335C55.758 139 56.6697 138.089 56.6697 136.964V131.689C58.8649 131.285 61.0259 130.707 63.1272 129.963L65.7636 134.528C66.3261 135.502 67.5716 135.835 68.5449 135.273L78.3583 129.608C78.826 129.339 79.1673 128.894 79.3071 128.372C79.4469 127.85 79.3736 127.295 79.1035 126.827L76.4622 122.253C78.1571 120.805 79.7374 119.225 81.1852 117.53L85.7608 120.172C86.7341 120.734 87.9794 120.4 88.5419 119.426L94.2075 109.615C94.4774 109.147 94.5509 108.591 94.4109 108.07C94.271 107.548 93.9301 107.103 93.462 106.833L88.8962 104.198C89.6406 102.097 90.2183 99.9369 90.622 97.7419H95.8991C97.0239 97.7419 97.9353 96.8305 97.9353 95.7058V84.3765C97.9353 83.2517 97.0239 82.3403 95.8991 82.3403ZM93.863 93.6696H88.8905C87.8757 93.6696 87.0156 94.417 86.8742 95.4221C86.4439 98.4793 85.6422 101.478 84.4911 104.335C84.1118 105.276 84.4832 106.352 85.3617 106.859L89.6629 109.342L86.0334 115.627L81.7239 113.14C80.8459 112.632 79.7295 112.849 79.1043 113.646C77.2001 116.073 75.0041 118.268 72.5773 120.171C71.7797 120.797 71.5638 121.914 72.0707 122.792L74.5583 127.1L68.2718 130.729L65.7883 126.427C65.2809 125.55 64.2044 125.178 63.2643 125.557C60.4064 126.708 57.407 127.51 54.3498 127.94C53.3448 128.081 52.5971 128.941 52.5971 129.956V134.928H45.3379V129.957C45.3379 128.942 44.5905 128.082 43.5852 127.94C40.5277 127.51 37.5284 126.708 34.6707 125.557C33.7298 125.178 32.6539 125.55 32.1467 126.428L29.6632 130.729L23.3767 127.1L25.8646 122.792C26.3715 121.914 26.1553 120.797 25.358 120.172C22.9315 118.268 20.7354 116.073 18.831 113.646C18.2055 112.849 17.0889 112.633 16.2114 113.14L11.9019 115.628L8.2724 109.342L12.5735 106.859C13.4521 106.353 13.8234 105.276 13.4442 104.335C12.2928 101.477 11.4908 98.4784 11.0611 95.4223C10.9196 94.4173 10.0599 93.6699 9.04477 93.6699H4.07227V86.4129H9.04477C10.0596 86.4129 10.9196 85.6655 11.0611 84.6604C11.4908 81.6043 12.2928 78.6055 13.4442 75.7476C13.8232 74.8066 13.4521 73.7302 12.5735 73.2233L8.2724 70.7403L11.9019 64.4552L16.2114 66.9428C17.0889 67.4497 18.2055 67.2336 18.831 66.4365C20.7352 64.01 22.9312 61.8148 25.358 59.9111C26.1556 59.2853 26.3715 58.1684 25.8646 57.2907L23.3767 52.9828L29.6632 49.3539L32.1467 53.6547C32.6539 54.5333 33.73 54.9044 34.6705 54.5254C37.5295 53.374 40.5288 52.5723 43.5852 52.1426C44.5902 52.0011 45.3379 51.1413 45.3379 50.1263V45.1548H52.5971V50.1263C52.5971 51.1411 53.3445 52.0011 54.3498 52.1426C57.4062 52.5723 60.4055 53.374 63.2645 54.5254C64.205 54.9047 65.2814 54.5333 65.7885 53.6547L68.2721 49.3539L74.5586 52.9828L72.071 57.2907C71.5641 58.1684 71.7799 59.2856 72.5775 59.9111C75.0041 61.8148 77.2001 64.0102 79.1046 66.4365C79.7301 67.2338 80.8467 67.45 81.7241 66.9428L86.0337 64.4552L89.6629 70.7403L85.3617 73.2233C84.4832 73.7302 84.1118 74.8069 84.4911 75.7476C85.6422 78.6044 86.4439 81.6032 86.8742 84.6604C87.0156 85.6655 87.8754 86.4129 88.8905 86.4129H93.863V93.6696Z" fill="#F3F3F3"/>
<path d="M136.963 21.5931H133.203C132.902 20.7471 132.556 19.9156 132.168 19.1046L134.824 16.4547C135.207 16.0727 135.422 15.5542 135.422 15.0131C135.422 14.472 135.207 13.9538 134.824 13.5715L125.394 4.16321C124.599 3.37048 123.313 3.37048 122.518 4.16321L119.858 6.81752C119.043 6.42929 118.207 6.08369 117.357 5.78262V2.03613C117.357 0.911373 116.445 0 115.321 0H101.985C100.86 0 99.9484 0.911373 99.9484 2.03613V5.78316C99.0978 6.08397 98.2625 6.42984 97.4475 6.81806L94.7869 4.16376C93.9926 3.37129 92.7057 3.37102 91.9108 4.16376L82.4805 13.572C82.0978 13.954 81.8825 14.4726 81.8825 15.0136C81.8825 15.5547 82.0975 16.073 82.4805 16.4552L85.1368 19.1052C84.7488 19.9164 84.4035 20.7477 84.1027 21.5936H80.3418C79.2173 21.5936 78.3057 22.505 78.3057 23.6297V36.9349C78.3057 38.0597 79.2173 38.971 80.3418 38.971H84.1027C84.4032 39.817 84.7488 40.6483 85.1368 41.4595L82.4805 44.1094C82.0978 44.4914 81.8825 45.0099 81.8825 45.551C81.8825 46.0921 82.0975 46.6103 82.4805 46.9926L91.9108 56.4009C92.7057 57.1936 93.992 57.1936 94.7869 56.4009L97.4475 53.7466C98.2625 54.1348 99.0978 54.4804 99.9484 54.7815V58.5285C99.9484 59.6533 100.86 60.5646 101.985 60.5646H115.321C116.445 60.5646 117.357 59.6533 117.357 58.5285V54.7815C118.207 54.4807 119.043 54.1348 119.858 53.7466L122.518 56.4009C123.313 57.1936 124.6 57.1939 125.394 56.4009L134.824 46.9926C135.207 46.6106 135.422 46.0921 135.422 45.551C135.422 45.0099 135.207 44.4917 134.824 44.1094L132.168 41.4595C132.556 40.6485 132.901 39.817 133.203 38.971H136.963C138.088 38.971 139 38.0597 139 36.9349V23.6292C139 22.5047 138.088 21.5931 136.963 21.5931ZM134.927 34.8982H131.72C130.813 34.8982 130.016 35.4977 129.764 36.3686C129.313 37.9275 128.685 39.4399 127.896 40.8636C127.456 41.6587 127.596 42.6494 128.24 43.2914L130.504 45.5502L123.957 52.0824L121.686 49.8168C121.045 49.177 120.058 49.0377 119.265 49.4753C117.838 50.2618 116.321 50.8892 114.757 51.3396C113.885 51.5907 113.285 52.3886 113.285 53.2962V56.4913H104.021V53.2962C104.021 52.3886 103.42 51.5907 102.548 51.3396C100.984 50.8892 99.4679 50.2618 98.0409 49.4753C97.2477 49.0374 96.2608 49.1767 95.6199 49.8168L93.3492 52.0824L86.802 45.5502L89.0659 43.2914C89.7094 42.6494 89.8497 41.6585 89.4094 40.8636C88.6204 39.4391 87.992 37.9269 87.5416 36.3689C87.2896 35.4979 86.4923 34.8982 85.5855 34.8982H82.3785V25.6653H85.5855C86.4923 25.6653 87.2896 25.0659 87.5416 24.1947C87.992 22.6369 88.6204 21.1245 89.4094 19.7C89.8497 18.9048 89.7094 17.9142 89.0659 17.2721L86.802 15.0134L93.3492 8.48117L95.6199 10.7467C96.2611 11.3866 97.2485 11.5261 98.0409 11.0882C99.4679 10.3017 100.984 9.67435 102.548 9.22395C103.42 8.97283 104.021 8.17494 104.021 7.26737V4.07227H113.285V7.26737C113.285 8.17494 113.885 8.97283 114.757 9.22395C116.321 9.67435 117.838 10.3017 119.265 11.0882C120.058 11.5259 121.045 11.3869 121.686 10.7467L123.957 8.48117L130.504 15.0134L128.24 17.2721C127.596 17.9142 127.456 18.9051 127.896 19.7C128.685 21.1234 129.313 22.6358 129.764 24.195C130.016 25.0659 130.813 25.6653 131.72 25.6653H134.927V34.8982Z" fill="#F3F3F3"/>
<path d="M108.653 14.0586C105.979 14.0586 103.327 14.7213 100.983 15.9753C99.9911 16.5055 99.617 17.7394 100.148 18.7308C100.678 19.7223 101.911 20.0969 102.903 19.5659C104.659 18.6271 106.647 18.1309 108.653 18.1309C115.372 18.1309 120.837 23.5817 120.837 30.2817C120.837 36.9819 115.372 42.4328 108.653 42.4328C101.935 42.4328 96.4697 36.9819 96.4697 30.2817C96.4697 28.3767 96.8987 26.5539 97.7446 24.8631C98.2479 23.8576 97.8407 22.6342 96.8349 22.1312C95.8288 21.6284 94.606 22.0351 94.1029 23.0409C92.9711 25.3024 92.3975 27.7387 92.3975 30.282C92.3975 39.2274 99.6898 46.5053 108.653 46.5053C117.617 46.5053 124.909 39.2274 124.909 30.282C124.909 21.3365 117.617 14.0586 108.653 14.0586Z" fill="#F3F3F3"/>
<path d="M48.9675 60.917C32.906 60.917 19.8389 73.9819 19.8389 90.0407C19.8389 93.9716 20.6093 97.7857 22.1288 101.378C22.5667 102.413 23.7615 102.897 24.7973 102.46C25.833 102.022 26.3173 100.827 25.8791 99.7911C24.573 96.7038 23.9109 93.4234 23.9109 90.0407C23.9109 76.2273 35.1511 64.9893 48.9672 64.9893C62.7834 64.9893 74.0236 76.2276 74.0236 90.0407C74.0236 103.854 62.7834 115.092 48.9672 115.092C41.5617 115.092 34.5745 111.841 29.7977 106.173C29.0731 105.314 27.7887 105.204 26.9287 105.929C26.0689 106.653 25.9592 107.938 26.6841 108.798C32.2365 115.386 40.3585 119.164 48.9675 119.164C65.0293 119.164 78.0962 106.099 78.0962 90.0407C78.0962 73.9819 65.0291 60.917 48.9675 60.917Z" fill="#F3F3F3"/>
<path d="M48.9672 73.6468C50.6384 73.6468 52.2863 73.8968 53.8647 74.3898C54.9385 74.7254 56.08 74.1267 56.4153 73.0533C56.7506 71.9798 56.1523 70.838 55.0791 70.5024C53.107 69.8864 51.0508 69.5742 48.9674 69.5742C37.6805 69.5742 28.498 78.7553 28.498 90.0406C28.498 101.325 37.6807 110.507 48.9674 110.507C60.2544 110.507 69.4371 101.326 69.4371 90.0406C69.4371 84.7244 67.408 79.687 63.724 75.8561C62.9445 75.0463 61.6552 75.0205 60.8451 75.8002C60.0345 76.5796 60.0095 77.8686 60.7889 78.679C63.74 81.7473 65.3651 85.7821 65.3651 90.0406C65.3651 99.0802 58.0092 106.434 48.9677 106.434C39.9262 106.434 32.5706 99.0802 32.5706 90.0406C32.5706 81.001 39.9256 73.6468 48.9672 73.6468Z" fill="#F3F3F3"/>
<path d="M136.964 79.9437H135.3C134.95 77.4746 133.975 75.2039 132.54 73.2978L133.721 72.1168C134.516 71.3216 134.516 70.0324 133.721 69.2375C132.926 68.4426 131.637 68.442 130.842 69.2372L129.66 70.4187C127.754 68.9836 125.483 68.0082 123.013 67.6588V65.9951C123.013 64.8704 122.101 63.959 120.977 63.959C119.852 63.959 118.941 64.8704 118.941 65.9951V67.6588C116.471 68.0082 114.199 68.9836 112.293 70.4187L111.111 69.2372C110.316 68.4417 109.026 68.442 108.232 69.2375C107.437 70.0329 107.437 71.3219 108.232 72.1168L109.414 73.298C107.979 75.2041 107.003 77.4748 106.654 79.9437H104.989C103.864 79.9437 102.953 80.8551 102.953 81.9798C102.953 83.1046 103.864 84.016 104.989 84.016H106.654C107.003 86.4851 107.979 88.7556 109.414 90.6616L108.232 91.8426C107.437 92.6375 107.437 93.9268 108.232 94.722C108.63 95.1197 109.151 95.3184 109.672 95.3184C110.193 95.3184 110.714 95.1197 111.112 94.7222L112.294 93.5407C114.2 94.9758 116.471 95.9512 118.941 96.3006V97.9643C118.941 99.0891 119.852 100 120.977 100C122.102 100 123.013 99.0891 123.013 97.9643V96.3006C125.483 95.9512 127.754 94.9761 129.661 93.541L130.842 94.7225C131.24 95.12 131.761 95.3187 132.282 95.3187C132.803 95.3187 133.324 95.12 133.722 94.7222C134.517 93.9268 134.517 92.6378 133.722 91.8429L132.54 90.6619C133.975 88.7558 134.951 86.4854 135.3 84.0163H136.964C138.089 84.0163 139.001 83.1049 139.001 81.9801C139.001 80.8554 138.088 79.9437 136.964 79.9437ZM120.976 92.3712C115.245 92.3712 110.583 87.7095 110.583 81.9798C110.583 76.2499 115.245 71.5882 120.976 71.5882C126.707 71.5882 131.37 76.2499 131.37 81.9798C131.37 87.7095 126.707 92.3712 120.976 92.3712Z" fill="#F3F3F3"/>
<path d="M120.976 75.2324C117.256 75.2324 114.229 78.2589 114.229 81.9796C114.229 85.6998 117.256 88.7266 120.976 88.7266C124.697 88.7266 127.724 85.7 127.724 81.9796C127.724 78.2592 124.697 75.2324 120.976 75.2324ZM120.976 84.654C119.501 84.654 118.301 83.4543 118.301 81.9793C118.301 80.5044 119.501 79.3044 120.976 79.3044C122.452 79.3044 123.652 80.5044 123.652 81.9793C123.652 83.4543 122.452 84.654 120.976 84.654Z" fill="#F3F3F3"/>
</svg>
