<svg width="64" height="64" viewBox="0 0 64 64" fill="none" xmlns="http://www.w3.org/2000/svg">
<path fill-rule="evenodd" clip-rule="evenodd" d="M29.7157 0.0313885C29.4748 0.0596682 28.7425 0.140753 28.0885 0.211703C23.9586 0.659672 19.3852 2.2088 15.6948 4.40998C10.998 7.21129 7.18055 11.0274 4.37826 15.7226C2.19434 19.3815 0.743819 23.6336 0.151993 28.1119C-0.0506644 29.6452 -0.0506644 34.3368 0.151993 35.8701C0.743819 40.3484 2.19434 44.6005 4.37826 48.2594C7.18055 52.9546 10.998 56.7707 15.6948 59.572C24.089 64.5788 34.5734 65.3904 43.7979 61.7478C45.1999 61.1941 48.2076 59.6709 48.8185 59.2052C49.4465 58.7263 49.7914 57.8902 49.7051 57.0554C49.5743 55.7888 48.7217 54.9344 47.4586 54.8041C46.8261 54.7389 46.7207 54.7751 45.1093 55.614C40.8762 57.818 37.266 58.815 32.9077 58.9841C21.0156 59.4452 10.0362 51.7791 6.31972 40.4202C5.11704 36.7441 4.69871 33.1091 5.05971 29.4704C5.46828 25.3522 7.01419 20.7933 9.05942 17.6753C12.7083 12.1123 17.5868 8.29605 23.5367 6.35076C28.0926 4.86133 32.4378 4.58391 37.1636 5.4811C40.1005 6.03869 43.9686 7.56804 46.2896 9.08951C51.8545 12.7371 55.6721 17.6139 57.618 23.5618C60.1347 31.254 59.1778 39.1873 54.8806 46.2582C53.9411 47.804 53.8265 48.3724 54.2537 49.3653C54.6081 50.1888 55.3465 50.7393 56.2382 50.8449C56.7279 50.9028 56.9856 50.8552 57.53 50.606C58.1032 50.3438 58.3007 50.1573 58.7868 49.4197C62.8735 43.2187 64.6924 35.3813 63.7611 27.9868C62.5284 18.1986 56.8199 9.52559 48.2429 4.40998C44.62 2.24909 40.2997 0.768411 35.9745 0.205071C34.8767 0.0621708 30.4918 -0.0595818 29.7157 0.0313885ZM19.4858 19.0448C17.7743 19.5056 16.1957 20.7456 15.4562 22.2101C14.3269 24.4466 14.4994 26.3773 15.9068 27.2519C16.2819 27.4849 16.5596 27.5489 17.1983 27.5489C18.5828 27.5489 19.4252 26.7893 19.6943 25.2981C19.8679 24.3356 20.244 23.9257 20.9535 23.9257C21.663 23.9257 22.0391 24.3356 22.2128 25.2981C22.4818 26.7893 23.3242 27.5489 24.7087 27.5489C25.6742 27.5489 26.2965 27.2293 26.7937 26.4781C27.6909 25.1228 26.9989 22.3729 25.3446 20.7192C23.8071 19.1822 21.4632 18.5124 19.4858 19.0448ZM41.6417 19.0448C39.9302 19.5056 38.3516 20.7456 37.6121 22.2101C36.4828 24.4466 36.6553 26.3773 38.0627 27.2519C38.4378 27.4849 38.7155 27.5489 39.3542 27.5489C40.7387 27.5489 41.5812 26.7893 41.8502 25.2981C42.0238 24.3356 42.3999 23.9257 43.1094 23.9257C43.8189 23.9257 44.195 24.3356 44.3687 25.2981C44.6377 26.7893 45.4801 27.5489 46.8646 27.5489C47.8301 27.5489 48.4524 27.2293 48.9496 26.4781C49.8468 25.1228 49.1548 22.3729 47.5005 20.7192C45.963 19.1822 43.6191 18.5124 41.6417 19.0448ZM21.731 32.6313C21.1396 32.8039 20.3697 33.6238 20.1939 34.268C19.9351 35.2171 20.2236 37.9468 20.8301 40.2853C22.2027 45.579 25.0177 49.7071 28.4319 51.4333C28.7929 51.6158 29.5534 51.8766 30.1218 52.0129C34.5928 53.0844 38.8354 50.3322 41.5296 44.6129C42.9635 41.569 43.7747 38.3194 43.7901 35.5573C43.7971 34.3187 43.7681 34.133 43.5008 33.7032C43.3375 33.4404 42.9755 33.0744 42.6963 32.8898L42.189 32.5541L32.1659 32.5326C26.0619 32.5196 21.9817 32.5581 21.731 32.6313ZM38.5314 37.8409C38.1595 39.5149 37.741 40.805 37.0398 42.4395C36.2543 44.2705 34.576 46.3239 33.4084 46.8826C32.5442 47.2962 31.3936 47.2962 30.5294 46.8826C29.3617 46.3239 27.6834 44.2705 26.8979 42.4395C26.1967 40.805 25.7782 39.5149 25.4063 37.8409L25.3299 37.4968H31.9689H38.6079L38.5314 37.8409Z" fill="url(#paint0_linear_364_772)"/>
<defs>
<linearGradient id="paint0_linear_364_772" x1="32" y1="64" x2="32" y2="-14" gradientUnits="userSpaceOnUse">
<stop offset="0.551282" stop-color="white"/>
<stop offset="1" stop-color="white" stop-opacity="0"/>
</linearGradient>
</defs>
</svg>
