<svg width="54" height="58" viewBox="0 0 54 58" fill="none" xmlns="http://www.w3.org/2000/svg">
<path d="M37.6176 1.39424C37.0271 0.437969 35.7692 0.139507 34.8125 0.730022L33.761 1.37867C33.2973 1.66432 32.9732 2.11384 32.8477 2.64347C32.7223 3.17356 32.8107 3.72059 33.0963 4.18385L33.701 5.16346L19.8807 22.2728L16.962 24.0737C16.5491 24.3287 16.4209 24.8702 16.6759 25.2831C16.842 25.5523 17.13 25.7006 17.4248 25.7006C17.5818 25.7006 17.7415 25.6585 17.8853 25.5697L20.1837 24.1515L24.6629 31.4112C24.0157 31.3691 23.3702 31.5032 22.7838 31.8044C22.7733 31.8094 22.7632 31.8149 22.7527 31.8204C22.674 31.8621 22.5957 31.9056 22.5192 31.9527L19.8912 33.5823C19.6028 33.7613 19.3369 33.9728 19.0952 34.2095C18.8026 34.4956 18.5468 34.8183 18.3398 35.1708L17.6912 36.1486L17.2142 36.8663C17.2101 36.865 17.2055 36.8636 17.2018 36.8622C17.1945 36.859 17.1877 36.8554 17.1803 36.8522C17.1432 36.8357 17.1066 36.8174 17.0714 36.7977C17.0636 36.7936 17.0563 36.7894 17.049 36.7853C17.01 36.762 16.972 36.7368 16.9359 36.7098C16.9281 36.7043 16.9208 36.6983 16.9135 36.6924C16.8805 36.6668 16.848 36.6393 16.8173 36.61C16.8137 36.6063 16.8095 36.6031 16.8059 36.5995C16.7729 36.5674 16.7418 36.5326 16.712 36.4969C16.7056 36.4891 16.6997 36.4809 16.6933 36.4731C16.664 36.4356 16.636 36.3971 16.6109 36.3564L12.8128 30.2008C12.6334 29.9102 12.578 29.5673 12.6567 29.2354C12.7354 28.9031 12.9387 28.6216 13.2289 28.4426L14.366 27.7413C14.7789 27.4863 14.9075 26.9448 14.6526 26.5319C14.3976 26.1185 13.856 25.9903 13.4431 26.2453L12.3061 26.9466C11.6162 27.3723 11.1333 28.0411 10.946 28.8303C10.8257 29.3398 10.8385 29.8598 10.9767 30.3501L10.1312 30.8719C9.00009 31.57 8.64761 33.0582 9.3457 34.1898L11.4908 37.6665C11.8286 38.2145 12.3601 38.5976 12.9868 38.7464C13.1726 38.7903 13.3603 38.8123 13.5471 38.8123C13.9888 38.8123 14.4228 38.6901 14.8082 38.452L15.6551 37.9297C15.8318 38.0904 16.0254 38.2291 16.2332 38.3435L13.7929 42.0194L13.2175 42.4122C13.0975 42.3513 12.9657 42.3128 12.8275 42.3009C12.5446 42.2771 12.2699 42.3641 12.0534 42.5463L10.5391 43.8207C10.1862 43.5955 9.72336 43.5918 9.36081 43.839C9.34387 43.8509 9.32693 43.8628 9.31091 43.8756L0.785522 50.6052C0.286102 50.9993 0 51.5903 0 52.2261V54.964C0 56.1025 0.926514 57.029 2.06497 57.029H16.0112C16.6402 57.029 17.227 56.7479 17.6212 56.2572L18.7775 54.8185C18.9798 54.5868 19.0659 54.2902 19.0352 54.0023L20.5911 52.6926C20.7431 52.5649 20.8525 52.401 20.9138 52.2174L24.5004 52.9526C24.5535 52.9636 24.6071 52.9696 24.6611 52.9705C24.7659 52.9723 24.8703 52.9737 24.9747 52.9737C25.8247 52.9737 26.6693 52.8876 27.5569 52.3511L31.17 50.1992C31.2305 50.2028 31.2909 50.2051 31.3509 50.2051C31.8723 50.2051 32.3859 50.0618 32.8423 49.7826L35.7449 48.0083C37.0949 47.1834 37.5224 45.4137 36.6975 44.0638C36.416 43.6023 36.0178 43.2407 35.5472 43.0027C36.0027 42.1297 36.004 41.0453 35.4543 40.1453C35.0551 39.4921 34.4275 39.0316 33.6855 38.8457C33.8388 38.1417 33.7331 37.3804 33.3289 36.7185C32.9471 36.0927 32.3547 35.6469 31.6548 35.4459C31.8462 34.7107 31.7519 33.9019 31.3257 33.2038C31.2149 33.0225 31.0854 32.8577 30.9421 32.7076L48.3572 28.9168L48.9619 29.8964C49.3469 30.5204 50.0157 30.8641 50.7001 30.8641C51.0649 30.8641 51.4343 30.7666 51.7671 30.5611L52.8186 29.9125C53.2819 29.6264 53.6064 29.1773 53.7318 28.6472C53.8573 28.1176 53.7689 27.5705 53.4828 27.1068L37.6176 1.39424ZM13.8858 36.9561C13.737 37.0476 13.5617 37.076 13.3923 37.0357C13.2225 36.9954 13.0788 36.8915 12.9868 36.7432L10.8417 33.2665C10.6526 32.9602 10.7483 32.557 11.0545 32.3674L11.8002 31.9074L14.6315 36.4956L13.8858 36.9561ZM16.2506 55.1563C16.192 55.2295 16.105 55.2712 16.0112 55.2712H2.06497C1.8956 55.2712 1.75781 55.1334 1.75781 54.964V52.2261C1.75781 52.1314 1.80038 52.0435 1.87454 51.9849L9.87076 45.6728L17.0778 54.1272L16.2506 55.1563ZM18.0377 52.5438L11.716 45.1276L12.6521 44.3398L18.9267 51.7963L18.0377 52.5438ZM26.6528 50.8437C26.1163 51.1683 25.6128 51.2255 24.7733 51.2145L20.2702 50.2912C20.1636 50.2692 20.056 50.2674 19.9521 50.2843L14.4246 43.7163L14.9254 43.3744C14.9258 43.3744 14.9263 43.3739 14.9272 43.3735C14.9355 43.3675 14.9437 43.3606 14.9519 43.3547C14.9707 43.3405 14.9895 43.3263 15.0069 43.3112C15.0156 43.3034 15.0238 43.2952 15.032 43.2874C15.0499 43.2709 15.0664 43.254 15.0824 43.2361C15.0888 43.2293 15.0957 43.2219 15.1016 43.2146C15.1213 43.1908 15.1401 43.1665 15.157 43.1414C15.1588 43.1391 15.1607 43.1372 15.162 43.135L15.1662 43.129C15.1675 43.1267 15.1689 43.1244 15.1703 43.1221L19.8184 36.1216C19.8285 36.1065 19.8381 36.0909 19.8473 36.0753C20.0816 35.6702 20.4172 35.3251 20.8177 35.0765L23.4457 33.4468C23.4943 33.4166 23.5437 33.3896 23.5936 33.3645C23.616 33.353 23.6389 33.3434 23.6613 33.3329C23.6879 33.321 23.714 33.3091 23.741 33.2985C23.7717 33.2862 23.8023 33.2747 23.8339 33.2642C23.8499 33.2583 23.8664 33.2532 23.8829 33.2482C23.9214 33.2363 23.9603 33.2248 23.9992 33.2152H23.9996C24.1411 33.1809 24.2848 33.164 24.4281 33.163C24.4313 33.163 24.4345 33.163 24.4373 33.163C24.4794 33.163 24.521 33.1649 24.5627 33.1676C24.576 33.169 24.5892 33.1699 24.603 33.1713C24.64 33.1745 24.6767 33.1786 24.7133 33.1841C24.7348 33.1873 24.7568 33.1919 24.7787 33.196C24.8346 33.2065 24.89 33.2198 24.9445 33.2358C24.9655 33.2418 24.987 33.2473 25.0076 33.2537C25.0356 33.2633 25.0626 33.2738 25.09 33.2848C25.1115 33.293 25.1335 33.3013 25.1546 33.3104C25.1816 33.3219 25.2086 33.3347 25.2351 33.348C25.2553 33.358 25.275 33.3681 25.2942 33.3786C25.3207 33.3928 25.3473 33.4079 25.3734 33.424C25.3912 33.4349 25.4086 33.4464 25.426 33.4578C25.4521 33.4752 25.4782 33.4926 25.5034 33.5119C25.519 33.5233 25.5336 33.5357 25.5482 33.5476C25.5743 33.5682 25.6 33.5888 25.6247 33.6112C25.7446 33.7192 25.8499 33.8437 25.936 33.9843L26.0005 34.09L26.9376 35.6189L28.1136 37.5379L28.4125 38.0263C28.4409 38.0726 28.4642 38.1206 28.4821 38.1705C28.537 38.3207 28.5457 38.4845 28.5068 38.6466C28.4509 38.8796 28.304 39.0792 28.0934 39.2078L27.5647 39.531L27.5642 39.5314C27.5276 39.5534 27.4905 39.5722 27.4521 39.5887C27.4438 39.5923 27.4356 39.596 27.4274 39.5992C27.3894 39.6148 27.3509 39.6276 27.312 39.6376C27.3074 39.639 27.3024 39.6399 27.2978 39.6409C27.2612 39.6495 27.2246 39.656 27.188 39.6601C27.1806 39.661 27.1738 39.6619 27.1664 39.6628C27.1271 39.666 27.0877 39.6669 27.0488 39.6656C27.0415 39.6651 27.0341 39.6647 27.0268 39.6642C26.987 39.6614 26.9476 39.6569 26.9087 39.6491C26.9083 39.6486 26.9078 39.6486 26.9073 39.6486C26.8657 39.6399 26.8254 39.628 26.7856 39.6134C26.7819 39.612 26.7787 39.6111 26.7751 39.6097C26.6936 39.5786 26.6167 39.5346 26.5475 39.4783C26.5471 39.4783 26.5471 39.4779 26.5471 39.4779C26.5123 39.4495 26.4812 39.4193 26.4523 39.3872C26.45 39.3845 26.4478 39.3818 26.445 39.3786C26.4175 39.3465 26.3919 39.3131 26.3704 39.2774L25.4942 37.845C25.1678 37.3113 24.6501 36.9368 24.0363 36.7913C23.4073 36.6416 22.7554 36.7487 22.2015 37.0925C21.9786 37.2307 21.8294 37.461 21.7937 37.7205C21.7836 37.7956 21.7712 37.8693 21.758 37.9421C21.7479 37.9952 21.7365 38.0478 21.7245 38.1C21.7209 38.1174 21.7172 38.1353 21.7131 38.1527C21.6975 38.2186 21.6806 38.2836 21.6618 38.3477C21.6614 38.35 21.6605 38.3527 21.6595 38.3554C21.5611 38.6928 21.4229 39.0055 21.2453 39.2897C21.2448 39.2902 21.2448 39.2907 21.2448 39.2911C20.9175 39.8157 20.4552 40.2593 19.8491 40.6278C19.4344 40.88 19.3025 41.4206 19.5547 41.8354C19.807 42.2501 20.3476 42.3819 20.7623 42.1297C21.1903 41.8692 21.5698 41.5772 21.9017 41.2554L25.5721 47.0438C26.2482 48.0925 27.4168 48.7009 28.6258 48.7009C28.6899 48.7009 28.754 48.6977 28.8181 48.694C28.8432 48.7398 28.8689 48.7851 28.8963 48.8305C28.9998 48.9994 29.1188 49.155 29.2511 49.2965L26.6528 50.8437ZM27.3985 44.3819C27.3985 44.3824 27.399 44.3828 27.399 44.3833C27.4136 44.4245 27.4297 44.4648 27.4466 44.5055C27.4484 44.5101 27.4503 44.5151 27.4525 44.5202C27.4677 44.5568 27.4841 44.5929 27.5011 44.6291C27.5052 44.6369 27.5084 44.6456 27.5125 44.6538C27.5285 44.6877 27.5464 44.7211 27.5638 44.7545C27.5693 44.7646 27.5739 44.7747 27.5793 44.7843C27.6027 44.8273 27.6274 44.8699 27.653 44.912C27.697 44.9843 27.7451 45.0534 27.7945 45.1207C27.8123 45.1445 27.8307 45.1679 27.849 45.1912C27.8815 45.2324 27.9149 45.2723 27.9492 45.3116C27.9735 45.3391 27.9973 45.3675 28.0225 45.394C28.0412 45.4142 28.0618 45.4325 28.0815 45.4522C28.1525 45.5231 28.2266 45.5899 28.3044 45.6531C28.3127 45.6595 28.3205 45.6664 28.3287 45.6723C28.4798 45.7923 28.6418 45.8962 28.8144 45.9836C28.6555 46.2825 28.5507 46.6066 28.504 46.9403C27.9245 46.9042 27.3761 46.5989 27.0529 46.0971L23.0122 39.7246C23.1995 39.3378 23.3437 38.9249 23.4416 38.485C23.5043 38.4813 23.5675 38.4868 23.6298 38.5015C23.7845 38.5381 23.914 38.631 23.9946 38.7624L24.8708 40.1947C24.8721 40.1966 24.8735 40.1984 24.8749 40.2007C24.9179 40.2707 24.9641 40.3385 25.014 40.4039C25.0507 40.452 25.09 40.4969 25.1294 40.5417C25.1431 40.5573 25.1555 40.5742 25.1697 40.5898C25.1715 40.5976 25.1738 40.6054 25.1756 40.6131C25.1894 40.674 25.2049 40.7344 25.2223 40.7944C25.2278 40.8118 25.2328 40.8292 25.2379 40.8466C25.2594 40.9143 25.2823 40.9816 25.3088 41.0476C25.3111 41.0544 25.3143 41.0608 25.3171 41.0672C25.3413 41.1277 25.3683 41.1867 25.3972 41.2453C25.4054 41.2622 25.4137 41.2792 25.4224 41.2957C25.4553 41.3598 25.4897 41.4229 25.5272 41.4852C25.9259 42.138 26.5526 42.5975 27.2932 42.7843C27.1788 43.308 27.2108 43.8623 27.3985 44.3819ZM27.9593 33.9216L28.2545 33.7412C28.515 33.5819 28.8217 33.5338 29.1188 33.6052C29.4154 33.6771 29.6663 33.8598 29.8251 34.1202C30.1534 34.6576 29.9835 35.3621 29.4461 35.6903L29.1527 35.8698L28.2838 34.4521L27.9593 33.9216ZM34.5094 44.479C34.7983 44.5485 35.0423 44.7266 35.1974 44.9802C35.517 45.5034 35.3513 46.1892 34.828 46.5091L31.9254 48.2834C31.6924 48.4258 31.4214 48.4757 31.1545 48.429C31.1394 48.4258 31.1238 48.4221 31.1082 48.4198C31.1005 48.418 31.0922 48.4171 31.0844 48.4153C30.7951 48.3457 30.5511 48.1676 30.396 47.914C30.3264 47.8 30.2815 47.6787 30.2563 47.5551C30.2559 47.5515 30.2559 47.5483 30.255 47.5451C30.1854 47.1839 30.3017 46.8149 30.5498 46.5586C30.5566 46.5517 30.563 46.5444 30.5699 46.538C30.5827 46.5256 30.596 46.5137 30.6093 46.5018C30.6226 46.4899 30.6363 46.478 30.6509 46.467C30.6615 46.4583 30.6715 46.4501 30.6825 46.4418C30.7086 46.4226 30.7347 46.4043 30.7626 46.3869C30.7635 46.3865 30.7645 46.386 30.7649 46.3855L31.3417 46.0331C31.4433 45.9859 31.5431 45.9342 31.6402 45.8751L33.8608 44.5174C34.0668 44.4405 34.2906 44.4263 34.5094 44.479ZM32.4875 40.6264C32.7237 40.5133 32.9892 40.485 33.2474 40.5472C33.544 40.6186 33.7949 40.8017 33.9542 41.0622C34.2824 41.5996 34.1121 42.3037 33.5751 42.6319L33.0524 42.9514C32.9498 42.9985 32.8491 43.0516 32.7516 43.1112L30.5424 44.4611C30.13 44.6231 29.6658 44.5279 29.3504 44.2368C29.35 44.2363 29.35 44.2363 29.35 44.2363C29.3253 44.2135 29.3019 44.1901 29.2795 44.1649C29.2735 44.1581 29.268 44.1507 29.2621 44.1439C29.2456 44.1246 29.2291 44.1054 29.2136 44.0848C29.192 44.056 29.1719 44.0262 29.1527 43.9956C29.1335 43.9635 29.1161 43.9315 29.1 43.8985C29.095 43.888 29.0909 43.8775 29.0858 43.8665C29.0758 43.844 29.0657 43.8211 29.057 43.7978C29.0524 43.7854 29.0488 43.7735 29.0446 43.7612C29.0373 43.7388 29.0305 43.7168 29.0245 43.6943C29.0213 43.682 29.0181 43.6692 29.0154 43.6568C29.0103 43.6344 29.0057 43.6115 29.0016 43.5881C28.9998 43.5762 28.998 43.5643 28.9961 43.5524C28.9929 43.5286 28.9906 43.5048 28.9893 43.481C28.9883 43.4696 28.9874 43.4581 28.987 43.4467C28.9861 43.422 28.9861 43.3973 28.987 43.373C28.987 43.362 28.987 43.3515 28.9879 43.341C28.9888 43.3158 28.992 43.2911 28.9948 43.2663C28.9961 43.2558 28.9966 43.2453 28.9984 43.2348C29.0016 43.2128 29.0062 43.1908 29.0108 43.1688C29.0607 42.9335 29.1838 42.7134 29.377 42.5444C29.3848 42.5376 29.3916 42.5293 29.3994 42.5225C29.4104 42.5129 29.4209 42.5032 29.4324 42.4941C29.4598 42.4785 29.4878 42.4643 29.5148 42.4479L32.3666 40.7047C32.4078 40.6795 32.4481 40.6534 32.4875 40.6264ZM31.122 37.1199C31.4186 37.1914 31.6695 37.3745 31.8288 37.6349C32.1346 38.1357 32.0073 38.7816 31.5536 39.1332C31.5244 39.1492 31.4955 39.1657 31.4667 39.1831L29.2648 40.5289C29.2722 40.5234 29.279 40.517 29.2863 40.5111C29.3285 40.4776 29.3706 40.4438 29.4099 40.4081C29.4347 40.3861 29.458 40.3627 29.4818 40.3399C29.5175 40.3051 29.5532 40.2698 29.5871 40.2327C29.6104 40.208 29.6324 40.1819 29.6544 40.1563C29.686 40.1188 29.7171 40.0812 29.7464 40.0423C29.767 40.0153 29.7876 39.9878 29.8073 39.9595C29.8352 39.9196 29.8618 39.8789 29.8878 39.8372C29.9057 39.8084 29.9236 39.78 29.94 39.7507C29.9652 39.7068 29.9881 39.6614 30.0105 39.6161C30.0247 39.5873 30.0398 39.5594 30.0526 39.5301C30.0755 39.4793 30.0957 39.4271 30.1158 39.3744C30.125 39.3493 30.136 39.3245 30.1447 39.2989C30.1717 39.2197 30.1959 39.1396 30.2156 39.0577C30.2344 38.9794 30.249 38.9006 30.2605 38.8219C30.2641 38.7967 30.266 38.7716 30.2692 38.7464C30.2756 38.6924 30.2806 38.6388 30.2838 38.5848C30.2852 38.5555 30.2856 38.5262 30.2861 38.4969C30.2875 38.4465 30.287 38.3966 30.2852 38.3468C30.2843 38.317 30.2824 38.2872 30.2806 38.2575C30.2769 38.2071 30.271 38.1568 30.2646 38.1069C30.2609 38.079 30.2577 38.051 30.2531 38.0236C30.2435 37.9668 30.2316 37.911 30.2179 37.8551C30.2133 37.835 30.2097 37.8144 30.2046 37.7942C30.1845 37.7187 30.1616 37.6441 30.1346 37.5704C30.1291 37.5562 30.1227 37.542 30.1167 37.5274C30.0975 37.4779 30.0787 37.428 30.0563 37.3795L30.2582 37.2559C30.5186 37.0966 30.8253 37.0485 31.122 37.1199ZM52.0212 28.2425C52.0111 28.2846 51.9814 28.3634 51.8953 28.4165L50.8438 29.0656C50.7124 29.1466 50.5389 29.1059 50.4575 28.974L39.3874 11.0325C39.1328 10.6195 38.5913 10.4914 38.1779 10.7459C37.765 11.0009 37.6369 11.5424 37.8918 11.9553L47.379 27.3311L26.9545 31.7774L21.5451 23.0098L34.6797 6.74961L35.7408 8.46989C35.9958 8.88279 36.5373 9.01097 36.9502 8.75645C37.3636 8.50148 37.4918 7.95994 37.2368 7.54658L34.5923 3.261C34.5392 3.17494 34.5479 3.09117 34.558 3.04905C34.568 3.00648 34.5978 2.92775 34.6838 2.87464L35.7353 2.22599C35.8672 2.14451 36.0402 2.18571 36.1217 2.31755L51.9868 28.0306C52.0399 28.1166 52.0312 28.2004 52.0212 28.2425Z" fill="#F1CA16"/>
</svg>
