<svg width="60" height="60" viewBox="0 0 60 60" fill="none" xmlns="http://www.w3.org/2000/svg">
<path d="M30 33.1553C29.5146 33.1553 29.1211 33.5487 29.1211 34.0342V44.5811C29.1211 45.0666 29.5146 45.46 30 45.46C30.4854 45.46 30.8789 45.0666 30.8789 44.5811V34.0342C30.8789 33.5487 30.4854 33.1553 30 33.1553Z" fill="#F1CA16"/>
<path d="M58.9453 34.9129C59.4307 34.9129 59.8242 34.5195 59.8242 34.034V7.43504C59.8242 5.9102 58.1064 4.89489 56.768 5.64758L56.1708 5.98344L53.351 3.11821C53.1369 2.90082 52.8253 2.81 52.5282 2.87797C52.4135 2.90422 50.523 3.34496 47.7846 4.38946V0.878752C47.7846 0.588361 47.6412 0.316721 47.4014 0.15301C47.1616 -0.0105841 46.8564 -0.0452716 46.586 0.06008C38.3701 3.26914 34.0655 8.32637 31.9011 12.0037C31.0226 13.4966 30.4163 14.882 30 16.0408C29.5837 14.882 28.9774 13.4966 28.0989 12.0037C25.9345 8.32637 21.6299 3.26914 13.414 0.06008C13.1436 -0.0452716 12.8384 -0.0107013 12.5986 0.15301C12.3588 0.316721 12.2154 0.588478 12.2154 0.878752V4.38899C9.48293 3.34707 7.59316 2.90586 7.47164 2.87809C7.1741 2.81012 6.86285 2.90082 6.64887 3.11832L3.8291 5.98356L3.23191 5.64758C1.90289 4.90028 0.175781 5.89953 0.175781 7.43504V44.373C0.175781 45.1128 0.576328 45.7975 1.22109 46.1605L23.8773 58.9046C24.3709 59.1256 24.9904 59.2399 25.5112 59.0698C25.8779 59.6291 26.5093 59.9998 27.2265 59.9998H32.7734C33.4905 59.9998 34.122 59.6291 34.4886 59.0698C35.0448 59.2467 35.5894 59.1916 36.1226 58.9046L58.7789 46.1604C59.4236 45.7975 59.8241 45.1128 59.8241 44.373V39.6589C59.8241 38.5225 58.0663 38.5225 58.0663 39.6589V44.373C58.0663 44.4787 58.009 44.5766 57.917 44.6284L35.2607 57.3725C35.0175 57.4544 34.872 57.3692 34.824 57.1171V20.6657C34.7917 20.4904 34.7854 20.0298 34.9733 19.9239L57.6295 7.17981C57.8728 7.09801 58.0184 7.18309 58.0663 7.43516V34.0341C58.0664 34.5194 58.4598 34.9129 58.9453 34.9129ZM46.0268 2.1916V5.09879C45.1965 5.45246 44.3173 5.85371 43.4073 6.30699C40.1978 7.90567 36.1835 10.3875 32.8324 13.9496C33.0109 13.6063 33.2046 13.2542 33.416 12.8953C35.3325 9.6391 39.0566 5.22078 46.0268 2.1916ZM33.0663 26.609H26.9336V24.4606H33.0663V26.609ZM26.9336 28.3668H33.0663V50.2479H26.9336V28.3668ZM26.9336 52.0057H33.0663V54.1542H26.9336V52.0057ZM33.0663 22.7028H26.9336V20.6656C26.9336 20.504 27.065 20.3727 27.2265 20.3727H32.7734C32.9348 20.3727 33.0663 20.504 33.0663 20.6656V22.7028ZM7.54793 4.71067C8.82598 5.0518 12.5525 6.15067 16.7157 8.34512C17.6857 8.85629 18.5384 7.31879 17.5354 6.79004C16.2894 6.13332 15.0875 5.5734 13.9731 5.09856V2.1916C20.9037 5.20332 24.6203 9.58778 26.5386 12.8188C26.7628 13.1963 26.9672 13.5665 27.1552 13.9278C25.7752 12.4595 24.1948 11.0796 22.4179 9.79953C21.4961 9.13508 20.4683 10.5615 21.3904 11.2257C24.4252 13.412 26.8521 15.8929 28.6257 18.6151C27.6056 18.5315 26.733 18.8673 25.888 18.392L5.41664 6.87653L7.54793 4.71067ZM25.0307 57.3702C24.9335 57.3718 24.8364 57.3726 24.7391 57.3726L2.08289 44.6285C1.99078 44.5767 1.93348 44.4788 1.93348 44.373V7.43504C1.93348 7.2009 2.19223 7.07985 2.37012 7.17969L25.0263 19.9237C25.2144 20.0298 25.2081 20.4901 25.1757 20.6656V57.1171C25.1757 57.2634 25.0848 57.3384 25.0307 57.3702ZM33.0663 57.9491C33.0663 58.1107 32.9348 58.242 32.7734 58.242H27.2265C27.065 58.242 26.9336 58.1107 26.9336 57.9491V55.912H33.0663V57.9491ZM34.1116 18.3917C33.2511 18.8758 32.4146 18.5431 31.3753 18.6148C34.817 13.3428 40.1426 9.90184 44.1516 7.90004C47.9474 6.00465 51.2617 5.02906 52.4521 4.71078L54.5832 6.87641L34.1116 18.3917Z" fill="#F1CA16"/>
<path d="M54.2131 15.348L37.8061 24.723C37.5324 24.8795 37.3633 25.1707 37.3633 25.4862V31.1523C37.3633 31.8155 38.1025 32.2446 38.6782 31.9154L55.0851 22.5404C55.3589 22.384 55.5279 22.0928 55.5279 21.7773V16.1112C55.5279 15.4956 54.8198 15.0011 54.2131 15.348ZM53.7701 21.2672L39.1211 29.6377V25.9962L53.7701 17.6256V21.2672Z" fill="#F1CA16"/>
</svg>
