<svg width="58" height="60" viewBox="0 0 58 60" fill="none" xmlns="http://www.w3.org/2000/svg">
<path d="M4.21863 21.3992H5.16703V22.3476C5.16703 22.8395 5.5657 23.2381 6.05754 23.2381C6.54938 23.2381 6.94805 22.8395 6.94805 22.3476V21.3992H7.89645C8.38828 21.3992 8.78695 21.0005 8.78695 20.5087C8.78695 20.0169 8.38828 19.6182 7.89645 19.6182H6.94805V18.6698C6.94805 18.178 6.54938 17.7793 6.05754 17.7793C5.5657 17.7793 5.16703 18.178 5.16703 18.6698V19.6182H4.21863C3.7268 19.6182 3.32812 20.0169 3.32812 20.5087C3.32812 21.0005 3.7268 21.3992 4.21863 21.3992Z" fill="#F1CA16" stroke="#F1CA16" stroke-width="0.5"/>
<path d="M54.6316 25.912C54.6316 25.4202 54.233 25.0215 53.7411 25.0215C53.2493 25.0215 52.8506 25.4202 52.8506 25.912V26.8605H51.9022C51.4104 26.8605 51.0117 27.2592 51.0117 27.751C51.0117 28.2429 51.4104 28.6415 51.9022 28.6415H52.8506V29.5899C52.8506 30.0818 53.2493 30.4804 53.7411 30.4804C54.233 30.4804 54.6316 30.0818 54.6316 29.5899V28.6415H55.58C56.0719 28.6415 56.4705 28.2429 56.4705 27.751C56.4705 27.2592 56.0719 26.8605 55.58 26.8605H54.6316V25.912Z" fill="#F1CA16" stroke="#F1CA16" stroke-width="0.5"/>
<path d="M40.2479 3.6198H41.1963V4.5682C41.1963 5.06004 41.595 5.45871 42.0868 5.45871C42.5787 5.45871 42.9773 5.06004 42.9773 4.5682V3.6198H43.9257C44.4176 3.6198 44.8162 3.22113 44.8162 2.7293C44.8162 2.23746 44.4176 1.83879 43.9257 1.83879H42.9773V0.890508C42.9773 0.398672 42.5787 0 42.0868 0C41.595 0 41.1963 0.398672 41.1963 0.890508V1.83891H40.2479C39.7561 1.83891 39.3574 2.23758 39.3574 2.72941C39.3574 3.22125 39.7561 3.6198 40.2479 3.6198Z" fill="#F1CA16" stroke="#F1CA16" stroke-width="0.5"/>
<path d="M13.1157 16.1551L19.5781 28.895C18.4054 29.3994 17.5821 30.5657 17.5821 31.9211C17.5821 33.7367 19.0591 35.2137 20.8746 35.2137H43.1042C44.9197 35.2137 46.3967 33.7366 46.3967 31.9211C46.3967 30.5657 45.5734 29.3995 44.4008 28.8951L46.3743 25.0045C46.5969 24.566 46.4217 24.0301 45.983 23.8075C45.5448 23.5851 45.0086 23.7601 44.786 24.1988L42.5389 28.6286H21.44L14.9188 15.7728C15.2498 15.6127 15.5546 15.4066 15.8253 15.1634L22.4803 21.2408C23.3943 22.0756 24.8473 21.8578 25.4748 20.7873L29.7726 13.4544C30.2154 12.6991 30.0973 11.7343 29.4857 11.1082L28.1166 9.70637C28.0586 9.64695 28.0532 9.55262 28.1042 9.48699L31.9548 4.52773C31.9597 4.52141 31.968 4.51074 31.9895 4.51074C32.0109 4.51074 32.0192 4.52141 32.0243 4.52773L35.8748 9.48699C35.9258 9.55262 35.9204 9.64684 35.8624 9.70637L34.4934 11.1078C33.8818 11.7342 33.7638 12.699 34.2064 13.454L38.5044 20.7871C39.1306 21.8553 40.5827 22.0769 41.4987 21.2405L48.1538 15.1633C48.4246 15.4065 48.7293 15.6125 49.0604 15.7727L46.7308 20.3653C46.5083 20.8038 46.6835 21.3397 47.1221 21.5622C47.56 21.7844 48.0962 21.6103 48.3192 21.1709L50.8636 16.1551C52.9517 16.0929 54.6316 14.3761 54.6316 12.2731C54.6316 10.1309 52.8888 8.38812 50.7466 8.38812C48.6044 8.38812 46.8616 10.1309 46.8616 12.2731C46.8616 12.772 46.9571 13.2487 47.1293 13.6872L40.2979 19.9255C40.2202 19.9966 40.0955 19.9796 40.0411 19.8867L35.7431 12.5536C35.7051 12.4887 35.7153 12.4059 35.7677 12.3522L37.1368 10.9505C37.8131 10.258 37.8754 9.1591 37.2818 8.39457L33.4313 3.43531C33.083 2.98684 32.5577 2.72949 31.9898 2.72949C31.4219 2.72949 30.8966 2.98684 30.5483 3.43531L26.6977 8.39457C26.1042 9.15922 26.1665 10.258 26.8428 10.9505L28.212 12.3525C28.2644 12.406 28.2745 12.4889 28.2365 12.5537L23.9387 19.8866C23.8843 19.9795 23.7598 19.9968 23.6817 19.9255L16.8504 13.6871C17.0224 13.2485 17.1179 12.7719 17.1179 12.273C17.1179 10.1308 15.3751 8.38801 13.2329 8.38801C11.0907 8.38801 9.34766 10.1309 9.34766 12.2731C9.34766 14.3761 11.0275 16.0929 13.1157 16.1551ZM50.7465 10.169C51.9066 10.169 52.8505 11.1129 52.8505 12.273C52.8505 13.433 51.9066 14.3769 50.7465 14.3769C49.5863 14.3769 48.6425 13.433 48.6425 12.273C48.6425 11.1129 49.5863 10.169 50.7465 10.169ZM43.1045 33.4327H20.8747C20.0413 33.4327 19.3632 32.7547 19.3632 31.9211C19.3632 31.0877 20.0413 30.4096 20.8747 30.4096H20.8905C20.8917 30.4096 20.8927 30.4099 20.8939 30.4099C20.8952 30.4099 20.8966 30.4096 20.8979 30.4096H43.0812C43.0825 30.4096 43.0839 30.4099 43.0852 30.4099C43.0864 30.4099 43.0875 30.4096 43.0886 30.4096H43.1043C43.9378 30.4096 44.6158 31.0877 44.6158 31.9211C44.6159 32.7546 43.9379 33.4327 43.1045 33.4327ZM13.2327 10.169C14.3928 10.169 15.3366 11.1129 15.3366 12.273C15.3366 13.433 14.3928 14.3769 13.2327 14.3769C12.0725 14.3769 11.1287 13.433 11.1287 12.273C11.1287 11.1129 12.0725 10.169 13.2327 10.169Z" fill="#F1CA16" stroke="#F1CA16" stroke-width="0.5"/>
<path d="M56.9999 43.1798C55.8909 41.5499 54.011 41.1515 51.9691 42.1121L37.5135 48.4771L37.522 47.3017C37.5223 47.2701 37.5209 47.2386 37.5177 47.2071C37.2681 44.6971 35.3494 42.6973 32.8519 42.3439C32.8443 42.3427 32.8366 42.3418 32.829 42.3408L23.2642 41.2397C21.2436 40.9519 20.2561 40.2836 18.3615 39.1749C15.642 37.5839 12.5449 36.7333 9.39586 36.7069V36.2097C9.39586 34.8119 8.25867 33.6748 6.86098 33.6748H2.8923C1.49461 33.6748 0.357422 34.8119 0.357422 36.2097V39.085C0.357422 39.5768 0.756094 39.9755 1.24793 39.9755C1.73977 39.9755 2.13844 39.5768 2.13844 39.085V36.2097C2.13844 35.794 2.47664 35.4558 2.8923 35.4558H6.86109C7.27676 35.4558 7.61496 35.794 7.61496 36.2097V56.3453C7.61496 56.761 7.27676 57.0992 6.86109 57.0992H2.8923C2.47664 57.0992 2.13844 56.761 2.13844 56.3453V43.3836C2.13844 42.8917 1.73977 42.493 1.24793 42.493C0.756094 42.493 0.357422 42.8917 0.357422 43.3836V56.3453C0.357422 57.7431 1.49461 58.8802 2.8923 58.8802H6.86109C8.25879 58.8802 9.39598 57.7431 9.39598 56.3453V56.1362L18.0186 59.3457C19.1849 59.7798 20.4074 59.9999 21.652 59.9999H34.552C36.5292 59.9999 38.4571 59.4406 40.1269 58.3823L56.2788 48.1475C56.3194 48.1218 56.3577 48.093 56.3936 48.0612C57.7894 46.8216 58.0501 44.723 56.9999 43.1798ZM55.2589 46.6853L39.1736 56.8779C37.7892 57.7552 36.1911 58.2189 34.552 58.2189H21.652C20.6202 58.2189 19.6068 58.0364 18.64 57.6764L9.39598 54.2357V38.4879C12.2293 38.5143 15.0155 39.2808 17.4625 40.7121C19.4408 41.8691 20.6454 42.6678 23.0262 43.0047C23.0338 43.0059 23.0414 43.0068 23.049 43.0077L32.6134 44.1088C34.2757 44.3489 35.5549 45.6726 35.7408 47.3387L35.7291 48.9562H26.835C26.3432 48.9562 25.9445 49.3548 25.9445 49.8467C25.9445 50.3385 26.3432 50.7372 26.835 50.7372H36.6131C36.7268 50.7372 36.8543 50.7128 36.9686 50.663C36.9697 50.6625 36.9708 50.6623 36.972 50.6617L52.6975 43.7376C52.7047 43.7343 52.7121 43.731 52.7193 43.7276C53.5819 43.3196 54.7692 43.0673 55.5274 44.1818C56.0633 44.9691 55.9453 46.0335 55.2589 46.6853Z" fill="#F1CA16" stroke="#F1CA16" stroke-width="0.5"/>
</svg>
