<svg width="60" height="60" viewBox="0 0 60 60" fill="none" xmlns="http://www.w3.org/2000/svg">
<path d="M29.895 7.62422C30.5468 7.62422 31.0752 7.09582 31.0752 6.44402V1.1802C31.0752 0.528398 30.5468 0 29.895 0C29.2432 0 28.7148 0.528398 28.7148 1.1802V6.44402C28.715 7.09582 29.2434 7.62422 29.895 7.62422Z" fill="#F1CA16"/>
<path d="M58.7435 40.5447L56.6586 38.4657C55.9169 37.725 54.9284 37.3169 53.8752 37.3169C53.2017 37.3169 52.5552 37.4845 51.9822 37.7984L48.0534 33.8743L48.2448 33.6832C49.8386 32.0861 49.838 29.491 48.2446 27.8994C47.6752 27.3289 46.9647 26.9485 46.1902 26.7884C46.2969 26.4203 46.353 26.0348 46.353 25.6402C46.353 24.5439 45.9271 23.516 45.1563 22.7483C44.5868 22.1778 43.8764 21.7974 43.1019 21.6373C43.2085 21.2693 43.2646 20.8838 43.2646 20.4891C43.2646 19.3927 42.8388 18.3649 42.0666 17.596C41.4835 17.0136 40.7667 16.6449 40.014 16.488C40.4166 15.0997 40.0726 13.5377 38.9804 12.4436C38.0713 11.5384 36.8376 11.1493 35.6487 11.2754L27.8634 9.80175C26.6761 9.57652 25.1933 9.42757 24.2573 10.2813C24.1982 10.3352 24.138 10.3972 24.0787 10.4662C22.6275 9.93722 20.9348 10.2522 19.7727 11.4131C19.0017 12.1831 18.577 13.2106 18.577 14.3063C18.577 14.701 18.6329 15.0864 18.7394 15.4546C17.9657 15.6146 17.2562 15.9945 16.6886 16.5631C15.9161 17.3325 15.4902 18.3588 15.4893 19.4532C15.489 19.8488 15.5451 20.2355 15.6522 20.6047C14.8782 20.7643 14.1682 21.1435 13.5989 21.7121C12.8264 22.4838 12.401 23.5119 12.401 24.607C12.401 25.4458 12.6514 26.2449 13.1155 26.9199C12.5295 27.1185 11.9928 27.4491 11.5434 27.8981C9.94848 29.491 9.94789 32.0862 11.5445 33.6856L11.7351 33.8755L7.80582 37.7976C6.34555 37.1101 4.54637 37.3677 3.34133 38.5712L1.25516 40.6515C0.513125 41.3926 0.104609 42.3812 0.104492 43.435C0.104492 44.489 0.513125 45.4777 1.25516 46.2189L3.85871 48.8193C4.31984 49.28 5.06715 49.2795 5.5277 48.8184C5.98836 48.3573 5.98789 47.61 5.52676 47.1494L2.9232 44.549C2.62766 44.2538 2.46488 43.8582 2.46488 43.4352C2.46488 43.0122 2.62766 42.6167 2.9225 42.3222L5.00879 40.2418C5.53004 39.7211 6.32785 39.6435 6.93371 40.0058C6.97637 40.0699 7.0257 40.1308 7.08219 40.1874C7.18332 40.2888 7.29875 40.3665 7.42133 40.4233L19.3854 52.3698C19.4422 52.4936 19.5202 52.6102 19.6221 52.7122C19.7212 52.8114 19.8343 52.8882 19.9543 52.9447C20.2073 53.2307 20.3471 53.5961 20.3471 53.9859C20.3471 54.4089 20.1843 54.8044 19.8888 55.0996L17.8046 57.1814C17.1888 57.7945 16.1871 57.7944 15.5731 57.1832L12.9696 54.5794C12.5087 54.1185 11.7615 54.1185 11.3006 54.5794C10.8397 55.0403 10.8397 55.7875 11.3006 56.2484L13.906 58.8541C14.6729 59.6178 15.68 59.9995 16.6876 59.9995C17.6954 59.9995 18.7037 59.6172 19.4715 58.8528L21.557 56.7698C22.299 56.0286 22.7076 55.04 22.7076 53.9859C22.7076 53.2337 22.4984 52.5153 22.1095 51.8959L26.5317 47.4791C26.5364 47.4743 26.5411 47.4694 26.5459 47.4646C27.0522 46.9412 28.4623 47.0391 29.8261 47.1338C30.795 47.2012 31.8752 47.2761 32.9306 47.1544L37.7732 51.9914C37.4595 52.5634 37.2921 53.2091 37.2921 53.8815C37.2921 54.9344 37.7007 55.9224 38.4427 56.6636L40.5283 58.7466C41.2699 59.4874 42.2584 59.8954 43.3116 59.8954C44.3648 59.8954 45.3533 59.4875 46.095 58.7466L58.7443 46.1126C59.4863 45.3716 59.895 44.383 59.895 43.329C59.8948 42.2751 59.4862 41.2865 58.7435 40.5447ZM27.4239 12.1209L32.5435 13.0899L29.4792 16.1531C29.0052 15.9253 28.3555 15.5003 27.6427 14.8185C26.6671 13.8853 25.9693 12.8077 25.9058 12.1357C25.9057 12.1353 25.9057 12.135 25.9057 12.1346C25.9057 12.1345 25.9055 12.1344 25.9055 12.1343C25.901 12.086 25.8998 12.0474 25.9004 12.018C26.0547 11.9805 26.4646 11.9389 27.4239 12.1209ZM21.4406 13.0831C22.0385 12.4858 22.9673 12.4169 23.6429 12.8744C24.0257 14.4796 25.3951 15.9345 26.0111 16.524C26.4677 16.9609 27.9327 18.2707 29.4113 18.6307C29.6114 18.9174 29.7202 19.2593 29.7202 19.62C29.7202 20.0846 29.5415 20.519 29.2159 20.8443C28.8911 21.1696 28.456 21.3487 27.9905 21.3487C27.525 21.3487 27.0898 21.1696 26.7636 20.8428L26.7635 20.8427L26.7629 20.8421L21.4405 15.5293C21.116 15.2053 20.9373 14.7709 20.9373 14.3063C20.9374 13.8417 21.1161 13.4073 21.4406 13.0831ZM18.3567 18.2332C18.6814 17.908 19.1161 17.7288 19.5808 17.7288C20.0462 17.7288 20.4822 17.9083 20.8091 18.2348L25.0948 22.512C25.7697 23.188 25.7697 24.2879 25.0972 24.9615C24.7707 25.2867 24.3341 25.4657 23.8678 25.4657C23.4015 25.4657 22.9648 25.2867 22.6398 24.9629L22.6396 24.9628L19.3883 21.7121C19.3832 21.7071 19.3777 21.7024 19.3726 21.6972L18.3554 20.6805C18.029 20.3545 17.8494 19.9193 17.8497 19.455C17.8502 18.9922 18.0293 18.5592 18.3567 18.2332ZM15.2669 23.3821C15.5919 23.0577 16.0275 22.8789 16.4936 22.8789C16.9559 22.8789 17.3878 23.0551 17.7113 23.3739L20.9727 26.6337C21.2979 26.9577 21.477 27.3916 21.477 27.8557C21.477 28.3196 21.2979 28.7535 20.9714 29.0787C20.6465 29.4031 20.2114 29.5818 19.7461 29.5818C19.28 29.5818 18.8435 29.4027 18.5182 29.0787L17.3359 27.8978C17.3356 27.8975 17.3353 27.8973 17.335 27.897L15.267 25.8315C14.941 25.5058 14.7615 25.0708 14.7615 24.6068C14.7615 24.1428 14.941 23.7077 15.2669 23.3821ZM13.2114 29.568C13.5378 29.242 13.974 29.0625 14.4396 29.0625C14.905 29.0625 15.3411 29.2419 15.6673 29.5676L16.8513 30.7502C17.1766 31.0741 17.3557 31.508 17.3557 31.9721C17.3557 32.4362 17.1765 32.87 16.8488 33.1965C16.5241 33.5217 16.089 33.7009 15.6235 33.7009C15.1579 33.7009 14.7228 33.5218 14.3957 33.1941L14.2475 33.0465C14.2455 33.0445 14.244 33.0424 14.2421 33.0405C14.2399 33.0384 14.2375 33.0365 14.2353 33.0344L13.2126 32.0157C12.5377 31.3394 12.5371 30.2415 13.2114 29.568ZM37.2623 42.981C36.8016 42.5198 36.0543 42.5194 35.5933 42.98L34.5433 44.0287C33.5456 45.0264 31.7377 44.9008 29.9894 44.7795C28.0909 44.6476 26.1276 44.5114 24.8572 45.8157L20.5101 50.1575L9.63945 39.3028L13.4865 35.4627C14.1223 35.8524 14.8561 36.0614 15.6237 36.0614C16.7205 36.0614 17.7489 35.6362 18.5171 34.8666C19.2904 34.0965 19.7164 33.0686 19.7164 31.9722C19.7164 31.962 19.7157 31.9519 19.7157 31.9418C19.7259 31.9419 19.7361 31.9425 19.7463 31.9425C20.8415 31.9425 21.8691 31.5186 22.6384 30.7503C23.4117 29.9802 23.8377 28.9522 23.8377 27.8559C23.8377 27.8457 23.837 27.8356 23.837 27.8254C23.8473 27.8254 23.8576 27.8261 23.868 27.8261C24.9629 27.8261 25.9911 27.4027 26.7655 26.6315C27.5694 25.8263 27.967 24.7662 27.9594 23.7084C27.9699 23.7085 27.9805 23.7091 27.991 23.7091C29.0878 23.709 30.1161 23.2839 30.8854 22.5132C31.6564 21.7432 32.0811 20.7157 32.0811 19.62C32.0811 18.8537 31.8727 18.1211 31.4843 17.4866L34.8561 14.1161C35.1073 13.8659 35.4172 13.7089 35.7419 13.6441C35.7771 13.6403 35.8118 13.6347 35.8461 13.6279C36.3671 13.5561 36.9143 13.7169 37.3127 14.1137C37.9876 14.7897 37.9876 15.8896 37.3152 16.5632L36.2882 17.5859C36.2848 17.5893 36.2812 17.5924 36.2778 17.5958L35.095 18.7766C34.6338 19.2371 34.6333 19.9844 35.094 20.4455C35.5548 20.9068 36.302 20.9071 36.763 20.4466L37.794 19.417C37.7942 19.4168 37.7945 19.4165 37.7947 19.4163L37.9505 19.261C38.6273 18.5905 39.7237 18.5919 40.3998 19.267C40.7251 19.5909 40.9043 20.0248 40.9043 20.4889C40.9043 20.9528 40.7251 21.3868 40.3972 21.7133L39.3644 22.7482C39.3643 22.7483 39.3642 22.7484 39.3641 22.7486L38.1814 23.9265C37.7196 24.3864 37.718 25.1337 38.178 25.5955C38.638 26.0573 39.3852 26.0587 39.847 25.5989L41.035 24.4156C41.3598 24.0903 41.7949 23.9112 42.2603 23.9112C42.7259 23.9112 43.1612 24.0903 43.4882 24.418C43.8136 24.742 43.9926 25.1759 43.9926 25.64C43.9926 26.1039 43.8136 26.5379 43.4864 26.8637L41.4274 28.9235C40.9666 29.3845 40.9667 30.1317 41.4276 30.5925C41.6581 30.8228 41.96 30.9379 42.262 30.9379C42.5641 30.9379 42.8662 30.8226 43.0966 30.5921L44.1057 29.5827C44.1114 29.5771 44.1177 29.5723 44.1234 29.5666C44.4481 29.2413 44.8832 29.0622 45.3487 29.0622C45.8143 29.0622 46.2494 29.2413 46.5753 29.5678C47.2495 30.2412 47.2489 31.3393 46.5753 32.0141L45.5493 33.0389C45.549 33.0392 45.5485 33.0396 45.5482 33.0399C45.5478 33.0403 45.5475 33.0407 45.5471 33.0411L43.9187 34.6675C43.4575 35.1282 43.4571 35.8755 43.9176 36.3366C44.1481 36.5674 44.4505 36.6828 44.7527 36.6828C45.0545 36.6828 45.3563 36.5677 45.5867 36.3377L46.3832 35.5421L50.2009 39.3553L39.3311 50.2118L35.4365 46.3218C35.708 46.1472 35.9678 45.9419 36.2117 45.698L37.2611 44.6499C37.7225 44.1895 37.723 43.4422 37.2623 42.981ZM57.0761 44.4426L44.4268 57.0766C44.1309 57.3721 43.7348 57.5349 43.3115 57.5349C42.8882 57.5349 42.4921 57.3721 42.1961 57.0765L40.1105 54.9935C39.815 54.6984 39.6522 54.3035 39.6522 53.8815C39.6522 53.4596 39.815 53.0647 40.1105 52.7695L52.7599 40.1355C53.0559 39.8398 53.4519 39.6771 53.8753 39.6771C54.2986 39.6771 54.6946 39.8398 54.9914 40.1362L57.0762 42.2152C57.3718 42.5104 57.5346 42.9058 57.5346 43.3289C57.5345 43.752 57.3717 44.1475 57.0761 44.4426Z" fill="#F1CA16"/>
<path d="M14.2242 6.62892C14.4546 6.85884 14.7562 6.97369 15.0579 6.97369C15.3602 6.97369 15.6627 6.85814 15.8932 6.62716C16.3536 6.1658 16.3529 5.41861 15.8915 4.95818L11.591 0.666187C11.1297 0.205757 10.3824 0.206343 9.922 0.667828C9.46157 1.12919 9.46228 1.87638 9.92364 2.33681L14.2242 6.62892Z" fill="#F1CA16"/>
<path d="M44.7329 6.97364C45.0347 6.97364 45.3365 6.85857 45.5669 6.62853L49.8642 2.33642C50.3253 1.87587 50.3258 1.12856 49.8651 0.667432C49.4046 0.206299 48.6574 0.20583 48.1961 0.666494L43.8989 4.9586C43.4377 5.41915 43.4373 6.16646 43.8979 6.62759C44.1284 6.85833 44.4307 6.97364 44.7329 6.97364Z" fill="#F1CA16"/>
<path d="M7.36103 50.7659C6.90412 51.2307 6.91044 51.978 7.37533 52.4349L7.37872 52.4382C7.60806 52.6636 7.90583 52.7759 8.20349 52.7759C8.509 52.7759 8.81451 52.6577 9.04595 52.4222C9.50287 51.9575 9.49478 51.2085 9.03001 50.7516C8.56537 50.2947 7.81818 50.3011 7.36103 50.7659Z" fill="#F1CA16"/>
<path d="M40.149 41.2812C40.3285 41.2812 40.5107 41.2403 40.6816 41.1541C41.2636 40.8606 41.4974 40.1509 41.2039 39.5689C40.9104 38.987 40.2006 38.7531 39.6187 39.0466L39.6122 39.0499C39.0302 39.3435 38.7997 40.0515 39.0932 40.6335C39.3003 41.0446 39.7171 41.2812 40.149 41.2812Z" fill="#F1CA16"/>
</svg>
