<svg width="11" height="14" viewBox="0 0 11 14" fill="none" xmlns="http://www.w3.org/2000/svg">
<path d="M1.7665 0.372486L2.75859 0.080807C3.21021 -0.0521846 3.69597 -0.0202118 4.1252 0.170757C4.55444 0.361725 4.8978 0.698637 5.09121 1.1186L5.70857 2.45916C5.87493 2.82029 5.92127 3.2232 5.8411 3.61135C5.76092 3.9995 5.55826 4.35341 5.26154 4.62341L4.18278 5.6052C4.16945 5.61736 4.15852 5.63179 4.15051 5.64779C4.03756 5.87297 4.20908 6.47441 4.74636 7.38328C5.35238 8.40765 5.82033 8.81251 6.03728 8.75009L7.4531 8.32715C7.84085 8.21158 8.25592 8.21733 8.64015 8.3436C9.02437 8.46987 9.35849 8.71032 9.59567 9.03126L10.473 10.2172C10.7485 10.5896 10.876 11.0469 10.8321 11.5042C10.7881 11.9615 10.5756 12.3877 10.234 12.7035L9.47913 13.4006C9.21664 13.6433 8.8979 13.8204 8.5501 13.9168C8.2023 14.0132 7.83577 14.026 7.48179 13.9542C5.37987 13.5272 3.49669 11.8751 1.81611 9.03418C0.134927 6.19148 -0.389209 3.77054 0.286131 1.77954C0.399179 1.44622 0.592767 1.14435 0.850535 0.899443C1.1083 0.654538 1.42268 0.473795 1.7671 0.372486H1.7665ZM2.02588 1.21019C1.81922 1.27095 1.63058 1.37937 1.4759 1.52629C1.32121 1.67321 1.20504 1.85432 1.13718 2.05431C0.555072 3.76996 1.02661 5.94939 2.59245 8.59666C4.15709 11.2422 5.85321 12.7298 7.66407 13.0973C7.87656 13.1404 8.09659 13.1327 8.30536 13.0748C8.51413 13.0169 8.70544 12.9105 8.86295 12.7648L9.61718 12.0682C9.8012 11.8982 9.91572 11.6687 9.93946 11.4225C9.9632 11.1763 9.89456 10.93 9.74627 10.7294L8.86893 9.54287C8.74124 9.37009 8.56137 9.24063 8.35453 9.17264C8.14768 9.10464 7.92423 9.10151 7.71547 9.16369L6.29606 9.58779C5.51075 9.81588 4.77206 9.1771 3.97002 7.82021C3.2905 6.67217 3.05503 5.84263 3.34548 5.26336C3.40166 5.15135 3.47816 5.05043 3.57139 4.96526L4.65014 3.98347C4.80998 3.83809 4.91916 3.6475 4.96235 3.43845C5.00555 3.22941 4.9806 3.01241 4.891 2.81792L4.27363 1.47795C4.16949 1.25176 3.98457 1.0703 3.75339 0.967456C3.52221 0.864614 3.26059 0.847423 3.01737 0.919092L2.02528 1.21077L2.02588 1.21019Z" fill="white"/>
</svg>
