<svg width="136" height="136" viewBox="0 0 136 136" fill="none" xmlns="http://www.w3.org/2000/svg">
<path d="M63.75 47.3145C72.6752 47.3145 79.9365 40.0531 79.9365 31.1279C79.9365 22.2028 72.6752 14.9414 63.75 14.9414C54.8248 14.9414 47.5635 22.2028 47.5635 31.1279C47.5635 40.0531 54.8248 47.3145 63.75 47.3145ZM63.75 22.4121C68.5562 22.4121 72.4658 26.3218 72.4658 31.1279C72.4658 35.9341 68.5562 39.8438 63.75 39.8438C58.9438 39.8438 55.0342 35.9341 55.0342 31.1279C55.0342 26.3218 58.9438 22.4121 63.75 22.4121Z" fill="#F3F3F3"/>
<path d="M63.75 62.2559C80.9139 62.2559 94.8779 48.2919 94.8779 31.1279C94.8779 13.964 80.9139 0 63.75 0C46.5861 0 32.6221 13.964 32.6221 31.1279C32.6221 48.2919 46.5861 62.2559 63.75 62.2559ZM63.75 7.4707C76.7942 7.4707 87.4072 18.0838 87.4072 31.1279C87.4072 44.1721 76.7942 54.7852 63.75 54.7852C50.7058 54.7852 40.0928 44.1721 40.0928 31.1279C40.0928 18.0838 50.7058 7.4707 63.75 7.4707Z" fill="#F3F3F3"/>
<path d="M116.294 11.7041C110.115 11.7041 105.088 16.7313 105.088 22.9102V53.435C101.146 52.049 96.576 52.9268 93.4289 56.0754L65.4745 84.0291C64.848 84.6555 64.2745 85.3209 63.75 86.0174C63.2255 85.3209 62.652 84.6555 62.0255 84.0291L34.0711 56.0754C30.924 52.9284 26.3545 52.049 22.4121 53.435V22.9102C22.4121 16.7313 17.3849 11.7041 11.2061 11.7041C5.02716 11.7041 0 16.7313 0 22.9102V77.2603L22.4121 113.618V127.5H105.088V113.618L127.5 77.2603V22.9102C127.5 16.7313 122.473 11.7041 116.294 11.7041V11.7041ZM7.4707 75.142V22.9102C7.4707 20.851 9.14694 19.1748 11.2061 19.1748C13.2652 19.1748 14.9414 20.851 14.9414 22.9102V64.1235C14.9764 67.0698 16.1367 69.8355 18.2238 71.9226L46.1689 99.867L51.4506 94.5853L23.5063 66.6402C22.0502 65.1834 22.0502 62.8146 23.5063 61.3578C24.963 59.9018 27.3319 59.9018 28.7887 61.3578L56.7423 89.3123C58.852 91.422 60.0146 94.239 60.0146 97.2437V120.029H29.8828V111.499L7.4707 75.142ZM120.029 75.142L97.6172 111.499V120.029H67.4854V97.2437C67.4854 94.239 68.648 91.422 70.7577 89.3123L98.7113 61.3578C100.168 59.9018 102.537 59.9018 103.994 61.3578C104.7 62.0629 105.088 63.0014 105.088 63.999C105.088 64.9967 104.7 65.9352 103.994 66.641L76.0494 94.5853L81.3311 99.867L109.276 71.9226C111.429 69.7701 112.519 66.9515 112.55 64.1235C112.559 64.1235 112.559 22.9102 112.559 22.9102C112.559 20.851 114.235 19.1748 116.294 19.1748C118.353 19.1748 120.029 20.851 120.029 22.9102V75.142Z" fill="#F3F3F3"/>
</svg>
