<svg width="139" height="139" viewBox="0 0 139 139" fill="none" xmlns="http://www.w3.org/2000/svg">
<g clip-path="url(#clip0_226_197)">
<path d="M69.732 48.4943C71.6451 48.4943 73.1945 46.9439 73.1945 45.0318C73.1945 43.1198 71.6451 41.5693 69.732 41.5693C54.4345 41.5693 42.0332 53.9707 42.0332 69.2692C42.0332 84.5667 54.4345 96.9681 69.732 96.9681C85.0306 96.9681 97.4319 84.5667 97.4319 69.2692C97.4319 67.3561 95.8815 65.8067 93.9694 65.8067C92.0574 65.8067 90.507 67.3561 90.507 69.2692C90.507 80.7426 81.2065 90.0441 69.732 90.0441C58.2586 90.0441 48.9571 80.7426 48.9571 69.2692C48.9571 57.7948 58.2586 48.4943 69.732 48.4943Z" fill="#F3F3F3"/>
<path d="M135.796 48.7029C135.195 46.8863 133.235 45.9011 131.417 46.5024C129.642 47.0899 128.654 48.9797 129.183 50.7729C139.538 83.7466 121.202 118.871 88.2281 129.226C55.2555 139.58 20.1312 121.244 9.77658 88.2707C-0.57906 55.297 17.7578 20.1726 50.7304 9.81804C62.9366 5.98544 76.023 5.98544 88.2281 9.81804C90.0607 10.3705 91.9939 9.33339 92.5464 7.50087C93.0905 5.69593 92.0926 3.78811 90.2993 3.20485C53.686 -8.28234 14.6919 12.0864 3.20475 48.7007C-8.28243 85.314 12.0874 124.308 48.7007 135.795C85.315 147.282 124.308 126.914 135.795 90.2994C140.043 76.7591 140.043 62.2432 135.796 48.7029Z" fill="#F3F3F3"/>
<path d="M76.3257 24.7368C76.3437 22.7654 74.8293 21.1174 72.8632 20.97C71.8292 20.882 70.7942 20.7939 69.7326 20.7939C42.9607 20.7939 21.2578 42.4968 21.2578 69.2688C21.2578 96.0397 42.9607 117.743 69.7326 117.743C96.5035 117.743 118.206 96.0397 118.206 69.2688C118.206 68.0163 118.13 66.7649 117.976 65.5221C117.699 63.6217 115.935 62.3056 114.034 62.5824C112.134 62.8581 110.818 64.6238 111.094 66.5242C111.104 66.5963 111.117 66.6674 111.132 66.7395C111.207 67.5783 111.281 68.4098 111.281 69.2666C111.282 92.2145 92.6805 110.816 69.7337 110.819C46.7858 110.82 28.1838 92.2166 28.1828 69.2698C28.1817 46.323 46.7826 27.72 69.7305 27.7189H69.7316C70.5906 27.7189 71.423 27.7932 72.2598 27.8674L72.9088 27.9215C74.718 27.9989 76.2472 26.5948 76.3235 24.7856C76.3246 24.7686 76.3246 24.7527 76.3257 24.7368Z" fill="#F3F3F3"/>
<path d="M90.5071 31.1817V43.5978L67.2846 66.8203C65.9091 68.1491 65.8709 70.3412 67.1997 71.7166C68.5285 73.0921 70.7205 73.1302 72.096 71.8014C72.1246 71.7739 72.1533 71.7452 72.1808 71.7166L95.4034 48.4941H107.82C108.738 48.4941 109.618 48.1293 110.268 47.4792L131.042 26.7043C132.394 25.3522 132.394 23.1601 131.042 21.808C130.393 21.159 129.513 20.7942 128.594 20.7942H118.207V10.4067C118.207 8.49468 116.657 6.94425 114.743 6.94531C113.826 6.94531 112.946 7.31012 112.297 7.95914L91.522 28.7341C90.8719 29.3831 90.5071 30.2633 90.5071 31.1817ZM97.4321 32.6154L111.282 18.7655V24.2567C111.282 26.1687 112.832 27.7192 114.744 27.7192H120.236L106.386 41.5691H97.4321V32.6154Z" fill="#F3F3F3"/>
</g>
<defs>
<clipPath id="clip0_226_197">
<rect width="139" height="139" fill="white"/>
</clipPath>
</defs>
</svg>
