<svg width="51" height="68" viewBox="0 0 51 68" fill="none" xmlns="http://www.w3.org/2000/svg">
<path fill-rule="evenodd" clip-rule="evenodd" d="M7.16566 0.211333C6.53382 0.528629 6.09996 1.21291 6.09996 1.89175C6.09996 2.19164 6.34313 3.1515 6.64039 4.02473C7.87923 7.66367 8.36078 10.402 8.45473 14.3392C8.53526 17.7182 8.32637 19.7789 7.62742 22.5002C6.92262 25.2442 6.34446 26.6317 4.49862 30.0074C2.27408 34.0756 0.744763 38.5361 0.173645 42.6224C-0.129056 44.7873 -0.0207588 50.0429 0.38014 52.6496C1.16174 57.7305 3.04199 62.8873 5.49961 66.6894C6.33729 67.9855 7.15928 68.2913 8.30896 67.7348C9.01309 67.394 9.49585 66.5224 9.37904 65.8027C9.33785 65.5489 8.91543 64.6708 8.44011 63.8514C6.08774 59.7952 4.59815 55.124 4.09414 50.2227C3.84366 47.7862 4.07553 42.2185 4.44282 41.8511C4.5652 41.7289 7.16619 42.3728 8.552 42.8684C10.3624 43.5159 13.0214 44.8815 14.87 46.1131C17.2097 47.6719 19.1178 49.2583 21.4144 51.5538L23.5072 53.6458V60.045C23.5072 66.3779 23.5103 66.4497 23.7975 66.9607C24.3913 68.0172 25.7982 68.2788 26.7191 67.504C27.4966 66.8499 27.4937 66.8779 27.4937 59.9494V53.6089L29.653 51.4602C30.8406 50.2785 32.4401 48.8145 33.2075 48.207C36.4167 45.6666 39.9756 43.6652 43.0644 42.6639C44.6566 42.1478 46.4451 41.7383 46.5685 41.8615C46.8286 42.1217 46.9586 43.8548 46.9551 47.0149C46.9518 50.0483 46.9101 50.7734 46.654 52.2504C45.8953 56.6289 44.5681 60.3902 42.5608 63.8514C42.0855 64.6708 41.6631 65.5489 41.6219 65.8027C41.5051 66.5224 41.9878 67.394 42.6919 67.7348C43.8416 68.2913 44.6636 67.9855 45.5013 66.6894C47.9656 62.877 49.8349 57.738 50.6282 52.5955C51.0209 50.0501 51.1269 44.7654 50.8282 42.6301C50.2038 38.167 48.7588 34.1478 45.8364 28.7451C44.1593 25.6444 43.1481 22.4955 42.7038 18.9897C42.4278 16.812 42.4925 12.2299 42.8285 10.1432C43.1302 8.27063 43.7284 5.8816 44.3605 4.02473C44.6578 3.1515 44.9009 2.20971 44.9009 1.93201C44.9009 0.175856 42.7589 -0.658042 41.5334 0.621107C40.844 1.34074 39.4806 5.95349 38.9126 9.48879C38.5568 11.7028 38.418 16.4596 38.6465 18.6059C38.9977 21.9055 39.9829 25.7413 41.12 28.2364C41.6361 29.3687 41.7668 29.2011 39.7937 29.9366C36.9827 30.9845 33.0221 31.8025 29.1058 32.144C26.7344 32.3507 20.7744 32.2343 18.6571 31.9399C15.4616 31.4956 12.6189 30.7738 10.3758 29.8372C9.64281 29.5312 9.41957 29.3792 9.47126 29.2209C9.50887 29.1053 9.8319 28.2934 10.1891 27.4164C11.9003 23.2153 12.5719 19.2556 12.4403 14.1433C12.3605 11.0369 12.083 8.872 11.4193 6.17405C10.8512 3.86476 9.88718 1.06437 9.52495 0.671067C8.89842 -0.00910021 7.966 -0.190735 7.16566 0.211333ZM24.5745 20.28C23.9416 20.629 23.6231 21.0993 23.5439 21.8018C23.4057 23.028 24.233 23.9618 25.4575 23.9618C26.5962 23.9618 27.4272 23.149 27.4272 22.0351C27.4272 20.5912 25.8123 19.5976 24.5745 20.28ZM44.1451 34.1596C44.809 35.6262 45.5653 37.5547 45.5653 37.7806C45.5653 37.8572 45.0463 38.0266 44.4121 38.1572C38.7881 39.3148 32.7468 42.8415 27.1807 48.2163L25.3878 49.9476L24.9458 49.3967C24.3629 48.6701 21.7809 46.3052 20.1377 44.9929C15.9441 41.6441 10.7198 39.0074 6.59614 38.1586C5.92204 38.0199 5.43556 37.8536 5.43556 37.7617C5.43556 37.5217 6.26673 35.402 6.87984 34.0783C7.23715 33.3071 7.48324 32.926 7.59314 32.9737C11.6659 34.7436 15.118 35.6112 19.9195 36.0715C22.9292 36.3601 28.9549 36.2555 31.839 35.8648C35.657 35.3474 39.4505 34.4064 41.9776 33.3499C42.6719 33.0597 43.3049 32.8167 43.3844 32.8099C43.4637 32.8033 43.8061 33.4106 44.1451 34.1596Z" fill="url(#paint0_linear_364_770)"/>
<defs>
<linearGradient id="paint0_linear_364_770" x1="5" y1="73" x2="5" y2="-9" gradientUnits="userSpaceOnUse">
<stop offset="0.496815" stop-color="white"/>
<stop offset="1" stop-color="white" stop-opacity="0"/>
</linearGradient>
</defs>
</svg>
