<svg width="287" height="287" viewBox="0 0 287 287" fill="none" xmlns="http://www.w3.org/2000/svg">
<g clip-path="url(#clip0_226_248)">
<path d="M103.76 196.427H69.0492L85.2772 168.319L100.958 177.371C102.921 178.505 105.374 178.344 107.173 176.964C108.972 175.583 109.762 173.255 109.175 171.065L91.7016 105.853C90.9005 102.862 87.8262 101.088 84.8355 101.889L19.623 119.362C17.4327 119.949 15.8121 121.797 15.5161 124.045C15.2201 126.293 16.3076 128.498 18.2714 129.632L32.8041 138.023L3.57545 188.648C-1.19182 196.905 -1.19182 207.164 3.57545 215.421L19.8629 243.632C24.6296 251.889 33.5144 257.019 43.049 257.019H103.76C106.856 257.019 109.366 254.509 109.366 251.413V202.033C109.366 200.547 108.775 199.12 107.724 198.069C106.673 197.018 105.247 196.427 103.76 196.427ZM13.2849 209.815C10.5145 205.016 10.5145 199.053 13.2849 194.254L45.316 138.774C46.8643 136.093 45.9455 132.665 43.2642 131.117L35.5976 126.69L82.3229 114.17L94.8426 160.895L86.0278 155.806C84.7407 155.063 83.2109 154.862 81.7741 155.246C80.3378 155.631 79.1135 156.57 78.3702 157.858L30.9419 240.007C30.4401 239.387 29.9782 238.729 29.5729 238.026L13.2849 209.815ZM98.154 245.807H43.049C42.2389 245.807 41.4389 245.736 40.6519 245.613L62.5761 207.639H98.1546L98.154 245.807Z" fill="#F3F3F3"/>
<path d="M283.425 192.86L253.069 140.283C251.522 137.601 248.092 136.682 245.412 138.231L202.647 162.921C201.359 163.664 200.42 164.888 200.035 166.325C199.65 167.761 199.852 169.291 200.595 170.578L217.951 200.64H185.495V182.534C185.495 180.267 184.128 178.223 182.034 177.355C179.939 176.486 177.528 176.967 175.925 178.57L128.186 226.308C125.997 228.498 125.997 232.047 128.186 234.236L175.925 281.976C176.998 283.048 178.431 283.618 179.89 283.618C180.612 283.618 181.341 283.478 182.034 283.191C184.129 282.323 185.495 280.279 185.495 278.011V261.23H243.951C253.485 261.23 262.37 256.101 267.137 247.844L283.424 219.633C288.192 211.377 288.192 201.118 283.425 192.86ZM213.108 169.828L246.162 150.744L273.715 198.466C274.12 199.167 274.458 199.896 274.745 200.64H230.897L213.108 169.828ZM257.428 242.238C254.657 247.037 249.493 250.019 243.951 250.019H179.889C176.792 250.019 174.283 252.528 174.283 255.625V264.477L140.078 230.272L174.283 196.067V206.245C174.283 209.341 176.792 211.851 179.889 211.851H274.746C274.46 212.596 274.121 213.325 273.715 214.027L257.428 242.238Z" fill="#F3F3F3"/>
<path d="M129.792 99.6416L147.148 69.5804L163.376 97.6885L147.696 106.742C145.732 107.875 144.645 110.08 144.941 112.328C145.237 114.576 146.857 116.424 149.048 117.011L214.26 134.485C214.746 134.615 215.234 134.677 215.715 134.677C218.19 134.677 220.455 133.025 221.126 130.521L238.6 65.3082C239.187 63.1179 238.396 60.7898 236.598 59.4096C234.8 58.0294 232.346 57.868 230.382 59.0021L215.849 67.3925L210.704 58.4796C209.156 55.7977 205.727 54.8789 203.046 56.4278C200.365 57.9756 199.446 61.4042 200.994 64.0855L208.943 77.8531C210.49 80.5338 213.919 81.4527 216.601 79.9049L224.268 75.4784L211.748 122.204L165.023 109.684L173.837 104.595C176.518 103.047 177.437 99.6186 175.889 96.9373L128.46 14.7888C129.248 14.6649 130.049 14.5937 130.86 14.5937H163.435C168.38 14.5937 173.075 16.9756 175.993 20.9654C177.82 23.4645 181.329 24.0083 183.827 22.1802C186.326 20.3521 186.87 16.8444 185.042 14.3459C180.02 7.48032 171.943 3.38184 163.434 3.38184H130.86C121.325 3.38184 112.44 8.51125 107.673 16.7688L77.3176 69.3461C75.7692 72.0274 76.6881 75.456 79.3694 77.0038L122.134 101.694C123.421 102.438 124.951 102.639 126.387 102.254C127.825 101.869 129.049 100.929 129.792 99.6416ZM122.886 89.181L89.8311 70.0967L117.384 22.3747C117.788 21.6734 118.25 21.0158 118.751 20.3958L140.675 58.3692L122.886 89.181Z" fill="#F3F3F3"/>
<path d="M193.236 45.0429C194.716 45.0429 196.156 44.4431 197.199 43.4004C198.242 42.3577 198.842 40.9113 198.842 39.437C198.842 37.9626 198.242 36.5163 197.199 35.4736C196.156 34.4309 194.716 33.8311 193.236 33.8311C191.761 33.8311 190.315 34.4309 189.272 35.4736C188.23 36.5163 187.63 37.9626 187.63 39.437C187.63 40.9169 188.23 42.3577 189.272 43.4004C190.315 44.4431 191.761 45.0429 193.236 45.0429Z" fill="#F3F3F3"/>
</g>
<defs>
<clipPath id="clip0_226_248">
<rect width="287" height="287" fill="white"/>
</clipPath>
</defs>
</svg>
