<svg width="15" height="15" viewBox="0 0 15 15" fill="none" xmlns="http://www.w3.org/2000/svg">
<path d="M4.6875 7.5C4.6875 7.74864 4.58873 7.9871 4.41291 8.16291C4.2371 8.33873 3.99864 8.4375 3.75 8.4375C3.50136 8.4375 3.2629 8.33873 3.08709 8.16291C2.91127 7.9871 2.8125 7.74864 2.8125 7.5C2.8125 7.25136 2.91127 7.0129 3.08709 6.83709C3.2629 6.66127 3.50136 6.5625 3.75 6.5625C3.99864 6.5625 4.2371 6.66127 4.41291 6.83709C4.58873 7.0129 4.6875 7.25136 4.6875 7.5ZM8.4375 7.5C8.4375 7.74864 8.33873 7.9871 8.16291 8.16291C7.9871 8.33873 7.74864 8.4375 7.5 8.4375C7.25136 8.4375 7.0129 8.33873 6.83709 8.16291C6.66127 7.9871 6.5625 7.74864 6.5625 7.5C6.5625 7.25136 6.66127 7.0129 6.83709 6.83709C7.0129 6.66127 7.25136 6.5625 7.5 6.5625C7.74864 6.5625 7.9871 6.66127 8.16291 6.83709C8.33873 7.0129 8.4375 7.25136 8.4375 7.5ZM11.25 8.4375C11.4986 8.4375 11.7371 8.33873 11.9129 8.16291C12.0887 7.9871 12.1875 7.74864 12.1875 7.5C12.1875 7.25136 12.0887 7.0129 11.9129 6.83709C11.7371 6.66127 11.4986 6.5625 11.25 6.5625C11.0014 6.5625 10.7629 6.66127 10.5871 6.83709C10.4113 7.0129 10.3125 7.25136 10.3125 7.5C10.3125 7.74864 10.4113 7.9871 10.5871 8.16291C10.7629 8.33873 11.0014 8.4375 11.25 8.4375Z" fill="white"/>
<path d="M2.02969 14.8153L2.04844 14.8116C3.76406 14.4712 4.81219 14.0222 5.29969 13.7756C6.01743 13.9671 6.75717 14.0635 7.5 14.0625C11.6419 14.0625 15 11.1244 15 7.5C15 3.87563 11.6419 0.9375 7.5 0.9375C3.35812 0.9375 0 3.87563 0 7.5C0 9.15 0.696563 10.6594 1.84688 11.8125C1.7664 12.5532 1.60158 13.2823 1.35563 13.9856L1.35281 13.9959C1.28292 14.1974 1.20663 14.3965 1.12406 14.5931C1.05 14.7675 1.19344 14.9625 1.38 14.9325C1.59718 14.897 1.81377 14.8579 2.02969 14.8153ZM2.77969 11.9016C2.79282 11.7643 2.77552 11.6258 2.72901 11.496C2.6825 11.3663 2.60793 11.2483 2.51062 11.1506C1.51688 10.1531 0.9375 8.87625 0.9375 7.5C0.9375 4.5075 3.75375 1.875 7.5 1.875C11.2463 1.875 14.0625 4.5075 14.0625 7.5C14.0625 10.4934 11.2463 13.125 7.5 13.125C6.83916 13.126 6.18104 13.0402 5.5425 12.87C5.31935 12.8102 5.08199 12.8349 4.87594 12.9394C4.51313 13.1231 3.71344 13.4738 2.40656 13.7766C2.58888 13.1645 2.7138 12.5368 2.77969 11.9016Z" fill="white"/>
</svg>
