<svg width="122" height="137" viewBox="0 0 122 137" fill="none" xmlns="http://www.w3.org/2000/svg">
<g clip-path="url(#clip0_1554_59)">
<path d="M62.3486 42.83C50.6086 42.83 41.0586 33.28 41.0586 21.54C41.0586 9.79999 50.6086 0.25 62.3486 0.25C74.0886 0.25 83.6386 9.79999 83.6386 21.54C83.6386 33.28 74.0886 42.83 62.3486 42.83ZM62.3486 3.53C52.4186 3.53 44.3386 11.61 44.3386 21.54C44.3386 31.47 52.4186 39.55 62.3486 39.55C72.2786 39.55 80.3586 31.47 80.3586 21.54C80.3586 11.61 72.2786 3.53 62.3486 3.53Z" fill="white"/>
<path d="M36.8901 98.6019C36.6401 98.6019 36.4301 98.5719 36.2601 98.5219C33.9001 97.9219 32.2201 95.1519 31.1301 90.0719C30.3601 86.4519 30.0501 82.3719 30.0101 79.7719L29.9901 78.5518C29.9201 73.4718 29.8401 68.2119 30.5301 63.6219C32.2201 52.3719 38.6301 46.6719 49.5801 46.6719H68.9301C69.8301 46.6719 70.5701 47.4019 70.5701 48.3119C70.5701 49.2219 69.8401 49.9519 68.9301 49.9519H49.5801C40.2501 49.9519 35.2201 54.4518 33.7701 64.1118C33.1201 68.4318 33.1901 73.5519 33.2701 78.5019L33.2901 79.7219C33.3201 82.0619 33.6101 85.9919 34.3401 89.3919C35.3701 94.2319 36.6201 95.1519 36.9901 95.3219C38.0401 95.1919 41.9601 93.4619 46.7401 90.4819C51.8901 87.2719 55.7101 84.0819 56.9901 81.9119C57.9001 80.0019 58.9601 70.7718 59.4201 65.3618C59.5001 64.4618 60.2901 63.7919 61.1901 63.8719C62.0901 63.9519 62.7601 64.7419 62.6801 65.6419C62.4701 68.1019 61.3501 80.5119 59.8901 83.4219L59.8401 83.5019C57.6001 87.3919 50.7801 91.8419 47.9501 93.5719C45.5801 95.0219 43.1701 96.3319 41.1701 97.2419C38.8301 98.3119 37.6301 98.6019 36.8801 98.6019H36.8901Z" fill="white"/>
<path d="M87.8089 98.6002C87.0689 98.6002 85.8689 98.3101 83.5189 97.2401C81.5189 96.3201 79.1189 95.0202 76.7389 93.5702C73.9089 91.8402 67.0889 87.3902 64.8489 83.5002L64.7989 83.4202C63.3289 80.4802 61.5589 67.2201 61.3689 65.7101C61.2489 64.8101 61.8789 63.9901 62.7789 63.8701C63.6789 63.7501 64.4989 64.3802 64.6189 65.2802C65.3289 70.7102 66.7889 79.9701 67.7089 81.9001C68.9789 84.0601 72.8089 87.2602 77.9589 90.4702C82.7389 93.4502 86.6589 95.1802 87.7089 95.3102C88.0889 95.1302 89.3389 94.2002 90.3589 89.3802C91.0789 85.9902 91.3689 82.0501 91.4089 79.7101L91.4289 78.4901C91.4989 73.5401 91.5789 68.4202 90.9289 64.1002C89.4789 54.4402 84.4589 49.9402 75.1189 49.9402H55.7689C54.8689 49.9402 54.1289 49.2101 54.1289 48.3001C54.1289 47.3901 54.8589 46.6602 55.7689 46.6602H75.1189C86.0689 46.6602 92.4789 52.3601 94.1689 63.6101C94.8589 68.2001 94.7789 73.4502 94.7089 78.5402L94.6889 79.7602C94.6489 82.3602 94.3389 86.4402 93.5689 90.0602C92.4889 95.1502 90.8089 97.9101 88.4289 98.5201C88.2589 98.5701 88.0589 98.6002 87.8089 98.6002Z" fill="white"/>
<path d="M12.6708 136.571C4.78078 136.571 1.69077 133.751 0.480773 131.361C-1.06923 128.301 -0.159242 124.781 1.34076 122.801C5.15076 117.781 17.4808 116.211 29.7808 115.041C32.0908 114.821 34.7108 114.571 35.2408 114.391C35.5808 114.271 35.9808 114.141 36.4508 113.991C39.8508 112.911 46.1708 110.901 47.1608 105.481C47.9108 101.331 47.6108 97.5213 46.0908 92.3413C45.8408 91.4713 46.3308 90.5613 47.2008 90.3113C48.0708 90.0613 48.9808 90.5513 49.2308 91.4213C50.8808 97.0513 51.2208 101.431 50.3808 106.061C49.0408 113.421 41.2108 115.911 37.4408 117.101C37.0008 117.241 36.6308 117.361 36.3408 117.461C35.4808 117.771 33.7108 117.951 30.0908 118.291C22.6608 119.001 7.21077 120.471 3.95077 124.771C3.23077 125.721 2.44077 127.951 3.41077 129.871C4.55077 132.131 7.98075 133.341 13.0507 133.281C20.3307 133.191 30.6908 131.531 40.7008 129.931C55.4308 127.571 68.1608 125.531 72.7608 127.901C73.5608 128.311 73.8808 129.301 73.4708 130.101C73.0608 130.901 72.0708 131.221 71.2708 130.811C67.6208 128.941 53.5908 131.181 41.2208 133.161C31.0908 134.781 20.6108 136.461 13.0908 136.551C12.9508 136.551 12.8108 136.551 12.6708 136.551V136.571Z" fill="white"/>
<path d="M108.759 136.568C108.619 136.568 108.479 136.568 108.339 136.568C99.719 136.458 87.179 132.798 75.049 129.258C68.679 127.398 62.659 125.638 57.759 124.578C51.489 123.218 49.099 123.488 48.199 123.948C47.399 124.358 46.409 124.038 45.999 123.238C45.589 122.438 45.909 121.448 46.709 121.038C50.809 118.938 60.499 121.598 75.969 126.118C87.329 129.438 100.199 133.198 108.379 133.298C113.459 133.368 116.879 132.148 118.019 129.888C118.989 127.968 118.199 125.738 117.479 124.788C114.219 120.488 98.759 119.018 91.339 118.308C87.719 117.968 85.949 117.788 85.089 117.478C84.809 117.378 84.429 117.258 83.989 117.118C80.219 115.918 72.389 113.438 71.049 106.078C69.969 100.158 70.959 95.188 72.769 89.558C73.049 88.698 73.969 88.228 74.829 88.498C75.689 88.778 76.159 89.698 75.889 90.558C74.229 95.728 73.319 100.238 74.269 105.488C75.259 110.908 81.579 112.918 84.979 113.998C85.449 114.148 85.849 114.278 86.189 114.398C86.719 114.578 89.339 114.828 91.649 115.048C103.949 116.218 116.279 117.788 120.089 122.808C121.589 124.778 122.489 128.298 120.949 131.368C119.739 133.758 116.649 136.578 108.759 136.578V136.568Z" fill="white"/>
<path d="M44.6119 83.2893C43.8919 83.2893 43.2319 82.8093 43.0319 82.0793C41.4919 76.4493 42.922 61.7293 42.982 61.0993C43.072 60.1993 43.8719 59.5393 44.7719 59.6293C45.6719 59.7193 46.3319 60.5193 46.2419 61.4193C45.8419 65.4993 45.0519 77.0193 46.1919 81.2193C46.4319 82.0893 45.9119 82.9893 45.0419 83.2293C44.9019 83.2693 44.7519 83.2893 44.6119 83.2893Z" fill="white"/>
<path d="M80.0995 83.2893C79.9595 83.2893 79.8095 83.2693 79.6695 83.2293C78.7995 82.9893 78.2795 82.0893 78.5195 81.2193C79.6595 77.0293 78.8695 65.5093 78.4695 61.4193C78.3795 60.5193 79.0395 59.7193 79.9395 59.6293C80.8395 59.5393 81.6395 60.1993 81.7295 61.0993C81.7895 61.7193 83.2195 76.4493 81.6795 82.0793C81.4795 82.8093 80.8195 83.2893 80.0995 83.2893Z" fill="white"/>
</g>
<defs>
<clipPath id="clip0_1554_59">
<rect width="122" height="137" fill="white"/>
</clipPath>
</defs>
</svg>
