<svg width="144" height="131" viewBox="0 0 144 131" fill="none" xmlns="http://www.w3.org/2000/svg">
<g clip-path="url(#clip0_1554_53)">
<path d="M72.3119 41.0105C61.0719 41.0105 51.9219 31.8605 51.9219 20.6205C51.9219 9.38046 61.0719 0.230469 72.3119 0.230469C83.5519 0.230469 92.7019 9.38046 92.7019 20.6205C92.7019 31.8605 83.5519 41.0105 72.3119 41.0105ZM72.3119 3.37047C62.8019 3.37047 55.0619 11.1105 55.0619 20.6205C55.0619 30.1305 62.8019 37.8705 72.3119 37.8705C81.8219 37.8705 89.5619 30.1305 89.5619 20.6205C89.5619 11.1105 81.8219 3.37047 72.3119 3.37047Z" fill="white"/>
<path d="M1.9019 126.09C1.3219 126.09 0.761915 125.77 0.491915 125.21C0.111915 124.43 0.431916 123.49 1.21192 123.11C1.29192 123.07 6.3719 120.55 12.4319 115.78C17.9919 111.4 25.5519 104.15 29.9619 94.5397C32.2419 89.5697 33.2219 83.9897 34.2719 78.0697C35.5619 70.7697 36.8919 63.2197 40.8019 56.1397L40.8519 56.0597C45.1819 49.1897 48.8519 44.6797 60.0919 44.6797H78.6219C79.4919 44.6797 80.1919 45.3797 80.1919 46.2497C80.1919 47.1197 79.4919 47.8197 78.6219 47.8197H60.0919C50.2619 47.8197 47.3819 51.5697 43.5319 57.6997C39.8919 64.2997 38.6119 71.5797 37.3619 78.6097C36.2819 84.7297 35.2619 90.5097 32.8219 95.8397C28.1419 106.05 20.1719 113.69 14.3219 118.29C7.99192 123.27 2.82192 125.82 2.60192 125.92C2.38192 126.03 2.14191 126.08 1.91191 126.08L1.9019 126.09Z" fill="white"/>
<path d="M142.721 126.091C142.491 126.091 142.251 126.041 142.031 125.931C141.811 125.821 136.641 123.271 130.311 118.301C124.451 113.691 116.491 106.061 111.811 95.8514C109.371 90.5214 108.351 84.7414 107.271 78.6214C106.031 71.5814 104.741 64.3114 101.101 57.7114C97.2414 51.5914 94.3614 47.8314 84.5414 47.8314H66.0114C65.1414 47.8314 64.4414 47.1314 64.4414 46.2614C64.4414 45.3914 65.1414 44.6914 66.0114 44.6914H84.5414C95.7814 44.6914 99.4614 49.2014 103.781 56.0714L103.831 56.1514C107.741 63.2214 109.071 70.7714 110.361 78.0814C111.401 83.9914 112.391 89.5814 114.671 94.5514C123.151 113.041 143.221 123.031 143.421 123.121C144.201 123.501 144.521 124.441 144.141 125.221C143.871 125.781 143.311 126.101 142.731 126.101L142.721 126.091Z" fill="white"/>
<path d="M25.8212 130.791C18.2712 130.791 15.3012 128.091 14.1512 125.801C12.6712 122.861 13.5412 119.491 14.9712 117.611C18.6212 112.801 30.4312 111.301 42.2112 110.181C44.4212 109.971 46.9312 109.731 47.4412 109.551C47.7612 109.431 48.1512 109.311 48.6012 109.171C51.8512 108.141 57.9112 106.211 58.8612 101.021C60.0412 94.5611 58.3412 89.3711 55.4812 81.4411C52.6012 73.4711 51.0712 61.8411 51.0112 61.3511C50.9012 60.4911 51.5012 59.7011 52.3612 59.5911C53.2212 59.4811 54.0112 60.0811 54.1212 60.9411C54.1412 61.0611 55.6712 72.7211 58.4312 80.3711C61.4812 88.8211 63.2412 94.4611 61.9512 101.571C60.6712 108.621 53.1612 111.001 49.5612 112.151C49.1412 112.281 48.7812 112.401 48.5112 112.491C47.6912 112.781 45.9912 112.961 42.5212 113.291C35.4112 113.971 20.6012 115.381 17.4812 119.491C16.7912 120.401 16.0312 122.541 16.9612 124.381C18.0512 126.541 21.3312 127.701 26.1912 127.641C33.1712 127.551 43.0912 125.961 52.6812 124.431C66.7912 122.171 78.9812 120.221 83.3912 122.481C84.1612 122.881 84.4712 123.821 84.0712 124.591C83.6712 125.361 82.7312 125.671 81.9612 125.271C78.4612 123.481 65.0312 125.631 53.1812 127.521C43.4812 129.071 33.4412 130.681 26.2412 130.771C26.1012 130.771 25.9712 130.771 25.8412 130.771L25.8212 130.791Z" fill="white"/>
<path d="M118.638 130.788C118.508 130.788 118.368 130.788 118.238 130.788C109.978 130.688 97.9684 127.178 86.3584 123.788C80.2584 122.008 74.4884 120.318 69.7984 119.308C63.7984 118.008 61.5083 118.258 60.6483 118.708C59.8783 119.098 58.9283 118.798 58.5383 118.028C58.1383 117.258 58.4484 116.308 59.2184 115.918C63.1384 113.908 72.4284 116.458 87.2484 120.788C98.1284 123.968 110.458 127.568 118.288 127.668C123.148 127.728 126.428 126.568 127.518 124.408C128.448 122.568 127.688 120.438 126.998 119.518C123.878 115.398 109.068 113.988 101.958 113.318C98.4984 112.988 96.7984 112.818 95.9684 112.518C95.6984 112.418 95.3384 112.308 94.9184 112.178C91.3084 111.028 83.8083 108.648 82.5283 101.598C81.2383 94.4885 82.9984 88.8485 86.0484 80.3985C88.8084 72.7485 90.3484 61.0885 90.3584 60.9685C90.4684 60.1085 91.2583 59.5085 92.1183 59.6185C92.9783 59.7285 93.5784 60.5185 93.4684 61.3785C93.4084 61.8685 91.8784 73.4985 88.9984 81.4685C86.1384 89.3985 84.4383 94.5785 85.6183 101.048C86.5583 106.238 92.6184 108.158 95.8784 109.198C96.3284 109.338 96.7083 109.458 97.0383 109.578C97.5383 109.758 100.048 109.998 102.268 110.208C114.048 111.328 125.858 112.828 129.508 117.638C130.938 119.528 131.808 122.898 130.328 125.828C129.178 128.118 126.208 130.818 118.658 130.818L118.638 130.788Z" fill="white"/>
</g>
<defs>
<clipPath id="clip0_1554_53">
<rect width="144" height="131" fill="white"/>
</clipPath>
</defs>
</svg>
