<svg width="133" height="194" viewBox="0 0 133 194" fill="none" xmlns="http://www.w3.org/2000/svg">
<g clip-path="url(#clip0_1554_67)">
<path d="M66.8003 103.952C55.7803 103.952 46.8203 94.9922 46.8203 83.9722C46.8203 72.9522 55.7803 63.9922 66.8003 63.9922C77.8203 63.9922 86.7803 72.9522 86.7803 83.9722C86.7803 94.9922 77.8203 103.952 66.8003 103.952ZM66.8003 67.8922C57.9403 67.8922 50.7203 75.1022 50.7203 83.9722C50.7203 92.8422 57.9303 100.052 66.8003 100.052C75.6703 100.052 82.8803 92.8422 82.8803 83.9722C82.8803 75.1022 75.6703 67.8922 66.8003 67.8922Z" fill="white"/>
<path d="M53.3201 154.972C52.2701 154.972 51.4101 154.142 51.3701 153.092C51.3701 152.842 50.4701 127.902 46.8601 116.272C45.7301 112.642 44.5301 109.122 43.3701 105.712C40.7101 97.9219 37.9601 89.8719 36.0701 80.3119C34.1901 70.8019 40.9801 64.172 48.8401 56.482C53.2301 52.192 58.1901 47.3419 62.2501 41.3719L64.6001 22.9019C64.7401 21.8319 65.7101 21.0719 66.7801 21.2119C67.8501 21.3519 68.6101 22.322 68.4701 23.392L66.0101 42.7819L65.7501 43.1619C61.4201 49.6419 56.1901 54.7619 51.5701 59.2719C44.2301 66.4519 38.4301 72.1219 39.9001 79.5519C41.7401 88.8519 44.3201 96.4319 47.0701 104.442C48.2401 107.872 49.4501 111.422 50.6001 115.102C54.3701 127.232 55.2501 151.902 55.2801 152.952C55.3201 154.032 54.4701 154.932 53.4001 154.972C53.3801 154.972 53.3501 154.972 53.3301 154.972H53.3201Z" fill="white"/>
<path d="M80.2816 154.972C80.2816 154.972 80.2316 154.972 80.2116 154.972C79.1316 154.932 78.2916 154.032 78.3316 152.952C78.3716 151.912 79.2516 127.232 83.0116 115.102C84.1516 111.422 85.3716 107.872 86.5416 104.442C89.2816 96.4219 91.8716 88.8519 93.7116 79.5519C95.1816 72.1119 89.3816 66.4419 82.0416 59.2719C77.4216 54.7619 72.1916 49.6419 67.8616 43.1619L67.6016 42.7819L65.1416 23.392C65.0016 22.322 65.7616 21.3419 66.8316 21.2119C67.9016 21.0719 68.8816 21.8319 69.0116 22.9019L71.3616 41.3719C75.4216 47.3419 80.3816 52.192 84.7716 56.482C92.6316 64.162 99.4216 70.8019 97.5416 80.3119C95.6516 89.8719 92.9016 97.9219 90.2416 105.712C89.0816 109.112 87.8716 112.632 86.7516 116.262C83.1416 127.892 82.2516 152.832 82.2416 153.082C82.2016 154.132 81.3416 154.962 80.2916 154.962L80.2816 154.972Z" fill="white"/>
<path d="M19.5616 194.463C12.0916 194.463 9.14158 191.742 7.98158 189.432C6.47158 186.452 7.35156 183.022 8.81156 181.112C12.4116 176.362 23.8316 174.903 35.2216 173.823C37.2816 173.623 39.6216 173.402 40.1316 173.242C40.4416 173.132 40.8116 173.012 41.2416 172.872C44.2716 171.912 49.9016 170.122 50.7616 165.412C51.5316 161.182 51.4816 153.113 51.4816 153.033C51.4816 151.953 52.3416 151.072 53.4216 151.062H53.4416C54.5116 151.062 55.3816 151.923 55.3916 153.003C55.3916 153.353 55.4515 161.512 54.6115 166.112C53.3315 173.132 45.9716 175.463 42.4316 176.593C42.0316 176.723 41.6916 176.822 41.4416 176.912C40.6016 177.212 39.0416 177.373 35.6016 177.703C31.7016 178.073 26.3516 178.582 21.6016 179.542C14.7216 180.932 12.5916 182.602 11.9316 183.472C11.2916 184.322 10.7216 186.182 11.4816 187.682C12.4416 189.592 15.4416 190.613 19.9216 190.562C26.5716 190.483 36.0516 188.962 45.2316 187.492C60.9916 184.972 70.8616 183.582 74.9216 185.672C75.8816 186.162 76.2616 187.342 75.7716 188.302C75.2816 189.262 74.1016 189.643 73.1416 189.153C72.2216 188.683 69.7616 188.253 63.2916 188.883C58.2816 189.373 52.2416 190.332 45.8516 191.362C36.5416 192.852 26.9116 194.392 19.9816 194.482C19.8516 194.482 19.7216 194.482 19.5916 194.482L19.5616 194.463Z" fill="white"/>
<path d="M113.802 193.853C105.842 193.853 94.4424 190.853 83.4124 187.943C77.5324 186.393 71.9724 184.933 67.4724 184.083C61.5224 182.963 59.6024 183.353 58.9924 183.693C58.0424 184.213 56.8624 183.863 56.3424 182.913C55.8224 181.963 56.1724 180.783 57.1224 180.263C60.9824 178.153 70.0024 180.373 84.4124 184.173C94.8824 186.933 106.762 190.053 114.192 189.953C118.672 189.893 121.642 188.783 122.552 186.853C123.262 185.343 122.652 183.493 121.982 182.663C121.302 181.813 119.122 180.203 112.212 178.993C107.432 178.163 102.082 177.793 98.1724 177.523C94.7224 177.283 93.1624 177.173 92.3124 176.893C92.0624 176.813 91.7124 176.713 91.3124 176.593C87.7424 175.563 80.3224 173.423 78.8624 166.443C77.7724 161.233 78.4424 151.873 78.4724 151.473C78.5524 150.403 79.4824 149.593 80.5624 149.673C81.6324 149.753 82.4424 150.683 82.3624 151.763C82.3624 151.853 81.7024 160.973 82.6824 165.643C83.6624 170.323 89.3424 171.963 92.3924 172.843C92.8324 172.973 93.2024 173.073 93.5224 173.183C94.0224 173.323 96.3624 173.483 98.4324 173.623C109.842 174.403 121.292 175.553 125.022 180.213C126.522 182.093 127.492 185.493 126.072 188.513C124.952 190.893 121.992 193.743 114.242 193.853C114.102 193.853 113.952 193.853 113.802 193.853Z" fill="white"/>
<path d="M44.2289 129.038C44.0089 129.038 43.7889 128.998 43.5789 128.918C39.5889 127.438 35.7189 125.558 32.0789 123.328C22.5089 117.478 14.4989 109.238 8.91891 99.5183C3.16891 89.4883 0.128906 78.0383 0.128906 66.4083C0.128906 48.5983 7.0589 31.8583 19.6589 19.2683C32.2489 6.67828 48.9889 -0.261719 66.7989 -0.261719C84.6089 -0.261719 101.349 6.66828 113.939 19.2683C126.529 31.8583 133.469 48.5983 133.469 66.4083C133.469 78.9283 129.979 91.1283 123.379 101.698C116.959 111.978 107.869 120.318 97.0889 125.818C94.8089 126.978 92.4489 128.018 90.0589 128.908C89.0889 129.268 88.0189 128.778 87.6589 127.808C87.2989 126.838 87.7889 125.768 88.7589 125.408C91.0189 124.568 93.2489 123.588 95.3989 122.488C116.579 111.668 129.739 90.1783 129.739 66.4083C129.739 31.7083 101.509 3.4783 66.8089 3.4783C32.1089 3.4783 3.87891 31.7083 3.87891 66.4083C3.87891 88.5083 15.1489 108.598 34.0389 120.138C37.4789 122.238 41.1289 124.018 44.8989 125.418C45.8689 125.778 46.3589 126.858 45.9989 127.818C45.7189 128.568 45.0089 129.038 44.2489 129.038H44.2289Z" fill="white"/>
</g>
<defs>
<clipPath id="clip0_1554_67">
<rect width="133" height="194" fill="white"/>
</clipPath>
</defs>
</svg>
