<svg xmlns="http://www.w3.org/2000/svg" xmlns:xlink="http://www.w3.org/1999/xlink" width="143.627" height="124.677" viewBox="0 0 143.627 124.677">
  <defs>
    <clipPath id="clip-path">
      <rect id="Rectangle_57" data-name="Rectangle 57" width="143.627" height="124.677" fill="none"/>
    </clipPath>
  </defs>
  <g id="Group_23" data-name="Group 23" clip-path="url(#clip-path)">
    <path id="Path_17" data-name="Path 17" d="M85.92,88.269H51.378c-.255,0-.51,0-.765.01-.728.016-1.061.227-.8,1.077.668,2.153,1.259,4.329,1.856,6.5.124.451.3.679.816.658.616-.025,1.235.076,1.853.076q32.684,0,65.368,0a15.438,15.438,0,0,1,11.018,3.973,14.021,14.021,0,0,1,.6,19.508,13.8,13.8,0,0,1-23.262-4.631,13.332,13.332,0,0,1,.817-11.405c.362-.654.1-.761-.44-.779-.838-.029-1.676-.04-2.514-.04q-20.551-.018-41.1-.03c-.693,0-1.59-.187-2,.261-.464.505.327,1.114.559,1.666a14.076,14.076,0,0,1-11.234,19.448c-5.332.761-11.314-2.458-13.881-7.432a13.882,13.882,0,0,1,6.549-19.171c.6-.271.5-.563.368-1.018q-2.008-6.8-3.993-13.6c-1.544-5.3-3.037-10.62-4.624-15.909-2.046-6.822-3.99-13.674-6.024-20.5-2.4-8.042-4.753-16.1-7.121-24.148-.82-2.79-1.6-5.591-2.446-8.374C20.261,12.055,19.4,9.74,18.859,7.33c-.134-.588-.6-.528-1.038-.548-4.3-.2-8.6-.142-12.894-.113-1.44.009-2.908.189-4.072-1.048A3.546,3.546,0,0,1,.507,1.51a3.357,3.357,0,0,1,2.74-1.5q8.8.032,17.6-.007C22.788-.01,23.764,1.148,24.3,2.776c.595,1.794,1.059,3.63,1.588,5.445.754,2.583,1.539,5.157,2.257,7.749.216.778.786.78,1.354.809,5.237.268,10.462.743,15.713.818,7.723.109,15.425.714,23.137,1.115,5.711.3,11.432.393,17.139.752,10.98.689,21.977,1.016,32.962,1.615,6.946.379,13.907.458,20.847.984a16.629,16.629,0,0,1,1.733.209,3.073,3.073,0,0,1,2.573,3.476,22.815,22.815,0,0,1-1.186,4.3q-5.8,18.707-11.59,37.415c-1.754,5.626-3.543,11.24-5.172,16.9-.874,3.041-1.981,3.869-5.2,3.871q-17.271.009-34.542,0v.024M83.456,50.287q6.28,0,12.56,0c.491,0,1.045.134,1.182-.617a24.8,24.8,0,0,0,.848-5.464,10.1,10.1,0,0,1,.126-1.847c.665-4.573,1.154-9.165,1.563-13.765.15-1.692-.032-1.824-1.764-1.905-3.708-.174-7.415-.413-11.126-.5-6.33-.149-12.628-.915-18.964-.951-1-.005-.958.418-.88,1.086.213,1.806.414,3.613.631,5.418.7,5.815,1.418,11.626,2.075,17.445.1.9.442,1.128,1.3,1.12,4.15-.039,8.3-.018,12.45-.018m-32.593,0q5.406,0,10.812,0c1.506,0,1.5,0,1.384-1.429-.052-.616-.062-1.237-.141-1.849-.469-3.677-.982-7.347-1.423-11.027-.408-3.394-.747-6.8-1.1-10.2-.054-.519-.275-.8-.818-.806-.873-.015-1.749-.013-2.618-.083-7.184-.582-14.385-.82-21.583-1.115-1.31-.054-2.618-.112-3.927-.169-.776-.033-1.036.235-.782,1.05,1.019,3.259,1.989,6.533,2.976,9.8,1.478,4.9,3,9.8,4.394,14.723.26.919.615,1.125,1.47,1.117,3.786-.037,7.572-.016,11.358-.016m65.7,0V50.26c3.823,0,7.648-.032,11.471.022a1.422,1.422,0,0,0,1.593-1.225q2.995-9.632,6.076-19.237c.325-1.008-.114-1.283-.934-1.319-1.454-.063-2.92.018-4.366-.116-7.508-.7-15.051-.713-22.569-1.221-.818-.055-1.245.153-1.353,1.094q-1.212,10.572-2.53,21.13c-.117.942.408.9,1.029.9q5.79-.008,11.582,0M83.554,81.538v-.021c2.949,0,5.9-.008,8.847.006.581,0,1.223.018,1.183-.744-.108-2.065.8-3.974.839-6.011a20.537,20.537,0,0,1,.225-2.826c.716-4.457,1.011-8.963,1.577-13.437.2-1.545.143-1.551-1.439-1.539-2.039.016-4.078.042-6.117.042q-8.466,0-16.932-.023c-.594,0-1.079-.032-.973.846Q72.125,69.1,73.417,80.375c.1.868.414,1.188,1.289,1.177,2.949-.037,5.9-.014,8.847-.014M115.07,56.9v.085c-3.6,0-7.207.018-10.81-.013-.8-.007-1.183.225-1.282,1.07-.387,3.285-.854,6.56-1.248,9.843-.5,4.152-.9,8.317-1.472,12.458-.13.943.04,1.126.9,1.125q8.844,0,17.688.054c.693,0,.9-.331,1.084-.94,1.032-3.446,2.116-6.875,3.182-10.31,1.238-3.989,2.5-7.972,3.7-11.972.419-1.39.351-1.4-1.043-1.4q-5.35.008-10.7,0M65.135,66.648c-.28-2.722-.6-5.418-.815-8.125-.081-1.043-.44-1.481-1.513-1.481-7.249,0-14.5-.031-21.746-.049-.527,0-.788.111-.587.783q3.379,11.338,6.681,22.7c.219.754.535,1.063,1.346,1.059q8.742-.04,17.486.009c.768,0,1.029-.189.924-.99-.314-2.381-.516-4.777-.85-7.155s-.6-4.779-.805-7.184l-.119.431m55.886,36.57a7.4,7.4,0,0,0-7.292,7.079,7.21,7.21,0,0,0,7.525,7.674,7.322,7.322,0,0,0,7.229-7.252,7.417,7.417,0,0,0-7.463-7.5m-63.166,7.3c.233-4.46-4.178-7.566-7.689-7.288a7.56,7.56,0,0,0-6.995,7.655,7.255,7.255,0,0,0,7.848,7.027,7.059,7.059,0,0,0,6.836-7.394" transform="translate(0 0)" fill="#fff"/>
  </g>
</svg>
