<svg id="Group_20" data-name="Group 20" xmlns="http://www.w3.org/2000/svg" xmlns:xlink="http://www.w3.org/1999/xlink" width="154.651" height="128.827" viewBox="0 0 154.651 128.827">
  <defs>
    <clipPath id="clip-path">
      <rect id="Rectangle_55" data-name="Rectangle 55" width="154.651" height="128.827" fill="none"/>
    </clipPath>
  </defs>
  <g id="Group_19" data-name="Group 19" clip-path="url(#clip-path)">
    <path id="Path_5" data-name="Path 5" d="M24.653,9.342c.186-.525.531-.454.791-.488C31.2,8.11,36.781,6.486,42.488,5.478,47.442,4.6,52.4,3.66,57.266,2.359A11.447,11.447,0,0,1,59.855,2.1a1.942,1.942,0,0,1,1.71.847c3.783,5.227,8.1,10.037,11.97,15.194.962,1.281,1.9,2.6,2.962,3.818.558.64.861.606,1.329.03,1.358-1.668,2.75-3.308,4.079-5,3.249-4.133,6.424-8.324,9.86-12.305a15.214,15.214,0,0,0,1.8-2.186c.385-.66,1.069-.5,1.686-.422,3.043.395,5.992,1.247,8.993,1.852,4.457.9,8.933,1.717,13.366,2.721,3.51.795,7.125,1.16,10.56,2.132,2.563.725,5.115,1.541,7.718,2.115,4.723,1.04,9.475,1.944,14.213,2.91a6.078,6.078,0,0,1,1.2.307c1.547.668,1.726,1.365.733,2.676q-7.65,10.1-15.316,20.183a1.323,1.323,0,0,0,.01,1.924c3.241,4.3,6.71,8.415,9.993,12.677a65.948,65.948,0,0,1,5.444,7.527c.358.632.2.887-.32,1.14a4.954,4.954,0,0,1-1.026.414c-2.982.683-5.882,1.715-8.917,2.159-1.9.278-3.634,1.117-5.5,1.482-.7.137-.745.646-.742,1.224.015,2.735.016,5.469.017,8.2.005,8,.022,15.992,0,23.988,0,1.612-.144,3.224-.233,4.836a2.346,2.346,0,0,1-1.719,2.3c-2.794,1.006-5.626,1.96-8.3,3.235-3.325,1.586-6.718,2.969-10.17,4.232-2.485.909-4.969,1.823-7.43,2.8-2.845,1.126-5.669,2.307-8.493,3.484-3.964,1.652-7.889,3.392-11.952,4.8-2.655.922-5.25,2.016-7.888,2.987a5.757,5.757,0,0,1-4.367.028c-4.607-1.949-9.43-3.346-13.984-5.424-8.528-3.893-17.381-6.95-26.135-10.265a21.85,21.85,0,0,1-4.97-2.112c-2.682-1.926-5.938-2.121-8.758-3.548-1.594-.806-2.388-1.687-2.377-3.558.063-10.937.022-21.875.016-32.812,0-.953-.013-1.906,0-2.858s-.235-1.41-1.359-1.755c-4.311-1.322-8.789-1.938-13.089-3.264-3.236-1-2.929-.844-1.172-3.2,3.881-5.212,7.977-10.263,12-15.369a30.179,30.179,0,0,1,2.977-3.651c.49-.454.386-.878-.032-1.39-3.741-4.584-7.3-9.306-10.82-14.063Q5.1,19.991,2.677,16.924c-1.1-1.4-.84-2.346.887-2.879,1.947-.6,3.975-.792,5.961-1.2,2.354-.48,4.653-1.132,6.953-1.825,2.211-.666,4.52-1,6.776-1.525.682-.158.93.4,1.159.723.341.485-.354.482-.581.7-.206.2-.571.294-.682.523-.743,1.528-2.256,1.566-3.585,1.777-4.578.726-9.048,2.012-13.654,2.574-.833.1-.584.513-.284.912,2.435,3.243,4.826,6.522,7.342,9.7,1.694,2.14,3.464,4.22,5.028,6.462.8,1.151,1.617,2.3,2.411,3.454a.941.941,0,0,0,1.2.345c4.6-1.4,9.393-1.993,14.017-3.3,3.181-.9,6.346-1.864,9.549-2.678,1.959-.5,4.011-.639,5.959-1.169,3.4-.923,6.876-1.444,10.272-2.3,4.126-1.045,8.335-1.725,12.415-2.968,1.041-.318.908-.534.39-1.247C70.02,17.241,65.255,11.93,61.033,6.193c-.318-.431-.646-.858-.927-1.313a.984.984,0,0,0-1.155-.494Q47.116,6.876,35.282,9.372a19.281,19.281,0,0,0-2.252.7,1.788,1.788,0,0,1-2.06-.359A2.586,2.586,0,0,0,29.1,9.19a31.276,31.276,0,0,0-4.452.152M78.529,89.386H78.5q0,14.477,0,28.954c0,1.657,0,3.314.006,4.971,0,.611.063,1.082.927.732,3.942-1.6,7.947-3.054,11.839-4.766,2.677-1.178,5.417-2.183,8.116-3.295,4.508-1.856,9.153-3.382,13.653-5.257,6.4-2.67,12.828-5.29,19.32-7.74a1.028,1.028,0,0,0,.785-1.168q-.062-17.708-.09-35.415c0-1-.287-1.213-1.231-.982-2.124.521-4.232,1.119-6.344,1.642-3.162.782-6.368,1.423-9.544,2.184-4.019.963-8.062,1.833-12.113,2.654-2.879.583-5.673,1.525-8.586,1.952-.653.1-1.293.12-1.665-.5a30.181,30.181,0,0,0-2.256-2.8Q85.6,63.119,79.882,55.69c-.289-.375-.509-1.111-1.014-.939-.582.2-.328.947-.329,1.456q-.02,16.588-.01,33.179m-56.941-5.47h-.02c0,5.84.017,11.68-.017,17.52a1.625,1.625,0,0,0,1.195,1.746c2.289.953,4.638,1.747,6.951,2.626,5.717,2.174,11.228,4.838,16.99,6.907,6.528,2.342,12.964,4.935,19.347,7.655,2.964,1.264,5.977,2.415,8.954,3.649.763.316.9.13.9-.657-.03-15.532-.087-31.064-.012-46.6.027-5.521-.347-11.049.3-16.575.185-1.586-.347-3.269-.1-4.925.028-.187.053-.441-.166-.55-.277-.138-.491.067-.64.247-.5.6-.975,1.232-1.454,1.855C70,61.771,66.055,66.629,62.447,71.725c-1.388,1.961-2.695,2.37-4.865,1.8C53.315,72.4,49.016,71.364,44.688,70.5c-4.535-.908-9.044-1.928-13.547-2.969-1.527-.353-3.375-.01-4.5-1.575-1.364.415-2.6-.29-3.871-.524-1.007-.186-1.2.014-1.2.967.031,5.84.015,11.68.015,17.52M133.475,36.7c.389.149.677-.146.948-.578.394-.629.838-1.227,1.266-1.834,4.249-6.019,9.047-11.621,13.355-17.6.38-.527.55-.785-.312-.914-6.008-.9-11.925-2.282-17.885-3.437-.354-.069-1.776.585-1.118-.925a.681.681,0,0,0-.371-.224c-1.653.04-3.145-.662-4.716-.983-4.457-.912-8.985-1.509-13.4-2.579-4.9-1.189-9.932-1.751-14.795-3.107-.543-.152-1.141-.422-1.616.132-.617.721-1.2,1.469-1.793,2.212C91,9.431,89.015,12.028,86.93,14.546q-3.408,4.115-6.6,8.4c-.406.547-.721,1.076.349,1.318,7.936,1.8,15.864,3.628,23.8,5.427,1.368.31,2.76.508,4.138.775,1.942.377,3.582,1.668,5.609,1.828a18.638,18.638,0,0,1,2.8.495c3.179.757,6.328,1.662,9.533,2.286,2.277.443,4.438,1.334,6.911,1.631M58.932,71.462a1.122,1.122,0,0,0,1.262-.587C64.615,64.419,69.6,58.39,74.351,52.182c.687-.9.548-1.343-.527-1.64-3.147-.87-6.386-1.349-9.573-2-4.812-.979-9.657-1.859-14.473-2.83-1.566-.315-3.625.286-4.672-1.658-.025-.047-.153-.054-.233-.057a24.453,24.453,0,0,1-4.086-.946c-5.737-1.221-11.593-1.879-17.234-3.538-1.912-.563-3.012-.2-4.273,1.489-4.323,5.8-8.9,11.424-13.384,17.106-.437.553-.412.8.332.985,4.358,1.1,8.774,1.963,13.158,2.944,3.727.834,7.428,1.719,11.08,2.821,1.276.385,2.6.492,3.879.835,6.266,1.688,12.594,3.114,18.933,4.482a39.847,39.847,0,0,0,5.654,1.285m74.02-32.25a4.934,4.934,0,0,0-.834.155,97.248,97.248,0,0,1-10.436,2.206c-5.8,1.155-11.509,2.68-17.235,4.139-1.44.367-2.935.518-4.384.856-6.4,1.5-12.862,2.692-19.3,4-.989.2-1.191.572-.6,1.4.454.637,1.057,1.171,1.5,1.814,4.1,5.911,8.786,11.383,13.058,17.167a1.258,1.258,0,0,0,1.515.5c1.19-.337,2.368-.732,3.576-.983,5.746-1.193,11.438-2.613,17.152-3.937,5.027-1.164,9.975-2.615,15-3.757,5.434-1.234,10.867-2.473,16.309-3.67.815-.179.965-.262.385-1.02-4.751-6.207-9.854-12.141-14.355-18.539-.31-.441-.68-.384-1.356-.335M26.771,37.77c.163.329.435.33.668.383,3.139.716,6.3,1.4,9.452,1.979,4.367.81,8.641,1.951,12.959,2.93C56.628,44.6,63.407,46.128,70.2,47.581c3.021.646,6.042,1.517,9.2.931q9.022-1.677,17.953-3.792,6.69-1.581,13.391-3.116c3.932-.9,7.865-1.876,11.862-2.512,1.675-.266,3.325-.684,5.113-1.06-.223-.2-.274-.283-.339-.3-5.5-1.144-10.94-2.578-16.472-3.58-.271-.05-.8-.083-.652-.369.6-1.19-.458-.606-.781-.789-1.183-.673-2.89.744-3.824-.955-.025-.044-.158-.025-.239-.041-2.789-.563-5.585-1.095-8.365-1.7-5.656-1.227-11.3-2.488-16.954-3.744-1.408-.314-1.367-.331-1.364,1.048.01,4.514.01,9.028-.035,13.542-.009.885-.022,2.027-1.335,1.961-1.141-.057-1.318-1.072-1.439-2a3.915,3.915,0,0,1-.013-.5c0-4.473-.022-8.947.037-13.419.011-.818-.233-.951-.916-.79-1.529.362-3.056.73-4.591,1.069-5.127,1.132-10.268,2.2-15.383,3.39-4.388,1.017-8.732,2.2-13.069,3.438-3.445.98-6.993,1.657-10.485,2.515-1.554.382-3.138.637-4.729.953" fill="#fff"/>
    <path id="Path_6" data-name="Path 6" d="M24.653,9.342c.186-.525.531-.454.791-.488C31.2,8.11,36.781,6.486,42.488,5.478,47.442,4.6,52.4,3.66,57.266,2.359A11.447,11.447,0,0,1,59.855,2.1a1.942,1.942,0,0,1,1.71.847c3.783,5.227,8.1,10.037,11.97,15.194.962,1.281,1.9,2.6,2.962,3.818.558.64.861.606,1.329.03,1.358-1.668,2.75-3.308,4.079-5,3.249-4.133,6.424-8.324,9.86-12.305a15.214,15.214,0,0,0,1.8-2.186c.385-.66,1.069-.5,1.686-.422,3.043.395,5.992,1.247,8.993,1.852,4.457.9,8.933,1.717,13.366,2.721,3.51.795,7.125,1.16,10.56,2.132,2.563.725,5.115,1.541,7.718,2.115,4.723,1.04,9.475,1.944,14.213,2.91a6.078,6.078,0,0,1,1.2.307c1.547.668,1.726,1.365.733,2.676q-7.65,10.1-15.316,20.183a1.323,1.323,0,0,0,.01,1.924c3.241,4.3,6.71,8.415,9.993,12.677a65.948,65.948,0,0,1,5.444,7.527c.358.632.2.887-.32,1.14a4.954,4.954,0,0,1-1.026.414c-2.982.683-5.882,1.715-8.917,2.159-1.9.278-3.634,1.117-5.5,1.482-.7.137-.745.646-.742,1.224.015,2.735.016,5.469.017,8.2.005,8,.022,15.992,0,23.988,0,1.612-.144,3.224-.233,4.836a2.346,2.346,0,0,1-1.719,2.3c-2.794,1.006-5.626,1.96-8.3,3.235-3.325,1.586-6.718,2.969-10.17,4.232-2.485.909-4.969,1.823-7.43,2.8-2.845,1.126-5.669,2.307-8.493,3.484-3.964,1.652-7.889,3.392-11.952,4.8-2.655.922-5.25,2.016-7.888,2.987a5.757,5.757,0,0,1-4.367.028c-4.607-1.949-9.43-3.346-13.984-5.424-8.528-3.893-17.381-6.95-26.135-10.265a21.85,21.85,0,0,1-4.97-2.112c-2.682-1.926-5.938-2.121-8.758-3.548-1.594-.806-2.388-1.687-2.377-3.558.063-10.937.022-21.875.016-32.812,0-.953-.013-1.906,0-2.858s-.235-1.41-1.359-1.755c-4.311-1.322-8.789-1.938-13.089-3.264-3.236-1-2.929-.844-1.172-3.2,3.881-5.212,7.977-10.263,12-15.369a30.179,30.179,0,0,1,2.977-3.651c.49-.454.386-.878-.032-1.39-3.741-4.584-7.3-9.306-10.82-14.063Q5.1,19.991,2.677,16.924c-1.1-1.4-.84-2.346.887-2.879,1.947-.6,3.975-.792,5.961-1.2,2.354-.48,4.653-1.132,6.953-1.825,2.211-.666,4.52-1,6.776-1.525.682-.158.93.4,1.159.723.341.485-.354.482-.581.7-.206.2-.571.294-.682.523-.743,1.528-2.256,1.566-3.585,1.777-4.578.726-9.048,2.012-13.654,2.574-.833.1-.584.513-.284.912,2.435,3.243,4.826,6.522,7.342,9.7,1.694,2.14,3.464,4.22,5.028,6.462.8,1.151,1.617,2.3,2.411,3.454a.941.941,0,0,0,1.2.345c4.6-1.4,9.393-1.993,14.017-3.3,3.181-.9,6.346-1.864,9.549-2.678,1.959-.5,4.011-.639,5.959-1.169,3.4-.923,6.876-1.444,10.272-2.3,4.126-1.045,8.335-1.725,12.415-2.968,1.041-.318.908-.534.39-1.247C70.02,17.241,65.255,11.93,61.033,6.193c-.318-.431-.646-.858-.927-1.313a.984.984,0,0,0-1.155-.494Q47.116,6.876,35.282,9.372a19.281,19.281,0,0,0-2.252.7,1.788,1.788,0,0,1-2.06-.359A2.586,2.586,0,0,0,29.1,9.19,31.276,31.276,0,0,0,24.653,9.342ZM78.529,89.386H78.5q0,14.477,0,28.954c0,1.657,0,3.314.006,4.971,0,.611.063,1.082.927.732,3.942-1.6,7.947-3.054,11.839-4.766,2.677-1.178,5.417-2.183,8.116-3.295,4.508-1.856,9.153-3.382,13.653-5.257,6.4-2.67,12.828-5.29,19.32-7.74a1.028,1.028,0,0,0,.785-1.168q-.062-17.708-.09-35.415c0-1-.287-1.213-1.231-.982-2.124.521-4.232,1.119-6.344,1.642-3.162.782-6.368,1.423-9.544,2.184-4.019.963-8.062,1.833-12.113,2.654-2.879.583-5.673,1.525-8.586,1.952-.653.1-1.293.12-1.665-.5a30.181,30.181,0,0,0-2.256-2.8Q85.6,63.119,79.882,55.69c-.289-.375-.509-1.111-1.014-.939-.582.2-.328.947-.329,1.456Q78.52,72.8,78.529,89.386Zm-56.941-5.47h-.02c0,5.84.017,11.68-.017,17.52a1.625,1.625,0,0,0,1.195,1.746c2.289.953,4.638,1.747,6.951,2.626,5.717,2.174,11.228,4.838,16.99,6.907,6.528,2.342,12.964,4.935,19.347,7.655,2.964,1.264,5.977,2.415,8.954,3.649.763.316.9.13.9-.657-.03-15.532-.087-31.064-.012-46.6.027-5.521-.347-11.049.3-16.575.185-1.586-.347-3.269-.1-4.925.028-.187.053-.441-.166-.55-.277-.138-.491.067-.64.247-.5.6-.975,1.232-1.454,1.855C70,61.771,66.055,66.629,62.447,71.725c-1.388,1.961-2.695,2.37-4.865,1.8C53.315,72.4,49.016,71.364,44.688,70.5c-4.535-.908-9.044-1.928-13.547-2.969-1.527-.353-3.375-.01-4.5-1.575-1.364.415-2.6-.29-3.871-.524-1.007-.186-1.2.014-1.2.967C21.6,72.236,21.588,78.076,21.588,83.916ZM133.475,36.7c.389.149.677-.146.948-.578.394-.629.838-1.227,1.266-1.834,4.249-6.019,9.047-11.621,13.355-17.6.38-.527.55-.785-.312-.914-6.008-.9-11.925-2.282-17.885-3.437-.354-.069-1.776.585-1.118-.925a.681.681,0,0,0-.371-.224c-1.653.04-3.145-.662-4.716-.983-4.457-.912-8.985-1.509-13.4-2.579-4.9-1.189-9.932-1.751-14.795-3.107-.543-.152-1.141-.422-1.616.132-.617.721-1.2,1.469-1.793,2.212C91,9.431,89.015,12.028,86.93,14.546q-3.408,4.115-6.6,8.4c-.406.547-.721,1.076.349,1.318,7.936,1.8,15.864,3.628,23.8,5.427,1.368.31,2.76.508,4.138.775,1.942.377,3.582,1.668,5.609,1.828a18.638,18.638,0,0,1,2.8.495c3.179.757,6.328,1.662,9.533,2.286C128.841,35.515,131,36.406,133.475,36.7ZM58.932,71.462a1.122,1.122,0,0,0,1.262-.587C64.615,64.419,69.6,58.39,74.351,52.182c.687-.9.548-1.343-.527-1.64-3.147-.87-6.386-1.349-9.573-2-4.812-.979-9.657-1.859-14.473-2.83-1.566-.315-3.625.286-4.672-1.658-.025-.047-.153-.054-.233-.057a24.453,24.453,0,0,1-4.086-.946c-5.737-1.221-11.593-1.879-17.234-3.538-1.912-.563-3.012-.2-4.273,1.489-4.323,5.8-8.9,11.424-13.384,17.106-.437.553-.412.8.332.985,4.358,1.1,8.774,1.963,13.158,2.944,3.727.834,7.428,1.719,11.08,2.821,1.276.385,2.6.492,3.879.835,6.266,1.688,12.594,3.114,18.933,4.482A39.847,39.847,0,0,0,58.932,71.462Zm74.02-32.25a4.934,4.934,0,0,0-.834.155,97.248,97.248,0,0,1-10.436,2.206c-5.8,1.155-11.509,2.68-17.235,4.139-1.44.367-2.935.518-4.384.856-6.4,1.5-12.862,2.692-19.3,4-.989.2-1.191.572-.6,1.4.454.637,1.057,1.171,1.5,1.814,4.1,5.911,8.786,11.383,13.058,17.167a1.258,1.258,0,0,0,1.515.5c1.19-.337,2.368-.732,3.576-.983,5.746-1.193,11.438-2.613,17.152-3.937,5.027-1.164,9.975-2.615,15-3.757,5.434-1.234,10.867-2.473,16.309-3.67.815-.179.965-.262.385-1.02-4.751-6.207-9.854-12.141-14.355-18.539C134,39.106,133.628,39.163,132.952,39.212ZM26.771,37.77c.163.329.435.33.668.383,3.139.716,6.3,1.4,9.452,1.979,4.367.81,8.641,1.951,12.959,2.93C56.628,44.6,63.407,46.128,70.2,47.581c3.021.646,6.042,1.517,9.2.931q9.022-1.677,17.953-3.792,6.69-1.581,13.391-3.116c3.932-.9,7.865-1.876,11.862-2.512,1.675-.266,3.325-.684,5.113-1.06-.223-.2-.274-.283-.339-.3-5.5-1.144-10.94-2.578-16.472-3.58-.271-.05-.8-.083-.652-.369.6-1.19-.458-.606-.781-.789-1.183-.673-2.89.744-3.824-.955-.025-.044-.158-.025-.239-.041-2.789-.563-5.585-1.095-8.365-1.7-5.656-1.227-11.3-2.488-16.954-3.744-1.408-.314-1.367-.331-1.364,1.048.01,4.514.01,9.028-.035,13.542-.009.885-.022,2.027-1.335,1.961-1.141-.057-1.318-1.072-1.439-2a3.915,3.915,0,0,1-.013-.5c0-4.473-.022-8.947.037-13.419.011-.818-.233-.951-.916-.79-1.529.362-3.056.73-4.591,1.069-5.127,1.132-10.268,2.2-15.383,3.39-4.388,1.017-8.732,2.2-13.069,3.438-3.445.98-6.993,1.657-10.485,2.515C29.946,37.2,28.362,37.454,26.771,37.77Z" fill="none" stroke="#fff" stroke-linecap="round" stroke-linejoin="round" stroke-width="4"/>
  </g>
</svg>
