<svg id="Group_22" data-name="Group 22" xmlns="http://www.w3.org/2000/svg" xmlns:xlink="http://www.w3.org/1999/xlink" width="141.739" height="122.475" viewBox="0 0 141.739 122.475">
  <defs>
    <clipPath id="clip-path">
      <rect id="Rectangle_56" data-name="Rectangle 56" width="141.739" height="122.475" fill="none"/>
    </clipPath>
  </defs>
  <g id="Group_21" data-name="Group 21" clip-path="url(#clip-path)">
    <path id="Path_7" data-name="Path 7" d="M17.111,77.581c-.1-.3-.192-.559-.286-.835C14.906,79,12.493,80.834,11.6,83.8c-.2.679-.639.995-1.349.535-.585-.38-.818,0-1.042.468-.615,1.3-1.078,2.689-2.291,3.618-.347.266-.279.685-.272,1.067.074,4.037.1,8.074-.033,12.11-.009.271-.2.631.165.782.312.129.574-.142.787-.32A4.322,4.322,0,0,0,9.088,99.6c.17-.862.53-1.2,1.373-1.042,1.146.207,1.684-.411,1.855-1.422a2.974,2.974,0,0,1,1.357-2.062,7.559,7.559,0,0,0,1.313-1.535c.6-.679,1.17-1.519,2.312-1.331a.487.487,0,0,0,.607-.347c.34-1.8,2.21-2.338,3.1-3.7.374-.57.975-1.384,2.007-.769.29.173.577-.182.7-.428,1.123-2.294,3.6-3.348,4.979-5.4.214-.317.487-.25.786-.1A1.238,1.238,0,0,0,31.33,80.7c.658-1.879,2.464-2.039,3.9-2.718.313-.147.638-.159.914-.481a6.493,6.493,0,0,1,3.172-1.793c.872-.272,1.108.313,1.4.907.3.615.538,1.212-.188,1.671a6.725,6.725,0,0,1-1.483.732c-.924.3-1.915.424-2.1,1.683-.053.366-.52.577-.93.546-2.188-.173-3.337,1.3-4.334,2.837-.679,1.048-1.3,1.869-2.712,1.549-.409-.093-.767.042-.808.564-.069.887-.691,1.309-1.409,1.655a5.787,5.787,0,0,0-3.118,2.874c-.081.191-.162.475-.4.434-2.4-.405-2.668,1.493-3.267,3.007-.112.284-.122.585-.5.627a2.34,2.34,0,0,0-2.252,2.5c-.514-.415-.075-.969-.557-1.366-1.569,2.411-4.163,4.11-4.878,7.086-.213.889-.607,1.15-1.406.97a1.264,1.264,0,0,0-1.533.751c-.77,1.27-1.674,2.46-2.522,3.683a1.322,1.322,0,0,1-1.872.523.9.9,0,0,0-.111-.064c-2.22-.76-2.288-.759-2.3-3.24-.018-3.951,0-7.9.129-11.854.084-2.6-.1-5.181-.159-7.77a31.428,31.428,0,0,1,.846-7.265c.668,1.663.185,3.484.873,5.444a22.285,22.285,0,0,0,.439-4.822c.344-4.865,2.02-9.346,3.782-13.814A19.239,19.239,0,0,0,9.4,60.7c.087-.773.6-.681,1-.538,1.046.371,1.335-.068,1.453-1.028.452-3.7,2.825-6.593,4.263-9.88a.571.571,0,0,1,.824-.36c.981.45.954-.236.987-.859.048-.939.2-1.788,1.376-1.966.5-.076.555-.505.7-.932a13.621,13.621,0,0,1,1.756-4.208c.227-.3.479-.7.887-.657.526.062.152.688.6,1.064,1.14-3.23,4.047-5.282,5.306-8.408.2-.5.325-.838.925-.208.727.763,1.208-.1,1.424-.589A16.609,16.609,0,0,1,33,28.795c.755-.992,1.457-1.912,2.9-2.026.878-.069,1.108-1.1,1.543-1.741a3.852,3.852,0,0,1,1.5-1.43c.907-.464,1.934-.994,2.055-2.25.021-.224.161-.458.375-.459.312,0,.381.278.4.548s.054.582.334.625c.365.057.409-.36.6-.565,1.533-1.608,2.946-3.275,5.2-4.1,1.141-.421,2.812-1,3.185-2.009.548-1.475,1.528-1.486,2.6-1.731.622-.142,1.249-.264,1.875-.395.3-.063.681-.124.709-.45.112-1.262,1.023-1.367,1.986-1.493a1.917,1.917,0,0,0,1.181-.709c.607-.7,1.247-1.312,2.3-.841.322.143.573-.1.8-.29A11.267,11.267,0,0,1,68.1,7.06c1.971-.355,3.846-1.128,5.86-1.279.165-.013.4-.031.48-.137,1.1-1.515,2.843-1.178,4.345-1.492A83.209,83.209,0,0,1,94.862,2,50.62,50.62,0,0,1,109.025,3.86a32.989,32.989,0,0,0,3.263.579c.917.159,1.813.214,2.352,1.233.295.557,1.082.591,1.735.637A8.723,8.723,0,0,1,122.1,8.474a1.338,1.338,0,0,0,1.368.477c.459-.129.79.241,1.157.439a22.751,22.751,0,0,1,3.52,2.463c1.8,1.473,3.96,2.569,5.319,4.591a9.147,9.147,0,0,1,1.572,2.873c.114.468.172.955,1.014.617,1.026-.412,1.369.556,1.642,1.286.852,2.277.926,4.763,1.729,7.035.894,2.527.679,5.09.716,7.656.032,2.21-.152,4.433.028,6.628.6,7.258-.81,14.277-2.384,21.28-.221.982-.377,2.361-2.11,1.614-.341-.147-.422.332-.457.617a13.089,13.089,0,0,1-3.164,6.426,23.175,23.175,0,0,0-1.66,2.566c-.176.3.111,1.652-1.092.73-.239-.184-.452.512-.537.862-.237.966-.464,1.884-1.688,2.1-.42.073-.653.512-.813.926a4.758,4.758,0,0,1-3.213,3.024c-.912.288-1.3,1.4-1.843,2.208-.164.242-.308.733-.441.726-1.459-.076-1.379,1.209-1.866,1.993-.458.738-1.05,1.259-2.007.938a.878.878,0,0,0-1.217.559,7.425,7.425,0,0,1-3.371,3.55c-1.253.581-2.434.9-2.905,2.351-.07.217-.457.415-.727.47a2.037,2.037,0,0,0-1.533,1.322c-.536,1.01-1.872,1.546-3.036,1.917a3.317,3.317,0,0,0-1.8,1.1c-.654.884-1.721,1.218-2.486,1.917-1.026.94-1.695,2.1-3.418,2.283-1.3.135-2.459,1.489-3.728,1.829-2.227.6-3.388,2.657-5.5,3.34a8.607,8.607,0,0,0-3.678,1.648c-1.1,1.021-2.858,1.218-4.432,1.439-.2.028-.51.038-.584.164-1.157,1.958-3.368,1.6-5.1,2.276a11.778,11.778,0,0,0-1.675.558A25.949,25.949,0,0,1,60.525,118.5c-1.122.081-1.627.961-2.559,1.25-2.866.888-5.835.723-8.754.984A114.181,114.181,0,0,1,29,120.384c-.968-.086-1.4-.486-1.5-1.355a34.95,34.95,0,0,1-.342-3.675c-.037-5.1,0-10.2-.022-15.3a2.269,2.269,0,0,1,1.105-2.372c.492-.251.484-.854.81-1.253.446.329.176,1.153.933,1.108.672-.04.506-.69.763-1.029a6.856,6.856,0,0,1,.891-.9c.6-.54,1.368-.918,1.748-1.658a1.8,1.8,0,0,1,1.869-1.043,1.284,1.284,0,0,0,1.179-.369c.974-1.4,2.529-2.231,3.523-3.6a2.06,2.06,0,0,1,2.162-1.02c.783.141,1.237-.159,1.3-.972a1.3,1.3,0,0,1,.69-1c.455-.31.844-.717,1.306-1.015.916-.592,1.309-1.691,2.68-1.977a4.913,4.913,0,0,0,2.42-2.222c.691-1.218,1.809-2.157,2.246-3.523.145-.454.553-.46.938-.509a3.226,3.226,0,0,0,.99-.189,1.3,1.3,0,0,0,.86-1.291c-.09-.54-.724-.511-1.181-.523a24.685,24.685,0,0,0-8.285,1.351c-.323.1-.624.284-.95.374a1.567,1.567,0,0,1-1.893-.918c-.46-.788-.024-1.309.543-1.739,1.762-1.337,3.862-1.5,5.958-1.583,2.431-.093,4.865-.116,7.3-.135,1.193-.009,2.037-.294,2.224-1.69.145-1.079.734-2.074.719-3.212-.008-.534.326-.705.864-.631A2.083,2.083,0,0,0,63.461,64.6c.219-2.084-.74-3.969-1.217-5.932-.075-.308-.488-.551-.709-.388-1,.735-1.253-.107-1.55-.7-.693-1.393-1.881-1.771-3.328-1.911a28.783,28.783,0,0,0-11.522.857,4.95,4.95,0,0,0-2.091,1.189c-.213.215-.437.471-.757.4-1.416-.314-2.021.727-2.97,1.446-1.066.809-2.686.9-3.111,2.526a7.62,7.62,0,0,0-3.2.749,1.924,1.924,0,0,0-1.157,1.23A2.2,2.2,0,0,1,29.2,65.724c-.419-.032-.511.226-.665.455-.938,1.391-2.42,2.3-3.433,3.522-1.067,1.289-2.01,2.248-3.7,2.332a.284.284,0,0,0-.212.132c-.808,2.144-2.817,3.416-4.076,5.416M61.057,55.83a2.166,2.166,0,0,1-.915-.864c-.22-.35-.65-.729-.476-1.123.227-.512.829-.362,1.272-.3A2.779,2.779,0,0,0,63.6,52.365a23.469,23.469,0,0,1,1.666-1.933c.712-.695,1.381-1.583,2.62-1.163.424.145.583-.149.524-.47-.211-1.174.619-1.48,1.43-1.922.963-.524,2.078-1.1,1.534-2.527a13.147,13.147,0,0,1-.665-6.393,1.962,1.962,0,0,0-1.289-2.313,55.358,55.358,0,0,1-6.445-3.351,2.163,2.163,0,0,0-2.159-.381c-.307.14-.66.07-.7-.306-.151-1.557-1.4-1.619-2.5-1.851-.614-.129-1.3-.31-1.415-.928-.2-1.045-.952-1.05-1.7-1.151-.84-.113-1.744-.055-2.382-.749A13.319,13.319,0,0,0,46.536,23.5c-2.232-.793-2.25-.873-3.413,1.117-.362.619-.677,1.078-1.482.608-.6-.349-.952.031-1.187.545-.87,1.9-2.713,2.971-3.955,4.558a1.047,1.047,0,0,1-1.331.466.423.423,0,0,0-.557.191c-.28,1.085-1.405,1.687-1.577,2.832a53.055,53.055,0,0,0-.754,10.783,23.271,23.271,0,0,0,1.911,8.262c.146.327.284,1.1.787.652,1-.9.886.047,1.056.519.673,1.861,2.169,2.513,3.912,1.63a5.592,5.592,0,0,1,1.971-.456c.864-.1,2,.186,2.073-1.263.013-.269.32-.238.514-.271a46.252,46.252,0,0,1,10.023-1.1c1.165.056,2.7-.163,2.9,1.7a.54.54,0,0,0,.353.343c1.094.243,1.548,1.244,2.3,1.885.191.162.418.473.583.445,1.517-.259,1.893.893,2.5,1.851a6.667,6.667,0,0,0,1.627,1.785,2.444,2.444,0,0,1,.907,2.481c-.081.586-.23,1.164-.366,1.743-.334,1.427-.038,1.965,1.4,2.418,1.907.6,3.4,1.9,5.058,2.932.393.244.466.8,1.094.943,2.82.651,5.674,1.23,8.407,2.153a55.449,55.449,0,0,0,20.682,2.658c1.8-.088,3.471-.4,4.629-1.96a4.149,4.149,0,0,1,2.608-2.023c.188-.031.476-.212.5-.362.254-1.488,1.457-1.611,2.576-2.161a7.838,7.838,0,0,0,3.3-3.469,1.357,1.357,0,0,1,1.726-.854c.466.105,1.111.159,1.184-.4.111-.85,1.2-1.7.457-2.444-.669-.669-.87-2.479-2.585-1.542-.106.058-.389-.14-.555-.264-2.09-1.568-4.83-2.031-6.729-3.936a2.648,2.648,0,0,0-1.131-.569c-1.407-.4-2.6-1.475-4.2-1.293a.616.616,0,0,1-.482-.349c-.224-.918-1.023-1.105-1.731-1.31A3.983,3.983,0,0,1,99.215,51.3a1.38,1.38,0,0,0-1.517-.675c-1.147.2-1.822-.523-2.448-1.31-.124-.157-.359-.442-.151-.528.764-.312.846-1.134,1.33-1.61a1.634,1.634,0,0,1,2.713.592c.155.352.246.859.657.861,1.938.008,2.8,2.45,4.881,2.082,1.521,1.669,4.256,1.739,5.326,4.01.176.372.575.294.9.356,1.845.35,3.712.653,5.04,2.2.123.144.422.311.543.257,1.39-.619,1.98.347,2.679,1.229.566.714,2.522,1.315,3.013,1.03.758-.44,1.1-2.114.673-3.287-.015-.039-.04-.075-.056-.115a29.473,29.473,0,0,1-1.78-6.489c-.041-.3-.009-.638-.429-.645-.691-.013-.805-.541-.944-1.022a24.111,24.111,0,0,1-1.033-4.064c-.094-.885-.562-1.25-1.374-1.011-1,.294-1.294-.17-1.413-1.026a4.541,4.541,0,0,0-1.839-3.341,3.05,3.05,0,0,1-1.018-1.587c-.22-.629-.636-1.281-1.331-1.194-1.221.153-1.54-.512-1.765-1.457-.1-.407-.2-.954-.492-1.151a31.516,31.516,0,0,1-3.476-3.076,4.148,4.148,0,0,0-2.329-.553c-.661-.064-1.675-.063-1.805-.689-.308-1.486-1.486-1.314-2.324-1.246-1.223.1-2.976-.752-3.462,1.385-.068.3-.521.547-.841.75a4.1,4.1,0,0,0-1.9,1.968.975.975,0,0,1-1.139.631c-.982-.165-1.435.368-1.87,1.147a3.864,3.864,0,0,0-.5,2.677c.111.631.12,1.282.2,2.213-1.163-1.521-1.163-1.521-2.452.015-.457-.251-.323-.742-.462-1.122-.129-.355-.23-.924-.624-.87-1.243.175-1.817-.793-2.609-1.364-2.124-1.533-5.818-1.4-7.582.311-2.316,2.248-2.54,4.7-.679,7.426.261.382.614.744.282,1.259-.6.934-.182,1.513,1.019,1.969-1.759.373-3.086,1.433-4.7.537-.41-.228-.752.058-.628.453.625,1.989-.935,2.922-1.923,4.234.231-1.171-.276-1.447-1.207-1.177a2.408,2.408,0,0,1-1,.025c-.458-.052-1.107-.143-1.155.448-.056.686.623.5,1.039.487.958-.027,1.393.373,1.1,1.317a1.181,1.181,0,0,1-1.6.846c-.428-.119-.852-.354-.892.382-.032.574-.2,1.349-.815,1.158s-.3-1.016-.2-1.581a.842.842,0,0,1,.189-.328c.2-.257.141-.448-.1-.643-.342-.271-.557-.062-.742.182a2.333,2.333,0,0,0-.51,2.029,12.756,12.756,0,0,1,.116,2.94c-.636-.866-1.076-1.485-1.536-2.088-.226-.3-.436-.709-.893-.594-.529.134.043.693-.309.972m68.492.066a1.506,1.506,0,0,0-.7.869c-.248.526-.012,1.352-.628,1.6-1.3.514-1.743,1.651-2.277,2.734-.335.677-.864,1.552-1.428,1.526-2.128-.1-2.36,1.778-3.354,2.853-.173.187-.308.5-.513.553-1.179.3-1.489,1.271-1.868,2.223-.386.97-.994,1.579-2.168,1.162-.662-.235-.988.137-1.02.745a1.433,1.433,0,0,1-.811,1.337,9.678,9.678,0,0,0-2.921,2.031c-.163.178-.38.374-.67.243-.739-.336-.98.158-1.227.692-.2.423-.33,1.046-.668,1.2-1.4.648-2.1,2.018-3.26,2.88a4.279,4.279,0,0,1-2.421.722c-.749.029-1.315.264-1.354,1.167-.024.542-.288,1.077-.913,1.026-1.178-.1-1.648.706-2.158,1.494-.3.466-.661,1.194-1.188.991-1.2-.464-1.7.231-2.285.989a1.758,1.758,0,0,1-1.038.709c-.938.181-1.7.541-1.891,1.6a.451.451,0,0,1-.452.385,8.9,8.9,0,0,0-5.61,2.357,1.091,1.091,0,0,1-.939.32c-.635-.194-1.044.188-1.53.436-1.209.615-2.162,1.618-3.492,2.085-1.055.37-2.571-.171-3.1,1.391-.021.062-.248.033-.359.088a16.071,16.071,0,0,1-5.437,1.313c-.466.056-1.277.03-1.279.6,0,1.146-.783.987-1.447,1.1-.84.144-1.7.222-2.521.427-3.081.764-6.127,1.69-9.233,2.336-8.363,1.737-16.79,2.5-25.3,1.169-.507-.079-.787-.063-.752.612.248,4.8.214,9.6.116,14.395-.021,1.02.29,1.522,1.325,1.557.338.011.673.123,1.012.155a76.663,76.663,0,0,0,21.535-1.14c4.681-.893,9.2-2.526,13.932-3.215a.839.839,0,0,0,.8-.519,1.753,1.753,0,0,1,1.5-1.036c1.34-.246,2.69-.447,4.019-.739.463-.1,1.161-.142,1.194-.775.041-.769.56-.712,1.038-.823a13.287,13.287,0,0,0,5.473-2.343,9.108,9.108,0,0,1,2.651-1.151c1.558-.583,2.933-1.615,4.554-2.124.314-.1.452-.5.518-.84.059-.305.119-.607.526-.58,1.688.106,2.868-.922,4.047-1.865.757-.607,1.076-1.924,2.508-1.228.268.13.611-.282.79-.562.86-1.342,2.713-1.636,3.38-3.186a.682.682,0,0,1,.516-.344c2.32.087,3.387-1.752,4.8-3.052a.862.862,0,0,1,.31-.222c1.212-.34,1.692-1.332,2.138-2.355a1.5,1.5,0,0,1,1.205-.888,5.066,5.066,0,0,0,3.642-2.467c.56-1.128,1.311-2.138,2.844-1.908.476.071.631-.217.811-.6.529-1.15.683-2.612,2.349-2.879.321-.051.194-.541.338-.759.591-.893.909-2.144,2.407-1.976a.666.666,0,0,0,.544-.259c.8-1.633,2.537-2.69,2.877-4.6a.975.975,0,0,1,.768-.91c.658-.128.854-.623,1-1.169s.3-1.091.444-1.636c.208.655-.028,1.368.561,1.875,2.16-5.811,6.213-11.008,5.652-17.719.8,1.539.188,3.107.441,4.639.315-.25.3-.608.41-.916a23.149,23.149,0,0,0,1.01-8.927c-.024-.685.527-1.725-.167-1.993-1.029-.4-.758,1.036-1.274,1.483-.291-.258-.1-.445-.024-.62.155-.348.219-.731-.206-.845-.375-.1-.459.326-.512.592a6.008,6.008,0,0,1-.554,1.415,78.277,78.277,0,0,1-4.8,8.071l-.234-.968M91.854,29.272c.491-.347.522-1.042,1.084-1.361s1.007-.787,1.533-1.147a1.085,1.085,0,0,0,.584-1.272,4.454,4.454,0,0,0-3.281-2.869c-.851-.052-1.41-.275-1.377-1.247.016-.452-.332-.652-.682-.836a53.086,53.086,0,0,0-8.434-3.379,9.458,9.458,0,0,0-1.616-.38,62.04,62.04,0,0,0-22.006.809c-2.484.556-5.208.6-7.372,2.282-.624.485-1.794.709-1.75,1.489.045.8,1.269.785,1.929,1.206,1.827,1.169,4.135,1.262,5.878,2.659,1.157.927,2.437,1.7,3.667,2.542a1.353,1.353,0,0,0,1.544.193c.6-.343.859-.075.948.514a1.437,1.437,0,0,0,1.154,1.2A14.791,14.791,0,0,0,67.1,30.6c.52.038.77.349,1.121.794.961,1.221,2.659,1.532,3.795,2.608.046.043.231-.078.356-.1,2.061-.312,3.619-1.737,5.492-2.481,1.118-.446,4.151-.936,4.541-.248.642,1.132,1.668,1.031,2.61,1.171,1.287.193,2.934,1.188,3.383-1.149a5,5,0,0,0,3.03-3.163c.5.389,0,.915.43,1.231m38.023,22.84a14.113,14.113,0,0,1,1.061-2.835,5.154,5.154,0,0,0,.667-3.662c-.406-2.984-.841-5.965-1.288-8.944-.045-.3.027-.688-.421-.918-.577.8-.183,1.774-.507,2.623a37.525,37.525,0,0,1-.743-4.459c-.066-.642-.017-1.194-.919-1.127-.494.037-.6-.3-.619-.753-.081-2.036-1.564-3.395-2.507-5.013a.568.568,0,0,0-.4-.276c-1.507.15-1.9-1.1-2.47-2.02a3.933,3.933,0,0,0-1.617-1.522c-1-.523-2.294-.842-2.46-2.3a.307.307,0,0,0-.369-.27c-.287.063-.295.266-.172.482.279.493-.083.589-.426.677-.319.081-.711.026-.673-.344.087-.859-.606-.826-1.068-1a23.871,23.871,0,0,0-4.623-1.433c-1.105-.186-3.314.7-3.727,1.763a3.1,3.1,0,0,1-2.991,2.13,2.231,2.231,0,0,0-2.049,1.992c-.089,1.039,1.082,1.234,1.86,1.337a7.31,7.31,0,0,1,2.924,1.174,12.185,12.185,0,0,1,2.9,2.282c1.013,1.16,2.669,1.331,3.631,2.7.936,1.337,2.293,2.384,2.8,4.032a.873.873,0,0,0,1.366.623c.773-.36,1.1-.005,1.2.736a7.209,7.209,0,0,0,.862,2.241c1,1.985,2.345,3.8,2.918,6.006a20.055,20.055,0,0,0,1.24,2.873c.468-.595.037-1.227.44-1.678.122.08.229.109.248.168a36.581,36.581,0,0,0,2.815,6.872c.079.138.167.331.292.37.272.085.3-.194.416-.359a7.849,7.849,0,0,0,1.713-3.44c.59.35.256.92.7,1.271M99.033,79.121a1.576,1.576,0,0,0-1.351-.326,58.567,58.567,0,0,1-12.716-.911c-.282-.047-.721-.155-.784-.338-.259-.755-.941-.763-1.462-.776-3.782-.1-6.84-2.5-10.432-3.185a1.484,1.484,0,0,1-.751-.468c-1.113-1.236-2.679-1.438-4.159-1.729-.9-.176-1.609-.28-1.917-1.31-.183-.613-.888-.763-1.494-.8-.656-.037-.641.555-.8.973-.237.636-.484,1.267-.725,1.9-.141.371-.295.773-.8.582-1.406-.527-1.73.276-2.025,1.418-.232.9-.332,1.968-1.345,2.481a3.74,3.74,0,0,0-1.564,3.013c.1,1.229.968,1.528,1.868,2.074,1.08.655,1.763,1.99,3.366,1.574.183-.048.472.171.667.324A9.1,9.1,0,0,0,65.744,85c3.922,1.172,8.074.927,12.039,2,1.967.535,4.154.253,6.239.387,1.316.085,2.664.368,3.357-1.219a.456.456,0,0,1,.316-.2A4.107,4.107,0,0,0,90.8,83.841a.772.772,0,0,1,.8-.3,1.625,1.625,0,0,0,1.178-.384c1.1-.726,2.924-1.247,3.173-2.187.518-1.953,2.172-.844,2.97-1.64a1.248,1.248,0,0,0,.105-.209M33.066,98.327c1.116,0,1.873-.032,2.626.005a132.8,132.8,0,0,0,22.084-1.111c.319-.038.859.028.9-.3.136-1.143,1.06-.934,1.735-1.071.832-.168,1.729-.079,2.529-.324,2.107-.646,4.655.179,6.349-1.863.083-.1.339-.039.49-.107,1.827-.827,3.9-.933,5.678-1.875a31.284,31.284,0,0,1,4.459-2.059,15.858,15.858,0,0,0-2.7-.393c-4.526-.165-8.971-1-13.449-1.559-.8-.1-1.5-.347-1.585-1.342-.03-.356-.41-.613-.555-.171-.448,1.362-.836,1.5-1.388.075a.483.483,0,0,0-.308-.209c-2.234-.584-3.619-2.314-5.183-3.8a1.668,1.668,0,0,0-1.645-.358c-1.544.3-1.592,1.733-2.193,2.743-.272.455-.327,1.08-1.092,1.039-.848-.046-1.1.519-1.128,1.227-.021.467-.072.777-.694.8-2.187.074-3.577,1.48-4.682,3.118-.505.751-.842,1.22-1.843.987a1.366,1.366,0,0,0-1.484,1,3.488,3.488,0,0,1-2.581,2.439c-.983.218-1.313,1.79-2.661,1.3-.046-.016-.152.075-.206.137-.416.467-.826.938-1.475,1.68M59.8,13.7a.553.553,0,0,0,.622.263c2.128-.126,4.257-.261,6.385-.39a79.862,79.862,0,0,1,14.942.625c.722.093,1.793.232,1.917.782.221.988.822.655,1.334.746,2.143.38,4.34.645,5.661,2.712a.763.763,0,0,0,.613.364,5.911,5.911,0,0,1,4.312,3.083c.945,1.626,3.315,2.056,4.4.5.887-1.277,2.288-2,3.161-3.261a.934.934,0,0,1,.781-.337c.978-.048,2.676-1.663,2.677-2.478a2.752,2.752,0,0,0-2.571-2.922c-.6-.072-1.5-.1-1.558-.648-.152-1.373-1.212-1.193-2.034-1.527A42.3,42.3,0,0,0,89.256,8.832C83.646,8.177,78,8.464,72.37,8.59a1.746,1.746,0,0,0-.864.182,25.032,25.032,0,0,1-7.857,2.886c-.248.06-.615.131-.583.4.181,1.5-1.008,1.084-1.755,1.288-.477.13-1.026-.06-1.516.351M29.136,50.667c-.852-3.963-.721-7.729-.981-11.513-1.618,2.057-3.4,3.9-4.292,6.321-.162.441-.181,1.022-.858.8-1.229-.394-1.63.5-1.977,1.289a19.87,19.87,0,0,0-.985,3.02c-.268,1.038-.535,2.023-2.017,2.343,1.3.1,1.049.951,1.163,1.626.4,2.343.82,4.682,1.216,7.025a1.619,1.619,0,0,0,.725,1.289,4.446,4.446,0,0,1,1.8,1.814.867.867,0,0,0-.03-.5c-.14-.35-.432-.778.1-.967.578-.208.588.355.634.7.1.768.6,1.061,1.277,1.218a1.5,1.5,0,0,0,1.62-.755c.888-1.144,1.765-2.26,3.5-2.029a1.027,1.027,0,0,0,1.208-.9,1.962,1.962,0,0,1,.852-1.227c.693-.565,1.388-1.131,2.112-1.655.477-.344.494-.633.045-.993a7.889,7.889,0,0,1-2.822-5.231,43.994,43.994,0,0,0-1.546-5.37c-.715,1.112-.185,2.334-.744,3.685m88.384-38.424c-1.094-1.042-1.105-1.046-1.672.262a2.526,2.526,0,0,1-.931,1.02c-.585.427-1.176.846-1.743,1.3s-.769,1.072.039,1.374c1.407.525,2.384,2.183,4.232,1.588.337-.109.661.236.817.524.971,1.787,3.668,1.708,4.263,3.912.035.129.448.194.693.224a4.158,4.158,0,0,1,3.622,2.987c.141.4.295.849.716,1.014.848.33,1.023,1.026,1.212,1.8.129.522-.117,1.523.619,1.45.778-.078.273-1.041.445-1.971a52.07,52.07,0,0,0,2.509,6.953c.829,2.16.955,4.565,2.2,6.578a46.017,46.017,0,0,0,.79-13.09c-.23-2.243-.411-4.441-1.941-6.33-1.169-1.446-2.086-3.095-3.119-4.651-.134-.2-.222-.411-.572-.386a2.9,2.9,0,0,1-2.414-1.4c-.82-2.011-2.473-2.132-4.142-2.379a.82.82,0,0,1-.788-.667c-.446-1.574-1.98-1.283-3.066-1.618-.948-.291-1.3.736-1.767,1.507M14.964,57.823c-.169.333-.266.519-.357.708a31.509,31.509,0,0,0-3.021,9.412c-.123.846-.4,1.392-1.418.878-.638-.321-.936.024-.975.683a7.391,7.391,0,0,1-.165,1.259c-.664,2.806-1.369,5.6-2.009,8.413-.3,1.325-.487,2.675-.726,4.014l.33.126C7.5,82.2,9,81.575,9.13,79.87a.639.639,0,0,1,.781-.649c1.64.29,2.367-.5,2.558-2.013a.777.777,0,0,1,.266-.427c1.727-1.512,2.5-3.921,5.083-4.7,1.839-.553,2.656-2.521,3.64-4.1.084-.135.182-.409.128-.459-.863-.794-1.11-2.17-2.291-2.6a1.153,1.153,0,0,1-.881-1.044,26.288,26.288,0,0,1-.865-3.4c-.6.607-.057,1.509-.745,1.49-.706-.019-.471-.86-.613-1.355a6.018,6.018,0,0,0-1.226-2.78m74.361-51.5c1.564.085,2.989.13,4.409.246,3.288.268,6.535.695,9.276,2.785a1.159,1.159,0,0,0,.591.192,4.714,4.714,0,0,1,3.894,2.82,2.568,2.568,0,0,0,2.049,1.318c.824.069.971-.792,1.2-1.425.033-.093.161-.152.265-.243.222.315-.034.735.425,1.048.8-1.54,2.336-2.347,3.565-3.477.614-.565.388-.91-.216-1.253a10.613,10.613,0,0,0-2.994-1.056c-6.746-1.5-13.6-1.63-20.471-1.677a2.915,2.915,0,0,0-1.994.721m46.659,19.916c.177,4.419.006,8.819-.106,13.219,1.488-4.4,2.129-8.8.106-13.219M123.425,57.591c.079.4-.212.973.384,1.065.537.082.721-.385.655-.848-.07-.5.115-1.3-.6-1.328-.632-.021-.284.736-.439,1.111" transform="translate(-0.287 -0.287)" fill="#fff"/>
    <path id="Path_8" data-name="Path 8" d="M17.111,77.581c-.1-.3-.192-.559-.286-.835C14.906,79,12.493,80.834,11.6,83.8c-.2.679-.639.995-1.349.535-.585-.38-.818,0-1.042.468-.615,1.3-1.078,2.689-2.291,3.618-.347.266-.279.685-.272,1.067.074,4.037.1,8.074-.033,12.11-.009.271-.2.631.165.782.312.129.574-.142.787-.32A4.322,4.322,0,0,0,9.088,99.6c.17-.862.53-1.2,1.373-1.042,1.146.207,1.684-.411,1.855-1.422a2.974,2.974,0,0,1,1.357-2.062,7.559,7.559,0,0,0,1.313-1.535c.6-.679,1.17-1.519,2.312-1.331a.487.487,0,0,0,.607-.347c.34-1.8,2.21-2.338,3.1-3.7.374-.57.975-1.384,2.007-.769.29.173.577-.182.7-.428,1.123-2.294,3.6-3.348,4.979-5.4.214-.317.487-.25.786-.1A1.238,1.238,0,0,0,31.33,80.7c.658-1.879,2.464-2.039,3.9-2.718.313-.147.638-.159.914-.481a6.493,6.493,0,0,1,3.172-1.793c.872-.272,1.108.313,1.4.907.3.615.538,1.212-.188,1.671a6.725,6.725,0,0,1-1.483.732c-.924.3-1.915.424-2.1,1.683-.053.366-.52.577-.93.546-2.188-.173-3.337,1.3-4.334,2.837-.679,1.048-1.3,1.869-2.712,1.549-.409-.093-.767.042-.808.564-.069.887-.691,1.309-1.409,1.655a5.787,5.787,0,0,0-3.118,2.874c-.081.191-.162.475-.4.434-2.4-.405-2.668,1.493-3.267,3.007-.112.284-.122.585-.5.627a2.34,2.34,0,0,0-2.252,2.5c-.514-.415-.075-.969-.557-1.366-1.569,2.411-4.163,4.11-4.878,7.086-.213.889-.607,1.15-1.406.97a1.264,1.264,0,0,0-1.533.751c-.77,1.27-1.674,2.46-2.522,3.683a1.322,1.322,0,0,1-1.872.523.9.9,0,0,0-.111-.064c-2.22-.76-2.288-.759-2.3-3.24-.018-3.951,0-7.9.129-11.854.084-2.6-.1-5.181-.159-7.77a31.428,31.428,0,0,1,.846-7.265c.668,1.663.185,3.484.873,5.444a22.285,22.285,0,0,0,.439-4.822c.344-4.865,2.02-9.346,3.782-13.814A19.239,19.239,0,0,0,9.4,60.7c.087-.773.6-.681,1-.538,1.046.371,1.335-.068,1.453-1.028.452-3.7,2.825-6.593,4.263-9.88a.571.571,0,0,1,.824-.36c.981.45.954-.236.987-.859.048-.939.2-1.788,1.376-1.966.5-.076.555-.505.7-.932a13.621,13.621,0,0,1,1.756-4.208c.227-.3.479-.7.887-.657.526.062.152.688.6,1.064,1.14-3.23,4.047-5.282,5.306-8.408.2-.5.325-.838.925-.208.727.763,1.208-.1,1.424-.589A16.609,16.609,0,0,1,33,28.795c.755-.992,1.457-1.912,2.9-2.026.878-.069,1.108-1.1,1.543-1.741a3.852,3.852,0,0,1,1.5-1.43c.907-.464,1.934-.994,2.055-2.25.021-.224.161-.458.375-.459.312,0,.381.278.4.548s.054.582.334.625c.365.057.409-.36.6-.565,1.533-1.608,2.946-3.275,5.2-4.1,1.141-.421,2.812-1,3.185-2.009.548-1.475,1.528-1.486,2.6-1.731.622-.142,1.249-.264,1.875-.395.3-.063.681-.124.709-.45.112-1.262,1.023-1.367,1.986-1.493a1.917,1.917,0,0,0,1.181-.709c.607-.7,1.247-1.312,2.3-.841.322.143.573-.1.8-.29A11.267,11.267,0,0,1,68.1,7.06c1.971-.355,3.846-1.128,5.86-1.279.165-.013.4-.031.48-.137,1.1-1.515,2.843-1.178,4.345-1.492A83.209,83.209,0,0,1,94.862,2,50.62,50.62,0,0,1,109.025,3.86a32.989,32.989,0,0,0,3.263.579c.917.159,1.813.214,2.352,1.233.295.557,1.082.591,1.735.637A8.723,8.723,0,0,1,122.1,8.474a1.338,1.338,0,0,0,1.368.477c.459-.129.79.241,1.157.439a22.751,22.751,0,0,1,3.52,2.463c1.8,1.473,3.96,2.569,5.319,4.591a9.147,9.147,0,0,1,1.572,2.873c.114.468.172.955,1.014.617,1.026-.412,1.369.556,1.642,1.286.852,2.277.926,4.763,1.729,7.035.894,2.527.679,5.09.716,7.656.032,2.21-.152,4.433.028,6.628.6,7.258-.81,14.277-2.384,21.28-.221.982-.377,2.361-2.11,1.614-.341-.147-.422.332-.457.617a13.089,13.089,0,0,1-3.164,6.426,23.175,23.175,0,0,0-1.66,2.566c-.176.3.111,1.652-1.092.73-.239-.184-.452.512-.537.862-.237.966-.464,1.884-1.688,2.1-.42.073-.653.512-.813.926a4.758,4.758,0,0,1-3.213,3.024c-.912.288-1.3,1.4-1.843,2.208-.164.242-.308.733-.441.726-1.459-.076-1.379,1.209-1.866,1.993-.458.738-1.05,1.259-2.007.938a.878.878,0,0,0-1.217.559,7.425,7.425,0,0,1-3.371,3.55c-1.253.581-2.434.9-2.905,2.351-.07.217-.457.415-.727.47a2.037,2.037,0,0,0-1.533,1.322c-.536,1.01-1.872,1.546-3.036,1.917a3.317,3.317,0,0,0-1.8,1.1c-.654.884-1.721,1.218-2.486,1.917-1.026.94-1.695,2.1-3.418,2.283-1.3.135-2.459,1.489-3.728,1.829-2.227.6-3.388,2.657-5.5,3.34a8.607,8.607,0,0,0-3.678,1.648c-1.1,1.021-2.858,1.218-4.432,1.439-.2.028-.51.038-.584.164-1.157,1.958-3.368,1.6-5.1,2.276a11.778,11.778,0,0,0-1.675.558A25.949,25.949,0,0,1,60.525,118.5c-1.122.081-1.627.961-2.559,1.25-2.866.888-5.835.723-8.754.984A114.181,114.181,0,0,1,29,120.384c-.968-.086-1.4-.486-1.5-1.355a34.95,34.95,0,0,1-.342-3.675c-.037-5.1,0-10.2-.022-15.3a2.269,2.269,0,0,1,1.105-2.372c.492-.251.484-.854.81-1.253.446.329.176,1.153.933,1.108.672-.04.506-.69.763-1.029a6.856,6.856,0,0,1,.891-.9c.6-.54,1.368-.918,1.748-1.658a1.8,1.8,0,0,1,1.869-1.043,1.284,1.284,0,0,0,1.179-.369c.974-1.4,2.529-2.231,3.523-3.6a2.06,2.06,0,0,1,2.162-1.02c.783.141,1.237-.159,1.3-.972a1.3,1.3,0,0,1,.69-1c.455-.31.844-.717,1.306-1.015.916-.592,1.309-1.691,2.68-1.977a4.913,4.913,0,0,0,2.42-2.222c.691-1.218,1.809-2.157,2.246-3.523.145-.454.553-.46.938-.509a3.226,3.226,0,0,0,.99-.189,1.3,1.3,0,0,0,.86-1.291c-.09-.54-.724-.511-1.181-.523a24.685,24.685,0,0,0-8.285,1.351c-.323.1-.624.284-.95.374a1.567,1.567,0,0,1-1.893-.918c-.46-.788-.024-1.309.543-1.739,1.762-1.337,3.862-1.5,5.958-1.583,2.431-.093,4.865-.116,7.3-.135,1.193-.009,2.037-.294,2.224-1.69.145-1.079.734-2.074.719-3.212-.008-.534.326-.705.864-.631A2.083,2.083,0,0,0,63.461,64.6c.219-2.084-.74-3.969-1.217-5.932-.075-.308-.488-.551-.709-.388-1,.735-1.253-.107-1.55-.7-.693-1.393-1.881-1.771-3.328-1.911a28.783,28.783,0,0,0-11.522.857,4.95,4.95,0,0,0-2.091,1.189c-.213.215-.437.471-.757.4-1.416-.314-2.021.727-2.97,1.446-1.066.809-2.686.9-3.111,2.526a7.62,7.62,0,0,0-3.2.749,1.924,1.924,0,0,0-1.157,1.23A2.2,2.2,0,0,1,29.2,65.724c-.419-.032-.511.226-.665.455-.938,1.391-2.42,2.3-3.433,3.522-1.067,1.289-2.01,2.248-3.7,2.332a.284.284,0,0,0-.212.132C20.379,74.309,18.37,75.581,17.111,77.581ZM61.057,55.83a2.166,2.166,0,0,1-.915-.864c-.22-.35-.65-.729-.476-1.123.227-.512.829-.362,1.272-.3A2.779,2.779,0,0,0,63.6,52.365a23.469,23.469,0,0,1,1.666-1.933c.712-.695,1.381-1.583,2.62-1.163.424.145.583-.149.524-.47-.211-1.174.619-1.48,1.43-1.922.963-.524,2.078-1.1,1.534-2.527a13.147,13.147,0,0,1-.665-6.393,1.962,1.962,0,0,0-1.289-2.313,55.358,55.358,0,0,1-6.445-3.351,2.163,2.163,0,0,0-2.159-.381c-.307.14-.66.07-.7-.306-.151-1.557-1.4-1.619-2.5-1.851-.614-.129-1.3-.31-1.415-.928-.2-1.045-.952-1.05-1.7-1.151-.84-.113-1.744-.055-2.382-.749A13.319,13.319,0,0,0,46.536,23.5c-2.232-.793-2.25-.873-3.413,1.117-.362.619-.677,1.078-1.482.608-.6-.349-.952.031-1.187.545-.87,1.9-2.713,2.971-3.955,4.558a1.047,1.047,0,0,1-1.331.466.423.423,0,0,0-.557.191c-.28,1.085-1.405,1.687-1.577,2.832a53.055,53.055,0,0,0-.754,10.783,23.271,23.271,0,0,0,1.911,8.262c.146.327.284,1.1.787.652,1-.9.886.047,1.056.519.673,1.861,2.169,2.513,3.912,1.63a5.592,5.592,0,0,1,1.971-.456c.864-.1,2,.186,2.073-1.263.013-.269.32-.238.514-.271a46.252,46.252,0,0,1,10.023-1.1c1.165.056,2.7-.163,2.9,1.7a.54.54,0,0,0,.353.343c1.094.243,1.548,1.244,2.3,1.885.191.162.418.473.583.445,1.517-.259,1.893.893,2.5,1.851a6.667,6.667,0,0,0,1.627,1.785,2.444,2.444,0,0,1,.907,2.481c-.081.586-.23,1.164-.366,1.743-.334,1.427-.038,1.965,1.4,2.418,1.907.6,3.4,1.9,5.058,2.932.393.244.466.8,1.094.943,2.82.651,5.674,1.23,8.407,2.153a55.449,55.449,0,0,0,20.682,2.658c1.8-.088,3.471-.4,4.629-1.96a4.149,4.149,0,0,1,2.608-2.023c.188-.031.476-.212.5-.362.254-1.488,1.457-1.611,2.576-2.161a7.838,7.838,0,0,0,3.3-3.469,1.357,1.357,0,0,1,1.726-.854c.466.105,1.111.159,1.184-.4.111-.85,1.2-1.7.457-2.444-.669-.669-.87-2.479-2.585-1.542-.106.058-.389-.14-.555-.264-2.09-1.568-4.83-2.031-6.729-3.936a2.648,2.648,0,0,0-1.131-.569c-1.407-.4-2.6-1.475-4.2-1.293a.616.616,0,0,1-.482-.349c-.224-.918-1.023-1.105-1.731-1.31A3.983,3.983,0,0,1,99.215,51.3a1.38,1.38,0,0,0-1.517-.675c-1.147.2-1.822-.523-2.448-1.31-.124-.157-.359-.442-.151-.528.764-.312.846-1.134,1.33-1.61a1.634,1.634,0,0,1,2.713.592c.155.352.246.859.657.861,1.938.008,2.8,2.45,4.881,2.082,1.521,1.669,4.256,1.739,5.326,4.01.176.372.575.294.9.356,1.845.35,3.712.653,5.04,2.2.123.144.422.311.543.257,1.39-.619,1.98.347,2.679,1.229.566.714,2.522,1.315,3.013,1.03.758-.44,1.1-2.114.673-3.287-.015-.039-.04-.075-.056-.115a29.473,29.473,0,0,1-1.78-6.489c-.041-.3-.009-.638-.429-.645-.691-.013-.805-.541-.944-1.022a24.111,24.111,0,0,1-1.033-4.064c-.094-.885-.562-1.25-1.374-1.011-1,.294-1.294-.17-1.413-1.026a4.541,4.541,0,0,0-1.839-3.341,3.05,3.05,0,0,1-1.018-1.587c-.22-.629-.636-1.281-1.331-1.194-1.221.153-1.54-.512-1.765-1.457-.1-.407-.2-.954-.492-1.151a31.516,31.516,0,0,1-3.476-3.076,4.148,4.148,0,0,0-2.329-.553c-.661-.064-1.675-.063-1.805-.689-.308-1.486-1.486-1.314-2.324-1.246-1.223.1-2.976-.752-3.462,1.385-.068.3-.521.547-.841.75a4.1,4.1,0,0,0-1.9,1.968.975.975,0,0,1-1.139.631c-.982-.165-1.435.368-1.87,1.147a3.864,3.864,0,0,0-.5,2.677c.111.631.12,1.282.2,2.213-1.163-1.521-1.163-1.521-2.452.015-.457-.251-.323-.742-.462-1.122-.129-.355-.23-.924-.624-.87-1.243.175-1.817-.793-2.609-1.364-2.124-1.533-5.818-1.4-7.582.311-2.316,2.248-2.54,4.7-.679,7.426.261.382.614.744.282,1.259-.6.934-.182,1.513,1.019,1.969-1.759.373-3.086,1.433-4.7.537-.41-.228-.752.058-.628.453.625,1.989-.935,2.922-1.923,4.234.231-1.171-.276-1.447-1.207-1.177a2.408,2.408,0,0,1-1,.025c-.458-.052-1.107-.143-1.155.448-.056.686.623.5,1.039.487.958-.027,1.393.373,1.1,1.317a1.181,1.181,0,0,1-1.6.846c-.428-.119-.852-.354-.892.382-.032.574-.2,1.349-.815,1.158s-.3-1.016-.2-1.581a.842.842,0,0,1,.189-.328c.2-.257.141-.448-.1-.643-.342-.271-.557-.062-.742.182a2.333,2.333,0,0,0-.51,2.029,12.756,12.756,0,0,1,.116,2.94c-.636-.866-1.076-1.485-1.536-2.088-.226-.3-.436-.709-.893-.594C60.837,54.992,61.409,55.551,61.057,55.83Zm68.492.066a1.506,1.506,0,0,0-.7.869c-.248.526-.012,1.352-.628,1.6-1.3.514-1.743,1.651-2.277,2.734-.335.677-.864,1.552-1.428,1.526-2.128-.1-2.36,1.778-3.354,2.853-.173.187-.308.5-.513.553-1.179.3-1.489,1.271-1.868,2.223-.386.97-.994,1.579-2.168,1.162-.662-.235-.988.137-1.02.745a1.433,1.433,0,0,1-.811,1.337,9.678,9.678,0,0,0-2.921,2.031c-.163.178-.38.374-.67.243-.739-.336-.98.158-1.227.692-.2.423-.33,1.046-.668,1.2-1.4.648-2.1,2.018-3.26,2.88a4.279,4.279,0,0,1-2.421.722c-.749.029-1.315.264-1.354,1.167-.024.542-.288,1.077-.913,1.026-1.178-.1-1.648.706-2.158,1.494-.3.466-.661,1.194-1.188.991-1.2-.464-1.7.231-2.285.989a1.758,1.758,0,0,1-1.038.709c-.938.181-1.7.541-1.891,1.6a.451.451,0,0,1-.452.385,8.9,8.9,0,0,0-5.61,2.357,1.091,1.091,0,0,1-.939.32c-.635-.194-1.044.188-1.53.436-1.209.615-2.162,1.618-3.492,2.085-1.055.37-2.571-.171-3.1,1.391-.021.062-.248.033-.359.088a16.071,16.071,0,0,1-5.437,1.313c-.466.056-1.277.03-1.279.6,0,1.146-.783.987-1.447,1.1-.84.144-1.7.222-2.521.427-3.081.764-6.127,1.69-9.233,2.336-8.363,1.737-16.79,2.5-25.3,1.169-.507-.079-.787-.063-.752.612.248,4.8.214,9.6.116,14.395-.021,1.02.29,1.522,1.325,1.557.338.011.673.123,1.012.155a76.663,76.663,0,0,0,21.535-1.14c4.681-.893,9.2-2.526,13.932-3.215a.839.839,0,0,0,.8-.519,1.753,1.753,0,0,1,1.5-1.036c1.34-.246,2.69-.447,4.019-.739.463-.1,1.161-.142,1.194-.775.041-.769.56-.712,1.038-.823a13.287,13.287,0,0,0,5.473-2.343,9.108,9.108,0,0,1,2.651-1.151c1.558-.583,2.933-1.615,4.554-2.124.314-.1.452-.5.518-.84.059-.305.119-.607.526-.58,1.688.106,2.868-.922,4.047-1.865.757-.607,1.076-1.924,2.508-1.228.268.13.611-.282.79-.562.86-1.342,2.713-1.636,3.38-3.186a.682.682,0,0,1,.516-.344c2.32.087,3.387-1.752,4.8-3.052a.862.862,0,0,1,.31-.222c1.212-.34,1.692-1.332,2.138-2.355a1.5,1.5,0,0,1,1.205-.888,5.066,5.066,0,0,0,3.642-2.467c.56-1.128,1.311-2.138,2.844-1.908.476.071.631-.217.811-.6.529-1.15.683-2.612,2.349-2.879.321-.051.194-.541.338-.759.591-.893.909-2.144,2.407-1.976a.666.666,0,0,0,.544-.259c.8-1.633,2.537-2.69,2.877-4.6a.975.975,0,0,1,.768-.91c.658-.128.854-.623,1-1.169s.3-1.091.444-1.636c.208.655-.028,1.368.561,1.875,2.16-5.811,6.213-11.008,5.652-17.719.8,1.539.188,3.107.441,4.639.315-.25.3-.608.41-.916a23.149,23.149,0,0,0,1.01-8.927c-.024-.685.527-1.725-.167-1.993-1.029-.4-.758,1.036-1.274,1.483-.291-.258-.1-.445-.024-.62.155-.348.219-.731-.206-.845-.375-.1-.459.326-.512.592a6.008,6.008,0,0,1-.554,1.415,78.277,78.277,0,0,1-4.8,8.071ZM91.854,29.272c.491-.347.522-1.042,1.084-1.361s1.007-.787,1.533-1.147a1.085,1.085,0,0,0,.584-1.272,4.454,4.454,0,0,0-3.281-2.869c-.851-.052-1.41-.275-1.377-1.247.016-.452-.332-.652-.682-.836a53.086,53.086,0,0,0-8.434-3.379,9.458,9.458,0,0,0-1.616-.38,62.04,62.04,0,0,0-22.006.809c-2.484.556-5.208.6-7.372,2.282-.624.485-1.794.709-1.75,1.489.045.8,1.269.785,1.929,1.206,1.827,1.169,4.135,1.262,5.878,2.659,1.157.927,2.437,1.7,3.667,2.542a1.353,1.353,0,0,0,1.544.193c.6-.343.859-.075.948.514a1.437,1.437,0,0,0,1.154,1.2A14.791,14.791,0,0,0,67.1,30.6c.52.038.77.349,1.121.794.961,1.221,2.659,1.532,3.795,2.608.046.043.231-.078.356-.1,2.061-.312,3.619-1.737,5.492-2.481,1.118-.446,4.151-.936,4.541-.248.642,1.132,1.668,1.031,2.61,1.171,1.287.193,2.934,1.188,3.383-1.149a5,5,0,0,0,3.03-3.163C91.923,28.43,91.428,28.956,91.854,29.272Zm38.023,22.84a14.113,14.113,0,0,1,1.061-2.835,5.154,5.154,0,0,0,.667-3.662c-.406-2.984-.841-5.965-1.288-8.944-.045-.3.027-.688-.421-.918-.577.8-.183,1.774-.507,2.623a37.525,37.525,0,0,1-.743-4.459c-.066-.642-.017-1.194-.919-1.127-.494.037-.6-.3-.619-.753-.081-2.036-1.564-3.395-2.507-5.013a.568.568,0,0,0-.4-.276c-1.507.15-1.9-1.1-2.47-2.02a3.933,3.933,0,0,0-1.617-1.522c-1-.523-2.294-.842-2.46-2.3a.307.307,0,0,0-.369-.27c-.287.063-.295.266-.172.482.279.493-.083.589-.426.677-.319.081-.711.026-.673-.344.087-.859-.606-.826-1.068-1a23.871,23.871,0,0,0-4.623-1.433c-1.105-.186-3.314.7-3.727,1.763a3.1,3.1,0,0,1-2.991,2.13,2.231,2.231,0,0,0-2.049,1.992c-.089,1.039,1.082,1.234,1.86,1.337a7.31,7.31,0,0,1,2.924,1.174,12.185,12.185,0,0,1,2.9,2.282c1.013,1.16,2.669,1.331,3.631,2.7.936,1.337,2.293,2.384,2.8,4.032a.873.873,0,0,0,1.366.623c.773-.36,1.1-.005,1.2.736a7.209,7.209,0,0,0,.862,2.241c1,1.985,2.345,3.8,2.918,6.006a20.055,20.055,0,0,0,1.24,2.873c.468-.595.037-1.227.44-1.678.122.08.229.109.248.168a36.581,36.581,0,0,0,2.815,6.872c.079.138.167.331.292.37.272.085.3-.194.416-.359a7.849,7.849,0,0,0,1.713-3.44C129.769,51.19,129.435,51.76,129.877,52.111ZM99.033,79.121a1.576,1.576,0,0,0-1.351-.326,58.567,58.567,0,0,1-12.716-.911c-.282-.047-.721-.155-.784-.338-.259-.755-.941-.763-1.462-.776-3.782-.1-6.84-2.5-10.432-3.185a1.484,1.484,0,0,1-.751-.468c-1.113-1.236-2.679-1.438-4.159-1.729-.9-.176-1.609-.28-1.917-1.31-.183-.613-.888-.763-1.494-.8-.656-.037-.641.555-.8.973-.237.636-.484,1.267-.725,1.9-.141.371-.295.773-.8.582-1.406-.527-1.73.276-2.025,1.418-.232.9-.332,1.968-1.345,2.481a3.74,3.74,0,0,0-1.564,3.013c.1,1.229.968,1.528,1.868,2.074,1.08.655,1.763,1.99,3.366,1.574.183-.048.472.171.667.324A9.1,9.1,0,0,0,65.744,85c3.922,1.172,8.074.927,12.039,2,1.967.535,4.154.253,6.239.387,1.316.085,2.664.368,3.357-1.219a.456.456,0,0,1,.316-.2A4.107,4.107,0,0,0,90.8,83.841a.772.772,0,0,1,.8-.3,1.625,1.625,0,0,0,1.178-.384c1.1-.726,2.924-1.247,3.173-2.187.518-1.953,2.172-.844,2.97-1.64A1.248,1.248,0,0,0,99.033,79.121ZM33.066,98.327c1.116,0,1.873-.032,2.626.005a132.8,132.8,0,0,0,22.084-1.111c.319-.038.859.028.9-.3.136-1.143,1.06-.934,1.735-1.071.832-.168,1.729-.079,2.529-.324,2.107-.646,4.655.179,6.349-1.863.083-.1.339-.039.49-.107,1.827-.827,3.9-.933,5.678-1.875a31.284,31.284,0,0,1,4.459-2.059,15.858,15.858,0,0,0-2.7-.393c-4.526-.165-8.971-1-13.449-1.559-.8-.1-1.5-.347-1.585-1.342-.03-.356-.41-.613-.555-.171-.448,1.362-.836,1.5-1.388.075a.483.483,0,0,0-.308-.209c-2.234-.584-3.619-2.314-5.183-3.8a1.668,1.668,0,0,0-1.645-.358c-1.544.3-1.592,1.733-2.193,2.743-.272.455-.327,1.08-1.092,1.039-.848-.046-1.1.519-1.128,1.227-.021.467-.072.777-.694.8-2.187.074-3.577,1.48-4.682,3.118-.505.751-.842,1.22-1.843.987a1.366,1.366,0,0,0-1.484,1,3.488,3.488,0,0,1-2.581,2.439c-.983.218-1.313,1.79-2.661,1.3-.046-.016-.152.075-.206.137C34.125,97.114,33.716,97.585,33.066,98.327ZM59.8,13.7a.553.553,0,0,0,.622.263c2.128-.126,4.257-.261,6.385-.39a79.862,79.862,0,0,1,14.942.625c.722.093,1.793.232,1.917.782.221.988.822.655,1.334.746,2.143.38,4.34.645,5.661,2.712a.763.763,0,0,0,.613.364,5.911,5.911,0,0,1,4.312,3.083c.945,1.626,3.315,2.056,4.4.5.887-1.277,2.288-2,3.161-3.261a.934.934,0,0,1,.781-.337c.978-.048,2.676-1.663,2.677-2.478a2.752,2.752,0,0,0-2.571-2.922c-.6-.072-1.5-.1-1.558-.648-.152-1.373-1.212-1.193-2.034-1.527A42.3,42.3,0,0,0,89.256,8.832C83.646,8.177,78,8.464,72.37,8.59a1.746,1.746,0,0,0-.864.182,25.032,25.032,0,0,1-7.857,2.886c-.248.06-.615.131-.583.4.181,1.5-1.008,1.084-1.755,1.288C60.835,13.476,60.287,13.286,59.8,13.7ZM29.136,50.667c-.852-3.963-.721-7.729-.981-11.513-1.618,2.057-3.4,3.9-4.292,6.321-.162.441-.181,1.022-.858.8-1.229-.394-1.63.5-1.977,1.289a19.87,19.87,0,0,0-.985,3.02c-.268,1.038-.535,2.023-2.017,2.343,1.3.1,1.049.951,1.163,1.626.4,2.343.82,4.682,1.216,7.025a1.619,1.619,0,0,0,.725,1.289,4.446,4.446,0,0,1,1.8,1.814.867.867,0,0,0-.03-.5c-.14-.35-.432-.778.1-.967.578-.208.588.355.634.7.1.768.6,1.061,1.277,1.218a1.5,1.5,0,0,0,1.62-.755c.888-1.144,1.765-2.26,3.5-2.029a1.027,1.027,0,0,0,1.208-.9,1.962,1.962,0,0,1,.852-1.227c.693-.565,1.388-1.131,2.112-1.655.477-.344.494-.633.045-.993a7.889,7.889,0,0,1-2.822-5.231,43.994,43.994,0,0,0-1.546-5.37C29.165,48.094,29.694,49.316,29.136,50.667Zm88.384-38.424c-1.094-1.042-1.105-1.046-1.672.262a2.526,2.526,0,0,1-.931,1.02c-.585.427-1.176.846-1.743,1.3s-.769,1.072.039,1.374c1.407.525,2.384,2.183,4.232,1.588.337-.109.661.236.817.524.971,1.787,3.668,1.708,4.263,3.912.035.129.448.194.693.224a4.158,4.158,0,0,1,3.622,2.987c.141.4.295.849.716,1.014.848.33,1.023,1.026,1.212,1.8.129.522-.117,1.523.619,1.45.778-.078.273-1.041.445-1.971a52.07,52.07,0,0,0,2.509,6.953c.829,2.16.955,4.565,2.2,6.578a46.017,46.017,0,0,0,.79-13.09c-.23-2.243-.411-4.441-1.941-6.33-1.169-1.446-2.086-3.095-3.119-4.651-.134-.2-.222-.411-.572-.386a2.9,2.9,0,0,1-2.414-1.4c-.82-2.011-2.473-2.132-4.142-2.379a.82.82,0,0,1-.788-.667c-.446-1.574-1.98-1.283-3.066-1.618C118.338,10.444,117.987,11.472,117.519,12.243ZM14.964,57.823c-.169.333-.266.519-.357.708a31.509,31.509,0,0,0-3.021,9.412c-.123.846-.4,1.392-1.418.878-.638-.321-.936.024-.975.683a7.391,7.391,0,0,1-.165,1.259c-.664,2.806-1.369,5.6-2.009,8.413-.3,1.325-.487,2.675-.726,4.014l.33.126C7.5,82.2,9,81.575,9.13,79.87a.639.639,0,0,1,.781-.649c1.64.29,2.367-.5,2.558-2.013a.777.777,0,0,1,.266-.427c1.727-1.512,2.5-3.921,5.083-4.7,1.839-.553,2.656-2.521,3.64-4.1.084-.135.182-.409.128-.459-.863-.794-1.11-2.17-2.291-2.6a1.153,1.153,0,0,1-.881-1.044,26.288,26.288,0,0,1-.865-3.4c-.6.607-.057,1.509-.745,1.49-.706-.019-.471-.86-.613-1.355A6.018,6.018,0,0,0,14.964,57.823Zm74.361-51.5c1.564.085,2.989.13,4.409.246,3.288.268,6.535.695,9.276,2.785a1.159,1.159,0,0,0,.591.192,4.714,4.714,0,0,1,3.894,2.82,2.568,2.568,0,0,0,2.049,1.318c.824.069.971-.792,1.2-1.425.033-.093.161-.152.265-.243.222.315-.034.735.425,1.048.8-1.54,2.336-2.347,3.565-3.477.614-.565.388-.91-.216-1.253a10.613,10.613,0,0,0-2.994-1.056c-6.746-1.5-13.6-1.63-20.471-1.677A2.915,2.915,0,0,0,89.325,6.321Zm46.659,19.916c.177,4.419.006,8.819-.106,13.219C137.366,35.058,138.006,30.652,135.984,26.237ZM123.425,57.591c.079.4-.212.973.384,1.065.537.082.721-.385.655-.848-.07-.5.115-1.3-.6-1.328C123.231,56.459,123.58,57.216,123.425,57.591Z" transform="translate(-0.287 -0.287)" fill="none" stroke="#fff" stroke-linecap="round" stroke-linejoin="round" stroke-width="4"/>
    <path id="Path_9" data-name="Path 9" d="M96.293,55.317c-.578.074-1.048.1-1.5.2-1.562.342-2.192-1.679-3.736-1.463-.141.02-.337-.667-.2-1.039.129-.34.5-.245.787-.25,1.146-.021,2.3-.1,3.439-.016.8.057,1.823.19,1.021,1.438-.281.436.061.7.185,1.133" transform="translate(-13.007 -7.55)" fill="#fff"/>
    <path id="Path_10" data-name="Path 10" d="M96.293,55.317c-.578.074-1.048.1-1.5.2-1.562.342-2.192-1.679-3.736-1.463-.141.02-.337-.667-.2-1.039.129-.34.5-.245.787-.25,1.146-.021,2.3-.1,3.439-.016.8.057,1.823.19,1.021,1.438C95.826,54.621,96.168,54.889,96.293,55.317Z" transform="translate(-13.007 -7.55)" fill="none" stroke="#fff" stroke-linecap="round" stroke-linejoin="round" stroke-width="4"/>
    <path id="Path_11" data-name="Path 11" d="M101.89,52.3c-.009.039.014.314-.112.428-1.034.951-2.174-.028-3.278.088-.471.051-.827-1.044-.821-1.466a1.841,1.841,0,0,1,1.29-1.42c1.627-.505,2.927.521,2.921,2.369" transform="translate(-13.991 -7.134)" fill="#fff"/>
    <path id="Path_12" data-name="Path 12" d="M101.89,52.3c-.009.039.014.314-.112.428-1.034.951-2.174-.028-3.278.088-.471.051-.827-1.044-.821-1.466a1.841,1.841,0,0,1,1.29-1.42C100.6,49.426,101.9,50.452,101.89,52.3Z" transform="translate(-13.991 -7.134)" fill="none" stroke="#fff" stroke-linecap="round" stroke-linejoin="round" stroke-width="4"/>
    <path id="Path_13" data-name="Path 13" d="M106.875,54.183c-.482.232-1,.411-1.291-.338-.137-.349-.37-.664-.076-1.056a.654.654,0,0,1,.983-.174c.389.222.736.246.833-.326.134-.784.451-.79.788-.134a1.5,1.5,0,0,0,1.318.821.911.911,0,0,1,.892.769c.059.469-.421.446-.677.622-.208.143-.523.221-.625.415-.515.982-.885.615-1.276-.081a.946.946,0,0,0-.869-.52" transform="translate(-15.092 -7.403)" fill="#fff"/>
    <path id="Path_14" data-name="Path 14" d="M106.875,54.183c-.482.232-1,.411-1.291-.338-.137-.349-.37-.664-.076-1.056a.654.654,0,0,1,.983-.174c.389.222.736.246.833-.326.134-.784.451-.79.788-.134a1.5,1.5,0,0,0,1.318.821.911.911,0,0,1,.892.769c.059.469-.421.446-.677.622-.208.143-.523.221-.625.415-.515.982-.885.615-1.276-.081A.946.946,0,0,0,106.875,54.183Z" transform="translate(-15.092 -7.403)" fill="none" stroke="#fff" stroke-linecap="round" stroke-linejoin="round" stroke-width="4"/>
    <path id="Path_15" data-name="Path 15" d="M101.45,48.9c.072-.894.1-1.6.194-2.294.092-.671.174-1.394,1.158-1.325.708.049,1.431.105,1.446,1.036.015.882-.222,1.774-1.178,2a4.6,4.6,0,0,0-1.621.588" transform="translate(-14.531 -6.485)" fill="#fff"/>
    <path id="Path_16" data-name="Path 16" d="M101.45,48.9c.072-.894.1-1.6.194-2.294.092-.671.174-1.394,1.158-1.325.708.049,1.431.105,1.446,1.036.015.882-.222,1.774-1.178,2A4.6,4.6,0,0,0,101.45,48.9Z" transform="translate(-14.531 -6.485)" fill="none" stroke="#fff" stroke-linecap="round" stroke-linejoin="round" stroke-width="4"/>
  </g>
</svg>
