<?xml version="1.0" standalone="no"?>
<!DOCTYPE svg PUBLIC "-//W3C//DTD SVG 1.1//EN" "http://www.w3.org/Graphics/SVG/1.1/DTD/svg11.dtd" >
<svg xmlns="http://www.w3.org/2000/svg" xmlns:xlink="http://www.w3.org/1999/xlink" version="1.1">
<metadata>
Created by FontForge 20170731 at Tue Jan 25 15:33:35 2022
 By Aleksey,,,
(c) 1990, 2001, 2002 Adobe Systems Incorporated. All rights reserved.
</metadata>
<defs>
<font id="HerculanumLTStd" horiz-adv-x="569" >
  <font-face 
    font-family="Herculanum LT Std"
    font-weight="400"
    font-stretch="normal"
    units-per-em="2048"
    panose-1="3 6 4 2 4 3 2 2 2 0"
    ascent="1589"
    descent="-459"
    x-height="1149"
    cap-height="1202"
    bbox="-276 -453 2212 1589"
    underline-thickness="102"
    underline-position="-307"
    unicode-range="U+0020-FB02"
  />
<missing-glyph horiz-adv-x="1024" 
d="M0 0v1434h1024v-1434h-1024zM512 809l348 522h-696zM573 717l349 -522v1044zM164 102h696l-348 523zM102 1239v-1044l349 522z" />
    <glyph glyph-name="f_i" unicode="fi" horiz-adv-x="1781" 
d="M420 467v-428q0 -60 -12 -135.5t-37 -75.5q-23 0 -52.5 18.5t-29.5 36.5q0 15 3 60t6 153.5t3 278.5q0 48 -14.5 91.5t-14.5 68.5q0 21 9.5 60.5t9.5 63.5q0 59 -23 295q-57 81 -57 127q0 23 47 68t74 45q12 0 58.5 -5t90.5 -5q101 0 286 9t200 9q22 0 22 -20
q0 -16 -18 -43.5t-35 -30.5q-72 -13 -258 -31.5t-219 -23.5q-10 -2 -15.5 -11.5t-9.5 -42.5q-8 -80 -8 -297q0 -17 1 -51.5t1 -52.5h162q80 0 188.5 11.5t132.5 11.5q39 0 39 -37q0 -31 -14 -50.5t-35 -19.5q-69 0 -240.5 -17t-240.5 -30zM1374 633q0 81 -3 170t-3 115
q0 63 -16 81q-35 40 -35 74q0 26 61.5 77.5t89.5 51.5q23 0 51.5 -17.5t28.5 -29.5q0 -16 -9.5 -52t-10.5 -59q-19 -287 -19 -882q0 -119 -15 -162t-50 -43q-26 0 -37 12.5t-20 85t-11 197.5t-2 381z" />
    <glyph glyph-name="f_l" unicode="fl" horiz-adv-x="2162" 
d="M420 467v-428q0 -60 -12 -135.5t-37 -75.5q-23 0 -52.5 18.5t-29.5 36.5q0 15 3 60t6 153.5t3 278.5q0 48 -14.5 91.5t-14.5 68.5q0 21 9.5 60.5t9.5 63.5q0 59 -23 295q-57 81 -57 127q0 23 47 68t74 45q12 0 58.5 -5t90.5 -5q101 0 286 9t200 9q22 0 22 -20
q0 -16 -18 -43.5t-35 -30.5q-72 -13 -258 -31.5t-219 -23.5q-10 -2 -15.5 -11.5t-9.5 -42.5q-8 -80 -8 -297q0 -17 1 -51.5t1 -52.5h162q80 0 188.5 11.5t132.5 11.5q39 0 39 -37q0 -31 -14 -50.5t-35 -19.5q-69 0 -240.5 -17t-240.5 -30zM1581 123l371 14q20 1 57 19t51 18
q35 0 35 -27q0 -21 -21 -84t-42 -63t-80 20q-27 9 -223 9q-204 0 -234 -15q-28 -14 -63 -14q-22 0 -50 44t-28 60q0 9 20 38.5t21 60.5q4 88 4 479q0 112 -6.5 199t-16 134t-19 77.5t-16 46t-6.5 22.5q0 21 64.5 70t87.5 49t47.5 -14t24.5 -35q0 -11 -8.5 -45.5t-8.5 -55.5
q0 -63 -6 -183t-6 -175q0 -36 2 -107t2 -118q0 -101 -12.5 -254t-12.5 -162q0 -16 25 -16q6 0 22 4t25 4z" />
    <glyph glyph-name=".notdef" horiz-adv-x="1024" 
d="M0 0v1434h1024v-1434h-1024zM512 809l348 522h-696zM573 717l349 -522v1044zM164 102h696l-348 523zM102 1239v-1044l349 522z" />
    <glyph glyph-name=".null" horiz-adv-x="0" 
 />
    <glyph glyph-name="nonmarkingreturn" horiz-adv-x="682" 
 />
    <glyph glyph-name="space" unicode=" " 
 />
    <glyph glyph-name="exclam" unicode="!" horiz-adv-x="645" 
d="M246 815q0 25 1 74t1 74q0 49 -22.5 102t-22.5 59q0 9 12 23t25 22l57 37q22 11 31 11q13 0 50.5 -29.5t37.5 -46.5q0 -23 -6.5 -70.5t-15 -105.5t-15 -186.5t-6.5 -293.5q0 -9 1 -35t1 -42q0 -25 -25 -25q-19 0 -57.5 32.5t-38.5 47.5q0 59 -4 176t-4 176zM217 80
q0 37 46.5 85t64.5 48q28 0 71 -35t43 -63q0 -34 -35.5 -74.5t-78.5 -40.5q-32 0 -71.5 32t-39.5 48z" />
    <glyph glyph-name="quotedbl" unicode="&#x22;" horiz-adv-x="561" 
d="M82 1217h139l-26 -418h-86zM336 1217h139l-26 -418h-87z" />
    <glyph glyph-name="numbersign" unicode="#" horiz-adv-x="1144" 
d="M322 0h-95l66 342h-205v84h221l56 289h-226v86h240l65 336h95l-66 -336h285l65 336h95l-66 -336h203v-86h-219l-56 -289h221v-84h-237l-66 -342h-94l66 342h-283zM403 426h283l57 289h-284z" />
    <glyph glyph-name="dollar" unicode="$" horiz-adv-x="1062" 
d="M487 119l5 434l-224 106q-40 20 -72 69.5t-32 115.5q0 95 11 131t46 74q54 59 118.5 87t154.5 44v137q0 18 21.5 32.5t51.5 14.5q8 0 14.5 -5.5t6.5 -15.5q0 -4 -5 -55.5t-5 -99.5h40q57 0 151.5 -26.5t94.5 -57.5q0 -36 -29 -79.5t-53 -43.5q-14 0 -28.5 14.5
t-48.5 61.5q-26 37 -123 37q-7 -14 -7 -60l-4 -381q59 -34 191 -84q67 -26 104 -98t37 -145q0 -44 -40 -124t-72 -102q-86 -56 -232 -82q0 -64 -14 -127q-3 -15 -19.5 -30t-36.5 -15q-8 0 -8 11q0 2 1 19t2 52t1 82q-78 0 -159.5 16.5t-124.5 36.5q-16 7 -28.5 47t-12.5 70
q0 15 9.5 27t23.5 12q17 0 83 -37q48 -27 102.5 -47t80.5 -20q12 0 28 4zM496 692l-4 395q-63 0 -132 -68t-69 -132q0 -77 205 -195zM561 516l-4 -393q71 22 113 42t63.5 46t28 51.5t6.5 67.5q0 60 -51.5 101.5t-155.5 84.5z" />
    <glyph glyph-name="percent" unicode="%" horiz-adv-x="1705" 
d="M121 965q0 161 225 270q21 10 41.5 34t41.5 40t52 16t53 -13.5t39.5 -32.5t41.5 -38.5t73.5 -33t120.5 -13.5q207 0 257 3t71 17q61 43 75 43q27 0 82 -26q19 -8 19 -29q0 -11 -10.5 -20.5t-27.5 -21.5t-49.5 -50.5t-66.5 -97.5q-50 -84 -192.5 -304.5t-186.5 -275.5
q-75 -95 -118 -172t-99 -215q-20 -49 -35.5 -62.5t-48.5 -13.5q-32 0 -68 7.5t-36 19.5q0 23 14.5 49t67.5 90q106 131 187 248t228 356q89 145 201 303q29 44 29 54q0 16 -21 16q-1 0 -87.5 -12.5t-184.5 -12.5q-65 0 -95 5t-71 22l-4 -4q8 -8 8 -39q0 -79 -20 -184
q-9 -45 -34 -82.5t-56 -52.5q-162 -84 -238 -84q-17 0 -61 28.5t-58 46.5q-39 49 -49 89.5t-10 132.5zM248 913q0 -56 14 -88q7 -17 20 -21.5t56 -4.5q99 0 143 53q41 49 62.5 120.5t21.5 112.5q0 51 -43.5 86t-72.5 35q-13 0 -66.5 -40.5t-81.5 -73.5q-22 -25 -37.5 -81
t-15.5 -98zM1143 285q0 -97 20 -123q34 -43 101 -43q62 0 107 21t67 54t31.5 62.5t9.5 56.5q0 56 -70 123q-66 66 -152 66q-68 0 -91 -45.5t-23 -171.5zM1008 289q0 117 71 180q99 89 138.5 114t68.5 25q55 0 111 -9.5t78 -25.5q48 -35 79 -104.5t31 -126.5
q0 -34 -31.5 -103.5t-78.5 -127.5q-26 -31 -104 -71t-103 -40q-28 0 -84 27t-121 77q-26 20 -40.5 70t-14.5 115z" />
    <glyph glyph-name="ampersand" unicode="&#x26;" horiz-adv-x="1703" 
d="M172 373q0 88 81.5 193t152.5 141l-107 100q-59 56 -59 186q0 53 35 105t85.5 87t104.5 57t94 22q50 0 114 -24.5t115.5 -75t51.5 -109.5q0 -80 -58.5 -158.5t-181.5 -175.5q40 -37 166.5 -127.5t185.5 -124.5q12 24 24.5 89.5t12.5 96.5q0 32 -16 72q-3 7 -26 20.5
t-23 28.5q0 39 129 39q45 0 58 -7t13 -34q0 -109 -16.5 -186.5t-56.5 -184.5q163 -107 297 -184.5t157 -77.5q15 0 40.5 12.5t37.5 12.5q29 0 29 -23q0 -29 -54.5 -93t-78.5 -64q-3 0 -6.5 1t-8.5 3t-10 4.5t-13.5 7.5t-15.5 9t-19 11.5t-22 14t-26.5 16.5t-30.5 19
l-334 209q-28 -56 -76.5 -108.5t-99.5 -88.5t-79 -53.5t-46 -26.5q-39 -20 -125 -20q-94 0 -131 12q-17 6 -46 23.5t-67.5 51.5t-71.5 76t-56 102t-23 124zM375 983q0 -37 30 -79t111 -120l86 70q51 40 77 89t26 89q0 37 -47 81t-95 44q-66 0 -127 -51t-61 -123zM319 350
q0 -62 47 -124t109 -99t111 -37q161 0 313 246l-131 90q-112 77 -291 221q-77 -68 -117.5 -147t-40.5 -150z" />
    <glyph glyph-name="quotesingle" unicode="'" horiz-adv-x="305" 
d="M82 1217h139l-26 -418h-86z" />
    <glyph glyph-name="parenleft" unicode="(" horiz-adv-x="681" 
d="M135 592q0 96 35 178q84 191 330 496q16 20 18 32q3 21 35 21q9 0 21 -1t27.5 -4t25.5 -10t10 -16q0 -11 -11.5 -21.5t-32 -28.5t-34.5 -40q-88 -133 -139.5 -222.5t-77 -158.5t-32.5 -115t-7 -112q0 -87 10 -156.5t37 -151.5t82 -169t139 -183q12 -13 30 -21t29 -13.5
t11 -16.5t-17 -31t-28 -20q-21 0 -51.5 8.5t-42.5 22.5q-185 208 -314 428q-31 53 -42 110t-11 195z" />
    <glyph glyph-name="parenright" unicode=")" horiz-adv-x="681" 
d="M379 590q0 66 -7 112t-32.5 115t-77 158.5t-139.5 222.5q-14 22 -34.5 40t-32 28.5t-11.5 21.5q0 17 29 24t55 7q32 0 35 -21q2 -12 18 -32q246 -305 330 -496q35 -82 35 -178q0 -138 -11 -195t-42 -110q-129 -220 -314 -428q-12 -14 -42.5 -22.5t-51.5 -8.5
q-11 0 -28 20t-17 31t11 16.5t29 13.5t30 21q84 96 139 183t82 169t37 151.5t10 156.5z" />
    <glyph glyph-name="asterisk" unicode="*" horiz-adv-x="833" 
d="M616 588q-17 0 -47 33q-56 61 -168 213q-59 -58 -119.5 -127.5t-76.5 -92.5q-13 -18 -37 -18q-17 0 -27 18q-5 10 -14.5 42t-9.5 38q0 12 18 27l195 153q-62 23 -141.5 66t-79.5 59q0 12 10 40t18 28q18 0 135 -49q78 -33 117 -41l4 242q0 17 29.5 31t46.5 14
q31 0 31 -156q0 -33 -3 -61t-6.5 -44.5t-3.5 -19.5q0 -6 7 -6t22 18q8 9 105 68t106 59t26 -9.5t17 -16.5q0 -9 -22.5 -45t-36.5 -54q-21 -28 -43 -39q-60 -29 -174 -69q32 -48 92.5 -125t75.5 -90q26 -23 26 -41q0 -11 -30 -28t-42 -17z" />
    <glyph glyph-name="plus" unicode="+" horiz-adv-x="1161" 
d="M1057 422h-432v-445h-90v445h-433v84h433v401h90v-401h432v-84z" />
    <glyph glyph-name="comma" unicode="," 
d="M205 262q0 13 48.5 40.5t68.5 27.5q16 0 48.5 -20t32.5 -38q0 -16 -49.5 -131t-110.5 -226.5t-85 -111.5q-56 0 -56 29q0 6 54.5 177.5t54.5 187.5q0 12 -3 33.5t-3 31.5z" />
    <glyph glyph-name="hyphen" unicode="-" horiz-adv-x="681" 
d="M129 526q0 22 30.5 70.5t61.5 48.5q7 0 25.5 -7.5t56 -14.5t90.5 -7q47 0 112 7.5t75 7.5q16 0 24 -23.5t8 -40.5q0 -10 -25.5 -33.5t-41.5 -23.5q-8 0 -122 -6t-226 -6q-68 0 -68 28z" />
    <glyph glyph-name="period" unicode="." 
d="M160 92q0 22 49.5 71.5t71.5 49.5q28 0 49 -12q31 -18 50.5 -35t24.5 -26t5 -15q0 -37 -49.5 -81t-67.5 -44q-26 0 -111 49q-22 13 -22 43z" />
    <glyph glyph-name="slash" unicode="/" horiz-adv-x="757" 
d="M-8 -131q0 4 3.5 10t10.5 17t12 20q45 82 219 447.5t265 584.5q72 173 111 256.5t57.5 107t36.5 23.5t38.5 -20.5t20.5 -38.5q0 -6 -4.5 -14t-17 -28.5t-25.5 -45.5q-187 -375 -352.5 -738t-255.5 -589q-3 -7 -27 -20t-31 -13q-24 0 -45 16q-16 10 -16 25z" />
    <glyph glyph-name="zero" unicode="0" horiz-adv-x="1214" 
d="M184 504q0 157 30.5 281t76 196.5t104.5 120.5t109.5 65t97.5 17q128 0 226.5 -80t150 -214.5t51.5 -297.5q0 -45 -10.5 -102t-32.5 -125t-60.5 -131.5t-88.5 -116.5t-123.5 -85t-159.5 -32q-74 0 -144 49.5t-119 124.5t-78.5 163.5t-29.5 166.5zM332 590
q0 -16 1.5 -39.5t7.5 -69.5t16.5 -90t31.5 -92.5t48.5 -84.5t71.5 -59.5t97 -23.5q62 0 110.5 29t79 75.5t51 110.5t28.5 129.5t8 136.5q0 44 -9 99t-31.5 118.5t-54.5 115t-83.5 86t-112.5 34.5q-115 0 -187.5 -135.5t-72.5 -339.5z" />
    <glyph glyph-name="one" unicode="1" horiz-adv-x="681" 
d="M285 438q0 238 -10 365t-25.5 168.5t-46.5 56.5q-47 21 -47 53q0 19 18 27q70 30 119 56.5t64.5 35t29.5 8.5q17 0 40.5 -9.5t23.5 -20.5q0 -5 -7.5 -46.5t-15.5 -161t-8 -313.5q0 -237 10 -514q1 -25 9 -42.5t17.5 -24.5t17 -15.5t7.5 -17.5q0 -20 -36 -31.5t-97 -11.5
q-70 0 -92.5 7.5t-22.5 25.5q0 15 31 51q8 9 12 29.5t6.5 97t2.5 227.5z" />
    <glyph glyph-name="two" unicode="2" horiz-adv-x="1062" 
d="M135 45v111q0 23 28 55t142 131t191.5 185.5t115 154.5t52 118t14.5 99q0 79 -52.5 133.5t-152.5 54.5q-88 0 -137 -22.5t-72 -77.5q-10 -24 -74 -24q-28 0 -43.5 50.5t-15.5 86.5t127.5 65t208.5 29q74 0 124 -14.5t124 -67.5q68 -48 93.5 -96t25.5 -131q0 -76 -38 -169
t-120 -169l-402 -375q-12 -12 -12 -16q0 -6 14 -6q92 0 261 3.5t223 4.5q49 1 86 7.5t53 14.5l29 14.5t20 6.5q11 0 20 -11t9 -26q0 -36 -16 -100t-41 -64q-18 0 -58 16q-22 9 -73 12t-199 3q-213 0 -271 -3.5t-90 -15.5t-45 -12q-14 0 -31.5 14.5t-17.5 30.5z" />
    <glyph glyph-name="three" unicode="3" horiz-adv-x="948" 
d="M739 932l-172 -213q-37 -45 -37 -80t60 -86l115 -96q55 -45 55 -111q0 -75 -39.5 -133.5t-138.5 -136.5q-45 -36 -178.5 -106t-172.5 -70q-32 0 -55 20l-63 53q-21 18 -21 33q0 10 14 15.5t58 9.5q201 19 314.5 105t113.5 186q0 34 -24.5 69t-88.5 88l-106 88
q-35 27 -35 47q0 3 3 7.5t12.5 14.5t21 22t33.5 35.5t45 49.5q93 104 120 148.5t27 73.5q0 30 -141.5 65t-186.5 35q-37 0 -65 -15.5t-33 -15.5q-16 0 -27.5 13t-11.5 38q0 36 17.5 92t44.5 56q21 0 85 -12.5t183.5 -47t241.5 -81.5q61 -24 61 -88q0 -23 -6 -37.5t-23 -34.5
z" />
    <glyph glyph-name="four" unicode="4" horiz-adv-x="1214" 
d="M170 481l504 676q17 22 56.5 42t62.5 20q26 0 26 -37q0 -6 -5 -114t-10 -276t-5 -321q0 -67 4.5 -82.5t21.5 -15.5q37 0 115 1t119 1q17 0 45.5 8t32.5 8q8 0 14 -8t6 -16q0 -21 -24 -76t-54 -55q-2 0 -9 2t-22 5t-38.5 6t-67.5 5t-100 2h-47q3 -101 7 -169t6.5 -93.5
t2.5 -32.5q0 -33 -49 -33q-34 0 -80.5 13.5t-46.5 40.5q0 5 5.5 16.5t6.5 21.5q19 157 19 220q0 13 -11 18.5t-43 5.5q-100 0 -283.5 -10t-185.5 -10q-17 0 -42 28t-25 47q0 21 17 51t77 111zM260 408q0 -37 160 -37q41 0 123.5 1t122.5 1q6 210 6 213q0 57 -1 172t-1 174
q-120 -108 -265 -298.5t-145 -225.5z" />
    <glyph glyph-name="five" unicode="5" horiz-adv-x="985" 
d="M395 1171h428q5 0 20 3.5t25 3.5t19.5 -11t9.5 -22q0 -21 -36 -63t-58 -42q-58 0 -164 -1t-147 -1q-92 0 -109 11q-9 6 -25 6q-15 0 -44 -49.5t-29 -79.5q0 -28 36 -62.5t144 -103.5l123 -80q106 -69 138 -125t32 -164q0 -77 -32 -139t-142 -172q-58 -58 -206.5 -155
t-211.5 -97q-21 0 -31 20t-10 70q0 49 10 63.5t43 14.5q94 0 142.5 15t111.5 67q77 62 127.5 138.5t50.5 137.5q0 40 -6 67.5t-16 51t-40.5 53.5t-63 57.5t-99.5 80.5l-186 147q-30 25 -39.5 39t-9.5 29q0 34 28 104l41 104q28 70 42 91.5t28 21.5q7 0 34.5 -14.5
t71.5 -14.5z" />
    <glyph glyph-name="six" unicode="6" horiz-adv-x="1175" 
d="M172 520q0 83 37.5 177.5t95.5 176.5t128 159t136.5 131.5t119.5 87t77 32.5q50 0 108 -11.5t58 -35.5q0 -18 -64 -44t-150 -66.5t-124 -86.5q-146 -175 -206 -309t-60 -280q0 -85 29 -161.5t94 -130t153 -53.5q68 0 117.5 21t76 57t38.5 75.5t12 84.5q0 130 -57 198
t-166 68q-17 0 -63 -9t-60 -9q-12 0 -22.5 8.5t-10.5 24.5q0 24 64 58t94 34q67 0 122.5 -13t94 -35t68 -52.5t46.5 -63t28 -70t14.5 -69.5t3.5 -66q0 -90 -59.5 -172t-149.5 -129t-181 -47q-90 0 -163 28.5t-119.5 76t-79.5 102.5t-49.5 117t-23.5 109t-7 87z" />
    <glyph glyph-name="seven" unicode="7" horiz-adv-x="948" 
d="M193 1171h512q27 0 66 7.5t54 7.5q17 0 38.5 -34t21.5 -52q0 -16 -39 -72q-71 -98 -170 -282t-181.5 -389.5t-82.5 -305.5q0 -22 -37 -36.5t-62 -14.5t-76 16.5t-51 40.5q0 17 13.5 39.5t43.5 67t54 90.5l373 702q41 77 41 91q0 10 -9 10q-7 0 -36 -13q-32 -16 -314 -16
q-166 0 -268 10q-22 1 -30.5 28.5t-8.5 51.5q0 20 16 61.5t31 41.5q12 0 25 -12.5t32 -25t44 -12.5z" />
    <glyph glyph-name="eight" unicode="8" horiz-adv-x="1138" 
d="M301 479l156 121q-134 87 -180 148.5t-46 125.5q0 46 26.5 94t61.5 81t66 54t43 21q11 0 35 -11.5t24 -20.5q0 -31 -18 -45q-90 -73 -90 -140q0 -47 9.5 -74t47 -62t117.5 -87q106 96 147 158.5t41 118.5q0 101 -47 145q-27 27 -141 37q-9 0 -16 7t-7 15t16.5 36t28.5 38
q29 25 66 25q100 0 178 -90t78 -181q0 -66 -66.5 -157t-189.5 -187q111 -67 164 -111.5t77.5 -99t24.5 -137.5q0 -74 -52.5 -148.5t-136.5 -121.5t-171 -47q-58 0 -140.5 14.5t-125.5 48.5q-43 36 -73 95t-30 106q0 54 41 126.5t82 104.5zM334 258q0 -83 70 -131.5
t161 -48.5q75 0 141 74t66 153q0 74 -68 143.5t-165 110.5q-109 -86 -157 -155t-48 -146z" />
    <glyph glyph-name="nine" unicode="9" horiz-adv-x="1138" 
d="M156 848q0 83 34 152.5t119 136.5q86 69 248 69q116 0 175 -16.5t114 -71.5q59 -59 98 -139t39 -135q0 -63 -23 -148.5t-69 -152.5q-53 -76 -131.5 -203t-106.5 -184q-24 -49 -63.5 -113t-59.5 -72q-23 -9 -71.5 -17.5t-61.5 -8.5q-32 0 -32 22q0 4 5 10.5t15 19t18 23.5
q147 205 221 314.5t121 202.5t58.5 149t11.5 137q0 27 -6 59t-24 72t-44.5 71.5t-73 53t-104.5 21.5q-59 0 -115.5 -27.5t-96.5 -88t-40 -140.5q0 -39 11 -72t36.5 -62t73 -45t113.5 -16q17 0 53 4t55 4q7 0 14 -4.5t7 -11.5q0 -25 -56 -76q-40 -37 -73.5 -48t-112.5 -11
q-35 0 -82.5 31t-90.5 78t-73 111t-30 122z" />
    <glyph glyph-name="colon" unicode=":" 
d="M172 639q0 35 29 51l78 45q20 10 38 10q27 0 66 -32.5t39 -55.5q0 -30 -60 -85.5t-90 -55.5q-14 0 -57 52.5t-43 70.5zM147 100q0 27 60.5 78t81.5 51q9 0 17.5 -7t25.5 -29q53 -72 53 -87q0 -29 -36.5 -67.5t-69.5 -38.5q-18 0 -42 13.5t-73 52.5q-17 14 -17 34z" />
    <glyph glyph-name="semicolon" unicode=";" 
d="M121 -178q0 8 18 49q40 105 92 319q9 41 23 58q15 19 40.5 34t45.5 15q16 0 45 -29t29 -53q0 -8 -4.5 -17.5t-13 -24.5t-13.5 -26l-133 -272q-23 -47 -39 -59.5t-41 -12.5q-23 0 -36 6t-13 13zM223 645q0 34 52.5 67t78.5 33q19 0 57 -41t38 -65q0 -19 -50.5 -71
t-76.5 -52q-23 0 -61 49t-38 80z" />
    <glyph glyph-name="less" unicode="&#x3c;" horiz-adv-x="1161" 
d="M1051 -31l-936 449v88l936 448v-94l-840 -395v-4l840 -400v-92z" />
    <glyph glyph-name="equal" unicode="=" horiz-adv-x="1161" 
d="M1057 623h-955v84h955v-84zM1057 223h-955v84h955v-84z" />
    <glyph glyph-name="greater" unicode="&#x3e;" horiz-adv-x="1161" 
d="M115 954l936 -450v-86l-936 -449v92l837 398v4l-837 397v94z" />
    <glyph glyph-name="question" unicode="?" horiz-adv-x="985" 
d="M162 1040q0 41 63.5 85t128 68t84.5 24q76 0 169 -24t136 -63q51 -45 72 -132t21 -167q0 -63 -36 -130.5t-87 -102.5q-194 -137 -244 -182q-22 -19 -55 -19q-31 0 -31 54q0 43 23 51q21 6 97.5 61t121.5 99q36 35 60 97.5t24 110.5q0 60 -35 113q-31 50 -68 84
q-63 55 -135 55q-44 0 -85.5 -23t-55.5 -71q-11 -34 -36.5 -55t-48.5 -27t-46 -6q-19 0 -28 32.5t-9 67.5zM492 0q-8 0 -29 4.5t-48 13.5t-47 26.5t-20 39.5t36.5 83.5t57.5 61.5q17 0 52.5 -21t48.5 -34q20 -20 25 -38.5t5 -72.5q0 -63 -81 -63z" />
    <glyph glyph-name="at" unicode="@" horiz-adv-x="1609" 
d="M1081 -45l27 -66q-157 -75 -356 -75q-300 0 -479 159.5t-179 409.5q0 104 34 202t100 180t157 144t212 96.5t257 34.5q124 0 230 -28.5t182 -78.5t130 -117.5t80.5 -146t26.5 -163.5q0 -93 -35.5 -169.5t-92 -123t-122 -71.5t-131.5 -25q-64 0 -108 41t-47 121h-6
q-53 -73 -128.5 -117.5t-166.5 -44.5q-96 0 -161 63t-65 170q0 170 133 286t328 116q135 0 240 -41l-72 -318q-20 -106 -1 -153t71 -47q30 -1 64.5 8.5t72.5 32.5t68 57t49.5 88t19.5 119q0 207 -153 340t-424 133q-94 0 -188 -26.5t-176.5 -78t-146.5 -121t-101.5 -161
t-37.5 -191.5q0 -121 45.5 -218.5t124.5 -160t183.5 -96t224.5 -33.5q189 0 317 70zM981 457l45 196q-55 19 -139 19q-139 0 -240.5 -93t-101.5 -219q0 -68 41 -115.5t123 -47.5q89 0 170 85t102 175z" />
    <glyph glyph-name="A" unicode="A" horiz-adv-x="1366" 
d="M563 432q-102 0 -128 -9.5t-44 -55.5q-14 -38 -72 -153t-63 -140q-10 -57 -39 -60q-21 -2 -64 -5.5t-74 -6t-36 -2.5q-9 0 -14.5 11t-5.5 22q0 28 5 38t19 13q84 20 115 106q3 9 109 201t202 397.5t96 286.5q0 7 -13 43t-13 43q0 20 43 46t67 26q13 0 38.5 -26t41.5 -60
q18 -37 87 -186t127 -264t128 -238q55 -96 102.5 -171t75.5 -113t48 -63t28 -34.5t8 -14.5q0 -36 -47 -36q-23 0 -81 9t-79 15q-32 8 -51 74q-12 42 -67.5 153t-73.5 119q-36 19 -155.5 27t-219.5 8zM514 526h371l-162 318q-13 23 -23.5 50.5t-16 37.5t-13.5 10
q-7 0 -14 -14t-14.5 -39t-12.5 -35l-107 -217q-43 -85 -43 -96q0 -15 35 -15z" />
    <glyph glyph-name="B" unicode="B" horiz-adv-x="1099" 
d="M297 641q0 162 -4 232.5t-12.5 92.5t-30.5 35q-4 2 -11.5 6t-11 6t-9.5 5.5t-8.5 5.5t-6.5 5t-6 5.5t-4 6t-2.5 7t-0.5 7.5q0 12 12.5 23.5t73 45.5t187.5 97q24 12 76 12q156 0 236.5 -45.5t80.5 -151.5q0 -58 -8 -94t-36.5 -73.5t-76 -71.5t-133.5 -82
q42 -14 94.5 -47.5t103 -78t84.5 -101.5t34 -109q0 -69 -52.5 -133t-127 -107t-155.5 -76t-138.5 -48t-75.5 -15q-93 0 -124.5 8.5t-31.5 32.5q0 11 22 37.5t25 44.5q12 69 24.5 223.5t12.5 294.5zM424 1073v-321q31 -31 51 -31q29 0 85 46.5t102.5 113.5t46.5 116
q0 59 -55 106.5t-144 47.5q-86 0 -86 -78zM403 309q0 -62 1 -92t5.5 -48.5t10.5 -22t20 -3.5q41 0 94 12t107.5 35.5t91.5 65.5t37 94q0 69 -91.5 154.5t-184.5 120.5q-47 -15 -66 -37q-25 -28 -25 -279z" />
    <glyph glyph-name="C" unicode="C" horiz-adv-x="1214" 
d="M213 492q0 123 25.5 226.5t67 175t99.5 127.5t118.5 89.5t128.5 55t124 29t111 7.5q78 0 129 -31t51 -65q0 -25 -42.5 -63.5t-68.5 -38.5q-10 0 -23 14.5t-26 31.5t-38 31.5t-56 14.5q-81 0 -150 -25.5t-115.5 -65.5t-83 -94t-58 -108t-35 -110t-18.5 -96t-5 -71
q0 -48 16.5 -105.5t48.5 -114.5t74.5 -103.5t100 -75.5t119.5 -29q69 0 135 26t106.5 57t77 57t51.5 26q20 0 31.5 -12t11.5 -31q0 -20 -53 -75.5t-115 -90.5q-41 -24 -131.5 -43.5t-171.5 -19.5q-50 0 -105 15.5t-115 53t-107 92.5t-78 143.5t-31 195.5z" />
    <glyph glyph-name="D" unicode="D" horiz-adv-x="1327" 
d="M485 -25q-16 0 -44 4.5t-31 4.5l-115 16q-37 5 -51.5 12t-14.5 23q0 14 9 25.5t20.5 21t22 35t12.5 63.5q14 284 14 492q0 86 -11 196.5t-24 171.5q-3 15 -16.5 21.5t-27 6t-24.5 7.5t-11 27q0 29 14.5 40.5t68.5 26.5l144 41q85 23 115 23q12 0 38.5 -2.5t80.5 -14
t107 -30.5t112.5 -57.5t104 -88.5t74 -129.5t29.5 -175.5q0 -212 -28 -330.5t-101 -220.5q-39 -55 -147.5 -106.5t-199.5 -77t-120 -25.5zM434 1083v-579q0 -53 -1 -152t-1 -139q0 -74 15.5 -96.5t54.5 -22.5q80 0 142.5 15t118.5 55t92.5 104.5t57.5 167t21 240.5
q0 97 -30 177.5t-74 129t-96 82.5t-92.5 47.5t-66.5 13.5q-33 0 -73.5 -13t-67.5 -30z" />
    <glyph glyph-name="E" unicode="E" horiz-adv-x="985" 
d="M469 655h276q39 0 39 -24q0 -14 -38.5 -47.5t-57.5 -34.5q-76 -6 -311 -12q0 -247 97.5 -370.5t305.5 -123.5q45 0 60.5 -8.5t15.5 -34.5q0 -21 -33.5 -36t-105.5 -15q-97 0 -174.5 20t-128.5 51t-88 79t-57 94t-31 107.5t-14 106.5t-3 103q0 159 25 284.5t66.5 206.5
t99.5 134.5t121 75.5t135 22q84 0 115.5 -13.5t31.5 -48.5q0 -21 -10.5 -33t-28.5 -12h-121q-42 0 -77 -12.5t-70 -46.5t-60.5 -89t-44.5 -145t-26 -210q41 32 92 32z" />
    <glyph glyph-name="F" unicode="F" horiz-adv-x="1099" 
d="M420 467v-428q0 -60 -12 -135.5t-37 -75.5q-23 0 -52.5 18.5t-29.5 36.5q0 15 3 60t6 153.5t3 278.5q0 48 -14.5 91.5t-14.5 68.5q0 21 9.5 60.5t9.5 63.5q0 59 -23 295q-57 81 -57 127q0 23 47 68t74 45q12 0 58.5 -5t90.5 -5q101 0 286 9t200 9q22 0 22 -20
q0 -16 -18 -43.5t-35 -30.5q-72 -13 -258 -31.5t-219 -23.5q-10 -2 -15.5 -11.5t-9.5 -42.5q-8 -80 -8 -297q0 -17 1 -51.5t1 -52.5h162q80 0 188.5 11.5t132.5 11.5q39 0 39 -37q0 -31 -14 -50.5t-35 -19.5q-69 0 -240.5 -17t-240.5 -30z" />
    <glyph glyph-name="G" unicode="G" horiz-adv-x="1290" 
d="M924 272l16 123q3 19 19 27t59 8q15 0 21.5 -3t12 -22t6.5 -53t1 -102q0 -104 9 -223.5t9 -145.5q0 -29 -12 -41t-47 -12q-24 0 -37.5 31t-30.5 135q-4 31 -18 43t-43 12q-5 0 -81 -12t-122 -12q-107 0 -192.5 35.5t-136.5 88.5t-85 122t-46.5 129t-12.5 116
q0 103 24.5 200.5t78 186t131 155t191 105.5t249.5 39q239 0 239 -106q0 -29 -38.5 -55.5t-61.5 -26.5q-13 0 -29 11.5t-61 53.5q-31 29 -84 29q-77 0 -153 -39.5t-135.5 -105t-106.5 -146t-72 -167.5t-25 -165q0 -86 16 -150t43 -102.5t67.5 -61.5t83 -31.5t96.5 -8.5
q103 0 177 45t81 96z" />
    <glyph glyph-name="H" unicode="H" horiz-adv-x="1441" 
d="M410 444v-348q0 -96 -93 -96q-22 0 -30 12t-8 39q0 67 6 222.5t6 242.5q0 247 -8 451q-1 28 -23 51t-43.5 41.5t-21.5 34.5q0 18 36 54t76 36q39 0 97.5 -27.5t58.5 -46.5q0 -8 -16 -53.5t-17 -83.5q0 -159 -6 -309h545q4 110 4 196q0 54 -6 131t-6 88q0 26 64 47t108 21
q19 0 30 -8t11 -21q0 -8 -19 -42t-27 -85q-20 -120 -20 -325q46 4 68 4q19 0 26.5 -6t7.5 -25q0 -23 -13.5 -52.5t-35.5 -29.5q-3 0 -14 2t-19 2q-20 0 -20 -24l-4 -404q0 -29 -19.5 -67.5t-44.5 -38.5q-30 0 -41 10.5t-12 42.5l-20 477q-121 0 -306.5 -11.5t-240.5 -25.5
q-10 -29 -10 -76z" />
    <glyph glyph-name="I" unicode="I" horiz-adv-x="681" 
d="M274 633q0 81 -3 170t-3 115q0 63 -16 81q-35 40 -35 74q0 26 62 77.5t90 51.5q23 0 51.5 -17.5t28.5 -29.5q0 -16 -10 -52t-11 -59q-18 -272 -18 -882q0 -118 -15.5 -161.5t-50.5 -43.5q-26 0 -37 12.5t-20 85t-11 197.5t-2 381z" />
    <glyph glyph-name="J" unicode="J" horiz-adv-x="681" 
d="M438 809v-330q0 -139 -22 -254.5t-56 -190t-78.5 -131.5t-85.5 -86.5t-81 -48t-61.5 -23.5t-30.5 -5q-26 0 -60.5 43.5t-34.5 73.5q0 16 7.5 23t27.5 7q9 0 41 -2t64 -2q88 0 161.5 113t73.5 301q0 411 -7.5 563t-31.5 225q-5 15 -16 23t-21 10.5t-18 11t-8 25.5
q0 23 76.5 79t107.5 56q18 0 33.5 -16.5t15.5 -40.5q0 -32 2 -179t2 -245z" />
    <glyph glyph-name="K" unicode="K" horiz-adv-x="1630" 
d="M391 752l51 -19l437 342q37 29 65 56.5t38 41.5t21.5 22.5t24.5 8.5q6 0 14 -3t26 -12t32 -15q13 -6 27 -34t14 -46q0 -26 -39 -31q-40 -6 -252 -151.5t-287 -213.5q12 -7 184 -117.5t370 -229t353 -195.5q21 -10 61 -17t65.5 -14.5t25.5 -22.5q0 -23 -56 -78t-83 -55
q-6 0 -11 1t-11.5 3.5t-11 5t-13 8t-14 9.5t-18 12.5t-20.5 14.5q-322 224 -548 367.5t-321 193t-124 49.5q0 -73 3 -277.5t3 -249.5q0 -25 -43.5 -65.5t-66.5 -40.5q-15 0 -21 17.5t-6 72.5q0 8 5 184.5t5 307.5q0 192 -22 493q-2 23 -15 38.5t-25.5 24t-12.5 15.5
q0 13 10 23q79 61 98.5 74.5t28.5 13.5q14 0 52 -30t38 -52q0 -26 -15.5 -183t-15.5 -247z" />
    <glyph glyph-name="L" unicode="L" horiz-adv-x="1062" 
d="M481 123l371 14q20 1 57.5 19t51.5 18q34 0 34 -27q0 -21 -21 -84t-42 -63t-80 20q-27 9 -223 9q-204 0 -234 -15q-28 -14 -63 -14q-22 0 -50 44t-28 60q0 9 20 38.5t21 60.5q4 88 4 479q0 112 -6.5 199t-15.5 134t-18.5 77.5t-16 46t-6.5 22.5q0 21 64 70t87 49
t47.5 -14t24.5 -35q0 -11 -8.5 -45.5t-8.5 -55.5q0 -63 -6 -183t-6 -175q0 -36 2 -107t2 -118q0 -101 -12 -254t-12 -162q0 -16 24 -16q6 0 22 4t25 4z" />
    <glyph glyph-name="M" unicode="M" horiz-adv-x="2390" 
d="M748 461l-207 219q-36 -126 -83 -275.5t-75.5 -242.5t-38.5 -139q-8 -36 -23 -45t-73 -9q-27 0 -60.5 28t-33.5 46q0 28 45 78q66 72 136.5 267t70.5 300q0 77 -22.5 148t-55 120.5t-65 89.5t-55 71t-22.5 50q0 17 40 26t77 9q30 0 87.5 -68t211.5 -292q74 -109 191 -238
t253 -234.5t218 -105.5q67 0 154 33.5t179 98t175 148t149 195t94 228.5q22 92 47 92q22 0 57 -14.5t35 -36.5q0 -12 -14 -84.5t-27.5 -196t-13.5 -256.5q0 -67 17.5 -133.5t39 -108.5t39 -81t17.5 -58q0 -16 -47.5 -40.5t-73.5 -24.5q-44 0 -57 122q-10 90 -30.5 229.5
t-31.5 192.5l-127 -114q-146 -132 -304 -208.5t-298 -76.5q-115 0 -226.5 62t-268.5 229z" />
    <glyph glyph-name="N" unicode="N" horiz-adv-x="1896" 
d="M373 629q0 95 -26 163.5t-85 131.5q-102 111 -129 145t-27 53q0 20 28.5 42t64.5 22q9 0 20 -7t52 -43t116 -108q323 -311 563 -488t559 -343q17 169 17 276q0 143 -13 477q-1 38 -11.5 66t-21.5 41t-20.5 28t-9.5 29q0 31 51 48.5t98 17.5q68 0 68 -41q0 -3 -8.5 -58.5
t-17.5 -221.5t-9 -437q0 -108 11.5 -213.5t11.5 -130.5q0 -47 -49 -78t-86 -31q-14 0 -27 28.5t-36 68t-58 59.5q-468 269 -627.5 375t-279.5 219q0 -3 -19.5 -263.5t-42.5 -377.5q-9 -44 -31.5 -69t-48.5 -25q-25 0 -55.5 18t-30.5 41q0 15 17 64t37.5 110t37.5 173.5
t17 238.5z" />
    <glyph glyph-name="O" unicode="O" horiz-adv-x="1290" 
d="M180 559q0 83 18 164t59 158.5t100 136.5t149 95t199 36q84 0 156 -32.5t128.5 -97t88.5 -171t32 -244.5q0 -131 -42 -239t-112.5 -177t-159 -106t-184.5 -37q-79 0 -155 33.5t-138.5 95.5t-100.5 162t-38 223zM328 592q0 -28 6.5 -65.5t20.5 -86t40.5 -94t62 -84.5
t89.5 -62.5t119 -23.5q38 0 76.5 10t81.5 38t75.5 71t54 117t21.5 168q0 121 -25.5 211t-70 140.5t-98 74.5t-115.5 24q-104 0 -182 -61t-117 -159t-39 -218z" />
    <glyph glyph-name="P" unicode="P" horiz-adv-x="1062" 
d="M281 141v305q0 405 -21 566q-4 30 -22 39q-31 15 -31 36q0 34 58.5 69.5t126.5 56t108 20.5q131 0 252 -51q53 -23 101 -97t48 -129q0 -143 -35 -196q-44 -68 -123.5 -144.5t-113.5 -76.5q-31 0 -84 26.5t-53 40.5q0 21 49 31q95 20 154 85t59 146q0 35 -8 75.5t-25 83.5
t-50.5 71t-78.5 28q-83 0 -162 -49q-22 -207 -22 -379v-540q0 -115 -26.5 -168t-88.5 -53q-35 0 -35 30q0 7 6 24t11.5 54.5t5.5 95.5z" />
    <glyph glyph-name="Q" unicode="Q" horiz-adv-x="1402" 
d="M1190 811q0 -73 -18 -143.5t-47.5 -125.5t-65.5 -104t-72 -83.5t-67.5 -60t-52 -38t-25.5 -12.5q-23 0 -58.5 8.5t-35.5 28.5q0 6 6 10.5t37 25.5q72 48 122 104.5t75.5 117t35.5 115t10 116.5q0 141 -75 236.5t-209 95.5q-45 0 -100 -16.5t-114.5 -52.5t-108.5 -86
t-80.5 -124t-31.5 -159q0 -33 9.5 -73t36 -96.5t68 -114.5t112.5 -124.5t161 -128t222 -125t288 -115.5q129 -43 190 -54t154 -11q129 0 191 20q18 6 29 6q15 0 22.5 -9t7.5 -19q0 -8 -10.5 -24t-26.5 -25l-98 -62q-30 -18 -55 -18q-134 0 -480 112t-520 215
q-137 82 -238.5 191.5t-149.5 214t-48 192.5q0 104 44.5 212.5t118 195t176 142t210.5 55.5q109 0 194.5 -33t134 -80.5t80 -107t42 -105.5t10.5 -84z" />
    <glyph glyph-name="R" unicode="R" horiz-adv-x="1138" 
d="M621 1264q121 0 186 -77t65 -200q0 -120 -49.5 -199t-113.5 -108l-146 -66v-4q48 -7 68 -32q63 -78 133.5 -154t124.5 -127t99.5 -92.5t70 -65t24.5 -30.5q0 -28 -26 -54l-7 -7l-6 -6l-5.5 -5.5l-5 -5t-4 -3.5t-4 -3t-3.5 -2t-4 -1.5l-4 -1t-4 -0.5h-33q-33 0 -59 31
q-12 14 -40 48t-63.5 75.5t-77.5 87.5l-221 240q-32 37 -90 37q-4 -86 -4 -162v-334q0 -43 -39 -43q-35 0 -92.5 24t-57.5 50q0 16 39 65q13 18 20 180t7 275q0 289 -12 407q-1 13 -10.5 20.5t-19.5 10.5t-18 13.5t-8 29.5q0 34 27 53q92 65 199.5 100.5t163.5 35.5z
M426 762v-88q6 -17 37 -17q10 0 49 21t88 56.5t87 96t38 127.5q0 96 -38.5 141.5t-100.5 45.5q-37 0 -75 -17.5t-60 -48.5q-10 -38 -17.5 -133t-7.5 -184z" />
    <glyph glyph-name="S" unicode="S" horiz-adv-x="796" 
d="M166 84q0 21 9 31t20 10q15 0 67.5 -19.5t95.5 -19.5q53 0 88 37t35 84q0 55 -40.5 153.5t-89.5 189.5t-89.5 189t-40.5 152q0 28 17.5 75.5t50 101.5t72.5 102t92 80t102 32q45 0 104.5 -15.5t59.5 -43.5q0 -41 -16 -54t-72 -14q-128 -3 -191 -60.5t-63 -146.5
q0 -47 35 -134.5t76.5 -173t76.5 -193t35 -189.5q0 -17 -6 -49.5t-23.5 -79.5t-43 -87.5t-70 -69.5t-99.5 -29q-40 0 -105.5 23t-72.5 44q-14 44 -14 74z" />
    <glyph glyph-name="T" unicode="T" horiz-adv-x="1024" 
d="M395 1026h-233q-12 0 -38 -2t-40 -2q-23 0 -36 24t-13 54q0 15 22 38t39 23q8 0 126.5 -8t254.5 -8q75 0 225.5 8t225.5 8q30 0 30 -28q0 -17 -32.5 -50t-59.5 -36q-75 -7 -297 -13q-41 -240 -41 -753q0 -35 8.5 -65t27 -57.5t55.5 -43t88 -15.5q9 0 35 3t32 3
q21 0 21 -43q0 -31 -19 -47q-22 -19 -62 -33t-71 -14q-113 0 -188.5 79t-75.5 161q0 16 7.5 71.5t15.5 156.5t8 229q0 211 -15 360z" />
    <glyph glyph-name="U" unicode="U" horiz-adv-x="1857" 
d="M43 1075q0 40 47 60q20 9 67.5 19.5t69.5 10.5q39 0 39 -51q0 -15 -5 -72t-5 -94q0 -55 47.5 -148.5t128.5 -195.5t175.5 -193t201 -150.5t192.5 -59.5q100 0 189 46.5t151 121t111 163t77.5 178t43 159.5t14.5 114v42.5t1.5 34t4.5 29.5t8.5 19.5t14 14t20.5 3.5
q25 0 109 -41q20 -10 27.5 -20.5t7.5 -32.5q0 -12 -14 -57.5t-40 -117t-67.5 -157t-92.5 -175.5t-120 -173.5t-145 -149.5t-172 -105.5t-197 -39.5q-78 0 -178 58.5t-196.5 150.5t-191 207.5t-165.5 227.5t-114.5 212.5t-43.5 161.5z" />
    <glyph glyph-name="V" unicode="V" horiz-adv-x="1744" 
d="M4 1112q0 30 72 75.5t98 45.5q35 0 35 -43q0 -46 110 -186.5t246 -289t278 -306.5t185 -218q51 40 130.5 138.5t160.5 222.5t144 266.5t73 249.5q3 32 11.5 42.5t27.5 10.5q33 0 96.5 -32t63.5 -56q0 -43 -165 -298.5t-345 -494.5t-217 -239q-16 0 -45 18.5t-29 32.5
q0 19 -17.5 45t-80.5 103q-175 216 -329 387t-241 255t-151 143t-87.5 84t-23.5 44z" />
    <glyph glyph-name="W" unicode="W" horiz-adv-x="1933" 
d="M31 1126q0 22 64.5 64.5t90.5 42.5q37 0 37 -35q0 -87 149 -460.5t230 -524.5q10 15 74.5 112t116.5 175.5t107 171t73 137.5q14 36 25 47.5t26 11.5q17 0 46.5 -11t29.5 -23q0 -42 63.5 -206t182.5 -395q28 69 133 272t190.5 374t85.5 204q0 35 9.5 48.5t29.5 13.5
q22 0 75.5 -35.5t53.5 -50.5q0 -16 -15 -41t-67 -104.5t-108 -176.5q-127 -219 -230.5 -429t-111.5 -261q-3 -22 -12 -34.5t-21 -12.5q-100 0 -113 49q-38 137 -107.5 310t-131.5 231q-115 -138 -237 -315t-130 -238q-3 -20 -48 -36.5t-75 -16.5q-21 0 -30 11.5t-9 43.5
q0 170 -358 919q-19 39 -42.5 76.5t-34.5 57t-11 34.5z" />
    <glyph glyph-name="X" unicode="X" horiz-adv-x="1290" 
d="M186 37q0 22 37 41q118 62 387 366q-219 164 -376 290t-238.5 197.5t-127 123t-55.5 72t-10 38.5q0 27 61.5 47.5t112.5 20.5q48 0 62 -13.5t14 -56.5q0 -50 41.5 -104.5t174.5 -170.5t427 -349q128 141 251.5 307.5t123.5 216.5q0 47 215 47q45 0 45 -31q0 -11 -17 -31
t-44 -40q-23 -16 -223 -225.5t-279 -301.5l139 -106q147 -113 266 -183.5t148 -74.5q34 -5 42.5 -8t8.5 -13q0 -30 -51 -71t-78 -41q-31 0 -227 149l-332 254q-72 -81 -134 -158t-94 -120.5t-58.5 -78t-42.5 -48t-31 -13.5q-26 0 -82 22.5t-56 45.5z" />
    <glyph glyph-name="Y" unicode="Y" horiz-adv-x="1744" 
d="M1567 1098q0 6 -2 17.5t-2 17.5q0 24 26 24q31 0 88.5 -22.5t57.5 -42.5q0 -30 -86 -168.5t-221.5 -341.5t-180.5 -275q-30 -48 -43.5 -113t-13.5 -198q0 -16 2 -52.5t2 -56.5q0 -26 -66 -42.5t-98 -16.5q-16 0 -16 22t12 50t24.5 71.5t12.5 104.5q0 46 -8 78t-45 85.5
t-97.5 111.5t-182.5 161t-281.5 228t-411.5 319q-35 26 -35 76q0 21 49 59.5t94 38.5q10 0 16.5 -10t11 -23.5t14.5 -32t24 -32.5q187 -178 413.5 -368.5t348.5 -297t157 -170.5q43 90 200 346.5t196 323.5q41 72 41 129z" />
    <glyph glyph-name="Z" unicode="Z" horiz-adv-x="1402" 
d="M59 205q0 50 18 80.5t70 74.5q94 79 347.5 329t330.5 341q-102 4 -294.5 18.5t-239.5 16.5q-24 1 -36.5 18.5t-12.5 40.5q0 35 23.5 72t53.5 37q21 0 77 -27.5t85 -29.5q359 -27 439 -27q11 0 33.5 9t35.5 9q11 0 25 -30t14 -58q0 -11 -26.5 -41.5t-116.5 -122.5
l-592 -602q-38 -38 -47.5 -50t-9.5 -23q0 -37 169 -105t391 -122t353 -54q87 0 131 31q40 28 66 28q12 0 27.5 -8.5t15.5 -19.5q0 -17 -61 -89.5t-87 -72.5q-21 0 -142 18t-296.5 53t-342 79t-284 105t-117.5 122z" />
    <glyph glyph-name="bracketleft" unicode="[" horiz-adv-x="681" 
d="M262 346v412q0 26 2 88t2 104q0 67 -5 172t-5 135q0 52 33 52q49 0 152 12t139 12q7 0 13.5 -15.5t6.5 -25.5q0 -13 -14 -16q-73 -15 -156 -53q-18 -8 -20 -41q-29 -412 -29 -598q0 -76 6 -229t6 -214q0 -43 -2 -100.5t-2 -69.5q0 -7 -8 -15t-8 -13q0 -12 14 -15l125 -12
q48 -4 61 -12.5t13 -32.5q0 -27 -7.5 -35t-27.5 -8t-142.5 7.5t-144.5 10.5q-11 1 -17.5 7.5t-6.5 13.5q0 5 4 18.5t4 24.5q0 72 7 220t7 216z" />
    <glyph glyph-name="backslash" unicode="\" horiz-adv-x="681" 
d="M680 -70h-105l-573 1270h104z" />
    <glyph glyph-name="bracketright" unicode="]" horiz-adv-x="681" 
d="M420 815v-412q0 -26 -2 -88t-2 -104q0 -67 5 -172t5 -135q0 -51 -33 -51q-49 0 -152 -12.5t-139 -12.5q-7 0 -13.5 15.5t-6.5 25.5q0 13 14 16q69 15 156 54q18 8 20 41q29 412 29 598q0 76 -6 228.5t-6 213.5q0 43 2 100.5t2 69.5q0 8 8 16t8 13q0 11 -14 14l-125 12
q-48 4 -61 12.5t-13 32.5q0 27 7.5 35t27.5 8t142.5 -7.5t144.5 -10.5q11 -1 17.5 -7.5t6.5 -13.5q0 -5 -4 -18.5t-4 -24.5q0 -72 -7 -220t-7 -216z" />
    <glyph glyph-name="asciicircum" unicode="^" horiz-adv-x="1044" 
d="M952 334h-94l-340 717l-338 -717h-92l387 801h90z" />
    <glyph glyph-name="underscore" unicode="_" horiz-adv-x="1024" 
d="M1024 -256h-1024v102h1024v-102z" />
    <glyph glyph-name="grave" unicode="`" 
d="M137 1460q0 19 24.5 45.5t41.5 26.5q55 0 65 -31q28 -86 82 -143q13 -14 25.5 -28t20 -22t14.5 -16l10.5 -12t6.5 -8t4 -6t1 -4q0 -8 -23 -14.5t-34 -6.5q-24 0 -82 42.5t-107 96t-49 80.5z" />
    <glyph glyph-name="a" unicode="a" horiz-adv-x="1366" 
d="M563 432q-102 0 -128 -9.5t-44 -55.5q-14 -38 -72 -153t-63 -140q-10 -57 -39 -60q-21 -2 -64 -5.5t-74 -6t-36 -2.5q-9 0 -14.5 11t-5.5 22q0 28 5 38t19 13q84 20 115 106q3 9 109 201t202 397.5t96 286.5q0 7 -13 43t-13 43q0 20 43 46t67 26q13 0 38.5 -26t41.5 -60
q18 -37 87 -186t127 -264t128 -238q55 -96 102.5 -171t75.5 -113t48 -63t28 -34.5t8 -14.5q0 -36 -47 -36q-23 0 -81 9t-79 15q-32 8 -51 74q-12 42 -67.5 153t-73.5 119q-36 19 -155.5 27t-219.5 8zM514 526h371l-162 318q-13 23 -23.5 50.5t-16 37.5t-13.5 10
q-7 0 -14 -14t-14.5 -39t-12.5 -35l-107 -217q-43 -85 -43 -96q0 -15 35 -15z" />
    <glyph glyph-name="b" unicode="b" horiz-adv-x="1099" 
d="M297 641q0 162 -4 232.5t-12.5 92.5t-30.5 35q-4 2 -11.5 6t-11 6t-9.5 5.5t-8.5 5.5t-6.5 5t-6 5.5t-4 6t-2.5 7t-0.5 7.5q0 12 12.5 23.5t73 45.5t187.5 97q24 12 76 12q156 0 236.5 -45.5t80.5 -151.5q0 -58 -8 -94t-36.5 -73.5t-76 -71.5t-133.5 -82
q42 -14 94.5 -47.5t103 -78t84.5 -101.5t34 -109q0 -69 -52.5 -133t-127 -107t-155.5 -76t-138.5 -48t-75.5 -15q-93 0 -124.5 8.5t-31.5 32.5q0 11 22 37.5t25 44.5q12 69 24.5 223.5t12.5 294.5zM424 1073v-321q31 -31 51 -31q29 0 85 46.5t102.5 113.5t46.5 116
q0 59 -55 106.5t-144 47.5q-86 0 -86 -78zM403 309q0 -62 1 -92t5.5 -48.5t10.5 -22t20 -3.5q41 0 94 12t107.5 35.5t91.5 65.5t37 94q0 69 -91.5 154.5t-184.5 120.5q-47 -15 -66 -37q-25 -28 -25 -279z" />
    <glyph glyph-name="c" unicode="c" horiz-adv-x="1214" 
d="M213 492q0 123 25.5 226.5t67 175t99.5 127.5t118.5 89.5t128.5 55t124 29t111 7.5q78 0 129 -31t51 -65q0 -25 -42.5 -63.5t-68.5 -38.5q-10 0 -23 14.5t-26 31.5t-38 31.5t-56 14.5q-81 0 -150 -25.5t-115.5 -65.5t-83 -94t-58 -108t-35 -110t-18.5 -96t-5 -71
q0 -48 16.5 -105.5t48.5 -114.5t74.5 -103.5t100 -75.5t119.5 -29q69 0 135 26t106.5 57t77 57t51.5 26q20 0 31.5 -12t11.5 -31q0 -20 -53 -75.5t-115 -90.5q-41 -24 -131.5 -43.5t-171.5 -19.5q-50 0 -105 15.5t-115 53t-107 92.5t-78 143.5t-31 195.5z" />
    <glyph glyph-name="d" unicode="d" horiz-adv-x="1327" 
d="M485 -25q-16 0 -44 4.5t-31 4.5l-115 16q-37 5 -51.5 12t-14.5 23q0 14 9 25.5t20.5 21t22 35t12.5 63.5q14 284 14 492q0 86 -11 196.5t-24 171.5q-3 15 -16.5 21.5t-27 6t-24.5 7.5t-11 27q0 29 14.5 40.5t68.5 26.5l144 41q85 23 115 23q12 0 38.5 -2.5t80.5 -14
t107 -30.5t112.5 -57.5t104 -88.5t74 -129.5t29.5 -175.5q0 -212 -28 -330.5t-101 -220.5q-39 -55 -147.5 -106.5t-199.5 -77t-120 -25.5zM434 1083v-579q0 -53 -1 -152t-1 -139q0 -74 15.5 -96.5t54.5 -22.5q80 0 142.5 15t118.5 55t92.5 104.5t57.5 167t21 240.5
q0 97 -30 177.5t-74 129t-96 82.5t-92.5 47.5t-66.5 13.5q-33 0 -73.5 -13t-67.5 -30z" />
    <glyph glyph-name="e" unicode="e" horiz-adv-x="985" 
d="M469 655h276q39 0 39 -24q0 -14 -38.5 -47.5t-57.5 -34.5q-76 -6 -311 -12q0 -247 97.5 -370.5t305.5 -123.5q45 0 60.5 -8.5t15.5 -34.5q0 -21 -33.5 -36t-105.5 -15q-97 0 -174.5 20t-128.5 51t-88 79t-57 94t-31 107.5t-14 106.5t-3 103q0 159 25 284.5t66.5 206.5
t99.5 134.5t121 75.5t135 22q84 0 115.5 -13.5t31.5 -48.5q0 -21 -10.5 -33t-28.5 -12h-121q-42 0 -77 -12.5t-70 -46.5t-60.5 -89t-44.5 -145t-26 -210q41 32 92 32z" />
    <glyph glyph-name="f" unicode="f" horiz-adv-x="1099" 
d="M420 467v-428q0 -60 -12 -135.5t-37 -75.5q-23 0 -52.5 18.5t-29.5 36.5q0 15 3 60t6 153.5t3 278.5q0 48 -14.5 91.5t-14.5 68.5q0 21 9.5 60.5t9.5 63.5q0 59 -23 295q-57 81 -57 127q0 23 47 68t74 45q12 0 58.5 -5t90.5 -5q101 0 286 9t200 9q22 0 22 -20
q0 -16 -18 -43.5t-35 -30.5q-72 -13 -258 -31.5t-219 -23.5q-10 -2 -15.5 -11.5t-9.5 -42.5q-8 -80 -8 -297q0 -17 1 -51.5t1 -52.5h162q80 0 188.5 11.5t132.5 11.5q39 0 39 -37q0 -31 -14 -50.5t-35 -19.5q-69 0 -240.5 -17t-240.5 -30z" />
    <glyph glyph-name="g" unicode="g" horiz-adv-x="1290" 
d="M924 272l16 123q3 19 19 27t59 8q15 0 21.5 -3t12 -22t6.5 -53t1 -102q0 -104 9 -223.5t9 -145.5q0 -29 -12 -41t-47 -12q-24 0 -37.5 31t-30.5 135q-4 31 -18 43t-43 12q-5 0 -81 -12t-122 -12q-107 0 -192.5 35.5t-136.5 88.5t-85 122t-46.5 129t-12.5 116
q0 103 24.5 200.5t78 186t131 155t191 105.5t249.5 39q239 0 239 -106q0 -29 -38.5 -55.5t-61.5 -26.5q-13 0 -29 11.5t-61 53.5q-31 29 -84 29q-77 0 -153 -39.5t-135.5 -105t-106.5 -146t-72 -167.5t-25 -165q0 -86 16 -150t43 -102.5t67.5 -61.5t83 -31.5t96.5 -8.5
q103 0 177 45t81 96z" />
    <glyph glyph-name="h" unicode="h" horiz-adv-x="1441" 
d="M410 444v-348q0 -96 -93 -96q-22 0 -30 12t-8 39q0 67 6 222.5t6 242.5q0 247 -8 451q-1 28 -23 51t-43.5 41.5t-21.5 34.5q0 18 36 54t76 36q39 0 97.5 -27.5t58.5 -46.5q0 -8 -16 -53.5t-17 -83.5q0 -159 -6 -309h545q4 110 4 196q0 54 -6 131t-6 88q0 26 64 47t108 21
q19 0 30 -8t11 -21q0 -8 -19 -42t-27 -85q-20 -120 -20 -325q46 4 68 4q19 0 26.5 -6t7.5 -25q0 -23 -13.5 -52.5t-35.5 -29.5q-3 0 -14 2t-19 2q-20 0 -20 -24l-4 -404q0 -29 -19.5 -67.5t-44.5 -38.5q-30 0 -41 10.5t-12 42.5l-20 477q-121 0 -306.5 -11.5t-240.5 -25.5
q-10 -29 -10 -76z" />
    <glyph glyph-name="i" unicode="i" horiz-adv-x="681" 
d="M274 633q0 81 -3 170t-3 115q0 63 -16 81q-35 40 -35 74q0 26 62 77.5t90 51.5q23 0 51.5 -17.5t28.5 -29.5q0 -16 -10 -52t-11 -59q-18 -272 -18 -882q0 -118 -15.5 -161.5t-50.5 -43.5q-26 0 -37 12.5t-20 85t-11 197.5t-2 381z" />
    <glyph glyph-name="j" unicode="j" horiz-adv-x="681" 
d="M438 809v-330q0 -139 -22 -254.5t-56 -190t-78.5 -131.5t-85.5 -86.5t-81 -48t-61.5 -23.5t-30.5 -5q-26 0 -60.5 43.5t-34.5 73.5q0 16 7.5 23t27.5 7q9 0 41 -2t64 -2q88 0 161.5 113t73.5 301q0 411 -7.5 563t-31.5 225q-5 15 -16 23t-21 10.5t-18 11t-8 25.5
q0 23 76.5 79t107.5 56q18 0 33.5 -16.5t15.5 -40.5q0 -32 2 -179t2 -245z" />
    <glyph glyph-name="k" unicode="k" horiz-adv-x="1630" 
d="M391 752l51 -19l437 342q37 29 65 56.5t38 41.5t21.5 22.5t24.5 8.5q6 0 14 -3t26 -12t32 -15q13 -6 27 -34t14 -46q0 -26 -39 -31q-40 -6 -252 -151.5t-287 -213.5q12 -7 184 -117.5t370 -229t353 -195.5q21 -10 61 -17t65.5 -14.5t25.5 -22.5q0 -23 -56 -78t-83 -55
q-6 0 -11 1t-11.5 3.5t-11 5t-13 8t-14 9.5t-18 12.5t-20.5 14.5q-322 224 -548 367.5t-321 193t-124 49.5q0 -73 3 -277.5t3 -249.5q0 -25 -43.5 -65.5t-66.5 -40.5q-15 0 -21 17.5t-6 72.5q0 8 5 184.5t5 307.5q0 192 -22 493q-2 23 -15 38.5t-25.5 24t-12.5 15.5
q0 13 10 23q79 61 98.5 74.5t28.5 13.5q14 0 52 -30t38 -52q0 -26 -15.5 -183t-15.5 -247z" />
    <glyph glyph-name="l" unicode="l" horiz-adv-x="1062" 
d="M481 123l371 14q20 1 57.5 19t51.5 18q34 0 34 -27q0 -21 -21 -84t-42 -63t-80 20q-27 9 -223 9q-204 0 -234 -15q-28 -14 -63 -14q-22 0 -50 44t-28 60q0 9 20 38.5t21 60.5q4 88 4 479q0 112 -6.5 199t-15.5 134t-18.5 77.5t-16 46t-6.5 22.5q0 21 64 70t87 49
t47.5 -14t24.5 -35q0 -11 -8.5 -45.5t-8.5 -55.5q0 -63 -6 -183t-6 -175q0 -36 2 -107t2 -118q0 -101 -12 -254t-12 -162q0 -16 24 -16q6 0 22 4t25 4z" />
    <glyph glyph-name="m" unicode="m" horiz-adv-x="2390" 
d="M748 461l-207 219q-36 -126 -83 -275.5t-75.5 -242.5t-38.5 -139q-8 -36 -23 -45t-73 -9q-27 0 -60.5 28t-33.5 46q0 28 45 78q66 72 136.5 267t70.5 300q0 77 -22.5 148t-55 120.5t-65 89.5t-55 71t-22.5 50q0 17 40 26t77 9q30 0 87.5 -68t211.5 -292q74 -109 191 -238
t253 -234.5t218 -105.5q67 0 154 33.5t179 98t175 148t149 195t94 228.5q22 92 47 92q22 0 57 -14.5t35 -36.5q0 -12 -14 -84.5t-27.5 -196t-13.5 -256.5q0 -67 17.5 -133.5t39 -108.5t39 -81t17.5 -58q0 -16 -47.5 -40.5t-73.5 -24.5q-44 0 -57 122q-10 90 -30.5 229.5
t-31.5 192.5l-127 -114q-146 -132 -304 -208.5t-298 -76.5q-115 0 -226.5 62t-268.5 229z" />
    <glyph glyph-name="n" unicode="n" horiz-adv-x="1896" 
d="M373 629q0 95 -26 163.5t-85 131.5q-102 111 -129 145t-27 53q0 20 28.5 42t64.5 22q9 0 20 -7t52 -43t116 -108q323 -311 563 -488t559 -343q17 169 17 276q0 143 -13 477q-1 38 -11.5 66t-21.5 41t-20.5 28t-9.5 29q0 31 51 48.5t98 17.5q68 0 68 -41q0 -3 -8.5 -58.5
t-17.5 -221.5t-9 -437q0 -108 11.5 -213.5t11.5 -130.5q0 -47 -49 -78t-86 -31q-14 0 -27 28.5t-36 68t-58 59.5q-468 269 -627.5 375t-279.5 219q0 -3 -19.5 -263.5t-42.5 -377.5q-9 -44 -31.5 -69t-48.5 -25q-25 0 -55.5 18t-30.5 41q0 15 17 64t37.5 110t37.5 173.5
t17 238.5z" />
    <glyph glyph-name="o" unicode="o" horiz-adv-x="1290" 
d="M180 559q0 83 18 164t59 158.5t100 136.5t149 95t199 36q84 0 156 -32.5t128.5 -97t88.5 -171t32 -244.5q0 -131 -42 -239t-112.5 -177t-159 -106t-184.5 -37q-79 0 -155 33.5t-138.5 95.5t-100.5 162t-38 223zM328 592q0 -28 6.5 -65.5t20.5 -86t40.5 -94t62 -84.5
t89.5 -62.5t119 -23.5q38 0 76.5 10t81.5 38t75.5 71t54 117t21.5 168q0 121 -25.5 211t-70 140.5t-98 74.5t-115.5 24q-104 0 -182 -61t-117 -159t-39 -218z" />
    <glyph glyph-name="p" unicode="p" horiz-adv-x="1062" 
d="M281 141v305q0 405 -21 566q-4 30 -22 39q-31 15 -31 36q0 34 58.5 69.5t126.5 56t108 20.5q131 0 252 -51q53 -23 101 -97t48 -129q0 -143 -35 -196q-44 -68 -123.5 -144.5t-113.5 -76.5q-31 0 -84 26.5t-53 40.5q0 21 49 31q95 20 154 85t59 146q0 35 -8 75.5t-25 83.5
t-50.5 71t-78.5 28q-83 0 -162 -49q-22 -207 -22 -379v-540q0 -115 -26.5 -168t-88.5 -53q-35 0 -35 30q0 7 6 24t11.5 54.5t5.5 95.5z" />
    <glyph glyph-name="q" unicode="q" horiz-adv-x="1402" 
d="M1190 811q0 -73 -18 -143.5t-47.5 -125.5t-65.5 -104t-72 -83.5t-67.5 -60t-52 -38t-25.5 -12.5q-23 0 -58.5 8.5t-35.5 28.5q0 6 6 10.5t37 25.5q72 48 122 104.5t75.5 117t35.5 115t10 116.5q0 141 -75 236.5t-209 95.5q-45 0 -100 -16.5t-114.5 -52.5t-108.5 -86
t-80.5 -124t-31.5 -159q0 -33 9.5 -73t36 -96.5t68 -114.5t112.5 -124.5t161 -128t222 -125t288 -115.5q129 -43 190 -54t154 -11q129 0 191 20q18 6 29 6q15 0 22.5 -9t7.5 -19q0 -8 -10.5 -24t-26.5 -25l-98 -62q-30 -18 -55 -18q-134 0 -480 112t-520 215
q-137 82 -238.5 191.5t-149.5 214t-48 192.5q0 104 44.5 212.5t118 195t176 142t210.5 55.5q109 0 194.5 -33t134 -80.5t80 -107t42 -105.5t10.5 -84z" />
    <glyph glyph-name="r" unicode="r" horiz-adv-x="1138" 
d="M621 1264q121 0 186 -77t65 -200q0 -120 -49.5 -199t-113.5 -108l-146 -66v-4q48 -7 68 -32q63 -78 133.5 -154t124.5 -127t99.5 -92.5t70 -65t24.5 -30.5q0 -28 -26 -54l-7 -7l-6 -6l-5.5 -5.5l-5 -5t-4 -3.5t-4 -3t-3.5 -2t-4 -1.5l-4 -1t-4 -0.5h-33q-33 0 -59 31
q-12 14 -40 48t-63.5 75.5t-77.5 87.5l-221 240q-32 37 -90 37q-4 -86 -4 -162v-334q0 -43 -39 -43q-35 0 -92.5 24t-57.5 50q0 16 39 65q13 18 20 180t7 275q0 289 -12 407q-1 13 -10.5 20.5t-19.5 10.5t-18 13.5t-8 29.5q0 34 27 53q92 65 199.5 100.5t163.5 35.5z
M426 762v-88q6 -17 37 -17q10 0 49 21t88 56.5t87 96t38 127.5q0 96 -38.5 141.5t-100.5 45.5q-37 0 -75 -17.5t-60 -48.5q-10 -38 -17.5 -133t-7.5 -184z" />
    <glyph glyph-name="s" unicode="s" horiz-adv-x="796" 
d="M166 84q0 21 9 31t20 10q15 0 67.5 -19.5t95.5 -19.5q53 0 88 37t35 84q0 55 -40.5 153.5t-89.5 189.5t-89.5 189t-40.5 152q0 28 17.5 75.5t50 101.5t72.5 102t92 80t102 32q45 0 104.5 -15.5t59.5 -43.5q0 -41 -16 -54t-72 -14q-128 -3 -191 -60.5t-63 -146.5
q0 -47 35 -134.5t76.5 -173t76.5 -193t35 -189.5q0 -17 -6 -49.5t-23.5 -79.5t-43 -87.5t-70 -69.5t-99.5 -29q-40 0 -105.5 23t-72.5 44q-14 44 -14 74z" />
    <glyph glyph-name="t" unicode="t" horiz-adv-x="1024" 
d="M395 1026h-233q-12 0 -38 -2t-40 -2q-23 0 -36 24t-13 54q0 15 22 38t39 23q8 0 126.5 -8t254.5 -8q75 0 225.5 8t225.5 8q30 0 30 -28q0 -17 -32.5 -50t-59.5 -36q-75 -7 -297 -13q-41 -240 -41 -753q0 -35 8.5 -65t27 -57.5t55.5 -43t88 -15.5q9 0 35 3t32 3
q21 0 21 -43q0 -31 -19 -47q-22 -19 -62 -33t-71 -14q-113 0 -188.5 79t-75.5 161q0 16 7.5 71.5t15.5 156.5t8 229q0 211 -15 360z" />
    <glyph glyph-name="u" unicode="u" horiz-adv-x="1857" 
d="M43 1075q0 40 47 60q20 9 67.5 19.5t69.5 10.5q39 0 39 -51q0 -15 -5 -72t-5 -94q0 -55 47.5 -148.5t128.5 -195.5t175.5 -193t201 -150.5t192.5 -59.5q100 0 189 46.5t151 121t111 163t77.5 178t43 159.5t14.5 114v42.5t1.5 34t4.5 29.5t8.5 19.5t14 14t20.5 3.5
q25 0 109 -41q20 -10 27.5 -20.5t7.5 -32.5q0 -12 -14 -57.5t-40 -117t-67.5 -157t-92.5 -175.5t-120 -173.5t-145 -149.5t-172 -105.5t-197 -39.5q-78 0 -178 58.5t-196.5 150.5t-191 207.5t-165.5 227.5t-114.5 212.5t-43.5 161.5z" />
    <glyph glyph-name="v" unicode="v" horiz-adv-x="1744" 
d="M4 1112q0 30 72 75.5t98 45.5q35 0 35 -43q0 -46 110 -186.5t246 -289t278 -306.5t185 -218q51 40 130.5 138.5t160.5 222.5t144 266.5t73 249.5q3 32 11.5 42.5t27.5 10.5q33 0 96.5 -32t63.5 -56q0 -43 -165 -298.5t-345 -494.5t-217 -239q-16 0 -45 18.5t-29 32.5
q0 19 -17.5 45t-80.5 103q-175 216 -329 387t-241 255t-151 143t-87.5 84t-23.5 44z" />
    <glyph glyph-name="w" unicode="w" horiz-adv-x="1933" 
d="M31 1126q0 22 64.5 64.5t90.5 42.5q37 0 37 -35q0 -87 149 -460.5t230 -524.5q10 15 74.5 112t116.5 175.5t107 171t73 137.5q14 36 25 47.5t26 11.5q17 0 46.5 -11t29.5 -23q0 -42 63.5 -206t182.5 -395q28 69 133 272t190.5 374t85.5 204q0 35 9.5 48.5t29.5 13.5
q22 0 75.5 -35.5t53.5 -50.5q0 -16 -15 -41t-67 -104.5t-108 -176.5q-127 -219 -230.5 -429t-111.5 -261q-3 -22 -12 -34.5t-21 -12.5q-100 0 -113 49q-38 137 -107.5 310t-131.5 231q-115 -138 -237 -315t-130 -238q-3 -20 -48 -36.5t-75 -16.5q-21 0 -30 11.5t-9 43.5
q0 170 -358 919q-19 39 -42.5 76.5t-34.5 57t-11 34.5z" />
    <glyph glyph-name="x" unicode="x" horiz-adv-x="1290" 
d="M186 37q0 22 37 41q118 62 387 366q-219 164 -376 290t-238.5 197.5t-127 123t-55.5 72t-10 38.5q0 27 61.5 47.5t112.5 20.5q48 0 62 -13.5t14 -56.5q0 -50 41.5 -104.5t174.5 -170.5t427 -349q128 141 251.5 307.5t123.5 216.5q0 47 215 47q45 0 45 -31q0 -11 -17 -31
t-44 -40q-23 -16 -223 -225.5t-279 -301.5l139 -106q147 -113 266 -183.5t148 -74.5q34 -5 42.5 -8t8.5 -13q0 -30 -51 -71t-78 -41q-31 0 -227 149l-332 254q-72 -81 -134 -158t-94 -120.5t-58.5 -78t-42.5 -48t-31 -13.5q-26 0 -82 22.5t-56 45.5z" />
    <glyph glyph-name="y" unicode="y" horiz-adv-x="1744" 
d="M1567 1098q0 6 -2 17.5t-2 17.5q0 24 26 24q31 0 88.5 -22.5t57.5 -42.5q0 -30 -86 -168.5t-221.5 -341.5t-180.5 -275q-30 -48 -43.5 -113t-13.5 -198q0 -16 2 -52.5t2 -56.5q0 -26 -66 -42.5t-98 -16.5q-16 0 -16 22t12 50t24.5 71.5t12.5 104.5q0 46 -8 78t-45 85.5
t-97.5 111.5t-182.5 161t-281.5 228t-411.5 319q-35 26 -35 76q0 21 49 59.5t94 38.5q10 0 16.5 -10t11 -23.5t14.5 -32t24 -32.5q187 -178 413.5 -368.5t348.5 -297t157 -170.5q43 90 200 346.5t196 323.5q41 72 41 129z" />
    <glyph glyph-name="z" unicode="z" horiz-adv-x="1402" 
d="M59 205q0 50 18 80.5t70 74.5q94 79 347.5 329t330.5 341q-102 4 -294.5 18.5t-239.5 16.5q-24 1 -36.5 18.5t-12.5 40.5q0 35 23.5 72t53.5 37q21 0 77 -27.5t85 -29.5q359 -27 439 -27q11 0 33.5 9t35.5 9q11 0 25 -30t14 -58q0 -11 -26.5 -41.5t-116.5 -122.5
l-592 -602q-38 -38 -47.5 -50t-9.5 -23q0 -37 169 -105t391 -122t353 -54q87 0 131 31q40 28 66 28q12 0 27.5 -8.5t15.5 -19.5q0 -17 -61 -89.5t-87 -72.5q-21 0 -142 18t-296.5 53t-342 79t-284 105t-117.5 122z" />
    <glyph glyph-name="braceleft" unicode="{" horiz-adv-x="681" 
d="M154 539v82q77 0 114 68t37 171v270q0 93 52.5 148t138.5 55h112v-82h-98q-42 0 -64 -44.5t-22 -110.5v-269q1 -59 -17.5 -107t-46 -75.5t-50 -42.5t-38.5 -20v-4q16 -5 38.5 -20t50 -43t46 -77.5t17.5 -109.5v-262q0 -65 22 -110.5t64 -45.5h98v-82h-112
q-86 0 -138.5 54t-52.5 147v268q0 67 -14.5 119t-49.5 87t-87 36z" />
    <glyph glyph-name="bar" unicode="|" horiz-adv-x="518" 
d="M207 1358h102v-1811h-102v1811z" />
    <glyph glyph-name="braceright" unicode="}" horiz-adv-x="681" 
d="M74 -172v82h98q42 0 64 45t22 111v268q-1 59 17.5 107t46 76t50 43t38.5 20v4q-16 5 -38.5 20t-50 43t-46 77.5t-17.5 109.5v262q0 65 -22 110t-64 45h-98v82h112q86 0 138.5 -53.5t52.5 -146.5v-269q0 -67 14.5 -119t49.5 -86.5t87 -35.5v-82q-77 0 -114 -68.5
t-37 -171.5v-270q0 -93 -52.5 -148t-138.5 -55h-112z" />
    <glyph glyph-name="asciitilde" unicode="~" horiz-adv-x="1161" 
d="M1008 545l53 -53q-104 -166 -260 -166q-42 0 -84.5 12t-67.5 24t-92 46q-120 61 -195 61q-64 0 -111.5 -36.5t-98.5 -102.5l-56 51q48 80 121.5 125t159.5 45q34 0 69.5 -9t55.5 -18t56 -27.5t46 -23.5q6 -3 29 -15t29.5 -14.5t25 -11t28 -11t25.5 -6.5t30.5 -5.5
t31.5 -1.5q64 0 111.5 32t93.5 105z" />
    <glyph glyph-name="uni00A0" unicode="&#xa0;" 
 />
    <glyph glyph-name="exclamdown" unicode="&#xa1;" horiz-adv-x="645" 
d="M229 -96q0 23 10.5 89t21.5 210t11 356q0 9 -1 35.5t-1 42.5q0 25 25 25q19 0 57.5 -32.5t38.5 -47.5q0 -58 4 -176t4 -177q0 -25 -1 -74t-1 -73q0 -49 22.5 -102.5t22.5 -59.5q0 -9 -11.5 -23t-24.5 -22l-58 -37q-20 -10 -31 -10q-13 0 -50.5 29.5t-37.5 46.5zM203 930
q0 34 35.5 74t78.5 40q32 0 71.5 -31.5t39.5 -47.5q0 -37 -46.5 -85.5t-64.5 -48.5q-28 0 -71 35.5t-43 63.5z" />
    <glyph glyph-name="cent" unicode="&#xa2;" horiz-adv-x="1024" 
d="M578 418l-66 -307q66 -17 94 -17q54 0 140 41t112 41q21 0 21 -14q0 -16 -17 -50t-33 -42q-42 -24 -143 -47t-143 -23q-33 0 -60 6q-26 -108 -39 -207q-3 -24 -11.5 -40.5t-18.5 -16.5q-8 0 -22.5 28t-14.5 46q0 13 6.5 37.5t19.5 71t23 87.5q-121 64 -180 124.5
t-80 135.5t-21 207q0 86 61.5 179.5t135.5 156.5q37 31 123.5 57.5t152.5 26.5q11 53 29 118.5t27 82.5q8 17 44 37t50 20q25 0 25 -24q0 -6 -5.5 -16.5t-16.5 -33.5t-21 -51l-43 -125q100 -4 136 -14.5t36 -32.5t-26 -72.5t-40 -50.5q-5 0 -23 10t-49.5 24.5t-64.5 23.5
q-25 -78 -55 -197zM451 127l145 678q-44 -2 -94 -21.5t-76 -50.5q-57 -65 -95 -187.5t-38 -201.5q0 -64 42 -129t116 -88z" />
    <glyph glyph-name="sterling" unicode="&#xa3;" horiz-adv-x="1099" 
d="M571 842l-49 -160h271q21 0 29.5 -6.5t8.5 -24.5q0 -25 -38.5 -44t-79.5 -19l-215 -4l-74 -213q-33 -95 -33 -121q0 -34 7 -57t17.5 -33t19 -13.5t16.5 -3.5q37 0 75.5 16.5t55.5 16.5q47 0 164.5 -26.5t130.5 -26.5q29 0 55.5 11t30.5 11q10 0 20 -15t10 -26
q0 -17 -74 -60.5t-116 -43.5q-63 0 -167 37t-153 37q-22 0 -49.5 -11.5t-54 -25.5t-76.5 -25.5t-110 -11.5q-21 0 -44.5 38t-23.5 56q0 10 22 25.5t93 54.5q18 10 24.5 20.5t11.5 32.5q53 237 95 363q-106 0 -148 -29q-13 -10 -33 -10q-16 0 -32.5 33.5t-16.5 58.5
q0 24 30 33.5t108 9.5q20 0 59 -1t57 -1q60 237 88.5 319.5t59.5 106.5q112 85 152.5 104t101.5 19q40 0 92.5 -23t86.5 -48t34 -36q0 -15 -7.5 -29t-17.5 -14q-5 0 -65 15.5t-134 15.5q-47 0 -71 -16.5t-80 -85.5q-17 -20 -64 -170z" />
    <glyph glyph-name="currency" unicode="&#xa4;" horiz-adv-x="1257" 
d="M1047 207l-68 -66l-129 146q-95 -78 -227 -78q-140 0 -226 72l-127 -140l-65 66l131 129q-96 109 -96 256q0 69 26 138.5t70 111.5l-131 129l65 63l127 -143q46 41 109 61.5t117 20.5q144 0 233 -80l127 141l64 -63l-132 -127q44 -42 70.5 -112.5t26.5 -139.5
q0 -65 -29.5 -137.5t-71.5 -116.5zM625 887h-2q-115 0 -196 -83t-81 -212q0 -132 80.5 -215.5t198.5 -83.5q117 0 198.5 84t81.5 215q0 129 -81.5 212t-198.5 83z" />
    <glyph glyph-name="yen" unicode="&#xa5;" horiz-adv-x="1062" 
d="M82 1182l84 39q24 12 47 12q15 0 27 -21q154 -268 284 -548q180 283 219 366q22 46 37.5 95t24 68.5t22.5 23.5l144 38q18 9 39 9q43 0 43 -33q0 -28 -29 -57q-47 -47 -174.5 -212.5t-206.5 -277.5q12 0 42 -1t50 -1q19 0 55 1t44 1q21 0 32 -9t11 -22q0 -29 -70 -47
t-156 -18q-51 0 -69 2q0 -20 1 -55t1 -52q126 0 204 -2q39 -1 58.5 -4.5t25 -8t5.5 -13.5q0 -17 -62 -54q-21 -12 -61 -12q-121 0 -168 -2q0 -166 -4 -260q-3 -93 -15 -129.5t-49 -36.5q-23 0 -39 20t-18 48q-10 212 -10 362q-23 2 -68 2q-63 0 -96 -20q-25 -15 -47 -15
q-19 0 -32 35.5t-13 52.5q0 10 19 20.5t38 12.5q41 4 199 4q-1 18 -2.5 54.5t-2.5 52.5q-36 4 -57 4q-41 0 -93.5 -20.5t-64.5 -20.5q-17 0 -29 30.5t-12 59.5q0 22 28 32.5t112 10.5q15 0 34.5 -1t26.5 -1q-50 57 -311 449q-17 25 -17 30q0 11 19 19z" />
    <glyph glyph-name="brokenbar" unicode="&#xa6;" horiz-adv-x="518" 
d="M207 1221h100v-633h-100v633zM207 315h100v-630h-100v630z" />
    <glyph glyph-name="section" unicode="&#xa7;" horiz-adv-x="909" 
d="M309 645q0 -54 95 -203.5t161 -222.5q107 -121 107 -209q0 -33 -21 -73.5t-57 -71.5q-38 -33 -138.5 -60.5t-156.5 -27.5q-74 0 -91.5 15.5t-17.5 80.5q0 37 10.5 53.5t35.5 16.5q13 0 25 -9.5t20.5 -20.5t27.5 -20.5t45 -9.5q71 0 120.5 34t49.5 85q0 73 -63 154
l-246 319q-30 38 -41.5 64t-11.5 59q0 19 7 37.5t36 81.5q10 23 33 39q48 35 102 47q-80 48 -113.5 92t-33.5 104q0 115 229 218q37 16 94 16q33 0 89.5 -12t96.5 -35q11 -6 15 -17t4 -39q0 -12 -22 -30.5t-37 -18.5q-21 0 -48 19q-36 26 -71 26q-56 0 -95.5 -14t-56.5 -35
t-24 -38t-7 -31q0 -44 29 -78q45 -53 105 -104t190 -148q90 -67 90 -152q0 -43 -27 -89.5t-62 -79.5t-66 -54.5t-41 -21.5q-48 0 -48 16q0 8 24 31.5t48.5 57t24.5 65.5q0 69 -47 128t-213 201q-23 -24 -40.5 -64t-17.5 -71z" />
    <glyph glyph-name="dieresis" unicode="&#xa8;" 
d="M-12 1364q0 34 32 84.5t62 50.5q21 0 59.5 -40.5t38.5 -63.5q0 -18 -15.5 -37t-66.5 -53q-17 -11 -39 -11q-14 0 -42.5 27.5t-28.5 42.5zM377 1411q0 14 45 45t61 31q19 0 59 -41t40 -60q0 -16 -24 -54t-38 -38q-53 0 -98 42t-45 75z" />
    <glyph glyph-name="copyright" unicode="&#xa9;" horiz-adv-x="1638" 
d="M1057 485h106q-28 -125 -115 -199.5t-208 -74.5q-174 0 -281.5 115t-107.5 290q0 178 103 291t280 113q129 0 220 -71t109 -197h-106q-16 73 -76.5 123.5t-144.5 50.5q-122 0 -200.5 -93t-78.5 -215q0 -121 81.5 -217t201.5 -96q83 0 143 53.5t74 126.5zM172 616
q0 132 51 252t137.5 206.5t206.5 138t252 51.5t252 -51.5t206.5 -138t137.5 -206.5t51 -252q0 -176 -86.5 -325t-235.5 -235.5t-325 -86.5t-325 86.5t-235.5 235.5t-86.5 325zM291 616q0 -235 150 -387.5t378 -152.5t378.5 152.5t150.5 387.5t-150.5 388t-378.5 153
t-378 -153t-150 -388z" />
    <glyph glyph-name="ordfeminine" unicode="&#xaa;" horiz-adv-x="911" 
d="M379 655q-60 0 -79 -7.5t-28 -35.5q-6 -19 -40 -92t-37 -90q-7 -34 -23 -37q-55 -10 -115 -10q-20 0 -20 20q0 29 8 31q28 9 46 24.5t28 47.5q2 7 66 131.5t122 257.5t58 186q0 5 -8.5 29t-8.5 29q0 14 29.5 29.5t58.5 15.5q15 0 34.5 -16.5t29.5 -39.5q10 -21 79.5 -181
t125.5 -265q33 -62 61.5 -111t45.5 -73.5t29 -41t16.5 -22.5t4.5 -10q0 -25 -37 -25q-38 0 -106 17q-10 3 -19 16t-12 25q-9 29 -41.5 99.5t-42.5 76.5q-40 22 -225 22zM350 725h221l-96 207q-5 10 -9.5 21.5t-7 18t-5 12.5t-5.5 8.5t-6 2.5q-4 0 -8 -9t-8.5 -25.5
t-7.5 -22.5l-64 -141q-26 -56 -26 -62q0 -10 22 -10z" />
    <glyph glyph-name="guillemotleft" unicode="&#xab;" horiz-adv-x="985" 
d="M98 598q0 25 46 86t92 107q65 65 120.5 109t73.5 44q15 0 27 -11t12 -26q0 -18 -12 -33l-144 -202q-22 -32 -22 -64q0 -107 51 -141q86 -59 142.5 -112t56.5 -68q0 -13 -25 -23t-43 -10q-81 0 -291 203q-84 81 -84 141zM504 623q0 42 70.5 119.5t143.5 135.5t87 58
q18 0 50 -11t32 -22q0 -4 -3.5 -8.5t-11 -11.5t-10.5 -11l-149 -165q-35 -40 -48.5 -66t-13.5 -57q0 -18 44.5 -79.5t115.5 -129.5q59 -56 59 -74q0 -11 -18 -25t-33 -14q-33 0 -149 95t-140 147q-26 58 -26 119z" />
    <glyph glyph-name="logicalnot" unicode="&#xac;" horiz-adv-x="1161" 
d="M1057 150h-90v456h-865v84h955v-540z" />
    <glyph glyph-name="uni00AD" unicode="&#xad;" horiz-adv-x="681" 
d="M129 526q0 22 30.5 70.5t61.5 48.5q7 0 25.5 -7.5t56 -14.5t90.5 -7q47 0 112 7.5t75 7.5q16 0 24 -23.5t8 -40.5q0 -10 -25.5 -33.5t-41.5 -23.5q-8 0 -122 -6t-226 -6q-68 0 -68 28z" />
    <glyph glyph-name="registered" unicode="&#xae;" horiz-adv-x="1638" 
d="M680 561v-325h-107v761h291q254 0 254 -213q0 -103 -53 -156t-135 -65l215 -327h-127l-207 325h-131zM680 655h123q38 0 62.5 1.5t55.5 9t48.5 21t30 39t12.5 62.5q0 115 -170 115h-162v-248zM172 616q0 132 51 252t137.5 206.5t206.5 138t252 51.5t252 -51.5t206.5 -138
t137.5 -206.5t51 -252q0 -176 -86.5 -325t-235.5 -235.5t-325 -86.5t-325 86.5t-235.5 235.5t-86.5 325zM291 616q0 -235 150 -387.5t378 -152.5t378.5 152.5t150.5 387.5t-150.5 388t-378.5 153t-378 -153t-150 -388z" />
    <glyph glyph-name="macron" unicode="&#xaf;" 
d="M115 1313l184 153l82 64l14 2q18 0 48 -19t30 -32q0 -12 -7.5 -24t-26 -27t-25 -20t-29.5 -21l-266 -144q-9 -4 -15 -4h-12q-1 0 -5.5 4.5t-6.5 5.5l-2 13q0 14 5.5 20.5t31.5 28.5z" />
    <glyph glyph-name="degree" unicode="&#xb0;" horiz-adv-x="696" 
d="M334 1161h2q111 0 185.5 -74t74.5 -186q0 -118 -74.5 -187t-187.5 -69q-109 0 -184.5 69.5t-75.5 186.5q0 114 76.5 187t183.5 73zM334 1096h-2q-76 0 -124 -53t-48 -142q0 -83 50 -138.5t128 -55.5q81 0 128.5 52.5t47.5 139.5q0 84 -46.5 140.5t-133.5 56.5z" />
    <glyph glyph-name="plusminus" unicode="&#xb1;" horiz-adv-x="1161" 
d="M1057 567h-432v-401h-90v401h-433v84h433v375h90v-375h432v-84zM1055 -12h-955v82h955v-82z" />
    <glyph glyph-name="twosuperior" unicode="&#xb2;" horiz-adv-x="690" 
d="M559 1073q0 -43 -24.5 -98.5t-77.5 -100.5l-262 -225q-9 -5 -9 -8q0 -4 11 -4q52 0 156.5 2t156.5 2q41 1 68 7.5t38.5 13t16.5 6.5q18 0 18 -37q0 -17 -11 -55.5t-22 -38.5q-5 0 -40 10q-24 8 -191 8q-159 0 -194.5 -1.5t-55.5 -8.5q-20 -8 -28 -8q-10 0 -25.5 9
t-15.5 17v78q0 12 19 29.5t99 81.5q254 203 254 325q0 41 -34.5 73t-98.5 32q-56 0 -87 -14t-48 -48q-7 -14 -55 -14q-22 0 -32.5 31.5t-10.5 60.5q0 28 83.5 47t149.5 19q58 0 91.5 -8.5t82.5 -41.5q44 -30 61 -59.5t17 -81.5z" />
    <glyph glyph-name="threesuperior" unicode="&#xb3;" horiz-adv-x="616" 
d="M219 891q0 5 2 9.5t8.5 12t13.5 14t22.5 22.5t29.5 30q94 96 94 117q0 11 -94.5 30t-118.5 19q-22 0 -43 -6t-31 -6q-32 0 -32 24q0 36 14 71.5t39 35.5q46 0 143 -20t211 -64q41 -15 41 -54q0 -22 -18 -43l-113 -127q-25 -31 -25 -49q0 -23 39 -51l76 -57q35 -28 35 -68
q0 -45 -26 -81t-89 -81q-34 -25 -121.5 -64.5t-125.5 -39.5t-54 12l-41 31q-14 11 -14 33q0 9 10 13t45 7q134 11 211.5 59.5t77.5 94.5q0 28 -74 86l-69 53q-23 20 -23 37z" />
    <glyph glyph-name="acute" unicode="&#xb4;" 
d="M395 1532q16 0 47 -19t31 -36t-28.5 -45.5t-90.5 -61.5q-4 -2 -70.5 -38t-120 -63.5t-59.5 -27.5q-26 0 -26 27q0 18 20 32l236 195q42 37 61 37z" />
    <glyph glyph-name="mu" unicode="&#xb5;" horiz-adv-x="1441" 
d="M373 440v-141q0 -50 21 -89t51 -61t66 -36t61 -18.5t42 -4.5q47 0 105 33t80 78q19 39 24.5 118t5.5 218q0 46 -14 102t-14 74q0 45 78 45q98 0 98 -72q0 -9 -4 -43.5t-9 -84t-8 -85.5q-20 -265 -51 -319q-22 -38 -66 -83.5t-83 -66.5q-41 -20 -127 -20q-87 0 -140.5 26
t-107.5 90l-4 -4q0 -12 1 -34.5t1 -36.5q0 -178 -16.5 -242t-61.5 -64q-63 0 -63 144v278q0 116 -7.5 331t-7.5 239q0 80 60 80q28 0 51 -17l94 -69q10 -10 10 -27q0 -10 -16 -35.5t-32.5 -77t-16.5 -125.5z" />
    <glyph glyph-name="paragraph" unicode="&#xb6;" horiz-adv-x="1052" 
d="M637 -86h-100v537h-27q-178 0 -299.5 89t-120.5 253q0 389 569 389q165 0 232 -15v-1253h-103v1182h-151v-1182z" />
    <glyph glyph-name="periodcentered" unicode="&#xb7;" 
d="M172 598q0 30 5.5 42t23.5 24q67 47 100 47q12 0 54 -42t42 -61q0 -15 -22 -43q-68 -84 -94 -84q-31 0 -70 44.5t-39 72.5z" />
    <glyph glyph-name="cedilla" unicode="&#xb8;" 
d="M350 18h66q-39 -72 -39 -96q0 -17 98 -49q36 -12 50 -32t14 -56q0 -42 -29.5 -75.5t-72.5 -51.5t-84 -27.5t-72 -9.5q-13 0 -24 9t-11 22q0 16 26 22q49 10 94.5 42t45.5 55q0 43 -21 53l-74 35q-22 11 -22 35q0 34 55 124z" />
    <glyph glyph-name="onesuperior" unicode="&#xb9;" horiz-adv-x="442" 
d="M184 801q0 145 -6 220t-16.5 100t-30.5 34q-31 14 -31 33q0 10 13 16q83 41 105.5 50.5t37.5 9.5q8 0 25.5 -6t17.5 -13q0 -3 -5 -27.5t-10 -95.5t-5 -188q0 -177 8 -309q0 -20 8 -31t16 -17t8 -12q0 -26 -86 -26q-35 0 -53 2.5t-23 6t-5 11.5q0 9 20 31q5 5 7 17.5
t3.5 58t1.5 135.5z" />
    <glyph glyph-name="ordmasculine" unicode="&#xba;" horiz-adv-x="774" 
d="M104 795q0 72 17 137.5t53 123.5t100.5 93t149.5 35q110 0 178 -90t68 -269q0 -177 -87 -274.5t-214 -97.5q-110 0 -187.5 88.5t-77.5 253.5zM199 817q0 -22 5 -52.5t19 -69.5t35.5 -71t59 -54.5t83.5 -22.5q23 0 46.5 6.5t49.5 24.5t45.5 46t32.5 75.5t13 109.5
q0 152 -53.5 222.5t-133.5 70.5q-93 0 -147.5 -82t-54.5 -203z" />
    <glyph glyph-name="guillemotright" unicode="&#xbb;" horiz-adv-x="985" 
d="M694 608q0 32 -22 64l-144 202q-12 15 -12 33q0 15 12 26t27 11q18 0 74.5 -44.5t120.5 -108.5q46 -46 91.5 -107t45.5 -86q0 -60 -84 -141q-210 -203 -291 -203q-18 0 -43 10t-25 23q0 15 56.5 68t142.5 112q51 34 51 141zM334 584q0 31 -13.5 57t-48.5 66l-149 165
q-3 4 -10.5 11t-11 11.5t-3.5 8.5q0 11 32 22t50 11q14 0 87 -58t143.5 -135.5t70.5 -119.5q0 -61 -26 -119q-24 -52 -140 -147t-149 -95q-15 0 -33 14t-18 25q0 18 59 74q71 68 115.5 129.5t44.5 79.5z" />
    <glyph glyph-name="onequarter" unicode="&#xbc;" horiz-adv-x="1603" 
d="M1341 0h-108v176h-436v53l436 461h108v-440h146v-74h-146v-176zM1233 250v244q0 50 6 96h-4q-40 -46 -72 -78l-248 -262h3h315zM338 -20h-94l800 1175h95zM387 467h-115v592h-4l-147 -55l-25 73l193 72h98v-682z" />
    <glyph glyph-name="onehalf" unicode="&#xbd;" horiz-adv-x="1699" 
d="M336 -20h-92l800 1175h95zM387 467h-115v592h-4l-147 -55l-25 73l193 72h98v-682zM967 0v70l157 110q167 122 228 182t61 115q0 21 -7.5 41.5t-25 42t-55 34.5t-90.5 13q-57 0 -116 -19t-95 -44l-39 67q129 78 275 78q129 0 198.5 -57t69.5 -139q0 -37 -14 -71.5
t-35 -62.5t-61.5 -62.5t-75.5 -61t-94 -68.5q-25 -18 -38 -27l-88 -59v-4h420v-78h-575z" />
    <glyph glyph-name="threequarters" unicode="&#xbe;" horiz-adv-x="1789" 
d="M1528 0h-105v176h-438v53l434 461h109v-440h145v-74h-145v-176zM1423 250v244q0 34 4 96h-4q-13 -14 -36.5 -40.5t-34.5 -37.5l-248 -262h2h317zM524 -20h-94l801 1175h94zM156 1028l-33 72q108 59 258 59q140 0 208 -49t68 -117q0 -54 -47 -97t-127 -65v-2
q96 -10 153.5 -58t57.5 -112q0 -83 -92.5 -141.5t-257.5 -58.5q-82 0 -153.5 14.5t-110.5 36.5l31 76q31 -19 95.5 -35t131.5 -16q109 0 172 37.5t63 93.5q0 60 -75 93.5t-203 33.5h-74v69h76q103 0 172.5 34.5t69.5 84.5q0 42 -44.5 71t-136.5 29q-56 0 -112 -17t-90 -36z
" />
    <glyph glyph-name="questiondown" unicode="&#xbf;" horiz-adv-x="985" 
d="M150 213q0 63 35.5 130.5t86.5 102.5q188 133 244 183q21 18 55 18q31 0 31 -53q0 -44 -22 -51q-22 -6 -98.5 -61t-121.5 -99q-36 -35 -60 -98t-24 -111q0 -60 35 -113q31 -50 68 -84q63 -55 135 -55q44 0 85.5 23t55.5 71q11 34 36.5 55t48.5 27t46 6q19 0 28 -32.5
t9 -67.5q0 -32 -38.5 -66t-88 -57t-93 -38t-56.5 -15q-77 0 -169.5 24t-135.5 62q-35 31 -57 90.5t-28.5 109.5t-6.5 99zM412 981q0 63 82 63q8 0 28.5 -4.5t47.5 -13t47 -26t20 -39.5t-36.5 -84t-57.5 -62q-17 0 -52.5 21t-48.5 34q-20 20 -25 38.5t-5 72.5z" />
    <glyph glyph-name="Agrave" unicode="&#xc0;" horiz-adv-x="1366" 
d="M563 432q-102 0 -128 -9.5t-44 -55.5q-14 -38 -72 -153t-63 -140q-10 -57 -39 -60q-21 -2 -64 -5.5t-74 -6t-36 -2.5q-9 0 -14.5 11t-5.5 22q0 28 5 38t19 13q84 20 115 106q3 9 109 201t202 397.5t96 286.5q0 7 -13 43t-13 43q0 20 43 46t67 26q13 0 38.5 -26t41.5 -60
q18 -37 87 -186t127 -264t128 -238q55 -96 102.5 -171t75.5 -113t48 -63t28 -34.5t8 -14.5q0 -36 -47 -36q-23 0 -81 9t-79 15q-32 8 -51 74q-12 42 -67.5 153t-73.5 119q-36 19 -155.5 27t-219.5 8zM514 526h371l-162 318q-13 23 -23.5 50.5t-16 37.5t-13.5 10
q-7 0 -14 -14t-14.5 -39t-12.5 -35l-107 -217q-43 -85 -43 -96q0 -15 35 -15zM537 1460q0 19 24 45.5t41 26.5q56 0 66 -31q28 -86 82 -143l40 -45q41 -45 41 -51q0 -8 -23 -14.5t-34 -6.5q-24 0 -81.5 42.5t-106.5 96t-49 80.5z" />
    <glyph glyph-name="Aacute" unicode="&#xc1;" horiz-adv-x="1366" 
d="M563 432q-102 0 -128 -9.5t-44 -55.5q-14 -38 -72 -153t-63 -140q-10 -57 -39 -60q-21 -2 -64 -5.5t-74 -6t-36 -2.5q-9 0 -14.5 11t-5.5 22q0 28 5 38t19 13q84 20 115 106q3 9 109 201t202 397.5t96 286.5q0 7 -13 43t-13 43q0 20 43 46t67 26q13 0 38.5 -26t41.5 -60
q18 -37 87 -186t127 -264t128 -238q55 -96 102.5 -171t75.5 -113t48 -63t28 -34.5t8 -14.5q0 -36 -47 -36q-23 0 -81 9t-79 15q-32 8 -51 74q-12 42 -67.5 153t-73.5 119q-36 19 -155.5 27t-219.5 8zM514 526h371l-162 318q-13 23 -23.5 50.5t-16 37.5t-13.5 10
q-7 0 -14 -14t-14.5 -39t-12.5 -35l-107 -217q-43 -85 -43 -96q0 -15 35 -15zM770 1532q16 0 47 -19t31 -36t-28.5 -45.5t-90.5 -61.5q-4 -2 -70.5 -38t-120 -63.5t-59.5 -27.5q-26 0 -26 27q0 18 20 32l236 195q42 37 61 37z" />
    <glyph glyph-name="Acircumflex" unicode="&#xc2;" horiz-adv-x="1366" 
d="M563 432q-102 0 -128 -9.5t-44 -55.5q-14 -38 -72 -153t-63 -140q-10 -57 -39 -60q-21 -2 -64 -5.5t-74 -6t-36 -2.5q-9 0 -14.5 11t-5.5 22q0 28 5 38t19 13q84 20 115 106q3 9 109 201t202 397.5t96 286.5q0 7 -13 43t-13 43q0 20 43 46t67 26q13 0 38.5 -26t41.5 -60
q18 -37 87 -186t127 -264t128 -238q55 -96 102.5 -171t75.5 -113t48 -63t28 -34.5t8 -14.5q0 -36 -47 -36q-23 0 -81 9t-79 15q-32 8 -51 74q-12 42 -67.5 153t-73.5 119q-36 19 -155.5 27t-219.5 8zM514 526h371l-162 318q-13 23 -23.5 50.5t-16 37.5t-13.5 10
q-7 0 -14 -14t-14.5 -39t-12.5 -35l-107 -217q-43 -85 -43 -96q0 -15 35 -15zM385 1262q0 13 8 39t17 34q161 138 193 158q29 18 52 18q55 0 110 -31t90 -70.5t57 -73t22 -42.5q0 -10 -12.5 -16t-24.5 -6q-18 0 -111.5 60.5t-115.5 60.5q-25 0 -145 -76t-126 -76t-10 6.5
t-4 14.5z" />
    <glyph glyph-name="Atilde" unicode="&#xc3;" horiz-adv-x="1366" 
d="M563 432q-102 0 -128 -9.5t-44 -55.5q-14 -38 -72 -153t-63 -140q-10 -57 -39 -60q-21 -2 -64 -5.5t-74 -6t-36 -2.5q-9 0 -14.5 11t-5.5 22q0 28 5 38t19 13q84 20 115 106q3 9 109 201t202 397.5t96 286.5q0 7 -13 43t-13 43q0 20 43 46t67 26q13 0 38.5 -26t41.5 -60
q18 -37 87 -186t127 -264t128 -238q55 -96 102.5 -171t75.5 -113t48 -63t28 -34.5t8 -14.5q0 -36 -47 -36q-23 0 -81 9t-79 15q-32 8 -51 74q-12 42 -67.5 153t-73.5 119q-36 19 -155.5 27t-219.5 8zM514 526h371l-162 318q-13 23 -23.5 50.5t-16 37.5t-13.5 10
q-7 0 -14 -14t-14.5 -39t-12.5 -35l-107 -217q-43 -85 -43 -96q0 -15 35 -15zM340 1317q0 29 55.5 88t93.5 59q45 0 107.5 -22.5t113.5 -45t68 -22.5q18 0 77.5 49.5t64.5 49.5q8 0 16 -15t8 -28q0 -27 -63.5 -94.5t-102.5 -67.5q-51 0 -155.5 45t-130.5 45q-19 0 -71.5 -38
t-62.5 -38q-7 0 -12.5 11t-5.5 24z" />
    <glyph glyph-name="Adieresis" unicode="&#xc4;" horiz-adv-x="1366" 
d="M563 432q-102 0 -128 -9.5t-44 -55.5q-14 -38 -72 -153t-63 -140q-10 -57 -39 -60q-21 -2 -64 -5.5t-74 -6t-36 -2.5q-9 0 -14.5 11t-5.5 22q0 28 5 38t19 13q84 20 115 106q3 9 109 201t202 397.5t96 286.5q0 7 -13 43t-13 43q0 20 43 46t67 26q13 0 38.5 -26t41.5 -60
q18 -37 87 -186t127 -264t128 -238q55 -96 102.5 -171t75.5 -113t48 -63t28 -34.5t8 -14.5q0 -36 -47 -36q-23 0 -81 9t-79 15q-32 8 -51 74q-12 42 -67.5 153t-73.5 119q-36 19 -155.5 27t-219.5 8zM514 526h371l-162 318q-13 23 -23.5 50.5t-16 37.5t-13.5 10
q-7 0 -14 -14t-14.5 -39t-12.5 -35l-107 -217q-43 -85 -43 -96q0 -15 35 -15zM362 1364q0 34 32.5 84.5t62.5 50.5q21 0 59.5 -40.5t38.5 -63.5q0 -18 -15.5 -37t-66.5 -53q-17 -11 -39 -11q-14 0 -43 27.5t-29 42.5zM752 1411q0 14 45 45t61 31q19 0 58.5 -41t39.5 -60
q0 -17 -23.5 -54.5t-37.5 -37.5q-53 0 -98 42t-45 75z" />
    <glyph glyph-name="Aring" unicode="&#xc5;" horiz-adv-x="1366" 
d="M563 432q-102 0 -128 -9.5t-44 -55.5q-14 -38 -72 -153t-63 -140q-10 -57 -39 -60q-21 -2 -64 -5.5t-74 -6t-36 -2.5q-9 0 -14.5 11t-5.5 22q0 28 5 38t19 13q84 20 115 106q3 9 109 201t202 397.5t96 286.5q0 7 -13 43t-13 43q0 20 43 46t67 26q13 0 38.5 -26t41.5 -60
q18 -37 87 -186t127 -264t128 -238q55 -96 102.5 -171t75.5 -113t48 -63t28 -34.5t8 -14.5q0 -36 -47 -36q-23 0 -81 9t-79 15q-32 8 -51 74q-12 42 -67.5 153t-73.5 119q-36 19 -155.5 27t-219.5 8zM514 526h371l-162 318q-13 23 -23.5 50.5t-16 37.5t-13.5 10
q-7 0 -14 -14t-14.5 -39t-12.5 -35l-107 -217q-43 -85 -43 -96q0 -15 35 -15zM453 1397q0 20 10 47t22 37q14 13 45.5 28.5t49.5 20.5q36 10 118 10q46 0 82 -12q29 -10 57.5 -42.5t28.5 -64.5q0 -59 -52.5 -107t-149.5 -48q-140 0 -177 32q-34 31 -34 99zM547 1374
q0 -39 90 -39q55 0 89 16.5t34 45.5q0 14 -11 37t-28 28q-21 8 -72 8q-30 0 -43 -5.5t-26 -20.5q-33 -35 -33 -70z" />
    <glyph glyph-name="AE" unicode="&#xc6;" horiz-adv-x="1478" 
d="M2 49q0 10 23 39q120 150 223.5 290.5t190.5 273t125 192t106 170.5q49 83 49 143q0 21 14 29q30 16 69.5 31.5t59.5 15.5q33 0 33 -47q42 0 119.5 -1t105.5 -1q45 0 110.5 5t84.5 5q12 0 20 -7t8 -16q0 -11 -29 -50t-46 -42q-91 -14 -357 -14q-6 -100 -6 -391
q292 10 350 10q39 0 39 -33q0 -23 -13.5 -47.5t-33.5 -25.5l-342 -25q0 -55 13 -215q7 -94 68.5 -169t127.5 -75q34 0 107 -2t110 -2q9 0 16 -7t7 -15q0 -13 -19 -50q-11 -20 -35 -27t-88 -7q-200 0 -241 18q-113 53 -151.5 119t-41.5 215q-49 0 -167.5 -16.5t-194.5 -30.5
q-73 -15 -103 -44t-100 -147q-49 -84 -73.5 -111.5t-43.5 -27.5q-12 0 -53 39.5t-41 50.5zM778 436v500q0 11 1 24.5t1 16.5q0 6 -12 6q-6 0 -14 -14t-18 -37t-17 -33q-72 -114 -165.5 -252t-125.5 -180q-20 -27 -20 -41q0 -18 32 -18q117 0 338 28z" />
    <glyph glyph-name="Ccedilla" unicode="&#xc7;" horiz-adv-x="1214" 
d="M629 -57l26 49h-6q-50 0 -105 15.5t-115 53t-107 92.5t-78 143.5t-31 195.5q0 123 25.5 226.5t67 175t99.5 127.5t118.5 89.5t128.5 55t124 29t111 7.5q78 0 129 -31t51 -65q0 -25 -42.5 -63.5t-68.5 -38.5q-10 0 -23 14.5t-26 31.5t-38 31.5t-56 14.5q-81 0 -150 -25.5
t-115.5 -65.5t-83 -94t-58 -108t-35 -110t-18.5 -96t-5 -71q0 -48 16.5 -105.5t48.5 -114.5t74.5 -103.5t100 -75.5t119.5 -29q69 0 135 26t106.5 57t77 57t51.5 26q20 0 31.5 -12t11.5 -31q0 -20 -53 -75.5t-115 -90.5q-71 -43 -227 -57q-29 -60 -29 -76t99 -49
q36 -12 49.5 -32t13.5 -56q0 -42 -29.5 -75.5t-72.5 -51.5t-84 -27.5t-72 -9.5q-13 0 -24 9t-11 22q0 16 27 22q49 10 94 42t45 55q0 43 -20 53l-74 35q-23 11 -23 35q0 19 15 49z" />
    <glyph glyph-name="Egrave" unicode="&#xc8;" horiz-adv-x="985" 
d="M469 655h276q39 0 39 -24q0 -14 -38.5 -47.5t-57.5 -34.5q-76 -6 -311 -12q0 -247 97.5 -370.5t305.5 -123.5q45 0 60.5 -8.5t15.5 -34.5q0 -21 -33.5 -36t-105.5 -15q-97 0 -174.5 20t-128.5 51t-88 79t-57 94t-31 107.5t-14 106.5t-3 103q0 159 25 284.5t66.5 206.5
t99.5 134.5t121 75.5t135 22q84 0 115.5 -13.5t31.5 -48.5q0 -21 -10.5 -33t-28.5 -12h-121q-42 0 -77 -12.5t-70 -46.5t-60.5 -89t-44.5 -145t-26 -210q41 32 92 32zM387 1501q0 19 24.5 45.5t41.5 26.5q55 0 65 -31q28 -86 82 -143q13 -14 25.5 -28t20 -22t14.5 -16
l10.5 -12t6.5 -8t4 -6t1 -4q0 -8 -23 -14.5t-34 -6.5q-24 0 -82 42.5t-107 96t-49 80.5z" />
    <glyph glyph-name="Eacute" unicode="&#xc9;" horiz-adv-x="985" 
d="M469 655h276q39 0 39 -24q0 -14 -38.5 -47.5t-57.5 -34.5q-76 -6 -311 -12q0 -247 97.5 -370.5t305.5 -123.5q45 0 60.5 -8.5t15.5 -34.5q0 -21 -33.5 -36t-105.5 -15q-97 0 -174.5 20t-128.5 51t-88 79t-57 94t-31 107.5t-14 106.5t-3 103q0 159 25 284.5t66.5 206.5
t99.5 134.5t121 75.5t135 22q84 0 115.5 -13.5t31.5 -48.5q0 -21 -10.5 -33t-28.5 -12h-121q-42 0 -77 -12.5t-70 -46.5t-60.5 -89t-44.5 -145t-26 -210q41 32 92 32zM737 1573q16 0 47 -19t31 -36t-28.5 -45.5t-90.5 -61.5q-4 -2 -70.5 -38t-120 -63.5t-59.5 -27.5
q-26 0 -26 27q0 18 20 32l236 195q42 37 61 37z" />
    <glyph glyph-name="Ecircumflex" unicode="&#xca;" horiz-adv-x="985" 
d="M469 655h276q39 0 39 -24q0 -14 -38.5 -47.5t-57.5 -34.5q-76 -6 -311 -12q0 -247 97.5 -370.5t305.5 -123.5q45 0 60.5 -8.5t15.5 -34.5q0 -21 -33.5 -36t-105.5 -15q-97 0 -174.5 20t-128.5 51t-88 79t-57 94t-31 107.5t-14 106.5t-3 103q0 159 25 284.5t66.5 206.5
t99.5 134.5t121 75.5t135 22q84 0 115.5 -13.5t31.5 -48.5q0 -21 -10.5 -33t-28.5 -12h-121q-42 0 -77 -12.5t-70 -46.5t-60.5 -89t-44.5 -145t-26 -210q41 32 92 32zM291 1303q0 13 7.5 39t16.5 34q139 118 178 147t68 29q55 0 110 -31t90 -70.5t57 -73t22 -42.5
q0 -10 -12.5 -16t-24.5 -6q-18 0 -112 60.5t-116 60.5q-25 0 -144.5 -76t-125.5 -76t-10 6.5t-4 14.5z" />
    <glyph glyph-name="Edieresis" unicode="&#xcb;" horiz-adv-x="985" 
d="M469 655h276q39 0 39 -24q0 -14 -38.5 -47.5t-57.5 -34.5q-76 -6 -311 -12q0 -247 97.5 -370.5t305.5 -123.5q45 0 60.5 -8.5t15.5 -34.5q0 -21 -33.5 -36t-105.5 -15q-97 0 -174.5 20t-128.5 51t-88 79t-57 94t-31 107.5t-14 106.5t-3 103q0 159 25 284.5t66.5 206.5
t99.5 134.5t121 75.5t135 22q84 0 115.5 -13.5t31.5 -48.5q0 -21 -10.5 -33t-28.5 -12h-121q-42 0 -77 -12.5t-70 -46.5t-60.5 -89t-44.5 -145t-26 -210q41 32 92 32zM268 1405q0 34 32 84.5t62 50.5q21 0 60 -40.5t39 -63.5q0 -18 -15.5 -37t-66.5 -53q-16 -11 -39 -11
q-14 0 -43 27.5t-29 42.5zM657 1452q0 14 45.5 45t61.5 31q19 0 58.5 -41t39.5 -60q0 -17 -23.5 -54.5t-37.5 -37.5q-53 0 -98.5 42t-45.5 75z" />
    <glyph glyph-name="Igrave" unicode="&#xcc;" horiz-adv-x="681" 
d="M274 633q0 81 -3 170t-3 115q0 63 -16 81q-35 40 -35 74q0 26 62 77.5t90 51.5q23 0 51.5 -17.5t28.5 -29.5q0 -16 -10 -52t-11 -59q-18 -272 -18 -882q0 -118 -15.5 -161.5t-50.5 -43.5q-26 0 -37 12.5t-20 85t-11 197.5t-2 381zM236 1460q0 19 24 45.5t41 26.5
q56 0 66 -31q28 -86 82 -143l40 -45q41 -45 41 -51q0 -8 -23 -14.5t-34 -6.5q-24 0 -81.5 42.5t-106.5 96t-49 80.5z" />
    <glyph glyph-name="Iacute" unicode="&#xcd;" horiz-adv-x="681" 
d="M274 633q0 81 -3 170t-3 115q0 63 -16 81q-35 40 -35 74q0 26 62 77.5t90 51.5q23 0 51.5 -17.5t28.5 -29.5q0 -16 -10 -52t-11 -59q-18 -272 -18 -882q0 -118 -15.5 -161.5t-50.5 -43.5q-26 0 -37 12.5t-20 85t-11 197.5t-2 381zM453 1532q16 0 46.5 -19t30.5 -36
t-28 -45.5t-90 -61.5q-4 -2 -70.5 -38t-120 -63.5t-59.5 -27.5q-27 0 -27 27q0 17 21 32l235 195q42 37 62 37z" />
    <glyph glyph-name="Icircumflex" unicode="&#xce;" horiz-adv-x="681" 
d="M274 633q0 81 -3 170t-3 115q0 63 -16 81q-35 40 -35 74q0 26 62 77.5t90 51.5q23 0 51.5 -17.5t28.5 -29.5q0 -16 -10 -52t-11 -59q-18 -272 -18 -882q0 -118 -15.5 -161.5t-50.5 -43.5q-26 0 -37 12.5t-20 85t-11 197.5t-2 381zM68 1262q0 13 7.5 39t16.5 34
q139 118 178 147t68 29q55 0 110 -31t90 -70.5t56.5 -73t21.5 -42.5q0 -10 -12 -16t-24 -6q-18 0 -112 60.5t-116 60.5q-25 0 -144.5 -76t-125.5 -76t-10 6.5t-4 14.5z" />
    <glyph glyph-name="Idieresis" unicode="&#xcf;" horiz-adv-x="681" 
d="M274 633q0 81 -3 170t-3 115q0 63 -16 81q-35 40 -35 74q0 26 62 77.5t90 51.5q23 0 51.5 -17.5t28.5 -29.5q0 -16 -10 -52t-11 -59q-18 -272 -18 -882q0 -118 -15.5 -161.5t-50.5 -43.5q-26 0 -37 12.5t-20 85t-11 197.5t-2 381zM45 1364q0 34 32 84.5t62 50.5
q21 0 60 -40.5t39 -63.5q0 -18 -15.5 -37t-66.5 -53q-16 -11 -39 -11q-14 0 -43 27.5t-29 42.5zM434 1411q0 14 45.5 45t61.5 31q19 0 58.5 -41t39.5 -60q0 -17 -23.5 -54.5t-37.5 -37.5q-53 0 -98.5 42t-45.5 75z" />
    <glyph glyph-name="Eth" unicode="&#xd0;" horiz-adv-x="1327" 
d="M1081 735q0 -212 -28 -330.5t-101 -220.5q-39 -55 -147.5 -106.5t-199.5 -77t-120 -25.5q-16 0 -44 4.5t-31 4.5l-115 16q-37 5 -51.5 12t-14.5 23q0 14 9 25.5t20.5 21t22 35t12.5 63.5q14 310 14 406q-37 0 -65 -5t-40 -11.5t-22.5 -11.5t-17.5 -5q-10 0 -27.5 40.5
t-17.5 72.5q0 21 15.5 30t57.5 9q10 0 117 -5q0 80 -11 180.5t-24 159.5q-3 15 -16.5 21.5t-27 6t-24.5 7.5t-11 27q0 29 14.5 40.5t68.5 26.5l144 41q85 23 115 23q12 0 38.5 -2.5t80.5 -14t107 -30.5t112.5 -57.5t104 -88.5t74 -129.5t29.5 -175.5zM434 1083v-395
q140 4 240 4q42 0 59 -7.5t17 -25.5q0 -15 -25.5 -32.5t-71.5 -30.5q-38 -10 -166 -10h-53v-82q0 -53 -1 -152t-1 -139q0 -74 15.5 -96.5t54.5 -22.5q80 0 142.5 15t118.5 55t92.5 104.5t57.5 167t21 240.5q0 97 -30 177.5t-74 129t-96 82.5t-92.5 47.5t-66.5 13.5
q-33 0 -73.5 -13t-67.5 -30z" />
    <glyph glyph-name="Ntilde" unicode="&#xd1;" horiz-adv-x="1896" 
d="M373 629q0 95 -26 163.5t-85 131.5q-102 111 -129 145t-27 53q0 20 28.5 42t64.5 22q9 0 20 -7t52 -43t116 -108q323 -311 563 -488t559 -343q17 169 17 276q0 143 -13 477q-1 38 -11.5 66t-21.5 41t-20.5 28t-9.5 29q0 31 51 48.5t98 17.5q68 0 68 -41q0 -3 -8.5 -58.5
t-17.5 -221.5t-9 -437q0 -108 11.5 -213.5t11.5 -130.5q0 -47 -49 -78t-86 -31q-14 0 -27 28.5t-36 68t-58 59.5q-468 269 -627.5 375t-279.5 219q0 -3 -19.5 -263.5t-42.5 -377.5q-9 -44 -31.5 -69t-48.5 -25q-25 0 -55.5 18t-30.5 41q0 15 17 64t37.5 110t37.5 173.5
t17 238.5zM629 1292q0 29 55.5 88.5t93.5 59.5q45 0 107.5 -22.5t113.5 -45t68 -22.5q18 0 77 49t64 49q8 0 16.5 -15t8.5 -28q0 -27 -63.5 -94.5t-102.5 -67.5q-51 0 -156 45t-131 45q-19 0 -71 -38t-62 -38q-7 0 -12.5 11t-5.5 24z" />
    <glyph glyph-name="Ograve" unicode="&#xd2;" horiz-adv-x="1290" 
d="M180 559q0 83 18 164t59 158.5t100 136.5t149 95t199 36q84 0 156 -32.5t128.5 -97t88.5 -171t32 -244.5q0 -131 -42 -239t-112.5 -177t-159 -106t-184.5 -37q-79 0 -155 33.5t-138.5 95.5t-100.5 162t-38 223zM328 592q0 -28 6.5 -65.5t20.5 -86t40.5 -94t62 -84.5
t89.5 -62.5t119 -23.5q38 0 76.5 10t81.5 38t75.5 71t54 117t21.5 168q0 121 -25.5 211t-70 140.5t-98 74.5t-115.5 24q-104 0 -182 -61t-117 -159t-39 -218zM498 1460q0 19 24 45.5t41 26.5q56 0 66 -31q28 -86 82 -143q13 -14 25.5 -28t20 -22t14.5 -16l10.5 -12t6.5 -8
t4 -6t1 -4q0 -8 -23 -14.5t-35 -6.5q-24 0 -81.5 42.5t-106.5 96t-49 80.5z" />
    <glyph glyph-name="Oacute" unicode="&#xd3;" horiz-adv-x="1290" 
d="M180 559q0 83 18 164t59 158.5t100 136.5t149 95t199 36q84 0 156 -32.5t128.5 -97t88.5 -171t32 -244.5q0 -131 -42 -239t-112.5 -177t-159 -106t-184.5 -37q-79 0 -155 33.5t-138.5 95.5t-100.5 162t-38 223zM328 592q0 -28 6.5 -65.5t20.5 -86t40.5 -94t62 -84.5
t89.5 -62.5t119 -23.5q38 0 76.5 10t81.5 38t75.5 71t54 117t21.5 168q0 121 -25.5 211t-70 140.5t-98 74.5t-115.5 24q-104 0 -182 -61t-117 -159t-39 -218zM827 1532q16 0 47 -19t31 -36t-28.5 -45.5t-90.5 -61.5q-5 -3 -70.5 -38.5t-119 -63t-59.5 -27.5q-27 0 -27 27
q0 18 20 32l236 195q42 37 61 37z" />
    <glyph glyph-name="Ocircumflex" unicode="&#xd4;" horiz-adv-x="1290" 
d="M180 559q0 83 18 164t59 158.5t100 136.5t149 95t199 36q84 0 156 -32.5t128.5 -97t88.5 -171t32 -244.5q0 -131 -42 -239t-112.5 -177t-159 -106t-184.5 -37q-79 0 -155 33.5t-138.5 95.5t-100.5 162t-38 223zM328 592q0 -28 6.5 -65.5t20.5 -86t40.5 -94t62 -84.5
t89.5 -62.5t119 -23.5q38 0 76.5 10t81.5 38t75.5 71t54 117t21.5 168q0 121 -25.5 211t-70 140.5t-98 74.5t-115.5 24q-104 0 -182 -61t-117 -159t-39 -218zM371 1262q0 13 7.5 39t16.5 34q139 118 178 147t68 29q55 0 110 -31t90 -70.5t57 -73t22 -42.5q0 -10 -12.5 -16
t-24.5 -6q-18 0 -112 60.5t-116 60.5q-25 0 -144.5 -76t-125.5 -76t-10 6.5t-4 14.5z" />
    <glyph glyph-name="Otilde" unicode="&#xd5;" horiz-adv-x="1290" 
d="M180 559q0 83 18 164t59 158.5t100 136.5t149 95t199 36q84 0 156 -32.5t128.5 -97t88.5 -171t32 -244.5q0 -131 -42 -239t-112.5 -177t-159 -106t-184.5 -37q-79 0 -155 33.5t-138.5 95.5t-100.5 162t-38 223zM328 592q0 -28 6.5 -65.5t20.5 -86t40.5 -94t62 -84.5
t89.5 -62.5t119 -23.5q38 0 76.5 10t81.5 38t75.5 71t54 117t21.5 168q0 121 -25.5 211t-70 140.5t-98 74.5t-115.5 24q-104 0 -182 -61t-117 -159t-39 -218zM352 1317q0 29 55.5 88t94.5 59q45 0 107.5 -22.5t113.5 -45t68 -22.5q18 0 77 49.5t64 49.5q8 0 16 -15t8 -28
q0 -27 -63 -94.5t-102 -67.5q-51 0 -156 45t-131 45q-19 0 -71 -38t-62 -38q-7 0 -13 11.5t-6 23.5z" />
    <glyph glyph-name="Odieresis" unicode="&#xd6;" horiz-adv-x="1290" 
d="M180 559q0 83 18 164t59 158.5t100 136.5t149 95t199 36q84 0 156 -32.5t128.5 -97t88.5 -171t32 -244.5q0 -131 -42 -239t-112.5 -177t-159 -106t-184.5 -37q-79 0 -155 33.5t-138.5 95.5t-100.5 162t-38 223zM328 592q0 -28 6.5 -65.5t20.5 -86t40.5 -94t62 -84.5
t89.5 -62.5t119 -23.5q38 0 76.5 10t81.5 38t75.5 71t54 117t21.5 168q0 121 -25.5 211t-70 140.5t-98 74.5t-115.5 24q-104 0 -182 -61t-117 -159t-39 -218zM348 1364q0 34 32 84.5t62 50.5q21 0 60 -40.5t39 -63.5q0 -18 -15.5 -37t-66.5 -53q-17 -11 -39 -11
q-14 0 -43 27.5t-29 42.5zM737 1411q0 14 45.5 45t61.5 31q19 0 58.5 -41t39.5 -60q0 -17 -23.5 -54.5t-37.5 -37.5q-53 0 -98.5 42t-45.5 75z" />
    <glyph glyph-name="multiply" unicode="&#xd7;" horiz-adv-x="1161" 
d="M1042 57l-63 -65l-404 397l-399 -397l-57 65l397 392l-397 393l59 63l400 -395l401 397l63 -59l-403 -399z" />
    <glyph glyph-name="Oslash" unicode="&#xd8;" horiz-adv-x="1290" 
d="M180 559q0 83 18 164t59 158.5t100 136.5t149 95t199 36q75 0 139 -27q58 134 83 173.5t46 39.5q18 0 38.5 -20.5t20.5 -38.5q0 -6 -4.5 -14t-17 -28.5t-25.5 -45.5q-7 -16 -26.5 -55t-28.5 -60q180 -132 180 -469q0 -131 -42 -239t-112.5 -177t-159 -106t-184.5 -37
q-73 0 -143 31q-39 -84 -92 -215q-3 -7 -27 -20t-31 -13q-24 0 -45 16q-16 10 -16 25q0 3 4 9.5t11 17.5t12 20q2 5 13 27t34 69t53 107q-93 64 -149 176t-56 264zM328 592q0 -67 31 -164t96 -162q167 334 313 682q22 52 23 53q-54 29 -125 29q-104 0 -182 -61t-117 -159
t-39 -218zM975 580q0 248 -109 364q-199 -410 -340 -733q59 -35 140 -35q38 0 76.5 10t81.5 38t75.5 71t54 117t21.5 168z" />
    <glyph glyph-name="Ugrave" unicode="&#xd9;" horiz-adv-x="1857" 
d="M43 1075q0 40 47 60q20 9 67.5 19.5t69.5 10.5q39 0 39 -51q0 -15 -5 -72t-5 -94q0 -55 47.5 -148.5t128.5 -195.5t175.5 -193t201 -150.5t192.5 -59.5q100 0 189 46.5t151 121t111 163t77.5 178t43 159.5t14.5 114v42.5t1.5 34t4.5 29.5t8.5 19.5t14 14t20.5 3.5
q25 0 109 -41q20 -10 27.5 -20.5t7.5 -32.5q0 -12 -14 -57.5t-40 -117t-67.5 -157t-92.5 -175.5t-120 -173.5t-145 -149.5t-172 -105.5t-197 -39.5q-78 0 -178 58.5t-196.5 150.5t-191 207.5t-165.5 227.5t-114.5 212.5t-43.5 161.5zM782 1436q0 19 24.5 45t41.5 26
q29 0 44 -6t21 -24q29 -88 82 -144q13 -14 25.5 -28t20 -22t14.5 -16l10.5 -12t6.5 -8t4 -6t1 -4q0 -8 -22.5 -14t-34.5 -6q-24 0 -82 42.5t-107 96t-49 80.5z" />
    <glyph glyph-name="Uacute" unicode="&#xda;" horiz-adv-x="1857" 
d="M43 1075q0 40 47 60q20 9 67.5 19.5t69.5 10.5q39 0 39 -51q0 -15 -5 -72t-5 -94q0 -55 47.5 -148.5t128.5 -195.5t175.5 -193t201 -150.5t192.5 -59.5q100 0 189 46.5t151 121t111 163t77.5 178t43 159.5t14.5 114v42.5t1.5 34t4.5 29.5t8.5 19.5t14 14t20.5 3.5
q25 0 109 -41q20 -10 27.5 -20.5t7.5 -32.5q0 -12 -14 -57.5t-40 -117t-67.5 -157t-92.5 -175.5t-120 -173.5t-145 -149.5t-172 -105.5t-197 -39.5q-78 0 -178 58.5t-196.5 150.5t-191 207.5t-165.5 227.5t-114.5 212.5t-43.5 161.5zM1092 1507q16 0 46.5 -19t30.5 -36
t-28 -45t-90 -61q-4 -2 -70.5 -38t-120 -63.5t-59.5 -27.5q-27 0 -27 26q0 18 21 33l235 194q42 37 62 37z" />
    <glyph glyph-name="Ucircumflex" unicode="&#xdb;" horiz-adv-x="1857" 
d="M43 1075q0 40 47 60q20 9 67.5 19.5t69.5 10.5q39 0 39 -51q0 -15 -5 -72t-5 -94q0 -55 47.5 -148.5t128.5 -195.5t175.5 -193t201 -150.5t192.5 -59.5q100 0 189 46.5t151 121t111 163t77.5 178t43 159.5t14.5 114v42.5t1.5 34t4.5 29.5t8.5 19.5t14 14t20.5 3.5
q25 0 109 -41q20 -10 27.5 -20.5t7.5 -32.5q0 -12 -14 -57.5t-40 -117t-67.5 -157t-92.5 -175.5t-120 -173.5t-145 -149.5t-172 -105.5t-197 -39.5q-78 0 -178 58.5t-196.5 150.5t-191 207.5t-165.5 227.5t-114.5 212.5t-43.5 161.5zM655 1237q0 13 8 39.5t17 34.5
q139 118 178 147t68 29q55 0 110 -31t90 -70.5t56.5 -73t21.5 -42.5q0 -10 -12.5 -16.5t-24.5 -6.5q-18 0 -111.5 60.5t-115.5 60.5q-25 0 -144.5 -75.5t-125.5 -75.5t-10.5 6t-4.5 14z" />
    <glyph glyph-name="Udieresis" unicode="&#xdc;" horiz-adv-x="1857" 
d="M43 1075q0 40 47 60q20 9 67.5 19.5t69.5 10.5q39 0 39 -51q0 -15 -5 -72t-5 -94q0 -55 47.5 -148.5t128.5 -195.5t175.5 -193t201 -150.5t192.5 -59.5q100 0 189 46.5t151 121t111 163t77.5 178t43 159.5t14.5 114v42.5t1.5 34t4.5 29.5t8.5 19.5t14 14t20.5 3.5
q25 0 109 -41q20 -10 27.5 -20.5t7.5 -32.5q0 -12 -14 -57.5t-40 -117t-67.5 -157t-92.5 -175.5t-120 -173.5t-145 -149.5t-172 -105.5t-197 -39.5q-78 0 -178 58.5t-196.5 150.5t-191 207.5t-165.5 227.5t-114.5 212.5t-43.5 161.5zM633 1339q0 34 32 85t62 51
q21 0 59.5 -41t38.5 -64q0 -18 -15.5 -37t-66.5 -53q-15 -10 -38 -10q-14 0 -43 27t-29 42zM1022 1386q0 14 45 45t61 31q19 0 59 -40.5t40 -59.5q0 -16 -24 -54t-38 -38q-53 0 -98 41.5t-45 74.5z" />
    <glyph glyph-name="Yacute" unicode="&#xdd;" horiz-adv-x="1744" 
d="M1567 1098q0 6 -2 17.5t-2 17.5q0 24 26 24q31 0 88.5 -22.5t57.5 -42.5q0 -30 -86 -168.5t-221.5 -341.5t-180.5 -275q-30 -48 -43.5 -113t-13.5 -198q0 -16 2 -52.5t2 -56.5q0 -26 -66 -42.5t-98 -16.5q-16 0 -16 22t12 50t24.5 71.5t12.5 104.5q0 46 -8 78t-45 85.5
t-97.5 111.5t-182.5 161t-281.5 228t-411.5 319q-35 26 -35 76q0 21 49 59.5t94 38.5q10 0 16.5 -10t11 -23.5t14.5 -32t24 -32.5q187 -178 413.5 -368.5t348.5 -297t157 -170.5q43 90 200 346.5t196 323.5q41 72 41 129zM1075 1507q16 0 47 -19t31 -36t-28.5 -45t-90.5 -61
q-4 -2 -70.5 -38t-120 -63.5t-59.5 -27.5q-26 0 -26 26q0 19 20 33l236 194q42 37 61 37z" />
    <glyph glyph-name="Thorn" unicode="&#xde;" horiz-adv-x="1062" 
d="M907 672q0 -103 -16 -154q-17 -51 -118.5 -149.5t-135.5 -98.5q-33 0 -84 20t-51 38q0 13 13.5 21t66.5 26q82 28 130 92t48 111q0 66 -17.5 126t-58 104t-96.5 44q-46 0 -156 -45q-14 -157 -14 -657q0 -110 -14.5 -150.5t-55.5 -40.5q-30 0 -44.5 31t-14.5 104
q0 42 -3 381.5t-3 409.5q0 45 -14 81t-28 60.5t-14 42.5q0 35 61.5 84t90.5 49q15 0 49.5 -16.5t34.5 -28.5q0 -6 -17 -59q-12 -40 -12 -160q66 20 107 20q40 0 126 -21.5t113 -43.5q57 -45 92 -105t35 -116z" />
    <glyph glyph-name="germandbls" unicode="&#xdf;" horiz-adv-x="1593" 
d="M166 84q0 21 9 31t20 10q15 0 67.5 -19.5t95.5 -19.5q53 0 88 37t35 84q0 55 -40.5 153.5t-89.5 189.5t-89.5 189t-40.5 152q0 28 17.5 75.5t50 101.5t72.5 102t92 80t102 32q45 0 104.5 -15.5t59.5 -43.5q0 -41 -16 -54t-72 -14q-128 -3 -191 -60.5t-63 -146.5
q0 -47 35 -134.5t76.5 -173t76.5 -193t35 -189.5q0 -17 -6 -49.5t-23.5 -79.5t-43 -87.5t-70 -69.5t-99.5 -29q-40 0 -105.5 23t-72.5 44q-14 44 -14 74zM963 84q0 21 8.5 31t19.5 10q15 0 68 -19.5t96 -19.5q53 0 88 37t35 84q0 55 -40.5 153.5t-89.5 189.5t-89.5 189
t-40.5 152q0 28 17.5 75.5t50 101.5t72.5 102t92 80t102 32q45 0 104.5 -15.5t59.5 -43.5q0 -40 -16.5 -53.5t-72.5 -14.5q-128 -3 -190.5 -60t-62.5 -147q0 -47 35 -134.5t76.5 -173t76.5 -193t35 -189.5q0 -17 -6 -49.5t-23.5 -79.5t-43 -87.5t-70 -69.5t-99.5 -29
q-40 0 -105.5 23t-72.5 44q-14 44 -14 74z" />
    <glyph glyph-name="agrave" unicode="&#xe0;" horiz-adv-x="1366" 
d="M563 432q-102 0 -128 -9.5t-44 -55.5q-14 -38 -72 -153t-63 -140q-10 -57 -39 -60q-21 -2 -64 -5.5t-74 -6t-36 -2.5q-9 0 -14.5 11t-5.5 22q0 28 5 38t19 13q84 20 115 106q3 9 109 201t202 397.5t96 286.5q0 7 -13 43t-13 43q0 20 43 46t67 26q13 0 38.5 -26t41.5 -60
q18 -37 87 -186t127 -264t128 -238q55 -96 102.5 -171t75.5 -113t48 -63t28 -34.5t8 -14.5q0 -36 -47 -36q-23 0 -81 9t-79 15q-32 8 -51 74q-12 42 -67.5 153t-73.5 119q-36 19 -155.5 27t-219.5 8zM514 526h371l-162 318q-13 23 -23.5 50.5t-16 37.5t-13.5 10
q-7 0 -14 -14t-14.5 -39t-12.5 -35l-107 -217q-43 -85 -43 -96q0 -15 35 -15zM537 1460q0 19 24 45.5t41 26.5q56 0 66 -31q28 -86 82 -143l40 -45q41 -45 41 -51q0 -8 -23 -14.5t-34 -6.5q-24 0 -81.5 42.5t-106.5 96t-49 80.5z" />
    <glyph glyph-name="aacute" unicode="&#xe1;" horiz-adv-x="1366" 
d="M563 432q-102 0 -128 -9.5t-44 -55.5q-14 -38 -72 -153t-63 -140q-10 -57 -39 -60q-21 -2 -64 -5.5t-74 -6t-36 -2.5q-9 0 -14.5 11t-5.5 22q0 28 5 38t19 13q84 20 115 106q3 9 109 201t202 397.5t96 286.5q0 7 -13 43t-13 43q0 20 43 46t67 26q13 0 38.5 -26t41.5 -60
q18 -37 87 -186t127 -264t128 -238q55 -96 102.5 -171t75.5 -113t48 -63t28 -34.5t8 -14.5q0 -36 -47 -36q-23 0 -81 9t-79 15q-32 8 -51 74q-12 42 -67.5 153t-73.5 119q-36 19 -155.5 27t-219.5 8zM514 526h371l-162 318q-13 23 -23.5 50.5t-16 37.5t-13.5 10
q-7 0 -14 -14t-14.5 -39t-12.5 -35l-107 -217q-43 -85 -43 -96q0 -15 35 -15zM770 1532q16 0 47 -19t31 -36t-28.5 -45.5t-90.5 -61.5q-4 -2 -70.5 -38t-120 -63.5t-59.5 -27.5q-26 0 -26 27q0 18 20 32l236 195q42 37 61 37z" />
    <glyph glyph-name="acircumflex" unicode="&#xe2;" horiz-adv-x="1366" 
d="M563 432q-102 0 -128 -9.5t-44 -55.5q-14 -38 -72 -153t-63 -140q-10 -57 -39 -60q-21 -2 -64 -5.5t-74 -6t-36 -2.5q-9 0 -14.5 11t-5.5 22q0 28 5 38t19 13q84 20 115 106q3 9 109 201t202 397.5t96 286.5q0 7 -13 43t-13 43q0 20 43 46t67 26q13 0 38.5 -26t41.5 -60
q18 -37 87 -186t127 -264t128 -238q55 -96 102.5 -171t75.5 -113t48 -63t28 -34.5t8 -14.5q0 -36 -47 -36q-23 0 -81 9t-79 15q-32 8 -51 74q-12 42 -67.5 153t-73.5 119q-36 19 -155.5 27t-219.5 8zM514 526h371l-162 318q-13 23 -23.5 50.5t-16 37.5t-13.5 10
q-7 0 -14 -14t-14.5 -39t-12.5 -35l-107 -217q-43 -85 -43 -96q0 -15 35 -15zM385 1262q0 13 8 39t17 34q161 138 193 158q29 18 52 18q55 0 110 -31t90 -70.5t57 -73t22 -42.5q0 -10 -12.5 -16t-24.5 -6q-18 0 -111.5 60.5t-115.5 60.5q-25 0 -145 -76t-126 -76t-10 6.5
t-4 14.5z" />
    <glyph glyph-name="atilde" unicode="&#xe3;" horiz-adv-x="1366" 
d="M563 432q-102 0 -128 -9.5t-44 -55.5q-14 -38 -72 -153t-63 -140q-10 -57 -39 -60q-21 -2 -64 -5.5t-74 -6t-36 -2.5q-9 0 -14.5 11t-5.5 22q0 28 5 38t19 13q84 20 115 106q3 9 109 201t202 397.5t96 286.5q0 7 -13 43t-13 43q0 20 43 46t67 26q13 0 38.5 -26t41.5 -60
q18 -37 87 -186t127 -264t128 -238q55 -96 102.5 -171t75.5 -113t48 -63t28 -34.5t8 -14.5q0 -36 -47 -36q-23 0 -81 9t-79 15q-32 8 -51 74q-12 42 -67.5 153t-73.5 119q-36 19 -155.5 27t-219.5 8zM514 526h371l-162 318q-13 23 -23.5 50.5t-16 37.5t-13.5 10
q-7 0 -14 -14t-14.5 -39t-12.5 -35l-107 -217q-43 -85 -43 -96q0 -15 35 -15zM340 1317q0 29 55.5 88t93.5 59q45 0 107.5 -22.5t113.5 -45t68 -22.5q18 0 77.5 49.5t64.5 49.5q8 0 16 -15t8 -28q0 -27 -63.5 -94.5t-102.5 -67.5q-51 0 -155.5 45t-130.5 45q-19 0 -71.5 -38
t-62.5 -38q-7 0 -12.5 11t-5.5 24z" />
    <glyph glyph-name="adieresis" unicode="&#xe4;" horiz-adv-x="1366" 
d="M563 432q-102 0 -128 -9.5t-44 -55.5q-14 -38 -72 -153t-63 -140q-10 -57 -39 -60q-21 -2 -64 -5.5t-74 -6t-36 -2.5q-9 0 -14.5 11t-5.5 22q0 28 5 38t19 13q84 20 115 106q3 9 109 201t202 397.5t96 286.5q0 7 -13 43t-13 43q0 20 43 46t67 26q13 0 38.5 -26t41.5 -60
q18 -37 87 -186t127 -264t128 -238q55 -96 102.5 -171t75.5 -113t48 -63t28 -34.5t8 -14.5q0 -36 -47 -36q-23 0 -81 9t-79 15q-32 8 -51 74q-12 42 -67.5 153t-73.5 119q-36 19 -155.5 27t-219.5 8zM514 526h371l-162 318q-13 23 -23.5 50.5t-16 37.5t-13.5 10
q-7 0 -14 -14t-14.5 -39t-12.5 -35l-107 -217q-43 -85 -43 -96q0 -15 35 -15zM362 1364q0 34 32.5 84.5t62.5 50.5q21 0 59.5 -40.5t38.5 -63.5q0 -18 -15.5 -37t-66.5 -53q-17 -11 -39 -11q-14 0 -43 27.5t-29 42.5zM752 1411q0 14 45 45t61 31q19 0 58.5 -41t39.5 -60
q0 -17 -23.5 -54.5t-37.5 -37.5q-53 0 -98 42t-45 75z" />
    <glyph glyph-name="aring" unicode="&#xe5;" horiz-adv-x="1366" 
d="M563 432q-102 0 -128 -9.5t-44 -55.5q-14 -38 -72 -153t-63 -140q-10 -57 -39 -60q-21 -2 -64 -5.5t-74 -6t-36 -2.5q-9 0 -14.5 11t-5.5 22q0 28 5 38t19 13q84 20 115 106q3 9 109 201t202 397.5t96 286.5q0 7 -13 43t-13 43q0 20 43 46t67 26q13 0 38.5 -26t41.5 -60
q18 -37 87 -186t127 -264t128 -238q55 -96 102.5 -171t75.5 -113t48 -63t28 -34.5t8 -14.5q0 -36 -47 -36q-23 0 -81 9t-79 15q-32 8 -51 74q-12 42 -67.5 153t-73.5 119q-36 19 -155.5 27t-219.5 8zM514 526h371l-162 318q-13 23 -23.5 50.5t-16 37.5t-13.5 10
q-7 0 -14 -14t-14.5 -39t-12.5 -35l-107 -217q-43 -85 -43 -96q0 -15 35 -15zM453 1397q0 20 10 47t22 37q14 13 45.5 28.5t49.5 20.5q36 10 118 10q46 0 82 -12q29 -10 57.5 -42.5t28.5 -64.5q0 -59 -52.5 -107t-149.5 -48q-140 0 -177 32q-34 31 -34 99zM547 1374
q0 -39 90 -39q55 0 89 16.5t34 45.5q0 14 -11 37t-28 28q-21 8 -72 8q-30 0 -43 -5.5t-26 -20.5q-33 -35 -33 -70z" />
    <glyph glyph-name="ae" unicode="&#xe6;" horiz-adv-x="1478" 
d="M2 49q0 10 23 39q120 150 223.5 290.5t190.5 273t125 192t106 170.5q49 83 49 143q0 21 14 29q30 16 69.5 31.5t59.5 15.5q33 0 33 -47q42 0 119.5 -1t105.5 -1q45 0 110.5 5t84.5 5q12 0 20 -7t8 -16q0 -11 -29 -50t-46 -42q-91 -14 -357 -14q-6 -100 -6 -391
q292 10 350 10q39 0 39 -33q0 -23 -13.5 -47.5t-33.5 -25.5l-342 -25q0 -55 13 -215q7 -94 68.5 -169t127.5 -75q34 0 107 -2t110 -2q9 0 16 -7t7 -15q0 -13 -19 -50q-11 -20 -35 -27t-88 -7q-200 0 -241 18q-113 53 -151.5 119t-41.5 215q-49 0 -167.5 -16.5t-194.5 -30.5
q-73 -15 -103 -44t-100 -147q-49 -84 -73.5 -111.5t-43.5 -27.5q-12 0 -53 39.5t-41 50.5zM778 436v500q0 11 1 24.5t1 16.5q0 6 -12 6q-6 0 -14 -14t-18 -37t-17 -33q-72 -114 -165.5 -252t-125.5 -180q-20 -27 -20 -41q0 -18 32 -18q117 0 338 28z" />
    <glyph glyph-name="ccedilla" unicode="&#xe7;" horiz-adv-x="1214" 
d="M629 -57l26 49h-6q-50 0 -105 15.5t-115 53t-107 92.5t-78 143.5t-31 195.5q0 123 25.5 226.5t67 175t99.5 127.5t118.5 89.5t128.5 55t124 29t111 7.5q78 0 129 -31t51 -65q0 -25 -42.5 -63.5t-68.5 -38.5q-10 0 -23 14.5t-26 31.5t-38 31.5t-56 14.5q-81 0 -150 -25.5
t-115.5 -65.5t-83 -94t-58 -108t-35 -110t-18.5 -96t-5 -71q0 -48 16.5 -105.5t48.5 -114.5t74.5 -103.5t100 -75.5t119.5 -29q69 0 135 26t106.5 57t77 57t51.5 26q20 0 31.5 -12t11.5 -31q0 -20 -53 -75.5t-115 -90.5q-71 -43 -227 -57q-29 -60 -29 -76t99 -49
q36 -12 49.5 -32t13.5 -56q0 -42 -29.5 -75.5t-72.5 -51.5t-84 -27.5t-72 -9.5q-13 0 -24 9t-11 22q0 16 27 22q49 10 94 42t45 55q0 43 -20 53l-74 35q-23 11 -23 35q0 19 15 49z" />
    <glyph glyph-name="egrave" unicode="&#xe8;" horiz-adv-x="985" 
d="M469 655h276q39 0 39 -24q0 -14 -38.5 -47.5t-57.5 -34.5q-76 -6 -311 -12q0 -247 97.5 -370.5t305.5 -123.5q45 0 60.5 -8.5t15.5 -34.5q0 -21 -33.5 -36t-105.5 -15q-97 0 -174.5 20t-128.5 51t-88 79t-57 94t-31 107.5t-14 106.5t-3 103q0 159 25 284.5t66.5 206.5
t99.5 134.5t121 75.5t135 22q84 0 115.5 -13.5t31.5 -48.5q0 -21 -10.5 -33t-28.5 -12h-121q-42 0 -77 -12.5t-70 -46.5t-60.5 -89t-44.5 -145t-26 -210q41 32 92 32zM387 1501q0 19 24.5 45.5t41.5 26.5q55 0 65 -31q28 -86 82 -143q13 -14 25.5 -28t20 -22t14.5 -16
l10.5 -12t6.5 -8t4 -6t1 -4q0 -8 -23 -14.5t-34 -6.5q-24 0 -82 42.5t-107 96t-49 80.5z" />
    <glyph glyph-name="eacute" unicode="&#xe9;" horiz-adv-x="985" 
d="M469 655h276q39 0 39 -24q0 -14 -38.5 -47.5t-57.5 -34.5q-76 -6 -311 -12q0 -247 97.5 -370.5t305.5 -123.5q45 0 60.5 -8.5t15.5 -34.5q0 -21 -33.5 -36t-105.5 -15q-97 0 -174.5 20t-128.5 51t-88 79t-57 94t-31 107.5t-14 106.5t-3 103q0 159 25 284.5t66.5 206.5
t99.5 134.5t121 75.5t135 22q84 0 115.5 -13.5t31.5 -48.5q0 -21 -10.5 -33t-28.5 -12h-121q-42 0 -77 -12.5t-70 -46.5t-60.5 -89t-44.5 -145t-26 -210q41 32 92 32zM737 1573q16 0 47 -19t31 -36t-28.5 -45.5t-90.5 -61.5q-4 -2 -70.5 -38t-120 -63.5t-59.5 -27.5
q-26 0 -26 27q0 18 20 32l236 195q42 37 61 37z" />
    <glyph glyph-name="ecircumflex" unicode="&#xea;" horiz-adv-x="985" 
d="M469 655h276q39 0 39 -24q0 -14 -38.5 -47.5t-57.5 -34.5q-76 -6 -311 -12q0 -247 97.5 -370.5t305.5 -123.5q45 0 60.5 -8.5t15.5 -34.5q0 -21 -33.5 -36t-105.5 -15q-97 0 -174.5 20t-128.5 51t-88 79t-57 94t-31 107.5t-14 106.5t-3 103q0 159 25 284.5t66.5 206.5
t99.5 134.5t121 75.5t135 22q84 0 115.5 -13.5t31.5 -48.5q0 -21 -10.5 -33t-28.5 -12h-121q-42 0 -77 -12.5t-70 -46.5t-60.5 -89t-44.5 -145t-26 -210q41 32 92 32zM291 1303q0 13 7.5 39t16.5 34q139 118 178 147t68 29q55 0 110 -31t90 -70.5t57 -73t22 -42.5
q0 -10 -12.5 -16t-24.5 -6q-18 0 -112 60.5t-116 60.5q-25 0 -144.5 -76t-125.5 -76t-10 6.5t-4 14.5z" />
    <glyph glyph-name="edieresis" unicode="&#xeb;" horiz-adv-x="985" 
d="M469 655h276q39 0 39 -24q0 -14 -38.5 -47.5t-57.5 -34.5q-76 -6 -311 -12q0 -247 97.5 -370.5t305.5 -123.5q45 0 60.5 -8.5t15.5 -34.5q0 -21 -33.5 -36t-105.5 -15q-97 0 -174.5 20t-128.5 51t-88 79t-57 94t-31 107.5t-14 106.5t-3 103q0 159 25 284.5t66.5 206.5
t99.5 134.5t121 75.5t135 22q84 0 115.5 -13.5t31.5 -48.5q0 -21 -10.5 -33t-28.5 -12h-121q-42 0 -77 -12.5t-70 -46.5t-60.5 -89t-44.5 -145t-26 -210q41 32 92 32zM268 1405q0 34 32 84.5t62 50.5q21 0 60 -40.5t39 -63.5q0 -18 -15.5 -37t-66.5 -53q-16 -11 -39 -11
q-14 0 -43 27.5t-29 42.5zM657 1452q0 14 45.5 45t61.5 31q19 0 58.5 -41t39.5 -60q0 -17 -23.5 -54.5t-37.5 -37.5q-53 0 -98.5 42t-45.5 75z" />
    <glyph glyph-name="igrave" unicode="&#xec;" horiz-adv-x="681" 
d="M274 633q0 81 -3 170t-3 115q0 63 -16 81q-35 40 -35 74q0 26 62 77.5t90 51.5q23 0 51.5 -17.5t28.5 -29.5q0 -16 -10 -52t-11 -59q-18 -272 -18 -882q0 -118 -15.5 -161.5t-50.5 -43.5q-26 0 -37 12.5t-20 85t-11 197.5t-2 381zM236 1460q0 19 24 45.5t41 26.5
q56 0 66 -31q28 -86 82 -143l40 -45q41 -45 41 -51q0 -8 -23 -14.5t-34 -6.5q-24 0 -81.5 42.5t-106.5 96t-49 80.5z" />
    <glyph glyph-name="iacute" unicode="&#xed;" horiz-adv-x="681" 
d="M274 633q0 81 -3 170t-3 115q0 63 -16 81q-35 40 -35 74q0 26 62 77.5t90 51.5q23 0 51.5 -17.5t28.5 -29.5q0 -16 -10 -52t-11 -59q-18 -272 -18 -882q0 -118 -15.5 -161.5t-50.5 -43.5q-26 0 -37 12.5t-20 85t-11 197.5t-2 381zM453 1532q16 0 46.5 -19t30.5 -36
t-28 -45.5t-90 -61.5q-4 -2 -70.5 -38t-120 -63.5t-59.5 -27.5q-27 0 -27 27q0 17 21 32l235 195q42 37 62 37z" />
    <glyph glyph-name="icircumflex" unicode="&#xee;" horiz-adv-x="681" 
d="M274 633q0 81 -3 170t-3 115q0 63 -16 81q-35 40 -35 74q0 26 62 77.5t90 51.5q23 0 51.5 -17.5t28.5 -29.5q0 -16 -10 -52t-11 -59q-18 -272 -18 -882q0 -118 -15.5 -161.5t-50.5 -43.5q-26 0 -37 12.5t-20 85t-11 197.5t-2 381zM68 1262q0 13 7.5 39t16.5 34
q139 118 178 147t68 29q55 0 110 -31t90 -70.5t56.5 -73t21.5 -42.5q0 -10 -12 -16t-24 -6q-18 0 -112 60.5t-116 60.5q-25 0 -144.5 -76t-125.5 -76t-10 6.5t-4 14.5z" />
    <glyph glyph-name="idieresis" unicode="&#xef;" horiz-adv-x="681" 
d="M274 633q0 81 -3 170t-3 115q0 63 -16 81q-35 40 -35 74q0 26 62 77.5t90 51.5q23 0 51.5 -17.5t28.5 -29.5q0 -16 -10 -52t-11 -59q-18 -272 -18 -882q0 -118 -15.5 -161.5t-50.5 -43.5q-26 0 -37 12.5t-20 85t-11 197.5t-2 381zM45 1364q0 34 32 84.5t62 50.5
q21 0 60 -40.5t39 -63.5q0 -18 -15.5 -37t-66.5 -53q-16 -11 -39 -11q-14 0 -43 27.5t-29 42.5zM434 1411q0 14 45.5 45t61.5 31q19 0 58.5 -41t39.5 -60q0 -17 -23.5 -54.5t-37.5 -37.5q-53 0 -98.5 42t-45.5 75z" />
    <glyph glyph-name="eth" unicode="&#xf0;" horiz-adv-x="1327" 
d="M1081 735q0 -212 -28 -330.5t-101 -220.5q-39 -55 -147.5 -106.5t-199.5 -77t-120 -25.5q-16 0 -44 4.5t-31 4.5l-115 16q-37 5 -51.5 12t-14.5 23q0 14 9 25.5t20.5 21t22 35t12.5 63.5q14 310 14 406q-37 0 -65 -5t-40 -11.5t-22.5 -11.5t-17.5 -5q-10 0 -27.5 40.5
t-17.5 72.5q0 21 15.5 30t57.5 9q10 0 117 -5q0 80 -11 180.5t-24 159.5q-3 15 -16.5 21.5t-27 6t-24.5 7.5t-11 27q0 29 14.5 40.5t68.5 26.5l144 41q85 23 115 23q12 0 38.5 -2.5t80.5 -14t107 -30.5t112.5 -57.5t104 -88.5t74 -129.5t29.5 -175.5zM434 1083v-395
q140 4 240 4q42 0 59 -7.5t17 -25.5q0 -15 -25.5 -32.5t-71.5 -30.5q-38 -10 -166 -10h-53v-82q0 -53 -1 -152t-1 -139q0 -74 15.5 -96.5t54.5 -22.5q80 0 142.5 15t118.5 55t92.5 104.5t57.5 167t21 240.5q0 97 -30 177.5t-74 129t-96 82.5t-92.5 47.5t-66.5 13.5
q-33 0 -73.5 -13t-67.5 -30z" />
    <glyph glyph-name="ntilde" unicode="&#xf1;" horiz-adv-x="1896" 
d="M373 629q0 95 -26 163.5t-85 131.5q-102 111 -129 145t-27 53q0 20 28.5 42t64.5 22q9 0 20 -7t52 -43t116 -108q323 -311 563 -488t559 -343q17 169 17 276q0 143 -13 477q-1 38 -11.5 66t-21.5 41t-20.5 28t-9.5 29q0 31 51 48.5t98 17.5q68 0 68 -41q0 -3 -8.5 -58.5
t-17.5 -221.5t-9 -437q0 -108 11.5 -213.5t11.5 -130.5q0 -47 -49 -78t-86 -31q-14 0 -27 28.5t-36 68t-58 59.5q-468 269 -627.5 375t-279.5 219q0 -3 -19.5 -263.5t-42.5 -377.5q-9 -44 -31.5 -69t-48.5 -25q-25 0 -55.5 18t-30.5 41q0 15 17 64t37.5 110t37.5 173.5
t17 238.5zM629 1292q0 29 55.5 88.5t93.5 59.5q45 0 107.5 -22.5t113.5 -45t68 -22.5q18 0 77 49t64 49q8 0 16.5 -15t8.5 -28q0 -27 -63.5 -94.5t-102.5 -67.5q-51 0 -156 45t-131 45q-19 0 -71 -38t-62 -38q-7 0 -12.5 11t-5.5 24z" />
    <glyph glyph-name="ograve" unicode="&#xf2;" horiz-adv-x="1290" 
d="M180 559q0 83 18 164t59 158.5t100 136.5t149 95t199 36q84 0 156 -32.5t128.5 -97t88.5 -171t32 -244.5q0 -131 -42 -239t-112.5 -177t-159 -106t-184.5 -37q-79 0 -155 33.5t-138.5 95.5t-100.5 162t-38 223zM328 592q0 -28 6.5 -65.5t20.5 -86t40.5 -94t62 -84.5
t89.5 -62.5t119 -23.5q38 0 76.5 10t81.5 38t75.5 71t54 117t21.5 168q0 121 -25.5 211t-70 140.5t-98 74.5t-115.5 24q-104 0 -182 -61t-117 -159t-39 -218zM498 1460q0 19 24 45.5t41 26.5q56 0 66 -31q28 -86 82 -143q13 -14 25.5 -28t20 -22t14.5 -16l10.5 -12t6.5 -8
t4 -6t1 -4q0 -8 -23 -14.5t-35 -6.5q-24 0 -81.5 42.5t-106.5 96t-49 80.5z" />
    <glyph glyph-name="oacute" unicode="&#xf3;" horiz-adv-x="1290" 
d="M180 559q0 83 18 164t59 158.5t100 136.5t149 95t199 36q84 0 156 -32.5t128.5 -97t88.5 -171t32 -244.5q0 -131 -42 -239t-112.5 -177t-159 -106t-184.5 -37q-79 0 -155 33.5t-138.5 95.5t-100.5 162t-38 223zM328 592q0 -28 6.5 -65.5t20.5 -86t40.5 -94t62 -84.5
t89.5 -62.5t119 -23.5q38 0 76.5 10t81.5 38t75.5 71t54 117t21.5 168q0 121 -25.5 211t-70 140.5t-98 74.5t-115.5 24q-104 0 -182 -61t-117 -159t-39 -218zM827 1532q16 0 47 -19t31 -36t-28.5 -45.5t-90.5 -61.5q-5 -3 -70.5 -38.5t-119 -63t-59.5 -27.5q-27 0 -27 27
q0 18 20 32l236 195q42 37 61 37z" />
    <glyph glyph-name="ocircumflex" unicode="&#xf4;" horiz-adv-x="1290" 
d="M180 559q0 83 18 164t59 158.5t100 136.5t149 95t199 36q84 0 156 -32.5t128.5 -97t88.5 -171t32 -244.5q0 -131 -42 -239t-112.5 -177t-159 -106t-184.5 -37q-79 0 -155 33.5t-138.5 95.5t-100.5 162t-38 223zM328 592q0 -28 6.5 -65.5t20.5 -86t40.5 -94t62 -84.5
t89.5 -62.5t119 -23.5q38 0 76.5 10t81.5 38t75.5 71t54 117t21.5 168q0 121 -25.5 211t-70 140.5t-98 74.5t-115.5 24q-104 0 -182 -61t-117 -159t-39 -218zM371 1262q0 13 7.5 39t16.5 34q139 118 178 147t68 29q55 0 110 -31t90 -70.5t57 -73t22 -42.5q0 -10 -12.5 -16
t-24.5 -6q-18 0 -112 60.5t-116 60.5q-25 0 -144.5 -76t-125.5 -76t-10 6.5t-4 14.5z" />
    <glyph glyph-name="otilde" unicode="&#xf5;" horiz-adv-x="1290" 
d="M180 559q0 83 18 164t59 158.5t100 136.5t149 95t199 36q84 0 156 -32.5t128.5 -97t88.5 -171t32 -244.5q0 -131 -42 -239t-112.5 -177t-159 -106t-184.5 -37q-79 0 -155 33.5t-138.5 95.5t-100.5 162t-38 223zM328 592q0 -28 6.5 -65.5t20.5 -86t40.5 -94t62 -84.5
t89.5 -62.5t119 -23.5q38 0 76.5 10t81.5 38t75.5 71t54 117t21.5 168q0 121 -25.5 211t-70 140.5t-98 74.5t-115.5 24q-104 0 -182 -61t-117 -159t-39 -218zM352 1317q0 29 55.5 88t94.5 59q45 0 107.5 -22.5t113.5 -45t68 -22.5q18 0 77 49.5t64 49.5q8 0 16 -15t8 -28
q0 -27 -63 -94.5t-102 -67.5q-51 0 -156 45t-131 45q-19 0 -71 -38t-62 -38q-7 0 -13 11.5t-6 23.5z" />
    <glyph glyph-name="odieresis" unicode="&#xf6;" horiz-adv-x="1290" 
d="M180 559q0 83 18 164t59 158.5t100 136.5t149 95t199 36q84 0 156 -32.5t128.5 -97t88.5 -171t32 -244.5q0 -131 -42 -239t-112.5 -177t-159 -106t-184.5 -37q-79 0 -155 33.5t-138.5 95.5t-100.5 162t-38 223zM328 592q0 -28 6.5 -65.5t20.5 -86t40.5 -94t62 -84.5
t89.5 -62.5t119 -23.5q38 0 76.5 10t81.5 38t75.5 71t54 117t21.5 168q0 121 -25.5 211t-70 140.5t-98 74.5t-115.5 24q-104 0 -182 -61t-117 -159t-39 -218zM348 1364q0 34 32 84.5t62 50.5q21 0 60 -40.5t39 -63.5q0 -18 -15.5 -37t-66.5 -53q-17 -11 -39 -11
q-14 0 -43 27.5t-29 42.5zM737 1411q0 14 45.5 45t61.5 31q19 0 58.5 -41t39.5 -60q0 -17 -23.5 -54.5t-37.5 -37.5q-53 0 -98.5 42t-45.5 75z" />
    <glyph glyph-name="divide" unicode="&#xf7;" horiz-adv-x="1161" 
d="M584 707h-2q-28 0 -50 21.5t-22 53.5q0 30 22 52t52 22q31 0 53 -21.5t22 -52.5q0 -32 -22 -53.5t-53 -21.5zM1057 422h-955v84h955v-84zM584 223h2q27 0 49 -22.5t22 -53.5q0 -29 -22.5 -53t-50.5 -24q-31 0 -53.5 23.5t-22.5 53.5q0 32 22 54t54 22z" />
    <glyph glyph-name="oslash" unicode="&#xf8;" horiz-adv-x="1290" 
d="M180 559q0 83 18 164t59 158.5t100 136.5t149 95t199 36q75 0 139 -27q58 134 83 173.5t46 39.5q18 0 38.5 -20.5t20.5 -38.5q0 -6 -4.5 -14t-17 -28.5t-25.5 -45.5q-7 -16 -26.5 -55t-28.5 -60q180 -132 180 -469q0 -131 -42 -239t-112.5 -177t-159 -106t-184.5 -37
q-73 0 -143 31q-39 -84 -92 -215q-3 -7 -27 -20t-31 -13q-24 0 -45 16q-16 10 -16 25q0 3 4 9.5t11 17.5t12 20q2 5 13 27t34 69t53 107q-93 64 -149 176t-56 264zM328 592q0 -67 31 -164t96 -162q167 334 313 682q22 52 23 53q-54 29 -125 29q-104 0 -182 -61t-117 -159
t-39 -218zM975 580q0 248 -109 364q-199 -410 -340 -733q59 -35 140 -35q38 0 76.5 10t81.5 38t75.5 71t54 117t21.5 168z" />
    <glyph glyph-name="ugrave" unicode="&#xf9;" horiz-adv-x="1857" 
d="M43 1075q0 40 47 60q20 9 67.5 19.5t69.5 10.5q39 0 39 -51q0 -15 -5 -72t-5 -94q0 -55 47.5 -148.5t128.5 -195.5t175.5 -193t201 -150.5t192.5 -59.5q100 0 189 46.5t151 121t111 163t77.5 178t43 159.5t14.5 114v42.5t1.5 34t4.5 29.5t8.5 19.5t14 14t20.5 3.5
q25 0 109 -41q20 -10 27.5 -20.5t7.5 -32.5q0 -12 -14 -57.5t-40 -117t-67.5 -157t-92.5 -175.5t-120 -173.5t-145 -149.5t-172 -105.5t-197 -39.5q-78 0 -178 58.5t-196.5 150.5t-191 207.5t-165.5 227.5t-114.5 212.5t-43.5 161.5zM782 1436q0 19 24.5 45t41.5 26
q29 0 44 -6t21 -24q29 -88 82 -144q13 -14 25.5 -28t20 -22t14.5 -16l10.5 -12t6.5 -8t4 -6t1 -4q0 -8 -22.5 -14t-34.5 -6q-24 0 -82 42.5t-107 96t-49 80.5z" />
    <glyph glyph-name="uacute" unicode="&#xfa;" horiz-adv-x="1857" 
d="M43 1075q0 40 47 60q20 9 67.5 19.5t69.5 10.5q39 0 39 -51q0 -15 -5 -72t-5 -94q0 -55 47.5 -148.5t128.5 -195.5t175.5 -193t201 -150.5t192.5 -59.5q100 0 189 46.5t151 121t111 163t77.5 178t43 159.5t14.5 114v42.5t1.5 34t4.5 29.5t8.5 19.5t14 14t20.5 3.5
q25 0 109 -41q20 -10 27.5 -20.5t7.5 -32.5q0 -12 -14 -57.5t-40 -117t-67.5 -157t-92.5 -175.5t-120 -173.5t-145 -149.5t-172 -105.5t-197 -39.5q-78 0 -178 58.5t-196.5 150.5t-191 207.5t-165.5 227.5t-114.5 212.5t-43.5 161.5zM1092 1507q16 0 46.5 -19t30.5 -36
t-28 -45t-90 -61q-4 -2 -70.5 -38t-120 -63.5t-59.5 -27.5q-27 0 -27 26q0 18 21 33l235 194q42 37 62 37z" />
    <glyph glyph-name="ucircumflex" unicode="&#xfb;" horiz-adv-x="1857" 
d="M43 1075q0 40 47 60q20 9 67.5 19.5t69.5 10.5q39 0 39 -51q0 -15 -5 -72t-5 -94q0 -55 47.5 -148.5t128.5 -195.5t175.5 -193t201 -150.5t192.5 -59.5q100 0 189 46.5t151 121t111 163t77.5 178t43 159.5t14.5 114v42.5t1.5 34t4.5 29.5t8.5 19.5t14 14t20.5 3.5
q25 0 109 -41q20 -10 27.5 -20.5t7.5 -32.5q0 -12 -14 -57.5t-40 -117t-67.5 -157t-92.5 -175.5t-120 -173.5t-145 -149.5t-172 -105.5t-197 -39.5q-78 0 -178 58.5t-196.5 150.5t-191 207.5t-165.5 227.5t-114.5 212.5t-43.5 161.5zM655 1237q0 13 8 39.5t17 34.5
q139 118 178 147t68 29q55 0 110 -31t90 -70.5t56.5 -73t21.5 -42.5q0 -10 -12.5 -16.5t-24.5 -6.5q-18 0 -111.5 60.5t-115.5 60.5q-25 0 -144.5 -75.5t-125.5 -75.5t-10.5 6t-4.5 14z" />
    <glyph glyph-name="udieresis" unicode="&#xfc;" horiz-adv-x="1857" 
d="M43 1075q0 40 47 60q20 9 67.5 19.5t69.5 10.5q39 0 39 -51q0 -15 -5 -72t-5 -94q0 -55 47.5 -148.5t128.5 -195.5t175.5 -193t201 -150.5t192.5 -59.5q100 0 189 46.5t151 121t111 163t77.5 178t43 159.5t14.5 114v42.5t1.5 34t4.5 29.5t8.5 19.5t14 14t20.5 3.5
q25 0 109 -41q20 -10 27.5 -20.5t7.5 -32.5q0 -12 -14 -57.5t-40 -117t-67.5 -157t-92.5 -175.5t-120 -173.5t-145 -149.5t-172 -105.5t-197 -39.5q-78 0 -178 58.5t-196.5 150.5t-191 207.5t-165.5 227.5t-114.5 212.5t-43.5 161.5zM633 1339q0 34 32 85t62 51
q21 0 59.5 -41t38.5 -64q0 -18 -15.5 -37t-66.5 -53q-15 -10 -38 -10q-14 0 -43 27t-29 42zM1022 1386q0 14 45 45t61 31q19 0 59 -40.5t40 -59.5q0 -16 -24 -54t-38 -38q-53 0 -98 41.5t-45 74.5z" />
    <glyph glyph-name="yacute" unicode="&#xfd;" horiz-adv-x="1744" 
d="M1567 1098q0 6 -2 17.5t-2 17.5q0 24 26 24q31 0 88.5 -22.5t57.5 -42.5q0 -30 -86 -168.5t-221.5 -341.5t-180.5 -275q-30 -48 -43.5 -113t-13.5 -198q0 -16 2 -52.5t2 -56.5q0 -26 -66 -42.5t-98 -16.5q-16 0 -16 22t12 50t24.5 71.5t12.5 104.5q0 46 -8 78t-45 85.5
t-97.5 111.5t-182.5 161t-281.5 228t-411.5 319q-35 26 -35 76q0 21 49 59.5t94 38.5q10 0 16.5 -10t11 -23.5t14.5 -32t24 -32.5q187 -178 413.5 -368.5t348.5 -297t157 -170.5q43 90 200 346.5t196 323.5q41 72 41 129zM1075 1507q16 0 47 -19t31 -36t-28.5 -45t-90.5 -61
q-4 -2 -70.5 -38t-120 -63.5t-59.5 -27.5q-26 0 -26 26q0 19 20 33l236 194q42 37 61 37z" />
    <glyph glyph-name="thorn" unicode="&#xfe;" horiz-adv-x="1062" 
d="M907 672q0 -103 -16 -154q-17 -51 -118.5 -149.5t-135.5 -98.5q-33 0 -84 20t-51 38q0 13 13.5 21t66.5 26q82 28 130 92t48 111q0 66 -17.5 126t-58 104t-96.5 44q-46 0 -156 -45q-14 -157 -14 -657q0 -110 -14.5 -150.5t-55.5 -40.5q-30 0 -44.5 31t-14.5 104
q0 42 -3 381.5t-3 409.5q0 45 -14 81t-28 60.5t-14 42.5q0 35 61.5 84t90.5 49q15 0 49.5 -16.5t34.5 -28.5q0 -6 -17 -59q-12 -40 -12 -160q66 20 107 20q40 0 126 -21.5t113 -43.5q57 -45 92 -105t35 -116z" />
    <glyph glyph-name="ydieresis" unicode="&#xff;" horiz-adv-x="1744" 
d="M1567 1098q0 6 -2 17.5t-2 17.5q0 24 26 24q31 0 88.5 -22.5t57.5 -42.5q0 -30 -86 -168.5t-221.5 -341.5t-180.5 -275q-30 -48 -43.5 -113t-13.5 -198q0 -16 2 -52.5t2 -56.5q0 -26 -66 -42.5t-98 -16.5q-16 0 -16 22t12 50t24.5 71.5t12.5 104.5q0 46 -8 78t-45 85.5
t-97.5 111.5t-182.5 161t-281.5 228t-411.5 319q-35 26 -35 76q0 21 49 59.5t94 38.5q10 0 16.5 -10t11 -23.5t14.5 -32t24 -32.5q187 -178 413.5 -368.5t348.5 -297t157 -170.5q43 90 200 346.5t196 323.5q41 72 41 129zM627 1339q0 34 32 85t62 51q21 0 59.5 -41t38.5 -64
q0 -18 -15.5 -37t-66.5 -53q-15 -10 -39 -10q-14 0 -42.5 27t-28.5 42zM1016 1386q0 14 45 45t61 31q19 0 59 -40.5t40 -59.5q0 -16 -24 -54t-38 -38q-53 0 -98 41.5t-45 74.5z" />
    <glyph glyph-name="dotlessi" unicode="&#x131;" horiz-adv-x="681" 
d="M274 633q0 81 -3 170t-3 115q0 63 -16 81q-35 40 -35 74q0 26 62 77.5t90 51.5q23 0 51.5 -17.5t28.5 -29.5q0 -16 -10 -52t-11 -59q-18 -272 -18 -882q0 -118 -15.5 -161.5t-50.5 -43.5q-26 0 -37 12.5t-20 85t-11 197.5t-2 381z" />
    <glyph glyph-name="Lslash" unicode="&#x141;" horiz-adv-x="1062" 
d="M629 29q-204 0 -234 -15q-28 -14 -63 -14q-22 0 -50 44t-28 60q0 9 20 38.5t21 60.5q4 86 4 467q-4 -2 -9 -6t-7 -5q-24 -15 -42 -34.5t-25.5 -33.5t-17.5 -24t-22 -10q-17 0 -46.5 23.5t-29.5 35.5q0 34 64 74l133 84q-3 108 -13 188.5t-20.5 113.5t-19 55.5t-8.5 29.5
q0 21 64 70t87 49t47.5 -14t24.5 -35q0 -11 -9.5 -45.5t-9.5 -55.5q0 -12 -6 -270q200 127 225 127q19 0 19 -18q0 -16 -17 -52t-34 -47q-63 -41 -197 -120q0 -32 2 -97t2 -106q0 -101 -12 -254t-12 -162q0 -16 24 -16q6 0 22 4t25 4l371 14q20 1 57.5 19t51.5 18
q34 0 34 -27q0 -21 -21 -84t-42 -63t-80 20q-27 9 -223 9z" />
    <glyph glyph-name="lslash" unicode="&#x142;" horiz-adv-x="1062" 
d="M629 29q-204 0 -234 -15q-28 -14 -63 -14q-22 0 -50 44t-28 60q0 9 20 38.5t21 60.5q4 86 4 467q-4 -2 -9 -6t-7 -5q-24 -15 -42 -34.5t-25.5 -33.5t-17.5 -24t-22 -10q-17 0 -46.5 23.5t-29.5 35.5q0 34 64 74l133 84q-3 108 -13 188.5t-20.5 113.5t-19 55.5t-8.5 29.5
q0 21 64 70t87 49t47.5 -14t24.5 -35q0 -11 -9.5 -45.5t-9.5 -55.5q0 -12 -6 -270q200 127 225 127q19 0 19 -18q0 -16 -17 -52t-34 -47q-63 -41 -197 -120q0 -32 2 -97t2 -106q0 -101 -12 -254t-12 -162q0 -16 24 -16q6 0 22 4t25 4l371 14q20 1 57.5 19t51.5 18
q34 0 34 -27q0 -21 -21 -84t-42 -63t-80 20q-27 9 -223 9z" />
    <glyph glyph-name="OE" unicode="&#x152;" horiz-adv-x="1744" 
d="M180 559q0 151 37.5 265.5t136.5 222.5q133 145 316 145q38 0 84 -17t91 -48.5t82 -84.5t52 -118h4q31 149 142 221t280 72q99 0 145.5 -4t58 -11t11.5 -22t-24 -42.5t-44 -27.5q-140 0 -229 -17t-152 -61t-92 -118t-37 -191q86 0 262 4t218 4q24 0 24 -24q0 -22 -20 -52
t-43 -30q-212 0 -439 -25q24 -235 126.5 -363t289.5 -128q21 0 64 1t59 1q25 0 25 -23q0 -13 -41 -63q-17 -21 -49 -28t-88 -7q-91 0 -170 35.5t-134 94.5t-92 129t-53 146h-4q-9 -59 -25 -111t-45.5 -103t-69.5 -87.5t-98 -59t-129 -22.5q-81 0 -161.5 51.5t-138.5 131
t-94 177t-36 187.5zM336 553q0 -194 83 -320.5t202 -126.5q56 0 102.5 28.5t77 73t54 104t36 115.5t20.5 113t10.5 91.5t2.5 56.5q0 55 -15.5 118.5t-44.5 124.5t-80.5 101.5t-115.5 40.5q-56 0 -92.5 -15.5t-77.5 -51.5q-91 -81 -126.5 -184.5t-35.5 -268.5z" />
    <glyph glyph-name="oe" unicode="&#x153;" horiz-adv-x="1744" 
d="M180 559q0 151 37.5 265.5t136.5 222.5q133 145 316 145q38 0 84 -17t91 -48.5t82 -84.5t52 -118h4q31 149 142 221t280 72q99 0 145.5 -4t58 -11t11.5 -22t-24 -42.5t-44 -27.5q-140 0 -229 -17t-152 -61t-92 -118t-37 -191q86 0 262 4t218 4q24 0 24 -24q0 -22 -20 -52
t-43 -30q-212 0 -439 -25q24 -235 126.5 -363t289.5 -128q21 0 64 1t59 1q25 0 25 -23q0 -13 -41 -63q-17 -21 -49 -28t-88 -7q-91 0 -170 35.5t-134 94.5t-92 129t-53 146h-4q-9 -59 -25 -111t-45.5 -103t-69.5 -87.5t-98 -59t-129 -22.5q-81 0 -161.5 51.5t-138.5 131
t-94 177t-36 187.5zM336 553q0 -194 83 -320.5t202 -126.5q56 0 102.5 28.5t77 73t54 104t36 115.5t20.5 113t10.5 91.5t2.5 56.5q0 55 -15.5 118.5t-44.5 124.5t-80.5 101.5t-115.5 40.5q-56 0 -92.5 -15.5t-77.5 -51.5q-91 -81 -126.5 -184.5t-35.5 -268.5z" />
    <glyph glyph-name="Scaron" unicode="&#x160;" horiz-adv-x="796" 
d="M166 84q0 21 9 31t20 10q15 0 67.5 -19.5t95.5 -19.5q53 0 88 37t35 84q0 55 -40.5 153.5t-89.5 189.5t-89.5 189t-40.5 152q0 28 17.5 75.5t50 101.5t72.5 102t92 80t102 32q45 0 104.5 -15.5t59.5 -43.5q0 -41 -16 -54t-72 -14q-128 -3 -191 -60.5t-63 -146.5
q0 -47 35 -134.5t76.5 -173t76.5 -193t35 -189.5q0 -17 -6 -49.5t-23.5 -79.5t-43 -87.5t-70 -69.5t-99.5 -29q-40 0 -105.5 23t-72.5 44q-14 44 -14 74zM416 1444q15 0 101.5 44t117.5 71q19 16 29 16q8 0 19 -17.5t11 -27.5q0 -36 -123 -120.5t-165 -84.5
q-19 0 -74.5 39.5t-102.5 82t-47 52.5q0 14 26 52t40 38t33 -22q32 -35 77.5 -79t57.5 -44z" />
    <glyph glyph-name="scaron" unicode="&#x161;" horiz-adv-x="796" 
d="M166 84q0 21 9 31t20 10q15 0 67.5 -19.5t95.5 -19.5q53 0 88 37t35 84q0 55 -40.5 153.5t-89.5 189.5t-89.5 189t-40.5 152q0 28 17.5 75.5t50 101.5t72.5 102t92 80t102 32q45 0 104.5 -15.5t59.5 -43.5q0 -41 -16 -54t-72 -14q-128 -3 -191 -60.5t-63 -146.5
q0 -47 35 -134.5t76.5 -173t76.5 -193t35 -189.5q0 -17 -6 -49.5t-23.5 -79.5t-43 -87.5t-70 -69.5t-99.5 -29q-40 0 -105.5 23t-72.5 44q-14 44 -14 74zM416 1444q15 0 101.5 44t117.5 71q19 16 29 16q8 0 19 -17.5t11 -27.5q0 -36 -123 -120.5t-165 -84.5
q-19 0 -74.5 39.5t-102.5 82t-47 52.5q0 14 26 52t40 38t33 -22q32 -35 77.5 -79t57.5 -44z" />
    <glyph glyph-name="Ydieresis" unicode="&#x178;" horiz-adv-x="1744" 
d="M1567 1098q0 6 -2 17.5t-2 17.5q0 24 26 24q31 0 88.5 -22.5t57.5 -42.5q0 -30 -86 -168.5t-221.5 -341.5t-180.5 -275q-30 -48 -43.5 -113t-13.5 -198q0 -16 2 -52.5t2 -56.5q0 -26 -66 -42.5t-98 -16.5q-16 0 -16 22t12 50t24.5 71.5t12.5 104.5q0 46 -8 78t-45 85.5
t-97.5 111.5t-182.5 161t-281.5 228t-411.5 319q-35 26 -35 76q0 21 49 59.5t94 38.5q10 0 16.5 -10t11 -23.5t14.5 -32t24 -32.5q187 -178 413.5 -368.5t348.5 -297t157 -170.5q43 90 200 346.5t196 323.5q41 72 41 129zM627 1339q0 34 32 85t62 51q21 0 59.5 -41t38.5 -64
q0 -18 -15.5 -37t-66.5 -53q-15 -10 -39 -10q-14 0 -42.5 27t-28.5 42zM1016 1386q0 14 45 45t61 31q19 0 59 -40.5t40 -59.5q0 -16 -24 -54t-38 -38q-53 0 -98 41.5t-45 74.5z" />
    <glyph glyph-name="Zcaron" unicode="&#x17d;" horiz-adv-x="1402" 
d="M59 205q0 50 18 80.5t70 74.5q94 79 347.5 329t330.5 341q-102 4 -294.5 18.5t-239.5 16.5q-24 1 -36.5 18.5t-12.5 40.5q0 35 23.5 72t53.5 37q21 0 77 -27.5t85 -29.5q359 -27 439 -27q11 0 33.5 9t35.5 9q11 0 25 -30t14 -58q0 -11 -26.5 -41.5t-116.5 -122.5
l-592 -602q-38 -38 -47.5 -50t-9.5 -23q0 -37 169 -105t391 -122t353 -54q87 0 131 31q40 28 66 28q12 0 27.5 -8.5t15.5 -19.5q0 -17 -61 -89.5t-87 -72.5q-21 0 -142 18t-296.5 53t-342 79t-284 105t-117.5 122zM668 1372q15 0 101.5 44t117.5 71q19 16 28 16
q8 0 19.5 -17.5t11.5 -27.5q0 -36 -123.5 -120.5t-165.5 -84.5q-19 0 -74 39.5t-102 82t-47 52.5q0 14 26 52.5t40 38.5q12 0 32 -23q31 -34 77.5 -78.5t58.5 -44.5z" />
    <glyph glyph-name="zcaron" unicode="&#x17e;" horiz-adv-x="1402" 
d="M59 205q0 50 18 80.5t70 74.5q94 79 347.5 329t330.5 341q-102 4 -294.5 18.5t-239.5 16.5q-24 1 -36.5 18.5t-12.5 40.5q0 35 23.5 72t53.5 37q21 0 77 -27.5t85 -29.5q359 -27 439 -27q11 0 33.5 9t35.5 9q11 0 25 -30t14 -58q0 -11 -26.5 -41.5t-116.5 -122.5
l-592 -602q-38 -38 -47.5 -50t-9.5 -23q0 -37 169 -105t391 -122t353 -54q87 0 131 31q40 28 66 28q12 0 27.5 -8.5t15.5 -19.5q0 -17 -61 -89.5t-87 -72.5q-21 0 -142 18t-296.5 53t-342 79t-284 105t-117.5 122zM668 1372q15 0 101.5 44t117.5 71q19 16 28 16
q8 0 19.5 -17.5t11.5 -27.5q0 -36 -123.5 -120.5t-165.5 -84.5q-19 0 -74 39.5t-102 82t-47 52.5q0 14 26 52.5t40 38.5q12 0 32 -23q31 -34 77.5 -78.5t58.5 -44.5z" />
    <glyph glyph-name="florin" unicode="&#x192;" horiz-adv-x="948" 
d="M-68 -174q0 40 5 51.5t18 11.5q7 0 29.5 -3t42.5 -3q80 0 109.5 18.5t47.5 71.5q27 80 52.5 171.5t37.5 139t37.5 160t30.5 131.5q-126 -4 -219 -4q-7 0 -15 6.5t-8 10.5q0 10 29 78q5 12 21 12q30 0 210 -10q13 84 43.5 222t40.5 159q25 52 123.5 118t139.5 66
q43 0 93.5 -12.5t57.5 -22.5q19 -29 19 -53q0 -21 -19 -21q-20 0 -60 1t-59 1q-46 0 -107 -63t-87 -182l-49 -222q16 0 60 -1t79 -1q27 0 55.5 1t32.5 1q18 0 18 -10q0 -7 -9.5 -18t-45.5 -47q-9 -9 -43 -9h-166q-5 -19 -41.5 -154.5t-64 -252t-31.5 -180.5
q-3 -41 -64 -109.5t-90 -79.5q-53 -22 -100 -22q-154 0 -154 49z" />
    <glyph glyph-name="circumflex" unicode="&#x2c6;" 
d="M10 1262q0 13 8 39t17 34q139 118 178 147t68 29q55 0 110 -31t90 -70.5t56.5 -73t21.5 -42.5q0 -10 -12.5 -16t-24.5 -6q-18 0 -111.5 60.5t-115.5 60.5q-25 0 -144.5 -76t-125.5 -76t-10.5 6.5t-4.5 14.5z" />
    <glyph glyph-name="caron" unicode="&#x2c7;" 
d="M250 1372q15 0 101.5 44t117.5 71q19 16 29 16q8 0 19 -17.5t11 -27.5q0 -36 -123 -120.5t-165 -84.5q-19 0 -74.5 39.5t-102.5 82t-47 52.5q0 14 26 52.5t40 38.5q13 0 33 -23q32 -35 77.5 -79t57.5 -44z" />
    <glyph glyph-name="uni02C9" unicode="&#x2c9;" 
d="M115 1313l184 153l82 64l14 2q18 0 48 -19t30 -32q0 -12 -7.5 -24t-26 -27t-25 -20t-29.5 -21l-266 -144q-9 -4 -15 -4h-12q-1 0 -5.5 4.5t-6.5 5.5l-2 13q0 14 5.5 20.5t31.5 28.5z" />
    <glyph glyph-name="breve" unicode="&#x2d8;" 
d="M2 1432q0 19 17.5 33t43.5 14q17 0 49.5 -21.5t71.5 -43t72 -21.5q41 0 97 25.5t101.5 51t61.5 25.5q12 0 19.5 -12.5t7.5 -28.5q0 -12 -27 -40.5t-67 -60t-95.5 -55.5t-103.5 -24q-46 0 -106 29.5t-101 67.5t-41 61z" />
    <glyph glyph-name="dotaccent" unicode="&#x2d9;" 
d="M188 1364q0 34 32.5 84.5t62.5 50.5q21 0 59.5 -40.5t38.5 -63.5q0 -18 -15.5 -37t-66.5 -53q-17 -11 -39 -11q-14 0 -43 27.5t-29 42.5z" />
    <glyph glyph-name="ring" unicode="&#x2da;" 
d="M78 1397q0 20 10.5 46.5t22.5 37.5q14 13 45 28.5t49 20.5q36 10 119 10q46 0 82 -12q29 -10 57.5 -42.5t28.5 -64.5q0 -59 -53 -107t-150 -48q-139 0 -176 32q-35 32 -35 99zM172 1374q0 -39 90 -39q55 0 89 16.5t34 45.5q0 14 -11 37t-28 28q-21 8 -72 8
q-30 0 -43 -5.5t-26 -20.5q-33 -35 -33 -70z" />
    <glyph glyph-name="ogonek" unicode="&#x2db;" 
d="M205 -186q0 33 8.5 50t32.5 30q27 15 86 39t76 24q10 0 20 -13t10 -32q0 -26 -14 -31q-7 -2 -92 -43q-21 -10 -21 -49q0 -25 9.5 -39t44.5 -31.5t112 -42.5q19 -6 19 -26q0 -7 -12 -18t-23 -11q-43 0 -108 22t-97 44q-51 35 -51 127z" />
    <glyph glyph-name="tilde" unicode="&#x2dc;" 
d="M-59 1317q0 29 55.5 88t93.5 59q45 0 107.5 -22.5t113.5 -45t68 -22.5q18 0 77 49.5t64 49.5q8 0 16.5 -15t8.5 -28q0 -27 -63.5 -94.5t-102.5 -67.5q-51 0 -156 45t-131 45q-19 0 -71 -38t-62 -38q-7 0 -12.5 11t-5.5 24z" />
    <glyph glyph-name="hungarumlaut" unicode="&#x2dd;" 
d="M190 1532q16 0 47 -19t31 -36t-28 -45.5t-90 -61.5q-4 -2 -70.5 -38t-120 -63.5t-59.5 -27.5q-27 0 -27 27q0 17 21 32l235 195q42 37 61 37zM600 1532q16 0 47 -19t31 -36t-28.5 -45.5t-90.5 -61.5q-4 -2 -70.5 -38t-120 -63.5t-59.5 -27.5q-26 0 -26 27q0 18 20 32
l236 195q42 37 61 37z" />
    <glyph glyph-name="uni03A9" unicode="&#x3a9;" horiz-adv-x="1564" 
d="M434 98v4q-128 75 -212.5 203.5t-84.5 296.5q0 156 85.5 284t234.5 200.5t329 72.5q139 0 261 -46.5t204 -124t129 -177.5t47 -207q0 -172 -87 -301.5t-214 -200.5v-4h330v-98h-514v74q55 25 103.5 58t94 79.5t78.5 101t52.5 126t19.5 151.5q0 84 -34.5 167t-96 151
t-159 110.5t-212.5 42.5q-113 0 -210 -38.5t-163 -104t-103.5 -152t-37.5 -182.5q0 -179 101.5 -313t247.5 -197v-74h-514v98h325z" />
    <glyph glyph-name="uni03BC" unicode="&#x3bc;" horiz-adv-x="1441" 
d="M373 440v-141q0 -50 21 -89t51 -61t66 -36t61 -18.5t42 -4.5q47 0 105 33t80 78q19 39 24.5 118t5.5 218q0 46 -14 102t-14 74q0 45 78 45q98 0 98 -72q0 -9 -4 -43.5t-9 -84t-8 -85.5q-20 -265 -51 -319q-22 -38 -66 -83.5t-83 -66.5q-41 -20 -127 -20q-87 0 -140.5 26
t-107.5 90l-4 -4q0 -12 1 -34.5t1 -36.5q0 -178 -16.5 -242t-61.5 -64q-63 0 -63 144v278q0 116 -7.5 331t-7.5 239q0 80 60 80q28 0 51 -17l94 -69q10 -10 10 -27q0 -10 -16 -35.5t-32.5 -77t-16.5 -125.5z" />
    <glyph glyph-name="pi" unicode="&#x3c0;" horiz-adv-x="1187" 
d="M1137 743h-176v-475q0 -178 28 -268h-133q-35 44 -35 248v495h-401q-10 -181 -56 -416t-98 -327h-137q55 118 100.5 343t53.5 400q-177 0 -248 -26l-21 82q86 47 293 47h844z" />
    <glyph glyph-name="uni2010" unicode="&#x2010;" horiz-adv-x="681" 
d="M129 526q0 22 30.5 70.5t61.5 48.5q7 0 25.5 -7.5t56 -14.5t90.5 -7q47 0 112 7.5t75 7.5q16 0 24 -23.5t8 -40.5q0 -10 -25.5 -33.5t-41.5 -23.5q-8 0 -122 -6t-226 -6q-68 0 -68 28z" />
    <glyph glyph-name="endash" unicode="&#x2013;" horiz-adv-x="1024" 
d="M0 557v82h1024v-82h-1024z" />
    <glyph glyph-name="emdash" unicode="&#x2014;" horiz-adv-x="2048" 
d="M2048 639v-82h-2048v82h2048z" />
    <glyph glyph-name="quoteleft" unicode="&#x2018;" 
d="M135 760q0 30 115.5 251.5t130.5 221.5q13 0 33 -11.5t20 -27.5q0 -7 -54 -179t-54 -198q0 -6 2 -21t2 -28t-48.5 -40.5t-66.5 -27.5q-17 0 -48.5 19t-31.5 41z" />
    <glyph glyph-name="quoteright" unicode="&#x2019;" 
d="M135 739q0 7 54.5 179t54.5 198q0 6 -2 21t-2 28t48 40.5t66 27.5q17 0 48.5 -18.5t31.5 -40.5q0 -30 -115.5 -252t-130.5 -222q-13 0 -33 11.5t-20 27.5z" />
    <glyph glyph-name="quotesinglbase" unicode="&#x201a;" 
d="M135 -166q0 7 54.5 179t54.5 198q0 6 -2 21t-2 28t48 40.5t66 27.5q17 0 48.5 -19t31.5 -41q0 -30 -115.5 -251.5t-130.5 -221.5q-13 0 -33 11.5t-20 27.5z" />
    <glyph glyph-name="quotedblleft" unicode="&#x201c;" horiz-adv-x="872" 
d="M440 766q0 11 17 29.5t26 35.5q45 81 81 158.5t51.5 117t31.5 72t32 43.5t42 11q33 0 33 -14q0 -18 -9 -48l-104 -405q-5 -20 -23 -31q-60 -35 -98 -35q-20 0 -50 26.5t-30 39.5zM119 756q0 20 43.5 114t95.5 198t55 112q23 53 47 53q16 0 37 -5.5t21 -17.5
q0 -2 -55.5 -172t-55.5 -217q0 -7 7.5 -25t7.5 -32q0 -12 -56.5 -38t-81.5 -26q-14 0 -39.5 19.5t-25.5 36.5z" />
    <glyph glyph-name="quotedblright" unicode="&#x201d;" horiz-adv-x="872" 
d="M152 700q-33 0 -33 15q0 20 8 47l104 405q5 20 23 31q60 35 98 35q20 0 50 -26.5t30 -39.5q0 -11 -17 -29.5t-26 -35.5q-45 -81 -81 -158.5t-51.5 -117t-31 -72t-31.5 -43.5t-42 -11zM455 723q0 1 55 172t55 217q0 7 -7 25t-7 32q0 12 56 38t81 26q14 0 40 -19t26 -36
q0 -20 -43.5 -114.5t-96 -198t-55.5 -111.5q-23 -54 -47 -54q-16 0 -36.5 5.5t-20.5 17.5z" />
    <glyph glyph-name="quotedblbase" unicode="&#x201e;" horiz-adv-x="872" 
d="M152 -205q-33 0 -33 15q0 20 8 47l104 405q5 20 23 31q60 35 98 35q20 0 50 -26.5t30 -39.5q0 -11 -17 -29.5t-26 -35.5q-45 -81 -81 -158.5t-51.5 -117t-31 -72t-31.5 -43.5t-42 -11zM455 -182q0 2 55 172t55 217q0 7 -7 25t-7 32q0 12 56 38t81 26q14 0 40 -19.5
t26 -36.5q0 -20 -43.5 -114.5t-96 -198t-55.5 -111.5q-23 -53 -47 -53q-16 0 -36.5 5.5t-20.5 17.5z" />
    <glyph glyph-name="dagger" unicode="&#x2020;" horiz-adv-x="948" 
d="M408 -94q0 54 -8.5 202t-8.5 228q0 9 1 56t1 73q0 30 -3.5 136t-4.5 169q-19 0 -53.5 1t-50.5 1q-103 0 -166 -51q-17 -14 -39 -14q-13 0 -39.5 40.5t-26.5 55.5q0 20 18 49t35 29q13 0 138 -7.5t190 -7.5q-2 53 -2 135q0 34 -16.5 79.5t-16.5 58.5q0 19 19 35
q71 59 94 59q12 0 52 -26t40 -38q0 -10 -18.5 -59t-18.5 -109q0 -100 -2 -135q20 1 70.5 6t73.5 5q133 0 227 -13q16 -3 30.5 -35t14.5 -47q0 -9 -12 -27t-19 -18q-5 0 -40 14t-70 15q-176 4 -283 4q0 -36 -1 -101t-1 -96q0 -32 1 -95t1 -93q0 -86 -11 -256.5t-11 -218.5
q0 -29 -10 -55.5t-36 -26.5q-38 0 -38 78z" />
    <glyph glyph-name="daggerdbl" unicode="&#x2021;" horiz-adv-x="1062" 
d="M469 260v180q-134 -3 -182 -8.5t-92 -25.5q-10 -4 -31 -18.5t-35 -14.5q-33 0 -39 33q-8 40 -8 79q0 34 9.5 43t43.5 9q9 0 61 3t87 3q62 0 184 -4l-8 217q-37 0 -109 -1t-108 -1q-110 0 -144.5 16t-34.5 72q0 14 33 43.5t54 29.5q27 0 43 -28q9 -15 37.5 -21t103.5 -6
q12 0 54 2t65 2l-4 174q0 28 -21 82q-10 25 -10 49q0 20 33.5 42t54.5 22h84q24 0 24 -23q0 -5 -10 -31.5t-19.5 -76.5t-9.5 -113v-125q152 -4 228 -4q27 0 84 2t84 2q17 0 22.5 -3.5t5.5 -14.5q0 -13 -34 -39l-45 -33q-14 -12 -41 -12q-3 0 -57 2t-93 2q-83 0 -156 -6
q-1 -13 -2 -39t-2 -39v-139h58q83 0 137 2.5t74.5 5t23.5 2.5q22 0 79.5 -24t57.5 -35q0 -28 -12.5 -45t-32.5 -17q-6 0 -85 8.5t-162 8.5q-29 0 -136 -5q-3 -135 -8 -260t-8.5 -191t-3.5 -71q0 -10 3 -26t3 -23q0 -27 -8 -43q-5 -8 -26.5 -18.5t-28.5 -10.5q-17 0 -17 37
q0 24 -4 180t-4 242z" />
    <glyph glyph-name="bullet" unicode="&#x2022;" horiz-adv-x="819" 
d="M221 483q0 32 75 107.5t107 75.5q38 0 74 -19q47 -27 76 -52.5t37 -39t8 -23.5q0 -39 -39.5 -85t-80.5 -73.5t-56 -27.5q-39 0 -166 74q-35 18 -35 63z" />
    <glyph glyph-name="ellipsis" unicode="&#x2026;" horiz-adv-x="2048" 
d="M217 92q0 22 49.5 71.5t71.5 49.5q28 0 49 -12q31 -18 50.5 -35t24.5 -26t5 -15q0 -37 -49.5 -81t-67.5 -44q-25 0 -110 49q-23 13 -23 43zM899 92q0 22 49.5 71.5t71.5 49.5q28 0 49 -12q31 -18 50.5 -35t24.5 -26t5 -15q0 -37 -49.5 -81t-67.5 -44q-25 0 -110 49
q-23 13 -23 43zM1581 92q0 22 49.5 71.5t71.5 49.5q28 0 49 -12q31 -18 50.5 -35t24.5 -26t5 -15q0 -37 -49.5 -81t-67.5 -44q-25 0 -110 49q-23 13 -23 43z" />
    <glyph glyph-name="perthousand" unicode="&#x2030;" horiz-adv-x="2314" 
d="M1100 223q0 -41 16 -71t40 -44t43 -20t32 -6q63 0 117.5 52t54.5 85q0 85 -8.5 128.5t-38.5 94.5q-9 15 -29 21q-42 10 -67 10q-26 0 -57.5 -13.5t-37.5 -25.5q-65 -127 -65 -211zM1653 215q0 40 26 152.5t58 136.5q39 30 100 53t111 23q43 0 104 -36t106.5 -87t45.5 -88
q0 -89 -37.5 -177.5t-61.5 -107.5q-105 -84 -231 -84q-54 0 -137.5 73t-83.5 142zM981 250q0 122 47 172q66 70 156 117q32 16 90 16q90 0 188 -63q26 -17 51 -65t25 -79q0 -41 -12 -81.5t-58 -162.5q-11 -30 -105 -67t-136 -37q-60 0 -105.5 17t-71.5 42.5t-42.5 60.5
t-21.5 66t-5 64zM1772 238q0 -45 17 -78.5t41.5 -48.5t43.5 -22t31 -7q56 0 104 39q17 13 42.5 65.5t25.5 73.5v102q0 49 -14.5 70t-43.5 29q-45 12 -84 12q-44 0 -69 -23t-49 -75l-29 -62q-16 -36 -16 -75zM111 932q0 118 141 250q46 44 107.5 80t111.5 36q32 0 65.5 -18.5
t59 -40.5t68 -40.5t90.5 -18.5q230 0 295.5 6t83.5 24q12 12 19 17.5t25 10.5t44 5q17 0 31 -7t14 -19q0 -14 -76 -132q-42 -66 -130.5 -202t-113.5 -175t-83.5 -131t-79.5 -128.5t-59.5 -103.5t-66 -120t-59.5 -119q-57 -116 -90 -155q-34 -41 -100 -41q-12 0 -25.5 22.5
t-13.5 36.5q0 11 11.5 26t39.5 46t51 61q44 57 155.5 236.5t186.5 310.5l162 283l94 147q8 16 8 23q0 12 -20 12q-15 0 -100 -14.5t-126 -14.5q-105 0 -153 13l-4 -4q14 -14 14 -54q0 -64 -31.5 -130t-60.5 -91q-132 -114 -246 -114q-46 0 -106 23.5t-92 59.5q-17 19 -29 61
t-12 83zM373 799q53 0 74 11.5t45 57.5q31 60 46 117.5t15 85.5q0 33 -10 66t-21 39q-27 16 -63 16q-14 0 -48 -12t-44 -19q-67 -44 -94 -81.5t-27 -100.5q0 -90 20 -137q5 -11 43.5 -27t63.5 -16z" />
    <glyph glyph-name="guilsinglleft" unicode="&#x2039;" horiz-adv-x="645" 
d="M119 586q0 61 37 118.5t153 153.5q104 86 127 86q15 0 28 -12.5t13 -30.5q0 -5 -22.5 -25t-61 -65t-69.5 -100q-18 -32 -23.5 -51t-5.5 -56q0 -54 8.5 -78.5t30.5 -42.5q120 -94 156 -131.5t36 -58.5q0 -9 -29 -24t-44 -15q-55 0 -260 205q-41 41 -57.5 69t-16.5 58z" />
    <glyph glyph-name="guilsinglright" unicode="&#x203a;" horiz-adv-x="645" 
d="M350 604q0 37 -5 56t-23 51q-31 55 -69.5 100t-61.5 65t-23 25q0 18 13 30.5t28 12.5q23 0 127 -86q116 -96 153 -153.5t37 -118.5q0 -30 -16.5 -58.5t-56.5 -68.5q-205 -205 -260 -205q-15 0 -44.5 15t-29.5 24q0 21 36 58.5t156 131.5q22 18 30.5 42.5t8.5 78.5z" />
    <glyph glyph-name="fraction" unicode="&#x2044;" horiz-adv-x="342" 
d="M-276 -29q0 8 12 20.5t31 29t50.5 57t63.5 94.5q38 64 131.5 224.5t149.5 254.5t142.5 233.5t164.5 256.5q10 15 17 35.5t11.5 33t12.5 15.5q23 8 68 8q40 0 40 -27q0 -22 -262 -409q-102 -150 -229.5 -372t-206.5 -392q-10 -22 -33.5 -59t-33.5 -44q-37 -28 -72 -28
q-29 0 -43 24t-14 45z" />
    <glyph glyph-name="Euro" unicode="&#x20ac;" horiz-adv-x="1247" 
d="M289 745h10q25 90 69.5 163.5t100 122t116 83.5t125.5 53.5t120.5 26.5t109.5 8q78 0 129 -31t51 -65q0 -25 -42 -63.5t-68 -38.5q-10 0 -23.5 14.5t-26.5 31.5t-38 31.5t-56 14.5q-74 0 -137.5 -21t-108.5 -55t-82 -81t-60 -94t-40 -100h287q12 0 42 -1t50 -1
q19 0 54.5 1t43.5 1q21 0 32 -8.5t11 -21.5q0 -29 -69.5 -47.5t-155.5 -18.5q-51 0 -69 2h-250q-13 -70 -13 -106h203q127 0 205 -2q39 -1 58.5 -4.5t24.5 -8.5t5 -14q0 -5 -2.5 -9.5t-17 -16t-41.5 -27.5q-21 -12 -62 -12q-121 0 -168 -2l-196 2q17 -82 63 -160.5
t123 -135.5t164 -57q69 0 134 19.5t104.5 43t75 43t50.5 19.5q20 0 31.5 -12t11.5 -31q-55 -90 -186.5 -143t-278.5 -45q-48 0 -101.5 14.5t-111.5 49.5t-105 86t-80 132.5t-38 180.5q-50 -3 -82 -21q-23 -14 -47 -14q-19 0 -32 35.5t-13 52.5q0 10 19.5 20.5t38.5 12.5
q54 4 116 4q2 49 13 110q-38 -2 -88 -21.5t-62 -19.5q-17 0 -29 31t-12 60q0 15 9.5 23.5t41 14t88.5 5.5q15 0 35 -1.5t27 -1.5z" />
    <glyph glyph-name="afii61289" unicode="&#x2113;" horiz-adv-x="1005" 
d="M885 299l69 -57q-142 -236 -395 -236q-149 0 -235 85.5t-99 207.5q-2 6 -2 16q-20 -12 -60.5 -41t-58.5 -41l-43 74q22 17 77.5 55t82.5 60v444q0 114 26.5 197.5t72.5 128.5t98 65.5t112 20.5q128 0 195.5 -81.5t67.5 -195.5q0 -105 -58 -212t-150 -201t-237 -209l2 -29
q1 -115 72 -177t166 -62t174 56t123 132zM348 901v-407q165 149 251.5 265.5t86.5 231.5q0 89 -37.5 143t-118.5 54q-32 0 -62 -14.5t-58 -46t-45 -90t-17 -136.5z" />
    <glyph glyph-name="trademark" unicode="&#x2122;" horiz-adv-x="2027" 
d="M164 1126v107h659v-107h-270v-737h-119v737h-270zM1745 389v725h-4l-293 -725h-74l-293 725h-4v-725h-119v844h195l262 -662l254 662h195v-844h-119z" />
    <glyph glyph-name="Omega" unicode="&#x2126;" horiz-adv-x="1564" 
d="M434 98v4q-128 75 -212.5 203.5t-84.5 296.5q0 156 85.5 284t234.5 200.5t329 72.5q139 0 261 -46.5t204 -124t129 -177.5t47 -207q0 -172 -87 -301.5t-214 -200.5v-4h330v-98h-514v74q55 25 103.5 58t94 79.5t78.5 101t52.5 126t19.5 151.5q0 84 -34.5 167t-96 151
t-159 110.5t-212.5 42.5q-113 0 -210 -38.5t-163 -104t-103.5 -152t-37.5 -182.5q0 -179 101.5 -313t247.5 -197v-74h-514v98h325z" />
    <glyph glyph-name="estimated" unicode="&#x212e;" horiz-adv-x="1427" 
d="M1370 575h-1065q-8 0 -8 -8v-321q0 -23 14 -37q79 -82 182.5 -128t219.5 -46q125 0 235.5 51.5t188.5 142.5h94q-90 -105 -227 -167t-293 -62q-177 0 -328 79t-239.5 215.5t-88.5 297.5q0 160 88.5 296.5t239.5 216t328 79.5q179 0 331 -79.5t240 -216t88 -296.5v-17z
M1128 616v326q0 21 -16 37q-79 79 -182 123.5t-217 44.5t-217.5 -46t-182.5 -126q-16 -13 -16 -41v-318q0 -2 2.5 -6t5.5 -4h817q6 0 6 10z" />
    <glyph glyph-name="partialdiff" unicode="&#x2202;" horiz-adv-x="1128" 
d="M205 1112l-51 80q134 100 348 100q104 0 198 -43.5t166.5 -122t115 -198.5t42.5 -262q0 -97 -21.5 -191t-66 -179.5t-107 -151t-152.5 -104t-194 -38.5q-81 0 -149.5 25t-113.5 65.5t-77 92.5t-46.5 104t-14.5 102q0 178 126 291t308 113q60 0 116.5 -16.5t96.5 -40.5
t74.5 -54t53.5 -52.5t30 -41.5h2q2 25 2 86q0 118 -32.5 217t-88 164t-128 101t-153.5 36q-160 0 -284 -82zM496 102h2q99 0 180 55.5t127.5 139.5t62.5 184q-13 31 -40.5 66t-68.5 70t-99.5 58t-120.5 23q-132 0 -227 -87.5t-95 -215.5q0 -122 78 -207.5t201 -85.5z" />
    <glyph glyph-name="Delta" unicode="&#x2206;" horiz-adv-x="1368" 
d="M59 0v88l545 1088h162l541 -1088v-88h-1248zM203 100h948l-324 660q-11 25 -45 95.5t-60.5 128t-39.5 89.5h-8q-9 -21 -32 -70.5t-53.5 -115t-43.5 -92.5z" />
    <glyph glyph-name="product" unicode="&#x220f;" horiz-adv-x="1454" 
d="M1405 1030h-244v-1186h-129v1186h-612v-1186h-131v1186h-244v107h1360v-107z" />
    <glyph glyph-name="summation" unicode="&#x2211;" horiz-adv-x="1155" 
d="M1108 -156h-1067v74l567 567l-540 570v82h1011v-109h-813v-6l500 -526l-535 -535v-6h877v-111z" />
    <glyph glyph-name="minus" unicode="&#x2212;" horiz-adv-x="1161" 
d="M1057 422h-955v84h955v-84z" />
    <glyph glyph-name="uni2215" unicode="&#x2215;" horiz-adv-x="342" 
d="M-276 -29q0 8 12 20.5t31 29t50.5 57t63.5 94.5q38 64 131.5 224.5t149.5 254.5t142.5 233.5t164.5 256.5q10 15 17 35.5t11.5 33t12.5 15.5q23 8 68 8q40 0 40 -27q0 -22 -262 -409q-102 -150 -229.5 -372t-206.5 -392q-10 -22 -33.5 -59t-33.5 -44q-37 -28 -72 -28
q-29 0 -43 24t-14 45z" />
    <glyph glyph-name="uni2219" unicode="&#x2219;" 
d="M172 598q0 30 5.5 42t23.5 24q67 47 100 47q12 0 54 -42t42 -61q0 -15 -22 -43q-68 -84 -94 -84q-31 0 -70 44.5t-39 72.5z" />
    <glyph glyph-name="radical" unicode="&#x221a;" horiz-adv-x="1153" 
d="M1169 1343l-464 -1593h-121l-336 760l-152 -57l-30 73l262 103l280 -670q24 -59 35 -94h2q3 18 14 53.5t13 44.5l393 1380h104z" />
    <glyph glyph-name="infinity" unicode="&#x221e;" horiz-adv-x="1499" 
d="M1397 471v-2q0 -130 -87 -213.5t-204 -83.5q-86 0 -164.5 55t-191.5 179q-39 -45 -62.5 -70.5t-63.5 -61.5t-72.5 -54.5t-76.5 -33t-90 -14.5q-116 0 -200.5 85t-84.5 206q0 129 85.5 214t213.5 85q52 0 101 -18.5t96 -56t81.5 -72t80.5 -87.5q97 107 140 143
q107 91 222 91q125 -1 201 -82t76 -209zM397 254h2q30 0 61.5 11t55 24t55.5 40.5t47 42.5t47 49t40 42q-85 99 -118 130q-100 91 -202 91q-89 0 -143 -65t-54 -158q0 -86 58 -146.5t151 -60.5zM1110 684q-38 0 -75.5 -14.5t-72 -42t-59.5 -51t-57.5 -58.5t-44.5 -47
q114 -121 178 -169t135 -48q89 0 142 64t53 147q0 101 -56 160t-143 59z" />
    <glyph glyph-name="integral" unicode="&#x222b;" horiz-adv-x="671" 
d="M659 1360l-24 -82q-29 22 -78 22q-70 0 -104 -36q-72 -75 -72 -295q0 -125 15.5 -406.5t15.5 -412.5q0 -219 -86 -326q-30 -40 -79.5 -62t-105.5 -22q-35 0 -74 10t-59 23l23 84q49 -27 98 -27q57 0 94 37q38 40 58 103t20 184q0 132 -15.5 417.5t-15.5 411.5
q0 134 24.5 214.5t82.5 129.5q65 62 172 62q62 0 110 -29z" />
    <glyph glyph-name="approxequal" unicode="&#x2248;" horiz-adv-x="1161" 
d="M1006 735l53 -53q-51 -80 -112 -124t-146 -44q-19 0 -35 1.5t-35.5 7t-29.5 8t-35 13.5t-31 14t-38.5 19t-39.5 19q-120 63 -195 63q-65 0 -112 -36.5t-98 -104.5l-56 53q48 79 122 124.5t159 45.5q27 0 52.5 -4.5t52.5 -15.5t41 -17t43.5 -22.5t35.5 -19.5q11 -5 35 -17
t33.5 -17t29 -12.5t32.5 -11t32 -6t39 -2.5q62 0 109 33.5t94 105.5zM1006 412l53 -54q-50 -79 -111 -123.5t-147 -44.5q-13 0 -26 1t-23.5 2.5t-24 5.5t-21.5 5.5t-23.5 8t-22 9t-24.5 11.5t-24 11.5t-27.5 13.5t-27.5 14q-44 22 -64.5 32t-59 21t-71.5 11
q-65 0 -112 -36.5t-98 -104.5l-56 53q48 79 121.5 124.5t157.5 45.5q28 0 53.5 -4t54 -15.5t40.5 -16.5t44.5 -23t34.5 -19q12 -6 38 -19.5t39.5 -19.5t35 -14t43 -11.5t45.5 -3.5q63 0 108.5 32.5t94.5 107.5z" />
    <glyph glyph-name="notequal" unicode="&#x2260;" horiz-adv-x="1161" 
d="M817 887l-96 -197h336v-82h-373l-141 -289h514v-81h-553l-115 -238l-70 35l99 203h-316v81h357l139 289h-496v82h535l111 232z" />
    <glyph glyph-name="lessequal" unicode="&#x2264;" horiz-adv-x="1161" 
d="M1051 131l-936 418v88l936 418v-94l-840 -365v-4l840 -367v-94zM1055 -27h-953v82h953v-82z" />
    <glyph glyph-name="greaterequal" unicode="&#x2265;" horiz-adv-x="1161" 
d="M115 1055l936 -418v-88l-936 -418v94l837 367v2l-837 367v94zM1053 -27h-951v82h951v-82z" />
    <glyph glyph-name="lozenge" unicode="&#x25ca;" horiz-adv-x="1155" 
d="M1044 567l-415 -661h-105l-415 661l415 662h105zM926 565l-314 500q-3 5 -17.5 32t-19.5 38h-4q-10 -24 -39 -70l-305 -496l314 -501q31 -56 34 -68h7q11 32 36 68z" />
    <glyph glyph-name="A.alt" unicode="&#xe000;" horiz-adv-x="1517" 
d="M1030 328h-543q-77 0 -115.5 -19t-68.5 -71l-102 -179q-4 -8 -7.5 -25t-10.5 -25.5t-25 -8.5q-57 0 -92 12.5t-35 34.5q0 11 8 23t28 34t31 37q115 149 262.5 398t147.5 303q0 40 -70 110l-168 170q-15 16 -34 30.5t-27 23t-8 18.5q0 15 50.5 42.5t78.5 27.5
q56 0 72.5 -11t35.5 -61q10 -26 70 -98q217 -262 372 -432.5t258 -269.5t267 -245q17 -15 37.5 -23.5t33 -10.5t21 -10.5t8.5 -26.5q0 -16 -39 -54t-61 -38h-62q-10 0 -16.5 6.5t-12 19t-9.5 17.5q-55 75 -275 301zM928 438l-322 328l-135 -234q-43 -75 -43 -86
q0 -17 30 -20.5t177 -3.5q253 0 293 16z" />
    <glyph glyph-name="K.alt" unicode="&#xe001;" horiz-adv-x="1251" 
d="M389 190v-149q0 -22 -33 -39.5t-51 -17.5q-13 0 -32 15.5t-19 35.5q0 21 8 195t8 284q0 86 -10 424q-2 59 -12 98t-19.5 57t-9.5 27q0 19 43 66t62 47q11 0 34.5 -11t30.5 -18q9 -9 31 -56.5t22 -57.5q0 -6 -13.5 -36.5t-14.5 -56.5q-4 -113 -11.5 -225.5t-7.5 -144.5
q0 -23 4 -33t15 -10q17 0 159 147t284.5 293.5t160.5 146.5q23 0 75 -45.5t52 -60.5q0 -12 -21.5 -21.5t-54.5 -21t-49 -23.5q-64 -52 -244.5 -227.5t-232.5 -206.5v-4q33 -4 89.5 -46.5t120 -102.5t130.5 -120t136.5 -106t121.5 -55q27 -4 37 -14t10 -31q0 -20 -72.5 -53
t-99.5 -33q-14 0 -42.5 24.5t-88.5 84.5t-94 92q-199 189 -258.5 238.5t-86.5 49.5q-23 0 -53 -6q-4 -196 -4 -293z" />
    <glyph glyph-name="M.alt" unicode="&#xe002;" horiz-adv-x="1972" 
d="M983 473l117 186q102 166 220 364q77 129 98 158t40 29q26 0 77.5 -17t51.5 -30q0 -17 -3 -43t-3 -33q0 -113 48.5 -363t97.5 -458.5t49 -222.5q0 -20 -50 -39.5t-69 -19.5t-26.5 9.5t-10.5 37.5q-23 212 -89 558.5t-79 434.5q-263 -405 -335 -530.5t-75 -180.5
q-1 -34 -14.5 -45.5t-44.5 -11.5q-28 0 -41.5 13t-28.5 53q-13 35 -90 155.5t-188 285.5t-127 189q-20 -81 -92 -462t-72 -416q0 -10 4 -32t4 -34q0 -24 -39 -24q-129 0 -129 57q0 16 39 131q36 109 112.5 465.5t76.5 443.5q0 25 -10.5 48t-10.5 38q0 37 107 37
q34 0 45.5 -7t15.5 -30q9 -43 69 -148t124 -201.5t141 -210t90 -134.5z" />
    <glyph glyph-name="N.alt" unicode="&#xe003;" horiz-adv-x="1517" 
d="M289 248l24 506q4 102 4 153q0 52 -18.5 85.5t-44.5 47t-52 22t-44.5 19.5t-18.5 31q0 14 23 31l74 59q29 23 49 23q21 0 51 -35q222 -263 465.5 -528.5t304.5 -317.5q31 185 31 395q0 95 -9.5 172t-18.5 119.5t-9 52.5q5 58 147 58q49 0 49 -58q0 -15 -10 -68.5
t-22.5 -123.5t-22.5 -203t-10 -287q0 -32 2 -110t2 -123q0 -36 -58 -84.5t-79 -48.5q-11 0 -21 35.5t-34.5 98t-65.5 110.5q-124 146 -325.5 354.5t-225.5 236.5q-18 -258 -18 -641q0 -33 2 -90.5t2 -70.5q0 -48 -37 -58q-95 -26 -123 -26q-20 0 -29.5 6t-9.5 24
q0 15 17 39.5t36.5 73.5t22.5 121z" />
    <glyph glyph-name="R.alt" unicode="&#xe004;" horiz-adv-x="1630" 
d="M270 1206l179 47q46 11 88 11q149 0 257.5 -80.5t108.5 -177.5q0 -220 -248 -304q-50 -18 -59.5 -22t-9.5 -10q0 -7 16 -15q32 -16 378 -241t443 -281q83 -47 168 -47q8 0 15.5 -9t7.5 -22q0 -19 -58.5 -72t-82.5 -53q-30 0 -168 96t-295 213.5t-327.5 223.5t-254.5 121
q-8 -93 -8 -246q0 -97 4.5 -165.5t9 -102.5t4.5 -47q0 -21 -11 -30t-40 -9q-37 0 -90 19.5t-53 41.5q0 8 9.5 26t19.5 52t12 80q14 315 14 573q0 316 -27 332q-43 24 -43 61q0 10 11.5 21.5t29.5 15.5zM426 739q0 -24 23 -24q25 0 192 88q47 25 70.5 87.5t23.5 139.5
q0 39 -30 82q-8 13 -49 29t-58 16q-30 0 -82.5 -13t-56.5 -32q-33 -153 -33 -373z" />
    <glyph glyph-name="U.alt" unicode="&#xe005;" horiz-adv-x="1441" 
d="M256 1137q0 48 10 68t39 20q31 0 99.5 -43t68.5 -72q0 -12 -11 -35t-24 -53.5t-24 -112t-11 -196.5q0 -150 9.5 -241.5t40.5 -160.5q30 -66 125 -121t170 -55q331 0 331 707q0 87 -6 149t-12 91t-6 36q0 47 78 47q42 0 72 -18t30 -51q0 -89 -44 -385.5t-79 -384.5
q-44 -112 -129.5 -186t-185.5 -111q-38 -13 -84 -13q-92 0 -208 52t-157 133q-47 90 -69.5 343.5t-22.5 592.5z" />
    <glyph glyph-name="V.alt" unicode="&#xe006;" horiz-adv-x="1290" 
d="M10 1155q0 30 40.5 50t131.5 20q42 0 57 -6.5t21 -28.5q42 -148 126.5 -347.5t168 -379t104.5 -236.5q155 254 291.5 520.5t136.5 331.5q0 47 10.5 63.5t39.5 16.5q31 0 96 -14q28 -6 37.5 -12.5t9.5 -18.5q0 -23 -135.5 -264t-261.5 -447q-49 -81 -84 -155.5t-49 -119.5
t-23 -80t-14.5 -49.5t-14.5 -14.5q-46 0 -77 12.5t-37 30.5q-200 548 -486 1046q-9 16 -32 29t-39.5 24.5t-16.5 28.5z" />
    <glyph glyph-name="X.alt" unicode="&#xe007;" horiz-adv-x="1290" 
d="M592 618l-195 216q-150 166 -203 231.5t-53 83.5q0 14 27 29l78 45q20 10 37 10q12 0 20.5 -20.5t35.5 -73t73 -107.5l262 -325q296 395 301 421q5 24 15 32.5t38 8.5q133 0 133 -24q0 -15 -8.5 -28t-34.5 -38q-66 -62 -197.5 -223.5t-177.5 -230.5q20 -29 70.5 -89
t93 -107.5t113 -126.5t84.5 -95q21 -23 44 -40t32.5 -25.5t9.5 -20.5q0 -17 -8 -33l-39 -74q-23 -45 -60 -45q-12 0 -22.5 19.5t-38 71t-68.5 104.5q-3 4 -31 41t-56.5 74.5t-84.5 108t-120 147.5q-108 -113 -224 -280t-141 -224q-9 -21 -26 -34t-33 -13q-30 0 -79.5 11
t-49.5 32q0 26 102 133q150 159 381 458z" />
    <glyph glyph-name="Y.alt" unicode="&#xe008;" horiz-adv-x="1138" 
d="M444 -172q-32 0 -89.5 41t-57.5 61q0 14 8.5 23t36.5 14q37 9 79.5 61.5t72.5 132.5t30 156q0 51 -44 126.5t-218 316.5q-61 84 -129 167t-92.5 116.5t-24.5 56.5q0 29 60.5 77t93.5 48q18 0 24.5 -16.5t10.5 -50.5t12 -56q25 -65 112 -194.5t175 -260.5t114 -198
q33 66 131.5 246.5t141.5 276t43 144.5q0 39 8.5 51.5t32.5 12.5q35 0 93 -26t58 -54q0 -9 -10 -20.5t-33 -39.5t-45 -67l-352 -625q-15 -28 -65 -165t-99 -246t-78 -109z" />
    <glyph glyph-name="Z.alt" unicode="&#xe009;" horiz-adv-x="1290" 
d="M877 47h-289q-112 0 -197 -3.5t-129.5 -8.5t-72 -10.5t-40 -9t-18.5 -3.5q-12 0 -44 39.5t-32 63.5q0 21 120 151.5t341.5 369.5t384.5 433l-283 -12q-161 -8 -270 -8q-108 0 -138 7t-30 36q0 32 24 82.5t48 50.5q13 0 30 -12.5t44 -25t65 -13.5q97 -5 293 -5
q172 0 285 5q18 1 37 7.5t28 6.5q19 0 59 -24t40 -46q0 -15 -75.5 -97t-188.5 -198t-230 -239.5t-214.5 -242.5t-127.5 -187h192q188 0 352.5 12t205.5 22q22 6 68 30t65 24q13 0 20.5 -12.5t7.5 -24.5q0 -24 -21.5 -98t-45.5 -74q-3 0 -93.5 7t-170.5 7z" />
    <glyph glyph-name="a.alt" unicode="&#xe00a;" horiz-adv-x="1517" 
d="M1030 328h-543q-77 0 -115.5 -19t-68.5 -71l-102 -179q-4 -8 -7.5 -25t-10.5 -25.5t-25 -8.5q-57 0 -92 12.5t-35 34.5q0 11 8 23t28 34t31 37q115 149 262.5 398t147.5 303q0 40 -70 110l-168 170q-15 16 -34 30.5t-27 23t-8 18.5q0 15 50.5 42.5t78.5 27.5
q56 0 72.5 -11t35.5 -61q10 -26 70 -98q217 -262 372 -432.5t258 -269.5t267 -245q17 -15 37.5 -23.5t33 -10.5t21 -10.5t8.5 -26.5q0 -16 -39 -54t-61 -38h-62q-10 0 -16.5 6.5t-12 19t-9.5 17.5q-55 75 -275 301zM928 438l-322 328l-135 -234q-43 -75 -43 -86
q0 -17 30 -20.5t177 -3.5q253 0 293 16z" />
    <glyph glyph-name="k.alt" unicode="&#xe00b;" horiz-adv-x="1251" 
d="M389 190v-149q0 -22 -33 -39.5t-51 -17.5q-13 0 -32 15.5t-19 35.5q0 21 8 195t8 284q0 86 -10 424q-2 59 -12 98t-19.5 57t-9.5 27q0 19 43 66t62 47q11 0 34.5 -11t30.5 -18q9 -9 31 -56.5t22 -57.5q0 -6 -13.5 -36.5t-14.5 -56.5q-4 -113 -11.5 -225.5t-7.5 -144.5
q0 -23 4 -33t15 -10q17 0 159 147t284.5 293.5t160.5 146.5q23 0 75 -45.5t52 -60.5q0 -12 -21.5 -21.5t-54.5 -21t-49 -23.5q-64 -52 -244.5 -227.5t-232.5 -206.5v-4q33 -4 89.5 -46.5t120 -102.5t130.5 -120t136.5 -106t121.5 -55q27 -4 37 -14t10 -31q0 -20 -72.5 -53
t-99.5 -33q-14 0 -42.5 24.5t-88.5 84.5t-94 92q-199 189 -258.5 238.5t-86.5 49.5q-23 0 -53 -6q-4 -196 -4 -293z" />
    <glyph glyph-name="m.alt" unicode="&#xe00c;" horiz-adv-x="1972" 
d="M983 473l117 186q102 166 220 364q77 129 98 158t40 29q26 0 77.5 -17t51.5 -30q0 -17 -3 -43t-3 -33q0 -113 48.5 -363t97.5 -458.5t49 -222.5q0 -20 -50 -39.5t-69 -19.5t-26.5 9.5t-10.5 37.5q-23 212 -89 558.5t-79 434.5q-263 -405 -335 -530.5t-75 -180.5
q-1 -34 -14.5 -45.5t-44.5 -11.5q-28 0 -41.5 13t-28.5 53q-13 35 -90 155.5t-188 285.5t-127 189q-20 -81 -92 -462t-72 -416q0 -10 4 -32t4 -34q0 -24 -39 -24q-129 0 -129 57q0 16 39 131q36 109 112.5 465.5t76.5 443.5q0 25 -10.5 48t-10.5 38q0 37 107 37
q34 0 45.5 -7t15.5 -30q9 -43 69 -148t124 -201.5t141 -210t90 -134.5z" />
    <glyph glyph-name="n.alt" unicode="&#xe00d;" horiz-adv-x="1517" 
d="M289 248l24 506q4 102 4 153q0 52 -18.5 85.5t-44.5 47t-52 22t-44.5 19.5t-18.5 31q0 14 23 31l74 59q29 23 49 23q21 0 51 -35q222 -263 465.5 -528.5t304.5 -317.5q31 185 31 395q0 95 -9.5 172t-18.5 119.5t-9 52.5q5 58 147 58q49 0 49 -58q0 -15 -10 -68.5
t-22.5 -123.5t-22.5 -203t-10 -287q0 -32 2 -110t2 -123q0 -36 -58 -84.5t-79 -48.5q-11 0 -21 35.5t-34.5 98t-65.5 110.5q-124 146 -325.5 354.5t-225.5 236.5q-18 -258 -18 -641q0 -33 2 -90.5t2 -70.5q0 -48 -37 -58q-95 -26 -123 -26q-20 0 -29.5 6t-9.5 24
q0 15 17 39.5t36.5 73.5t22.5 121z" />
    <glyph glyph-name="r.alt" unicode="&#xe00e;" horiz-adv-x="1630" 
d="M270 1206l179 47q46 11 88 11q149 0 257.5 -80.5t108.5 -177.5q0 -220 -248 -304q-50 -18 -59.5 -22t-9.5 -10q0 -7 16 -15q32 -16 378 -241t443 -281q83 -47 168 -47q8 0 15.5 -9t7.5 -22q0 -19 -58.5 -72t-82.5 -53q-30 0 -168 96t-295 213.5t-327.5 223.5t-254.5 121
q-8 -93 -8 -246q0 -97 4.5 -165.5t9 -102.5t4.5 -47q0 -21 -11 -30t-40 -9q-37 0 -90 19.5t-53 41.5q0 8 9.5 26t19.5 52t12 80q14 315 14 573q0 316 -27 332q-43 24 -43 61q0 10 11.5 21.5t29.5 15.5zM426 739q0 -24 23 -24q25 0 192 88q47 25 70.5 87.5t23.5 139.5
q0 39 -30 82q-8 13 -49 29t-58 16q-30 0 -82.5 -13t-56.5 -32q-33 -153 -33 -373z" />
    <glyph glyph-name="u.alt" unicode="&#xe00f;" horiz-adv-x="1441" 
d="M256 1137q0 48 10 68t39 20q31 0 99.5 -43t68.5 -72q0 -12 -11 -35t-24 -53.5t-24 -112t-11 -196.5q0 -150 9.5 -241.5t40.5 -160.5q30 -66 125 -121t170 -55q331 0 331 707q0 87 -6 149t-12 91t-6 36q0 47 78 47q42 0 72 -18t30 -51q0 -89 -44 -385.5t-79 -384.5
q-44 -112 -129.5 -186t-185.5 -111q-38 -13 -84 -13q-92 0 -208 52t-157 133q-47 90 -69.5 343.5t-22.5 592.5z" />
    <glyph glyph-name="v.alt" unicode="&#xe010;" horiz-adv-x="1290" 
d="M10 1155q0 30 40.5 50t131.5 20q42 0 57 -6.5t21 -28.5q42 -148 126.5 -347.5t168 -379t104.5 -236.5q155 254 291.5 520.5t136.5 331.5q0 47 10.5 63.5t39.5 16.5q31 0 96 -14q28 -6 37.5 -12.5t9.5 -18.5q0 -23 -135.5 -264t-261.5 -447q-49 -81 -84 -155.5t-49 -119.5
t-23 -80t-14.5 -49.5t-14.5 -14.5q-46 0 -77 12.5t-37 30.5q-200 548 -486 1046q-9 16 -32 29t-39.5 24.5t-16.5 28.5z" />
    <glyph glyph-name="x.alt" unicode="&#xe011;" horiz-adv-x="1290" 
d="M592 618l-195 216q-150 166 -203 231.5t-53 83.5q0 14 27 29l78 45q20 10 37 10q12 0 20.5 -20.5t35.5 -73t73 -107.5l262 -325q296 395 301 421q5 24 15 32.5t38 8.5q133 0 133 -24q0 -15 -8.5 -28t-34.5 -38q-66 -62 -197.5 -223.5t-177.5 -230.5q20 -29 70.5 -89
t93 -107.5t113 -126.5t84.5 -95q21 -23 44 -40t32.5 -25.5t9.5 -20.5q0 -17 -8 -33l-39 -74q-23 -45 -60 -45q-12 0 -22.5 19.5t-38 71t-68.5 104.5q-3 4 -31 41t-56.5 74.5t-84.5 108t-120 147.5q-108 -113 -224 -280t-141 -224q-9 -21 -26 -34t-33 -13q-30 0 -79.5 11
t-49.5 32q0 26 102 133q150 159 381 458z" />
    <glyph glyph-name="y.alt" unicode="&#xe012;" horiz-adv-x="1138" 
d="M444 -172q-32 0 -89.5 41t-57.5 61q0 14 8.5 23t36.5 14q37 9 79.5 61.5t72.5 132.5t30 156q0 51 -44 126.5t-218 316.5q-61 84 -129 167t-92.5 116.5t-24.5 56.5q0 29 60.5 77t93.5 48q18 0 24.5 -16.5t10.5 -50.5t12 -56q25 -65 112 -194.5t175 -260.5t114 -198
q33 66 131.5 246.5t141.5 276t43 144.5q0 39 8.5 51.5t32.5 12.5q35 0 93 -26t58 -54q0 -9 -10 -20.5t-33 -39.5t-45 -67l-352 -625q-15 -28 -65 -165t-99 -246t-78 -109z" />
    <glyph glyph-name="z.alt" unicode="&#xe013;" horiz-adv-x="1290" 
d="M877 47h-289q-112 0 -197 -3.5t-129.5 -8.5t-72 -10.5t-40 -9t-18.5 -3.5q-12 0 -44 39.5t-32 63.5q0 21 120 151.5t341.5 369.5t384.5 433l-283 -12q-161 -8 -270 -8q-108 0 -138 7t-30 36q0 32 24 82.5t48 50.5q13 0 30 -12.5t44 -25t65 -13.5q97 -5 293 -5
q172 0 285 5q18 1 37 7.5t28 6.5q19 0 59 -24t40 -46q0 -15 -75.5 -97t-188.5 -198t-230 -239.5t-214.5 -242.5t-127.5 -187h192q188 0 352.5 12t205.5 22q22 6 68 30t65 24q13 0 20.5 -12.5t7.5 -24.5q0 -24 -21.5 -98t-45.5 -74q-3 0 -93.5 7t-170.5 7z" />
    <glyph glyph-name="fi" unicode="&#xfb01;" horiz-adv-x="1781" 
d="M420 467v-428q0 -60 -12 -135.5t-37 -75.5q-23 0 -52.5 18.5t-29.5 36.5q0 15 3 60t6 153.5t3 278.5q0 48 -14.5 91.5t-14.5 68.5q0 21 9.5 60.5t9.5 63.5q0 59 -23 295q-57 81 -57 127q0 23 47 68t74 45q12 0 58.5 -5t90.5 -5q101 0 286 9t200 9q22 0 22 -20
q0 -16 -18 -43.5t-35 -30.5q-72 -13 -258 -31.5t-219 -23.5q-10 -2 -15.5 -11.5t-9.5 -42.5q-8 -80 -8 -297q0 -17 1 -51.5t1 -52.5h162q80 0 188.5 11.5t132.5 11.5q39 0 39 -37q0 -31 -14 -50.5t-35 -19.5q-69 0 -240.5 -17t-240.5 -30zM1374 633q0 81 -3 170t-3 115
q0 63 -16 81q-35 40 -35 74q0 26 61.5 77.5t89.5 51.5q23 0 51.5 -17.5t28.5 -29.5q0 -16 -9.5 -52t-10.5 -59q-19 -287 -19 -882q0 -119 -15 -162t-50 -43q-26 0 -37 12.5t-20 85t-11 197.5t-2 381z" />
    <glyph glyph-name="fl" unicode="&#xfb02;" horiz-adv-x="2162" 
d="M420 467v-428q0 -60 -12 -135.5t-37 -75.5q-23 0 -52.5 18.5t-29.5 36.5q0 15 3 60t6 153.5t3 278.5q0 48 -14.5 91.5t-14.5 68.5q0 21 9.5 60.5t9.5 63.5q0 59 -23 295q-57 81 -57 127q0 23 47 68t74 45q12 0 58.5 -5t90.5 -5q101 0 286 9t200 9q22 0 22 -20
q0 -16 -18 -43.5t-35 -30.5q-72 -13 -258 -31.5t-219 -23.5q-10 -2 -15.5 -11.5t-9.5 -42.5q-8 -80 -8 -297q0 -17 1 -51.5t1 -52.5h162q80 0 188.5 11.5t132.5 11.5q39 0 39 -37q0 -31 -14 -50.5t-35 -19.5q-69 0 -240.5 -17t-240.5 -30zM1581 123l371 14q20 1 57 19t51 18
q35 0 35 -27q0 -21 -21 -84t-42 -63t-80 20q-27 9 -223 9q-204 0 -234 -15q-28 -14 -63 -14q-22 0 -50 44t-28 60q0 9 20 38.5t21 60.5q4 88 4 479q0 112 -6.5 199t-16 134t-19 77.5t-16 46t-6.5 22.5q0 21 64.5 70t87.5 49t47.5 -14t24.5 -35q0 -11 -8.5 -45.5t-8.5 -55.5
q0 -63 -6 -183t-6 -175q0 -36 2 -107t2 -118q0 -101 -12.5 -254t-12.5 -162q0 -16 25 -16q6 0 22 4t25 4z" />
    <glyph glyph-name="one.superior" horiz-adv-x="442" 
d="M184 801q0 145 -6 220t-16.5 100t-30.5 34q-31 14 -31 33q0 10 13 16q83 41 105.5 50.5t37.5 9.5q8 0 25.5 -6t17.5 -13q0 -3 -5 -27.5t-10 -95.5t-5 -188q0 -177 8 -309q0 -20 8 -31t16 -17t8 -12q0 -26 -86 -26q-35 0 -53 2.5t-23 6t-5 11.5q0 9 20 31q5 5 7 17.5
t3.5 58t1.5 135.5z" />
    <glyph glyph-name="two.superior" horiz-adv-x="690" 
d="M559 1073q0 -43 -24.5 -98.5t-77.5 -100.5l-262 -225q-9 -5 -9 -8q0 -4 11 -4q52 0 156.5 2t156.5 2q41 1 68 7.5t38.5 13t16.5 6.5q18 0 18 -37q0 -17 -11 -55.5t-22 -38.5q-5 0 -40 10q-24 8 -191 8q-159 0 -194.5 -1.5t-55.5 -8.5q-20 -8 -28 -8q-10 0 -25.5 9
t-15.5 17v78q0 12 19 29.5t99 81.5q254 203 254 325q0 41 -34.5 73t-98.5 32q-56 0 -87 -14t-48 -48q-7 -14 -55 -14q-22 0 -32.5 31.5t-10.5 60.5q0 28 83.5 47t149.5 19q58 0 91.5 -8.5t82.5 -41.5q44 -30 61 -59.5t17 -81.5z" />
    <glyph glyph-name="three.superior" horiz-adv-x="616" 
d="M219 891q0 5 2 9.5t8.5 12t13.5 14t22.5 22.5t29.5 30q94 96 94 117q0 11 -94.5 30t-118.5 19q-22 0 -43 -6t-31 -6q-32 0 -32 24q0 36 14 71.5t39 35.5q46 0 143 -20t211 -64q41 -15 41 -54q0 -22 -18 -43l-113 -127q-25 -31 -25 -49q0 -23 39 -51l76 -57q35 -28 35 -68
q0 -45 -26 -81t-89 -81q-34 -25 -121.5 -64.5t-125.5 -39.5t-54 12l-41 31q-14 11 -14 33q0 9 10 13t45 7q134 11 211.5 59.5t77.5 94.5q0 28 -74 86l-69 53q-23 20 -23 37z" />
    <glyph glyph-name="a.superior" horiz-adv-x="911" 
d="M379 655q-60 0 -79 -7.5t-28 -35.5q-6 -19 -40 -92t-37 -90q-7 -34 -23 -37q-55 -10 -115 -10q-20 0 -20 20q0 29 8 31q28 9 46 24.5t28 47.5q2 7 66 131.5t122 257.5t58 186q0 5 -8.5 29t-8.5 29q0 14 29.5 29.5t58.5 15.5q15 0 34.5 -16.5t29.5 -39.5q10 -21 79.5 -181
t125.5 -265q33 -62 61.5 -111t45.5 -73.5t29 -41t16.5 -22.5t4.5 -10q0 -25 -37 -25q-38 0 -106 17q-10 3 -19 16t-12 25q-9 29 -41.5 99.5t-42.5 76.5q-40 22 -225 22zM350 725h221l-96 207q-5 10 -9.5 21.5t-7 18t-5 12.5t-5.5 8.5t-6 2.5q-4 0 -8 -9t-8.5 -25.5
t-7.5 -22.5l-64 -141q-26 -56 -26 -62q0 -10 22 -10z" />
    <glyph glyph-name="o.superior" horiz-adv-x="774" 
d="M104 795q0 72 17 137.5t53 123.5t100.5 93t149.5 35q110 0 178 -90t68 -269q0 -177 -87 -274.5t-214 -97.5q-110 0 -187.5 88.5t-77.5 253.5zM199 817q0 -22 5 -52.5t19 -69.5t35.5 -71t59 -54.5t83.5 -22.5q23 0 46.5 6.5t49.5 24.5t45.5 46t32.5 75.5t13 109.5
q0 152 -53.5 222.5t-133.5 70.5q-93 0 -147.5 -82t-54.5 -203z" />
    </font>
</defs>
</svg>
