<svg width="23" height="24" viewBox="0 0 23 24" fill="none" xmlns="http://www.w3.org/2000/svg">
<mask id="mask0_1_139" style="mask-type:alpha" maskUnits="userSpaceOnUse" x="0" y="0" width="23" height="24">
<g clip-path="url(#clip0_1_139)">
<path d="M1.84088 10.7727H15.9469V6.53026C15.9469 6.10128 16.1924 5.71451 16.5689 5.5504C16.9455 5.38622 17.3789 5.477 17.667 5.78034L22.7049 11.0834C23.0984 11.4976 23.0984 12.1691 22.7049 12.5833L17.667 17.8863C17.4742 18.0892 17.2166 18.197 16.9543 18.197C16.8245 18.197 16.6936 18.1706 16.5689 18.1162C16.1924 17.9521 15.9469 17.5654 15.9469 17.1364V12.894H1.84088C1.28443 12.894 0.833302 12.4191 0.833302 11.8334C0.833302 11.2476 1.28443 10.7727 1.84088 10.7727ZM17.9621 14.5758L20.5675 11.8333L17.9621 9.09077V14.5758Z" fill="black"/>
</g>
</mask>
<g mask="url(#mask0_1_139)">
<ellipse cx="11.3333" cy="7.1667" rx="21" ry="24.5" fill="white"/>
</g>
<defs>
<clipPath id="clip0_1_139">
<rect width="22.1667" height="23.3333" fill="white" transform="matrix(-1 0 0 1 23 0.166615)"/>
</clipPath>
</defs>
</svg>
