<svg width="23" height="24" viewBox="0 0 23 24" fill="none" xmlns="http://www.w3.org/2000/svg">
<mask id="mask0_1_145" style="mask-type:alpha" maskUnits="userSpaceOnUse" x="0" y="0" width="23" height="24">
<g clip-path="url(#clip0_1_145)">
<path d="M21.1591 10.7727H7.05306V6.53026C7.05306 6.10128 6.80755 5.71451 6.43105 5.5504C6.05449 5.38622 5.6211 5.477 5.333 5.78034L0.295119 11.0834C-0.098373 11.4976 -0.098373 12.1691 0.295119 12.5833L5.333 17.8863C5.52578 18.0892 5.78338 18.197 6.04569 18.197C6.17546 18.197 6.30638 18.1706 6.43105 18.1162C6.80755 17.9521 7.05306 17.5654 7.05306 17.1364V12.894H21.1591C21.7156 12.894 22.1667 12.4191 22.1667 11.8334C22.1667 11.2476 21.7156 10.7727 21.1591 10.7727ZM5.03791 14.5758L2.43252 11.8333L5.03791 9.09077V14.5758Z" fill="black"/>
</g>
</mask>
<g mask="url(#mask0_1_145)">
<ellipse rx="21" ry="24.5" transform="matrix(-1 0 0 1 11.667 7.1667)" fill="white"/>
</g>
<defs>
<clipPath id="clip0_1_145">
<rect width="22.1667" height="23.3333" fill="white" transform="translate(0 0.166615)"/>
</clipPath>
</defs>
</svg>
