<svg width="20" height="21" viewBox="0 0 20 21" fill="none" xmlns="http://www.w3.org/2000/svg">
<path d="M10 0.644531C4.48 0.644531 0 5.12453 0 10.6445C0 16.1645 4.48 20.6445 10 20.6445H15V18.6445H10C5.66 18.6445 2 14.9845 2 10.6445C2 6.30453 5.66 2.64453 10 2.64453C14.34 2.64453 18 6.30453 18 10.6445V12.0745C18 12.8645 17.29 13.6445 16.5 13.6445C15.71 13.6445 15 12.8645 15 12.0745V10.6445C15 7.88453 12.76 5.64453 10 5.64453C7.24 5.64453 5 7.88453 5 10.6445C5 13.4045 7.24 15.6445 10 15.6445C11.38 15.6445 12.64 15.0845 13.54 14.1745C14.19 15.0645 15.31 15.6445 16.5 15.6445C18.47 15.6445 20 14.0445 20 12.0745V10.6445C20 5.12453 15.52 0.644531 10 0.644531ZM10 13.6445C8.34 13.6445 7 12.3045 7 10.6445C7 8.98453 8.34 7.64453 10 7.64453C11.66 7.64453 13 8.98453 13 10.6445C13 12.3045 11.66 13.6445 10 13.6445Z" fill="#A0B8DF"/>
</svg>
