<svg width="89" height="87" viewBox="0 0 89 87" fill="none" xmlns="http://www.w3.org/2000/svg">
<path d="M24.8235 33.6789H19.8379C8.89928 33.6789 0.000267029 24.7799 0.000267029 13.8413C0.000267029 12.7077 0.918816 11.7892 2.05243 11.7892H16.3555C15.9059 8.77221 15.675 5.66031 15.675 2.49724C15.675 1.36362 16.5935 0.445068 17.7272 0.445068C18.8608 0.445068 19.7793 1.36362 19.7793 2.49724C19.7793 12.911 22.4354 22.6736 27.2582 29.9867C31.9074 37.0363 38.002 40.9187 44.4193 40.9187C50.8365 40.9187 56.9315 37.0363 61.5806 29.9867C66.085 23.156 68.6994 14.1886 69.0248 4.5494H32.3372C31.2036 4.5494 30.285 3.63085 30.285 2.49724C30.285 1.36362 31.2036 0.445068 32.3372 0.445068H71.1114C72.245 0.445068 73.1636 1.36362 73.1636 2.49724C73.1636 5.66031 72.9326 8.77221 72.4831 11.7892H86.9478C88.0815 11.7892 89 12.7077 89 13.8413C89 22.2145 83.7029 29.7262 75.8191 32.5338C75.5914 32.6148 75.3591 32.6534 75.1304 32.6534C74.2871 32.6534 73.4963 32.1292 73.1972 31.2894C72.8169 30.2217 73.3743 29.0479 74.4419 28.6676C80.0424 26.6731 83.9971 21.6847 84.761 15.8935H71.7229C70.3723 21.9753 68.0983 27.5583 65.0069 32.2463C61.2118 38.0005 56.5005 41.9464 51.3326 43.8049V66.7172H53.5046C58.2547 66.7172 62.2296 70.1005 63.1457 74.5838H68.1497C69.2833 74.5838 70.2019 75.5024 70.2019 76.636V84.5026C70.2019 85.6363 69.2833 86.5548 68.1497 86.5548H20.6888C19.5552 86.5548 18.6367 85.6363 18.6367 84.5026V76.636C18.6367 75.5024 19.5552 74.5838 20.6888 74.5838H25.6928C26.6092 70.1005 30.5838 66.7172 35.3337 66.7172H37.5057V43.8049C32.7791 42.1051 28.4345 38.6586 24.8235 33.6789ZM4.23785 15.8935C5.24642 23.6031 11.8577 29.5746 19.8379 29.5746H22.2143C19.938 25.49 18.2183 20.8587 17.1159 15.8935H4.23785ZM22.741 82.4505H66.0975V78.6882H61.2925H27.5458H22.7407V82.4505H22.741ZM29.9479 74.5838H58.8906C58.0842 72.3905 55.9741 70.8215 53.5044 70.8215H49.2802H39.5578H35.3337C32.8642 70.8215 30.7543 72.3907 29.9479 74.5838ZM41.6103 66.7172H47.2283V44.8252C46.301 44.9555 45.3641 45.0231 44.419 45.0231C43.4742 45.0231 42.5373 44.9555 41.61 44.8252V66.7172H41.6103Z" fill="url(#paint0_linear_1_438)"/>
<defs>
<linearGradient id="paint0_linear_1_438" x1="88.9356" y1="6.4249" x2="50.4434" y2="89.3147" gradientUnits="userSpaceOnUse">
<stop stop-color="#F99FAC"/>
<stop offset="0.358192" stop-color="#F677B2"/>
<stop offset="0.76572" stop-color="#98A6EE"/>
</linearGradient>
</defs>
</svg>
