<svg width="78" height="71" viewBox="0 0 78 71" fill="none" xmlns="http://www.w3.org/2000/svg">
<path d="M71.9954 12.0712H56.1099V9.45014C56.1099 4.24708 51.8404 0.0141602 46.5924 0.0141602H31.7283C26.4801 0.0141602 22.2106 4.24708 22.2106 9.45014V12.0712H6.32509C3.01421 12.0712 0.320511 14.7418 0.320511 18.0243V65.0467C0.320511 68.3293 3.01421 70.9999 6.32509 70.9999H71.9954C75.3063 70.9999 78 68.3293 78 65.0467V18.0243C78 14.7418 75.3063 12.0712 71.9954 12.0712ZM24.4908 9.45014C24.4908 5.49363 27.7374 2.27485 31.7281 2.27485H46.5923C50.5831 2.27485 53.8297 5.49363 53.8297 9.45014V12.0712H51.2454V9.45014C51.2454 6.90641 49.1581 4.83697 46.5924 4.83697H31.7283C29.1624 4.83697 27.0751 6.90641 27.0751 9.45014V12.0712H24.4908V9.45014ZM48.9652 12.0712H29.3553V9.45014C29.3553 8.15295 30.4197 7.09766 31.7281 7.09766H46.5923C47.9008 7.09766 48.9652 8.15295 48.9652 9.45014V12.0712ZM71.9954 68.7392H6.32509C4.27152 68.7392 2.60073 67.0827 2.60073 65.0467V49.2142C3.62516 50.0199 4.91895 50.503 6.32509 50.503H12.4817V55.4011C12.4817 57.3541 14.0842 58.9429 16.054 58.9429C18.0238 58.9429 19.6264 57.3541 19.6264 55.4011V43.3441C19.6264 41.3912 18.0238 39.8023 16.054 39.8023C14.0842 39.8023 12.4817 41.3912 12.4817 43.3441V48.2423H6.32509C4.27152 48.2423 2.60073 46.5858 2.60073 44.5498V18.0243C2.60073 15.9884 4.27152 14.3319 6.32509 14.3319H71.9954C74.049 14.3319 75.7198 15.9884 75.7198 18.0243V44.5498C75.7198 46.5858 74.049 48.2423 71.9954 48.2423H68.3471C67.7174 48.2423 67.207 48.7484 67.207 49.3726C67.207 49.9969 67.7174 50.503 68.3471 50.503H71.9954C73.4016 50.503 74.6954 50.0199 75.7198 49.2142V65.0467C75.7198 67.0827 74.049 68.7392 71.9954 68.7392ZM14.7619 52.6737C15.1629 52.8285 15.5984 52.9144 16.054 52.9144C16.5096 52.9144 16.9451 52.8285 17.3462 52.6737V55.4011C17.3462 56.1075 16.7665 56.6822 16.054 56.6822C15.3415 56.6822 14.7619 56.1075 14.7619 55.4011V52.6737ZM17.3462 49.3726C17.3462 50.079 16.7665 50.6537 16.054 50.6537C15.3415 50.6537 14.7619 50.079 14.7619 49.3726V43.3441C14.7619 42.6377 15.3415 42.063 16.054 42.063C16.7665 42.063 17.3462 42.6377 17.3462 43.3441V49.3726Z" fill="url(#paint0_linear_1_446)"/>
<path d="M61.0504 39.8023C59.0806 39.8023 57.478 41.3912 57.478 43.3441V48.2423H23.3507C22.7211 48.2423 22.2106 48.7484 22.2106 49.3726C22.2106 49.9969 22.7211 50.503 23.3507 50.503H57.478V55.4011C57.478 57.3541 59.0806 58.9429 61.0504 58.9429C63.0202 58.9429 64.6227 57.3541 64.6227 55.4011V43.3441C64.6227 41.3912 63.0202 39.8023 61.0504 39.8023ZM59.7582 43.3441C59.7582 42.6377 60.3379 42.063 61.0504 42.063C61.7629 42.063 62.3425 42.6377 62.3425 43.3441V49.3726C62.3425 50.079 61.7629 50.6537 61.0504 50.6537C60.3379 50.6537 59.7582 50.079 59.7582 49.3726V43.3441ZM61.0504 56.6822C60.3379 56.6822 59.7582 56.1075 59.7582 55.4011V52.6737C60.1593 52.8285 60.5948 52.9144 61.0504 52.9144C61.506 52.9144 61.9415 52.8285 62.3425 52.6737V55.4011C62.3425 56.1075 61.7629 56.6822 61.0504 56.6822Z" fill="url(#paint1_linear_1_446)"/>
<path d="M31.8636 45.6802H46.457C47.0866 45.6802 47.5971 45.1741 47.5971 44.5498C47.5971 43.9256 47.0866 43.4195 46.457 43.4195H31.8636C31.2339 43.4195 30.7234 43.9256 30.7234 44.5498C30.7234 45.1741 31.2339 45.6802 31.8636 45.6802Z" fill="url(#paint2_linear_1_446)"/>
<defs>
<linearGradient id="paint0_linear_1_446" x1="0.376697" y1="4.94372" x2="30.9321" y2="74.6088" gradientUnits="userSpaceOnUse">
<stop stop-color="#F99FAC"/>
<stop offset="0.358192" stop-color="#F677B2"/>
<stop offset="0.76572" stop-color="#98A6EE"/>
</linearGradient>
<linearGradient id="paint1_linear_1_446" x1="0.376697" y1="4.94372" x2="30.9321" y2="74.6088" gradientUnits="userSpaceOnUse">
<stop stop-color="#F99FAC"/>
<stop offset="0.358192" stop-color="#F677B2"/>
<stop offset="0.76572" stop-color="#98A6EE"/>
</linearGradient>
<linearGradient id="paint2_linear_1_446" x1="0.376697" y1="4.94372" x2="30.9321" y2="74.6088" gradientUnits="userSpaceOnUse">
<stop stop-color="#F99FAC"/>
<stop offset="0.358192" stop-color="#F677B2"/>
<stop offset="0.76572" stop-color="#98A6EE"/>
</linearGradient>
</defs>
</svg>
