<svg width="90" height="82" viewBox="0 0 90 82" fill="none" xmlns="http://www.w3.org/2000/svg">
<path d="M85.5 0.5H4.5C1.94994 0.5 0 2.44994 0 5V8.00006C0 10.0198 1.22396 11.6621 3.00006 12.2582V65.0001C3.00006 65.9001 3.6 66.5001 4.5 66.5001H43.5001V69.6912C40.9198 70.3616 39.0001 72.7174 39.0001 75.5001C39.0001 78.8 41.7001 81.5 45 81.5C48.2999 81.5 50.9999 78.8 50.9999 75.5001C50.9999 72.7174 49.0802 70.3616 46.4999 69.6912V66.5001H85.5C86.4 66.5001 86.9999 65.9001 86.9999 65.0001V12.2582C88.776 11.6621 90 10.0198 90 8.00006V5C90 2.44994 88.0501 0.5 85.5 0.5ZM48.0001 75.5001C48.0001 77.1501 46.6501 78.5001 45 78.5001C43.3499 78.5001 41.9999 77.1501 41.9999 75.5001C41.9999 73.85 43.3499 72.5 45 72.5C46.6501 72.5 48.0001 73.85 48.0001 75.5001ZM84.0001 63.5H5.99994V12.5001H83.9999L84.0001 63.5ZM86.9999 8.00006C86.9999 8.90006 86.4 9.5 85.5 9.5H4.5C3.6 9.5 3.00006 8.90006 3.00006 8.00006V5C3.00006 4.1 3.6 3.50006 4.5 3.50006H85.5C86.4 3.50006 86.9999 4.1 86.9999 5V8.00006Z" fill="url(#paint0_linear_1_451)"/>
<path d="M67.5 53C66.6 53 66 53.6 66 54.5C66 55.4 66.6 55.9999 67.5 55.9999H75V57.4999C75 58.3999 75.6 58.9998 76.5 58.9998C77.4 58.9998 77.9999 58.3999 77.9999 57.4999V19.9999C77.9999 19.0999 77.4 18.5 76.5 18.5C75.6 18.5 75 19.0999 75 19.9999V23H70.5C69.6 23 69.0001 23.5999 69.0001 24.4999C69.0001 25.3999 69.6 25.9999 70.5 25.9999H75V28.9999H67.5C66.6 28.9999 66 29.5999 66 30.4999C66 31.3999 66.6 32 67.5 32H75V35H70.5C69.6 35 69.0001 35.6 69.0001 36.5C69.0001 37.4 69.6 37.9999 70.5 37.9999H75V41H67.5C66.6 41 66 41.5999 66 42.4999C66 43.3999 66.6 43.9999 67.5 43.9999H75V46.9999H70.5C69.6 46.9999 69.0001 47.5999 69.0001 48.4999C69.0001 49.3999 69.6 49.9998 70.5 49.9998H75V52.9999L67.5 53Z" fill="url(#paint1_linear_1_451)"/>
<path d="M22.5 32C22.8154 32 23.1251 31.975 23.4276 31.9276L27.8114 42.2785C26.4073 43.3792 25.5001 45.0883 25.5001 47.0001C25.5001 50.3001 28.2001 53.0001 31.5 53.0001C34.8 53.0001 37.5 50.3001 37.5 47.0001C37.5 45.5318 36.9645 44.1832 36.0805 43.1373L44.3291 31.5894C45.0034 31.8534 45.7351 32 46.5001 32C49.8001 32 52.5001 29.3 52.5001 26.0001C52.5001 22.7001 49.8001 20.0001 46.5001 20.0001C43.6641 20.0001 41.2731 21.9949 40.6563 24.6501H28.3442C27.7274 21.9947 25.3362 20.0001 22.5004 20.0001C19.2004 20.0001 16.5004 22.7001 16.5004 26.0001C16.5001 29.3 19.2001 32 22.5 32ZM31.5 50C29.85 50 28.5 48.65 28.5 46.9999C28.5 45.873 29.1301 44.8869 30.0551 44.3743C30.1377 44.3558 30.2198 44.3319 30.3 44.2999C31.2 43.8499 32.2499 43.9999 33.1499 44.6C33.2617 44.6559 33.3733 44.7116 33.4851 44.7598C34.1054 45.3105 34.4999 46.1105 34.4999 46.9999C34.5001 48.65 33.1501 50 31.5 50ZM33.6377 41.3973C33.0567 41.1738 32.4336 41.0378 31.7837 41.0072C31.6893 41.0025 31.5948 41 31.5 41C31.343 41 31.1855 41.0005 31.0073 41.022C30.8115 41.0381 30.6185 41.0636 30.4285 41.0984L26.1002 30.7999C26.1308 30.7737 26.1603 30.7469 26.1904 30.7203C27.2136 29.9175 27.9731 28.7923 28.3089 27.5H40.6501C40.8001 28.4 41.2501 29.1501 41.8502 29.8999L33.6377 41.3973ZM46.5 23C48.15 23 49.5 24.35 49.5 26.0001C49.5 27.6501 48.15 29.0001 46.5 29.0001C44.8499 29.0001 43.4999 27.6501 43.4999 26.0001C43.5001 24.35 44.8501 23 46.5 23ZM22.5 23C24.1501 23 25.5001 24.35 25.5001 26.0001C25.5001 27.6501 24.1501 29.0001 22.5 29.0001C20.85 29.0001 19.5 27.6501 19.5 26.0001C19.5 24.35 20.85 23 22.5 23Z" fill="url(#paint2_linear_1_451)"/>
<defs>
<linearGradient id="paint0_linear_1_451" x1="45" y1="0.5" x2="45" y2="81.5" gradientUnits="userSpaceOnUse">
<stop stop-color="#F18AA0"/>
<stop offset="1" stop-color="#9EBAE1"/>
</linearGradient>
<linearGradient id="paint1_linear_1_451" x1="45" y1="0.5" x2="45" y2="81.5" gradientUnits="userSpaceOnUse">
<stop stop-color="#F18AA0"/>
<stop offset="1" stop-color="#9EBAE1"/>
</linearGradient>
<linearGradient id="paint2_linear_1_451" x1="45" y1="0.5" x2="45" y2="81.5" gradientUnits="userSpaceOnUse">
<stop stop-color="#F18AA0"/>
<stop offset="1" stop-color="#9EBAE1"/>
</linearGradient>
</defs>
</svg>
