<svg width="18" height="23" viewBox="0 0 18 23" fill="none" xmlns="http://www.w3.org/2000/svg">
<path d="M9 12.3555C10.6569 12.3555 12 11.0123 12 9.35547C12 7.69861 10.6569 6.35547 9 6.35547C7.34315 6.35547 6 7.69861 6 9.35547C6 11.0123 7.34315 12.3555 9 12.3555Z" stroke="#A0B8DF" stroke-width="2" stroke-linecap="round" stroke-linejoin="round"/>
<path d="M9 1.35547C6.87827 1.35547 4.84344 2.19832 3.34315 3.69861C1.84285 5.19891 1 7.23374 1 9.35547C1 11.2475 1.402 12.4855 2.5 13.8555L9 21.3555L15.5 13.8555C16.598 12.4855 17 11.2475 17 9.35547C17 7.23374 16.1571 5.19891 14.6569 3.69861C13.1566 2.19832 11.1217 1.35547 9 1.35547V1.35547Z" stroke="#A0B8DF" stroke-width="2" stroke-linecap="round" stroke-linejoin="round"/>
</svg>
