<svg width="25" height="14" viewBox="0 0 25 14" fill="none" xmlns="http://www.w3.org/2000/svg">
<path d="M1.58735 5.77266H17.0837V1.53023C17.0837 1.10125 17.3534 0.714483 17.7671 0.550371C18.1807 0.38619 18.6568 0.476977 18.9733 0.780311L24.5078 6.08334C24.94 6.49754 24.94 7.16905 24.5078 7.58325L18.9733 12.8863C18.7616 13.0892 18.4786 13.197 18.1904 13.197C18.0478 13.197 17.904 13.1705 17.7671 13.1162C17.3534 12.952 17.0837 12.5653 17.0837 12.1364V7.89394H1.58735C0.976051 7.89394 0.480463 7.41907 0.480463 6.83333C0.480463 6.24753 0.976051 5.77266 1.58735 5.77266ZM19.2975 9.57578L22.1597 6.83326L19.2975 4.09075V9.57578Z" fill="#AFA1E4"/>
</svg>
