<svg width="62" height="66" viewBox="0 0 62 66" fill="none" xmlns="http://www.w3.org/2000/svg">
<path d="M61.9136 31.0692L56.2808 16.3549L61.9122 1.77156C62.0667 1.37143 62.0152 0.920389 61.7743 0.566026C61.5336 0.211921 61.1347 0 60.7083 0H1.29171C0.578446 0 0 0.582268 0 1.30053V64.6995C0 65.4176 0.578318 66 1.29171 66H7.75C8.46326 66 9.04171 65.4177 9.04171 64.6995V32.8374H60.7084C61.1341 32.8374 61.5325 32.6262 61.7734 32.2726C62.0142 31.9194 62.0667 31.469 61.9136 31.0692ZM6.45829 63.3989H2.58329V2.60094H6.45829V63.3989ZM9.04171 30.2364V2.60094H58.8204L53.692 15.8815C53.5753 16.1834 53.5747 16.5183 53.6906 16.8204L58.8263 30.2363L9.04171 30.2364Z" fill="url(#paint0_linear_1_49)"/>
<path d="M15.5806 8.61567H21.6354C22.3486 8.61567 22.9271 8.0334 22.9271 7.31514C22.9271 6.59687 22.3488 6.01461 21.6354 6.01461H15.5806C13.2214 6.01461 11.302 7.94717 11.302 10.3225V13.4112C11.302 15.7866 13.2214 17.7191 15.5806 17.7191C15.6494 17.7191 15.7166 17.7122 15.7824 17.7017C15.8482 17.7122 15.9154 17.7191 15.9842 17.7191H18.6483C19.5832 17.7191 20.3435 18.4848 20.3435 19.426V22.5147C20.3435 23.456 19.583 24.2216 18.6483 24.2216H12.5935C11.8803 24.2216 11.3018 24.8038 11.3018 25.5221C11.3018 26.2402 11.8801 26.8226 12.5935 26.8226H18.6483C21.0075 26.8226 22.927 24.8901 22.927 22.5147V19.4261C22.927 17.0508 21.0075 15.1182 18.6483 15.1182H15.9842C15.9154 15.1182 15.8482 15.1252 15.7824 15.1356C15.7165 15.1252 15.6494 15.1182 15.5806 15.1182C14.6458 15.1182 13.8854 14.3525 13.8854 13.4114V10.3226C13.8854 9.38137 14.6459 8.61567 15.5806 8.61567Z" fill="url(#paint1_linear_1_49)"/>
<path d="M29.789 8.61567H35.8438C36.557 8.61567 37.1355 8.0334 37.1355 7.31514C37.1355 6.59687 36.5572 6.01461 35.8438 6.01461H29.789C27.4298 6.01461 25.5104 7.94717 25.5104 10.3225V22.5147C25.5104 24.8901 27.4298 26.8226 29.789 26.8226H35.8438C36.557 26.8226 37.1355 26.2403 37.1355 25.5221C37.1355 24.8039 36.5572 24.2216 35.8438 24.2216H29.789C28.8542 24.2216 28.0938 23.4559 28.0938 22.5147V17.7191H35.8438C36.557 17.7191 37.1355 17.1369 37.1355 16.4186C37.1355 15.7003 36.5572 15.1181 35.8438 15.1181H28.0937V10.3226C28.0937 9.38137 28.8542 8.61567 29.789 8.61567Z" fill="url(#paint2_linear_1_49)"/>
<path d="M47.0651 6.01472H43.9974C41.6381 6.01472 39.7187 7.94728 39.7187 10.3226V22.5147C39.7187 24.89 41.6381 26.8226 43.9974 26.8226H47.0651C49.4244 26.8226 51.3438 24.89 51.3438 22.5147V10.3226C51.3437 7.94728 49.4244 6.01472 47.0651 6.01472ZM48.7604 22.5147C48.7604 23.456 47.9999 24.2215 47.0651 24.2215H43.9974C43.0625 24.2215 42.3021 23.4558 42.3021 22.5147V10.3226C42.3021 9.38136 43.0626 8.61578 43.9974 8.61578H47.0651C48 8.61578 48.7604 9.38148 48.7604 10.3226V22.5147Z" fill="url(#paint3_linear_1_49)"/>
<path d="M38.75 37.8768C38.75 37.1586 38.1717 36.5762 37.4583 36.5762H13.5625C12.8492 36.5762 12.2708 37.1585 12.2708 37.8768C12.2708 38.595 12.8491 39.1773 13.5625 39.1773H37.4583C38.1717 39.1772 38.75 38.5949 38.75 37.8768Z" fill="url(#paint4_linear_1_49)"/>
<path d="M59.5782 41.7783H36.1667C35.4534 41.7783 34.875 42.3606 34.875 43.0788C34.875 43.7971 35.4533 44.3794 36.1667 44.3794H59.5782C60.2914 44.3794 60.8699 43.7971 60.8699 43.0788C60.8699 42.3606 60.2914 41.7783 59.5782 41.7783Z" fill="url(#paint5_linear_1_49)"/>
<defs>
<linearGradient id="paint0_linear_1_49" x1="0.0448448" y1="4.58332" x2="31.3365" y2="65.8281" gradientUnits="userSpaceOnUse">
<stop stop-color="#F99FAC"/>
<stop offset="0.358192" stop-color="#F677B2"/>
<stop offset="0.76572" stop-color="#98A6EE"/>
</linearGradient>
<linearGradient id="paint1_linear_1_49" x1="0.0448448" y1="4.58332" x2="31.3365" y2="65.8281" gradientUnits="userSpaceOnUse">
<stop stop-color="#F99FAC"/>
<stop offset="0.358192" stop-color="#F677B2"/>
<stop offset="0.76572" stop-color="#98A6EE"/>
</linearGradient>
<linearGradient id="paint2_linear_1_49" x1="0.0448448" y1="4.58332" x2="31.3365" y2="65.8281" gradientUnits="userSpaceOnUse">
<stop stop-color="#F99FAC"/>
<stop offset="0.358192" stop-color="#F677B2"/>
<stop offset="0.76572" stop-color="#98A6EE"/>
</linearGradient>
<linearGradient id="paint3_linear_1_49" x1="0.0448448" y1="4.58332" x2="31.3365" y2="65.8281" gradientUnits="userSpaceOnUse">
<stop stop-color="#F99FAC"/>
<stop offset="0.358192" stop-color="#F677B2"/>
<stop offset="0.76572" stop-color="#98A6EE"/>
</linearGradient>
<linearGradient id="paint4_linear_1_49" x1="0.0448448" y1="4.58332" x2="31.3365" y2="65.8281" gradientUnits="userSpaceOnUse">
<stop stop-color="#F99FAC"/>
<stop offset="0.358192" stop-color="#F677B2"/>
<stop offset="0.76572" stop-color="#98A6EE"/>
</linearGradient>
<linearGradient id="paint5_linear_1_49" x1="0.0448448" y1="4.58332" x2="31.3365" y2="65.8281" gradientUnits="userSpaceOnUse">
<stop stop-color="#F99FAC"/>
<stop offset="0.358192" stop-color="#F677B2"/>
<stop offset="0.76572" stop-color="#98A6EE"/>
</linearGradient>
</defs>
</svg>
