<svg width="74" height="69" viewBox="0 0 74 69" fill="none" xmlns="http://www.w3.org/2000/svg">
<path d="M14.1233 45.1747C14.2982 46.8082 15.2304 48.2734 16.5571 49.263C15.8144 50.0914 15.365 51.1628 15.365 52.3324V56.7172C15.365 58.6072 16.5156 60.2352 18.2021 61C18.1065 61.4367 18.0559 61.889 18.0559 62.3522C18.0559 66.0178 21.2016 69 25.068 69C28.9346 69 32.0803 66.0178 32.0803 62.3522C32.0803 62.0517 32.0573 61.7564 32.0162 61.4664H43.5502C43.5093 61.7565 43.4861 62.0517 43.4861 62.3522C43.4861 66.0178 46.6318 69 50.4984 69C54.3648 69 57.5105 66.0178 57.5105 62.3522C57.5105 58.6866 54.3648 55.7044 50.4984 55.7044C48.1528 55.7044 46.0742 56.8028 44.8005 58.4845H30.7659C29.4921 56.8028 27.4135 55.7044 25.0679 55.7044C22.8144 55.7044 20.8072 56.7185 19.5235 58.2894C18.9195 57.9972 18.5099 57.4045 18.5099 56.7174V52.3325C18.5099 51.3587 19.3461 50.5665 20.3741 50.5665C20.3789 50.5665 20.3835 50.566 20.3883 50.5658C20.3979 50.566 20.4075 50.5665 20.4169 50.5665H57.1881C60.2285 50.5665 63.3776 48.4296 64.3578 45.7016L73.7017 19.6918C74.2304 18.2202 74.0505 16.7363 73.208 15.6206C72.3656 14.505 70.942 13.865 69.3022 13.865H65.9486L55.8426 4.23841C54.2714 2.74915 51.7247 2.73623 50.1352 4.19808L33.0803 8.54713L28.5021 0.764903C28.0791 0.0458366 27.1214 -0.211886 26.3626 0.188968L17.2058 5.03046C16.8413 5.223 16.5728 5.54505 16.459 5.92546C16.345 6.30586 16.3951 6.71353 16.5984 7.05887L20.6023 13.8649H16.8091C15.7977 13.8649 14.8449 14.1098 14.0187 14.569L13.2761 7.53044C13.1957 6.7682 12.5191 6.18787 11.7112 6.18787H1.5727C0.704119 6.18787 0 6.85539 0 7.67882C0 8.50226 0.704119 9.16978 1.5727 9.16978H10.288L14.1233 45.1747ZM50.4987 58.6861C52.6308 58.6861 54.3654 60.3307 54.3654 62.352C54.3654 64.3734 52.6308 66.018 50.4987 66.018C48.3666 66.018 46.6318 64.3735 46.6318 62.352C46.6318 60.3306 48.3666 58.6861 50.4987 58.6861ZM25.0682 58.6861C27.2003 58.6861 28.9351 60.3307 28.9351 62.352C28.9351 64.3734 27.2003 66.018 25.0682 66.018C22.9361 66.018 21.2015 64.3735 21.2015 62.352C21.2015 60.3306 22.9361 58.6861 25.0682 58.6861ZM53.6165 6.34435L61.5115 13.8649H44.385L52.3148 6.34704C52.6744 6.00611 53.2593 6.00611 53.6165 6.34435ZM45.677 8.42288L39.9368 13.8649H36.2087L34.66 11.2324L45.677 8.42288ZM20.1112 6.90849L26.5211 3.51948L32.6073 13.8649H24.2037L20.1112 6.90849ZM70.7246 18.7302L61.3807 44.74C60.8363 46.2553 58.8773 47.5843 57.1885 47.5843H20.4174C18.8592 47.5843 17.4098 46.3429 17.2525 44.8736L16.6968 39.6774H50.5095C51.3781 39.6774 52.0822 39.0099 52.0822 38.1865C52.0822 37.3631 51.3781 36.6955 50.5095 36.6955H16.3781L14.5169 19.2908L14.5166 19.2867C14.4457 18.6237 14.6483 18.0053 15.0871 17.545C15.5162 17.0947 16.1278 16.8468 16.8091 16.8468H65.2809C65.2861 16.8469 65.2911 16.8475 65.2963 16.8475C65.3014 16.8475 65.3065 16.8469 65.3116 16.8468H69.3028C69.9241 16.8468 70.4031 17.0277 70.651 17.3561C70.899 17.6844 70.925 18.1725 70.7246 18.7302Z" fill="url(#paint0_linear_1_44)"/>
<defs>
<linearGradient id="paint0_linear_1_44" x1="0.0535244" y1="4.79166" x2="30.159" y2="72.0616" gradientUnits="userSpaceOnUse">
<stop stop-color="#F99FAC"/>
<stop offset="0.358192" stop-color="#F677B2"/>
<stop offset="0.76572" stop-color="#98A6EE"/>
</linearGradient>
</defs>
</svg>
