<svg width="65" height="65" viewBox="0 0 65 65" fill="none" xmlns="http://www.w3.org/2000/svg">
<path d="M55.5645 9.62315V3.14516C55.5645 1.41113 54.1534 0 52.4194 0H12.5817C10.8477 0 9.43548 1.41113 9.43548 3.14516V9.6221C3.14516 15.751 0 23.854 0 32.5C0 50.4211 14.5789 65 32.5 65C50.4211 65 65 50.4211 65 32.5C65 23.855 61.6483 15.752 55.5645 9.62315ZM55.5645 12.7085C55.8172 13.0021 56.0625 13.2998 56.3036 13.6018C56.116 13.801 55.8707 14.04 55.5645 14.3147V12.7085ZM55.5645 30.4032V17.0048C56.4389 16.3601 57.1025 15.7709 57.5722 15.3012C60.8421 20.041 62.6799 25.5974 62.877 31.4516H55.3716C55.489 31.1224 55.5645 30.7723 55.5645 30.4032ZM11.5323 3.14516C11.5323 2.56645 12.003 2.09677 12.5817 2.09677H52.4194C52.9981 2.09677 53.4677 2.56645 53.4677 3.14516V25.1613H11.5323V3.14516ZM11.5323 27.2581H53.4677V30.4032C53.4677 30.9819 52.9981 31.4516 52.4194 31.4516H12.5817C12.003 31.4516 11.5323 30.9819 11.5323 30.4032V27.2581ZM45.0807 35.6452V33.5484H47.1512C47.1292 34.2571 47.0904 34.9574 47.0265 35.6452H45.0807ZM46.7665 37.7419C46.4572 39.7307 45.9844 41.6241 45.3952 43.4148C42.184 42.5939 38.2714 42.0246 33.5484 41.9491V37.7419H46.7665ZM19.9194 33.5484V35.6452H17.9735C17.9096 34.9574 17.8708 34.2571 17.8488 33.5484H19.9194ZM9.43653 12.7065V14.3147C9.1304 14.04 8.88508 13.7999 8.69742 13.6007C8.93855 13.2988 9.18387 13.001 9.43653 12.7065ZM7.42677 15.3023C7.89645 15.7719 8.3871 16.3611 9.43548 17.0059V30.4032C9.43548 30.7723 9.51202 31.1224 9.62944 31.4516H2.12298C2.31903 25.5974 4.15686 20.041 7.42677 15.3023ZM2.12298 33.5484H15.751C15.7709 34.2571 15.8086 34.9564 15.8673 35.6452H13.629V37.7419H16.1001C16.4156 39.9456 16.9189 42.0319 17.5531 43.9977C11.9453 45.7726 8.84524 48.2615 7.43306 49.6789C4.25645 45.0576 2.32742 39.519 2.12298 33.5484ZM8.70581 51.3919C9.7804 50.2723 12.6624 47.7781 18.2598 46.0022C21.3588 54.1062 26.5577 59.8944 29.5572 62.7575C21.1313 61.945 13.7056 57.676 8.70581 51.3919ZM31.4516 61.6336C28.7552 59.0976 23.466 53.4164 20.3272 45.4161C23.3413 44.654 27.0159 44.1203 31.4516 44.0459V61.6336ZM31.4516 41.9491C26.7286 42.0236 22.816 42.5939 19.6048 43.4148C19.0156 41.6241 18.5428 39.7307 18.2335 37.7419H31.4516V41.9491ZM22.0161 35.6452V33.5484H42.9839V35.6452H22.0161ZM33.5484 61.6336V44.0459C37.9841 44.1193 41.6587 44.654 44.6728 45.4161C41.534 53.4164 36.2448 59.0976 33.5484 61.6336ZM35.4428 62.7586C38.4433 59.8954 43.6423 54.1073 46.7402 46.0032C52.3376 47.7781 55.2196 50.2733 56.2942 51.393C51.2944 57.676 43.8687 61.945 35.4428 62.7586ZM57.5669 49.6789C56.1548 48.2615 53.0547 45.7726 47.4469 43.9977C48.0811 42.0309 48.5844 39.9446 48.8999 37.7419H51.371V35.6452H49.1327C49.1914 34.9564 49.2281 34.2571 49.249 33.5484H62.877C62.6736 39.519 60.7446 45.0576 57.5669 49.6789Z" fill="url(#paint0_linear_1_92)"/>
<path d="M38.3689 9.24258L39.9131 7.69831L38.4307 6.21589L36.8865 7.76016C35.9272 7.04097 34.7886 6.55242 33.5484 6.37419V4.19355H31.4516V6.37419C30.2114 6.55242 29.0728 7.04097 28.1136 7.76016L26.5693 6.21589L25.0869 7.69831L26.6311 9.24258C25.9119 10.2019 25.4234 11.3404 25.2452 12.5806H23.0645V14.6774H25.2452C25.4234 15.9177 25.9119 17.0562 26.6311 18.0155L25.0869 19.5598L26.5693 21.0422L28.1136 19.4979C29.0728 20.2171 30.2114 20.7046 31.4516 20.8839V23.0645H33.5484V20.8839C34.7886 20.7056 35.9272 20.2171 36.8865 19.4979L38.4307 21.0422L39.9131 19.5598L38.3689 18.0155C39.0881 17.0562 39.5756 15.9177 39.7548 14.6774H41.9355V12.5806H39.7548C39.5766 11.3404 39.0881 10.2019 38.3689 9.24258ZM32.5 18.871C29.6096 18.871 27.2581 16.5194 27.2581 13.629C27.2581 10.7386 29.6096 8.3871 32.5 8.3871C35.3904 8.3871 37.7419 10.7386 37.7419 13.629C37.7419 16.5194 35.3904 18.871 32.5 18.871Z" fill="url(#paint1_linear_1_92)"/>
<path d="M32.5 14.6774C33.079 14.6774 33.5484 14.208 33.5484 13.629C33.5484 13.05 33.079 12.5806 32.5 12.5806C31.921 12.5806 31.4516 13.05 31.4516 13.629C31.4516 14.208 31.921 14.6774 32.5 14.6774Z" fill="url(#paint2_linear_1_92)"/>
<defs>
<linearGradient id="paint0_linear_1_92" x1="0.0470147" y1="4.51388" x2="29.7188" y2="66.3349" gradientUnits="userSpaceOnUse">
<stop stop-color="#F99FAC"/>
<stop offset="0.358192" stop-color="#F677B2"/>
<stop offset="0.76572" stop-color="#98A6EE"/>
</linearGradient>
<linearGradient id="paint1_linear_1_92" x1="0.0470147" y1="4.51388" x2="29.7188" y2="66.3349" gradientUnits="userSpaceOnUse">
<stop stop-color="#F99FAC"/>
<stop offset="0.358192" stop-color="#F677B2"/>
<stop offset="0.76572" stop-color="#98A6EE"/>
</linearGradient>
<linearGradient id="paint2_linear_1_92" x1="0.0470147" y1="4.51388" x2="29.7188" y2="66.3349" gradientUnits="userSpaceOnUse">
<stop stop-color="#F99FAC"/>
<stop offset="0.358192" stop-color="#F677B2"/>
<stop offset="0.76572" stop-color="#98A6EE"/>
</linearGradient>
</defs>
</svg>
