<svg width="79" height="63" viewBox="0 0 79 63" fill="none" xmlns="http://www.w3.org/2000/svg">
<path d="M77.6316 15.7009H60.026V1.47196C60.026 0.659047 59.4133 0 58.6576 0H1.36837C0.612666 0 0 0.659047 0 1.47196V45.8271C0 46.64 0.612666 47.2991 1.36837 47.2991H18.974V61.528C18.974 62.341 19.5867 63 20.3424 63H77.6316C78.3873 63 79 62.341 79 61.528V17.1729C79 16.36 78.3873 15.7009 77.6316 15.7009ZM76.2633 24.3943H21.7108V18.6449H76.2633V24.3943ZM57.2892 2.94393V8.69341H2.73675V2.94393H57.2892ZM2.73675 44.3551V11.6373H57.2892V15.7009H20.3424C19.5867 15.7009 18.974 16.36 18.974 17.1729V44.3551H2.73675ZM21.7108 27.3383H38.2447V60.0561H21.7108V27.3383ZM40.9815 60.0561V27.3383H76.2633V60.0561H40.9815Z" fill="url(#paint0_linear_1_35)"/>
<path d="M24.5431 22.9918C24.9044 22.9918 25.2565 22.8348 25.512 22.56C25.7656 22.2872 25.9115 21.9065 25.9115 21.5198C25.9115 21.1312 25.7656 20.7525 25.512 20.4796C25.2565 20.2049 24.9044 20.0479 24.5431 20.0479C24.1837 20.0479 23.8298 20.2049 23.5762 20.4796C23.3207 20.7525 23.1748 21.1312 23.1748 21.5198C23.1748 21.9065 23.3207 22.2872 23.5762 22.56C23.8314 22.8348 24.1835 22.9918 24.5431 22.9918Z" fill="url(#paint1_linear_1_35)"/>
<path d="M27.931 22.9918C28.2923 22.9918 28.6444 22.8348 28.8998 22.56C29.1535 22.2872 29.2994 21.9065 29.2994 21.5198C29.2994 21.1332 29.1535 20.7525 28.8998 20.4777C28.6444 20.2049 28.2923 20.0479 27.931 20.0479C27.5716 20.0479 27.2195 20.2049 26.9641 20.4777C26.7104 20.7525 26.5645 21.1332 26.5645 21.5198C26.5645 21.9065 26.7104 22.2872 26.9641 22.56C27.2195 22.8348 27.5716 22.9918 27.931 22.9918Z" fill="url(#paint2_linear_1_35)"/>
<path d="M31.321 22.9918C31.6804 22.9918 32.0325 22.8348 32.2879 22.56C32.5434 22.2872 32.6893 21.9065 32.6893 21.5198C32.6893 21.1312 32.5434 20.7525 32.2879 20.4777C32.0325 20.2049 31.6804 20.0479 31.321 20.0479C30.9597 20.0479 30.6076 20.2049 30.3522 20.4777C30.0985 20.7525 29.9526 21.1332 29.9526 21.5198C29.9526 21.9065 30.0985 22.2872 30.3522 22.56C30.6076 22.8348 30.9597 22.9918 31.321 22.9918Z" fill="url(#paint3_linear_1_35)"/>
<path d="M25.599 33.3066H34.3566C35.1123 33.3066 35.7249 32.6476 35.7249 31.8346C35.7249 31.0217 35.1123 30.3627 34.3566 30.3627H25.599C24.8433 30.3627 24.2306 31.0217 24.2306 31.8346C24.2306 32.6476 24.8433 33.3066 25.599 33.3066Z" fill="url(#paint4_linear_1_35)"/>
<path d="M34.3566 35.6617H25.599C24.8433 35.6617 24.2306 36.3208 24.2306 37.1337C24.2306 37.9466 24.8433 38.6056 25.599 38.6056H34.3566C35.1123 38.6056 35.7249 37.9466 35.7249 37.1337C35.7249 36.3208 35.1123 35.6617 34.3566 35.6617Z" fill="url(#paint5_linear_1_35)"/>
<path d="M34.3566 40.9608H25.599C24.8433 40.9608 24.2306 41.6199 24.2306 42.4328C24.2306 43.2457 24.8433 43.9048 25.599 43.9048H34.3566C35.1123 43.9048 35.7249 43.2457 35.7249 42.4328C35.7249 41.6199 35.1123 40.9608 34.3566 40.9608Z" fill="url(#paint6_linear_1_35)"/>
<path d="M65.1346 30.3627H44.5737C43.818 30.3627 43.2054 31.0217 43.2054 31.8346C43.2054 32.6476 43.818 33.3066 44.5737 33.3066H65.1346C65.8903 33.3066 66.5029 32.6476 66.5029 31.8346C66.5029 31.0217 65.8903 30.3627 65.1346 30.3627Z" fill="url(#paint7_linear_1_35)"/>
<path d="M65.1346 35.6617H44.5737C43.818 35.6617 43.2054 36.3208 43.2054 37.1337C43.2054 37.9466 43.818 38.6056 44.5737 38.6056H65.1346C65.8903 38.6056 66.5029 37.9466 66.5029 37.1337C66.5029 36.3208 65.8903 35.6617 65.1346 35.6617Z" fill="url(#paint8_linear_1_35)"/>
<path d="M65.1346 40.9608H44.5737C43.818 40.9608 43.2054 41.6199 43.2054 42.4328C43.2054 43.2457 43.818 43.9048 44.5737 43.9048H65.1346C65.8903 43.9048 66.5029 43.2457 66.5029 42.4328C66.5029 41.6199 65.8903 40.9608 65.1346 40.9608Z" fill="url(#paint9_linear_1_35)"/>
<path d="M5.56839 7.29099C5.92964 7.29099 6.28177 7.13398 6.5372 6.85921C6.7908 6.58445 6.93676 6.20566 6.93676 5.81903C6.93676 5.43239 6.7908 5.05164 6.5372 4.77884C6.28177 4.50407 5.92964 4.34706 5.56839 4.34706C5.20896 4.34706 4.85683 4.50407 4.60141 4.77884C4.34598 5.05164 4.20002 5.43043 4.20002 5.81903C4.20002 6.20566 4.34598 6.58641 4.60141 6.85921C4.85665 7.13398 5.20878 7.29099 5.56839 7.29099Z" fill="url(#paint10_linear_1_35)"/>
<path d="M8.95627 7.29099C9.31752 7.29099 9.66964 7.13398 9.92507 6.85921C10.1787 6.58641 10.3246 6.20566 10.3246 5.81903C10.3246 5.43043 10.1787 5.05164 9.92507 4.77884C9.66964 4.50407 9.31752 4.34706 8.95627 4.34706C8.59684 4.34706 8.24471 4.50407 7.98928 4.77884C7.73568 5.05164 7.58972 5.43043 7.58972 5.81903C7.58972 6.20566 7.73568 6.58641 7.98928 6.85921C8.24471 7.13398 8.59684 7.29099 8.95627 7.29099Z" fill="url(#paint11_linear_1_35)"/>
<path d="M12.3462 7.29099C12.7056 7.29099 13.0577 7.13398 13.3132 6.85921C13.5686 6.58445 13.7146 6.20566 13.7146 5.81903C13.7146 5.43239 13.5686 5.05164 13.3132 4.77884C13.0596 4.50407 12.7056 4.34706 12.3462 4.34706C11.9849 4.34706 11.6328 4.50407 11.3774 4.77884C11.1238 5.05164 10.9778 5.43043 10.9778 5.81903C10.9778 6.20566 11.1238 6.58641 11.3774 6.85921C11.6328 7.13398 11.9849 7.29099 12.3462 7.29099Z" fill="url(#paint12_linear_1_35)"/>
<path d="M15.3818 14.6618H6.62421C5.8685 14.6618 5.25584 15.3208 5.25584 16.1337C5.25584 16.9466 5.8685 17.6057 6.62421 17.6057H15.3818C16.1375 17.6057 16.7502 16.9466 16.7502 16.1337C16.7502 15.3208 16.1375 14.6618 15.3818 14.6618Z" fill="url(#paint13_linear_1_35)"/>
<path d="M15.3818 19.9608H6.62421C5.8685 19.9608 5.25584 20.6198 5.25584 21.4328C5.25584 22.2457 5.8685 22.9047 6.62421 22.9047H15.3818C16.1375 22.9047 16.7502 22.2457 16.7502 21.4328C16.7502 20.6198 16.1375 19.9608 15.3818 19.9608Z" fill="url(#paint14_linear_1_35)"/>
<path d="M15.3818 25.2598H6.62421C5.8685 25.2598 5.25584 25.9189 5.25584 26.7318C5.25584 27.5447 5.8685 28.2037 6.62421 28.2037H15.3818C16.1375 28.2037 16.7502 27.5447 16.7502 26.7318C16.7502 25.9189 16.1375 25.2598 15.3818 25.2598Z" fill="url(#paint15_linear_1_35)"/>
<defs>
<linearGradient id="paint0_linear_1_35" x1="39.5" y1="0" x2="39.5" y2="63" gradientUnits="userSpaceOnUse">
<stop stop-color="#F99FAC"/>
<stop offset="0.396774" stop-color="#F677B2"/>
<stop offset="0.782214" stop-color="#98A6EE"/>
</linearGradient>
<linearGradient id="paint1_linear_1_35" x1="39.5" y1="0" x2="39.5" y2="63" gradientUnits="userSpaceOnUse">
<stop stop-color="#F99FAC"/>
<stop offset="0.396774" stop-color="#F677B2"/>
<stop offset="0.782214" stop-color="#98A6EE"/>
</linearGradient>
<linearGradient id="paint2_linear_1_35" x1="39.5" y1="0" x2="39.5" y2="63" gradientUnits="userSpaceOnUse">
<stop stop-color="#F99FAC"/>
<stop offset="0.396774" stop-color="#F677B2"/>
<stop offset="0.782214" stop-color="#98A6EE"/>
</linearGradient>
<linearGradient id="paint3_linear_1_35" x1="39.5" y1="0" x2="39.5" y2="63" gradientUnits="userSpaceOnUse">
<stop stop-color="#F99FAC"/>
<stop offset="0.396774" stop-color="#F677B2"/>
<stop offset="0.782214" stop-color="#98A6EE"/>
</linearGradient>
<linearGradient id="paint4_linear_1_35" x1="39.5" y1="0" x2="39.5" y2="63" gradientUnits="userSpaceOnUse">
<stop stop-color="#F99FAC"/>
<stop offset="0.396774" stop-color="#F677B2"/>
<stop offset="0.782214" stop-color="#98A6EE"/>
</linearGradient>
<linearGradient id="paint5_linear_1_35" x1="39.5" y1="0" x2="39.5" y2="63" gradientUnits="userSpaceOnUse">
<stop stop-color="#F99FAC"/>
<stop offset="0.396774" stop-color="#F677B2"/>
<stop offset="0.782214" stop-color="#98A6EE"/>
</linearGradient>
<linearGradient id="paint6_linear_1_35" x1="39.5" y1="0" x2="39.5" y2="63" gradientUnits="userSpaceOnUse">
<stop stop-color="#F99FAC"/>
<stop offset="0.396774" stop-color="#F677B2"/>
<stop offset="0.782214" stop-color="#98A6EE"/>
</linearGradient>
<linearGradient id="paint7_linear_1_35" x1="39.5" y1="0" x2="39.5" y2="63" gradientUnits="userSpaceOnUse">
<stop stop-color="#F99FAC"/>
<stop offset="0.396774" stop-color="#F677B2"/>
<stop offset="0.782214" stop-color="#98A6EE"/>
</linearGradient>
<linearGradient id="paint8_linear_1_35" x1="39.5" y1="0" x2="39.5" y2="63" gradientUnits="userSpaceOnUse">
<stop stop-color="#F99FAC"/>
<stop offset="0.396774" stop-color="#F677B2"/>
<stop offset="0.782214" stop-color="#98A6EE"/>
</linearGradient>
<linearGradient id="paint9_linear_1_35" x1="39.5" y1="0" x2="39.5" y2="63" gradientUnits="userSpaceOnUse">
<stop stop-color="#F99FAC"/>
<stop offset="0.396774" stop-color="#F677B2"/>
<stop offset="0.782214" stop-color="#98A6EE"/>
</linearGradient>
<linearGradient id="paint10_linear_1_35" x1="39.5" y1="0" x2="39.5" y2="63" gradientUnits="userSpaceOnUse">
<stop stop-color="#F99FAC"/>
<stop offset="0.396774" stop-color="#F677B2"/>
<stop offset="0.782214" stop-color="#98A6EE"/>
</linearGradient>
<linearGradient id="paint11_linear_1_35" x1="39.5" y1="0" x2="39.5" y2="63" gradientUnits="userSpaceOnUse">
<stop stop-color="#F99FAC"/>
<stop offset="0.396774" stop-color="#F677B2"/>
<stop offset="0.782214" stop-color="#98A6EE"/>
</linearGradient>
<linearGradient id="paint12_linear_1_35" x1="39.5" y1="0" x2="39.5" y2="63" gradientUnits="userSpaceOnUse">
<stop stop-color="#F99FAC"/>
<stop offset="0.396774" stop-color="#F677B2"/>
<stop offset="0.782214" stop-color="#98A6EE"/>
</linearGradient>
<linearGradient id="paint13_linear_1_35" x1="39.5" y1="0" x2="39.5" y2="63" gradientUnits="userSpaceOnUse">
<stop stop-color="#F99FAC"/>
<stop offset="0.396774" stop-color="#F677B2"/>
<stop offset="0.782214" stop-color="#98A6EE"/>
</linearGradient>
<linearGradient id="paint14_linear_1_35" x1="39.5" y1="0" x2="39.5" y2="63" gradientUnits="userSpaceOnUse">
<stop stop-color="#F99FAC"/>
<stop offset="0.396774" stop-color="#F677B2"/>
<stop offset="0.782214" stop-color="#98A6EE"/>
</linearGradient>
<linearGradient id="paint15_linear_1_35" x1="39.5" y1="0" x2="39.5" y2="63" gradientUnits="userSpaceOnUse">
<stop stop-color="#F99FAC"/>
<stop offset="0.396774" stop-color="#F677B2"/>
<stop offset="0.782214" stop-color="#98A6EE"/>
</linearGradient>
</defs>
</svg>
