<svg width="63" height="63" viewBox="0 0 63 63" fill="none" xmlns="http://www.w3.org/2000/svg">
<path d="M30.7457 16.9086L21.1865 21.8095C20.5819 22.1196 20.343 22.8611 20.653 23.4659C20.8709 23.8909 21.3019 24.1351 21.7488 24.1351C21.9378 24.1351 22.1297 24.0916 22.3093 23.9993L31.8685 19.0983C32.4731 18.7883 32.712 18.0468 32.402 17.442C32.0922 16.8375 31.3501 16.5985 30.7457 16.9086Z" fill="url(#paint0_linear_1_77)"/>
<path d="M62.6398 27.9306L35.0694 0.360224C34.816 0.107116 34.4647 -0.0226985 34.1081 0.00326441C33.7512 0.0297195 33.4234 0.210476 33.2102 0.498282L27.7155 7.92109C27.3528 8.41082 27.4034 9.09238 27.8343 9.52329L29.8764 11.5654L17.3051 18.0108C17.0374 18.148 16.8294 18.3785 16.7201 18.6588L0.0841324 61.3225C-0.0933015 61.7774 0.015103 62.2942 0.360373 62.6396C0.595516 62.8745 0.91027 63 1.23068 63C1.38093 63 1.53227 62.9724 1.67747 62.9158L44.3414 46.2799C44.6216 46.1706 44.8521 45.9624 44.9894 45.6949L51.435 33.1237L53.4768 35.1655C53.7153 35.404 54.0304 35.5259 54.3473 35.5259C54.6031 35.5259 54.8602 35.4465 55.079 35.2845L62.5017 29.7896C62.7894 29.5766 62.9701 29.2487 62.9966 28.8917C63.0232 28.5347 62.8929 28.1837 62.6398 27.9306ZM43.0124 44.1567L3.39533 59.6046L18.8433 19.9876L31.7045 13.3935L49.6061 31.2964L43.0124 44.1567ZM54.467 32.6754L30.3244 8.53288L34.3388 3.10995L59.8899 28.6612L54.467 32.6754Z" fill="url(#paint1_linear_1_77)"/>
<path d="M27.1789 31.8057C26.4079 32.5768 26.1884 33.6879 26.5142 34.6558L15.3538 45.816C14.8733 46.2965 14.8733 47.0756 15.3538 47.5563C15.5942 47.7966 15.909 47.9167 16.2239 47.9167C16.5388 47.9167 16.8538 47.7964 17.094 47.5563L28.2542 36.396C29.2221 36.7218 30.3332 36.5023 31.1042 35.7313C32.1881 34.6474 32.1881 32.8897 31.1042 31.8057C30.0206 30.7218 28.2627 30.7218 27.1789 31.8057Z" fill="url(#paint2_linear_1_77)"/>
<path d="M11.1124 50.0575L8.41315 52.7568C7.93265 53.2373 7.93265 54.0165 8.41315 54.4971C8.65346 54.7374 8.96833 54.8575 9.28321 54.8575C9.59809 54.8575 9.91297 54.7374 10.1533 54.4971L12.8526 51.7978C13.3331 51.3173 13.3331 50.5382 12.8526 50.0575C12.3719 49.577 11.5931 49.577 11.1124 50.0575Z" fill="url(#paint3_linear_1_77)"/>
<path d="M54.6333 29.1884C54.8736 29.4287 55.1885 29.5488 55.5033 29.5488C55.8182 29.5488 56.1331 29.4286 56.3734 29.1884C56.8539 28.7079 56.8539 27.9288 56.3734 27.4483L53.3851 24.4598C52.9046 23.9793 52.1257 23.9793 51.6448 24.4598C51.1643 24.9403 51.1643 25.7195 51.6448 26.2L54.6333 29.1884Z" fill="url(#paint4_linear_1_77)"/>
<defs>
<linearGradient id="paint0_linear_1_77" x1="0.0455681" y1="4.37499" x2="28.8044" y2="64.2938" gradientUnits="userSpaceOnUse">
<stop stop-color="#F99FAC"/>
<stop offset="0.358192" stop-color="#F677B2"/>
<stop offset="0.76572" stop-color="#98A6EE"/>
</linearGradient>
<linearGradient id="paint1_linear_1_77" x1="0.0455681" y1="4.37499" x2="28.8044" y2="64.2938" gradientUnits="userSpaceOnUse">
<stop stop-color="#F99FAC"/>
<stop offset="0.358192" stop-color="#F677B2"/>
<stop offset="0.76572" stop-color="#98A6EE"/>
</linearGradient>
<linearGradient id="paint2_linear_1_77" x1="0.0455681" y1="4.37499" x2="28.8044" y2="64.2938" gradientUnits="userSpaceOnUse">
<stop stop-color="#F99FAC"/>
<stop offset="0.358192" stop-color="#F677B2"/>
<stop offset="0.76572" stop-color="#98A6EE"/>
</linearGradient>
<linearGradient id="paint3_linear_1_77" x1="0.0455681" y1="4.37499" x2="28.8044" y2="64.2938" gradientUnits="userSpaceOnUse">
<stop stop-color="#F99FAC"/>
<stop offset="0.358192" stop-color="#F677B2"/>
<stop offset="0.76572" stop-color="#98A6EE"/>
</linearGradient>
<linearGradient id="paint4_linear_1_77" x1="0.0455681" y1="4.37499" x2="28.8044" y2="64.2938" gradientUnits="userSpaceOnUse">
<stop stop-color="#F99FAC"/>
<stop offset="0.358192" stop-color="#F677B2"/>
<stop offset="0.76572" stop-color="#98A6EE"/>
</linearGradient>
</defs>
</svg>
