<svg width="88" height="49" viewBox="0 0 88 49" fill="none" xmlns="http://www.w3.org/2000/svg">
<path d="M87.9181 35.097L82.4786 4.37037C81.9709 1.49804 79.2197 -0.426729 76.3393 0.081362L32.7166 7.77467C30.0069 8.25297 28.1677 10.7228 28.3851 13.405C28.3554 13.6277 33.862 44.6306 33.862 44.6306C34.1065 46.0219 34.8813 47.2335 36.0427 48.0443C36.9438 48.6731 37.9925 49 39.0694 49C39.3795 49 39.691 48.9732 40.0012 48.9183L83.6212 41.2249C85.0151 40.9796 86.2289 40.2076 87.0413 39.0483C87.8524 37.8916 88.1638 36.4882 87.9181 35.097ZM84.2431 30.1064L69.5757 18.8444C73.7046 14.4066 78.0151 9.53199 80.1667 7.07936L84.2431 30.1064ZM33.1961 10.4768L76.8174 2.78336C76.9678 2.75797 77.1155 2.74452 77.2618 2.74452C78.1051 2.74452 78.8761 3.17123 79.3456 3.84223C78.0639 5.31408 66.4551 18.6057 60.8747 23.825C59.4138 25.188 57.2961 25.5311 55.4875 24.6921C48.9011 21.6547 34.5604 14.4728 31.113 12.7422C31.1541 12.3102 31.2958 11.8913 31.5525 11.5248C31.9432 10.9673 32.5273 10.5961 33.1961 10.4768ZM31.5952 16.0547C34.8253 17.672 40.6911 20.5986 46.0499 23.217L35.706 39.2779L31.5952 16.0547ZM84.7882 37.4747C84.3974 38.0322 83.8147 38.4035 83.1445 38.5215L39.5232 46.2162C38.8531 46.3315 38.1751 46.1841 37.6178 45.794C37.0606 45.4053 36.6872 44.8223 36.5691 44.1535L36.4107 43.2591L48.5386 24.4281C50.741 25.4949 52.7584 26.4581 54.334 27.1851C55.3652 27.6609 56.461 27.8928 57.5446 27.8928C59.4406 27.8928 61.3056 27.1837 62.7545 25.8273C64.1362 24.5355 65.855 22.7866 67.6856 20.8566L84.9526 34.1146L85.2111 35.5741C85.3292 36.2429 85.1788 36.9185 84.7882 37.4747Z" fill="url(#paint0_linear_1_87)"/>
<path d="M26.1357 21.5732C26.0042 20.8267 25.2884 20.3227 24.5432 20.4608L1.13601 24.5889C0.388007 24.7202 -0.111531 25.432 0.0214321 26.1785C0.138307 26.8447 0.71842 27.3125 1.37361 27.3125C1.45281 27.3125 1.53338 27.3057 1.61396 27.291L25.0213 23.1628C25.7691 23.0314 26.2687 22.3198 26.1357 21.5732Z" fill="url(#paint1_linear_1_87)"/>
<path d="M27.5403 29.5119C27.4087 28.7654 26.6944 28.264 25.9478 28.3995L11.9036 30.8764C11.1558 31.0078 10.6562 31.7194 10.7892 32.466C10.9059 33.1321 11.486 33.5998 12.1414 33.5998C12.2206 33.5998 12.3011 33.5933 12.3817 33.5784L26.4257 31.1015C27.1737 30.9702 27.6732 30.2585 27.5403 29.5119Z" fill="url(#paint2_linear_1_87)"/>
<path d="M27.3456 36.2992L17.9838 37.9506C17.2359 38.0819 16.7364 38.7935 16.8693 39.5402C16.9861 40.2062 17.5662 40.674 18.2214 40.674C18.3007 40.674 18.3813 40.6673 18.4618 40.6526L27.8235 39.0013C28.5715 38.87 29.0711 38.1582 28.9381 37.4117C28.8079 36.6651 28.0895 36.1599 27.3456 36.2992Z" fill="url(#paint3_linear_1_87)"/>
<defs>
<linearGradient id="paint0_linear_1_87" x1="0.0636506" y1="3.40277" x2="14.3662" y2="56.9197" gradientUnits="userSpaceOnUse">
<stop stop-color="#F99FAC"/>
<stop offset="0.358192" stop-color="#F677B2"/>
<stop offset="0.76572" stop-color="#98A6EE"/>
</linearGradient>
<linearGradient id="paint1_linear_1_87" x1="0.0636506" y1="3.40277" x2="14.3662" y2="56.9197" gradientUnits="userSpaceOnUse">
<stop stop-color="#F99FAC"/>
<stop offset="0.358192" stop-color="#F677B2"/>
<stop offset="0.76572" stop-color="#98A6EE"/>
</linearGradient>
<linearGradient id="paint2_linear_1_87" x1="0.0636506" y1="3.40277" x2="14.3662" y2="56.9197" gradientUnits="userSpaceOnUse">
<stop stop-color="#F99FAC"/>
<stop offset="0.358192" stop-color="#F677B2"/>
<stop offset="0.76572" stop-color="#98A6EE"/>
</linearGradient>
<linearGradient id="paint3_linear_1_87" x1="0.0636506" y1="3.40277" x2="14.3662" y2="56.9197" gradientUnits="userSpaceOnUse">
<stop stop-color="#F99FAC"/>
<stop offset="0.358192" stop-color="#F677B2"/>
<stop offset="0.76572" stop-color="#98A6EE"/>
</linearGradient>
</defs>
</svg>
