<svg width="60" height="60" viewBox="0 0 60 60" fill="none" xmlns="http://www.w3.org/2000/svg">
<path d="M7 39H5V59C5 59.6 5.4 60 6 60H23V58H7V39Z" fill="url(#paint0_linear_1_81)"/>
<path d="M7 2H43V11C43 11.6 43.4 12 44 12H53V40H55V11C55 10.9 55 10.8 54.9 10.7V10.6C54.8 10.5 54.8 10.4 54.7 10.3L44.7 0.3C44.6 0.2 44.5 0.2 44.4 0.1H44.3C44.2 0.1 44.1 0 44 0H6C5.4 0 5 0.4 5 1V17H7V2ZM45 3.4L51.6 10H45V3.4Z" fill="url(#paint1_linear_1_81)"/>
<path d="M12 5H10V7H12V5Z" fill="url(#paint2_linear_1_81)"/>
<path d="M24 9H10V11H24V9Z" fill="url(#paint3_linear_1_81)"/>
<path d="M24 13H10V15H24V13Z" fill="url(#paint4_linear_1_81)"/>
<path d="M16 5H14V7H16V5Z" fill="url(#paint5_linear_1_81)"/>
<path d="M20 5H18V7H20V5Z" fill="url(#paint6_linear_1_81)"/>
<path d="M34 35V27.4L39.7 21.7C40 21.4 40.1 21 39.9 20.6C39.8 20.2 39.4 20 39 20H1C0.4 20 0 20.4 0 21V35C0 35.6 0.4 36 1 36H33C33.6 36 34 35.6 34 35ZM32 27V34H2V22H36.6L32.3 26.3C32.1 26.5 32 26.7 32 27Z" fill="url(#paint7_linear_1_81)"/>
<path d="M59 44H22C21.6 44 21.3 44.2 21.1 44.6C20.9 45 21 45.4 21.2 45.7L26 51.4V59C26 59.6 26.4 60 27 60H59C59.6 60 60 59.6 60 59V45C60 44.4 59.6 44 59 44ZM58 58H27.9V51C27.9 50.8 27.8 50.6 27.7 50.4L24.1 46H58V58Z" fill="url(#paint8_linear_1_81)"/>
<path d="M6 25H4V27H6V25Z" fill="url(#paint9_linear_1_81)"/>
<path d="M10 25H8V27H10V25Z" fill="url(#paint10_linear_1_81)"/>
<path d="M30 25H12V27H30V25Z" fill="url(#paint11_linear_1_81)"/>
<path d="M6 29H4V31H6V29Z" fill="url(#paint12_linear_1_81)"/>
<path d="M30 29H8V31H30V29Z" fill="url(#paint13_linear_1_81)"/>
<path d="M32 49H30V51H32V49Z" fill="url(#paint14_linear_1_81)"/>
<path d="M56 49H34V51H56V49Z" fill="url(#paint15_linear_1_81)"/>
<path d="M32 53H30V55H32V53Z" fill="url(#paint16_linear_1_81)"/>
<path d="M36 53H34V55H36V53Z" fill="url(#paint17_linear_1_81)"/>
<path d="M56 53H38V55H56V53Z" fill="url(#paint18_linear_1_81)"/>
<path d="M50 22H42V24H50V22Z" fill="url(#paint19_linear_1_81)"/>
<path d="M50 26H40V28H50V26Z" fill="url(#paint20_linear_1_81)"/>
<path d="M50 30H36V32H50V30Z" fill="url(#paint21_linear_1_81)"/>
<path d="M50 34H36V36H50V34Z" fill="url(#paint22_linear_1_81)"/>
<path d="M11 54H9V56H11V54Z" fill="url(#paint23_linear_1_81)"/>
<path d="M15 54H13V56H15V54Z" fill="url(#paint24_linear_1_81)"/>
<path d="M19 54H17V56H19V54Z" fill="url(#paint25_linear_1_81)"/>
<path d="M11 50H9V52H11V50Z" fill="url(#paint26_linear_1_81)"/>
<path d="M15 50H13V52H15V50Z" fill="url(#paint27_linear_1_81)"/>
<path d="M11 46H9V48H11V46Z" fill="url(#paint28_linear_1_81)"/>
<path d="M11 42H9V44H11V42Z" fill="url(#paint29_linear_1_81)"/>
<path d="M15 46H13V48H15V46Z" fill="url(#paint30_linear_1_81)"/>
<path d="M19 50H17V52H19V50Z" fill="url(#paint31_linear_1_81)"/>
<path d="M23 54H21V56H23V54Z" fill="url(#paint32_linear_1_81)"/>
<defs>
<linearGradient id="paint0_linear_1_81" x1="0.0433982" y1="4.16666" x2="27.4327" y2="61.2322" gradientUnits="userSpaceOnUse">
<stop stop-color="#F99FAC"/>
<stop offset="0.358192" stop-color="#F677B2"/>
<stop offset="0.76572" stop-color="#98A6EE"/>
</linearGradient>
<linearGradient id="paint1_linear_1_81" x1="0.0433982" y1="4.16666" x2="27.4327" y2="61.2322" gradientUnits="userSpaceOnUse">
<stop stop-color="#F99FAC"/>
<stop offset="0.358192" stop-color="#F677B2"/>
<stop offset="0.76572" stop-color="#98A6EE"/>
</linearGradient>
<linearGradient id="paint2_linear_1_81" x1="0.0433982" y1="4.16666" x2="27.4327" y2="61.2322" gradientUnits="userSpaceOnUse">
<stop stop-color="#F99FAC"/>
<stop offset="0.358192" stop-color="#F677B2"/>
<stop offset="0.76572" stop-color="#98A6EE"/>
</linearGradient>
<linearGradient id="paint3_linear_1_81" x1="0.0433982" y1="4.16666" x2="27.4327" y2="61.2322" gradientUnits="userSpaceOnUse">
<stop stop-color="#F99FAC"/>
<stop offset="0.358192" stop-color="#F677B2"/>
<stop offset="0.76572" stop-color="#98A6EE"/>
</linearGradient>
<linearGradient id="paint4_linear_1_81" x1="0.0433982" y1="4.16666" x2="27.4327" y2="61.2322" gradientUnits="userSpaceOnUse">
<stop stop-color="#F99FAC"/>
<stop offset="0.358192" stop-color="#F677B2"/>
<stop offset="0.76572" stop-color="#98A6EE"/>
</linearGradient>
<linearGradient id="paint5_linear_1_81" x1="0.0433982" y1="4.16666" x2="27.4327" y2="61.2322" gradientUnits="userSpaceOnUse">
<stop stop-color="#F99FAC"/>
<stop offset="0.358192" stop-color="#F677B2"/>
<stop offset="0.76572" stop-color="#98A6EE"/>
</linearGradient>
<linearGradient id="paint6_linear_1_81" x1="0.0433982" y1="4.16666" x2="27.4327" y2="61.2322" gradientUnits="userSpaceOnUse">
<stop stop-color="#F99FAC"/>
<stop offset="0.358192" stop-color="#F677B2"/>
<stop offset="0.76572" stop-color="#98A6EE"/>
</linearGradient>
<linearGradient id="paint7_linear_1_81" x1="0.0433982" y1="4.16666" x2="27.4327" y2="61.2322" gradientUnits="userSpaceOnUse">
<stop stop-color="#F99FAC"/>
<stop offset="0.358192" stop-color="#F677B2"/>
<stop offset="0.76572" stop-color="#98A6EE"/>
</linearGradient>
<linearGradient id="paint8_linear_1_81" x1="0.0433982" y1="4.16666" x2="27.4327" y2="61.2322" gradientUnits="userSpaceOnUse">
<stop stop-color="#F99FAC"/>
<stop offset="0.358192" stop-color="#F677B2"/>
<stop offset="0.76572" stop-color="#98A6EE"/>
</linearGradient>
<linearGradient id="paint9_linear_1_81" x1="0.0433982" y1="4.16666" x2="27.4327" y2="61.2322" gradientUnits="userSpaceOnUse">
<stop stop-color="#F99FAC"/>
<stop offset="0.358192" stop-color="#F677B2"/>
<stop offset="0.76572" stop-color="#98A6EE"/>
</linearGradient>
<linearGradient id="paint10_linear_1_81" x1="0.0433982" y1="4.16666" x2="27.4327" y2="61.2322" gradientUnits="userSpaceOnUse">
<stop stop-color="#F99FAC"/>
<stop offset="0.358192" stop-color="#F677B2"/>
<stop offset="0.76572" stop-color="#98A6EE"/>
</linearGradient>
<linearGradient id="paint11_linear_1_81" x1="0.0433982" y1="4.16666" x2="27.4327" y2="61.2322" gradientUnits="userSpaceOnUse">
<stop stop-color="#F99FAC"/>
<stop offset="0.358192" stop-color="#F677B2"/>
<stop offset="0.76572" stop-color="#98A6EE"/>
</linearGradient>
<linearGradient id="paint12_linear_1_81" x1="0.0433982" y1="4.16666" x2="27.4327" y2="61.2322" gradientUnits="userSpaceOnUse">
<stop stop-color="#F99FAC"/>
<stop offset="0.358192" stop-color="#F677B2"/>
<stop offset="0.76572" stop-color="#98A6EE"/>
</linearGradient>
<linearGradient id="paint13_linear_1_81" x1="0.0433982" y1="4.16666" x2="27.4327" y2="61.2322" gradientUnits="userSpaceOnUse">
<stop stop-color="#F99FAC"/>
<stop offset="0.358192" stop-color="#F677B2"/>
<stop offset="0.76572" stop-color="#98A6EE"/>
</linearGradient>
<linearGradient id="paint14_linear_1_81" x1="0.0433982" y1="4.16666" x2="27.4327" y2="61.2322" gradientUnits="userSpaceOnUse">
<stop stop-color="#F99FAC"/>
<stop offset="0.358192" stop-color="#F677B2"/>
<stop offset="0.76572" stop-color="#98A6EE"/>
</linearGradient>
<linearGradient id="paint15_linear_1_81" x1="0.0433982" y1="4.16666" x2="27.4327" y2="61.2322" gradientUnits="userSpaceOnUse">
<stop stop-color="#F99FAC"/>
<stop offset="0.358192" stop-color="#F677B2"/>
<stop offset="0.76572" stop-color="#98A6EE"/>
</linearGradient>
<linearGradient id="paint16_linear_1_81" x1="0.0433982" y1="4.16666" x2="27.4327" y2="61.2322" gradientUnits="userSpaceOnUse">
<stop stop-color="#F99FAC"/>
<stop offset="0.358192" stop-color="#F677B2"/>
<stop offset="0.76572" stop-color="#98A6EE"/>
</linearGradient>
<linearGradient id="paint17_linear_1_81" x1="0.0433982" y1="4.16666" x2="27.4327" y2="61.2322" gradientUnits="userSpaceOnUse">
<stop stop-color="#F99FAC"/>
<stop offset="0.358192" stop-color="#F677B2"/>
<stop offset="0.76572" stop-color="#98A6EE"/>
</linearGradient>
<linearGradient id="paint18_linear_1_81" x1="0.0433982" y1="4.16666" x2="27.4327" y2="61.2322" gradientUnits="userSpaceOnUse">
<stop stop-color="#F99FAC"/>
<stop offset="0.358192" stop-color="#F677B2"/>
<stop offset="0.76572" stop-color="#98A6EE"/>
</linearGradient>
<linearGradient id="paint19_linear_1_81" x1="0.0433982" y1="4.16666" x2="27.4327" y2="61.2322" gradientUnits="userSpaceOnUse">
<stop stop-color="#F99FAC"/>
<stop offset="0.358192" stop-color="#F677B2"/>
<stop offset="0.76572" stop-color="#98A6EE"/>
</linearGradient>
<linearGradient id="paint20_linear_1_81" x1="0.0433982" y1="4.16666" x2="27.4327" y2="61.2322" gradientUnits="userSpaceOnUse">
<stop stop-color="#F99FAC"/>
<stop offset="0.358192" stop-color="#F677B2"/>
<stop offset="0.76572" stop-color="#98A6EE"/>
</linearGradient>
<linearGradient id="paint21_linear_1_81" x1="0.0433982" y1="4.16666" x2="27.4327" y2="61.2322" gradientUnits="userSpaceOnUse">
<stop stop-color="#F99FAC"/>
<stop offset="0.358192" stop-color="#F677B2"/>
<stop offset="0.76572" stop-color="#98A6EE"/>
</linearGradient>
<linearGradient id="paint22_linear_1_81" x1="0.0433982" y1="4.16666" x2="27.4327" y2="61.2322" gradientUnits="userSpaceOnUse">
<stop stop-color="#F99FAC"/>
<stop offset="0.358192" stop-color="#F677B2"/>
<stop offset="0.76572" stop-color="#98A6EE"/>
</linearGradient>
<linearGradient id="paint23_linear_1_81" x1="0.0433982" y1="4.16666" x2="27.4327" y2="61.2322" gradientUnits="userSpaceOnUse">
<stop stop-color="#F99FAC"/>
<stop offset="0.358192" stop-color="#F677B2"/>
<stop offset="0.76572" stop-color="#98A6EE"/>
</linearGradient>
<linearGradient id="paint24_linear_1_81" x1="0.0433982" y1="4.16666" x2="27.4327" y2="61.2322" gradientUnits="userSpaceOnUse">
<stop stop-color="#F99FAC"/>
<stop offset="0.358192" stop-color="#F677B2"/>
<stop offset="0.76572" stop-color="#98A6EE"/>
</linearGradient>
<linearGradient id="paint25_linear_1_81" x1="0.0433982" y1="4.16666" x2="27.4327" y2="61.2322" gradientUnits="userSpaceOnUse">
<stop stop-color="#F99FAC"/>
<stop offset="0.358192" stop-color="#F677B2"/>
<stop offset="0.76572" stop-color="#98A6EE"/>
</linearGradient>
<linearGradient id="paint26_linear_1_81" x1="0.0433982" y1="4.16666" x2="27.4327" y2="61.2322" gradientUnits="userSpaceOnUse">
<stop stop-color="#F99FAC"/>
<stop offset="0.358192" stop-color="#F677B2"/>
<stop offset="0.76572" stop-color="#98A6EE"/>
</linearGradient>
<linearGradient id="paint27_linear_1_81" x1="0.0433982" y1="4.16666" x2="27.4327" y2="61.2322" gradientUnits="userSpaceOnUse">
<stop stop-color="#F99FAC"/>
<stop offset="0.358192" stop-color="#F677B2"/>
<stop offset="0.76572" stop-color="#98A6EE"/>
</linearGradient>
<linearGradient id="paint28_linear_1_81" x1="0.0433982" y1="4.16666" x2="27.4327" y2="61.2322" gradientUnits="userSpaceOnUse">
<stop stop-color="#F99FAC"/>
<stop offset="0.358192" stop-color="#F677B2"/>
<stop offset="0.76572" stop-color="#98A6EE"/>
</linearGradient>
<linearGradient id="paint29_linear_1_81" x1="0.0433982" y1="4.16666" x2="27.4327" y2="61.2322" gradientUnits="userSpaceOnUse">
<stop stop-color="#F99FAC"/>
<stop offset="0.358192" stop-color="#F677B2"/>
<stop offset="0.76572" stop-color="#98A6EE"/>
</linearGradient>
<linearGradient id="paint30_linear_1_81" x1="0.0433982" y1="4.16666" x2="27.4327" y2="61.2322" gradientUnits="userSpaceOnUse">
<stop stop-color="#F99FAC"/>
<stop offset="0.358192" stop-color="#F677B2"/>
<stop offset="0.76572" stop-color="#98A6EE"/>
</linearGradient>
<linearGradient id="paint31_linear_1_81" x1="0.0433982" y1="4.16666" x2="27.4327" y2="61.2322" gradientUnits="userSpaceOnUse">
<stop stop-color="#F99FAC"/>
<stop offset="0.358192" stop-color="#F677B2"/>
<stop offset="0.76572" stop-color="#98A6EE"/>
</linearGradient>
<linearGradient id="paint32_linear_1_81" x1="0.0433982" y1="4.16666" x2="27.4327" y2="61.2322" gradientUnits="userSpaceOnUse">
<stop stop-color="#F99FAC"/>
<stop offset="0.358192" stop-color="#F677B2"/>
<stop offset="0.76572" stop-color="#98A6EE"/>
</linearGradient>
</defs>
</svg>
