<svg width="66" height="61" viewBox="0 0 66 61" fill="none" xmlns="http://www.w3.org/2000/svg">
<path d="M62.9648 0H3.03522C1.36159 0 0 1.34251 0 2.99269V58.0073C0 59.6575 1.36159 61 3.03522 61H62.9648C64.6384 61 66 59.6575 66 58.0073V2.99269C66 1.34251 64.6384 0 62.9648 0ZM3.03522 1.91023H62.9648C63.5701 1.91023 64.0626 2.39581 64.0626 2.99269V8.15031H1.93738V2.99269C1.93738 2.39581 2.42986 1.91023 3.03522 1.91023ZM62.9648 59.0898H3.03522C2.42986 59.0898 1.93738 58.6042 1.93738 58.0073V10.0605H64.0626V58.0073C64.0626 58.6042 63.5701 59.0898 62.9648 59.0898Z" fill="url(#paint0_linear_1_30)"/>
<path d="M5.10176 5.98539C5.3562 5.98539 5.60677 5.88351 5.7863 5.70522C5.96712 5.5282 6.07045 5.28115 6.07045 5.03027C6.07045 4.77939 5.96712 4.53234 5.7863 4.35532C5.60677 4.17704 5.3575 4.07516 5.10176 4.07516C4.84732 4.07516 4.59675 4.17704 4.41722 4.35532C4.2364 4.53234 4.13307 4.77939 4.13307 5.03027C4.13307 5.28115 4.2364 5.5282 4.41722 5.70522C4.59675 5.88338 4.84732 5.98539 5.10176 5.98539Z" fill="url(#paint1_linear_1_30)"/>
<path d="M8.20157 5.98539C8.45601 5.98539 8.70658 5.88351 8.88611 5.70522C9.06693 5.5282 9.17026 5.28115 9.17026 5.03027C9.17026 4.77939 9.06693 4.53234 8.88611 4.35532C8.70658 4.17704 8.4573 4.07516 8.20157 4.07516C7.94712 4.07516 7.69656 4.17704 7.51703 4.35532C7.3362 4.53234 7.23288 4.77939 7.23288 5.03027C7.23288 5.28115 7.3362 5.5282 7.51703 5.70522C7.69656 5.88338 7.94712 5.98539 8.20157 5.98539Z" fill="url(#paint2_linear_1_30)"/>
<path d="M11.3014 5.98539C11.5558 5.98539 11.8064 5.88351 11.9859 5.70522C12.1667 5.5282 12.2701 5.28115 12.2701 5.03027C12.2701 4.77939 12.1667 4.53234 11.9859 4.35532C11.8064 4.17704 11.5571 4.07516 11.3014 4.07516C11.0469 4.07516 10.7964 4.17704 10.6168 4.35532C10.436 4.53234 10.3327 4.77939 10.3327 5.03027C10.3327 5.28115 10.436 5.5282 10.6168 5.70522C10.7964 5.88338 11.0469 5.98539 11.3014 5.98539Z" fill="url(#paint3_linear_1_30)"/>
<path d="M27.7691 32.5376C27.7691 30.8874 26.4075 29.5449 24.7339 29.5449C23.3989 29.5449 22.2633 30.3994 21.858 31.5825H16.2436C16.1021 31.1693 15.8718 30.7966 15.5747 30.4861L17.002 28.3751C17.1395 28.3891 17.2778 28.3987 17.4177 28.3987H23.7006C25.9439 28.3987 27.7691 26.5992 27.7691 24.3873V17.2557C27.7691 16.7283 27.3354 16.3006 26.8004 16.3006H10.8523L10.3822 15.3903C10.052 14.7048 9.34462 14.263 8.57367 14.263H7.1683C6.63332 14.263 6.19961 14.6907 6.19961 15.2182C6.19961 15.7456 6.63332 16.1733 7.1683 16.1733H8.57367C8.59873 16.1733 8.62185 16.1878 8.63231 16.2102C8.63761 16.2214 8.64303 16.2325 8.64871 16.2434L13.7321 26.0861C14.047 26.7501 14.5368 27.3009 15.1307 27.6993L13.8563 29.5841C13.6971 29.5586 13.5341 29.5449 13.3679 29.5449C11.6943 29.5449 10.3327 30.8874 10.3327 32.5376C10.3327 34.1878 11.6943 35.5303 13.3679 35.5303C14.7029 35.5303 15.8385 34.6758 16.2438 33.4927H21.8581C22.2634 34.6758 23.399 35.5303 24.734 35.5303C26.4075 35.5303 27.7691 34.1878 27.7691 32.5376ZM11.8389 18.2109H25.8317V24.3873C25.8317 25.5459 24.8757 26.4885 23.7006 26.4885H17.4178C16.5895 26.4885 15.8299 26.0093 15.4829 25.2678C15.4776 25.2567 15.4722 25.2456 15.4666 25.2346L11.8389 18.2109ZM13.3679 33.62C12.7625 33.62 12.2701 33.1345 12.2701 32.5376C12.2701 31.9407 12.7625 31.4551 13.3679 31.4551C13.9733 31.4551 14.4658 31.9407 14.4658 32.5376C14.4658 33.1345 13.9733 33.62 13.3679 33.62ZM24.7339 33.62C24.1285 33.62 23.636 33.1345 23.636 32.5376C23.636 31.9407 24.1285 31.4551 24.7339 31.4551C25.3392 31.4551 25.8317 31.9407 25.8317 32.5376C25.8317 33.1345 25.3392 33.62 24.7339 33.62Z" fill="url(#paint4_linear_1_30)"/>
<path d="M39.1996 38.714H26.8004C25.6965 38.714 24.7984 39.5994 24.7984 40.6879V46.8006C24.7984 47.8891 25.6965 48.7745 26.8004 48.7745H39.1996C40.3035 48.7745 41.2016 47.8891 41.2016 46.8006V40.6879C41.2016 39.5994 40.3035 38.714 39.1996 38.714ZM39.2642 46.8006C39.2642 46.8358 39.2353 46.8643 39.1996 46.8643H26.8004C26.7647 46.8643 26.7358 46.8358 26.7358 46.8006V40.6879C26.7358 40.6527 26.7647 40.6242 26.8004 40.6242H39.1996C39.2353 40.6242 39.2642 40.6527 39.2642 40.6879V46.8006Z" fill="url(#paint5_linear_1_30)"/>
<path d="M20.6008 38.714H8.20157C7.09765 38.714 6.19961 39.5994 6.19961 40.6879V46.8006C6.19961 47.8891 7.09765 48.7745 8.20157 48.7745H20.6008C21.7047 48.7745 22.6027 47.8891 22.6027 46.8006V40.6879C22.6027 39.5994 21.7047 38.714 20.6008 38.714ZM20.6654 46.8006C20.6654 46.8358 20.6364 46.8643 20.6008 46.8643H8.20157C8.16592 46.8643 8.13699 46.8358 8.13699 46.8006V40.6879C8.13699 40.6527 8.16592 40.6242 8.20157 40.6242H20.6008C20.6364 40.6242 20.6654 40.6527 20.6654 40.6879V46.8006Z" fill="url(#paint6_linear_1_30)"/>
<path d="M57.7984 38.714H45.3992C44.2953 38.714 43.3973 39.5994 43.3973 40.6879V46.8006C43.3973 47.8891 44.2953 48.7745 45.3992 48.7745H57.7984C58.9024 48.7745 59.8004 47.8891 59.8004 46.8006V40.6879C59.8004 39.5994 58.9024 38.714 57.7984 38.714ZM57.863 46.8006C57.863 46.8358 57.8341 46.8643 57.7984 46.8643H45.3992C45.3636 46.8643 45.3346 46.8358 45.3346 46.8006V40.6879C45.3346 40.6527 45.3636 40.6242 45.3992 40.6242H57.7984C57.8341 40.6242 57.863 40.6527 57.863 40.6879V46.8006Z" fill="url(#paint7_linear_1_30)"/>
<path d="M21.6341 50.9395H7.1683C6.63332 50.9395 6.19961 51.3671 6.19961 51.8946C6.19961 52.422 6.63332 52.8497 7.1683 52.8497H21.6341C22.169 52.8497 22.6027 52.422 22.6027 51.8946C22.6027 51.3671 22.169 50.9395 21.6341 50.9395Z" fill="url(#paint8_linear_1_30)"/>
<path d="M40.2329 50.9395H25.7671C25.2321 50.9395 24.7984 51.3671 24.7984 51.8946C24.7984 52.422 25.2321 52.8497 25.7671 52.8497H40.2329C40.7679 52.8497 41.2016 52.422 41.2016 51.8946C41.2016 51.3671 40.7679 50.9395 40.2329 50.9395Z" fill="url(#paint9_linear_1_30)"/>
<path d="M58.8317 50.9395H44.3659C43.831 50.9395 43.3973 51.3671 43.3973 51.8946C43.3973 52.422 43.831 52.8497 44.3659 52.8497H58.8317C59.3667 52.8497 59.8004 52.422 59.8004 51.8946C59.8004 51.3671 59.3667 50.9395 58.8317 50.9395Z" fill="url(#paint10_linear_1_30)"/>
<path d="M51.5988 55.0146H44.3659C43.831 55.0146 43.3973 55.4422 43.3973 55.9697C43.3973 56.4972 43.831 56.9248 44.3659 56.9248H51.5988C52.1338 56.9248 52.5675 56.4972 52.5675 55.9697C52.5675 55.4422 52.1338 55.0146 51.5988 55.0146Z" fill="url(#paint11_linear_1_30)"/>
<path d="M33 55.0146H25.7671C25.2321 55.0146 24.7984 55.4422 24.7984 55.9697C24.7984 56.4972 25.2321 56.9248 25.7671 56.9248H33C33.535 56.9248 33.9687 56.4972 33.9687 55.9697C33.9687 55.4422 33.535 55.0146 33 55.0146Z" fill="url(#paint12_linear_1_30)"/>
<path d="M14.4012 55.0146H7.1683C6.63332 55.0146 6.19961 55.4422 6.19961 55.9697C6.19961 56.4972 6.63332 56.9248 7.1683 56.9248H14.4012C14.9362 56.9248 15.3699 56.4972 15.3699 55.9697C15.3699 55.4422 14.9362 55.0146 14.4012 55.0146Z" fill="url(#paint13_linear_1_30)"/>
<path d="M34.0333 16.1733H43.3327C43.8677 16.1733 44.3014 15.7456 44.3014 15.2182C44.3014 14.6907 43.8677 14.263 43.3327 14.263H34.0333C33.4983 14.263 33.0646 14.6907 33.0646 15.2182C33.0646 15.7456 33.4983 16.1733 34.0333 16.1733Z" fill="url(#paint14_linear_1_30)"/>
<path d="M58.8317 18.3382H34.0333C33.4983 18.3382 33.0646 18.7658 33.0646 19.2933C33.0646 19.8208 33.4983 20.2484 34.0333 20.2484H58.8317C59.3667 20.2484 59.8004 19.8208 59.8004 19.2933C59.8004 18.7658 59.3667 18.3382 58.8317 18.3382Z" fill="url(#paint15_linear_1_30)"/>
<path d="M58.8317 24.4509H39.1996C38.6646 24.4509 38.2309 24.8786 38.2309 25.4061C38.2309 25.9335 38.6646 26.3612 39.1996 26.3612H58.8317C59.3667 26.3612 59.8004 25.9335 59.8004 25.4061C59.8004 24.8786 59.3667 24.4509 58.8317 24.4509Z" fill="url(#paint16_linear_1_30)"/>
<path d="M58.8317 28.5261H39.1996C38.6646 28.5261 38.2309 28.9537 38.2309 29.4812C38.2309 30.0087 38.6646 30.4363 39.1996 30.4363H58.8317C59.3667 30.4363 59.8004 30.0087 59.8004 29.4812C59.8004 28.9537 59.3667 28.5261 58.8317 28.5261Z" fill="url(#paint17_linear_1_30)"/>
<path d="M58.8317 32.6012H39.1996C38.6646 32.6012 38.2309 33.0289 38.2309 33.5564C38.2309 34.0838 38.6646 34.5115 39.1996 34.5115H58.8317C59.3667 34.5115 59.8004 34.0838 59.8004 33.5564C59.8004 33.0289 59.3667 32.6012 58.8317 32.6012Z" fill="url(#paint18_linear_1_30)"/>
<path d="M34.0333 26.3612H35.0665C35.6015 26.3612 36.0352 25.9335 36.0352 25.4061C36.0352 24.8786 35.6015 24.4509 35.0665 24.4509H34.0333C33.4983 24.4509 33.0646 24.8786 33.0646 25.4061C33.0646 25.9335 33.4983 26.3612 34.0333 26.3612Z" fill="url(#paint19_linear_1_30)"/>
<path d="M34.0333 30.4363H35.0665C35.6015 30.4363 36.0352 30.0087 36.0352 29.4812C36.0352 28.9537 35.6015 28.5261 35.0665 28.5261H34.0333C33.4983 28.5261 33.0646 28.9537 33.0646 29.4812C33.0646 30.0087 33.4983 30.4363 34.0333 30.4363Z" fill="url(#paint20_linear_1_30)"/>
<path d="M34.0333 34.5115H35.0665C35.6015 34.5115 36.0352 34.0838 36.0352 33.5564C36.0352 33.0289 35.6015 32.6012 35.0665 32.6012H34.0333C33.4983 32.6012 33.0646 33.0289 33.0646 33.5564C33.0646 34.0838 33.4983 34.5115 34.0333 34.5115Z" fill="url(#paint21_linear_1_30)"/>
<defs>
<linearGradient id="paint0_linear_1_30" x1="0.047738" y1="4.2361" x2="26.5062" y2="63.8807" gradientUnits="userSpaceOnUse">
<stop stop-color="#F99FAC"/>
<stop offset="0.358192" stop-color="#F677B2"/>
<stop offset="0.76572" stop-color="#98A6EE"/>
</linearGradient>
<linearGradient id="paint1_linear_1_30" x1="0.047738" y1="4.2361" x2="26.5062" y2="63.8807" gradientUnits="userSpaceOnUse">
<stop stop-color="#F99FAC"/>
<stop offset="0.358192" stop-color="#F677B2"/>
<stop offset="0.76572" stop-color="#98A6EE"/>
</linearGradient>
<linearGradient id="paint2_linear_1_30" x1="0.047738" y1="4.2361" x2="26.5062" y2="63.8807" gradientUnits="userSpaceOnUse">
<stop stop-color="#F99FAC"/>
<stop offset="0.358192" stop-color="#F677B2"/>
<stop offset="0.76572" stop-color="#98A6EE"/>
</linearGradient>
<linearGradient id="paint3_linear_1_30" x1="0.047738" y1="4.2361" x2="26.5062" y2="63.8807" gradientUnits="userSpaceOnUse">
<stop stop-color="#F99FAC"/>
<stop offset="0.358192" stop-color="#F677B2"/>
<stop offset="0.76572" stop-color="#98A6EE"/>
</linearGradient>
<linearGradient id="paint4_linear_1_30" x1="0.047738" y1="4.2361" x2="26.5062" y2="63.8807" gradientUnits="userSpaceOnUse">
<stop stop-color="#F99FAC"/>
<stop offset="0.358192" stop-color="#F677B2"/>
<stop offset="0.76572" stop-color="#98A6EE"/>
</linearGradient>
<linearGradient id="paint5_linear_1_30" x1="0.047738" y1="4.2361" x2="26.5062" y2="63.8807" gradientUnits="userSpaceOnUse">
<stop stop-color="#F99FAC"/>
<stop offset="0.358192" stop-color="#F677B2"/>
<stop offset="0.76572" stop-color="#98A6EE"/>
</linearGradient>
<linearGradient id="paint6_linear_1_30" x1="0.047738" y1="4.2361" x2="26.5062" y2="63.8807" gradientUnits="userSpaceOnUse">
<stop stop-color="#F99FAC"/>
<stop offset="0.358192" stop-color="#F677B2"/>
<stop offset="0.76572" stop-color="#98A6EE"/>
</linearGradient>
<linearGradient id="paint7_linear_1_30" x1="0.047738" y1="4.2361" x2="26.5062" y2="63.8807" gradientUnits="userSpaceOnUse">
<stop stop-color="#F99FAC"/>
<stop offset="0.358192" stop-color="#F677B2"/>
<stop offset="0.76572" stop-color="#98A6EE"/>
</linearGradient>
<linearGradient id="paint8_linear_1_30" x1="0.047738" y1="4.2361" x2="26.5062" y2="63.8807" gradientUnits="userSpaceOnUse">
<stop stop-color="#F99FAC"/>
<stop offset="0.358192" stop-color="#F677B2"/>
<stop offset="0.76572" stop-color="#98A6EE"/>
</linearGradient>
<linearGradient id="paint9_linear_1_30" x1="0.047738" y1="4.2361" x2="26.5062" y2="63.8807" gradientUnits="userSpaceOnUse">
<stop stop-color="#F99FAC"/>
<stop offset="0.358192" stop-color="#F677B2"/>
<stop offset="0.76572" stop-color="#98A6EE"/>
</linearGradient>
<linearGradient id="paint10_linear_1_30" x1="0.047738" y1="4.2361" x2="26.5062" y2="63.8807" gradientUnits="userSpaceOnUse">
<stop stop-color="#F99FAC"/>
<stop offset="0.358192" stop-color="#F677B2"/>
<stop offset="0.76572" stop-color="#98A6EE"/>
</linearGradient>
<linearGradient id="paint11_linear_1_30" x1="0.047738" y1="4.2361" x2="26.5062" y2="63.8807" gradientUnits="userSpaceOnUse">
<stop stop-color="#F99FAC"/>
<stop offset="0.358192" stop-color="#F677B2"/>
<stop offset="0.76572" stop-color="#98A6EE"/>
</linearGradient>
<linearGradient id="paint12_linear_1_30" x1="0.047738" y1="4.2361" x2="26.5062" y2="63.8807" gradientUnits="userSpaceOnUse">
<stop stop-color="#F99FAC"/>
<stop offset="0.358192" stop-color="#F677B2"/>
<stop offset="0.76572" stop-color="#98A6EE"/>
</linearGradient>
<linearGradient id="paint13_linear_1_30" x1="0.047738" y1="4.2361" x2="26.5062" y2="63.8807" gradientUnits="userSpaceOnUse">
<stop stop-color="#F99FAC"/>
<stop offset="0.358192" stop-color="#F677B2"/>
<stop offset="0.76572" stop-color="#98A6EE"/>
</linearGradient>
<linearGradient id="paint14_linear_1_30" x1="0.047738" y1="4.2361" x2="26.5062" y2="63.8807" gradientUnits="userSpaceOnUse">
<stop stop-color="#F99FAC"/>
<stop offset="0.358192" stop-color="#F677B2"/>
<stop offset="0.76572" stop-color="#98A6EE"/>
</linearGradient>
<linearGradient id="paint15_linear_1_30" x1="0.047738" y1="4.2361" x2="26.5062" y2="63.8807" gradientUnits="userSpaceOnUse">
<stop stop-color="#F99FAC"/>
<stop offset="0.358192" stop-color="#F677B2"/>
<stop offset="0.76572" stop-color="#98A6EE"/>
</linearGradient>
<linearGradient id="paint16_linear_1_30" x1="0.047738" y1="4.2361" x2="26.5062" y2="63.8807" gradientUnits="userSpaceOnUse">
<stop stop-color="#F99FAC"/>
<stop offset="0.358192" stop-color="#F677B2"/>
<stop offset="0.76572" stop-color="#98A6EE"/>
</linearGradient>
<linearGradient id="paint17_linear_1_30" x1="0.047738" y1="4.2361" x2="26.5062" y2="63.8807" gradientUnits="userSpaceOnUse">
<stop stop-color="#F99FAC"/>
<stop offset="0.358192" stop-color="#F677B2"/>
<stop offset="0.76572" stop-color="#98A6EE"/>
</linearGradient>
<linearGradient id="paint18_linear_1_30" x1="0.047738" y1="4.2361" x2="26.5062" y2="63.8807" gradientUnits="userSpaceOnUse">
<stop stop-color="#F99FAC"/>
<stop offset="0.358192" stop-color="#F677B2"/>
<stop offset="0.76572" stop-color="#98A6EE"/>
</linearGradient>
<linearGradient id="paint19_linear_1_30" x1="0.047738" y1="4.2361" x2="26.5062" y2="63.8807" gradientUnits="userSpaceOnUse">
<stop stop-color="#F99FAC"/>
<stop offset="0.358192" stop-color="#F677B2"/>
<stop offset="0.76572" stop-color="#98A6EE"/>
</linearGradient>
<linearGradient id="paint20_linear_1_30" x1="0.047738" y1="4.2361" x2="26.5062" y2="63.8807" gradientUnits="userSpaceOnUse">
<stop stop-color="#F99FAC"/>
<stop offset="0.358192" stop-color="#F677B2"/>
<stop offset="0.76572" stop-color="#98A6EE"/>
</linearGradient>
<linearGradient id="paint21_linear_1_30" x1="0.047738" y1="4.2361" x2="26.5062" y2="63.8807" gradientUnits="userSpaceOnUse">
<stop stop-color="#F99FAC"/>
<stop offset="0.358192" stop-color="#F677B2"/>
<stop offset="0.76572" stop-color="#98A6EE"/>
</linearGradient>
</defs>
</svg>
