<svg width="15" height="9" viewBox="0 0 15 9" fill="none" xmlns="http://www.w3.org/2000/svg">
<path d="M6.91286 8.57082L0.239568 1.89741C0.0850986 1.74306 0 1.53702 0 1.31732C0 1.09763 0.0850986 0.891584 0.239568 0.737237L0.730897 0.245786C1.05105 -0.074004 1.5714 -0.074004 1.89107 0.245786L7.49489 5.84961L13.1049 0.239568C13.2594 0.0852205 13.4653 0 13.6849 0C13.9047 0 14.1106 0.0852205 14.2652 0.239568L14.7564 0.731019C14.9109 0.885488 14.996 1.09141 14.996 1.3111C14.996 1.5308 14.9109 1.73684 14.7564 1.89119L8.07705 8.57082C7.92209 8.72553 7.7152 8.81051 7.49526 8.81002C7.27447 8.81051 7.06769 8.72553 6.91286 8.57082Z" fill="#345A84"/>
</svg>
