<svg width="34" height="34" viewBox="0 0 34 34" fill="none" xmlns="http://www.w3.org/2000/svg">
<path d="M21.4724 22.421C21.2239 22.421 21.0008 22.328 20.8029 22.1418C20.6055 21.9553 20.5068 21.7377 20.5068 21.4893L20.5068 14.8484L12.9341 22.421C12.7421 22.613 12.516 22.709 12.2558 22.709C11.9965 22.709 11.7708 22.613 11.5788 22.421C11.3868 22.229 11.2906 22.0031 11.2901 21.7434C11.2906 21.4836 11.3868 21.2577 11.5788 21.0657L19.1515 13.4931L12.5106 13.4931C12.2621 13.4931 12.0446 13.3944 11.858 13.1969C11.6719 12.9991 11.5788 12.7759 11.5788 12.5274C11.5788 12.279 11.6748 12.0587 11.8668 11.8667C12.0588 11.6747 12.279 11.5787 12.5275 11.5787L21.4724 11.5787C21.5966 11.5674 21.7152 11.5898 21.8282 11.6458C21.9411 11.7027 22.0428 11.7764 22.1331 11.8667C22.2235 11.9571 22.2942 12.0558 22.3452 12.1629C22.3958 12.2704 22.4211 12.3919 22.4211 12.5274L22.4211 21.4723C22.4211 21.7208 22.3251 21.941 22.1331 22.133C21.9411 22.325 21.7209 22.421 21.4724 22.421Z" fill="white"/>
</svg>
