<svg width="15" height="12" viewBox="0 0 15 12" fill="none" xmlns="http://www.w3.org/2000/svg">
<path d="M4.70586 11.2567C4.46018 11.2562 4.22453 11.1592 4.04961 10.9867L0.244293 7.23671C0.082938 7.05949 -0.00441868 6.82721 0.000172195 6.58759C0.00476307 6.34796 0.100953 6.1192 0.268978 5.94829C0.437003 5.77738 0.664102 5.67732 0.903614 5.66866C1.14313 5.65999 1.37686 5.74339 1.55679 5.90171L4.69742 8.99546L13.3599 0.287961C13.4462 0.198209 13.5494 0.126527 13.6636 0.0770976C13.7779 0.0276679 13.9008 0.00148015 14.0253 6.09499e-05C14.1497 -0.00135825 14.2732 0.0220199 14.3885 0.0688319C14.5039 0.115644 14.6087 0.184952 14.697 0.272715C14.7852 0.360477 14.8551 0.464936 14.9026 0.579997C14.9501 0.695059 14.9741 0.81842 14.9734 0.942885C14.9727 1.06735 14.9472 1.19043 14.8984 1.30494C14.8497 1.41944 14.7786 1.52309 14.6893 1.60984L5.37054 10.9848C5.28306 11.0716 5.17932 11.1403 5.06526 11.1869C4.95121 11.2336 4.82908 11.2573 4.70586 11.2567Z" fill="#345A84"/>
</svg>
