<svg width="32" height="26" viewBox="0 0 32 26" fill="none" xmlns="http://www.w3.org/2000/svg">
<path d="M27.1192 11.968L23.0485 12.9486C22.9619 12.9697 22.8708 12.9662 22.7863 12.9385C22.7017 12.9107 22.6274 12.8598 22.5722 12.7921L18.11 7.41131C17.8486 7.1191 17.525 6.88467 17.1612 6.72398C16.7974 6.56328 16.4019 6.4801 16.0018 6.4801C15.6016 6.4801 15.2062 6.56328 14.8424 6.72398C14.4786 6.88467 14.1549 7.1191 13.8935 7.41131L9.42837 12.795C9.37159 12.8607 9.29696 12.9099 9.21285 12.937C9.12873 12.9641 9.03844 12.9681 8.95209 12.9486L4.88288 11.968C4.56329 11.8909 4.22843 11.8949 3.91092 11.9797C3.5934 12.0644 3.30405 12.227 3.07102 12.4517C2.83799 12.6763 2.66923 12.9553 2.58116 13.2615C2.49309 13.5677 2.48872 13.8907 2.56846 14.199L5.11656 24.026C5.26139 24.5902 5.59816 25.0913 6.07304 25.4491C6.54792 25.807 7.13348 26.0009 7.73609 26H24.266C24.8686 26.0009 25.4541 25.807 25.929 25.4491C26.4039 25.0913 26.7407 24.5902 26.8855 24.026L29.4336 14.199C29.5133 13.8907 29.509 13.5677 29.4209 13.2615C29.3328 12.9553 29.1641 12.6763 28.931 12.4517C28.698 12.227 28.4086 12.0644 28.0911 11.9797C27.7736 11.8949 27.4388 11.8909 27.1192 11.968Z" fill="#EFA83C"/>
<path d="M2.23256 10.8338C3.46557 10.8338 4.46512 9.86963 4.46512 8.68031C4.46512 7.49099 3.46557 6.52686 2.23256 6.52686C0.99955 6.52686 0 7.49099 0 8.68031C0 9.86963 0.99955 10.8338 2.23256 10.8338Z" fill="#EFA83C"/>
<path d="M29.7672 10.8338C31.0002 10.8338 31.9998 9.86963 31.9998 8.68031C31.9998 7.49099 31.0002 6.52686 29.7672 6.52686C28.5342 6.52686 27.5347 7.49099 27.5347 8.68031C27.5347 9.86963 28.5342 10.8338 29.7672 10.8338Z" fill="#EFA83C"/>
<path d="M16.0001 4.73245C17.2331 4.73245 18.2327 3.76832 18.2327 2.57899C18.2327 1.38967 17.2331 0.425537 16.0001 0.425537C14.7671 0.425537 13.7676 1.38967 13.7676 2.57899C13.7676 3.76832 14.7671 4.73245 16.0001 4.73245Z" fill="#EFA83C"/>
</svg>
