<svg width="15" height="9" viewBox="0 0 15 9" fill="none" xmlns="http://www.w3.org/2000/svg">
<path d="M6.91286 8.67702L0.239568 2.00361C0.0850986 1.84926 0 1.64322 0 1.42352C0 1.20383 0.0850986 0.997786 0.239568 0.843438L0.730897 0.351987C1.05105 0.0321972 1.5714 0.0321972 1.89107 0.351987L7.49489 5.95581L13.1049 0.34577C13.2594 0.191422 13.4653 0.106201 13.6849 0.106201C13.9047 0.106201 14.1106 0.191422 14.2652 0.34577L14.7564 0.83722C14.9109 0.99169 14.996 1.19761 14.996 1.4173C14.996 1.637 14.9109 1.84304 14.7564 1.99739L8.07705 8.67702C7.92209 8.83173 7.7152 8.91671 7.49526 8.91622C7.27447 8.91671 7.06769 8.83173 6.91286 8.67702Z" fill="#FF9B17"/>
</svg>
