<svg width="28" height="26" viewBox="0 0 28 26" fill="none" xmlns="http://www.w3.org/2000/svg">
<path d="M6.125 3.25V4.875H7.875V8.125C7.87613 9.10738 8.15123 10.0727 8.67351 10.9271C9.19579 11.7814 9.94744 12.4956 10.8553 13C9.94744 13.5044 9.19579 14.2186 8.67351 15.0729C8.15123 15.9273 7.87613 16.8926 7.875 17.875V21.125H6.125V22.75H21.875V21.125H20.125V17.875C20.1239 16.8926 19.8488 15.9273 19.3265 15.0729C18.8042 14.2186 18.0526 13.5044 17.1447 13C18.0526 12.4956 18.8042 11.7814 19.3265 10.9271C19.8488 10.0727 20.1239 9.10738 20.125 8.125V4.875H21.875V3.25H6.125ZM9.625 4.875H18.375V8.125C18.375 10.3781 16.4264 12.1875 14 12.1875C11.5736 12.1875 9.625 10.3781 9.625 8.125V4.875ZM10.5 6.5V8.125C10.5 9.92063 12.0662 11.375 14 11.375C15.9338 11.375 17.5 9.92063 17.5 8.125V6.5H10.5ZM14 13.8125C16.4264 13.8125 18.375 15.6219 18.375 17.875V21.125H9.625V17.875C9.625 15.6219 11.5736 13.8125 14 13.8125Z" fill="#8A93A4"/>
</svg>
