<svg width="14" height="11" viewBox="0 0 14 11" fill="none" xmlns="http://www.w3.org/2000/svg">
<path d="M12.7695 0H1.23047C0.552836 0 0 0.552234 0 1.23047V9.43359C0 10.1095 0.550375 10.6641 1.23047 10.6641H12.7695C13.4455 10.6641 14 10.1137 14 9.43359V1.23047C14 0.554531 13.4496 0 12.7695 0ZM12.5996 0.820312L7.02609 6.39387L1.40435 0.820312H12.5996ZM0.820312 9.26373V1.39642L4.77091 5.31314L0.820312 9.26373ZM1.40036 9.84375L5.35344 5.89066L6.73859 7.26392C6.89894 7.4229 7.15769 7.42238 7.31738 7.26266L8.66797 5.91207L12.5996 9.84375H1.40036ZM13.1797 9.26371L9.24801 5.33203L13.1797 1.40033V9.26371Z" fill="#FF9B17"/>
</svg>
