<svg width="27" height="16" viewBox="0 0 27 16" fill="none" xmlns="http://www.w3.org/2000/svg">
<path d="M24.6 0H6C4.68 0 3.6 1.08 3.6 2.4V3.3C3.6 3.63 3.87 3.9 4.2 3.9C4.53 3.9 4.8 3.63 4.8 3.3V2.4C4.8 2.28 4.83 2.16 4.86 2.04L11.58 7.8L4.86 13.56C4.83 13.44 4.8 13.32 4.8 13.2V12.3C4.8 11.97 4.53 11.7 4.2 11.7C3.87 11.7 3.6 11.97 3.6 12.3V13.2C3.6 14.52 4.68 15.6 6 15.6H24.6C25.92 15.6 27 14.52 27 13.2V2.4C27 1.08 25.92 0 24.6 0ZM5.76 1.23C5.82 1.2 5.91 1.2 6 1.2H24.6C24.69 1.2 24.78 1.2 24.84 1.23L15.69 9.06C15.45 9.24 15.15 9.24 14.91 9.06L5.76 1.23ZM24.6 14.4H6C5.91 14.4 5.82 14.4 5.76 14.37L12.51 8.58L14.13 9.99C14.46 10.29 14.88 10.44 15.3 10.44C15.72 10.44 16.14 10.29 16.47 9.99L18.09 8.58L24.84 14.37C24.78 14.4 24.69 14.4 24.6 14.4ZM25.8 13.2C25.8 13.32 25.77 13.44 25.74 13.56L19.02 7.8L25.74 2.04C25.77 2.16 25.8 2.28 25.8 2.4V13.2ZM1.8 6.3C1.8 5.97 2.07 5.7 2.4 5.7H6C6.33 5.7 6.6 5.97 6.6 6.3C6.6 6.63 6.33 6.9 6 6.9H2.4C2.07 6.9 1.8 6.63 1.8 6.3ZM6 9.9H0.6C0.27 9.9 0 9.63 0 9.3C0 8.97 0.27 8.7 0.6 8.7H6C6.33 8.7 6.6 8.97 6.6 9.3C6.6 9.63 6.33 9.9 6 9.9Z" fill="#FF9B17"/>
</svg>
