<svg width="120" height="120" viewBox="0 0 120 120" fill="none" xmlns="http://www.w3.org/2000/svg">
<g clip-path="url(#clip0_1_3835)">
<path d="M111.11 120L60.017 116.667L8.89164 120C8.79554 120 8.70338 119.962 8.63542 119.894C8.56747 119.826 8.5293 119.734 8.5293 119.638V51.484H111.472V119.638C111.472 119.734 111.434 119.826 111.366 119.894C111.298 119.962 111.206 120 111.11 120Z" fill="#FEB237"/>
<path d="M101.814 51.484V99.6052C101.814 108.202 94.8447 115.171 86.248 115.171H8.5293V119.638C8.5293 119.838 8.69148 120 8.89164 120L60.0173 116.667L111.11 120C111.31 120 111.472 119.838 111.472 119.638V51.484H101.814Z" fill="#F6AB31"/>
<path d="M111.395 51.2941L60.1716 0.0707637C60.1491 0.0482921 60.1225 0.0304649 60.0931 0.0183017C60.0638 0.00613855 60.0324 -0.00012207 60.0006 -0.00012207C59.9688 -0.00012207 59.9374 0.00613855 59.9081 0.0183017C59.8787 0.0304649 59.8521 0.0482921 59.8296 0.0707637L8.60651 51.2941C8.58203 51.3186 8.56261 51.3476 8.54936 51.3796C8.53612 51.4116 8.5293 51.4458 8.5293 51.4804C8.5293 51.5151 8.53612 51.5493 8.54936 51.5813C8.56261 51.6133 8.58203 51.6423 8.60651 51.6668L60.0007 103.061L111.395 51.6665C111.419 51.6421 111.439 51.6131 111.452 51.5811C111.465 51.5492 111.472 51.5149 111.472 51.4803C111.472 51.4457 111.465 51.4115 111.452 51.3795C111.439 51.3476 111.419 51.3186 111.395 51.2941Z" fill="#ECA026"/>
<path d="M111.11 120C111.157 120 111.205 119.991 111.249 119.972C111.293 119.954 111.332 119.928 111.366 119.894L60.1715 68.699C60.1263 68.6538 60.0649 68.6284 60.0009 68.6284C59.9369 68.6284 59.8755 68.6538 59.8303 68.699L8.63574 119.894C8.70137 119.959 8.79184 120 8.89191 120H111.11Z" fill="#FFC344"/>
<path d="M99.4021 107.93C96.6421 112.282 91.7821 115.171 86.2476 115.171H13.3579L8.63477 119.894C8.70039 119.959 8.79086 120 8.89094 120H111.109C111.156 120 111.204 119.991 111.248 119.973C111.292 119.954 111.331 119.928 111.365 119.894L99.4021 107.93Z" fill="#FEB237"/>
<path d="M70.0005 43.3333L60.0004 53.3334L50.0004 43.3333H7.03168C6.98379 43.3333 6.93637 43.3239 6.89212 43.3056C6.84787 43.2873 6.80767 43.2604 6.77381 43.2265C6.73994 43.1927 6.71308 43.1525 6.69475 43.1082C6.67642 43.064 6.66699 43.0165 6.66699 42.9687V17.0313C6.66699 16.83 6.83035 16.6666 7.03168 16.6666H112.969C113.171 16.6666 113.334 16.83 113.334 17.0313V42.9687C113.334 43.17 113.171 43.3333 112.969 43.3333H70.0005Z" fill="#80D261"/>
<path d="M24.1865 26.621C23.9534 26.2174 23.5694 25.9228 23.1191 25.8022C22.6689 25.6815 22.1891 25.7447 21.7853 25.9777L20.092 26.9553V24.9999C20.092 24.0289 19.3052 23.2421 18.3342 23.2421C17.3632 23.2421 16.5764 24.0289 16.5764 24.9999V26.9555L14.8828 25.9777C14.6829 25.8622 14.4622 25.7873 14.2333 25.7571C14.0044 25.7269 13.7719 25.7422 13.5489 25.8019C13.3259 25.8616 13.1169 25.9647 12.9337 26.1053C12.7506 26.2458 12.597 26.4211 12.4816 26.621C12.2485 27.0248 12.1853 27.5046 12.306 27.9549C12.4266 28.4052 12.7212 28.7891 13.125 29.0222L14.8185 30L13.1252 30.9776C12.7247 31.2124 12.4334 31.596 12.3148 32.0447C12.1961 32.4935 12.2598 32.971 12.4919 33.373C12.724 33.775 13.1057 34.0688 13.5536 34.1905C14.0016 34.3121 14.4795 34.2516 14.883 34.0221L16.5766 33.0443V35C16.5766 35.971 17.3634 36.7578 18.3344 36.7578C19.3054 36.7578 20.0922 35.971 20.0922 35V33.0446L21.7856 34.0221C21.9855 34.1376 22.2061 34.2126 22.435 34.2428C22.6639 34.273 22.8965 34.2578 23.1195 34.198C23.3425 34.1383 23.5515 34.0352 23.7346 33.8946C23.9178 33.754 24.0714 33.5788 24.1867 33.3788C24.4198 32.9751 24.483 32.4953 24.3624 32.045C24.2417 31.5947 23.9471 31.2107 23.5434 30.9776L21.8498 30L23.5432 29.0225C23.7431 28.907 23.9183 28.7534 24.0589 28.5702C24.1994 28.387 24.3025 28.178 24.3622 27.955C24.422 27.732 24.4372 27.4994 24.4071 27.2706C24.3769 27.0417 24.302 26.821 24.1865 26.621ZM40.8534 26.621C40.6203 26.2173 40.2363 25.9227 39.786 25.8021C39.3357 25.6814 38.8559 25.7446 38.4522 25.9777L36.7586 26.9555V24.9999C36.7586 24.0289 35.9718 23.2421 35.0008 23.2421C34.0298 23.2421 33.243 24.0289 33.243 24.9999V26.9553L31.5496 25.9777C31.3497 25.8622 31.1291 25.7873 30.9002 25.7571C30.6713 25.7269 30.4387 25.7422 30.2158 25.8019C29.9928 25.8616 29.7837 25.9647 29.6006 26.1053C29.4175 26.2458 29.2638 26.4211 29.1485 26.621C28.9154 27.0248 28.8522 27.5046 28.9729 27.9549C29.0935 28.4052 29.3881 28.7891 29.7918 29.0222L31.4852 29.9998L29.7918 30.9774C29.3914 31.2121 29.1001 31.5958 28.9814 32.0445C28.8628 32.4933 28.9264 32.9708 29.1585 33.3727C29.3906 33.7747 29.7723 34.0686 30.2203 34.1902C30.6682 34.3118 31.1461 34.2513 31.5496 34.0219L33.243 33.0443V34.9997C33.243 35.9707 34.0298 36.7575 35.0008 36.7575C35.9718 36.7575 36.7586 35.9707 36.7586 34.9997V33.0441L38.4522 34.0219C38.6521 34.1374 38.8728 34.2124 39.1017 34.2426C39.3305 34.2728 39.5631 34.2575 39.7861 34.1978C40.0091 34.138 40.2181 34.0349 40.4013 33.8944C40.5844 33.7538 40.738 33.5785 40.8534 33.3785C41.0865 32.9748 41.1496 32.495 41.029 32.0447C40.9083 31.5944 40.6138 31.2105 40.21 30.9774L38.5164 30L40.2098 29.0225C40.6135 28.7893 40.9081 28.4053 41.0288 27.955C41.1495 27.5047 41.0864 27.0249 40.8534 26.621ZM106.877 30.9776L105.183 30L106.877 29.0225C107.277 28.7877 107.568 28.4041 107.687 27.9553C107.806 27.5066 107.742 27.0291 107.51 26.6271C107.278 26.2251 106.896 25.9312 106.448 25.8096C106 25.688 105.522 25.7485 105.119 25.9779L103.425 26.9555V25.0001C103.425 24.0291 102.639 23.2423 101.668 23.2423C100.697 23.2423 99.9098 24.0291 99.9098 25.0001V26.9557L98.2162 25.9779C98.0163 25.8624 97.7956 25.7875 97.5667 25.7573C97.3379 25.7272 97.1053 25.7424 96.8823 25.8021C96.6593 25.8619 96.4503 25.965 96.2672 26.1055C96.084 26.2461 95.9304 26.4213 95.815 26.6213C95.5819 27.025 95.5188 27.5048 95.6394 27.9551C95.7601 28.4054 96.0547 28.7893 96.4584 29.0225L98.1517 30L96.4584 30.9776C96.0579 31.2124 95.7666 31.596 95.648 32.0447C95.5293 32.4935 95.593 32.971 95.8251 33.373C96.0572 33.775 96.4389 34.0688 96.8868 34.1905C97.3348 34.3121 97.8127 34.2516 98.2162 34.0221L99.9098 33.0443V35C99.9098 35.971 100.697 36.7578 101.668 36.7578C102.639 36.7578 103.425 35.971 103.425 35V33.0446L105.119 34.0221C105.319 34.1376 105.539 34.2126 105.768 34.2428C105.997 34.273 106.23 34.2578 106.453 34.198C106.676 34.1383 106.885 34.0352 107.068 33.8946C107.251 33.754 107.405 33.5788 107.52 33.3788C107.753 32.9751 107.816 32.4953 107.696 32.045C107.575 31.5947 107.28 31.2107 106.877 30.9776ZM90.8533 26.621C90.6201 26.2174 90.2362 25.9228 89.7859 25.8022C89.3356 25.6815 88.8559 25.7447 88.4521 25.9777L86.7588 26.9553V24.9999C86.7588 24.0289 85.972 23.2421 85.001 23.2421C84.0299 23.2421 83.2431 24.0289 83.2431 24.9999V26.9555L81.5496 25.9777C81.3497 25.8622 81.129 25.7873 80.9001 25.7571C80.6712 25.7269 80.4387 25.7422 80.2157 25.8019C79.9927 25.8616 79.7837 25.9647 79.6005 26.1053C79.4174 26.2458 79.2638 26.4211 79.1484 26.621C78.9153 27.0248 78.8521 27.5046 78.9728 27.9549C79.0934 28.4052 79.388 28.7891 79.7917 29.0222L81.4851 29.9998L79.7917 30.9774C79.3913 31.2121 79.1 31.5958 78.9813 32.0445C78.8627 32.4933 78.9264 32.9708 79.1584 33.3727C79.3905 33.7747 79.7722 34.0686 80.2202 34.1902C80.6681 34.3118 81.146 34.2513 81.5496 34.0219L83.2431 33.0441V34.9997C83.2431 35.9707 84.0299 36.7575 85.001 36.7575C85.972 36.7575 86.7588 35.9707 86.7588 34.9997V33.0443L88.4521 34.0219C88.652 34.1374 88.8727 34.2124 89.1016 34.2426C89.3305 34.2728 89.563 34.2575 89.786 34.1978C90.009 34.138 90.2181 34.0349 90.4012 33.8944C90.5843 33.7538 90.7379 33.5785 90.8533 33.3785C91.0864 32.9748 91.1496 32.495 91.0289 32.0447C90.9082 31.5944 90.6137 31.2105 90.2099 30.9774L88.5163 30L90.2097 29.0225C90.6134 28.7893 90.908 28.4053 91.0287 27.955C91.1494 27.5047 91.0863 27.0249 90.8533 26.621ZM57.52 26.621C57.2869 26.2174 56.9029 25.9228 56.4527 25.8022C56.0024 25.6815 55.5226 25.7447 55.1189 25.9777L53.4253 26.9555V24.9999C53.4253 24.0289 52.6385 23.2421 51.6674 23.2421C50.6964 23.2421 49.9096 24.0289 49.9096 24.9999V26.9553L48.2163 25.9777C48.0164 25.8622 47.7957 25.7873 47.5668 25.7571C47.338 25.7269 47.1054 25.7422 46.8824 25.8019C46.6594 25.8616 46.4504 25.9647 46.2673 26.1053C46.0841 26.2458 45.9305 26.4211 45.8151 26.621C45.582 27.0248 45.5189 27.5046 45.6395 27.9549C45.7602 28.4052 46.0547 28.7891 46.4585 29.0222L48.1518 29.9998L46.4585 30.9774C46.058 31.2121 45.7667 31.5958 45.648 32.0445C45.5294 32.4933 45.5931 32.9708 45.8252 33.3727C46.0573 33.7747 46.4389 34.0686 46.8869 34.1902C47.3349 34.3118 47.8128 34.2513 48.2163 34.0219L49.9096 33.0443V34.9997C49.9096 35.9707 50.6964 36.7575 51.6674 36.7575C52.6385 36.7575 53.4253 35.9707 53.4253 34.9997V33.0441L55.1189 34.0219C55.3187 34.1374 55.5394 34.2124 55.7683 34.2426C55.9972 34.2728 56.2298 34.2575 56.4528 34.1978C56.6758 34.138 56.8848 34.0349 57.0679 33.8944C57.251 33.7538 57.4047 33.5785 57.52 33.3785C57.7531 32.9748 57.8163 32.495 57.6956 32.0447C57.575 31.5944 57.2804 31.2105 56.8767 30.9774L55.1833 30L56.8767 29.0225C57.2804 28.7893 57.575 28.4053 57.6957 27.955C57.8163 27.5046 57.7531 27.0248 57.52 26.621ZM74.1867 26.621C73.9536 26.2173 73.5696 25.9227 73.1193 25.8021C72.669 25.6814 72.1892 25.7446 71.7855 25.9777L70.0919 26.9555V25.0001C70.0919 24.0291 69.3051 23.2423 68.3341 23.2423C67.3631 23.2423 66.5763 24.0291 66.5763 25.0001V26.9555L64.8827 25.9777C64.6828 25.8622 64.4621 25.7873 64.2332 25.7571C64.0044 25.7269 63.7718 25.7422 63.5488 25.8019C63.3258 25.8616 63.1168 25.9647 62.9337 26.1053C62.7505 26.2458 62.5969 26.4211 62.4815 26.621C62.2484 27.0248 62.1853 27.5046 62.3059 27.9549C62.4266 28.4052 62.7212 28.7891 63.1249 29.0222L64.8182 29.9998L63.1249 30.9774C62.7244 31.2121 62.4331 31.5958 62.3145 32.0445C62.1958 32.4933 62.2595 32.9708 62.4916 33.3727C62.7237 33.7747 63.1053 34.0686 63.5533 34.1902C64.0013 34.3118 64.4792 34.2513 64.8827 34.0219L66.5763 33.0441V34.9995C66.5763 35.9705 67.3631 36.7573 68.3341 36.7573C69.3051 36.7573 70.0919 35.9705 70.0919 34.9995V33.0441L71.7855 34.0219C71.9854 34.1374 72.2061 34.2124 72.4349 34.2426C72.6638 34.2728 72.8964 34.2575 73.1194 34.1978C73.3424 34.138 73.5514 34.0349 73.7346 33.8944C73.9177 33.7538 74.0713 33.5785 74.1867 33.3785C74.4198 32.9748 74.4829 32.495 74.3623 32.0447C74.2416 31.5944 73.947 31.2105 73.5433 30.9774L71.8499 30L73.5433 29.0225C73.7432 28.907 73.9185 28.7534 74.059 28.5702C74.1996 28.387 74.3026 28.178 74.3624 27.955C74.4221 27.732 74.4374 27.4994 74.4072 27.2706C74.3771 27.0417 74.3021 26.821 74.1867 26.621Z" fill="#EAF9FA"/>
</g>
<defs>
<clipPath id="clip0_1_3835">
<rect width="120" height="120" fill="white"/>
</clipPath>
</defs>
</svg>
