<svg width="267" height="54" viewBox="0 0 267 54" fill="none" xmlns="http://www.w3.org/2000/svg">
<path d="M83.5142 47.4301V28.4171H76.6655V26.7816C76.6655 26.1171 76.921 25.5549 77.381 25.0949C77.841 24.6349 78.4032 24.3794 79.0676 24.3794H95.0652V28.4682H88.2675V47.4812H83.5142V47.4301Z" fill="#FF9B17"/>
<path d="M93.9918 47.4301V38.7925C93.9918 37.0547 94.2473 35.5726 94.7584 34.397C95.2695 33.2215 95.9851 32.2504 96.8539 31.5348C97.7228 30.8704 98.6939 30.3593 99.8183 30.0526C100.943 29.746 102.118 29.5927 103.345 29.5927C103.447 29.5927 103.549 29.5927 103.703 29.5927C103.856 29.5927 103.958 29.5927 104.06 29.5927V34.3459H102.527C101.249 34.3459 100.278 34.6526 99.665 35.2659C99.0517 35.8792 98.745 36.9014 98.745 38.2303V47.4301H93.9918Z" fill="#FF9B17"/>
<path d="M121.591 29.5932V40.0708C121.591 43.2397 120.774 45.3352 119.087 46.3063C117.451 47.2774 115.611 47.7885 113.669 47.7885C111.727 47.6863 109.989 47.1752 108.405 46.1529C106.821 45.1819 106.003 43.1374 106.003 40.0197V29.5421H110.705V40.9397C110.705 42.013 111.012 42.7797 111.625 43.2908C112.238 43.8019 112.954 44.0063 113.771 44.0063C114.589 44.0063 115.305 43.7508 115.969 43.2908C116.634 42.7797 116.94 42.013 116.94 40.9397V31.8932C116.94 31.2799 117.145 30.7177 117.554 30.2577C117.963 29.7977 118.525 29.5932 119.189 29.5932H121.591Z" fill="#FF9B17"/>
<path d="M123.482 41.5526H128.031C128.082 42.4726 128.389 43.1371 129.053 43.5459C129.718 44.0059 130.638 44.2104 131.762 44.2104C132.58 44.2104 133.244 44.057 133.858 43.7504C134.42 43.4437 134.676 43.0348 134.676 42.4726C134.676 41.6549 133.756 41.0415 131.864 40.6838C131.047 40.5304 130.433 40.4282 130.076 40.2749C127.725 39.7127 126.14 38.9971 125.322 38.1794C124.402 37.3616 123.993 36.2883 123.993 34.9594C123.993 33.2728 124.658 31.8417 125.936 30.7173C127.265 29.6951 129.002 29.184 131.149 29.184C133.5 29.184 135.34 29.6951 136.72 30.7173C137.998 31.8417 138.713 33.2728 138.815 35.0616H135.851C134.982 35.0616 134.369 34.7039 133.909 33.9372C133.704 33.7839 133.551 33.5794 133.347 33.375C132.784 32.9661 132.069 32.7617 131.149 32.7617C130.229 32.7617 129.565 32.915 129.156 33.1706C128.747 33.4261 128.542 33.835 128.542 34.3972C128.542 35.1128 129.718 35.7261 132.018 36.1861C132.273 36.2883 132.529 36.3394 132.733 36.3905C132.938 36.4416 133.142 36.4416 133.296 36.4416C135.596 37.0038 137.18 37.7194 138.049 38.4349C138.918 39.2527 139.327 40.326 139.327 41.6549C139.327 43.6482 138.611 45.1304 137.18 46.2037C135.851 47.1748 133.807 47.6859 131.149 47.6859C128.593 47.6859 126.702 47.1748 125.425 46.1526C124.147 45.1304 123.482 43.6482 123.482 41.6549V41.5526Z" fill="#FF9B17"/>
<path d="M148.731 47.4301C147.249 47.5323 145.664 47.4812 143.926 47.379C142.189 47.2257 141.32 46.1524 141.32 44.108V24.3794H143.722C144.284 24.3794 144.795 24.5838 145.255 25.0438C145.715 25.5038 145.92 26.0149 145.92 26.6794V29.6949H148.68V30.6148C148.68 31.2793 148.475 31.8415 148.015 32.2504C147.555 32.6593 147.044 32.8637 146.38 32.8637H145.92V42.7791C145.92 43.5457 146.38 43.9035 147.249 43.9035H148.68V47.4301H148.731Z" fill="#FF9B17"/>
<path d="M153.075 53.7681V50.0882H154.353C155.273 50.0882 155.937 49.8837 156.448 49.4748C156.96 49.0659 157.062 48.3504 156.755 47.4304L150.52 29.644H155.682L159.311 42.2683L162.48 31.2796C162.735 30.2063 163.451 29.644 164.626 29.644H167.846L160.997 49.9859C160.435 51.4681 159.771 52.4903 159.004 53.1548C158.186 53.717 156.857 53.9725 155.069 53.9725C154.915 53.9725 154.762 53.9725 154.609 53.9725C154.404 53.9725 154.251 53.9725 154.149 53.9725C153.995 53.9214 153.842 53.8703 153.637 53.8703C153.382 53.7681 153.177 53.7681 153.075 53.7681Z" fill="#FF9B17"/>
<path d="M177.302 47.4301V28.4171H170.453V26.7816C170.453 26.1171 170.708 25.5549 171.168 25.0949C171.628 24.6349 172.19 24.3794 172.855 24.3794H188.852V28.4682H182.055V47.4812H177.302V47.4301Z" fill="white"/>
<path d="M201.221 41.9615H204.594C204.083 43.8526 203.163 45.2837 201.783 46.2548C200.403 47.277 198.666 47.7881 196.57 47.7881C194.015 47.7881 192.021 46.9703 190.59 45.2837C189.159 43.6482 188.444 41.3482 188.444 38.3838C188.444 35.5216 189.159 33.2728 190.539 31.6884C191.97 30.0528 193.963 29.184 196.519 29.184C199.228 29.184 201.272 30.0017 202.754 31.5861C204.186 33.2217 204.901 35.5216 204.901 38.486C204.901 38.6905 204.901 38.8438 204.901 38.946C204.901 39.0994 204.901 39.1505 204.901 39.2016C204.901 39.406 204.901 39.5593 204.85 39.6616H193.248C193.299 41.0415 193.606 42.0637 194.27 42.7282C194.832 43.4437 195.701 43.8015 196.877 43.8015C197.643 43.8015 198.308 43.6482 198.819 43.3415C198.972 43.2904 199.074 43.2393 199.177 43.086C199.279 42.9837 199.432 42.8304 199.534 42.7282C199.586 42.5749 199.739 42.4215 200.046 42.166C200.301 42.0638 200.71 41.9615 201.221 41.9615ZM193.197 36.6972H200.046C199.943 35.4705 199.637 34.6016 199.126 33.9883C198.563 33.375 197.695 33.0683 196.621 33.0683C195.65 33.0683 194.832 33.375 194.219 33.9883C193.555 34.6528 193.248 35.5727 193.197 36.6972Z" fill="white"/>
<path d="M222.534 47.4303H220.183C219.519 47.4303 218.956 47.2259 218.547 46.817C218.139 46.4081 217.934 45.8459 217.934 45.1815V36.0327C217.934 34.9594 217.628 34.1928 216.963 33.6817C216.299 33.1706 215.583 32.9661 214.765 32.9661C213.948 32.9661 213.232 33.2217 212.619 33.6817C212.005 34.1928 211.699 34.9594 211.699 36.0327V47.4303H206.997V37.0038C206.997 33.9372 207.814 31.9439 209.399 30.8706C210.983 29.8484 212.721 29.2862 214.663 29.184C216.656 29.184 218.445 29.6951 220.081 30.7173C221.716 31.7395 222.585 33.835 222.585 36.9527V47.4303H222.534Z" fill="white"/>
<path d="M236.283 46.7145C235.363 47.2256 234.341 47.5323 233.318 47.6345C232.245 47.7367 231.325 47.7878 230.507 47.7878C228.872 47.7878 227.492 47.3278 226.265 46.459C225.038 45.5901 224.476 44.159 224.476 42.1146C224.476 40.2235 225.038 38.8946 226.112 38.0769C227.185 37.2591 228.616 36.748 230.303 36.4413C230.507 36.4413 230.814 36.3902 231.121 36.3391C231.427 36.288 231.785 36.2369 232.194 36.1858C234.187 35.9302 235.158 35.3169 235.158 34.448C235.158 33.7836 234.8 33.3236 234.136 33.1192C233.421 32.9147 232.807 32.8125 232.245 32.8125C231.632 32.8125 231.069 32.9147 230.558 33.0681C230.047 33.2725 229.689 33.5792 229.485 34.0903H224.987C225.141 32.7103 225.805 31.5859 226.878 30.6659C228.105 29.6437 229.792 29.1326 232.041 29.1326C234.545 29.1326 236.436 29.5415 237.663 30.4103C238.94 31.3303 239.605 32.557 239.605 34.1925V40.3257C239.605 42.1146 239.298 43.4946 238.634 44.5168C237.918 45.539 237.152 46.2545 236.283 46.7145ZM235.209 38.4346C234.596 38.7413 233.727 39.048 232.603 39.3035L231.069 39.6613C230.252 39.8657 229.689 40.1724 229.332 40.5302C229.025 41.0413 228.872 41.5013 228.872 42.0124C228.872 42.6768 229.076 43.239 229.485 43.6479C229.894 44.0057 230.456 44.2101 231.223 44.2101C232.449 44.2101 233.472 43.8523 234.187 43.1368C234.903 42.4212 235.26 41.4501 235.26 40.1724V38.4346H235.209Z" fill="white"/>
<path d="M257.34 47.4303H254.989C254.325 47.4303 253.762 47.2259 253.354 46.817C252.945 46.4081 252.74 45.8459 252.74 45.1815V36.0327C252.74 34.9594 252.434 34.1928 251.769 33.6817C251.105 33.1706 250.389 32.9661 249.571 32.9661C248.754 32.9661 248.038 33.2217 247.425 33.6817C246.811 34.1928 246.505 34.9594 246.505 36.0327V47.4303H241.803V37.0038C241.803 33.9372 242.62 31.9439 244.205 30.8706C245.789 29.8484 247.527 29.2862 249.469 29.184C251.462 29.184 253.251 29.6951 254.887 30.7173C256.522 31.7395 257.391 33.835 257.391 36.9527V47.4303H257.34Z" fill="white"/>
<path d="M267 47.4301C265.518 47.5323 263.933 47.4812 262.196 47.379C260.458 47.2257 259.589 46.1524 259.589 44.108V24.3794H261.991C262.553 24.3794 263.064 24.5838 263.524 25.0438C263.984 25.5038 264.189 26.0149 264.189 26.6794V29.6949H266.949V30.6148C266.949 31.2793 266.744 31.8415 266.284 32.2504C265.824 32.6593 265.313 32.8637 264.649 32.8637H264.189V42.7791C264.189 43.5457 264.649 43.9035 265.518 43.9035H266.949V47.4301H267Z" fill="white"/>
<path d="M30.7172 53.717H7.76874V28.7241L12.982 25.453V48.5037H25.504V42.0127H30.7172V53.717Z" fill="white"/>
<path d="M62.8145 53.7165H39.866V42.0123H45.0792V48.5033H57.6012V25.5037L62.8145 28.7747V53.7165Z" fill="white"/>
<path d="M23.1529 28.8259L32.0461 22.5394L28.8773 18.4506L17.9397 26.066V38.0258H30.6661V32.8125H23.1529V28.8259Z" fill="white"/>
<path d="M39.9171 23.6133L47.3792 28.8265V32.8131H39.8149V38.0264H52.5925V26.0666L43.2904 19.5756L39.9171 23.6133Z" fill="white"/>
<path d="M30.155 9.65984L35.4705 6.18434L40.3771 9.40429L44.8237 6.03101L35.4705 0L25.6573 6.33767L30.155 9.65984Z" fill="white"/>
<path d="M51.1614 10.1713L47.7881 14.209L69.3566 28.1621L72.1677 23.7666L51.1614 10.1713Z" fill="white"/>
<path d="M21.5685 8.94421L0 22.8973L2.86217 27.2928L24.7885 13.1353L21.5685 8.94421Z" fill="white"/>
<path d="M23.8174 8.433L35.9816 15.5373L54.0235 3.42419L35.9816 22.1817L23.8174 8.433Z" fill="#FF9B17"/>
</svg>
