<svg width="14" height="14" viewBox="0 0 14 14" fill="none" xmlns="http://www.w3.org/2000/svg">
<path d="M1.54583 8.06641H6.14125V12.6618C6.14125 13.1289 6.52546 13.5206 7.00007 13.5206C7.47468 13.5206 7.85889 13.1289 7.85889 12.6618V8.06641H12.4543C12.9214 8.06641 13.3131 7.6822 13.3131 7.20759C13.3131 6.73298 12.9214 6.34877 12.4543 6.34877H7.85889V1.75335C7.85889 1.28627 7.47468 0.894531 7.00007 0.894531C6.52546 0.894531 6.14125 1.28627 6.14125 1.75335V6.34877H1.54583C1.07875 6.34877 0.687012 6.73298 0.687012 7.20759C0.687012 7.6822 1.07875 8.06641 1.54583 8.06641Z" fill="black"/>
</svg>
