<svg width="70" height="70" viewBox="0 0 70 70" fill="none" xmlns="http://www.w3.org/2000/svg">
<g clip-path="url(#clip0_1_3357)">
<path d="M0.221407 6.42128L4.88993 14.5906C4.96789 14.7272 5.07268 14.8466 5.198 14.9417C5.32331 15.0367 5.46656 15.1054 5.61912 15.1437L9.9746 16.2326L24.9127 31.1706L26.5634 29.5205L11.3913 14.3491C11.2421 14.1994 11.0549 14.0932 10.8498 14.0418L6.66491 12.9919L2.69019 6.03241L6.09783 2.62464L13.0601 6.6033L14.1106 10.7882C14.1616 10.9935 14.2677 11.1811 14.4173 11.3307L29.5894 26.5027L31.2394 24.8521L16.3013 9.91397L15.2124 5.56095C15.1742 5.40818 15.1055 5.26472 15.0105 5.13916C14.9154 5.0136 14.796 4.90854 14.6593 4.83028L6.48952 0.162254C6.26769 0.0361434 6.01063 -0.0137863 5.75771 0.0201091C5.5048 0.0540045 5.26996 0.169857 5.08915 0.349928L0.42125 5.01845C0.238644 5.19796 0.120152 5.43255 0.0840381 5.68606C0.0479244 5.93956 0.0961944 6.19791 0.221407 6.42128ZM48.7423 23.0009L23.0672 48.6763L21.4166 47.0257L47.0922 21.351L48.7423 23.0009ZM18.5736 49.5846C18.4699 49.412 18.3232 49.2691 18.1479 49.1699C17.9725 49.0707 17.7745 49.0186 17.573 49.0187H10.5708C10.3694 49.0186 10.1715 49.0707 9.99627 49.1699C9.82103 49.2691 9.67447 49.412 9.57086 49.5846L6.06944 55.4198C5.96036 55.6013 5.90274 55.8091 5.90274 56.0208C5.90274 56.2326 5.96036 56.4404 6.06944 56.6219L9.57086 62.457C9.67455 62.6296 9.82113 62.7724 9.99635 62.8716C10.1716 62.9708 10.3695 63.0229 10.5708 63.023H17.573C17.7744 63.0229 17.9724 62.9708 18.1477 62.8716C18.323 62.7725 18.4697 62.6296 18.5735 62.457L22.0744 56.6219C22.1835 56.4404 22.2411 56.2326 22.2411 56.0208C22.2411 55.8091 22.1835 55.6013 22.0744 55.4198L18.5736 49.5846ZM16.9129 60.6888H11.2314L8.43055 56.021L11.2315 51.3525H16.9129L19.7138 56.021L16.9129 60.6888Z" fill="#345A84"/>
<path d="M56.0858 28.0116C63.7936 28.0375 70.0637 21.8099 70.0895 14.1018C70.0934 12.9287 69.9494 11.7597 69.661 10.6226C69.5054 9.99704 68.8722 9.61629 68.2466 9.77188C68.0414 9.82322 67.8539 9.92924 67.7041 10.0787L60.4392 17.3386L54.6753 15.4177L52.753 9.65524L60.0178 2.38902C60.1641 2.24267 60.2688 2.06006 60.3213 1.8599C60.3737 1.65973 60.372 1.44922 60.3163 1.24993C60.2606 1.05065 60.153 0.869752 60.0043 0.725789C59.8557 0.581826 59.6714 0.479972 59.4705 0.430666C51.9954 -1.46231 44.4017 3.06254 42.5087 10.5371C42.2211 11.6711 42.0775 12.8368 42.0814 14.0067C42.0843 14.9256 42.1788 15.8416 42.3652 16.7413L16.8064 42.2998C15.9067 42.1143 14.9908 42.0192 14.0722 42.0161C6.33738 42.0161 0.0672913 48.286 0.0672913 56.021C0.0672913 63.7554 6.33738 70.0253 14.0722 70.0253C21.8066 70.0253 28.0766 63.7552 28.0766 56.021C28.0737 55.1023 27.9786 54.1861 27.7928 53.2864L33.9117 47.1675L36.5877 49.8436C36.8066 50.0624 37.1035 50.1853 37.413 50.1853C37.7225 50.1853 38.0194 50.0624 38.2383 49.8436L38.8216 49.2598C39.3334 48.7513 40.1605 48.7513 40.6723 49.2598C41.1836 49.7696 41.1845 50.5974 40.6747 51.1086L40.6723 51.1111L40.089 51.6943C39.6334 52.1499 39.6334 52.8889 40.089 53.3444L54.0108 67.2661C57.6725 70.9614 63.6362 70.9883 67.3314 67.3266C71.0263 63.6649 71.0532 57.7007 67.3915 54.0059C67.3719 53.9857 67.3517 53.9655 67.3314 53.9454L53.4098 40.024C52.9542 39.5684 52.2153 39.5684 51.7597 40.024L51.1764 40.6073C50.6642 41.1163 49.8375 41.1163 49.3252 40.6073C48.8143 40.0975 48.813 39.2699 49.3228 38.759C49.3238 38.7581 49.3247 38.7576 49.3252 38.7565L49.909 38.1727C50.3646 37.7172 50.3646 36.9783 49.909 36.5227L47.2329 33.8467L53.3517 27.7278C54.2513 27.9137 55.1673 28.0088 56.0859 28.0117L56.0858 28.0116ZM60.6711 67.6915C59.8234 67.6901 58.9827 67.5368 58.1891 67.2387L67.3037 58.1236C68.6791 61.7825 66.8284 65.8633 63.1695 67.2387C62.3708 67.539 61.5244 67.6924 60.6711 67.6915ZM47.4498 37.3596C46.1574 38.9012 46.36 41.1989 47.9016 42.4908C49.2564 43.6262 51.2311 43.6252 52.5844 42.4874L65.6815 55.596C65.8235 55.7386 65.9565 55.8888 66.0852 56.0415L56.1068 66.0198C55.9523 65.8918 55.8035 65.7571 55.6608 65.616L42.5538 52.508C43.8463 50.9664 43.6436 48.6686 42.102 47.3768C40.7472 46.2408 38.7721 46.2424 37.4188 47.3796L35.5516 45.5126L45.5823 35.4967L47.4498 37.3596ZM52.1625 25.6217L25.6875 52.0913C25.5448 52.2338 25.4415 52.4108 25.3875 52.6052C25.3334 52.7995 25.3306 53.0045 25.3793 53.2002C26.9804 59.488 23.1809 65.8835 16.8926 67.4842C10.6049 69.0851 4.20953 65.2856 2.60834 58.9974C1.00775 52.7096 4.80709 46.3143 11.0955 44.7132C12.9976 44.2293 14.9906 44.2293 16.8926 44.7132C17.0884 44.7611 17.2931 44.7579 17.4873 44.704C17.6815 44.6502 17.8585 44.5473 18.0016 44.4054L44.4703 17.9354C44.6128 17.7929 44.716 17.6159 44.7698 17.4216C44.8236 17.2273 44.8261 17.0224 44.777 16.8268C43.1869 10.6125 46.9355 4.2858 53.1499 2.6953C54.3244 2.39496 55.5387 2.28025 56.7486 2.35535L50.5924 8.51408C50.4391 8.66715 50.3315 8.85988 50.2817 9.07067C50.2318 9.28146 50.2416 9.50197 50.3101 9.70748L52.6439 16.7102C52.7014 16.882 52.7981 17.038 52.9263 17.166C53.0545 17.294 53.2108 17.3904 53.3827 17.4476L60.3854 19.7818C60.5908 19.8502 60.8112 19.8602 61.022 19.8105C61.2328 19.7608 61.4255 19.6535 61.5788 19.5005L67.7351 13.3442C67.749 13.5648 67.7561 13.7857 67.7563 14.0067C67.7889 20.4194 62.6173 25.6442 56.2047 25.6774C55.2133 25.6822 54.2254 25.5603 53.265 25.3145C53.0694 25.2655 52.8645 25.2681 52.6702 25.3218C52.4758 25.3756 52.2987 25.4787 52.1561 25.6212H52.1622L52.1625 25.6217Z" fill="#345A84"/>
<path d="M60.4133 58.6964L58.7627 60.347L47.0927 48.6768L48.7427 47.0262L60.4133 58.6964Z" fill="#345A84"/>
</g>
<defs>
<clipPath id="clip0_1_3357">
<rect width="70" height="70" fill="white"/>
</clipPath>
</defs>
</svg>
