<svg width="70" height="70" viewBox="0 0 70 70" fill="none" xmlns="http://www.w3.org/2000/svg">
<path d="M63.1575 54.4285C64.5402 52.5272 65.2896 50.2391 65.2995 47.8882C65.3069 47.7351 65.284 47.5821 65.2323 47.4379C65.1805 47.2937 65.1008 47.161 64.9978 47.0476C64.8948 46.9342 64.7704 46.8421 64.6318 46.7768C64.4932 46.7114 64.3431 46.674 64.19 46.6667C63.8818 46.6552 63.5813 46.7649 63.3529 46.9723C63.1246 47.1797 62.9866 47.4683 62.9685 47.7762C62.9773 49.6394 62.4033 51.4587 61.327 52.9795C59.0508 55.8542 54.7318 56 53.8883 56C53.5789 56 53.2822 56.1229 53.0634 56.3417C52.8446 56.5605 52.7217 56.8573 52.7217 57.1667C52.7217 57.4761 52.8446 57.7729 53.0634 57.9916C53.2822 58.2104 53.5789 58.3334 53.8883 58.3334C54.9197 58.3334 60.2128 58.1455 63.1575 54.4285ZM39.6667 39.6667C39.6667 39.3573 39.5438 39.0605 39.325 38.8417C39.1062 38.6229 38.8094 38.5 38.5 38.5C38.1906 38.5 37.8938 38.6229 37.675 38.8417C37.4563 39.0605 37.3333 39.3573 37.3333 39.6667C37.3333 40.9044 37.825 42.0913 38.7002 42.9665C39.5753 43.8417 40.7623 44.3334 42 44.3334V45.5C42 45.8094 42.1229 46.1062 42.3417 46.325C42.5605 46.5438 42.8573 46.6667 43.1667 46.6667C43.4761 46.6667 43.7728 46.5438 43.9916 46.325C44.2104 46.1062 44.3333 45.8094 44.3333 45.5V44.3334C45.571 44.3334 46.758 43.8417 47.6332 42.9665C48.5083 42.0913 49 40.9044 49 39.6667C49 38.429 48.5083 37.242 47.6332 36.3669C46.758 35.4917 45.571 35 44.3333 35V30.3334C44.9522 30.3334 45.5457 30.5792 45.9833 31.0168C46.4208 31.4544 46.6667 32.0478 46.6667 32.6667C46.6667 32.9761 46.7896 33.2729 47.0084 33.4916C47.2272 33.7104 47.5239 33.8334 47.8333 33.8334C48.1428 33.8334 48.4395 33.7104 48.6583 33.4916C48.8771 33.2729 49 32.9761 49 32.6667C49 31.429 48.5083 30.242 47.6332 29.3669C46.758 28.4917 45.571 28 44.3333 28V26.8334C44.3333 26.5239 44.2104 26.2272 43.9916 26.0084C43.7728 25.7896 43.4761 25.6667 43.1667 25.6667C42.8573 25.6667 42.5605 25.7896 42.3417 26.0084C42.1229 26.2272 42 26.5239 42 26.8334V28C40.7623 28 39.5753 28.4917 38.7002 29.3669C37.825 30.242 37.3333 31.429 37.3333 32.6667C37.3333 33.9044 37.825 35.0913 38.7002 35.9665C39.5753 36.8417 40.7623 37.3334 42 37.3334V42C41.3812 42 40.7877 41.7542 40.3501 41.3166C39.9125 40.879 39.6667 40.2855 39.6667 39.6667ZM39.6667 32.6667C39.6667 32.0478 39.9125 31.4544 40.3501 31.0168C40.7877 30.5792 41.3812 30.3334 42 30.3334V35C41.3812 35 40.7877 34.7542 40.3501 34.3166C39.9125 33.879 39.6667 33.2855 39.6667 32.6667ZM44.3333 37.3334C44.9522 37.3334 45.5457 37.5792 45.9833 38.0168C46.4208 38.4544 46.6667 39.0478 46.6667 39.6667C46.6667 40.2855 46.4208 40.879 45.9833 41.3166C45.5457 41.7542 44.9522 42 44.3333 42V37.3334Z" fill="#FF9B17"/>
<path d="M69.0247 39.3995C66.15 27.1834 59.759 20.1052 55.1437 16.408C60.9315 16.8444 62.7947 19.2523 62.8495 19.3247C63.0252 19.5755 63.2924 19.7471 63.5935 19.8026C63.8946 19.8582 64.2055 19.7931 64.459 19.6214C64.7126 19.4498 64.8885 19.1854 64.9488 18.8852C65.0092 18.585 64.9491 18.2731 64.7815 18.0168C64.6975 17.8909 63.077 15.5762 58.3648 14.5168C58.9603 14.0274 59.4429 13.415 59.7798 12.7218C60.1167 12.0285 60.2998 11.2706 60.3167 10.5C60.2406 9.23962 59.7683 8.03548 58.9671 7.05954C58.1659 6.0836 57.0768 5.38576 55.8553 5.06568C55.958 4.22335 56.0105 3.37402 56.0117 2.52585C56.0111 2.14077 55.9151 1.76184 55.7325 1.42283C55.5498 1.08383 55.2861 0.795304 54.9649 0.582984C54.6436 0.370663 54.2748 0.241151 53.8913 0.205998C53.5079 0.170844 53.1217 0.231143 52.7672 0.381516C52.178 0.648682 51.6308 0.999849 51.1432 1.42335C50.8598 1.71452 50.5204 1.94526 50.1455 2.10166C49.7705 2.25807 49.3678 2.33688 48.9615 2.33335C48.5559 2.3362 48.1538 2.25707 47.7795 2.10069C47.4052 1.94432 47.0664 1.71393 46.7833 1.42335C45.7919 0.507657 44.4918 -0.000854492 43.1422 -0.000854492C41.7925 -0.000854492 40.4925 0.507657 39.501 1.42335C39.2176 1.71513 38.8779 1.94626 38.5025 2.10269C38.127 2.25913 37.7237 2.3376 37.317 2.33335C36.9115 2.33672 36.5094 2.25781 36.1353 2.1014C35.7611 1.94499 35.4225 1.71433 35.14 1.42335C34.6533 1.00005 34.1079 0.64952 33.5207 0.382682C33.1664 0.23331 32.7807 0.173799 32.3979 0.20944C32.015 0.245081 31.647 0.37477 31.3263 0.586975C31.0057 0.799179 30.7425 1.08732 30.5601 1.42578C30.3777 1.76425 30.2818 2.14254 30.2808 2.52702C30.2808 5.42968 30.8548 10.6073 34.489 14.084C32.5791 15.2454 30.7953 16.6025 29.1667 18.1335V9.33335C29.1667 6.67335 25.4042 4.66668 20.4167 4.66668C15.4292 4.66668 11.6667 6.67335 11.6667 9.33335V21.0875C7.57517 21.4959 4.66667 23.3334 4.66667 25.6667V55.3409C1.848 56.098 0 57.6334 0 59.5V65.3334C0 67.9934 3.7625 70 8.75 70C13.2102 70 16.6833 68.3935 17.3682 66.15C19.382 67.2163 21.6391 67.7391 23.9167 67.6667C28.9042 67.6667 32.6667 65.66 32.6667 63V47.8334C32.6667 45.1734 28.9042 43.1667 23.9167 43.1667C23.3333 43.1667 22.7477 43.1959 22.1667 43.2542V25.6667C22.1667 23.1117 18.6935 21.1657 14 21.0152V12.5638C15.9848 13.5727 18.1912 14.0665 20.4167 14C22.6421 14.0665 24.8486 13.5727 26.8333 12.5638V20.5205C26.0203 21.4277 25.2517 22.3738 24.5303 23.3555C24.3624 23.6055 24.2977 23.9108 24.3497 24.2074C24.4017 24.504 24.5664 24.7691 24.8094 24.9471C25.0523 25.125 25.3547 25.2022 25.6532 25.1623C25.9517 25.1225 26.2232 24.9688 26.411 24.7334C27.16 23.7184 27.9627 22.7454 28.8167 21.8167L28.8435 21.7864C31.0706 19.3113 33.6859 17.2153 36.5867 15.5808C37.1583 15.8562 37.7638 16.058 38.3868 16.1793L35.3792 18.9864C35.153 19.1977 35.02 19.4902 35.0095 19.7996C34.999 20.109 35.1118 20.4098 35.3232 20.636C35.5345 20.8622 35.827 20.9952 36.1364 21.0057C36.4458 21.0162 36.7467 20.9034 36.9728 20.692L41.6395 16.3392H42.0117V19.8392C42.0117 20.1486 42.1346 20.4453 42.3534 20.6641C42.5722 20.8829 42.8689 21.0058 43.1783 21.0058C43.4878 21.0058 43.7845 20.8829 44.0033 20.6641C44.2221 20.4453 44.345 20.1486 44.345 19.8392V16.3333H44.7172L49.3838 20.6862C49.4958 20.7908 49.6273 20.8724 49.7709 20.9262C49.9144 20.98 50.0671 21.005 50.2203 20.9998C50.3735 20.9946 50.5241 20.9593 50.6637 20.8959C50.8032 20.8325 50.9289 20.7422 51.0335 20.6302C51.1381 20.5182 51.2197 20.3867 51.2735 20.2432C51.3273 20.0996 51.3524 19.9469 51.3472 19.7938C51.342 19.6406 51.3066 19.4899 51.2432 19.3504C51.1798 19.2108 51.0895 19.0852 50.9775 18.9805L47.95 16.1618C48.5695 16.0392 49.1706 15.8373 49.7385 15.561C52.822 17.2294 62.958 23.821 66.7543 39.9339C68.4052 46.9479 67.8102 52.3134 64.9868 55.8775C61.3748 60.4334 55.1075 60.6667 53.8883 60.6667H37.3333C37.0239 60.6667 36.7272 60.7896 36.5084 61.0084C36.2896 61.2272 36.1667 61.5239 36.1667 61.8334C36.1667 62.1428 36.2896 62.4395 36.5084 62.6583C36.7272 62.8771 37.0239 63 37.3333 63H53.8883C55.8717 63 62.6442 62.5905 66.815 57.3265C70.1027 53.1744 70.847 47.1427 69.0247 39.3995ZM8.75 57.1667C12.6082 57.1667 15.1667 58.5667 15.1667 59.5C15.1667 60.4334 12.6082 61.8334 8.75 61.8334C4.89183 61.8334 2.33333 60.4334 2.33333 59.5C2.33333 58.5667 4.89183 57.1667 8.75 57.1667ZM8.75 67.6667C4.89183 67.6667 2.33333 66.2667 2.33333 65.3334V62.7305C4.3181 63.7393 6.52456 64.2332 8.75 64.1667C10.9754 64.2332 13.1819 63.7393 15.1667 62.7305V65.3334C15.1667 66.2667 12.6082 67.6667 8.75 67.6667ZM23.9167 65.3334C20.0585 65.3334 17.5 63.9334 17.5 63V51.0639C19.4848 52.0727 21.6912 52.5665 23.9167 52.5C26.1421 52.5665 28.3486 52.0727 30.3333 51.0639V63C30.3333 63.9334 27.7748 65.3334 23.9167 65.3334ZM30.3333 47.8334C30.3333 48.7667 27.7748 50.1667 23.9167 50.1667C20.0585 50.1667 17.5 48.7667 17.5 47.8334C17.5 46.9 20.0585 45.5 23.9167 45.5C27.7748 45.5 30.3333 46.9 30.3333 47.8334ZM15.1667 47.8334V56.2695C13.1819 55.2607 10.9754 54.7669 8.75 54.8334C8.16667 54.8334 7.581 54.8625 7 54.9209V28.8972C8.98477 29.906 11.1912 30.3998 13.4167 30.3334C15.6421 30.3998 17.8486 29.906 19.8333 28.8972V43.6742C17.0147 44.4314 15.1667 45.9667 15.1667 47.8334ZM19.8333 25.6667C19.8333 26.6 17.2748 28 13.4167 28C9.5585 28 7 26.6 7 25.6667C7 24.7334 9.5585 23.3334 13.4167 23.3334C17.2748 23.3334 19.8333 24.7334 19.8333 25.6667ZM20.4167 11.6667C16.5585 11.6667 14 10.2667 14 9.33335C14 8.40002 16.5585 7.00002 20.4167 7.00002C24.2748 7.00002 26.8333 8.40002 26.8333 9.33335C26.8333 10.2667 24.2748 11.6667 20.4167 11.6667ZM57.9833 10.5C57.9833 12.4122 55.9125 13.9813 53.3167 14C52.8825 13.9973 52.4499 13.9476 52.0263 13.8518C53.7196 12.0453 54.8966 9.81714 55.4342 7.40018C56.1205 7.60241 56.7304 8.00595 57.1848 8.55859C57.6393 9.11123 57.9175 9.78754 57.9833 10.5ZM33.6793 3.24335C34.6646 4.16657 35.9668 4.6761 37.317 4.66668C38.668 4.67682 39.9712 4.16724 40.957 3.24335C41.2425 2.95509 41.5823 2.72627 41.9568 2.57011C42.3312 2.41395 42.7329 2.33354 43.1387 2.33354C43.5444 2.33354 43.9461 2.41395 44.3206 2.57011C44.695 2.72627 45.0348 2.95509 45.3203 3.24335C46.3061 4.16793 47.61 4.6776 48.9615 4.66668C50.3129 4.67712 51.6166 4.16751 52.6027 3.24335C52.9258 2.95752 53.2852 2.71602 53.6725 2.52468C53.6725 4.69118 53.27 10.0473 49.511 12.9838C48.6653 13.619 47.6402 13.9698 46.5827 13.986C47.5926 12.2513 48.392 10.4023 48.9638 8.47818C49.0468 8.1799 49.0078 7.8609 48.8555 7.59135C48.7032 7.32179 48.4501 7.12377 48.1518 7.04085C47.8536 6.95792 47.5346 6.99689 47.265 7.14917C46.9954 7.30145 46.7974 7.55457 46.7145 7.85285C46.0683 10.0459 45.075 12.1213 43.7722 14H42.5728C41.2726 12.1196 40.2791 10.0447 39.6293 7.85285C39.5463 7.55472 39.3481 7.30181 39.0786 7.14975C38.809 6.99769 38.4901 6.95894 38.192 7.04202C37.8939 7.1251 37.641 7.3232 37.4889 7.59275C37.3368 7.86231 37.2981 8.18122 37.3812 8.47935C37.9535 10.4051 38.7537 12.2557 39.7647 13.9918C38.686 13.9863 37.6378 13.6332 36.7757 12.985C33.0167 10.0497 32.6142 4.69352 32.6142 2.53402C33.0003 2.71952 33.3597 2.95752 33.6793 3.24335Z" fill="#FF9B17"/>
<path d="M63.1575 54.4285C64.5402 52.5273 65.2896 50.2391 65.2995 47.8882C65.3069 47.7351 65.284 47.5821 65.2323 47.4379C65.1805 47.2937 65.1008 47.161 64.9978 47.0476C64.8948 46.9342 64.7704 46.8422 64.6318 46.7768C64.4932 46.7114 64.3431 46.674 64.19 46.6667C63.8819 46.6558 63.5818 46.7657 63.3536 46.973C63.1254 47.1802 62.9872 47.4685 62.9685 47.7762C62.9773 49.6394 62.4033 51.4587 61.327 52.9795C59.0508 55.8542 54.7318 56 53.8883 56C53.5789 56 53.2822 56.1229 53.0634 56.3417C52.8446 56.5605 52.7217 56.8573 52.7217 57.1667C52.7217 57.4761 52.8446 57.7729 53.0634 57.9917C53.2822 58.2104 53.5789 58.3334 53.8883 58.3334C54.9197 58.3334 60.2128 58.1455 63.1575 54.4285Z" fill="#FF9B17"/>
</svg>
