<svg width="70" height="70" viewBox="0 0 70 70" fill="none" xmlns="http://www.w3.org/2000/svg">
<g clip-path="url(#clip0_1_3340)">
<path d="M15.9924 12.916C16.2644 12.916 16.5252 12.8079 16.7175 12.6157C16.9098 12.4234 17.0178 12.1625 17.0178 11.8906C17.0178 11.6186 16.9098 11.3578 16.7175 11.1655C16.5252 10.9732 16.2644 10.8652 15.9924 10.8652C15.7205 10.8652 15.4596 10.9732 15.2673 11.1655C15.075 11.3578 14.967 11.6186 14.967 11.8906C14.967 12.1625 15.075 12.4234 15.2673 12.6157C15.4596 12.8079 15.7205 12.916 15.9924 12.916ZM7.78928 12.916C8.06123 12.916 8.32204 12.8079 8.51434 12.6157C8.70664 12.4234 8.81467 12.1625 8.81467 11.8906C8.81467 11.6186 8.70664 11.3578 8.51434 11.1655C8.32204 10.9732 8.06123 10.8652 7.78928 10.8652C7.51733 10.8652 7.25652 10.9732 7.06422 11.1655C6.87192 11.3578 6.76389 11.6186 6.76389 11.8906C6.76389 12.1625 6.87192 12.4234 7.06422 12.6157C7.25652 12.8079 7.51733 12.916 7.78928 12.916ZM11.8908 12.916C12.1628 12.916 12.4236 12.8079 12.6159 12.6157C12.8082 12.4234 12.9162 12.1625 12.9162 11.8906C12.9162 11.6186 12.8082 11.3578 12.6159 11.1655C12.4236 10.9732 12.1628 10.8652 11.8908 10.8652C11.6189 10.8652 11.3581 10.9732 11.1658 11.1655C10.9735 11.3578 10.8654 11.6186 10.8654 11.8906C10.8654 12.1625 10.9735 12.4234 11.1658 12.6157C11.3581 12.8079 11.6189 12.916 11.8908 12.916ZM11.6659 23.7787L11.6848 23.7788L20.9556 23.7812H20.9561C21.5966 23.7812 22.1404 23.3662 22.3095 22.7485C22.4787 22.1306 22.2219 21.4963 21.6706 21.1702L20.2606 20.336C21.3855 19.2217 22.2765 17.8938 22.8811 16.4304C23.4856 14.967 23.7917 13.3975 23.7813 11.8142C23.7407 5.39276 18.4849 0.0936755 12.0654 0.00125361C5.41338 -0.0943128 0 5.28653 0 11.8909C0 18.2241 5.21828 23.6416 11.6659 23.7787ZM4.9834 4.88266C6.87422 3.01891 9.37344 2.01471 12.036 2.05176C17.348 2.12819 21.6969 6.5133 21.7305 11.827C21.7398 13.2431 21.4432 14.6444 20.8611 15.9353C20.279 17.2262 19.425 18.3762 18.3575 19.3066C18.1791 19.4626 18.0402 19.6586 17.952 19.8786C17.8639 20.0986 17.8291 20.3363 17.8504 20.5724C17.8724 20.8081 17.9498 21.0353 18.0764 21.2354C18.203 21.4355 18.3752 21.6027 18.5788 21.7235L18.5891 21.7296L11.6949 21.7279C6.36535 21.6257 2.05078 17.2351 2.05078 11.8909C2.05078 9.23565 3.0923 6.74682 4.9834 4.88266ZM68.9746 67.9492H67.9492V52.6791C67.9492 48.6785 65.5852 45.0456 61.9151 43.4188L56.5112 41.1026C57.8261 40.6877 59.0141 39.9477 59.9807 38.9214C61.4391 37.3731 62.2754 35.2721 62.2754 33.1572C62.2754 31.2139 61.5964 29.3797 60.3117 27.8524C58.7033 25.9403 57.8208 23.5221 57.8197 21.0234V16.1097C57.8197 11.8061 56.1437 7.76086 53.1006 4.71928C50.0575 1.67592 46.0119 2.3137e-05 41.7088 2.3137e-05C32.8259 2.3137e-05 25.5992 7.2267 25.5992 16.1096V20.8633C25.5998 23.4457 24.5849 25.9106 22.9358 27.8975C20.8603 30.3981 20.4291 33.779 21.8106 36.7208C22.836 38.9044 24.6855 40.4733 26.8997 41.1373L21.5335 43.4709C17.7687 45.0551 15.3359 48.718 15.3359 52.8023V64.8732C15.3359 65.4395 15.7948 65.8986 16.3613 65.8986C16.9277 65.8986 17.3867 65.4395 17.3867 64.8732V52.8023C17.3867 49.5454 19.3266 46.6244 22.3401 45.3563L29.0664 42.4314V48.6035H25.9762C25.5449 48.6038 25.1184 48.6947 24.7245 48.8702C24.3305 49.0457 23.9778 49.3019 23.6891 49.6224C23.4009 49.9432 23.1833 50.3209 23.0503 50.7312C22.9173 51.1414 22.872 51.575 22.9172 52.0039L24.6075 67.9492H1.02539C0.458965 67.9492 0 68.4084 0 68.9746C0 69.5409 0.458965 70 1.02539 70H68.9746C69.541 70 70 69.5409 70 68.9746C70 68.4084 69.541 67.9492 68.9746 67.9492ZM58.7427 29.1728C59.7122 30.3253 60.2246 31.7031 60.2246 33.1571C60.2246 34.7549 59.5916 36.3433 58.4879 37.5152C57.3192 38.756 55.7137 39.4393 53.9671 39.4393H52.6308L50.8755 38.6869C50.1293 38.3673 49.4791 37.859 48.9888 37.212C48.4985 36.5651 48.1849 35.8017 48.0789 34.9969C51.2427 33.2934 53.3984 29.95 53.3984 26.1119V18.4033C53.6976 18.424 53.9974 18.4344 54.2973 18.4348C54.7904 18.4348 55.2817 18.4067 55.7691 18.3515V21.0233C55.7703 24.0051 56.8233 26.8909 58.7427 29.1728ZM41.958 45.3604C38.2968 45.4255 34.6454 44.9609 31.1172 43.9809V41.5396L31.4137 41.4106L31.4208 41.4076L33.2501 40.6122C34.2407 40.1818 35.1131 39.5194 35.7939 38.681C36.4747 37.8426 36.9438 36.8527 37.1617 35.7949C38.0749 36.0611 39.0213 36.1963 39.9726 36.1965H43.3139C44.2687 36.1963 45.2187 36.0601 46.1351 35.7919C46.3602 36.8452 46.8348 37.829 47.5191 38.6608C48.2033 39.4925 49.0772 40.1479 50.0674 40.5719L52.0197 41.4086L52.0234 41.4101L52.168 41.472V43.7794C48.8524 44.768 45.4174 45.2999 41.958 45.3604ZM52.1678 45.9144V48.6037H31.1172V46.1045C34.6659 47.0357 38.3256 47.4753 41.9938 47.4109C45.4353 47.3507 48.8547 46.8478 52.1678 45.9144ZM55.7689 16.2838C52.9445 16.6654 49.7607 15.9088 47.5672 14.2092C47.352 14.0449 47.0806 13.9723 46.8122 14.0073C46.5437 14.0423 46.3 14.182 46.1342 14.396C45.9684 14.61 45.8939 14.8809 45.9271 15.1496C45.9602 15.4183 46.0983 15.663 46.3112 15.8303C47.7452 16.9413 49.4748 17.7238 51.3476 18.1184V23.7008C50.8549 24.8238 50.3063 25.7577 49.0697 26.7779C48.5509 27.2056 47.9793 27.5649 47.3689 27.8472C46.8706 26.8747 45.8585 26.2072 44.6928 26.2072H42.2898C40.6324 26.2072 39.2841 27.5557 39.2841 29.213C39.2841 30.8703 40.6324 32.2188 42.2898 32.2188H44.6928C46.0876 32.2188 47.2634 31.2636 47.601 29.9733C48.9727 29.4506 51.2092 27.586 51.2098 27.5854C50.5154 31.3133 47.2402 34.1451 43.314 34.1451H39.9725C35.5428 34.1451 31.9389 30.5414 31.9389 26.1115V18.1854C35.4215 17.6395 38.7116 16.461 41.729 14.6762C46.3233 11.9587 49.2703 8.40754 51.0487 5.60194C54.0917 8.31211 55.8227 12.1975 55.7689 16.2838ZM45.6475 29.2159C45.646 29.7413 45.2184 30.1682 44.6927 30.1682H42.2897C41.7631 30.1682 41.3347 29.7398 41.3347 29.2133C41.3347 28.6868 41.7632 28.2583 42.2897 28.2583H44.6927C45.2182 28.2583 45.6457 28.685 45.6475 29.2101V29.2159ZM27.65 16.1096C27.65 8.3575 33.9567 2.0508 41.7088 2.0508C44.489 2.0508 47.1457 2.85334 49.4159 4.34741C47.7792 6.9709 45.0245 10.3446 40.6849 12.9116C37.7079 14.6725 34.4423 15.7968 30.9787 16.2531H27.6499V16.1096H27.65ZM23.6667 35.8491C22.627 33.6345 22.9515 31.0895 24.5126 29.2088C26.4713 26.8489 27.6522 23.9329 27.65 20.8633V18.3039H29.8881V26.1119C29.8881 29.9522 32.0465 33.2972 35.2131 34.9998C35.1152 35.8102 34.807 36.581 34.3192 37.2356C33.8314 37.8902 33.1809 38.4058 32.4323 38.7314L30.8042 39.4393H29.318C26.8721 39.4393 24.7067 38.0636 23.6667 35.8491ZM59.3622 51.7879L57.649 67.9492H26.6697L24.9565 51.7879C24.9406 51.6449 24.9553 51.5001 24.9996 51.3632C25.044 51.2264 25.117 51.1005 25.2138 50.9941C25.3095 50.8866 25.4269 50.8007 25.5584 50.7421C25.6898 50.6836 25.8323 50.6537 25.9762 50.6545H58.3425C58.637 50.6545 58.9079 50.775 59.1049 50.9941C59.2017 51.1005 59.2747 51.2264 59.3191 51.3632C59.3634 51.5001 59.3781 51.6449 59.3622 51.7879ZM65.8984 67.9492H59.7112L61.4015 52.0042C61.4467 51.5753 61.4013 51.1417 61.2683 50.7314C61.1354 50.3211 60.9178 49.9434 60.6296 49.6225C60.3409 49.3021 59.9882 49.0458 59.5942 48.8703C59.2003 48.6948 58.7738 48.604 58.3425 48.6037H54.2186V42.3511L61.0956 45.2986C64.0132 46.592 65.8984 49.4889 65.8984 52.6791V67.9492ZM42.1593 55.4053C40.0107 55.4053 38.2628 57.1533 38.2628 59.3018C38.2628 61.4503 40.0107 63.1983 42.1593 63.1983C44.3078 63.1983 46.0558 61.4503 46.0558 59.3018C46.0558 57.1533 44.3078 55.4053 42.1593 55.4053ZM42.1593 61.1475C41.1415 61.1475 40.3136 60.3195 40.3136 59.3018C40.3136 58.2841 41.1415 57.4561 42.1593 57.4561C43.177 57.4561 44.005 58.2841 44.005 59.3018C44.005 60.3195 43.1771 61.1475 42.1593 61.1475Z" fill="#345A84"/>
</g>
<defs>
<clipPath id="clip0_1_3340">
<rect width="70" height="70" fill="white"/>
</clipPath>
</defs>
</svg>
