<svg width="15" height="15" viewBox="0 0 15 15" fill="none" xmlns="http://www.w3.org/2000/svg">
<g clip-path="url(#clip0_204_3581)">
<path d="M10.7974 0.0909424H4.29342C2.17662 0.0909424 0.454529 1.81303 0.454529 3.92983V10.434C0.454529 12.5506 2.17662 14.2727 4.29342 14.2727H10.7975C12.9142 14.2727 14.6363 12.5506 14.6363 10.434V3.92983C14.6363 1.81303 12.9142 0.0909424 10.7974 0.0909424ZM13.8049 10.434C13.8049 12.0922 12.4558 13.4413 10.7974 13.4413H4.29342C2.63506 13.4413 1.28594 12.0922 1.28594 10.434V3.92983C1.28594 2.27148 2.63506 0.92235 4.29342 0.92235H10.7975C12.4558 0.92235 13.8049 2.27148 13.8049 3.92983V10.434Z" fill="#131736"/>
<path d="M7.54545 3.30416C5.40724 3.30416 3.66772 5.04365 3.66772 7.18189C3.66772 9.32013 5.40721 11.0596 7.54545 11.0596C9.6837 11.0596 11.4232 9.32013 11.4232 7.18189C11.4232 5.04365 9.6837 3.30416 7.54545 3.30416ZM7.54545 10.2282C5.8658 10.2282 4.49913 8.86169 4.49913 7.18189C4.49913 5.50223 5.8658 4.13557 7.54545 4.13557C9.22525 4.13557 10.5918 5.50223 10.5918 7.18189C10.5918 8.86169 9.22525 10.2282 7.54545 10.2282ZM11.5159 1.927C10.884 1.927 10.3701 2.44107 10.3701 3.07282C10.3701 3.70471 10.884 4.21875 11.5159 4.21875C12.1478 4.21875 12.6618 3.70471 12.6618 3.07285C12.6618 2.44098 12.1478 1.927 11.5159 1.927ZM11.5159 3.38726C11.3426 3.38726 11.2015 3.24616 11.2015 3.07282C11.2015 2.8994 11.3426 2.75841 11.5159 2.75841C11.6893 2.75841 11.8304 2.8994 11.8304 3.07282C11.8304 3.24616 11.6893 3.38726 11.5159 3.38726Z" fill="#131736"/>
</g>
<defs>
<clipPath id="clip0_204_3581">
<rect width="14.1818" height="14.1818" fill="white" transform="translate(0.454529 0.0909424)"/>
</clipPath>
</defs>
</svg>
