<svg width="20" height="20" viewBox="0 0 20 20" fill="none" xmlns="http://www.w3.org/2000/svg">
<path d="M10.0588 1C7.11765 1 4.76471 3.35294 4.76471 6.29412V8.64706C3.76471 8.64706 3 9.41177 3 10.4118V18.0588C3 19.0588 3.76471 19.8235 4.76471 19.8235H15.3529C16.3529 19.8235 17.1176 19.0588 17.1176 18.0588V10.4118C17.1176 9.41177 16.3529 8.64706 15.3529 8.64706V6.29412C15.3529 3.35294 13 1 10.0588 1ZM15.9412 10.4118V18.0588C15.9412 18.4118 15.7059 18.6471 15.3529 18.6471H4.76471C4.41176 18.6471 4.17647 18.4118 4.17647 18.0588V10.4118C4.17647 10.0588 4.41176 9.82353 4.76471 9.82353H15.3529C15.7059 9.82353 15.9412 10.0588 15.9412 10.4118ZM5.94118 8.64706V6.29412C5.94118 4 7.76471 2.17647 10.0588 2.17647C12.3529 2.17647 14.1765 4 14.1765 6.29412V8.64706H5.94118Z" fill="#172638"/>
<path d="M10.0587 11.5883C9.05865 11.5883 8.29395 12.353 8.29395 13.353C8.29395 14.1177 8.76453 14.7647 9.47042 15V16.2941C9.47042 16.6471 9.70571 16.8824 10.0587 16.8824C10.4116 16.8824 10.6469 16.6471 10.6469 16.2941V15C11.3528 14.7647 11.8234 14.1177 11.8234 13.353C11.8234 12.353 11.0587 11.5883 10.0587 11.5883ZM10.0587 13.9412C9.70571 13.9412 9.47042 13.7059 9.47042 13.353C9.47042 13 9.70571 12.7647 10.0587 12.7647C10.4116 12.7647 10.6469 13 10.6469 13.353C10.6469 13.7059 10.4116 13.9412 10.0587 13.9412Z" fill="#172638"/>
</svg>
