<svg width="14" height="14" viewBox="0 0 14 14" fill="none" xmlns="http://www.w3.org/2000/svg">
<path d="M11.1873 1.7343C10.069 0.615918 8.58201 0 7.00039 0C5.41877 0 3.93177 0.615918 2.81341 1.7343C1.69502 2.85272 1.0791 4.33967 1.0791 5.92126C1.0791 9.12081 4.10436 11.782 5.72964 13.2117C5.9555 13.4104 6.15055 13.582 6.30594 13.7271C6.50063 13.909 6.75052 13.9999 7.00036 13.9999C7.25026 13.9999 7.5001 13.909 7.69481 13.7271C7.85021 13.582 8.04525 13.4104 8.27111 13.2117C9.89639 11.782 12.9217 9.12081 12.9217 5.92126C12.9216 4.33967 12.3057 2.85272 11.1873 1.7343ZM7.72943 12.596C7.49862 12.799 7.29931 12.9744 7.13498 13.1279C7.05948 13.1983 6.94125 13.1984 6.86572 13.1279C6.70141 12.9743 6.50208 12.799 6.27127 12.596C4.7433 11.2519 1.89914 8.74997 1.89914 5.92129C1.89914 3.10849 4.18751 0.820121 7.00034 0.820121C9.81313 0.820121 12.1015 3.10849 12.1015 5.92129C12.1015 8.74997 9.2574 11.2519 7.72943 12.596Z" fill="#FF9B17"/>
<path d="M7.00007 3.08813C5.56121 3.08813 4.39062 4.25869 4.39062 5.69755C4.39062 7.1364 5.56121 8.30696 7.00007 8.30696C8.43892 8.30696 9.60948 7.1364 9.60948 5.69755C9.60948 4.25869 8.43892 3.08813 7.00007 3.08813ZM7.00007 7.48684C6.01342 7.48684 5.21072 6.68414 5.21072 5.69752C5.21072 4.7109 6.01342 3.9082 7.00007 3.9082C7.98671 3.9082 8.78939 4.7109 8.78939 5.69752C8.78939 6.68414 7.98671 7.48684 7.00007 7.48684Z" fill="#FF9B17"/>
</svg>
