<svg width="24" height="24" viewBox="0 0 24 24" fill="none" xmlns="http://www.w3.org/2000/svg">
<g clip-path="url(#clip0_1_4500)">
<mask id="mask0_1_4500" style="mask-type:luminance" maskUnits="userSpaceOnUse" x="0" y="0" width="24" height="24">
<path d="M23.4999 23.5V0.500071H0.5V23.5H23.4999Z" fill="white" stroke="white"/>
</mask>
<g mask="url(#mask0_1_4500)">
<path d="M15.2318 7.56191C15.2318 9.34644 13.7852 10.7931 12.0007 10.7931C10.2161 10.7931 8.76953 9.34644 8.76953 7.56191C8.76953 5.77739 10.2161 4.33074 12.0007 4.33074C13.7852 4.33074 15.2318 5.77739 15.2318 7.56191Z" stroke="#FF9B17" stroke-miterlimit="10" stroke-linecap="round" stroke-linejoin="round"/>
<path d="M17.4297 3.36731C16.1383 1.69857 14.1105 0.701539 12.0002 0.701539C9.88985 0.701539 7.86204 1.69857 6.57064 3.36731C5.11423 5.24981 4.85361 7.51808 5.61908 9.73479C6.35501 11.8657 7.91782 13.6428 9.19563 15.4742C10.1097 16.7843 11.0237 18.0945 11.9378 19.4051L12.0002 19.4941L12.0625 19.4051C12.9766 18.0945 13.8906 16.7843 14.8047 15.4742C16.0825 13.6428 17.6453 11.8657 18.3812 9.73479C19.1467 7.51808 18.8861 5.24981 17.4297 3.36731Z" stroke="#FF9B17" stroke-miterlimit="10" stroke-linecap="round" stroke-linejoin="round"/>
<path d="M7.69843 18.056L5.69922 19.3188L11.9992 23.2985L18.2992 19.3188L16.3 18.056" stroke="#FF9B17" stroke-miterlimit="10" stroke-linecap="round" stroke-linejoin="round"/>
</g>
</g>
<defs>
<clipPath id="clip0_1_4500">
<rect width="24" height="24" fill="white"/>
</clipPath>
</defs>
</svg>
