<svg width="20" height="20" viewBox="0 0 20 20" fill="none" xmlns="http://www.w3.org/2000/svg">
<g clip-path="url(#clip0_1_4773)">
<path d="M12.483 10.1684L13.6189 9.03248C13.7015 9.3417 13.75 9.66498 13.75 9.99998C13.75 12.0678 12.0678 13.75 9.99998 13.75C9.66498 13.75 9.3417 13.7015 9.03248 13.6189L10.1684 12.4829C10.7688 12.4422 11.3341 12.1852 11.7597 11.7597C12.1852 11.3341 12.4422 10.7688 12.483 10.1684ZM19.9212 9.69638C19.8444 9.5581 18.754 7.64763 16.6228 6.02857L15.7133 6.9381C17.2673 8.08076 18.252 9.41341 18.6397 10.0009C17.8989 11.1289 14.993 15 9.99998 15C9.25123 15 8.55498 14.9042 7.89983 14.7514L6.87279 15.7784C7.81701 16.0679 8.85483 16.25 9.99998 16.25C16.5426 16.25 19.7864 10.5462 19.9212 10.3036C19.9729 10.2107 20 10.1062 20 9.99998C20 9.89373 19.9729 9.78924 19.9212 9.69638ZM17.3169 3.56685L3.56686 17.3169C3.44483 17.4389 3.28483 17.5 3.12498 17.5C2.96514 17.5 2.80514 17.4389 2.68311 17.3169C2.62504 17.2589 2.57897 17.19 2.54753 17.1141C2.5161 17.0383 2.49992 16.9571 2.49992 16.875C2.49992 16.7929 2.5161 16.7116 2.54753 16.6358C2.57897 16.56 2.62504 16.4911 2.68311 16.4331L4.43248 14.6837C1.60436 12.9764 0.167326 10.4631 0.0787323 10.3036C0.0270977 10.2107 0 10.1062 0 9.9999C0 9.89363 0.0270977 9.78911 0.0787323 9.69623C0.213576 9.45373 3.45733 3.74998 9.99998 3.74998C11.6917 3.74998 13.157 4.13592 14.4097 4.70654L16.4331 2.6831C16.6773 2.43888 17.0728 2.43888 17.3169 2.6831C17.5609 2.92732 17.5611 3.32279 17.3169 3.56685ZM5.36451 13.7517L6.94686 12.1694C6.50983 11.5562 6.24998 10.8086 6.24998 9.99998C6.24998 7.93217 7.93217 6.24998 9.99998 6.24998C10.8086 6.24998 11.5562 6.50982 12.1694 6.9467L13.4489 5.66717C12.438 5.26232 11.2892 4.99998 9.99998 4.99998C5.00701 4.99998 2.10108 8.87107 1.36045 9.99904C1.83076 10.7119 3.18264 12.5162 5.36451 13.7517ZM7.8542 11.2619L11.2619 7.8542C10.8901 7.63467 10.4622 7.49998 9.99998 7.49998C8.62154 7.49998 7.49998 8.62154 7.49998 9.99998C7.49998 10.4622 7.63467 10.8901 7.8542 11.2619Z" fill="#172638"/>
</g>
<defs>
<clipPath id="clip0_1_4773">
<rect width="20" height="20" fill="white"/>
</clipPath>
</defs>
</svg>
