<svg width="126" height="126" viewBox="0 0 126 126" fill="none" xmlns="http://www.w3.org/2000/svg">
<g clip-path="url(#clip0_1_3786)">
<path d="M58.4628 74.6072C58.3339 78.335 55.4135 81.3566 51.6642 81.6329C48.1729 81.8879 44.6476 82.0198 41.19 82.0198C37.7324 82.0198 34.2103 81.8879 30.7187 81.6329C26.9692 81.3566 24.0459 78.335 23.9201 74.6072C23.3617 58.2357 23.3608 41.8499 23.9172 25.4783C24.0461 21.7473 26.9665 18.7289 30.7158 18.4526C34.2071 18.1976 37.7324 18.0657 41.19 18.0657C44.6476 18.0657 48.1729 18.1976 51.6674 18.4526C55.4137 18.7289 58.3371 21.7475 58.466 25.4783C58.549 27.8858 58.6164 30.2963 58.6747 32.713H72.7235C72.6652 30.1403 72.5916 27.568 72.5025 24.9962C72.1309 14.0827 63.6158 5.2452 52.6961 4.44367C48.8672 4.16201 45.0293 4.02066 41.19 4.0199C37.3915 4.0199 33.5193 4.16116 29.6871 4.44367C18.7677 5.2452 10.2523 14.0827 9.87777 24.9962C9.30929 41.688 9.31028 58.3944 9.88072 75.0861C10.2523 86.0026 18.7674 94.8371 29.6871 95.6416C33.5149 95.9232 37.3518 96.0646 41.19 96.0654C44.9917 96.0654 48.8607 95.9241 52.6961 95.6416C63.6126 94.8371 72.1277 86.0026 72.5025 75.0861C72.5485 73.7134 72.5916 72.3377 72.6314 70.9591H58.5765C58.5428 72.1783 58.5059 73.3942 58.4628 74.6072Z" fill="#665E66"/>
<path d="M51.6681 18.4525C49.3619 18.2837 47.0405 18.1762 44.7344 18.1178C45.9154 18.0852 47.0967 18.0678 48.2781 18.0657C51.7357 18.0657 55.261 18.1976 58.7524 18.4525C62.5019 18.7289 65.422 21.7475 65.551 25.4783C65.6339 27.8858 65.7013 30.2963 65.7596 32.7129H58.6753C58.617 30.2963 58.5493 27.8858 58.4667 25.4783C58.3377 21.7475 55.4173 18.7289 51.6681 18.4525Z" fill="#544F57"/>
<path d="M36.7725 95.6413C25.8546 94.8378 17.3395 86.0016 16.9662 75.0873C16.3969 58.3956 16.3963 41.6892 16.9642 24.9974C17.338 14.0824 25.8534 5.24643 36.772 4.44417C39.4227 4.25108 42.0777 4.12471 44.7347 4.06518C43.5541 4.03654 42.3733 4.02136 41.1924 4.01965C37.3924 4.01965 33.5216 4.16239 29.6875 4.44417C18.7691 5.24668 10.2535 14.0824 9.87966 24.9974C9.31159 41.6892 9.31225 58.3956 9.88163 75.0873C10.2552 86.0016 18.77 94.8378 29.688 95.6413C33.5162 95.9232 37.3535 96.0649 41.1921 96.0663C42.367 96.0663 43.5495 96.0479 44.7344 96.0206C42.0777 95.9609 39.4229 95.8345 36.7725 95.6413Z" fill="#544F57"/>
<path d="M41.1911 112.961C31.8944 112.961 22.5192 112.691 13.1595 112.156C6.43277 111.771 1.05414 106.419 0.628647 99.6952C-0.208562 86.4776 -0.209549 73.2204 0.625694 60.0027C1.05119 53.2787 6.43006 47.9272 13.1563 47.543C22.5076 47.009 31.8949 46.7393 41.1911 46.7393C50.4872 46.7393 59.8747 47.009 69.2258 47.543C75.9523 47.9272 81.3309 53.279 81.7564 60.0027C82.5917 73.2204 82.5907 86.4776 81.7535 99.6952C81.3277 106.419 75.9493 111.771 69.2226 112.156C59.8883 112.69 50.5407 112.959 41.1911 112.961Z" fill="#F4DD45"/>
<path d="M16.3475 112.325C15.2834 112.275 14.2193 112.216 13.1588 112.156C6.43385 111.773 1.05374 106.421 0.628739 99.696C-0.208346 86.478 -0.209579 73.2203 0.625048 60.0021C1.05005 53.2805 6.43015 47.9285 13.1552 47.5421C14.2193 47.4823 15.2797 47.4228 16.3438 47.3735C12.393 49.6912 9.66776 53.867 9.36236 58.7167C8.47154 72.7909 8.47269 86.9073 9.36581 100.981C9.67146 105.831 12.3967 110.007 16.3475 112.325Z" fill="#ECC32E"/>
<path d="M115.055 119.416C90.3066 120.342 65.5327 120.342 40.7847 119.416C36.6659 119.262 33.2508 116.209 32.58 112.142C31.4187 105.102 31.4187 98.0626 32.58 91.0228C33.2508 86.9561 36.6659 83.9029 40.7847 83.7488C65.5327 82.823 90.3066 82.823 115.055 83.7488C119.173 83.9029 122.589 86.9561 123.259 91.0228C124.421 98.0626 124.421 105.103 123.259 112.142C122.589 116.209 119.173 119.262 115.055 119.416Z" fill="#F9F6F9"/>
<path d="M77.9199 121.98C65.515 121.981 53.1112 121.75 40.7149 121.288C35.7448 121.102 31.5462 117.384 30.7319 112.447C29.5425 105.253 29.5425 97.912 30.7319 90.7177C31.5462 85.7806 35.7448 82.0623 40.7149 81.8765C65.5096 80.9534 90.3301 80.9534 115.125 81.8765C120.095 82.0623 124.294 85.7806 125.108 90.7177C126.297 97.912 126.297 105.253 125.108 112.447C124.294 117.384 120.095 121.102 115.125 121.288C102.729 121.75 90.3247 121.981 77.9199 121.98ZM77.9199 84.9308C65.5359 84.9308 53.1522 85.1607 40.8549 85.6204C37.657 85.74 34.9544 88.1401 34.4285 91.3275C33.3058 98.1181 33.3058 105.047 34.4285 111.837C34.9544 115.025 37.657 117.425 40.8552 117.545C65.5566 118.464 90.2836 118.464 114.985 117.545C118.183 117.425 120.886 115.025 121.412 111.837C122.534 105.047 122.534 98.1181 121.412 91.3275C120.886 88.1401 118.183 85.74 114.985 85.6204C102.635 85.1599 90.2781 84.9301 77.9199 84.9308Z" fill="#E2DFE2"/>
<path d="M55.5218 96.3789C55.3988 96.1659 55.2351 95.9791 55.0399 95.8294C54.8448 95.6796 54.622 95.5698 54.3844 95.5061C54.1468 95.4424 53.8989 95.4262 53.655 95.4583C53.4111 95.4904 53.1759 95.5703 52.9629 95.6933L48.3824 98.3379V93.0486C48.3824 92.5517 48.185 92.0753 47.8337 91.724C47.4824 91.3727 47.0059 91.1753 46.5091 91.1753C46.0123 91.1753 45.5358 91.3727 45.1845 91.724C44.8332 92.0753 44.6358 92.5517 44.6358 93.0486V98.3379L40.0551 95.6931C39.842 95.5701 39.6068 95.4902 39.3629 95.4581C39.1191 95.4259 38.8712 95.4422 38.6336 95.5058C38.396 95.5695 38.1732 95.6794 37.9781 95.8291C37.7829 95.9789 37.6192 96.1656 37.4962 96.3787C37.3731 96.5917 37.2933 96.8269 37.2612 97.0708C37.229 97.3147 37.2453 97.5625 37.3089 97.8002C37.3726 98.0378 37.4825 98.2605 37.6322 98.4557C37.782 98.6509 37.9687 98.8146 38.1818 98.9376L42.7626 101.582L38.1818 104.227C37.9687 104.35 37.782 104.514 37.6323 104.709C37.4825 104.904 37.3727 105.127 37.309 105.365C37.2454 105.602 37.2291 105.85 37.2612 106.094C37.2933 106.338 37.3732 106.573 37.4962 106.786C37.6192 106.999 37.7829 107.186 37.9781 107.336C38.1733 107.485 38.396 107.595 38.6336 107.659C38.8712 107.722 39.1191 107.739 39.3629 107.707C39.6068 107.674 39.842 107.595 40.0551 107.472L44.6358 104.827V110.116C44.6358 110.613 44.8332 111.089 45.1845 111.441C45.5358 111.792 46.0123 111.989 46.5091 111.989C47.0059 111.989 47.4824 111.792 47.8337 111.441C48.185 111.089 48.3824 110.613 48.3824 110.116V104.827L52.9629 107.471C53.1759 107.594 53.4111 107.674 53.655 107.706C53.8989 107.739 54.1468 107.722 54.3844 107.659C54.622 107.595 54.8448 107.485 55.0399 107.335C55.2351 107.186 55.3988 106.999 55.5218 106.786C55.6448 106.573 55.7247 106.338 55.7568 106.094C55.7889 105.85 55.7727 105.602 55.709 105.364C55.6454 105.127 55.5355 104.904 55.3857 104.709C55.236 104.514 55.0492 104.35 54.8362 104.227L50.2554 101.582L54.8362 98.9373C55.0492 98.8144 55.236 98.6507 55.3857 98.4556C55.5355 98.2605 55.6453 98.0378 55.709 97.8002C55.7727 97.5626 55.7889 97.3148 55.7568 97.0709C55.7247 96.8271 55.6448 96.5919 55.5218 96.3789ZM76.1349 96.3789C75.8864 95.9487 75.4773 95.6348 74.9974 95.5062C74.5175 95.3776 74.0062 95.4449 73.576 95.6933L68.9952 98.3381V93.0488C68.9952 92.8028 68.9467 92.5592 68.8526 92.3319C68.7585 92.1047 68.6205 91.8981 68.4465 91.7242C68.2726 91.5503 68.0661 91.4123 67.8388 91.3181C67.6115 91.224 67.3679 91.1755 67.1219 91.1755C66.8759 91.1755 66.6323 91.224 66.4051 91.3181C66.1778 91.4123 65.9713 91.5503 65.7973 91.7242C65.6234 91.8981 65.4854 92.1047 65.3912 92.3319C65.2971 92.5592 65.2487 92.8028 65.2487 93.0488V98.3381L60.6679 95.6933C60.4548 95.5703 60.2197 95.4904 59.9758 95.4583C59.7319 95.4262 59.484 95.4424 59.2464 95.5061C59.0088 95.5698 58.786 95.6796 58.5909 95.8294C58.3957 95.9791 58.232 96.1659 58.109 96.3789C57.986 96.592 57.9061 96.8272 57.874 97.071C57.8418 97.3149 57.8581 97.5628 57.9217 97.8004C57.9854 98.038 58.0953 98.2608 58.245 98.4559C58.3948 98.6511 58.5815 98.8148 58.7946 98.9378L63.3754 101.583L58.7946 104.227C58.5816 104.35 58.3948 104.514 58.2451 104.709C58.0953 104.904 57.9855 105.127 57.9218 105.365C57.8582 105.602 57.8419 105.85 57.874 106.094C57.9061 106.338 57.986 106.573 58.109 106.786C58.232 106.999 58.3957 107.186 58.5909 107.336C58.7861 107.486 59.0088 107.595 59.2464 107.659C59.484 107.723 59.7319 107.739 59.9758 107.707C60.2197 107.675 60.4548 107.595 60.6679 107.472L65.2487 104.827V110.116C65.2487 110.613 65.446 111.09 65.7973 111.441C66.1486 111.792 66.6251 111.99 67.1219 111.99C67.6187 111.99 68.0952 111.792 68.4465 111.441C68.7978 111.09 68.9952 110.613 68.9952 110.116V104.827L73.576 107.472C73.789 107.595 74.0242 107.675 74.2681 107.707C74.512 107.739 74.7598 107.723 74.9974 107.659C75.2351 107.595 75.4578 107.486 75.653 107.336C75.8481 107.186 76.0119 106.999 76.1349 106.786C76.2579 106.573 76.3377 106.338 76.3699 106.094C76.402 105.85 76.3858 105.602 76.3221 105.365C76.2584 105.127 76.1486 104.904 75.9988 104.709C75.849 104.514 75.6623 104.35 75.4492 104.227L70.8685 101.583L75.4492 98.9378C75.8795 98.6894 76.1934 98.2803 76.322 97.8004C76.4506 97.3205 76.3833 96.8092 76.1349 96.3789ZM96.7477 96.3789C96.4993 95.9487 96.0901 95.6348 95.6102 95.5062C95.1303 95.3776 94.619 95.4449 94.1888 95.6933L89.608 98.3381V93.0488C89.608 92.8028 89.5596 92.5592 89.4654 92.3319C89.3713 92.1047 89.2333 91.8981 89.0593 91.7242C88.8854 91.5503 88.6789 91.4123 88.4516 91.3181C88.2243 91.224 87.9807 91.1755 87.7347 91.1755C87.4887 91.1755 87.2451 91.224 87.0179 91.3181C86.7906 91.4123 86.5841 91.5503 86.4101 91.7242C86.2362 91.8981 86.0982 92.1047 86.0041 92.3319C85.9099 92.5592 85.8615 92.8028 85.8615 93.0488V98.3381L81.2807 95.6933C81.0677 95.5703 80.8325 95.4904 80.5886 95.4583C80.3447 95.4262 80.0968 95.4424 79.8592 95.5061C79.6216 95.5698 79.3988 95.6796 79.2037 95.8294C79.0085 95.9791 78.8448 96.1659 78.7218 96.3789C78.5988 96.592 78.5189 96.8272 78.4868 97.071C78.4547 97.3149 78.4709 97.5628 78.5346 97.8004C78.5982 98.038 78.7081 98.2608 78.8579 98.4559C79.0076 98.6511 79.1944 98.8148 79.4074 98.9378L83.9882 101.583L79.4074 104.227C78.9772 104.476 78.6632 104.885 78.5346 105.365C78.4061 105.845 78.4734 106.356 78.7218 106.786C78.9702 107.216 79.3794 107.53 79.8592 107.659C80.3391 107.788 80.8504 107.72 81.2807 107.472L85.8615 104.827V110.116C85.8615 110.362 85.9099 110.606 86.0041 110.833C86.0982 111.061 86.2362 111.267 86.4101 111.441C86.5841 111.615 86.7906 111.753 87.0179 111.847C87.2451 111.941 87.4887 111.99 87.7347 111.99C87.9807 111.99 88.2243 111.941 88.4516 111.847C88.6789 111.753 88.8854 111.615 89.0593 111.441C89.2333 111.267 89.3713 111.061 89.4654 110.833C89.5596 110.606 89.608 110.362 89.608 110.116V104.827L94.1888 107.472C94.4018 107.595 94.637 107.675 94.8809 107.707C95.1248 107.739 95.3726 107.723 95.6103 107.659C95.8479 107.595 96.0706 107.486 96.2658 107.336C96.4609 107.186 96.6247 106.999 96.7477 106.786C96.8707 106.573 96.9506 106.338 96.9827 106.094C97.0148 105.85 96.9986 105.602 96.9349 105.365C96.8713 105.127 96.7614 104.904 96.6116 104.709C96.4619 104.514 96.2751 104.35 96.0621 104.227L91.4813 101.583L96.0621 98.9378C96.2751 98.8149 96.4619 98.6511 96.6117 98.456C96.7615 98.2608 96.8713 98.0381 96.935 97.8004C96.9987 97.5628 97.0149 97.315 96.9828 97.071C96.9506 96.8271 96.8707 96.592 96.7477 96.3789ZM116.675 104.227L112.094 101.582L116.675 98.9376C117.571 98.4203 117.878 97.2747 117.361 96.3787C116.843 95.4827 115.698 95.1758 114.802 95.6931L110.221 98.3376V93.0483C110.221 92.8023 110.173 92.5587 110.079 92.3314C109.985 92.1042 109.847 91.8977 109.673 91.7237C109.499 91.5498 109.292 91.4118 109.065 91.3176C108.838 91.2235 108.594 91.175 108.348 91.175C108.102 91.175 107.858 91.2235 107.631 91.3176C107.404 91.4118 107.197 91.5498 107.023 91.7237C106.849 91.8977 106.712 92.1042 106.617 92.3314C106.523 92.5587 106.475 92.8023 106.475 93.0483V98.3376L101.894 95.6928C101.681 95.5679 101.445 95.4864 101.2 95.453C100.956 95.4195 100.707 95.4348 100.468 95.498C100.229 95.5612 100.005 95.6709 99.8089 95.821C99.6127 95.971 99.4481 96.1584 99.3245 96.3724C99.201 96.5863 99.121 96.8225 99.0892 97.0675C99.0573 97.3125 99.0743 97.5613 99.139 97.7997C99.2037 98.0381 99.3149 98.2613 99.4662 98.4566C99.6175 98.6518 99.806 98.8152 100.021 98.9373L104.602 101.582L100.021 104.227C99.8077 104.35 99.621 104.514 99.4712 104.709C99.3215 104.904 99.2116 105.127 99.1479 105.364C99.0843 105.602 99.0681 105.85 99.1002 106.094C99.1323 106.338 99.2121 106.573 99.3351 106.786C99.4581 106.999 99.6219 107.186 99.817 107.335C100.012 107.485 100.235 107.595 100.473 107.659C100.71 107.722 100.958 107.738 101.202 107.706C101.446 107.674 101.681 107.594 101.894 107.471L106.475 104.827V110.116C106.475 110.362 106.523 110.605 106.617 110.833C106.712 111.06 106.849 111.267 107.023 111.44C107.197 111.614 107.404 111.752 107.631 111.847C107.858 111.941 108.102 111.989 108.348 111.989C108.594 111.989 108.838 111.941 109.065 111.847C109.292 111.752 109.499 111.614 109.673 111.44C109.847 111.267 109.985 111.06 110.079 110.833C110.173 110.605 110.221 110.362 110.221 110.116V104.827L114.802 107.471C115.015 107.594 115.25 107.674 115.494 107.706C115.738 107.738 115.986 107.722 116.223 107.658C116.461 107.595 116.684 107.485 116.879 107.335C117.074 107.185 117.238 106.999 117.361 106.786C117.484 106.573 117.564 106.337 117.596 106.094C117.628 105.85 117.612 105.602 117.548 105.364C117.484 105.127 117.374 104.904 117.225 104.709C117.075 104.514 116.888 104.35 116.675 104.227Z" fill="#665E66"/>
<path d="M79.3723 36.5986C79.0565 36.5984 78.7458 36.5184 78.4692 36.366C78.1926 36.2135 77.959 35.9937 77.7902 35.7268C77.6213 35.4599 77.5227 35.1546 77.5035 34.8394C77.4842 34.5242 77.545 34.2092 77.6801 33.9238L81.2933 26.2848C81.5057 25.8357 81.8879 25.4893 82.3557 25.322C82.8235 25.1546 83.3386 25.18 83.7877 25.3924C84.2368 25.6049 84.5831 25.987 84.7505 26.4548C84.9178 26.9226 84.8925 27.4377 84.68 27.8868L81.0669 35.5258C80.9151 35.8469 80.6753 36.1182 80.3752 36.3081C80.0752 36.498 79.7274 36.5987 79.3723 36.5986ZM90.6567 50.4005C90.3801 50.4005 90.1069 50.3389 89.8571 50.2201L82.2181 46.6069C81.9957 46.5018 81.7962 46.3539 81.631 46.1716C81.4658 45.9894 81.3381 45.7763 81.2552 45.5447C81.1724 45.3131 81.136 45.0674 81.1481 44.8217C81.1602 44.576 81.2205 44.3351 81.3258 44.1128C81.4309 43.8903 81.5788 43.6908 81.761 43.5256C81.9433 43.3603 82.1563 43.2326 82.3879 43.1497C82.6196 43.0669 82.8653 43.0304 83.111 43.0426C83.3567 43.0547 83.5976 43.1152 83.8199 43.2204L91.4589 46.8336C91.8433 47.0158 92.1543 47.3235 92.3407 47.7059C92.527 48.0884 92.5777 48.5228 92.4843 48.9379C92.391 49.353 92.1592 49.7239 91.827 49.9897C91.4948 50.2555 91.0821 50.4004 90.6567 50.4005ZM83.3066 40.9379C82.8656 40.9372 82.439 40.781 82.1018 40.4969C81.7647 40.2127 81.5385 39.8187 81.4631 39.3842C81.3878 38.9497 81.468 38.5026 81.6898 38.1215C81.9116 37.7403 82.2606 37.4496 82.6756 37.3004L90.632 34.4536C91.6058 34.1044 92.6783 34.6123 93.0268 35.5864C93.3753 36.5604 92.8683 37.6324 91.894 37.9811L83.9376 40.8279C83.7351 40.9006 83.5217 40.9378 83.3066 40.9379Z" fill="#DD636E"/>
</g>
<defs>
<clipPath id="clip0_1_3786">
<rect width="126" height="126" fill="white"/>
</clipPath>
</defs>
</svg>
