<svg width="428" height="428" viewBox="0 0 428 428" fill="none" xmlns="http://www.w3.org/2000/svg">
<path d="M213.759 0.733803C208.106 0.797879 202.709 3.10794 198.749 7.15808C194.79 11.2082 192.591 16.6683 192.634 22.3426V193.842C192.634 199.531 194.885 204.986 198.892 209.008C202.899 213.03 208.334 215.29 214.001 215.29C219.668 215.29 225.102 213.03 229.109 209.008C233.116 204.986 235.368 199.531 235.368 193.842V22.3426C235.389 19.492 234.844 16.6657 233.765 14.0289C232.686 11.3921 231.093 8.99769 229.081 6.98574C227.07 4.97378 224.678 3.38462 222.047 2.31115C219.416 1.23768 216.599 0.701449 213.759 0.733803ZM338.251 43.6289C337.553 43.5945 336.853 43.5945 336.155 43.6289C331.924 43.9822 327.893 45.593 324.577 48.2556C321.262 50.9183 318.812 54.5121 317.54 58.5784C316.268 62.6448 316.232 66.9993 317.437 71.0863C318.641 75.1733 321.031 78.8075 324.302 81.525C361.312 113.051 384.694 159.978 384.694 212.629C384.694 307.773 308.58 384.452 214.081 384.452C191.6 384.409 169.347 379.933 148.598 371.278C127.849 362.624 109.011 349.961 93.1631 334.015C77.3149 318.07 64.7679 299.155 56.2405 278.353C47.7131 257.551 43.3729 235.272 43.4684 212.791C43.4684 160.381 66.5285 113.777 103.135 82.17C105.412 80.3885 107.306 78.1622 108.702 75.6255C110.098 73.0889 110.968 70.2945 111.258 67.4111C111.549 64.5277 111.254 61.6152 110.392 58.8493C109.53 56.0834 108.118 53.5216 106.242 51.3186C104.366 49.1155 102.065 47.3169 99.4776 46.0314C96.89 44.7459 94.0697 44.0001 91.187 43.8391C88.3043 43.678 85.4189 44.1051 82.7052 45.0945C79.9915 46.0839 77.5056 47.615 75.3978 49.5955C51.9543 69.7976 33.1473 94.8217 20.2617 122.959C7.37609 151.095 0.715356 181.682 0.734515 212.629C0.669841 269.372 23.0941 323.829 63.0965 364.073C103.099 404.317 157.419 427.069 214.162 427.347C270.896 427.091 325.212 404.34 365.194 364.087C405.175 323.833 427.557 269.364 427.428 212.629C427.428 147.158 398.159 88.2979 351.958 48.9505C348.16 45.6056 343.304 43.7201 338.251 43.6289Z" fill="#172638"/>
</svg>
