<svg width="170" height="35" viewBox="0 0 170 35" fill="none" xmlns="http://www.w3.org/2000/svg">
<path d="M53.1738 30.1991V18.0934H48.8132V17.0521C48.8132 16.629 48.9759 16.271 49.2688 15.9782C49.5616 15.6853 49.9196 15.5226 50.3426 15.5226H60.5283V18.126H56.2002V30.2316H53.1738V30.1991Z" fill="#FF9B17"/>
<path d="M59.8449 30.1991V24.6995C59.8449 23.5931 60.0077 22.6493 60.3331 21.9009C60.6585 21.1524 61.1141 20.5341 61.6673 20.0785C62.2205 19.6555 62.8388 19.3301 63.5547 19.1348C64.2707 18.9395 65.0191 18.8419 65.8001 18.8419C65.8652 18.8419 65.9303 18.8419 66.0279 18.8419C66.1256 18.8419 66.1907 18.8419 66.2557 18.8419V21.8683H65.2795C64.4659 21.8683 63.8476 22.0636 63.4571 22.4541C63.0666 22.8446 62.8714 23.4954 62.8714 24.3415V30.1991H59.8449Z" fill="#FF9B17"/>
<path d="M77.4177 18.8419V25.513C77.4177 27.5306 76.897 28.8648 75.8232 29.4831C74.7818 30.1014 73.6103 30.4269 72.3737 30.4269C71.1371 30.3618 70.0306 30.0364 69.0218 29.3855C68.013 28.7672 67.4924 27.4655 67.4924 25.4805V18.8093H70.4862V26.0662C70.4862 26.7496 70.6815 27.2377 71.072 27.5632C71.4625 27.8886 71.9181 28.0187 72.4388 28.0187C72.9594 28.0187 73.415 27.856 73.8381 27.5632C74.2611 27.2377 74.4564 26.7496 74.4564 26.0662V20.3063C74.4564 19.9158 74.5866 19.5578 74.8469 19.2649C75.1072 18.972 75.4652 18.8419 75.8882 18.8419H77.4177Z" fill="#FF9B17"/>
<path d="M78.6217 26.4567H81.518C81.5505 27.0425 81.7458 27.4655 82.1688 27.7259C82.5919 28.0188 83.1776 28.1489 83.8936 28.1489C84.4142 28.1489 84.8373 28.0513 85.2278 27.856C85.5858 27.6608 85.7485 27.4005 85.7485 27.0425C85.7485 26.5218 85.1627 26.1313 83.9586 25.9035C83.438 25.8059 83.0475 25.7408 82.8197 25.6432C81.3227 25.2852 80.3139 24.8296 79.7933 24.309C79.2075 23.7883 78.9472 23.1049 78.9472 22.2588C78.9472 21.1849 79.3702 20.2737 80.1838 19.5578C81.0299 18.907 82.1363 18.5815 83.5031 18.5815C85 18.5815 86.1715 18.907 87.0501 19.5578C87.8637 20.2737 88.3193 21.1849 88.3844 22.3239H86.4969C85.9437 22.3239 85.5532 22.0961 85.2603 21.608C85.1302 21.5103 85.0325 21.3802 84.9024 21.25C84.5444 20.9897 84.0888 20.8595 83.5031 20.8595C82.9173 20.8595 82.4942 20.9571 82.2339 21.1198C81.9736 21.2825 81.8434 21.5429 81.8434 21.9008C81.8434 22.3564 82.5919 22.7469 84.0563 23.0398C84.219 23.1049 84.3817 23.1374 84.5119 23.17C84.642 23.2025 84.7722 23.2025 84.8698 23.2025C86.3342 23.5605 87.343 24.0161 87.8962 24.4717C88.4495 24.9923 88.7098 25.6757 88.7098 26.5218C88.7098 27.791 88.2542 28.7347 87.343 29.4181C86.4969 30.0364 85.1952 30.3618 83.5031 30.3618C81.8759 30.3618 80.6719 30.0364 79.8583 29.3855C79.0448 28.7347 78.6217 27.791 78.6217 26.5218V26.4567Z" fill="#FF9B17"/>
<path d="M94.6975 30.1991C93.7538 30.2642 92.745 30.2316 91.6386 30.1665C90.5322 30.0689 89.9789 29.3855 89.9789 28.0838V15.5226H91.5084C91.8664 15.5226 92.1918 15.6527 92.4847 15.9456C92.7776 16.2385 92.9077 16.5639 92.9077 16.987V18.907H94.665V19.4927C94.665 19.9158 94.5348 20.2737 94.242 20.5341C93.9491 20.7944 93.6237 20.9246 93.2006 20.9246H92.9077V27.2377C92.9077 27.7259 93.2006 27.9537 93.7538 27.9537H94.665V30.1991H94.6975Z" fill="#FF9B17"/>
<path d="M97.4636 34.2343V31.8912H98.2772C98.8629 31.8912 99.286 31.7611 99.6114 31.5007C99.9368 31.2404 100.002 30.7848 99.8066 30.199L95.8365 18.8744H99.1233L101.434 26.9123L103.451 19.9157C103.614 19.2324 104.07 18.8744 104.818 18.8744H106.868L102.508 31.8261C102.15 32.7699 101.727 33.4207 101.238 33.8438C100.718 34.2017 99.8717 34.3644 98.7328 34.3644C98.6351 34.3644 98.5375 34.3644 98.4399 34.3644C98.3097 34.3644 98.2121 34.3644 98.147 34.3644C98.0494 34.3319 97.9517 34.2994 97.8216 34.2994C97.6589 34.2343 97.5287 34.2343 97.4636 34.2343Z" fill="#FF9B17"/>
<path d="M112.889 30.1991V18.0934H108.528V17.0521C108.528 16.629 108.691 16.271 108.984 15.9782C109.276 15.6853 109.634 15.5226 110.057 15.5226H120.243V18.126H115.915V30.2316H112.889V30.1991Z" fill="#345A84"/>
<path d="M128.118 26.7171H130.266C129.941 27.9211 129.355 28.8323 128.476 29.4506C127.598 30.1015 126.491 30.4269 125.157 30.4269C123.53 30.4269 122.261 29.9062 121.35 28.8323C120.438 27.791 119.983 26.3266 119.983 24.4391C119.983 22.6168 120.438 21.1849 121.317 20.1761C122.228 19.1348 123.497 18.5815 125.124 18.5815C126.849 18.5815 128.151 19.1022 129.095 20.111C130.006 21.1524 130.461 22.6168 130.461 24.5042C130.461 24.6344 130.461 24.732 130.461 24.7971C130.461 24.8947 130.461 24.9273 130.461 24.9598C130.461 25.09 130.461 25.1876 130.429 25.2527H123.042C123.074 26.1313 123.27 26.7822 123.693 27.2052C124.051 27.6608 124.604 27.8886 125.352 27.8886C125.84 27.8886 126.263 27.791 126.589 27.5957C126.686 27.5632 126.752 27.5306 126.817 27.433C126.882 27.3679 126.979 27.2703 127.044 27.2052C127.077 27.1076 127.175 27.01 127.37 26.8472C127.533 26.7822 127.793 26.7171 128.118 26.7171ZM123.009 23.3652H127.37C127.305 22.5842 127.109 22.031 126.784 21.6405C126.426 21.25 125.873 21.0547 125.189 21.0547C124.571 21.0547 124.051 21.25 123.66 21.6405C123.237 22.0635 123.042 22.6493 123.009 23.3652Z" fill="#345A84"/>
<path d="M141.688 30.1991H140.191C139.768 30.1991 139.41 30.0689 139.15 29.8086C138.89 29.5482 138.76 29.1903 138.76 28.7672V22.9422C138.76 22.2588 138.564 21.7707 138.141 21.4452C137.718 21.1198 137.263 20.9897 136.742 20.9897C136.221 20.9897 135.766 21.1524 135.375 21.4452C134.985 21.7707 134.789 22.2588 134.789 22.9422V30.1991H131.796V23.5605C131.796 21.608 132.316 20.3388 133.325 19.6554C134.334 19.0046 135.44 18.6466 136.677 18.5815C137.946 18.5815 139.085 18.907 140.126 19.5578C141.168 20.2086 141.721 21.5429 141.721 23.5279V30.1991H141.688Z" fill="#345A84"/>
<path d="M150.442 29.7434C149.856 30.0689 149.206 30.2641 148.555 30.3292C147.871 30.3943 147.286 30.4268 146.765 30.4268C145.724 30.4268 144.845 30.1339 144.064 29.5807C143.283 29.0275 142.925 28.1163 142.925 26.8146C142.925 25.6106 143.283 24.7645 143.966 24.2438C144.65 23.7231 145.561 23.3977 146.635 23.2025C146.765 23.2025 146.96 23.1699 147.155 23.1374C147.351 23.1048 147.578 23.0723 147.839 23.0398C149.108 22.8771 149.726 22.4865 149.726 21.9333C149.726 21.5103 149.498 21.2174 149.075 21.0872C148.62 20.9571 148.229 20.892 147.871 20.892C147.481 20.892 147.123 20.9571 146.797 21.0547C146.472 21.1849 146.244 21.3801 146.114 21.7055H143.25C143.348 20.8269 143.771 20.111 144.454 19.5252C145.235 18.8744 146.309 18.549 147.741 18.549C149.336 18.549 150.54 18.8093 151.321 19.3625C152.134 19.9483 152.557 20.7293 152.557 21.7706V25.6757C152.557 26.8146 152.362 27.6933 151.939 28.3441C151.484 28.995 150.995 29.4506 150.442 29.7434ZM149.759 24.4716C149.368 24.6669 148.815 24.8621 148.099 25.0248L147.123 25.2526C146.602 25.3828 146.244 25.578 146.016 25.8058C145.821 26.1313 145.724 26.4241 145.724 26.7496C145.724 27.1726 145.854 27.5306 146.114 27.7909C146.374 28.0187 146.732 28.1489 147.22 28.1489C148.002 28.1489 148.652 27.9211 149.108 27.4655C149.564 27.0099 149.791 26.3916 149.791 25.578V24.4716H149.759Z" fill="#345A84"/>
<path d="M163.85 30.1991H162.353C161.93 30.1991 161.572 30.0689 161.311 29.8086C161.051 29.5482 160.921 29.1903 160.921 28.7672V22.9422C160.921 22.2588 160.725 21.7707 160.302 21.4452C159.879 21.1198 159.424 20.9897 158.903 20.9897C158.382 20.9897 157.927 21.1524 157.536 21.4452C157.146 21.7707 156.951 22.2588 156.951 22.9422V30.1991H153.957V23.5605C153.957 21.608 154.477 20.3388 155.486 19.6554C156.495 19.0046 157.601 18.6466 158.838 18.5815C160.107 18.5815 161.246 18.907 162.288 19.5578C163.329 20.2086 163.882 21.5429 163.882 23.5279V30.1991H163.85Z" fill="#345A84"/>
<path d="M170 30.1991C169.056 30.2642 168.047 30.2316 166.941 30.1665C165.835 30.0689 165.281 29.3855 165.281 28.0838V15.5226H166.811C167.169 15.5226 167.494 15.6527 167.787 15.9456C168.08 16.2385 168.21 16.5639 168.21 16.987V18.907H169.967V19.4927C169.967 19.9158 169.837 20.2737 169.544 20.5341C169.252 20.7944 168.926 20.9246 168.503 20.9246H168.21V27.2377C168.21 27.7259 168.503 27.9537 169.056 27.9537H169.967V30.1991H170Z" fill="#345A84"/>
<path d="M19.5578 34.2017H4.94641V18.2886L8.26571 16.2059V30.8824H16.2385V26.7496H19.5578V34.2017Z" fill="#345A84"/>
<path d="M39.9943 34.2018H25.3829V26.7496H28.7022V30.8825H36.675V16.2385L39.9943 18.3212V34.2018Z" fill="#345A84"/>
<path d="M14.7416 18.3537L20.4039 14.351L18.3863 11.7477L11.4223 16.5965V24.2113H19.5253V20.892H14.7416V18.3537Z" fill="#345A84"/>
<path d="M25.4154 15.0345L30.1665 18.3537V20.892H25.3503V24.2113H33.4858V16.5965L27.5631 12.4636L25.4154 15.0345Z" fill="#345A84"/>
<path d="M19.1998 6.15046L22.5842 3.9376L25.7082 5.98775L28.5394 3.83997L22.5842 0L16.3361 4.03522L19.1998 6.15046Z" fill="#345A84"/>
<path d="M32.5747 6.47583L30.4269 9.04666L44.1597 17.9307L45.9495 15.132L32.5747 6.47583Z" fill="#345A84"/>
<path d="M13.7328 5.69482L0 14.5788L1.82236 17.3774L15.7829 8.36328L13.7328 5.69482Z" fill="#345A84"/>
<path d="M15.1646 5.36942L22.9096 9.89278L34.397 2.1803L22.9096 14.1233L15.1646 5.36942Z" fill="#FF9B17"/>
</svg>
