<svg width="20" height="20" viewBox="0 0 20 20" fill="none" xmlns="http://www.w3.org/2000/svg">
<path d="M10.2169 9.63408C11.5404 9.63408 12.6863 9.15936 13.6229 8.22276C14.5592 7.28635 15.034 6.14057 15.034 4.8169C15.034 3.49363 14.5594 2.34773 13.6228 1.41097C12.6862 0.474687 11.5402 0 10.2169 0C8.89315 0 7.74733 0.474687 6.81093 1.41113C5.87452 2.34757 5.39964 3.49351 5.39964 4.8169C5.39964 6.14057 5.87448 7.28651 6.81097 8.22295C7.74768 9.15924 8.89362 9.63408 10.2168 9.63408H10.2169ZM7.63979 2.23984C8.35831 1.52129 9.20124 1.17203 10.2169 1.17203C11.2323 1.17203 12.0754 1.52129 12.794 2.23984C13.5126 2.95851 13.862 3.80155 13.862 4.81687C13.862 5.83249 13.5126 6.67542 12.794 7.39409C12.0754 8.1128 11.2323 8.46205 10.2169 8.46205C9.20151 8.46205 8.35866 8.11264 7.63979 7.39409C6.92108 6.67557 6.57167 5.83253 6.57167 4.8169C6.57167 3.80155 6.92108 2.95851 7.63979 2.23984ZM18.6456 15.379C18.6186 14.9893 18.564 14.5641 18.4836 14.1153C18.4024 13.663 18.2979 13.2354 18.1727 12.8447C18.0434 12.4408 17.8677 12.0419 17.6503 11.6597C17.4249 11.2629 17.16 10.9175 16.8628 10.6332C16.552 10.3358 16.1714 10.0967 15.7313 9.92229C15.2928 9.74885 14.8068 9.66096 14.287 9.66096C14.0828 9.66096 13.8854 9.74471 13.504 9.99299C13.233 10.1695 12.9611 10.3448 12.6885 10.5188C12.4265 10.6857 12.0715 10.8421 11.6331 10.9837C11.2055 11.1221 10.7712 11.1923 10.3424 11.1923C9.91397 11.1923 9.47967 11.1221 9.05167 10.9837C8.61378 10.8422 8.2587 10.6859 7.99714 10.5189C7.69362 10.325 7.41901 10.148 7.18081 9.99279C6.7998 9.74455 6.60233 9.66076 6.39819 9.66076C5.87816 9.66076 5.39234 9.74881 4.95394 9.92248C4.51417 10.0966 4.13347 10.3357 3.82234 10.6334C3.52511 10.9178 3.26023 11.2631 3.035 11.6597C2.81789 12.0419 2.64211 12.4406 2.51269 12.8448C2.38769 13.2356 2.2832 13.663 2.20203 14.1153C2.12145 14.5636 2.06699 14.9888 2.03996 15.3795C2.0134 15.7614 2 16.1589 2 16.5605C2 17.6045 2.33187 18.4497 2.98633 19.073C3.63269 19.6881 4.48781 20 5.52796 20H15.1581C16.1979 20 17.0531 19.6881 17.6996 19.073C18.3542 18.4501 18.6861 17.6047 18.6861 16.5603C18.6859 16.1574 18.6723 15.7599 18.6456 15.379ZM16.8915 18.2238C16.4644 18.6303 15.8974 18.8279 15.1579 18.8279H5.528C4.78843 18.8279 4.2214 18.6303 3.79445 18.224C3.37562 17.8253 3.17207 17.281 3.17207 16.5605C3.17207 16.1857 3.18441 15.8157 3.20918 15.4605C3.23324 15.112 3.28254 14.7291 3.35566 14.3223C3.42781 13.9206 3.51965 13.5435 3.6289 13.2022C3.73375 12.8749 3.87671 12.5508 4.05402 12.2386C4.22324 11.941 4.41792 11.6858 4.63277 11.4801C4.83374 11.2877 5.08706 11.1302 5.3855 11.0121C5.66152 10.9028 5.97175 10.843 6.30851 10.834C6.34952 10.8559 6.42265 10.8975 6.54105 10.9747C6.78198 11.1317 7.05968 11.3109 7.36671 11.5069C7.7128 11.7276 8.15862 11.9269 8.69131 12.0988C9.23588 12.2749 9.79131 12.3643 10.3426 12.3643C10.8939 12.3643 11.4495 12.2749 11.9938 12.099C12.5269 11.9267 12.9726 11.7276 13.3192 11.5066C13.6333 11.3058 13.9033 11.1319 14.1442 10.9747C14.2626 10.8976 14.3357 10.8558 14.3767 10.834C14.7136 10.843 15.0238 10.9028 15.3 11.0121C15.5983 11.1302 15.8517 11.2878 16.0526 11.4801C16.2674 11.6856 16.4621 11.9409 16.6313 12.2388C16.8088 12.5508 16.952 12.8751 17.0566 13.202C17.166 13.5438 17.258 13.9207 17.33 14.3222C17.403 14.7297 17.4524 15.1127 17.4765 15.4606V15.4609C17.5014 15.8148 17.5139 16.1847 17.5141 16.5605C17.5139 17.2812 17.3104 17.8253 16.8915 18.2238H16.8915Z" fill="#172638"/>
</svg>
