<svg width="70" height="70" viewBox="0 0 70 70" fill="none" xmlns="http://www.w3.org/2000/svg">
<g clip-path="url(#clip0_202_4547)">
<path d="M63.1575 54.4283C64.5403 52.5271 65.2897 50.2389 65.2995 47.888C65.3069 47.7349 65.2841 47.5819 65.2323 47.4377C65.1805 47.2935 65.1009 47.1609 64.9978 47.0474C64.8948 46.934 64.7704 46.842 64.6318 46.7766C64.4932 46.7112 64.3431 46.6738 64.19 46.6665C63.8818 46.655 63.5813 46.7647 63.353 46.9721C63.1246 47.1795 62.9866 47.4681 62.9685 47.776C62.9773 49.6392 62.4034 51.4585 61.327 52.9793C59.0509 55.854 54.7319 55.9998 53.8884 55.9998C53.579 55.9998 53.2822 56.1228 53.0634 56.3415C52.8446 56.5603 52.7217 56.8571 52.7217 57.1665C52.7217 57.4759 52.8446 57.7727 53.0634 57.9915C53.2822 58.2103 53.579 58.3332 53.8884 58.3332C54.9197 58.3332 60.2129 58.1453 63.1575 54.4283ZM39.6667 39.6665C39.6667 39.3571 39.5438 39.0603 39.325 38.8415C39.1062 38.6228 38.8095 38.4998 38.5 38.4998C38.1906 38.4998 37.8939 38.6228 37.6751 38.8415C37.4563 39.0603 37.3334 39.3571 37.3334 39.6665C37.3334 40.9042 37.825 42.0912 38.7002 42.9663C39.5754 43.8415 40.7624 44.3332 42 44.3332V45.4998C42 45.8093 42.123 46.106 42.3417 46.3248C42.5605 46.5436 42.8573 46.6665 43.1667 46.6665C43.4761 46.6665 43.7729 46.5436 43.9917 46.3248C44.2105 46.106 44.3334 45.8093 44.3334 45.4998V44.3332C45.5711 44.3332 46.758 43.8415 47.6332 42.9663C48.5084 42.0912 49 40.9042 49 39.6665C49 38.4288 48.5084 37.2418 47.6332 36.3667C46.758 35.4915 45.5711 34.9998 44.3334 34.9998V30.3332C44.9522 30.3332 45.5457 30.579 45.9833 31.0166C46.4209 31.4542 46.6667 32.0477 46.6667 32.6665C46.6667 32.9759 46.7896 33.2727 47.0084 33.4915C47.2272 33.7103 47.524 33.8332 47.8334 33.8332C48.1428 33.8332 48.4395 33.7103 48.6583 33.4915C48.8771 33.2727 49 32.9759 49 32.6665C49 31.4288 48.5084 30.2418 47.6332 29.3667C46.758 28.4915 45.5711 27.9998 44.3334 27.9998V26.8332C44.3334 26.5238 44.2105 26.227 43.9917 26.0082C43.7729 25.7894 43.4761 25.6665 43.1667 25.6665C42.8573 25.6665 42.5605 25.7894 42.3417 26.0082C42.123 26.227 42 26.5238 42 26.8332V27.9998C40.7624 27.9998 39.5754 28.4915 38.7002 29.3667C37.825 30.2418 37.3334 31.4288 37.3334 32.6665C37.3334 33.9042 37.825 35.0912 38.7002 35.9663C39.5754 36.8415 40.7624 37.3332 42 37.3332V41.9998C41.3812 41.9998 40.7877 41.754 40.3501 41.3164C39.9125 40.8788 39.6667 40.2853 39.6667 39.6665ZM39.6667 32.6665C39.6667 32.0477 39.9125 31.4542 40.3501 31.0166C40.7877 30.579 41.3812 30.3332 42 30.3332V34.9998C41.3812 34.9998 40.7877 34.754 40.3501 34.3164C39.9125 33.8788 39.6667 33.2853 39.6667 32.6665ZM44.3334 37.3332C44.9522 37.3332 45.5457 37.579 45.9833 38.0166C46.4209 38.4542 46.6667 39.0477 46.6667 39.6665C46.6667 40.2853 46.4209 40.8788 45.9833 41.3164C45.5457 41.754 44.9522 41.9998 44.3334 41.9998V37.3332Z" fill="#345A84"/>
<path d="M69.0247 39.3994C66.15 27.1832 59.759 20.1051 55.1437 16.4079C60.9315 16.8442 62.7947 19.2522 62.8495 19.3246C63.0252 19.5753 63.2924 19.747 63.5935 19.8025C63.8946 19.858 64.2055 19.793 64.459 19.6213C64.7126 19.4497 64.8885 19.1852 64.9488 18.8851C65.0092 18.5849 64.9491 18.273 64.7815 18.0167C64.6975 17.8907 63.077 15.5761 58.3648 14.5167C58.9603 14.0272 59.4429 13.4149 59.7798 12.7216C60.1167 12.0284 60.2998 11.2705 60.3167 10.4999C60.2406 9.2395 59.7683 8.03536 58.9671 7.05942C58.1659 6.08348 57.0768 5.38564 55.8553 5.06556C55.958 4.22323 56.0105 3.37389 56.0117 2.52573C56.0111 2.14065 55.9151 1.76171 55.7325 1.42271C55.5498 1.08371 55.2861 0.795182 54.9649 0.582862C54.6436 0.370541 54.2748 0.241029 53.8913 0.205875C53.5079 0.170722 53.1217 0.231021 52.7672 0.381394C52.178 0.64856 51.6308 0.999727 51.1432 1.42323C50.8598 1.71439 50.5204 1.94514 50.1455 2.10154C49.7705 2.25794 49.3678 2.33676 48.9615 2.33323C48.5559 2.33608 48.1538 2.25695 47.7795 2.10057C47.4052 1.9442 47.0664 1.7138 46.7833 1.42323C45.7919 0.507535 44.4918 -0.000976562 43.1422 -0.000976562C41.7925 -0.000976562 40.4925 0.507535 39.501 1.42323C39.2176 1.71501 38.8779 1.94614 38.5025 2.10257C38.127 2.25901 37.7237 2.33748 37.317 2.33323C36.9115 2.3366 36.5094 2.25769 36.1353 2.10128C35.7611 1.94487 35.4225 1.7142 35.14 1.42323C34.6533 0.99993 34.1079 0.649398 33.5207 0.38256C33.1664 0.233188 32.7807 0.173677 32.3979 0.209318C32.015 0.244959 31.647 0.374648 31.3263 0.586853C31.0057 0.799057 30.7425 1.0872 30.5601 1.42566C30.3777 1.76412 30.2818 2.14241 30.2808 2.52689C30.2808 5.42956 30.8548 10.6072 34.489 14.0839C32.5791 15.2452 30.7953 16.6024 29.1667 18.1334V9.33323C29.1667 6.67323 25.4042 4.66656 20.4167 4.66656C15.4292 4.66656 11.6667 6.67323 11.6667 9.33323V21.0874C7.57517 21.4957 4.66667 23.3332 4.66667 25.6666V55.3407C1.848 56.0979 0 57.6332 0 59.4999V65.3332C0 67.9932 3.7625 69.9999 8.75 69.9999C13.2102 69.9999 16.6833 68.3934 17.3682 66.1499C19.382 67.2162 21.6391 67.7389 23.9167 67.6666C28.9042 67.6666 32.6667 65.6599 32.6667 62.9999V47.8332C32.6667 45.1732 28.9042 43.1666 23.9167 43.1666C23.3333 43.1666 22.7477 43.1957 22.1667 43.2541V25.6666C22.1667 23.1116 18.6935 21.1656 14 21.0151V12.5637C15.9848 13.5725 18.1912 14.0664 20.4167 13.9999C22.6421 14.0664 24.8486 13.5725 26.8333 12.5637V20.5204C26.0203 21.4276 25.2517 22.3737 24.5303 23.3554C24.3624 23.6054 24.2977 23.9107 24.3497 24.2073C24.4017 24.5039 24.5664 24.7689 24.8094 24.9469C25.0523 25.1249 25.3547 25.2021 25.6532 25.1622C25.9517 25.1224 26.2232 24.9687 26.411 24.7332C27.16 23.7182 27.9627 22.7452 28.8167 21.8166L28.8435 21.7862C31.0706 19.3111 33.6859 17.2152 36.5867 15.5807C37.1583 15.8561 37.7638 16.0579 38.3868 16.1792L35.3792 18.9862C35.153 19.1976 35.02 19.4901 35.0095 19.7995C34.999 20.1088 35.1118 20.4097 35.3232 20.6359C35.5345 20.8621 35.827 20.995 36.1364 21.0056C36.4458 21.0161 36.7467 20.9032 36.9728 20.6919L41.6395 16.3391H42.0117V19.8391C42.0117 20.1485 42.1346 20.4452 42.3534 20.664C42.5722 20.8828 42.8689 21.0057 43.1783 21.0057C43.4878 21.0057 43.7845 20.8828 44.0033 20.664C44.2221 20.4452 44.345 20.1485 44.345 19.8391V16.3332H44.7172L49.3838 20.6861C49.4958 20.7907 49.6273 20.8723 49.7709 20.9261C49.9144 20.9799 50.0671 21.0049 50.2203 20.9997C50.3735 20.9945 50.5241 20.9592 50.6637 20.8958C50.8032 20.8323 50.9289 20.7421 51.0335 20.6301C51.1381 20.5181 51.2197 20.3866 51.2735 20.243C51.3273 20.0995 51.3524 19.9468 51.3472 19.7936C51.342 19.6404 51.3066 19.4898 51.2432 19.3502C51.1798 19.2107 51.0895 19.085 50.9775 18.9804L47.95 16.1617C48.5695 16.0391 49.1706 15.8372 49.7385 15.5609C52.822 17.2292 62.958 23.8209 66.7543 39.9337C68.4052 46.9477 67.8102 52.3132 64.9868 55.8774C61.3748 60.4332 55.1075 60.6666 53.8883 60.6666H37.3333C37.0239 60.6666 36.7272 60.7895 36.5084 61.0083C36.2896 61.2271 36.1667 61.5238 36.1667 61.8332C36.1667 62.1427 36.2896 62.4394 36.5084 62.6582C36.7272 62.877 37.0239 62.9999 37.3333 62.9999H53.8883C55.8717 62.9999 62.6442 62.5904 66.815 57.3264C70.1027 53.1742 70.847 47.1426 69.0247 39.3994ZM8.75 57.1666C12.6082 57.1666 15.1667 58.5666 15.1667 59.4999C15.1667 60.4332 12.6082 61.8332 8.75 61.8332C4.89183 61.8332 2.33333 60.4332 2.33333 59.4999C2.33333 58.5666 4.89183 57.1666 8.75 57.1666ZM8.75 67.6666C4.89183 67.6666 2.33333 66.2666 2.33333 65.3332V62.7304C4.3181 63.7392 6.52456 64.233 8.75 64.1666C10.9754 64.233 13.1819 63.7392 15.1667 62.7304V65.3332C15.1667 66.2666 12.6082 67.6666 8.75 67.6666ZM23.9167 65.3332C20.0585 65.3332 17.5 63.9332 17.5 62.9999V51.0637C19.4848 52.0725 21.6912 52.5664 23.9167 52.4999C26.1421 52.5664 28.3486 52.0725 30.3333 51.0637V62.9999C30.3333 63.9332 27.7748 65.3332 23.9167 65.3332ZM30.3333 47.8332C30.3333 48.7666 27.7748 50.1666 23.9167 50.1666C20.0585 50.1666 17.5 48.7666 17.5 47.8332C17.5 46.8999 20.0585 45.4999 23.9167 45.4999C27.7748 45.4999 30.3333 46.8999 30.3333 47.8332ZM15.1667 47.8332V56.2694C13.1819 55.2606 10.9754 54.7668 8.75 54.8332C8.16667 54.8332 7.581 54.8624 7 54.9207V28.8971C8.98477 29.9059 11.1912 30.3997 13.4167 30.3332C15.6421 30.3997 17.8486 29.9059 19.8333 28.8971V43.6741C17.0147 44.4312 15.1667 45.9666 15.1667 47.8332ZM19.8333 25.6666C19.8333 26.5999 17.2748 27.9999 13.4167 27.9999C9.5585 27.9999 7 26.5999 7 25.6666C7 24.7332 9.5585 23.3332 13.4167 23.3332C17.2748 23.3332 19.8333 24.7332 19.8333 25.6666ZM20.4167 11.6666C16.5585 11.6666 14 10.2666 14 9.33323C14 8.39989 16.5585 6.99989 20.4167 6.99989C24.2748 6.99989 26.8333 8.39989 26.8333 9.33323C26.8333 10.2666 24.2748 11.6666 20.4167 11.6666ZM57.9833 10.4999C57.9833 12.4121 55.9125 13.9812 53.3167 13.9999C52.8825 13.9971 52.4499 13.9475 52.0263 13.8517C53.7196 12.0452 54.8966 9.81702 55.4342 7.40006C56.1205 7.60229 56.7304 8.00583 57.1848 8.55847C57.6393 9.11111 57.9175 9.78742 57.9833 10.4999ZM33.6793 3.24323C34.6646 4.16645 35.9668 4.67598 37.317 4.66656C38.668 4.6767 39.9712 4.16711 40.957 3.24323C41.2425 2.95497 41.5823 2.72615 41.9568 2.56999C42.3312 2.41383 42.7329 2.33342 43.1387 2.33342C43.5444 2.33342 43.9461 2.41383 44.3206 2.56999C44.695 2.72615 45.0348 2.95497 45.3203 3.24323C46.3061 4.16781 47.61 4.67748 48.9615 4.66656C50.3129 4.677 51.6166 4.16739 52.6027 3.24323C52.9258 2.95739 53.2852 2.71589 53.6725 2.52456C53.6725 4.69106 53.27 10.0472 49.511 12.9837C48.6653 13.6189 47.6402 13.9697 46.5827 13.9859C47.5926 12.2512 48.392 10.4022 48.9638 8.47806C49.0468 8.17978 49.0078 7.86078 48.8555 7.59122C48.7032 7.32167 48.4501 7.12365 48.1518 7.04073C47.8536 6.9578 47.5346 6.99677 47.265 7.14905C46.9954 7.30133 46.7974 7.55445 46.7145 7.85273C46.0683 10.0458 45.075 12.1211 43.7722 13.9999H42.5728C41.2726 12.1195 40.2791 10.0446 39.6293 7.85273C39.5463 7.5546 39.3481 7.30169 39.0786 7.14963C38.809 6.99757 38.4901 6.95882 38.192 7.04189C37.8939 7.12497 37.641 7.32308 37.4889 7.59263C37.3368 7.86218 37.2981 8.1811 37.3812 8.47923C37.9535 10.405 38.7537 12.2556 39.7647 13.9917C38.686 13.9862 37.6378 13.6331 36.7757 12.9849C33.0167 10.0496 32.6142 4.69339 32.6142 2.53389C33.0003 2.71939 33.3597 2.95739 33.6793 3.24323Z" fill="#345A84"/>
<path d="M63.1575 54.4286C64.5402 52.5273 65.2896 50.2391 65.2995 47.8883C65.3069 47.7352 65.284 47.5822 65.2323 47.4379C65.1805 47.2937 65.1008 47.1611 64.9978 47.0477C64.8948 46.9342 64.7704 46.8422 64.6318 46.7769C64.4932 46.7115 64.3431 46.6741 64.19 46.6668C63.8819 46.6558 63.5818 46.7657 63.3536 46.973C63.1254 47.1803 62.9872 47.4685 62.9685 47.7763C62.9773 49.6394 62.4034 51.4587 61.327 52.9796C59.0509 55.8543 54.7318 56.0001 53.8883 56.0001C53.5789 56.0001 53.2822 56.123 53.0634 56.3418C52.8446 56.5606 52.7217 56.8573 52.7217 57.1668C52.7217 57.4762 52.8446 57.7729 53.0634 57.9917C53.2822 58.2105 53.5789 58.3334 53.8883 58.3334C54.9197 58.3334 60.2128 58.1456 63.1575 54.4286Z" fill="#345A84"/>
</g>
<defs>
<clipPath id="clip0_202_4547">
<rect width="70" height="70" fill="white"/>
</clipPath>
</defs>
</svg>
