<svg width="13" height="13" viewBox="0 0 13 13" fill="none" xmlns="http://www.w3.org/2000/svg">
<g clip-path="url(#clip0_204_3569)">
<path d="M11.063 1.83521H1.10367C0.516895 1.83521 0.0416565 2.31339 0.0416565 2.89722V9.26929C0.0416565 9.85658 0.520388 10.3313 1.10367 10.3313H11.063C11.6448 10.3313 12.125 9.85859 12.125 9.26929V2.89722C12.125 2.31443 11.6516 1.83521 11.063 1.83521ZM10.9142 2.54321L6.83428 6.60168C6.63368 6.80228 6.367 6.91273 6.08332 6.91273C5.79965 6.91273 5.53296 6.80226 5.3317 6.60102L1.2524 2.54321H10.9142ZM0.749664 9.12518V3.04177L3.80915 6.08514L0.749664 9.12518ZM1.25285 9.62329L4.31113 6.58445L4.83173 7.10231C5.16605 7.43663 5.61054 7.62074 6.08332 7.62074C6.55611 7.62074 7.00059 7.43663 7.33425 7.10297L7.85551 6.58445L10.9138 9.62329H1.25285ZM11.417 9.12518L8.35749 6.08514L11.417 3.04177V9.12518Z" fill="black"/>
</g>
<defs>
<clipPath id="clip0_204_3569">
<rect width="12.0833" height="12.0833" fill="white" transform="translate(0.0416565 0.041626)"/>
</clipPath>
</defs>
</svg>
