<svg width="32" height="32" viewBox="0 0 32 32" fill="none" xmlns="http://www.w3.org/2000/svg">
<path d="M15.25 17.875C13.5441 17.875 11.8766 17.3692 10.4582 16.4214C9.03984 15.4737 7.93435 14.1267 7.28154 12.5506C6.62874 10.9746 6.45793 9.24044 6.79073 7.56735C7.12353 5.89426 7.94498 4.35744 9.15121 3.15121C10.3574 1.94498 11.8943 1.12353 13.5674 0.790731C15.2404 0.457933 16.9746 0.628737 18.5506 1.28154C20.1267 1.93435 21.4737 3.03984 22.4214 4.45821C23.3692 5.87658 23.875 7.54414 23.875 9.25C23.871 11.5363 22.9611 13.7278 21.3444 15.3444C19.7278 16.9611 17.5363 17.871 15.25 17.875ZM15.25 2.875C13.9891 2.875 12.7566 3.24889 11.7082 3.94939C10.6599 4.64988 9.84278 5.64552 9.36027 6.8104C8.87776 7.97528 8.75152 9.25708 8.9975 10.4937C9.24348 11.7303 9.85064 12.8663 10.7422 13.7578C11.6338 14.6494 12.7697 15.2565 14.0063 15.5025C15.2429 15.7485 16.5247 15.6222 17.6896 15.1397C18.8545 14.6572 19.8501 13.8401 20.5506 12.7918C21.2511 11.7434 21.625 10.5109 21.625 9.25C21.621 7.56047 20.9481 5.94126 19.7534 4.74657C18.5587 3.55189 16.9395 2.87897 15.25 2.875Z" fill="#345A84"/>
<path d="M1.75 29.875C1.45284 29.8711 1.16894 29.7513 0.958801 29.5412C0.748659 29.3311 0.628885 29.0472 0.625 28.75C0.632924 25.2715 2.01828 21.9377 4.47798 19.478C6.93768 17.0183 10.2715 15.6329 13.75 15.625H16.75C16.8977 15.625 17.044 15.6541 17.1805 15.7106C17.317 15.7672 17.441 15.85 17.5455 15.9545C17.65 16.059 17.7328 16.183 17.7894 16.3195C17.8459 16.456 17.875 16.6023 17.875 16.75C17.875 16.8977 17.8459 17.044 17.7894 17.1805C17.7328 17.317 17.65 17.441 17.5455 17.5455C17.441 17.65 17.317 17.7328 17.1805 17.7894C17.044 17.8459 16.8977 17.875 16.75 17.875H13.75C10.867 17.879 8.1032 19.026 6.0646 21.0646C4.026 23.1032 2.87897 25.867 2.875 28.75C2.87111 29.0472 2.75134 29.3311 2.5412 29.5412C2.33106 29.7513 2.04716 29.8711 1.75 29.875ZM19.75 31.375C19.461 31.3513 19.1923 31.217 19 31L13 25C12.8997 24.7901 12.867 24.5542 12.9064 24.3249C12.9457 24.0956 13.0552 23.8842 13.2197 23.7197C13.3842 23.5552 13.5956 23.4457 13.8249 23.4064C14.0542 23.367 14.2901 23.3997 14.5 23.5L19.645 28.645L29.41 17.5C29.6138 17.2968 29.8877 17.1792 30.1754 17.1713C30.4631 17.1633 30.743 17.2657 30.9577 17.4574C31.1724 17.6491 31.3057 17.9156 31.3303 18.2024C31.3549 18.4892 31.2689 18.7745 31.09 19L20.59 31C20.4919 31.1168 20.3706 31.2118 20.2337 31.2789C20.0968 31.3461 19.9474 31.3839 19.795 31.39L19.75 31.375Z" fill="#345A84"/>
</svg>
