<svg width="32" height="30" viewBox="0 0 32 30" fill="none" xmlns="http://www.w3.org/2000/svg">
<path d="M15.999 22.4092C15.0431 22.4106 14.1266 22.791 13.4507 23.467C12.7747 24.143 12.3943 25.0594 12.3928 26.0154C12.3928 28.0026 14.0119 29.6244 15.999 29.6244C17.9862 29.6244 19.6053 28.0026 19.6053 26.0154C19.6038 25.0594 19.2234 24.143 18.5474 23.467C17.8714 22.791 16.955 22.4106 15.999 22.4092ZM15.999 23.0935C17.6167 23.0935 18.921 24.3977 18.921 26.0154C18.921 27.6331 17.6167 28.9401 15.999 28.9401C14.3814 28.9401 13.0771 27.6331 13.0771 26.0154C13.0771 24.3977 14.3814 23.0935 15.999 23.0935Z" fill="#345A84" stroke="#345A84" stroke-width="0.5"/>
<path d="M5.64488 25.6734C5.55414 25.6734 5.46711 25.7094 5.40295 25.7736C5.33878 25.8378 5.30273 25.9248 5.30273 26.0155C5.30273 26.1063 5.33878 26.1933 5.40295 26.2575C5.46711 26.3216 5.55414 26.3577 5.64488 26.3577H12.7355C12.8263 26.3577 12.9133 26.3216 12.9774 26.2575C13.0416 26.1933 13.0777 26.1063 13.0777 26.0155C13.0777 25.9248 13.0416 25.8378 12.9774 25.7736C12.9133 25.7094 12.8263 25.6734 12.7355 25.6734H5.64488ZM19.2623 25.6734C19.1715 25.6734 19.0845 25.7094 19.0204 25.7736C18.9562 25.8378 18.9201 25.9248 18.9201 26.0155C18.9201 26.1063 18.9562 26.1933 19.0204 26.2575C19.0845 26.3216 19.1715 26.3577 19.2623 26.3577H26.3543C26.445 26.3577 26.5321 26.3216 26.5962 26.2575C26.6604 26.1933 26.6964 26.1063 26.6964 26.0155C26.6964 25.9248 26.6604 25.8378 26.5962 25.7736C26.5321 25.7094 26.445 25.6734 26.3543 25.6734H19.2623Z" fill="#345A84" stroke="#345A84" stroke-width="0.5"/>
<path d="M3.49136 23.5221C2.83047 23.5235 2.19707 23.7867 1.72975 24.254C1.26243 24.7214 0.999249 25.3548 0.997803 26.0157C0.997803 27.3883 2.11867 28.5119 3.49136 28.5119C4.86542 28.5119 5.98629 27.3897 5.98629 26.0157C5.98484 25.3545 5.72148 24.7209 5.25386 24.2536C4.78625 23.7862 4.15249 23.5232 3.49136 23.5221ZM3.49136 24.2064C4.49453 24.2064 5.302 25.0111 5.302 26.0157C5.302 27.0188 4.49453 27.8277 3.49136 27.8277C2.48819 27.8277 1.68209 27.0202 1.68209 26.0157C1.68209 25.0111 2.48956 24.2064 3.49136 24.2064ZM28.5063 23.5221C27.8452 23.5232 27.2115 23.7862 26.7438 24.2536C26.2762 24.7209 26.0129 25.3545 26.0114 26.0157C26.0114 27.3883 27.1336 28.5119 28.5063 28.5119C29.879 28.5119 30.9999 27.3897 30.9999 26.0157C30.9984 25.3548 30.7353 24.7214 30.2679 24.254C29.8006 23.7867 29.1672 23.5235 28.5063 23.5221ZM28.5063 24.2064C29.5095 24.2064 30.3156 25.0111 30.3156 26.0157C30.3156 27.0202 29.5081 27.8277 28.5063 27.8277C27.5045 27.8277 26.6957 27.0202 26.6957 26.0157C26.6957 25.0111 27.5032 24.2064 28.5063 24.2064ZM15.9988 0.375244C13.7738 0.376331 11.6401 1.26043 10.0664 2.8334C8.49264 4.40637 7.6075 6.53961 7.60532 8.76466C7.6149 12.6145 10.2645 15.9333 13.9884 16.8571L15.6964 19.9638C15.7259 20.0174 15.7693 20.0622 15.822 20.0933C15.8748 20.1245 15.9349 20.1409 15.9961 20.1409C16.0573 20.1409 16.1175 20.1245 16.1702 20.0933C16.2229 20.0622 16.2663 20.0174 16.2958 19.9638L18.0066 16.8598C21.7332 15.9374 24.3842 12.6172 24.3924 8.76329C24.3898 6.53847 23.5045 4.40559 21.9308 2.83291C20.3571 1.26024 18.2237 0.37633 15.9988 0.375244ZM15.9988 1.05954C17.0111 1.05864 18.0137 1.25729 18.9492 1.64414C19.8846 2.03099 20.7347 2.59845 21.4507 3.31406C22.1666 4.02967 22.7346 4.8794 23.1219 5.81466C23.5093 6.74992 23.7084 7.75236 23.7081 8.76466C23.7041 10.5122 23.1058 12.2064 22.0114 13.5688C20.9171 14.9313 19.3918 15.8809 17.6863 16.2618C17.6389 16.2722 17.5942 16.2926 17.5553 16.3216C17.5163 16.3506 17.484 16.3876 17.4605 16.4301L15.9961 19.0893L14.5317 16.4274C14.5083 16.385 14.4762 16.3481 14.4375 16.3191C14.3989 16.2901 14.3545 16.2696 14.3073 16.259C12.6028 15.8772 11.0788 14.9274 9.98537 13.5653C8.8919 12.2033 8.29394 10.51 8.28962 8.76329C8.28943 7.75111 8.48876 6.74882 8.87619 5.81371C9.26362 4.87861 9.83155 4.02904 10.5475 3.31358C11.2635 2.59811 12.1135 2.03077 13.0489 1.64401C13.9842 1.25725 14.9867 1.05864 15.9988 1.05954Z" fill="#345A84" stroke="#345A84" stroke-width="0.5"/>
<path d="M15.9988 4.79019C15.0271 4.79019 14.2319 5.5867 14.2319 6.56113C14.2319 7.53557 15.0257 8.33345 15.9988 8.33345C16.9718 8.33345 17.7656 7.53557 17.7656 6.56113C17.7656 5.5867 16.9718 4.78882 15.9988 4.78882V4.79019ZM15.9988 5.47448C16.1413 5.4743 16.2825 5.50231 16.4142 5.55691C16.5459 5.6115 16.6655 5.6916 16.7661 5.7926C16.8667 5.89359 16.9464 6.01349 17.0005 6.14539C17.0546 6.27728 17.082 6.41858 17.0813 6.56113C17.0813 7.16605 16.5996 7.64916 15.9988 7.64916C15.398 7.64916 14.9162 7.16605 14.9162 6.56113C14.9153 6.41846 14.9427 6.27702 14.9967 6.14497C15.0507 6.01291 15.1303 5.89285 15.2309 5.79171C15.3316 5.69057 15.4512 5.61035 15.583 5.55567C15.7148 5.50098 15.8561 5.47293 15.9988 5.47311V5.47448Z" fill="#345A84" stroke="#345A84" stroke-width="0.5"/>
<path d="M15.9982 8.17346C14.0754 8.17346 12.5261 9.81029 12.5261 11.8029C12.5261 11.8937 12.5622 11.9807 12.6263 12.0449C12.6905 12.109 12.7775 12.1451 12.8683 12.1451H19.1282C19.2189 12.1451 19.3059 12.109 19.3701 12.0449C19.4343 11.9807 19.4703 11.8937 19.4703 11.8029C19.4703 9.81029 17.9211 8.17346 15.9982 8.17346ZM15.9982 8.85775C17.4079 8.85775 18.4699 10.0115 18.6533 11.4608H13.3432C13.5266 10.0101 14.5886 8.85775 15.9982 8.85775Z" fill="#345A84" stroke="#345A84" stroke-width="0.5"/>
<path d="M16.8672 24.7059L14.646 26.9271C14.582 26.9913 14.5461 27.0781 14.5461 27.1687C14.5461 27.2592 14.582 27.3461 14.646 27.4102C14.7101 27.4742 14.797 27.5101 14.8875 27.5101C14.9781 27.5101 15.065 27.4742 15.1291 27.4102L17.3503 25.189C17.4142 25.1249 17.4501 25.038 17.4501 24.9475C17.4501 24.8569 17.4142 24.77 17.3503 24.7059C17.2862 24.642 17.1993 24.6061 17.1087 24.6061C17.0182 24.6061 16.9313 24.642 16.8672 24.7059Z" fill="#345A84" stroke="#345A84" stroke-width="0.5"/>
<path d="M14.646 24.7059C14.582 24.77 14.5461 24.8569 14.5461 24.9475C14.5461 25.038 14.582 25.1249 14.646 25.189L16.8672 27.4102C16.9313 27.4742 17.0182 27.5101 17.1087 27.5101C17.1993 27.5101 17.2862 27.4742 17.3503 27.4102C17.4142 27.3461 17.4501 27.2592 17.4501 27.1687C17.4501 27.0781 17.4142 26.9913 17.3503 26.9271L15.1291 24.7059C15.065 24.642 14.9781 24.6061 14.8875 24.6061C14.797 24.6061 14.7101 24.642 14.646 24.7059Z" fill="#345A84" stroke="#345A84" stroke-width="0.5"/>
</svg>
