<svg width="14" height="14" viewBox="0 0 14 14" fill="none" xmlns="http://www.w3.org/2000/svg">
<g clip-path="url(#clip0_301_2722)">
<path d="M11.2383 7.18763V5.87891C11.2383 3.96971 9.96928 2.35154 8.23052 1.82301V1.23047C8.23052 0.551988 7.67853 0 7.00005 0C6.32157 0 5.76958 0.551988 5.76958 1.23047V1.82301C4.03079 2.35154 2.76177 3.96968 2.76177 5.87891V7.18763C2.76177 8.86468 2.12253 10.4549 0.961811 11.6653C0.906157 11.7234 0.868783 11.7965 0.854334 11.8755C0.839885 11.9546 0.849 12.0362 0.880544 12.1102C0.912087 12.1841 0.96467 12.2472 1.03175 12.2915C1.09884 12.3358 1.17747 12.3594 1.25786 12.3594H4.99053C5.18106 13.2943 6.00969 14 7.00005 14C7.99044 14 8.81901 13.2943 9.00957 12.3594H12.7422C12.8226 12.3594 12.9012 12.3358 12.9683 12.2914C13.0354 12.2471 13.088 12.1841 13.1195 12.1101C13.1511 12.0362 13.1602 11.9546 13.1457 11.8755C13.1313 11.7965 13.0939 11.7234 13.0383 11.6653C11.8776 10.4549 11.2383 8.86465 11.2383 7.18763ZM6.58989 1.23047C6.58989 1.00431 6.77389 0.820312 7.00005 0.820312C7.22621 0.820312 7.41021 1.00431 7.41021 1.23047V1.66053C7.27521 1.64752 7.13841 1.64062 7.00005 1.64062C6.86169 1.64062 6.72489 1.64752 6.58989 1.66053V1.23047ZM7.00005 13.1797C6.46534 13.1797 6.00944 12.8368 5.84013 12.3594H8.15997C7.99066 12.8368 7.53476 13.1797 7.00005 13.1797ZM2.14189 11.5391C3.07598 10.2869 3.58208 8.77166 3.58208 7.18763V5.87891C3.58208 3.99424 5.11538 2.46094 7.00005 2.46094C8.88472 2.46094 10.418 3.99424 10.418 5.87891V7.18763C10.418 8.77166 10.9241 10.2869 11.8582 11.5391H2.14189ZM12.3321 5.87891C12.3321 6.10542 12.5157 6.28906 12.7422 6.28906C12.9688 6.28906 13.1524 6.10542 13.1524 5.87891C13.1524 4.23555 12.5124 2.69054 11.3504 1.52852C11.1903 1.36836 10.9305 1.36834 10.7704 1.52852C10.6102 1.6887 10.6102 1.94838 10.7704 2.10856C11.7775 3.11566 12.3321 4.45465 12.3321 5.87891ZM1.25786 6.28906C1.48438 6.28906 1.66802 6.10542 1.66802 5.87891C1.66802 4.45468 2.22266 3.11568 3.22973 2.10859C3.38991 1.94841 3.38991 1.68872 3.22973 1.52854C3.06958 1.36836 2.80987 1.36836 2.64969 1.52854C1.48766 2.69057 0.847706 4.23555 0.847706 5.87891C0.847706 6.10542 1.03135 6.28906 1.25786 6.28906Z" fill="#345A84"/>
</g>
<defs>
<clipPath id="clip0_301_2722">
<rect width="14" height="14" fill="white"/>
</clipPath>
</defs>
</svg>
