<svg width="14" height="14" viewBox="0 0 14 14" fill="none" xmlns="http://www.w3.org/2000/svg">
<g clip-path="url(#clip0_301_2714)">
<path d="M7.81738 4.94824C7.9684 4.94824 8.09082 4.82582 8.09082 4.6748C8.09082 4.52379 7.9684 4.40137 7.81738 4.40137C7.66637 4.40137 7.54395 4.52379 7.54395 4.6748C7.54395 4.82582 7.66637 4.94824 7.81738 4.94824Z" fill="#345A84"/>
<path d="M13.9968 12.1967C13.9528 11.6024 13.4568 11.1436 12.8627 11.1436C12.8559 11.1436 12.849 11.1437 12.8422 11.1438L9.868 11.202C9.9444 10.8331 9.8294 10.4367 9.54469 10.1689L7.19286 7.95669C6.34329 7.12946 5.22241 6.6738 4.03651 6.6738H0.273984C0.122664 6.6738 0 6.79646 0 6.94779V10.2667C0 10.418 0.122664 10.5406 0.273984 10.5406H2.03328L4.52545 12.6447C5.55639 13.5151 6.86722 13.9944 8.21644 13.9944C8.2276 13.9944 13.0014 13.4093 13.0014 13.4093C13.6044 13.3353 14.0417 12.8027 13.9968 12.1967ZM12.9346 12.8654L8.19993 13.4464C6.98575 13.4425 5.80696 13.0095 4.87895 12.226L2.31022 10.0573C2.26078 10.0156 2.19817 9.99271 2.13347 9.9927H0.547941V7.22177H4.03651C5.07957 7.22177 6.06531 7.62274 6.81215 8.35079L6.81568 8.35418L9.16926 10.568C9.35876 10.7463 9.39911 11.0375 9.26529 11.2606C9.10864 11.5217 8.77833 11.6088 8.5132 11.4589L6.41979 10.275C6.28805 10.2005 6.12093 10.2469 6.04644 10.3786C5.97196 10.5103 6.01836 10.6775 6.15005 10.752L8.24346 11.9359C8.68859 12.1876 9.22657 12.1024 9.56971 11.7559C9.56971 11.7559 12.8595 11.6916 12.863 11.6916C13.1706 11.6916 13.4276 11.9293 13.4504 12.2372C13.4736 12.5511 13.2471 12.8271 12.9346 12.8654ZM7.15805 3.1545L7.53391 2.85593V3.45487C7.53391 3.60616 7.65658 3.72885 7.8079 3.72885C7.95919 3.72885 8.08188 3.60619 8.08188 3.45487V2.42067L10.3369 0.629356L12.5909 2.4198L12.5919 6.7132H11.5816V5.96377C11.5816 5.27744 11.0233 4.71908 10.3369 4.71908C9.65062 4.71908 9.09226 5.27746 9.09226 5.96377V6.7132H8.08191V5.89314C8.08191 5.74184 7.95925 5.61915 7.80793 5.61915C7.65663 5.61915 7.53394 5.74182 7.53394 5.89314V6.98719C7.53394 7.13848 7.65661 7.26117 7.80793 7.26117H12.866C13.0152 7.26117 13.14 7.13635 13.14 6.98713L13.139 2.85514L13.5158 3.1545C13.6411 3.25403 13.8301 3.22239 13.9167 3.08811C13.9919 2.97132 13.9654 2.81182 13.8566 2.72545L10.5073 0.0649259C10.4588 0.0264408 10.3988 0.00549316 10.3369 0.00549316C10.275 0.00549316 10.215 0.0264408 10.1665 0.0649259L6.81723 2.72545C6.69875 2.81956 6.67901 2.99191 6.77313 3.11036C6.86725 3.22887 7.03959 3.24861 7.15805 3.1545ZM9.64015 5.96379C9.64015 5.57959 9.95272 5.26705 10.3369 5.26705C10.7211 5.26705 11.0336 5.57959 11.0336 5.96379V6.71318H9.64012L9.64015 5.96379Z" fill="#345A84"/>
</g>
<defs>
<clipPath id="clip0_301_2714">
<rect width="14" height="14" fill="white"/>
</clipPath>
</defs>
</svg>
