<svg width="14" height="14" viewBox="0 0 14 14" fill="none" xmlns="http://www.w3.org/2000/svg">
<path fill-rule="evenodd" clip-rule="evenodd" d="M7.83328 8.58474L4.83085 12.611C4.81246 12.6355 4.79909 12.6634 4.79148 12.6931C4.78387 12.7228 4.78219 12.7537 4.78653 12.784C4.79086 12.8143 4.80113 12.8435 4.81674 12.8699C4.83235 12.8962 4.85301 12.9193 4.87752 12.9377C4.90204 12.956 4.92993 12.9694 4.95961 12.977C4.9893 12.9846 5.02019 12.9863 5.05052 12.982C5.08086 12.9776 5.11004 12.9674 5.13641 12.9518C5.16277 12.9362 5.1858 12.9155 5.20419 12.891L8.20733 8.86356C8.23189 8.83079 8.24739 8.79213 8.25228 8.75147C8.25717 8.71081 8.25128 8.66958 8.23519 8.63192C8.21911 8.59426 8.19339 8.5615 8.16064 8.53693C8.12788 8.51235 8.08923 8.49682 8.04858 8.49191C8.00791 8.48701 7.96668 8.4929 7.92901 8.50899C7.89135 8.52507 7.85859 8.5508 7.83402 8.58357L7.83328 8.58474Z" fill="#345A84"/>
<path d="M0.509486 9.69212L1.75498 10.1081C1.79679 10.1234 1.84091 10.1313 1.8854 10.1315C1.9577 10.1312 2.02859 10.1115 2.09072 10.0745L6.35125 7.52198C6.40522 7.67546 6.47049 7.82473 6.54653 7.96857L5.79991 8.96951C5.73743 9.05427 5.71071 9.16016 5.72548 9.26443L5.78708 9.69655L5.32392 9.83376C5.24011 9.8581 5.16658 9.90925 5.11462 9.97937C5.06265 10.0495 5.03512 10.1347 5.03622 10.222C5.04073 10.3196 5.05282 10.4167 5.0724 10.5125L5.09061 10.6292L4.62395 10.767C4.5323 10.7949 4.45364 10.8546 4.4022 10.9354C4.35076 11.0162 4.32993 11.1127 4.34349 11.2076L4.39413 11.5648L3.94568 11.6983C3.58079 11.8051 3.36186 12.1772 3.44566 12.548L3.70233 13.6857C3.72107 13.7741 3.7694 13.8534 3.83931 13.9105C3.90923 13.9676 3.99656 13.9992 4.08685 14C4.09735 14 4.1081 14 4.11882 13.9986L5.42777 13.909C5.48651 13.9065 5.54394 13.8908 5.59583 13.8632C5.64772 13.8355 5.69274 13.7965 5.72758 13.7492L8.79208 9.64033C9.95032 9.87411 11.1444 9.4631 11.9134 8.56598C12.6824 7.66884 12.9059 6.42592 12.4977 5.31706C13.4864 4.6407 13.9602 3.42805 13.692 2.2606C13.4237 1.09314 12.468 0.208958 11.2833 0.03205C10.0986 -0.144858 8.92631 0.421575 8.32868 1.45973C7.87056 1.45411 7.41641 1.54525 6.99592 1.72718C6.57544 1.90911 6.19808 2.17774 5.88853 2.5155C5.57898 2.85326 5.3442 3.25255 5.19954 3.68727C5.05488 4.12199 5.0036 4.58235 5.04905 5.03824L3.97294 5.68175C3.88509 5.73697 3.82198 5.82399 3.79677 5.92464L3.69014 6.34695L3.20994 6.29749C3.12291 6.28773 3.03508 6.30684 2.95996 6.35186C2.88484 6.39688 2.82659 6.46533 2.79417 6.54669C2.7611 6.64045 2.73536 6.73664 2.71717 6.83439L2.69057 6.94614L2.21062 6.89761C2.11442 6.88626 2.01738 6.91028 1.93758 6.96518C1.85778 7.02008 1.80067 7.10213 1.77688 7.19602L1.68892 7.54601L1.22414 7.49934C1.06972 7.482 0.913889 7.51613 0.780836 7.59641C0.690236 7.64935 0.612409 7.72159 0.552888 7.80801C0.493367 7.89443 0.453614 7.9929 0.436454 8.09642L0.241636 9.24414C0.203493 9.43994 0.318962 9.63303 0.509486 9.69212ZM11.8435 7.86472C11.2161 8.93535 9.95541 9.46091 8.75334 9.15292C8.70859 9.14153 8.66146 9.14368 8.61794 9.15909C8.57441 9.1745 8.53643 9.20248 8.50881 9.23949L5.3727 13.4454L4.14564 13.5294L3.90018 12.4472C3.89213 12.4111 3.8919 12.3737 3.8995 12.3374C3.90711 12.3012 3.92238 12.267 3.94429 12.2372C3.97754 12.1934 4.024 12.1614 4.07682 12.146L4.58126 11.9959C4.67359 11.9691 4.75304 11.9097 4.80484 11.8287C4.85665 11.7478 4.87728 11.6507 4.8629 11.5557L4.81226 11.1984L5.27892 11.0605C5.37138 11.0337 5.45092 10.9741 5.50269 10.8929C5.55447 10.8117 5.57494 10.7145 5.5603 10.6193L5.53255 10.4392C5.5218 10.371 5.51155 10.3083 5.50594 10.266L5.97679 10.1268C6.06876 10.0996 6.1478 10.0401 6.19927 9.95922C6.25075 9.87832 6.27117 9.78151 6.25678 9.68671L6.19099 9.22472L7.01067 8.12551C7.03823 8.0886 7.05425 8.04434 7.0567 7.99833C7.05914 7.95233 7.04791 7.90662 7.02443 7.86699C6.31152 6.66746 6.59063 5.12612 7.67893 4.25279C8.76723 3.37946 10.3324 3.44077 11.3491 4.39651C11.5737 4.60636 11.7617 4.85233 11.9051 5.12423C11.6365 5.25275 11.3466 5.33058 11.0497 5.35383C10.9772 4.91769 10.6077 4.59285 10.1658 4.57683C9.72395 4.56081 9.33188 4.858 9.2279 5.28774C9.12391 5.71749 9.33681 6.16105 9.73713 6.34875C10.1375 6.53646 10.6146 6.41648 10.8785 6.06174C10.9313 5.98889 10.9731 5.9086 11.0024 5.8235C11.3784 5.80504 11.7473 5.71334 12.0883 5.55354C12.2156 5.93379 12.2597 6.33699 12.2175 6.73578C12.1752 7.13456 12.0477 7.51959 11.8435 7.86472ZM9.8369 5.14253C9.90162 5.0892 9.97961 5.05444 10.0625 5.04196C10.0852 5.0387 10.108 5.03707 10.1309 5.03707C10.2271 5.03734 10.3208 5.06732 10.3993 5.12291C10.4778 5.17851 10.5371 5.25699 10.5693 5.34762C10.3159 5.3185 10.0688 5.24927 9.83712 5.14253H9.8369ZM10.4811 5.80797C10.4236 5.8752 10.3481 5.92458 10.2634 5.95029C10.1788 5.976 10.0885 5.97697 10.0034 5.95308C9.91817 5.92919 9.8416 5.88144 9.78267 5.81546C9.72373 5.74948 9.6849 5.66802 9.67074 5.58069C9.92833 5.69578 10.2014 5.77234 10.4813 5.80794L10.4811 5.80797ZM10.8533 0.467156C11.9113 0.465625 12.8505 1.14455 13.1808 2.14978C13.511 3.15501 13.1576 4.25862 12.3048 4.88493C12.139 4.57534 11.9236 4.29505 11.6671 4.05521C11.5971 3.99057 11.5252 3.93201 11.452 3.87415C11.4066 3.70033 11.3467 3.53065 11.2728 3.36691C11.0834 2.9474 10.8068 2.57308 10.4614 2.26895C10.1159 1.96482 9.70956 1.73786 9.26943 1.60322C9.13171 1.56179 8.99141 1.52945 8.84945 1.5064C9.07491 1.18445 9.37489 0.921802 9.72381 0.740844C10.0727 0.559887 10.4602 0.465988 10.8533 0.467156ZM0.898684 8.1741C0.904648 8.13734 0.91871 8.10235 0.939853 8.07169C0.960995 8.04102 0.98869 8.01544 1.02093 7.99679C1.06747 7.96838 1.12215 7.95631 1.17632 7.9625L1.70106 8.01617C1.79638 8.02707 1.89238 8.00262 1.97087 7.94744C2.04935 7.89226 2.10486 7.8102 2.12687 7.71682L2.21507 7.36683L2.70016 7.41676C2.79604 7.42578 2.89197 7.40013 2.97056 7.34449C3.04915 7.28884 3.1052 7.20687 3.12854 7.11345L3.16961 6.94103C3.18594 6.87267 3.2004 6.80896 3.21136 6.76674L3.69995 6.81692C3.79523 6.82731 3.89104 6.80273 3.96954 6.74775C4.04805 6.69276 4.1039 6.61113 4.12669 6.51803L4.24194 6.06305L5.41765 5.36028C5.45714 5.3367 5.48877 5.30196 5.50857 5.26045C5.52837 5.21894 5.53545 5.1725 5.52894 5.12697C5.32925 3.76721 6.14686 2.46378 7.45797 2.05167C8.76909 1.63956 10.1854 2.24085 10.7995 3.47035C10.2814 3.23026 9.70881 3.13211 9.14032 3.18593C8.68571 3.22668 8.24468 3.36226 7.84568 3.58391C7.44668 3.80556 7.09855 4.10837 6.82376 4.47282C6.54896 4.83726 6.35359 5.25525 6.25025 5.69983C6.1469 6.14442 6.13787 6.60572 6.22375 7.05401L1.8784 9.65737L0.712944 9.26817L0.898684 8.1741Z" fill="#345A84"/>
<path fill-rule="evenodd" clip-rule="evenodd" d="M5.66628 6.84369C5.7181 6.81131 5.75514 6.75989 5.76945 6.70048C5.78377 6.64108 5.77421 6.57843 5.74283 6.52599C5.71145 6.47356 5.66076 6.43553 5.60164 6.42007C5.54253 6.40461 5.4797 6.41295 5.42667 6.44331L1.69507 8.6802C1.65939 8.70097 1.62986 8.73083 1.60949 8.76673C1.58912 8.80264 1.57864 8.84331 1.57912 8.88459C1.5796 8.92587 1.59101 8.96628 1.61221 9.00171C1.63341 9.03713 1.66362 9.0663 1.69977 9.08624C1.73593 9.10617 1.77672 9.11615 1.818 9.11516C1.85927 9.11417 1.89954 9.10225 1.9347 9.08061L5.66628 6.84369Z" fill="#345A84"/>
</svg>
