<svg width="14" height="14" viewBox="0 0 14 14" fill="none" xmlns="http://www.w3.org/2000/svg">
<g clip-path="url(#clip0_301_2737)">
<path d="M6.46155 9.49555C6.5128 9.44422 6.54159 9.37465 6.54159 9.30211C6.54159 9.22957 6.5128 9.16 6.46155 9.10867C6.35475 9.00208 6.18172 9.00208 6.07478 9.10867C5.96819 9.21558 5.96819 9.38861 6.07478 9.49555C6.18169 9.60214 6.35475 9.60214 6.46155 9.49555ZM5.16702 3.00696C5.16702 4.66498 6.51591 6.01401 8.17396 6.01401C9.832 6.01401 11.1809 4.66498 11.1809 3.00696C11.1809 1.34895 9.832 0 8.17396 0C6.51591 0 5.16702 1.34892 5.16702 3.00696ZM10.6343 3.00696C10.6343 4.36357 9.53056 5.46725 8.17396 5.46725C6.81735 5.46725 5.71365 4.36357 5.71365 3.00696C5.71365 1.65044 6.81735 0.546766 8.17396 0.546766C9.53056 0.546766 10.6343 1.65044 10.6343 3.00696Z" fill="#345A84"/>
<path d="M3.176 13.9192C3.28196 14.026 3.45447 14.0272 3.56182 13.9214L4.88712 12.6157C5.11229 12.3906 5.18076 12.0572 5.08175 11.7675L5.36681 11.4925C5.51933 11.3446 5.72357 11.2621 5.93602 11.2626H9.57006C10.2148 11.2626 10.8241 11.015 11.2861 10.5654C11.3051 10.5469 11.1418 10.7393 13.7653 7.60372C14.1544 7.14336 14.0962 6.45208 13.6354 6.06254C13.1775 5.67664 12.4916 5.73207 12.1014 6.1845L10.4883 7.84246C10.2846 7.59177 9.97404 7.4355 9.63842 7.4355H6.59014C6.15636 7.25402 5.69611 7.16217 5.22123 7.16217C3.9049 7.16217 2.75548 7.77013 2.13866 8.91004C1.87879 8.86079 1.60469 8.93941 1.40754 9.13658L0.107102 10.4409C0.000926446 10.5473 0.000735033 10.7196 0.106665 10.8265L3.176 13.9192ZM5.22112 7.70883C5.63984 7.70883 6.04466 7.7931 6.42457 7.9593C6.45913 7.97445 6.49644 7.98227 6.53417 7.98226H9.63842C9.93483 7.98226 10.1852 8.22398 10.1852 8.52892C10.1852 8.83044 9.93997 9.07569 9.63842 9.07569H7.4081C7.25716 9.07569 7.13477 9.1981 7.13477 9.34902C7.13477 9.50006 7.25716 9.62234 7.4081 9.62234H9.63842C10.2414 9.62234 10.7318 9.13188 10.7318 8.52892C10.7318 8.48085 10.7284 8.43322 10.7222 8.386C12.2826 6.78201 12.5027 6.55664 12.5121 6.54543C12.7069 6.31547 13.0528 6.2863 13.2828 6.48027C13.5131 6.67499 13.5423 7.02064 13.3469 7.25189L10.8951 10.183C10.537 10.5267 10.067 10.7159 9.57009 10.7159H5.93602C5.5799 10.7159 5.24281 10.8521 4.98711 11.0991L4.7548 11.3233L2.61324 9.18186C3.11374 8.24288 4.05294 7.70883 5.22112 7.70883ZM1.7944 9.52292C1.88456 9.43277 2.023 9.41653 2.13289 9.48445C2.1802 9.5133 2.04435 9.38962 4.50059 11.8424C4.60985 11.9517 4.60397 12.1258 4.50206 12.2277L3.37222 13.3408L0.686243 10.6343L1.7944 9.52292ZM7.84549 1.36688V1.68721C7.52729 1.80001 7.29873 2.10388 7.29873 2.46033C7.29873 2.91246 7.66658 3.28043 8.11882 3.28043C8.26954 3.28043 8.39215 3.40303 8.39215 3.55375C8.39215 3.70447 8.26954 3.82708 8.11882 3.82708C8.00206 3.82708 7.87593 3.75369 7.7639 3.62028C7.66669 3.50473 7.49429 3.48985 7.37873 3.58698C7.26315 3.68416 7.2482 3.85659 7.34538 3.97214C7.49153 4.14591 7.66338 4.26704 7.84549 4.32816V4.64718C7.84549 4.79822 7.96788 4.9205 8.11882 4.9205C8.26976 4.9205 8.39215 4.79822 8.39215 4.64718V4.32684C8.71035 4.21394 8.93891 3.91007 8.93891 3.55375C8.93891 3.10149 8.57106 2.73366 8.11882 2.73366C7.9681 2.73366 7.84549 2.61102 7.84549 2.46033C7.84549 2.30961 7.9681 2.18689 8.11882 2.18689C8.2157 2.18689 8.31791 2.23633 8.41446 2.32979C8.52302 2.43479 8.69602 2.43189 8.80102 2.3235C8.90602 2.21495 8.90315 2.04194 8.79473 1.93694C8.65596 1.80269 8.51711 1.72673 8.39215 1.6853V1.36688C8.39215 1.21586 8.26973 1.09344 8.11882 1.09344C7.96791 1.09344 7.84549 1.21586 7.84549 1.36688Z" fill="#345A84"/>
</g>
<defs>
<clipPath id="clip0_301_2737">
<rect width="14" height="14" fill="white"/>
</clipPath>
</defs>
</svg>
