<svg width="14" height="14" viewBox="0 0 14 14" fill="none" xmlns="http://www.w3.org/2000/svg">
<path d="M4.10418 5.04058L6.43518 2.36891C6.5056 2.28821 6.59247 2.22352 6.68997 2.1792C6.78747 2.13487 6.89333 2.11194 7.00043 2.11194C7.10753 2.11194 7.21339 2.13487 7.31089 2.1792C7.40839 2.22352 7.49527 2.28821 7.56568 2.36891L9.89668 5.04058L12.1209 3.63591C12.243 3.55918 12.3846 3.51923 12.5288 3.52084C12.673 3.52245 12.8136 3.56554 12.934 3.64497C13.0543 3.72439 13.1492 3.8368 13.2074 3.96874C13.2656 4.10068 13.2845 4.24658 13.2619 4.38899L12.2049 10.9935C12.1651 11.243 12.0376 11.4702 11.8454 11.6342C11.6532 11.7982 11.4088 11.8883 11.1561 11.8883H2.84477C2.32327 11.8883 1.87818 11.5092 1.79593 10.9935L0.738932 4.38899C0.716113 4.24651 0.734872 4.10047 0.792959 3.96838C0.851046 3.83629 0.945996 3.72376 1.06643 3.64427C1.18686 3.56479 1.32766 3.52172 1.47195 3.52024C1.61624 3.51875 1.75789 3.55892 1.87993 3.63591L4.10418 5.04058ZM1.6466 4.52374L2.65985 10.8552C2.6668 10.8993 2.68924 10.9394 2.72314 10.9684C2.75704 10.9974 2.80017 11.0133 2.84477 11.0133H11.1561C11.2007 11.0133 11.2438 10.9974 11.2777 10.9684C11.3116 10.9394 11.3341 10.8993 11.341 10.8552L12.3543 4.52374L10.2735 5.83741C10.1222 5.93298 9.94167 5.97133 9.76455 5.94555C9.58742 5.91978 9.42534 5.83157 9.30752 5.69683L7.00043 3.05199L4.69335 5.69683C4.4501 5.97508 4.04002 6.03516 3.72735 5.83741L1.6466 4.52374Z" fill="#345A84"/>
<path d="M11.689 8.82526C11.805 8.82526 11.9163 8.87135 11.9984 8.9534C12.0804 9.03544 12.1265 9.14672 12.1265 9.26276C12.1265 9.37879 12.0804 9.49007 11.9984 9.57212C11.9163 9.65416 11.805 9.70026 11.689 9.70026H2.3125C2.19647 9.70026 2.08519 9.65416 2.00314 9.57212C1.92109 9.49007 1.875 9.37879 1.875 9.26276C1.875 9.14672 1.92109 9.03544 2.00314 8.9534C2.08519 8.87135 2.19647 8.82526 2.3125 8.82526H11.689Z" fill="#345A84"/>
</svg>
