<svg width="14" height="14" viewBox="0 0 14 14" fill="none" xmlns="http://www.w3.org/2000/svg">
<g clip-path="url(#clip0_301_2745)">
<path d="M11.9709 1.83398C10.7882 0.65124 9.2156 -6.6151e-05 7.54304 5.03932e-09C7.41145 5.03932e-09 7.28525 0.0522749 7.1922 0.145325C7.09915 0.238375 7.04688 0.364578 7.04688 0.49617C7.04688 0.627762 7.09915 0.753965 7.1922 0.847015C7.28525 0.940065 7.41145 0.99234 7.54304 0.99234C8.95058 0.992274 10.2739 1.54038 11.2692 2.53569C12.2646 3.53101 12.8127 4.85439 12.8126 6.262C12.8126 6.39359 12.8649 6.51979 12.9579 6.61285C13.051 6.70591 13.1772 6.75819 13.3088 6.7582C13.4404 6.75821 13.5666 6.70594 13.6596 6.6129C13.7527 6.51985 13.805 6.39365 13.805 6.26206C13.805 4.58931 13.1537 3.01671 11.9709 1.83398Z" fill="#345A84"/>
<path d="M9.92997 6.26207C9.92997 6.53609 10.1521 6.75824 10.4262 6.75817C10.5578 6.75816 10.684 6.70587 10.777 6.61282C10.87 6.51978 10.9223 6.39358 10.9223 6.262C10.9222 4.39905 9.40628 2.88322 7.54319 2.88295C7.47804 2.88295 7.41345 2.89578 7.35325 2.92071C7.29305 2.94564 7.23835 2.98218 7.19227 3.02825C7.09922 3.1213 7.04693 3.2475 7.04692 3.37909C7.04692 3.44425 7.05975 3.50877 7.08468 3.56897C7.10961 3.62917 7.14615 3.68387 7.19223 3.72994C7.2383 3.77602 7.29299 3.81257 7.35319 3.83751C7.41338 3.86245 7.4779 3.87529 7.54306 3.87529C8.8591 3.87549 9.92984 4.94616 9.92997 6.26207ZM8.83204 8.79187C8.07575 8.75271 7.69046 9.31517 7.50568 9.58535C7.46889 9.63913 7.44306 9.69963 7.42965 9.7634C7.41625 9.82716 7.41553 9.89295 7.42755 9.95699C7.43956 10.021 7.46408 10.0821 7.49968 10.1366C7.53529 10.1912 7.5813 10.2382 7.63508 10.275C7.68887 10.3118 7.74937 10.3376 7.81313 10.3511C7.8769 10.3645 7.94268 10.3652 8.00672 10.3532C8.07076 10.3411 8.13181 10.3166 8.18638 10.281C8.24095 10.2454 8.28797 10.1994 8.32476 10.1456C8.54308 9.82642 8.64198 9.77621 8.77614 9.78256C9.20556 9.83304 10.8968 11.0724 11.0662 11.4599C11.1087 11.5741 11.1071 11.6859 11.0615 11.822C10.8839 12.349 10.59 12.7194 10.2113 12.893C9.85157 13.0579 9.41051 13.0429 8.93611 12.8499C7.16465 12.1279 5.617 11.1202 4.33622 9.85494L4.33469 9.85341C3.07204 8.57389 2.06627 7.02822 1.34543 5.25948C1.15233 4.78467 1.13737 4.34355 1.3023 3.98386C1.47589 3.60518 1.84624 3.31125 2.37277 3.13388C2.50932 3.0881 2.62099 3.08665 2.73405 3.12872C3.12298 3.29868 4.36228 4.98989 4.41229 5.41448C4.41944 5.55367 4.36883 5.65251 4.04989 5.87043C3.99537 5.90687 3.94861 5.95376 3.91232 6.00839C3.87603 6.06301 3.85093 6.12429 3.83847 6.18868C3.82601 6.25307 3.82644 6.31929 3.83973 6.38351C3.85302 6.44773 3.87891 6.50868 3.91591 6.56283C3.9529 6.61698 4.00027 6.66326 4.05526 6.699C4.11025 6.73473 4.17178 6.7592 4.23629 6.77101C4.3008 6.78281 4.36702 6.78171 4.4311 6.76777C4.49518 6.75382 4.55586 6.72731 4.60964 6.68977C4.87995 6.50519 5.44228 6.12096 5.40324 5.36208C5.36024 4.5694 3.81828 2.47021 3.0815 2.1993C2.75383 2.07717 2.40916 2.07506 2.05668 2.19334C1.2636 2.46041 0.690821 2.93661 0.400264 3.57038C0.118439 4.18523 0.12737 4.89859 0.426395 5.63372C1.19784 7.52658 2.27718 9.18279 3.63437 10.5565C3.63767 10.5599 3.64105 10.5632 3.64449 10.5664C5.01722 11.9211 6.67152 12.9985 8.56186 13.769C8.94041 13.9229 9.3132 14 9.66971 14C10.0054 14 10.3268 13.9317 10.6249 13.7951C11.2587 13.5046 11.7348 12.9319 12.0021 12.1382C12.1201 11.7864 12.1182 11.4419 11.997 11.1157C11.7252 10.377 9.62598 8.83501 8.83204 8.79187Z" fill="#345A84"/>
</g>
<defs>
<clipPath id="clip0_301_2745">
<rect width="14" height="14" fill="white"/>
</clipPath>
</defs>
</svg>
