<svg width="13" height="13" viewBox="0 0 13 13" fill="none" xmlns="http://www.w3.org/2000/svg">
<g clip-path="url(#clip0_204_3564)">
<path d="M9.59145 7.92269C9.34408 7.66511 9.04569 7.5274 8.72946 7.5274C8.41578 7.5274 8.11485 7.66256 7.85727 7.92014L7.05138 8.72348C6.98508 8.68777 6.91877 8.65462 6.85501 8.62147C6.7632 8.57556 6.67649 8.53221 6.60254 8.4863C5.84766 8.00685 5.16163 7.38203 4.50366 6.5736C4.18488 6.17066 3.97066 5.83147 3.81509 5.48718C4.02421 5.29591 4.21803 5.09699 4.40675 4.90572C4.47816 4.83431 4.54957 4.76036 4.62098 4.68895C5.15653 4.15339 5.15653 3.45972 4.62098 2.92416L3.92475 2.22794C3.84569 2.14888 3.76408 2.06727 3.68758 1.98566C3.53456 1.82755 3.37389 1.66433 3.20813 1.51131C2.96075 1.26649 2.66492 1.13642 2.35379 1.13642C2.04265 1.13642 1.74172 1.26649 1.48669 1.51131L1.48159 1.51641L0.614501 2.39116C0.288066 2.71759 0.101896 3.11543 0.0610921 3.57703C-0.000114359 4.32171 0.219209 5.01538 0.387527 5.46933C0.800671 6.5838 1.41784 7.61666 2.33848 8.72348C3.4555 10.0573 4.79949 11.1105 6.33476 11.8527C6.92132 12.1306 7.70425 12.4596 8.57899 12.5157C8.63255 12.5183 8.68866 12.5208 8.73966 12.5208C9.32877 12.5208 9.82353 12.3092 10.2112 11.8884C10.2137 11.8833 10.2188 11.8807 10.2214 11.8756C10.354 11.7149 10.507 11.5696 10.6677 11.414C10.7773 11.3095 10.8895 11.1998 10.9992 11.085C11.2517 10.8223 11.3843 10.5163 11.3843 10.2026C11.3843 9.8864 11.2491 9.58292 10.9916 9.32789L9.59145 7.92269ZM10.5044 10.6081C10.5019 10.6081 10.5019 10.6107 10.5044 10.6081C10.405 10.7152 10.303 10.8121 10.1933 10.9193C10.0275 11.0774 9.85923 11.2431 9.70111 11.4293C9.44354 11.7047 9.14005 11.8348 8.74221 11.8348C8.70396 11.8348 8.66315 11.8348 8.6249 11.8323C7.86747 11.7838 7.16359 11.488 6.63569 11.2355C5.19224 10.5367 3.92475 9.54466 2.87149 8.28738C2.00185 7.23922 1.42039 6.27012 1.0353 5.22961C0.79812 4.59459 0.711411 4.09984 0.749665 3.63314C0.775168 3.33476 0.88993 3.08738 1.1016 2.87571L1.97124 2.00606C2.09621 1.88875 2.22882 1.825 2.35889 1.825C2.51955 1.825 2.64962 1.92191 2.73123 2.00351L2.73888 2.01117C2.89444 2.15653 3.04236 2.307 3.19792 2.46766C3.27698 2.54927 3.35859 2.63088 3.4402 2.71504L4.13642 3.41126C4.40675 3.68159 4.40675 3.93152 4.13642 4.20185C4.06247 4.2758 3.99106 4.34976 3.9171 4.42117C3.70288 4.64049 3.49886 4.84452 3.27698 5.04344C3.27188 5.04854 3.26678 5.05109 3.26423 5.05619C3.04491 5.27551 3.08571 5.48973 3.13162 5.6351L3.13927 5.65805C3.32034 6.0967 3.57536 6.50984 3.96301 7.00204L3.96556 7.00459C4.66943 7.87169 5.41156 8.54751 6.2302 9.06521C6.33476 9.13152 6.44187 9.18508 6.54388 9.23608C6.63569 9.28199 6.7224 9.32534 6.79636 9.37125C6.80656 9.37635 6.81676 9.384 6.82696 9.3891C6.91367 9.43245 6.99528 9.45285 7.07944 9.45285C7.29111 9.45285 7.42372 9.32024 7.46708 9.27689L8.33927 8.40469C8.42598 8.31798 8.56369 8.21342 8.72436 8.21342C8.88248 8.21342 9.01254 8.31288 9.0916 8.39959L9.0967 8.40469L10.5019 9.80989C10.7646 10.07 10.7646 10.3378 10.5044 10.6081ZM6.57193 3.3118C7.2401 3.42401 7.84707 3.74025 8.33162 4.2248C8.81617 4.70935 9.12985 5.31632 9.24461 5.98449C9.27267 6.1528 9.41803 6.27012 9.5838 6.27012C9.6042 6.27012 9.62206 6.26757 9.64246 6.26502C9.83118 6.23441 9.95614 6.05589 9.92554 5.86717C9.78782 5.05874 9.40528 4.32171 8.82127 3.7377C8.23726 3.15369 7.50023 2.77115 6.69179 2.63343C6.50308 2.60283 6.32711 2.72779 6.29395 2.91396C6.2608 3.10013 6.38321 3.2812 6.57193 3.3118ZM12.1111 5.76771C11.8841 4.43647 11.2568 3.22509 10.2928 2.26109C9.32877 1.29709 8.1174 0.669723 6.78615 0.442749C6.59998 0.409595 6.42402 0.537109 6.39086 0.723279C6.36026 0.911999 6.48522 1.08797 6.67394 1.12112C7.86237 1.32259 8.94623 1.8862 9.80822 2.74564C10.6702 3.60763 11.2313 4.6915 11.4327 5.87993C11.4608 6.04824 11.6062 6.16556 11.7719 6.16556C11.7923 6.16556 11.8102 6.16301 11.8306 6.16045C12.0168 6.1324 12.1443 5.95388 12.1111 5.76771Z" fill="black"/>
</g>
<defs>
<clipPath id="clip0_204_3564">
<rect width="12.0833" height="12.0833" fill="white" transform="translate(0.0416565 0.4375)"/>
</clipPath>
</defs>
</svg>
