<svg width="14" height="14" viewBox="0 0 14 14" fill="none" xmlns="http://www.w3.org/2000/svg">
<g clip-path="url(#clip0_1_4233)">
<path d="M2.85275 9.30626C4.2336 10.9569 5.89585 12.2565 7.79307 13.1761C8.51541 13.5184 9.48143 13.9246 10.5577 13.9942C10.6244 13.9971 10.6882 14 10.7549 14C11.4773 14 12.0575 13.7505 12.5303 13.237C12.5332 13.2341 12.539 13.2283 12.5419 13.2225C12.7102 13.0195 12.9017 12.8367 13.1018 12.6424C13.2382 12.5118 13.3774 12.3755 13.5109 12.2362C14.1288 11.5922 14.1288 10.7741 13.5051 10.1504L11.7616 8.40696C11.4657 8.09946 11.1118 7.93701 10.7404 7.93701C10.3691 7.93701 10.0123 8.09946 9.7077 8.40406L8.66916 9.4426C8.57343 9.38748 8.4748 9.33817 8.38197 9.29175C8.26593 9.23373 8.15859 9.17862 8.06286 9.1177C7.11715 8.5172 6.25847 7.73394 5.4375 6.72731C5.02266 6.20224 4.74417 5.76129 4.54981 5.31165C4.8225 5.06506 5.07778 4.80688 5.32436 4.5545C5.41139 4.46457 5.50132 4.37464 5.59125 4.28471C5.90455 3.9714 6.07281 3.60879 6.07281 3.24036C6.07281 2.87194 5.90745 2.50932 5.59125 2.19602L4.72677 1.33154C4.62523 1.23 4.5295 1.13137 4.43087 1.02984C4.23941 0.832574 4.03924 0.629507 3.84198 0.446747C3.54318 0.15375 3.19216 0 2.82084 0C2.45242 0 2.0985 0.153751 1.7881 0.449648L0.703145 1.5346C0.308615 1.92913 0.0852419 2.40779 0.0388266 2.96187C-0.0162915 3.6552 0.11135 4.39204 0.442059 5.28264C0.949726 6.66059 1.71558 7.93991 2.85275 9.30626ZM0.746659 3.02279C0.781471 2.63697 0.929419 2.31496 1.20791 2.03647L2.28707 0.957315C2.45532 0.794861 2.64098 0.710734 2.82084 0.710734C2.9978 0.710734 3.17766 0.794861 3.34301 0.963116C3.53738 1.14298 3.72014 1.33154 3.9174 1.5317C4.01603 1.63324 4.11757 1.73477 4.2191 1.8392L5.08358 2.70369C5.26344 2.88355 5.35627 3.06631 5.35627 3.24617C5.35627 3.42603 5.26344 3.60879 5.08358 3.78865C4.99365 3.87857 4.90373 3.97141 4.8138 4.06133C4.54401 4.33402 4.29162 4.59221 4.01313 4.83879L3.99863 4.85329C3.75785 5.09407 3.79556 5.32325 3.85358 5.49731C3.85648 5.50601 3.85938 5.51181 3.86228 5.52051C4.08566 6.05719 4.39606 6.56776 4.88052 7.17696C5.7508 8.25031 6.6675 9.08288 7.67704 9.724C7.80178 9.80522 7.93522 9.86904 8.05996 9.93286C8.176 9.99088 8.28333 10.046 8.37907 10.1069C8.39067 10.1127 8.39937 10.1185 8.41098 10.1243C8.50671 10.1736 8.59954 10.1969 8.69237 10.1969C8.92445 10.1969 9.0753 10.0489 9.12461 9.99959L10.2096 8.91463C10.3778 8.74637 10.5606 8.65644 10.7404 8.65644C10.9609 8.65644 11.1408 8.79279 11.2539 8.91463L13.0032 10.661C13.3513 11.0091 13.3484 11.3862 12.9945 11.7547C12.8726 11.8852 12.745 12.0099 12.6087 12.1405C12.4056 12.3378 12.1938 12.5408 12.0024 12.77C11.6687 13.1297 11.2713 13.298 10.7578 13.298C10.7085 13.298 10.6563 13.2951 10.607 13.2922C9.65549 13.2312 8.7707 12.8599 8.10638 12.5437C6.30198 11.6705 4.71806 10.4318 3.40393 8.85951C2.32188 7.55698 1.59374 6.34438 1.11218 5.04476C0.813381 4.247 0.700244 3.60588 0.746659 3.02279Z" fill="#FF9B17"/>
</g>
<defs>
<clipPath id="clip0_1_4233">
<rect width="14" height="14" fill="white"/>
</clipPath>
</defs>
</svg>
