<svg width="8" height="8" viewBox="0 0 8 8" fill="none" xmlns="http://www.w3.org/2000/svg">
<path d="M4.75 1C4.75 0.801088 4.67098 0.610323 4.53033 0.46967C4.38968 0.329018 4.19891 0.25 4 0.25C3.80109 0.25 3.61032 0.329018 3.46967 0.46967C3.32902 0.610323 3.25 0.801088 3.25 1V3.25H1C0.801088 3.25 0.610323 3.32902 0.46967 3.46967C0.329018 3.61032 0.25 3.80109 0.25 4C0.25 4.19891 0.329018 4.38968 0.46967 4.53033C0.610323 4.67098 0.801088 4.75 1 4.75H3.25V7C3.25 7.19891 3.32902 7.38968 3.46967 7.53033C3.61032 7.67098 3.80109 7.75 4 7.75C4.19891 7.75 4.38968 7.67098 4.53033 7.53033C4.67098 7.38968 4.75 7.19891 4.75 7V4.75H7C7.19891 4.75 7.38968 4.67098 7.53033 4.53033C7.67098 4.38968 7.75 4.19891 7.75 4C7.75 3.80109 7.67098 3.61032 7.53033 3.46967C7.38968 3.32902 7.19891 3.25 7 3.25H4.75V1Z" fill="#172638"/>
</svg>
