<svg width="19" height="19" viewBox="0 0 19 19" fill="none" xmlns="http://www.w3.org/2000/svg">
<g clip-path="url(#clip0_1_4669)">
<path d="M11.2407 9.5156L18.639 2.11713C19.1204 1.63588 19.1204 0.857751 18.639 0.376561C18.1578 -0.104687 17.3796 -0.104687 16.8984 0.376561L9.49991 7.77497L2.10168 0.376561C1.6202 -0.104687 0.842357 -0.104687 0.361109 0.376561C-0.12037 0.857809 -0.12037 1.63588 0.361109 2.11713L7.75928 9.5156L0.361167 16.914C-0.120312 17.3953 -0.120312 18.1734 0.361167 18.6546C0.475321 18.7691 0.610971 18.8598 0.760323 18.9217C0.909675 18.9836 1.06978 19.0154 1.23145 19.0152C1.54651 19.0152 1.86169 18.8946 2.10174 18.6546L9.49991 11.2562L16.8984 18.6546C17.0126 18.769 17.1483 18.8598 17.2976 18.9217C17.447 18.9836 17.6071 19.0154 17.7687 19.0152C18.0838 19.0152 18.399 18.8946 18.639 18.6546C19.1204 18.1733 19.1204 17.3953 18.639 16.914L11.2407 9.5156Z" fill="black"/>
</g>
<defs>
<clipPath id="clip0_1_4669">
<rect width="19" height="19" fill="white"/>
</clipPath>
</defs>
</svg>
