<svg width="8" height="8" viewBox="0 0 8 8" fill="none" xmlns="http://www.w3.org/2000/svg">
<path d="M2.27905 7.62041L0.239054 5.62781C0.194929 5.58492 0.159853 5.53362 0.135901 5.47694C0.11195 5.42025 0.0996094 5.35934 0.0996094 5.29781C0.0996094 5.23628 0.11195 5.17536 0.135901 5.11868C0.159853 5.062 0.194929 5.0107 0.239054 4.96781L0.915554 4.30781C1.00627 4.21991 1.12763 4.17076 1.25395 4.17076C1.38027 4.17076 1.50164 4.21991 1.59235 4.30781L2.80675 5.49491L6.21266 0.31691C6.28293 0.212424 6.39108 0.139358 6.51424 0.113158C6.63741 0.0869574 6.76594 0.109675 6.87266 0.176509L7.67786 0.68231C7.73045 0.714648 7.77601 0.757218 7.81184 0.807497C7.84767 0.857775 7.87304 0.914736 7.88644 0.975003C7.89984 1.03527 7.901 1.09761 7.88986 1.15834C7.87871 1.21906 7.85549 1.27693 7.82155 1.32851L3.78865 7.46171C3.70784 7.58176 3.60169 7.68263 3.47768 7.75722C3.35368 7.83182 3.21482 7.87832 3.0709 7.89345C2.92698 7.90858 2.78149 7.89197 2.64468 7.8448C2.50787 7.79762 2.38306 7.72103 2.27905 7.62041Z" fill="white"/>
</svg>
