<svg width="24" height="24" viewBox="0 0 24 24" fill="none" xmlns="http://www.w3.org/2000/svg">
<path d="M21.1875 11.6625L16.5 9.15V4.875C16.5 4.65 16.35 4.5 16.125 4.5H15.75V3C15.75 2.775 15.6 2.625 15.375 2.625H8.625C8.4 2.625 8.25 2.775 8.25 3V4.5H7.875C7.65 4.5 7.5 4.65 7.5 4.875V7.875H3C2.775 7.875 2.625 8.025 2.625 8.25V21C2.625 21.225 2.775 21.375 3 21.375H21C21.225 21.375 21.375 21.225 21.375 21C21.375 11.2875 21.45 11.8125 21.1875 11.6625ZM9 3.375H15V4.5H9V3.375ZM7.5 18H4.875V17.25H7.5V18ZM7.5 14.625H4.875V13.875H7.5V14.625ZM7.5 11.25H4.875V10.5H7.5V11.25ZM3.375 8.625H7.5V9.75H4.5C4.275 9.75 4.125 9.9 4.125 10.125V11.625C4.125 11.85 4.275 12 4.5 12H7.5V13.125H4.5C4.275 13.125 4.125 13.275 4.125 13.5V15C4.125 15.225 4.275 15.375 4.5 15.375H7.5V16.5H4.5C4.275 16.5 4.125 16.65 4.125 16.875V18.375C4.125 18.6 4.275 18.75 4.5 18.75H7.5V20.625H3.375V8.625ZM8.25 5.25H15.75V20.625H14.625V16.875C14.625 16.65 14.475 16.5 14.25 16.5H9.75C9.525 16.5 9.375 16.65 9.375 16.875V20.625H8.25V5.25ZM10.125 20.625V17.25H13.875V20.625H10.125ZM20.625 20.625H16.5V10.0125L20.625 12.225V20.625Z" fill="#FF9B17"/>
<path d="M9.75 8.625H11.25C11.475 8.625 11.625 8.475 11.625 8.25V6.75C11.625 6.525 11.475 6.375 11.25 6.375H9.75C9.525 6.375 9.375 6.525 9.375 6.75V8.25C9.375 8.475 9.525 8.625 9.75 8.625ZM10.125 7.125H10.875V7.875H10.125V7.125ZM12.75 8.625H14.25C14.475 8.625 14.625 8.475 14.625 8.25V6.75C14.625 6.525 14.475 6.375 14.25 6.375H12.75C12.525 6.375 12.375 6.525 12.375 6.75V8.25C12.375 8.475 12.525 8.625 12.75 8.625ZM13.125 7.125H13.875V7.875H13.125V7.125ZM9.75 12H11.25C11.475 12 11.625 11.85 11.625 11.625V10.125C11.625 9.9 11.475 9.75 11.25 9.75H9.75C9.525 9.75 9.375 9.9 9.375 10.125V11.625C9.375 11.85 9.525 12 9.75 12ZM10.125 10.5H10.875V11.25H10.125V10.5ZM12.75 12H14.25C14.475 12 14.625 11.85 14.625 11.625V10.125C14.625 9.9 14.475 9.75 14.25 9.75H12.75C12.525 9.75 12.375 9.9 12.375 10.125V11.625C12.375 11.85 12.525 12 12.75 12ZM13.125 10.5H13.875V11.25H13.125V10.5ZM9.75 15.375H11.25C11.475 15.375 11.625 15.225 11.625 15V13.5C11.625 13.275 11.475 13.125 11.25 13.125H9.75C9.525 13.125 9.375 13.275 9.375 13.5V15C9.375 15.225 9.525 15.375 9.75 15.375ZM10.125 13.875H10.875V14.625H10.125V13.875ZM12.75 15.375H14.25C14.475 15.375 14.625 15.225 14.625 15V13.5C14.625 13.275 14.475 13.125 14.25 13.125H12.75C12.525 13.125 12.375 13.275 12.375 13.5V15C12.375 15.225 12.525 15.375 12.75 15.375ZM13.125 13.875H13.875V14.625H13.125V13.875ZM17.625 15.375H19.125C19.35 15.375 19.5 15.225 19.5 15V13.5C19.5 13.275 19.35 13.125 19.125 13.125H17.625C17.4 13.125 17.25 13.275 17.25 13.5V15C17.25 15.225 17.4 15.375 17.625 15.375ZM18 13.875H18.75V14.625H18V13.875ZM17.625 18.75H19.125C19.35 18.75 19.5 18.6 19.5 18.375V16.875C19.5 16.65 19.35 16.5 19.125 16.5H17.625C17.4 16.5 17.25 16.65 17.25 16.875V18.375C17.25 18.6 17.4 18.75 17.625 18.75ZM18 17.25H18.75V18H18V17.25Z" fill="#FF9B17"/>
</svg>
