<svg width="24" height="24" viewBox="0 0 24 24" fill="none" xmlns="http://www.w3.org/2000/svg">
<g clip-path="url(#clip0_1_3647)">
<mask id="mask0_1_3647" style="mask-type:luminance" maskUnits="userSpaceOnUse" x="0" y="0" width="24" height="24">
<path d="M23.4999 23.5V0.500071H0.5V23.5H23.4999Z" fill="white" stroke="white"/>
</mask>
<g mask="url(#mask0_1_3647)">
<path d="M15.2309 7.56194C15.2309 9.34647 13.7843 10.7931 11.9997 10.7931C10.2152 10.7931 8.76855 9.34647 8.76855 7.56194C8.76855 5.77742 10.2152 4.33077 11.9997 4.33077C13.7843 4.33077 15.2309 5.77742 15.2309 7.56194Z" stroke="#FF9B17" stroke-miterlimit="10" stroke-linecap="round" stroke-linejoin="round"/>
<path d="M17.4297 3.36734C16.1383 1.6986 14.1105 0.70157 12.0002 0.70157C9.88985 0.70157 7.86204 1.6986 6.57064 3.36734C5.11423 5.24984 4.85361 7.51811 5.61908 9.73482C6.35501 11.8658 7.91782 13.6428 9.19563 15.4742C10.1097 16.7843 11.0237 18.0945 11.9378 19.4051L12.0002 19.4942L12.0625 19.4051C12.9766 18.0945 13.8906 16.7843 14.8047 15.4742C16.0825 13.6428 17.6453 11.8658 18.3812 9.73482C19.1467 7.51811 18.8861 5.24984 17.4297 3.36734Z" stroke="#FF9B17" stroke-miterlimit="10" stroke-linecap="round" stroke-linejoin="round"/>
<path d="M7.69941 18.056L5.7002 19.3188L12.0002 23.2985L18.3002 19.3188L16.3009 18.056" stroke="#FF9B17" stroke-miterlimit="10" stroke-linecap="round" stroke-linejoin="round"/>
</g>
</g>
<defs>
<clipPath id="clip0_1_3647">
<rect width="24" height="24" fill="white"/>
</clipPath>
</defs>
</svg>
