<svg width="24" height="24" viewBox="0 0 24 24" fill="none" xmlns="http://www.w3.org/2000/svg">
<path d="M12.129 24C12.0888 24 12.0497 23.9938 12.013 23.9823H4.3871C4.17294 23.9823 4 23.8087 4 23.5952V14.8889C4 14.3167 4.38274 13.8007 4.97548 13.5751L9.17442 11.9722C9.22551 11.9529 9.28009 11.9445 9.33462 11.9477C9.38916 11.9508 9.44243 11.9653 9.49097 11.9904C9.5396 12.0156 9.58229 12.051 9.61619 12.094C9.65009 12.1371 9.67442 12.1869 9.68756 12.2401L12.129 22.0158L14.5713 12.2405C14.5847 12.1862 14.6098 12.1354 14.6447 12.0918C14.6797 12.0481 14.7237 12.0126 14.7737 11.9875C14.8238 11.9626 14.8787 11.9489 14.9346 11.9472C14.9906 11.9456 15.0462 11.956 15.0977 11.9779L19.3414 13.7779C19.898 14.0141 20.2581 14.5205 20.2581 15.068V23.5951C20.2581 23.8087 20.0851 23.9822 19.871 23.9822H12.2451C12.2075 23.994 12.1684 24 12.129 24ZM12.6292 23.2081H19.4839V15.0681C19.4839 14.8282 19.3135 14.6067 19.0391 14.4903L15.2122 12.8672L12.6292 23.2081ZM4.77419 23.2081H11.6289L9.04193 12.8513L5.2511 14.2982C4.96116 14.409 4.77424 14.6407 4.77424 14.8889L4.77419 23.2081Z" fill="#FF9B17"/>
<path d="M12.129 18.2149H12.1282C11.8893 18.2149 11.6831 18.069 11.6018 17.8437L11.0013 16.2337L11.2348 14.2521C11.2673 13.9749 11.2013 13.695 11.0482 13.4616L10.7454 13.0014C10.5314 12.6298 10.5798 12.192 10.8532 11.8917C11.0261 11.7015 11.2809 11.5923 11.5521 11.5923H12.7066C12.9774 11.5923 13.2323 11.7015 13.4056 11.8921H13.406C13.5387 12.0375 13.6219 12.2212 13.6435 12.4169C13.6652 12.6126 13.6241 12.8101 13.5264 12.981L13.2113 13.462C13.0579 13.6951 12.9918 13.975 13.0247 14.2521L13.2578 16.234L12.6562 17.8482C12.5745 18.0693 12.3679 18.2149 12.129 18.2149ZM11.9296 17.5774C11.9288 17.5785 11.9284 17.5796 11.9281 17.5808L11.9296 17.5774ZM12.3273 17.573L12.3287 17.577C12.3284 17.5756 12.3279 17.5743 12.3273 17.573ZM11.7922 16.1381L12.129 17.0419L12.4658 16.1384L12.2549 14.3423C12.2009 13.884 12.3103 13.4214 12.5637 13.0358L12.8659 12.5759C12.8873 12.5373 12.8788 12.4633 12.8323 12.4126C12.806 12.3837 12.7587 12.3665 12.7062 12.3665H11.5517C11.4988 12.3665 11.4516 12.384 11.4253 12.413C11.4028 12.4374 11.3887 12.4684 11.3849 12.5013C11.3812 12.5343 11.3879 12.5676 11.4043 12.5965L11.695 13.0371C11.9479 13.4226 12.0571 13.8847 12.0035 14.3426L11.7922 16.1381ZM12.129 10.8627C9.55159 10.8627 7.45508 8.74955 7.45508 6.15218V4.71092C7.45508 2.11316 9.55159 0 12.129 0C14.7064 0 16.8029 2.11316 16.8029 4.71058V6.15179C16.8029 8.74955 14.7064 10.8627 12.129 10.8627ZM12.129 0.774194C9.97861 0.774194 8.22927 2.54013 8.22927 4.71058V6.15179C8.22927 8.32219 9.97895 10.0881 12.129 10.0881C14.279 10.0881 16.0287 8.32258 16.0287 6.15179V4.71058C16.0287 2.54013 14.2793 0.774194 12.129 0.774194Z" fill="#FF9B17"/>
</svg>
