<svg width="14" height="14" viewBox="0 0 14 14" fill="none" xmlns="http://www.w3.org/2000/svg">
<g clip-path="url(#clip0_304_225)">
<path d="M12.4915 0H1.50847C0.676703 0 0 0.676676 0 1.50845V10.7342C0 11.566 0.676703 12.2427 1.50847 12.2427H5.07281L6.70994 13.8799C6.74802 13.9179 6.79324 13.9482 6.84301 13.9688C6.89277 13.9894 6.94611 14 6.99997 14C7.05384 14 7.10718 13.9894 7.15694 13.9688C7.2067 13.9482 7.25192 13.9179 7.29001 13.8799L8.92716 12.2427H12.4915C13.3233 12.2427 14 11.566 14 10.7342V1.50845C14 0.676676 13.3233 0 12.4915 0ZM13.1797 10.7342C13.1797 11.1137 12.871 11.4224 12.4915 11.4224H8.75727C8.64847 11.4224 8.54416 11.4656 8.46727 11.5425L6.99997 13.0098L5.53273 11.5425C5.49465 11.5044 5.44943 11.4742 5.39967 11.4536C5.3499 11.433 5.29656 11.4224 5.2427 11.4224H1.50847C1.12902 11.4224 0.820312 11.1137 0.820312 10.7342V1.50845C0.820312 1.129 1.12902 0.820312 1.50847 0.820312H12.4915C12.871 0.820312 13.1797 1.129 13.1797 1.50845V10.7342Z" fill="#345A84"/>
<path d="M10.5234 4.71795L8.34307 4.40104L7.36772 2.42512C7.33385 2.3565 7.28145 2.29873 7.21645 2.25833C7.15146 2.21794 7.07645 2.19653 6.99993 2.19653C6.9234 2.19654 6.8484 2.21795 6.78341 2.25835C6.71841 2.29875 6.66602 2.35653 6.63215 2.42515L5.65688 4.40104L3.47641 4.71795C3.40067 4.72896 3.32953 4.76094 3.27102 4.81027C3.21251 4.8596 3.16897 4.92432 3.14532 4.9971C3.12167 5.06988 3.11886 5.14783 3.1372 5.22213C3.15554 5.29643 3.1943 5.36412 3.2491 5.41754L4.827 6.95555L4.45457 9.12721C4.44166 9.20264 4.4501 9.28018 4.47894 9.35106C4.50778 9.42194 4.55587 9.48334 4.61778 9.52832C4.67969 9.5733 4.75294 9.60007 4.82927 9.6056C4.90559 9.61112 4.98194 9.59519 5.04968 9.5596L6.99992 8.53429L8.95035 9.5596C9.00919 9.59055 9.07468 9.60672 9.14116 9.60672H9.14285C9.36887 9.60614 9.55191 9.42272 9.55191 9.19656C9.55191 9.16506 9.54836 9.13438 9.54166 9.1049L9.17282 6.95555L10.7507 5.41757C10.8055 5.36416 10.8443 5.29647 10.8626 5.22217C10.881 5.14787 10.8781 5.06992 10.8545 4.99713C10.8309 4.92433 10.7873 4.8596 10.7288 4.81027C10.6703 4.76093 10.5991 4.72895 10.5234 4.71795ZM8.4458 6.51862C8.39818 6.56504 8.36256 6.62234 8.34201 6.68559C8.32146 6.74885 8.3166 6.81614 8.32784 6.88169L8.59641 8.44674L7.19078 7.70786C7.13192 7.67692 7.06642 7.66075 6.99992 7.66075C6.93342 7.66075 6.86792 7.67692 6.80906 7.70786L5.40357 8.44677L5.67197 6.88166C5.68321 6.81613 5.67834 6.74884 5.65779 6.6856C5.63724 6.62236 5.60163 6.56506 5.55401 6.51865L4.41684 5.41021L5.98826 5.18181C6.05406 5.17225 6.11655 5.14683 6.17034 5.10774C6.22414 5.06866 6.26762 5.01708 6.29705 4.95746L6.99995 3.53337L7.70293 4.95748C7.73236 5.01711 7.77585 5.06868 7.82964 5.10776C7.88343 5.14684 7.94592 5.17225 8.01172 5.18181L9.583 5.41021L8.4458 6.51862Z" fill="#345A84"/>
</g>
<defs>
<clipPath id="clip0_304_225">
<rect width="14" height="14" fill="white"/>
</clipPath>
</defs>
</svg>
