<svg width="14" height="14" viewBox="0 0 14 14" fill="none" xmlns="http://www.w3.org/2000/svg">
<path d="M11.375 4.66667C11.375 4.55 11.305 4.44208 11.1942 4.39833L4.375 1.55458V1.16667C4.375 1.00625 4.24375 0.875 4.08333 0.875C3.92292 0.875 3.79167 1.00625 3.79167 1.16667V12.5388H2.91667C2.75625 12.5388 2.625 12.67 2.625 12.8304C2.625 12.9908 2.75625 13.1221 2.91667 13.1221H5.25C5.41042 13.1221 5.54167 12.9908 5.54167 12.8304C5.54167 12.67 5.41042 12.5388 5.25 12.5388H4.375V7.77875L11.1942 4.93792C11.305 4.89125 11.375 4.78333 11.375 4.66667ZM4.375 7.14583V2.1875L10.325 4.66667L4.375 7.14583Z" fill="#345A84" stroke="#345A84" stroke-width="0.5"/>
</svg>
