<svg width="14" height="14" viewBox="0 0 14 14" fill="none" xmlns="http://www.w3.org/2000/svg">
<path d="M10.385 7.07925C10.3443 7.03775 10.2959 7.00476 10.2424 6.98218C10.1889 6.95961 10.1315 6.9479 10.0734 6.94776C10.0153 6.94761 9.95784 6.95902 9.90423 6.98132C9.85063 7.00362 9.802 7.03637 9.76118 7.07765C9.72036 7.11894 9.68816 7.16793 9.66647 7.22178C9.64478 7.27564 9.63402 7.33327 9.63483 7.39132C9.63563 7.44938 9.64798 7.50669 9.67116 7.55992C9.69434 7.61315 9.72788 7.66123 9.76983 7.70137C10.141 8.06661 10.4355 8.50232 10.636 8.98291C10.8365 9.46351 10.939 9.97931 10.9375 10.5001C10.9375 11.0351 9.40365 11.8126 7.00002 11.8126C4.5964 11.8126 3.06252 11.0347 3.06252 10.4992C3.06103 9.98199 3.16215 9.46963 3.36004 8.99178C3.55792 8.51394 3.84863 8.08009 4.21533 7.71537C4.25712 7.67501 4.29045 7.62674 4.31338 7.57336C4.33631 7.51998 4.34838 7.46257 4.34888 7.40448C4.34939 7.34639 4.33832 7.28878 4.31632 7.23502C4.29432 7.18125 4.26183 7.1324 4.22076 7.09132C4.17968 7.05024 4.13083 7.01776 4.07706 6.99576C4.0233 6.97376 3.96569 6.96269 3.90759 6.9632C3.8495 6.9637 3.7921 6.97577 3.73872 6.9987C3.68534 7.02163 3.63707 7.05496 3.59671 7.09675C3.14843 7.54265 2.79305 8.07304 2.55116 8.65723C2.30927 9.24141 2.18567 9.86778 2.18752 10.5001C2.18752 11.9211 4.66683 12.6876 7.00002 12.6876C9.33321 12.6876 11.8125 11.9211 11.8125 10.5001C11.8145 9.86352 11.6892 9.233 11.444 8.64556C11.1989 8.05811 10.8388 7.52558 10.385 7.07925Z" fill="#345A84"/>
<path d="M7 7.4375C7.60571 7.4375 8.19781 7.25789 8.70143 6.92138C9.20506 6.58487 9.59759 6.10657 9.82938 5.54697C10.0612 4.98737 10.1218 4.3716 10.0037 3.77754C9.88549 3.18347 9.59381 2.63779 9.16551 2.20949C8.73722 1.78119 8.19153 1.48951 7.59746 1.37135C7.0034 1.25318 6.38763 1.31383 5.82803 1.54562C5.26843 1.77741 4.79014 2.16994 4.45362 2.67357C4.11711 3.17719 3.9375 3.7693 3.9375 4.375C3.93843 5.18694 4.26138 5.96536 4.83551 6.53949C5.40964 7.11362 6.18806 7.43657 7 7.4375ZM7 2.1875C7.43265 2.1875 7.85558 2.3158 8.21531 2.55616C8.57504 2.79653 8.85542 3.13817 9.02099 3.53788C9.18655 3.93759 9.22987 4.37743 9.14547 4.80176C9.06106 5.22609 8.85272 5.61587 8.5468 5.9218C8.24087 6.22772 7.85109 6.43606 7.42676 6.52047C7.00243 6.60487 6.56259 6.56155 6.16288 6.39599C5.76317 6.23042 5.42153 5.95004 5.18116 5.59031C4.94079 5.23058 4.8125 4.80765 4.8125 4.375C4.81319 3.79505 5.04389 3.23906 5.45397 2.82897C5.86406 2.41889 6.42005 2.1882 7 2.1875Z" fill="#345A84"/>
</svg>
