<svg width="14" height="14" viewBox="0 0 14 14" fill="none" xmlns="http://www.w3.org/2000/svg">
<path d="M4.10369 5.0407L6.43469 2.36903C6.50511 2.28833 6.59199 2.22364 6.68948 2.17932C6.78698 2.13499 6.89284 2.11206 6.99994 2.11206C7.10705 2.11206 7.2129 2.13499 7.3104 2.17932C7.4079 2.22364 7.49478 2.28833 7.56519 2.36903L9.89619 5.0407L12.1204 3.63603C12.2425 3.5593 12.3841 3.51936 12.5283 3.52096C12.6725 3.52257 12.8132 3.56566 12.9335 3.64509C13.0538 3.72452 13.1488 3.83692 13.2069 3.96886C13.2651 4.1008 13.284 4.2467 13.2614 4.38911L12.2044 10.9936C12.1646 11.2431 12.0372 11.4703 11.8449 11.6343C11.6527 11.7983 11.4083 11.8884 11.1556 11.8884H2.84428C2.32278 11.8884 1.87769 11.5093 1.79544 10.9936L0.738444 4.38911C0.715625 4.24663 0.734383 4.10059 0.79247 3.9685C0.850558 3.83642 0.945508 3.72388 1.06594 3.64439C1.18637 3.56491 1.32717 3.52184 1.47146 3.52036C1.61575 3.51887 1.7574 3.55904 1.87944 3.63603L4.10369 5.0407ZM1.64611 4.52386L2.65936 10.8554C2.66631 10.8994 2.68875 10.9395 2.72265 10.9685C2.75655 10.9975 2.79968 11.0134 2.84428 11.0134H11.1556C11.2002 11.0134 11.2433 10.9975 11.2772 10.9685C11.3111 10.9395 11.3336 10.8994 11.3405 10.8554L12.3538 4.52386L10.273 5.83753C10.1217 5.9331 9.94118 5.97145 9.76406 5.94568C9.58694 5.9199 9.42485 5.83169 9.30703 5.69695L6.99994 3.05211L4.69286 5.69695C4.44961 5.9752 4.03953 6.03528 3.72686 5.83753L1.64611 4.52386Z" fill="#345A84"/>
<path d="M11.6883 8.82544C11.8043 8.82544 11.9156 8.87153 11.9976 8.95358C12.0797 9.03563 12.1258 9.14691 12.1258 9.26294C12.1258 9.37897 12.0797 9.49025 11.9976 9.5723C11.9156 9.65435 11.8043 9.70044 11.6883 9.70044H2.31177C2.19574 9.70044 2.08446 9.65435 2.00241 9.5723C1.92036 9.49025 1.87427 9.37897 1.87427 9.26294C1.87427 9.14691 1.92036 9.03563 2.00241 8.95358C2.08446 8.87153 2.19574 8.82544 2.31177 8.82544H11.6883Z" fill="#345A84"/>
</svg>
