<svg width="14" height="14" viewBox="0 0 14 14" fill="none" xmlns="http://www.w3.org/2000/svg">
<path d="M7.00002 0.411865C4.94119 0.411865 3.29413 2.05892 3.29413 4.11775V5.76481C2.59413 5.76481 2.05884 6.3001 2.05884 7.0001V12.353C2.05884 13.053 2.59413 13.5883 3.29413 13.5883H10.7059C11.4059 13.5883 11.9412 13.053 11.9412 12.353V7.0001C11.9412 6.3001 11.4059 5.76481 10.7059 5.76481V4.11775C10.7059 2.05892 9.05884 0.411865 7.00002 0.411865ZM11.1177 7.0001V12.353C11.1177 12.6001 10.953 12.7648 10.7059 12.7648H3.29413C3.04707 12.7648 2.88237 12.6001 2.88237 12.353V7.0001C2.88237 6.75304 3.04707 6.58834 3.29413 6.58834H10.7059C10.953 6.58834 11.1177 6.75304 11.1177 7.0001ZM4.11766 5.76481V4.11775C4.11766 2.51187 5.39413 1.23539 7.00002 1.23539C8.6059 1.23539 9.88237 2.51187 9.88237 4.11775V5.76481H4.11766Z" fill="#345A84"/>
<path d="M6.99994 7.82373C6.29994 7.82373 5.76465 8.35902 5.76465 9.05902C5.76465 9.59432 6.09406 10.0473 6.58818 10.212V11.1178C6.58818 11.3649 6.75288 11.5296 6.99994 11.5296C7.247 11.5296 7.41171 11.3649 7.41171 11.1178V10.212C7.90583 10.0473 8.23524 9.59432 8.23524 9.05902C8.23524 8.35902 7.69994 7.82373 6.99994 7.82373ZM6.99994 9.47079C6.75288 9.47079 6.58818 9.30608 6.58818 9.05902C6.58818 8.81197 6.75288 8.64726 6.99994 8.64726C7.247 8.64726 7.41171 8.81197 7.41171 9.05902C7.41171 9.30608 7.247 9.47079 6.99994 9.47079Z" fill="#345A84"/>
</svg>
