<svg width="66" height="66" viewBox="0 0 66 66" fill="none" xmlns="http://www.w3.org/2000/svg">
<path d="M33 0C20.1994 0 9.79688 10.4027 9.79688 23.2031C9.79688 27.5344 10.996 31.7498 13.2775 35.3849L31.4271 65.0867C31.7367 65.5895 32.2008 65.899 32.7423 65.9763C33.4768 66.0922 34.2893 65.7829 34.7146 65.0482L52.9161 35.0754C55.0815 31.5177 56.2031 27.3798 56.2031 23.2031C56.2031 10.4027 45.8006 0 33 0ZM33 34.8047C26.5034 34.8047 21.3984 29.5453 21.3984 23.2031C21.3984 16.8221 26.619 11.6016 33 11.6016C39.381 11.6016 44.6016 16.8221 44.6016 23.2031C44.6016 29.5067 39.5741 34.8047 33 34.8047Z" fill="#FD003A"/>
<path d="M33 0V11.6016C39.381 11.6016 44.6016 16.8221 44.6016 23.2031C44.6016 29.5066 39.5741 34.8047 33 34.8047V65.9988C33.6599 66.0141 34.3384 65.6978 34.7145 65.0481L52.916 35.0754C55.0815 31.5177 56.2031 27.3798 56.2031 23.2031C56.2031 10.4027 45.8006 0 33 0Z" fill="#E50027"/>
</svg>
