<svg width="20" height="20" viewBox="0 0 20 20" fill="none" xmlns="http://www.w3.org/2000/svg">
<g clip-path="url(#clip0_1_3597)">
<path d="M19.4135 18.7448C19.1298 18.7448 18.8835 18.5396 18.8361 18.2551C18.4133 15.7863 16.0226 11.4773 9.95831 11.2255V14.3932C9.95831 14.5009 9.92865 14.6065 9.87258 14.6984C9.81652 14.7903 9.73621 14.865 9.64048 14.9142C9.54475 14.9635 9.4373 14.9854 9.32992 14.9776C9.22254 14.9698 9.11939 14.9326 9.03178 14.87L0.245339 8.59396C0.169453 8.53974 0.107603 8.46819 0.0649321 8.38526C0.0222608 8.30233 0 8.21041 0 8.11714C0 8.02388 0.0222608 7.93196 0.0649321 7.84903C0.107603 7.7661 0.169453 7.69455 0.245339 7.64033L9.03182 1.36431C9.11943 1.30174 9.22258 1.26452 9.32995 1.25673C9.43732 1.24893 9.54477 1.27087 9.64049 1.32013C9.73621 1.36939 9.81651 1.44407 9.87258 1.53598C9.92864 1.62788 9.9583 1.73345 9.95831 1.84111V5.05654C13.7069 5.43045 20 8.13623 20 18.1588C20 18.4637 19.7662 18.7176 19.4624 18.7428C19.446 18.7441 19.4297 18.7448 19.4135 18.7448Z" fill="#345A84"/>
</g>
<defs>
<clipPath id="clip0_1_3597">
<rect width="20" height="20" fill="white"/>
</clipPath>
</defs>
</svg>
