<svg width="19" height="19" viewBox="0 0 19 19" fill="none" xmlns="http://www.w3.org/2000/svg">
<path d="M18.8201 17.9663L13.9145 13.1392C15.1991 11.7436 15.9884 9.89776 15.9884 7.86665C15.9878 3.52174 12.409 0 7.99391 0C3.57884 0 0 3.52174 0 7.86665C0 12.2116 3.57884 15.7333 7.99391 15.7333C9.90152 15.7333 11.6511 15.0735 13.0255 13.9766L17.9501 18.8227C18.19 19.0591 18.5796 19.0591 18.8195 18.8227C18.8766 18.767 18.922 18.7004 18.953 18.6269C18.984 18.5534 18.9999 18.4744 19 18.3946C19.0001 18.3149 18.9842 18.2359 18.9533 18.1623C18.9224 18.0888 18.8771 18.0221 18.8201 17.9663ZM7.99391 14.523C4.25828 14.523 1.22998 11.5428 1.22998 7.86665C1.22998 4.19046 4.25828 1.21033 7.99391 1.21033C11.7296 1.21033 14.7578 4.19046 14.7578 7.86665C14.7578 11.5428 11.7296 14.523 7.99391 14.523Z" fill="#172638"/>
</svg>
