<svg width="512" height="512" viewBox="0 0 512 512" fill="none" xmlns="http://www.w3.org/2000/svg">
<mask id="mask0_919_73" style="mask-type:luminance" maskUnits="userSpaceOnUse" x="0" y="0" width="512" height="512">
<path d="M0 0.00149536H511.999V512H0V0.00149536Z" fill="white"/>
</mask>
<g mask="url(#mask0_919_73)">
<path d="M255.999 177.335C212.553 177.335 177.332 212.555 177.332 256.002C177.332 299.448 212.553 334.667 255.999 334.667C299.445 334.667 334.666 299.448 334.666 256.002C334.666 212.555 299.445 177.335 255.999 177.335ZM476.8 199.865L455.501 217.399C431.205 237.4 431.205 274.603 455.501 294.604L476.8 312.138C484.348 318.351 486.297 329.111 481.409 337.578L439.352 410.423C434.463 418.89 424.17 422.582 415.016 419.152L389.181 409.474C359.712 398.434 327.493 417.035 322.319 448.076L317.784 475.289C316.177 484.932 307.833 492.001 298.057 492.001H213.941C204.165 492.001 195.821 484.932 194.214 475.289L189.678 448.076C184.505 417.035 152.286 398.434 122.817 409.474L96.9834 419.152C87.8275 422.582 77.5345 418.89 72.6455 410.423L30.5886 337.578C25.7006 329.111 27.6496 318.351 35.1976 312.138L56.4976 294.604C80.7925 274.603 80.7925 237.4 56.4976 217.399L35.1976 199.865C27.6496 193.651 25.7006 182.891 30.5886 174.424L72.6455 101.579C77.5345 93.1122 87.8275 89.4202 96.9834 92.8502L122.817 102.528C152.286 113.568 184.505 94.9671 189.678 63.9262L194.214 36.7133C195.821 27.0703 204.165 20.0024 213.941 20.0024H298.057C307.833 20.0024 316.177 27.0703 317.784 36.7133L322.319 63.9262C327.493 94.9671 359.712 113.568 389.181 102.528L415.016 92.8502C424.17 89.4202 434.463 93.1122 439.352 101.579L481.409 174.424C486.297 182.891 484.348 193.651 476.8 199.865Z" fill="#172638"/>
</g>
</svg>
