<svg width="23" height="23" viewBox="0 0 23 23" fill="none" xmlns="http://www.w3.org/2000/svg">
<path d="M0.918699 8.00425C0.78754 8.04987 0.671816 8.13139 0.584693 8.23952C0.497569 8.34766 0.442543 8.47808 0.425873 8.61594C0.409204 8.7538 0.43156 8.89358 0.490399 9.01936C0.549238 9.14515 0.642197 9.25189 0.758703 9.32746L7.36646 12.8579C7.48962 12.9237 7.62883 12.9534 7.76811 12.9436C7.90738 12.9338 8.04107 12.8849 8.15379 12.8025L15.0582 7.74129C15.392 7.51131 15.8002 7.9089 15.579 8.24864L10.7005 15.2833C10.6211 15.3981 10.5757 15.5331 10.5696 15.6726C10.5634 15.812 10.5967 15.9504 10.6657 16.0718L14.3681 22.5848C14.4467 22.6993 14.5559 22.7894 14.6832 22.8449C14.8104 22.9004 14.9508 22.9191 15.0881 22.8988C15.2255 22.8786 15.3544 22.8201 15.4603 22.7302C15.5661 22.6403 15.6445 22.5225 15.6867 22.3902L22.2381 1.84227C22.2798 1.71107 22.2841 1.57086 22.2507 1.43732C22.2172 1.30378 22.1473 1.18218 22.0487 1.08612C21.9501 0.990059 21.8267 0.923331 21.6923 0.893395C21.558 0.863461 21.4179 0.871502 21.2878 0.916618L0.918699 8.00425Z" fill="white"/>
</svg>
