<svg width="48" height="48" viewBox="0 0 48 48" fill="none" xmlns="http://www.w3.org/2000/svg">
<g clip-path="url(#clip0_1_3432)">
<path d="M10.9662 8.85667C11.1527 8.85667 11.3315 8.78259 11.4634 8.65073C11.5953 8.51887 11.6693 8.34003 11.6693 8.15355C11.6693 7.96707 11.5953 7.78822 11.4634 7.65636C11.3315 7.5245 11.1527 7.45042 10.9662 7.45042C10.7797 7.45042 10.6009 7.5245 10.469 7.65636C10.3372 7.78822 10.2631 7.96707 10.2631 8.15355C10.2631 8.34003 10.3372 8.51887 10.469 8.65073C10.6009 8.78259 10.7797 8.85667 10.9662 8.85667ZM5.34122 8.85667C5.5277 8.85667 5.70654 8.78259 5.8384 8.65073C5.97026 8.51887 6.04434 8.34003 6.04434 8.15355C6.04434 7.96707 5.97026 7.78822 5.8384 7.65636C5.70654 7.5245 5.5277 7.45042 5.34122 7.45042C5.15474 7.45042 4.9759 7.5245 4.84403 7.65636C4.71217 7.78822 4.63809 7.96707 4.63809 8.15355C4.63809 8.34003 4.71217 8.51887 4.84403 8.65073C4.9759 8.78259 5.15474 8.85667 5.34122 8.85667ZM8.15372 8.85667C8.3402 8.85667 8.51904 8.78259 8.6509 8.65073C8.78276 8.51887 8.85684 8.34003 8.85684 8.15355C8.85684 7.96707 8.78276 7.78822 8.6509 7.65636C8.51904 7.5245 8.3402 7.45042 8.15372 7.45042C7.96724 7.45042 7.7884 7.5245 7.65653 7.65636C7.52467 7.78822 7.45059 7.96707 7.45059 8.15355C7.45059 8.34003 7.52467 8.51887 7.65653 8.65073C7.7884 8.78259 7.96724 8.85667 8.15372 8.85667ZM7.9995 16.3054L8.01244 16.3055L14.3695 16.3071H14.3699C14.8091 16.3071 15.182 16.0225 15.2979 15.599C15.414 15.1752 15.2378 14.7403 14.8598 14.5167L13.893 13.9447C14.6644 13.1806 15.2753 12.2701 15.6899 11.2666C16.1044 10.2631 16.3143 9.18687 16.3072 8.10114C16.2793 3.69789 12.6754 0.0642346 8.27344 0.000859615C3.71203 -0.0646716 0 3.62505 0 8.15373C0 12.4965 3.57825 16.2114 7.9995 16.3054ZM3.41719 3.34811C4.71375 2.07011 6.4275 1.38152 8.25328 1.40692C11.8958 1.45933 14.8778 4.46627 14.9009 8.10995C14.9073 9.08095 14.7039 10.0419 14.3048 10.9271C13.9056 11.8122 13.32 12.6008 12.588 13.2388C12.4657 13.3458 12.3704 13.4802 12.31 13.6311C12.2495 13.7819 12.2257 13.9449 12.2403 14.1068C12.2553 14.2684 12.3085 14.4242 12.3953 14.5614C12.4821 14.6986 12.6001 14.8133 12.7398 14.8961L12.7468 14.9003L8.01937 14.8991C4.36481 14.829 1.40625 11.8183 1.40625 8.15373C1.40625 6.33302 2.12044 4.62639 3.41719 3.34811ZM47.2969 46.5938H46.5938V36.1228C46.5938 33.3795 44.9727 30.8884 42.4561 29.7729L38.7505 28.1846C39.6522 27.9001 40.4668 27.3927 41.1296 26.689C42.1297 25.6272 42.7031 24.1866 42.7031 22.7364C42.7031 21.4038 42.2376 20.146 41.3566 19.0988C40.2537 17.7876 39.6486 16.1294 39.6478 14.416V11.0467C39.6478 8.09561 38.4985 5.32173 36.4118 3.23608C34.3252 1.1492 31.551 1.58653e-05 28.6003 1.58653e-05C22.5092 1.58653e-05 17.5538 4.95545 17.5538 11.0466V14.3063C17.5541 16.077 16.8582 17.7672 15.7274 19.1297C14.3042 20.8444 14.0085 23.1627 14.9558 25.18C15.659 26.6773 16.9272 27.7531 18.4455 28.2085L14.7658 29.8086C12.1842 30.895 10.516 33.4066 10.516 36.2073V44.4845C10.516 44.8728 10.8307 45.1876 11.2192 45.1876C11.6076 45.1876 11.9223 44.8728 11.9223 44.4845V36.2073C11.9223 33.974 13.2525 31.971 15.3189 31.1015L19.9313 29.0958V33.3281H17.8122C17.5165 33.3283 17.2241 33.3906 16.9539 33.511C16.6838 33.6313 16.4419 33.807 16.244 34.0268C16.0463 34.2467 15.8971 34.5058 15.8059 34.7871C15.7147 35.0684 15.6837 35.3657 15.7147 35.6598L16.8737 46.5938H0.703125C0.314719 46.5938 0 46.9086 0 47.2969C0 47.6852 0.314719 48 0.703125 48H47.2969C47.6853 48 48 47.6852 48 47.2969C48 46.9086 47.6853 46.5938 47.2969 46.5938ZM40.2807 20.0042C40.9455 20.7945 41.2969 21.7392 41.2969 22.7363C41.2969 23.8319 40.8628 24.9211 40.106 25.7247C39.3046 26.5755 38.2037 27.0441 37.006 27.0441H36.0897L34.8861 26.5282C34.3744 26.309 33.9286 25.9605 33.5923 25.5168C33.2561 25.0732 33.0411 24.5497 32.9684 23.9979C35.1379 22.8297 36.616 20.5372 36.616 17.9053V12.6194C36.8212 12.6336 37.0268 12.6408 37.2324 12.641C37.5706 12.641 37.9074 12.6218 38.2417 12.5839V14.416C38.2425 16.4606 38.9646 18.4395 40.2807 20.0042ZM28.7712 31.1043C26.2607 31.1489 23.7569 30.8303 21.3375 30.1584V28.4843L21.5408 28.3959L21.5457 28.3938L22.8001 27.8484C23.4793 27.5532 24.0776 27.099 24.5444 26.5241C25.0112 25.9492 25.3329 25.2704 25.4823 24.5451C26.1085 24.7276 26.7575 24.8203 27.4098 24.8204H29.7009C30.3557 24.8203 31.0071 24.7269 31.6355 24.543C31.7898 25.2653 32.1153 25.9399 32.5845 26.5103C33.0537 27.0806 33.653 27.53 34.3319 27.8207L35.6707 28.3945L35.6732 28.3955L35.7724 28.438V30.0202C33.4988 30.6981 31.1434 31.0628 28.7712 31.1043ZM35.7722 31.4842V33.3282H21.3375V31.6145C23.7709 32.2531 26.2804 32.5545 28.7958 32.5104C31.1556 32.4691 33.5004 32.1242 35.7722 31.4842ZM38.2416 11.166C36.3048 11.4277 34.1216 10.9089 32.6175 9.74345C32.47 9.63076 32.2839 9.58098 32.0998 9.60498C31.9157 9.62898 31.7486 9.7248 31.6349 9.87155C31.5212 10.0183 31.4701 10.2041 31.4928 10.3883C31.5156 10.5726 31.6103 10.7403 31.7562 10.855C32.7396 11.6169 33.9256 12.1535 35.2098 12.424V16.252C34.8719 17.022 34.4958 17.6624 33.6478 18.362C33.292 18.6553 32.9001 18.9017 32.4816 19.0952C32.1398 18.4284 31.4458 17.9707 30.6465 17.9707H28.9988C27.8622 17.9707 26.9377 18.8953 26.9377 20.0318C26.9377 21.1682 27.8622 22.0929 28.9988 22.0929H30.6465C31.6029 22.0929 32.4092 21.4379 32.6407 20.5531C33.5812 20.1947 35.1149 18.9161 35.1153 18.9157C34.6391 21.472 32.3932 23.4138 29.701 23.4138H27.4097C24.3722 23.4138 21.9009 20.9426 21.9009 17.905V12.47C24.289 12.0956 26.5451 11.2875 28.6142 10.0637C31.7646 8.20023 33.7853 5.76517 35.0048 3.84133C37.0914 5.69973 38.2784 8.36402 38.2416 11.166ZM31.3012 20.0337C31.3001 20.394 31.0069 20.6868 30.6464 20.6868H28.9987C28.6375 20.6868 28.3438 20.393 28.3438 20.032C28.3438 19.6709 28.6376 19.3771 28.9987 19.3771H30.6464C31.0068 19.3771 31.2999 19.6697 31.3012 20.0298V20.0337ZM18.96 11.0466C18.96 5.73086 23.2846 1.40627 28.6003 1.40627C30.5067 1.40627 32.3285 1.95658 33.8852 2.98108C32.7629 4.78005 30.8739 7.09342 27.8982 8.85367C25.8568 10.0612 23.6176 10.8321 21.2425 11.145H18.9599V11.0466H18.96ZM16.2286 24.5822C15.5156 23.0636 15.7382 21.3185 16.8086 20.0289C18.1518 18.4106 18.9615 16.4111 18.96 14.3063V12.5513H20.4947V17.9053C20.4947 20.5387 21.9747 22.8324 24.1462 23.9998C24.079 24.5556 23.8677 25.0841 23.5332 25.533C23.1987 25.9818 22.7526 26.3354 22.2393 26.5586L21.1229 27.0441H20.1038C18.4266 27.0441 16.9417 26.1008 16.2286 24.5822ZM40.7055 35.5117L39.5307 46.5938H18.2878L17.113 35.5117C17.1021 35.4136 17.1122 35.3144 17.1426 35.2205C17.173 35.1267 17.2231 35.0404 17.2895 34.9674C17.3551 34.8937 17.4356 34.8348 17.5258 34.7946C17.6159 34.7545 17.7135 34.734 17.8122 34.7345H40.0063C40.2083 34.7345 40.394 34.8172 40.5291 34.9674C40.5954 35.0404 40.6455 35.1267 40.6759 35.2205C40.7064 35.3144 40.7164 35.4136 40.7055 35.5117ZM45.1875 46.5938H40.9448L42.1039 35.66C42.1349 35.3659 42.1038 35.0686 42.0126 34.7872C41.9214 34.5059 41.7722 34.2469 41.5746 34.0269C41.3766 33.8071 41.1348 33.6314 40.8646 33.511C40.5945 33.3907 40.3021 33.3284 40.0063 33.3282H37.1784V29.0408L41.8942 31.0619C43.8948 31.9488 45.1875 33.9353 45.1875 36.1228V46.5938ZM28.9092 37.9922C27.4359 37.9922 26.2373 39.1908 26.2373 40.6641C26.2373 42.1374 27.4359 43.336 28.9092 43.336C30.3825 43.336 31.5811 42.1374 31.5811 40.6641C31.5811 39.1908 30.3825 37.9922 28.9092 37.9922ZM28.9092 41.9297C28.2113 41.9297 27.6436 41.362 27.6436 40.6641C27.6436 39.9662 28.2113 39.3985 28.9092 39.3985C29.6071 39.3985 30.1748 39.9662 30.1748 40.6641C30.1748 41.362 29.6072 41.9297 28.9092 41.9297Z" fill="#345A84"/>
</g>
<defs>
<clipPath id="clip0_1_3432">
<rect width="48" height="48" fill="white"/>
</clipPath>
</defs>
</svg>
