<svg width="15" height="15" viewBox="0 0 15 15" fill="none" xmlns="http://www.w3.org/2000/svg">
<g clip-path="url(#clip0_204_3587)">
<path d="M15 2.78465C14.4726 3.01599 13.9107 3.16933 13.3248 3.24378C13.9275 2.88392 14.3875 2.31842 14.6038 1.6368C14.0419 1.97185 13.4214 2.20851 12.7602 2.34058C12.2266 1.77242 11.4661 1.42053 10.6365 1.42053C9.02682 1.42053 7.73096 2.72703 7.73096 4.32869C7.73096 4.55915 7.75046 4.78074 7.79832 4.99169C5.38121 4.8738 3.24241 3.71533 1.80562 1.95058C1.55477 2.38578 1.40764 2.88392 1.40764 3.42017C1.40764 4.42708 1.92616 5.31965 2.69907 5.8364C2.23196 5.82753 1.77371 5.69192 1.38548 5.4783V5.51021C1.38548 6.92308 2.39327 8.09662 3.71484 8.36696C3.47818 8.43167 3.22025 8.46269 2.95257 8.46269C2.76643 8.46269 2.57852 8.45205 2.40214 8.41305C2.77884 9.56444 3.8478 10.4109 5.11884 10.4384C4.12966 11.2122 2.87368 11.6784 1.514 11.6784C1.27557 11.6784 1.04689 11.6678 0.818207 11.6385C2.10609 12.4691 3.63241 12.9433 5.27839 12.9433C10.6285 12.9433 13.5535 8.51144 13.5535 4.66994C13.5535 4.54142 13.549 4.41733 13.5428 4.29412C14.1199 3.88462 14.6047 3.37319 15 2.78465Z" fill="#131736"/>
</g>
<defs>
<clipPath id="clip0_204_3587">
<rect width="14.1818" height="14.1818" fill="white" transform="translate(0.818207 0.0909424)"/>
</clipPath>
</defs>
</svg>
