<?xml version="1.0" standalone="no"?>
<!DOCTYPE svg PUBLIC "-//W3C//DTD SVG 20010904//EN"
 "http://www.w3.org/TR/2001/REC-SVG-20010904/DTD/svg10.dtd">
<svg version="1.0" xmlns="http://www.w3.org/2000/svg"
 width="181.000000pt" height="181.000000pt" viewBox="0 0 181.000000 181.000000"
 preserveAspectRatio="xMidYMid meet">
<metadata>
Created by potrace 1.14, written by Peter Selinger 2001-2017
</metadata>
<g transform="translate(0.000000,181.000000) scale(0.100000,-0.100000)"
fill="#000000" stroke="none">
<path d="M30 1265 c0 -8 -6 -12 -14 -9 -10 4 -14 -1 -13 -15 1 -12 5 -21 9
-21 4 0 8 -5 8 -11 0 -5 -4 -8 -8 -5 -5 3 -9 -1 -9 -9 0 -8 6 -15 12 -15 13 0
12 -40 -1 -61 -5 -8 -3 -9 6 -4 10 6 12 3 7 -14 -4 -18 -2 -21 11 -16 14 5 15
4 5 -6 -14 -14 -18 -43 -5 -35 4 2 8 -7 9 -22 1 -15 3 -36 6 -47 2 -11 -1 -23
-7 -27 -7 -5 -3 -8 9 -8 17 0 17 -2 5 -10 -12 -8 -12 -10 5 -11 11 0 15 -3 8
-5 -8 -4 -9 -13 -3 -29 5 -12 6 -26 2 -30 -3 -3 0 -10 8 -15 9 -6 10 -10 3
-10 -14 0 -9 -36 7 -55 8 -10 7 -14 -2 -18 -11 -4 -10 -6 0 -6 7 -1 10 -6 6
-12 -3 -6 0 -15 7 -20 11 -7 11 -9 1 -9 -8 0 -10 -5 -5 -12 9 -15 13 -33 16
-68 1 -14 6 -30 10 -37 4 -6 1 -14 -5 -17 -7 -4 -3 -4 10 -2 17 3 21 1 13 -8
-8 -9 8 -12 69 -12 43 0 76 4 73 9 -3 4 3 15 13 23 11 9 12 12 4 8 -12 -7 -13
-5 -3 8 7 8 14 27 15 41 1 14 6 23 10 21 4 -3 9 -2 9 3 1 4 3 21 5 37 2 16 7
32 11 35 8 6 15 27 16 49 0 6 4 12 9 12 4 0 8 5 8 11 0 5 -6 7 -12 3 -11 -6
-2 6 31 46 2 3 2 -3 -2 -12 -3 -10 1 -19 11 -23 14 -5 14 -7 2 -15 -12 -8 -11
-10 5 -11 11 0 14 -3 8 -6 -10 -3 -10 -8 1 -19 8 -7 13 -22 12 -31 -2 -10 3
-23 10 -30 7 -7 11 -22 9 -33 -2 -11 0 -18 6 -15 8 5 14 -23 10 -48 0 -4 3 -7
9 -7 5 0 10 -12 10 -27 0 -22 2 -25 10 -13 8 13 10 13 10 -1 0 -12 8 -16 30
-14 16 1 30 -2 30 -7 0 -7 5 -6 13 1 8 6 23 9 34 7 12 -3 29 2 40 10 10 9 12
13 3 9 -10 -4 -9 -2 2 8 10 8 15 17 11 20 -3 4 -1 13 6 21 9 11 9 15 -1 18
-10 4 -8 9 5 22 9 10 17 23 17 29 0 8 -4 7 -9 -2 -7 -10 -9 -7 -8 12 1 14 5
23 10 20 7 -4 12 45 7 76 -1 9 4 12 17 7 16 -5 16 -5 -1 9 -11 8 -14 15 -7 15
7 0 9 5 5 11 -3 6 0 15 7 20 11 7 11 9 1 9 -8 0 -10 5 -6 12 5 7 9 28 11 47 2
19 7 39 12 44 13 13 2 39 -13 30 -6 -3 -2 3 8 16 20 22 26 67 11 91 -5 9 -4
11 3 6 7 -4 12 -2 12 4 0 6 4 9 8 6 5 -3 9 1 9 9 0 8 -4 12 -8 9 -4 -2 -10 0
-13 5 -3 5 0 11 7 14 8 3 12 18 11 36 -1 17 1 31 5 31 4 0 8 7 8 15 0 8 -4 12
-8 9 -4 -2 -9 1 -11 8 -3 8 -30 12 -77 13 -58 1 -74 -2 -81 -16 -5 -9 -6 -19
-3 -23 3 -3 1 -6 -5 -6 -6 0 -9 -9 -7 -20 2 -11 -1 -20 -6 -20 -6 0 -7 -5 -4
-10 4 -6 12 -7 18 -3 7 3 3 -3 -7 -16 -11 -12 -19 -36 -19 -54 0 -18 -7 -41
-16 -52 -15 -19 -15 -19 4 -5 19 15 19 15 1 -14 -14 -21 -15 -30 -6 -36 8 -5
9 -10 2 -14 -6 -3 -9 -17 -7 -31 2 -19 -2 -25 -14 -23 -10 2 -15 -4 -15 -14 1
-10 -2 -18 -7 -18 -8 0 -13 26 -13 72 0 9 -3 15 -8 12 -4 -3 -8 6 -8 20 0 14
-5 26 -11 26 -5 0 -8 4 -4 9 3 5 1 12 -5 16 -15 9 -12 27 3 19 6 -4 1 5 -13
18 -14 14 -29 23 -35 20 -5 -3 -27 -5 -48 -3 -26 2 -37 -1 -33 -8 4 -6 0 -11
-10 -11 -14 0 -14 -3 -4 -16 11 -12 11 -15 -1 -12 -10 2 -14 -7 -14 -29 0 -17
-4 -31 -10 -30 -5 1 -10 -8 -11 -20 -1 -13 -6 -29 -12 -36 -7 -7 -10 -23 -7
-36 2 -14 0 -19 -7 -15 -7 5 -9 -2 -5 -22 5 -26 4 -27 -9 -10 -7 10 -11 23 -8
28 3 5 0 16 -8 25 -11 14 -11 16 2 8 13 -8 13 -7 1 8 -11 14 -11 17 0 17 12 0
12 2 0 9 -11 7 -19 50 -23 121 -1 8 -6 18 -12 22 -7 5 -6 8 4 8 12 0 12 2 2 9
-8 5 -14 30 -15 62 -2 58 -19 87 -56 94 -12 2 -19 0 -16 -6 4 -5 1 -9 -4 -9
-6 0 -11 4 -11 10 0 11 -28 9 -47 -3 -8 -5 -13 -4 -13 2 0 6 -4 11 -10 11 -5
0 -10 -7 -10 -15z m520 -359 c-6 -9 -6 -16 3 -25 9 -10 9 -11 -4 -6 -9 3 -16
17 -16 30 0 16 4 22 14 18 9 -4 10 -9 3 -17z"/>
<path d="M895 1254 c-4 -16 -8 -33 -9 -39 -2 -5 1 -21 6 -34 7 -19 6 -22 -8
-17 -14 6 -15 4 -4 -10 12 -13 11 -17 -1 -25 -12 -8 -6 -13 13 -10 3 0 2 -14
-3 -32 -11 -39 -11 -40 0 -32 6 3 6 -6 1 -25 -6 -21 -5 -30 3 -30 6 0 2 -6 -9
-14 -18 -14 -18 -15 -1 -21 17 -7 17 -8 0 -20 -15 -11 -15 -15 -3 -30 12 -14
12 -18 -1 -26 -12 -8 -7 -13 12 -11 3 1 4 -10 1 -23 -2 -14 -9 -25 -14 -25 -5
0 -6 -5 -3 -10 4 -6 10 -8 15 -5 5 3 5 -8 0 -25 -6 -21 -5 -30 3 -30 6 0 2 -6
-9 -14 -18 -14 -18 -15 -1 -21 17 -7 17 -8 0 -20 -14 -10 -15 -16 -5 -28 7 -8
9 -23 5 -32 -4 -12 -3 -16 5 -11 7 4 8 -2 2 -24 -5 -17 -5 -30 0 -30 5 0 7 -6
5 -13 -4 -9 16 -12 80 -13 47 -1 85 3 85 8 0 5 4 7 9 4 5 -4 7 3 4 14 -3 11 1
28 8 37 11 13 11 15 1 9 -9 -6 -12 -1 -10 16 2 12 7 29 12 37 6 10 5 12 -2 7
-7 -4 -12 -1 -12 9 0 9 5 13 11 9 6 -3 3 6 -7 22 -11 15 -14 25 -7 21 6 -4 14
-3 18 3 3 5 1 10 -6 10 -8 0 -7 5 2 17 12 14 12 16 0 8 -11 -6 -13 -3 -9 13 4
12 2 25 -4 28 -5 3 -3 13 7 24 12 14 13 20 4 26 -8 5 -10 3 -4 -6 5 -9 4 -11
-4 -6 -9 6 -9 11 -1 21 8 10 8 15 0 20 -8 5 -6 14 7 28 10 11 12 17 5 13 -9
-6 -12 -1 -10 16 2 12 7 29 12 37 6 10 5 12 -2 7 -7 -4 -12 -1 -12 9 0 9 5 13
11 9 6 -3 3 6 -7 22 -11 15 -14 25 -7 21 6 -4 14 -3 18 3 3 5 1 10 -6 10 -8 0
-7 5 2 17 12 14 12 16 0 8 -11 -6 -13 -3 -9 13 4 12 2 25 -4 28 -5 3 -3 13 7
24 12 14 13 20 4 26 -8 5 -10 3 -4 -6 6 -9 4 -11 -5 -5 -10 6 -9 11 5 22 12 8
14 13 6 13 -7 0 -11 6 -8 14 3 7 -3 20 -14 29 -13 12 -19 13 -19 4 0 -9 -2 -9
-8 0 -8 13 -29 13 -49 0 -8 -5 -13 -3 -13 4 0 7 -9 5 -22 -7 -19 -15 -20 -16
-9 -1 8 10 9 17 3 17 -6 0 -14 -5 -18 -11 -4 -8 -9 -7 -15 2 -5 9 -10 4 -14
-17z m125 10 c0 -8 -19 -13 -24 -6 -3 5 1 9 9 9 8 0 15 -2 15 -3z m-125 -334
c3 -5 1 -10 -4 -10 -6 0 -11 5 -11 10 0 6 2 10 4 10 3 0 8 -4 11 -10z m0 -240
c3 -5 1 -10 -4 -10 -6 0 -11 5 -11 10 0 6 2 10 4 10 3 0 8 -4 11 -10z"/>
<path d="M1231 1249 c-7 -16 -17 -26 -23 -23 -6 4 -5 -2 1 -15 9 -16 9 -21 -1
-21 -8 0 -9 -3 -3 -8 13 -9 13 -72 0 -72 -5 0 -3 -5 5 -10 13 -9 13 -10 0 -11
-10 0 -8 -3 5 -9 18 -8 18 -9 2 -9 -15 -1 -16 -5 -7 -21 8 -15 8 -20 -2 -20
-8 0 -9 -3 -3 -8 13 -9 13 -72 0 -72 -5 0 -3 -5 5 -10 13 -9 13 -10 0 -11 -10
0 -8 -3 5 -9 18 -8 18 -9 2 -9 -15 -1 -16 -5 -7 -21 8 -15 8 -20 -2 -20 -8 0
-9 -3 -3 -8 13 -9 13 -72 0 -72 -5 0 -3 -5 5 -10 13 -9 13 -10 0 -11 -10 0 -8
-3 5 -9 18 -8 18 -9 2 -9 -15 -1 -16 -5 -7 -21 8 -15 8 -20 -2 -20 -8 0 -9 -3
-3 -8 6 -4 10 -20 10 -37 0 -16 -4 -33 -10 -37 -6 -5 -4 -8 5 -8 13 0 13 -1 0
-10 -10 -6 -11 -10 -2 -10 6 0 12 -5 12 -11 0 -5 -6 -7 -12 -3 -7 4 -5 -2 5
-13 15 -17 28 -21 68 -19 27 2 52 -1 55 -6 3 -4 14 -3 25 2 11 6 16 16 13 22
-5 7 -2 9 8 6 10 -4 14 0 13 13 -1 10 -4 22 -8 25 -10 10 -9 26 1 20 5 -3 9 1
9 9 0 8 -7 15 -16 15 -11 1 -8 5 8 14 15 8 20 16 12 20 -6 4 -11 2 -11 -5 0
-7 -3 -9 -6 -6 -4 4 -1 14 7 24 9 11 10 14 2 9 -7 -4 -13 -2 -13 3 0 6 6 11
13 11 8 0 7 4 -3 10 -11 7 -11 10 -2 10 9 0 10 5 2 19 -12 24 -13 34 -2 27 5
-3 9 1 9 9 0 8 -7 15 -16 15 -11 1 -8 5 8 14 14 8 19 16 13 20 -6 3 -13 0 -15
-6 -3 -7 -4 2 -2 21 1 18 9 37 16 42 22 13 24 1 3 -23 -16 -20 -17 -21 -1 -9
15 12 20 12 32 0 8 -8 16 -24 18 -36 2 -12 7 -26 12 -30 4 -5 5 -2 0 6 -6 10
-4 12 4 7 7 -5 10 -15 7 -23 -3 -8 -1 -11 4 -8 6 3 15 -6 20 -20 13 -33 35
-56 45 -47 5 4 5 1 1 -6 -8 -13 9 -46 39 -76 9 -9 14 -16 10 -16 -3 0 0 -6 7
-14 7 -8 16 -12 20 -9 4 2 5 -2 2 -10 -9 -24 25 -40 86 -41 33 -1 60 -5 60 -9
0 -5 8 -1 18 9 20 20 28 109 9 97 -9 -5 -9 -3 0 8 15 19 15 129 0 148 -9 12
-9 13 1 7 9 -5 12 4 12 34 0 30 -3 39 -12 34 -10 -6 -10 -5 -1 7 15 19 14 171
-1 161 -7 -3 -7 0 0 9 15 19 15 132 1 141 -9 6 -9 8 1 8 6 0 12 7 12 15 0 8
-4 15 -9 15 -5 0 -11 9 -14 19 -5 20 -21 22 -44 8 -8 -5 -13 -3 -13 3 0 6 -5
8 -12 3 -7 -4 -22 -9 -33 -10 -16 -3 -17 -1 -5 7 12 7 10 9 -7 7 -12 0 -19 -5
-17 -9 3 -4 -2 -8 -11 -8 -9 0 -13 -4 -10 -10 3 -5 2 -10 -4 -10 -6 0 -6 -11
-1 -30 5 -18 5 -32 -1 -35 -5 -4 -9 -11 -9 -16 0 -6 4 -8 8 -5 5 3 8 -8 8 -25
0 -20 -4 -28 -12 -25 -8 3 -11 -1 -7 -9 3 -8 9 -12 14 -9 5 3 4 -7 -1 -21 -12
-32 -12 -38 -2 -31 5 3 8 -8 8 -25 0 -22 -3 -28 -14 -24 -12 4 -13 3 -2 -10 7
-8 11 -33 8 -60 -2 -25 0 -47 5 -49 4 -3 2 -3 -5 -2 -7 2 -12 10 -10 20 2 9
-4 16 -13 16 -9 0 -13 5 -10 10 3 6 1 10 -5 10 -7 0 -9 7 -6 17 4 10 4 14 0
11 -8 -8 -34 14 -27 25 2 4 -1 7 -7 7 -7 0 -10 6 -7 13 3 8 -3 20 -14 28 -10
7 -19 19 -19 26 0 7 -4 13 -8 13 -5 0 -14 16 -22 35 -7 19 -17 32 -22 29 -4
-3 -8 2 -8 10 0 9 -4 16 -10 16 -5 0 -9 3 -9 8 3 19 -2 33 -11 27 -5 -3 -10 3
-10 14 0 12 -4 21 -10 21 -5 0 -10 7 -10 16 0 8 -4 12 -10 9 -5 -3 -10 1 -10
9 0 9 -3 16 -7 17 -49 6 -94 5 -99 -3 -4 -7 -9 -6 -13 0 -4 6 -12 -2 -20 -19z
m99 15 c0 -8 -19 -13 -24 -6 -3 5 1 9 9 9 8 0 15 -2 15 -3z m450 0 c0 -8 -19
-13 -24 -6 -3 5 1 9 9 9 8 0 15 -2 15 -3z m-386 -332 c3 -5 -1 -9 -9 -9 -8 0
-12 4 -9 9 3 4 7 8 9 8 2 0 6 -4 9 -8z"/>
<path d="M1210 1249 c0 -5 5 -7 10 -4 6 3 10 8 10 11 0 2 -4 4 -10 4 -5 0 -10
-5 -10 -11z"/>
<path d="M1610 1190 c0 -5 5 -10 11 -10 5 0 7 5 4 10 -3 6 -8 10 -11 10 -2 0
-4 -4 -4 -10z"/>
</g>
</svg>
