<?xml version="1.0" standalone="no"?>
<!DOCTYPE svg PUBLIC "-//W3C//DTD SVG 1.1//EN" "http://www.w3.org/Graphics/SVG/1.1/DTD/svg11.dtd" >
<svg xmlns="http://www.w3.org/2000/svg" xmlns:xlink="http://www.w3.org/1999/xlink" version="1.1">
<metadata></metadata>
<defs>
<font id="proxima_novamedium" horiz-adv-x="477" >
<font-face units-per-em="2048" ascent="1618" descent="-430" />
<missing-glyph horiz-adv-x="528" />
<glyph unicode="&#xfb01;" horiz-adv-x="1083" d="M29 827v162h164v66q0 156 82.5 243.5t218.5 87.5q96 0 161 -36l-43 -138q-34 23 -96 23t-100.5 -46t-38.5 -134v-66h201v-162h-201v-827h-184v827h-164zM725 1239q0 49 35 83t84 34t84 -34t35 -83t-35 -84t-83 -35t-84 35t-36 84zM752 0v989h184v-989h-184z" />
<glyph unicode="&#xfb02;" horiz-adv-x="1083" d="M29 827v162h164v66q0 156 82.5 243.5t218.5 87.5q96 0 161 -36l-43 -138q-34 23 -96 23t-100.5 -46t-38.5 -134v-66h201v-162h-201v-827h-184v827h-164zM752 0v1366h184v-1366h-184z" />
<glyph unicode="&#xfb03;" horiz-adv-x="1689" d="M29 827v162h164v66q0 156 82.5 243.5t218.5 87.5q96 0 161 -36l-43 -138q-38 23 -98 23t-98.5 -46t-38.5 -134v-66h201v-162h-201v-827h-184v827h-164zM635 827v162h164v66q0 158 82 244.5t219 86.5q98 0 160 -36l-43 -138q-33 23 -95 23t-100.5 -46t-38.5 -134v-66h201 v-162h-201v-827h-184v827h-164zM1331 1239q0 49 35 83t84 34t84 -34t35 -83t-35 -84t-83 -35t-84 35t-36 84zM1360 0v989h184v-989h-184z" />
<glyph unicode="&#xfb04;" horiz-adv-x="1689" d="M29 827v162h164v66q0 156 82.5 243.5t218.5 87.5q96 0 161 -36l-43 -138q-38 23 -98 23t-98.5 -46t-38.5 -134v-66h201v-162h-201v-827h-184v827h-164zM635 827v162h164v66q0 158 82 244.5t219 86.5q98 0 160 -36l-43 -138q-33 23 -95 23t-100.5 -46t-38.5 -134v-66h201 v-162h-201v-827h-184v827h-164zM1360 0v1366h184v-1366h-184z" />
<glyph horiz-adv-x="0" />
<glyph horiz-adv-x="0" />
<glyph unicode="&#xd;" horiz-adv-x="681" />
<glyph horiz-adv-x="0" />
<glyph unicode=" "  horiz-adv-x="528" />
<glyph unicode="&#x09;" horiz-adv-x="528" />
<glyph unicode="&#xa0;" horiz-adv-x="528" />
<glyph unicode="!" horiz-adv-x="487" d="M117 107q0 52 36.5 89t88.5 37t90.5 -37.5t38.5 -89t-39 -89t-90.5 -37.5t-88 37.5t-36.5 89.5zM129 1366h227l-34 -967h-158z" />
<glyph unicode="&#x22;" horiz-adv-x="739" d="M104 1285q0 38 31 69.5t76 31.5t76.5 -31.5t31.5 -74.5l-63 -459h-88q-64 426 -64 464zM422 1285q0 38 31.5 69.5t75.5 31.5t75 -31.5t31 -74.5l-64 -459h-86q-63 426 -63 464z" />
<glyph unicode="#" horiz-adv-x="1224" d="M41 362l41 125h215l127 390h-215l37 122h221l121 367h145l-121 -367h215l121 367h146l-123 -367h213l-37 -122h-217l-131 -390h221l-37 -125h-225l-121 -362h-145l124 362h-219l-121 -362h-145l121 362h-211zM440 487h215l129 390h-215z" />
<glyph unicode="$" horiz-adv-x="1226" d="M80 193l117 157q145 -162 354 -186v446q-243 59 -335.5 151.5t-92.5 242.5t118.5 258t309.5 122v189h145v-191q248 -25 408 -186l-121 -152q-115 121 -287 150v-399q98 -27 162 -51.5t170.5 -94t106.5 -262.5q0 -160 -110 -275.5t-329 -131.5v-185h-145v182 q-297 20 -471 216zM334 1018q0 -74 56 -114t161 -70v368q-98 -8 -157.5 -59t-59.5 -125zM696 164q117 12 173.5 71.5t56.5 136.5t-58.5 121t-171.5 78v-407z" />
<glyph unicode="%" horiz-adv-x="1513" d="M61 1046.5q0 145.5 92.5 242.5t240.5 97t241.5 -97t93.5 -242.5t-93.5 -240.5t-241.5 -95t-240.5 95t-92.5 240.5zM201 1049q0 -94 54 -157t139 -63t139.5 63t54.5 157t-54.5 155.5t-139.5 61.5t-139 -61.5t-54 -155.5zM264 0l873 1366h125l-875 -1366h-123zM784 311.5 q0 145.5 93.5 242.5t241 97t240.5 -97t93 -242.5t-93 -241t-240.5 -95.5t-241 95.5t-93.5 241zM924 312q0 -96 54 -157t140 -61t140.5 61.5t54.5 156.5t-54.5 156.5t-140.5 61.5t-140 -61t-54 -157z" />
<glyph unicode="&#x26;" horiz-adv-x="1316" d="M68 360q0 143 78.5 235.5t220.5 168.5q-203 349 -49 485.5t300 136.5t237 -73.5t91 -210.5t-85 -206t-130 -95.5t-129 -69.5q83 -112 295 -352q90 139 141 299l154 -70q-94 -215 -186 -344q92 -100 264 -264h-246q-63 57 -135 131q-173 -156 -375 -156t-324 100.5 t-122 284.5zM264 375q0 -115 76 -182.5t180 -67.5q139 0 262 117q-235 247 -340 403q-178 -113 -178 -270zM453 1060q0 -83 75 -216q123 59 187.5 116.5t64.5 134.5t-42 114.5t-112 37.5t-121.5 -52t-51.5 -135z" />
<glyph unicode="'" horiz-adv-x="421" d="M104 1285q0 38 31 69.5t76 31.5t76.5 -31.5t31.5 -74.5l-63 -459h-88q-64 426 -64 464z" />
<glyph unicode="(" horiz-adv-x="536" d="M88 497.5q0 245.5 79 483.5t220 422l113 -84q-106 -209 -158.5 -397.5t-52.5 -424t52 -424t159 -395.5l-113 -86q-141 182 -220 421t-79 484.5z" />
<glyph unicode=")" horiz-adv-x="536" d="M35 -322q109 205 161 394.5t52 425t-52.5 425t-160.5 396.5l112 84q143 -184 222.5 -421t79.5 -484.5t-79 -485t-223 -420.5z" />
<glyph unicode="*" horiz-adv-x="702" d="M63 979l207 104l-207 107l52 90l194 -125l-10 231h104l-12 -231l195 125l51 -90l-205 -107l205 -104l-51 -90l-195 127l12 -232h-104l10 232l-194 -127z" />
<glyph unicode="+" horiz-adv-x="1024" d="M59 629v123h385v415h136v-415h385v-123h-385v-430h-136v430h-385z" />
<glyph unicode="," horiz-adv-x="487" d="M115 108.5q0 51.5 36.5 88t92.5 36.5t97.5 -46t41.5 -133t-49 -175t-131 -145l-86 71q51 31 91 86.5t48 104.5l-31 -4q-47 0 -78.5 32.5t-31.5 84z" />
<glyph unicode="-" horiz-adv-x="614" d="M61 416v159h492v-159h-492z" />
<glyph unicode="." horiz-adv-x="487" d="M115 106.5q0 53.5 36.5 90t90 36.5t91.5 -37.5t38 -89.5t-38 -90.5t-90 -38.5t-90 38t-38 91.5z" />
<glyph unicode="/" horiz-adv-x="626" d="M0 -41l485 1448h142l-486 -1448h-141z" />
<glyph unicode="0" horiz-adv-x="1257" d="M94 682q0 131 31 253t93.5 225.5t168 164.5t242.5 61t242.5 -61t168 -164.5t93 -225.5t30.5 -253t-30.5 -253t-93 -225.5t-168 -166t-242.5 -62.5t-242.5 62.5t-168 166t-93.5 225.5t-31 253zM303 682q0 -223 79 -373.5t247 -150.5t246.5 150.5t78.5 373.5t-78.5 372.5 t-246.5 149.5t-247 -149.5t-79 -372.5z" />
<glyph unicode="1" horiz-adv-x="735" d="M37 991l366 375h181v-1366h-205v1098l-221 -232z" />
<glyph unicode="2" horiz-adv-x="1210" d="M96 1169q84 104 214 160.5t276 56.5q197 0 337 -108.5t140 -302.5q0 -127 -85 -263.5t-211 -253t-335 -278.5h637v-180h-963v162q213 164 336 265t226.5 204.5t144.5 183.5t41 160q0 113 -78 171t-188 58q-229 0 -371 -168z" />
<glyph unicode="3" horiz-adv-x="1157" d="M53 199l115 133q66 -80 167 -127t228 -47t207 62.5t80 170.5q0 215 -322 215q-127 0 -147 -2v187q23 -3 151 -3t212.5 51.5t84.5 152t-82.5 156.5t-209.5 56q-203 0 -357 -157l-108 127q180 213 483 212q213 0 346 -98t133 -268q0 -131 -90 -213t-207 -102 q115 -10 216.5 -98.5t101.5 -248.5t-135.5 -271.5t-364.5 -111.5q-170 0 -301 63t-201 161z" />
<glyph unicode="4" horiz-adv-x="1165" d="M61 328v168l574 870h280v-858h189v-180h-189v-328h-204v328h-650zM264 508h447v672z" />
<glyph unicode="5" horiz-adv-x="1218" d="M125 190l121 140q139 -172 372 -172q131 0 214 75.5t83 194.5t-79.5 191.5t-212.5 72.5q-178 0 -308 -123l-147 47v750h864v-180h-659v-436q121 120 307 120t314 -117.5t128 -322.5t-141 -330t-360 -125q-324 0 -496 215z" />
<glyph unicode="6" horiz-adv-x="1220" d="M94 680q0 305 149.5 505.5t430.5 200.5q238 0 385 -157l-101 -156q-116 131 -288 131t-270.5 -144.5t-98.5 -348.5q0 -31 2 -45q49 78 153.5 139t221.5 61q195 0 323.5 -114t128.5 -314t-136 -331.5t-338 -131.5t-329.5 100.5t-180 254t-52.5 350.5zM305 508 q14 -143 93.5 -246.5t223.5 -103.5t223 82t79 198t-84 184t-196 68t-198 -50t-141 -132z" />
<glyph unicode="7" horiz-adv-x="1071" d="M59 1186v180h959v-141l-545 -1225h-225l532 1186h-721z" />
<glyph unicode="8" horiz-adv-x="1204" d="M96 348q0 127 90 220.5t226 136.5q-129 39 -211 120.5t-82 204.5q0 174 144.5 265t340.5 91q271 0 377 -119.5t106 -239.5t-82.5 -202t-211.5 -120q135 -43 225 -136.5t90 -220.5q0 -172 -145.5 -272.5t-360.5 -100.5t-360.5 99.5t-145.5 273.5zM303 362q0 -84 87 -144 t212 -60t213 59.5t88 144.5t-80.5 159.5t-218.5 90.5q-140 -16 -220.5 -91t-80.5 -159zM326 999q0 -51 48 -115.5t230 -97.5q78 12 177.5 60.5t99.5 147.5t-79 154.5t-200 55.5t-198.5 -55t-77.5 -150z" />
<glyph unicode="9" horiz-adv-x="1220" d="M88 926q0 198 136 330.5t356 132.5q143 0 250.5 -56.5t201.5 -205.5t94 -448q0 -300 -150.5 -501t-428.5 -201q-238 0 -385 158l98 154q115 -129 287 -129q125 0 249 106t124 385v47q-53 -78 -158 -140t-219 -62q-195 0 -325 116t-130 314zM297 926q0 -116 83.5 -184 t195.5 -68t198 49t139 133q-10 139 -90 244.5t-224 105.5t-223 -82t-79 -198z" />
<glyph unicode=":" horiz-adv-x="487" d="M115 106.5q0 53.5 36.5 90t90 36.5t91.5 -37.5t38 -89.5t-38 -90.5t-90 -38.5t-90 38t-38 91.5zM115 875q0 52 37.5 90.5t89.5 38.5t90.5 -39t38.5 -90.5t-39 -89t-90.5 -37.5t-89 37.5t-37.5 89.5z" />
<glyph unicode=";" horiz-adv-x="487" d="M115 108.5q0 51.5 36.5 88t92.5 36.5t97.5 -46t41.5 -133t-49 -175t-131 -145l-86 71q51 31 91 86.5t48 104.5l-31 -4q-47 0 -78.5 32.5t-31.5 84zM115 875q0 52 37.5 90.5t89.5 38.5t90.5 -39t38.5 -90.5t-39 -89t-90.5 -37.5t-89 37.5t-37.5 89.5z" />
<glyph unicode="&#x3c;" horiz-adv-x="1024" d="M59 618v134l906 436v-148l-760 -356l760 -354v-146z" />
<glyph unicode="=" horiz-adv-x="1024" d="M59 426v123h906v-123h-906zM59 819v123h906v-123h-906z" />
<glyph unicode="&#x3e;" horiz-adv-x="1024" d="M59 184v146l758 354l-758 356v148l906 -436v-134z" />
<glyph unicode="?" horiz-adv-x="942" d="M33 1180q162 207 444 206q186 0 297 -90t111 -229q0 -80 -38 -146.5t-77 -99.5t-102 -78t-87 -64.5t-50.5 -57t-26.5 -84.5t49 -91l-152 -57q-75 74 -75 173t56.5 158.5t122.5 105.5q66 47 92 67t51.5 59.5t25.5 97.5t-56.5 106t-160.5 48q-186 0 -305 -155zM332 106.5 q0 53.5 37 90t90 36.5t91 -37.5t38 -89.5t-38 -90.5t-90 -38.5t-90 38t-38 91.5z" />
<glyph unicode="@" horiz-adv-x="1603" d="M72 500q0 328 245.5 567.5t567.5 239.5q285 0 465 -186.5t180 -456.5q0 -229 -112.5 -359.5t-256.5 -130.5q-84 0 -134 47t-56 115l-2 12q-55 -78 -140.5 -126t-175.5 -48q-143 0 -229 93t-86 243q0 209 146.5 359.5t330.5 150.5q92 0 159.5 -42t100.5 -110l25 121h168 l-115 -538q-4 -25 -4 -59t25.5 -61.5t64.5 -27.5q76 0 144.5 90t68.5 271q0 252 -158.5 410.5t-416.5 158.5q-293 0 -512.5 -220t-219.5 -509q0 -246 166 -411t418 -165q201 0 379 113l39 -55q-201 -129 -426 -129q-279 0 -464 185.5t-185 457.5zM512 522q0 -96 52 -155.5 t145 -59.5q161 0 282 170l58 273q-20 53 -71.5 95t-127.5 42q-141 0 -239.5 -111.5t-98.5 -253.5z" />
<glyph unicode="A" horiz-adv-x="1363" d="M10 0l543 1366h256l543 -1366h-234l-110 283h-654l-110 -283h-234zM414 465h534l-268 692z" />
<glyph unicode="B" horiz-adv-x="1306" d="M152 0v1366h641q178 0 281.5 -97.5t103.5 -235.5t-69 -223t-169 -105q111 -16 187.5 -114.5t76.5 -221.5q0 -166 -105.5 -267.5t-289.5 -101.5h-657zM356 180h408q106 0 167.5 57.5t61.5 152.5t-60.5 155.5t-168.5 60.5h-408v-426zM356 786h398q100 0 156.5 55.5 t56.5 143.5t-56.5 144.5t-156.5 56.5h-398v-400z" />
<glyph unicode="C" horiz-adv-x="1390" d="M94 682q0 311 203 509t506 198q342 0 534 -289l-174 -92q-55 88 -151.5 143t-208.5 55q-215 0 -356.5 -147.5t-141.5 -375.5t141.5 -376.5t356.5 -148.5q113 0 209 55t151 143l174 -92q-196 -289 -534 -289q-303 0 -506 198t-203 509z" />
<glyph unicode="D" horiz-adv-x="1443" d="M152 0v1366h487q315 0 512 -192.5t197 -491.5t-196 -490.5t-513 -191.5h-487zM356 180h283q229 0 363.5 143.5t134.5 360.5t-132.5 359.5t-365.5 142.5h-283v-1006z" />
<glyph unicode="E" horiz-adv-x="1173" d="M152 0v1366h917v-180h-713v-400h699v-180h-699v-426h713v-180h-917z" />
<glyph unicode="F" horiz-adv-x="1138" d="M152 0v1366h917v-180h-713v-400h699v-180h-699v-606h-204z" />
<glyph unicode="G" horiz-adv-x="1464" d="M94 682q0 313 205 510t504 197q338 0 540 -271l-165 -96q-61 82 -160.5 133t-214.5 51q-215 0 -356.5 -147.5t-141.5 -375.5t141.5 -377.5t356.5 -149.5q104 0 196.5 41t149.5 94v246h-438v180h643v-502q-217 -242 -551 -242q-299 0 -504 198t-205 511z" />
<glyph unicode="H" horiz-adv-x="1468" d="M152 0v1366h204v-573h756v573h205v-1366h-205v610h-756v-610h-204z" />
<glyph unicode="I" horiz-adv-x="509" d="M152 0v1366h204v-1366h-204z" />
<glyph unicode="J" horiz-adv-x="978" d="M20 125l99 156q107 -123 235 -123t197.5 72.5t69.5 193.5v942h204v-944q0 -219 -122.5 -333t-336.5 -114t-346 150z" />
<glyph unicode="K" horiz-adv-x="1251" d="M152 0v1366h204v-678l572 678h254l-564 -647l609 -719h-254l-488 594l-129 -145v-449h-204z" />
<glyph unicode="L" horiz-adv-x="1050" d="M152 0v1366h204v-1186h621v-180h-825z" />
<glyph unicode="M" horiz-adv-x="1683" d="M152 0v1366h292l398 -965l397 965h293v-1366h-205v1069l-442 -1069h-86l-443 1069v-1069h-204z" />
<glyph unicode="N" horiz-adv-x="1462" d="M152 0v1366h210l744 -1008v1008h205v-1366h-199l-756 1032v-1032h-204z" />
<glyph unicode="O" horiz-adv-x="1566" d="M94 682q0 307 192.5 507t495.5 200t495.5 -200t192.5 -507t-192.5 -507t-495.5 -200t-495.5 200t-192.5 507zM305 682q0 -229 131 -376.5t345 -147.5t346.5 148.5t132.5 376.5t-132.5 375.5t-347.5 147.5t-345 -147.5t-130 -376.5z" />
<glyph unicode="P" horiz-adv-x="1222" d="M152 0v1366h575q203 0 319.5 -121t116.5 -299t-117.5 -299t-318.5 -121h-371v-526h-204zM356 707h344q111 0 181.5 66.5t70.5 173t-70.5 173t-181.5 66.5h-344v-479z" />
<glyph unicode="Q" horiz-adv-x="1566" d="M94 682q0 307 192.5 507t495.5 200t495.5 -200t192.5 -504t-184 -501l121 -133l-141 -121l-125 138q-160 -92 -359 -93q-303 0 -495.5 200t-192.5 507zM305 682q0 -229 131 -376.5t346 -147.5q123 0 228 55l-183 201l144 121l180 -201q109 141 109 359t-132.5 365.5 t-347.5 147.5t-345 -147.5t-130 -376.5z" />
<glyph unicode="R" horiz-adv-x="1265" d="M152 0v1366h575q195 0 316.5 -115t121.5 -297t-99 -285.5t-241 -121.5l351 -547h-238l-326 526h-256v-526h-204zM356 707h344q111 0 182.5 66.5t71.5 173t-71.5 173t-182.5 66.5h-344v-479z" />
<glyph unicode="S" horiz-adv-x="1208" d="M68 193l116 157q173 -192 427 -192h3q152 0 225.5 62.5t73.5 143.5q0 138 -131.5 177t-197.5 56t-96.5 26.5t-91 30t-130 61t-112.5 110t-43 172.5q0 170 135 279.5t348 109.5q311 0 498 -190l-119 -152q-152 160 -395 160q-115 0 -185.5 -53t-70.5 -130t61 -122t256 -92 q90 -25 138 -39t125 -50t117 -75t71.5 -105.5t31.5 -150.5q0 -176 -128 -294t-388 -118q-341 1 -538 218z" />
<glyph unicode="T" horiz-adv-x="1173" d="M61 1186v180h1051v-180h-422v-1186h-205v1186h-424z" />
<glyph unicode="U" horiz-adv-x="1454" d="M152 535v831h206v-825q0 -178 96.5 -280.5t272.5 -102.5t271.5 102t95.5 281v825h206v-829q0 -262 -146 -412t-427 -150t-428 151t-147 409z" />
<glyph unicode="V" horiz-adv-x="1363" d="M10 1366h234l436 -1143l438 1143h234l-543 -1366h-256z" />
<glyph unicode="W" horiz-adv-x="1828" d="M20 1366h230l282 -1096l299 1096h166l297 -1096l283 1096h229l-389 -1366h-219l-285 1055l-282 -1055h-219z" />
<glyph unicode="X" horiz-adv-x="1343" d="M14 0l525 700l-494 666h248l379 -524l377 524h247l-489 -664l520 -702h-246l-409 557l-410 -557h-248z" />
<glyph unicode="Y" horiz-adv-x="1294" d="M10 1366h236l401 -610l397 610h238l-532 -795v-571h-205v571z" />
<glyph unicode="Z" horiz-adv-x="1202" d="M94 0v168l733 1018h-733v180h998v-168l-734 -1018h748v-180h-1012z" />
<glyph unicode="[" horiz-adv-x="520" d="M86 -389v1778h399v-132h-260v-1515h260v-131h-399z" />
<glyph unicode="\" horiz-adv-x="626" d="M0 1407h141l486 -1448h-142z" />
<glyph unicode="]" horiz-adv-x="520" d="M35 -258h260v1515h-260v132h399v-1778h-399v131z" />
<glyph unicode="^" horiz-adv-x="888" d="M39 682l338 684h137l336 -684h-143l-263 553l-260 -553h-145z" />
<glyph unicode="_" horiz-adv-x="1155" d="M-6 -82h1167v-131h-1167v131z" />
<glyph unicode="`" d="M0 1434h182l295 -295h-135z" />
<glyph unicode="a" horiz-adv-x="1089" d="M90 306q0 156 102.5 238.5t241.5 82.5q211 0 324 -131v163q0 90 -66.5 143.5t-175.5 53.5q-166 0 -297 -131l-80 127q164 162 406 162q176 0 286.5 -84t110.5 -262v-668h-184v109q-121 -133 -324 -134q-135 0 -239.5 87.5t-104.5 243.5zM276 301q0 -88 63.5 -142.5 t164.5 -54.5q170 0 254 113v168q-84 113 -254 113q-100 0 -164 -54.5t-64 -142.5z" />
<glyph unicode="b" horiz-adv-x="1183" d="M147 0v1366h185v-520q122 168 320 168t321 -142t123 -380t-123 -377.5t-320 -139.5t-321 166v-141h-185zM332 283q37 -61 114.5 -102.5t159.5 -41.5q137 0 218 98.5t81 256t-81 257t-218 99.5q-82 0 -158.5 -43t-115.5 -105v-419z" />
<glyph unicode="c" horiz-adv-x="1015" d="M86 495.5q0 225.5 141 372t373 146.5t361 -174l-123 -113q-86 123 -234 123t-236.5 -99.5t-88.5 -255t87.5 -256t235.5 -100.5t236 123l123 -112q-129 -174 -361 -174t-373 147t-141 372.5z" />
<glyph unicode="d" horiz-adv-x="1183" d="M86 492q0 238 123 380t319.5 142t323.5 -168v520h184v-1366h-184v141q-125 -166 -323 -166t-320.5 139.5t-122.5 377.5zM279 494q0 -156 80.5 -255.5t218.5 -99.5q82 0 158.5 41.5t115.5 102.5v422q-39 61 -116 103t-158 42q-137 0 -218 -100t-81 -256z" />
<glyph unicode="e" horiz-adv-x="1146" d="M86 489q0 224 140.5 374.5t357.5 150.5t348 -151.5t131 -383.5v-45h-782q10 -131 101 -219t234 -88q180 0 293 117l86 -121q-152 -147 -386 -147t-378.5 144.5t-144.5 368.5zM279 567h604q-4 115 -81 205t-217 90t-219 -90t-87 -205z" />
<glyph unicode="f" horiz-adv-x="606" d="M29 827v162h164v66q0 156 82.5 243.5t218.5 87.5q96 0 161 -36l-43 -138q-38 23 -98 23t-98.5 -46t-38.5 -134v-66h201v-162h-201v-827h-184v827h-164z" />
<glyph unicode="g" horiz-adv-x="1181" d="M86 502q0 236 123 374t319 138t324 -168v143h184v-950q0 -123 -42 -212t-145.5 -158.5t-303.5 -69.5q-129 0 -224.5 32.5t-181.5 114.5l88 135q115 -131 318 -131q129 0 218 68.5t89 214.5v129q-131 -170 -327 -170t-317.5 137t-121.5 373zM279 502q0 -154 80.5 -250 t218.5 -96q80 0 157.5 43t116.5 104v402q-39 61 -116 103t-158 42q-137 0 -218 -97t-81 -251z" />
<glyph unicode="h" horiz-adv-x="1146" d="M147 0v1366h185v-516q55 68 149 116t201 48q317 0 317 -316v-698h-184v637q-1 213 -201 213q-92 0 -165.5 -42t-116.5 -101v-707h-185z" />
<glyph unicode="i" d="M119 1239q0 49 34.5 83t84 34t84 -34t34.5 -83t-34.5 -84t-82.5 -35t-84 35t-36 84zM147 0v989h185v-989h-185z" />
<glyph unicode="j" d="M-90 -389l22 153q25 -8 68 -8q147 0 147 166v1067h185v-1067q0 -154 -80 -238.5t-229 -84.5q-63 0 -113 12zM119 1239q0 49 34.5 83t84 34t84 -34t34.5 -83t-34.5 -84t-82.5 -35t-84 35t-36 84z" />
<glyph unicode="k" horiz-adv-x="1064" d="M147 0v1366h185v-879l477 502h231l-426 -448l430 -541h-233l-330 426l-149 -152v-274h-185z" />
<glyph unicode="l" d="M147 0v1366h185v-1366h-185z" />
<glyph unicode="m" horiz-adv-x="1679" d="M147 0v989h185v-139q37 57 128.5 110.5t195.5 53.5t171.5 -50.5t92.5 -134.5q47 76 139 130.5t194 54.5q281 0 281 -299v-715h-184v659q0 190 -172 191q-72 0 -139.5 -42t-106.5 -99v-709h-184v659q0 190 -175 191q-68 0 -134 -42t-107 -101v-707h-185z" />
<glyph unicode="n" horiz-adv-x="1144" d="M147 0v989h185v-139q55 68 149 116t201 48q317 0 317 -320v-694h-184v633q0 217 -211 217q-82 0 -155.5 -42t-116.5 -101v-707h-185z" />
<glyph unicode="o" horiz-adv-x="1171" d="M86 494q0 220 137 370t362.5 150t362.5 -149.5t137 -369.5t-137 -370t-362.5 -150t-362.5 149.5t-137 369.5zM279 494q0 -148 83 -251.5t225 -103.5t224 103.5t82 251.5t-82 252t-224 104t-225 -104t-83 -252z" />
<glyph unicode="p" horiz-adv-x="1181" d="M147 -377v1366h185v-141q55 76 140 121t183 45q197 0 319 -139.5t122 -379t-122 -380t-321 -140.5t-321 168v-520h-185zM332 285q39 -61 115.5 -103.5t158.5 -42.5q135 0 216 99.5t81 256.5t-81 256t-216 99q-82 0 -159.5 -42t-114.5 -103v-420z" />
<glyph unicode="q" horiz-adv-x="1181" d="M86 495.5q0 239.5 122 379t320 139.5t324 -166v141h184v-1366h-184v520q-123 -168 -323 -168t-321.5 140.5t-121.5 380zM279 494q0 -156 80.5 -255.5t218.5 -99.5q80 0 157.5 42.5t116.5 103.5v420q-39 61 -116 103t-158 42q-137 0 -218 -100t-81 -256z" />
<glyph unicode="r" horiz-adv-x="692" d="M147 0v989h185v-151q135 174 323 174v-187q-29 6 -81 6t-130.5 -44t-111.5 -99v-688h-185z" />
<glyph unicode="s" horiz-adv-x="958" d="M61 129l89 135q53 -59 145 -100t190 -41t153.5 42t55.5 98t-38 87t-78.5 43.5t-116.5 29.5t-112 26.5t-93 34t-111.5 73t-54.5 167.5q0 120 101.5 205t275.5 85q227 0 377 -142l-82 -129q-45 53 -123 87t-170 34t-147.5 -38t-55.5 -90t35.5 -77t80.5 -38.5t114 -28.5 q70 -16 155.5 -40t153 -88.5t67.5 -190.5q0 -127 -105 -212.5t-294 -85.5q-260 0 -412 154z" />
<glyph unicode="t" horiz-adv-x="626" d="M20 827v162h164v271h185v-271h200v-162h-200v-567q-1 -121 105 -121q56 0 91 39l47 -139q-67 -64 -188 -64q-240 0 -240 244v608h-164z" />
<glyph unicode="u" horiz-adv-x="1144" d="M147 291v698h185v-637q0 -117 53 -165t145 -48t166 40t119 100v710h184v-989h-184v135q-147 -160 -352 -160q-315 0 -316 316z" />
<glyph unicode="v" horiz-adv-x="1017" d="M2 989h197l309 -776l309 776h199l-408 -989h-198z" />
<glyph unicode="w" horiz-adv-x="1523" d="M16 989h193l225 -753l248 753h160l248 -753l225 753h192l-311 -989h-190l-244 760l-244 -760h-190z" />
<glyph unicode="x" horiz-adv-x="1005" d="M16 0l371 508l-348 481h209l256 -356l254 356h209l-351 -481l373 -508h-209l-276 385l-279 -385h-209z" />
<glyph unicode="y" horiz-adv-x="1017" d="M2 989h197l309 -776l309 776h199l-488 -1177q-86 -209 -315 -213q-66 0 -115 14l29 166q37 -16 82 -17q102 0 143 97l58 131z" />
<glyph unicode="z" horiz-adv-x="970" d="M100 0v141l516 686h-516v162h760v-137l-520 -692h528v-160h-768z" />
<glyph unicode="{" horiz-adv-x="548" d="M10 442v115q51 0 79 40t28 101v400q0 129 82 210t190 81h125v-132h-125q-55 0 -94 -45t-39 -114v-416q0 -141 -94 -182q94 -41 94 -183v-415q0 -70 39 -115t94 -45h125v-131h-125q-111 0 -191.5 80t-80.5 209v401q0 61 -28 101t-79 40z" />
<glyph unicode="|" horiz-adv-x="434" d="M152 -41v1448h131v-1448h-131z" />
<glyph unicode="}" horiz-adv-x="548" d="M35 -258h125q55 0 94 45t39 115v415q0 141 94 183q-94 41 -94 182v416q0 72 -38 115.5t-95 43.5h-125v132h125q111 0 192.5 -81t81.5 -210v-400q0 -61 27.5 -101t79.5 -40v-115q-51 0 -79 -40t-28 -101v-401q0 -129 -82 -209t-192 -80h-125v131z" />
<glyph unicode="~" horiz-adv-x="1034" d="M53 874q47 490 279 490q64 0 102.5 -18.5t73 -71t58.5 -123.5q25 -71 36.5 -97t34 -49.5t53.5 -23.5q123 0 156 385l133 -16q-20 -212 -62.5 -311t-96.5 -139t-118 -40q-119 0 -166 73t-70 142q-23 70 -34.5 94.5t-34 48t-53.5 23.5q-123 0 -156 -383z" />
<glyph unicode="&#xa1;" horiz-adv-x="487" d="M117 882q0 52 36.5 90t88 38t90.5 -38t39 -89.5t-38 -89t-90 -37.5t-89 37t-37 89zM131 -377l33 965h158l36 -965h-227z" />
<glyph unicode="&#xa2;" horiz-adv-x="1015" d="M86 495.5q0 202.5 116.5 344t307.5 168.5v149h141v-147q199 -18 310 -170l-123 -113q-70 100 -187 119v-703q113 18 187 119l123 -112q-111 -152 -310 -170v-185h-141v187q-190 27 -307 169t-117 344.5zM279 496q0 -129 62 -222.5t169 -121.5v686q-106 -27 -168.5 -120 t-62.5 -222z" />
<glyph unicode="&#xa3;" horiz-adv-x="1079" d="M41 549v127h195l-3 2q-45 55 -67.5 87t-46 91t-23.5 121q0 174 140.5 291.5t330.5 117.5q309 0 430 -233l-163 -98q-27 68 -94.5 115t-165.5 47t-177.5 -67t-79.5 -171t37 -156.5t72 -97.5l37 -49h305v-127h-242q8 -45 9 -74q0 -158 -150 -258q49 16 111 16 q62 -1 148 -39t143 -38q58 0 109.5 24.5t76.5 55.5l84 -164q-94 -98 -283 -99q-96 1 -198 47q-104 46 -182 46t-228 -80l-72 147q123 53 190.5 131t67.5 150t-28 135h-283z" />
<glyph unicode="&#xa4;" horiz-adv-x="1239" d="M53 1139l113 108l158 -157q128 86 298 86t291 -86l158 157l113 -110l-158 -158q92 -127 92 -297t-92 -297l158 -154l-113 -110l-156 153q-127 -88 -296.5 -88t-296.5 88l-154 -153l-113 110l156 154q-90 127 -90 297t92 297zM307 681q0 -136 84 -232.5t228 -96.5 t227.5 96.5t83.5 233.5t-83 231.5t-227 94.5t-228.5 -95.5t-84.5 -231.5z" />
<glyph unicode="&#xa5;" horiz-adv-x="1294" d="M10 1366h236l401 -610l397 610h238l-453 -672h420v-123h-499v-202h499v-123h-499v-246h-205v246h-498v123h498v202h-498v123h416z" />
<glyph unicode="&#xa6;" horiz-adv-x="434" d="M152 -41v647h131v-647h-131zM152 760v647h131v-647h-131z" />
<glyph unicode="&#xa7;" horiz-adv-x="966" d="M63 -6l87 119q129 -145 323 -146q98 0 159.5 42t61.5 118q0 49 -40 84t-83 49t-121 34t-110.5 29t-141 57.5t-108.5 205.5q0 102 64.5 168.5t160.5 93.5q-225 76 -225 256q0 119 103.5 200.5t273.5 81.5q244 0 375 -143l-80 -110q-104 121 -287 120q-94 0 -151.5 -41 t-57.5 -108t62.5 -92.5t154.5 -48.5q91 -23 128.5 -33t95 -35t111.5 -75.5t54 -168.5q0 -178 -184 -262q184 -72 184 -250q0 -141 -110.5 -223t-288.5 -82q-242 0 -410 160zM266 616q0 -62 44.5 -98t105.5 -51.5t121 -30.5q156 68 155 187q0 74 -58.5 113.5t-156.5 64.5 q-117 -31 -164 -77t-47 -108z" />
<glyph unicode="&#xa8;" horiz-adv-x="569" d="M-35 1241q0 45 31 76t76 31t75.5 -31t30.5 -76t-30.5 -76.5t-75.5 -31.5t-76 31.5t-31 76.5zM389 1241q0 45 32 76t77 31t76.5 -31t31.5 -76t-31.5 -76.5t-76.5 -31.5t-77 31.5t-32 76.5z" />
<glyph unicode="&#xa9;" horiz-adv-x="1593" d="M90 682q0 293 207 500t500 207t499.5 -207t206.5 -500t-206.5 -500t-499.5 -207t-500 207t-207 500zM156 682q0 -264 188 -452.5t452.5 -188.5t453 188.5t188.5 452.5t-188.5 452.5t-453 188.5t-452.5 -188.5t-188 -452.5zM377 684q0 186 124 310t306 124t297 -135 l-57 -53q-39 53 -106 85t-138 32q-141 0 -242.5 -101.5t-101.5 -260.5t101.5 -263.5t242.5 -104.5q74 0 139.5 33t106.5 86l55 -53q-117 -137 -298 -137t-305 126t-124 312z" />
<glyph unicode="&#xaa;" horiz-adv-x="778" d="M78 865q0 99 68.5 154.5t158.5 55.5q137 0 217 -86v105q0 57 -44 92t-111 35q-119 0 -199 -93l-57 91q111 109 276 108q119 0 195.5 -56.5t76.5 -178.5v-424h-137v69q-80 -86 -217 -86q-90 0 -158.5 57.5t-68.5 156.5zM215 864.5q0 -55.5 41 -89.5t104 -34q109 0 162 72 v102q-55 72 -162 72q-61 0 -103 -33.5t-42 -89z" />
<glyph unicode="&#xab;" horiz-adv-x="950" d="M61 498l328 362h178l-327 -362l327 -369h-178zM383 498l328 362h178l-328 -362l328 -369h-178z" />
<glyph unicode="&#xac;" horiz-adv-x="1038" d="M59 819v123h906v-516h-127v393h-779z" />
<glyph unicode="&#xad;" horiz-adv-x="614" d="M61 416v159h492v-159h-492z" />
<glyph unicode="&#xae;" horiz-adv-x="1011" d="M72 952.5q0 180.5 127 307t308 126.5t307 -125t126 -307t-127 -309t-307 -127t-307 127t-127 307.5zM131 953q0 -155 109.5 -265t264.5 -110t264.5 111t109.5 265t-108.5 262.5t-264.5 108.5t-265.5 -108.5t-109.5 -263.5zM340 702v498h203q66 0 111.5 -42t45.5 -112 t-46 -107.5t-81 -37.5l134 -199h-82l-129 197h-90v-197h-66zM406 961h137q37 0 63.5 25.5t26.5 64.5t-26.5 64.5t-63.5 25.5h-137v-180z" />
<glyph unicode="&#xaf;" horiz-adv-x="743" d="M0 1165v113h743v-113h-743z" />
<glyph unicode="&#xb0;" horiz-adv-x="606" d="M45 1128.5q0 106.5 75 182t181.5 75.5t182 -75.5t75.5 -182t-74.5 -181.5t-182.5 -75t-182.5 75t-74.5 181.5zM158 1128.5q0 -59.5 42 -102.5t101 -43t103.5 43t44.5 102.5t-44.5 103.5t-103.5 44t-101 -44t-42 -103.5z" />
<glyph unicode="&#xb1;" horiz-adv-x="1024" d="M59 0v123h906v-123h-906zM59 664v122h385v418h136v-418h385v-122h-385v-431h-136v431h-385z" />
<glyph unicode="&#xb2;" horiz-adv-x="798" d="M92 1563q111 131 309 131q129 0 216.5 -63.5t87.5 -177.5t-97.5 -222.5t-296.5 -251.5h400v-117h-611v107q258 184 359.5 283.5t101.5 176.5t-47 112.5t-118 35.5t-132 -30.5t-94 -76.5z" />
<glyph unicode="&#xb3;" horiz-adv-x="798" d="M80 979l76 92q88 -106 235 -106q84 0 131 34.5t47 94.5q0 129 -202 129q-74 0 -86 -2v118q16 -2 84 -2q193 0 192 119q0 57 -49 89t-125 32q-129 0 -221 -96l-72 86q117 127 307 127q137 0 219 -59.5t82 -149.5t-54 -139.5t-128 -61.5q72 -6 134.5 -57t62.5 -149 t-86.5 -164t-229.5 -66q-219 0 -317 131z" />
<glyph unicode="&#xb4;" d="M0 1139l295 295h182l-342 -295h-135z" />
<glyph unicode="&#xb5;" horiz-adv-x="1173" d="M147 -377v1366h185v-637q0 -215 211 -215q80 0 153.5 41t118.5 101v710h184v-739q0 -51 23.5 -81t55.5 -30t52 4l13 -157q-41 -10 -92 -11q-188 0 -228 177q-53 -78 -134 -127.5t-171 -49.5q-135 0 -186 86v-438h-185z" />
<glyph unicode="&#xb6;" horiz-adv-x="919" d="M55 1013.5q0 145.5 103.5 249t249.5 103.5h380v-1571h-102v1469h-176v-1469h-102v867q-145 0 -249 103t-104 248.5z" />
<glyph unicode="&#xb7;" horiz-adv-x="487" d="M115 501q0 52 37.5 90t89.5 38t90.5 -38t38.5 -90t-39 -90t-90.5 -38t-89 38t-37.5 90z" />
<glyph unicode="&#xb8;" horiz-adv-x="428" d="M0 -332l41 86q74 -59 166 -59q51 0 86 20.5t35 59.5q0 66 -74 65q-45 0 -72 -30l-78 43l64 170h102l-53 -134q33 23 84 23t89 -39t38 -107t-62 -114.5t-174 -46.5t-192 63z" />
<glyph unicode="&#xb9;" horiz-adv-x="512" d="M25 1442l237 239h127v-819h-145v633l-135 -141z" />
<glyph unicode="&#xba;" horiz-adv-x="829" d="M76 990q0 142 93 239.5t246 97.5t246 -97t93 -240.5t-94 -241t-246 -97.5t-245 98.5t-93 240.5zM219 988q0 -99 51.5 -160.5t143.5 -61.5t144 62.5t52 160.5t-52 159.5t-144 61.5t-143.5 -61.5t-51.5 -160.5z" />
<glyph unicode="&#xbb;" horiz-adv-x="950" d="M61 129l328 369l-328 362h179l327 -362l-327 -369h-179zM383 129l328 369l-328 362h178l328 -362l-328 -369h-178z" />
<glyph unicode="&#xbc;" horiz-adv-x="1613" d="M25 1126l237 240h127v-819h-145v633l-135 -142zM240 0l872 1366h125l-875 -1366h-122zM885 197v102l346 520h199v-506h116v-116h-116v-197h-144v197h-401zM1030 313h256v381z" />
<glyph unicode="&#xbd;" horiz-adv-x="1687" d="M25 1126l237 240h127v-819h-145v633l-135 -142zM240 0l872 1366h125l-875 -1366h-122zM977 700q111 131 309 131q129 0 216 -63t87 -178t-97 -223.5t-296 -249.5h399v-117h-608v106q260 186 360.5 284.5t100.5 175.5t-48 113t-118 36t-131 -31t-94 -76z" />
<glyph unicode="&#xbe;" horiz-adv-x="1822" d="M80 664l76 92q88 -106 235 -107q84 0 131 35t47 94q0 129 -202 129q-74 0 -86 -2v119q16 -2 84 -2q193 0 192 119q0 57 -49 89t-125 32q-129 0 -221 -97l-72 86q117 127 307 127q137 0 219 -59t82 -149t-54 -139.5t-128 -61.5q72 -6 134.5 -57.5t62.5 -149.5t-86.5 -164 t-229.5 -66q-219 0 -317 132zM449 0l872 1366h125l-875 -1366h-122zM1096 197v102l346 520h198v-506h115v-116h-115v-197h-143v197h-401zM1239 313h258v381z" />
<glyph unicode="&#xbf;" horiz-adv-x="808" d="M55 -90q0 131 70.5 205t139.5 122t95.5 69.5t52 59t25.5 84.5t-51 89l154 55q75 -70 75 -170q0 -63 -32.5 -118.5t-64.5 -82t-90 -67.5t-85 -63.5t-52.5 -61.5t-25.5 -97t56.5 -105.5t162.5 -47.5q184 0 306 156l118 -134q-162 -205 -444 -204q-186 0 -298 90t-112 221z M354 882q0 52 38 90t89 38t90 -38t39 -90t-38 -89t-90 -37t-90 37t-38 89z" />
<glyph unicode="&#xc0;" horiz-adv-x="1363" d="M10 0l543 1366h256l543 -1366h-234l-110 283h-654l-110 -283h-234zM326 1776h182l295 -295h-135zM414 465h534l-268 692z" />
<glyph unicode="&#xc1;" horiz-adv-x="1363" d="M10 0l543 1366h256l543 -1366h-234l-110 283h-654l-110 -283h-234zM414 465h534l-268 692zM561 1481l295 295h182l-342 -295h-135z" />
<glyph unicode="&#xc2;" horiz-adv-x="1363" d="M10 0l543 1366h256l543 -1366h-234l-110 283h-654l-110 -283h-234zM401 1481l193 295h172l199 -295h-121l-164 207l-158 -207h-121zM414 465h534l-268 692z" />
<glyph unicode="&#xc3;" horiz-adv-x="1363" d="M10 0l543 1366h256l543 -1366h-234l-110 283h-654l-110 -283h-234zM356 1489q0 125 53.5 199.5t138.5 74.5t114.5 -34.5t52.5 -65.5q55 -74 95 -74t65.5 41t25.5 121h105q0 -125 -53.5 -199.5t-144.5 -74.5t-161 100q-55 74 -94 74t-65.5 -41t-26.5 -121h-105zM414 465 h534l-268 692z" />
<glyph unicode="&#xc4;" horiz-adv-x="1363" d="M10 0l543 1366h256l543 -1366h-234l-110 283h-654l-110 -283h-234zM360 1583q0 45 32 76t77 31t75.5 -31t30.5 -76t-30.5 -76.5t-75.5 -31.5t-77 31.5t-32 76.5zM414 465h534l-268 692zM786 1583q0 45 32 76t76 31t77 -32t33 -76t-33 -75.5t-77 -31.5t-76 31.5t-32 76.5z " />
<glyph unicode="&#xc5;" horiz-adv-x="1363" d="M10 0l543 1366h256l543 -1366h-234l-110 283h-654l-110 -283h-234zM414 465h534l-268 692zM477 1618q0 84 60.5 145.5t144.5 61.5t144.5 -61.5t60.5 -145.5t-60.5 -144.5t-144.5 -60.5t-144.5 60.5t-60.5 144.5zM569 1618q0 -47 34 -81t80 -34t79 34t33 81t-33 80t-80 33 t-80 -33t-33 -80z" />
<glyph unicode="&#xc6;" horiz-adv-x="1951" d="M6 0l846 1366h997v-180h-712v-400h698v-180h-698v-426h712v-180h-917v283h-520l-174 -283h-232zM510 465h422v692z" />
<glyph unicode="&#xc7;" horiz-adv-x="1390" d="M94 692q0 301 203 499t506 198q342 0 534 -289l-174 -92q-55 88 -151.5 143t-208.5 55q-215 0 -356.5 -147.5t-141.5 -375.5t141.5 -376.5t356.5 -148.5q113 0 209 55t151 143l174 -92q-186 -279 -510 -289l-30 -77q33 22 83 22t89 -39t39 -107t-62 -114.5t-174 -46.5 t-192 63l41 86q74 -59 165 -59q51 0 86 20.5t35 59.5q0 66 -73 65q-45 0 -72 -30l-78 43l45 119q-276 25 -455.5 218t-179.5 494z" />
<glyph unicode="&#xc8;" horiz-adv-x="1173" d="M152 0v1366h917v-180h-713v-400h699v-180h-699v-426h713v-180h-917zM254 1776h182l295 -295h-135z" />
<glyph unicode="&#xc9;" horiz-adv-x="1173" d="M152 0v1366h917v-180h-713v-400h699v-180h-699v-426h713v-180h-917zM489 1481l295 295h183l-342 -295h-136z" />
<glyph unicode="&#xca;" horiz-adv-x="1173" d="M152 0v1366h917v-180h-713v-400h699v-180h-699v-426h713v-180h-917zM328 1481l192 295h172l199 -295h-121l-164 207l-157 -207h-121z" />
<glyph unicode="&#xcb;" horiz-adv-x="1173" d="M152 0v1366h917v-180h-713v-400h699v-180h-699v-426h713v-180h-917zM289 1583q0 45 31.5 76t75.5 31t76 -31t32 -76t-32 -76.5t-76 -31.5t-75.5 31.5t-31.5 76.5zM715 1583q0 45 31.5 76t75.5 31t76 -31t32 -76t-32 -76.5t-76 -31.5t-75.5 31.5t-31.5 76.5z" />
<glyph unicode="&#xcc;" horiz-adv-x="509" d="M-102 1776h182l295 -295h-135zM152 0v1366h204v-1366h-204z" />
<glyph unicode="&#xcd;" horiz-adv-x="509" d="M137 1481l295 295h182l-342 -295h-135zM152 0v1366h204v-1366h-204z" />
<glyph unicode="&#xce;" horiz-adv-x="509" d="M-25 1481l193 295h172l199 -295h-121l-164 207l-160 -207h-119zM152 0v1366h204v-1366h-204z" />
<glyph unicode="&#xcf;" horiz-adv-x="509" d="M-63 1583q0 45 30.5 76t75.5 31t76 -31t31 -76t-31 -76.5t-76 -31.5t-75.5 31.5t-30.5 76.5zM152 0v1366h204v-1366h-204zM360 1583q0 45 32 76t77 31t77 -31t32 -76t-32 -76.5t-77 -31.5t-77 31.5t-32 76.5z" />
<glyph unicode="&#xd0;" horiz-adv-x="1499" d="M20 596v154h187v616h487q315 0 512 -192.5t197 -491.5t-195.5 -490.5t-513.5 -191.5h-487v596h-187zM412 180h282q229 0 363.5 143.5t134.5 360.5t-132 359.5t-366 142.5h-282v-436h336v-154h-336v-416z" />
<glyph unicode="&#xd1;" horiz-adv-x="1462" d="M152 0v1366h210l744 -1008v1008h205v-1366h-199l-756 1032v-1032h-204zM403 1489q0 125 53.5 199.5t151.5 74.5q37 0 69 -17t46.5 -33.5t36.5 -46.5t42.5 -53.5t53.5 -23.5q90 0 90 162h107q0 -125 -53.5 -199.5t-151.5 -74.5q-39 0 -71 17t-46 33.5t-39 49.5 q-51 74 -92 74t-66.5 -41t-25.5 -121h-105z" />
<glyph unicode="&#xd2;" horiz-adv-x="1566" d="M94 682q0 307 192.5 507t495.5 200t495.5 -200t192.5 -507t-192.5 -507t-495.5 -200t-495.5 200t-192.5 507zM305 682q0 -229 131 -376.5t345 -147.5t346.5 148.5t132.5 376.5t-132.5 375.5t-347.5 147.5t-345 -147.5t-130 -376.5zM428 1776h182l295 -295h-135z" />
<glyph unicode="&#xd3;" horiz-adv-x="1566" d="M94 682q0 307 192.5 507t495.5 200t495.5 -200t192.5 -507t-192.5 -507t-495.5 -200t-495.5 200t-192.5 507zM305 682q0 -229 131 -376.5t345 -147.5t346.5 148.5t132.5 376.5t-132.5 375.5t-347.5 147.5t-345 -147.5t-130 -376.5zM664 1481l294 295h183l-342 -295h-135z " />
<glyph unicode="&#xd4;" horiz-adv-x="1566" d="M94 682q0 307 192.5 507t495.5 200t495.5 -200t192.5 -507t-192.5 -507t-495.5 -200t-495.5 200t-192.5 507zM305 682q0 -229 131 -376.5t345 -147.5t346.5 148.5t132.5 376.5t-132.5 375.5t-347.5 147.5t-345 -147.5t-130 -376.5zM506 1481l192 295h172l199 -295h-121 l-164 207l-159 -207h-119z" />
<glyph unicode="&#xd5;" horiz-adv-x="1566" d="M94 682q0 307 192.5 507t495.5 200t495.5 -200t192.5 -507t-192.5 -507t-495.5 -200t-495.5 200t-192.5 507zM305 682q0 -229 131 -376.5t345 -147.5t346.5 148.5t132.5 376.5t-132.5 375.5t-347.5 147.5t-345 -147.5t-130 -376.5zM459 1489q0 125 53 199.5t152 74.5 q37 0 68.5 -17t46 -33.5t36.5 -46.5t42.5 -53.5t53.5 -23.5q90 0 90 162h107q0 -125 -53.5 -199.5t-151.5 -74.5q-39 0 -70.5 17t-45.5 33.5t-39 49.5q-51 74 -92.5 74t-67 -41t-25.5 -121h-104z" />
<glyph unicode="&#xd6;" horiz-adv-x="1566" d="M94 682q0 307 192.5 507t495.5 200t495.5 -200t192.5 -507t-192.5 -507t-495.5 -200t-495.5 200t-192.5 507zM305 682q0 -229 131 -376.5t345 -147.5t346.5 148.5t132.5 376.5t-132.5 375.5t-347.5 147.5t-345 -147.5t-130 -376.5zM461 1583q0 45 31.5 76t76.5 31t76 -31 t31 -76t-31 -76.5t-76 -31.5t-76.5 31.5t-31.5 76.5zM887 1583q0 45 31.5 76t75.5 31t77 -32t33 -76t-33 -75.5t-77 -31.5t-75.5 31.5t-31.5 76.5z" />
<glyph unicode="&#xd7;" horiz-adv-x="1024" d="M125 383l301 301l-301 299l88 88l299 -301l299 301l88 -88l-299 -299l299 -301l-88 -86l-299 299l-299 -299z" />
<glyph unicode="&#xd8;" horiz-adv-x="1566" d="M94 668q0 322 192.5 521.5t495.5 199.5q190 0 344 -86l45 63h158l-96 -135q238 -203 237 -549q0 -307 -192.5 -507t-495.5 -200q-203 0 -360 95l-47 -70h-158l100 145q-223 201 -223 523zM305 683q0 -228 127 -374l586 838q-102 59 -236 59q-217 0 -347 -147.5 t-130 -375.5zM532 225q109 -67 250 -67q213 0 345.5 148t132.5 380t-140 381z" />
<glyph unicode="&#xd9;" horiz-adv-x="1454" d="M152 535v831h206v-825q0 -178 96.5 -280.5t272.5 -102.5t271.5 102t95.5 281v825h206v-829q0 -262 -146 -412t-427 -150t-428 151t-147 409zM371 1776h182l295 -295h-135z" />
<glyph unicode="&#xda;" horiz-adv-x="1454" d="M152 535v831h206v-825q0 -178 96.5 -280.5t272.5 -102.5t271.5 102t95.5 281v825h206v-829q0 -262 -146 -412t-427 -150t-428 151t-147 409zM606 1481l295 295h182l-342 -295h-135z" />
<glyph unicode="&#xdb;" horiz-adv-x="1454" d="M152 535v831h206v-825q0 -178 96.5 -280.5t272.5 -102.5t271.5 102t95.5 281v825h206v-829q0 -262 -146 -412t-427 -150t-428 151t-147 409zM451 1481l192 295h172l199 -295h-123l-162 207l-160 -207h-118z" />
<glyph unicode="&#xdc;" horiz-adv-x="1454" d="M152 535v831h206v-825q0 -178 96.5 -280.5t272.5 -102.5t271.5 102t95.5 281v825h206v-829q0 -262 -146 -412t-427 -150t-428 151t-147 409zM410 1583q0 45 31.5 76t75.5 31t76 -31t32 -76t-32 -76.5t-76 -31.5t-75.5 31.5t-31.5 76.5zM834 1582q0 44 32.5 76t76.5 32 t76 -31t32 -76t-32 -76.5t-76 -31.5t-76.5 31.5t-32.5 75.5z" />
<glyph unicode="&#xdd;" horiz-adv-x="1294" d="M10 1366h236l401 -610l397 610h238l-532 -795v-571h-205v571zM524 1481l295 295h182l-342 -295h-135z" />
<glyph unicode="&#xde;" horiz-adv-x="1222" d="M152 0v1366h204v-238h371q203 0 319.5 -121.5t116.5 -300t-116.5 -297t-319.5 -118.5h-371v-291h-204zM356 471h344q111 0 181.5 66t70.5 171t-70.5 171.5t-181.5 66.5h-344v-475z" />
<glyph unicode="&#xdf;" horiz-adv-x="1249" d="M147 0v1008q0 162 113 270t284 108t281.5 -74.5t110.5 -195.5q0 -57 -29.5 -105t-57.5 -70.5t-78 -56.5t-69.5 -49.5t-41 -46t-21.5 -56.5t6 -41t36.5 -36t73.5 -34.5t104 -26.5q61 -14 142 -38t146 -89t65 -191t-103.5 -213.5t-287.5 -87.5q-135 0 -221 41t-166 119 l88 129q45 -59 125 -99t178 -40t153.5 44t55.5 106t-57 94.5t-146 54.5t-166.5 45t-139.5 83t-62 171q0 57 29.5 107.5t59.5 76t76 56.5t83 57.5t37 79.5t-58.5 88t-143.5 35t-149.5 -58.5t-64.5 -156.5v-1008h-185z" />
<glyph unicode="&#xe0;" horiz-adv-x="1089" d="M90 306q0 156 102.5 238.5t241.5 82.5q211 0 324 -131v163q0 90 -66.5 143.5t-175.5 53.5q-166 0 -297 -131l-80 127q164 162 406 162q176 0 286.5 -84t110.5 -262v-668h-184v109q-121 -133 -324 -134q-135 0 -239.5 87.5t-104.5 243.5zM188 1434h183l295 -295h-136z M276 301q0 -88 63.5 -142.5t164.5 -54.5q170 0 254 113v168q-84 113 -254 113q-100 0 -164 -54.5t-64 -142.5z" />
<glyph unicode="&#xe1;" horiz-adv-x="1089" d="M90 306q0 156 102.5 238.5t241.5 82.5q211 0 324 -131v163q0 90 -66.5 143.5t-175.5 53.5q-166 0 -297 -131l-80 127q164 162 406 162q176 0 286.5 -84t110.5 -262v-668h-184v109q-121 -133 -324 -134q-135 0 -239.5 87.5t-104.5 243.5zM276 301q0 -88 63.5 -142.5 t164.5 -54.5q170 0 254 113v168q-84 113 -254 113q-100 0 -164 -54.5t-64 -142.5zM424 1139l295 295h182l-342 -295h-135z" />
<glyph unicode="&#xe2;" horiz-adv-x="1089" d="M90 306q0 156 102.5 238.5t241.5 82.5q211 0 324 -131v163q0 90 -66.5 143.5t-175.5 53.5q-166 0 -297 -131l-80 127q164 162 406 162q176 0 286.5 -84t110.5 -262v-668h-184v109q-121 -133 -324 -134q-135 0 -239.5 87.5t-104.5 243.5zM264 1139l193 295h172l198 -295 h-120l-164 207l-158 -207h-121zM276 301q0 -88 63.5 -142.5t164.5 -54.5q170 0 254 113v168q-84 113 -254 113q-100 0 -164 -54.5t-64 -142.5z" />
<glyph unicode="&#xe3;" horiz-adv-x="1089" d="M90 306q0 156 102.5 238.5t241.5 82.5q211 0 324 -131v163q0 90 -66.5 143.5t-175.5 53.5q-166 0 -297 -131l-80 127q164 162 406 162q176 0 286.5 -84t110.5 -262v-668h-184v109q-121 -133 -324 -134q-135 0 -239.5 87.5t-104.5 243.5zM221 1147q0 125 53.5 199.5 t151.5 74.5q37 0 68.5 -17.5t46.5 -33.5t37 -46t41 -53.5t55 -23.5q90 0 90 162h106q0 -125 -53 -199.5t-151 -74.5q-39 0 -71 17t-46 33.5t-39 49.5q-51 74 -92 74t-66.5 -41t-25.5 -121h-105zM276 301q0 -88 63.5 -142.5t164.5 -54.5q170 0 254 113v168q-84 113 -254 113 q-100 0 -164 -54.5t-64 -142.5z" />
<glyph unicode="&#xe4;" horiz-adv-x="1089" d="M90 306q0 156 102.5 238.5t241.5 82.5q211 0 324 -131v163q0 90 -66.5 143.5t-175.5 53.5q-166 0 -297 -131l-80 127q164 162 406 162q176 0 286.5 -84t110.5 -262v-668h-184v109q-121 -133 -324 -134q-135 0 -239.5 87.5t-104.5 243.5zM223 1241q0 45 32 76t77 31 t75.5 -31t30.5 -76t-30.5 -76.5t-75.5 -31.5t-77 31.5t-32 76.5zM276 301q0 -88 63.5 -142.5t164.5 -54.5q170 0 254 113v168q-84 113 -254 113q-100 0 -164 -54.5t-64 -142.5zM649 1241q0 45 32 76t76 31t76.5 -32t32.5 -76t-32.5 -75.5t-76.5 -31.5t-76 31.5t-32 76.5z " />
<glyph unicode="&#xe5;" horiz-adv-x="1089" d="M90 306q0 156 102.5 238.5t241.5 82.5q211 0 324 -131v163q0 90 -66.5 143.5t-175.5 53.5q-166 0 -297 -131l-80 127q164 162 406 162q176 0 286.5 -84t110.5 -262v-668h-184v109q-121 -133 -324 -134q-135 0 -239.5 87.5t-104.5 243.5zM276 301q0 -88 63.5 -142.5 t164.5 -54.5q170 0 254 113v168q-84 113 -254 113q-100 0 -164 -54.5t-64 -142.5zM340 1311q0 84 61.5 145.5t145.5 61.5t143.5 -61.5t59.5 -145.5t-59.5 -145.5t-143.5 -61.5t-145.5 61.5t-61.5 145.5zM432 1311q0 -45 34 -80t80 -35t78.5 34t32.5 81t-32.5 79.5 t-78.5 32.5t-80 -33.5t-34 -78.5z" />
<glyph unicode="&#xe6;" horiz-adv-x="1808" d="M90 302q0 155 104.5 240t258.5 85q227 0 354 -127v159q0 90 -72.5 143.5t-189.5 53.5q-186 0 -326 -131l-80 127q168 162 422 162q133 0 228.5 -51.5t125.5 -151.5q127 203 365 203q205 0 325.5 -150.5t120.5 -384.5v-45h-735q10 -131 93 -217t216 -86q168 0 273 117 l86 -125q-152 -147 -367 -148q-274 0 -393 220q-57 -98 -166.5 -159t-260.5 -61t-266.5 86t-115.5 241zM276 313q0 -86 69 -134t183 -48t196.5 72.5t82.5 161.5v18q-98 115 -281 115q-111 0 -180.5 -49.5t-69.5 -135.5zM989 567h557q-4 115 -74.5 205t-200.5 90t-203 -90 t-79 -205z" />
<glyph unicode="&#xe7;" horiz-adv-x="1015" d="M86 504q0 217 141 363.5t373 146.5t361 -174l-123 -113q-86 123 -234 123t-236.5 -99.5t-88.5 -255t87.5 -256t235.5 -100.5t236 123l123 -112q-123 -160 -328 -173l-33 -83q33 22 83 22t89 -39t39 -107t-62.5 -114.5t-174.5 -46.5t-193 63l43 86q72 -59 164 -59 q51 0 86 20.5t35 59.5q0 66 -72 65q-47 0 -74 -30l-76 43l45 120q-199 20 -322.5 165t-123.5 362z" />
<glyph unicode="&#xe8;" horiz-adv-x="1146" d="M86 489q0 224 140.5 374.5t357.5 150.5t348 -151.5t131 -383.5v-45h-782q10 -131 101 -219t234 -88q180 0 293 117l86 -121q-152 -147 -386 -147t-378.5 144.5t-144.5 368.5zM227 1434h183l295 -295h-136zM279 567h604q-4 115 -81 205t-217 90t-219 -90t-87 -205z" />
<glyph unicode="&#xe9;" horiz-adv-x="1146" d="M86 489q0 224 140.5 374.5t357.5 150.5t348 -151.5t131 -383.5v-45h-782q10 -131 101 -219t234 -88q180 0 293 117l86 -121q-152 -147 -386 -147t-378.5 144.5t-144.5 368.5zM279 567h604q-4 115 -81 205t-217 90t-219 -90t-87 -205zM463 1139l295 295h182l-342 -295 h-135z" />
<glyph unicode="&#xea;" horiz-adv-x="1146" d="M86 489q0 224 140.5 374.5t357.5 150.5t348 -151.5t131 -383.5v-45h-782q10 -131 101 -219t234 -88q180 0 293 117l86 -121q-152 -147 -386 -147t-378.5 144.5t-144.5 368.5zM279 567h604q-4 115 -81 205t-217 90t-219 -90t-87 -205zM303 1139l193 295h172l198 -295h-121 l-163 207l-160 -207h-119z" />
<glyph unicode="&#xeb;" horiz-adv-x="1146" d="M86 489q0 224 140.5 374.5t357.5 150.5t348 -151.5t131 -383.5v-45h-782q10 -131 101 -219t234 -88q180 0 293 117l86 -121q-152 -147 -386 -147t-378.5 144.5t-144.5 368.5zM264 1241q0 45 31 76t76 31t75.5 -31t30.5 -76t-30.5 -76.5t-75.5 -31.5t-76 31.5t-31 76.5z M279 567h604q-4 115 -81 205t-217 90t-219 -90t-87 -205zM688 1241q0 45 32 76t77 31t76.5 -31t31.5 -76t-31.5 -76.5t-76.5 -31.5t-77 31.5t-32 76.5z" />
<glyph unicode="&#xec;" d="M-119 1434h182l295 -295h-135zM147 0v989h185v-989h-185z" />
<glyph unicode="&#xed;" d="M119 1139l295 295h182l-342 -295h-135zM147 0v989h185v-989h-185z" />
<glyph unicode="&#xee;" d="M-43 1139l193 295h172l198 -295h-121l-163 207l-158 -207h-121zM147 0v989h185v-989h-185z" />
<glyph unicode="&#xef;" d="M-82 1241q0 45 32 76t76 31t75.5 -31t31.5 -76t-31.5 -76.5t-75.5 -31.5t-76 31.5t-32 76.5zM147 0v989h185v-989h-185zM344 1241q0 45 32 76t76 31t75.5 -31t31.5 -76t-31.5 -76.5t-75.5 -31.5t-76 31.5t-32 76.5z" />
<glyph unicode="&#xf0;" horiz-adv-x="1171" d="M86 471q0 215 127 356.5t325 141.5t320 -183q-96 180 -326 347l-294 -132l-39 97l235 104q-98 61 -147 90l102 152q127 -76 236 -158l217 94l41 -94l-168 -74q371 -322 370 -704q0 -233 -136 -383t-361 -150t-363.5 140.5t-138.5 355.5zM279 473q0 -139 83 -236.5 t225 -97.5t224 96.5t82 236.5t-82 237.5t-224 97.5t-225 -97.5t-83 -236.5z" />
<glyph unicode="&#xf1;" horiz-adv-x="1144" d="M147 0v989h185v-139q55 68 149 116t201 48q317 0 317 -320v-694h-184v633q0 217 -211 217q-82 0 -155.5 -42t-116.5 -101v-707h-185zM250 1147q0 125 53 199.5t152 74.5q37 0 68.5 -17.5t46 -33.5t36.5 -46t42.5 -53.5t53.5 -23.5q90 0 91 162h106q0 -125 -53 -199.5 t-152 -74.5q-39 0 -70.5 17t-45.5 33.5t-39 49.5q-51 74 -92 74t-67 -41t-26 -121h-104z" />
<glyph unicode="&#xf2;" horiz-adv-x="1171" d="M86 494q0 220 137 370t362.5 150t362.5 -149.5t137 -369.5t-137 -370t-362.5 -150t-362.5 149.5t-137 369.5zM231 1434h183l295 -295h-136zM279 494q0 -148 83 -251.5t225 -103.5t224 103.5t82 251.5t-82 252t-224 104t-225 -104t-83 -252z" />
<glyph unicode="&#xf3;" horiz-adv-x="1171" d="M86 494q0 220 137 370t362.5 150t362.5 -149.5t137 -369.5t-137 -370t-362.5 -150t-362.5 149.5t-137 369.5zM279 494q0 -148 83 -251.5t225 -103.5t224 103.5t82 251.5t-82 252t-224 104t-225 -104t-83 -252zM467 1139l295 295h182l-342 -295h-135z" />
<glyph unicode="&#xf4;" horiz-adv-x="1171" d="M86 494q0 220 137 370t362.5 150t362.5 -149.5t137 -369.5t-137 -370t-362.5 -150t-362.5 149.5t-137 369.5zM279 494q0 -148 83 -251.5t225 -103.5t224 103.5t82 251.5t-82 252t-224 104t-225 -104t-83 -252zM305 1139l193 295h172l198 -295h-120l-164 207l-160 -207 h-119z" />
<glyph unicode="&#xf5;" horiz-adv-x="1171" d="M86 494q0 220 137 370t362.5 150t362.5 -149.5t137 -369.5t-137 -370t-362.5 -150t-362.5 149.5t-137 369.5zM262 1147q0 125 53.5 199.5t151.5 74.5q37 0 68.5 -17.5t46 -33.5t36.5 -46t41.5 -53.5t55.5 -23.5q90 0 90 162h106q0 -125 -53 -199.5t-151 -74.5 q-39 0 -71 17t-46 33.5t-39 49.5q-51 74 -92 74t-66.5 -41t-25.5 -121h-105zM279 494q0 -148 83 -251.5t225 -103.5t224 103.5t82 251.5t-82 252t-224 104t-225 -104t-83 -252z" />
<glyph unicode="&#xf6;" horiz-adv-x="1171" d="M86 494q0 220 137 370t362.5 150t362.5 -149.5t137 -369.5t-137 -370t-362.5 -150t-362.5 149.5t-137 369.5zM266 1241q0 45 31 76t76 31t75.5 -31t30.5 -76t-30.5 -76.5t-75.5 -31.5t-76 31.5t-31 76.5zM279 494q0 -148 83 -251.5t225 -103.5t224 103.5t82 251.5 t-82 252t-224 104t-225 -104t-83 -252zM690 1241q0 45 32 76t77 31t76.5 -31t31.5 -76t-31.5 -76.5t-76.5 -31.5t-77 31.5t-32 76.5z" />
<glyph unicode="&#xf7;" horiz-adv-x="1046" d="M59 629v123h928v-123h-928zM420 302q0 42 30.5 73t72.5 31t73 -31t31 -73t-31 -71.5t-73 -29.5t-72.5 29.5t-30.5 71.5zM420 1072q0 42 30.5 72t72.5 30t73 -30t31 -72t-31 -73.5t-73 -31.5t-72.5 31.5t-30.5 73.5z" />
<glyph unicode="&#xf8;" horiz-adv-x="1171" d="M86 495.5q0 219.5 137 369t363 149.5q162 0 282 -82l47 57h127l-98 -121q141 -145 141 -369t-137 -374t-362 -150q-166 0 -293 88l-51 -63h-125l104 129q-135 147 -135 366.5zM279 506q0 -137 59 -232l422 523q-76 53 -174 53q-141 0 -224 -103.5t-83 -240.5zM403 201 q79 -62 183 -62q143 0 225 103.5t82 245.5t-66 237z" />
<glyph unicode="&#xf9;" horiz-adv-x="1144" d="M147 291v698h185v-637q0 -117 53 -165t145 -48t166 40t119 100v710h184v-989h-184v135q-147 -160 -352 -160q-315 0 -316 316zM215 1434h182l295 -295h-135z" />
<glyph unicode="&#xfa;" horiz-adv-x="1144" d="M147 291v698h185v-637q0 -117 53 -165t145 -48t166 40t119 100v710h184v-989h-184v135q-147 -160 -352 -160q-315 0 -316 316zM451 1139l294 295h183l-342 -295h-135z" />
<glyph unicode="&#xfb;" horiz-adv-x="1144" d="M147 291v698h185v-637q0 -117 53 -165t145 -48t166 40t119 100v710h184v-989h-184v135q-147 -160 -352 -160q-315 0 -316 316zM291 1139l192 295h172l199 -295h-121l-164 207l-159 -207h-119z" />
<glyph unicode="&#xfc;" horiz-adv-x="1144" d="M147 291v698h185v-637q0 -117 53 -165t145 -48t166 40t119 100v710h184v-989h-184v135q-147 -160 -352 -160q-315 0 -316 316zM252 1241q0 45 31.5 76t75.5 31t76 -31t32 -76t-32 -76.5t-76 -31.5t-75.5 31.5t-31.5 76.5zM678 1241q0 45 31.5 76t75.5 31t76 -31t32 -76 t-32 -76.5t-76 -31.5t-75.5 31.5t-31.5 76.5z" />
<glyph unicode="&#xfd;" horiz-adv-x="1017" d="M2 989h197l309 -776l309 776h199l-488 -1177q-86 -209 -315 -213q-66 0 -115 14l29 166q37 -16 82 -17q102 0 143 97l58 131zM387 1139l295 295h182l-342 -295h-135z" />
<glyph unicode="&#xfe;" horiz-adv-x="1181" d="M147 -377v1743h185v-518q55 76 140 121t183 45q197 0 319 -139.5t122 -379t-122 -380t-320 -140.5t-322 168v-520h-185zM332 285q39 -61 115.5 -103.5t158.5 -42.5q135 0 216 99.5t81 256.5t-81 256t-216 99q-82 0 -159.5 -42t-114.5 -103v-420z" />
<glyph unicode="&#xff;" horiz-adv-x="1017" d="M2 989h197l309 -776l309 776h199l-488 -1177q-86 -209 -315 -213q-66 0 -115 14l29 166q37 -16 82 -17q102 0 143 97l58 131zM188 1241q0 45 32 76t76 31t75.5 -31t31.5 -76t-31.5 -76.5t-75.5 -31.5t-76 31.5t-32 76.5zM612 1240q0 44 33 76t77 32t75.5 -31t31.5 -76 t-31.5 -76.5t-75.5 -31.5t-77 31.5t-33 75.5z" />
<glyph unicode="&#x152;" horiz-adv-x="2250" d="M94 682q0 307 186.5 505.5t483.5 198.5q141 0 267 -63t200 -180v223h915v-180h-710v-400h696v-180h-696v-426h710v-180h-915v221q-74 -119 -200 -182.5t-267 -63.5q-297 0 -483.5 200t-186.5 507zM305 682q0 -229 131 -376.5t352 -147.5q152 0 269 77.5t174 225.5v442 q-57 147 -174 224t-269 77q-221 0 -352 -146.5t-131 -375.5z" />
<glyph unicode="&#x153;" horiz-adv-x="1951" d="M86 494q0 220 137 370t363 150q270 0 403 -266q51 104 149.5 185t250.5 81q219 0 349 -151.5t130 -383.5v-45h-781q10 -131 100.5 -219t250.5 -88t278 117l86 -121q-154 -147 -397 -148q-287 0 -418 265q-135 -264 -401 -265q-225 0 -362.5 149.5t-137.5 369.5zM279 494 q0 -150 83.5 -253.5t223 -103.5t223.5 103.5t84 255t-84 253t-223.5 101.5t-223 -103t-83.5 -253zM1085 567h605q-6 115 -83 205t-217 90t-219 -90t-86 -205z" />
<glyph unicode="&#x178;" horiz-adv-x="1294" d="M10 1366h236l401 -610l397 610h238l-532 -795v-571h-205v571zM330 1583q0 45 31.5 76t75.5 31t76 -31t32 -76t-32 -76.5t-76 -31.5t-75.5 31.5t-31.5 76.5zM754 1582q0 44 32.5 76t76.5 32t76 -31t32 -76t-32 -76.5t-76 -31.5t-76.5 31.5t-32.5 75.5z" />
<glyph unicode="&#x2c6;" horiz-adv-x="563" d="M0 1139l193 295h172l198 -295h-121l-163 207l-160 -207h-119z" />
<glyph unicode="&#x2dc;" horiz-adv-x="649" d="M0 1147q0 125 53 199.5t152 74.5q37 0 68.5 -17.5t46 -33.5t36.5 -46t42.5 -53.5t54.5 -23.5q90 0 90 162h106q0 -125 -53 -199.5t-152 -74.5q-39 0 -70.5 17t-45.5 33.5t-39 49.5q-51 74 -92 74t-67 -41t-26 -121h-104z" />
<glyph unicode="&#x2000;" horiz-adv-x="912" />
<glyph unicode="&#x2001;" horiz-adv-x="1825" />
<glyph unicode="&#x2002;" horiz-adv-x="912" />
<glyph unicode="&#x2003;" horiz-adv-x="1825" />
<glyph unicode="&#x2004;" horiz-adv-x="608" />
<glyph unicode="&#x2005;" horiz-adv-x="456" />
<glyph unicode="&#x2006;" horiz-adv-x="304" />
<glyph unicode="&#x2007;" horiz-adv-x="304" />
<glyph unicode="&#x2008;" horiz-adv-x="228" />
<glyph unicode="&#x2009;" horiz-adv-x="365" />
<glyph unicode="&#x200a;" horiz-adv-x="101" />
<glyph unicode="&#x2010;" horiz-adv-x="614" d="M61 416v159h492v-159h-492z" />
<glyph unicode="&#x2011;" horiz-adv-x="614" d="M61 416v159h492v-159h-492z" />
<glyph unicode="&#x2012;" horiz-adv-x="614" d="M61 416v159h492v-159h-492z" />
<glyph unicode="&#x2013;" horiz-adv-x="1214" d="M61 416v159h1092v-159h-1092z" />
<glyph unicode="&#x2014;" horiz-adv-x="1705" d="M61 416v159h1584v-159h-1584z" />
<glyph unicode="&#x2018;" horiz-adv-x="485" d="M92 1068q0 87 49 174t129 144l86 -69q-49 -31 -90 -86t-49 -107q8 4 43 4t67.5 -32.5t32.5 -83.5t-36.5 -88t-91.5 -37t-97.5 47t-42.5 134z" />
<glyph unicode="&#x2019;" horiz-adv-x="485" d="M115 1260q0 52 36.5 89t92.5 37t97.5 -46t41.5 -134t-49 -176t-131 -143l-86 69q49 31 90 87.5t49 105.5q-12 -6 -45 -6t-64.5 32.5t-31.5 84.5z" />
<glyph unicode="&#x201a;" horiz-adv-x="487" d="M115 108.5q0 51.5 36.5 88t92.5 36.5t97.5 -46t41.5 -133t-49 -175t-131 -145l-86 71q51 31 91 86.5t48 104.5l-31 -4q-47 0 -78.5 32.5t-31.5 84z" />
<glyph unicode="&#x201c;" horiz-adv-x="837" d="M102 1068q0 87 49.5 174t129.5 144l88 -69q-51 -33 -92 -87t-50 -106q8 4 44 4t67 -32.5t31 -83.5t-36 -88t-92 -37t-97.5 47t-41.5 134zM457 1068q0 87 48 174t128 144l88 -69q-51 -31 -91 -86t-48 -107q8 4 42 4t66.5 -32.5t32.5 -83.5t-37 -88t-92 -37t-96 47t-41 134 z" />
<glyph unicode="&#x201d;" horiz-adv-x="837" d="M115 1260q0 52 36.5 89t92.5 37t97.5 -46t41.5 -134t-49 -176t-131 -143l-86 69q49 31 90 87.5t49 105.5q-12 -6 -45 -6t-64.5 32.5t-31.5 84.5zM467 1259.5q0 51.5 37 89t92 37.5t97 -46t42 -134t-49 -176t-129 -143l-86 69q49 31 90 86.5t49 106.5q-12 -6 -44 -6 t-65.5 32.5t-33.5 84z" />
<glyph unicode="&#x201e;" horiz-adv-x="839" d="M115 108.5q0 51.5 36.5 88t92.5 36.5t97.5 -46t41.5 -133t-49 -175t-131 -145l-86 71q51 31 91 86.5t48 104.5l-31 -4q-47 0 -78.5 32.5t-31.5 84zM467 108.5q0 51.5 37 88t92 36.5t97 -46t42 -133t-49 -175t-129 -145l-86 71q49 31 90 85.5t49 105.5l-30 -4 q-47 0 -80 32.5t-33 84z" />
<glyph unicode="&#x2022;" horiz-adv-x="733" d="M141 496q0 94 66.5 160.5t161 66.5t161 -66.5t66.5 -159.5t-66.5 -160t-161 -67t-161 66t-66.5 160z" />
<glyph unicode="&#x2026;" horiz-adv-x="1458" d="M115 107q0 52 36.5 89t90 37t90.5 -36.5t37 -88.5t-38 -90t-89.5 -38t-89 37.5t-37.5 89.5zM600 107q0 52 38 89t90 37t90 -37.5t38 -89t-39 -89t-90 -37.5t-89 37.5t-38 89.5zM1087 107q0 52 38 89t89.5 37t89 -36.5t37.5 -88.5t-37.5 -90t-89 -38t-89.5 37.5t-38 89.5z " />
<glyph unicode="&#x202f;" horiz-adv-x="365" />
<glyph unicode="&#x2039;" horiz-adv-x="628" d="M61 498l328 362h178l-327 -362l327 -369h-178z" />
<glyph unicode="&#x203a;" horiz-adv-x="628" d="M61 129l328 369l-328 362h179l327 -362l-327 -369h-179z" />
<glyph unicode="&#x205f;" horiz-adv-x="456" />
<glyph unicode="&#x20ac;" horiz-adv-x="1431" d="M57 477v123h86q-6 39 -6 84t6 84h-86v123h109q63 227 249.5 362.5t432.5 135.5q342 0 534 -289l-174 -92q-55 88 -152.5 143t-207.5 55q-160 0 -284 -85t-177 -230h586v-123h-619q-6 -41 -6 -85t6 -83h619v-123h-588q53 -147 177 -233t286 -86q111 0 208 55t152 143 l174 -92q-197 -289 -534 -289q-248 0 -434.5 136.5t-249.5 365.5h-107z" />
<glyph unicode="&#x2122;" horiz-adv-x="929" d="M35 1313v53h311v-53h-127v-398h-57v398h-127zM420 915v451h88l131 -328l131 328h88v-451h-57v373l-154 -373h-16l-154 373v-373h-57z" />
<glyph unicode="&#x25fc;" horiz-adv-x="990" d="M0 0v990h990v-990h-990z" />
</font>
</defs>
</svg>
