<svg width="34" height="42" viewBox="0 0 34 42" fill="none" xmlns="http://www.w3.org/2000/svg">
<path d="M29.495 32.3505L27.5428 27.6091M17.0301 35.726L18.5877 39.5092C19.309 41.2612 21.6645 41.5311 22.759 39.9871C23.3191 39.1969 24.0887 38.581 24.9799 38.2096C25.8712 37.8382 26.8482 37.7263 27.7997 37.8866C29.6589 38.1997 31.1347 36.3333 30.4134 34.5812M18.0511 33.0998L15.4122 39.5092C14.6909 41.2612 12.3354 41.5311 11.241 39.9871C10.6808 39.1969 9.91128 38.581 9.02004 38.2096C8.1288 37.8382 7.15175 37.7263 6.20032 37.8866C4.34112 38.1997 2.86528 36.3333 3.58664 34.5812L6.4572 27.6091M10.357 8.70623C12.1808 7.24184 14.4906 6.36555 17 6.36555C22.8817 6.36555 27.6666 11.1795 27.6666 17.0966C27.6666 23.0137 22.8817 27.8276 17 27.8276C11.1184 27.8276 6.33336 23.0137 6.33336 17.0966C6.33336 14.572 7.2044 12.2483 8.66 10.4135M14.8365 21.4331C15.037 21.6353 15.2753 21.7957 15.5377 21.905C15.8 22.0144 16.0812 22.0704 16.3652 22.0701H21.2381C22.4321 22.0701 23.4 21.0963 23.4 19.8951V16.0209C23.4 14.8197 22.4321 13.8459 21.2381 13.8459H19.1054L20.2875 12.13C20.5649 11.7274 20.549 11.1776 20.2222 10.8146C20.131 10.7128 20.0209 10.6302 19.898 10.5713C19.7751 10.5125 19.6419 10.4785 19.506 10.4715C19.37 10.4644 19.2341 10.4844 19.1058 10.5302C18.9776 10.576 18.8595 10.6468 18.7585 10.7386L14.9168 14.2261M33 17.0966C33 16.1663 32.6469 15.3192 32.0682 14.6833C31.3143 13.8549 31.0124 12.6954 31.2508 11.5981C31.4331 10.7588 31.3172 9.85118 30.8564 9.04828C30.395 8.24434 29.6703 7.68901 28.8552 7.42864C27.7902 7.08852 26.948 6.2412 26.6099 5.16981C26.3511 4.34977 25.7991 3.62068 25 3.15654C24.202 2.69304 23.2998 2.57634 22.4654 2.75976C21.3747 2.9996 20.2222 2.69585 19.3988 1.93746C18.7667 1.35525 17.9247 1 17 1C16.0753 1 15.2333 1.35525 14.6012 1.93746C13.7778 2.69585 12.6253 2.9996 11.5346 2.75976C10.7002 2.57634 9.79808 2.69296 9 3.15654C8.20088 3.62068 7.64888 4.34977 7.39008 5.16981C7.052 6.2412 6.20976 7.08852 5.1448 7.42864C4.32968 7.68901 3.60496 8.24434 3.1436 9.04828C2.68288 9.8511 2.56688 10.7587 2.7492 11.5981C2.9876 12.6954 2.68568 13.8548 1.93184 14.6832C1.35312 15.3192 1 16.1663 1 17.0966C1 18.0269 1.35312 18.8739 1.93184 19.5098C2.68568 20.3382 2.9876 21.4978 2.7492 22.595C2.56688 23.4343 2.6828 24.3419 3.1436 25.1448C3.60496 25.9487 4.32968 26.504 5.1448 26.7644C6.20976 27.1045 7.052 27.9518 7.39008 29.0232C7.64888 29.8433 8.2008 30.5724 9 31.0365C9.798 31.5 10.7002 31.6167 11.5346 31.4333C12.6253 31.1934 13.7778 31.4972 14.6012 32.2556C15.2334 32.8378 16.0753 33.193 17 33.193C17.9247 33.193 18.7667 32.8378 19.3988 32.2556C20.2222 31.4972 21.3747 31.1934 22.4654 31.4333C23.2998 31.6167 24.2019 31.5001 25 31.0365C25.7991 30.5724 26.3511 29.8433 26.6099 29.0232C26.948 27.9518 27.7902 27.1045 28.8552 26.7644C29.6703 26.504 30.395 25.9488 30.8564 25.1448C31.3171 24.3419 31.4331 23.4343 31.2508 22.5949C31.0124 21.4976 31.3143 20.3382 32.0682 19.5098C32.6469 18.8739 33 18.0269 33 17.0966ZM11.8811 22.0702H13.6427C14.3503 22.0702 14.9238 21.4931 14.9238 20.7813V14.6591C14.9238 13.9472 14.3502 13.3702 13.6427 13.3702H11.8811C11.1735 13.3702 10.6 13.9473 10.6 14.6591V20.7813C10.6 21.4931 11.1736 22.0702 11.8811 22.0702Z" stroke="#055FA3" stroke-width="1.5" stroke-miterlimit="10" stroke-linecap="round" stroke-linejoin="round"/>
</svg>
