<svg width="42" height="41" viewBox="0 0 42 41" fill="none" xmlns="http://www.w3.org/2000/svg">
<path d="M8.98069 21.8048C8.97232 21.7233 8.94818 21.6442 8.90966 21.5721C8.87113 21.5 8.81898 21.4364 8.75618 21.3848C8.69339 21.3332 8.62118 21.2946 8.54369 21.2714C8.4662 21.2481 8.38495 21.2406 8.30459 21.2492C8.14233 21.2665 7.99348 21.3485 7.8908 21.4772C7.78811 21.6058 7.73999 21.7706 7.75703 21.9352C8.45782 28.709 14.2906 34.0213 21 34.0213C28.2525 34.0213 34.3161 27.8658 34.3161 20.5101C34.3161 13.1537 28.2617 6.99888 21 6.99888C14.2918 6.99888 8.45799 12.3097 7.75703 19.085C7.73999 19.2496 7.78811 19.4144 7.8908 19.543C7.99348 19.6717 8.14233 19.7537 8.30459 19.771C8.64297 19.8079 8.94525 19.5583 8.98069 19.2154C9.15 17.5786 9.62915 16.0472 10.3555 14.6781H31.6292C33.5441 18.2568 33.5446 22.7627 31.6292 26.3422H10.3555C9.62907 24.973 9.15 23.4416 8.98069 21.8048ZM20.3848 8.32121V13.4296H16.3323C17.2973 10.5742 18.784 8.70625 20.3848 8.32121ZM21.6151 8.32121C23.216 8.70625 24.7026 10.5742 25.6677 13.4296H21.6151V8.32121ZM17.4943 8.76767C16.4994 9.86835 15.6542 11.4518 15.0366 13.4296H11.1169C12.6548 11.2177 14.893 9.56114 17.4943 8.76767ZM26.9633 13.4296C26.3472 11.4564 25.5044 9.87576 24.5126 8.77533C27.1039 9.57546 29.3289 11.2369 30.8624 13.4296H26.9633ZM21.6151 32.6989V27.5905H25.6677C24.7026 30.4459 23.216 32.3139 21.6151 32.6989ZM20.3848 32.6989C18.784 32.3139 17.2974 30.446 16.3323 27.5905H20.3848V32.6989ZM24.5126 32.2447C25.5044 31.1443 26.3472 29.5637 26.9633 27.5905H30.8624C29.3289 29.7832 27.1039 31.4447 24.5126 32.2447ZM15.0367 27.5905C15.6542 29.5683 16.4995 31.1518 17.4944 32.2525C14.8931 31.459 12.6548 29.8024 11.1169 27.5905H15.0367Z" fill="#055FA3"/>
<path d="M41.4091 18.895L39.0675 15.5178C38.8219 15.1633 38.6958 14.7482 38.7027 14.3164L38.7642 10.1867C38.7759 9.49335 38.5702 8.81413 38.1769 8.24704C37.7835 7.67994 37.2227 7.2543 36.5755 7.0315L32.7243 5.69552C32.3232 5.55737 31.9761 5.29295 31.7334 4.94076L29.3916 1.5643C28.9993 0.996354 28.4395 0.569439 27.7927 0.345076C27.146 0.120714 26.4457 0.110491 25.7928 0.31588L22.3929 1.37944C22.2389 1.42983 22.1107 1.53974 22.036 1.68536C21.9613 1.83098 21.9461 2.0006 21.9938 2.15748C22.0415 2.31436 22.1481 2.44587 22.2907 2.52353C22.4332 2.6012 22.6002 2.61876 22.7554 2.57243L26.1552 1.50895C26.5598 1.3817 26.9938 1.38807 27.3946 1.52714C27.7954 1.6662 28.1423 1.93079 28.3854 2.28277L30.7271 5.65915C31.1228 6.2303 31.676 6.65146 32.3265 6.87702L36.178 8.21309C36.579 8.35108 36.9265 8.61478 37.1702 8.96613C37.414 9.31748 37.5414 9.73831 37.5341 10.1679L37.4726 14.297C37.4615 14.9935 37.6649 15.6639 38.0612 16.236L40.4029 19.6132C40.6472 19.9642 40.7753 20.3849 40.7689 20.8145C40.7624 21.2442 40.6218 21.6607 40.3672 22.0041L37.9256 25.3078C37.5128 25.8653 37.2892 26.5291 37.279 27.2271L37.2167 31.3569C37.2111 31.7865 37.0713 32.2032 36.8173 32.5469C36.5633 32.8906 36.2082 33.1435 35.8034 33.2692L31.9135 34.486C31.2553 34.6921 30.6899 35.0961 30.2789 35.6535L27.8371 38.9565C27.5835 39.3009 27.2287 39.5547 26.8238 39.6813C26.419 39.8079 25.9849 39.8009 25.5842 39.6612L21.7331 38.3254C21.0834 38.1001 20.3925 38.0893 19.7345 38.2945L15.8451 39.5112C15.4405 39.6385 15.0065 39.6322 14.6056 39.4931C14.2048 39.354 13.8579 39.0894 13.6148 38.7374L11.2731 35.361C10.8774 34.7898 10.3243 34.3687 9.67369 34.1431L5.82224 32.807C5.42122 32.669 5.07377 32.4054 4.83002 32.054C4.58628 31.7027 4.45884 31.2818 4.4661 30.8522L4.52762 26.7232C4.53878 26.0266 4.33534 25.3562 3.93905 24.7842L1.5973 21.4069C1.35307 21.0559 1.22494 20.6353 1.23137 20.2056C1.23779 19.7759 1.37845 19.3594 1.63307 19.0161L4.07448 15.7124C4.48726 15.1549 4.71088 14.4912 4.72105 13.7932L4.7834 9.66327C4.78893 9.23371 4.92879 8.81703 5.18281 8.47334C5.43682 8.12964 5.79186 7.8767 6.19671 7.75097L10.0866 6.53418C10.7448 6.3281 11.3101 5.92408 11.7212 5.36675L14.1629 2.0637C14.4166 1.71934 14.7714 1.46555 15.1763 1.33892C15.5812 1.21228 16.0152 1.21933 16.4159 1.35905L19.6945 2.49594C19.7709 2.52245 19.8518 2.53343 19.9324 2.52824C20.013 2.52306 20.0918 2.50181 20.1644 2.4657C20.2369 2.4296 20.3017 2.37935 20.3551 2.31783C20.4085 2.25631 20.4494 2.18472 20.4756 2.10715C20.5283 1.95049 20.5176 1.77897 20.4457 1.63034C20.3738 1.48171 20.2467 1.36813 20.0923 1.3146L16.8139 0.177712C15.484 -0.283485 14.0232 0.173051 13.1788 1.31435L10.7365 4.61823C10.4819 4.96348 10.1318 5.21351 9.72398 5.34119L5.83454 6.5579C4.49136 6.97748 3.57458 8.21775 3.55317 9.64412L3.49083 13.7743C3.48557 14.2036 3.34529 14.62 3.09043 14.9628L0.648609 18.2671C0.237726 18.8212 0.0107506 19.4933 0.000372436 20.1866C-0.0100057 20.8799 0.196749 21.5586 0.590859 22.1251L2.93252 25.5022C3.17804 25.8567 3.30421 26.2719 3.29732 26.7036L3.23579 30.8333C3.22409 31.5267 3.42976 32.2059 3.82313 32.773C4.2165 33.3401 4.77725 33.7658 5.42447 33.9885L9.27567 35.3245C9.67674 35.4627 10.0239 35.7271 10.2666 36.0793L12.6084 39.4557C13.0006 40.0238 13.5604 40.4508 14.2072 40.6752C14.854 40.8996 15.5543 40.9098 16.2072 40.7043L20.0963 39.4877C20.5007 39.3605 20.9345 39.3671 21.3349 39.5067L25.1861 40.8423C26.4407 41.2775 28.0234 40.784 28.8212 39.7057L31.2635 36.4018C31.518 36.0566 31.8682 35.8065 32.276 35.6789L36.1654 34.4621C37.5086 34.0426 38.4254 32.8023 38.4468 31.3759L38.5092 27.2458C38.5144 26.8164 38.6547 26.4 38.9096 26.0572L41.3515 22.753C41.7623 22.1989 41.9893 21.5268 41.9996 20.8335C42.01 20.1402 41.8032 19.4614 41.4091 18.895Z" fill="#055FA3"/>
<path d="M36.2636 19.772C36.4261 19.7576 36.5763 19.6783 36.6812 19.5515C36.7861 19.4247 36.837 19.2608 36.8228 19.0959C36.4788 15.1001 34.6789 11.3937 31.7545 8.65947C28.8127 5.90868 24.9932 4.39383 21 4.39383C12.2418 4.39383 5.11653 11.6235 5.11653 20.51C5.11653 29.3965 12.2418 36.6263 21 36.6263C29.111 36.6263 36.1163 30.1317 36.8229 21.9243C36.8371 21.7594 36.7862 21.5955 36.6813 21.4687C36.5764 21.342 36.4262 21.2626 36.2636 21.2482C36.1831 21.241 36.102 21.25 36.025 21.2747C35.9479 21.2993 35.8764 21.3391 35.8145 21.3918C35.7526 21.4445 35.7015 21.5091 35.6642 21.5819C35.627 21.6546 35.6042 21.7341 35.5972 21.8158C34.9424 29.4206 28.5306 35.3779 21 35.3779C12.9202 35.3779 6.34691 28.7082 6.34691 20.5101C6.34691 12.312 12.9202 5.64225 21 5.64225C28.5306 5.64225 34.9424 11.5994 35.5971 19.2044C35.6267 19.5479 35.9247 19.8025 36.2636 19.772Z" fill="#055FA3"/>
<path d="M13.7047 23.7417V17.2785C13.7021 17.1147 13.6361 16.9585 13.521 16.8437C13.4059 16.7288 13.251 16.6644 13.0896 16.6644C12.9281 16.6644 12.7732 16.7288 12.6581 16.8437C12.543 16.9585 12.477 17.1147 12.4744 17.2785V23.7417C12.477 23.9054 12.543 24.0616 12.6581 24.1765C12.7732 24.2913 12.9281 24.3557 13.0896 24.3557C13.251 24.3557 13.4059 24.2913 13.521 24.1765C13.6361 24.0616 13.7021 23.9054 13.7047 23.7417ZM18.068 23.1174C17.3847 23.1174 16.7253 22.8358 16.3042 22.3644C16.194 22.244 16.0416 22.1726 15.8799 22.1655C15.7182 22.1585 15.5602 22.2164 15.4403 22.3267C15.3203 22.4369 15.2481 22.5907 15.2391 22.7547C15.2302 22.9187 15.2853 23.0797 15.3925 23.2027C16.0429 23.931 17.0432 24.3659 18.068 24.3659C19.3024 24.3659 20.378 23.5426 20.5702 22.4507C20.7158 21.6227 20.3363 20.5377 18.834 19.9755C18.0222 19.6716 17.2686 19.34 17.0695 19.2514C16.8833 19.1105 16.793 18.887 16.8271 18.6453C16.871 18.3352 17.1079 18.0856 17.4608 17.9777C18.4547 17.6739 19.3575 18.4038 19.3806 18.4227C19.5056 18.5282 19.6667 18.5793 19.8287 18.5646C19.9907 18.55 20.1404 18.4709 20.2451 18.3446C20.3501 18.2179 20.4011 18.054 20.3871 17.8891C20.373 17.7241 20.2949 17.5716 20.17 17.4651C20.113 17.4164 18.7537 16.2783 17.1059 16.7823C16.2948 17.0303 15.7213 17.6762 15.6093 18.468C15.5049 19.2064 15.8201 19.9167 16.4322 20.3215C16.4593 20.3395 16.4879 20.3552 16.5175 20.3686C16.5541 20.3852 17.426 20.7789 18.4083 21.1466C19.089 21.4014 19.4355 21.7966 19.359 22.2311C19.2823 22.6669 18.7785 23.1174 18.068 23.1174ZM29.5257 20.51C29.5257 18.3839 27.821 16.6542 25.7257 16.6542C23.6303 16.6542 21.9256 18.3839 21.9256 20.51C21.9256 22.6361 23.6303 24.3658 25.7257 24.3658C27.821 24.3658 29.5257 22.6361 29.5257 20.51ZM23.1559 20.51C23.1559 19.0723 24.3087 17.9026 25.7256 17.9026C27.1424 17.9026 28.2953 19.0723 28.2953 20.51C28.2953 21.9477 27.1425 23.1174 25.7256 23.1174C24.3086 23.1174 23.1559 21.9478 23.1559 20.51Z" fill="#055FA3"/>
</svg>
