<svg width="39" height="45" viewBox="0 0 39 45" fill="none" xmlns="http://www.w3.org/2000/svg">
<path d="M32.0554 10.135C31.9361 9.93123 31.7649 9.76203 31.5589 9.64429C31.3528 9.52655 31.1192 9.46439 30.8813 9.46403H7.79712C7.55922 9.46439 7.32558 9.52655 7.11956 9.64429C6.91353 9.76203 6.74233 9.93123 6.62307 10.135L4.97565 12.9592C4.93186 13.0342 4.90344 13.1171 4.89201 13.203C4.88058 13.289 4.88637 13.3763 4.90903 13.46C4.9317 13.5438 4.97081 13.6222 5.02412 13.691C5.07743 13.7598 5.14391 13.8175 5.21975 13.8608C5.29559 13.9042 5.37931 13.9323 5.46614 13.9436C5.55296 13.9549 5.64119 13.9492 5.72578 13.9268C5.81037 13.9043 5.88966 13.8656 5.95914 13.8129C6.02862 13.7601 6.08691 13.6943 6.1307 13.6192L7.39941 11.4442L12.2142 19.6987H2.58457L4.62029 16.2086C4.66408 16.1335 4.6925 16.0506 4.70393 15.9647C4.71536 15.8787 4.70958 15.7914 4.68691 15.7077C4.66424 15.624 4.62514 15.5455 4.57182 15.4767C4.51851 15.4079 4.45203 15.3502 4.37619 15.3069C4.30036 15.2635 4.21663 15.2354 4.1298 15.224C4.04297 15.2127 3.95474 15.2184 3.87014 15.2409C3.78554 15.2633 3.70624 15.302 3.63677 15.3548C3.56729 15.4076 3.50901 15.4734 3.46524 15.5485L1.00152 19.7723C0.887521 19.9672 0.838679 20.1927 0.861979 20.4167C0.885279 20.6407 0.979529 20.8516 1.13125 21.0194L18.5154 40.2914C18.6168 40.4036 18.7409 40.4934 18.8797 40.555C19.0185 40.6165 19.1688 40.6484 19.3209 40.6486H19.3214C19.6285 40.6486 19.922 40.5187 20.1267 40.2922L37.5462 21.0199C37.6983 20.8522 37.7928 20.6411 37.8162 20.417C37.8396 20.1928 37.7908 19.9671 37.6767 19.7721L32.0554 10.135ZM20.7461 19.6988H14.5243L19.3391 11.4442L24.1539 19.6988H24.0961C23.9193 19.6988 23.7497 19.7683 23.6246 19.8921C23.4995 20.0159 23.4293 20.1838 23.4293 20.3588C23.4293 20.5339 23.4995 20.7018 23.6246 20.8255C23.7497 20.9493 23.9193 21.0189 24.0961 21.0189H24.4172L19.3229 38.1327L14.2595 21.019H20.7461C20.9229 21.019 21.0925 20.9494 21.2176 20.8256C21.3427 20.7019 21.4129 20.534 21.4129 20.3589C21.4129 20.2722 21.3957 20.1864 21.3622 20.1063C21.3287 20.0262 21.2796 19.9534 21.2176 19.8921C21.1557 19.8308 21.0822 19.7822 21.0013 19.749C20.9204 19.7158 20.8336 19.6988 20.7461 19.6988ZM25.3091 19.0387L20.4942 10.7841H30.1239L25.3091 19.0387ZM25.8078 21.019H35.7575L20.9221 37.4322L25.8078 21.019ZM36.0938 19.6988H26.4641L31.279 11.4443L36.0938 19.6988ZM8.55446 10.7841H18.1841L13.3693 19.0386L8.55446 10.7841ZM12.8696 21.019L17.7267 37.4348L2.91888 21.019H12.8696ZM35.4785 38.1882C35.4467 38.1672 35.4133 38.149 35.3784 38.1337C34.955 37.9484 34.5646 37.7295 34.2179 37.4833C34.0741 37.3832 33.8962 37.3433 33.7229 37.3723C33.5496 37.4014 33.3949 37.497 33.2924 37.6383C33.1899 37.7797 33.1479 37.9554 33.1756 38.1272C33.2033 38.299 33.2984 38.4531 33.4403 38.5559C33.6475 38.7028 33.8622 38.8391 34.0837 38.964C32.6434 39.7775 31.6445 40.9428 31.1554 42.3836C30.6662 40.9431 29.6675 39.7778 28.2276 38.9644C29.6677 38.151 30.6664 36.9856 31.1555 35.5449C31.1622 35.5648 31.1691 35.5846 31.176 35.6044C31.2352 35.7684 31.3574 35.9026 31.5162 35.9778C31.6749 36.053 31.8572 36.063 32.0234 36.0057C32.1896 35.9485 32.3261 35.8285 32.4034 35.672C32.4806 35.5155 32.4922 35.3351 32.4356 35.1702C32.3844 35.0243 32.3401 34.876 32.3031 34.726L32.0258 33.605C31.9274 33.207 31.5694 32.929 31.1554 32.929C30.7413 32.929 30.3834 33.207 30.2848 33.6051L30.0077 34.726C29.5352 36.6364 28.0744 37.6337 26.9323 38.1338C26.8974 38.1491 26.8639 38.1673 26.8321 38.1883C26.5693 38.3617 26.4125 38.6519 26.4125 38.9645C26.4125 39.2771 26.5694 39.5672 26.8321 39.7406C26.8638 39.7617 26.8973 39.7798 26.9323 39.7951C28.0744 40.2952 29.5351 41.2925 30.0077 43.203L30.2849 44.3239C30.3834 44.722 30.7413 45 31.1554 45C31.5694 45 31.9274 44.722 32.0258 44.3239L32.3031 43.203C32.7755 41.2925 34.2363 40.2953 35.3785 39.7951C35.4133 39.7798 35.4468 39.7616 35.4786 39.7407C35.7414 39.5674 35.8983 39.2772 35.8983 38.9645C35.8983 38.6518 35.7413 38.3616 35.4785 38.1882ZM38.6411 9.11036C38.6093 9.08936 38.5758 9.07113 38.5408 9.05586C37.802 8.73234 37.3433 8.22882 37.1777 7.55927L37.0381 6.99413C36.9967 6.82561 36.8992 6.67568 36.7614 6.56862C36.6235 6.46156 36.4533 6.4035 36.2781 6.40378H36.2779C36.1027 6.40351 35.9325 6.46159 35.7947 6.56867C35.6568 6.67575 35.5594 6.82561 35.5181 6.99413L35.3783 7.55927C35.2127 8.22882 34.7541 8.73234 34.0152 9.05586C33.9803 9.07115 33.9467 9.08938 33.915 9.11036C33.8045 9.18311 33.7139 9.28179 33.6513 9.39761C33.5887 9.51342 33.5561 9.64276 33.5562 9.7741C33.5561 9.90544 33.5888 10.0348 33.6515 10.1506C33.7141 10.2663 33.8047 10.365 33.9152 10.4377C33.9469 10.4586 33.9803 10.4768 34.0152 10.4921C34.7542 10.8156 35.2127 11.3191 35.3783 11.9888L35.5181 12.5537C35.5594 12.7223 35.6568 12.8721 35.7947 12.9792C35.9325 13.0863 36.1027 13.1444 36.278 13.1442H36.2782C36.4534 13.1445 36.6236 13.0864 36.7615 12.9793C36.8993 12.8722 36.9968 12.7224 37.0382 12.5538L37.1779 11.9888C37.3435 11.3192 37.8022 10.8157 38.541 10.4922C38.5758 10.4769 38.6093 10.4588 38.641 10.4378C38.7515 10.3651 38.8421 10.2664 38.9048 10.1506C38.9674 10.0349 39.0001 9.90553 39 9.77419C39.0001 9.64283 38.9674 9.51347 38.9048 9.39765C38.8422 9.28183 38.7516 9.18313 38.6411 9.11036ZM36.278 10.7235C36.0555 10.3611 35.7622 10.0427 35.4033 9.77402C35.7623 9.50534 36.0555 9.18691 36.2781 8.82454C36.5006 9.18691 36.7939 9.50534 37.1528 9.77402C36.7938 10.0427 36.5005 10.361 36.278 10.7235ZM2.6017 7.64663L2.80194 8.4561C2.84596 8.63541 2.94964 8.79485 3.0963 8.90878C3.24296 9.0227 3.42408 9.08447 3.61051 9.08417C3.79695 9.0845 3.97808 9.02274 4.12474 8.90881C4.27141 8.79489 4.37509 8.63543 4.41908 8.4561L4.61931 7.64663C4.94271 6.33935 5.94849 5.65425 6.7354 5.30963C6.77029 5.29434 6.80377 5.27614 6.83547 5.25514C6.95417 5.17701 7.0515 5.07102 7.11878 4.94662C7.18605 4.82222 7.22117 4.68327 7.22102 4.54217C7.2212 4.40105 7.18609 4.26208 7.11884 4.13765C7.05158 4.01322 6.95426 3.9072 6.83556 3.82903C6.80379 3.80804 6.77025 3.78981 6.73531 3.77454C5.94849 3.43001 4.94271 2.7449 4.61931 1.43762L4.41908 0.628153C4.37507 0.448811 4.27138 0.289338 4.1247 0.175399C3.97802 0.0614595 3.79688 -0.000320323 3.61042 1.24904e-06C3.42399 -0.000305349 3.24288 0.0614709 3.09621 0.175391C2.94955 0.289312 2.84587 0.448754 2.80185 0.628065L2.60162 1.43753C2.2784 2.74481 1.27253 3.42992 0.485711 3.77445C0.450797 3.78972 0.417285 3.80795 0.385549 3.82894C0.144026 3.98837 0 4.25495 0 4.54217C0 4.8294 0.144204 5.09597 0.385638 5.25522C0.417338 5.27614 0.450814 5.29434 0.485622 5.30963C1.27253 5.65416 2.2784 6.33935 2.6017 7.64663ZM3.61042 2.57193C3.97794 3.36822 4.57154 4.0339 5.36759 4.54208C4.57163 5.05026 3.97794 5.71603 3.61042 6.51232C3.2429 5.71603 2.64921 5.05035 1.85325 4.54208C2.64921 4.0339 3.2429 3.36813 3.61042 2.57193Z" fill="#055FA3"/>
</svg>
