<svg width="13" height="14" viewBox="0 0 13 14" fill="none" xmlns="http://www.w3.org/2000/svg">
<path d="M9.92767 6.38138C9.89335 6.30486 9.83788 6.23997 9.76794 6.19449C9.69799 6.14902 9.61653 6.12489 9.53333 6.125H7.8V0.4375C7.8 0.196 7.60587 0 7.36667 0H5.63333C5.39413 0 5.2 0.196 5.2 0.4375V6.125H3.46667C3.38351 6.12507 3.30213 6.14927 3.23221 6.19473C3.1623 6.24018 3.1068 6.30497 3.07233 6.38138C3.00127 6.538 3.029 6.72087 3.1408 6.85038L6.17413 10.3504C6.2147 10.3974 6.26477 10.4351 6.32099 10.4609C6.3772 10.4867 6.43825 10.5 6.5 10.5C6.6248 10.5 6.74353 10.4449 6.82587 10.3504L9.8592 6.85038C9.97187 6.72175 9.99787 6.538 9.92767 6.38138Z" fill="white"/>
<path d="M11.2667 9.625V12.25H1.73333V9.625H0V13.125C0 13.6089 0.388267 14 0.866667 14H12.1333C12.6126 14 13 13.6089 13 13.125V9.625H11.2667Z" fill="white"/>
</svg>
