<svg width="7" height="4" viewBox="0 0 7 4" fill="none" xmlns="http://www.w3.org/2000/svg">
<path d="M6.88811 0.334315L6.65882 0.110943C6.58666 0.0411838 6.49065 0.00275299 6.38804 0.00275299C6.28548 0.00275299 6.18936 0.0411838 6.1172 0.110943L3.50156 2.64154L0.882918 0.108135C0.810868 0.0383758 0.714746 0 0.612192 0C0.509638 0 0.413459 0.0383758 0.341352 0.108135L0.112001 0.330131C-0.0373336 0.474494 -0.0373336 0.709649 0.112001 0.854012L3.22981 3.88118C3.30186 3.95089 3.39787 4 3.50134 4H3.50253C3.60514 4 3.70115 3.95083 3.7732 3.88118L6.88811 0.862216C6.96028 0.792512 6.99989 0.69682 7 0.597605C7 0.498334 6.96028 0.403964 6.88811 0.334315Z" fill="#04131F"/>
</svg>
