<svg width="20" height="15" viewBox="0 0 20 15" fill="none" xmlns="http://www.w3.org/2000/svg">
<path d="M11.6714 9.75679C11.1739 10.089 10.5959 10.2646 10 10.2646C9.40414 10.2646 8.82617 10.089 8.3286 9.75679L0.133165 4.2854C0.087923 4.25511 0.0435183 4.22358 9.68791e-07 4.19086V13.1563C9.68791e-07 14.1842 0.833009 15 1.84113 15H18.1588C19.1853 15 20 14.1658 20 13.1563V4.19082C19.9564 4.22363 19.9119 4.25522 19.8665 4.28556L11.6714 9.75679Z" fill="white"/>
<path d="M0.783204 3.30897L8.97863 8.78039C9.28887 8.98751 9.64441 9.09106 9.99996 9.09106C10.3555 9.09106 10.7111 8.98748 11.0214 8.78039L19.2168 3.30897C19.7072 2.98176 20 2.43412 20 1.84307C20 0.826773 19.1743 0 18.1595 0H1.84051C0.825665 3.91168e-05 9.68791e-07 0.826812 9.68791e-07 1.84404C-0.000303273 2.13398 0.0710559 2.41948 0.207714 2.67509C0.344372 2.9307 0.54208 3.14847 0.783204 3.30897Z" fill="white"/>
</svg>
