<svg width="20" height="20" viewBox="0 0 20 20" fill="none" xmlns="http://www.w3.org/2000/svg">
<path d="M17.8261 3.04348H16.087C15.7411 3.04313 15.4096 2.9056 15.165 2.66106C14.9205 2.41652 14.783 2.08496 14.7826 1.73913V0H8.69565C8.46503 0 8.24385 0.0916147 8.08078 0.25469C7.9177 0.417765 7.82609 0.638942 7.82609 0.869565V5.21739H17.8261V3.04348Z" fill="white"/>
<path d="M16.087 2.17391H17.8261L15.6522 0V1.73913C15.6522 1.85444 15.698 1.96503 15.7795 2.04657C15.8611 2.12811 15.9716 2.17391 16.087 2.17391Z" fill="white"/>
<path d="M5.21739 4.34783H3.04348C2.56323 4.34783 2.17391 4.73714 2.17391 5.21739V16.9565C2.17391 17.4368 2.56323 17.8261 3.04348 17.8261H5.21739C5.69764 17.8261 6.08696 17.4368 6.08696 16.9565V5.21739C6.08696 4.73714 5.69764 4.34783 5.21739 4.34783Z" fill="white"/>
<path d="M9.13043 8.69565H17.3913V10.4348H9.13043V8.69565Z" fill="white"/>
<path d="M18.6957 6.08696H6.95652V16.9565C6.95595 17.4176 6.77253 17.8596 6.44651 18.1856C6.12048 18.5117 5.67846 18.6951 5.21739 18.6957H3.04348C2.58241 18.6951 2.14039 18.5117 1.81436 18.1856C1.48834 17.8596 1.30492 17.4176 1.30435 16.9565V6.08696C0.958519 6.0873 0.626954 6.22483 0.382416 6.46937C0.137878 6.71391 0.000345311 7.04548 0 7.3913V18.6957C0.000345311 19.0415 0.137878 19.373 0.382416 19.6176C0.626954 19.8621 0.958519 19.9997 1.30435 20H18.6957C19.0415 19.9997 19.373 19.8621 19.6176 19.6176C19.8621 19.373 19.9997 19.0415 20 18.6957V7.3913C19.9997 7.04548 19.8621 6.71391 19.6176 6.46937C19.373 6.22483 19.0415 6.0873 18.6957 6.08696ZM10.4348 17.8261H8.26087V16.087H10.4348V17.8261ZM10.4348 14.3478H8.26087V12.6087H10.4348V14.3478ZM14.3478 17.8261H12.1739V16.087H14.3478V17.8261ZM14.3478 14.3478H12.1739V12.6087H14.3478V14.3478ZM18.2609 17.8261H16.087V16.087H18.2609V17.8261ZM18.2609 14.3478H16.087V12.6087H18.2609V14.3478ZM18.2609 10.8696C18.2609 10.9849 18.2151 11.0955 18.1335 11.177C18.052 11.2585 17.9414 11.3043 17.8261 11.3043H8.69565C8.58034 11.3043 8.46975 11.2585 8.38821 11.177C8.30668 11.0955 8.26087 10.9849 8.26087 10.8696V8.26087C8.26087 8.14556 8.30668 8.03497 8.38821 7.95343C8.46975 7.87189 8.58034 7.82609 8.69565 7.82609H17.8261C17.9414 7.82609 18.052 7.87189 18.1335 7.95343C18.2151 8.03497 18.2609 8.14556 18.2609 8.26087V10.8696Z" fill="white"/>
</svg>
