<svg width="26" height="26" viewBox="0 0 26 26" fill="none" xmlns="http://www.w3.org/2000/svg">
<path d="M13 0C10.4288 0 7.91543 0.762436 5.77759 2.19089C3.63975 3.61935 1.97351 5.64967 0.989572 8.02511C0.00563275 10.4006 -0.251811 13.0144 0.249797 15.5362C0.751405 18.0579 1.98953 20.3743 3.80762 22.1924C5.6257 24.0105 7.94208 25.2486 10.4638 25.7502C12.9856 26.2518 15.5994 25.9944 17.9749 25.0104C20.3503 24.0265 22.3806 22.3602 23.8091 20.2224C25.2376 18.0846 26 15.5712 26 13C26 9.55218 24.6304 6.24558 22.1924 3.80761C19.7544 1.36964 16.4478 0 13 0ZM9.21974 19.8421H6.38369V10.7062H9.21974V19.8421ZM7.8 9.45921C7.47361 9.46056 7.15415 9.36511 6.88199 9.18493C6.60983 9.00476 6.3972 8.74794 6.27097 8.44694C6.14474 8.14594 6.11058 7.81428 6.1728 7.49387C6.23503 7.17346 6.39085 6.8787 6.62057 6.64683C6.85028 6.41496 7.14359 6.2564 7.4634 6.19119C7.78322 6.12598 8.11518 6.15704 8.41734 6.28046C8.71951 6.40388 8.97829 6.61411 9.161 6.88458C9.34371 7.15505 9.44213 7.47361 9.44382 7.8C9.44474 8.23767 9.27233 8.65789 8.9643 8.96881C8.65627 9.27973 8.23766 9.45604 7.8 9.45921ZM19.8421 19.8421H17.0078V15.3947C17.0078 14.3342 16.9872 12.9743 15.5333 12.9743C14.0793 12.9743 13.8228 14.1272 13.8228 15.3178V19.8421H10.9987V10.7062H13.7201V11.9514H13.7595C14.1375 11.233 15.0629 10.4753 16.4433 10.4753C19.3136 10.4753 19.8421 12.3671 19.8421 14.8234V19.8421Z" fill="#0083E0"/>
</svg>
