<svg width="17" height="22" viewBox="0 0 17 22" fill="none" xmlns="http://www.w3.org/2000/svg">
<path d="M8.5 0C3.81367 0 0 3.72702 0 8.30926C0 14.8201 7.701 21.5427 8.02872 21.825C8.15826 21.9375 8.32596 21.9998 8.49982 22C8.67368 22.0002 8.84151 21.9382 8.97128 21.8259C9.299 21.5427 17 14.8201 17 8.30926C17 3.72702 13.1863 0 8.5 0ZM8.5 12.8328C5.89617 12.8328 3.77778 10.7768 3.77778 8.24968C3.77778 5.72253 5.89617 3.66652 8.5 3.66652C11.1038 3.66652 13.2222 5.72253 13.2222 8.24968C13.2222 10.7768 11.1038 12.8328 8.5 12.8328Z" fill="white"/>
</svg>
