<svg width="14" height="15" viewBox="0 0 14 15" fill="none" xmlns="http://www.w3.org/2000/svg">
<path d="M13.7872 13.6626L10.3359 9.94962C11.2236 8.86017 11.7102 7.48105 11.7095 6.05624C11.7095 2.71688 9.08302 0 5.85476 0C2.62649 0 0 2.71688 0 6.05624C0 9.3956 2.62649 12.1125 5.85476 12.1125C7.06669 12.1125 8.2216 11.7344 9.20902 11.0166L12.6865 14.7578C12.8318 14.9139 13.0273 15 13.2368 15C13.4351 15 13.6233 14.9218 13.7661 14.7796C13.9118 14.6342 13.9959 14.435 13.9999 14.2256C14.0038 14.0162 13.9273 13.8138 13.7872 13.6626ZM5.85476 1.57989C8.24095 1.57989 10.1822 3.58793 10.1822 6.05624C10.1822 8.52456 8.24095 10.5326 5.85476 10.5326C3.46856 10.5326 1.52733 8.52456 1.52733 6.05624C1.52733 3.58793 3.46856 1.57989 5.85476 1.57989Z" fill="white"/>
</svg>
