<svg width="36" height="27" viewBox="0 0 36 27" fill="none" xmlns="http://www.w3.org/2000/svg">
<path fill-rule="evenodd" clip-rule="evenodd" d="M17.5966 17.4877C17.1188 17.4877 16.6312 17.5613 16.2188 17.7217C15.9734 17.8129 15.747 17.9489 15.5512 18.1226C15.3951 18.2615 15.2698 18.4316 15.1832 18.6218C15.0967 18.812 15.0509 19.0182 15.0488 19.2272C15.0488 19.759 15.3319 20.1304 15.5512 20.3301C15.7688 20.5313 16.0176 20.6541 16.2188 20.7326C16.6328 20.893 17.1188 20.965 17.5966 20.965C18.0712 20.965 18.5588 20.893 18.9712 20.7326C19.1757 20.6541 19.4228 20.5313 19.6421 20.3301C19.7978 20.1913 19.9227 20.0214 20.009 19.8315C20.0952 19.6416 20.1408 19.4357 20.1428 19.2272C20.1408 19.0182 20.0951 18.812 20.0086 18.6217C19.922 18.4315 19.7966 18.2615 19.6405 18.1226C19.4446 17.9489 19.2182 17.813 18.9728 17.7217C18.532 17.5613 18.0657 17.482 17.5966 17.4877Z" fill="#39EC12"/>
<path d="M20.8968 13.739C21.1652 13.3037 21.6986 12.7833 22.5005 12.7833C23.299 12.7833 23.8325 13.3037 24.1025 13.739C24.3839 14.1939 24.5181 14.7453 24.5181 15.2902C24.5181 15.8335 24.3839 16.3866 24.1025 16.8399C23.8325 17.2751 23.3006 17.7955 22.4988 17.7955C21.6986 17.7955 21.1652 17.2751 20.8952 16.8399C20.6168 16.3714 20.473 15.8352 20.4795 15.2902C20.4795 14.7453 20.6137 14.1939 20.8968 13.739ZM12.6806 12.785C11.8821 12.785 11.3486 13.3037 11.077 13.739C10.7983 14.2079 10.6545 14.7447 10.6614 15.2902C10.6614 15.8335 10.7955 16.3866 11.0786 16.8399C11.3486 17.2751 11.8805 17.7955 12.6823 17.7955C13.4808 17.7955 14.0143 17.2751 14.2859 16.8399C14.5657 16.385 14.6999 15.8335 14.6999 15.2902C14.6999 14.7453 14.5657 14.1939 14.2843 13.739C14.0143 13.3037 13.4825 12.785 12.6806 12.785Z" fill="#39EC12"/>
<mask id="path-3-inside-1_174_4410" fill="white">
<path fill-rule="evenodd" clip-rule="evenodd" d="M7.90136 0C6.89663 0 5.74136 0.292909 4.81518 1.08982C3.85463 1.91618 3.27863 3.17127 3.27863 4.806V7.87909C3.28027 8.36018 3.36209 9.324 3.637 10.1275C3.727 10.3909 3.86936 10.7395 4.10991 11.0553C3.68178 11.9296 3.41567 12.8744 3.32445 13.8436C3.241 14.6078 3.23936 15.4113 3.25245 16.1525C2.17245 16.5289 1.05154 16.9936 0.536088 17.3275C0.271554 17.5077 0.0879389 17.7843 0.0244114 18.098C-0.0391162 18.4118 0.0224726 18.738 0.19604 19.007C0.369607 19.276 0.641414 19.4665 0.953478 19.5379C1.26554 19.6093 1.59316 19.556 1.86645 19.3893C2.05627 19.2665 2.61918 19.008 3.35882 18.7265C3.47172 19.5104 3.69918 20.2238 4.01827 20.8735C3.73422 21.051 3.45273 21.2327 3.17391 21.4184C3.03853 21.5058 2.9217 21.6191 2.83009 21.7517C2.73848 21.8843 2.6739 22.0337 2.64001 22.1912C2.60613 22.3488 2.60361 22.5115 2.6326 22.6701C2.6616 22.8286 2.72154 22.9799 2.809 23.1153C2.89646 23.2507 3.00973 23.3675 3.14234 23.4591C3.27495 23.5507 3.4243 23.6153 3.58188 23.6492C3.73945 23.6831 3.90215 23.6856 4.0607 23.6566C4.21924 23.6276 4.37053 23.5676 4.50591 23.4802L4.72027 23.3395C4.93463 23.2004 5.18173 23.0384 5.45009 22.8747C6.41554 23.8598 7.61336 24.6207 8.857 25.1935C11.7714 26.5353 15.2225 27 17.5641 27C19.9057 27 23.3568 26.5336 26.2712 25.1935C27.5148 24.6207 28.7143 23.8598 29.6781 22.8747C29.9465 23.0384 30.1935 23.2004 30.4079 23.3395L30.6223 23.4802C30.8957 23.6568 31.2281 23.7176 31.5463 23.6492C31.8645 23.5807 32.1425 23.3887 32.3192 23.1153C32.4958 22.8419 32.5566 22.5095 32.4882 22.1912C32.4197 21.873 32.2277 21.595 31.9543 21.4184L31.7694 21.2973C31.5894 21.1795 31.3652 21.0322 31.1099 20.8735C31.429 20.2255 31.6581 19.5104 31.771 18.7265C32.5106 19.008 33.0719 19.2665 33.2634 19.3893C33.5367 19.556 33.8643 19.6093 34.1763 19.5379C34.4884 19.4665 34.7602 19.276 34.9338 19.007C35.1073 18.738 35.1689 18.4118 35.1054 18.098C35.0419 17.7843 34.8583 17.5077 34.5937 17.3275C34.0783 16.9936 32.9574 16.5289 31.8757 16.1525C31.8999 15.3816 31.8758 14.6099 31.8037 13.842C31.7124 12.8733 31.4463 11.9291 31.0183 11.0553C31.2588 10.7395 31.4012 10.3909 31.4928 10.1275C31.7205 9.39935 31.8407 8.64191 31.8495 7.87909V4.80764C31.8495 3.17127 31.2735 1.91782 30.313 1.08982C29.3885 0.292909 28.2315 0 27.2268 0C26.5592 0 25.8686 0.256909 25.3106 0.507273C24.7081 0.790559 24.1195 1.10237 23.5466 1.44164L23.1981 1.64291L23.1948 1.64455C22.7628 1.89491 22.3799 2.11909 22.0379 2.29418C21.8753 2.37967 21.7082 2.45615 21.5372 2.52327C21.5039 2.53576 21.47 2.54668 21.4357 2.556C21.0807 2.55214 20.7264 2.52371 20.3754 2.47091L20.1103 2.43818C19.2655 2.33671 18.4149 2.2908 17.5641 2.30073C16.3008 2.30073 15.5841 2.36782 15.0179 2.43818L14.7528 2.47091C14.4017 2.52371 14.0474 2.55214 13.6925 2.556C13.6581 2.54666 13.6243 2.53574 13.591 2.52327C13.4198 2.4566 13.2526 2.38011 13.0903 2.29418C12.6996 2.08667 12.3139 1.87006 11.9334 1.64455L11.5815 1.44164C11.0092 1.10297 10.4211 0.791708 9.81918 0.508909C9.26118 0.256909 8.569 0 7.90136 0ZM8.011 21.8684C8.55754 22.2807 9.18754 22.644 9.883 22.9647C12.3866 24.1167 15.4663 24.5455 17.5641 24.5455C19.6619 24.5455 22.7399 24.1167 25.2452 22.9647C25.9406 22.644 26.5706 22.2807 27.1172 21.8684C26.8141 21.8159 26.5418 21.6515 26.3541 21.4078C26.1665 21.1641 26.0772 20.8588 26.104 20.5523C26.1307 20.2459 26.2715 19.9607 26.4986 19.7532C26.7256 19.5457 27.0223 19.431 27.3299 19.4318C27.865 19.4318 28.4132 19.566 28.9205 19.7509C29.1878 19.1898 29.345 18.5827 29.3835 17.9624C29.0575 17.8725 28.723 17.8165 28.3854 17.7955C28.0599 17.7955 27.7477 17.6662 27.5175 17.436C27.2874 17.2058 27.1581 16.8937 27.1581 16.5682C27.1581 16.2427 27.2874 15.9305 27.5175 15.7004C27.7477 15.4702 28.0599 15.3409 28.3854 15.3409C28.7045 15.3409 29.0645 15.39 29.4277 15.4587C29.4277 15.0071 29.413 14.5636 29.3639 14.1087C29.2494 13.0533 28.9499 12.1156 28.2446 11.2827C27.9603 10.9514 27.6379 10.6548 27.2841 10.3991C27.0215 10.2064 26.8463 9.9173 26.7969 9.59538C26.7474 9.27347 26.8279 8.94511 27.0206 8.68254C27.2133 8.41998 27.5024 8.24472 27.8243 8.19531C28.1463 8.1459 28.4746 8.2264 28.7372 8.41909C28.9335 8.56309 29.1168 8.71036 29.2903 8.86091C29.3623 8.48782 29.395 8.09673 29.395 7.87255V4.80764C29.395 3.78327 29.0579 3.24818 28.711 2.95036C28.3314 2.62309 27.7914 2.45455 27.2268 2.45455C27.1123 2.45455 26.8243 2.51836 26.3203 2.74582C25.8506 2.95855 25.3254 3.24982 24.7706 3.56891C24.6653 3.62987 24.56 3.69097 24.4548 3.75218C24.0163 4.00582 23.563 4.26927 23.1621 4.47545C22.9085 4.60636 22.645 4.73073 22.3914 4.82564C22.1014 4.94071 21.7934 5.00385 21.4815 5.01218C20.9979 5.01035 20.515 4.97371 20.0366 4.90254L19.8125 4.87473C19.0665 4.78534 18.3154 4.74544 17.5641 4.75527C16.4055 4.75527 15.7886 4.81582 15.3174 4.87473L15.0915 4.90254C14.6825 4.95655 14.2554 5.01055 13.6466 5.01055C13.2981 5.01055 12.9725 4.91236 12.7385 4.82564C12.4743 4.72432 12.2164 4.60739 11.9661 4.47545C11.5652 4.26927 11.1119 4.00582 10.6734 3.75218L10.3575 3.56891C9.80282 3.24982 9.27754 2.95691 8.80791 2.74582C8.30391 2.51673 8.01591 2.45455 7.90136 2.45455C7.33845 2.45455 6.79682 2.62309 6.41718 2.95036C6.07027 3.24818 5.73318 3.78491 5.73318 4.80764V7.87091C5.73318 8.09509 5.76591 8.48618 5.83791 8.85927C6.013 8.70873 6.19791 8.56145 6.391 8.41745C6.52101 8.32204 6.66853 8.25317 6.82516 8.21478C6.98178 8.17638 7.14444 8.16921 7.30383 8.19367C7.46323 8.21814 7.61625 8.27376 7.75415 8.35736C7.89205 8.44096 8.01213 8.5509 8.10754 8.68091C8.20295 8.81092 8.27182 8.95845 8.31022 9.11507C8.34862 9.2717 8.35579 9.43435 8.33132 9.59375C8.30686 9.75314 8.25124 9.90616 8.16764 10.0441C8.08404 10.182 7.9741 10.302 7.84409 10.3975C7.45136 10.6855 7.13554 10.9816 6.88354 11.2811C6.17991 12.1156 5.87882 13.0516 5.76427 14.1071C5.71518 14.562 5.69882 15.0071 5.69882 15.4571C6.06372 15.3867 6.42373 15.3393 6.74282 15.3393C7.06831 15.3393 7.38047 15.4686 7.61063 15.6987C7.84079 15.9289 7.97009 16.2411 7.97009 16.5665C7.97009 16.892 7.84079 17.2042 7.61063 17.4344C7.38047 17.6645 7.06831 17.7938 6.74282 17.7938C6.56936 17.7938 6.23227 17.8429 5.74463 17.9607C5.78882 18.612 5.94918 19.206 6.20772 19.7493C6.71548 19.5518 7.25363 19.4438 7.79827 19.4302C8.10586 19.4293 8.40255 19.544 8.62959 19.7516C8.85663 19.9591 8.99747 20.2443 9.02422 20.5507C9.05098 20.8571 8.96169 21.1624 8.77404 21.4061C8.5864 21.6499 8.31408 21.8159 8.011 21.8684Z"/>
</mask>
<path fill-rule="evenodd" clip-rule="evenodd" d="M7.90136 0C6.89663 0 5.74136 0.292909 4.81518 1.08982C3.85463 1.91618 3.27863 3.17127 3.27863 4.806V7.87909C3.28027 8.36018 3.36209 9.324 3.637 10.1275C3.727 10.3909 3.86936 10.7395 4.10991 11.0553C3.68178 11.9296 3.41567 12.8744 3.32445 13.8436C3.241 14.6078 3.23936 15.4113 3.25245 16.1525C2.17245 16.5289 1.05154 16.9936 0.536088 17.3275C0.271554 17.5077 0.0879389 17.7843 0.0244114 18.098C-0.0391162 18.4118 0.0224726 18.738 0.19604 19.007C0.369607 19.276 0.641414 19.4665 0.953478 19.5379C1.26554 19.6093 1.59316 19.556 1.86645 19.3893C2.05627 19.2665 2.61918 19.008 3.35882 18.7265C3.47172 19.5104 3.69918 20.2238 4.01827 20.8735C3.73422 21.051 3.45273 21.2327 3.17391 21.4184C3.03853 21.5058 2.9217 21.6191 2.83009 21.7517C2.73848 21.8843 2.6739 22.0337 2.64001 22.1912C2.60613 22.3488 2.60361 22.5115 2.6326 22.6701C2.6616 22.8286 2.72154 22.9799 2.809 23.1153C2.89646 23.2507 3.00973 23.3675 3.14234 23.4591C3.27495 23.5507 3.4243 23.6153 3.58188 23.6492C3.73945 23.6831 3.90215 23.6856 4.0607 23.6566C4.21924 23.6276 4.37053 23.5676 4.50591 23.4802L4.72027 23.3395C4.93463 23.2004 5.18173 23.0384 5.45009 22.8747C6.41554 23.8598 7.61336 24.6207 8.857 25.1935C11.7714 26.5353 15.2225 27 17.5641 27C19.9057 27 23.3568 26.5336 26.2712 25.1935C27.5148 24.6207 28.7143 23.8598 29.6781 22.8747C29.9465 23.0384 30.1935 23.2004 30.4079 23.3395L30.6223 23.4802C30.8957 23.6568 31.2281 23.7176 31.5463 23.6492C31.8645 23.5807 32.1425 23.3887 32.3192 23.1153C32.4958 22.8419 32.5566 22.5095 32.4882 22.1912C32.4197 21.873 32.2277 21.595 31.9543 21.4184L31.7694 21.2973C31.5894 21.1795 31.3652 21.0322 31.1099 20.8735C31.429 20.2255 31.6581 19.5104 31.771 18.7265C32.5106 19.008 33.0719 19.2665 33.2634 19.3893C33.5367 19.556 33.8643 19.6093 34.1763 19.5379C34.4884 19.4665 34.7602 19.276 34.9338 19.007C35.1073 18.738 35.1689 18.4118 35.1054 18.098C35.0419 17.7843 34.8583 17.5077 34.5937 17.3275C34.0783 16.9936 32.9574 16.5289 31.8757 16.1525C31.8999 15.3816 31.8758 14.6099 31.8037 13.842C31.7124 12.8733 31.4463 11.9291 31.0183 11.0553C31.2588 10.7395 31.4012 10.3909 31.4928 10.1275C31.7205 9.39935 31.8407 8.64191 31.8495 7.87909V4.80764C31.8495 3.17127 31.2735 1.91782 30.313 1.08982C29.3885 0.292909 28.2315 0 27.2268 0C26.5592 0 25.8686 0.256909 25.3106 0.507273C24.7081 0.790559 24.1195 1.10237 23.5466 1.44164L23.1981 1.64291L23.1948 1.64455C22.7628 1.89491 22.3799 2.11909 22.0379 2.29418C21.8753 2.37967 21.7082 2.45615 21.5372 2.52327C21.5039 2.53576 21.47 2.54668 21.4357 2.556C21.0807 2.55214 20.7264 2.52371 20.3754 2.47091L20.1103 2.43818C19.2655 2.33671 18.4149 2.2908 17.5641 2.30073C16.3008 2.30073 15.5841 2.36782 15.0179 2.43818L14.7528 2.47091C14.4017 2.52371 14.0474 2.55214 13.6925 2.556C13.6581 2.54666 13.6243 2.53574 13.591 2.52327C13.4198 2.4566 13.2526 2.38011 13.0903 2.29418C12.6996 2.08667 12.3139 1.87006 11.9334 1.64455L11.5815 1.44164C11.0092 1.10297 10.4211 0.791708 9.81918 0.508909C9.26118 0.256909 8.569 0 7.90136 0ZM8.011 21.8684C8.55754 22.2807 9.18754 22.644 9.883 22.9647C12.3866 24.1167 15.4663 24.5455 17.5641 24.5455C19.6619 24.5455 22.7399 24.1167 25.2452 22.9647C25.9406 22.644 26.5706 22.2807 27.1172 21.8684C26.8141 21.8159 26.5418 21.6515 26.3541 21.4078C26.1665 21.1641 26.0772 20.8588 26.104 20.5523C26.1307 20.2459 26.2715 19.9607 26.4986 19.7532C26.7256 19.5457 27.0223 19.431 27.3299 19.4318C27.865 19.4318 28.4132 19.566 28.9205 19.7509C29.1878 19.1898 29.345 18.5827 29.3835 17.9624C29.0575 17.8725 28.723 17.8165 28.3854 17.7955C28.0599 17.7955 27.7477 17.6662 27.5175 17.436C27.2874 17.2058 27.1581 16.8937 27.1581 16.5682C27.1581 16.2427 27.2874 15.9305 27.5175 15.7004C27.7477 15.4702 28.0599 15.3409 28.3854 15.3409C28.7045 15.3409 29.0645 15.39 29.4277 15.4587C29.4277 15.0071 29.413 14.5636 29.3639 14.1087C29.2494 13.0533 28.9499 12.1156 28.2446 11.2827C27.9603 10.9514 27.6379 10.6548 27.2841 10.3991C27.0215 10.2064 26.8463 9.9173 26.7969 9.59538C26.7474 9.27347 26.8279 8.94511 27.0206 8.68254C27.2133 8.41998 27.5024 8.24472 27.8243 8.19531C28.1463 8.1459 28.4746 8.2264 28.7372 8.41909C28.9335 8.56309 29.1168 8.71036 29.2903 8.86091C29.3623 8.48782 29.395 8.09673 29.395 7.87255V4.80764C29.395 3.78327 29.0579 3.24818 28.711 2.95036C28.3314 2.62309 27.7914 2.45455 27.2268 2.45455C27.1123 2.45455 26.8243 2.51836 26.3203 2.74582C25.8506 2.95855 25.3254 3.24982 24.7706 3.56891C24.6653 3.62987 24.56 3.69097 24.4548 3.75218C24.0163 4.00582 23.563 4.26927 23.1621 4.47545C22.9085 4.60636 22.645 4.73073 22.3914 4.82564C22.1014 4.94071 21.7934 5.00385 21.4815 5.01218C20.9979 5.01035 20.515 4.97371 20.0366 4.90254L19.8125 4.87473C19.0665 4.78534 18.3154 4.74544 17.5641 4.75527C16.4055 4.75527 15.7886 4.81582 15.3174 4.87473L15.0915 4.90254C14.6825 4.95655 14.2554 5.01055 13.6466 5.01055C13.2981 5.01055 12.9725 4.91236 12.7385 4.82564C12.4743 4.72432 12.2164 4.60739 11.9661 4.47545C11.5652 4.26927 11.1119 4.00582 10.6734 3.75218L10.3575 3.56891C9.80282 3.24982 9.27754 2.95691 8.80791 2.74582C8.30391 2.51673 8.01591 2.45455 7.90136 2.45455C7.33845 2.45455 6.79682 2.62309 6.41718 2.95036C6.07027 3.24818 5.73318 3.78491 5.73318 4.80764V7.87091C5.73318 8.09509 5.76591 8.48618 5.83791 8.85927C6.013 8.70873 6.19791 8.56145 6.391 8.41745C6.52101 8.32204 6.66853 8.25317 6.82516 8.21478C6.98178 8.17638 7.14444 8.16921 7.30383 8.19367C7.46323 8.21814 7.61625 8.27376 7.75415 8.35736C7.89205 8.44096 8.01213 8.5509 8.10754 8.68091C8.20295 8.81092 8.27182 8.95845 8.31022 9.11507C8.34862 9.2717 8.35579 9.43435 8.33132 9.59375C8.30686 9.75314 8.25124 9.90616 8.16764 10.0441C8.08404 10.182 7.9741 10.302 7.84409 10.3975C7.45136 10.6855 7.13554 10.9816 6.88354 11.2811C6.17991 12.1156 5.87882 13.0516 5.76427 14.1071C5.71518 14.562 5.69882 15.0071 5.69882 15.4571C6.06372 15.3867 6.42373 15.3393 6.74282 15.3393C7.06831 15.3393 7.38047 15.4686 7.61063 15.6987C7.84079 15.9289 7.97009 16.2411 7.97009 16.5665C7.97009 16.892 7.84079 17.2042 7.61063 17.4344C7.38047 17.6645 7.06831 17.7938 6.74282 17.7938C6.56936 17.7938 6.23227 17.8429 5.74463 17.9607C5.78882 18.612 5.94918 19.206 6.20772 19.7493C6.71548 19.5518 7.25363 19.4438 7.79827 19.4302C8.10586 19.4293 8.40255 19.544 8.62959 19.7516C8.85663 19.9591 8.99747 20.2443 9.02422 20.5507C9.05098 20.8571 8.96169 21.1624 8.77404 21.4061C8.5864 21.6499 8.31408 21.8159 8.011 21.8684Z" fill="#39EC12" stroke="#F2EEEE" stroke-width="0.8" mask="url(#path-3-inside-1_174_4410)"/>
</svg>
