<svg width="30" height="27" viewBox="0 0 30 27" fill="none" xmlns="http://www.w3.org/2000/svg">
<path d="M22.933 6.6341L22.9691 6.68625L23.0317 6.69668L29.1822 7.72173V10.4553L28.2413 15.4736C28.0242 16.6317 27.6657 17.407 27.0877 18.01C26.4118 18.7151 25.4402 19.1455 24.0962 19.3107L24.0962 19.3106L24.0892 19.3118L18.0578 20.3445L17.9339 20.3657L17.9331 20.4914L17.8932 26.85H16.2378L16.2871 18.9682L23.8779 17.6695C24.8313 17.5546 25.4556 17.311 25.8734 16.8888C26.2903 16.4675 26.4787 15.8907 26.6141 15.1685L27.5242 10.3152L27.5267 10.3015V10.2875V9.2512V9.12413L27.4014 9.10324L22.0069 8.20412L17.9807 2.38867L17.9806 2.38857C17.8783 2.24107 17.7423 2.12007 17.5839 2.03562C17.4255 1.95117 17.2493 1.9057 17.0698 1.90297L17.0697 1.90297L10.2616 1.80519V1.80518L10.2595 1.80518C8.49841 1.80564 7.18735 1.97081 6.1706 2.37869C5.14691 2.78934 4.43088 3.44216 3.85383 4.39555C3.16929 5.52636 2.67286 7.12776 2.33991 9.30397C2.00671 11.4818 1.83573 14.2461 1.80915 17.7103L1.80799 17.8615H1.95915H4.8887C7.60377 17.8615 9.08648 15.6478 9.57714 13.6212L9.57721 13.6212L9.57818 13.6165L11.1408 6.12858H12.832L11.1932 13.9816L11.1903 13.9935L11.1903 13.9937C10.8176 15.5461 10.0822 16.8776 9.06799 17.848L9.0674 17.8486C7.948 18.9316 6.44753 19.5309 4.89004 19.5169H4.8887H4.22671H4.10327L4.07951 19.6381L2.6652 26.85H0.978154L2.38115 19.6958L2.41623 19.5169H2.23395H0.15V18.6892C0.15 10.6855 0.843237 6.17187 2.43762 3.53852L2.43762 3.53851C3.28948 2.13128 4.37253 1.28792 5.67362 0.793525C6.98004 0.297103 8.51282 0.15 10.2663 0.15H10.2793H10.2803L17.0933 0.247756C17.0933 0.247757 17.0933 0.247757 17.0934 0.247757C17.5364 0.254565 17.9715 0.366857 18.3625 0.575329C18.7535 0.783809 19.0893 1.08247 19.3419 1.44658L22.933 6.6341Z" fill="#39EC12" stroke="#EDE8E8" stroke-width="0.3"/>
</svg>
