<svg width="1134" height="6" viewBox="0 0 1134 6" fill="none" xmlns="http://www.w3.org/2000/svg">
<path fill-rule="evenodd" clip-rule="evenodd" d="M3 6C4.65685 6 6 4.65685 6 3C6 1.34315 4.65685 0 3 0C1.34315 0 0 1.34315 0 3C0 4.65685 1.34315 6 3 6ZM11 6C12.6569 6 14 4.65685 14 3C14 1.34315 12.6569 0 11 0C9.34315 0 8 1.34315 8 3C8 4.65685 9.34315 6 11 6ZM22 3C22 4.65685 20.6569 6 19 6C17.3431 6 16 4.65685 16 3C16 1.34315 17.3431 0 19 0C20.6569 0 22 1.34315 22 3ZM27 6C28.6569 6 30 4.65685 30 3C30 1.34315 28.6569 0 27 0C25.3431 0 24 1.34315 24 3C24 4.65685 25.3431 6 27 6ZM38 3C38 4.65685 36.6569 6 35 6C33.3431 6 32 4.65685 32 3C32 1.34315 33.3431 0 35 0C36.6569 0 38 1.34315 38 3ZM43 6C44.6569 6 46 4.65685 46 3C46 1.34315 44.6569 0 43 0C41.3431 0 40 1.34315 40 3C40 4.65685 41.3431 6 43 6ZM54 3C54 4.65685 52.6569 6 51 6C49.3431 6 48 4.65685 48 3C48 1.34315 49.3431 0 51 0C52.6569 0 54 1.34315 54 3ZM59 6C60.6569 6 62 4.65685 62 3C62 1.34315 60.6569 0 59 0C57.3431 0 56 1.34315 56 3C56 4.65685 57.3431 6 59 6ZM70 3C70 4.65685 68.6569 6 67 6C65.3431 6 64 4.65685 64 3C64 1.34315 65.3431 0 67 0C68.6569 0 70 1.34315 70 3ZM75 6C76.6569 6 78 4.65685 78 3C78 1.34315 76.6569 0 75 0C73.3431 0 72 1.34315 72 3C72 4.65685 73.3431 6 75 6ZM86 3C86 4.65685 84.6569 6 83 6C81.3431 6 80 4.65685 80 3C80 1.34315 81.3431 0 83 0C84.6569 0 86 1.34315 86 3ZM91 6C92.6569 6 94 4.65685 94 3C94 1.34315 92.6569 0 91 0C89.3431 0 88 1.34315 88 3C88 4.65685 89.3431 6 91 6ZM102 3C102 4.65685 100.657 6 99 6C97.3431 6 96 4.65685 96 3C96 1.34315 97.3431 0 99 0C100.657 0 102 1.34315 102 3ZM107 6C108.657 6 110 4.65685 110 3C110 1.34315 108.657 0 107 0C105.343 0 104 1.34315 104 3C104 4.65685 105.343 6 107 6ZM118 3C118 4.65685 116.657 6 115 6C113.343 6 112 4.65685 112 3C112 1.34315 113.343 0 115 0C116.657 0 118 1.34315 118 3ZM123 6C124.657 6 126 4.65685 126 3C126 1.34315 124.657 0 123 0C121.343 0 120 1.34315 120 3C120 4.65685 121.343 6 123 6ZM134 3C134 4.65685 132.657 6 131 6C129.343 6 128 4.65685 128 3C128 1.34315 129.343 0 131 0C132.657 0 134 1.34315 134 3ZM139 6C140.657 6 142 4.65685 142 3C142 1.34315 140.657 0 139 0C137.343 0 136 1.34315 136 3C136 4.65685 137.343 6 139 6ZM150 3C150 4.65685 148.657 6 147 6C145.343 6 144 4.65685 144 3C144 1.34315 145.343 0 147 0C148.657 0 150 1.34315 150 3ZM155 6C156.657 6 158 4.65685 158 3C158 1.34315 156.657 0 155 0C153.343 0 152 1.34315 152 3C152 4.65685 153.343 6 155 6ZM166 3C166 4.65685 164.657 6 163 6C161.343 6 160 4.65685 160 3C160 1.34315 161.343 0 163 0C164.657 0 166 1.34315 166 3ZM171 6C172.657 6 174 4.65685 174 3C174 1.34315 172.657 0 171 0C169.343 0 168 1.34315 168 3C168 4.65685 169.343 6 171 6ZM182 3C182 4.65685 180.657 6 179 6C177.343 6 176 4.65685 176 3C176 1.34315 177.343 0 179 0C180.657 0 182 1.34315 182 3ZM187 6C188.657 6 190 4.65685 190 3C190 1.34315 188.657 0 187 0C185.343 0 184 1.34315 184 3C184 4.65685 185.343 6 187 6ZM198 3C198 4.65685 196.657 6 195 6C193.343 6 192 4.65685 192 3C192 1.34315 193.343 0 195 0C196.657 0 198 1.34315 198 3ZM203 6C204.657 6 206 4.65685 206 3C206 1.34315 204.657 0 203 0C201.343 0 200 1.34315 200 3C200 4.65685 201.343 6 203 6ZM214 3C214 4.65685 212.657 6 211 6C209.343 6 208 4.65685 208 3C208 1.34315 209.343 0 211 0C212.657 0 214 1.34315 214 3ZM219 6C220.657 6 222 4.65685 222 3C222 1.34315 220.657 0 219 0C217.343 0 216 1.34315 216 3C216 4.65685 217.343 6 219 6ZM230 3C230 4.65685 228.657 6 227 6C225.343 6 224 4.65685 224 3C224 1.34315 225.343 0 227 0C228.657 0 230 1.34315 230 3ZM235 6C236.657 6 238 4.65685 238 3C238 1.34315 236.657 0 235 0C233.343 0 232 1.34315 232 3C232 4.65685 233.343 6 235 6ZM246 3C246 4.65685 244.657 6 243 6C241.343 6 240 4.65685 240 3C240 1.34315 241.343 0 243 0C244.657 0 246 1.34315 246 3ZM251 6C252.657 6 254 4.65685 254 3C254 1.34315 252.657 0 251 0C249.343 0 248 1.34315 248 3C248 4.65685 249.343 6 251 6ZM262 3C262 4.65685 260.657 6 259 6C257.343 6 256 4.65685 256 3C256 1.34315 257.343 0 259 0C260.657 0 262 1.34315 262 3ZM267 6C268.657 6 270 4.65685 270 3C270 1.34315 268.657 0 267 0C265.343 0 264 1.34315 264 3C264 4.65685 265.343 6 267 6ZM278 3C278 4.65685 276.657 6 275 6C273.343 6 272 4.65685 272 3C272 1.34315 273.343 0 275 0C276.657 0 278 1.34315 278 3ZM283 6C284.657 6 286 4.65685 286 3C286 1.34315 284.657 0 283 0C281.343 0 280 1.34315 280 3C280 4.65685 281.343 6 283 6ZM294 3C294 4.65685 292.657 6 291 6C289.343 6 288 4.65685 288 3C288 1.34315 289.343 0 291 0C292.657 0 294 1.34315 294 3ZM299 6C300.657 6 302 4.65685 302 3C302 1.34315 300.657 0 299 0C297.343 0 296 1.34315 296 3C296 4.65685 297.343 6 299 6ZM310 3C310 4.65685 308.657 6 307 6C305.343 6 304 4.65685 304 3C304 1.34315 305.343 0 307 0C308.657 0 310 1.34315 310 3ZM315 6C316.657 6 318 4.65685 318 3C318 1.34315 316.657 0 315 0C313.343 0 312 1.34315 312 3C312 4.65685 313.343 6 315 6ZM326 3C326 4.65685 324.657 6 323 6C321.343 6 320 4.65685 320 3C320 1.34315 321.343 0 323 0C324.657 0 326 1.34315 326 3ZM331 6C332.657 6 334 4.65685 334 3C334 1.34315 332.657 0 331 0C329.343 0 328 1.34315 328 3C328 4.65685 329.343 6 331 6ZM342 3C342 4.65685 340.657 6 339 6C337.343 6 336 4.65685 336 3C336 1.34315 337.343 0 339 0C340.657 0 342 1.34315 342 3ZM347 6C348.657 6 350 4.65685 350 3C350 1.34315 348.657 0 347 0C345.343 0 344 1.34315 344 3C344 4.65685 345.343 6 347 6ZM358 3C358 4.65685 356.657 6 355 6C353.343 6 352 4.65685 352 3C352 1.34315 353.343 0 355 0C356.657 0 358 1.34315 358 3ZM363 6C364.657 6 366 4.65685 366 3C366 1.34315 364.657 0 363 0C361.343 0 360 1.34315 360 3C360 4.65685 361.343 6 363 6ZM374 3C374 4.65685 372.657 6 371 6C369.343 6 368 4.65685 368 3C368 1.34315 369.343 0 371 0C372.657 0 374 1.34315 374 3ZM379 6C380.657 6 382 4.65685 382 3C382 1.34315 380.657 0 379 0C377.343 0 376 1.34315 376 3C376 4.65685 377.343 6 379 6ZM390 3C390 4.65685 388.657 6 387 6C385.343 6 384 4.65685 384 3C384 1.34315 385.343 0 387 0C388.657 0 390 1.34315 390 3ZM395 6C396.657 6 398 4.65685 398 3C398 1.34315 396.657 0 395 0C393.343 0 392 1.34315 392 3C392 4.65685 393.343 6 395 6ZM406 3C406 4.65685 404.657 6 403 6C401.343 6 400 4.65685 400 3C400 1.34315 401.343 0 403 0C404.657 0 406 1.34315 406 3ZM411 6C412.657 6 414 4.65685 414 3C414 1.34315 412.657 0 411 0C409.343 0 408 1.34315 408 3C408 4.65685 409.343 6 411 6ZM422 3C422 4.65685 420.657 6 419 6C417.343 6 416 4.65685 416 3C416 1.34315 417.343 0 419 0C420.657 0 422 1.34315 422 3ZM427 6C428.657 6 430 4.65685 430 3C430 1.34315 428.657 0 427 0C425.343 0 424 1.34315 424 3C424 4.65685 425.343 6 427 6ZM438 3C438 4.65685 436.657 6 435 6C433.343 6 432 4.65685 432 3C432 1.34315 433.343 0 435 0C436.657 0 438 1.34315 438 3ZM443 6C444.657 6 446 4.65685 446 3C446 1.34315 444.657 0 443 0C441.343 0 440 1.34315 440 3C440 4.65685 441.343 6 443 6ZM454 3C454 4.65685 452.657 6 451 6C449.343 6 448 4.65685 448 3C448 1.34315 449.343 0 451 0C452.657 0 454 1.34315 454 3ZM459 6C460.657 6 462 4.65685 462 3C462 1.34315 460.657 0 459 0C457.343 0 456 1.34315 456 3C456 4.65685 457.343 6 459 6ZM470 3C470 4.65685 468.657 6 467 6C465.343 6 464 4.65685 464 3C464 1.34315 465.343 0 467 0C468.657 0 470 1.34315 470 3ZM475 6C476.657 6 478 4.65685 478 3C478 1.34315 476.657 0 475 0C473.343 0 472 1.34315 472 3C472 4.65685 473.343 6 475 6ZM486 3C486 4.65685 484.657 6 483 6C481.343 6 480 4.65685 480 3C480 1.34315 481.343 0 483 0C484.657 0 486 1.34315 486 3ZM491 6C492.657 6 494 4.65685 494 3C494 1.34315 492.657 0 491 0C489.343 0 488 1.34315 488 3C488 4.65685 489.343 6 491 6ZM502 3C502 4.65685 500.657 6 499 6C497.343 6 496 4.65685 496 3C496 1.34315 497.343 0 499 0C500.657 0 502 1.34315 502 3ZM507 6C508.657 6 510 4.65685 510 3C510 1.34315 508.657 0 507 0C505.343 0 504 1.34315 504 3C504 4.65685 505.343 6 507 6ZM518 3C518 4.65685 516.657 6 515 6C513.343 6 512 4.65685 512 3C512 1.34315 513.343 0 515 0C516.657 0 518 1.34315 518 3ZM523 6C524.657 6 526 4.65685 526 3C526 1.34315 524.657 0 523 0C521.343 0 520 1.34315 520 3C520 4.65685 521.343 6 523 6ZM534 3C534 4.65685 532.657 6 531 6C529.343 6 528 4.65685 528 3C528 1.34315 529.343 0 531 0C532.657 0 534 1.34315 534 3ZM539 6C540.657 6 542 4.65685 542 3C542 1.34315 540.657 0 539 0C537.343 0 536 1.34315 536 3C536 4.65685 537.343 6 539 6ZM550 3C550 4.65685 548.657 6 547 6C545.343 6 544 4.65685 544 3C544 1.34315 545.343 0 547 0C548.657 0 550 1.34315 550 3ZM555 6C556.657 6 558 4.65685 558 3C558 1.34315 556.657 0 555 0C553.343 0 552 1.34315 552 3C552 4.65685 553.343 6 555 6ZM566 3C566 4.65685 564.657 6 563 6C561.343 6 560 4.65685 560 3C560 1.34315 561.343 0 563 0C564.657 0 566 1.34315 566 3ZM571 6C572.657 6 574 4.65685 574 3C574 1.34315 572.657 0 571 0C569.343 0 568 1.34315 568 3C568 4.65685 569.343 6 571 6ZM582 3C582 4.65685 580.657 6 579 6C577.343 6 576 4.65685 576 3C576 1.34315 577.343 0 579 0C580.657 0 582 1.34315 582 3ZM587 6C588.657 6 590 4.65685 590 3C590 1.34315 588.657 0 587 0C585.343 0 584 1.34315 584 3C584 4.65685 585.343 6 587 6ZM598 3C598 4.65685 596.657 6 595 6C593.343 6 592 4.65685 592 3C592 1.34315 593.343 0 595 0C596.657 0 598 1.34315 598 3ZM603 6C604.657 6 606 4.65685 606 3C606 1.34315 604.657 0 603 0C601.343 0 600 1.34315 600 3C600 4.65685 601.343 6 603 6ZM614 3C614 4.65685 612.657 6 611 6C609.343 6 608 4.65685 608 3C608 1.34315 609.343 0 611 0C612.657 0 614 1.34315 614 3ZM619 6C620.657 6 622 4.65685 622 3C622 1.34315 620.657 0 619 0C617.343 0 616 1.34315 616 3C616 4.65685 617.343 6 619 6ZM630 3C630 4.65685 628.657 6 627 6C625.343 6 624 4.65685 624 3C624 1.34315 625.343 0 627 0C628.657 0 630 1.34315 630 3ZM635 6C636.657 6 638 4.65685 638 3C638 1.34315 636.657 0 635 0C633.343 0 632 1.34315 632 3C632 4.65685 633.343 6 635 6ZM646 3C646 4.65685 644.657 6 643 6C641.343 6 640 4.65685 640 3C640 1.34315 641.343 0 643 0C644.657 0 646 1.34315 646 3ZM651 6C652.657 6 654 4.65685 654 3C654 1.34315 652.657 0 651 0C649.343 0 648 1.34315 648 3C648 4.65685 649.343 6 651 6ZM662 3C662 4.65685 660.657 6 659 6C657.343 6 656 4.65685 656 3C656 1.34315 657.343 0 659 0C660.657 0 662 1.34315 662 3ZM667 6C668.657 6 670 4.65685 670 3C670 1.34315 668.657 0 667 0C665.343 0 664 1.34315 664 3C664 4.65685 665.343 6 667 6ZM678 3C678 4.65685 676.657 6 675 6C673.343 6 672 4.65685 672 3C672 1.34315 673.343 0 675 0C676.657 0 678 1.34315 678 3ZM683 6C684.657 6 686 4.65685 686 3C686 1.34315 684.657 0 683 0C681.343 0 680 1.34315 680 3C680 4.65685 681.343 6 683 6ZM694 3C694 4.65685 692.657 6 691 6C689.343 6 688 4.65685 688 3C688 1.34315 689.343 0 691 0C692.657 0 694 1.34315 694 3ZM699 6C700.657 6 702 4.65685 702 3C702 1.34315 700.657 0 699 0C697.343 0 696 1.34315 696 3C696 4.65685 697.343 6 699 6ZM710 3C710 4.65685 708.657 6 707 6C705.343 6 704 4.65685 704 3C704 1.34315 705.343 0 707 0C708.657 0 710 1.34315 710 3ZM715 6C716.657 6 718 4.65685 718 3C718 1.34315 716.657 0 715 0C713.343 0 712 1.34315 712 3C712 4.65685 713.343 6 715 6ZM726 3C726 4.65685 724.657 6 723 6C721.343 6 720 4.65685 720 3C720 1.34315 721.343 0 723 0C724.657 0 726 1.34315 726 3ZM731 6C732.657 6 734 4.65685 734 3C734 1.34315 732.657 0 731 0C729.343 0 728 1.34315 728 3C728 4.65685 729.343 6 731 6ZM742 3C742 4.65685 740.657 6 739 6C737.343 6 736 4.65685 736 3C736 1.34315 737.343 0 739 0C740.657 0 742 1.34315 742 3ZM747 6C748.657 6 750 4.65685 750 3C750 1.34315 748.657 0 747 0C745.343 0 744 1.34315 744 3C744 4.65685 745.343 6 747 6ZM758 3C758 4.65685 756.657 6 755 6C753.343 6 752 4.65685 752 3C752 1.34315 753.343 0 755 0C756.657 0 758 1.34315 758 3ZM763 6C764.657 6 766 4.65685 766 3C766 1.34315 764.657 0 763 0C761.343 0 760 1.34315 760 3C760 4.65685 761.343 6 763 6ZM774 3C774 4.65685 772.657 6 771 6C769.343 6 768 4.65685 768 3C768 1.34315 769.343 0 771 0C772.657 0 774 1.34315 774 3ZM779 6C780.657 6 782 4.65685 782 3C782 1.34315 780.657 0 779 0C777.343 0 776 1.34315 776 3C776 4.65685 777.343 6 779 6ZM790 3C790 4.65685 788.657 6 787 6C785.343 6 784 4.65685 784 3C784 1.34315 785.343 0 787 0C788.657 0 790 1.34315 790 3ZM795 6C796.657 6 798 4.65685 798 3C798 1.34315 796.657 0 795 0C793.343 0 792 1.34315 792 3C792 4.65685 793.343 6 795 6ZM806 3C806 4.65685 804.657 6 803 6C801.343 6 800 4.65685 800 3C800 1.34315 801.343 0 803 0C804.657 0 806 1.34315 806 3ZM811 6C812.657 6 814 4.65685 814 3C814 1.34315 812.657 0 811 0C809.343 0 808 1.34315 808 3C808 4.65685 809.343 6 811 6ZM822 3C822 4.65685 820.657 6 819 6C817.343 6 816 4.65685 816 3C816 1.34315 817.343 0 819 0C820.657 0 822 1.34315 822 3ZM827 6C828.657 6 830 4.65685 830 3C830 1.34315 828.657 0 827 0C825.343 0 824 1.34315 824 3C824 4.65685 825.343 6 827 6ZM838 3C838 4.65685 836.657 6 835 6C833.343 6 832 4.65685 832 3C832 1.34315 833.343 0 835 0C836.657 0 838 1.34315 838 3ZM843 6C844.657 6 846 4.65685 846 3C846 1.34315 844.657 0 843 0C841.343 0 840 1.34315 840 3C840 4.65685 841.343 6 843 6ZM854 3C854 4.65685 852.657 6 851 6C849.343 6 848 4.65685 848 3C848 1.34315 849.343 0 851 0C852.657 0 854 1.34315 854 3ZM859 6C860.657 6 862 4.65685 862 3C862 1.34315 860.657 0 859 0C857.343 0 856 1.34315 856 3C856 4.65685 857.343 6 859 6ZM870 3C870 4.65685 868.657 6 867 6C865.343 6 864 4.65685 864 3C864 1.34315 865.343 0 867 0C868.657 0 870 1.34315 870 3ZM875 6C876.657 6 878 4.65685 878 3C878 1.34315 876.657 0 875 0C873.343 0 872 1.34315 872 3C872 4.65685 873.343 6 875 6ZM886 3C886 4.65685 884.657 6 883 6C881.343 6 880 4.65685 880 3C880 1.34315 881.343 0 883 0C884.657 0 886 1.34315 886 3ZM891 6C892.657 6 894 4.65685 894 3C894 1.34315 892.657 0 891 0C889.343 0 888 1.34315 888 3C888 4.65685 889.343 6 891 6ZM902 3C902 4.65685 900.657 6 899 6C897.343 6 896 4.65685 896 3C896 1.34315 897.343 0 899 0C900.657 0 902 1.34315 902 3ZM907 6C908.657 6 910 4.65685 910 3C910 1.34315 908.657 0 907 0C905.343 0 904 1.34315 904 3C904 4.65685 905.343 6 907 6ZM918 3C918 4.65685 916.657 6 915 6C913.343 6 912 4.65685 912 3C912 1.34315 913.343 0 915 0C916.657 0 918 1.34315 918 3ZM923 6C924.657 6 926 4.65685 926 3C926 1.34315 924.657 0 923 0C921.343 0 920 1.34315 920 3C920 4.65685 921.343 6 923 6ZM934 3C934 4.65685 932.657 6 931 6C929.343 6 928 4.65685 928 3C928 1.34315 929.343 0 931 0C932.657 0 934 1.34315 934 3ZM939 6C940.657 6 942 4.65685 942 3C942 1.34315 940.657 0 939 0C937.343 0 936 1.34315 936 3C936 4.65685 937.343 6 939 6ZM950 3C950 4.65685 948.657 6 947 6C945.343 6 944 4.65685 944 3C944 1.34315 945.343 0 947 0C948.657 0 950 1.34315 950 3ZM955 6C956.657 6 958 4.65685 958 3C958 1.34315 956.657 0 955 0C953.343 0 952 1.34315 952 3C952 4.65685 953.343 6 955 6ZM966 3C966 4.65685 964.657 6 963 6C961.343 6 960 4.65685 960 3C960 1.34315 961.343 0 963 0C964.657 0 966 1.34315 966 3ZM971 6C972.657 6 974 4.65685 974 3C974 1.34315 972.657 0 971 0C969.343 0 968 1.34315 968 3C968 4.65685 969.343 6 971 6ZM982 3C982 4.65685 980.657 6 979 6C977.343 6 976 4.65685 976 3C976 1.34315 977.343 0 979 0C980.657 0 982 1.34315 982 3ZM987 6C988.657 6 990 4.65685 990 3C990 1.34315 988.657 0 987 0C985.343 0 984 1.34315 984 3C984 4.65685 985.343 6 987 6ZM998 3C998 4.65685 996.657 6 995 6C993.343 6 992 4.65685 992 3C992 1.34315 993.343 0 995 0C996.657 0 998 1.34315 998 3ZM1003 6C1004.66 6 1006 4.65685 1006 3C1006 1.34315 1004.66 0 1003 0C1001.34 0 1000 1.34315 1000 3C1000 4.65685 1001.34 6 1003 6ZM1014 3C1014 4.65685 1012.66 6 1011 6C1009.34 6 1008 4.65685 1008 3C1008 1.34315 1009.34 0 1011 0C1012.66 0 1014 1.34315 1014 3ZM1019 6C1020.66 6 1022 4.65685 1022 3C1022 1.34315 1020.66 0 1019 0C1017.34 0 1016 1.34315 1016 3C1016 4.65685 1017.34 6 1019 6ZM1030 3C1030 4.65685 1028.66 6 1027 6C1025.34 6 1024 4.65685 1024 3C1024 1.34315 1025.34 0 1027 0C1028.66 0 1030 1.34315 1030 3ZM1035 6C1036.66 6 1038 4.65685 1038 3C1038 1.34315 1036.66 0 1035 0C1033.34 0 1032 1.34315 1032 3C1032 4.65685 1033.34 6 1035 6ZM1046 3C1046 4.65685 1044.66 6 1043 6C1041.34 6 1040 4.65685 1040 3C1040 1.34315 1041.34 0 1043 0C1044.66 0 1046 1.34315 1046 3ZM1051 6C1052.66 6 1054 4.65685 1054 3C1054 1.34315 1052.66 0 1051 0C1049.34 0 1048 1.34315 1048 3C1048 4.65685 1049.34 6 1051 6ZM1062 3C1062 4.65685 1060.66 6 1059 6C1057.34 6 1056 4.65685 1056 3C1056 1.34315 1057.34 0 1059 0C1060.66 0 1062 1.34315 1062 3ZM1067 6C1068.66 6 1070 4.65685 1070 3C1070 1.34315 1068.66 0 1067 0C1065.34 0 1064 1.34315 1064 3C1064 4.65685 1065.34 6 1067 6ZM1078 3C1078 4.65685 1076.66 6 1075 6C1073.34 6 1072 4.65685 1072 3C1072 1.34315 1073.34 0 1075 0C1076.66 0 1078 1.34315 1078 3ZM1083 6C1084.66 6 1086 4.65685 1086 3C1086 1.34315 1084.66 0 1083 0C1081.34 0 1080 1.34315 1080 3C1080 4.65685 1081.34 6 1083 6ZM1094 3C1094 4.65685 1092.66 6 1091 6C1089.34 6 1088 4.65685 1088 3C1088 1.34315 1089.34 0 1091 0C1092.66 0 1094 1.34315 1094 3ZM1099 6C1100.66 6 1102 4.65685 1102 3C1102 1.34315 1100.66 0 1099 0C1097.34 0 1096 1.34315 1096 3C1096 4.65685 1097.34 6 1099 6ZM1110 3C1110 4.65685 1108.66 6 1107 6C1105.34 6 1104 4.65685 1104 3C1104 1.34315 1105.34 0 1107 0C1108.66 0 1110 1.34315 1110 3ZM1115 6C1116.66 6 1118 4.65685 1118 3C1118 1.34315 1116.66 0 1115 0C1113.34 0 1112 1.34315 1112 3C1112 4.65685 1113.34 6 1115 6ZM1126 3C1126 4.65685 1124.66 6 1123 6C1121.34 6 1120 4.65685 1120 3C1120 1.34315 1121.34 0 1123 0C1124.66 0 1126 1.34315 1126 3ZM1131 6C1132.66 6 1134 4.65685 1134 3C1134 1.34315 1132.66 0 1131 0C1129.34 0 1128 1.34315 1128 3C1128 4.65685 1129.34 6 1131 6Z" fill="url(#paint0_linear_174_4438)"/>
<defs>
<linearGradient id="paint0_linear_174_4438" x1="-3.46554e-05" y1="3.00208" x2="1134" y2="3.00209" gradientUnits="userSpaceOnUse">
<stop stop-color="#0104FF"/>
<stop offset="1" stop-color="#39EC15"/>
</linearGradient>
</defs>
</svg>
