<svg width="29" height="27" viewBox="0 0 29 27" fill="none" xmlns="http://www.w3.org/2000/svg">
<mask id="path-1-inside-1_174_4407" fill="white">
<path d="M10.7514 13.584C10.1291 13.584 9.62399 14.089 9.62399 14.7114V16.0643C9.62399 16.3633 9.74277 16.65 9.95419 16.8614C10.1656 17.0729 10.4524 17.1917 10.7514 17.1917C11.0504 17.1917 11.3372 17.0729 11.5486 16.8614C11.76 16.65 11.8788 16.3633 11.8788 16.0643V14.7114C11.8788 14.089 11.3737 13.584 10.7514 13.584ZM18.1075 13.584C17.4851 13.584 16.9801 14.089 16.9801 14.7114V16.0643C16.9801 16.3633 17.0988 16.65 17.3103 16.8614C17.5217 17.0729 17.8084 17.1917 18.1075 17.1917C18.4065 17.1917 18.6932 17.0729 18.9046 16.8614C19.1161 16.65 19.2349 16.3633 19.2349 16.0643V14.7114C19.2349 14.089 18.7298 13.584 18.1075 13.584ZM15.8599 18.614C15.8599 19.0541 15.0211 20.1509 14.4366 20.1509C13.8107 20.1509 12.999 19.1497 12.999 18.6149C12.999 18.0791 13.633 18.0295 14.4366 18.0295C15.2393 18.0295 15.8599 18.0656 15.8599 18.6149V18.614ZM13.045 22.7105C13.5726 22.7475 14.0732 22.5013 14.4294 22.0007C14.7875 22.4995 15.288 22.7439 15.8175 22.7042C16.5661 22.6465 17.1938 22.0007 17.1325 21.1339C17.1302 21.0735 17.1159 21.0142 17.0902 20.9594C17.0646 20.9046 17.0282 20.8556 16.9832 20.8152C16.9382 20.7747 16.8855 20.7438 16.8283 20.7242C16.7711 20.7045 16.7106 20.6966 16.6502 20.7008C16.5899 20.705 16.5311 20.7214 16.4772 20.7488C16.4233 20.7763 16.3755 20.8143 16.3366 20.8606C16.2977 20.9069 16.2685 20.9605 16.2507 21.0183C16.233 21.0761 16.227 21.1369 16.2333 21.1971C16.2585 21.5569 16.015 21.7833 15.748 21.8041C15.5271 21.8212 15.0986 21.6832 14.8885 20.8444C14.8632 20.7433 14.8036 20.6541 14.7199 20.5919C14.6362 20.5297 14.5336 20.4985 14.4294 20.5035C14.3253 20.4985 14.2226 20.5297 14.1389 20.5919C14.0552 20.6541 13.9957 20.7433 13.9703 20.8444C13.7602 21.6832 13.33 21.8266 13.1072 21.8113C12.8429 21.7933 12.6003 21.5696 12.6256 21.2115C12.6318 21.1514 12.6259 21.0906 12.6081 21.0328C12.5904 20.9749 12.5612 20.9213 12.5223 20.875C12.4834 20.8287 12.4356 20.7907 12.3817 20.7632C12.3278 20.7358 12.2689 20.7195 12.2086 20.7152C12.1483 20.711 12.0877 20.7189 12.0305 20.7386C11.9733 20.7582 11.9207 20.7892 11.8757 20.8296C11.8307 20.87 11.7943 20.919 11.7686 20.9738C11.743 21.0286 11.7286 21.0879 11.7264 21.1484C11.665 22.0151 12.2946 22.6591 13.045 22.7105ZM10.0605 6.76274C10.0605 7.17729 9.97887 7.58777 9.82022 7.97077C9.66158 8.35376 9.42906 8.70175 9.13593 8.99488C8.8428 9.28801 8.49481 9.52053 8.11182 9.67917C7.72883 9.83781 7.31834 9.91946 6.90379 9.91946C6.48925 9.91946 6.07876 9.83781 5.69577 9.67917C5.31278 9.52053 4.96478 9.28801 4.67165 8.99488C4.37852 8.70175 4.146 8.35376 3.98736 7.97077C3.82872 7.58777 3.74707 7.17729 3.74707 6.76274C3.74707 5.92553 4.07965 5.1226 4.67165 4.5306C5.26365 3.9386 6.06658 3.60602 6.90379 3.60602C7.74101 3.60602 8.54393 3.9386 9.13593 4.5306C9.72793 5.1226 10.0605 5.92553 10.0605 6.76274ZM21.9271 9.91946C22.3416 9.91946 22.7521 9.83781 23.1351 9.67917C23.5181 9.52053 23.8661 9.28801 24.1592 8.99488C24.4524 8.70175 24.6849 8.35376 24.8435 7.97077C25.0022 7.58777 25.0838 7.17729 25.0838 6.76274C25.0838 6.34819 25.0022 5.93771 24.8435 5.55472C24.6849 5.17172 24.4524 4.82373 24.1592 4.5306C23.8661 4.23747 23.5181 4.00495 23.1351 3.84631C22.7521 3.68767 22.3416 3.60602 21.9271 3.60602C21.0899 3.60602 20.2869 3.9386 19.6949 4.5306C19.1029 5.1226 18.7704 5.92553 18.7704 6.76274C18.7704 7.59996 19.1029 8.40288 19.6949 8.99488C20.2869 9.58688 21.0899 9.91946 21.9271 9.91946Z"/>
</mask>
<path d="M13.045 22.7105L13.1149 21.7129L13.1133 21.7128L13.045 22.7105ZM14.4294 22.0007L15.2418 21.4175L14.4259 20.2811L13.6147 21.4208L14.4294 22.0007ZM15.8175 22.7042L15.8922 23.7014L15.8944 23.7012L15.8175 22.7042ZM17.1325 21.1339L16.1332 21.171L16.1338 21.1878L16.135 21.2045L17.1325 21.1339ZM16.2333 21.1971L17.2308 21.1271L17.2297 21.1106L17.2279 21.0941L16.2333 21.1971ZM15.748 21.8041L15.8253 22.8011L15.8255 22.8011L15.748 21.8041ZM14.8885 20.8444L13.9184 21.0873L13.9185 21.0875L14.8885 20.8444ZM14.4294 20.5035L14.3815 21.5024L14.4294 21.5047L14.4774 21.5024L14.4294 20.5035ZM13.9703 20.8444L14.9404 21.0875L14.9404 21.0873L13.9703 20.8444ZM13.1072 21.8113L13.1759 20.8137L13.1753 20.8136L13.1072 21.8113ZM12.6256 21.2115L11.6309 21.1086L11.6292 21.1248L11.6281 21.1412L12.6256 21.2115ZM11.7686 20.9738L10.863 20.5497L11.7686 20.9738ZM11.7264 21.1484L12.7239 21.219L12.7251 21.2022L12.7257 21.1854L11.7264 21.1484ZM10.0605 6.76274H11.0605H10.0605ZM6.90379 9.91946V10.9195V9.91946ZM3.74707 6.76274H2.74707H3.74707ZM6.90379 3.60602V4.60602V3.60602ZM21.9271 3.60602V2.60602V3.60602ZM18.7704 6.76274H17.7704H18.7704ZM10.7514 12.584C9.57678 12.584 8.62399 13.5368 8.62399 14.7114H10.624C10.624 14.6413 10.6813 14.584 10.7514 14.584V12.584ZM8.62399 14.7114V16.0643H10.624V14.7114H8.62399ZM8.62399 16.0643C8.62399 16.6285 8.84812 17.1696 9.24709 17.5686L10.6613 16.1543C10.6374 16.1304 10.624 16.098 10.624 16.0643H8.62399ZM9.24709 17.5686C9.64605 17.9675 10.1872 18.1917 10.7514 18.1917V16.1917C10.7176 16.1917 10.6852 16.1782 10.6613 16.1543L9.24709 17.5686ZM10.7514 18.1917C11.3156 18.1917 11.8567 17.9675 12.2557 17.5686L10.8415 16.1543C10.8176 16.1782 10.7852 16.1917 10.7514 16.1917V18.1917ZM12.2557 17.5686C12.6547 17.1696 12.8788 16.6285 12.8788 16.0643H10.8788C10.8788 16.098 10.8654 16.1304 10.8415 16.1543L12.2557 17.5686ZM12.8788 16.0643V14.7114H10.8788V16.0643H12.8788ZM12.8788 14.7114C12.8788 13.5368 11.926 12.584 10.7514 12.584V14.584C10.8214 14.584 10.8788 14.6413 10.8788 14.7114H12.8788ZM18.1075 12.584C16.9328 12.584 15.9801 13.5368 15.9801 14.7114H17.9801C17.9801 14.6413 18.0374 14.584 18.1075 14.584V12.584ZM15.9801 14.7114V16.0643H17.9801V14.7114H15.9801ZM15.9801 16.0643C15.9801 16.6285 16.2042 17.1696 16.6032 17.5686L18.0174 16.1543C17.9935 16.1304 17.9801 16.098 17.9801 16.0643H15.9801ZM16.6032 17.5686C17.0021 17.9675 17.5432 18.1917 18.1075 18.1917V16.1917C18.0737 16.1917 18.0413 16.1782 18.0174 16.1543L16.6032 17.5686ZM18.1075 18.1917C18.6717 18.1917 19.2128 17.9675 19.6118 17.5686L18.1975 16.1543C18.1736 16.1782 18.1412 16.1917 18.1075 16.1917V18.1917ZM19.6118 17.5686C20.0107 17.1696 20.2349 16.6285 20.2349 16.0643H18.2349C18.2349 16.098 18.2214 16.1304 18.1975 16.1543L19.6118 17.5686ZM20.2349 16.0643V14.7114H18.2349V16.0643H20.2349ZM20.2349 14.7114C20.2349 13.5368 19.2821 12.584 18.1075 12.584V14.584C18.1775 14.584 18.2349 14.6413 18.2349 14.7114H20.2349ZM14.8599 18.614C14.8599 18.5228 14.879 18.4752 14.8742 18.4897C14.8718 18.4966 14.8616 18.5236 14.8371 18.5695C14.7878 18.6621 14.7081 18.7804 14.6088 18.8959C14.5082 19.0131 14.4123 19.0986 14.3421 19.1465C14.3082 19.1696 14.2943 19.1743 14.3013 19.1716C14.3073 19.1692 14.3554 19.1509 14.4366 19.1509V21.1509C14.8741 21.1509 15.237 20.9571 15.4691 20.7987C15.7205 20.6272 15.9439 20.411 16.126 20.199C16.3095 19.9854 16.476 19.7469 16.6022 19.5101C16.7093 19.309 16.8599 18.9779 16.8599 18.614H14.8599ZM14.4366 19.1509C14.5356 19.1509 14.5527 19.1846 14.4766 19.1372C14.4109 19.0963 14.3226 19.0229 14.2313 18.92C14.141 18.8181 14.0704 18.7127 14.0272 18.6276C14.006 18.586 13.9965 18.5592 13.9934 18.5488C13.9895 18.5357 13.999 18.5602 13.999 18.6149H11.999C11.999 18.9724 12.1247 19.2985 12.244 19.5334C12.3726 19.7865 12.544 20.0316 12.7348 20.2468C12.9248 20.4611 13.1567 20.6714 13.4193 20.8349C13.6715 20.992 14.0247 21.1509 14.4366 21.1509V19.1509ZM13.999 18.6149C13.999 18.6472 13.994 18.7041 13.9689 18.774C13.9431 18.8459 13.9029 18.9119 13.8539 18.9664C13.761 19.0696 13.6781 19.087 13.7095 19.0774C13.7382 19.0686 13.8102 19.0532 13.9483 19.0428C14.0821 19.0327 14.242 19.0295 14.4366 19.0295V17.0295C14.0585 17.0295 13.5487 17.0349 13.1234 17.1652C12.8958 17.235 12.6042 17.3653 12.3673 17.6284C12.1101 17.9142 11.999 18.2655 11.999 18.6149H13.999ZM14.4366 19.0295C14.6345 19.0295 14.7941 19.032 14.9279 19.0413C15.066 19.051 15.134 19.0656 15.1584 19.073C15.1836 19.0807 15.0943 19.0602 14.9986 18.9511C14.885 18.8216 14.8599 18.6806 14.8599 18.6149H16.8599C16.8599 18.2745 16.7572 17.923 16.5022 17.6323C16.265 17.3619 15.9704 17.2295 15.7402 17.1595C15.3164 17.0306 14.8045 17.0295 14.4366 17.0295V19.0295ZM16.8599 18.6149V18.614H14.8599V18.6149H16.8599ZM12.9751 23.7081C13.8921 23.7723 14.7115 23.3289 15.2441 22.5805L13.6147 21.4208C13.4348 21.6736 13.253 21.7226 13.1149 21.713L12.9751 23.7081ZM13.6171 22.5839C14.1524 23.3295 14.9728 23.7703 15.8922 23.7014L15.7427 21.707C15.6033 21.7174 15.4226 21.6694 15.2418 21.4175L13.6171 22.5839ZM15.8944 23.7012C17.1757 23.6024 18.2312 22.4938 18.13 21.0634L16.135 21.2045C16.1564 21.5076 15.9564 21.6905 15.7406 21.7072L15.8944 23.7012ZM18.1318 21.0969C18.1246 20.9025 18.0783 20.7114 17.9958 20.5352L16.1846 21.3835C16.1534 21.3169 16.1359 21.2446 16.1332 21.171L18.1318 21.0969ZM17.9958 20.5352C17.9133 20.359 17.7962 20.2012 17.6514 20.0712L16.3149 21.5591C16.2602 21.5099 16.2158 21.4502 16.1846 21.3835L17.9958 20.5352ZM17.6514 20.0712C17.5066 19.9412 17.3372 19.8416 17.1532 19.7784L16.5035 21.6699C16.4338 21.646 16.3697 21.6083 16.3149 21.5591L17.6514 20.0712ZM17.1532 19.7784C16.9692 19.7152 16.7743 19.6896 16.5802 19.7033L16.7203 21.6983C16.6468 21.7035 16.5731 21.6938 16.5035 21.6699L17.1532 19.7784ZM16.5802 19.7033C16.3861 19.7169 16.1967 19.7694 16.0233 19.8577L16.931 21.6399C16.8654 21.6733 16.7937 21.6932 16.7203 21.6983L16.5802 19.7033ZM16.0233 19.8577C15.85 19.946 15.6961 20.0683 15.5709 20.2173L17.1022 21.5038C17.0548 21.5602 16.9966 21.6065 16.931 21.6399L16.0233 19.8577ZM15.5709 20.2173C15.4458 20.3662 15.3518 20.5389 15.2947 20.7249L17.2067 21.3118C17.1851 21.3821 17.1496 21.4475 17.1022 21.5038L15.5709 20.2173ZM15.2947 20.7249C15.2376 20.9109 15.2185 21.1065 15.2386 21.3L17.2279 21.0941C17.2355 21.1674 17.2283 21.2414 17.2067 21.3118L15.2947 20.7249ZM15.2357 21.2671C15.2307 21.1959 15.2538 21.0765 15.3474 20.9695C15.4325 20.8722 15.5495 20.8165 15.6706 20.8071L15.8255 22.8011C16.6272 22.7388 17.2954 22.0479 17.2308 21.1271L15.2357 21.2671ZM15.6707 20.8071C15.8136 20.796 15.9148 20.8432 15.9628 20.8841C16.0045 20.9197 15.9292 20.8837 15.8585 20.6014L13.9185 21.0875C14.0579 21.644 14.3019 22.0964 14.6656 22.4063C15.0356 22.7216 15.4615 22.8293 15.8253 22.8011L15.6707 20.8071ZM15.8586 20.6016C15.7771 20.2762 15.5854 19.9891 15.3161 19.7891L14.1237 21.3947C14.0218 21.3191 13.9493 21.2104 13.9184 21.0873L15.8586 20.6016ZM15.3161 19.7891C15.0468 19.5891 14.7165 19.4886 14.3815 19.5047L14.4774 21.5024C14.3506 21.5084 14.2256 21.4704 14.1237 21.3947L15.3161 19.7891ZM14.4774 19.5047C14.1423 19.4886 13.812 19.5891 13.5427 19.7891L14.7351 21.3947C14.6332 21.4704 14.5083 21.5084 14.3815 21.5024L14.4774 19.5047ZM13.5427 19.7891C13.2734 19.9891 13.0817 20.2762 13.0003 20.6016L14.9404 21.0873C14.9096 21.2104 14.8371 21.3191 14.7351 21.3947L13.5427 19.7891ZM13.0003 20.6014C12.9298 20.883 12.8538 20.9223 12.8922 20.8894C12.9359 20.8518 13.0334 20.8038 13.1759 20.8137L13.0385 22.8089C13.4038 22.8341 13.8277 22.7221 14.1949 22.4069C14.5565 22.0965 14.8008 21.6446 14.9404 21.0875L13.0003 20.6014ZM13.1753 20.8136C13.3006 20.8222 13.4213 20.8791 13.5087 20.9785C13.6048 21.0877 13.6282 21.2096 13.6231 21.2819L11.6281 21.1412C11.5632 22.0609 12.2329 22.7539 13.0391 22.809L13.1753 20.8136ZM13.6203 21.3145C13.6403 21.1209 13.6212 20.9253 13.5641 20.7393L11.6521 21.3262C11.6305 21.2558 11.6233 21.1818 11.6309 21.1086L13.6203 21.3145ZM13.5641 20.7393C13.507 20.5533 13.4131 20.3807 13.2879 20.2317L11.7567 21.5183C11.7093 21.4619 11.6737 21.3966 11.6521 21.3262L13.5641 20.7393ZM13.2879 20.2317C13.1627 20.0827 13.0089 19.9605 12.8355 19.8722L11.9278 21.6543C11.8622 21.6209 11.804 21.5747 11.7567 21.5183L13.2879 20.2317ZM12.8355 19.8722C12.6621 19.7838 12.4727 19.7313 12.2786 19.7177L12.1386 21.7128C12.0651 21.7076 11.9935 21.6877 11.9278 21.6543L12.8355 19.8722ZM12.2786 19.7177C12.0845 19.7041 11.8897 19.7296 11.7057 19.7928L12.3554 21.6843C12.2857 21.7083 12.212 21.7179 12.1386 21.7128L12.2786 19.7177ZM11.7057 19.7928C11.5216 19.856 11.3522 19.9556 11.2074 20.0856L12.5439 21.5736C12.4891 21.6227 12.425 21.6604 12.3554 21.6843L11.7057 19.7928ZM11.2074 20.0856C11.0627 20.2157 10.9456 20.3735 10.863 20.5497L12.6742 21.398C12.643 21.4646 12.5987 21.5243 12.5439 21.5736L11.2074 20.0856ZM10.863 20.5497C10.7805 20.7259 10.7343 20.9169 10.7271 21.1113L12.7257 21.1854C12.7229 21.259 12.7055 21.3313 12.6742 21.398L10.863 20.5497ZM10.7289 21.0778C10.6275 22.5104 11.6886 23.6199 12.9766 23.7082L13.1133 21.7128C12.9006 21.6983 12.7026 21.5198 12.7239 21.219L10.7289 21.0778ZM9.06052 6.76274C9.06052 7.04597 9.00473 7.32642 8.89635 7.58808L10.7441 8.35345C10.953 7.84913 11.0605 7.30861 11.0605 6.76274H9.06052ZM8.89635 7.58808C8.78796 7.84975 8.6291 8.0875 8.42883 8.28777L9.84304 9.70199C10.229 9.316 10.5352 8.85777 10.7441 8.35345L8.89635 7.58808ZM8.42883 8.28777C8.22856 8.48804 7.9908 8.64691 7.72913 8.75529L8.4945 10.6031C8.99882 10.3942 9.45705 10.088 9.84304 9.70199L8.42883 8.28777ZM7.72913 8.75529C7.46747 8.86368 7.18702 8.91946 6.90379 8.91946V10.9195C7.44966 10.9195 7.99018 10.8119 8.4945 10.6031L7.72913 8.75529ZM6.90379 8.91946C6.62057 8.91946 6.34012 8.86368 6.07845 8.75529L5.31308 10.6031C5.8174 10.8119 6.35792 10.9195 6.90379 10.9195V8.91946ZM6.07845 8.75529C5.81679 8.64691 5.57903 8.48804 5.37876 8.28777L3.96455 9.70199C4.35053 10.088 4.80877 10.3942 5.31308 10.6031L6.07845 8.75529ZM5.37876 8.28777C5.17849 8.0875 5.01963 7.84975 4.91124 7.58808L3.06348 8.35345C3.27238 8.85777 3.57856 9.316 3.96455 9.70199L5.37876 8.28777ZM4.91124 7.58808C4.80286 7.32642 4.74707 7.04597 4.74707 6.76274H2.74707C2.74707 7.30861 2.85459 7.84913 3.06348 8.35345L4.91124 7.58808ZM4.74707 6.76274C4.74707 6.19074 4.9743 5.64217 5.37876 5.23771L3.96455 3.82349C3.18501 4.60303 2.74707 5.66031 2.74707 6.76274H4.74707ZM5.37876 5.23771C5.78322 4.83324 6.33179 4.60602 6.90379 4.60602V2.60602C5.80136 2.60602 4.74408 3.04396 3.96455 3.82349L5.37876 5.23771ZM6.90379 4.60602C7.47579 4.60602 8.02436 4.83324 8.42883 5.23771L9.84304 3.82349C9.0635 3.04396 8.00622 2.60602 6.90379 2.60602V4.60602ZM8.42883 5.23771C8.83329 5.64217 9.06052 6.19074 9.06052 6.76274H11.0605C11.0605 5.66031 10.6226 4.60303 9.84304 3.82349L8.42883 5.23771ZM21.9271 10.9195C22.473 10.9195 23.0135 10.8119 23.5178 10.6031L22.7524 8.75529C22.4908 8.86368 22.2103 8.91946 21.9271 8.91946V10.9195ZM23.5178 10.6031C24.0221 10.3942 24.4803 10.088 24.8663 9.70199L23.4521 8.28777C23.2519 8.48804 23.0141 8.64691 22.7524 8.75529L23.5178 10.6031ZM24.8663 9.70199C25.2523 9.316 25.5585 8.85777 25.7674 8.35345L23.9196 7.58808C23.8113 7.84975 23.6524 8.0875 23.4521 8.28777L24.8663 9.70199ZM25.7674 8.35345C25.9763 7.84913 26.0838 7.30861 26.0838 6.76274H24.0838C24.0838 7.04597 24.028 7.32642 23.9196 7.58808L25.7674 8.35345ZM26.0838 6.76274C26.0838 6.21687 25.9763 5.67635 25.7674 5.17203L23.9196 5.9374C24.028 6.19906 24.0838 6.47951 24.0838 6.76274H26.0838ZM25.7674 5.17203C25.5585 4.66771 25.2523 4.20948 24.8663 3.82349L23.4521 5.23771C23.6524 5.43798 23.8113 5.67573 23.9196 5.9374L25.7674 5.17203ZM24.8663 3.82349C24.4803 3.43751 24.0221 3.13132 23.5178 2.92243L22.7524 4.77019C23.0141 4.87857 23.2519 5.03744 23.4521 5.23771L24.8663 3.82349ZM23.5178 2.92243C23.0135 2.71354 22.473 2.60602 21.9271 2.60602V4.60602C22.2103 4.60602 22.4908 4.6618 22.7524 4.77019L23.5178 2.92243ZM21.9271 2.60602C20.8247 2.60602 19.7674 3.04396 18.9878 3.82349L20.4021 5.23771C20.8065 4.83324 21.3551 4.60602 21.9271 4.60602V2.60602ZM18.9878 3.82349C18.2083 4.60303 17.7704 5.66031 17.7704 6.76274H19.7704C19.7704 6.19074 19.9976 5.64217 20.4021 5.23771L18.9878 3.82349ZM17.7704 6.76274C17.7704 7.86517 18.2083 8.92245 18.9878 9.70199L20.4021 8.28777C19.9976 7.88331 19.7704 7.33474 19.7704 6.76274H17.7704ZM18.9878 9.70199C19.7674 10.4815 20.8247 10.9195 21.9271 10.9195V8.91946C21.3551 8.91946 20.8065 8.69224 20.4021 8.28777L18.9878 9.70199Z" fill="#39EC12" mask="url(#path-1-inside-1_174_4407)"/>
<path d="M13.6959 5.64011L13.6775 5.55212C13.4404 4.42281 12.9223 3.37152 12.1713 2.4955C11.4202 1.61948 10.4603 0.947017 9.38039 0.540319C8.30051 0.13362 7.1355 0.00581838 5.99313 0.168736C4.85076 0.331654 3.76792 0.780029 2.84477 1.47239C1.92163 2.16475 1.18799 3.07873 0.711729 4.12979C0.235464 5.18084 0.0319501 6.33504 0.120013 7.4856C0.208076 8.63617 0.584872 9.74594 1.21555 10.7123C1.84622 11.6786 2.71041 12.4703 3.72816 13.0141L3.82164 13.064L3.76635 13.1545C3.44163 13.6855 3.1521 14.2207 2.90487 14.7492C2.33265 15.9744 1.9303 17.2868 1.9303 18.5021C1.9303 21.0702 3.10047 23.1761 4.64298 24.6125C6.15491 26.0199 8.14636 26.9 10.0044 26.9C12.3057 26.9 13.4341 26.4798 14.214 26.1737C14.2141 26.1737 14.2141 26.1737 14.2141 26.1737L14.2506 26.2667C14.3335 26.2341 14.4168 26.2026 14.5005 26.172L13.6959 5.64011ZM13.6959 5.64011L13.7854 5.63107C14.2153 5.58763 14.6483 5.58227 15.0791 5.61506L15.1664 5.62169L15.1845 5.53613C15.4237 4.41068 15.942 3.36343 16.6918 2.4907C17.4415 1.61798 18.3987 0.947791 19.4753 0.541793C20.5519 0.135795 21.7132 0.00701813 22.8526 0.167307C23.9919 0.327595 25.0727 0.771803 25.9954 1.45907C26.9182 2.14634 27.6533 3.05461 28.1332 4.10033C28.6131 5.14605 28.8223 6.29565 28.7417 7.44339C28.661 8.59114 28.293 9.70017 27.6716 10.6685C27.0502 11.6368 26.1952 12.4333 25.1854 12.9848L25.095 13.0341L25.147 13.123C25.4735 13.681 25.7613 14.2421 26.005 14.7958C26.5458 16.0246 26.9137 17.3207 26.9137 18.5021C26.9137 21.5079 25.4644 23.6598 23.653 25.0068L23.653 25.0068C21.9031 26.3103 19.7785 26.8991 18.1497 26.8991C16.3728 26.8991 15.4189 26.481 14.7553 26.1769L13.6959 5.64011ZM12.1082 5.88648L12.1081 5.88623C11.841 4.61378 11.1121 3.48537 10.0619 2.71882C9.0117 1.95226 7.71479 1.60191 6.42147 1.73538C5.12815 1.86884 3.93012 2.47667 3.05862 3.44154C2.18712 4.40641 1.70394 5.65991 1.70234 6.9601V6.96022C1.70227 8.29049 2.20643 9.57135 3.11322 10.5447C3.97697 11.4718 5.14487 12.0543 6.40061 12.1887C6.01539 12.6713 5.65517 13.1735 5.32137 13.6931L5.32132 13.6932C4.22159 15.4093 3.53324 17.1615 3.53324 18.5021C3.53324 20.5563 4.46427 22.2551 5.73556 23.4389C7.00498 24.6209 8.621 25.2962 10.0035 25.2962C12.0548 25.2962 12.981 24.9345 13.6279 24.6804C13.9735 24.5449 14.2194 24.4502 14.5131 24.4502C14.8335 24.4502 15.0847 24.5643 15.4222 24.718C15.9681 24.9685 16.6863 25.2953 18.1488 25.2953C19.4448 25.2953 21.231 24.8096 22.6951 23.7201C24.1627 22.628 25.309 20.9266 25.309 18.5021C25.309 17.1785 24.6671 15.4128 23.6096 13.6789L23.6096 13.6789C23.2928 13.1597 22.9491 12.6575 22.5799 12.1742C23.8132 12.0131 24.9516 11.4195 25.7905 10.496C26.6695 9.52823 27.1564 8.26762 27.1561 6.9602C27.156 6.23739 27.0069 5.52236 26.718 4.85977C26.4291 4.19718 26.0068 3.60126 25.4773 3.10923C24.9478 2.6172 24.3225 2.23963 23.6405 2.00009C22.9585 1.76056 22.2345 1.66421 21.5136 1.71705C20.7927 1.7699 20.0905 1.9708 19.4507 2.30723C18.811 2.64366 18.2475 3.10837 17.7954 3.67236C17.3433 4.23634 17.0123 4.88748 16.8232 5.58511C16.6483 6.22996 16.5981 6.90173 16.6747 7.56445C16.1179 7.377 15.5399 7.25925 14.9537 7.21407L14.9534 7.21405C14.603 7.18798 14.2509 7.19412 13.9015 7.23241L13.901 7.23247C13.3094 7.30075 12.7289 7.44219 12.1726 7.6534C12.2504 7.0654 12.2287 6.46807 12.1082 5.88648Z" fill="#39EC12" stroke="#E3E1E0" stroke-width="0.2"/>
</svg>
