<svg width="26" height="27" viewBox="0 0 26 27" fill="none" xmlns="http://www.w3.org/2000/svg">
<path d="M24.8144 24.2303C24.0135 21.8403 22.5929 19.924 21.1115 18.8678L20.1861 18.2079L21.1568 17.6166C21.4229 17.4545 21.6547 17.2237 21.8238 16.931L22.4733 17.3061L21.8238 16.931C22.3585 16.0053 22.0416 14.8221 21.1155 14.2876L21.1155 14.2876C20.1893 13.753 19.0049 14.0703 18.4702 14.9959L24.8144 24.2303ZM24.8144 24.2303C22.3292 24.6743 19.9658 24.406 18.3124 23.6766L17.2785 23.2205L17.2598 24.3504C17.2544 24.6776 17.1655 24.998 17.0016 25.2812L17.0013 25.2818C16.4666 26.2075 15.2822 26.5248 14.3559 25.9902C13.4299 25.4557 13.1129 24.2725 13.6475 23.3467C13.9517 22.8203 14.4645 22.4909 15.0241 22.4026L14.9105 20.9118C11.9529 20.8991 9.4228 20.1359 7.90222 18.9426C7.14983 18.3521 6.66922 17.6776 6.46756 16.9568C6.2682 16.2442 6.32037 15.4126 6.7632 14.4573L6.95951 14.0337L7.23193 13.6291C7.82975 12.7411 8.52678 12.2513 9.25146 12.0415C9.98319 11.8297 10.8153 11.8828 11.708 12.2096C13.5122 12.87 15.4524 14.6148 16.9272 17.116L18.2917 16.5199C18.1438 16.0264 18.1923 15.4772 18.4701 14.996L24.8144 24.2303Z" stroke="#39EC12" stroke-width="1.5"/>
</svg>
