<svg width="34" height="29" viewBox="0 0 34 29" fill="none" xmlns="http://www.w3.org/2000/svg">
<path d="M8.98422 3.09978C9.41951 3.53823 9.79687 4.03062 10.1071 4.56492C12.1268 3.30209 14.4616 2.63437 16.8436 2.6384C19.3418 2.6384 21.6718 3.35786 23.6372 4.60065C23.9549 4.05192 24.3408 3.53892 24.7807 3.09978C26.7827 1.10179 30.2966 0.221909 31.9206 1.84269C33.5446 3.46269 32.6623 6.96949 30.6603 8.96748C30.0506 9.56726 29.3419 10.0573 28.5655 10.4159C29.2176 11.9684 29.5524 13.6357 29.5502 15.3196C29.5502 22.3229 23.8611 28 16.8444 28C9.82519 28 4.13695 22.3221 4.13695 15.3196C4.13695 13.5694 4.49192 11.9017 5.13436 10.385C4.38314 10.0295 3.697 9.55036 3.10461 8.96748C1.10185 6.96949 0.220385 3.46269 1.84435 1.84269C3.46831 0.222703 6.98306 1.10179 8.98422 3.09978Z" stroke="#39EC12" stroke-width="2" stroke-linejoin="round"/>
<path d="M16.8822 24.0295C20.3908 24.0295 23.2351 21.5407 23.2351 18.4707C23.2351 15.4006 20.3908 12.9119 16.8822 12.9119C13.3736 12.9119 10.5293 15.4006 10.5293 18.4707C10.5293 21.5407 13.3736 24.0295 16.8822 24.0295Z" stroke="#39EC12" stroke-width="2"/>
<path d="M11.3236 11.3236C12.2007 11.3236 12.9118 10.6125 12.9118 9.73539C12.9118 8.85824 12.2007 8.14717 11.3236 8.14717C10.4464 8.14717 9.73535 8.85824 9.73535 9.73539C9.73535 10.6125 10.4464 11.3236 11.3236 11.3236Z" fill="#39EC12"/>
<path d="M14.5003 20.0589C15.3775 20.0589 16.0886 19.3478 16.0886 18.4706C16.0886 17.5935 15.3775 16.8824 14.5003 16.8824C13.6232 16.8824 12.9121 17.5935 12.9121 18.4706C12.9121 19.3478 13.6232 20.0589 14.5003 20.0589Z" fill="#39EC12"/>
<path d="M22.4417 11.3236C23.3189 11.3236 24.03 10.6125 24.03 9.73538C24.03 8.85823 23.3189 8.14716 22.4417 8.14716C21.5646 8.14716 20.8535 8.85823 20.8535 9.73538C20.8535 10.6125 21.5646 11.3236 22.4417 11.3236Z" fill="#39EC12"/>
<path d="M19.265 20.0589C20.1421 20.0589 20.8532 19.3478 20.8532 18.4706C20.8532 17.5935 20.1421 16.8824 19.265 16.8824C18.3878 16.8824 17.6768 17.5935 17.6768 18.4706C17.6768 19.3478 18.3878 20.0589 19.265 20.0589Z" fill="#39EC12"/>
</svg>
