<svg width="29" height="29" viewBox="0 0 29 29" fill="none" xmlns="http://www.w3.org/2000/svg">
<circle cx="14.6693" cy="14.3313" r="13.9099" stroke="#040E11" stroke-width="0.843023"/>
<path fill-rule="evenodd" clip-rule="evenodd" d="M4.25 7V21.2535V21.5035H4.5H24.8126V21.0035H4.75V7H4.25ZM7.45793 13.5807C7.51592 12.7855 7.83616 11.6176 8.59689 10.7091C9.3461 9.81446 10.5354 9.15392 12.3885 9.36645L12.3884 9.36655L12.3955 9.36716L15.4356 9.62867C15.7635 11.2611 16.8741 14.2579 19.197 16.933C18.3791 16.1053 17.5419 15.0466 16.8041 13.7224L15.4345 11.0526L15.3648 10.9167H15.2121H10.9065H10.8821L10.8582 10.9214C9.99707 11.091 8.26781 12.0931 7.76181 14.6954C7.51769 15.9509 7.26065 17.0172 7.0398 17.8366L7.4574 13.587L7.45748 13.587L7.45793 13.5807ZM16.3652 13.9619C17.3387 15.7103 18.4847 17.0176 19.5512 17.954C19.0531 17.6894 18.6008 17.4267 18.2212 17.2063C18.0758 17.1218 17.941 17.0436 17.8185 16.9738C17.3836 16.7262 16.9658 16.1636 16.6153 15.5134C16.2706 14.8738 16.0145 14.1943 15.8854 13.7679L15.8317 13.5903H15.6461C14.4788 13.5903 13.2698 13.8215 12.2847 14.1058C11.7913 14.2481 11.3505 14.4049 10.9956 14.5549C10.6466 14.7023 10.3631 14.8504 10.1971 14.9801C10.0618 15.0858 9.82821 15.3434 9.55612 15.662C9.27621 15.9899 8.93559 16.4067 8.57858 16.8524C8.19704 17.3288 7.79553 17.8397 7.42739 18.3131C7.67142 17.4427 7.97091 16.2396 8.25261 14.7908C8.71358 12.4201 10.253 11.5626 10.932 11.4167H15.0594L16.3612 13.9544L16.3611 13.9545L16.3652 13.9619ZM6.36951 19.5451L6.65341 19.573L6.86246 19.9598C8.15671 19.4737 11.6641 18.5044 15.3194 18.517C15.7621 18.8344 16.6457 19.232 17.9725 19.5175C19.3812 19.8206 21.3063 20.001 23.7722 19.8188L23.7627 19.3197C23.6175 19.3145 23.4598 19.3062 23.2916 19.2946C22.9852 19.2628 22.6705 19.2015 22.3525 19.1178C18.0326 16.0941 16.2449 11.3687 15.8924 9.35279L15.8592 9.16326L15.6676 9.14677L12.4419 8.8693C10.4218 8.63865 9.06886 9.36674 8.21354 10.3881C7.37026 11.3951 7.02365 12.6698 6.95949 13.5412L6.36951 19.5451ZM17.9623 17.6342C18.534 17.9663 19.2931 18.4073 20.125 18.8038C19.9409 18.7589 19.7567 18.7107 19.5734 18.6589C18.0066 18.2166 16.567 17.5332 15.8486 16.5409L15.7718 16.4348L15.6408 16.4376C14.1554 16.4694 10.6978 17.0087 7.64524 18.8478C8.05777 18.3155 8.52694 17.7167 8.96883 17.165C9.3245 16.721 9.6614 16.3088 9.93639 15.9867C10.2192 15.6554 10.4179 15.4421 10.5049 15.3741C10.6167 15.2868 10.8496 15.1593 11.1902 15.0154C11.5248 14.8741 11.9467 14.7237 12.4233 14.5862C13.326 14.3257 14.4125 14.1146 15.4637 14.0923C15.6118 14.5414 15.8571 15.1605 16.1752 15.7506C16.5325 16.4134 17.0059 17.0864 17.571 17.4083C17.6885 17.4752 17.8195 17.5512 17.9621 17.6341L17.9623 17.6342ZM15.4049 18.0174C12.8023 17.998 10.2707 18.4696 8.51217 18.9294C11.2235 17.4714 14.1376 16.9951 15.5244 16.9413C16.3677 18.0169 17.9015 18.7065 19.4376 19.1401C19.678 19.208 19.9197 19.27 20.1606 19.3264C19.3654 19.2625 18.6718 19.1565 18.0776 19.0287C16.7124 18.7349 15.8884 18.3299 15.5572 18.0706L15.4901 18.0181L15.4049 18.0174Z" fill="#040E11"/>
</svg>
