<svg width="27" height="29" viewBox="0 0 27 29" fill="none" xmlns="http://www.w3.org/2000/svg">
<path d="M15.6613 20.8649L13.3711 22.3656M13.3711 22.3656L11.043 20.8649M13.3711 22.3656L13.3521 24.5865M11.4017 25.4832L13.3521 24.5865M13.3521 24.5865L15.3921 25.4832" stroke="#39EC12" stroke-width="1.5" stroke-linecap="round" stroke-linejoin="round"/>
<path d="M17.4666 17.4128C17.8677 17.4128 18.1929 16.8573 18.1929 16.172C18.1929 15.4867 17.8677 14.9312 17.4666 14.9312C17.0654 14.9312 16.7402 15.4867 16.7402 16.172C16.7402 16.8573 17.0654 17.4128 17.4666 17.4128Z" fill="#39EC12"/>
<path d="M7.4111 14.7671C0.0582848 9.02751 1.04407 1.32963 1.04407 1.32963C8.12904 -1.12205 11.4019 10.9108 11.4019 10.9108C11.4019 10.9108 13.3492 9.33993 15.3923 10.9108C15.3923 10.9108 18.6656 -1.12249 25.7501 1.32963C25.7501 1.32963 26.7363 9.02751 19.3826 14.7671" stroke="#39EC12" stroke-width="1.5" stroke-linecap="round" stroke-linejoin="round"/>
<path d="M7.41089 17.8607C7.41089 17.8607 2.61344 21.4924 5.3034 25.7969C5.3034 25.7969 6.55924 28.1286 11.1325 27.9944H15.6612C20.2345 28.1286 21.4904 25.7969 21.4904 25.7969C24.1803 21.4928 19.3824 17.8607 19.3824 17.8607" stroke="#39EC12" stroke-width="1.5" stroke-linecap="round" stroke-linejoin="round"/>
<path d="M9.41675 17.4128C9.81789 17.4128 10.1431 16.8573 10.1431 16.172C10.1431 15.4867 9.81789 14.9312 9.41675 14.9312C9.01562 14.9312 8.69043 15.4867 8.69043 16.172C8.69043 16.8573 9.01562 17.4128 9.41675 17.4128Z" fill="#39EC12"/>
</svg>
