<svg width="33" height="29" viewBox="0 0 33 29" fill="none" xmlns="http://www.w3.org/2000/svg">
<path d="M28.5396 18.108C27.9929 18.6264 27.3318 19.0569 26.4966 19.4044C25.1375 19.9702 23.6352 20.103 22.1758 19.9025L16.6835 19.1486M20.2276 4.64249C21.4575 4.02751 23.3025 3.41253 26.3773 4.64249C28.7315 5.58402 32.5271 9.5623 30.6945 14.4514C30.5684 14.7898 30.4331 15.1247 30.2886 15.4556M18.1323 15.7889C17.8156 16.942 15.4449 19.8201 14.5563 20.9074C13.568 22.1164 10.4359 21.2469 11.5687 18.9948C12.0226 18.0908 12.7458 17.3362 12.8921 16.3363C12.9241 16.1204 12.9426 15.9107 12.9518 15.7102" stroke="#39EC12" stroke-width="1.5" stroke-linecap="round" stroke-linejoin="round"/>
<path d="M9.34532 20.464C8.92098 20.0151 8.83796 19.2482 9.59131 18.2021C9.97075 17.6745 10.9166 16.5638 10.9916 15.2871C10.9916 15.2871 9.20326 15.1457 8.39887 15.1432C-0.111797 15.1174 0.993317 11.9663 1.10647 11.644C1.29035 11.1188 3.5756 7.60669 5.35289 6.71805C8.04034 5.37433 11.3096 5.71195 11.3096 5.71195C12.2332 2.18198 17.7816 -0.235492 20.0428 5.04039C22.0581 9.74312 17.1524 11.4072 15.3075 11.4072M30.289 15.455C31.5189 15.455 32.5275 17.557 31.9125 19.4019C31.2975 21.2469 30.792 21.8354 28.1046 23.1791C22.7297 25.8666 16.0123 24.5229 9.8742 23.4005C5.99308 22.6908 4.19427 23.7941 3.62357 24.9367C2.9514 26.2805 4.65673 28.5405 7.94993 27.8825" stroke="#39EC12" stroke-width="1.5" stroke-linecap="round" stroke-linejoin="round"/>
<path d="M9.51074 3.53925C9.60791 3.01591 9.79609 2.54053 10.0292 2.19553C11.3858 0.185169 14.2319 1.07935 14.7288 2.19553" stroke="#39EC12" stroke-width="1.5" stroke-linecap="round" stroke-linejoin="round"/>
</svg>
