<svg width="10" height="6" viewBox="0 0 10 6" fill="none" xmlns="http://www.w3.org/2000/svg">
<path d="M0.796289 0.634366C0.751232 0.591445 0.69823 0.557891 0.640308 0.535619C0.582387 0.513346 0.520681 0.502792 0.458714 0.504559C0.396747 0.506326 0.335731 0.52038 0.279152 0.545917C0.222572 0.571455 0.171536 0.607976 0.128958 0.653396C0.0863804 0.698816 0.053094 0.752246 0.0309996 0.810634C0.00890526 0.869022 -0.00156439 0.931224 0.000188582 0.993691C0.00194155 1.05616 0.0158827 1.11766 0.0412162 1.1747C0.0665496 1.23174 0.102779 1.28318 0.147836 1.3261L4.39534 5.36996C4.48297 5.45347 4.59898 5.5 4.71957 5.5C4.84016 5.5 4.95617 5.45347 5.0438 5.36996L9.29178 1.3261C9.33782 1.28347 9.375 1.23203 9.40116 1.17478C9.42732 1.11754 9.44193 1.05563 9.44415 0.99264C9.44637 0.929653 9.43615 0.86685 9.41409 0.807878C9.39203 0.748906 9.35856 0.69494 9.31564 0.649116C9.27271 0.603292 9.22118 0.566522 9.16404 0.540943C9.1069 0.515363 9.04528 0.501484 8.98278 0.500113C8.92027 0.49874 8.85811 0.509902 8.79992 0.532949C8.74173 0.555996 8.68866 0.590469 8.6438 0.634366L4.71957 4.36994L0.796289 0.634366Z" fill="white"/>
</svg>
