<svg width="9" height="5" viewBox="0 0 9 5" fill="none" xmlns="http://www.w3.org/2000/svg">
<path d="M7.60613 0.000598907C7.50759 0.000133514 7.40995 0.0193539 7.31894 0.0571327C7.22793 0.0949116 7.14538 0.150487 7.07613 0.220599L4.07613 3.2206L1.07613 0.220599C0.930858 0.150449 0.766837 0.12901 0.608414 0.159465C0.449991 0.18992 0.30561 0.270645 0.196702 0.389659C0.0877931 0.508673 0.0201621 0.659631 0.0038464 0.820127C-0.0124693 0.980624 0.0234003 1.1421 0.106131 1.2806L3.60613 4.7806C3.74676 4.92105 3.93738 4.99994 4.13613 4.99994C4.33488 4.99994 4.52551 4.92105 4.66613 4.7806L8.16613 1.2806C8.30658 1.13997 8.38547 0.949349 8.38547 0.750599C8.38547 0.551848 8.30658 0.361225 8.16613 0.220599C8.0934 0.146756 8.00597 0.0890145 7.9095 0.051116C7.81303 0.0132174 7.70968 -0.00399303 7.60613 0.000598907Z" fill="black"/>
</svg>
