<svg width="27" height="27" viewBox="0 0 27 27" fill="none" xmlns="http://www.w3.org/2000/svg">
<path d="M13.5 26.9999C6.03529 26.9999 0 20.9646 0 13.4999C0 6.03523 6.03529 -6.10352e-05 13.5 -6.10352e-05C20.9647 -6.10352e-05 27 6.03523 27 13.4999C27 20.9646 20.8853 26.9999 13.5 26.9999ZM13.5 1.58817C6.90882 1.58817 1.58824 6.90876 1.58824 13.4999C1.58824 20.0911 6.90882 25.4117 13.5 25.4117C20.0912 25.4117 25.4118 20.0911 25.4118 13.4999C25.4118 6.90876 20.0118 1.58817 13.5 1.58817Z" fill="#39EC12"/>
<path d="M5.7175 23.2676L4.28809 22.6323C4.68514 21.6793 5.95573 21.1235 7.30573 20.4882C8.65573 19.8529 10.3234 19.1382 10.3234 18.2646V17.0735C9.84691 16.6764 9.05279 15.8029 8.89397 14.5323C8.49691 14.1352 7.86162 13.4205 7.86162 12.4676C7.86162 11.9117 8.09985 11.4352 8.25867 11.1176C8.09985 10.4823 7.94103 9.29111 7.94103 8.33817C7.94103 5.24111 10.0851 3.17641 13.4999 3.17641C14.4528 3.17641 15.644 3.41464 16.2793 4.12935C17.7881 4.44699 19.0587 6.19405 19.0587 8.33817C19.0587 9.68817 18.8204 10.7999 18.6616 11.3558C18.8204 11.5941 18.9793 11.9911 18.9793 12.4676C18.9793 13.4999 18.4234 14.2146 17.9469 14.5323C17.7881 15.8029 17.0734 16.597 16.5969 16.9941V18.2646C16.5969 18.9793 18.0263 19.5352 19.2969 20.0117C20.8057 20.5676 22.394 21.2029 22.9499 22.4735L21.441 23.0293C21.2028 22.3941 19.9322 21.9176 18.741 21.5205C16.994 20.8852 15.0087 20.1705 15.0087 18.3441V16.2793L15.4057 16.0411C15.4057 16.0411 16.3587 15.4058 16.3587 14.1352V13.5793L16.8351 13.3411C16.9146 13.3411 17.3116 13.1029 17.3116 12.4676C17.3116 12.3088 17.1528 12.0705 17.0734 11.9911L16.7557 11.6735L16.9146 11.2764C16.9146 11.2764 17.3116 10.0058 17.3116 8.41758C17.3116 6.90876 16.4381 5.797 15.7234 5.797H15.2469L15.0087 5.39994C15.0087 5.08229 14.4528 4.76464 13.4999 4.76464C11.0381 4.76464 9.52926 6.11464 9.52926 8.33817C9.52926 9.37052 9.92632 11.1176 9.92632 11.1176L10.0057 11.5146L9.68809 11.9117C9.60867 11.9117 9.44985 12.1499 9.44985 12.4676C9.44985 12.8646 9.92632 13.3411 10.1646 13.4999L10.4822 13.7382V14.1352C10.4822 15.3264 11.5146 15.9617 11.5146 16.0411L11.9116 16.2793V18.3441C11.9116 20.2499 9.84691 21.2029 7.94103 21.997C7.0675 22.3146 5.87632 22.8705 5.7175 23.2676Z" fill="#39EC12"/>
</svg>
