<svg width="20" height="13" viewBox="0 0 20 13" fill="none" xmlns="http://www.w3.org/2000/svg">
<path d="M18.6293 12.0732C18.9821 12.0732 19.3207 11.9672 19.5701 11.7786C19.8198 11.5899 19.96 11.3341 19.96 11.0672V10.0613C19.96 8.46019 19.1188 6.92487 17.6215 5.79292C16.124 4.66079 14.0932 4.02482 11.9756 4.02482H3.87821L6.92896 1.71844C7.26522 1.46422 7.39657 1.09351 7.27358 0.746155C7.15035 0.398778 6.79157 0.127385 6.33207 0.0343693C5.87258 -0.0587898 5.38224 0.0405103 5.04599 0.294903L0.860712 3.46147C0.309561 3.87796 0 4.44304 0 5.03222C0 5.62134 0.309573 6.18626 0.860712 6.60297L5.37856 10.0185C5.71506 10.2727 6.20517 10.372 6.66464 10.279C7.12413 10.1859 7.48311 9.91462 7.60614 9.56723C7.72937 9.21986 7.59802 8.84916 7.26153 8.59495L3.87827 6.03701H11.9757C13.3873 6.03701 14.7412 6.46105 15.7395 7.21562C16.7379 7.97039 17.2985 8.99392 17.2985 10.0613V11.0672C17.2985 11.3341 17.4387 11.5899 17.6884 11.7787C17.9378 11.9673 18.2764 12.0732 18.6294 12.0732L18.6293 12.0732Z" fill="black"/>
</svg>
