<svg width="37" height="39" viewBox="0 0 37 39" fill="none" xmlns="http://www.w3.org/2000/svg">
<path d="M32.398 13.1253L11.8705 1.35283C10.7597 0.711419 9.49895 0.375411 8.21629 0.378934C6.93363 0.382457 5.67476 0.725385 4.56753 1.37289C3.4603 2.02039 2.54416 2.9494 1.91216 4.06556C1.28017 5.18171 0.954836 6.44525 0.969206 7.72783V31.3578C0.969206 33.2853 1.73489 35.1338 3.09781 36.4967C4.46073 37.8596 6.30925 38.6253 8.23671 38.6253C9.51264 38.6232 10.7656 38.2861 11.8705 37.6478L32.398 25.8753C33.501 25.237 34.4167 24.3198 35.0533 23.2158C35.6899 22.1117 36.0251 20.8597 36.0251 19.5853C36.0251 18.3109 35.6899 17.0589 35.0533 15.9549C34.4167 14.8509 33.501 13.9337 32.398 13.2953V13.1253ZM30.273 22.0291L9.74546 33.9716C9.28537 34.2323 8.76555 34.3694 8.23671 34.3694C7.70786 34.3694 7.18805 34.2323 6.72796 33.9716C6.26916 33.7067 5.88819 33.3257 5.62335 32.8669C5.3585 32.4081 5.21912 31.8876 5.21921 31.3578V7.64283C5.21912 7.11306 5.3585 6.5926 5.62335 6.13379C5.88819 5.67497 6.26916 5.29396 6.72796 5.02908C7.18994 4.77229 7.70821 4.6336 8.23671 4.62533C8.76484 4.63617 9.2825 4.7747 9.74546 5.02908L30.273 16.8866C30.7319 17.1514 31.1131 17.5323 31.3781 17.9911C31.6431 18.45 31.7826 18.9705 31.7826 19.5003C31.7826 20.0302 31.6431 20.5507 31.3781 21.0095C31.1131 21.4684 30.7319 21.8493 30.273 22.1141V22.0291Z" fill="white"/>
</svg>
