<svg width="512" height="512" viewBox="0 0 512 512" fill="none" xmlns="http://www.w3.org/2000/svg">
<g clip-path="url(#clip0_118_2)">
<path d="M302.907 256.419L502.27 57.0499C515.244 44.0817 515.244 23.1141 502.27 10.146C489.302 -2.82211 468.334 -2.82211 455.366 10.146L255.997 209.515L56.6345 10.146C43.6603 -2.82211 22.6987 -2.82211 9.73064 10.146C-3.24355 23.1141 -3.24355 44.0817 9.73064 57.0499L209.093 256.419L9.73064 455.787C-3.24355 468.755 -3.24355 489.723 9.73064 502.691C16.1934 509.16 24.691 512.41 33.1826 512.41C41.6741 512.41 50.1656 509.16 56.6345 502.691L255.997 303.322L455.366 502.691C461.835 509.16 470.326 512.41 478.818 512.41C487.309 512.41 495.801 509.16 502.27 502.691C515.244 489.723 515.244 468.755 502.27 455.787L302.907 256.419Z" fill="#0E47D5"/>
</g>
<defs>
<clipPath id="clip0_118_2">
<rect width="512" height="512" fill="white"/>
</clipPath>
</defs>
</svg>
