<svg width="14" height="14" viewBox="0 0 14 14" fill="none" xmlns="http://www.w3.org/2000/svg">
<path d="M5.66732 7.66732H1.00065C0.82384 7.66732 0.654271 7.73756 0.529246 7.86258C0.404222 7.9876 0.333984 8.15717 0.333984 8.33398V13.0007C0.333984 13.1775 0.404222 13.347 0.529246 13.4721C0.654271 13.5971 0.82384 13.6673 1.00065 13.6673H5.66732C5.84413 13.6673 6.0137 13.5971 6.13872 13.4721C6.26375 13.347 6.33398 13.1775 6.33398 13.0007V8.33398C6.33398 8.15717 6.26375 7.9876 6.13872 7.86258C6.0137 7.73756 5.84413 7.66732 5.66732 7.66732ZM5.00065 12.334H1.66732V9.00065H5.00065V12.334ZM13.0007 0.333984H8.33398C8.15717 0.333984 7.9876 0.404222 7.86258 0.529246C7.73756 0.654271 7.66732 0.82384 7.66732 1.00065V5.66732C7.66732 5.84413 7.73756 6.0137 7.86258 6.13872C7.9876 6.26375 8.15717 6.33398 8.33398 6.33398H13.0007C13.1775 6.33398 13.347 6.26375 13.4721 6.13872C13.5971 6.0137 13.6673 5.84413 13.6673 5.66732V1.00065C13.6673 0.82384 13.5971 0.654271 13.4721 0.529246C13.347 0.404222 13.1775 0.333984 13.0007 0.333984ZM12.334 5.00065H9.00065V1.66732H12.334V5.00065ZM13.0007 7.66732H8.33398C8.15717 7.66732 7.9876 7.73756 7.86258 7.86258C7.73756 7.9876 7.66732 8.15717 7.66732 8.33398V13.0007C7.66732 13.1775 7.73756 13.347 7.86258 13.4721C7.9876 13.5971 8.15717 13.6673 8.33398 13.6673H13.0007C13.1775 13.6673 13.347 13.5971 13.4721 13.4721C13.5971 13.347 13.6673 13.1775 13.6673 13.0007V8.33398C13.6673 8.15717 13.5971 7.9876 13.4721 7.86258C13.347 7.73756 13.1775 7.66732 13.0007 7.66732ZM12.334 12.334H9.00065V9.00065H12.334V12.334ZM5.66732 0.333984H1.00065C0.82384 0.333984 0.654271 0.404222 0.529246 0.529246C0.404222 0.654271 0.333984 0.82384 0.333984 1.00065V5.66732C0.333984 5.84413 0.404222 6.0137 0.529246 6.13872C0.654271 6.26375 0.82384 6.33398 1.00065 6.33398H5.66732C5.84413 6.33398 6.0137 6.26375 6.13872 6.13872C6.26375 6.0137 6.33398 5.84413 6.33398 5.66732V1.00065C6.33398 0.82384 6.26375 0.654271 6.13872 0.529246C6.0137 0.404222 5.84413 0.333984 5.66732 0.333984ZM5.00065 5.00065H1.66732V1.66732H5.00065V5.00065Z" fill="#2B4EC5"/>
</svg>
