<svg width="14" height="14" viewBox="0 0 14 14" fill="none" xmlns="http://www.w3.org/2000/svg">
<path d="M9.47431 7.47374C10.1279 6.95952 10.605 6.25436 10.8391 5.45637C11.0733 4.65838 11.0529 3.80725 10.7808 3.02139C10.5087 2.23552 9.99848 1.554 9.32102 1.07165C8.64357 0.589288 7.83261 0.330078 7.00097 0.330078C6.16934 0.330078 5.35838 0.589288 4.68093 1.07165C4.00347 1.554 3.4932 2.23552 3.22112 3.02139C2.94903 3.80725 2.92865 4.65838 3.16282 5.45637C3.39698 6.25436 3.87405 6.95952 4.52764 7.47374C3.40769 7.92244 2.4305 8.66664 1.70024 9.62702C0.969973 10.5874 0.514016 11.7279 0.380974 12.9271C0.371344 13.0146 0.379052 13.1032 0.403658 13.1878C0.428264 13.2723 0.469286 13.3512 0.524382 13.42C0.635654 13.5587 0.797497 13.6476 0.974308 13.6671C1.15112 13.6865 1.32841 13.6349 1.46719 13.5237C1.60597 13.4124 1.69486 13.2506 1.71431 13.0737C1.8607 11.7705 2.4821 10.5669 3.45979 9.69294C4.43748 8.81892 5.70291 8.33576 7.01431 8.33576C8.32571 8.33576 9.59114 8.81892 10.5688 9.69294C11.5465 10.5669 12.1679 11.7705 12.3143 13.0737C12.3324 13.2376 12.4106 13.3888 12.5337 13.4984C12.6568 13.608 12.8162 13.6681 12.981 13.6671H13.0543C13.2291 13.647 13.3888 13.5586 13.4987 13.4212C13.6086 13.2839 13.6597 13.1087 13.641 12.9337C13.5073 11.7312 13.0489 10.5877 12.3149 9.62588C11.5809 8.66402 10.5989 7.92006 9.47431 7.47374ZM7.00097 7.00041C6.47356 7.00041 5.95799 6.84401 5.51945 6.55099C5.08092 6.25798 4.73913 5.8415 4.5373 5.35423C4.33546 4.86696 4.28265 4.33078 4.38555 3.8135C4.48844 3.29622 4.74242 2.82106 5.11536 2.44812C5.4883 2.07518 5.96345 1.82121 6.48073 1.71831C6.99802 1.61542 7.53419 1.66823 8.02146 1.87006C8.50873 2.0719 8.92521 2.41369 9.21823 2.85222C9.51124 3.29075 9.66764 3.80633 9.66764 4.33374C9.66764 5.04099 9.38669 5.71926 8.88659 6.21936C8.3865 6.71946 7.70822 7.00041 7.00097 7.00041Z" fill="#2B4EC5"/>
</svg>
