<svg width="17" height="17" viewBox="0 0 17 17" fill="none" xmlns="http://www.w3.org/2000/svg">
<path d="M11.6882 5.66602V8.49935C11.6389 9.2969 11.276 10.0425 10.6788 10.5734C10.0815 11.1043 9.29848 11.3772 8.50065 11.3327C7.70283 11.3772 6.91978 11.1043 6.32255 10.5734C5.72532 10.0425 5.36243 9.2969 5.31315 8.49935V5.66602H3.89648V8.49935C3.93293 9.55 4.34688 10.5523 5.06243 11.3225C5.77798 12.0927 6.74718 12.5792 7.79232 12.6927V14.8743H6.37565V16.291H10.6257V14.8743H9.20898V12.6927C10.2541 12.5792 11.2233 12.0927 11.9389 11.3225C12.6544 10.5523 13.0684 9.55 13.1048 8.49935V5.66602H11.6882Z" fill="#2B4EC5"/>
<path d="M8.50065 10.6257C9.15817 10.6257 9.78875 10.3645 10.2537 9.89952C10.7186 9.43459 10.9798 8.804 10.9798 8.14648V3.18815C10.9798 2.53064 10.7186 1.90005 10.2537 1.43512C9.78875 0.970181 9.15817 0.708984 8.50065 0.708984C7.84314 0.708984 7.21255 0.970181 6.74762 1.43512C6.28268 1.90005 6.02148 2.53064 6.02148 3.18815V8.14648C6.02148 8.804 6.28268 9.43459 6.74762 9.89952C7.21255 10.3645 7.84314 10.6257 8.50065 10.6257ZM7.43815 3.18815C7.43815 2.90636 7.55009 2.63611 7.74935 2.43685C7.94861 2.23759 8.21886 2.12565 8.50065 2.12565C8.78244 2.12565 9.05269 2.23759 9.25195 2.43685C9.45121 2.63611 9.56315 2.90636 9.56315 3.18815V8.14648C9.56315 8.42828 9.45121 8.69853 9.25195 8.89779C9.05269 9.09704 8.78244 9.20898 8.50065 9.20898C8.21886 9.20898 7.94861 9.09704 7.74935 8.89779C7.55009 8.69853 7.43815 8.42828 7.43815 8.14648V3.18815Z" fill="#2B4EC5"/>
</svg>
