<svg width="14" height="8" viewBox="0 0 14 8" fill="none" xmlns="http://www.w3.org/2000/svg">
<path d="M13.354 0.766667C13.2526 0.708155 13.1377 0.677351 13.0207 0.677351C12.9036 0.677351 12.7887 0.708155 12.6873 0.766667L10.334 1.92667C10.315 1.40905 10.0959 0.918982 9.72289 0.559626C9.34986 0.20027 8.85195 -0.00034785 8.33398 4.52771e-07H2.33398C1.80355 4.52771e-07 1.29484 0.210714 0.919771 0.585787C0.544698 0.96086 0.333984 1.46957 0.333984 2V6C0.333984 6.53043 0.544698 7.03914 0.919771 7.41421C1.29484 7.78929 1.80355 8 2.33398 8H8.33398C8.85195 8.00035 9.34986 7.79973 9.72289 7.44037C10.0959 7.08102 10.315 6.59095 10.334 6.07333L12.7073 7.26C12.7982 7.30659 12.8985 7.33168 13.0007 7.33333C13.1255 7.33373 13.2479 7.29909 13.354 7.23333C13.4501 7.17329 13.5292 7.08975 13.5841 6.9906C13.6389 6.89145 13.6675 6.77996 13.6673 6.66667V1.33333C13.6675 1.22004 13.6389 1.10855 13.5841 1.0094C13.5292 0.910255 13.4501 0.826714 13.354 0.766667ZM9.00065 6C9.00065 6.17681 8.93041 6.34638 8.80539 6.47141C8.68036 6.59643 8.5108 6.66667 8.33398 6.66667H2.33398C2.15717 6.66667 1.9876 6.59643 1.86258 6.47141C1.73756 6.34638 1.66732 6.17681 1.66732 6V2C1.66732 1.82319 1.73756 1.65362 1.86258 1.5286C1.9876 1.40357 2.15717 1.33333 2.33398 1.33333H8.33398C8.5108 1.33333 8.68036 1.40357 8.80539 1.5286C8.93041 1.65362 9.00065 1.82319 9.00065 2V6ZM12.334 5.58667L10.334 4.58667V3.41333L12.334 2.41333V5.58667Z" fill="#2B4EC5"/>
</svg>
