<svg width="14" height="12" viewBox="0 0 14 12" fill="none" xmlns="http://www.w3.org/2000/svg">
<path d="M11.6673 2.66667H11.0007V2C11.0007 1.46957 10.7899 0.960859 10.4149 0.585787C10.0398 0.210714 9.53108 0 9.00065 0H2.33398C1.80355 0 1.29484 0.210714 0.919771 0.585787C0.544698 0.960859 0.333984 1.46957 0.333984 2V10C0.333984 10.5304 0.544698 11.0391 0.919771 11.4142C1.29484 11.7893 1.80355 12 2.33398 12H11.6673C12.1978 12 12.7065 11.7893 13.0815 11.4142C13.4566 11.0391 13.6673 10.5304 13.6673 10V4.66667C13.6673 4.13623 13.4566 3.62753 13.0815 3.25245C12.7065 2.87738 12.1978 2.66667 11.6673 2.66667ZM2.33398 1.33333H9.00065C9.17746 1.33333 9.34703 1.40357 9.47205 1.5286C9.59708 1.65362 9.66732 1.82319 9.66732 2V2.66667H2.33398C2.15717 2.66667 1.9876 2.59643 1.86258 2.4714C1.73756 2.34638 1.66732 2.17681 1.66732 2C1.66732 1.82319 1.73756 1.65362 1.86258 1.5286C1.9876 1.40357 2.15717 1.33333 2.33398 1.33333ZM12.334 8H11.6673C11.4905 8 11.3209 7.92976 11.1959 7.80474C11.0709 7.67971 11.0007 7.51014 11.0007 7.33333C11.0007 7.15652 11.0709 6.98695 11.1959 6.86193C11.3209 6.73691 11.4905 6.66667 11.6673 6.66667H12.334V8ZM12.334 5.33333H11.6673C11.1369 5.33333 10.6282 5.54405 10.2531 5.91912C9.87803 6.29419 9.66732 6.8029 9.66732 7.33333C9.66732 7.86377 9.87803 8.37247 10.2531 8.74755C10.6282 9.12262 11.1369 9.33333 11.6673 9.33333H12.334V10C12.334 10.1768 12.2637 10.3464 12.1387 10.4714C12.0137 10.5964 11.8441 10.6667 11.6673 10.6667H2.33398C2.15717 10.6667 1.9876 10.5964 1.86258 10.4714C1.73756 10.3464 1.66732 10.1768 1.66732 10V3.88667C1.8815 3.96201 2.10694 4.00034 2.33398 4H11.6673C11.8441 4 12.0137 4.07024 12.1387 4.19526C12.2637 4.32029 12.334 4.48986 12.334 4.66667V5.33333Z" fill="#0E47D5"/>
</svg>
