<svg width="15" height="15" viewBox="0 0 15 15" fill="none" xmlns="http://www.w3.org/2000/svg">
<path d="M7.49935 0.416016C11.4115 0.416016 14.5827 3.58722 14.5827 7.49935C14.5827 11.4115 11.4115 14.5827 7.49935 14.5827C3.58722 14.5827 0.416016 11.4115 0.416016 7.49935H1.83268C1.83268 10.6288 4.36993 13.166 7.49935 13.166C10.6288 13.166 13.166 10.6288 13.166 7.49935C13.166 4.36993 10.6288 1.83268 7.49935 1.83268C5.55143 1.83268 3.83302 2.81514 2.81372 4.31185H4.66602V5.72852H0.416016V1.47852H1.83268V3.24935C3.12468 1.5281 5.18239 0.416016 7.49935 0.416016ZM8.20768 3.95768V7.20539L10.5048 9.50252L9.50252 10.5048L6.79102 7.79189V3.95768H8.20768Z" fill="#0E47D5"/>
</svg>
