<svg width="16" height="16" viewBox="0 0 16 16" fill="none" xmlns="http://www.w3.org/2000/svg">
<path d="M13.9252 8.49407C13.8049 8.3572 13.7386 8.18125 13.7386 7.99907C13.7386 7.81689 13.8049 7.64093 13.9252 7.50407L14.8852 6.42407C14.991 6.30607 15.0566 6.15759 15.0728 5.99995C15.089 5.8423 15.0548 5.68358 14.9752 5.54657L13.4752 2.95157C13.3963 2.81471 13.2763 2.70622 13.1322 2.64158C12.9881 2.57694 12.8273 2.55944 12.6727 2.59157L11.2627 2.87657C11.0833 2.91364 10.8965 2.88376 10.7376 2.79257C10.5787 2.70138 10.4587 2.55518 10.4002 2.38157L9.94267 1.00907C9.89235 0.860101 9.79649 0.730716 9.66864 0.639198C9.54078 0.547681 9.3874 0.498661 9.23017 0.499067H6.23017C6.06662 0.49053 5.90477 0.535762 5.76934 0.627852C5.63391 0.719943 5.53235 0.853831 5.48017 1.00907L5.06017 2.38157C5.00167 2.55518 4.88165 2.70138 4.72275 2.79257C4.56386 2.88376 4.37708 2.91364 4.19767 2.87657L2.75017 2.59157C2.60358 2.57085 2.45414 2.59398 2.32068 2.65805C2.18721 2.72211 2.07569 2.82424 2.00017 2.95157L0.500166 5.54657C0.418536 5.68205 0.381833 5.83988 0.395303 5.99748C0.408774 6.15509 0.471728 6.3044 0.575166 6.42407L1.52767 7.50407C1.64791 7.64093 1.71422 7.81689 1.71422 7.99907C1.71422 8.18125 1.64791 8.3572 1.52767 8.49407L0.575166 9.57407C0.471728 9.69374 0.408774 9.84305 0.395303 10.0006C0.381833 10.1583 0.418536 10.3161 0.500166 10.4516L2.00017 13.0466C2.07899 13.1834 2.19901 13.2919 2.34311 13.3566C2.48721 13.4212 2.64803 13.4387 2.80267 13.4066L4.21267 13.1216C4.39208 13.0845 4.57886 13.1144 4.73775 13.2056C4.89665 13.2968 5.01667 13.443 5.07517 13.6166L5.53267 14.9891C5.58485 15.1443 5.68641 15.2782 5.82184 15.3703C5.95727 15.4624 6.11912 15.5076 6.28267 15.4991H9.28267C9.4399 15.4995 9.59328 15.4505 9.72114 15.3589C9.84899 15.2674 9.94485 15.138 9.99517 14.9891L10.4527 13.6166C10.5112 13.443 10.6312 13.2968 10.7901 13.2056C10.949 13.1144 11.1358 13.0845 11.3152 13.1216L12.7252 13.4066C12.8798 13.4387 13.0406 13.4212 13.1847 13.3566C13.3288 13.2919 13.4488 13.1834 13.5277 13.0466L15.0277 10.4516C15.1073 10.3146 15.1415 10.1558 15.1253 9.99819C15.1091 9.84054 15.0435 9.69207 14.9377 9.57407L13.9252 8.49407ZM12.8077 9.49907L13.4077 10.1741L12.4477 11.8391L11.5627 11.6591C11.0225 11.5486 10.4606 11.6404 9.98361 11.9169C9.50663 12.1934 9.14777 12.6354 8.97517 13.1591L8.69017 13.9991H6.77017L6.50017 13.1441C6.32756 12.6204 5.9687 12.1784 5.49172 11.9019C5.01474 11.6254 4.45283 11.5337 3.91267 11.6441L3.02767 11.8241L2.05267 10.1666L2.65267 9.49157C3.02163 9.07905 3.22562 8.54502 3.22562 7.99157C3.22562 7.43812 3.02163 6.90408 2.65267 6.49157L2.05267 5.81657L3.01267 4.16657L3.89767 4.34657C4.43783 4.45698 4.99974 4.36523 5.47672 4.08872C5.9537 3.8122 6.31256 3.37019 6.48517 2.84657L6.77017 1.99907H8.69017L8.97517 2.85407C9.14777 3.37769 9.50663 3.8197 9.98361 4.09622C10.4606 4.37273 11.0225 4.46448 11.5627 4.35407L12.4477 4.17407L13.4077 5.83907L12.8077 6.51407C12.4428 6.92564 12.2414 7.45658 12.2414 8.00657C12.2414 8.55656 12.4428 9.0875 12.8077 9.49907ZM7.73017 4.99907C7.13682 4.99907 6.5568 5.17501 6.06346 5.50466C5.57011 5.8343 5.18559 6.30284 4.95853 6.85102C4.73146 7.39919 4.67205 8.00239 4.78781 8.58434C4.90357 9.16628 5.18929 9.70083 5.60885 10.1204C6.0284 10.5399 6.56295 10.8257 7.1449 10.9414C7.72684 11.0572 8.33004 10.9978 8.87822 10.7707C9.42639 10.5436 9.89493 10.1591 10.2246 9.66578C10.5542 9.17243 10.7302 8.59241 10.7302 7.99907C10.7302 7.20342 10.4141 6.44036 9.85149 5.87775C9.28888 5.31514 8.52582 4.99907 7.73017 4.99907ZM7.73017 9.49907C7.43349 9.49907 7.14348 9.41109 6.89681 9.24627C6.65014 9.08145 6.45788 8.84718 6.34435 8.57309C6.23082 8.299 6.20111 7.9974 6.25899 7.70643C6.31687 7.41546 6.45973 7.14819 6.66951 6.93841C6.87928 6.72863 7.14656 6.58577 7.43753 6.52789C7.7285 6.47001 8.0301 6.49972 8.30419 6.61325C8.57828 6.72678 8.81255 6.91904 8.97737 7.16571C9.14219 7.41239 9.23017 7.70239 9.23017 7.99907C9.23017 8.39689 9.07213 8.77842 8.79083 9.05973C8.50952 9.34103 8.12799 9.49907 7.73017 9.49907Z" fill="#0E47D5"/>
</svg>
