<svg width="14" height="12" viewBox="0 0 14 12" fill="none" xmlns="http://www.w3.org/2000/svg">
<path d="M3.47394 7.52667L2.60728 6.66667L10.3339 6.66667C10.5108 6.66667 10.6803 6.59643 10.8053 6.4714C10.9304 6.34638 11.0006 6.17681 11.0006 6C11.0006 5.82319 10.9304 5.65362 10.8053 5.5286C10.6803 5.40357 10.5108 5.33333 10.3339 5.33333L2.60728 5.33333L3.47394 4.47333C3.53643 4.41136 3.58603 4.33762 3.61987 4.25638C3.65372 4.17514 3.67114 4.08801 3.67114 4C3.67114 3.91199 3.65372 3.82485 3.61987 3.74362C3.58603 3.66238 3.53643 3.58864 3.47394 3.52667C3.41197 3.46418 3.33823 3.41459 3.25699 3.38074C3.17576 3.34689 3.08862 3.32947 3.00061 3.32947C2.9126 3.32947 2.82547 3.34689 2.74423 3.38074C2.66299 3.41459 2.58925 3.46418 2.52728 3.52667L0.527277 5.52667C0.464791 5.58864 0.415195 5.66238 0.381349 5.74362C0.347504 5.82485 0.330078 5.91199 0.330078 6C0.330078 6.08801 0.347504 6.17514 0.381349 6.25638C0.415195 6.33762 0.464791 6.41136 0.527277 6.47333L2.52728 8.47333C2.65281 8.59887 2.82308 8.66939 3.00061 8.66939C3.17814 8.66939 3.34841 8.59887 3.47394 8.47333C3.59948 8.3478 3.67 8.17753 3.67 8C3.67 7.82247 3.59948 7.6522 3.47394 7.52667ZM5.00061 2V3.33333C5.00061 3.51014 5.07085 3.67971 5.19587 3.80474C5.3209 3.92976 5.49047 4 5.66728 4C5.84409 4 6.01366 3.92976 6.13868 3.80474C6.26371 3.67971 6.33394 3.51014 6.33394 3.33333V2C6.33394 1.82319 6.40418 1.65362 6.52921 1.52859C6.65423 1.40357 6.8238 1.33333 7.00061 1.33333H11.6673C11.8441 1.33333 12.0137 1.40357 12.1387 1.52859C12.2637 1.65362 12.3339 1.82319 12.3339 2V10C12.3339 10.1768 12.2637 10.3464 12.1387 10.4714C12.0137 10.5964 11.8441 10.6667 11.6673 10.6667H7.00061C6.8238 10.6667 6.65423 10.5964 6.52921 10.4714C6.40418 10.3464 6.33394 10.1768 6.33394 10V8.66667C6.33394 8.48986 6.26371 8.32029 6.13868 8.19526C6.01366 8.07024 5.84409 8 5.66728 8C5.49047 8 5.3209 8.07024 5.19587 8.19526C5.07085 8.32029 5.00061 8.48986 5.00061 8.66667V10C5.00061 10.5304 5.21132 11.0391 5.5864 11.4142C5.96147 11.7893 6.47018 12 7.00061 12H11.6673C12.1977 12 12.7064 11.7893 13.0815 11.4142C13.4566 11.0391 13.6673 10.5304 13.6673 10V2C13.6673 1.46957 13.4566 0.960858 13.0815 0.585786C12.7064 0.210713 12.1977 0 11.6673 0H7.00061C6.47018 0 5.96147 0.210713 5.5864 0.585786C5.21132 0.960858 5.00061 1.46957 5.00061 2Z" fill="#0E47D5"/>
</svg>
