<svg width="34" height="34" viewBox="0 0 34 34" fill="none" xmlns="http://www.w3.org/2000/svg">
<path d="M8.66732 3.66732C8.66732 1.82637 10.1597 0.333984 12.0007 0.333984H22.0007C23.8416 0.333984 25.334 1.82637 25.334 3.66732V7.00065H28.6501C28.6604 7.00056 28.6707 7.00056 28.6811 7.00065H32.0007C32.9211 7.00065 33.6673 7.74684 33.6673 8.66732C33.6673 9.58779 32.9211 10.334 32.0007 10.334H30.2192L28.7737 30.5715C28.6491 32.3158 27.1976 33.6673 25.4488 33.6673H8.55252C6.80372 33.6673 5.35225 32.3158 5.22765 30.5715L3.78212 10.334H2.00065C1.08018 10.334 0.333984 9.58779 0.333984 8.66732C0.333984 7.74684 1.08018 7.00065 2.00065 7.00065H5.32023C5.33056 7.00056 5.34089 7.00056 5.35119 7.00065H8.66732V3.66732ZM12.0007 7.00065H22.0007V3.66732H12.0007V7.00065ZM7.12395 10.334L8.55252 30.334H25.4488L26.8774 10.334H7.12395ZM13.6673 13.6673C14.5878 13.6673 15.334 14.4135 15.334 15.334V25.334C15.334 26.2545 14.5878 27.0007 13.6673 27.0007C12.7468 27.0007 12.0007 26.2545 12.0007 25.334V15.334C12.0007 14.4135 12.7468 13.6673 13.6673 13.6673ZM20.334 13.6673C21.2545 13.6673 22.0007 14.4135 22.0007 15.334V25.334C22.0007 26.2545 21.2545 27.0007 20.334 27.0007C19.4135 27.0007 18.6673 26.2545 18.6673 25.334V15.334C18.6673 14.4135 19.4135 13.6673 20.334 13.6673Z" fill="#FF0000"/>
</svg>
