<svg width="8" height="16" viewBox="0 0 8 16" fill="none" xmlns="http://www.w3.org/2000/svg">
<path fill-rule="evenodd" clip-rule="evenodd" d="M1.97052 8.05176V15.606C1.97052 15.7147 2.05859 15.8027 2.16727 15.8027H4.97257C5.08125 15.8027 5.16932 15.7147 5.16932 15.606V7.92871H7.2031C7.30532 7.92871 7.39052 7.85042 7.39916 7.74852L7.59473 5.43538C7.60446 5.32056 7.51389 5.22203 7.39866 5.22203H5.16932V3.58084C5.16932 3.19621 5.48116 2.88442 5.86575 2.88442H7.43319C7.54187 2.88442 7.62999 2.7963 7.62999 2.68767V0.374484C7.62999 0.265806 7.54187 0.177734 7.43319 0.177734H4.78469C3.23049 0.177734 1.97052 1.43766 1.97052 2.99191V5.22203H0.567844C0.459166 5.22203 0.371094 5.3101 0.371094 5.41878V7.73196C0.371094 7.84064 0.459166 7.92871 0.567844 7.92871H1.97052V8.05176H1.97052Z" fill="#245A9B"/>
</svg>
