<svg width="22" height="22" viewBox="0 0 22 22" fill="none" xmlns="http://www.w3.org/2000/svg">
<path d="M15.1243 7.33398V11.0007C15.0606 12.0328 14.591 12.9977 13.8181 13.6847C13.0452 14.3717 12.0318 14.725 10.9993 14.6673C9.96687 14.725 8.95352 14.3717 8.18063 13.6847C7.40775 12.9977 6.93813 12.0328 6.87435 11.0007V7.33398H5.04102V11.0007C5.08818 12.3603 5.62388 13.6574 6.54989 14.6542C7.47589 15.6509 8.73015 16.2804 10.0827 16.4273V19.2507H8.24935V21.084H13.7493V19.2507H11.916V16.4273C13.2686 16.2804 14.5228 15.6509 15.4488 14.6542C16.3748 13.6574 16.9105 12.3603 16.9577 11.0007V7.33398H15.1243Z" fill="#0E47D5"/>
<path d="M10.9993 13.7493C11.8503 13.7493 12.6663 13.4113 13.268 12.8096C13.8697 12.208 14.2077 11.3919 14.2077 10.541V4.12435C14.2077 3.27345 13.8697 2.45739 13.268 1.85571C12.6663 1.25404 11.8503 0.916016 10.9993 0.916016C10.1484 0.916016 9.33239 1.25404 8.73071 1.85571C8.12904 2.45739 7.79102 3.27345 7.79102 4.12435V10.541C7.79102 11.3919 8.12904 12.208 8.73071 12.8096C9.33239 13.4113 10.1484 13.7493 10.9993 13.7493ZM9.62435 4.12435C9.62435 3.75968 9.76921 3.40994 10.0271 3.15208C10.2849 2.89421 10.6347 2.74935 10.9993 2.74935C11.364 2.74935 11.7138 2.89421 11.9716 3.15208C12.2295 3.40994 12.3743 3.75968 12.3743 4.12435V10.541C12.3743 10.9057 12.2295 11.2554 11.9716 11.5133C11.7138 11.7711 11.364 11.916 10.9993 11.916C10.6347 11.916 10.2849 11.7711 10.0271 11.5133C9.76921 11.2554 9.62435 10.9057 9.62435 10.541V4.12435Z" fill="#0E47D5"/>
</svg>
