<svg width="40" height="40" viewBox="0 0 40 40" fill="none" xmlns="http://www.w3.org/2000/svg">
<rect width="40" height="40" rx="20" fill="#DA2A2A"/>
<path d="M15.5 25.9998C15.3674 25.9998 15.2402 25.9472 15.1464 25.8534C15.0527 25.7596 15 25.6324 15 25.4998V14.4999C15 14.413 15.0227 14.3276 15.0657 14.2522C15.1088 14.1767 15.1708 14.1138 15.2456 14.0696C15.3204 14.0254 15.4054 14.0014 15.4923 14.0001C15.5791 13.9987 15.6649 14.02 15.741 14.0619L25.7409 19.5619C25.8193 19.605 25.8847 19.6684 25.9302 19.7455C25.9757 19.8225 25.9998 19.9104 25.9998 19.9999C25.9998 20.0894 25.9757 20.1772 25.9302 20.2543C25.8847 20.3313 25.8193 20.3947 25.7409 20.4379L15.741 25.9378C15.6672 25.9785 15.5843 25.9998 15.5 25.9998Z" fill="white"/>
</svg>
