<svg width="34" height="34" viewBox="0 0 34 34" fill="none" xmlns="http://www.w3.org/2000/svg">
<path d="M31.7206 8.46664C30.2003 5.86221 28.1383 3.80012 25.5337 2.27996C22.9288 0.759884 20.0851 0 17.0005 0C13.9162 0 11.0717 0.759884 8.46719 2.27996C5.86252 3.79988 3.80043 5.86198 2.28019 8.46664C0.759884 11.0715 0 13.916 0 17C0 20.0842 0.760116 22.9283 2.27996 25.5333C3.80012 28.1377 5.86221 30.1998 8.46688 31.7201C11.0717 33.2401 13.916 34.0001 17.0002 34.0001C20.0844 34.0001 22.929 33.2401 25.5337 31.7201C28.1382 30.2004 30.2002 28.1377 31.7203 25.5333C33.2401 22.9285 33.9999 20.0841 33.9999 17C34 13.9157 33.2401 11.0711 31.7206 8.46664ZM19.834 27.6251C19.834 27.8315 19.7672 28.0013 19.6346 28.1339C19.5024 28.2666 19.3326 28.3329 19.1262 28.3329H14.8757C14.6691 28.3329 14.4993 28.2666 14.3665 28.1339C14.2336 28.0013 14.1673 27.8315 14.1673 27.6251V23.3746C14.1673 23.1682 14.2336 22.9983 14.3665 22.8657C14.4993 22.7333 14.6691 22.667 14.8757 22.667H19.1262C19.3326 22.667 19.5024 22.7333 19.6346 22.8657C19.7672 22.9984 19.834 23.1682 19.834 23.3746V27.6251ZM25.2239 14.5428C25.0392 15.0889 24.8328 15.5356 24.6041 15.8822C24.3754 16.229 24.0469 16.5832 23.6187 16.9446C23.1915 17.3061 22.8519 17.5645 22.6004 17.7198C22.3499 17.8744 21.988 18.0852 21.5163 18.3505C21.0292 18.6306 20.6274 18.996 20.3103 19.4463C19.993 19.8963 19.8343 20.2614 19.8343 20.5415C19.8343 20.7485 19.7675 20.9182 19.6348 21.051C19.5024 21.1836 19.3326 21.2499 19.1262 21.2499H14.8759C14.6694 21.2499 14.4996 21.1836 14.3668 21.051C14.2338 20.9182 14.1677 20.7485 14.1677 20.5415V19.7446C14.1677 18.7559 14.5548 17.8295 15.3296 16.9665C16.1045 16.1031 16.9567 15.4648 17.8865 15.0516C18.5944 14.7271 19.0963 14.3949 19.3914 14.0556C19.687 13.7162 19.8345 13.2657 19.8345 12.7052C19.8345 12.2181 19.5576 11.7828 19.0041 11.3989C18.4506 11.0153 17.8202 10.8235 17.1116 10.8235C16.344 10.8235 15.7097 11.0007 15.2078 11.355C14.7207 11.7089 14.0863 12.3879 13.3041 13.3912C13.1713 13.5684 12.9868 13.6572 12.7506 13.6572C12.5735 13.6572 12.4333 13.613 12.3301 13.5247L9.40841 11.311C9.06906 11.0453 9.01006 10.7356 9.23118 10.3814C11.1203 7.23808 13.8576 5.66645 17.4434 5.66645C18.7276 5.66645 19.9821 5.96905 21.2069 6.57418C22.4316 7.179 23.4537 8.03503 24.2729 9.14194C25.0912 10.2485 25.5014 11.4514 25.5014 12.75C25.5003 13.3993 25.4078 13.9966 25.2239 14.5428Z" fill="#FF0000"/>
</svg>
