<svg width="9" height="14" viewBox="0 0 9 14" fill="none" xmlns="http://www.w3.org/2000/svg">
<path d="M0.274994 0.273986C0.361625 0.187137 0.464539 0.118231 0.577841 0.0712156C0.691143 0.0242005 0.812607 0 0.935277 0C1.05795 0 1.17941 0.0242005 1.29271 0.0712156C1.40601 0.118231 1.50893 0.187137 1.59556 0.273986L7.79548 6.47391C7.86465 6.54294 7.91952 6.62492 7.95696 6.71518C7.9944 6.80543 8.01367 6.90219 8.01367 6.9999C8.01367 7.09761 7.9944 7.19437 7.95696 7.28462C7.91952 7.37488 7.86465 7.45687 7.79548 7.52589L1.59556 13.7258C1.22998 14.0914 0.640574 14.0914 0.274994 13.7258C-0.0905848 13.3602 -0.0905848 12.7708 0.274994 12.4053L5.67662 6.99617L0.267535 1.58709C-0.0905838 1.22897 -0.0905848 0.632105 0.274994 0.273986Z" fill="#5C5C5C"/>
</svg>
