<svg width="24" height="24" viewBox="0 0 24 24" fill="none" xmlns="http://www.w3.org/2000/svg">
<path d="M12 2C10.0222 2 8.08879 2.58649 6.4443 3.6853C4.79981 4.78412 3.51809 6.3459 2.76121 8.17317C2.00433 10.0004 1.8063 12.0111 2.19215 13.9509C2.578 15.8907 3.53041 17.6725 4.92894 19.0711C6.32746 20.4696 8.10929 21.422 10.0491 21.8079C11.9889 22.1937 13.9996 21.9957 15.8268 21.2388C17.6541 20.4819 19.2159 19.2002 20.3147 17.5557C21.4135 15.9112 22 13.9778 22 12C22 10.6868 21.7413 9.38642 21.2388 8.17317C20.7363 6.95991 19.9997 5.85752 19.0711 4.92893C18.1425 4.00035 17.0401 3.26375 15.8268 2.7612C14.6136 2.25866 13.3132 2 12 2ZM12 20C10.4178 20 8.87104 19.5308 7.55544 18.6518C6.23985 17.7727 5.21447 16.5233 4.60897 15.0615C4.00347 13.5997 3.84504 11.9911 4.15372 10.4393C4.4624 8.88743 5.22433 7.46197 6.34315 6.34315C7.46197 5.22433 8.88743 4.4624 10.4393 4.15372C11.9911 3.84504 13.5997 4.00346 15.0615 4.60896C16.5233 5.21447 17.7727 6.23984 18.6518 7.55544C19.5308 8.87103 20 10.4177 20 12C20 14.1217 19.1572 16.1566 17.6569 17.6569C16.1566 19.1571 14.1217 20 12 20Z" fill="#1B1B1B"/>
<path d="M17.8329 10.6418C17.796 10.5351 17.729 10.4414 17.64 10.372C17.5509 10.3026 17.4437 10.2606 17.3312 10.2509L14.012 9.76677L12.5245 6.75094C12.4768 6.65231 12.4022 6.56914 12.3093 6.51094C12.2165 6.45274 12.1091 6.42188 11.9995 6.42188C11.89 6.42188 11.7826 6.45274 11.6897 6.51094C11.5969 6.56914 11.5223 6.65231 11.4745 6.75094L9.98704 9.76094L6.66787 10.2509C6.55991 10.2663 6.45841 10.3116 6.37489 10.3817C6.29138 10.4518 6.22918 10.5439 6.19537 10.6476C6.16442 10.7489 6.16165 10.8567 6.18734 10.9595C6.21303 11.0623 6.26622 11.1561 6.34121 11.2309L8.75037 13.5643L8.16704 16.8776C8.14621 16.987 8.15712 17.1 8.19846 17.2034C8.23981 17.3067 8.30987 17.3961 8.40037 17.4609C8.48858 17.524 8.59262 17.5612 8.70082 17.5684C8.80901 17.5757 8.91707 17.5526 9.01287 17.5018L11.9995 15.9443L14.9745 17.5076C15.0564 17.5538 15.1489 17.5779 15.2429 17.5776C15.3664 17.578 15.487 17.5392 15.587 17.4668C15.6775 17.4019 15.7476 17.3126 15.7889 17.2092C15.8303 17.1058 15.8412 16.9928 15.8204 16.8834L15.237 13.5701L17.6462 11.2368C17.7304 11.1654 17.7927 11.0716 17.8257 10.9663C17.8588 10.861 17.8612 10.7484 17.8329 10.6418ZM14.2454 12.9751C14.177 13.0413 14.1258 13.1232 14.0963 13.2137C14.0668 13.3042 14.0599 13.4005 14.0762 13.4943L14.4962 15.9384L12.3029 14.7718C12.2185 14.7268 12.1243 14.7033 12.0287 14.7033C11.9331 14.7033 11.8389 14.7268 11.7545 14.7718L9.56121 15.9384L9.98121 13.4943C9.9975 13.4005 9.99061 13.3042 9.96112 13.2137C9.93163 13.1232 9.88045 13.0413 9.81204 12.9751L8.06204 11.2251L10.5179 10.8693C10.6124 10.8561 10.7022 10.82 10.7795 10.7641C10.8568 10.7081 10.9192 10.6341 10.9612 10.5484L11.9995 8.32594L13.0962 10.5543C13.1382 10.6399 13.2006 10.714 13.2779 10.7699C13.3552 10.8258 13.445 10.862 13.5395 10.8751L15.9954 11.2309L14.2454 12.9751Z" fill="#1B1B1B"/>
</svg>
