<svg width="20" height="20" viewBox="0 0 20 20" fill="none" xmlns="http://www.w3.org/2000/svg">
<path d="M17.3339 6.49898V1.75065C17.3339 1.50754 17.2373 1.27438 17.0654 1.10247C16.8935 0.930561 16.6604 0.833984 16.4172 0.833984C16.1741 0.833984 15.941 0.930561 15.7691 1.10247C15.5971 1.27438 15.5006 1.50754 15.5006 1.75065V6.49898C14.9697 6.69167 14.511 7.04314 14.1868 7.50564C13.8627 7.96813 13.6888 8.51921 13.6888 9.08398C13.6888 9.64876 13.8627 10.1998 14.1868 10.6623C14.511 11.1248 14.9697 11.4763 15.5006 11.669V18.2507C15.5006 18.4938 15.5971 18.7269 15.7691 18.8988C15.941 19.0707 16.1741 19.1673 16.4172 19.1673C16.6604 19.1673 16.8935 19.0707 17.0654 18.8988C17.2373 18.7269 17.3339 18.4938 17.3339 18.2507V11.669C17.8648 11.4763 18.3235 11.1248 18.6476 10.6623C18.9718 10.1998 19.1457 9.64876 19.1457 9.08398C19.1457 8.51921 18.9718 7.96813 18.6476 7.50564C18.3235 7.04314 17.8648 6.69167 17.3339 6.49898ZM16.4172 10.0007C16.2359 10.0007 16.0587 9.94689 15.908 9.84616C15.7572 9.74544 15.6397 9.60228 15.5703 9.43478C15.501 9.26728 15.4828 9.08297 15.5182 8.90515C15.5536 8.72734 15.6409 8.564 15.7691 8.4358C15.8973 8.30761 16.0606 8.2203 16.2384 8.18493C16.4162 8.14956 16.6005 8.16771 16.768 8.23709C16.9355 8.30648 17.0787 8.42397 17.1794 8.57471C17.2801 8.72546 17.3339 8.90269 17.3339 9.08398C17.3339 9.3271 17.2373 9.56026 17.0654 9.73217C16.8935 9.90407 16.6604 10.0007 16.4172 10.0007ZM10.9172 11.999V1.75065C10.9172 1.50754 10.8207 1.27438 10.6488 1.10247C10.4768 0.930561 10.2437 0.833984 10.0006 0.833984C9.75746 0.833984 9.5243 0.930561 9.35239 1.10247C9.18048 1.27438 9.08391 1.50754 9.08391 1.75065V11.999C8.55302 12.1917 8.09433 12.5431 7.77018 13.0056C7.44603 13.4681 7.27214 14.0192 7.27214 14.584C7.27214 15.1488 7.44603 15.6998 7.77018 16.1623C8.09433 16.6248 8.55302 16.9763 9.08391 17.169V18.2507C9.08391 18.4938 9.18048 18.7269 9.35239 18.8988C9.5243 19.0707 9.75746 19.1673 10.0006 19.1673C10.2437 19.1673 10.4768 19.0707 10.6488 18.8988C10.8207 18.7269 10.9172 18.4938 10.9172 18.2507V17.169C11.4481 16.9763 11.9068 16.6248 12.231 16.1623C12.5551 15.6998 12.729 15.1488 12.729 14.584C12.729 14.0192 12.5551 13.4681 12.231 13.0056C11.9068 12.5431 11.4481 12.1917 10.9172 11.999ZM10.0006 15.5007C9.81927 15.5007 9.64204 15.4469 9.4913 15.3462C9.34055 15.2454 9.22306 15.1023 9.15368 14.9348C9.0843 14.7673 9.06615 14.583 9.10152 14.4052C9.13689 14.2273 9.22419 14.064 9.35239 13.9358C9.48059 13.8076 9.64392 13.7203 9.82174 13.6849C9.99956 13.6496 10.1839 13.6677 10.3514 13.7371C10.5189 13.8065 10.662 13.924 10.7628 14.0747C10.8635 14.2255 10.9172 14.4027 10.9172 14.584C10.9172 14.8271 10.8207 15.0603 10.6488 15.2322C10.4768 15.4041 10.2437 15.5007 10.0006 15.5007ZM4.50057 4.66565V1.75065C4.50057 1.50754 4.404 1.27438 4.23209 1.10247C4.06018 0.930561 3.82702 0.833984 3.58391 0.833984C3.34079 0.833984 3.10763 0.930561 2.93572 1.10247C2.76382 1.27438 2.66724 1.50754 2.66724 1.75065V4.66565C2.13635 4.85834 1.67766 5.20981 1.35351 5.6723C1.02936 6.13479 0.855469 6.68587 0.855469 7.25065C0.855469 7.81543 1.02936 8.36651 1.35351 8.829C1.67766 9.29149 2.13635 9.64296 2.66724 9.83565V18.2507C2.66724 18.4938 2.76382 18.7269 2.93572 18.8988C3.10763 19.0707 3.34079 19.1673 3.58391 19.1673C3.82702 19.1673 4.06018 19.0707 4.23209 18.8988C4.404 18.7269 4.50057 18.4938 4.50057 18.2507V9.83565C5.03146 9.64296 5.49015 9.29149 5.8143 8.829C6.13845 8.36651 6.31234 7.81543 6.31234 7.25065C6.31234 6.68587 6.13845 6.13479 5.8143 5.6723C5.49015 5.20981 5.03146 4.85834 4.50057 4.66565ZM3.58391 8.16732C3.40261 8.16732 3.22538 8.11356 3.07463 8.01283C2.92389 7.91211 2.8064 7.76894 2.73702 7.60144C2.66764 7.43395 2.64948 7.24963 2.68485 7.07182C2.72022 6.894 2.80753 6.73067 2.93572 6.60247C3.06392 6.47427 3.22726 6.38697 3.40507 6.3516C3.58289 6.31623 3.7672 6.33438 3.9347 6.40376C4.1022 6.47314 4.24536 6.59063 4.34609 6.74138C4.44681 6.89212 4.50057 7.06935 4.50057 7.25065C4.50057 7.49377 4.404 7.72692 4.23209 7.89883C4.06018 8.07074 3.82702 8.16732 3.58391 8.16732Z" fill="#1B1B1B"/>
</svg>
