<svg width="26" height="21" viewBox="0 0 26 21" fill="none" xmlns="http://www.w3.org/2000/svg">
<path d="M21.3772 5.47391C20.5822 3.64699 19.21 2.13114 17.471 1.15867C15.732 0.186191 13.7221 -0.189273 11.7494 0.089812C9.77657 0.368897 7.9497 1.28713 6.5487 2.70381C5.1477 4.1205 4.24986 5.95747 3.99275 7.93324C2.75213 8.23034 1.66383 8.97271 0.93451 10.0194C0.20519 11.066 -0.114353 12.3441 0.0365632 13.6108C0.18748 14.8775 0.798345 16.0447 1.75315 16.8907C2.70796 17.7368 3.94022 18.2027 5.21591 18.2C5.56102 18.2 5.89199 18.0629 6.13602 17.8188C6.38005 17.5748 6.51714 17.2438 6.51714 16.8987C6.51714 16.5536 6.38005 16.2227 6.13602 15.9786C5.89199 15.7346 5.56102 15.5975 5.21591 15.5975C4.52569 15.5975 3.86374 15.3233 3.37569 14.8353C2.88763 14.3472 2.61344 13.6853 2.61344 12.995C2.61344 12.3048 2.88763 11.6429 3.37569 11.1548C3.86374 10.6668 4.52569 10.3926 5.21591 10.3926C5.56102 10.3926 5.89199 10.2555 6.13602 10.0114C6.38005 9.76742 6.51714 9.43645 6.51714 9.09134C6.52046 7.55234 7.06924 6.06435 8.06596 4.89172C9.06268 3.71909 10.4428 2.93774 11.9612 2.68651C13.4795 2.43527 15.0378 2.7304 16.3591 3.51947C17.6804 4.30854 18.6793 5.54046 19.1781 6.99635C19.2525 7.21996 19.3862 7.41917 19.565 7.57271C19.7437 7.72626 19.9608 7.82838 20.1931 7.86818C21.0598 8.03197 21.8455 8.48445 22.4221 9.15189C22.9988 9.81933 23.3324 10.6624 23.3686 11.5437C23.4048 12.425 23.1415 13.2926 22.6216 14.0051C22.1017 14.7176 21.3557 15.233 20.5054 15.4674C20.1706 15.5537 19.8839 15.7694 19.7082 16.0671C19.5325 16.3648 19.4822 16.7201 19.5685 17.0549C19.6548 17.3896 19.8705 17.6764 20.1682 17.8521C20.4659 18.0278 20.8213 18.0781 21.156 17.9918C22.5254 17.6299 23.7393 16.8311 24.6134 15.7165C25.4875 14.602 25.974 13.2327 25.999 11.8165C26.024 10.4003 25.5862 9.01462 24.7521 7.8699C23.9179 6.72517 22.733 5.88393 21.3772 5.47391ZM13.9472 8.16746C13.8234 8.049 13.6775 7.95614 13.5178 7.8942C13.201 7.76406 12.8456 7.76406 12.5288 7.8942C12.3691 7.95614 12.2232 8.049 12.0994 8.16746L8.19573 12.0712C7.9507 12.3162 7.81305 12.6485 7.81305 12.995C7.81305 13.3416 7.9507 13.6739 8.19573 13.9189C8.44076 14.1639 8.77309 14.3016 9.11961 14.3016C9.46613 14.3016 9.79846 14.1639 10.0435 13.9189L11.7221 12.2273V19.5012C11.7221 19.8463 11.8592 20.1773 12.1032 20.4213C12.3472 20.6653 12.6782 20.8024 13.0233 20.8024C13.3684 20.8024 13.6994 20.6653 13.9434 20.4213C14.1874 20.1773 14.3245 19.8463 14.3245 19.5012V12.2273L16.0031 13.9189C16.1241 14.0409 16.268 14.1377 16.4266 14.2037C16.5851 14.2698 16.7552 14.3038 16.927 14.3038C17.0988 14.3038 17.2689 14.2698 17.4274 14.2037C17.586 14.1377 17.7299 14.0409 17.8509 13.9189C17.9728 13.7979 18.0696 13.654 18.1357 13.4955C18.2018 13.3369 18.2358 13.1668 18.2358 12.995C18.2358 12.8233 18.2018 12.6532 18.1357 12.4946C18.0696 12.336 17.9728 12.1921 17.8509 12.0712L13.9472 8.16746Z" fill="#0E47D5"/>
</svg>
