<svg width="14" height="8" viewBox="0 0 14 8" fill="none" xmlns="http://www.w3.org/2000/svg">
<path d="M6.28955 0.459286L0.639548 6.11929C0.54582 6.21225 0.471426 6.32285 0.420657 6.44471C0.369888 6.56657 0.34375 6.69727 0.34375 6.82929C0.34375 6.9613 0.369888 7.092 0.420657 7.21386C0.471426 7.33572 0.54582 7.44632 0.639548 7.53929C0.826911 7.72554 1.08036 7.83008 1.34455 7.83008C1.60873 7.83008 1.86219 7.72554 2.04955 7.53929L7.04955 2.58929L11.9995 7.53929C12.1869 7.72554 12.4404 7.83008 12.7045 7.83008C12.9687 7.83008 13.2222 7.72554 13.4095 7.53929C13.504 7.44667 13.5792 7.33623 13.6307 7.21435C13.6822 7.09248 13.709 6.96159 13.7095 6.82929C13.709 6.69698 13.6822 6.5661 13.6307 6.44422C13.5792 6.32235 13.504 6.2119 13.4095 6.11929L7.75955 0.459286C7.66591 0.357781 7.55225 0.276772 7.42576 0.221365C7.29926 0.165958 7.16265 0.137353 7.02455 0.137353C6.88645 0.137353 6.74984 0.165958 6.62334 0.221365C6.49684 0.276772 6.38319 0.357781 6.28955 0.459286V0.459286Z" fill="white"/>
</svg>
