<svg width="14" height="8" viewBox="0 0 14 8" fill="none" xmlns="http://www.w3.org/2000/svg">
<path d="M6.28955 7.54071L0.639548 1.88071C0.54582 1.78775 0.471426 1.67715 0.420657 1.55529C0.369888 1.43343 0.34375 1.30273 0.34375 1.17071C0.34375 1.0387 0.369888 0.907997 0.420657 0.786138C0.471426 0.664278 0.54582 0.553677 0.639548 0.460714C0.826911 0.274463 1.08036 0.169922 1.34455 0.169922C1.60873 0.169922 1.86219 0.274463 2.04955 0.460714L7.04955 5.41071L11.9995 0.460714C12.1869 0.274463 12.4404 0.169922 12.7045 0.169922C12.9687 0.169922 13.2222 0.274463 13.4095 0.460714C13.504 0.553329 13.5792 0.663774 13.6307 0.785649C13.6822 0.907525 13.709 1.03841 13.7095 1.17071C13.709 1.30302 13.6822 1.4339 13.6307 1.55578C13.5792 1.67765 13.504 1.7881 13.4095 1.88071L7.75955 7.54071C7.66591 7.64222 7.55225 7.72323 7.42576 7.77864C7.29926 7.83404 7.16265 7.86265 7.02455 7.86265C6.88645 7.86265 6.74984 7.83404 6.62334 7.77864C6.49684 7.72323 6.38319 7.64222 6.28955 7.54071Z" fill="#393939"/>
</svg>
