<svg width="20" height="20" viewBox="0 0 20 20" fill="none" xmlns="http://www.w3.org/2000/svg">
<g clip-path="url(#clip0_269_2783)">
<path fill-rule="evenodd" clip-rule="evenodd" d="M9.17496 -0.000305176C10.608 -0.000305176 12.015 0.373695 13.258 1.08469C14 0.382695 14.962 -0.000305176 15.999 -0.000305176C18.205 -0.000305176 20 1.79469 20 4.00069C20 4.91769 19.682 5.81369 19.103 6.52569C18.672 7.05569 18.117 7.4627 17.487 7.71469C17.503 7.92069 17.511 8.1277 17.511 8.3367C17.511 9.1107 17.405 9.8757 17.197 10.6117C17.083 11.0067 16.667 11.2377 16.275 11.1257C16.083 11.0717 15.924 10.9467 15.827 10.7717C15.729 10.5977 15.706 10.3967 15.76 10.2047C15.932 9.5997 16.019 8.9707 16.019 8.3367C16.019 6.5277 15.3 4.81269 13.995 3.51069C12.692 2.20869 10.98 1.49269 9.17396 1.49269C8.82396 1.49269 8.47596 1.51869 8.14096 1.56969C6.79496 1.77369 5.58396 2.40869 4.68096 3.37469C6.36296 4.09969 7.66596 5.47369 8.29996 7.21269C8.60796 8.05569 9.13196 8.80869 9.81696 9.3897L9.85396 9.4207L9.94796 9.2847C10.345 8.7007 11.005 8.3507 11.712 8.3507C12.889 8.3507 13.847 9.30869 13.847 10.4857C13.847 11.4707 13.509 12.4167 12.891 13.1717L13.103 13.9417C13.545 13.6307 13.947 13.2707 14.305 12.8667C14.437 12.7167 14.619 12.6277 14.818 12.6157C15.016 12.6037 15.21 12.6687 15.358 12.8017C15.666 13.0747 15.695 13.5457 15.424 13.8537C14.869 14.4817 14.229 15.0177 13.52 15.4507L14.515 19.0547C14.625 19.4507 14.392 19.8627 13.994 19.9727C13.936 19.9907 13.866 19.9997 13.796 19.9997C13.461 19.9997 13.166 19.7747 13.077 19.4507L11.614 14.1557C11.183 14.3047 10.702 14.3137 10.27 14.1797C10.082 14.1217 9.92496 13.9927 9.83196 13.8177C9.73796 13.6407 9.71896 13.4387 9.77696 13.2477C9.83596 13.0567 9.96596 12.9007 10.143 12.8067C10.319 12.7127 10.52 12.6947 10.71 12.7537C10.924 12.8197 11.148 12.7747 11.319 12.6377C11.978 12.1117 12.354 11.3267 12.354 10.4857C12.354 10.1317 12.066 9.8437 11.713 9.8437C11.499 9.8437 11.301 9.9487 11.181 10.1237L10.621 10.9467C10.502 11.1207 10.314 11.2387 10.104 11.2667C9.89296 11.2897 9.68296 11.2327 9.52096 11.0957L8.85196 10.5277C7.96996 9.7807 7.29396 8.81069 6.89796 7.72469C6.37396 6.28569 5.22396 5.14569 3.79096 4.62669C3.68296 4.83369 3.58796 5.04469 3.50796 5.25969C3.28396 5.85769 3.16996 6.46369 3.16996 7.06169C3.16996 8.89569 2.43496 10.0527 1.80196 10.7087C1.81096 10.7137 1.81896 10.7177 1.82796 10.7217C2.53796 11.0617 3.08296 11.3237 3.08296 11.9267V12.6257C3.08296 12.9697 3.01796 13.3067 2.88796 13.6247C3.00196 13.8337 3.05896 13.9977 3.05896 14.1637L2.85796 14.5417L3.09596 14.2587C3.26496 14.4007 3.36196 14.6087 3.36196 14.8287V15.4367C3.36196 15.8527 3.70096 16.1907 4.11696 16.1907C5.64096 16.1907 7.12996 15.7657 8.42496 14.9607C8.59396 14.8567 8.79296 14.8217 8.98796 14.8677C9.18296 14.9127 9.34796 15.0327 9.45296 15.2017C9.55796 15.3687 9.59096 15.5697 9.54496 15.7637C9.49996 15.9577 9.38196 16.1227 9.21296 16.2287C8.78796 16.4927 8.34296 16.7227 7.88496 16.9167L8.82096 18.9407C8.90496 19.1207 8.91296 19.3247 8.84396 19.5107C8.77496 19.6987 8.63796 19.8477 8.45696 19.9307C8.11596 20.0927 7.63596 19.9317 7.46696 19.5697L6.46096 17.3937C5.69496 17.5857 4.90796 17.6827 4.11696 17.6827C2.87796 17.6827 1.86996 16.6747 1.86996 15.4367V15.1147C1.71796 14.9057 1.62096 14.6657 1.58296 14.4097C1.35796 13.9967 1.32796 13.5007 1.50496 13.0647C1.56196 12.9237 1.59096 12.7777 1.59096 12.6257V12.2677C1.47796 12.2087 1.34296 12.1447 1.23096 12.0907C0.981957 11.9707 0.752957 11.8607 0.551957 11.7477C0.233957 11.5697 0.0299567 11.2457 0.0029567 10.8847C-0.0230433 10.5227 0.130957 10.1747 0.417957 9.95269C0.887957 9.58869 1.67696 8.72869 1.67696 7.06169C1.67696 6.28369 1.82296 5.50069 2.11096 4.73569C3.03296 2.27569 5.25796 0.496695 7.91696 0.0946948C8.32596 0.0326948 8.74496 0.000694824 9.16396 -0.000305176H9.17496ZM15.3095 11.4473C15.5825 11.1703 16.0885 11.1683 16.3665 11.4493C16.5025 11.5863 16.5825 11.7783 16.5825 11.9743C16.5825 12.1713 16.5025 12.3643 16.3645 12.5033C16.2255 12.6413 16.0335 12.7203 15.8365 12.7203C15.6405 12.7203 15.4485 12.6413 15.3095 12.5033C15.1705 12.3643 15.0905 12.1713 15.0905 11.9743C15.0905 11.7783 15.1705 11.5863 15.3095 11.4473ZM3.66166 8.14159C3.95266 7.85059 4.42666 7.85059 4.71766 8.14159C4.87966 8.30359 5.16466 8.30359 5.32566 8.14159C5.61666 7.85059 6.08866 7.8496 6.38066 8.14159C6.52166 8.28259 6.59966 8.47059 6.59966 8.66959C6.59866 8.86959 6.52166 9.0566 6.38066 9.1976C6.01766 9.5596 5.53466 9.75959 5.02166 9.75959C4.50766 9.75959 4.02466 9.5596 3.66166 9.1966C3.52166 9.05659 3.44366 8.86959 3.44366 8.66959C3.44366 8.47059 3.52066 8.28259 3.66166 8.14159ZM15.999 1.49269C15.459 1.49269 14.947 1.65969 14.523 1.97069C14.706 2.12469 14.882 2.28669 15.05 2.45369C16.102 3.50469 16.848 4.78769 17.227 6.18769C18.006 5.74869 18.507 4.91469 18.507 4.00069C18.507 2.61769 17.382 1.49269 15.999 1.49269Z" fill="#F295D2"/>
</g>
<defs>
<clipPath id="clip0_269_2783">
<rect width="20" height="20" fill="white"/>
</clipPath>
</defs>
</svg>
