<svg width="17" height="21" viewBox="0 0 17 21" fill="none" xmlns="http://www.w3.org/2000/svg">
<path d="M4.28543 1.03113L4.19112 1.65152C4.10624 2.19831 3.93649 2.72407 3.68186 3.20777L2.63504 5.19514C1.26757 7.78188 0.862041 10.8523 1.48448 13.7755L2.81423 19.969" stroke="#E88EC8" stroke-width="1.5" stroke-miterlimit="10" stroke-linecap="round"/>
<path d="M12.9146 1.03113L13.0089 1.65152C13.0937 2.19831 13.2635 2.72407 13.5181 3.20777L14.5649 5.19514C15.9324 7.78188 16.3379 10.8523 15.7155 13.7755L14.3858 19.969" stroke="#E88EC8" stroke-width="1.5" stroke-miterlimit="10" stroke-linecap="round"/>
<path d="M2.38977 5.67874C2.38977 5.67874 7.80306 7.49888 14.8102 5.67874" stroke="#E88EC8" stroke-width="1.5" stroke-miterlimit="10" stroke-linecap="round"/>
<path d="M1.74841 7.35077C2.55946 7.35077 8.5952 10.1478 8.5952 14.0805V19.969" stroke="#E88EC8" stroke-width="1.5" stroke-miterlimit="10" stroke-linecap="round"/>
<path d="M15.4514 7.35077C14.6403 7.35077 8.60461 10.1478 8.60461 14.0805V19.969" stroke="#E88EC8" stroke-width="1.5" stroke-miterlimit="10" stroke-linecap="round"/>
</svg>
