<svg width="15" height="20" viewBox="0 0 15 20" fill="none" xmlns="http://www.w3.org/2000/svg">
<g clip-path="url(#clip0_269_2779)">
<path fill-rule="evenodd" clip-rule="evenodd" d="M12.665 11.1128C12.665 11.3338 12.485 11.5128 12.265 11.5128L12.223 11.5108C11.841 11.4628 11.491 11.7308 11.414 12.1088C11.318 12.5858 11.154 13.0408 10.927 13.4648C10.08 12.9868 9.561 12.0998 9.561 11.1128C9.561 10.2288 10.005 9.38879 10.728 8.88779C11.154 9.36479 11.326 9.67679 11.414 10.1148C11.491 10.4948 11.851 10.7578 12.219 10.7138L12.265 10.7118C12.485 10.7118 12.665 10.8918 12.665 11.1128ZM3.517 16.0898C3.436 16.2738 3.433 16.4778 3.506 16.6648C3.579 16.8508 3.72 16.9978 3.904 17.0778C4.495 17.3368 5.118 17.5048 5.757 17.5778V18.4988H1.501V1.50079H3.854C6.64 4.81879 8.435 6.58979 9.625 7.76379L9.667 7.80579C8.656 8.59979 8.06 9.82079 8.06 11.1128C8.06 12.0258 8.348 12.8948 8.892 13.6248C9.206 14.0458 9.586 14.3968 10.023 14.6728C9.087 15.5938 7.817 16.1188 6.507 16.1188C5.81 16.1188 5.136 15.9778 4.505 15.7028C4.125 15.5368 3.683 15.7118 3.517 16.0898ZM12.732 9.26879C12.49 8.60979 12.07 8.09979 11.397 7.41079L11.375 7.38879C11.169 7.17879 10.938 6.94979 10.675 6.69079C9.468 5.49879 7.643 3.69779 4.781 0.268786C4.638 0.0977864 4.428 -0.000213623 4.205 -0.000213623H0.75C0.336 -0.000213623 0 0.336786 0 0.750786V19.2488C0 19.6628 0.336 19.9998 0.75 19.9998H6.507C6.921 19.9998 7.258 19.6628 7.258 19.2488V17.5768C8.51 17.4308 9.681 16.9328 10.653 16.1288C11.097 15.7608 11.49 15.3368 11.813 14.8768C11.835 14.8508 11.854 14.8238 11.866 14.8038C12.26 14.2328 12.557 13.6098 12.751 12.9518C13.577 12.7328 14.166 11.9758 14.166 11.1128C14.166 10.2408 13.569 9.48079 12.732 9.26879Z" fill="#F295D2"/>
</g>
<defs>
<clipPath id="clip0_269_2779">
<rect width="15" height="20" fill="white"/>
</clipPath>
</defs>
</svg>
