<svg width="17" height="20" viewBox="0 0 17 20" fill="none" xmlns="http://www.w3.org/2000/svg">
<g clip-path="url(#clip0_269_2787)">
<path fill-rule="evenodd" clip-rule="evenodd" d="M8.471 0.000408447C9.385 0.000408447 10.245 0.356408 10.895 1.00241C11.502 1.61241 11.853 2.40441 11.895 3.25041C12.849 3.67141 13.712 4.26241 14.462 5.00941C16.062 6.61741 16.944 8.74641 16.944 11.0044C16.943 11.0454 16.927 11.8614 16.892 12.1624C16.873 12.3274 16.798 12.4834 16.681 12.6024C15.6181 13.6671 15.1838 14.1008 14.9996 14.2819L14.947 14.3334C14.061 17.5724 10.424 20.0004 8.468 20.0004C6.941 20.0004 2.17 17.3374 1.797 13.3984C1.666 13.2534 1.36 12.9204 1.185 12.7614C0.372 12.0294 0 11.6954 0 11.2134V11.0054C0 7.63841 1.975 4.61641 5.048 3.25441C5.145 1.43741 6.644 0.000408447 8.471 0.000408447ZM15.6077 17.2138C15.9807 17.2138 16.2897 17.4878 16.3477 17.8438C16.7037 17.9028 16.9767 18.2118 16.9767 18.5838C16.9767 18.9558 16.7037 19.2658 16.3477 19.3238C16.2897 19.6808 15.9807 19.9538 15.6077 19.9538C15.2347 19.9538 14.9247 19.6808 14.8677 19.3238C14.5107 19.2668 14.2377 18.9568 14.2377 18.5838C14.2377 18.2108 14.5107 17.9018 14.8677 17.8438C14.9247 17.4878 15.2347 17.2138 15.6077 17.2138ZM7.517 7.62041C6.814 8.24041 5.39 9.45241 4.57 9.83741C3.348 10.4159 3.28825 12.8396 3.28595 13.2061L3.28593 13.2524C3.512 16.1984 7.5 18.5014 8.467 18.5014C9.854 18.5014 13.423 16.2014 13.65 13.1864C13.65 13.1734 13.695 10.4714 12.353 9.83641C11.561 9.46441 8.642 8.13241 7.517 7.62041ZM8.8535 14.898C9.1455 14.608 9.6205 14.606 9.9145 14.898C10.2055 15.191 10.2055 15.667 9.9155 15.959L9.5935 16.279C9.2925 16.58 8.8925 16.746 8.4675 16.746C8.0415 16.746 7.6415 16.58 7.3405 16.279L7.0205 15.959C6.7285 15.667 6.7285 15.191 7.0205 14.899C7.3045 14.616 7.7995 14.616 8.0815 14.899L8.4015 15.22C8.4325 15.251 8.5015 15.251 8.5335 15.22L8.8535 14.898ZM10.9974 11.4888C11.2904 11.2368 11.7344 11.2458 12.0154 11.5258C12.1574 11.6678 12.2354 11.8568 12.2354 12.0558C12.2354 12.2558 12.1574 12.4448 12.0154 12.5858L11.8464 12.7568C11.6194 12.9848 11.3174 13.1098 10.9974 13.1098C10.6764 13.1098 10.3754 12.9858 10.1484 12.7598L9.9754 12.5848C9.8364 12.4448 9.7574 12.2558 9.7574 12.0558C9.7574 11.8568 9.8364 11.6678 9.9774 11.5268C10.2584 11.2488 10.7044 11.2368 10.9974 11.4888ZM6.4264 11.3068C6.6264 11.3068 6.8144 11.3848 6.9564 11.5258C7.0984 11.6668 7.1764 11.8558 7.1764 12.0558C7.1764 12.2558 7.0984 12.4448 6.9574 12.5858L6.7864 12.7568C6.5594 12.9848 6.2574 13.1098 5.9374 13.1098C5.6164 13.1098 5.3154 12.9858 5.0894 12.7598L4.9174 12.5868C4.6264 12.2928 4.6264 11.8178 4.9184 11.5268C5.1994 11.2478 5.6454 11.2358 5.9384 11.4888C6.0734 11.3708 6.2434 11.3078 6.4244 11.3068H6.4264ZM10.729 4.41141C9.264 3.90841 7.68 3.90341 6.196 4.41841C5.941 4.52341 5.741 4.60541 5.575 4.67641C6.805 5.38141 10.231 7.30441 12.982 8.47641C14.581 9.15641 14.989 11.0554 15.092 12.0764L15.424 11.7404C15.437 11.4824 15.444 11.0034 15.444 11.0024C15.444 9.14641 14.719 7.39341 13.401 6.07041C12.728 5.39941 11.123 4.57041 10.729 4.41141ZM4.118 5.57041C2.453 6.90541 1.502 8.87341 1.5 10.9994C1.585 11.0874 1.73 11.2244 1.874 11.3584C2.038 10.4704 2.521 9.14741 3.932 8.48141C4.417 8.25241 5.387 7.48241 6.228 6.75441L4.118 5.57041ZM1.3762 -9.15527e-05C1.7492 -9.15527e-05 2.0592 0.273908 2.1162 0.629908C2.4732 0.687908 2.7462 0.997908 2.7462 1.36991C2.7462 1.74291 2.4732 2.05191 2.1162 2.10991C2.0582 2.46691 1.7492 2.73991 1.3762 2.73991C1.0042 2.73991 0.6942 2.46591 0.6362 2.10991C0.2802 2.05191 0.0072 1.74191 0.0072 1.36991C0.0072 0.996908 0.2802 0.687908 0.6362 0.629908C0.6942 0.272908 1.0042 -9.15527e-05 1.3762 -9.15527e-05ZM8.471 1.50041C7.673 1.50041 6.968 2.00441 6.684 2.72741C7.885 2.46441 9.073 2.46641 10.263 2.72641C10.168 2.47741 10.023 2.25241 9.834 2.06241C9.47 1.70041 8.985 1.50041 8.471 1.50041Z" fill="#F295D2"/>
</g>
<defs>
<clipPath id="clip0_269_2787">
<rect width="17" height="20" fill="white"/>
</clipPath>
</defs>
</svg>
