<svg width="17" height="12" viewBox="0 0 17 12" fill="none" xmlns="http://www.w3.org/2000/svg">
<path d="M11.1962 0.147052L11.2803 0.21967L16.5303 5.46967C16.7966 5.73594 16.8208 6.1526 16.6029 6.44621L16.5303 6.53033L11.2803 11.7803C10.9874 12.0732 10.5126 12.0732 10.2197 11.7803C9.9534 11.5141 9.9292 11.0974 10.1471 10.8038L10.2197 10.7197L14.188 6.75H0.75C0.335786 6.75 0 6.41421 0 6C0 5.58579 0.335786 5.25 0.75 5.25H14.188L10.2197 1.28033C9.9534 1.01406 9.9292 0.5974 10.1471 0.303788L10.2197 0.21967C10.4859 -0.0465966 10.9026 -0.0708027 11.1962 0.147052Z" fill="#323232"/>
</svg>
