<svg width="24" height="22" viewBox="0 0 24 22" fill="none" xmlns="http://www.w3.org/2000/svg">
<path opacity="0.8" fill-rule="evenodd" clip-rule="evenodd" d="M7.37048 0.0554558C6.98071 0.233535 6.86087 0.497583 6.86087 1.17819V1.67765L4.96993 1.67855C2.80804 1.67961 2.59255 1.70586 1.87384 2.05551C1.24213 2.36276 0.688849 2.9088 0.377341 3.53223C-0.0295995 4.34661 -0.00948255 3.88554 0.00677146 12.0154L0.0213087 19.2791L0.140612 19.6232C0.439353 20.4851 1.09847 21.2435 1.88124 21.6262C2.71325 22.0329 2.03584 22.0088 12.1859 21.993L21.2642 21.9789L21.6129 21.8612C22.1286 21.687 22.6122 21.3873 23.0063 20.9973C23.4093 20.5985 23.6524 20.2181 23.8563 19.6674L24 19.2791V11.868V4.45683L23.881 4.08627C23.7142 3.56659 23.4152 3.0881 23.0053 2.68472C22.6012 2.28706 22.2156 2.04704 21.6577 1.84599L21.2642 1.70417L19.217 1.68755L17.1698 1.67087L17.1517 1.09566C17.1322 0.474185 17.0852 0.355713 16.7643 0.119297C16.5566 -0.033743 16.0477 -0.033743 15.84 0.119297C15.5187 0.355977 15.4721 0.473815 15.4525 1.09905L15.4344 1.67765H12.0107H8.58696L8.56877 1.09905C8.5493 0.477044 8.50193 0.355501 8.18925 0.12512C8.01147 -0.00584527 7.58425 -0.0422125 7.37048 0.0554558ZM6.86956 3.95022C6.88914 4.57546 6.93576 4.6933 7.25703 4.92998C7.46474 5.08302 7.9736 5.08302 8.18131 4.92998C8.50258 4.6933 8.54919 4.57546 8.56877 3.95022L8.58696 3.37162H12.0107H15.4344L15.4525 3.95022C15.4677 4.43444 15.4887 4.5527 15.5813 4.67482C15.7916 4.95253 15.963 5.03913 16.3021 5.03913C16.6413 5.03913 16.8127 4.95253 17.023 4.67482C17.1156 4.55259 17.1366 4.43444 17.1519 3.94779L17.17 3.36675L19.1099 3.38242L21.0496 3.39809L21.3876 3.57898C21.7636 3.78014 21.9257 3.94562 22.1379 4.34529C22.2776 4.60812 22.2821 4.64555 22.3007 5.68761L22.3198 6.75958H12.0107H1.70153L1.72063 5.68761C1.7393 4.63988 1.74305 4.60939 1.88634 4.33947C2.13009 3.88029 2.56026 3.53351 3.02535 3.42128C3.11386 3.39995 4.01094 3.38004 5.01885 3.37702L6.85137 3.37162L6.86956 3.95022ZM22.2981 13.7605L22.2834 19.0674L22.1359 19.3435C21.9486 19.6942 21.6848 19.9545 21.3295 20.1393L21.0496 20.2849H12.0107H2.97171L2.6337 20.104C2.25825 19.9031 2.09657 19.7383 1.88247 19.3377L1.7379 19.0674L1.72326 13.7605L1.70861 8.45355H12.0107H22.3127L22.2981 13.7605ZM5.65121 11.9144C5.13392 12.1417 4.98871 12.8202 5.36646 13.2448C5.60641 13.5145 5.78333 13.5454 6.97781 13.5261C8.13362 13.5074 8.17337 13.497 8.44003 13.1445C8.59511 12.9396 8.59511 12.4374 8.44003 12.2324C8.17085 11.8767 8.14097 11.8692 6.92417 11.8553C6.08298 11.8456 5.77528 11.8599 5.65121 11.9144ZM10.801 11.9144C10.2837 12.1417 10.1385 12.8202 10.5163 13.2448C10.7562 13.5145 10.9331 13.5454 12.1276 13.5261C13.2834 13.5074 13.3232 13.497 13.5898 13.1445C13.7449 12.9396 13.7449 12.4374 13.5898 12.2324C13.3206 11.8767 13.2908 11.8692 12.074 11.8553C11.2328 11.8456 10.9251 11.8599 10.801 11.9144ZM15.9508 11.9144C15.4335 12.1417 15.2883 12.8202 15.666 13.2448C15.906 13.5145 16.0829 13.5454 17.2774 13.5261C18.4332 13.5074 18.4729 13.497 18.7396 13.1445C18.8947 12.9396 18.8947 12.4374 18.7396 12.2324C18.4704 11.8767 18.4405 11.8692 17.2237 11.8553C16.3826 11.8456 16.0749 11.8599 15.9508 11.9144ZM5.65121 15.3023C5.13392 15.5296 4.98871 16.2081 5.36646 16.6328C5.60641 16.9024 5.78333 16.9333 6.97781 16.914C8.13362 16.8953 8.17337 16.885 8.44003 16.5325C8.59511 16.3275 8.59511 15.8254 8.44003 15.6204C8.17085 15.2646 8.14097 15.2571 6.92417 15.2432C6.08298 15.2336 5.77528 15.2479 5.65121 15.3023ZM10.801 15.3023C10.2837 15.5296 10.1385 16.2081 10.5163 16.6328C10.7562 16.9024 10.9331 16.9333 12.1276 16.914C13.2834 16.8953 13.3232 16.885 13.5898 16.5325C13.7449 16.3275 13.7449 15.8254 13.5898 15.6204C13.3206 15.2646 13.2908 15.2571 12.074 15.2432C11.2328 15.2336 10.9251 15.2479 10.801 15.3023ZM15.9508 15.3023C15.4335 15.5296 15.2883 16.2081 15.666 16.6328C15.906 16.9024 16.0829 16.9333 17.2774 16.914C18.4332 16.8953 18.4729 16.885 18.7396 16.5325C18.8947 16.3275 18.8947 15.8254 18.7396 15.6204C18.4704 15.2646 18.4405 15.2571 17.2237 15.2432C16.3826 15.2336 16.0749 15.2479 15.9508 15.3023Z" fill="black"/>
</svg>
