<svg width="16" height="15" viewBox="0 0 16 15" fill="none" xmlns="http://www.w3.org/2000/svg">
<path fill-rule="evenodd" clip-rule="evenodd" d="M7.53851 0C9.50667 0 11.4306 0.798828 12.8197 2.19312C14.2358 3.59961 15.0361 5.552 15.0174 7.54785C15.0174 7.85693 14.7654 8.10889 14.4548 8.10889C14.1443 8.10889 13.8923 7.85693 13.8923 7.54712C13.9058 5.86011 13.2337 4.20703 12.0471 3.00928C10.859 1.81128 9.2104 1.125 7.52501 1.125C7.21448 1.125 6.96246 0.873047 6.96246 0.5625C6.96246 0.252686 7.21448 0 7.52501 0H7.53851ZM11.2603 9.88477C10.9715 9.59448 10.571 9.42871 10.1607 9.42871C9.75044 9.42871 9.34991 9.59448 9.06114 9.88477L8.38158 10.5642C7.59777 10.0625 6.86646 9.47217 6.2064 8.81152C5.5471 8.15063 4.95755 7.41846 4.45351 6.6355L5.13232 5.95605C5.42709 5.6626 5.5891 5.27197 5.5891 4.85645C5.5891 4.44092 5.42709 4.05005 5.13232 3.75684L3.7327 2.36157C3.44843 2.07129 3.05315 1.90552 2.64736 1.90552C2.64361 1.90552 2.64061 1.90479 2.63536 1.90552C2.22658 1.90552 1.8268 2.07129 1.53802 2.36084L0.862969 3.03076C0.195414 3.74854 -0.10611 4.71606 0.0334013 5.6814C0.193164 7.55127 1.41576 9.79858 3.30442 11.6924C5.17882 13.5713 7.43275 14.8022 9.33716 14.9836C9.50667 14.9956 9.66344 15.0002 9.8097 15.0002C10.9858 15.0002 11.4651 14.6438 11.9879 14.1526L12.6562 13.4797C12.9472 13.188 13.113 12.7869 13.1115 12.3779C13.1137 11.9692 12.948 11.5708 12.6562 11.2852L11.2603 9.88477ZM9.90803 5.11938C10.4593 5.66772 10.7714 6.42749 10.7646 7.20459C10.7646 7.51514 11.0166 7.76709 11.3264 7.76709C11.6369 7.76709 11.8889 7.51514 11.8889 7.20532C11.9017 6.13574 11.4787 5.08569 10.7278 4.32495C9.97629 3.56445 8.9307 3.12793 7.86112 3.12793C7.6616 3.12793 7.47484 3.23584 7.37433 3.40918C7.27382 3.58252 7.27382 3.79858 7.37433 3.97168C7.47484 4.14502 7.6616 4.25293 7.86112 4.25293C8.63668 4.25903 9.36274 4.56665 9.90803 5.11938Z" fill="#F295D2"/>
</svg>
