<svg width="308" height="80" viewBox="0 0 308 80" fill="none" xmlns="http://www.w3.org/2000/svg">
<g filter="url(#filter0_d_483_7976)">
<rect x="3" y="2" width="302" height="74" rx="2" fill="#FAFAFA"/>
<rect x="14" y="26" width="26" height="26" rx="2" fill="white"/>
<rect x="14" y="26" width="26" height="26" rx="2" stroke="#C1C1C1" stroke-width="2"/>
<path d="M55.8438 34.0469V44H54.1279V34.0469H55.8438ZM59.3779 33.5V34.4639C59.3779 34.751 59.3255 35.0495 59.2207 35.3594C59.1204 35.6647 58.9792 35.9587 58.7969 36.2412C58.6146 36.5192 58.4049 36.7607 58.168 36.9658L57.3408 36.4463C57.5277 36.1637 57.6781 35.8652 57.792 35.5508C57.9105 35.2318 57.9697 34.874 57.9697 34.4775V33.5H59.3779ZM62.3447 38.1074V44H60.6973V36.6035H62.249L62.3447 38.1074ZM62.0781 40.0283L61.5176 40.0215C61.5176 39.5111 61.5814 39.0394 61.709 38.6064C61.8366 38.1735 62.0234 37.7975 62.2695 37.4785C62.5156 37.1549 62.821 36.9066 63.1855 36.7334C63.5547 36.5557 63.9808 36.4668 64.4639 36.4668C64.8011 36.4668 65.1087 36.5169 65.3867 36.6172C65.6693 36.7129 65.9131 36.8656 66.1182 37.0752C66.3278 37.2848 66.4873 37.5537 66.5967 37.8818C66.7106 38.21 66.7676 38.6064 66.7676 39.0713V44H65.1201V39.2148C65.1201 38.8548 65.0654 38.5723 64.9561 38.3672C64.8512 38.1621 64.6986 38.0163 64.498 37.9297C64.3021 37.8385 64.0674 37.793 63.7939 37.793C63.484 37.793 63.2197 37.8522 63.001 37.9707C62.7868 38.0892 62.6113 38.251 62.4746 38.4561C62.3379 38.6611 62.2376 38.8981 62.1738 39.167C62.11 39.4359 62.0781 39.723 62.0781 40.0283ZM66.665 39.5908L65.8926 39.7617C65.8926 39.3151 65.9541 38.8936 66.0771 38.4971C66.2048 38.096 66.3893 37.7451 66.6309 37.4443C66.877 37.139 67.18 36.8997 67.54 36.7266C67.9001 36.5534 68.3125 36.4668 68.7773 36.4668C69.1556 36.4668 69.4928 36.5192 69.7891 36.624C70.0898 36.7243 70.3451 36.8838 70.5547 37.1025C70.7643 37.3213 70.9238 37.6061 71.0332 37.957C71.1426 38.3034 71.1973 38.7227 71.1973 39.2148V44H69.543V39.208C69.543 38.8343 69.4883 38.5449 69.3789 38.3398C69.2741 38.1348 69.1237 37.9935 68.9277 37.916C68.7318 37.834 68.4971 37.793 68.2236 37.793C67.9684 37.793 67.7428 37.8408 67.5469 37.9365C67.3555 38.0277 67.1937 38.1576 67.0615 38.3262C66.9294 38.4902 66.8291 38.6794 66.7607 38.8936C66.6969 39.1077 66.665 39.3402 66.665 39.5908ZM78.0127 38.1826V44H76.3652V36.6035H77.917L78.0127 38.1826ZM77.7188 40.0283L77.1855 40.0215C77.1901 39.4974 77.263 39.0166 77.4043 38.5791C77.5501 38.1416 77.7507 37.7656 78.0059 37.4512C78.2656 37.1367 78.5755 36.8952 78.9355 36.7266C79.2956 36.5534 79.6966 36.4668 80.1387 36.4668C80.4941 36.4668 80.8154 36.5169 81.1025 36.6172C81.3942 36.7129 81.6426 36.8701 81.8477 37.0889C82.0573 37.3076 82.2168 37.5924 82.3262 37.9434C82.4355 38.2897 82.4902 38.7158 82.4902 39.2217V44H80.8359V39.2148C80.8359 38.8594 80.7835 38.5791 80.6787 38.374C80.5785 38.1644 80.4303 38.0163 80.2344 37.9297C80.043 37.8385 79.8037 37.793 79.5166 37.793C79.234 37.793 78.9811 37.8522 78.7578 37.9707C78.5345 38.0892 78.3454 38.251 78.1904 38.4561C78.04 38.6611 77.9238 38.8981 77.8418 39.167C77.7598 39.4359 77.7188 39.723 77.7188 40.0283ZM83.8574 40.3838V40.2266C83.8574 39.6934 83.9349 39.1989 84.0898 38.7432C84.2448 38.2829 84.4681 37.8841 84.7598 37.5469C85.056 37.2051 85.416 36.9408 85.8398 36.7539C86.2682 36.5625 86.7513 36.4668 87.2891 36.4668C87.8314 36.4668 88.3145 36.5625 88.7383 36.7539C89.1667 36.9408 89.529 37.2051 89.8252 37.5469C90.1214 37.8841 90.347 38.2829 90.502 38.7432C90.6569 39.1989 90.7344 39.6934 90.7344 40.2266V40.3838C90.7344 40.917 90.6569 41.4115 90.502 41.8672C90.347 42.3229 90.1214 42.7217 89.8252 43.0635C89.529 43.4007 89.1689 43.665 88.7451 43.8564C88.3213 44.0433 87.8405 44.1367 87.3027 44.1367C86.7604 44.1367 86.2751 44.0433 85.8467 43.8564C85.4229 43.665 85.0628 43.4007 84.7666 43.0635C84.4704 42.7217 84.2448 42.3229 84.0898 41.8672C83.9349 41.4115 83.8574 40.917 83.8574 40.3838ZM85.5049 40.2266V40.3838C85.5049 40.7165 85.5391 41.0309 85.6074 41.3271C85.6758 41.6234 85.7829 41.8831 85.9287 42.1064C86.0745 42.3298 86.2614 42.5052 86.4893 42.6328C86.7171 42.7604 86.9883 42.8242 87.3027 42.8242C87.6081 42.8242 87.8724 42.7604 88.0957 42.6328C88.3236 42.5052 88.5104 42.3298 88.6562 42.1064C88.8021 41.8831 88.9092 41.6234 88.9775 41.3271C89.0505 41.0309 89.0869 40.7165 89.0869 40.3838V40.2266C89.0869 39.8984 89.0505 39.5885 88.9775 39.2969C88.9092 39.0007 88.7998 38.7386 88.6494 38.5107C88.5036 38.2829 88.3167 38.1051 88.0889 37.9775C87.8656 37.8454 87.599 37.7793 87.2891 37.7793C86.9792 37.7793 86.7103 37.8454 86.4824 37.9775C86.2591 38.1051 86.0745 38.2829 85.9287 38.5107C85.7829 38.7386 85.6758 39.0007 85.6074 39.2969C85.5391 39.5885 85.5049 39.8984 85.5049 40.2266ZM95.5059 36.6035V37.8066H91.3359V36.6035H95.5059ZM92.5391 34.792H94.1865V41.9561C94.1865 42.1839 94.2184 42.3594 94.2822 42.4824C94.3506 42.6009 94.444 42.6807 94.5625 42.7217C94.681 42.7627 94.82 42.7832 94.9795 42.7832C95.0934 42.7832 95.2028 42.7764 95.3076 42.7627C95.4124 42.749 95.4967 42.7354 95.5605 42.7217L95.5674 43.9795C95.4307 44.0205 95.2712 44.057 95.0889 44.0889C94.9111 44.1208 94.7061 44.1367 94.4736 44.1367C94.0954 44.1367 93.7604 44.0706 93.4688 43.9385C93.1771 43.8018 92.9492 43.5807 92.7852 43.2754C92.6211 42.9701 92.5391 42.5645 92.5391 42.0586V34.792ZM104.434 42.5166V38.9893C104.434 38.7249 104.386 38.4971 104.29 38.3057C104.194 38.1143 104.049 37.9661 103.853 37.8613C103.661 37.7565 103.42 37.7041 103.128 37.7041C102.859 37.7041 102.627 37.7497 102.431 37.8408C102.235 37.932 102.082 38.055 101.973 38.21C101.863 38.3649 101.809 38.5404 101.809 38.7363H100.168C100.168 38.4447 100.239 38.1621 100.38 37.8887C100.521 37.6152 100.726 37.3714 100.995 37.1572C101.264 36.943 101.585 36.7744 101.959 36.6514C102.333 36.5283 102.752 36.4668 103.217 36.4668C103.773 36.4668 104.265 36.5602 104.693 36.7471C105.126 36.9339 105.466 37.2165 105.712 37.5947C105.963 37.9684 106.088 38.4378 106.088 39.0029V42.291C106.088 42.6283 106.111 42.9313 106.156 43.2002C106.206 43.4645 106.277 43.6947 106.368 43.8906V44H104.68C104.602 43.8223 104.541 43.5967 104.495 43.3232C104.454 43.0452 104.434 42.7764 104.434 42.5166ZM104.673 39.502L104.687 40.5205H103.504C103.199 40.5205 102.93 40.5501 102.697 40.6094C102.465 40.6641 102.271 40.7461 102.116 40.8555C101.961 40.9648 101.845 41.097 101.768 41.252C101.69 41.4069 101.651 41.5824 101.651 41.7783C101.651 41.9743 101.697 42.1543 101.788 42.3184C101.879 42.4779 102.011 42.6032 102.185 42.6943C102.362 42.7855 102.576 42.8311 102.827 42.8311C103.164 42.8311 103.458 42.7627 103.709 42.626C103.964 42.4847 104.165 42.3138 104.311 42.1133C104.456 41.9082 104.534 41.7145 104.543 41.5322L105.076 42.2637C105.021 42.4505 104.928 42.651 104.796 42.8652C104.664 43.0794 104.491 43.2845 104.276 43.4805C104.067 43.6719 103.814 43.8291 103.518 43.9521C103.226 44.0752 102.889 44.1367 102.506 44.1367C102.023 44.1367 101.592 44.041 101.214 43.8496C100.836 43.6536 100.539 43.3916 100.325 43.0635C100.111 42.7308 100.004 42.3548 100.004 41.9355C100.004 41.5436 100.077 41.1973 100.223 40.8965C100.373 40.5911 100.592 40.3359 100.879 40.1309C101.171 39.9258 101.526 39.7708 101.945 39.666C102.365 39.5566 102.843 39.502 103.381 39.502H104.673ZM112.951 38.0117V44H111.304V36.6035H112.876L112.951 38.0117ZM115.214 36.5557L115.2 38.0869C115.1 38.0687 114.991 38.055 114.872 38.0459C114.758 38.0368 114.644 38.0322 114.53 38.0322C114.248 38.0322 113.999 38.0732 113.785 38.1553C113.571 38.2327 113.391 38.3467 113.245 38.4971C113.104 38.6429 112.994 38.8206 112.917 39.0303C112.84 39.2399 112.794 39.4746 112.78 39.7344L112.404 39.7617C112.404 39.2969 112.45 38.8662 112.541 38.4697C112.632 38.0732 112.769 37.7246 112.951 37.4238C113.138 37.123 113.37 36.8883 113.648 36.7197C113.931 36.5511 114.257 36.4668 114.626 36.4668C114.726 36.4668 114.833 36.4759 114.947 36.4941C115.066 36.5124 115.155 36.5329 115.214 36.5557ZM115.754 40.3838V40.2266C115.754 39.6934 115.831 39.1989 115.986 38.7432C116.141 38.2829 116.365 37.8841 116.656 37.5469C116.952 37.2051 117.312 36.9408 117.736 36.7539C118.165 36.5625 118.648 36.4668 119.186 36.4668C119.728 36.4668 120.211 36.5625 120.635 36.7539C121.063 36.9408 121.425 37.2051 121.722 37.5469C122.018 37.8841 122.243 38.2829 122.398 38.7432C122.553 39.1989 122.631 39.6934 122.631 40.2266V40.3838C122.631 40.917 122.553 41.4115 122.398 41.8672C122.243 42.3229 122.018 42.7217 121.722 43.0635C121.425 43.4007 121.065 43.665 120.642 43.8564C120.218 44.0433 119.737 44.1367 119.199 44.1367C118.657 44.1367 118.172 44.0433 117.743 43.8564C117.319 43.665 116.959 43.4007 116.663 43.0635C116.367 42.7217 116.141 42.3229 115.986 41.8672C115.831 41.4115 115.754 40.917 115.754 40.3838ZM117.401 40.2266V40.3838C117.401 40.7165 117.436 41.0309 117.504 41.3271C117.572 41.6234 117.679 41.8831 117.825 42.1064C117.971 42.3298 118.158 42.5052 118.386 42.6328C118.614 42.7604 118.885 42.8242 119.199 42.8242C119.505 42.8242 119.769 42.7604 119.992 42.6328C120.22 42.5052 120.407 42.3298 120.553 42.1064C120.699 41.8831 120.806 41.6234 120.874 41.3271C120.947 41.0309 120.983 40.7165 120.983 40.3838V40.2266C120.983 39.8984 120.947 39.5885 120.874 39.2969C120.806 39.0007 120.696 38.7386 120.546 38.5107C120.4 38.2829 120.213 38.1051 119.985 37.9775C119.762 37.8454 119.495 37.7793 119.186 37.7793C118.876 37.7793 118.607 37.8454 118.379 37.9775C118.156 38.1051 117.971 38.2829 117.825 38.5107C117.679 38.7386 117.572 39.0007 117.504 39.2969C117.436 39.5885 117.401 39.8984 117.401 40.2266ZM124.019 33.5H125.666V42.4209L125.509 44H124.019V33.5ZM130.492 40.2334V40.377C130.492 40.9238 130.431 41.4274 130.308 41.8877C130.189 42.3434 130.007 42.7399 129.761 43.0771C129.519 43.4144 129.218 43.6764 128.858 43.8633C128.503 44.0456 128.09 44.1367 127.621 44.1367C127.161 44.1367 126.76 44.0501 126.418 43.877C126.076 43.7038 125.789 43.4577 125.557 43.1387C125.329 42.8197 125.144 42.4391 125.003 41.9971C124.862 41.555 124.761 41.0674 124.702 40.5342V40.0762C124.761 39.5384 124.862 39.0508 125.003 38.6133C125.144 38.1712 125.329 37.7907 125.557 37.4717C125.789 37.1481 126.074 36.8997 126.411 36.7266C126.753 36.5534 127.152 36.4668 127.607 36.4668C128.081 36.4668 128.498 36.5579 128.858 36.7402C129.223 36.9225 129.526 37.1823 129.768 37.5195C130.009 37.8522 130.189 38.2487 130.308 38.709C130.431 39.1693 130.492 39.6774 130.492 40.2334ZM128.845 40.377V40.2334C128.845 39.9007 128.817 39.5885 128.763 39.2969C128.708 39.0007 128.617 38.7409 128.489 38.5176C128.366 38.2943 128.198 38.1188 127.983 37.9912C127.774 37.859 127.512 37.793 127.197 37.793C126.906 37.793 126.655 37.8431 126.445 37.9434C126.236 38.0436 126.06 38.1803 125.919 38.3535C125.778 38.5267 125.666 38.7272 125.584 38.9551C125.507 39.1829 125.454 39.429 125.427 39.6934V40.9307C125.468 41.2725 125.554 41.5869 125.687 41.874C125.823 42.1566 126.015 42.3844 126.261 42.5576C126.507 42.7262 126.824 42.8105 127.211 42.8105C127.516 42.8105 127.774 42.749 127.983 42.626C128.193 42.5029 128.359 42.332 128.482 42.1133C128.61 41.89 128.701 41.6302 128.756 41.334C128.815 41.0378 128.845 40.7188 128.845 40.377ZM131.572 40.3838V40.2266C131.572 39.6934 131.65 39.1989 131.805 38.7432C131.96 38.2829 132.183 37.8841 132.475 37.5469C132.771 37.2051 133.131 36.9408 133.555 36.7539C133.983 36.5625 134.466 36.4668 135.004 36.4668C135.546 36.4668 136.029 36.5625 136.453 36.7539C136.882 36.9408 137.244 37.2051 137.54 37.5469C137.836 37.8841 138.062 38.2829 138.217 38.7432C138.372 39.1989 138.449 39.6934 138.449 40.2266V40.3838C138.449 40.917 138.372 41.4115 138.217 41.8672C138.062 42.3229 137.836 42.7217 137.54 43.0635C137.244 43.4007 136.884 43.665 136.46 43.8564C136.036 44.0433 135.555 44.1367 135.018 44.1367C134.475 44.1367 133.99 44.0433 133.562 43.8564C133.138 43.665 132.778 43.4007 132.481 43.0635C132.185 42.7217 131.96 42.3229 131.805 41.8672C131.65 41.4115 131.572 40.917 131.572 40.3838ZM133.22 40.2266V40.3838C133.22 40.7165 133.254 41.0309 133.322 41.3271C133.391 41.6234 133.498 41.8831 133.644 42.1064C133.789 42.3298 133.976 42.5052 134.204 42.6328C134.432 42.7604 134.703 42.8242 135.018 42.8242C135.323 42.8242 135.587 42.7604 135.811 42.6328C136.038 42.5052 136.225 42.3298 136.371 42.1064C136.517 41.8831 136.624 41.6234 136.692 41.3271C136.765 41.0309 136.802 40.7165 136.802 40.3838V40.2266C136.802 39.8984 136.765 39.5885 136.692 39.2969C136.624 39.0007 136.515 38.7386 136.364 38.5107C136.218 38.2829 136.032 38.1051 135.804 37.9775C135.58 37.8454 135.314 37.7793 135.004 37.7793C134.694 37.7793 134.425 37.8454 134.197 37.9775C133.974 38.1051 133.789 38.2829 133.644 38.5107C133.498 38.7386 133.391 39.0007 133.322 39.2969C133.254 39.5885 133.22 39.8984 133.22 40.2266ZM143.221 36.6035V37.8066H139.051V36.6035H143.221ZM140.254 34.792H141.901V41.9561C141.901 42.1839 141.933 42.3594 141.997 42.4824C142.065 42.6009 142.159 42.6807 142.277 42.7217C142.396 42.7627 142.535 42.7832 142.694 42.7832C142.808 42.7832 142.918 42.7764 143.022 42.7627C143.127 42.749 143.212 42.7354 143.275 42.7217L143.282 43.9795C143.146 44.0205 142.986 44.057 142.804 44.0889C142.626 44.1208 142.421 44.1367 142.188 44.1367C141.81 44.1367 141.475 44.0706 141.184 43.9385C140.892 43.8018 140.664 43.5807 140.5 43.2754C140.336 42.9701 140.254 42.5645 140.254 42.0586V34.792Z" fill="black"/>
<g clip-path="url(#clip0_483_7976)">
<path d="M282.306 26.2123C282.305 25.9875 282.3 25.7638 282.29 25.5412V12.8513L278.782 16.3595C275.91 12.8449 271.543 10.6001 266.65 10.6001C261.558 10.6001 257.035 13.0304 254.176 16.7941L259.926 22.605C260.49 21.5628 261.29 20.6676 262.256 19.9915C263.26 19.208 264.682 18.5675 266.65 18.5675C266.887 18.5675 267.071 18.5953 267.206 18.6476C269.644 18.84 271.757 20.1855 273.001 22.1384L268.931 26.2088C274.087 26.1886 279.911 26.1767 282.306 26.2114" fill="#1C3AA9"/>
<path d="M266.559 10.6006C266.334 10.6013 266.11 10.6065 265.887 10.6166H253.197L256.706 14.1249C253.191 16.9962 250.946 21.3642 250.946 26.2567C250.946 31.3482 253.377 35.8715 257.14 38.7309L262.951 32.9804C261.909 32.4169 261.014 31.6163 260.338 30.651C259.554 29.6471 258.914 28.2246 258.914 26.2569C258.914 26.0192 258.941 25.8357 258.994 25.7009C259.186 23.2629 260.532 21.1496 262.485 19.9052L266.555 23.9757C266.535 18.82 266.523 12.9956 266.558 10.601" fill="#4285F4"/>
<path d="M250.947 26.2563C250.948 26.4812 250.953 26.7049 250.963 26.9275V39.6174L254.471 36.1092C257.342 39.6238 261.71 41.8686 266.603 41.8686C271.694 41.8686 276.218 39.4383 279.077 35.6746L273.327 29.8637C272.763 30.9059 271.962 31.8011 270.997 32.4772C269.993 33.2606 268.571 33.9012 266.603 33.9012C266.365 33.9012 266.182 33.8734 266.047 33.8211C263.609 33.6287 261.496 32.2832 260.251 30.3303L264.322 26.2599C259.166 26.2801 253.342 26.292 250.947 26.2573" fill="#ABABAB"/>
<path d="M253.589 47.9317C253.207 47.9317 252.865 48.0041 252.563 48.1487C252.26 48.2901 252.004 48.4923 251.794 48.7553C251.586 49.0183 251.427 49.3372 251.315 49.7119C251.207 50.0834 251.152 50.4993 251.152 50.9595V52.2861C251.152 52.7496 251.207 53.1671 251.315 53.5386C251.427 53.9101 251.585 54.2274 251.789 54.4904C251.992 54.7534 252.239 54.9555 252.528 55.0969C252.818 55.2383 253.143 55.309 253.505 55.309C253.876 55.309 254.202 55.2547 254.481 55.1462C254.764 55.0378 255.001 54.8816 255.191 54.6778C255.382 54.4707 255.528 54.2208 255.63 53.9282C255.735 53.6356 255.798 53.3036 255.818 52.9321H254.905C254.882 53.2181 254.843 53.463 254.787 53.6668C254.731 53.8674 254.649 54.0334 254.54 54.1649C254.435 54.2931 254.297 54.3884 254.126 54.4509C253.958 54.5101 253.751 54.5397 253.505 54.5397C253.242 54.5397 253.018 54.4821 252.834 54.3671C252.65 54.2487 252.5 54.0876 252.385 53.8838C252.274 53.68 252.191 53.4416 252.139 53.1688C252.089 52.8959 252.065 52.6017 252.065 52.286V50.9497C252.065 50.6111 252.094 50.3036 252.154 50.0275C252.216 49.7513 252.31 49.5163 252.435 49.3223C252.56 49.1283 252.717 48.9787 252.908 48.8736C253.099 48.7651 253.326 48.7108 253.589 48.7108C253.809 48.7108 253.998 48.7437 254.156 48.8094C254.313 48.8719 254.445 48.9705 254.55 49.1053C254.655 49.2368 254.736 49.4045 254.792 49.6083C254.848 49.8121 254.885 50.0554 254.905 50.3381H255.818C255.801 49.9502 255.74 49.6067 255.635 49.3075C255.53 49.0083 255.384 48.7568 255.196 48.553C255.009 48.3492 254.78 48.1946 254.511 48.0894C254.244 47.9842 253.937 47.9316 253.589 47.9316L253.589 47.9317ZM275.859 47.9317C275.477 47.9317 275.135 48.0041 274.833 48.1487C274.53 48.2901 274.274 48.4923 274.064 48.7553C273.856 49.0183 273.697 49.3372 273.585 49.7119C273.477 50.0834 273.423 50.4993 273.423 50.9595V52.2861C273.423 52.7496 273.477 53.1671 273.585 53.5386C273.697 53.9101 273.855 54.2274 274.059 54.4904C274.263 54.7534 274.509 54.9555 274.798 55.0969C275.088 55.2383 275.413 55.309 275.775 55.309C276.146 55.309 276.472 55.2547 276.751 55.1462C277.034 55.0378 277.271 54.8816 277.461 54.6778C277.652 54.4707 277.798 54.2208 277.9 53.9282C278.005 53.6356 278.068 53.3036 278.088 52.9321H277.175C277.152 53.2181 277.113 53.463 277.057 53.6668C277.001 53.8674 276.919 54.0334 276.81 54.1649C276.705 54.2931 276.567 54.3884 276.396 54.4509C276.228 54.5101 276.021 54.5397 275.775 54.5397C275.512 54.5397 275.288 54.4821 275.104 54.3671C274.92 54.2487 274.77 54.0876 274.655 53.8838C274.544 53.68 274.461 53.4416 274.409 53.1688C274.36 52.8959 274.335 52.6017 274.335 52.286V50.9497C274.335 50.6111 274.364 50.3036 274.424 50.0275C274.486 49.7513 274.58 49.5163 274.705 49.3223C274.83 49.1283 274.987 48.9787 275.178 48.8736C275.369 48.7651 275.596 48.7108 275.859 48.7108C276.079 48.7108 276.268 48.7437 276.426 48.8094C276.584 48.8719 276.715 48.9705 276.82 49.1053C276.925 49.2368 277.006 49.4045 277.062 49.6083C277.118 49.8121 277.156 50.0554 277.175 50.3381H278.088C278.071 49.9502 278.01 49.6067 277.905 49.3075C277.8 49.0083 277.654 48.7568 277.466 48.553C277.279 48.3491 277.05 48.1946 276.781 48.0894C276.514 47.9842 276.207 47.9316 275.859 47.9316L275.859 47.9317ZM258.786 48.0304L256.474 55.2103H257.401L257.958 53.3364H260.384L260.951 55.2103H261.878L259.561 48.0304H258.786ZM262.855 48.0304V55.2103H263.757V52.3994H265.143C265.488 52.3994 265.794 52.3518 266.06 52.2564C266.326 52.1578 266.55 52.0164 266.731 51.8323C266.915 51.6482 267.053 51.4214 267.145 51.1518C267.24 50.8789 267.288 50.5699 267.288 50.2247C267.288 49.9058 267.24 49.6132 267.145 49.3469C267.053 49.0773 266.916 48.8456 266.736 48.6516C266.555 48.4543 266.33 48.3015 266.06 48.193C265.794 48.0845 265.488 48.0303 265.143 48.0303L262.855 48.0304ZM267.978 48.0304V48.8095H269.862V55.2103H270.764V48.8095H272.653V48.0304H267.978ZM279.306 48.0304V55.2103H280.208V51.8915H283.098V55.2103H284.005V48.0304H283.098V51.1174H280.208V48.0304H279.306ZM287.427 48.0304L285.115 55.2103H286.042L286.599 53.3364H289.025L289.592 55.2103H290.519L288.202 48.0304H287.427ZM263.757 48.8095H265.143C265.363 48.8095 265.55 48.8489 265.705 48.9279C265.863 49.0067 265.991 49.1119 266.09 49.2435C266.191 49.375 266.265 49.5278 266.311 49.7021C266.361 49.873 266.385 50.0505 266.385 50.2347C266.385 50.4385 266.361 50.6259 266.311 50.7968C266.265 50.9645 266.191 51.1108 266.09 51.2357C265.991 51.3573 265.863 51.4527 265.705 51.5217C265.55 51.5908 265.363 51.6253 265.143 51.6253H263.757V48.8095ZM259.171 49.2928L260.152 52.5573H258.195L259.171 49.2928ZM287.812 49.2928L288.793 52.5573H286.836L287.812 49.2928ZM245.334 49.7761C245.107 49.7761 244.912 49.8336 244.747 49.9487C244.586 50.0637 244.451 50.2199 244.343 50.4171L244.328 49.8747H243.48V55.2103H244.353V51.3934C244.435 51.1665 244.552 50.9874 244.703 50.8559C244.857 50.7244 245.053 50.6586 245.29 50.6586C245.365 50.6586 245.433 50.662 245.492 50.6685C245.551 50.6718 245.615 50.68 245.684 50.6931L245.679 49.8449C245.666 49.8383 245.645 49.8317 245.615 49.8252C245.589 49.8153 245.559 49.8071 245.527 49.8005C245.494 49.794 245.459 49.789 245.423 49.7857C245.39 49.7791 245.36 49.7759 245.334 49.7759L245.334 49.7761ZM248.268 49.7761C248.015 49.7761 247.77 49.8204 247.534 49.9092C247.297 49.998 247.086 50.1443 246.902 50.3481C246.722 50.5486 246.575 50.8116 246.463 51.1371C246.352 51.4593 246.296 51.8554 246.296 52.3256V52.9272C246.296 53.3348 246.343 53.6883 246.439 53.9874C246.534 54.2866 246.671 54.5348 246.848 54.7321C247.029 54.926 247.248 55.0707 247.504 55.166C247.76 55.2614 248.048 55.3091 248.367 55.3091C248.597 55.3091 248.803 55.286 248.983 55.24C249.167 55.194 249.33 55.1348 249.472 55.0625C249.613 54.9869 249.735 54.9014 249.836 54.8061C249.938 54.7107 250.026 54.6121 250.098 54.5102L249.644 53.9579C249.572 54.0466 249.495 54.1288 249.412 54.2044C249.33 54.2768 249.24 54.3409 249.141 54.3968C249.043 54.4494 248.934 54.4905 248.816 54.52C248.697 54.5496 248.564 54.5644 248.416 54.5644C248.012 54.5644 247.701 54.4346 247.484 54.1748C247.271 53.9151 247.164 53.4993 247.164 52.9272V52.8039H250.142V52.296C250.142 51.8884 250.108 51.5283 250.039 51.216C249.97 50.9037 249.86 50.6407 249.708 50.427C249.557 50.2133 249.363 50.0522 249.126 49.9437C248.89 49.832 248.604 49.7761 248.268 49.7761L248.268 49.7761ZM248.268 50.5256C248.459 50.5256 248.617 50.5601 248.742 50.6292C248.867 50.6982 248.965 50.7952 249.038 50.9201C249.113 51.0451 249.167 51.1947 249.2 51.3689C249.236 51.5398 249.26 51.7289 249.269 51.936V52.0543H247.169C247.182 51.7552 247.218 51.5069 247.277 51.3097C247.336 51.1124 247.414 50.9563 247.509 50.8412C247.608 50.7229 247.721 50.6407 247.849 50.5947C247.977 50.5486 248.117 50.5256 248.268 50.5256L248.268 50.5256Z" fill="#A6A6A6"/>
</g>
<path d="M241.98 64.8789H240.5V64.1016H241.98C242.238 64.1016 242.447 64.0599 242.605 63.9766C242.764 63.8932 242.88 63.7786 242.953 63.6328C243.029 63.4844 243.066 63.3151 243.066 63.125C243.066 62.9453 243.029 62.7773 242.953 62.6211C242.88 62.4622 242.764 62.3346 242.605 62.2383C242.447 62.1419 242.238 62.0938 241.98 62.0938H240.801V67H239.82V61.3125H241.98C242.421 61.3125 242.794 61.3906 243.102 61.5469C243.411 61.7005 243.647 61.9141 243.809 62.1875C243.97 62.4583 244.051 62.7682 244.051 63.1172C244.051 63.4844 243.97 63.7995 243.809 64.0625C243.647 64.3255 243.411 64.5273 243.102 64.668C242.794 64.8086 242.421 64.8789 241.98 64.8789ZM245.781 63.5781V67H244.84V62.7734H245.738L245.781 63.5781ZM247.074 62.7461L247.066 63.6211C247.009 63.6107 246.947 63.6029 246.879 63.5977C246.814 63.5924 246.749 63.5898 246.684 63.5898C246.522 63.5898 246.38 63.6133 246.258 63.6602C246.135 63.7044 246.033 63.7695 245.949 63.8555C245.868 63.9388 245.806 64.0404 245.762 64.1602C245.717 64.2799 245.691 64.4141 245.684 64.5625L245.469 64.5781C245.469 64.3125 245.495 64.0664 245.547 63.8398C245.599 63.6133 245.677 63.4141 245.781 63.2422C245.888 63.0703 246.021 62.9362 246.18 62.8398C246.341 62.7435 246.527 62.6953 246.738 62.6953C246.796 62.6953 246.857 62.7005 246.922 62.7109C246.99 62.7214 247.04 62.7331 247.074 62.7461ZM248.672 62.7734V67H247.727V62.7734H248.672ZM247.664 61.6641C247.664 61.5208 247.711 61.4023 247.805 61.3086C247.901 61.2122 248.034 61.1641 248.203 61.1641C248.37 61.1641 248.501 61.2122 248.598 61.3086C248.694 61.4023 248.742 61.5208 248.742 61.6641C248.742 61.8047 248.694 61.9219 248.598 62.0156C248.501 62.1094 248.37 62.1562 248.203 62.1562C248.034 62.1562 247.901 62.1094 247.805 62.0156C247.711 61.9219 247.664 61.8047 247.664 61.6641ZM251.078 66.2539L252.113 62.7734H253.09L251.621 67H251.012L251.078 66.2539ZM250.285 62.7734L251.34 66.2695L251.391 67H250.781L249.305 62.7734H250.285ZM255.992 66.1523V64.1367C255.992 63.9857 255.965 63.8555 255.91 63.7461C255.855 63.6367 255.772 63.5521 255.66 63.4922C255.551 63.4323 255.413 63.4023 255.246 63.4023C255.092 63.4023 254.96 63.4284 254.848 63.4805C254.736 63.5326 254.648 63.6029 254.586 63.6914C254.523 63.7799 254.492 63.8802 254.492 63.9922H253.555C253.555 63.8255 253.595 63.6641 253.676 63.5078C253.757 63.3516 253.874 63.2122 254.027 63.0898C254.181 62.9674 254.365 62.8711 254.578 62.8008C254.792 62.7305 255.031 62.6953 255.297 62.6953C255.615 62.6953 255.896 62.7487 256.141 62.8555C256.388 62.9622 256.582 63.1237 256.723 63.3398C256.866 63.5534 256.938 63.8216 256.938 64.1445V66.0234C256.938 66.2161 256.951 66.3893 256.977 66.543C257.005 66.694 257.046 66.8255 257.098 66.9375V67H256.133C256.089 66.8984 256.053 66.7695 256.027 66.6133C256.004 66.4544 255.992 66.3008 255.992 66.1523ZM256.129 64.4297L256.137 65.0117H255.461C255.286 65.0117 255.133 65.0286 255 65.0625C254.867 65.0938 254.757 65.1406 254.668 65.2031C254.579 65.2656 254.513 65.3411 254.469 65.4297C254.424 65.5182 254.402 65.6185 254.402 65.7305C254.402 65.8424 254.428 65.9453 254.48 66.0391C254.533 66.1302 254.608 66.2018 254.707 66.2539C254.809 66.306 254.931 66.332 255.074 66.332C255.267 66.332 255.435 66.293 255.578 66.2148C255.724 66.1341 255.839 66.0365 255.922 65.9219C256.005 65.8047 256.049 65.694 256.055 65.5898L256.359 66.0078C256.328 66.1146 256.275 66.2292 256.199 66.3516C256.124 66.474 256.025 66.5911 255.902 66.7031C255.783 66.8125 255.638 66.9023 255.469 66.9727C255.302 67.043 255.109 67.0781 254.891 67.0781C254.615 67.0781 254.368 67.0234 254.152 66.9141C253.936 66.8021 253.767 66.6523 253.645 66.4648C253.522 66.2747 253.461 66.0599 253.461 65.8203C253.461 65.5964 253.503 65.3984 253.586 65.2266C253.672 65.0521 253.797 64.9062 253.961 64.7891C254.128 64.6719 254.331 64.5833 254.57 64.5234C254.81 64.4609 255.083 64.4297 255.391 64.4297H256.129ZM259.648 66.3281C259.802 66.3281 259.94 66.2982 260.062 66.2383C260.188 66.1758 260.288 66.0898 260.363 65.9805C260.441 65.8711 260.484 65.7448 260.492 65.6016H261.379C261.374 65.875 261.293 66.1237 261.137 66.3477C260.98 66.5716 260.773 66.75 260.516 66.8828C260.258 67.013 259.973 67.0781 259.66 67.0781C259.337 67.0781 259.056 67.0234 258.816 66.9141C258.577 66.8021 258.378 66.6484 258.219 66.4531C258.06 66.2578 257.94 66.0326 257.859 65.7773C257.781 65.5221 257.742 65.2487 257.742 64.957V64.8203C257.742 64.5286 257.781 64.2552 257.859 64C257.94 63.7422 258.06 63.5156 258.219 63.3203C258.378 63.125 258.577 62.9727 258.816 62.8633C259.056 62.7513 259.336 62.6953 259.656 62.6953C259.995 62.6953 260.292 62.763 260.547 62.8984C260.802 63.0312 261.003 63.2174 261.148 63.457C261.297 63.694 261.374 63.9701 261.379 64.2852H260.492C260.484 64.1289 260.445 63.9883 260.375 63.8633C260.307 63.7357 260.211 63.6341 260.086 63.5586C259.964 63.4831 259.816 63.4453 259.645 63.4453C259.454 63.4453 259.297 63.4844 259.172 63.5625C259.047 63.638 258.949 63.7422 258.879 63.875C258.809 64.0052 258.758 64.1523 258.727 64.3164C258.698 64.4779 258.684 64.6458 258.684 64.8203V64.957C258.684 65.1315 258.698 65.3008 258.727 65.4648C258.755 65.6289 258.805 65.776 258.875 65.9062C258.948 66.0339 259.047 66.1367 259.172 66.2148C259.297 66.2904 259.456 66.3281 259.648 66.3281ZM263.328 66.5391L264.477 62.7734H265.484L263.789 67.6445C263.75 67.7487 263.699 67.862 263.637 67.9844C263.574 68.1068 263.492 68.2227 263.391 68.332C263.292 68.444 263.168 68.5339 263.02 68.6016C262.871 68.6719 262.691 68.707 262.48 68.707C262.397 68.707 262.316 68.6992 262.238 68.6836C262.163 68.6706 262.091 68.6562 262.023 68.6406L262.02 67.9219C262.046 67.9245 262.077 67.9271 262.113 67.9297C262.152 67.9323 262.184 67.9336 262.207 67.9336C262.363 67.9336 262.493 67.9141 262.598 67.875C262.702 67.8385 262.786 67.7786 262.852 67.6953C262.919 67.612 262.977 67.5 263.023 67.3594L263.328 66.5391ZM262.68 62.7734L263.684 65.9375L263.852 66.9297L263.199 67.0977L261.664 62.7734H262.68ZM269.91 64.1953V64.9453H267.844V64.1953H269.91ZM274.973 61.3125V67H274V61.3125H274.973ZM276.758 61.3125V62.0938H272.23V61.3125H276.758ZM278.902 67.0781C278.59 67.0781 278.307 67.0273 278.055 66.9258C277.805 66.8216 277.591 66.6771 277.414 66.4922C277.24 66.3073 277.105 66.0898 277.012 65.8398C276.918 65.5898 276.871 65.3203 276.871 65.0312V64.875C276.871 64.5443 276.919 64.2448 277.016 63.9766C277.112 63.7083 277.246 63.4792 277.418 63.2891C277.59 63.0964 277.793 62.9492 278.027 62.8477C278.262 62.7461 278.516 62.6953 278.789 62.6953C279.091 62.6953 279.355 62.7461 279.582 62.8477C279.809 62.9492 279.996 63.0924 280.145 63.2773C280.296 63.4596 280.408 63.6771 280.48 63.9297C280.556 64.1823 280.594 64.4609 280.594 64.7656V65.168H277.328V64.4922H279.664V64.418C279.659 64.2487 279.625 64.0898 279.562 63.9414C279.503 63.793 279.41 63.6732 279.285 63.582C279.16 63.4909 278.993 63.4453 278.785 63.4453C278.629 63.4453 278.49 63.4792 278.367 63.5469C278.247 63.612 278.147 63.707 278.066 63.832C277.986 63.957 277.923 64.1081 277.879 64.2852C277.837 64.4596 277.816 64.6562 277.816 64.875V65.0312C277.816 65.2161 277.841 65.388 277.891 65.5469C277.943 65.7031 278.018 65.8398 278.117 65.957C278.216 66.0742 278.336 66.1667 278.477 66.2344C278.617 66.2995 278.777 66.332 278.957 66.332C279.184 66.332 279.385 66.2865 279.562 66.1953C279.74 66.1042 279.893 65.9753 280.023 65.8086L280.52 66.2891C280.428 66.4219 280.31 66.5495 280.164 66.6719C280.018 66.7917 279.84 66.8893 279.629 66.9648C279.421 67.0404 279.178 67.0781 278.902 67.0781ZM282.273 63.5781V67H281.332V62.7734H282.23L282.273 63.5781ZM283.566 62.7461L283.559 63.6211C283.501 63.6107 283.439 63.6029 283.371 63.5977C283.306 63.5924 283.241 63.5898 283.176 63.5898C283.014 63.5898 282.872 63.6133 282.75 63.6602C282.628 63.7044 282.525 63.7695 282.441 63.8555C282.361 63.9388 282.298 64.0404 282.254 64.1602C282.21 64.2799 282.184 64.4141 282.176 64.5625L281.961 64.5781C281.961 64.3125 281.987 64.0664 282.039 63.8398C282.091 63.6133 282.169 63.4141 282.273 63.2422C282.38 63.0703 282.513 62.9362 282.672 62.8398C282.833 62.7435 283.02 62.6953 283.23 62.6953C283.288 62.6953 283.349 62.7005 283.414 62.7109C283.482 62.7214 283.533 62.7331 283.566 62.7461ZM285.098 63.6328V67H284.156V62.7734H285.043L285.098 63.6328ZM284.945 64.7305L284.625 64.7266C284.625 64.4349 284.661 64.1654 284.734 63.918C284.807 63.6706 284.914 63.4557 285.055 63.2734C285.195 63.0885 285.37 62.9466 285.578 62.8477C285.789 62.7461 286.033 62.6953 286.309 62.6953C286.501 62.6953 286.677 62.724 286.836 62.7812C286.997 62.8359 287.137 62.9232 287.254 63.043C287.374 63.1628 287.465 63.3164 287.527 63.5039C287.592 63.6914 287.625 63.918 287.625 64.1836V67H286.684V64.2656C286.684 64.0599 286.652 63.8984 286.59 63.7812C286.53 63.6641 286.443 63.5807 286.328 63.5312C286.216 63.4792 286.082 63.4531 285.926 63.4531C285.749 63.4531 285.598 63.487 285.473 63.5547C285.35 63.6224 285.25 63.7148 285.172 63.832C285.094 63.9492 285.036 64.0846 285 64.2383C284.964 64.3919 284.945 64.556 284.945 64.7305ZM287.566 64.4805L287.125 64.5781C287.125 64.3229 287.16 64.082 287.23 63.8555C287.303 63.6263 287.409 63.4258 287.547 63.2539C287.688 63.0794 287.861 62.9427 288.066 62.8438C288.272 62.7448 288.508 62.6953 288.773 62.6953C288.99 62.6953 289.182 62.7253 289.352 62.7852C289.523 62.8424 289.669 62.9336 289.789 63.0586C289.909 63.1836 290 63.3464 290.062 63.5469C290.125 63.7448 290.156 63.9844 290.156 64.2656V67H289.211V64.2617C289.211 64.0482 289.18 63.8828 289.117 63.7656C289.057 63.6484 288.971 63.5677 288.859 63.5234C288.747 63.4766 288.613 63.4531 288.457 63.4531C288.311 63.4531 288.182 63.4805 288.07 63.5352C287.961 63.5872 287.868 63.6615 287.793 63.7578C287.717 63.8516 287.66 63.9596 287.621 64.082C287.585 64.2044 287.566 64.3372 287.566 64.4805ZM293.496 65.8555C293.496 65.7617 293.473 65.6771 293.426 65.6016C293.379 65.5234 293.289 65.4531 293.156 65.3906C293.026 65.3281 292.833 65.2708 292.578 65.2188C292.354 65.1693 292.148 65.1107 291.961 65.043C291.776 64.9727 291.617 64.888 291.484 64.7891C291.352 64.6901 291.249 64.5729 291.176 64.4375C291.103 64.3021 291.066 64.1458 291.066 63.9688C291.066 63.7969 291.104 63.6341 291.18 63.4805C291.255 63.3268 291.363 63.1914 291.504 63.0742C291.645 62.957 291.815 62.8646 292.016 62.7969C292.219 62.7292 292.445 62.6953 292.695 62.6953C293.049 62.6953 293.353 62.7552 293.605 62.875C293.861 62.9922 294.056 63.1523 294.191 63.3555C294.327 63.556 294.395 63.7826 294.395 64.0352H293.453C293.453 63.9232 293.424 63.819 293.367 63.7227C293.312 63.6237 293.229 63.5443 293.117 63.4844C293.005 63.4219 292.865 63.3906 292.695 63.3906C292.534 63.3906 292.4 63.4167 292.293 63.4688C292.189 63.5182 292.111 63.5833 292.059 63.6641C292.009 63.7448 291.984 63.8333 291.984 63.9297C291.984 64 291.997 64.0638 292.023 64.1211C292.052 64.1758 292.099 64.2266 292.164 64.2734C292.229 64.3177 292.318 64.3594 292.43 64.3984C292.544 64.4375 292.688 64.4753 292.859 64.5117C293.182 64.5794 293.46 64.6667 293.691 64.7734C293.926 64.8776 294.105 65.013 294.23 65.1797C294.355 65.3438 294.418 65.5521 294.418 65.8047C294.418 65.9922 294.378 66.1641 294.297 66.3203C294.219 66.474 294.104 66.6081 293.953 66.7227C293.802 66.8346 293.621 66.9219 293.41 66.9844C293.202 67.0469 292.967 67.0781 292.707 67.0781C292.324 67.0781 292 67.0104 291.734 66.875C291.469 66.737 291.267 66.5612 291.129 66.3477C290.993 66.1315 290.926 65.9076 290.926 65.6758H291.836C291.846 65.8503 291.895 65.9896 291.98 66.0938C292.069 66.1953 292.178 66.2695 292.309 66.3164C292.441 66.3607 292.578 66.3828 292.719 66.3828C292.888 66.3828 293.03 66.3607 293.145 66.3164C293.259 66.2695 293.346 66.207 293.406 66.1289C293.466 66.0482 293.496 65.957 293.496 65.8555Z" fill="#A6A6A6"/>
<rect x="2.5" y="1.5" width="303" height="75" rx="2.5" stroke="#D6D6D6"/>
</g>
<defs>
<filter id="filter0_d_483_7976" x="0" y="0" width="308" height="80" filterUnits="userSpaceOnUse" color-interpolation-filters="sRGB">
<feFlood flood-opacity="0" result="BackgroundImageFix"/>
<feColorMatrix in="SourceAlpha" type="matrix" values="0 0 0 0 0 0 0 0 0 0 0 0 0 0 0 0 0 0 127 0" result="hardAlpha"/>
<feOffset dy="1"/>
<feGaussianBlur stdDeviation="1"/>
<feColorMatrix type="matrix" values="0 0 0 0 0 0 0 0 0 0 0 0 0 0 0 0 0 0 0.1 0"/>
<feBlend mode="normal" in2="BackgroundImageFix" result="effect1_dropShadow_483_7976"/>
<feBlend mode="normal" in="SourceGraphic" in2="effect1_dropShadow_483_7976" result="shape"/>
</filter>
<clipPath id="clip0_483_7976">
<rect width="48" height="46" fill="white" transform="translate(243 10)"/>
</clipPath>
</defs>
</svg>
