<svg width="923" height="823" viewBox="0 0 923 823" fill="none" xmlns="http://www.w3.org/2000/svg">
<path d="M204.052 634.338C195.291 627.362 187.426 619.943 179.736 611.667C161.792 592.355 147.705 570.794 136.099 547.149C131.232 537.306 126.743 527.361 121.876 517.518C121.775 517.139 121.535 517.001 120.917 516.964C121.562 518.615 121.967 520.128 122.751 521.539C132.844 545.59 144.348 568.856 159.708 589.873C169.435 603.482 180.573 616.307 193.437 627.25C196.619 630.046 200.077 632.363 203.397 634.919C203.775 634.817 203.914 634.578 204.052 634.338Z" fill="#FEEEF7"/>
<path d="M248.685 467.324C248.507 476.493 248.568 485.8 248.252 495.208C247.855 522.474 250.208 549.409 252.422 576.584C253.203 586.306 253.468 596.369 254.009 605.953C254.036 607.568 254.063 609.182 254.708 610.833C254.782 609.597 254.958 608.739 255.032 607.503C255.48 591.777 254.074 575.939 253.147 560.377C252.008 546.292 251.007 531.967 250.486 517.919C249.937 502.256 250.108 487.009 249.938 471.245C250.012 470.009 249.847 468.635 250.059 467.159C249.303 467.362 249.063 467.223 248.685 467.324Z" fill="#FEEEF7"/>
<path d="M158.086 499.1C167.086 537.225 186.067 570.244 211.451 599.926C187.719 569.599 169.254 536.239 158.086 499.1Z" fill="#FEEEF7"/>
<path d="M236.104 639.735C233.088 638.313 229.934 637.132 227.056 635.47C222.842 633.357 218.627 631.243 214.827 628.41C197.573 616.211 185.043 599.705 172.891 583.098C172.209 582.065 171.287 580.893 170.227 579.961C169.544 578.928 168.622 577.756 167.423 577.064C168.788 579.13 170.152 581.197 171.517 583.263C178.339 593.596 185.817 603.349 194.328 612.419C202.018 620.695 210.363 628.39 220.332 633.826C225.128 636.595 230.44 639.023 235.827 640.214C235.688 640.454 235.965 639.975 236.104 639.735Z" fill="#FEEEF7"/>
<path d="M289.298 555.353C288.845 556.69 288.531 557.788 288.319 559.263C285.861 571.272 283.782 583.18 279.609 594.837C277.975 599.329 276.101 603.682 273.987 607.897C271.458 612.831 268.69 617.626 265.681 622.283C264.02 625.161 262.018 627.522 260.117 630.26C262.386 629.652 263.632 627.494 264.841 625.954C273.856 614.215 279.994 600.815 283.596 586.27C286.044 576.493 287.735 566.919 289.564 557.105C289.602 556.487 289.639 555.869 289.537 555.491C289.537 555.491 289.537 555.491 289.298 555.353Z" fill="#FEEEF7"/>
<path d="M122.417 558.113C111.676 540.722 98.8693 524.696 90.4354 506.079C90.0572 506.18 89.9187 506.42 89.5405 506.521C89.7432 507.278 89.5677 508.136 89.7703 508.892C91.3004 512.333 92.5907 515.636 94.3977 518.597C102.271 532.094 111.177 544.909 121.116 557.042C121.458 557.559 121.937 557.836 122.417 558.113Z" fill="#FEEEF7"/>
<path d="M346.515 492.796C334.252 509.053 324.385 526.696 315.34 545.132C313.226 549.346 311.592 553.838 309.857 557.951C310.097 558.09 310.337 558.228 310.576 558.366C310.992 557.647 311.647 557.066 312.062 556.347C314.766 550.555 317.231 544.625 320.037 539.211C322.428 534.517 324.578 529.684 327.347 524.889C333.161 514.818 339.215 504.886 345.408 494.714C345.685 494.234 346.1 493.515 346.515 492.796Z" fill="#FEEEF7"/>
<path d="M215.543 467.692C215.229 468.789 214.915 469.887 214.841 471.123C214.922 475.966 215.142 480.568 215.224 485.411C215.315 488.021 215.268 490.872 215.978 493.519C217.792 502.559 219.984 511.498 222.933 520.234C219.507 502.91 216.082 485.587 216.539 467.628C216.539 467.628 215.921 467.591 215.543 467.692Z" fill="#FEEEF7"/>
<path d="M171.525 442.598C171.866 443.114 172.069 443.871 172.41 444.388C178.587 453.069 181.84 462.94 185.093 472.811C187.093 478.761 188.576 485.052 190.677 491.38C190.613 490.384 190.41 489.628 190.346 488.632C188.514 475.745 184.792 463.365 179.04 451.732C177.611 448.669 175.666 445.947 173.72 443.226C173.379 442.709 172.521 442.534 172.18 442.017C171.802 442.118 171.664 442.358 171.525 442.598Z" fill="#FEEEF7"/>
<path d="M277.612 464.843C279.995 454.07 275.764 417.099 271.901 413.27L271.522 413.372L271.384 413.611C271.245 413.851 271.107 414.091 271.347 414.229C275.326 430.594 276.419 447.529 277.612 464.843Z" fill="#FEEEF7"/>
<path d="M185.419 607.914C187.263 610.258 189.107 612.601 191.329 614.843C197.037 621.016 202.883 626.949 209.661 631.821C215.379 635.762 221.235 639.463 227.958 641.107C228.576 641.144 228.955 641.042 229.711 640.84C211.228 634.644 198.374 621.468 185.419 607.914Z" fill="#FEEEF7"/>
<path d="M280.714 570.219C281.342 568.024 282.588 565.866 282.976 563.532C284.151 554.3 285.464 544.827 286.02 535.557C286.641 527.283 286.404 518.834 286.785 510.422C286.859 509.186 286.555 508.051 286.011 506.778C286.028 510.625 285.907 514.711 285.924 518.557C285.439 534.902 284.097 551.071 281.14 567.267C280.964 568.125 281.028 569.121 280.714 570.219Z" fill="#FEEEF7"/>
<path d="M320.697 522.009C328.865 507.862 336.618 494.434 344.508 480.767C342.479 481.513 341.648 482.952 340.818 484.391C335.834 493.023 330.611 501.516 325.867 510.287C323.928 513.644 322.571 517.656 320.697 522.009Z" fill="#FEEEF7"/>
<path d="M161.403 540.977C153.06 524.971 146.369 508.32 141.329 491.023C145.335 509.002 151.648 525.755 161.403 540.977Z" fill="#FEEEF7"/>
<path d="M254.709 495.1C255.166 477.141 255.762 458.942 256.22 440.983C255.98 440.845 255.602 440.946 255.362 440.808C255.288 442.044 254.974 443.141 254.9 444.377C254.546 454.404 254.571 464.329 254.217 474.355C254.049 481.291 253.881 488.228 253.952 495.302C254.33 495.201 254.469 494.961 254.709 495.1Z" fill="#FEEEF7"/>
<path d="M124.87 500.703C122.789 489.91 120.809 479.496 118.728 468.703C116.837 469.21 117.141 470.345 117.343 471.101C118.08 475.363 118.715 479.246 119.452 483.508C120.833 489.421 122.354 495.094 123.874 500.767C124.113 500.906 124.492 500.804 124.87 500.703Z" fill="#FEEEF7"/>
<path d="M177.228 465.392C175.754 456.869 168.057 442.514 164.663 441.194C168.645 449.247 172.766 457.061 177.228 465.392Z" fill="#FEEEF7"/>
<path d="M201.875 575.534C193.918 565.505 187.751 554.591 181.344 543.539C186.616 554.895 192.885 566.188 201.875 575.534Z" fill="#FEEEF7"/>
<path d="M270.184 443.93C270.842 435.038 270.125 426.312 268.034 417.752C266.991 420.666 267.94 423.452 268.271 426.201C268.464 429.19 268.897 432.317 269.329 435.444C269.66 438.193 269.991 440.941 270.184 443.93Z" fill="#FEEEF7"/>
<path d="M294.841 413.407C295.249 406.609 295.039 399.774 293.214 392.966C292.458 393.168 292.458 393.168 292.458 393.168L292.32 393.408C293.148 400.28 294.114 406.913 294.841 413.407Z" fill="#FEEEF7"/>
<path d="M137.878 463.774C136.801 458.996 135.862 453.978 134.581 448.443C133.197 450.841 133.197 450.841 134.957 456.653C135.805 459.06 136.652 461.468 137.362 464.116C137.5 463.876 137.639 463.636 137.878 463.774Z" fill="#FEEEF7"/>
<path d="M85.6469 509.389C87.3054 514.823 89.9603 520.192 93.7868 524.639C91.3718 519.408 88.9567 514.177 86.302 508.808C86.1635 509.048 86.0251 509.288 85.6469 509.389Z" fill="#FEEEF7"/>
<path d="M280.714 570.219C279.847 572.276 279.117 574.093 278.49 576.288C277.095 580.918 275.941 585.686 275.164 590.353C277.666 583.805 279.928 577.118 280.714 570.219Z" fill="#FEEEF7"/>
<path d="M251.489 755.4C252.698 753.86 252.154 752.586 251.61 751.313C243.416 732.835 241.476 713.492 242.423 693.578C242.898 679.465 243.991 665.39 244.844 651.176C245.131 648.464 245.039 645.854 245.086 643.003C245.161 641.767 244.995 640.393 242.8 639.765C242.891 642.375 243.121 644.746 242.871 646.84C242.251 655.114 241.63 663.387 241.01 671.661C240.443 683.163 239.877 694.665 240.067 705.965C240.099 721.968 243.018 737.401 249.58 752.06C250.023 752.955 250.226 753.711 250.668 754.606C250.908 754.744 251.148 754.883 251.489 755.4Z" fill="#FEEEF7"/>
<path d="M202.063 448.4C202.019 442.94 200.361 437.506 199.698 432.009C204.291 434.021 205.96 437.222 206.558 441.724C207.257 446.603 208.095 451.243 209.034 456.261C209.338 457.396 209.781 458.291 210.325 459.564C211.635 458.402 210.953 457.369 210.888 456.373C210.013 452.351 209.138 448.329 208.263 444.307C207.959 443.172 207.794 441.798 207.628 440.423C208.006 440.322 208.006 440.322 208.385 440.221C209.648 441.909 211.049 443.358 211.934 445.147C214.285 449.382 216.258 453.718 218.47 458.192C218.912 459.087 219.733 459.881 220.415 460.914C220.793 460.813 220.932 460.573 221.31 460.471C221.107 459.715 221.283 458.857 221.08 458.101C219.753 455.416 218.425 452.732 216.96 450.287C214.231 446.154 211.363 442.26 208.496 438.367C207.814 437.333 207.51 436.199 207.206 435.064C206.939 433.311 207.05 431.457 207.161 429.603C207.782 421.33 206.788 413.083 205.795 404.837C205.095 399.957 205.152 394.875 204.831 389.893C205.486 389.313 206.381 388.87 206.898 388.529C207.175 388.049 207.313 387.81 207.451 387.57C207.664 386.094 207.978 384.997 208.191 383.521C208.433 375.348 210.151 367.389 212.727 359.604C213.494 357.17 214.02 354.596 214.307 351.884C214.972 349.071 214.124 346.664 212.797 343.979C210.787 340.261 207.836 339.836 204.699 342.501C201.562 345.165 200.103 348.799 199.263 352.47C197.693 357.958 196.981 363.621 197.883 369.257C198.785 374.893 200.582 380.087 202.102 385.76C202.507 387.273 203.153 388.924 203.318 390.299C203.454 398.37 204.208 406.478 205.478 414.245C206.684 421.016 206.276 427.814 206.449 435.267C203.646 432.37 201.424 430.127 199.34 427.645C198.519 426.852 198.593 425.616 198.289 424.481C195.756 415.026 193.222 405.571 190.31 396.216C188.145 388.892 185.463 381.909 182.781 374.925C182.579 374.169 182.237 373.652 182.035 372.896C184.517 370.812 185.182 367.999 184.611 365.111C183.212 355.352 182.053 345.731 177.628 336.782C176.199 333.719 174.014 330.859 172.207 327.898C170.944 326.209 169.404 325.001 167.449 324.511C164.94 324.981 164.589 326.696 164.616 328.311C164.707 330.921 164.799 333.531 165.646 335.939C168.558 345.293 171.47 354.647 174.622 364.14C175.469 366.547 177.452 368.651 178.918 371.096C179.259 371.613 179.6 372.129 179.701 372.507C181.258 377.563 183.056 382.756 184.751 387.572C185.396 389.223 185.903 391.114 186.548 392.765C190.696 402.194 193.192 412.267 195.689 422.341C195.79 422.719 195.652 422.959 195.476 423.816C187.472 416.637 182.19 407.513 175.459 399.791C175.793 394.229 173.719 389.515 170.75 385.243C168.703 382.143 166.038 379.006 163.614 376.007C161.53 373.526 159.446 371.044 157.224 368.801C155.342 367.076 152.945 365.692 150.648 364.685C147.872 363.402 145.88 363.531 144.016 365.652C142.29 367.533 142.041 369.627 143.746 372.21C145.996 376.066 149.795 378.899 153.216 381.834C157.255 384.805 161.156 388.016 164.679 391.329C166.32 392.916 167.546 395.222 168.91 397.289C164.575 399.261 163.984 400.838 165.615 404.658C166.601 406.826 167.588 408.994 168.952 411.06C173.285 417.399 178.237 423.774 184.397 428.609C185.937 429.818 187.477 431.027 189.294 431.756C191.111 432.485 192.272 433.796 192.917 435.447C194.346 438.51 195.535 441.434 196.964 444.497C197.508 445.77 198.43 446.942 199.352 448.113C198.966 442.136 196.173 437.007 193.62 432.016C193.528 429.405 193.16 427.275 193.17 425.042C195.946 426.325 197.55 428.53 197.983 431.657C198.581 436.159 199.317 440.421 200.294 444.821C200.598 445.955 200.902 447.09 201.206 448.225C201.307 448.603 201.685 448.502 202.063 448.4ZM209.227 343.517C210.97 345.482 211.071 345.86 211.578 347.751C212.693 351.912 211.852 355.583 210.394 359.216C207.578 366.862 205.86 374.822 205.617 382.994C205.442 383.852 205.266 384.71 204.952 385.807C204.371 385.152 204.03 384.636 203.929 384.257C202.547 378.344 200.649 372.772 199.885 366.896C199.388 362.773 200.404 358.245 201.144 354.195C201.809 351.382 203.47 348.505 204.753 345.729C205.685 344.669 207.134 343.267 209.227 343.517ZM180.431 370.691C179.066 368.624 177.904 367.314 177.259 365.662C172.807 355.1 169.73 344.371 166.929 333.163C166.625 332.028 166.46 330.654 166.534 329.418C166.571 328.8 166.747 327.942 167.199 326.605C168.499 327.675 169.32 328.469 169.901 329.124C173.727 333.571 176.142 338.802 177.663 344.475C179.284 350.527 180.527 356.679 181.771 362.832C182.24 365.341 182.47 367.712 180.431 370.691ZM167.037 401.642C169.546 401.172 170.606 402.104 171.906 403.175C179.708 409.597 185.443 417.384 189.867 426.333C190.549 427.366 190.715 428.74 191.12 430.253C186.693 429.615 184.231 427.235 174.052 414.964C170.945 410.932 167.837 406.9 167.037 401.642ZM172.646 399.126C172.267 399.227 172.028 399.089 171.889 399.328C171.649 399.19 171.548 398.812 171.308 398.673C168.248 391.791 162.844 386.753 156.647 382.536C152.949 380.081 149.906 377.045 146.624 373.871C145.222 372.423 144.097 370.494 144.587 368.539C145.897 367.377 147.234 367.83 148.572 368.282C152.685 370.018 155.866 372.813 158.909 375.849C164.036 381.367 168.923 386.746 171.467 393.969C172.112 395.62 172.379 397.373 172.646 399.126Z" fill="#FEEEF7"/>
<path d="M309.406 497.266C309.868 493.697 310.192 490.367 310.655 486.798C312.393 474.373 314.131 461.949 315.629 449.387C315.916 446.675 316.341 443.724 316.388 440.873C316.982 430.985 316.339 421.023 314.802 411.504C313.964 406.864 312.508 402.187 310.019 398.192C305.52 390.479 298.695 388.457 290.641 392.439C285.272 395.094 281.544 399.336 277.678 403.817C275.399 406.658 273.221 409.876 270.702 412.578C266.734 416.681 262.287 420.508 257.157 423.301C252.784 425.892 248.31 428.104 244.076 430.455C236.123 434.815 230.153 441.279 225.004 448.537C221.063 454.254 217.944 460.766 215.543 467.692C214.861 466.659 214.658 465.902 214.317 465.386C213.912 463.873 213.128 462.461 212.723 460.948C208.862 448.808 194.502 442.116 184.881 443.276C180.38 443.874 175.99 442.618 171.599 441.362C156.889 436.385 143.928 439.453 132.312 449.051C127.348 453.219 122.827 458.281 119.504 464.036C114.835 471.571 110.026 479.345 104.877 486.603C99.5894 494.1 93.4439 501.422 86.5148 507.332C82.206 510.919 77.5932 513.371 72.7407 515.685C69.6779 517.113 66.8549 518.681 64.1332 520.626C60.5166 523.014 58.4401 526.61 57.9406 530.798C57.3027 535.225 59.1739 539.183 62.2168 542.219C66.2831 546.804 71.6967 549.61 77.1103 552.416C84.2023 556.191 91.4328 559.726 98.248 563.98C106.022 568.789 113.28 573.938 120.916 578.986C122.594 579.955 123.996 581.403 126.255 583.028C123.064 582.464 120.629 581.698 118.157 581.549C110.022 580.689 102.393 581.719 94.893 584.742C88.5276 587.461 82.0608 589.802 75.6954 592.521C69.4684 595.001 64.9842 599.445 62.0028 605.716C61.3106 606.915 61.3378 608.53 61.0238 609.627C62.3883 611.694 64.1038 612.045 65.7551 611.4C67.4064 610.754 69.0577 610.109 70.709 609.464C96.9543 600 123.16 599.464 149.353 609.471C161.49 613.921 173.212 619.09 184.343 625.836C196.535 633.514 209.354 638.998 223.318 641.945C231.518 643.801 237.678 648.637 240.009 657.335C240.414 658.848 240.34 660.084 240.745 661.597C241.445 666.477 242.523 671.255 243.6 676.034C244.025 673.082 244.451 670.131 244.876 667.179C245.902 660.418 248.026 653.971 251.247 647.838C255.575 639.787 261.306 633.185 267.755 626.997C276.963 618.247 285.111 608.564 291.479 597.534C297.017 587.943 301.595 577.798 306.413 567.792C309.533 561.281 313.271 554.807 317.451 549.228C325.119 539.268 333.507 529.724 341.037 520.004C346.011 513.605 350.984 507.205 355.58 500.906C360.729 493.649 366.118 486.529 371.166 478.894C375.144 472.558 378.78 465.706 382.278 459.093C383.838 455.838 385.297 452.204 386.377 448.672C388.187 443.322 387.524 437.824 385.248 432.354C382.971 426.883 377.207 425.793 372.898 429.38C367.556 433.649 362.315 438.296 357.895 443.737C354.029 448.218 349.342 451.906 344.554 455.216C338.215 459.55 331.978 464.261 327.042 470.043C319.863 478.047 314.261 486.642 310.919 496.861C310.642 497.341 310.365 497.82 310.088 498.3C309.886 497.543 309.646 497.405 309.406 497.266ZM238.862 637.171C236.998 639.292 234.729 639.9 232.257 639.752C230.025 639.742 227.931 639.492 225.837 639.243C213.792 637.403 202.613 633.507 192.063 627.416C185.589 623.678 179.392 619.461 173.195 615.244C166.177 610.233 159.058 604.844 152.178 599.593C141.739 591.648 131.439 583.463 120.861 575.757C111.483 568.744 101.929 562.589 91.7196 557.014C84.3878 553.101 76.8162 549.049 69.6228 544.896C67.2251 543.512 65.0028 541.27 63.0204 539.166C58.5116 533.685 59.1594 527.026 64.8796 522.655C67.7398 520.47 70.941 518.802 74.382 517.272C79.373 514.718 84.364 512.165 88.433 508.44C94.707 503.11 99.7821 497.089 104.516 490.55C110.044 483.191 114.852 475.417 119.42 467.504C123.573 460.311 128.925 453.81 135.54 448.997C146.049 441.317 157.358 438.895 170.012 443.003C175.601 444.951 181.265 445.663 187.343 445.656C197.029 445.493 204.701 449.923 209.265 458.632C210.592 461.317 211.541 464.103 212.49 466.889C213.781 470.191 213.595 473.281 211.417 476.5C204.367 486.496 201.808 498.127 200.725 509.97C200.28 517.386 201.071 524.876 202.618 532.163C205.51 545.982 209.776 559.635 215.454 572.504C221.031 584.995 226.847 597.624 232.045 610.217C234.423 616.066 236.423 622.016 238.284 628.206C239.095 631.231 239.906 634.257 238.862 637.171ZM279.411 608.47C275.359 616.042 267.664 624.387 257.949 631.247C257.294 631.827 256.777 632.169 256.122 632.749C252.782 634.658 249.682 636.705 246.38 637.995C243.833 639.082 242.533 638.012 242.202 635.263C241.871 632.514 241.438 629.387 241.864 626.436C242.697 616.686 243.77 607.075 244.843 597.464C245.805 589.707 245.291 581.737 243.642 574.072C241.257 562.144 235.809 551.646 228.055 542.373C221.462 534.411 215.248 526.347 210.343 517.122C206.564 509.824 205.773 502.334 206.495 494.439C206.431 493.442 206.985 492.483 207.299 491.386C208.905 485.28 212.191 480.143 215.236 474.868C216.482 472.71 217.59 470.792 218.596 468.495C221.273 461.089 224.43 453.96 229.266 447.8C234.101 441.64 239.379 436.375 246.436 432.457C250.671 430.106 254.905 427.756 259.38 425.543C265.404 422.308 270.847 418.417 274.788 412.699C276.827 409.72 279.245 406.64 281.764 403.939C284.975 400.038 288.528 396.654 293.002 394.442C299.783 391.003 305.27 392.573 308.709 399.354C310.718 403.072 312.211 407.131 313.188 411.531C315.103 420.949 315.884 430.671 315.051 440.421C314.727 443.751 314.643 447.219 314.079 450.41C311.406 472.206 308.355 494.102 305.443 515.759C303.344 532.131 301.863 548.54 297.43 564.524C292.491 578.616 288.169 592.746 279.411 608.47ZM286.728 600.226C288.778 595.015 291.168 590.321 292.562 585.691C296.154 573.378 299.746 561.066 302.96 548.854C304.078 544.704 304.716 540.276 305.593 535.987C307.413 528.406 308.993 520.686 313.247 513.871C317.225 507.535 322.263 502.132 327.882 497.383C335.327 491.132 342.192 484.225 348.476 476.663C350.617 474.063 352.656 471.084 354.456 467.967C357.816 461.594 360.557 455.185 363.437 448.535C365.45 443.942 368.043 440.004 371.254 436.104C373.533 433.263 376.052 430.562 379.355 429.271C381.891 430.416 382.371 430.693 383.357 432.861C385.329 437.197 386.167 441.836 384.773 446.466C383.932 450.137 382.474 453.771 380.775 457.266C375.542 467.992 368.971 478.266 362.059 488.022C357.98 493.98 353.422 499.66 349.103 505.479C343.714 512.598 338.085 519.579 332.457 526.56C326.966 533.301 321.374 539.664 316.124 546.543C308.972 556.161 304.117 566.786 299.262 577.41C295.588 584.88 291.776 592.591 286.728 600.226ZM239.172 621.685C236.25 614.563 233.291 608.059 230.471 601.315C223.945 586.038 216.386 571.443 211.134 555.623C208.424 547.025 206.333 538.465 204.381 529.664C203.137 523.511 202.411 517.018 202.782 510.838C202.718 509.841 203.133 509.122 203.069 508.126C206.524 518.753 212.563 527.674 219.119 536.255C221.304 539.115 223.627 541.735 225.951 544.356C230.46 549.836 234.452 555.658 237.032 562.263C240.903 572.171 242.265 582.548 241.773 592.814C241.078 602.324 240.143 611.695 239.172 621.685ZM368.718 434.959C368.957 435.097 369.197 435.236 369.437 435.374C368.367 436.675 367.158 438.215 366.327 439.653C362.691 446.506 359.054 453.358 355.556 459.97C355.279 460.45 355.381 460.828 355.104 461.308C351.569 468.538 347.693 475.252 341.898 480.858C336.62 486.123 331.001 490.872 325.622 495.759C318.933 501.808 313.203 508.41 309.492 516.498C308.661 517.937 308.071 519.514 307.48 521.091C307.425 517.863 307.989 514.672 308.793 511.619C311.888 495.183 318.958 480.722 330.962 468.79C335.585 464.105 341.028 460.215 346.094 456.425C351.814 452.055 357.294 447.546 361.954 442.244C363.717 439.745 366.337 437.421 368.718 434.959ZM158.623 610.027L158.484 610.267C156.667 609.538 154.712 609.048 153.135 608.457C144.77 605.226 136.128 602.475 127.033 601.061C106.511 597.844 86.5126 600.365 67.0753 608.006C65.8022 608.549 64.4278 608.715 62.3982 609.462C63.1275 607.645 63.2017 606.409 63.8939 605.21C67.2535 598.837 72.6968 594.946 79.5047 593.122C94.3565 589.548 108.986 589.682 123.355 594.142C130.42 596.302 137.309 599.321 144.199 602.339C149.271 604.628 153.689 607.498 158.623 610.027ZM154.492 604.445C154.354 604.685 154.215 604.925 154.077 605.165C144.347 599.867 134.719 594.948 124.223 592.085C113.487 589.084 102.64 587.936 90.7869 589.086C91.5804 588.265 91.7189 588.025 91.8573 587.785C102.079 582.817 112.696 581.594 123.949 584.254C127.859 585.233 131.632 586.451 134.712 588.869C141.213 594.221 147.852 599.333 154.492 604.445Z" fill="#FEEEF7"/>
<path d="M317.982 761.499C319.053 760.199 320.363 759.037 320.815 757.7C325.745 745.839 333.072 735.363 341.46 725.819C347.983 718.396 354.608 711.351 362.395 705.616C365.772 703.09 369.149 700.564 372.627 698.416C382.683 692.073 392.942 686.486 403.782 681.555C410.941 678.015 418.34 674.614 425.498 671.074C437.27 665.082 448.738 657.956 459.385 650.036C461.212 648.533 463.38 647.547 465.446 646.182C465.686 646.321 465.787 646.699 465.787 646.699C463.407 649.161 461.404 651.522 459.024 653.984C441.566 672.039 422.062 686.994 400.916 700.362C399.366 701.385 397.918 702.787 396.128 703.672C394.2 704.796 391.792 705.644 389.624 706.63C375.029 714.189 361.698 723.437 349.971 734.889C348.383 736.53 346.658 738.412 345.071 740.053C344.277 740.874 343.862 741.593 343.649 743.069C344.821 742.147 346.094 741.603 347.026 740.543C358.689 728.094 372.159 718.607 387.169 710.328C389.993 708.761 393.018 707.951 395.601 706.245C419.57 691.31 442.276 674.686 461.773 653.652C462.566 652.832 463.221 652.251 464.015 651.43C464.015 651.43 464.393 651.329 464.771 651.228C463.174 655.101 460.517 658.043 458.238 660.883C444.701 677.685 428.941 692.244 413.523 707.321C401.002 719.594 387.218 730.178 373.195 740.625C372.023 741.547 370.372 742.192 368.443 743.317C369.642 744.009 370.5 744.184 371.219 744.6C383.933 735.315 396.508 726.27 407.82 715.537C423.718 700.738 439.274 685.422 453.771 669.174C460.294 661.751 466.237 653.672 471.221 645.04C471.775 644.081 472.227 642.744 472.642 642.025C471.176 639.58 469.626 640.603 468.215 641.387C464.737 643.535 461.019 645.544 457.642 648.071C442.963 659.098 426.819 667.68 410.333 675.746C401.384 680.171 391.956 684.318 383.247 688.881C364.934 698.45 349.627 711.672 336.746 727.893C332.187 733.574 327.97 739.771 324.131 745.867C321.5 750.422 319.589 755.394 317.199 760.088C317.263 761.084 317.743 761.361 317.982 761.499Z" fill="#FEEEF7"/>
<path d="M747.988 144.095C744.921 149.473 741.676 155.063 738.61 160.441C735.686 165.217 731.949 169.671 729.45 174.803C724.952 184.04 718.155 191.71 711.782 199.735C708.435 204.155 704.91 208.787 701.35 213.029C700.282 214.302 699.003 215.396 697.298 216.135C697.442 215.533 697.586 214.93 697.942 214.506C700.79 211.113 703.459 207.931 706.095 204.36C708.052 202.027 710.01 199.694 711.119 196.649C711.729 194.63 713.755 193.077 715.178 191.38C722.119 183.109 728.212 174.125 734.092 164.963C738.583 157.889 743.251 150.602 747.742 143.527C747.776 143.917 747.776 143.917 747.988 144.095Z" fill="#FEEEF7"/>
<path d="M613 205.037C609.394 202.011 606.145 198.561 603.819 194.441C596.596 181.513 593.417 167.641 591.764 153.243C591.354 148.562 591.547 144.025 591.528 139.31C591.835 142.821 592.532 146.297 592.839 149.808C594.033 163.46 596.966 176.764 602.773 189.227C602.985 189.405 603.197 189.582 603.868 190.506C602.473 183.553 600.969 177.593 599.643 171.42C600.033 171.386 600.211 171.174 600.423 171.352C601.333 175.006 602.276 179.051 603.185 182.705C604.307 186.538 605.64 190.548 607.152 194.346C609.053 198.11 611.133 201.662 613 205.037Z" fill="#FEEEF7"/>
<path d="M643.877 142.395C641.836 148.272 639.974 153.938 638.111 159.604C632.379 177.203 630.192 194.885 632.399 213.362C632.672 216.483 633.547 219.747 633.998 222.656C634.066 223.436 634.346 224.394 634.237 225.386C632.964 224.318 632.827 222.758 632.301 221.232C630.304 214.135 629.868 206.902 629.822 199.634C629.676 179.994 634.737 161.471 642.987 143.455C642.953 143.065 643.343 143.031 643.877 142.395Z" fill="#FEEEF7"/>
<path d="M678.236 265.559C694.145 267.704 708.661 262.897 722.93 257.521C735.317 253.097 747.144 246.756 758.088 239.313C758.443 238.889 758.834 238.855 759.224 238.82C752.968 243.691 746.466 247.994 739.506 251.551C725.585 258.665 711.104 263.862 695.637 266.788C689.821 267.689 683.723 267.633 678.236 265.559Z" fill="#FEEEF7"/>
<path d="M751.711 175.41C757.091 167.275 763.506 157.477 769.742 147.891C775.766 138.127 780.34 127.508 785.303 116.854C785.452 125.292 764.695 162.089 751.711 175.41Z" fill="#FEEEF7"/>
<path d="M697.481 256.407C697.871 256.373 698.049 256.161 698.439 256.127C717.559 252.292 734.922 244.091 751.088 233.44C761.676 226.421 771.628 218.869 781.121 210.57C781.655 209.934 782.223 209.688 783.181 209.407C780.622 211.596 778.452 213.751 775.892 215.941C762.915 227.099 748.809 236.587 733.608 244.796C722.884 250.254 711.455 254.398 699.677 256.804C698.897 256.873 698.329 257.119 697.727 256.975C697.905 256.763 697.905 256.763 697.481 256.407Z" fill="#FEEEF7"/>
<path d="M693.023 117.853C692.236 120.083 691.873 122.67 690.873 124.723C687.087 133.111 683.088 141.322 679.09 149.533C675.414 156.93 671.347 164.36 667.459 171.579C675.285 153.207 685.375 136.012 691.997 117.353C692.421 117.709 692.633 117.887 693.023 117.853Z" fill="#FEEEF7"/>
<path d="M684.906 211.52C680.628 218.773 674.331 225.416 668.636 232.203C665.076 236.445 661.271 240.119 656.192 242.725C654.31 243.676 652.606 244.414 650.69 244.975C648.384 245.57 646.721 244.536 645.524 242.086C649.061 244.332 652.47 242.854 655.242 240.843C658.582 238.585 662.099 236.116 664.981 233.112C672.024 226.011 678.431 218.375 684.906 211.52Z" fill="#FEEEF7"/>
<path d="M687.345 172.001C678.417 191.256 666.766 208.587 652.604 224.172C665.493 207.519 677.178 190.578 687.345 172.001Z" fill="#FEEEF7"/>
<path d="M783.107 293.92C792.125 300.402 800.143 308.938 806.492 318.602C807.832 320.45 808.817 322.722 809.802 324.994C810.083 325.952 810.185 327.122 810.075 328.115C806.909 321.12 802.64 315.008 797.837 309.533C792.857 304.269 787.664 298.828 783.107 293.92Z" fill="#FEEEF7"/>
<path d="M604.398 117.942C604.196 104.399 607.606 91.7195 610.771 78.4719C612.611 79.2935 611.934 80.5319 611.824 81.5242C611.029 85.9173 609.844 90.3446 608.872 94.9498C607.18 102.566 605.878 110.148 604.398 117.942Z" fill="#FEEEF7"/>
<path d="M636.86 183.493C635.673 199.122 634.095 214.786 638.793 230.294C638.615 230.506 638.225 230.54 638.225 230.54C637.732 229.404 637.452 228.446 637.172 227.488C635.49 221.739 634.588 215.922 634.856 210.003C635.131 201.921 636.187 193.771 636.853 185.655C636.395 184.909 636.538 184.307 636.86 183.493Z" fill="#FEEEF7"/>
<path d="M809.774 207.867C820.828 199.432 832.06 190.785 843.113 182.349L843.325 182.527C842.613 183.376 841.936 184.614 841.012 185.285C831.306 193.405 821.177 201.17 810.164 207.833L809.774 207.867Z" fill="#FEEEF7"/>
<path d="M767.844 278.944C750.676 271.406 732.85 269.821 714.373 272.027C724.954 267.171 754.577 271.065 767.844 278.944Z" fill="#FEEEF7"/>
<path d="M715.332 145.969C715.276 152.067 705.254 170.041 698.957 176.685C704.981 166.921 710.369 156.623 715.332 145.969Z" fill="#FEEEF7"/>
<path d="M767.533 203.505C776.17 196.657 784.986 189.597 793.623 182.749C793.623 182.749 793.836 182.927 794.65 183.248C792.37 186.396 789.208 188.441 786.258 190.665C783.308 192.888 780.181 195.323 777.231 197.547C774.281 199.77 771.119 201.815 767.779 204.073C767.745 203.683 767.745 203.683 767.533 203.505Z" fill="#FEEEF7"/>
<path d="M675.822 47.0358C675.747 48.4181 676.061 49.7663 675.595 51.1827C672.76 61.4536 669.535 71.7587 666.699 82.0296C666.521 82.2417 666.555 82.6317 665.987 82.878C669.076 71.0126 672.343 58.9352 675.432 47.0699C675.644 47.2479 675.822 47.0358 675.822 47.0358Z" fill="#FEEEF7"/>
<path d="M675.432 255.978C688.763 255.597 701.43 252.131 714.344 249.232C701.532 253.301 688.865 256.768 675.432 255.978Z" fill="#FEEEF7"/>
<path d="M705.761 198.297C712.099 189.881 718.082 181.89 724.031 173.508C724.243 173.686 724.243 173.686 724.455 173.864C720.608 179.31 716.795 185.147 712.948 190.593C711.202 193.104 709.032 195.259 707.075 197.592C706.931 198.194 706.329 198.051 705.761 198.297Z" fill="#FEEEF7"/>
<path d="M720.977 122.875C722.949 116.217 725.913 109.669 730.575 104.544C730.102 108.123 727.788 110.881 726.077 113.782C724.577 116.861 722.654 119.584 720.977 122.875Z" fill="#FEEEF7"/>
<path d="M744.715 95.4462C740.3 101.139 735.673 106.653 730.901 112.77C734.824 105.941 738.603 99.715 743.654 94.5564C743.689 94.9464 744.291 95.0903 744.715 95.4462Z" fill="#FEEEF7"/>
<path d="M794.609 299.596C799.98 304.825 805.919 309.808 807.95 317.295C803.537 311.786 798.878 305.708 794.609 299.596Z" fill="#FEEEF7"/>
<path d="M609.335 73.2914C608.006 78.3208 606.5 83.5623 605.205 88.9818C604.727 83.5208 606.741 75.0906 609.335 73.2914Z" fill="#FEEEF7"/>
<path d="M826.352 190.694C830.76 187.164 834.778 183.668 839.364 179.926C838.61 182.547 832.211 188.02 826.352 190.694Z" fill="#FEEEF7"/>
<path d="M679.072 50.4854C677.743 55.5149 676.414 60.5443 675.086 65.5737C674.874 65.3957 674.484 65.4298 674.272 65.2518C675.6 60.2224 676.717 55.0151 678.046 49.9857C678.47 50.3416 678.86 50.3075 679.072 50.4854Z" fill="#FEEEF7"/>
<path d="M691.165 132.558C692.631 129.089 693.706 125.654 695.171 122.185C695.383 122.363 695.773 122.329 695.985 122.507C695.3 125.907 693.233 129.233 691.165 132.558Z" fill="#FEEEF7"/>
<path d="M419.494 545.056C426.859 537.14 434.19 528.834 441.767 521.096C446.25 516.184 448.503 510.484 450.721 504.394C453.584 496.676 455.632 488.636 455.907 480.554C457.102 462.762 456.524 444.929 449.172 428.278C444.986 418.621 438.918 409.915 432.672 401.421C424.661 390.724 417.041 379.992 412.014 367.461C406.809 355.142 402.172 342.577 397.357 330.224C397.111 329.656 397.077 329.266 396.975 328.096C397.789 328.417 398.569 328.349 398.993 328.705C399.205 328.883 399.451 329.451 399.876 329.807C403.857 337.123 409.83 342.496 416.37 347.623C421.851 351.861 427.153 356.31 432.456 360.759C442 368.768 448.594 379 454.833 389.656C468.295 413.241 469.487 438.095 464.506 464.276C461.868 479.05 456.787 492.858 451.918 506.844C451.774 507.447 451.631 508.049 451.165 509.465C452.267 508.583 452.623 508.158 453.157 507.522C463.089 495.255 473.055 483.377 482.776 470.932C490.894 460.395 498.588 449.503 506.672 438.576C515.113 427.225 523.341 415.696 531.781 404.345C538.298 395.718 544.78 386.7 551.933 378.606C558.874 370.334 566.663 362.774 574.062 355.249C581.461 347.723 589.251 340.163 596.65 332.637C603.159 326.172 609.881 319.884 616.178 313.241C619.949 309.177 623.331 305.147 626.89 300.905C631.873 294.967 636.857 289.028 641.628 282.911C644.975 278.491 647.932 274.106 651.279 269.686C652.703 267.989 653.669 265.546 656.611 265.485C655.4 267.36 654.578 269.201 653.366 271.075C644.105 284.267 634.384 296.712 623.638 308.658C618.087 314.843 612.111 320.672 605.958 326.713C600.195 332.72 594.219 338.549 588.422 344.166C582.446 349.995 576.471 355.824 570.496 361.653C567.258 365.081 563.808 368.33 560.961 371.724C554.91 378.935 548.647 385.969 542.808 393.358C536.079 401.808 529.774 410.613 523.258 419.241C520.444 423.025 517.631 426.808 514.818 430.592C514.284 431.228 513.962 432.042 513.852 433.035C515.666 431.304 517.692 429.751 519.506 428.02C529.355 419.297 540.86 413.771 553.281 409.736C556.155 408.895 559.029 408.054 561.904 407.213C568.789 405.038 576.063 402.829 582.948 400.655C591.749 397.92 599.565 392.912 607.169 387.727C612.357 384.129 617.757 380.708 623.191 377.678C636.475 370.03 650.915 366.605 665.916 365.096C672.937 364.482 680.17 364.046 687.369 363.219C699.283 362.374 711.163 361.138 723.078 360.292C725.808 360.053 728.573 360.204 731.125 360.177C732.117 360.287 733.534 360.753 734.348 361.075C734.163 363.449 732.212 363.62 730.898 364.324C722.98 368.161 715.24 371.787 707.355 376.014C695.885 381.931 685.755 389.695 675.201 397.104C668.343 401.831 661.485 406.558 654.593 410.895C641.199 419.535 626.472 424.164 610.479 425.563C600.549 426.629 590.517 426.524 580.663 426.207C572.37 425.753 564.11 425.69 555.706 426.228C539.111 427.484 523.85 432.75 509.922 442.026C504.734 445.624 500.005 449.968 496.76 455.558C494.87 458.672 492.557 461.429 490.455 464.364C484.794 471.541 479.133 478.718 473.294 486.108C464.252 497.315 455.387 508.31 446.133 519.339C439.726 526.974 432.505 534.288 425.886 541.745C424.64 543.23 423.216 544.927 421.97 546.412C420.766 546.124 420.13 545.59 419.494 545.056ZM516.965 434.924C517.177 435.102 517.212 435.492 517.424 435.67C518.56 435.178 519.696 434.685 520.832 434.193C532.549 428.844 545.004 425.199 557.732 424.675C565.178 424.417 572.657 424.549 580.137 424.681C589.211 425.066 598.285 425.451 607.222 424.276C620.06 422.76 633.076 421.032 644.478 414.335C652.897 409.471 661.315 404.608 669.063 398.82C687.364 385.624 706.124 373.174 726.964 364.275C727.532 364.029 727.888 363.605 728.278 363.571C727.039 362.893 726.047 362.783 725.089 363.064C722.961 363.446 720.654 364.041 718.56 364.814C703.333 370.47 687.893 375.948 673.227 383.52C654.228 393.24 634.525 401.645 613.734 406.609C599.116 410.246 584.04 413.137 569.176 416.206C564.741 417.184 560.273 417.771 555.838 418.749C543.314 421.613 531.283 425.614 520.483 432.454C519.381 433.337 518.067 434.042 516.965 434.924ZM676.074 380.126C675.862 379.948 676.04 379.736 675.828 379.558C665.365 381.26 654.874 380.409 644.274 380.55C629.349 380.677 615.58 385.026 602.72 393.029C598.066 395.991 593.199 398.775 588.087 400.991C579.567 404.685 570.8 407.81 561.753 409.977C559.056 410.606 556.572 411.413 553.876 412.042C543.549 415.304 533.714 419.702 524.83 425.982C523.16 427.111 521.88 428.205 520.422 429.512C521.237 429.834 521.805 429.587 522.161 429.163C531.147 424.054 540.66 420.47 550.487 418.234C562.62 415.404 574.576 412.786 586.778 410.736C617.566 405.487 646.707 394.88 674.37 380.865C675.15 380.797 675.506 380.372 676.074 380.126ZM459.371 472.979C459.584 473.157 459.762 472.945 459.974 473.123C460.405 471.317 460.803 469.12 461.234 467.314C461.885 463.523 462.926 459.698 463.577 455.907C466.771 434.009 464.538 412.98 453.97 393.269C446.008 378.637 436.232 365.735 422.76 355.515C417.492 351.456 412.401 347.185 407.345 343.303C405.861 342.058 404.766 340.778 402.823 338.786C403.315 339.922 403.172 340.524 403.384 340.702C405.956 345.39 408.528 350.078 411.278 354.554C413.781 358.462 416.497 362.548 419.569 366.21C425.712 373.534 432.246 380.823 437.643 388.605C454.93 413.231 462.992 440.236 459.345 470.427C459.201 471.029 459.481 471.987 459.371 472.979ZM715.337 363.917L715.303 363.527C710.02 363.792 704.559 364.27 699.488 364.714C685.446 365.942 671.581 366.959 657.963 368.543C645.125 370.06 633.306 374.238 622.082 380.723C621.158 381.393 620.234 382.064 619.276 382.344C620.09 382.666 620.658 382.42 621.048 382.386C629.849 379.65 638.574 378.297 647.826 378.471C652.363 378.663 656.866 378.466 661.403 378.658C671.825 378.729 681.686 376.884 691.199 373.3C698.796 370.277 706.427 367.644 714.023 364.621C714.591 364.375 714.769 364.163 715.337 363.917ZM409.149 354.937C411.953 364.518 416.07 373.395 421.112 381.601C426.578 390.163 432.611 398.479 438.433 406.617C449.16 421.4 456.088 437.695 457.692 456.028C457.726 456.419 457.76 456.809 457.794 457.199C458.555 452.415 458.145 447.735 457.736 443.054C454.764 420.32 445.366 400.507 431.424 382.664C426.553 376.408 420.936 370.611 415.853 364.177C413.842 361.405 411.585 358.065 409.149 354.937Z" fill="#FEEEF7"/>
<path d="M704.201 104.1C706.049 102.76 707.685 101.241 709.355 100.112C713.653 97.5743 717.876 96.4188 722.474 99.554C725.375 101.265 728.919 101.348 730.787 104.722C733.703 102.109 736.618 99.4956 739.356 97.0943C740.636 95.9997 742.306 94.871 743.798 93.9543C748.308 91.5945 752.599 91.2191 757.129 93.5741C766.154 97.8942 774.145 103.877 781.425 110.708C782.944 112.344 784.64 113.768 786.159 115.404C790.291 119.955 791.761 125.526 791.493 131.445C790.923 142.894 787.943 153.767 782.343 163.886C778.099 171.529 773.43 178.816 767.311 185.247C766.955 185.671 766.599 186.096 766.489 187.088C767.057 186.842 768.015 186.561 768.583 186.315C772.204 185.016 776.002 183.504 779.834 182.383C782.887 181.33 786.041 181.447 789.264 182.344C790.893 182.988 792.809 182.427 794.547 182.078C797.6 181.025 800.618 179.582 803.636 178.139C807.044 176.661 810.24 175.006 813.436 173.351C820.643 170.362 827.766 170.918 834.205 174.875C840.041 178.688 846.412 181.864 853.069 183.837C857.709 185.2 861.28 187.835 863.64 192.345C866 196.855 865.281 199.866 860.771 202.226C859.847 202.896 858.676 202.999 857.54 203.491C855.446 204.264 853.352 205.037 851.046 205.632C839.056 207.86 828.51 213.106 818.456 219.488C803.391 229.257 788.328 239.026 772.525 247.09C761.622 252.761 750.296 258.075 739.393 263.746C738.079 264.45 736.553 264.977 735.273 266.071C736.053 266.003 737.046 266.113 738.004 265.832C751.3 265.062 764.343 265.886 776.659 271.884C787.737 277.203 796.111 285.314 802.706 295.547C806.338 301.125 808.444 307.229 808.847 314.072C809.393 320.313 810.931 326.664 812.825 332.591C814.227 337.381 815.451 342.384 816.106 347.633C816.557 350.541 816.05 353.73 815.119 356.563C814.222 359.786 811.915 360.381 809.37 358.245C807.461 356.643 805.696 354.439 804.534 352.379C799.382 345.165 794.977 337.493 789.648 330.491C780.296 317.946 768.987 307.733 756.219 298.827C736.98 285.575 715.597 277.029 692.926 271.741C688.109 270.591 683.47 269.228 678.831 267.865C676.422 267.29 674.013 266.714 671.605 266.139C665.015 264.947 659.054 266.451 653.722 270.651C652.62 271.534 651.621 273.586 649.466 271.417C649.575 270.424 649.685 269.432 649.973 268.228C652.384 257.601 648.835 248.478 642.233 240.409C633.9 230.525 625.211 221.066 617.057 210.97C607.383 199.239 598.422 186.659 590.952 173.163C582.812 158.743 578.894 143.167 578.631 126.681C578.422 115.301 579.594 103.997 582.362 92.9456C584.156 86.4997 586.162 80.2319 589.585 74.4297C591.653 71.1044 594.534 68.1009 597.908 66.2335C601.851 64.1198 605.251 64.805 607.933 68.5009C610.156 71.4508 611.244 74.8931 612.153 78.5476C612.782 81.2439 613.021 83.9744 613.26 86.7049C613.738 92.1658 615.173 97.3464 617.957 102.213C621.446 108.393 624.011 115.243 625.405 122.196C626.451 127.411 626.539 132.906 627.406 138.333C627.475 139.113 627.577 140.283 627.679 141.453C628.035 141.029 628.213 140.817 628.391 140.605C632.302 126.899 637.841 113.837 642.744 100.241C647.181 88.0607 650.838 75.9492 654.071 63.4817C655.721 57.6381 657.194 52.0065 660.473 46.8064C664.964 39.7316 674.359 39.3027 679.086 46.1606C681.344 49.5006 682.287 53.5451 683.799 57.3434C683.833 57.7335 684.045 57.9115 684.079 58.3015C685.342 72.734 691.929 85.1285 700.22 96.7842C701.061 99.6586 702.614 101.684 704.201 104.1ZM675.579 244.173C684.943 232.152 693.027 221.225 700.051 209.409C707.396 196.778 712.901 183.326 716.566 169.052C718.867 159.417 717.336 150.904 712.685 142.664C711.556 140.994 710.817 139.289 709.511 137.832C704.072 131.822 698.811 125.6 693.194 119.803C683.657 109.632 678.698 97.8811 679.42 83.668C679.647 79.5211 680.264 75.3401 680.49 71.1932C680.642 68.4286 680.793 65.664 680.732 62.7214C680.678 57.6164 679.311 53.216 676.951 48.7058C674.413 44.4077 666.517 41.7576 662.67 47.2039C661.602 48.4764 660.534 49.749 660.068 51.1655C658.349 56.229 656.419 61.1146 654.912 66.3561C650.926 81.4443 646.303 95.9986 640.511 110.655C637.47 118.586 634.43 126.516 631.602 134.625C627.733 146.558 625.67 158.924 624.99 171.364C623.917 195.041 629.017 217.392 642.35 237.254C646.194 243.01 650.251 248.944 655.765 253.571C659.371 256.597 663.484 256.433 666.934 253.184C670.561 249.722 673.621 246.506 675.579 244.173ZM678.665 243.51C678.877 243.688 678.699 243.9 678.911 244.078C680.437 243.552 682.176 243.203 683.702 242.676C692.578 238.559 701.667 234.619 710.297 229.934C720.241 224.544 729.55 218.62 737.695 210.635C742.39 205.901 747.332 201.735 752.239 197.178C754.799 194.989 757.605 193.368 759.953 191.001C769.132 181.354 777.428 170.605 783.036 158.323C786.822 149.934 789.192 141.08 789.543 131.616C789.777 125.306 788.129 119.948 783.607 115.43C781.027 112.905 778.626 110.167 775.869 107.853C771.025 104.15 766.181 100.447 760.98 97.1677C752.667 91.9992 747.808 92.6208 739.883 98.6204C737.501 100.598 735.153 102.965 732.983 105.12C731.881 106.002 731.026 107.453 729.041 107.234C728.761 106.275 728.446 104.927 727.954 103.791C725.087 102.47 722.008 100.97 718.963 99.8611C717.759 99.5734 716.164 99.3198 714.816 99.6343C710.949 100.366 708 102.589 705.118 105.592C706.247 107.262 706.985 108.967 708.114 110.637C719.462 130.279 723.043 150.994 717.297 172.918C714.496 183.579 710.49 193.952 705.068 203.86C697.969 217.059 689.597 229.19 680.198 240.821C679.911 242.025 679.377 242.662 678.665 243.51ZM862.914 197.518C862.08 192.482 859.186 188.608 853.698 186.533C846.404 184.027 839.432 180.706 832.781 176.571C826.945 172.759 820.211 172.168 813.607 175.301C810.021 176.991 806.825 178.646 803.238 180.335C800.398 181.566 797.948 182.763 795.108 183.995C792.836 184.979 790.283 185.006 787.663 184.253C785.856 183.821 783.694 183.814 781.955 184.163C779.081 185.004 776.419 186.023 774.003 187.61C767.467 191.523 762.025 196.715 757.22 202.442C752.415 208.168 747.822 214.073 742.804 219.622C738.499 224.322 734.194 229.022 729.642 233.154C720.327 241.241 709.746 246.097 697.374 246.197C692.659 246.216 687.697 245.668 682.592 245.721C680.43 245.714 677.665 245.563 675.995 246.692C673.08 249.305 670.41 252.486 668.165 256.024C666.775 258.111 667.548 260.205 669.635 261.595C670.271 262.128 671.297 262.628 672.112 262.95C683.792 268.414 696.013 271.078 708.707 270.164C716.899 269.448 724.776 267.383 732.55 264.148C745.649 258.875 758.646 252.431 771.218 245.632C786.775 237 802.085 227.799 816.971 218.243C827.559 211.224 838.885 205.909 851.443 203.435C853.571 203.052 855.488 202.492 857.582 201.719C859.676 200.946 861.77 200.173 862.914 197.518ZM636.589 232.059C636.767 231.847 636.945 231.635 637.157 231.813C636.24 230.32 635.536 229.006 634.619 227.514C630.741 221.368 626.472 215.256 623.339 208.652C616.226 194.732 612.588 180.114 611.435 164.689C610.241 151.037 611.599 137.357 612.567 123.712C612.718 120.948 613.081 118.361 613.233 115.597C613.357 110.28 613.659 104.75 613.394 99.4674C612.882 93.6164 611.556 87.4436 610.654 81.6267C609.922 77.7601 608.979 73.7156 606.543 70.5877C604.32 67.6378 602.302 67.0283 598.927 68.8957C595.943 70.729 593.384 72.9182 591.672 75.8193C588.037 81.4436 585.853 87.9235 584.448 94.3353C580.674 109.601 579.699 125.409 581.844 140.943C583.921 155.698 589.796 168.941 597.766 181.411C606.898 195.941 617.522 209.554 628.681 222.531C631.116 225.659 633.764 228.965 636.589 232.059ZM812.313 358.184C813.134 356.343 814.024 355.283 813.922 354.113C814.285 351.526 814.436 348.761 814.02 346.243C813.254 341.986 812.277 337.552 810.943 333.542C808.837 327.437 807.333 321.476 806.965 315.023C806.384 308.392 804.278 302.287 800.858 296.887C792.43 283.671 780.799 274.273 765.711 270.287C751.437 266.622 737.08 266.503 722.462 270.14C718.417 271.083 714.161 271.849 710.082 272.402C709.302 272.47 708.734 272.717 707.954 272.785C709.014 273.675 710.219 273.962 711.389 273.86C717.944 274.662 724.856 275.04 731.233 276.054C747.355 278.378 763.046 282.508 776.839 291.914C787.486 299.04 795.182 308.389 798.827 320.845C800.228 325.635 801.062 330.672 802.074 335.497C803.324 343.052 806.635 349.444 810.336 355.802C810.582 356.37 811.218 356.904 812.313 358.184ZM716.699 276.147C716.521 276.359 716.555 276.749 716.377 276.961C727.954 281.255 739.21 286.362 749.788 292.708C760.366 299.054 769.911 307.063 778.709 315.53C787.507 323.997 794.848 333.77 801.832 343.968C800.65 337.193 799.29 330.631 797.717 323.89C796.357 317.327 793.471 311.29 789.448 305.747C783.236 297.643 775.067 291.872 766.042 287.552C753.726 281.555 740.512 278.78 727.189 276.998C723.432 276.737 720.065 276.442 716.699 276.147ZM627.896 213.56C628.074 213.348 628.286 213.526 628.464 213.313C628.395 212.533 628.115 211.575 628.047 210.795C623.315 194.897 622.272 178.48 624.171 162.003C624.829 156.049 625.454 149.706 625.12 143.643C624.861 136.197 624.213 128.786 622.784 121.443C621.739 116.228 619.132 111.15 617.307 106.003C617.06 105.435 616.636 105.08 616.178 104.334C616.034 104.936 615.856 105.148 615.89 105.538C615.259 114.044 614.627 122.55 614.208 131.233C613.281 143.106 612.533 154.767 613.946 166.435C615.667 181.613 619.305 196.231 626.596 209.939C626.521 211.322 627.403 212.424 627.896 213.56ZM717.378 149.131C717.556 148.919 717.768 149.097 717.946 148.885C717.878 148.105 718.021 147.503 717.775 146.935C716.608 135.835 713.914 125.262 708.346 115.529C704.891 109.739 701.047 103.983 697.592 98.1933C691.702 89.2753 686.024 80.5354 683.153 70.1742C682.941 69.9962 682.728 69.8182 682.092 69.2843C681.824 75.2036 681.487 80.3427 681.363 85.6598C681.19 94.9117 683.501 103.357 688.864 110.749C692.887 116.292 697.655 121.378 702.424 126.464C708.287 132.829 713.972 139.407 716.851 147.605C716.885 147.995 717.132 148.563 717.378 149.131ZM686.925 243.574C698.653 245.102 709.753 243.935 720.019 237.73C727.124 233.571 733.133 228.132 738.684 221.947C744.236 215.763 749.363 209.222 754.702 202.859C756.659 200.526 759.007 198.158 761.177 196.003C763.525 193.636 766.084 191.447 768.644 189.258C767.864 189.326 767.084 189.394 766.338 189.853C760.336 193.129 754.826 197.542 749.74 202.31C743.909 207.537 738.324 213.332 732.28 218.381C721.438 226.994 709.256 233.759 696.793 239.566C693.173 240.865 690.155 242.308 686.925 243.574Z" fill="#FEEEF7"/>
</svg>
