<svg width="790" height="565" viewBox="0 0 790 565" fill="none" xmlns="http://www.w3.org/2000/svg">
<g clip-path="url(#clip0_412_4737)">
<path d="M601.141 268.013C612.216 266.352 622.737 263.86 633.535 260.538C658.73 252.785 681.711 241.156 703.584 226.482C712.721 220.391 721.58 214.023 730.717 207.932C730.994 207.655 731.271 207.655 731.825 207.932C730.44 209.039 729.333 210.147 727.949 210.977C707.183 226.759 685.587 241.156 661.776 251.678C646.548 258.599 630.489 264.137 613.877 267.182C609.724 268.013 605.571 268.29 601.418 268.844C601.141 268.567 601.141 268.29 601.141 268.013Z" fill="#FEEEF7"/>
<path d="M645.994 101.059C641.564 109.088 636.857 117.117 632.427 125.424C619.137 149.235 603.632 171.385 588.128 193.811C582.59 201.841 577.33 210.424 572.069 218.453C571.238 219.837 570.408 221.222 569.023 222.329C569.577 221.222 569.854 220.391 570.408 219.284C577.883 205.44 587.02 192.427 595.603 179.414C603.633 167.785 611.662 155.88 619.137 143.974C627.444 130.684 634.919 117.394 642.948 103.828C643.502 102.72 644.333 101.613 644.887 100.228C645.44 100.782 645.717 100.782 645.994 101.059Z" fill="#FEEEF7"/>
<path d="M708.567 173.876C681.711 202.394 648.763 221.498 611.939 234.511C647.655 220.114 680.326 200.456 708.567 173.876Z" fill="#FEEEF7"/>
<path d="M570.685 256.661C574.007 256.938 577.33 257.492 580.652 257.492C585.359 257.769 590.066 258.046 594.773 257.492C615.815 255.554 634.919 247.524 653.747 239.218C654.854 238.664 656.238 238.111 657.623 237.834C658.73 237.28 660.115 236.726 661.499 236.726C659.284 237.834 657.069 238.941 654.854 240.049C643.779 245.586 632.427 250.293 620.522 253.892C609.724 257.215 598.649 259.707 587.297 259.43C581.76 259.43 575.945 258.876 570.685 257.215C570.685 257.492 570.685 256.938 570.685 256.661Z" fill="#FEEEF7"/>
<path d="M566.808 156.987C566.531 158.372 566.255 159.479 565.701 160.863C561.825 172.492 557.672 183.844 555.457 196.026C554.626 200.733 554.072 205.44 553.795 210.147C553.518 215.684 553.518 221.222 553.795 226.759C553.795 230.082 554.349 233.127 554.626 236.45C552.965 234.788 552.965 232.297 552.688 230.359C550.75 215.684 552.134 201.01 556.287 186.613C559.056 176.922 562.378 167.785 565.701 158.372C565.978 157.818 566.255 157.264 566.532 156.987C566.532 156.987 566.531 156.987 566.808 156.987Z" fill="#FEEEF7"/>
<path d="M709.952 242.818C727.948 233.127 747.053 225.652 763.665 213.746C763.942 214.023 763.942 214.3 764.219 214.577C763.665 215.13 763.388 215.961 762.834 216.515C759.789 218.73 757.02 220.945 753.974 222.606C740.408 230.358 726.287 237.003 711.613 242.541C711.059 242.818 710.505 242.818 709.952 242.818Z" fill="#FEEEF7"/>
<path d="M548.535 74.202C551.027 94.4138 550.75 114.625 549.365 135.114C549.089 139.821 548.258 144.528 547.704 148.958C547.427 148.958 547.15 148.958 546.874 148.958C546.874 148.127 546.597 147.296 546.597 146.466C547.15 140.098 547.981 133.73 548.258 127.639C548.535 122.378 549.089 117.117 549.089 111.58C549.089 99.9512 548.812 88.3226 548.535 76.417C548.535 75.8633 548.535 75.0326 548.535 74.202Z" fill="#FEEEF7"/>
<path d="M674.512 117.948C674.235 119.055 673.958 120.163 673.404 121.27C670.913 125.423 668.421 129.3 665.929 133.453C664.545 135.668 663.16 138.16 661.222 140.098C655.131 147.019 648.763 153.664 641.841 159.756C653.47 146.466 665.098 133.176 673.681 117.394C673.681 117.394 674.235 117.671 674.512 117.948Z" fill="#FEEEF7"/>
<path d="M725.18 118.225C724.626 118.502 724.072 119.055 723.518 119.332C713.828 123.762 706.075 130.684 698.323 137.606C693.616 141.759 689.186 146.466 684.203 150.896C684.756 150.065 685.31 149.511 685.864 148.681C693.893 138.436 703.307 129.576 714.105 122.378C716.874 120.44 719.919 119.055 722.965 117.671C723.519 117.394 724.349 117.671 724.903 117.394C725.18 117.671 725.18 117.948 725.18 118.225Z" fill="#FEEEF7"/>
<path d="M622.183 84.4462C625.505 73.9251 647.655 44.0228 652.916 42.6384L653.193 42.9153V43.1922C653.193 43.4691 653.193 43.7459 652.916 43.7459C641.287 55.9284 631.873 70.0489 622.183 84.4462Z" fill="#FEEEF7"/>
<path d="M630.489 254.446C627.72 255.554 624.952 256.661 621.906 257.492C613.877 259.984 605.848 262.199 597.541 263.029C590.619 263.583 583.698 263.86 577.053 261.922C576.499 261.645 576.222 261.368 575.668 260.814C594.773 264.69 612.492 259.707 630.489 254.446Z" fill="#FEEEF7"/>
<path d="M566.808 174.153C567.362 171.938 567.362 169.446 568.193 167.231C571.792 158.648 575.391 149.788 579.545 141.482C583.144 134.007 587.574 126.808 591.45 119.332C592.004 118.225 592.834 117.394 593.942 116.564C592.004 119.886 590.066 123.486 588.128 126.808C580.375 141.205 573.453 155.88 567.916 171.385C567.639 172.215 567.085 173.046 566.808 174.153Z" fill="#FEEEF7"/>
<path d="M556.287 112.411C556.287 96.075 556.287 80.5701 556.287 64.7883C557.672 66.4496 557.672 68.1108 557.672 69.7721C557.672 79.7395 557.948 89.7069 557.672 99.6743C557.672 103.551 556.841 107.704 556.287 112.411Z" fill="#FEEEF7"/>
<path d="M684.756 208.485C699.984 198.795 714.105 187.72 727.118 175.26C714.659 188.827 700.815 200.179 684.756 208.485Z" fill="#FEEEF7"/>
<path d="M626.89 122.101C635.473 106.319 644.056 90.2606 652.639 74.4789C652.916 74.4789 653.193 74.7558 653.47 74.7558C652.916 75.8633 652.639 76.9707 652.085 78.0782C647.378 86.9382 642.395 95.5212 637.688 104.381C634.365 110.472 631.043 116.564 627.444 122.655C627.167 122.378 627.167 122.101 626.89 122.101Z" fill="#FEEEF7"/>
<path d="M736.532 191.873C743.73 183.567 750.652 175.538 757.851 167.231C759.235 168.616 758.405 169.446 757.851 170C755.082 173.323 752.59 176.368 749.822 179.691C745.668 184.121 741.515 188.274 737.362 192.427C737.085 192.427 736.808 192.15 736.532 191.873Z" fill="#FEEEF7"/>
<path d="M708.844 135.114C714.382 128.469 728.225 119.886 731.825 120.44C724.349 125.423 716.873 130.13 708.844 135.114Z" fill="#FEEEF7"/>
<path d="M632.427 218.176C644.333 213.469 655.131 207.101 666.206 200.733C655.961 207.932 644.887 214.577 632.427 218.176Z" fill="#FEEEF7"/>
<path d="M639.072 70.049C642.948 62.0197 647.932 54.821 654.023 48.4529C653.47 51.4985 651.255 53.4366 649.593 55.6516C647.932 58.1435 645.994 60.6353 644.056 63.1272C642.395 65.3422 640.734 67.5571 639.072 70.049Z" fill="#FEEEF7"/>
<path d="M632.981 31.2867C636.027 25.1955 639.626 19.3812 644.61 14.3975C645.163 14.9512 645.163 14.9512 645.163 14.9512V15.2281C641.01 20.7655 636.857 26.0261 632.981 31.2867Z" fill="#FEEEF7"/>
<path d="M743.73 153.388C747.053 149.788 750.375 145.912 754.251 141.759C754.251 144.528 754.251 144.528 749.821 148.681C747.883 150.342 745.945 152.003 744.007 153.941C744.007 153.664 744.007 153.388 743.73 153.388Z" fill="#FEEEF7"/>
<path d="M766.157 219.007C762.004 222.883 757.02 226.205 751.483 228.144C756.189 224.821 760.896 221.499 765.88 218.176C765.88 218.453 765.88 218.73 766.157 219.007Z" fill="#FEEEF7"/>
<path d="M566.808 174.153C566.531 176.368 566.255 178.306 565.701 180.521C564.593 185.228 563.209 189.935 561.548 194.365C562.655 187.443 564.04 180.521 566.808 174.153Z" fill="#FEEEF7"/>
<path d="M499.528 349.137C499.251 347.199 500.359 346.368 501.466 345.538C517.802 333.632 529.154 317.85 538.29 300.131C544.935 287.671 551.027 274.935 557.395 262.199C558.502 259.707 559.887 257.492 561.271 255C561.825 253.893 562.655 252.785 564.87 253.339C563.486 255.554 562.102 257.492 561.271 259.43C557.672 266.906 554.072 274.381 550.473 281.857C545.212 292.101 539.952 302.346 534.137 312.036C526.108 325.88 515.864 337.785 502.851 347.199C502.02 347.753 501.466 348.306 500.636 348.86C500.359 348.86 500.082 348.86 499.528 349.137Z" fill="#FEEEF7"/>
<path d="M695.831 107.981C698.6 103.274 702.753 99.3976 706.076 94.9676C701.092 94.4139 698.046 96.352 695.278 99.9513C692.232 103.828 689.186 107.427 685.864 111.303C685.033 112.134 684.203 112.688 683.095 113.518C682.542 111.857 683.649 111.303 684.203 110.473C686.972 107.427 689.74 104.381 692.509 101.336C693.34 100.505 694.17 99.3976 695.001 98.2901C694.724 98.0132 694.724 98.0132 694.447 97.7364C692.509 98.567 690.571 99.1207 688.91 100.228C684.757 102.72 680.88 105.489 676.727 108.258C675.897 108.811 674.789 109.088 673.682 109.642C673.405 109.365 673.405 109.088 673.128 108.811C673.682 108.258 673.958 107.427 674.512 106.873C677.004 105.212 679.496 103.551 681.988 102.166C686.418 99.9513 690.848 98.0132 695.278 96.0751C696.385 95.5214 697.216 94.6907 698.046 93.8601C699.154 92.4757 699.985 90.8145 700.815 89.1533C704.415 81.6777 709.398 75.0327 714.382 68.3878C717.428 64.5115 719.919 60.0816 722.688 55.9285C722.411 55.0979 721.858 54.2672 721.581 53.7135C721.581 53.1597 721.581 52.8829 721.581 52.606C722.134 51.2216 722.411 50.1142 722.965 48.7298C726.841 41.5311 729.333 33.7786 730.994 25.7493C731.548 23.2575 732.379 20.7656 733.486 18.2737C734.317 15.505 736.255 13.8437 738.747 12.1825C742.346 9.96751 745.115 11.075 746.499 14.9512C747.884 18.8275 747.33 22.7037 746.222 26.303C744.838 31.8405 742.623 37.1011 739.024 41.5311C735.424 45.961 731.271 49.5604 727.118 53.7135C726.011 54.821 724.626 55.9285 723.796 57.036C719.642 63.9578 714.936 70.6028 709.952 76.694C705.522 81.9546 702.476 88.0458 698.6 94.4139C702.476 93.3064 705.522 92.4758 708.568 91.3683C709.675 91.0914 710.229 89.9839 711.059 89.1533C717.981 82.2314 724.903 75.3096 732.102 68.6647C737.639 63.4041 743.454 58.6972 749.268 53.9904C749.822 53.4366 750.375 53.1598 750.929 52.606C749.822 49.5604 750.652 46.7917 752.59 44.5767C758.682 36.8242 764.496 29.0718 772.802 23.5343C775.571 21.5962 778.893 20.2118 781.939 18.5506C783.877 17.72 785.815 17.4431 787.753 17.9969C789.691 19.6581 789.138 21.3193 788.307 22.7037C786.923 24.9187 785.538 27.1337 783.6 28.7949C776.401 35.4398 769.203 42.0848 761.727 48.7298C759.789 50.391 757.02 51.2216 754.529 52.606C753.975 52.8829 753.421 53.1598 753.144 53.4366C749.268 57.036 745.115 60.6353 741.239 63.9578C739.854 65.0653 738.47 66.4497 737.085 67.5571C728.779 73.6484 721.581 81.124 714.382 88.5995C714.105 88.8764 714.105 89.1533 713.828 89.9839C724.349 87.7689 733.486 82.5083 743.177 79.1859C745.669 74.2021 749.822 71.1565 754.529 68.9415C757.851 67.2803 761.727 65.8959 765.327 64.5116C768.372 63.4041 771.418 62.2966 774.463 61.4659C776.955 60.9122 779.724 60.9122 782.216 61.1891C785.261 61.466 786.923 62.5735 787.476 65.3422C788.03 67.8341 787.2 69.7721 784.431 71.1565C780.555 73.3715 775.848 73.9252 771.418 74.7559C766.434 75.3096 761.45 76.1402 756.743 77.2477C754.529 77.8015 752.314 79.1858 750.099 80.2933C752.867 84.1696 752.59 85.8308 749.268 88.3226C747.33 89.707 745.392 91.0914 743.177 92.1989C736.255 95.5214 728.779 98.567 721.027 99.6745C719.089 99.9513 717.151 100.228 715.213 99.9513C713.274 99.6745 711.613 100.228 710.229 101.336C707.46 103.274 704.968 105.212 702.2 107.15C701.092 107.981 699.708 108.534 698.323 109.088C701.646 104.104 706.629 101.059 711.336 98.0132C712.721 95.7982 714.105 94.137 715.213 92.1989C712.167 91.922 709.675 93.0295 707.737 95.5214C704.968 99.1207 702.2 102.443 699.154 105.766C698.323 106.596 697.493 107.427 696.662 108.258C696.385 108.534 696.108 108.258 695.831 107.981ZM742.069 13.5669C739.577 14.3975 739.3 14.6744 737.916 16.0587C734.871 19.1044 733.763 22.7037 733.209 26.5799C731.825 34.6093 729.333 42.3617 725.457 49.5604C725.18 50.391 724.903 51.2216 724.626 52.3291C725.457 52.0522 726.011 51.7754 726.287 51.4985C730.441 47.0686 734.871 43.1923 738.47 38.4855C740.962 35.163 742.346 30.733 743.73 26.8568C744.561 24.0881 744.561 20.7656 744.838 17.72C744.561 16.3356 744.007 14.3975 742.069 13.5669ZM753.421 51.4985C755.636 50.391 757.297 49.8373 758.682 48.7298C767.818 41.808 775.848 34.0555 783.877 25.7493C784.708 24.9187 785.538 23.8112 786.092 22.7037C786.369 22.1499 786.646 21.3193 786.923 19.935C785.261 20.2118 784.154 20.4887 783.323 20.7656C777.786 22.7037 773.079 26.0262 768.926 30.1793C764.496 34.6092 760.343 39.3161 756.19 44.0229C754.529 45.961 753.144 47.8992 753.421 51.4985ZM749.545 85.0002C747.607 83.3389 746.222 83.6158 744.561 83.8927C734.594 85.5539 725.734 89.4302 717.428 94.9676C716.32 95.5214 715.489 96.6289 714.382 97.7364C718.535 99.3976 721.858 98.567 736.809 93.0295C741.515 91.0914 746.222 89.1533 749.545 85.0002ZM745.945 80.0164C746.222 80.2933 746.499 80.2934 746.499 80.5702C746.776 80.5702 747.053 80.2933 747.33 80.2933C753.421 75.8634 760.62 74.2021 768.095 73.6484C772.525 73.3715 776.678 72.264 781.108 71.1565C783.046 70.6028 784.985 69.4953 785.538 67.5571C784.985 65.8959 783.6 65.6191 782.216 65.3422C777.786 64.7884 773.633 65.6191 769.48 66.7266C762.281 68.9415 755.359 71.1565 749.545 76.1402C748.16 77.2477 747.053 78.6321 745.945 80.0164Z" fill="#FEEEF7"/>
<path d="M578.437 96.6286C579.821 93.3061 581.206 90.2606 582.59 86.9381C587.297 75.3094 592.004 63.6808 596.988 52.0521C598.095 49.5603 599.202 46.7915 600.587 44.2997C605.017 35.4397 610.554 27.1336 616.645 19.658C619.691 16.0587 623.29 12.7362 627.444 10.5212C635.196 6.09123 642.118 7.75246 647.101 15.228C650.424 20.2117 651.531 25.7492 652.639 31.5635C653.193 35.1629 653.47 39.0391 654.3 42.6384C655.685 48.1759 657.623 53.7133 660.668 58.6971C663.16 63.127 665.929 67.2801 668.421 71.4332C673.128 79.1857 675.066 87.7687 675.896 96.6286C676.45 103.55 675.896 110.749 674.512 117.948C675.619 117.394 676.173 116.84 676.727 116.563C677.834 115.456 679.219 114.625 680.326 113.518C689.74 104.935 705.522 106.319 713.274 112.134C716.873 114.902 721.303 116.01 725.733 117.117C740.961 120.163 750.652 129.3 755.912 143.42C758.127 149.511 759.512 156.156 759.512 162.801C759.789 171.661 760.066 180.798 760.896 189.658C761.727 198.795 763.388 208.208 766.434 216.791C768.372 222.052 771.141 226.482 774.186 230.912C776.124 233.681 777.785 236.449 779.17 239.495C781.108 243.371 781.108 247.524 779.447 251.401C777.785 255.554 774.186 258.046 770.033 259.153C764.219 261.091 758.127 260.814 752.036 260.537C744.007 260.26 735.978 259.707 727.948 259.984C718.812 260.26 709.952 261.091 700.815 261.645C698.877 261.645 696.939 262.199 694.17 262.475C697.215 263.583 699.707 264.137 701.922 265.244C709.398 268.567 715.489 273.274 720.473 279.642C724.626 285.179 729.056 290.44 733.209 295.977C737.362 301.238 739.023 307.329 738.469 314.251C738.469 315.635 737.639 317.019 737.362 318.127C735.147 319.234 733.486 318.681 732.378 317.296C731.271 315.912 730.163 314.528 729.056 313.143C711.059 291.824 688.632 278.257 660.945 273.827C648.209 271.612 635.473 270.228 622.46 270.505C608.062 271.059 594.219 269.397 580.652 264.967C572.623 262.475 564.87 263.583 558.502 269.951C557.395 271.059 556.841 272.166 555.733 273.274C552.688 277.15 549.365 280.749 546.043 284.348C547.15 281.58 548.258 278.811 549.365 276.042C551.857 269.674 553.242 263.029 553.518 256.107C553.795 246.971 552.134 238.388 549.642 229.804C546.043 217.622 543.828 205.163 543.828 192.427C543.828 181.352 544.935 170.277 545.766 159.202C546.32 152.003 546.32 144.528 545.489 137.606C543.828 125.147 541.336 112.687 539.675 100.505C538.567 92.4756 537.46 84.4462 536.629 76.6938C535.799 67.8339 534.691 58.9739 534.137 49.8371C533.861 42.3616 534.137 34.6091 534.414 27.1336C534.691 23.5342 535.245 19.658 536.075 16.0587C537.183 10.5212 540.505 6.0912 545.212 2.49186C549.919 -1.10749 555.457 0.830628 557.395 6.09121C559.887 12.4593 562.102 19.1042 563.209 26.026C564.317 31.8404 566.532 37.3778 569.023 42.6384C572.346 49.5602 575.391 56.7589 576.776 64.2345C578.991 74.7557 579.545 85 577.33 95.5211C577.33 96.0749 577.33 96.6287 577.33 97.1824C577.883 96.6287 578.16 96.6286 578.437 96.6286ZM569.577 253.062C570.131 255.831 571.792 257.492 574.007 258.599C575.945 259.707 577.883 260.537 579.821 261.368C591.173 265.798 602.802 268.013 614.984 268.013C622.46 268.013 629.935 267.459 637.411 266.905C645.994 266.075 654.854 264.967 663.437 263.86C676.45 262.199 689.463 260.26 702.476 258.876C714.105 257.492 725.456 256.938 737.085 257.215C745.391 257.492 753.974 257.769 762.281 257.769C765.049 257.769 768.095 256.938 770.864 256.107C777.509 253.616 780.277 247.524 777.509 240.879C776.124 237.557 774.186 234.511 771.971 231.466C768.926 226.759 765.88 222.052 764.219 216.791C761.45 209.039 760.066 201.287 759.235 193.257C758.127 184.12 757.851 174.984 757.851 165.847C757.851 157.541 756.466 149.234 753.144 141.759C747.883 129.853 739.3 122.101 726.287 119.332C720.473 118.225 715.212 116.01 709.952 112.964C701.645 107.98 692.785 107.98 684.479 113.241C681.987 114.902 679.772 116.84 677.557 118.778C674.789 120.993 673.404 123.762 673.681 127.638C674.789 139.821 671.189 151.173 666.206 161.971C662.883 168.616 658.453 174.707 653.47 180.244C644.056 190.765 633.535 200.456 622.183 208.762C611.108 216.791 599.756 224.821 588.958 233.127C583.974 237.003 579.268 241.156 574.561 245.586C572.346 247.801 570.131 250.016 569.577 253.062ZM548.812 207.932C548.535 216.515 551.027 227.59 556.01 238.388C556.287 239.218 556.564 239.772 556.841 240.603C558.779 243.925 560.44 247.247 562.655 250.016C564.317 252.231 565.978 251.954 567.639 249.739C569.3 247.524 571.238 245.032 572.346 242.264C576.499 233.404 580.375 224.544 584.251 215.684C587.297 208.485 591.727 201.84 596.988 196.026C605.017 186.889 614.984 180.521 626.336 176.368C636.027 172.769 645.44 168.892 654.3 163.355C661.222 158.925 665.652 152.834 668.974 145.635C669.528 144.805 669.528 143.697 669.805 142.59C671.466 136.498 671.189 130.407 671.189 124.316C671.189 121.824 671.189 119.609 671.466 117.117C672.851 109.365 673.681 101.612 672.574 93.8599C671.466 86.1075 669.528 78.9088 665.375 71.987C662.883 67.8339 660.391 63.6808 657.623 59.5277C654.023 53.7134 651.255 47.6221 650.701 40.7003C650.424 37.101 649.87 33.2248 649.04 29.6254C648.209 24.6417 646.825 19.9349 644.056 15.7818C639.903 9.41369 634.365 8.02931 627.997 12.1824C624.398 14.3974 621.075 17.1661 618.03 20.4886C611.662 27.6873 606.124 35.7166 601.971 44.5766C600.587 47.6222 598.926 50.6677 597.818 53.7133C589.235 73.925 580.929 94.4136 572.623 114.625C566.255 129.853 559.333 144.805 555.18 160.863C552.411 175.537 549.089 189.935 548.812 207.932ZM546.597 197.134C547.427 191.596 547.704 186.335 548.812 181.629C551.857 169.169 554.903 156.71 558.225 144.528C559.333 140.375 560.994 136.221 562.378 132.068C564.593 124.593 567.085 117.117 566.808 109.088C566.531 101.612 564.87 94.4137 562.378 87.4919C559.056 78.355 556.564 68.9413 554.903 59.2508C554.349 55.9283 554.072 52.329 554.072 48.7297C554.349 41.531 555.18 34.6091 556.01 27.4104C556.564 22.4267 556.287 17.7199 555.457 12.7362C554.903 9.13684 554.072 5.53747 551.857 2.76875C549.089 2.49187 548.535 2.49186 546.597 3.87622C542.72 6.64495 539.675 10.2443 538.567 14.9511C537.46 18.5505 536.906 22.4267 536.629 26.3029C535.799 38.2085 536.352 50.3909 537.46 62.2964C538.014 69.4951 539.121 76.6938 539.952 83.8925C541.059 92.7524 542.444 101.612 543.828 110.472C545.212 119.055 546.874 127.362 547.981 135.945C549.365 147.85 548.258 159.479 547.15 171.107C546.597 179.414 546.043 187.997 546.597 197.134ZM577.053 239.495C583.144 234.788 588.958 230.635 594.773 226.205C608.062 216.238 621.906 207.378 634.365 196.303C641.01 190.212 647.101 183.844 653.193 177.199C657.346 172.492 661.222 167.231 663.991 161.694C664.544 160.863 664.544 160.033 665.098 159.202C656.792 166.677 647.101 171.384 637.134 175.537C633.812 176.922 630.489 178.029 627.167 179.137C620.522 181.629 614.154 184.674 608.616 189.104C600.31 195.749 593.942 204.055 589.235 213.192C585.082 221.775 581.206 230.358 577.053 239.495ZM558.225 13.013C557.948 13.013 557.672 13.013 557.395 13.013C557.672 14.6743 557.948 16.6124 557.948 18.2736C557.672 26.0261 557.395 33.7785 557.118 41.2541C557.118 41.8078 556.841 42.0847 556.841 42.6384C556.287 50.6677 556.287 58.4202 558.502 66.1726C560.44 73.3713 562.932 80.2931 565.147 87.215C567.916 95.798 569.577 104.381 568.746 113.241C568.746 114.902 568.47 116.563 568.193 118.225C569.854 115.456 570.961 112.41 571.792 109.365C577.33 93.583 578.437 77.5244 574.007 61.1889C572.346 54.8209 569.577 48.7296 567.085 42.9153C564.317 36.2704 561.825 29.6254 560.44 22.7036C560.163 19.658 559.056 16.3355 558.225 13.013ZM652.639 269.674V269.951C654.577 270.228 656.515 270.782 658.176 271.059C667.036 272.443 675.896 274.381 684.479 277.703C703.86 285.179 719.919 297.361 732.932 313.697C733.763 314.804 734.87 315.635 736.254 317.296C736.531 315.358 737.085 314.251 737.085 312.866C737.362 305.668 734.593 299.576 729.61 294.593C718.535 284.072 705.799 276.873 691.124 273.55C683.926 271.889 676.45 271.059 668.974 270.228C663.437 269.674 658.176 269.951 652.639 269.674ZM659.007 266.905C659.007 267.182 659.007 267.459 659.007 267.736C670.082 268.013 680.88 268.567 691.401 271.335C702.199 274.104 712.167 278.534 721.857 285.456C721.58 284.348 721.58 284.072 721.58 283.795C715.212 274.381 706.629 268.013 695.554 264.69C691.678 263.583 687.802 262.752 683.926 263.306C675.619 264.69 667.313 265.798 659.007 266.905Z" fill="#FEEEF7"/>
<path d="M438.893 321.173C438.616 319.512 438.063 317.85 438.339 316.466C440.001 303.73 438.893 290.994 436.401 278.534C434.463 268.844 432.248 259.43 428.372 250.57C426.711 246.694 425.05 242.818 423.111 239.218C417.574 228.697 411.483 218.73 404.561 209.039C400.131 202.394 395.424 195.749 390.994 189.104C383.795 178.029 377.427 166.124 372.167 153.942C371.336 151.727 369.952 149.788 368.844 147.573C368.567 147.573 368.291 147.85 368.291 147.85C369.121 151.173 369.675 154.218 370.506 157.541C376.597 181.906 386.01 204.609 397.639 226.759C398.47 228.42 399.023 230.358 400.131 232.02C401.238 233.958 402.9 235.896 404.284 237.834C413.144 251.678 420.066 266.352 424.496 282.134C425.05 284.349 425.603 286.841 426.157 289.056C426.434 290.163 426.434 290.994 425.88 292.378C425.326 290.994 424.496 289.886 424.219 288.502C420.343 271.889 413.421 256.938 404.561 242.264C402.9 239.495 400.685 237.28 399.3 234.512C386.01 209.593 374.659 183.844 368.291 155.88C368.014 154.772 367.737 153.942 367.46 152.834C367.46 152.834 367.183 152.557 366.906 152.28C366.352 156.433 367.183 160.31 367.737 163.909C371.059 185.228 377.427 205.717 383.242 226.482C387.949 243.372 394.593 259.43 401.515 275.489C402.069 276.873 403.177 278.258 404.284 280.196C402.9 280.196 402.069 279.919 401.238 279.919C394.87 265.521 388.502 251.401 384.072 236.45C377.704 215.684 371.89 194.642 367.46 173.323C365.522 163.632 364.414 153.665 364.414 143.697C364.414 142.59 364.691 141.205 364.691 140.375C367.183 138.99 368.014 140.652 368.844 142.036C370.782 145.635 372.997 149.235 374.659 153.111C381.857 170 391.548 185.505 401.792 200.733C407.33 209.039 413.421 217.345 418.681 225.652C429.756 243.095 436.401 262.199 439.447 282.688C440.554 289.886 441.108 297.362 441.385 304.56C441.385 309.821 440.554 315.082 440.278 320.342C439.724 321.173 439.17 321.173 438.893 321.173Z" fill="#FEEEF7"/>
<path d="M249.617 367.831C248.333 364.291 247.049 360.751 245.61 357.44C241.063 347.353 234.204 338.711 227.035 330.527C220.859 323.348 214.372 316.628 207.191 310.441C212.319 313.237 216.672 317.18 220.871 321.352C229.267 329.696 237.044 338.958 243.358 348.903C247.389 355.301 250.496 362.077 251.911 369.381C252.284 371.303 252.501 373.455 252.873 375.377C252.179 375.91 251.64 376.214 250.871 376.363C249.053 372.128 247.236 367.894 245.109 364.118C243.136 360.113 240.625 356.412 238.038 352.326C235.527 348.625 233.015 344.924 230.274 341.067C233.945 343.547 239.049 350.336 249.158 367.521C249.232 367.906 249.387 367.676 249.617 367.831Z" fill="#FEEEF7"/>
<path d="M244.332 390.991C243.569 390.141 243.191 389.218 242.428 388.368C238.167 381.815 232.518 376.329 226.248 371.76C216.922 364.792 206.665 359.201 196.254 353.84C187.604 349.333 178.489 345.516 169.684 341.239C168.611 340.848 167.538 340.458 166.775 339.608C171.525 341.48 176.355 342.738 180.95 344.839C194.89 350.913 208.209 357.905 220.909 365.815C228.865 370.854 236.126 376.427 241.609 384.14C243.209 386.223 244.809 388.306 245.101 390.842C244.871 390.687 244.487 390.761 244.332 390.991Z" fill="#FEEEF7"/>
<path d="M191.086 256.129C197.132 259.544 203.395 265.111 209.813 270.448C216.535 276.325 222.948 282.661 228.666 289.53C234.383 296.399 239.407 303.802 242.118 312.649C242.422 313.189 242.726 313.728 242.645 314.342C230.972 289.083 210.57 272.296 191.086 256.129Z" fill="#FEEEF7"/>
<path d="M232.176 407.504C227.917 413.315 223.125 418.431 216.882 422.233C200.62 431.964 182.931 436.388 163.964 436.273C189.782 433.664 213.931 427.59 232.176 407.504Z" fill="#FEEEF7"/>
<path d="M99.6422 405.858C100.566 405.48 100.876 405.021 101.105 405.176C121.095 401.303 140.861 396.278 160.025 389.175C160.025 389.175 160.254 389.33 160.484 389.485C160.168 390.942 158.785 391.011 157.861 391.389C153.013 393.126 148.01 395.092 143.087 396.445C129.701 400.434 115.936 403.499 101.949 405.411C101.254 405.945 100.87 406.019 99.6422 405.858Z" fill="#FEEEF7"/>
<path d="M196.146 447.986C195.451 448.519 194.986 449.208 194.217 449.357C179.97 456.105 165.574 462.085 150.123 464.679C144.127 465.641 137.908 465.45 131.609 465.872C131.534 465.488 131.534 465.488 131.46 465.104C135.149 464.588 138.683 464.302 142.372 463.787C146.061 463.272 149.596 462.986 153.055 462.316C165.896 459.629 177.75 454.94 189.76 450.021C191.837 449.419 194.143 448.972 196.146 447.986Z" fill="#FEEEF7"/>
<path d="M272.438 390.93C261.489 398.236 249.418 400.774 236.595 400.466C237.227 397.552 239.522 399.102 240.91 398.035C240.836 397.65 240.761 397.266 240.532 397.111C246.682 395.92 252.449 394.803 258.599 393.611L258.674 393.996C255.518 395.205 252.288 396.03 249.132 397.24C251.277 398.021 252.66 397.952 260.894 395.161C264.818 393.802 268.513 392.289 272.438 390.93Z" fill="#FEEEF7"/>
<path d="M134.565 421.428C143.085 422.17 151.449 423.142 159.826 422.118C168.202 421.094 176.579 420.069 185.03 419.429C180.262 420.552 175.339 421.905 170.267 422.488C164.656 423.376 159.045 424.263 153.285 424.382C148.138 424.581 142.614 423.857 137.393 423.672C136.165 423.511 135.093 423.12 134.02 422.73C134.485 422.041 134.41 421.657 134.565 421.428Z" fill="#FEEEF7"/>
<path d="M141.092 294.53C159.719 300.094 175.55 310.788 190.762 322.398C174.621 312.164 158.479 301.93 141.092 294.53Z" fill="#FEEEF7"/>
<path d="M153.077 255.515C159.997 254.175 187.703 269.547 194.717 277.96C190.432 275.4 186.072 272.455 181.787 269.895C177.273 267.18 172.529 264.31 167.86 261.825C163.265 259.724 158.515 257.852 153.077 255.515Z" fill="#FEEEF7"/>
<path d="M152.862 341.905C172.264 346.322 190.575 353.345 207.404 364.044C189.874 354.876 171.408 348.083 152.862 341.905Z" fill="#FEEEF7"/>
<path d="M232.353 390.918C230.052 390.367 228.062 389.356 225.606 389.034C219.164 387.69 212.864 388.113 206.41 388.765C199.187 389.566 192.038 390.751 184.66 391.782C190.432 389.666 196.353 388.32 202.194 387.587C207.265 387.004 212.337 386.42 217.254 386.066C222.859 386.177 227.919 387.589 232.353 390.918Z" fill="#FEEEF7"/>
<path d="M247.663 246.565C241.222 257.584 236.927 269.384 233.55 281.804C233.556 280.805 233.103 279.497 233.494 278.425C235.142 272.521 236.945 266.389 238.823 260.641C239.685 257.882 240.93 255.048 242.251 252.599C243.186 250.224 244.432 247.39 247.663 246.565Z" fill="#FEEEF7"/>
<path d="M142.03 456.874C139.339 457.395 136.648 457.916 133.883 458.053C130.349 458.339 126.815 458.625 123.051 458.756C117.52 459.029 112.219 459.458 106.843 459.502C105.845 459.496 104.618 459.335 103.619 459.329C103.545 458.945 103.545 458.945 103.47 458.56C104.01 458.257 104.779 458.108 105.318 457.804C113 457.313 120.682 456.822 128.364 456.331C132.897 456.051 137.274 456 141.881 456.105C141.956 456.489 141.801 456.719 142.03 456.874Z" fill="#FEEEF7"/>
<path d="M123.602 418.366C113.807 425.449 96.4159 431.41 90.4384 429.377C93.1293 428.856 96.2046 428.26 98.6661 427.584C101.512 426.833 104.358 426.083 107.129 424.948C109.901 423.813 112.517 422.907 115.288 421.772C118.06 420.637 120.831 419.501 123.602 418.366Z" fill="#FEEEF7"/>
<path d="M172.829 316.3C187.829 324.761 201.05 335.362 213.961 346.421C200.275 336.509 186.36 326.442 172.829 316.3Z" fill="#FEEEF7"/>
<path d="M248.55 328.354C248.729 324.131 251.668 320.77 252.92 316.938C254.326 312.876 255.808 309.199 257.444 305.293C258.851 301.231 260.103 297.399 261.429 293.952C261.622 300.096 253.652 322.779 248.55 328.354Z" fill="#FEEEF7"/>
<path d="M281.517 362.649C276.471 371.603 259.416 385.476 253.576 386.209C258.436 382.475 263.371 379.126 268.002 375.238C272.404 371.195 276.576 366.996 281.517 362.649Z" fill="#FEEEF7"/>
<path d="M288.114 401.853C287.265 402.615 286.416 403.378 285.337 403.986C283.719 404.898 282.026 405.425 280.259 405.568C274.189 406.146 268.274 406.494 262.359 406.842C261.361 406.836 260.517 406.6 259.445 406.21C268.974 404.962 278.722 405.866 287.352 401.003C287.581 401.158 287.81 401.313 288.114 401.853Z" fill="#FEEEF7"/>
<path d="M153.726 389.598C145.108 392.464 136.111 394.406 126.662 395.04C127.586 394.662 128.354 394.513 129.278 394.134C134.431 392.937 139.583 391.739 144.735 390.542C146.657 390.17 148.43 389.028 150.123 388.501C151.047 388.123 152.119 388.513 153.273 388.29C153.732 388.6 153.806 388.984 153.726 389.598Z" fill="#FEEEF7"/>
<path d="M134.968 418.358C143.109 418.177 150.934 419.453 159.075 419.272C154.382 420.779 138.564 420.453 134.968 418.358Z" fill="#FEEEF7"/>
<path d="M148.843 257.332C156.278 259.681 163.632 262.644 168.748 267.436C162.392 264.479 155.422 261.442 148.223 258.25C148.533 257.791 148.688 257.562 148.843 257.332Z" fill="#FEEEF7"/>
<path d="M92.2157 376.786C95.148 374.423 105.9 374.334 112.875 376.373C105.732 376.56 98.974 376.673 92.2157 376.786Z" fill="#FEEEF7"/>
<path d="M226.981 453.778C227.08 450.17 227.253 446.945 227.271 443.951C227.059 440.801 226.464 437.726 225.793 434.266C229.682 438.897 230.31 449.345 226.981 453.778Z" fill="#FEEEF7"/>
<path d="M227.087 385.357C223.404 384.874 219.417 383.852 215.654 383.983C211.816 383.729 207.972 384.474 204.208 384.605C210.365 382.415 223.962 381.576 227.087 385.357Z" fill="#FEEEF7"/>
<path d="M122.635 299.102C115.802 298.831 108.814 298.788 101.981 298.517C101.906 298.132 102.061 297.903 101.987 297.518C109.061 295.949 115.888 297.219 122.635 299.102Z" fill="#FEEEF7"/>
<path d="M196.146 447.986C196.84 447.453 197.689 446.69 198.384 446.157C199.513 449.926 196.773 458.434 192.205 464.703C194.157 459.339 195.88 453.821 197.832 448.457C196.989 448.222 196.604 448.296 196.146 447.986Z" fill="#FEEEF7"/>
<path d="M113.141 294.361C120.898 294.254 128.872 296.299 131.005 299.076C128.773 299.907 127.328 297.595 125.486 297.353C123.645 297.112 121.729 296.486 120.042 296.015C117.742 295.463 115.9 295.222 113.141 294.361Z" fill="#FEEEF7"/>
<path d="M246.739 323.121C249.23 317.453 251.648 311.401 254.139 305.734C252.95 311.947 251.376 318.234 247.582 323.356C247.198 323.431 246.968 323.276 246.739 323.121Z" fill="#FEEEF7"/>
<path d="M132.17 373.034C137.471 372.605 142.543 372.022 147.845 371.593C142.221 374.477 134.769 375.123 132.17 373.034Z" fill="#FEEEF7"/>
<path d="M235.915 259.01C237.718 252.878 239.98 247.056 244.233 242.243C244.463 242.398 244.921 242.708 245.151 242.863C242.2 248.221 239.095 253.808 235.915 259.01Z" fill="#FEEEF7"/>
<path d="M215.702 452.174C214.66 446.793 213.462 441.64 212.42 436.258C214.714 437.808 216.507 446.036 215.702 452.174Z" fill="#FEEEF7"/>
<path d="M265.442 341.434C262.572 346.177 258.171 350.221 255.48 350.742C256.106 348.826 259.813 345.316 265.442 341.434Z" fill="#FEEEF7"/>
<path d="M254.822 345.286C258.374 342.005 261.926 338.725 265.478 335.444C262.918 339.729 259.67 343.549 255.355 345.98C255.125 345.825 255.051 345.441 254.822 345.286Z" fill="#FEEEF7"/>
<path d="M115.429 373.086C111.287 372.293 106.99 371.73 102.619 370.782C106.004 369.727 112.756 370.613 115.429 373.086Z" fill="#FEEEF7"/>
<path d="M202.489 452.939C203.308 457.168 202.974 461.62 200.954 465.601C200.748 461.453 201.926 457.236 202.489 452.939Z" fill="#FEEEF7"/>
<path d="M117.385 316.272C122.153 315.149 126.376 315.328 129.129 317.188C124.752 317.238 121.069 316.755 117.385 316.272Z" fill="#FEEEF7"/>
<path d="M277.625 409.469C281.159 409.183 284.618 408.513 288.692 407.923C286.528 410.137 282.07 410.801 277.625 409.469Z" fill="#FEEEF7"/>
<path d="M224 426.039C228.676 427.526 231.497 430.768 232.775 435.307C230.264 431.605 227.671 428.518 224 426.039Z" fill="#FEEEF7"/>
<path d="M210.789 439.167C211.999 442.322 212.44 445.627 212.267 448.851C211.882 448.926 211.882 448.926 211.498 449C210.902 445.925 210.077 442.695 209.636 439.39C210.021 439.316 210.405 439.241 210.789 439.167Z" fill="#FEEEF7"/>
<path d="M140.949 368.94C137.868 370.534 134.793 371.13 131.494 370.573C131.804 370.114 131.884 369.5 132.114 369.655C134.879 369.518 138.029 369.307 140.949 368.94Z" fill="#FEEEF7"/>
<path d="M261.477 362.144C259.698 364.283 257.615 365.883 254.93 365.406C254.856 365.022 254.626 364.867 254.552 364.482C256.939 363.422 259.245 362.975 261.477 362.144Z" fill="#FEEEF7"/>
<path d="M292.317 316.485C297.829 319.206 302.567 323.075 306.53 328.09C315.218 338.97 316.913 350.807 311.688 363.983C309.972 368.504 307.411 372.788 305.695 377.309C304.368 380.756 303.426 384.13 302.943 387.813C302.386 391.111 302.827 394.416 302.654 397.64C302.326 401.094 302.152 404.318 301.211 407.691C298.385 417.811 290.598 422.909 280.833 425C277.987 425.751 274.992 425.733 271.687 426.173C271.607 426.787 271.756 427.556 271.905 428.325C275.006 436.1 273.352 443.001 268.399 449.345C264.685 453.853 260.898 457.977 257.184 462.485C254.785 465.542 252.157 468.444 250.217 471.812C247.192 476.785 242.945 480.599 237.557 482.639C233.707 484.382 229.553 485.586 225.474 487.174C224.934 487.478 224.165 487.627 223.626 487.931C216.733 497.642 208.692 506.578 199.052 513.431C187.793 521.195 175.474 526.573 161.871 528.411C158.181 528.926 154.033 529.131 150.505 528.419C141.223 526.827 138.488 521.972 138.226 514.445C138.033 508.301 139.223 502.088 141.714 496.42C143.815 491.825 147.448 487.931 151.385 484.576C155.167 481.45 159.482 479.019 163.946 477.356C165.793 476.6 167.87 475.998 169.718 475.241C174.721 473.275 178.503 470.149 180.988 465.48C182.464 462.801 184.553 460.203 185.036 456.52C183.728 456.973 182.804 457.351 181.88 457.729C167.329 463.938 153.615 471.381 140.738 480.057C133.336 485.081 125.176 488.257 117.47 492.741C113.694 494.868 109.77 496.227 105.312 496.891C100.854 497.555 96.7119 496.762 92.731 494.741C86.685 491.326 85.1896 484.636 88.4561 477.821C91.5676 471.236 96.1302 465.965 101.077 460.619C103.396 458.176 105.714 455.733 107.803 453.134C108.808 452.142 109.353 450.84 110.283 449.464C109.055 449.303 108.596 448.993 107.598 448.987C103.99 448.888 100.616 447.946 97.6336 445.931C92.8154 442.677 87.8422 439.652 83.179 436.168C76.3763 430.905 73.1944 423.744 73.5526 415.299C73.5828 410.308 74.4563 405.552 75.3298 400.796C76.5937 394.968 77.2438 389.059 77.0506 382.914C76.5595 375.232 78.9827 368.182 83.0925 361.602C84.7971 359.079 86.5018 356.555 88.436 354.186C90.99 350.899 94.0028 347.923 98.008 345.95C97.1707 344.716 96.5629 343.638 96.1101 342.33C93.226 336.706 90.3419 331.083 87.9972 325.156C85.4231 319.074 85.7692 312.625 87.3431 306.338C88.762 300.28 91.942 295.077 96.4986 290.804C102.754 285.006 109.766 281.055 118.074 278.648C122.228 277.445 126.76 277.165 131.057 277.728C135.823 264.242 145.699 256.545 158.552 251.862C162.631 250.274 166.94 248.841 171.094 247.638C176.941 245.907 182.639 243.407 187.499 239.674C190.971 237.007 194.896 235.648 199.044 235.443C204.345 235.014 208.481 236.806 211.142 241.276C212.816 243.743 213.722 246.36 214.857 249.131C216.221 252.057 217.202 255.058 219.18 258.065C220.116 255.69 221.052 253.315 221.758 250.785C223.326 245.496 225.967 240.597 229.525 236.318C232.928 232.269 239.004 230.693 243.829 232.949C246.892 234.35 249.49 236.439 251.859 238.373C257.514 242.861 263.015 247.579 268.515 252.297C274.016 257.014 278.053 262.414 281.471 268.732C285.415 276.742 288.052 285.205 289.38 294.121C290.795 301.425 291.596 308.648 292.317 316.485ZM237.004 396.399C237.928 396.02 238.622 395.487 239.316 394.953C244.022 391.45 247.047 386.476 248.925 380.728C252.91 369.387 255.208 357.575 252.515 345.733C251.02 339.043 248.681 332.117 246.262 325.806C241.727 313.722 236.269 302.017 230.272 290.615C223.213 276.827 217.234 262.43 211.639 247.959C210.882 246.112 209.896 244.109 208.755 242.336C206.931 239.1 203.942 238.084 200.563 238.14C195.956 238.035 191.877 239.623 188.25 242.519C183.544 246.023 178.231 248.449 172.385 250.179C167.846 251.458 163.382 253.12 159.073 254.553C152.532 256.817 146.599 260.16 141.652 265.506C137.709 269.859 135.682 274.838 137.643 280.84C138.244 282.917 138.846 284.994 139.448 287.071C141.259 292.304 142.841 297.382 144.653 302.614C147.364 311.462 147.08 320.291 144.186 329.028C142.072 335.619 140.418 342.521 140.605 349.663C140.742 352.429 141.114 354.351 142.559 356.663C146.82 363.216 151.701 368.852 157.505 374.109C161.858 378.052 166.522 381.535 171.96 383.872C180.039 381.31 188.043 378.363 196.413 378.337C202.403 378.374 208.622 378.565 214.605 379.599C223.044 380.956 230.237 385.146 234.722 392.852C235.639 393.472 236.322 394.935 237.004 396.399ZM229.597 414.784C231.234 410.877 233.099 407.126 234.122 403.139C234.593 401.452 234.76 399.226 234.232 397.534C233.562 394.074 231.584 391.067 229.066 388.364C225.631 385.041 221.575 382.636 217.049 381.918C208.69 379.947 200.4 379.36 191.943 380.998C187.33 381.892 183.027 382.326 178.334 383.834C163.714 388.66 150.924 395.724 141.024 407.414C137.93 411.004 135.141 415.134 135.57 420.435C135.564 421.434 134.789 422.581 133.939 423.344C132.935 424.336 131.701 425.173 130.468 426.01C123.834 430.885 118.348 436.534 115.075 444.347C112.503 450.629 108.48 455.596 103.843 460.483C100.365 464.148 97.1165 467.968 93.7131 472.017C91.0846 474.919 89.7583 478.367 88.8909 482.124C87.788 486.725 89.5308 490.575 93.7413 492.751C97.5673 495.001 102.019 495.335 106.173 494.132C110.557 493.083 114.791 491.266 118.567 489.138C123.421 486.403 128.58 484.207 133.205 481.317C150.707 469.751 169.269 460.571 188.061 451.547C205.545 442.975 219.593 431.08 229.597 414.784ZM239.385 434.425C239.155 434.27 239 434.5 238.771 434.345C237.916 436.106 237.29 438.022 236.434 439.783C231.141 451.577 223.101 460.513 210.18 463.813C202.566 465.687 194.878 467.177 187.264 469.05C184.802 469.727 181.882 470.093 179.954 471.463C174.095 475.191 167.939 477.381 161.702 480.184C152.538 484.352 145.204 490.759 142.223 501.107C140.81 506.167 139.856 511.537 140.899 516.919C141.489 520.992 143.777 523.54 147.839 524.947C152.055 526.124 156.278 526.303 160.735 525.639C170.879 524.472 180.576 520.998 189.59 516.061C194.29 513.555 198.686 510.51 202.622 507.155C214.817 497.016 223.799 484.707 230.642 470.618C235.619 460.281 238.68 449.319 239.441 437.804C239.602 436.577 239.608 435.578 239.385 434.425ZM157.099 390.54C152.802 389.976 148.734 389.568 144.822 388.93C134.622 386.718 125.277 382.745 117.563 375.864C112.98 371.766 109.786 366.602 106.976 361.363C104.7 356.818 102.114 352.733 99.6081 348.033C98.1449 348.716 96.8367 349.168 95.8324 350.161C91.4368 353.206 90.1044 357.652 90.4586 362.568C90.5894 366.332 91.7185 370.102 92.6182 373.716C93.9707 378.639 93.711 383.476 91.3804 387.915C89.6697 391.438 87.3451 394.879 84.9461 397.936C81.7722 402.141 78.9827 406.271 76.956 411.25C75.1587 416.384 76.3501 422.535 79.9407 425.628C82.539 427.717 85.6082 428.12 88.603 428.138C96.9735 428.112 104.563 430.231 109.432 437.863C110.343 439.481 111.949 440.566 114.175 440.733C118.756 432.467 125.78 426.52 133.183 421.496C132.903 416.964 134.155 413.132 136.709 409.845C139.263 406.558 142.201 403.197 145.214 400.221C148.921 396.711 152.932 393.74 157.099 390.54ZM248.721 388.944C249.571 388.181 250.649 387.573 251.114 386.885C255.057 382.532 258.615 378.253 262.788 374.054C266.42 370.16 268.137 365.64 268.552 360.574C268.731 356.351 268.91 352.129 268.705 347.981C268.127 341.911 266.936 335.76 265.974 329.765C263.82 317.618 262.665 305.478 264.889 293.282C267.187 281.47 264.718 270.781 257.021 260.905C252.6 255.579 249.027 249.491 245.07 243.477C243.396 241.01 241.721 238.542 238.888 237.297C235.44 235.97 233.289 236.188 230.815 238.86C228.496 241.304 226.792 243.828 225.62 247.046C224.449 250.264 223.048 253.327 221.877 256.545C220.706 259.764 220.378 263.217 221.817 266.528C223.256 269.839 224.695 273.15 226.134 276.46C230.382 285.01 234.86 293.715 238.725 302.339C243.271 312.426 247.663 322.743 251.285 333.208C255.814 346.29 257.118 359.199 253.35 372.692C252.241 378.291 250.444 383.425 248.721 388.944ZM292.138 320.708C291.747 321.78 291.592 322.01 291.437 322.239C289.833 333.518 285.315 344.165 279.42 353.882C275 360.92 270.122 367.648 265.398 374.147C257.81 384.391 249.001 393.476 237.215 399.548C237.364 400.317 237.358 401.315 237.581 402.469C238.258 404.93 239.089 407.162 239.536 409.469C239.983 411.775 241.124 413.548 243.499 414.484C251.919 418.835 260.656 421.729 270.019 422.708C274.93 423.352 279.388 422.687 284.081 421.18C286.158 420.578 287.317 419.357 287.869 417.056C288.823 411.686 288.469 406.77 287.042 401.462C286.142 397.848 284.784 393.923 284.268 390.234C283.759 385.546 283.25 380.859 283.509 376.023C283.689 371.8 285.232 370.504 289.306 369.914C290.459 369.691 291.612 369.468 293.15 369.17C289.491 364.694 289.292 359.547 289.322 354.556C289.346 350.563 290.139 346.421 290.548 342.354C291.031 338.67 292.128 335.068 292.611 331.385C293.013 328.315 293.341 324.862 292.138 320.708ZM240.053 235.077C243.724 237.556 245.312 241.636 247.824 245.337C251.477 250.811 255.514 256.211 259.551 261.611C261.53 264.618 263.663 267.395 264.873 270.551C268.055 277.712 268.701 285.165 267.195 292.835C265.287 303.574 265.76 314.251 267.231 324.934C267.672 328.239 268.268 331.314 268.709 334.619C270.421 343.46 271.52 352.221 270.083 361.274C270.158 361.659 270.232 362.043 270.301 363.426C271.385 361.82 272.08 361.286 272.7 360.369C276.27 354.093 279.996 347.588 283.336 341.158C287.378 333.196 289.348 324.838 289.402 315.853C289.4 303.49 287.476 291.499 283.785 279.65C280.919 271.032 276.59 263.096 269.948 256.606C267.735 254.442 264.981 252.582 262.612 250.648C258.03 246.551 253.063 242.527 248.48 238.43C246.036 236.111 243.203 234.865 240.053 235.077ZM140.772 385.526C140.623 384.758 140.778 384.528 140.549 384.373C140.245 383.834 139.786 383.524 139.327 383.214C132.754 378.106 128.878 371.478 128.622 362.953C128.584 356.579 128.161 350.279 128.737 343.986C129.318 336.694 125.225 327.915 115.719 325.17C111.732 324.147 107.59 323.355 103.603 322.332C102.76 322.097 101.842 321.477 100.769 321.086C102.709 317.719 107.31 318.822 108.717 314.761C108.264 313.452 107.508 311.605 106.366 309.832C103.253 304.053 99.5255 298.195 100.492 290.828C96.5609 293.185 92.2277 298.611 90.5854 303.516C87.7718 311.639 88.2629 319.321 91.3643 327.096C92.9523 331.176 95.1541 335.336 97.5109 339.266C101.766 346.818 106.175 354.14 110.046 361.765C115.739 372.628 124.297 379.744 135.793 383.5C137.399 384.585 139.086 385.055 140.772 385.526ZM107.453 320.589C110.368 321.221 112.897 321.928 115.582 322.405C127.314 325.317 132.704 335.639 131.645 345.616C130.995 351.525 131.188 357.67 131.536 363.585C131.593 366.964 132.418 370.194 134.241 373.431C140.17 383.449 149.732 389.574 162.263 387.346C164.569 386.899 166.876 386.452 168.73 384.697C165.747 382.683 162.764 380.668 159.936 378.424C148.551 369.063 139.478 358.257 134.497 343.867C129.286 329.322 126.686 314.869 129.697 299.529C130.651 294.159 130.761 288.554 131.486 283.03C131.721 282.186 131.343 281.262 131.12 280.109C129.123 280.097 127.666 279.781 125.899 279.924C119.37 280.192 113.598 282.307 108.049 285.576C103.04 288.54 102.029 290.531 103.301 296.067C103.599 297.605 104.126 299.298 104.964 300.531C106.403 303.842 108.226 307.078 110.05 310.315C112.251 314.475 112.09 315.703 108.997 319.293C108.073 319.671 107.918 319.901 107.453 320.589ZM293.756 319.796C293.601 320.025 293.446 320.255 293.52 320.639C295.475 327.639 294.434 334.621 293.164 341.448C292.291 346.204 291.876 351.269 291.846 356.261C291.822 360.254 292.411 364.327 295.308 367.954C295.841 368.648 295.835 369.647 296.443 370.725C292.828 371.625 289.982 372.376 286.522 373.046C286.43 375.656 286.033 377.727 286.096 380.108C286.208 386.867 287.859 393.327 289.354 400.017C290.626 405.554 291.669 410.936 290.405 416.764C290.25 416.994 290.324 417.378 290.399 417.763C290.628 417.917 290.858 418.072 291.087 418.227C292.711 416.317 294.639 414.947 296.034 412.882C299.983 407.53 300.788 401.392 300.365 395.092C300.092 389.562 301.046 384.192 302.998 378.828C305.105 373.235 307.442 367.797 309.704 361.975C314.383 350.1 312.683 339.262 304.986 329.386C303.461 327.688 302.09 325.759 300.41 324.29C298.345 322.895 296.515 320.657 293.756 319.796ZM181.28 468.016C182.818 467.718 183.432 467.798 184.201 467.65C187.66 466.979 191.275 466.08 194.735 465.409C200.656 464.063 206.577 462.717 212.424 460.986C222.964 457.747 230.074 450.188 234.357 440.384C235.758 437.321 236.086 433.868 237.257 430.649C240.381 422.068 238.203 413.914 235.796 405.606C235.486 406.065 235.102 406.14 234.792 406.599C234.482 407.057 234.327 407.287 234.247 407.901C231.129 415.484 226.864 422.293 221.527 428.711C213.635 438.416 203.914 445.883 192.897 451.806C189.276 453.704 186.499 455.837 185.477 459.824C185.316 461.052 184.311 462.044 183.691 462.962C183.53 464.19 182.446 465.796 181.28 468.016ZM225.796 484.719C227.563 484.576 228.486 484.197 229.485 484.203C237.793 481.796 244.885 477.232 249.689 470.119C254.878 462.932 260.066 455.745 265.788 449.252C269.192 445.203 271.063 440.453 271.478 435.387C271.639 434.159 270.957 432.696 270.659 431.159C268.57 433.757 267.405 435.977 265.551 437.732C261.459 441.316 257.293 444.516 253.127 447.716C245.799 453.124 239.848 459.462 235.577 467.269C232.781 472.397 229.601 477.6 226.806 482.728C226.421 482.803 226.341 483.416 225.796 484.719ZM268.004 425.69C258.803 423.484 249.836 420.435 241.037 415.16C242.714 429.991 242.245 444.041 238.167 457.993C239.091 457.615 239.475 457.54 239.785 457.081C244.893 450.508 251.756 445.788 258.39 440.914C260.857 439.239 263.095 437.41 265.03 435.041C267.193 432.827 269.282 430.229 268.004 425.69ZM138.627 346.657C138.862 345.813 138.943 345.199 138.868 344.815C138.979 339.21 140.317 333.766 142.115 328.632C142.741 326.716 143.137 324.645 143.534 322.574C145.355 313.446 143.413 304.45 140.547 295.832C138.884 291.368 137.377 286.674 135.87 281.981C135.268 279.904 135.05 277.752 134.678 275.83C134.058 276.748 133.668 277.821 133.891 278.974C134.141 288.498 132.164 297.855 131.031 307.447C130.226 313.585 130.035 319.804 131.611 325.88C133.261 332.341 135.451 338.497 137.256 344.728C137.56 345.268 138.019 345.578 138.627 346.657ZM77.1472 405.031C80.1661 401.056 82.9496 397.924 85.2741 394.483C89.9233 387.599 92.5759 380.704 89.71 372.086C88.4259 368.546 88.6795 364.708 88.1642 361.019C88.2447 360.405 87.9408 359.866 87.9469 358.867C87.2525 359.401 86.9426 359.859 86.7876 360.089C82.1384 366.972 79.1759 374.326 79.5865 382.622C80.0092 388.922 79.359 394.831 77.9401 400.889C77.5497 401.962 77.6181 403.344 77.1472 405.031ZM80.1581 427.779C80.9833 431.01 83.3521 432.944 85.721 434.878C89.392 437.358 92.908 440.067 96.5791 442.546C101.168 445.646 106.302 447.443 112.223 446.096C112.614 445.024 112.849 444.18 112.93 443.566C110.182 440.709 107.584 438.62 105.066 435.917C103.082 433.908 101.172 432.284 98.2576 431.652C95.8022 431.33 93.2723 430.623 91.0463 430.456C87.2083 430.203 83.5997 430.104 80.1581 427.779Z" fill="#FEEEF7"/>
</g>
<defs>
<clipPath id="clip0_412_4737">
<rect width="790" height="564.906" fill="white" transform="matrix(-1 0 0 1 790 0)"/>
</clipPath>
</defs>
</svg>
