<svg width="25" height="25" viewBox="0 0 25 25" fill="none" xmlns="http://www.w3.org/2000/svg">
<path fill-rule="evenodd" clip-rule="evenodd" d="M4.20124 20.043C4.31424 19.78 4.26724 19.472 4.08124 19.256C3.30024 18.35 2.68224 17.324 2.24624 16.207C1.75624 14.955 1.50724 13.638 1.50724 12.293C1.50724 6.342 6.34824 1.501 12.2992 1.501H12.3242C15.1852 1.501 17.8772 2.612 19.9032 4.632C21.9342 6.656 23.0552 9.351 23.0582 12.22V12.26C23.0582 18.214 18.2172 23.059 12.2662 23.059C10.9932 23.059 9.73924 22.83 8.54024 22.38C8.42124 22.329 8.28624 22.316 8.14024 22.341L2.81324 23.272L4.20124 20.043ZM20.9802 3.596C18.6722 1.28 15.6002 0.003 12.3322 0H12.2972L12.2962 0.001C12.2892 0.001 12.2822 0 12.2762 0C5.50724 0 0.000244141 5.518 0.000244141 12.299C0.000244141 15.037 0.937244 17.726 2.64124 19.876L0.885244 23.955C0.805244 24.14 0.803244 24.345 0.878244 24.532C0.953244 24.717 1.09424 24.861 1.27424 24.937C1.36724 24.979 1.46924 25 1.57624 25C1.61824 25 1.66024 24.997 1.70324 24.99L8.19324 23.85C9.50624 24.322 10.8662 24.554 12.2592 24.552C19.0372 24.552 24.5523 19.038 24.5523 12.26C24.5582 8.99 23.2902 5.913 20.9802 3.596ZM16.4043 14.5869C16.8173 14.5869 17.1543 14.2499 17.1543 13.8359C17.1543 13.4219 16.8173 13.0859 16.4043 13.0859H8.15434C7.74034 13.0859 7.40434 13.4219 7.40434 13.8359C7.40434 14.2499 7.74034 14.5869 8.15434 14.5869H16.4043ZM8.15484 11.2603H11.7468C12.1608 11.2603 12.4978 10.9243 12.4978 10.5103C12.4978 10.0963 12.1608 9.7603 11.7468 9.7603H8.15484C7.74084 9.7603 7.40484 10.0963 7.40484 10.5103C7.40484 10.9243 7.74084 11.2603 8.15484 11.2603Z" fill="white"/>
</svg>
