<svg width="113" height="113" viewBox="0 0 113 113" fill="none" xmlns="http://www.w3.org/2000/svg">
<g clip-path="url(#clip0_483_7281)">
<path fill-rule="evenodd" clip-rule="evenodd" d="M105.517 46.3953C109.643 46.3953 113 49.7513 113 53.8773V89.7163C113 93.3803 110.271 96.5593 106.653 97.1123L105.939 97.2203L97.1853 112.622C96.9953 112.959 96.6683 112.996 96.5363 112.996C96.3733 112.996 96.0743 112.947 95.8893 112.624L87.1233 97.2833H38.1603C34.0343 97.2833 30.6783 93.9263 30.6783 89.8013V53.8773C30.6783 53.0163 30.8233 52.1763 31.1083 51.3803C31.2173 51.0753 31.5063 50.8853 31.8123 50.8853C31.8953 50.8853 31.9793 50.8993 32.0623 50.9293C32.4493 51.0683 32.6523 51.4963 32.4923 51.9413C32.1403 52.9163 32.1403 52.9163 32.1643 61.0963C32.1793 66.3243 32.2053 75.0723 32.1703 89.8013C32.1703 93.1043 34.8573 95.7913 38.1603 95.7913H87.5553C87.8233 95.7913 88.0713 95.9343 88.2033 96.1673L96.5363 110.747L104.868 96.0833C105.001 95.8493 105.25 95.7053 105.517 95.7053C108.82 95.7053 111.507 93.0183 111.507 89.7163V53.8773C111.507 50.5743 108.82 47.8873 105.517 47.8873H82.6783C82.2673 47.8873 81.9333 47.5523 81.9333 47.1413C81.9333 46.7303 82.2673 46.3953 82.6783 46.3953H105.517ZM103.272 79.3262C103.683 79.3262 104.018 79.6602 104.018 80.0712C104.018 80.4822 103.683 80.8172 103.272 80.8172H42.6505C42.2395 80.8172 41.9045 80.4822 41.9045 80.0712C41.9045 79.6602 42.2395 79.3262 42.6505 79.3262H103.272ZM103.272 62.8604C103.683 62.8604 104.018 63.1954 104.018 63.6064C104.018 64.0174 103.683 64.3524 103.272 64.3524H42.6504C42.2394 64.3524 41.9044 64.0174 41.9044 63.6064C41.9044 63.1954 42.2394 62.8604 42.6504 62.8604H103.272Z" fill="#323232"/>
<path fill-rule="evenodd" clip-rule="evenodd" d="M7.63431 53.5115C3.31931 52.8635 0.000305176 49.1315 0.000305176 44.6385V8.97151C0.000305176 4.02451 4.0253 -0.000488281 8.9723 -0.000488281H76.3293C81.2763 -0.000488281 85.3013 4.02451 85.3013 8.97151V44.8955C85.3013 49.8435 81.2763 53.8675 76.3293 53.8675H28.2313L17.9333 71.8885L7.63431 53.5115Z" fill="#FEEEF7"/>
<path fill-rule="evenodd" clip-rule="evenodd" d="M42.6504 10.4707C51.7284 10.4707 59.1134 17.8567 59.1134 26.9337C59.1134 36.0117 51.7284 43.3967 42.6504 43.3967C33.5724 43.3967 26.1884 36.0117 26.1884 26.9337C26.1884 17.8567 33.5724 10.4707 42.6504 10.4707Z" fill="#FFD7ED"/>
<path fill-rule="evenodd" clip-rule="evenodd" d="M42.6504 10.4707C51.7284 10.4707 59.1134 17.8567 59.1134 26.9337C59.1134 36.0117 51.7284 43.3967 42.6504 43.3967C33.5724 43.3967 26.1884 36.0117 26.1884 26.9337C26.1884 17.8567 33.5724 10.4707 42.6504 10.4707ZM42.6504 11.9627C34.3954 11.9627 27.6794 18.6787 27.6794 26.9337C27.6794 35.1887 34.3954 41.9047 42.6504 41.9047C50.9054 41.9047 57.6214 35.1887 57.6214 26.9337C57.6214 18.6787 50.9054 11.9627 42.6504 11.9627ZM39.4754 31.6084C39.5914 31.6084 39.8134 31.6364 40.0034 31.8274C41.4634 33.2874 43.8394 33.2864 45.2974 31.8274C45.5884 31.5374 46.0634 31.5364 46.3534 31.8274C46.5434 32.0174 46.5714 32.2394 46.5714 32.3544C46.5714 32.4694 46.5434 32.6914 46.3534 32.8814C45.3634 33.8724 44.0484 34.4174 42.6504 34.4174C41.2524 34.4174 39.9384 33.8724 38.9484 32.8814C38.7574 32.6914 38.7294 32.4694 38.7294 32.3544C38.7294 32.2384 38.7574 32.0174 38.9474 31.8274C39.1384 31.6364 39.3604 31.6084 39.4754 31.6084ZM47.1415 21.6973C47.5525 21.6973 47.8875 22.0323 47.8875 22.4433V24.6883C47.8875 25.1003 47.5525 25.4343 47.1415 25.4343C46.7295 25.4343 46.3955 25.1003 46.3955 24.6883V22.4433C46.3955 22.0323 46.7295 21.6973 47.1415 21.6973ZM38.1601 21.6973C38.5711 21.6973 38.9061 22.0323 38.9061 22.4433V24.6883C38.9061 25.1003 38.5711 25.4343 38.1601 25.4343C37.7481 25.4343 37.4141 25.1003 37.4141 24.6883V22.4433C37.4141 22.0323 37.7481 21.6973 38.1601 21.6973Z" fill="#323232"/>
</g>
<defs>
<clipPath id="clip0_483_7281">
<rect width="113" height="113" fill="white"/>
</clipPath>
</defs>
</svg>
