<svg width="92" height="113" viewBox="0 0 92 113" fill="none" xmlns="http://www.w3.org/2000/svg">
<path fill-rule="evenodd" clip-rule="evenodd" d="M13.7734 7.95312V96.6801C13.7734 98.337 15.1166 99.6801 16.7734 99.6801H74.6184C76.2753 99.6801 77.6184 98.337 77.6184 96.6801V7.95312H64.6284V12.4761C64.6284 13.9471 63.4274 15.1481 61.9564 15.1481H29.4364C27.9644 15.1481 26.7634 13.9471 26.7634 12.4761V7.95312H13.7734Z" fill="#FEEEF7"/>
<path fill-rule="evenodd" clip-rule="evenodd" d="M23.4165 87.4277C23.0025 87.4277 22.6655 87.7647 22.6655 88.1787C22.6655 88.5927 23.0025 88.9307 23.4165 88.9307H30.6185C31.0325 88.9307 31.3695 88.5927 31.3695 88.1787C31.3695 87.7647 31.0325 87.4277 30.6185 87.4277H23.4165Z" fill="#323232"/>
<path fill-rule="evenodd" clip-rule="evenodd" d="M30.6182 68.1436H23.4162C23.0022 68.1436 22.6652 68.4806 22.6652 68.8946C22.6652 69.3086 23.0022 69.6466 23.4162 69.6466H30.6182C31.0322 69.6466 31.3692 69.3086 31.3692 68.8946C31.3692 68.4806 31.0322 68.1436 30.6182 68.1436Z" fill="#323232"/>
<path fill-rule="evenodd" clip-rule="evenodd" d="M51.1957 25.8887H40.2037C39.7887 25.8887 39.4517 26.2257 39.4517 26.6397V35.4147H30.6697C30.2557 35.4147 29.9187 35.7517 29.9187 36.1657V47.1637C29.9187 47.5777 30.2557 47.9147 30.6697 47.9147H39.4517V56.6897C39.4517 57.1037 39.7887 57.4417 40.2037 57.4417H51.1957C51.6097 57.4417 51.9477 57.1037 51.9477 56.6897V47.9147H60.7227C61.1367 47.9147 61.4747 47.5777 61.4747 47.1637V36.1657C61.4747 35.7517 61.1367 35.4147 60.7227 35.4147H51.9477V26.6397C51.9477 26.2257 51.6097 25.8887 51.1957 25.8887Z" fill="#FFD7ED"/>
<path fill-rule="evenodd" clip-rule="evenodd" d="M59.9707 36.9167V46.4127H51.1957C50.7817 46.4127 50.4437 46.7497 50.4437 47.1637V55.9387H40.9547V47.1637C40.9547 46.7497 40.6177 46.4127 40.2037 46.4127H31.4207V36.9167H40.2037C40.6177 36.9167 40.9547 36.5797 40.9547 36.1657V27.3907H50.4437V36.1657C50.4437 36.5797 50.7817 36.9167 51.1957 36.9167H59.9707ZM51.1957 25.8887H40.2037C39.7887 25.8887 39.4517 26.2257 39.4517 26.6397V35.4147H30.6697C30.2557 35.4147 29.9187 35.7517 29.9187 36.1657V47.1637C29.9187 47.5777 30.2557 47.9147 30.6697 47.9147H39.4517V56.6897C39.4517 57.1037 39.7887 57.4417 40.2037 57.4417H51.1957C51.6097 57.4417 51.9477 57.1037 51.9477 56.6897V47.9147H60.7227C61.1367 47.9147 61.4747 47.5777 61.4747 47.1637V36.1657C61.4747 35.7517 61.1367 35.4147 60.7227 35.4147H51.9477V26.6397C51.9477 26.2257 51.6097 25.8887 51.1957 25.8887Z" fill="#323232"/>
<path fill-rule="evenodd" clip-rule="evenodd" d="M31.3691 78.5372C31.3691 78.1232 31.0321 77.7852 30.6181 77.7852H23.4161C23.0021 77.7852 22.6651 78.1232 22.6651 78.5372C22.6651 78.9512 23.0021 79.2882 23.4161 79.2882H30.6181C31.0321 79.2882 31.3691 78.9512 31.3691 78.5372Z" fill="#323232"/>
<path fill-rule="evenodd" clip-rule="evenodd" d="M42.0918 88.9307H67.9758C68.3898 88.9307 68.7278 88.5927 68.7278 88.1787C68.7278 87.7647 68.3898 87.4277 67.9758 87.4277H42.0918C41.6778 87.4277 41.3408 87.7647 41.3408 88.1787C41.3408 88.5927 41.6778 88.9307 42.0918 88.9307Z" fill="#323232"/>
<path fill-rule="evenodd" clip-rule="evenodd" d="M68.7275 78.5372C68.7275 78.1232 68.3895 77.7852 67.9755 77.7852H42.0915C41.6775 77.7852 41.3405 78.1232 41.3405 78.5372C41.3405 78.9512 41.6775 79.2882 42.0915 79.2882H67.9755C68.3895 79.2882 68.7275 78.9512 68.7275 78.5372Z" fill="#323232"/>
<path fill-rule="evenodd" clip-rule="evenodd" d="M1.5024 14.479C1.5024 11.294 4.2004 8.704 7.5164 8.704H26.0124V12.475C26.0124 14.363 27.5474 15.898 29.4364 15.898H61.9564C63.8434 15.898 65.3794 14.363 65.3794 12.475V8.704H83.8814C87.1944 8.704 89.8884 11.294 89.8884 14.479V105.716C89.8884 108.903 87.1944 111.497 83.8824 111.497H7.5164C4.2004 111.497 1.5024 108.903 1.5024 105.716V14.479ZM27.5144 3.424C27.5144 2.364 28.3764 1.502 29.4364 1.502H61.9564C63.0154 1.502 63.8774 2.364 63.8774 3.424V12.475C63.8774 13.534 63.0154 14.396 61.9564 14.396H29.4364C28.3764 14.396 27.5144 13.534 27.5144 12.475V3.424ZM0.000396729 105.716C0.000396729 109.732 3.3714 113 7.5164 113H83.8814C88.0234 113 91.3924 109.732 91.3924 105.716V14.479C91.3924 10.466 88.0234 7.201 83.8814 7.201H65.3794V3.424C65.3794 1.536 63.8434 0 61.9564 0H29.4364C27.5474 0 26.0124 1.536 26.0124 3.424V7.201H7.5164C3.3714 7.201 0.000396729 10.466 0.000396729 14.479V105.716Z" fill="#323232"/>
<path fill-rule="evenodd" clip-rule="evenodd" d="M67.9756 68.1436H42.0916C41.6776 68.1436 41.3406 68.4806 41.3406 68.8946C41.3406 69.3086 41.6776 69.6466 42.0916 69.6466H67.9756C68.3896 69.6466 68.7276 69.3086 68.7276 68.8946C68.7276 68.4806 68.3896 68.1436 67.9756 68.1436Z" fill="#323232"/>
</svg>
