<svg width="115" height="113" viewBox="0 0 115 113" fill="none" xmlns="http://www.w3.org/2000/svg">
<g clip-path="url(#clip0_443_9426)">
<path fill-rule="evenodd" clip-rule="evenodd" d="M95 105C97.7614 105 100 102.761 100 100C100 72 100 44 100 16C100 13.2386 97.7614 11 95 11H6C3.23858 11 1 13.2386 1 16C1 44 1 72 1 100C1 102.761 3.23858 105 6 105H95Z" fill="white"/>
<circle cx="85" cy="83.5" r="28.5" fill="#FFD7ED"/>
<path fill-rule="evenodd" clip-rule="evenodd" d="M99.5004 33.5V15C99.5004 12.791 97.7094 11 95.5004 11H5.00043C2.79143 11 1.00043 12.791 1.00043 15V33.5H99.5004Z" fill="#FEEEF7"/>
<path fill-rule="evenodd" clip-rule="evenodd" d="M22.017 1.494C18.874 1.494 16.316 4.052 16.316 7.195V10.004H27.718V7.195C27.718 4.052 25.16 1.494 22.017 1.494ZM77.53 1.494C74.39 1.494 71.837 4.052 71.837 7.195V10.004H83.23V7.195C83.23 4.052 80.674 1.494 77.53 1.494ZM85.691 44.548H73.481V56.096L75.542 55.387C78.321 54.43 81.229 53.897 84.187 53.801L85.691 53.752V44.548ZM14.247 56.759H26.458V44.549H14.247V56.759ZM43.864 56.759H56.075V44.549H43.864V56.759ZM27.205 43.054C27.618 43.054 27.953 43.389 27.953 43.801V57.507C27.953 57.919 27.618 58.254 27.205 58.254H13.5C13.087 58.254 12.752 57.919 12.752 57.507V43.801C12.752 43.389 13.087 43.054 13.5 43.054H27.205ZM56.821 43.054C57.233 43.054 57.568 43.389 57.568 43.801V57.507C57.568 57.919 57.233 58.254 56.821 58.254H43.117C42.704 58.254 42.37 57.919 42.37 57.507V43.801C42.37 43.389 42.704 43.054 43.117 43.054H56.821ZM14.247 87.684H26.458V75.475H14.247V87.684ZM56.557 75.477H43.864V87.694H55.81L55.661 86.004C55.585 85.134 55.546 84.255 55.546 83.39C55.546 81.363 55.755 79.33 56.167 77.348L56.557 75.477ZM27.205 73.98C27.618 73.98 27.953 74.316 27.953 74.727V88.432C27.953 88.845 27.618 89.181 27.205 89.181H13.5C13.087 89.181 12.752 88.845 12.752 88.432V74.727C12.752 74.316 13.087 73.98 13.5 73.98H27.205ZM14.822 11.499H4.892C3.019 11.499 1.495 13.023 1.495 14.896V100.522C1.495 102.396 3.019 103.919 4.892 103.919H63.607L61.682 101.416C59.141 98.115 57.358 94.401 56.381 90.377L56.092 89.19H43.117C42.704 89.19 42.369 88.853 42.369 88.442V74.73C42.369 74.317 42.704 73.983 43.117 73.983H57.062L57.442 72.976C59.972 66.273 64.846 60.706 71.169 57.303L71.986 56.863V43.801C71.986 43.389 72.321 43.054 72.733 43.054H86.438C86.85 43.054 87.186 43.389 87.186 43.801V53.822L88.563 53.981C91.224 54.286 93.828 54.953 96.302 55.961L98.443 56.834V14.896C98.443 13.023 96.92 11.499 95.047 11.499H71.837V16.86C71.837 20.004 74.39 22.562 77.53 22.562C77.942 22.562 78.278 22.897 78.278 23.309C78.278 23.721 77.942 24.056 77.53 24.056C73.566 24.056 70.341 20.828 70.341 16.86V11.499H16.316V16.86C16.316 20.004 18.874 22.562 22.017 22.562C22.429 22.562 22.764 22.897 22.764 23.309C22.764 23.721 22.429 24.056 22.017 24.056C18.049 24.056 14.822 20.828 14.822 16.86V11.499ZM85.159 55.278C69.654 55.278 57.04 67.89 57.04 83.39C57.04 98.896 69.654 111.509 85.159 111.509C100.664 111.509 113.278 98.896 113.278 83.39C113.278 67.89 100.664 55.278 85.159 55.278ZM77.53 0C81.498 0 84.725 3.228 84.725 7.195V10.004H95.047C97.744 10.004 99.938 12.199 99.938 14.896V57.728L100.676 58.184C109.503 63.637 114.773 73.059 114.773 83.39C114.773 99.72 101.488 113.004 85.159 113.004C78.061 113.004 71.191 110.442 65.814 105.793L65.376 105.414H4.892C2.195 105.414 0 103.219 0 100.522V14.896C0 12.199 2.195 10.004 4.892 10.004H14.822V7.195C14.822 3.228 18.049 0 22.017 0C25.985 0 29.212 3.228 29.212 7.195V10.004H70.341V7.195C70.341 3.228 73.566 0 77.53 0Z" fill="#323232"/>
<path fill-rule="evenodd" clip-rule="evenodd" d="M100.026 73.449C100.319 73.157 100.794 73.157 101.087 73.449C101.352 73.716 101.377 74.133 101.159 74.426L101.087 74.511L80.1168 95.48C79.8498 95.746 79.4328 95.77 79.1398 95.553L79.0558 95.48L69.0568 85.481C68.7638 85.188 68.7638 84.714 69.0568 84.421C69.3238 84.154 69.7398 84.13 70.0338 84.348L70.1178 84.421L79.5858 93.888L100.026 73.449Z" fill="#323232"/>
</g>
<defs>
<clipPath id="clip0_443_9426">
<rect width="115" height="113" fill="white"/>
</clipPath>
</defs>
</svg>
