<svg width="113" height="113" viewBox="0 0 113 113" fill="none" xmlns="http://www.w3.org/2000/svg">
<g clip-path="url(#clip0_483_7288)">
<path fill-rule="evenodd" clip-rule="evenodd" d="M16.8228 73.8156L54.2348 86.4536L56.4998 88.7576L58.7658 86.4526L96.1768 73.8156C95.5358 68.7576 94.2958 64.2076 92.8148 59.9126H20.1848C18.7048 64.2076 17.4638 68.7576 16.8228 73.8156Z" fill="#FFD7ED"/>
<path fill-rule="evenodd" clip-rule="evenodd" d="M8.7144 47.7845C4.7374 47.7845 1.5024 44.5475 1.5024 40.5695V30.2885L3.8624 31.8775C5.3014 32.8455 6.9794 33.3575 8.7144 33.3575H13.9374V39.4315C13.9374 39.8465 14.2744 40.1835 14.6884 40.1835C15.1024 40.1835 15.4394 39.8465 15.4394 39.4315V33.3575H27.8744V39.4315C27.8744 39.8465 28.2114 40.1835 28.6254 40.1835C29.0394 40.1835 29.3764 39.8465 29.3764 39.4315V33.3575H41.8114V39.4315C41.8114 39.8465 42.1484 40.1835 42.5624 40.1835C42.9774 40.1835 43.3144 39.8465 43.3144 39.4315V33.3575H55.7494V39.4315C55.7494 39.8465 56.0864 40.1835 56.5004 40.1835C56.9144 40.1835 57.2514 39.8465 57.2514 39.4315V33.3575H69.6854V39.4315C69.6854 39.8465 70.0234 40.1835 70.4374 40.1835C70.8514 40.1835 71.1894 39.8465 71.1894 39.4315V33.3575H83.6224V39.4315C83.6224 39.8465 83.9604 40.1835 84.3744 40.1835C84.7884 40.1835 85.1254 39.8465 85.1254 39.4315V33.3575H97.5604V39.4315C97.5604 39.8465 97.8974 40.1835 98.3114 40.1835C98.7254 40.1835 99.0634 39.8465 99.0634 39.4315V33.3575H104.285C106.028 33.3575 107.706 32.8485 109.137 31.8865L111.497 30.2985V40.5695C111.497 44.5475 108.262 47.7845 104.285 47.7845H8.7144ZM95.4894 74.3775C95.6324 75.5805 95.7364 76.7775 95.8014 77.9325C96.4004 88.4995 94.0324 99.5015 88.7644 110.63L88.3544 111.496H57.2514V88.0498L56.5004 88.8175L55.7494 88.0498V111.496H24.6454L24.2354 110.63C18.9664 99.5005 16.5994 88.4985 17.1984 77.9305C17.2624 76.7775 17.3674 75.5805 17.5104 74.3775C18.0774 69.6005 19.2364 64.8435 21.1574 59.4075C22.2014 56.4495 23.3384 53.6375 24.4384 50.9175L25.1024 49.2865H87.8934L88.5614 50.9175C89.6094 53.5065 90.7954 56.4395 91.8424 59.4085C93.7634 64.8455 94.9224 69.6025 95.4894 74.3775ZM29.0404 17.4305L29.2084 18.7545C29.7164 22.7475 29.7014 26.6045 29.1634 30.5455L28.9844 31.8555H8.7144C4.7374 31.8555 1.5024 28.6195 1.5024 24.6425C1.5024 20.6655 4.7374 17.4305 8.7144 17.4305H29.0404ZM25.4744 1.50151H87.5264L86.5604 3.63951C82.6694 12.2525 81.1864 21.4205 82.2704 30.1535L82.4814 31.8555H30.5184L30.7304 30.1535C31.8134 21.4215 30.3304 12.2525 26.4404 3.63951L25.4744 1.50151ZM104.285 17.4305C108.262 17.4305 111.497 20.6655 111.497 24.6425C111.497 28.6195 108.262 31.8555 104.285 31.8555H84.0154L83.8364 30.5455C83.2984 26.6065 83.2834 22.7495 83.7914 18.7545L83.9594 17.4305H104.285ZM113 24.6425C113 19.8375 109.091 15.9285 104.285 15.9285H84.1974L84.6184 14.0775C85.6274 9.64051 87.2634 5.27551 89.4794 1.10251C89.6044 0.867512 89.5974 0.591512 89.4594 0.364512C89.3224 0.135512 89.0814 -0.000488281 88.8164 -0.000488281H24.1834C23.8014 -0.000488281 23.6074 0.254512 23.5404 0.364512C23.4594 0.500512 23.3474 0.777512 23.5204 1.10151C25.7364 5.27351 27.3714 9.63951 28.3814 14.0775L28.8014 15.9285H8.7144C6.3864 15.9285 4.1974 16.8345 2.5524 18.4805C0.906397 20.1265 0.000396729 22.3145 0.000396729 24.6425V40.5695C0.000396729 45.3765 3.9094 49.2865 8.7144 49.2865H23.4764L22.6354 51.3685C19.8174 58.3515 16.3104 67.0425 15.6974 77.8465C15.0624 89.0955 17.6904 100.782 23.5094 112.58C23.6374 112.838 23.8964 113 24.1834 113H88.8164C89.1044 113 89.3624 112.838 89.4904 112.579C95.3104 100.782 97.9384 89.0955 97.3024 77.8465C96.6894 67.0435 93.1824 58.3525 90.3634 51.3685L89.5244 49.2865H104.285C109.091 49.2865 113 45.3765 113 40.5695V24.6425Z" fill="#323232"/>
</g>
<defs>
<clipPath id="clip0_483_7288">
<rect width="113" height="113" fill="white"/>
</clipPath>
</defs>
</svg>
