<svg width="81" height="113" viewBox="0 0 81 113" fill="none" xmlns="http://www.w3.org/2000/svg">
<path fill-rule="evenodd" clip-rule="evenodd" d="M53.2773 80.6955C53.5243 80.5855 53.6313 80.3865 53.6733 80.2785C53.7143 80.1705 53.7673 79.9515 53.6573 79.7045C53.5463 79.4565 53.3473 79.3495 53.2393 79.3075C53.1323 79.2675 52.9143 79.2115 52.6663 79.3245C44.8993 82.7885 35.9973 82.7805 28.2413 79.2975C27.8653 79.1285 27.4183 79.2975 27.2483 79.6745C27.0793 80.0525 27.2483 80.4985 27.6263 80.6685C35.7703 84.3245 45.1213 84.3355 53.2773 80.6955Z" fill="#323232"/>
<path fill-rule="evenodd" clip-rule="evenodd" d="M30.2119 67.8486C28.6769 69.9506 26.1909 71.2916 23.4409 71.2916C12.1989 71.2916 0.750916 80.4266 0.750916 91.7696V112.249H30.1599C30.1609 110.83 30.2109 69.1096 30.2119 67.8486Z" fill="#FFD7ED"/>
<path fill-rule="evenodd" clip-rule="evenodd" d="M80.1631 112.249V91.7701C80.1631 80.4961 68.7971 71.2921 57.4751 71.2921C54.7831 71.2921 52.2791 70.0041 50.7051 67.8491V112.249H80.1631Z" fill="#FFD7ED"/>
<path fill-rule="evenodd" clip-rule="evenodd" d="M1.502 91.7695C1.502 80.4785 13.085 72.0425 23.44 72.0425C27.742 72.0425 31.501 68.9905 32.379 64.7855L33.045 61.6105L34.626 62.0865C38.401 63.2245 42.536 63.2175 46.275 62.0665L47.861 61.5785L48.535 64.7825C49.416 68.9895 53.175 72.0425 57.475 72.0425C67.83 72.0425 79.412 80.4785 79.412 91.7695V111.497H67.377V103.147C67.377 102.733 67.039 102.396 66.625 102.396C66.211 102.396 65.874 102.733 65.874 103.147V111.497H15.041V103.147C15.041 102.733 14.704 102.396 14.289 102.396C13.875 102.396 13.538 102.733 13.538 103.147V111.497H1.502V91.7695ZM12.765 44.7355H20.412L20.613 46.0155C21.56 52.0325 25.322 57.4135 30.677 60.4085L31.648 60.9525L30.908 64.4775C30.174 67.9905 27.034 70.5405 23.44 70.5405C20.606 70.5405 17.63 71.1195 14.833 72.2135L12.765 73.0225V44.7355ZM12.765 43.2335H20.365V33.3585H12.765V43.2335ZM60.55 43.2335H68.149V33.3585H60.55V43.2335ZM50.22 60.3645C55.506 57.3705 59.262 52.0005 60.267 46.0005L60.479 44.7365H68.148V73.0215L66.082 72.2125C63.286 71.1185 60.31 70.5405 57.475 70.5405C53.883 70.5405 50.741 67.9895 50.006 64.4735L49.256 60.9105L50.22 60.3645ZM48.421 51.5625C50.547 51.5625 52.642 50.9985 54.48 49.9335L58.7 47.0232C58.2965 48.5251 57.5815 50.1825 56.555 51.9955C53.636 57.1055 48.663 60.4835 42.912 61.2615C42.065 61.3755 41.219 61.4325 40.38 61.4325C35.515 61.4325 30.872 59.5305 27.351 56.0285C23.814 52.5115 21.867 47.8305 21.867 42.8475V32.6075C21.867 29.2585 24.592 26.5325 27.942 26.5325H39.319C41.493 26.5325 43.566 25.5935 45.008 23.9545L46.146 22.6615L47.283 23.9545C48.726 25.5925 50.799 26.5325 52.972 26.5325C56.321 26.5325 59.047 29.2585 59.047 32.6075V39.4345C59.047 45.2925 54.28 50.0605 48.421 50.0605H40.457C40.043 50.0605 39.706 50.3965 39.706 50.8115C39.706 51.2255 40.043 51.5625 40.457 51.5625H48.421ZM12.765 29.1945C12.765 13.9255 25.188 1.50249 40.457 1.50249C55.727 1.50249 68.148 13.9255 68.148 29.1945V31.8565H60.606L60.313 30.7195C59.449 27.3705 56.432 25.0305 52.973 25.0305C49.623 25.0305 46.898 22.3055 46.898 18.9555C46.898 18.5405 46.561 18.2045 46.147 18.2045C45.732 18.2045 45.395 18.5405 45.395 18.9555C45.395 22.3055 42.669 25.0305 39.319 25.0305H27.942C24.483 25.0305 21.465 27.3705 20.603 30.7195L20.31 31.8565H12.765V29.1945ZM80.163 112.999C80.577 112.999 80.915 112.663 80.915 112.248V91.7695C80.915 85.0165 76.97 78.5105 70.362 74.3675L69.652 73.9215V29.1945C69.652 13.0965 56.556 0.000488281 40.457 0.000488281C24.359 0.000488281 11.263 13.0965 11.263 29.1945V73.9235L10.552 74.3695C3.944 78.5085 0 85.0135 0 91.7695V112.248C0 112.663 0.337 112.999 0.751 112.999H80.163ZM33.2666 34.8837C33.2666 34.4697 32.9296 34.1327 32.5156 34.1327C32.1016 34.1327 31.7646 34.4697 31.7646 34.8837V37.1587C31.7646 37.5727 32.1016 37.9097 32.5156 37.9097C32.9296 37.9097 33.2666 37.5727 33.2666 37.1587V34.8837ZM49.1504 34.8837C49.1504 34.4697 48.8124 34.1327 48.3984 34.1327C47.9844 34.1327 47.6464 34.4697 47.6464 34.8837V37.1587C47.6464 37.5727 47.9844 37.9097 48.3984 37.9097C48.8124 37.9097 49.1504 37.5727 49.1504 37.1587V34.8837Z" fill="#323232"/>
</svg>
