<svg width="19" height="19" viewBox="0 0 19 19" fill="none" xmlns="http://www.w3.org/2000/svg">
<circle cx="9.05172" cy="9.05172" r="8.05172" stroke="#F295D2" stroke-width="2"/>
<path fill-rule="evenodd" clip-rule="evenodd" d="M12.461 5.1386C12.2464 5.23165 12.2793 5.19436 10.0446 7.87221C8.9557 9.17695 8.03342 10.2515 7.99512 10.2601C7.95683 10.2688 7.44483 9.93719 6.85735 9.52335C6.26992 9.10945 5.69468 8.73887 5.5791 8.69979C5.00381 8.50542 4.34183 8.96661 4.34572 9.55911C4.34714 9.77634 4.49991 10.1067 4.66596 10.2517C5.04904 10.586 7.34649 12.1671 7.54533 12.2332C8.05701 12.4035 8.65736 12.2858 9.04149 11.94C9.31077 11.6975 13.5529 6.60379 13.6792 6.37115C13.8011 6.14668 13.7822 5.77548 13.6359 5.52005C13.4167 5.13722 12.8721 4.96045 12.461 5.1386Z" fill="#F295D2"/>
</svg>
