<svg width="177" height="150" viewBox="0 0 177 150" fill="none" xmlns="http://www.w3.org/2000/svg">
<path fill-rule="evenodd" clip-rule="evenodd" d="M105.74 137.922C113.458 145.641 123.924 149.983 134.84 149.995L134.83 150C145.585 150.005 155.914 145.803 163.611 138.291C171.307 130.779 175.758 120.554 176.013 109.803C176.268 99.0512 172.306 88.6267 164.975 80.7585C157.643 72.8903 147.524 68.2029 136.782 67.6988C129.154 37.1025 140.317 3.66453 140.433 3.32253C140.623 2.76135 140.609 2.15096 140.394 1.59905C140.178 1.04713 139.774 0.589151 139.254 0.305891C138.733 0.0226314 138.129 -0.0677075 137.549 0.0508111C136.968 0.16933 136.448 0.489091 136.08 0.953688C95.2337 52.6836 92.7894 93.0545 93.6344 108.007C93.6395 108.098 93.6448 108.181 93.6497 108.257C93.6593 108.406 93.667 108.526 93.667 108.615V108.822C93.679 119.738 98.0207 130.203 105.74 137.922ZM12.228 137.922C19.9469 145.641 30.4125 149.983 41.3286 149.995L41.3185 150C52.073 150.006 62.4028 145.803 70.099 138.291C77.7951 130.779 82.2466 120.554 82.5015 109.803C82.7565 99.0513 78.7946 88.6269 71.4631 80.7586C64.1317 72.8904 54.0126 68.2031 43.2699 67.6989C35.6428 37.1026 46.8056 3.66465 46.9213 3.32265C47.1116 2.76146 47.0977 2.15107 46.8819 1.59916C46.6662 1.04725 46.2624 0.589264 45.7419 0.306004C45.2214 0.0227443 44.6175 -0.0675947 44.0369 0.0509239C43.4563 0.169443 42.9362 0.489204 42.5683 0.953801C1.72207 52.6837 -0.722215 93.0547 0.122724 108.007C0.127815 108.098 0.133193 108.181 0.138083 108.257C0.147687 108.406 0.155415 108.526 0.155415 108.616V108.822C0.167397 119.738 4.50912 130.204 12.228 137.922Z" fill="#FEEEF7"/>
</svg>
