<svg width="47" height="40" viewBox="0 0 47 40" fill="none" xmlns="http://www.w3.org/2000/svg">
<path fill-rule="evenodd" clip-rule="evenodd" d="M28.1973 36.7793C30.2557 38.8376 33.0465 39.9954 35.9575 39.9986L35.9548 40C38.8227 40.0015 41.5773 38.8808 43.6296 36.8776C45.6819 34.8744 46.869 32.1478 46.9369 29.2807C47.0049 26.4137 45.9484 23.6338 43.9934 21.5356C42.0383 19.4374 39.3399 18.1875 36.4752 18.053C34.4413 9.894 37.418 0.977209 37.4489 0.886009C37.4996 0.73636 37.4959 0.57359 37.4384 0.426413C37.3808 0.279235 37.2732 0.157107 37.1344 0.081571C36.9956 0.00603505 36.8345 -0.0180553 36.6797 0.0135496C36.5249 0.0451546 36.3862 0.130424 36.2881 0.254317C25.3957 14.0489 24.7439 24.8145 24.9692 28.8019C24.9706 28.8261 24.972 28.8483 24.9733 28.8685C24.9759 28.9082 24.978 28.9401 24.978 28.9641V29.0191C24.9812 31.9301 26.139 34.7209 28.1973 36.7793ZM3.2608 36.7794C5.31916 38.8378 8.10999 39.9955 11.021 39.9987L11.0183 40.0001C13.8861 40.0016 16.6408 38.8809 18.6931 36.8777C20.7454 34.8746 21.9324 32.1479 22.0004 29.2808C22.0684 26.4138 21.0119 23.6339 19.0568 21.5357C17.1018 19.4375 14.4034 18.1876 11.5386 18.0531C9.50476 9.89411 12.4815 0.977322 12.5123 0.886122C12.5631 0.736472 12.5594 0.573703 12.5019 0.426525C12.4443 0.279348 12.3366 0.15722 12.1978 0.0816838C12.059 0.00614787 11.898 -0.0179425 11.7432 0.0136625C11.5883 0.0452674 11.4497 0.130537 11.3516 0.25443C0.45922 14.0491 -0.192591 24.8147 0.0327265 28.802C0.0340841 28.8262 0.035518 28.8484 0.0368222 28.8686C0.0393833 28.9083 0.0414441 28.9403 0.0414441 28.9642V29.0192C0.0446391 31.9302 1.20243 34.721 3.2608 36.7794Z" fill="#F295D2" fill-opacity="0.17"/>
</svg>
