<svg width="111" height="120" viewBox="0 0 111 120" fill="none" xmlns="http://www.w3.org/2000/svg">
<path d="M105 1H6C3.23858 1 1 3.23858 1 6V114C1 116.761 3.23858 119 6 119H105C107.761 119 110 116.761 110 114V6C110 3.23858 107.761 1 105 1Z" stroke="#E88EC8" stroke-width="2" stroke-miterlimit="10"/>
<path d="M31.0156 36.5508C34.1782 48.9732 36.311 70.0835 24.6167 95.4001" stroke="#E88EC8" stroke-width="2" stroke-miterlimit="10" stroke-linecap="round" stroke-linejoin="round"/>
<path d="M56.4267 89.0711C57.5234 89.0711 58.4125 88.1207 58.4125 86.9482C58.4125 85.7758 57.5234 84.8254 56.4267 84.8254C55.3299 84.8254 54.4409 85.7758 54.4409 86.9482C54.4409 88.1207 55.3299 89.0711 56.4267 89.0711Z" fill="#E88EC8"/>
<path d="M56.4268 24.6001C56.4268 24.6001 56.6842 38.2019 44.2544 40.4426C41.0918 40.993 36.8995 40.2461 35.0976 39.4991C27.8897 36.5901 26.9336 26.6443 26.9336 26.6443" stroke="#E88EC8" stroke-width="2" stroke-miterlimit="10" stroke-linecap="round" stroke-linejoin="round"/>
<path d="M81.8016 36.5508C78.639 48.9732 76.506 70.1228 88.2004 95.4001" stroke="#E88EC8" stroke-width="2" stroke-miterlimit="10" stroke-linecap="round" stroke-linejoin="round"/>
<path d="M56.4267 24.6001C56.4267 24.6001 56.1694 38.2019 68.5992 40.4426C71.7618 40.993 75.954 40.2461 77.756 39.4991C84.9638 36.5901 85.92 26.6443 85.92 26.6443" stroke="#E88EC8" stroke-width="2" stroke-miterlimit="10" stroke-linecap="round" stroke-linejoin="round"/>
<path d="M32.5239 32.6593C32.5239 32.6593 44.3654 36.0813 52.3823 31.4006" stroke="black" stroke-width="0.5" stroke-miterlimit="10" stroke-linecap="round" stroke-linejoin="round" stroke-dasharray="4 4"/>
<path d="M80.3299 32.6593C80.3299 32.6593 68.4885 36.0813 60.4717 31.4006" stroke="black" stroke-width="0.5" stroke-miterlimit="10" stroke-linecap="round" stroke-linejoin="round" stroke-dasharray="4 4"/>
<path d="M47.8328 60.7742C47.9237 61.035 48.2088 61.1726 48.4695 61.0817C48.7303 60.9908 48.8679 60.7057 48.777 60.4449L47.8328 60.7742ZM43.9122 46.9401C43.6636 46.82 43.3646 46.9243 43.2446 47.173L41.2878 51.2253C41.1678 51.474 41.272 51.7729 41.5207 51.893C41.7694 52.013 42.0683 51.9088 42.1884 51.6601L43.9277 48.0581L47.5297 49.7974C47.7784 49.9174 48.0773 49.8132 48.1974 49.5645C48.3175 49.3158 48.2132 49.0169 47.9646 48.8968L43.9122 46.9401ZM43.5108 48.3812C43.6018 48.642 43.8869 48.7796 44.1476 48.6887C44.4083 48.5978 44.546 48.3127 44.4551 48.0519L43.5108 48.3812ZM45.0313 49.7043C44.9404 49.4436 44.6553 49.3059 44.3946 49.3969C44.1338 49.4878 43.9962 49.7729 44.0871 50.0336L45.0313 49.7043ZM44.6634 51.686C44.7543 51.9468 45.0394 52.0844 45.3001 51.9935C45.5609 51.9026 45.6985 51.6175 45.6076 51.3567L44.6634 51.686ZM46.1838 53.0091C46.0929 52.7484 45.8078 52.6107 45.5471 52.7017C45.2863 52.7926 45.1487 53.0777 45.2396 53.3384L46.1838 53.0091ZM45.8159 54.9908C45.9068 55.2516 46.1919 55.3892 46.4526 55.2983C46.7134 55.2074 46.851 54.9223 46.7601 54.6615L45.8159 54.9908ZM47.3364 56.3139C47.2454 56.0532 46.9603 55.9155 46.6996 56.0065C46.4389 56.0974 46.3012 56.3825 46.3921 56.6432L47.3364 56.3139ZM46.9684 58.2956C47.0593 58.5564 47.3444 58.694 47.6051 58.6031C47.8659 58.5122 48.0035 58.2271 47.9126 57.9663L46.9684 58.2956ZM48.4889 59.6187C48.3979 59.358 48.1129 59.2203 47.8521 59.3113C47.5914 59.4022 47.4537 59.6873 47.5446 59.948L48.4889 59.6187ZM43.2227 47.555L43.5108 48.3812L44.4551 48.0519L44.1669 47.2257L43.2227 47.555ZM44.0871 50.0336L44.6634 51.686L45.6076 51.3567L45.0313 49.7043L44.0871 50.0336ZM45.2396 53.3384L45.8159 54.9908L46.7601 54.6615L46.1838 53.0091L45.2396 53.3384ZM46.3921 56.6432L46.9684 58.2956L47.9126 57.9663L47.3364 56.3139L46.3921 56.6432ZM47.5446 59.948L47.8328 60.7742L48.777 60.4449L48.4889 59.6187L47.5446 59.948Z" fill="black"/>
<path d="M64.1667 60.7742C64.0758 61.035 63.7907 61.1726 63.53 61.0817C63.2692 60.9908 63.1316 60.7057 63.2225 60.4449L64.1667 60.7742ZM68.0873 46.9401C68.3359 46.82 68.6349 46.9243 68.7549 47.173L70.7117 51.2253C70.8317 51.474 70.7275 51.7729 70.4788 51.893C70.2302 52.013 69.9312 51.9088 69.8112 51.6601L68.0718 48.0581L64.4698 49.7974C64.2211 49.9174 63.9222 49.8132 63.8021 49.5645C63.682 49.3158 63.7863 49.0169 64.035 48.8968L68.0873 46.9401ZM68.4887 48.3812C68.3977 48.642 68.1127 48.7796 67.8519 48.6887C67.5912 48.5978 67.4535 48.3127 67.5444 48.0519L68.4887 48.3812ZM66.9682 49.7043C67.0591 49.4436 67.3442 49.3059 67.6049 49.3969C67.8657 49.4878 68.0033 49.7729 67.9124 50.0336L66.9682 49.7043ZM67.3362 51.686C67.2452 51.9468 66.9601 52.0844 66.6994 51.9935C66.4387 51.9026 66.301 51.6175 66.3919 51.3567L67.3362 51.686ZM65.8157 53.0091C65.9066 52.7484 66.1917 52.6107 66.4524 52.7017C66.7132 52.7926 66.8508 53.0777 66.7599 53.3384L65.8157 53.0091ZM66.1836 54.9908C66.0927 55.2516 65.8076 55.3892 65.5469 55.2983C65.2861 55.2074 65.1485 54.9223 65.2394 54.6615L66.1836 54.9908ZM64.6632 56.3139C64.7541 56.0532 65.0392 55.9155 65.2999 56.0065C65.5607 56.0974 65.6983 56.3825 65.6074 56.6432L64.6632 56.3139ZM65.0311 58.2956C64.9402 58.5564 64.6551 58.694 64.3944 58.6031C64.1336 58.5122 63.996 58.2271 64.0869 57.9663L65.0311 58.2956ZM63.5106 59.6187C63.6016 59.358 63.8867 59.2203 64.1474 59.3113C64.4081 59.4022 64.5458 59.6873 64.4549 59.948L63.5106 59.6187ZM68.7768 47.555L68.4887 48.3812L67.5444 48.0519L67.8326 47.2257L68.7768 47.555ZM67.9124 50.0336L67.3362 51.686L66.3919 51.3567L66.9682 49.7043L67.9124 50.0336ZM66.7599 53.3384L66.1836 54.9908L65.2394 54.6615L65.8157 53.0091L66.7599 53.3384ZM65.6074 56.6432L65.0311 58.2956L64.0869 57.9663L64.6632 56.3139L65.6074 56.6432ZM64.4549 59.948L64.1667 60.7742L63.2225 60.4449L63.5106 59.6187L64.4549 59.948Z" fill="black"/>
</svg>
