<svg width="111" height="121" viewBox="0 0 111 121" fill="none" xmlns="http://www.w3.org/2000/svg">
<path d="M105 1H6C3.23858 1 1 3.23858 1 6V115C1 117.761 3.23858 120 6 120H105C107.761 120 110 117.761 110 115V6C110 3.23858 107.761 1 105 1Z" stroke="#E88EC8" stroke-width="2" stroke-miterlimit="10"/>
<path d="M50.8423 90.8014C51.3572 89.4535 53.1961 85.4494 53.1961 82.8328L53.4904 77.7583" stroke="#E88EC8" stroke-width="2" stroke-miterlimit="10" stroke-linecap="round" stroke-linejoin="round"/>
<path d="M63.0904 72.6043C60.5526 75.6173 57.2057 77.4806 53.5645 77.4806C42.4572 77.4806 39 65.7458 39 54.6849C42.6779 50.5619 45.6203 45.6856 47.6799 40.3732C47.9373 39.6993 48.1948 39.065 48.3787 38.5892L53.9691 24H74.3815C75.8159 24 76.9561 25.229 76.9561 26.7751V37.2017V92.6249C76.9561 94.171 75.8159 95.4 74.3815 95.4H50.2912C49.813 95.4 49.482 94.845 49.6659 94.3692L50.9164 90.8409" stroke="#E88EC8" stroke-width="2" stroke-miterlimit="10" stroke-linecap="round" stroke-linejoin="round"/>
<path d="M38.5 90C38.5 90.2761 38.7239 90.5 39 90.5C39.2761 90.5 39.5 90.2761 39.5 90L38.5 90ZM39.3536 75.6464C39.1583 75.4512 38.8417 75.4512 38.6464 75.6464L35.4645 78.8284C35.2692 79.0237 35.2692 79.3403 35.4645 79.5355C35.6597 79.7308 35.9763 79.7308 36.1716 79.5355L39 76.7071L41.8284 79.5355C42.0237 79.7308 42.3403 79.7308 42.5355 79.5355C42.7308 79.3403 42.7308 79.0237 42.5355 78.8284L39.3536 75.6464ZM38.5 76.875C38.5 77.1511 38.7239 77.375 39 77.375C39.2761 77.375 39.5 77.1511 39.5 76.875L38.5 76.875ZM39.5 78.625C39.5 78.3489 39.2761 78.125 39 78.125C38.7239 78.125 38.5 78.3489 38.5 78.625L39.5 78.625ZM38.5 80.375C38.5 80.6511 38.7239 80.875 39 80.875C39.2761 80.875 39.5 80.6511 39.5 80.375L38.5 80.375ZM39.5 82.125C39.5 81.8489 39.2761 81.625 39 81.625C38.7239 81.625 38.5 81.8489 38.5 82.125L39.5 82.125ZM38.5 83.875C38.5 84.1511 38.7239 84.375 39 84.375C39.2761 84.375 39.5 84.1511 39.5 83.875L38.5 83.875ZM39.5 85.625C39.5 85.3489 39.2761 85.125 39 85.125C38.7239 85.125 38.5 85.3489 38.5 85.625L39.5 85.625ZM38.5 87.375C38.5 87.6511 38.7239 87.875 39 87.875C39.2761 87.875 39.5 87.6511 39.5 87.375L38.5 87.375ZM39.5 89.125C39.5 88.8489 39.2761 88.625 39 88.625C38.7239 88.625 38.5 88.8489 38.5 89.125L39.5 89.125ZM38.5 76L38.5 76.875L39.5 76.875L39.5 76L38.5 76ZM38.5 78.625L38.5 80.375L39.5 80.375L39.5 78.625L38.5 78.625ZM38.5 82.125L38.5 83.875L39.5 83.875L39.5 82.125L38.5 82.125ZM38.5 85.625L38.5 87.375L39.5 87.375L39.5 85.625L38.5 85.625ZM38.5 89.125L38.5 90L39.5 90L39.5 89.125L38.5 89.125Z" fill="black"/>
</svg>
