<svg width="111" height="121" viewBox="0 0 111 121" fill="none" xmlns="http://www.w3.org/2000/svg">
<path d="M105 1H6C3.23858 1 1 3.23858 1 6V115C1 117.761 3.23858 120 6 120H105C107.761 120 110 117.761 110 115V6C110 3.23858 107.761 1 105 1Z" stroke="#E88EC8" stroke-width="2" stroke-miterlimit="10"/>
<path d="M60.27 91.6012C60.7849 90.2533 62.6239 86.2492 62.6239 83.6326L62.9181 78.5581" stroke="#E88EC8" stroke-width="2" stroke-miterlimit="10" stroke-linecap="round" stroke-linejoin="round"/>
<path d="M72.5186 73.4041C69.9808 76.4171 66.6339 78.2804 62.9927 78.2804C51.8854 78.2804 48.4282 66.5456 48.4282 55.4848C52.1061 51.3617 55.0485 46.4854 57.1081 41.173C57.3656 40.4991 57.623 39.8648 57.8069 39.389L63.3973 24.7998H83.8098C85.2442 24.7998 86.3843 26.0288 86.3843 27.5749V38.0015V93.4247C86.3843 94.9708 85.2442 96.1998 83.8098 96.1998H59.7194C59.2413 96.1998 58.9103 95.6448 59.0942 95.169L60.3446 91.6407" stroke="#E88EC8" stroke-width="2" stroke-miterlimit="10" stroke-linecap="round" stroke-linejoin="round"/>
<path d="M59.5005 23.5C56.9627 28.5349 51.0005 44.5 41.697 53.0667C41.182 53.7803 40.8878 54.6525 40.9614 55.5246C41.2924 59.6477 42.1383 72.9286 49.1264 80.4611" stroke="black" stroke-linecap="round" stroke-linejoin="round" stroke-dasharray="2.64 2.64"/>
<path d="M51.6279 82.7207C53.0991 83.7917 54.7542 84.6247 56.6299 85.18" stroke="black" stroke-linecap="round" stroke-linejoin="round"/>
</svg>
