<svg width="426" height="350" viewBox="0 0 426 350" fill="none" xmlns="http://www.w3.org/2000/svg">
<path d="M237.141 268.013C248.216 266.351 258.737 263.86 269.535 260.537C294.73 252.785 317.711 241.156 339.584 226.482C348.721 220.391 357.58 214.022 366.717 207.931C366.994 207.654 367.271 207.654 367.825 207.931C366.44 209.039 365.333 210.146 363.949 210.977C343.183 226.759 321.587 241.156 297.776 251.677C282.548 258.599 266.489 264.136 249.877 267.182C245.724 268.013 241.571 268.29 237.418 268.843C237.141 268.566 237.141 268.29 237.141 268.013Z" fill="#FEEEF7"/>
<path d="M281.994 101.059C277.564 109.088 272.857 117.118 268.427 125.424C255.137 149.235 239.632 171.385 224.128 193.812C218.59 201.841 213.33 210.424 208.069 218.453C207.238 219.838 206.408 221.222 205.023 222.33C205.577 221.222 205.854 220.392 206.408 219.284C213.883 205.44 223.02 192.427 231.603 179.414C239.633 167.786 247.662 155.88 255.137 143.974C263.444 130.685 270.919 117.395 278.948 103.828C279.502 102.72 280.333 101.613 280.887 100.229C281.44 100.782 281.717 100.782 281.994 101.059Z" fill="#FEEEF7"/>
<path d="M344.567 173.876C317.711 202.394 284.763 221.498 247.939 234.511C283.655 220.114 316.326 200.456 344.567 173.876Z" fill="#FEEEF7"/>
<path d="M206.685 256.661C210.007 256.938 213.33 257.492 216.652 257.492C221.359 257.769 226.066 258.046 230.773 257.492C251.815 255.554 270.919 247.525 289.747 239.218C290.854 238.665 292.238 238.111 293.623 237.834C294.73 237.28 296.115 236.727 297.499 236.727C295.284 237.834 293.069 238.942 290.854 240.049C279.779 245.587 268.427 250.293 256.522 253.893C245.724 257.215 234.649 259.707 223.297 259.43C217.76 259.43 211.945 258.876 206.685 257.215C206.685 257.492 206.685 256.938 206.685 256.661Z" fill="#FEEEF7"/>
<path d="M202.808 156.987C202.532 158.372 202.255 159.479 201.701 160.864C197.825 172.492 193.672 183.844 191.457 196.026C190.626 200.733 190.072 205.44 189.795 210.147C189.518 215.684 189.518 221.222 189.795 226.759C189.795 230.082 190.349 233.127 190.626 236.45C188.965 234.789 188.965 232.297 188.688 230.359C186.75 215.684 188.134 201.01 192.287 186.613C195.056 176.922 198.378 167.785 201.701 158.372C201.978 157.818 202.255 157.264 202.532 156.987C202.532 156.987 202.532 156.987 202.808 156.987Z" fill="#FEEEF7"/>
<path d="M345.952 242.818C363.948 233.127 383.053 225.652 399.665 213.746C399.942 214.023 399.942 214.3 400.219 214.577C399.665 215.13 399.388 215.961 398.834 216.515C395.789 218.73 393.02 220.945 389.974 222.606C376.408 230.358 362.287 237.003 347.613 242.541C347.059 242.818 346.505 242.818 345.952 242.818Z" fill="#FEEEF7"/>
<path d="M184.535 74.2021C187.027 94.4139 186.75 114.626 185.365 135.114C185.089 139.821 184.258 144.528 183.704 148.958C183.427 148.958 183.15 148.958 182.874 148.958C182.874 148.127 182.597 147.297 182.597 146.466C183.15 140.098 183.981 133.73 184.258 127.639C184.535 122.378 185.089 117.117 185.089 111.58C185.089 99.9513 184.812 88.3227 184.535 76.4171C184.535 75.8634 184.535 75.0328 184.535 74.2021Z" fill="#FEEEF7"/>
<path d="M310.512 117.948C310.235 119.056 309.958 120.163 309.404 121.271C306.913 125.424 304.421 129.3 301.929 133.453C300.545 135.668 299.16 138.16 297.222 140.098C291.131 147.02 284.763 153.665 277.841 159.756C289.47 146.466 301.098 133.176 309.681 117.395C309.681 117.395 310.235 117.671 310.512 117.948Z" fill="#FEEEF7"/>
<path d="M361.18 118.225C360.626 118.502 360.072 119.056 359.518 119.333C349.828 123.763 342.075 130.684 334.323 137.606C329.616 141.759 325.186 146.466 320.203 150.896C320.756 150.066 321.31 149.512 321.864 148.681C329.893 138.437 339.307 129.577 350.105 122.378C352.874 120.44 355.919 119.056 358.965 117.671C359.519 117.395 360.349 117.671 360.903 117.395C361.18 117.671 361.18 117.948 361.18 118.225Z" fill="#FEEEF7"/>
<path d="M258.183 84.4465C261.505 73.9253 283.655 44.023 288.916 42.6387L289.193 42.9156V43.1925C289.193 43.4693 289.193 43.7462 288.916 43.7462C277.287 55.9286 267.873 70.0491 258.183 84.4465Z" fill="#FEEEF7"/>
<path d="M266.489 254.446C263.72 255.554 260.952 256.661 257.906 257.492C249.877 259.984 241.848 262.199 233.541 263.029C226.619 263.583 219.698 263.86 213.053 261.922C212.499 261.645 212.222 261.368 211.668 260.814C230.773 264.691 248.492 259.707 266.489 254.446Z" fill="#FEEEF7"/>
<path d="M202.808 174.153C203.362 171.938 203.362 169.446 204.193 167.231C207.792 158.648 211.391 149.788 215.545 141.482C219.144 134.006 223.574 126.808 227.45 119.332C228.004 118.225 228.834 117.394 229.942 116.563C228.004 119.886 226.066 123.485 224.128 126.808C216.375 141.205 209.453 155.879 203.916 171.384C203.639 172.215 203.085 173.046 202.808 174.153Z" fill="#FEEEF7"/>
<path d="M192.287 112.41C192.287 96.0748 192.287 80.5698 192.287 64.7881C193.672 66.4493 193.672 68.1106 193.672 69.7718C193.672 79.7392 193.948 89.7067 193.672 99.6741C193.672 103.55 192.841 107.703 192.287 112.41Z" fill="#FEEEF7"/>
<path d="M320.756 208.485C335.984 198.795 350.105 187.72 363.118 175.261C350.659 188.828 336.815 200.179 320.756 208.485Z" fill="#FEEEF7"/>
<path d="M262.89 122.101C271.473 106.319 280.056 90.2603 288.639 74.4785C288.916 74.4785 289.193 74.7554 289.47 74.7554C288.916 75.8629 288.639 76.9704 288.085 78.0779C283.378 86.9378 278.395 95.5209 273.688 104.381C270.365 110.472 267.043 116.563 263.444 122.654C263.167 122.378 263.167 122.101 262.89 122.101Z" fill="#FEEEF7"/>
<path d="M372.532 191.873C379.73 183.567 386.652 175.538 393.851 167.231C395.235 168.616 394.405 169.446 393.851 170C391.082 173.323 388.59 176.368 385.822 179.691C381.668 184.121 377.515 188.274 373.362 192.427C373.085 192.427 372.809 192.15 372.532 191.873Z" fill="#FEEEF7"/>
<path d="M344.844 135.114C350.382 128.469 364.225 119.886 367.825 120.44C360.349 125.423 352.873 130.13 344.844 135.114Z" fill="#FEEEF7"/>
<path d="M268.427 218.176C280.333 213.47 291.131 207.101 302.206 200.733C291.961 207.932 280.887 214.577 268.427 218.176Z" fill="#FEEEF7"/>
<path d="M275.072 70.0492C278.948 62.0199 283.932 54.8212 290.023 48.4531C289.47 51.4987 287.255 53.4369 285.593 55.6518C283.932 58.1437 281.994 60.6356 280.056 63.1274C278.395 65.3424 276.734 67.5574 275.072 70.0492Z" fill="#FEEEF7"/>
<path d="M268.981 31.2867C272.027 25.1955 275.626 19.3812 280.61 14.3975C281.163 14.9512 281.163 14.9512 281.163 14.9512V15.2281C277.01 20.7655 272.857 26.0261 268.981 31.2867Z" fill="#FEEEF7"/>
<path d="M379.73 153.387C383.053 149.788 386.375 145.912 390.251 141.759C390.251 144.528 390.251 144.528 385.821 148.681C383.883 150.342 381.945 152.003 380.007 153.941C380.007 153.664 380.007 153.387 379.73 153.387Z" fill="#FEEEF7"/>
<path d="M402.157 219.006C398.004 222.883 393.02 226.205 387.483 228.143C392.189 224.821 396.896 221.498 401.88 218.176C401.88 218.453 401.88 218.73 402.157 219.006Z" fill="#FEEEF7"/>
<path d="M202.808 174.153C202.531 176.368 202.255 178.306 201.701 180.521C200.593 185.228 199.209 189.935 197.548 194.365C198.655 187.443 200.04 180.521 202.808 174.153Z" fill="#FEEEF7"/>
<path d="M135.528 349.137C135.251 347.199 136.359 346.368 137.466 345.537C153.802 333.632 165.154 317.85 174.29 300.13C180.935 287.671 187.027 274.935 193.395 262.199C194.502 259.707 195.887 257.492 197.271 255C197.825 253.892 198.655 252.785 200.87 253.339C199.486 255.554 198.102 257.492 197.271 259.43C193.672 266.906 190.072 274.381 186.473 281.857C181.212 292.101 175.952 302.345 170.137 312.036C162.108 325.879 151.864 337.785 138.851 347.199C138.02 347.752 137.466 348.306 136.636 348.86C136.359 348.86 136.082 348.86 135.528 349.137Z" fill="#FEEEF7"/>
<path d="M331.831 107.981C334.6 103.274 338.753 99.3977 342.076 94.9677C337.092 94.414 334.046 96.3521 331.278 99.9515C328.232 103.828 325.186 107.427 321.864 111.303C321.033 112.134 320.203 112.688 319.095 113.518C318.542 111.857 319.649 111.303 320.203 110.473C322.972 107.427 325.74 104.381 328.509 101.336C329.34 100.505 330.17 99.3977 331.001 98.2902C330.724 98.0133 330.724 98.0134 330.447 97.7365C328.509 98.5671 326.571 99.1208 324.91 100.228C320.757 102.72 316.88 105.489 312.727 108.258C311.897 108.811 310.789 109.088 309.682 109.642C309.405 109.365 309.405 109.088 309.128 108.811C309.682 108.258 309.958 107.427 310.512 106.873C313.004 105.212 315.496 103.551 317.988 102.166C322.418 99.9514 326.848 98.0133 331.278 96.0752C332.385 95.5215 333.216 94.6908 334.046 93.8602C335.154 92.4759 335.985 90.8146 336.815 89.1534C340.415 81.6778 345.398 75.0329 350.382 68.3879C353.428 64.5117 355.919 60.0817 358.688 55.9286C358.411 55.098 357.858 54.2674 357.581 53.7136C357.581 53.1599 357.581 52.883 357.581 52.6061C358.134 51.2218 358.411 50.1143 358.965 48.7299C362.841 41.5312 365.333 33.7788 366.994 25.7494C367.548 23.2576 368.379 20.7657 369.486 18.2739C370.317 15.5051 372.255 13.8439 374.747 12.1826C378.346 9.96763 381.115 11.0751 382.499 14.9514C383.884 18.8276 383.33 22.7038 382.222 26.3032C380.838 31.8406 378.623 37.1012 375.024 41.5312C371.424 45.9612 367.271 49.5605 363.118 53.7136C362.011 54.8211 360.626 55.9286 359.796 57.0361C355.642 63.9579 350.936 70.6029 345.952 76.6941C341.522 81.9547 338.476 88.0459 334.6 94.414C338.476 93.3065 341.522 92.4759 344.568 91.3684C345.675 91.0915 346.229 89.984 347.059 89.1534C353.981 82.2316 360.903 75.3097 368.102 68.6648C373.639 63.4042 379.454 58.6973 385.268 53.9905C385.822 53.4367 386.375 53.1599 386.929 52.6061C385.822 49.5605 386.652 46.7918 388.59 44.5768C394.682 36.8244 400.496 29.0719 408.802 23.5344C411.571 21.5963 414.893 20.212 417.939 18.5507C419.877 17.7201 421.815 17.4432 423.753 17.997C425.691 19.6582 425.138 21.3194 424.307 22.7038C422.923 24.9188 421.538 27.1338 419.6 28.795C412.401 35.44 405.203 42.085 397.727 48.7299C395.789 50.3912 393.02 51.2218 390.529 52.6061C389.975 52.883 389.421 53.1599 389.144 53.4368C385.268 57.0361 381.115 60.6355 377.239 63.9579C375.854 65.0654 374.47 66.4498 373.085 67.5573C364.779 73.6485 357.581 81.1241 350.382 88.5997C350.105 88.8765 350.105 89.1534 349.828 89.984C360.349 87.769 369.486 82.5085 379.177 79.186C381.669 74.2023 385.822 71.1566 390.529 68.9416C393.851 67.2804 397.727 65.8961 401.327 64.5117C404.372 63.4042 407.418 62.2967 410.463 61.4661C412.955 60.9123 415.724 60.9123 418.216 61.1892C421.261 61.4661 422.923 62.5736 423.476 65.3423C424.03 67.8342 423.2 69.7723 420.431 71.1566C416.555 73.3716 411.848 73.9254 407.418 74.756C402.434 75.3097 397.45 76.1403 392.743 77.2478C390.529 77.8016 388.314 79.186 386.099 80.2935C388.867 84.1697 388.59 85.8309 385.268 88.3228C383.33 89.7071 381.392 91.0915 379.177 92.199C372.255 95.5215 364.779 98.5671 357.027 99.6746C355.089 99.9515 353.151 100.228 351.213 99.9515C349.274 99.6746 347.613 100.228 346.229 101.336C343.46 103.274 340.968 105.212 338.2 107.15C337.092 107.981 335.708 108.535 334.323 109.088C337.646 104.105 342.629 101.059 347.336 98.0133C348.721 95.7983 350.105 94.1371 351.213 92.199C348.167 91.9221 345.675 93.0296 343.737 95.5215C340.968 99.1208 338.2 102.443 335.154 105.766C334.323 106.596 333.493 107.427 332.662 108.258C332.385 108.535 332.108 108.258 331.831 107.981ZM378.069 13.567C375.577 14.3976 375.3 14.6745 373.916 16.0589C370.871 19.1045 369.763 22.7038 369.209 26.5801C367.825 34.6094 365.333 42.3618 361.457 49.5605C361.18 50.3911 360.903 51.2217 360.626 52.3292C361.457 52.0524 362.011 51.7755 362.287 51.4987C366.441 47.0687 370.871 43.1924 374.47 38.4856C376.962 35.1631 378.346 30.7331 379.73 26.8569C380.561 24.0882 380.561 20.7657 380.838 17.7201C380.561 16.3357 380.007 14.3976 378.069 13.567ZM389.421 51.4987C391.636 50.3912 393.297 49.8374 394.682 48.7299C403.818 41.8081 411.848 34.0556 419.877 25.7494C420.708 24.9188 421.538 23.8113 422.092 22.7038C422.369 22.1501 422.646 21.3194 422.923 19.9351C421.261 20.212 420.154 20.4888 419.323 20.7657C413.786 22.7038 409.079 26.0263 404.926 30.1794C400.496 34.6094 396.343 39.3162 392.19 44.023C390.529 45.9612 389.144 47.8993 389.421 51.4987ZM385.545 85.0003C383.607 83.3391 382.222 83.6159 380.561 83.8928C370.594 85.5541 361.734 89.4303 353.428 94.9677C352.32 95.5215 351.489 96.629 350.382 97.7365C354.535 99.3977 357.858 98.5671 372.809 93.0296C377.515 91.0915 382.222 89.1534 385.545 85.0003ZM381.945 80.0166C382.222 80.2934 382.499 80.2935 382.499 80.5703C382.776 80.5703 383.053 80.2935 383.33 80.2935C389.421 75.8635 396.62 74.2023 404.095 73.6485C408.525 73.3716 412.678 72.2641 417.108 71.1566C419.046 70.6029 420.985 69.4954 421.538 67.5573C420.985 65.896 419.6 65.6192 418.216 65.3423C413.786 64.7886 409.633 65.6192 405.48 66.7267C398.281 68.9417 391.359 71.1566 385.545 76.1404C384.16 77.2478 383.053 78.6322 381.945 80.0166Z" fill="#FEEEF7"/>
<path d="M214.437 96.6284C215.821 93.3059 217.206 90.2603 218.59 86.9378C223.297 75.3092 228.004 63.6805 232.988 52.0519C234.095 49.56 235.202 46.7913 236.587 44.2994C241.017 35.4395 246.554 27.1333 252.645 19.6578C255.691 16.0584 259.29 12.7359 263.444 10.521C271.196 6.09098 278.118 7.75221 283.101 15.2278C286.424 20.2115 287.531 25.7489 288.639 31.5633C289.193 35.1626 289.47 39.0388 290.3 42.6382C291.685 48.1756 293.623 53.7131 296.668 58.6968C299.16 63.1268 301.929 67.2799 304.421 71.433C309.127 79.1854 311.066 87.7684 311.896 96.6284C312.45 103.55 311.896 110.749 310.512 117.948C311.619 117.394 312.173 116.84 312.727 116.563C313.834 115.456 315.219 114.625 316.326 113.518C325.74 104.935 341.522 106.319 349.274 112.133C352.873 114.902 357.303 116.01 361.733 117.117C376.961 120.163 386.652 129.299 391.912 143.42C394.127 149.511 395.512 156.156 395.512 162.801C395.789 171.661 396.066 180.798 396.896 189.658C397.727 198.794 399.388 208.208 402.434 216.791C404.372 222.052 407.14 226.482 410.186 230.912C412.124 233.68 413.785 236.449 415.17 239.495C417.108 243.371 417.108 247.524 415.447 251.4C413.785 255.553 410.186 258.045 406.033 259.153C400.219 261.091 394.127 260.814 388.036 260.537C380.007 260.26 371.978 259.706 363.948 259.983C354.812 260.26 345.952 261.091 336.815 261.645C334.877 261.645 332.939 262.198 330.17 262.475C333.215 263.583 335.707 264.136 337.922 265.244C345.398 268.566 351.489 273.273 356.473 279.641C360.626 285.179 365.056 290.439 369.209 295.977C373.362 301.237 375.023 307.329 374.469 314.25C374.469 315.635 373.639 317.019 373.362 318.127C371.147 319.234 369.486 318.68 368.378 317.296C367.271 315.912 366.163 314.527 365.056 313.143C347.059 291.824 324.632 278.257 296.945 273.827C284.209 271.612 271.473 270.228 258.46 270.505C244.062 271.058 230.219 269.397 216.652 264.967C208.623 262.475 200.87 263.583 194.502 269.951C193.395 271.058 192.841 272.166 191.733 273.273C188.688 277.15 185.365 280.749 182.043 284.348C183.15 281.579 184.258 278.811 185.365 276.042C187.857 269.674 189.242 263.029 189.518 256.107C189.795 246.97 188.134 238.387 185.642 229.804C182.043 217.622 179.828 205.163 179.828 192.426C179.828 181.351 180.935 170.277 181.766 159.202C182.32 152.003 182.32 144.527 181.489 137.606C179.828 125.146 177.336 112.687 175.675 100.505C174.567 92.4753 173.46 84.446 172.629 76.6935C171.799 67.8336 170.691 58.9737 170.137 49.8369C169.861 42.3613 170.137 34.6089 170.414 27.1333C170.691 23.534 171.245 19.6578 172.075 16.0584C173.183 10.521 176.505 6.09096 181.212 2.49161C185.919 -1.10773 191.457 0.830384 193.395 6.09097C195.887 12.459 198.102 19.104 199.209 26.0258C200.317 31.8401 202.532 37.3776 205.023 42.6382C208.346 49.56 211.391 56.7587 212.776 64.2343C214.991 74.7554 215.545 84.9997 213.33 95.5209C213.33 96.0746 213.33 96.6284 213.33 97.1822C213.883 96.6284 214.16 96.6284 214.437 96.6284ZM205.577 253.062C206.131 255.83 207.792 257.492 210.007 258.599C211.945 259.706 213.883 260.537 215.821 261.368C227.173 265.798 238.802 268.013 250.984 268.013C258.46 268.013 265.935 267.459 273.411 266.905C281.994 266.075 290.854 264.967 299.437 263.86C312.45 262.198 325.463 260.26 338.476 258.876C350.105 257.492 361.456 256.938 373.085 257.215C381.391 257.492 389.974 257.768 398.281 257.768C401.049 257.768 404.095 256.938 406.864 256.107C413.509 253.615 416.277 247.524 413.509 240.879C412.124 237.557 410.186 234.511 407.971 231.465C404.926 226.759 401.88 222.052 400.219 216.791C397.45 209.039 396.066 201.286 395.235 193.257C394.127 184.12 393.851 174.983 393.851 165.847C393.851 157.54 392.466 149.234 389.144 141.759C383.883 129.853 375.3 122.101 362.287 119.332C356.473 118.224 351.212 116.01 345.952 112.964C337.645 107.98 328.785 107.98 320.479 113.241C317.987 114.902 315.772 116.84 313.557 118.778C310.789 120.993 309.404 123.762 309.681 127.638C310.789 139.821 307.189 151.172 302.206 161.97C298.883 168.615 294.453 174.707 289.47 180.244C280.056 190.765 269.535 200.456 258.183 208.762C247.108 216.791 235.756 224.821 224.958 233.127C219.974 237.003 215.268 241.156 210.561 245.586C208.346 247.801 206.131 250.016 205.577 253.062ZM184.812 207.931C184.535 216.514 187.027 227.589 192.01 238.387C192.287 239.218 192.564 239.772 192.841 240.602C194.779 243.925 196.44 247.247 198.655 250.016C200.317 252.231 201.978 251.954 203.639 249.739C205.3 247.524 207.238 245.032 208.346 242.264C212.499 233.404 216.375 224.544 220.251 215.684C223.297 208.485 227.727 201.84 232.988 196.026C241.017 186.889 250.984 180.521 262.336 176.368C272.027 172.768 281.44 168.892 290.3 163.355C297.222 158.925 301.652 152.834 304.974 145.635C305.528 144.804 305.528 143.697 305.805 142.589C307.466 136.498 307.189 130.407 307.189 124.316C307.189 121.824 307.189 119.609 307.466 117.117C308.851 109.365 309.681 101.612 308.574 93.8596C307.466 86.1072 305.528 78.9085 301.375 71.9867C298.883 67.8336 296.391 63.6805 293.623 59.5274C290.023 53.7131 287.255 47.6219 286.701 40.7001C286.424 37.1007 285.87 33.2245 285.04 29.6252C284.209 24.6414 282.825 19.9346 280.056 15.7815C275.903 9.41344 270.365 8.02907 263.997 12.1822C260.398 14.3971 257.075 17.1659 254.03 20.4883C247.662 27.687 242.124 35.7164 237.971 44.5763C236.587 47.6219 234.926 50.6675 233.818 53.7131C225.235 73.9248 216.929 94.4134 208.623 114.625C202.255 129.853 195.333 144.804 191.18 160.863C188.411 175.537 185.089 189.935 184.812 207.931ZM182.597 197.133C183.427 191.596 183.704 186.335 184.812 181.628C187.857 169.169 190.903 156.71 194.225 144.527C195.333 140.374 196.994 136.221 198.378 132.068C200.593 124.593 203.085 117.117 202.808 109.088C202.531 101.612 200.87 94.4134 198.378 87.4916C195.056 78.3548 192.564 68.9411 190.903 59.2505C190.349 55.9281 190.072 52.3288 190.072 48.7294C190.349 41.5307 191.18 34.6089 192.01 27.4102C192.564 22.4265 192.287 17.7197 191.457 12.7359C190.903 9.13659 190.072 5.53723 187.857 2.7685C185.089 2.49163 184.535 2.49161 182.597 3.87598C178.72 6.64471 175.675 10.2441 174.567 14.9509C173.46 18.5502 172.906 22.4265 172.629 26.3027C171.799 38.2082 172.352 50.3906 173.46 62.2962C174.014 69.4949 175.121 76.6936 175.952 83.8923C177.059 92.7522 178.444 101.612 179.828 110.472C181.212 119.055 182.874 127.361 183.981 135.944C185.365 147.85 184.258 159.478 183.15 171.107C182.597 179.413 182.043 187.996 182.597 197.133ZM213.053 239.495C219.144 234.788 224.958 230.635 230.773 226.205C244.062 216.237 257.906 207.378 270.365 196.303C277.01 190.211 283.101 183.843 289.193 177.198C293.346 172.492 297.222 167.231 299.991 161.693C300.544 160.863 300.544 160.032 301.098 159.202C292.792 166.677 283.101 171.384 273.134 175.537C269.812 176.922 266.489 178.029 263.167 179.137C256.522 181.628 250.154 184.674 244.616 189.104C236.31 195.749 229.942 204.055 225.235 213.192C221.082 221.775 217.206 230.358 213.053 239.495ZM194.225 13.0128C193.948 13.0128 193.672 13.0128 193.395 13.0128C193.672 14.674 193.948 16.6122 193.948 18.2734C193.672 26.0258 193.395 33.7782 193.118 41.2538C193.118 41.8076 192.841 42.0844 192.841 42.6382C192.287 50.6675 192.287 58.4199 194.502 66.1724C196.44 73.3711 198.932 80.2929 201.147 87.2147C203.916 95.7978 205.577 104.381 204.746 113.241C204.746 114.902 204.47 116.563 204.193 118.224C205.854 115.456 206.961 112.41 207.792 109.365C213.33 93.5828 214.437 77.5242 210.007 61.1887C208.346 54.8206 205.577 48.7294 203.085 42.9151C200.317 36.2701 197.825 29.6252 196.44 22.7033C196.163 19.6577 195.056 16.3353 194.225 13.0128ZM288.639 269.674V269.951C290.577 270.228 292.515 270.781 294.176 271.058C303.036 272.443 311.896 274.381 320.479 277.703C339.86 285.179 355.919 297.361 368.932 313.697C369.763 314.804 370.87 315.635 372.254 317.296C372.531 315.358 373.085 314.25 373.085 312.866C373.362 305.667 370.593 299.576 365.61 294.592C354.535 284.071 341.799 276.873 327.124 273.55C319.926 271.889 312.45 271.058 304.974 270.228C299.437 269.674 294.176 269.951 288.639 269.674ZM295.007 266.905C295.007 267.182 295.007 267.459 295.007 267.736C306.082 268.013 316.88 268.566 327.401 271.335C338.199 274.104 348.167 278.534 357.857 285.456C357.58 284.348 357.58 284.071 357.58 283.794C351.212 274.381 342.629 268.013 331.554 264.69C327.678 263.583 323.802 262.752 319.926 263.306C311.619 264.69 303.313 265.798 295.007 266.905Z" fill="#FEEEF7"/>
<path d="M74.8932 321.172C74.6163 319.511 74.0626 317.85 74.3394 316.466C76.0007 303.729 74.8932 290.993 72.4013 278.534C70.4632 268.843 68.2482 259.43 64.372 250.57C62.7107 246.694 61.0495 242.817 59.1114 239.218C53.5739 228.697 47.4827 218.729 40.5609 209.039C36.1309 202.394 31.4241 195.749 26.9941 189.104C19.7954 178.029 13.4273 166.124 8.16676 153.941C7.33614 151.726 5.95177 149.788 4.84428 147.573C4.56741 147.573 4.29053 147.85 4.29053 147.85C5.12115 151.172 5.6749 154.218 6.50552 157.54C12.5967 181.905 22.0104 204.609 33.6391 226.759C34.4697 228.42 35.0234 230.358 36.1309 232.019C37.2384 233.957 38.8997 235.895 40.284 237.834C49.144 251.677 56.0658 266.352 60.4958 282.133C61.0495 284.348 61.6033 286.84 62.157 289.055C62.4339 290.163 62.4339 290.993 61.8801 292.378C61.3264 290.993 60.4958 289.886 60.2189 288.501C56.3427 271.889 49.4208 256.938 40.5609 242.264C38.8997 239.495 36.6847 237.28 35.3003 234.511C22.0104 209.593 10.6586 183.843 4.29053 155.879C4.01366 154.772 3.73679 153.941 3.45992 152.834C3.45992 152.834 3.18304 152.557 2.90617 152.28C2.35242 156.433 3.18304 160.309 3.73679 163.909C7.05926 185.228 13.4273 205.716 19.2417 226.482C23.9485 243.371 30.5935 259.43 37.5153 275.488C38.069 276.873 39.1765 278.257 40.284 280.195C38.8997 280.195 38.0691 279.918 37.2384 279.918C30.8704 265.521 24.5023 251.4 20.0723 236.449C13.7042 215.684 7.88989 194.641 3.45992 173.322C1.52181 163.632 0.414307 153.664 0.414307 143.697C0.414307 142.589 0.691186 141.205 0.691186 140.374C3.18304 138.99 4.01366 140.651 4.84428 142.036C6.78239 145.635 8.99737 149.234 10.6586 153.11C17.8573 170 27.5479 185.505 37.7922 200.733C43.3296 209.039 49.4208 217.345 54.6814 225.651C65.7563 243.094 72.4013 262.198 75.4469 282.687C76.5544 289.886 77.1082 297.361 77.385 304.56C77.385 309.821 76.5544 315.081 76.2775 320.342C75.7238 321.172 75.17 321.172 74.8932 321.172Z" fill="#FEEEF7"/>
</svg>
