<svg width="354" height="383" viewBox="0 0 354 383" fill="none" xmlns="http://www.w3.org/2000/svg">
<path d="M237.617 185.832C236.333 182.292 235.049 178.752 233.61 175.441C229.063 165.354 222.204 156.711 215.035 148.528C208.859 141.349 202.372 134.629 195.191 128.442C200.319 131.238 204.672 135.18 208.871 139.353C217.267 147.697 225.044 156.959 231.358 166.903C235.389 173.301 238.496 180.078 239.911 187.382C240.284 189.304 240.501 191.455 240.873 193.377C240.179 193.911 239.64 194.215 238.871 194.363C237.053 190.129 235.236 185.894 233.109 182.119C231.136 178.114 228.625 174.412 226.038 170.327C223.527 166.626 221.015 162.924 218.274 159.068C221.945 161.548 227.049 168.336 237.158 185.522C237.232 185.906 237.387 185.677 237.617 185.832Z" fill="#FEEEF7"/>
<path d="M232.332 208.992C231.569 208.142 231.191 207.219 230.428 206.369C226.167 199.816 220.518 194.33 214.248 189.761C204.922 182.793 194.665 177.202 184.254 171.841C175.604 167.334 166.489 163.516 157.684 159.24C156.611 158.849 155.538 158.459 154.775 157.609C159.525 159.481 164.355 160.739 168.95 162.84C182.89 168.914 196.209 175.906 208.909 183.816C216.865 188.855 224.126 194.428 229.609 202.141C231.209 204.224 232.809 206.307 233.101 208.843C232.871 208.688 232.487 208.762 232.332 208.992Z" fill="#FEEEF7"/>
<path d="M179.086 74.1296C185.132 77.5451 191.395 83.112 197.813 88.4495C204.535 94.3263 210.948 100.662 216.666 107.531C222.383 114.4 227.407 121.803 230.118 130.65C230.422 131.19 230.726 131.729 230.645 132.343C218.972 107.084 198.57 90.2971 179.086 74.1296Z" fill="#FEEEF7"/>
<path d="M220.176 225.505C215.917 231.316 211.125 236.432 204.882 240.233C188.62 249.965 170.931 254.388 151.964 254.274C177.782 251.665 201.931 245.591 220.176 225.505Z" fill="#FEEEF7"/>
<path d="M87.6422 223.859C88.566 223.481 88.876 223.022 89.1054 223.177C109.095 219.304 128.861 214.279 148.025 207.176C148.025 207.176 148.254 207.331 148.484 207.486C148.168 208.943 146.785 209.012 145.861 209.39C141.013 211.127 136.01 213.093 131.087 214.446C117.701 218.435 103.936 221.5 89.9487 223.412C89.2543 223.945 88.8699 224.02 87.6422 223.859Z" fill="#FEEEF7"/>
<path d="M184.146 265.987C183.451 266.521 182.986 267.209 182.217 267.358C167.97 274.106 153.574 280.086 138.123 282.68C132.127 283.642 125.908 283.451 119.609 283.874C119.534 283.489 119.534 283.489 119.46 283.105C123.149 282.589 126.683 282.304 130.372 281.788C134.061 281.273 137.596 280.987 141.055 280.317C153.896 277.63 165.75 272.941 177.76 268.022C179.837 267.42 182.143 266.973 184.146 265.987Z" fill="#FEEEF7"/>
<path d="M260.438 208.931C249.489 216.237 237.418 218.775 224.595 218.467C225.227 215.553 227.522 217.102 228.91 216.036C228.836 215.651 228.761 215.267 228.532 215.112C234.682 213.92 240.449 212.803 246.599 211.612L246.674 211.996C243.518 213.206 240.288 214.031 237.132 215.241C239.277 216.022 240.66 215.953 248.894 213.162C252.818 211.803 256.513 210.29 260.438 208.931Z" fill="#FEEEF7"/>
<path d="M122.565 239.428C131.085 240.171 139.449 241.143 147.826 240.119C156.202 239.094 164.579 238.07 173.03 237.43C168.262 238.553 163.339 239.905 158.267 240.489C152.656 241.377 147.045 242.264 141.285 242.383C136.138 242.582 130.614 241.858 125.393 241.672C124.165 241.511 123.093 241.121 122.02 240.731C122.485 240.042 122.41 239.658 122.565 239.428Z" fill="#FEEEF7"/>
<path d="M129.092 112.531C147.719 118.095 163.55 128.789 178.762 140.399C162.621 130.165 146.479 119.931 129.092 112.531Z" fill="#FEEEF7"/>
<path d="M141.077 73.5161C147.997 72.1757 175.703 87.5481 182.717 95.9608C178.432 93.4008 174.072 90.4563 169.787 87.8963C165.273 85.1813 160.529 82.3113 155.86 79.8257C151.265 77.7245 146.515 75.8528 141.077 73.5161Z" fill="#FEEEF7"/>
<path d="M140.862 159.905C160.264 164.323 178.574 171.345 195.404 182.044C177.874 172.877 159.408 166.084 140.862 159.905Z" fill="#FEEEF7"/>
<path d="M220.353 208.919C218.052 208.368 216.062 207.357 213.606 207.035C207.164 205.691 200.864 206.114 194.41 206.766C187.187 207.567 180.038 208.752 172.66 209.783C178.432 207.667 184.353 206.321 190.194 205.588C195.265 205.005 200.337 204.421 205.254 204.067C210.859 204.178 215.919 205.59 220.353 208.919Z" fill="#FEEEF7"/>
<path d="M235.663 64.5657C229.222 75.5848 224.927 87.3848 221.55 99.8047C221.556 98.8064 221.103 97.4982 221.494 96.4255C223.142 90.5225 224.945 84.39 226.823 78.642C227.684 75.8827 228.93 73.0489 230.251 70.5995C231.186 68.2246 232.432 65.3909 235.663 64.5657Z" fill="#FEEEF7"/>
<path d="M130.03 274.875C127.339 275.396 124.648 275.917 121.883 276.054C118.349 276.34 114.815 276.626 111.051 276.756C105.52 277.03 100.219 277.459 94.8435 277.503C93.8452 277.497 92.6175 277.336 91.6192 277.33C91.5448 276.946 91.5448 276.946 91.4703 276.561C92.0097 276.257 92.7785 276.108 93.3179 275.805C101 275.313 108.682 274.822 116.364 274.331C120.897 274.051 125.274 274.001 129.881 274.106C129.956 274.49 129.801 274.72 130.03 274.875Z" fill="#FEEEF7"/>
<path d="M111.602 236.368C101.807 243.45 84.4159 249.411 78.4384 247.379C81.1293 246.857 84.2046 246.262 86.6661 245.585C89.5119 244.835 92.3578 244.084 95.1292 242.949C97.9005 241.814 100.517 240.908 103.288 239.773C106.06 238.638 108.831 237.503 111.602 236.368Z" fill="#FEEEF7"/>
<path d="M160.829 134.301C175.829 142.762 189.05 153.363 201.961 164.422C188.275 154.51 174.36 144.443 160.829 134.301Z" fill="#FEEEF7"/>
<path d="M236.55 146.355C236.729 142.132 239.668 138.771 240.92 134.939C242.327 130.877 243.808 127.2 245.444 123.294C246.851 119.232 248.103 115.4 249.429 111.953C249.622 118.097 241.652 140.78 236.55 146.355Z" fill="#FEEEF7"/>
<path d="M269.517 180.65C264.471 189.604 247.416 203.477 241.576 204.21C246.436 200.476 251.371 197.127 256.002 193.239C260.404 189.196 264.576 184.997 269.517 180.65Z" fill="#FEEEF7"/>
<path d="M276.114 219.853C275.265 220.616 274.416 221.379 273.337 221.987C271.719 222.898 270.026 223.426 268.259 223.569C262.189 224.146 256.274 224.495 250.359 224.843C249.361 224.837 248.517 224.601 247.445 224.211C256.974 222.963 266.722 223.867 275.352 219.004C275.581 219.159 275.811 219.314 276.114 219.853Z" fill="#FEEEF7"/>
<path d="M141.726 207.598C133.108 210.464 124.111 212.407 114.662 213.041C115.586 212.662 116.354 212.513 117.278 212.135C122.431 210.937 127.583 209.74 132.735 208.542C134.657 208.17 136.43 207.029 138.123 206.502C139.047 206.123 140.119 206.514 141.273 206.29C141.732 206.6 141.806 206.985 141.726 207.598Z" fill="#FEEEF7"/>
<path d="M122.968 236.359C131.109 236.178 138.934 237.454 147.075 237.273C142.382 238.78 126.564 238.454 122.968 236.359Z" fill="#FEEEF7"/>
<path d="M136.843 75.3329C144.278 77.6817 151.632 80.6443 156.748 85.4363C150.392 82.4798 143.422 79.4427 136.223 76.2507C136.533 75.7918 136.688 75.5624 136.843 75.3329Z" fill="#FEEEF7"/>
<path d="M80.2157 194.786C83.148 192.423 93.8995 192.335 100.875 194.373C93.7325 194.561 86.974 194.673 80.2157 194.786Z" fill="#FEEEF7"/>
<path d="M214.981 271.779C215.08 268.171 215.253 264.946 215.271 261.952C215.059 258.802 214.464 255.727 213.793 252.267C217.682 256.898 218.31 267.345 214.981 271.779Z" fill="#FEEEF7"/>
<path d="M215.087 203.358C211.404 202.875 207.417 201.852 203.654 201.983C199.816 201.73 195.972 202.474 192.208 202.605C198.365 200.415 211.962 199.576 215.087 203.358Z" fill="#FEEEF7"/>
<path d="M110.635 117.103C103.802 116.831 96.8138 116.789 89.9809 116.517C89.9065 116.133 90.0615 115.903 89.987 115.519C97.0614 113.949 103.888 115.219 110.635 117.103Z" fill="#FEEEF7"/>
<path d="M184.146 265.987C184.84 265.454 185.689 264.691 186.384 264.158C187.513 267.927 184.773 276.435 180.205 282.704C182.157 277.34 183.88 271.822 185.832 266.458C184.989 266.223 184.604 266.297 184.146 265.987Z" fill="#FEEEF7"/>
<path d="M101.141 112.362C108.898 112.255 116.872 114.3 119.005 117.077C116.773 117.909 115.328 115.596 113.486 115.355C111.645 115.113 109.729 114.487 108.042 114.016C105.742 113.465 103.9 113.223 101.141 112.362Z" fill="#FEEEF7"/>
<path d="M234.739 141.122C237.23 135.454 239.648 129.402 242.139 123.735C240.95 129.947 239.376 136.235 235.582 141.357C235.198 141.432 234.968 141.277 234.739 141.122Z" fill="#FEEEF7"/>
<path d="M120.17 191.035C125.471 190.606 130.543 190.023 135.845 189.594C130.221 192.478 122.769 193.124 120.17 191.035Z" fill="#FEEEF7"/>
<path d="M223.915 77.0117C225.718 70.8793 227.98 65.0568 232.233 60.2446C232.463 60.3996 232.921 60.7095 233.151 60.8645C230.2 66.2221 227.095 71.8091 223.915 77.0117Z" fill="#FEEEF7"/>
<path d="M203.702 270.175C202.66 264.793 201.462 259.641 200.42 254.259C202.714 255.809 204.507 264.036 203.702 270.175Z" fill="#FEEEF7"/>
<path d="M253.442 159.434C250.572 164.178 246.171 168.221 243.48 168.742C244.106 166.826 247.813 163.316 253.442 159.434Z" fill="#FEEEF7"/>
<path d="M242.822 163.287C246.374 160.007 249.926 156.726 253.478 153.445C250.918 157.73 247.67 161.55 243.355 163.982C243.125 163.827 243.051 163.442 242.822 163.287Z" fill="#FEEEF7"/>
<path d="M103.429 191.087C99.2872 190.294 94.9903 189.73 90.6189 188.783C94.0041 187.728 100.756 188.613 103.429 191.087Z" fill="#FEEEF7"/>
<path d="M190.489 270.94C191.308 275.169 190.974 279.621 188.954 283.602C188.748 279.454 189.926 275.237 190.489 270.94Z" fill="#FEEEF7"/>
<path d="M105.385 134.273C110.153 133.15 114.376 133.329 117.129 135.189C112.752 135.239 109.069 134.756 105.385 134.273Z" fill="#FEEEF7"/>
<path d="M265.625 227.469C269.159 227.183 272.618 226.513 276.692 225.923C274.528 228.137 270.07 228.801 265.625 227.469Z" fill="#FEEEF7"/>
<path d="M212 244.039C216.676 245.527 219.497 248.769 220.775 253.308C218.264 249.606 215.671 246.519 212 244.039Z" fill="#FEEEF7"/>
<path d="M198.789 257.168C199.999 260.324 200.44 263.628 200.267 266.853C199.882 266.927 199.882 266.927 199.498 267.002C198.902 263.926 198.077 260.696 197.636 257.391C198.021 257.317 198.405 257.242 198.789 257.168Z" fill="#FEEEF7"/>
<path d="M128.949 186.941C125.868 188.535 122.793 189.13 119.494 188.573C119.804 188.114 119.884 187.5 120.114 187.655C122.879 187.518 126.029 187.307 128.949 186.941Z" fill="#FEEEF7"/>
<path d="M249.477 180.145C247.698 182.284 245.615 183.884 242.93 183.407C242.856 183.023 242.626 182.868 242.552 182.483C244.939 181.423 247.245 180.976 249.477 180.145Z" fill="#FEEEF7"/>
<path d="M280.317 134.486C285.829 137.207 290.567 141.075 294.53 146.091C303.218 156.971 304.913 168.807 299.688 181.984C297.972 186.504 295.411 190.789 293.695 195.309C292.368 198.757 291.426 202.13 290.943 205.813C290.386 209.112 290.827 212.417 290.654 215.641C290.326 219.094 290.152 222.319 289.211 225.692C286.385 235.811 278.598 240.909 268.833 243C265.987 243.751 262.992 243.733 259.687 244.174C259.607 244.788 259.756 245.557 259.905 246.325C263.006 254.1 261.352 261.001 256.399 267.345C252.685 271.853 248.898 275.977 245.184 280.486C242.785 283.543 240.157 286.445 238.217 289.812C235.192 294.785 230.945 298.599 225.557 300.64C221.707 302.383 217.553 303.587 213.474 305.174C212.934 305.478 212.165 305.627 211.626 305.931C204.733 315.642 196.692 324.578 187.052 331.431C175.793 339.196 163.474 344.574 149.871 346.411C146.181 346.926 142.033 347.132 138.505 346.419C129.223 344.827 126.488 339.973 126.226 332.446C126.033 326.301 127.223 320.088 129.714 314.42C131.815 309.826 135.448 305.931 139.385 302.576C143.167 299.451 147.482 297.019 151.946 295.357C153.793 294.6 155.87 293.998 157.718 293.242C162.721 291.275 166.503 288.15 168.988 283.48C170.464 280.802 172.553 278.203 173.036 274.52C171.728 274.973 170.804 275.351 169.88 275.73C155.329 281.939 141.615 289.381 128.738 298.058C121.336 303.081 113.176 306.257 105.47 310.741C101.694 312.869 97.7698 314.227 93.3119 314.891C88.8539 315.556 84.7119 314.763 80.731 312.742C74.685 309.327 73.1896 302.637 76.4561 295.822C79.5676 289.237 84.1302 283.965 89.0773 278.62C91.3958 276.177 93.7144 273.733 95.8035 271.135C96.8078 270.143 97.3531 268.841 98.283 267.464C97.0553 267.303 96.5964 266.993 95.5982 266.987C91.9895 266.888 88.6163 265.946 85.6336 263.932C80.8154 260.677 75.8423 257.652 71.179 254.169C64.3763 248.906 61.1944 241.745 61.5526 233.3C61.5828 228.308 62.4563 223.553 63.3298 218.797C64.5937 212.968 65.2438 207.059 65.0506 200.915C64.5595 193.232 66.9827 186.182 71.0925 179.603C72.7972 177.079 74.5018 174.555 76.436 172.186C78.99 168.9 82.0028 165.923 86.008 163.951C85.1707 162.717 84.5629 161.638 84.1101 160.33C81.226 154.707 78.3419 149.083 75.9972 143.156C73.4231 137.074 73.7692 130.626 75.3431 124.338C76.762 118.28 79.942 113.078 84.4986 108.805C90.7538 103.006 97.7658 99.0557 106.074 96.6486C110.228 95.445 114.76 95.1652 119.057 95.7288C123.823 82.2422 133.699 74.5459 146.552 69.8625C150.631 68.2745 154.94 66.8415 159.094 65.638C164.941 63.9071 170.639 61.4074 175.499 57.674C178.971 55.0073 182.896 53.6488 187.044 53.4435C192.345 53.0149 196.481 54.806 199.142 59.2761C200.816 61.7435 201.722 64.36 202.857 67.1314C204.221 70.0577 205.202 73.0585 207.18 76.0653C208.116 73.6904 209.052 71.3156 209.758 68.7858C211.326 63.4966 213.967 58.5978 217.525 54.3189C220.928 50.2695 227.004 48.6937 231.829 50.9498C234.892 52.3506 237.49 54.4397 239.859 56.3738C245.514 60.862 251.015 65.5796 256.515 70.2972C262.016 75.0148 266.053 80.4146 269.471 86.7323C273.415 94.7425 276.052 103.206 277.38 112.122C278.795 119.425 279.596 126.649 280.317 134.486ZM225.004 214.399C225.928 214.021 226.622 213.487 227.316 212.954C232.022 209.45 235.047 204.477 236.925 198.729C240.91 187.388 243.208 175.576 240.515 163.733C239.02 157.043 236.681 150.118 234.262 143.806C229.727 131.723 224.269 120.017 218.272 108.616C211.213 94.827 205.234 80.4307 199.639 65.96C198.882 64.1124 197.896 62.1098 196.755 60.3367C194.931 57.1004 191.942 56.0841 188.563 56.1405C183.956 56.0358 179.877 57.6237 176.25 60.5199C171.544 64.0239 166.231 66.4491 160.385 68.18C155.846 69.458 151.382 71.1204 147.073 72.5534C140.532 74.8176 134.599 78.1605 129.652 83.5061C125.709 87.8594 123.682 92.8387 125.643 98.8403C126.244 100.917 126.846 102.994 127.448 105.071C129.259 110.304 130.841 115.382 132.653 120.615C135.364 129.462 135.08 138.292 132.186 147.029C130.072 153.62 128.418 160.521 128.605 167.664C128.742 170.429 129.114 172.351 130.559 174.664C134.82 181.217 139.701 186.852 145.505 192.109C149.858 196.052 154.522 199.536 159.96 201.873C168.039 199.31 176.043 196.364 184.413 196.338C190.403 196.374 196.622 196.565 202.605 197.6C211.044 198.956 218.237 203.146 222.722 210.853C223.639 211.473 224.322 212.936 225.004 214.399ZM217.597 232.784C219.234 228.878 221.099 225.126 222.122 221.139C222.593 219.453 222.76 217.227 222.232 215.534C221.562 212.074 219.584 209.068 217.066 206.365C213.631 203.042 209.575 200.637 205.049 199.918C196.69 197.948 188.4 197.36 179.943 198.999C175.33 199.892 171.027 200.327 166.334 201.834C151.714 206.661 138.924 213.725 129.024 225.414C125.93 229.005 123.141 233.135 123.57 238.436C123.564 239.434 122.789 240.581 121.939 241.344C120.935 242.336 119.701 243.174 118.468 244.011C111.834 248.885 106.348 254.535 103.075 262.348C100.503 268.629 96.4797 273.596 91.8426 278.483C88.3648 282.148 85.1165 285.968 81.7131 290.017C79.0846 292.92 77.7583 296.367 76.8909 300.125C75.788 304.726 77.5309 308.576 81.7413 310.752C85.5673 313.002 90.0192 313.336 94.1732 312.132C98.5567 311.084 102.791 309.266 106.567 307.139C111.421 304.404 116.58 302.208 121.205 299.318C138.707 287.751 157.269 278.572 176.061 269.547C193.545 260.975 207.593 249.081 217.597 232.784ZM227.385 252.426C227.155 252.271 227 252.5 226.771 252.345C225.916 254.106 225.29 256.022 224.434 257.783C219.141 269.577 211.101 278.513 198.18 281.814C190.566 283.688 182.878 285.177 175.264 287.051C172.802 287.727 169.882 288.093 167.954 289.464C162.095 293.191 155.939 295.381 149.702 298.185C140.538 302.353 133.204 308.759 130.223 319.108C128.81 324.168 127.856 329.537 128.899 334.919C129.489 338.993 131.777 341.541 135.839 342.947C140.055 344.125 144.278 344.304 148.735 343.64C158.879 342.472 168.576 338.999 177.59 334.062C182.29 331.556 186.686 328.511 190.622 325.156C202.817 315.016 211.799 302.707 218.642 288.619C223.619 278.282 226.68 267.319 227.441 255.805C227.602 254.577 227.608 253.579 227.385 252.426ZM145.099 208.54C140.802 207.977 136.734 207.568 132.822 206.93C122.622 204.718 113.277 200.746 105.563 193.864C100.98 189.767 97.7859 184.602 94.9763 179.363C92.7 174.819 90.1138 170.733 87.6081 166.034C86.1449 166.716 84.8367 167.169 83.8324 168.161C79.4368 171.206 78.1044 175.652 78.4586 180.569C78.5894 184.333 79.7185 188.102 80.6182 191.717C81.9707 196.64 81.711 201.476 79.3804 205.916C77.6697 209.438 75.3451 212.88 72.9461 215.937C69.7722 220.141 66.9827 224.271 64.956 229.25C63.1587 234.385 64.3501 240.535 67.9407 243.629C70.539 245.718 73.6082 246.12 76.603 246.138C84.9735 246.112 92.5631 248.231 97.4317 255.863C98.3434 257.481 99.9495 258.566 102.175 258.733C106.756 250.467 113.78 244.52 121.183 239.497C120.903 234.964 122.155 231.132 124.709 227.845C127.263 224.559 130.201 221.198 133.214 218.221C136.921 214.711 140.933 211.74 145.099 208.54ZM236.721 206.944C237.571 206.182 238.649 205.574 239.114 204.885C243.057 200.532 246.615 196.253 250.788 192.055C254.42 188.16 256.137 183.64 256.552 178.574C256.731 174.352 256.91 170.129 256.705 165.981C256.127 159.911 254.936 153.761 253.974 147.765C251.82 135.619 250.665 123.479 252.889 111.282C255.187 99.4702 252.718 88.7811 245.021 78.9052C240.6 73.5798 237.027 67.4916 233.07 61.4778C231.396 59.0104 229.721 56.5429 226.888 55.2971C223.44 53.9708 221.288 54.1881 218.815 56.8609C216.496 59.3042 214.792 61.828 213.62 65.0462C212.449 68.2644 211.048 71.3276 209.877 74.5458C208.706 77.764 208.378 81.2177 209.817 84.5284C211.256 87.8392 212.695 91.15 214.134 94.4608C218.382 103.01 222.86 111.715 226.725 120.339C231.271 130.426 235.663 140.743 239.285 151.209C243.814 164.291 245.118 177.2 241.35 190.692C240.241 196.291 238.444 201.426 236.721 206.944ZM280.138 138.708C279.747 139.781 279.592 140.01 279.437 140.24C277.833 151.519 273.315 162.165 267.42 171.882C263 178.92 258.122 185.649 253.398 192.147C245.81 202.392 237.001 211.477 225.215 217.549C225.364 218.318 225.358 219.316 225.581 220.469C226.258 222.931 227.089 225.163 227.536 227.469C227.983 229.776 229.124 231.549 231.499 232.484C239.919 236.836 248.656 239.73 258.019 240.708C262.93 241.352 267.388 240.688 272.081 239.18C274.158 238.579 275.317 237.357 275.869 235.057C276.823 229.687 276.469 224.77 275.042 219.463C274.142 215.848 272.784 211.923 272.268 208.234C271.759 203.547 271.25 198.86 271.509 194.023C271.689 189.801 273.232 188.505 277.306 187.915C278.459 187.692 279.612 187.468 281.15 187.17C277.491 182.694 277.292 177.548 277.322 172.557C277.346 168.564 278.139 164.422 278.548 160.354C279.031 156.671 280.128 153.068 280.611 149.385C281.013 146.316 281.341 142.862 280.138 138.708ZM228.053 53.0771C231.724 55.5567 233.312 59.6363 235.824 63.3375C239.477 68.8118 243.514 74.2117 247.551 79.6116C249.53 82.6184 251.663 85.3959 252.873 88.5517C256.055 95.7126 256.701 103.165 255.195 110.835C253.287 121.575 253.76 132.252 255.231 142.935C255.672 146.24 256.268 149.315 256.709 152.62C258.421 161.461 259.52 170.222 258.083 179.275C258.158 179.659 258.232 180.044 258.301 181.426C259.385 179.82 260.08 179.287 260.7 178.369C264.27 172.094 267.996 165.589 271.336 159.159C275.378 151.197 277.348 142.838 277.402 133.854C277.4 121.49 275.476 109.499 271.785 97.6507C268.919 89.0327 264.59 81.0969 257.948 74.6062C255.735 72.4426 252.981 70.583 250.612 68.6488C246.03 64.5511 241.063 60.5279 236.48 56.4302C234.036 54.1117 231.203 52.8658 228.053 53.0771ZM128.772 203.527C128.623 202.758 128.778 202.529 128.549 202.374C128.245 201.834 127.786 201.524 127.327 201.214C120.754 196.106 116.878 189.479 116.622 180.953C116.584 174.579 116.161 168.28 116.737 161.986C117.318 154.695 113.225 145.916 103.719 143.17C99.7321 142.148 95.5901 141.355 91.6031 140.333C90.7598 140.097 89.842 139.477 88.7693 139.087C90.7095 135.72 95.3104 136.823 96.7172 132.761C96.2643 131.453 95.5076 129.605 94.3664 127.832C91.2529 122.054 87.5255 116.195 88.4915 108.829C84.5609 111.186 80.2277 116.612 78.5854 121.517C75.7718 129.64 76.2629 137.322 79.3643 145.096C80.9523 149.176 83.1541 153.336 85.5109 157.267C89.7656 164.818 94.1752 172.14 98.0455 179.766C103.739 190.628 112.297 197.745 123.793 201.5C125.399 202.585 127.086 203.056 128.772 203.527ZM95.4532 138.59C98.3675 139.222 100.897 139.928 103.582 140.405C115.314 143.317 120.704 153.64 119.645 163.617C118.995 169.526 119.188 175.67 119.536 181.585C119.593 184.965 120.418 188.195 122.241 191.431C128.17 201.45 137.732 207.574 150.263 205.346C152.569 204.9 154.876 204.453 156.73 202.698C153.747 200.683 150.764 198.668 147.936 196.424C136.551 187.064 127.478 176.258 122.497 161.868C117.286 147.322 114.686 132.87 117.697 117.529C118.651 112.16 118.761 106.555 119.486 101.03C119.721 100.187 119.343 99.2629 119.12 98.1097C117.123 98.0976 115.666 97.7816 113.899 97.9245C107.37 98.1922 101.598 100.308 96.049 103.576C91.0396 106.541 90.0292 108.531 91.3011 114.068C91.599 115.605 92.1264 117.298 92.9636 118.532C94.4027 121.843 96.2261 125.079 98.0495 128.315C100.251 132.475 100.09 133.703 96.997 137.294C96.0732 137.672 95.9181 137.901 95.4532 138.59ZM281.756 137.797C281.601 138.026 281.446 138.255 281.52 138.64C283.475 145.64 282.434 152.622 281.164 159.448C280.291 164.204 279.876 169.27 279.846 174.261C279.822 178.254 280.411 182.328 283.308 185.955C283.841 186.649 283.835 187.647 284.443 188.726C280.828 189.626 277.982 190.376 274.522 191.047C274.43 193.657 274.033 195.728 274.096 198.109C274.208 204.867 275.859 211.328 277.354 218.018C278.626 223.554 279.669 228.936 278.405 234.765C278.25 234.994 278.324 235.379 278.399 235.763C278.628 235.918 278.858 236.073 279.087 236.228C280.711 234.318 282.639 232.947 284.034 230.882C287.983 225.531 288.788 219.392 288.365 213.093C288.092 207.562 289.046 202.192 290.998 196.829C293.105 191.236 295.442 185.798 297.704 179.975C302.383 168.101 300.683 157.263 292.986 147.387C291.461 145.688 290.09 143.76 288.41 142.291C286.345 140.896 284.515 138.658 281.756 137.797ZM169.28 286.016C170.818 285.718 171.432 285.799 172.201 285.65C175.66 284.98 179.275 284.08 182.735 283.41C188.656 282.063 194.577 280.717 200.424 278.986C210.964 275.748 218.074 268.188 222.357 258.385C223.758 255.322 224.086 251.868 225.257 248.65C228.381 240.068 226.203 231.915 223.796 223.607C223.486 224.066 223.102 224.14 222.792 224.599C222.482 225.058 222.327 225.287 222.247 225.901C219.129 233.485 214.864 240.293 209.527 246.712C201.635 256.417 191.914 263.884 180.897 269.807C177.276 271.705 174.499 273.838 173.477 277.825C173.316 279.053 172.311 280.045 171.691 280.963C171.53 282.19 170.446 283.796 169.28 286.016ZM213.796 302.719C215.563 302.576 216.486 302.198 217.485 302.204C225.793 299.797 232.885 295.232 237.689 288.119C242.878 280.932 248.066 273.745 253.788 267.253C257.192 263.203 259.063 258.453 259.478 253.388C259.639 252.16 258.957 250.697 258.659 249.159C256.57 251.757 255.405 253.977 253.551 255.732C249.459 259.317 245.293 262.517 241.127 265.717C233.799 271.125 227.848 277.463 223.577 285.27C220.781 290.398 217.601 295.6 214.806 300.729C214.421 300.803 214.341 301.417 213.796 302.719ZM256.004 243.691C246.803 241.485 237.836 238.436 229.037 233.161C230.714 247.992 230.245 262.042 226.167 275.993C227.091 275.615 227.475 275.541 227.785 275.082C232.893 268.508 239.756 263.789 246.39 258.914C248.857 257.24 251.095 255.41 253.03 253.041C255.193 250.828 257.282 248.229 256.004 243.691ZM126.627 164.657C126.862 163.814 126.943 163.2 126.868 162.816C126.979 157.21 128.317 151.766 130.115 146.632C130.741 144.716 131.137 142.645 131.534 140.574C133.355 131.447 131.413 122.45 128.547 113.832C126.884 109.368 125.377 104.675 123.87 99.9814C123.268 97.9044 123.05 95.7529 122.678 93.8308C122.058 94.7486 121.668 95.8213 121.891 96.9746C122.141 106.498 120.164 115.855 119.031 125.447C118.226 131.586 118.035 137.805 119.611 143.881C121.261 150.341 123.451 156.498 125.256 162.729C125.56 163.268 126.019 163.578 126.627 164.657ZM65.1472 223.031C68.1661 219.056 70.9496 215.925 73.2741 212.483C77.9233 205.6 80.5759 198.705 77.71 190.087C76.4259 186.546 76.6795 182.708 76.1642 179.019C76.2447 178.405 75.9408 177.866 75.9469 176.868C75.2525 177.401 74.9426 177.86 74.7876 178.089C70.1384 184.973 67.1759 192.327 67.5865 200.623C68.0092 206.922 67.359 212.831 65.9401 218.889C65.5497 219.962 65.6181 221.345 65.1472 223.031ZM68.1581 245.78C68.9832 249.01 71.3521 250.944 73.721 252.878C77.392 255.358 80.908 258.067 84.5791 260.547C89.1678 263.646 94.3021 265.443 100.223 264.097C100.614 263.024 100.849 262.181 100.93 261.567C98.1824 258.709 95.5841 256.62 93.0663 253.917C91.0818 251.908 89.1719 250.284 86.2576 249.652C83.8022 249.33 81.2723 248.624 79.0463 248.457C75.2083 248.203 71.5997 248.105 68.1581 245.78Z" fill="#FEEEF7"/>
</svg>
