<svg width="10" height="9" viewBox="0 0 10 9" fill="none" xmlns="http://www.w3.org/2000/svg">
<path fill-rule="evenodd" clip-rule="evenodd" d="M9.53033 1.28033C9.82322 0.987437 9.82322 0.512563 9.53033 0.21967C9.23744 -0.0732233 8.76256 -0.0732233 8.46967 0.21967L5.25 3.43934L2.03033 0.21967C1.73744 -0.0732233 1.26256 -0.0732233 0.96967 0.21967C0.676777 0.512563 0.676777 0.987437 0.96967 1.28033L4.18934 4.5L0.96967 7.71967C0.676777 8.01256 0.676777 8.48744 0.96967 8.78033C1.26256 9.07322 1.73744 9.07322 2.03033 8.78033L5.25 5.56066L8.46967 8.78033C8.76256 9.07322 9.23744 9.07322 9.53033 8.78033C9.82322 8.48744 9.82322 8.01256 9.53033 7.71967L6.31066 4.5L9.53033 1.28033Z" fill="#FF4550"/>
</svg>
