<svg width="24" height="22" viewBox="0 0 24 22" fill="none" xmlns="http://www.w3.org/2000/svg">
<path d="M9.426 21.251C14.3005 21.251 18.252 17.2995 18.252 12.425C18.252 7.55053 14.3005 3.599 9.426 3.599C4.55153 3.599 0.599998 7.55053 0.599998 12.425C0.599998 17.2995 4.55153 21.251 9.426 21.251Z" fill="#EBEBEB"/>
<path d="M9.5258 19.2468L9.41385 19.0561C7.70385 16.1426 3.15975 9.95967 3.11385 9.89757L3.0483 9.80852L4.59645 8.27852L9.49705 11.7005C12.5826 7.69652 15.4612 4.94642 17.3389 3.34047C19.3929 1.58372 20.73 0.774974 20.7435 0.767224L20.7739 0.749023H23.4L23.1491 0.972424C16.6977 6.71872 9.705 18.9319 9.63535 19.0546L9.5258 19.2468Z" fill="#D12E33"/>
</svg>
