<svg width="90" height="90" viewBox="0 0 90 90" fill="none" xmlns="http://www.w3.org/2000/svg">
<path d="M2.125 45C2.21785 44.9999 2.3106 44.9937 2.40266 44.9817C17.4006 42.9466 32.0283 38.7668 45.8371 32.5704C59.7821 26.2962 72.7385 18.0236 84.298 8.01321L81.8112 17.9643C81.6803 18.4892 81.7631 19.0447 82.0414 19.5087C82.3197 19.9726 82.7708 20.3072 83.2955 20.4388C83.4579 20.479 83.6244 20.4995 83.7917 20.5C84.2467 20.4995 84.6886 20.3469 85.047 20.0665C85.4054 19.7861 85.6599 19.394 85.77 18.9525L89.8534 2.61912C89.9284 2.31839 89.9339 2.00452 89.8696 1.70131C89.8053 1.39811 89.6728 1.11353 89.4821 0.869156C89.2914 0.624781 89.0476 0.427023 88.7692 0.290877C88.4907 0.154731 88.185 0.0837695 87.875 0.083374H71.5417C71.0002 0.083374 70.4809 0.298478 70.098 0.681364C69.7151 1.06425 69.5 1.58356 69.5 2.12504C69.5 2.66652 69.7151 3.18583 70.098 3.56872C70.4809 3.9516 71.0002 4.16671 71.5417 4.16671H82.5034C71.0228 14.2557 58.1002 22.574 44.1629 28.8464C30.7105 34.8825 16.4602 38.9537 1.84937 40.9351C1.33606 41.0044 0.868282 41.2663 0.540806 41.6676C0.213329 42.0689 0.050633 42.5797 0.0856741 43.0965C0.120715 43.6133 0.350873 44.0974 0.729527 44.4509C1.10818 44.8043 1.60702 45.0006 2.125 45Z" fill="#D12E33"/>
<path d="M87.875 85.8334H85.8333V30.7084C85.8333 30.1669 85.6182 29.6476 85.2353 29.2647C84.8525 28.8819 84.3331 28.6667 83.7917 28.6667H63.375C62.8335 28.6667 62.3142 28.8819 61.9313 29.2647C61.5484 29.6476 61.3333 30.1669 61.3333 30.7084V85.8334H57.25V42.9584C57.25 42.4169 57.0349 41.8976 56.652 41.5147C56.2691 41.1319 55.7498 40.9167 55.2083 40.9167H34.7917C34.2502 40.9167 33.7309 41.1319 33.348 41.5147C32.9651 41.8976 32.75 42.4169 32.75 42.9584V85.8334H28.6667V55.2084C28.6667 54.6669 28.4516 54.1476 28.0687 53.7647C27.6858 53.3819 27.1665 53.1667 26.625 53.1667H6.20833C5.66684 53.1667 5.14754 53.3819 4.76465 53.7647C4.38177 54.1476 4.16666 54.6669 4.16666 55.2084V85.8334H2.12499C1.58351 85.8334 1.06421 86.0485 0.681319 86.4314C0.298432 86.8143 0.0833282 87.3336 0.0833282 87.8751C0.0833282 88.4166 0.298432 88.9359 0.681319 89.3188C1.06421 89.7016 1.58351 89.9168 2.12499 89.9168H87.875C88.4165 89.9168 88.9358 89.7016 89.3187 89.3188C89.7016 88.9359 89.9167 88.4166 89.9167 87.8751C89.9167 87.3336 89.7016 86.8143 89.3187 86.4314C88.9358 86.0485 88.4165 85.8334 87.875 85.8334ZM65.4167 32.7501H81.75V85.8334H65.4167V32.7501ZM36.8333 45.0001H53.1667V85.8334H36.8333V45.0001ZM8.25 57.2501H24.5833V85.8334H8.25V57.2501Z" fill="#1B375E"/>
</svg>
