<svg width="66" height="83" viewBox="0 0 66 83" fill="none" xmlns="http://www.w3.org/2000/svg">
<path d="M14.5784 17.5693C14.277 17.8707 14.1035 18.2893 14.1035 18.7155C14.1035 19.1435 14.277 19.5602 14.5784 19.8616C14.8799 20.163 15.2984 20.3365 15.7246 20.3365C16.1527 20.3365 16.5694 20.163 16.8708 19.8616C17.1722 19.5602 17.3457 19.1435 17.3457 18.7155C17.3457 18.2893 17.1722 17.8707 16.8708 17.5693C16.5694 17.2679 16.1527 17.0944 15.7246 17.0944C15.2984 17.0944 14.8799 17.2679 14.5784 17.5693Z" fill="#1B375E"/>
<path d="M59.7671 17.095H22.209C21.3136 17.095 20.5879 17.8207 20.5879 18.7161C20.5879 19.6115 21.3136 20.3372 22.209 20.3372H59.7671C61.1361 20.3372 62.25 21.4504 62.25 22.8195V56.0899H51.4761C50.5807 56.0899 49.855 56.8156 49.855 57.711C49.855 58.6064 50.5807 59.3321 51.4761 59.3321H62.25V60.0913C62.25 61.4604 61.1361 62.5742 59.7671 62.5742H12.4223C12.0404 62.5742 11.6706 62.7091 11.3781 62.9555L3.24219 69.8065V22.8195C3.24219 21.4504 4.35606 20.3372 5.72512 20.3372H9.24087C10.1356 20.3372 10.862 19.6115 10.862 18.7161C10.862 17.8207 10.1356 17.095 9.24087 17.095H5.72512C2.56842 17.095 0 19.6628 0 22.8195V73.2912C0 73.9219 0.365379 74.495 0.937195 74.7609C1.15566 74.8623 1.38869 74.9123 1.62046 74.9123C1.99597 74.9123 2.36705 74.7818 2.66531 74.5311L13.0137 65.8164H59.7671C62.9238 65.8164 65.4922 63.248 65.4922 60.0913V22.8195C65.4922 19.6628 62.9238 17.095 59.7671 17.095Z" fill="#1B375E"/>
<path d="M32.7461 11.3426C33.6415 11.3426 34.3672 10.6169 34.3672 9.7215V1.62109C34.3672 0.725693 33.6415 0 32.7461 0C31.8507 0 31.125 0.725693 31.125 1.62109V9.7215C31.125 10.6169 31.8507 11.3426 32.7461 11.3426Z" fill="#1B375E"/>
<path d="M44.9644 12.0005C45.3799 12.0005 45.794 11.8422 46.1106 11.5256L51.7781 5.85871C52.4113 5.22547 52.4113 4.19899 51.7781 3.56575C51.1449 2.93251 50.1184 2.93251 49.4851 3.56575L43.8183 9.23261C43.185 9.86585 43.185 10.8923 43.8183 11.5256C44.1349 11.8422 44.5497 12.0005 44.9644 12.0005Z" fill="#1B375E"/>
<path d="M19.3816 11.5148C19.6982 11.8315 20.113 11.9898 20.5277 11.9898C20.9425 11.9898 21.3573 11.8315 21.6739 11.5148C22.3071 10.8816 22.3071 9.85511 21.6739 9.22187L16.0064 3.55501C15.3738 2.92177 14.3473 2.92177 13.7141 3.55501C13.0808 4.18825 13.0808 5.2141 13.7141 5.84734L19.3816 11.5148Z" fill="#1B375E"/>
<path d="M32.7461 71.6575C31.8507 71.6575 31.125 72.3832 31.125 73.2786V81.379C31.125 82.2744 31.8507 83.0001 32.7461 83.0001C33.6415 83.0001 34.3672 82.2744 34.3672 81.379V73.2786C34.3672 72.3832 33.6415 71.6575 32.7461 71.6575Z" fill="#1B375E"/>
<path d="M46.1106 71.4744C45.4774 70.8412 44.4515 70.8412 43.8183 71.4744C43.185 72.1077 43.185 73.1342 43.8183 73.7674L49.4851 79.4343C49.8018 79.7509 50.2165 79.9092 50.6313 79.9092C51.0467 79.9092 51.4615 79.7509 51.7781 79.4343C52.4107 78.801 52.4107 77.7745 51.7781 77.1413L46.1106 71.4744Z" fill="#1B375E"/>
<path d="M19.3816 71.4852L13.7141 77.1527C13.0808 77.7859 13.0808 78.8118 13.7141 79.445C14.0307 79.7616 14.4455 79.9199 14.8602 79.9199C15.275 79.9199 15.6898 79.7616 16.0064 79.445L21.6739 73.7781C22.3071 73.1449 22.3071 72.1184 21.6739 71.4852C21.0406 70.8519 20.0148 70.8519 19.3816 71.4852Z" fill="#1B375E"/>
<path d="M47.6469 40.471C47.6469 36.2226 44.1913 32.767 39.9429 32.767H36.4258C35.5311 32.767 34.8047 33.4927 34.8047 34.3881V48.6537C34.8047 49.5485 35.5311 50.2748 36.4258 50.2748H39.9429C44.1906 50.2748 47.6469 46.8186 47.6469 42.5702V40.471ZM44.4047 42.5702C44.4047 45.0309 42.403 47.0326 39.9429 47.0326H38.0469V36.0092H39.9429C42.403 36.0092 44.4047 38.0102 44.4047 40.471V42.5702Z" fill="#D12E33"/>
<path d="M19.3011 44.0608L17.9302 48.1363C17.6446 48.9849 18.1005 49.9043 18.9491 50.1899C19.7989 50.4755 20.7171 50.019 21.0027 49.1704L22.0146 46.1632H26.5182L27.5301 49.1704C27.7574 49.8473 28.3888 50.2748 29.0663 50.2748C29.2379 50.2748 29.4121 50.2476 29.5831 50.1899C30.4316 49.9043 30.8882 48.9849 30.6026 48.1363L25.8026 33.8707C25.581 33.2109 24.9623 32.767 24.2664 32.767C23.5704 32.767 22.9518 33.2109 22.7301 33.8707L19.3024 44.0576C19.3018 44.0589 19.3011 44.0595 19.3011 44.0608ZM24.2664 39.4711L25.4271 42.921H23.1056L24.2664 39.4711Z" fill="#D12E33"/>
<path d="M43.9266 56.5648C43.6252 56.8662 43.4517 57.2848 43.4517 57.7109C43.4517 58.139 43.6252 58.5557 43.9266 58.8571C44.2286 59.1585 44.6466 59.332 45.0728 59.332C45.4996 59.332 45.9175 59.1585 46.2189 58.8571C46.5203 58.5557 46.6938 58.1371 46.6938 57.7109C46.6938 57.2848 46.5203 56.8662 46.2189 56.5648C45.9175 56.2634 45.4996 56.0898 45.0728 56.0898C44.6466 56.0898 44.228 56.2634 43.9266 56.5648Z" fill="#1B375E"/>
</svg>
