<svg width="56" height="92" viewBox="0 0 56 92" fill="none" xmlns="http://www.w3.org/2000/svg">
<path d="M28 69.92C33.366 69.9136 38.5105 67.7792 42.3048 63.9848C46.0992 60.1904 48.2336 55.046 48.24 49.68V20.24C48.24 14.872 46.1076 9.72389 42.3119 5.92816C38.5161 2.13242 33.368 0 28 0C22.632 0 17.4839 2.13242 13.6882 5.92816C9.89243 9.72389 7.76001 14.872 7.76001 20.24V49.68C7.76638 55.046 9.90085 60.1904 13.6952 63.9848C17.4896 67.7792 22.634 69.9136 28 69.92ZM11.44 20.24C11.44 15.848 13.1847 11.6359 16.2903 8.53031C19.3959 5.42471 23.608 3.68 28 3.68C32.392 3.68 36.6041 5.42471 39.7097 8.53031C42.8153 11.6359 44.56 15.848 44.56 20.24V49.68C44.56 54.072 42.8153 58.2841 39.7097 61.3897C36.6041 64.4953 32.392 66.24 28 66.24C23.608 66.24 19.3959 64.4953 16.2903 61.3897C13.1847 58.2841 11.44 54.072 11.44 49.68V20.24Z" fill="#1B375E"/>
<path d="M55.6 49.68C55.6 49.192 55.4062 48.724 55.0611 48.3789C54.716 48.0338 54.248 47.84 53.76 47.84C53.272 47.84 52.804 48.0338 52.4589 48.3789C52.1139 48.724 51.92 49.192 51.92 49.68C51.92 56.0239 49.3999 62.1081 44.914 66.594C40.4281 71.0798 34.344 73.6 28 73.6C21.656 73.6 15.5719 71.0798 11.086 66.594C6.60016 62.1081 4.08002 56.0239 4.08002 49.68C4.08002 49.192 3.88617 48.724 3.5411 48.3789C3.19603 48.0338 2.72802 47.84 2.24002 47.84C1.75203 47.84 1.28402 48.0338 0.938948 48.3789C0.593881 48.724 0.400024 49.192 0.400024 49.68C0.411014 56.6751 3.0765 63.4053 7.85802 68.511C12.6395 73.6168 19.1807 76.7175 26.16 77.1868V90.16C26.16 90.648 26.3539 91.116 26.6989 91.461C27.044 91.8061 27.512 92 28 92C28.488 92 28.956 91.8061 29.3011 91.461C29.6462 91.116 29.84 90.648 29.84 90.16V77.1868C36.8194 76.7175 43.3605 73.6168 48.142 68.511C52.9235 63.4053 55.589 56.6751 55.6 49.68Z" fill="#D12E33"/>
</svg>
