<svg width="20" height="20" viewBox="0 0 20 20" fill="none" xmlns="http://www.w3.org/2000/svg">
<path d="M8.02 17.8854C11.7696 17.8854 14.8092 14.8457 14.8092 11.0962C14.8092 7.34656 11.7696 4.30692 8.02 4.30692C4.27042 4.30692 1.23077 7.34656 1.23077 11.0962C1.23077 14.8457 4.27042 17.8854 8.02 17.8854Z" fill="#EBEBEB"/>
<path d="M8.09677 16.3437L8.01065 16.197C6.69527 13.9558 3.19981 9.19977 3.1645 9.152L3.11407 9.0835L4.30496 7.90658L8.07465 10.5388C10.4482 7.45889 12.6625 5.34342 14.1068 4.10808C15.6869 2.75673 16.7154 2.13462 16.7258 2.12865L16.7492 2.11465H18.7692L18.5763 2.2865C13.6136 6.70673 8.23461 16.1015 8.18104 16.1959L8.09677 16.3437Z" fill="#D12E33"/>
</svg>
