<svg width="59" height="15" viewBox="0 0 59 15" fill="none" xmlns="http://www.w3.org/2000/svg">
<rect x="58.8305" y="10.4611" width="1.36167" height="4.53892" rx="0.680837" transform="rotate(-180 58.8305 10.4611)" fill="black"/>
<rect x="39.6742" y="10.4611" width="1.36167" height="4.53892" rx="0.680837" transform="rotate(-180 39.6742 10.4611)" fill="black"/>
<rect x="12.8554" y="10.4611" width="1.36167" height="4.53892" rx="0.680837" transform="rotate(-180 12.8554 10.4611)" fill="black"/>
<rect x="9.02417" y="9.55334" width="1.36167" height="3.63113" rx="0.680837" transform="rotate(-180 9.02417 9.55334)" fill="black"/>
<rect x="54.9992" y="11.8228" width="1.36167" height="7.26227" rx="0.680837" transform="rotate(-180 54.9992 11.8228)" fill="black"/>
<rect x="24.3492" y="11.8228" width="1.36167" height="7.26227" rx="0.680837" transform="rotate(-180 24.3492 11.8228)" fill="black"/>
<rect x="16.6867" y="11.8228" width="1.36167" height="7.26227" rx="0.680837" transform="rotate(-180 16.6867 11.8228)" fill="black"/>
<rect x="1.36166" y="11.8228" width="1.36167" height="7.26227" rx="0.680837" transform="rotate(-180 1.36166 11.8228)" fill="black"/>
<rect x="35.843" y="14.0922" width="1.36167" height="11.3473" rx="0.680837" transform="rotate(-180 35.843 14.0922)" fill="black"/>
<rect x="51.168" y="12.7305" width="1.36167" height="9.07783" rx="0.680837" transform="rotate(-180 51.168 12.7305)" fill="black"/>
<rect x="28.1805" y="12.7305" width="1.36167" height="9.07783" rx="0.680837" transform="rotate(-180 28.1805 12.7305)" fill="black"/>
<rect x="5.19293" y="12.7305" width="1.36167" height="9.07783" rx="0.680837" transform="rotate(-180 5.19293 12.7305)" fill="black"/>
<rect x="47.3367" y="11.8228" width="1.36167" height="8.17005" rx="0.680837" transform="rotate(-180 47.3367 11.8228)" fill="black"/>
<rect x="43.5055" y="15" width="1.36167" height="14.5245" rx="0.680837" transform="rotate(-180 43.5055 15)" fill="black"/>
<rect x="20.5179" y="15" width="1.36167" height="14.5245" rx="0.680837" transform="rotate(-180 20.5179 15)" fill="black"/>
<rect x="32.0117" y="15" width="1.36167" height="14.5245" rx="0.680837" transform="rotate(-180 32.0117 15)" fill="black"/>
</svg>
