<svg width="20" height="20" viewBox="0 0 20 20" fill="none" xmlns="http://www.w3.org/2000/svg">
<g clip-path="url(#clip0_26_61)">
<path d="M12.018 18.173C12.018 17.4817 11.4576 16.9213 10.7663 16.9213H9.23367C8.90172 16.9213 8.58336 17.0532 8.34863 17.2879C8.11391 17.5227 7.98203 17.841 7.98203 18.173C7.98203 18.8642 8.54242 19.4246 9.23367 19.4246H10.7663C11.4576 19.4246 12.018 18.8642 12.018 18.173ZM2.63129 14.9455C2.84035 14.9615 3.09328 14.9707 3.34734 14.9558C3.4827 15.6422 3.81895 16.2788 4.32086 16.7808C4.98719 17.4471 5.8909 17.8214 6.8332 17.8214H7.31078C7.28973 17.9366 7.27891 18.0543 7.27891 18.173C7.27891 18.293 7.28973 18.4106 7.31047 18.5245H6.8332C5.70441 18.5245 4.62184 18.0761 3.82367 17.278C3.18691 16.6412 2.77273 15.8234 2.63129 14.9455ZM2.27363 14.1973C1.71852 14.1038 1.20195 13.8398 0.798711 13.4366C0.287305 12.9252 0 12.2315 0 11.5083V9.84645C0 9.12321 0.287305 8.42957 0.798711 7.91817C1.31012 7.40676 2.00375 7.11942 2.72699 7.11942H2.90852C3.19867 3.45708 6.26281 0.575317 10 0.575317C13.7372 0.575317 16.8013 3.45708 17.0915 7.11942H17.273C17.9963 7.11942 18.6899 7.40676 19.2013 7.91817C19.7127 8.42957 20 9.12321 20 9.84645V11.5083C20 12.2315 19.7127 12.9252 19.2013 13.4366C18.6899 13.948 17.9963 14.2353 17.273 14.2353H16.4683C16.1345 14.2353 15.864 13.9647 15.864 13.631V7.6893C15.864 4.45071 13.2386 1.82532 10 1.82532C6.76141 1.82532 4.13602 4.45071 4.13602 7.6893V13.631C4.13602 13.8666 4.00113 14.0708 3.80434 14.1705C3.26262 14.3584 2.4225 14.2225 2.27363 14.1973Z" fill="white"/>
</g>
<defs>
<clipPath id="clip0_26_61">
<rect width="20" height="20" fill="white"/>
</clipPath>
</defs>
</svg>
