<svg width="20" height="22" viewBox="0 0 20 22" fill="none" xmlns="http://www.w3.org/2000/svg">
<path d="M18.5043 14.7436C17.8924 14.482 17.3712 14.0458 17.0058 13.4897C16.6404 12.9336 16.4469 12.2821 16.4496 11.6166C16.4575 11.0227 16.6166 10.4405 16.9118 9.92499C17.2071 9.40951 17.6287 8.97773 18.1371 8.67036C18.2521 8.59928 18.3515 8.50562 18.4293 8.39504C18.5071 8.28446 18.5616 8.15925 18.5896 8.02699C18.6177 7.89472 18.6186 7.75814 18.5923 7.62552C18.5661 7.49289 18.5132 7.36697 18.4369 7.25536C17.9799 6.59082 17.3842 6.03337 16.6908 5.62148C15.9974 5.20958 15.2229 4.95306 14.4208 4.86963C15.1674 3.68476 15.5062 2.28832 15.3856 0.893046C15.3621 0.639689 15.2413 0.405299 15.0487 0.239061C14.856 0.0728238 14.6065 -0.012338 14.3524 0.00144634C12.6353 0.154484 11.0436 0.96434 9.90904 2.26219C9.18982 3.09557 8.68229 4.09018 8.42955 5.1616C7.90737 4.98488 7.36066 4.89129 6.80943 4.88426C5.78892 4.91318 4.79319 5.20529 3.91879 5.73227C3.04439 6.25926 2.32098 7.00322 1.81871 7.89205C-0.068989 11.1694 1.0858 16.0805 3.13071 19.0366C3.95102 20.2211 5.18198 21.9995 7.03891 21.9995C7.07553 21.9995 7.11264 21.9995 7.14975 21.9975C7.77193 21.9622 8.38104 21.8045 8.94223 21.5336C9.39049 21.3064 9.88503 21.1854 10.3876 21.1801C10.8601 21.1858 11.3249 21.3015 11.745 21.518C12.3588 21.8084 13.0278 21.9639 13.7069 21.974C15.62 21.9379 16.7499 20.2875 17.5751 19.0814C18.2262 18.1235 18.7356 17.0765 19.0877 15.973C19.1628 15.7323 19.1444 15.4721 19.0363 15.2443C18.9282 15.0165 18.7382 14.8377 18.5043 14.7436V14.7436ZM11.4232 3.56787C11.9484 2.98036 12.6065 2.527 13.3426 2.24561C13.1816 3.03784 12.8253 3.77733 12.306 4.39697C11.9536 4.81984 11.5247 5.17267 11.0419 5.43705L11.0389 5.43805C11.0106 5.44977 10.9823 5.46051 10.9539 5.47223C10.7674 5.54547 10.5369 5.63629 10.3592 5.69488C10.5308 4.9082 10.8966 4.17699 11.4232 3.56787V3.56787ZM15.9247 17.9526C15.121 19.1265 14.4887 19.9595 13.6703 19.9741C13.2747 19.9729 12.8857 19.8725 12.5389 19.6821C11.8685 19.3555 11.1333 19.1839 10.3876 19.1801C9.61594 19.184 8.85479 19.3591 8.15904 19.6928C7.82077 19.8655 7.45174 19.9697 7.0731 19.9994H7.04332C6.23032 19.9994 5.35582 18.7368 4.77525 17.8979C3.32261 15.7983 1.98277 11.6147 3.55211 8.89008C3.88119 8.30048 4.3571 7.80597 4.93364 7.45453C5.51019 7.10309 6.16779 6.90665 6.84263 6.88428L6.87632 6.88328C7.4456 6.93166 8.00151 7.08217 8.51744 7.32762C8.64879 7.37937 8.77818 7.43113 8.9066 7.47898C8.93931 7.49266 8.973 7.50535 9.00718 7.51609C9.36305 7.65922 9.74105 7.73951 10.1244 7.7534C10.6671 7.71026 11.1973 7.56759 11.6884 7.3325C12.3806 6.99652 13.1416 6.82634 13.911 6.83543C14.734 6.86763 15.5241 7.16728 16.1615 7.68895C15.6168 8.19081 15.1831 8.80108 14.8883 9.48054C14.5935 10.16 14.444 10.8936 14.4496 11.6343V11.6353C14.4439 12.5319 14.6658 13.4153 15.0945 14.2028C15.5232 14.9903 16.1447 15.6562 16.9008 16.1382C16.6375 16.7744 16.3104 17.3823 15.9247 17.9526V17.9526Z" fill="#018DBE"/>
</svg>
