<svg width="12" height="12" viewBox="0 0 12 12" fill="none" xmlns="http://www.w3.org/2000/svg">
<path d="M1.41016 2.10156H1.44567C1.92406 2.10156 2.16325 2.10156 2.35771 2.1883C2.52913 2.26477 2.67558 2.38794 2.78028 2.54373C2.89906 2.72045 2.94004 2.9561 3.02201 3.42742L3.07169 3.71305M3.07169 3.71305L3.204 4.47387C3.38318 5.50414 3.47277 6.01928 3.7381 6.39038C3.97173 6.71714 4.29833 6.96597 4.67538 7.10449C5.1036 7.26179 5.62404 7.21143 6.66492 7.1107L9.52006 6.83439C10.2738 6.76145 10.8488 6.12804 10.8488 5.3708V5.3708C10.8488 4.57565 10.2167 3.92455 9.42193 3.90102L3.07169 3.71305Z" stroke="#696768" stroke-linecap="round" stroke-linejoin="round"/>
<ellipse cx="4.86421" cy="9.69868" rx="0.920848" ry="0.920848" stroke="#696768"/>
<ellipse cx="9.23823" cy="9.69868" rx="0.920847" ry="0.920848" stroke="#696768"/>
</svg>
