<svg width="41" height="33" viewBox="0 0 41 33" fill="none" xmlns="http://www.w3.org/2000/svg">
<path d="M6.38449 0.107178H34.6166C36.1287 0.107079 37.5834 0.685579 38.6825 1.72401C39.7815 2.76244 40.4416 4.18207 40.5272 5.69168L40.5363 6.02682V26.9732C40.5364 28.4853 39.9579 29.94 38.9194 31.0391C37.881 32.1381 36.4614 32.7982 34.9518 32.8838L34.6166 32.8929H6.38449C4.87245 32.893 3.41769 32.3145 2.31864 31.2761C1.21958 30.2376 0.559556 28.818 0.473951 27.3084L0.464844 26.9732V6.02682C0.464745 4.51478 1.04325 3.06003 2.08167 1.96097C3.1201 0.861918 4.53973 0.20189 6.04934 0.116285L6.38449 0.107178H34.6166H6.38449ZM37.8041 10.8627L21.1308 19.5327C20.9693 19.6166 20.7926 19.6674 20.6112 19.6821C20.4298 19.6968 20.2473 19.6751 20.0743 19.6183L19.8703 19.5327L3.19699 10.8627V26.9732C3.19702 27.7732 3.49783 28.5439 4.03972 29.1323C4.58162 29.7208 5.32496 30.084 6.1222 30.1498L6.38449 30.1607H34.6166C35.4169 30.1607 36.1878 29.8596 36.7763 29.3173C37.3648 28.7751 37.7278 28.0313 37.7932 27.2337L37.8041 26.9732V10.8627ZM34.6166 2.83932H6.38449C5.58453 2.83935 4.81384 3.14017 4.22538 3.68206C3.63693 4.22395 3.27374 4.96729 3.20791 5.76453L3.19699 6.02682V7.78268L20.5006 16.7805L37.8041 7.78268V6.02682C37.8041 5.22658 37.503 4.45564 36.9607 3.86714C36.4184 3.27864 35.6747 2.91564 34.8771 2.85025L34.6166 2.83932Z" fill="#9DC1F0"/>
</svg>
