<svg width="35" height="47" viewBox="0 0 35 47" fill="none" xmlns="http://www.w3.org/2000/svg">
<path d="M17.7969 11.4602C16.5607 11.4602 15.3524 11.8268 14.3246 12.5135C13.2968 13.2003 12.4957 14.1764 12.0226 15.3184C11.5496 16.4605 11.4258 17.7171 11.667 18.9295C11.9081 20.1419 12.5034 21.2555 13.3775 22.1296C14.2515 23.0037 15.3652 23.5989 16.5776 23.8401C17.7899 24.0813 19.0466 23.9575 20.1886 23.4844C21.3307 23.0114 22.3068 22.2103 22.9936 21.1825C23.6803 20.1547 24.0469 18.9463 24.0469 17.7102C24.045 16.0532 23.3859 14.4646 22.2142 13.2929C21.0425 12.1212 19.4539 11.4621 17.7969 11.4602ZM17.7969 20.8352C17.1788 20.8352 16.5746 20.6519 16.0607 20.3085C15.5468 19.9652 15.1463 19.4771 14.9098 18.9061C14.6732 18.3351 14.6113 17.7067 14.7319 17.1005C14.8525 16.4944 15.1501 15.9375 15.5872 15.5005C16.0242 15.0635 16.581 14.7658 17.1872 14.6452C17.7934 14.5247 18.4217 14.5866 18.9928 14.8231C19.5638 15.0596 20.0518 15.4601 20.3952 15.974C20.7386 16.4879 20.9219 17.0921 20.9219 17.7102C20.9209 18.5387 20.5914 19.333 20.0055 19.9189C19.4197 20.5047 18.6254 20.8342 17.7969 20.8352Z" fill="#9DC1F0"/>
<path d="M29.8074 5.69093C26.838 2.72222 22.8741 0.958689 18.6809 0.740695C14.4876 0.5227 10.3622 1.8657 7.10093 4.51049C3.83964 7.15528 1.67363 10.9144 1.02095 15.0623C0.36826 19.2101 1.27517 23.4528 3.56663 26.9713L15.374 45.0976C15.6367 45.5009 15.996 45.8323 16.4192 46.0617C16.8424 46.2911 17.3162 46.4112 17.7975 46.4112C18.2789 46.4112 18.7527 46.2911 19.1759 46.0617C19.5991 45.8323 19.9584 45.5009 20.2211 45.0976L32.0288 26.9713C34.155 23.7073 35.0947 19.8117 34.6903 15.9374C34.2858 12.063 32.5619 8.44541 29.8074 5.69093ZM29.4105 25.2655L17.7976 43.0927L6.1846 25.2655C2.62991 19.8086 3.39231 12.5059 7.99739 7.9006C9.28436 6.61359 10.8122 5.59269 12.4937 4.89616C14.1753 4.19964 15.9775 3.84114 17.7976 3.84114C19.6177 3.84114 21.4199 4.19964 23.1014 4.89616C24.7829 5.59269 26.3108 6.61359 27.5978 7.9006C32.2029 12.5059 32.9652 19.8086 29.4105 25.2655Z" fill="#9DC1F0"/>
</svg>
