<svg width="215" height="31" viewBox="0 0 215 31" fill="none" xmlns="http://www.w3.org/2000/svg">
<path d="M1.99 30C1.71 30 1.458 29.902 1.234 29.706C1.038 29.482 0.94 29.23 0.94 28.95V1.65C0.94 1.342 1.038 1.09 1.234 0.893999C1.458 0.697998 1.71 0.599998 1.99 0.599998H7.534C7.842 0.599998 8.094 0.697998 8.29 0.893999C8.486 1.09 8.584 1.342 8.584 1.65V23.658H21.31C21.618 23.658 21.87 23.77 22.066 23.994C22.262 24.19 22.36 24.442 22.36 24.75V28.95C22.36 29.23 22.262 29.482 22.066 29.706C21.87 29.902 21.618 30 21.31 30H1.99ZM37.8153 30.42C33.8673 30.42 30.7733 29.454 28.5333 27.522C26.3213 25.59 25.2153 22.678 25.2153 18.786V1.65C25.2153 1.342 25.3133 1.09 25.5093 0.893999C25.7333 0.697998 25.9853 0.599998 26.2653 0.599998H31.6833C31.9913 0.599998 32.2433 0.697998 32.4393 0.893999C32.6633 1.09 32.7753 1.342 32.7753 1.65V18.744C32.7753 20.564 33.1953 21.936 34.0353 22.86C34.9033 23.756 36.1493 24.204 37.7733 24.204C39.3693 24.204 40.6013 23.742 41.4693 22.818C42.3373 21.894 42.7713 20.536 42.7713 18.744V1.65C42.7713 1.342 42.8693 1.09 43.0653 0.893999C43.2893 0.697998 43.5413 0.599998 43.8213 0.599998H49.2813C49.5893 0.599998 49.8413 0.697998 50.0373 0.893999C50.2333 1.09 50.3313 1.342 50.3313 1.65V18.786C50.3313 22.678 49.2113 25.59 46.9713 27.522C44.7593 29.454 41.7073 30.42 37.8153 30.42ZM67.9549 30.42C63.9509 30.42 60.8149 29.454 58.5469 27.522C56.3069 25.562 55.1169 22.734 54.9769 19.038C54.9489 18.282 54.9349 17.05 54.9349 15.342C54.9349 13.606 54.9489 12.346 54.9769 11.562C55.1169 7.922 56.3349 5.122 58.6309 3.162C60.9269 1.174 64.0349 0.179998 67.9549 0.179998C70.4189 0.179998 72.6309 0.599999 74.5909 1.44C76.5509 2.252 78.0909 3.428 79.2109 4.968C80.3589 6.48 80.9469 8.258 80.9749 10.302V10.386C80.9749 10.61 80.8769 10.806 80.6809 10.974C80.5129 11.114 80.3169 11.184 80.0929 11.184H74.4229C74.0589 11.184 73.7789 11.114 73.5829 10.974C73.3869 10.806 73.2189 10.512 73.0789 10.092C72.6869 8.664 72.0709 7.67 71.2309 7.11C70.3909 6.522 69.2849 6.228 67.9129 6.228C64.6089 6.228 62.9009 8.076 62.7889 11.772C62.7609 12.528 62.7469 13.69 62.7469 15.258C62.7469 16.826 62.7609 18.016 62.7889 18.828C62.9009 22.524 64.6089 24.372 67.9129 24.372C69.2849 24.372 70.4049 24.078 71.2729 23.49C72.1409 22.874 72.7429 21.88 73.0789 20.508C73.1909 20.088 73.3449 19.808 73.5409 19.668C73.7369 19.5 74.0309 19.416 74.4229 19.416H80.0929C80.3449 19.416 80.5549 19.5 80.7229 19.668C80.9189 19.836 81.0029 20.046 80.9749 20.298C80.9469 22.342 80.3589 24.134 79.2109 25.674C78.0909 27.186 76.5509 28.362 74.5909 29.202C72.6309 30.014 70.4189 30.42 67.9549 30.42ZM86.4412 30C86.1612 30 85.9092 29.902 85.6852 29.706C85.4892 29.482 85.3912 29.23 85.3912 28.95V1.65C85.3912 1.342 85.4892 1.09 85.6852 0.893999C85.9092 0.697998 86.1612 0.599998 86.4412 0.599998H91.7332C92.0412 0.599998 92.2932 0.697998 92.4892 0.893999C92.6852 1.09 92.7832 1.342 92.7832 1.65V10.974L100.553 1.398C100.889 0.865998 101.435 0.599998 102.191 0.599998H108.239C108.491 0.599998 108.701 0.697998 108.869 0.893999C109.037 1.062 109.121 1.258 109.121 1.482C109.121 1.678 109.079 1.846 108.995 1.986L98.9152 14.67L109.751 28.614C109.863 28.726 109.919 28.894 109.919 29.118C109.919 29.342 109.835 29.552 109.667 29.748C109.499 29.916 109.289 30 109.037 30H102.779C102.107 30 101.547 29.72 101.099 29.16L92.7832 18.786V28.95C92.7832 29.258 92.6852 29.51 92.4892 29.706C92.2932 29.902 92.0412 30 91.7332 30H86.4412ZM121.851 30C121.571 30 121.319 29.902 121.095 29.706C120.899 29.482 120.801 29.23 120.801 28.95V19.92L111.057 1.944C110.973 1.692 110.931 1.538 110.931 1.482C110.931 1.258 111.015 1.062 111.183 0.893999C111.379 0.697998 111.603 0.599998 111.855 0.599998H117.105C117.665 0.599998 118.155 0.893998 118.575 1.482L124.581 12.318L130.629 1.482C130.965 0.893998 131.455 0.599998 132.099 0.599998H137.349C137.601 0.599998 137.811 0.697998 137.979 0.893999C138.147 1.062 138.231 1.258 138.231 1.482C138.231 1.622 138.203 1.776 138.147 1.944L128.403 19.92V28.95C128.403 29.258 128.291 29.51 128.067 29.706C127.871 29.902 127.619 30 127.311 30H121.851Z" fill="#222222"/>
<path d="M146.533 30C146.057 30 145.679 29.874 145.399 29.622C145.119 29.342 144.951 29.006 144.895 28.614L140.317 1.776C140.289 1.692 140.275 1.594 140.275 1.482C140.275 1.258 140.359 1.062 140.527 0.893999C140.723 0.697998 140.933 0.599998 141.157 0.599998H146.365C147.149 0.599998 147.583 0.907998 147.667 1.524L150.397 17.904L153.421 8.244C153.729 7.488 154.191 7.11 154.807 7.11H157.831C158.531 7.11 158.993 7.488 159.217 8.244L162.241 17.904L164.971 1.524C165.055 0.907998 165.489 0.599998 166.273 0.599998H171.481C171.733 0.599998 171.943 0.697998 172.111 0.893999C172.307 1.062 172.405 1.258 172.405 1.482L172.363 1.776L167.785 28.614C167.729 29.006 167.547 29.342 167.239 29.622C166.959 29.874 166.595 30 166.147 30H162.157C161.709 30 161.359 29.888 161.107 29.664C160.855 29.44 160.673 29.188 160.561 28.908L156.319 16.896L152.077 28.908C151.825 29.636 151.307 30 150.523 30H146.533ZM177.783 30C177.503 30 177.251 29.902 177.027 29.706C176.831 29.482 176.733 29.23 176.733 28.95V1.65C176.733 1.342 176.831 1.09 177.027 0.893999C177.251 0.697998 177.503 0.599998 177.783 0.599998H183.411C183.719 0.599998 183.971 0.697998 184.167 0.893999C184.391 1.09 184.503 1.342 184.503 1.65V28.95C184.503 29.258 184.391 29.51 184.167 29.706C183.971 29.902 183.719 30 183.411 30H177.783ZM191.4 30C191.12 30 190.868 29.902 190.644 29.706C190.448 29.482 190.35 29.23 190.35 28.95V1.65C190.35 1.342 190.448 1.09 190.644 0.893999C190.868 0.697998 191.12 0.599998 191.4 0.599998H195.852C196.552 0.599998 197.028 0.865998 197.28 1.398L207.528 17.526V1.65C207.528 1.342 207.626 1.09 207.822 0.893999C208.046 0.697998 208.298 0.599998 208.578 0.599998H213.618C213.926 0.599998 214.178 0.697998 214.374 0.893999C214.57 1.09 214.668 1.342 214.668 1.65V28.908C214.668 29.216 214.57 29.482 214.374 29.706C214.178 29.902 213.926 30 213.618 30H209.124C208.508 30 208.046 29.734 207.738 29.202L197.49 13.662V28.95C197.49 29.23 197.392 29.482 197.196 29.706C197 29.902 196.748 30 196.44 30H191.4Z" fill="#FF0000"/>
</svg>
