<svg width="29" height="28" viewBox="0 0 29 28" fill="none" xmlns="http://www.w3.org/2000/svg">
<path d="M14.96 0C18.673 0 22.2339 1.475 24.8595 4.10051C27.485 6.72601 28.96 10.287 28.96 14C28.96 17.713 27.485 21.274 24.8595 23.8995C22.2339 26.525 18.673 28 14.96 28C11.2469 28 7.68598 26.525 5.06047 23.8995C2.43496 21.274 0.959961 17.713 0.959961 14C0.959961 10.287 2.43496 6.72601 5.06047 4.10051C7.68598 1.475 11.2469 0 14.96 0ZM8.83496 13.125C8.6029 13.125 8.38034 13.2172 8.21624 13.3813C8.05215 13.5454 7.95996 13.7679 7.95996 14C7.95996 14.2321 8.05215 14.4546 8.21624 14.6187C8.38034 14.7828 8.6029 14.875 8.83496 14.875H18.9727L15.2155 18.6305C15.1341 18.7119 15.0696 18.8084 15.0255 18.9147C14.9815 19.021 14.9589 19.1349 14.9589 19.25C14.9589 19.3651 14.9815 19.479 15.0255 19.5853C15.0696 19.6916 15.1341 19.7881 15.2155 19.8695C15.2968 19.9509 15.3934 20.0154 15.4997 20.0594C15.606 20.1034 15.7199 20.1261 15.835 20.1261C15.95 20.1261 16.0639 20.1034 16.1702 20.0594C16.2765 20.0154 16.3731 19.9509 16.4545 19.8695L21.7045 14.6195C21.7859 14.5382 21.8506 14.4417 21.8947 14.3354C21.9388 14.2291 21.9615 14.1151 21.9615 14C21.9615 13.8849 21.9388 13.7709 21.8947 13.6646C21.8506 13.5583 21.7859 13.4618 21.7045 13.3805L16.4545 8.1305C16.3731 8.04915 16.2765 7.98461 16.1702 7.94058C16.0639 7.89656 15.95 7.87389 15.835 7.87389C15.7199 7.87389 15.606 7.89656 15.4997 7.94058C15.3934 7.98461 15.2968 8.04915 15.2155 8.1305C15.1341 8.21185 15.0696 8.30843 15.0255 8.41473C14.9815 8.52102 14.9589 8.63495 14.9589 8.75C14.9589 8.86505 14.9815 8.97898 15.0255 9.08527C15.0696 9.19157 15.1341 9.28815 15.2155 9.3695L18.9727 13.125H8.83496Z" fill="#9DC1F0"/>
</svg>
