<svg width="33" height="35" viewBox="0 0 33 35" fill="none" xmlns="http://www.w3.org/2000/svg">
<path d="M14.6242 0.202997C9.81228 1.07831 6.03152 4.62057 4.78043 9.4211C4.6017 10.1049 4.47797 11.158 4.42297 12.471L4.34048 14.4952H3.77681C3.00691 14.4952 1.90705 15.0422 1.38462 15.6713C0.600968 16.615 0.532227 17.039 0.532227 20.9232C0.532227 24.4108 0.532227 24.4244 0.88968 25.1356C1.64583 26.6537 2.64945 27.0777 5.44034 27.0777C7.21386 27.0777 7.29635 27.064 7.61256 26.7358L7.95627 26.4076V20.9369C7.95627 15.5619 7.90127 14.8644 7.50257 14.6046C7.40634 14.5499 7.06263 14.4952 6.73267 14.4952H6.12775L6.21024 12.471C6.25149 11.2538 6.37522 10.146 6.5127 9.63992C7.77754 5.14029 11.6545 2.03568 16.2877 1.81685C18.3362 1.72111 19.6835 1.98097 21.4983 2.86995C24.2067 4.19659 26.0489 6.31648 27.0113 9.22962C27.3275 10.1596 27.3963 10.6383 27.4512 12.4026L27.5062 14.4952H26.9013C26.4476 14.4952 26.2139 14.5772 26.0214 14.7824C25.774 15.0559 25.7602 15.3568 25.7602 20.8001C25.7602 27.2829 25.6915 26.9273 26.8876 27.0777L27.5475 27.1461L26.8326 27.8573C25.664 28.9925 24.2479 29.6626 22.5569 29.8541C22.0757 29.9088 21.952 29.8814 21.897 29.7036C21.5533 28.5138 20.7009 27.4743 19.6423 26.941C16.8376 25.5186 13.4556 27.5427 13.4556 30.6473C13.4556 31.1397 13.5518 31.8235 13.6755 32.1791C13.9642 33.0134 14.9679 34.1075 15.8477 34.5589C18.0887 35.694 20.9621 34.5452 21.7732 32.1791C21.952 31.6731 21.952 31.6731 23.0243 31.509C25.0178 31.2218 26.3789 30.579 27.7812 29.2933C28.2349 28.8694 28.8398 28.1719 29.1423 27.7479C29.5822 27.1051 29.7472 26.9546 30.1871 26.8726C31.342 26.6537 32.2769 25.9015 32.5656 24.9168C32.6756 24.5886 32.7031 23.1662 32.6756 20.8548L32.6343 17.2989L32.2631 16.5877C31.617 15.3841 30.5033 14.4952 29.6372 14.4952H29.3073L29.2248 12.4026C29.1698 10.8845 29.0735 10.0365 28.8536 9.2433C27.1488 2.97937 20.9346 -0.959522 14.6242 0.202997ZM6.169 20.7864V25.2997H4.86292C3.41935 25.2997 2.92442 25.1356 2.53947 24.5475C2.33324 24.233 2.30575 23.7816 2.3195 20.8275C2.33324 16.3278 2.36074 16.2731 4.75293 16.2731H6.169V20.7864ZM30.1184 16.5467C30.8333 17.0937 30.957 17.7229 31.0258 20.7864C31.0808 24.1099 31.012 24.5612 30.3796 24.9852C29.9809 25.2587 29.7334 25.2997 28.7023 25.2997H27.4787V20.7864V16.2731H28.6336C29.5685 16.2731 29.8434 16.3278 30.1184 16.5467ZM18.6524 28.377C19.6835 28.8147 20.2334 29.6079 20.2334 30.702C20.2472 31.6047 19.876 32.3432 19.1886 32.7946C18.7211 33.1091 18.4737 33.1639 17.7175 33.1639C16.9201 33.1639 16.7414 33.1091 16.2877 32.7672C15.3528 32.056 14.9679 31.0987 15.2428 30.1003C15.6415 28.6369 17.2638 27.8163 18.6524 28.377Z" fill="#9DC1F0"/>
</svg>
