<svg width="34" height="45" viewBox="0 0 34 45" fill="none" xmlns="http://www.w3.org/2000/svg">
<path d="M7.1619 0.762367C5.52303 1.70198 3.1412 4.04011 2.13603 5.72268C-0.704682 10.4426 -0.704682 16.867 2.09232 22.8543C3.57823 26.0447 9.39076 35.7905 10.9859 37.779C16.4488 44.5967 24.4684 46.8255 31.3298 43.4385C33.6897 42.2586 34.0612 41.7341 33.9301 39.7456C33.8209 37.9975 33.209 36.599 31.3298 33.7146C29.1665 30.3931 27.5931 29.1694 25.4735 29.1694C24.4465 29.1694 23.9876 29.3224 22.3051 30.2183C18.9181 32.0539 18.3718 31.6824 14.5259 25.0832C13.0618 22.5484 11.7289 20.0792 11.5541 19.5766C10.9422 17.7848 11.5541 16.6485 13.7611 15.4029C16.2522 14.0044 17.1918 12.2563 16.7329 9.80893C16.4488 8.25747 14.4385 4.14936 13.1274 2.48864C11.0733 -0.177254 9.58742 -0.614285 7.1619 0.762367ZM10.8767 3.47197C12.0348 4.80491 13.8266 8.21376 14.2637 9.87449C14.7663 11.8193 14.5696 12.1689 12.1878 13.5674C10.1337 14.7911 9.43446 15.6652 9.08484 17.4133C8.71336 19.4673 9.01928 20.3196 12.2752 25.9136C13.914 28.7324 15.4874 31.3109 15.7714 31.6605C16.6236 32.6439 18.5903 33.5179 20.0106 33.5179C21.0377 33.5179 21.4965 33.3431 23.1136 32.469C24.1406 31.9009 25.2332 31.442 25.5391 31.442C25.8232 31.442 26.4569 31.7261 26.9376 32.0757C28.5328 33.2338 31.592 38.369 31.592 39.8986C31.592 40.4667 31.439 40.6634 30.6742 41.1223C28.1831 42.5645 24.1624 43.0671 21.431 42.2804C17.9566 41.2534 14.1326 38.3471 11.7726 34.8946C10.3741 32.8405 5.04229 23.6628 4.23378 21.8929C2.59491 18.2874 1.96121 14.0044 2.59491 10.9671C3.29416 7.71117 5.30451 4.80491 8.07966 3.01308C9.54372 2.05161 9.69668 2.07346 10.8767 3.47197Z" fill="#9DC1F0"/>
</svg>
