<svg width="21" height="27" viewBox="0 0 21 27" fill="none" xmlns="http://www.w3.org/2000/svg">
<path d="M4.70928 0.45742C3.72081 1.02119 2.28423 2.42406 1.67797 3.43361C-0.0353738 6.26558 -0.0353738 10.1202 1.65161 13.7126C2.54782 15.6268 6.05359 21.4743 7.0157 22.6674C10.3106 26.758 15.1475 28.0953 19.2859 26.0631C20.7093 25.3551 20.9333 25.0405 20.8543 23.8474C20.7884 22.7985 20.4193 21.9594 19.2859 20.2288C17.9811 18.2359 17.0322 17.5017 15.7538 17.5017C15.1343 17.5017 14.8576 17.5934 13.8427 18.131C11.7999 19.2323 11.4704 19.0094 9.15079 15.0499C8.26776 13.529 7.46381 12.0475 7.35837 11.746C6.98934 10.6709 7.35837 9.98909 8.68951 9.24176C10.192 8.40266 10.7587 7.35379 10.4819 5.88536C10.3106 4.95448 9.09808 2.48962 8.3073 1.49319C7.06842 -0.106352 6.17221 -0.368571 4.70928 0.45742ZM6.9498 2.08318C7.64832 2.88295 8.72905 4.92826 8.99264 5.92469C9.29577 7.09157 9.17715 7.30134 7.74058 8.14044C6.5017 8.87466 6.07995 9.3991 5.86908 10.448C5.64503 11.6804 5.82954 12.1917 7.7933 15.5481C8.78177 17.2395 9.73069 18.7865 9.90203 18.9963C10.416 19.5863 11.6022 20.1108 12.4589 20.1108C13.0783 20.1108 13.3551 20.0059 14.3304 19.4814C14.9498 19.1405 15.6088 18.8652 15.7933 18.8652C15.9646 18.8652 16.3468 19.0357 16.6368 19.2454C17.5989 19.9403 19.444 23.0214 19.444 23.9392C19.444 24.28 19.3518 24.398 18.8905 24.6734C17.388 25.5387 14.963 25.8402 13.3155 25.3682C11.22 24.752 8.91356 23.0083 7.49017 20.9367C6.64667 19.7043 3.43086 14.1977 2.94321 13.1357C1.95474 10.9724 1.57253 8.40266 1.95474 6.58024C2.37649 4.62671 3.58901 2.88295 5.26282 1.80785C6.14585 1.23097 6.23811 1.24408 6.9498 2.08318Z" fill="#9DC1F0"/>
</svg>
