<svg width="20" height="22" viewBox="0 0 20 22" fill="none" xmlns="http://www.w3.org/2000/svg">
<path d="M18.9192 9.65288C18.6047 9.48296 15.9084 7.9185 14.8967 7.32964L14.8938 7.32764L2.63891 0.252503C2.43013 0.125056 2.19602 0.0447655 1.95297 0.0172493C1.70992 -0.010267 1.46379 0.0156556 1.2318 0.0932035C1.20562 0.102603 1.18102 0.112063 1.15557 0.123713C1.09648 0.142973 1.03872 0.166097 0.982659 0.192933C0.748345 0.332987 0.556113 0.53361 0.426192 0.77369C0.29627 1.01377 0.233463 1.28443 0.244379 1.55719V20.5425C0.236942 20.7967 0.297126 21.0482 0.418777 21.2714C0.540428 21.4946 0.719182 21.6816 0.936759 21.813C0.986941 21.8376 1.03864 21.8589 1.09155 21.8768C1.12048 21.8901 1.14806 21.9018 1.17791 21.9123C1.32112 21.9642 1.47195 21.9921 1.62426 21.9947C1.91675 21.9915 2.2033 21.9117 2.45532 21.7632C2.84399 21.5377 14.8938 14.5806 14.8938 14.5806L18.9143 12.2593C19.1629 12.1348 19.3727 11.9447 19.5211 11.7096C19.6694 11.4745 19.7507 11.2033 19.7561 10.9253C19.7439 10.6576 19.6597 10.3981 19.5124 10.1742C19.3651 9.95024 19.1602 9.77016 18.9192 9.65288ZM2.24438 18.8389V3.10174L10.1845 10.9608L2.24438 18.8389ZM7.26238 16.6772L11.6059 12.3676L12.7554 13.5055C11.4908 14.2357 9.35412 15.4695 7.26238 16.6772V16.6772ZM11.6042 9.5522L7.20631 5.19921L12.76 8.40551L11.6042 9.5522ZM14.551 12.4689L13.0256 10.9591L14.5533 9.44329C15.2736 9.86157 16.3961 10.5126 17.1692 10.9576L14.551 12.4689Z" fill="#018DBE"/>
</svg>
