<svg width="18" height="20" viewBox="0 0 18 20" fill="none" xmlns="http://www.w3.org/2000/svg">
<path d="M16.7539 8.99998C16.9352 8.99998 17.1103 9.06562 17.2469 9.18474C17.3835 9.30387 17.4723 9.46842 17.4969 9.64798L17.5039 9.74998V16.75C17.5043 17.5801 17.1869 18.3789 16.617 18.9825C16.047 19.5861 15.2677 19.9487 14.4389 19.996L14.2539 20.001H3.25395C2.42398 20.0008 1.62554 19.6831 1.02235 19.113C0.419162 18.5429 0.0569339 17.7636 0.00994512 16.935L0.00394507 16.751V9.74998C0.00199884 9.5586 0.0732887 9.37372 0.203216 9.23319C0.333144 9.09267 0.511878 9.00713 0.70282 8.99409C0.893762 8.98106 1.08246 9.04151 1.23029 9.16307C1.37811 9.28464 1.47386 9.45811 1.49795 9.64798L1.50395 9.74998V16.75C1.50373 17.1895 1.66891 17.613 1.96665 17.9363C2.2644 18.2596 2.67289 18.4591 3.11095 18.495L3.25395 18.501H14.2539C14.6936 18.5014 15.1174 18.3364 15.4409 18.0386C15.7644 17.7408 15.964 17.3322 15.9999 16.894L16.0049 16.751V9.74998C16.0049 9.55106 16.084 9.3603 16.2246 9.21965C16.3653 9.07899 16.556 8.99998 16.7549 8.99998H16.7539ZM3.21994 5.21598L8.21594 0.219977C8.34293 0.0929589 8.51129 0.0157307 8.6904 0.00233427C8.8695 -0.0110622 9.04747 0.0402627 9.19195 0.146977L9.27594 0.218977L14.2809 5.21598C14.4155 5.34963 14.4944 5.52929 14.5018 5.71879C14.5092 5.90829 14.4445 6.09356 14.3208 6.2373C14.1971 6.38103 14.0235 6.47257 13.835 6.49348C13.6466 6.51438 13.4571 6.46311 13.3049 6.34998L13.2209 6.27698L9.49794 2.56098L9.49894 14.255C9.49894 14.4362 9.4333 14.6113 9.31418 14.7479C9.19505 14.8845 9.0305 14.9733 8.85094 14.998L8.74894 15.005C8.56771 15.005 8.3926 14.9393 8.25601 14.8202C8.11942 14.7011 8.03059 14.5365 8.00594 14.357L7.99995 14.255V2.55798L4.27995 6.27698C4.15296 6.40399 3.9846 6.48122 3.80549 6.49462C3.62638 6.50802 3.44842 6.45669 3.30395 6.34998L3.21994 6.27698C3.09267 6.14993 3.01527 5.98138 3.00187 5.80204C2.98847 5.62271 3.03996 5.44453 3.14694 5.29998L3.21994 5.21598L8.21594 0.219977L3.21994 5.21598Z" fill="#696768"/>
</svg>
