<svg width="23" height="24" viewBox="0 0 23 24" fill="none" xmlns="http://www.w3.org/2000/svg">
<path d="M21.1671 19.0312C20.6144 17.7222 19.8124 16.5331 18.8057 15.5303C17.8021 14.5245 16.6133 13.7227 15.3048 13.1689C15.293 13.1631 15.2813 13.1602 15.2696 13.1543C17.0948 11.8359 18.2813 9.68848 18.2813 7.26562C18.2813 3.25195 15.0294 0 11.0157 0C7.00203 0 3.75007 3.25195 3.75007 7.26562C3.75007 9.68848 4.9366 11.8359 6.76179 13.1572C6.75007 13.1631 6.73836 13.166 6.72664 13.1719C5.41414 13.7256 4.2364 14.5195 3.22566 15.5332C2.21993 16.5368 1.41806 17.7257 0.864331 19.0342C0.320353 20.3152 0.0269735 21.6886 7.32598e-05 23.0801C-0.000708689 23.1113 0.00477577 23.1425 0.0162036 23.1716C0.0276315 23.2007 0.0447714 23.2272 0.0666135 23.2496C0.0884556 23.272 0.114558 23.2898 0.143382 23.3019C0.172207 23.3141 0.20317 23.3203 0.234448 23.3203H1.99226C2.12117 23.3203 2.22371 23.2178 2.22664 23.0918C2.28523 20.8301 3.19343 18.7119 4.7989 17.1064C6.46004 15.4453 8.66609 14.5312 11.0157 14.5312C13.3653 14.5312 15.5714 15.4453 17.2325 17.1064C18.838 18.7119 19.7462 20.8301 19.8048 23.0918C19.8077 23.2207 19.9102 23.3203 20.0391 23.3203H21.797C21.8282 23.3203 21.8592 23.3141 21.888 23.3019C21.9168 23.2898 21.9429 23.272 21.9648 23.2496C21.9866 23.2272 22.0038 23.2007 22.0152 23.1716C22.0266 23.1425 22.0321 23.1113 22.0313 23.0801C22.002 21.6797 21.712 20.3174 21.1671 19.0312V19.0312ZM11.0157 12.3047C9.67097 12.3047 8.40535 11.7803 7.4532 10.8281C6.50105 9.87598 5.97664 8.61035 5.97664 7.26562C5.97664 5.9209 6.50105 4.65527 7.4532 3.70312C8.40535 2.75098 9.67097 2.22656 11.0157 2.22656C12.3604 2.22656 13.6261 2.75098 14.5782 3.70312C15.5303 4.65527 16.0548 5.9209 16.0548 7.26562C16.0548 8.61035 15.5303 9.87598 14.5782 10.8281C13.6261 11.7803 12.3604 12.3047 11.0157 12.3047Z" fill="#9DC1F0"/>
</svg>
