<svg width="88" height="72" viewBox="0 0 88 72" fill="none" xmlns="http://www.w3.org/2000/svg">
<g opacity="0.25">
<path d="M4.96471 69.4426C4.96471 68.0716 3.85333 66.9602 2.48236 66.9602C1.11138 66.9602 -1.68434e-07 68.0716 -1.08507e-07 69.4426C-4.85802e-08 70.8135 1.11138 71.9249 2.48236 71.9249C3.85333 71.9249 4.96471 70.8135 4.96471 69.4426Z" fill="#4182D1"/>
<path d="M21.5643 69.4426C21.5643 68.0716 20.4529 66.9602 19.082 66.9602C17.711 66.9602 16.5996 68.0716 16.5996 69.4426C16.5996 70.8135 17.711 71.9249 19.082 71.9249C20.4529 71.9249 21.5643 70.8135 21.5643 69.4426Z" fill="#4182D1"/>
<path d="M35.6806 66.9602C35.1897 66.9602 34.7097 67.1058 34.3015 67.3785C33.8933 67.6513 33.5751 68.039 33.3872 68.4926C33.1993 68.9462 33.1502 69.4453 33.2459 69.9269C33.3417 70.4084 33.5781 70.8507 33.9253 71.1978C34.2725 71.545 34.7148 71.7815 35.1963 71.8772C35.6778 71.973 36.177 71.9238 36.6306 71.7359C37.0842 71.5481 37.4719 71.2299 37.7446 70.8217C38.0174 70.4134 38.163 69.9335 38.163 69.4426C38.163 68.7842 37.9014 68.1528 37.4359 67.6873C36.9704 67.2217 36.339 66.9602 35.6806 66.9602Z" fill="#4182D1"/>
<path d="M52.2801 66.9602C51.7892 66.9602 51.3092 67.1058 50.901 67.3786C50.4928 67.6514 50.1746 68.0391 49.9868 68.4927C49.7989 68.9462 49.7498 69.4454 49.8456 69.9269C49.9414 70.4085 50.1778 70.8507 50.525 71.1979C50.8721 71.5451 51.3144 71.7815 51.796 71.8772C52.2775 71.973 52.7766 71.9238 53.2302 71.7359C53.6838 71.5481 54.0715 71.2299 54.3442 70.8217C54.617 70.4134 54.7626 69.9335 54.7626 69.4426C54.7626 69.1166 54.6984 68.7938 54.5736 68.4926C54.4489 68.1914 54.266 67.9177 54.0355 67.6872C53.805 67.4567 53.5313 67.2739 53.2301 67.1491C52.9289 67.0244 52.6061 66.9602 52.2801 66.9602Z" fill="#4182D1"/>
<path d="M71.3612 69.4426C71.3612 68.0716 70.2498 66.9602 68.8788 66.9602C67.5079 66.9602 66.3965 68.0716 66.3965 69.4426C66.3965 70.8135 67.5079 71.9249 68.8788 71.9249C70.2498 71.9249 71.3612 70.8135 71.3612 69.4426Z" fill="#4182D1"/>
<path d="M87.9599 69.4426C87.9599 68.0716 86.8484 66.9602 85.4775 66.9602C84.1065 66.9602 82.9951 68.0716 82.9951 69.4426C82.9951 70.8135 84.1065 71.9249 85.4775 71.9249C86.8484 71.9249 87.9599 70.8135 87.9599 69.4426Z" fill="#4182D1"/>
<path d="M4.96471 56.0514C4.96471 54.6804 3.85333 53.569 2.48236 53.569C1.11138 53.569 -1.68437e-07 54.6804 -1.0851e-07 56.0514C-4.85832e-08 57.4224 1.11138 58.5338 2.48236 58.5338C3.85333 58.5338 4.96471 57.4224 4.96471 56.0514Z" fill="#4182D1"/>
<path d="M21.5643 56.0514C21.5643 54.6804 20.4529 53.569 19.082 53.569C17.711 53.569 16.5996 54.6804 16.5996 56.0514C16.5996 57.4224 17.711 58.5338 19.082 58.5338C20.4529 58.5338 21.5643 57.4224 21.5643 56.0514Z" fill="#4182D1"/>
<path d="M35.6806 53.5691C35.1897 53.5691 34.7097 53.7146 34.3015 53.9874C33.8933 54.2602 33.5751 54.6479 33.3872 55.1014C33.1993 55.555 33.1502 56.0542 33.2459 56.5357C33.3417 57.0173 33.5781 57.4596 33.9253 57.8068C34.2724 58.1539 34.7148 58.3903 35.1963 58.4861C35.6778 58.5819 36.177 58.5328 36.6306 58.3449C37.0842 58.157 37.4718 57.8388 37.7446 57.4305C38.0174 57.0223 38.163 56.5424 38.163 56.0514C38.163 55.3931 37.9014 54.7617 37.4359 54.2961C36.9704 53.8306 36.339 53.5691 35.6806 53.5691Z" fill="#4182D1"/>
<path d="M52.2792 53.5691C51.7882 53.5691 51.3083 53.7147 50.9001 53.9875C50.4918 54.2603 50.1737 54.6479 49.9858 55.1015C49.7979 55.5551 49.7488 56.0543 49.8446 56.5358C49.9404 57.0173 50.1768 57.4596 50.524 57.8068C50.8712 58.1539 51.3135 58.3903 51.795 58.4861C52.2766 58.5819 52.7757 58.5328 53.2292 58.3449C53.6828 58.157 54.0705 57.8388 54.3433 57.4305C54.6161 57.0223 54.7616 56.5424 54.7616 56.0514C54.7616 55.393 54.5001 54.7616 54.0345 54.2961C53.569 53.8305 52.9375 53.5691 52.2792 53.5691Z" fill="#4182D1"/>
<path d="M71.3612 56.0514C71.3612 54.6804 70.2498 53.569 68.8788 53.569C67.5079 53.569 66.3965 54.6804 66.3965 56.0514C66.3965 57.4224 67.5079 58.5338 68.8788 58.5338C70.2498 58.5338 71.3612 57.4224 71.3612 56.0514Z" fill="#4182D1"/>
<path d="M87.9599 56.0514C87.9599 54.6804 86.8484 53.569 85.4775 53.569C84.1065 53.569 82.9951 54.6804 82.9951 56.0514C82.9951 57.4224 84.1065 58.5338 85.4775 58.5338C86.8484 58.5338 87.9599 57.4224 87.9599 56.0514Z" fill="#4182D1"/>
<path d="M2.48247 40.1778C1.99149 40.1778 1.51153 40.3234 1.10329 40.5962C0.695049 40.8689 0.376863 41.2567 0.188968 41.7103C0.00107225 42.1639 -0.0480833 42.663 0.0476998 43.1446C0.143483 43.6261 0.379897 44.0684 0.727073 44.4156C1.07425 44.7628 1.51659 44.9992 1.99814 45.095C2.47969 45.1908 2.97882 45.1416 3.43243 44.9537C3.88603 44.7658 4.27372 44.4476 4.54649 44.0394C4.81926 43.6311 4.96484 43.1512 4.96483 42.6602C4.96483 42.3342 4.90063 42.0115 4.77588 41.7103C4.65113 41.4091 4.46829 41.1354 4.23778 40.9049C4.00727 40.6744 3.7336 40.4916 3.43243 40.3668C3.13125 40.2421 2.80846 40.1778 2.48247 40.1778Z" fill="#4182D1"/>
<path d="M19.0821 40.1778C18.5911 40.1778 18.1111 40.3234 17.7029 40.5962C17.2946 40.8689 16.9765 41.2567 16.7886 41.7103C16.6007 42.1639 16.5515 42.663 16.6473 43.1446C16.7431 43.6261 16.9795 44.0684 17.3267 44.4156C17.6739 44.7628 18.1162 44.9992 18.5978 45.095C19.0793 45.1908 19.5784 45.1416 20.032 44.9537C20.4856 44.7658 20.8733 44.4476 21.1461 44.0394C21.4189 43.6311 21.5645 43.1512 21.5645 42.6602C21.5645 42.0018 21.3029 41.3704 20.8374 40.9049C20.3718 40.4394 19.7404 40.1778 19.0821 40.1778Z" fill="#4182D1"/>
<path d="M35.6807 40.1778C35.1897 40.1778 34.7098 40.3234 34.3015 40.5962C33.8933 40.8689 33.5751 41.2567 33.3872 41.7103C33.1993 42.1639 33.1502 42.663 33.2459 43.1446C33.3417 43.6261 33.5781 44.0684 33.9253 44.4156C34.2725 44.7628 34.7148 44.9992 35.1964 45.095C35.6779 45.1908 36.1771 45.1416 36.6307 44.9537C37.0843 44.7658 37.472 44.4476 37.7447 44.0394C38.0175 43.6311 38.1631 43.1512 38.1631 42.6602C38.1631 42.0018 37.9015 41.3704 37.436 40.9049C36.9705 40.4394 36.3391 40.1779 35.6807 40.1778Z" fill="#4182D1"/>
<path d="M52.2792 40.1778C51.7883 40.1778 51.3083 40.3235 50.9001 40.5962C50.4919 40.869 50.1737 41.2567 49.9858 41.7104C49.7979 42.164 49.7488 42.6631 49.8446 43.1446C49.9404 43.6262 50.1768 44.0685 50.524 44.4157C50.8712 44.7628 51.3135 44.9992 51.795 45.095C52.2766 45.1908 52.7757 45.1416 53.2293 44.9537C53.6829 44.7658 54.0706 44.4476 54.3434 44.0394C54.6161 43.6311 54.7617 43.1512 54.7617 42.6602C54.7617 42.0018 54.5001 41.3704 54.0346 40.9049C53.569 40.4394 52.9376 40.1778 52.2792 40.1778Z" fill="#4182D1"/>
<path d="M68.879 40.1778C68.388 40.1778 67.908 40.3234 67.4998 40.5962C67.0915 40.8689 66.7734 41.2567 66.5855 41.7103C66.3976 42.1639 66.3484 42.663 66.4442 43.1446C66.54 43.6261 66.7764 44.0684 67.1236 44.4156C67.4708 44.7628 67.9131 44.9992 68.3946 45.095C68.8762 45.1908 69.3753 45.1416 69.8289 44.9537C70.2825 44.7658 70.6702 44.4476 70.943 44.0394C71.2158 43.6311 71.3613 43.1512 71.3613 42.6602C71.3613 42.0018 71.0998 41.3704 70.6343 40.9049C70.1687 40.4394 69.5373 40.1778 68.879 40.1778Z" fill="#4182D1"/>
<path d="M85.4776 40.1778C84.9866 40.1778 84.5067 40.3234 84.0984 40.5962C83.6902 40.8689 83.372 41.2567 83.1841 41.7103C82.9962 42.1639 82.947 42.663 83.0428 43.1446C83.1386 43.6261 83.375 44.0684 83.7222 44.4156C84.0694 44.7628 84.5117 44.9992 84.9933 45.095C85.4748 45.1908 85.9739 45.1416 86.4275 44.9537C86.8811 44.7658 87.2689 44.4476 87.5416 44.0394C87.8144 43.6311 87.96 43.1512 87.96 42.6602C87.96 42.0018 87.6984 41.3704 87.2329 40.9049C86.7673 40.4394 86.136 40.1778 85.4776 40.1778Z" fill="#4182D1"/>
<path d="M4.96471 29.2669C4.96471 27.8959 3.85333 26.7845 2.48236 26.7845C1.11138 26.7845 -1.68434e-07 27.8959 -1.08507e-07 29.2669C-4.85802e-08 30.6379 1.11138 31.7493 2.48236 31.7493C3.85333 31.7493 4.96471 30.6379 4.96471 29.2669Z" fill="#4182D1"/>
<path d="M21.5643 29.2669C21.5643 27.8959 20.4529 26.7845 19.082 26.7845C17.711 26.7845 16.5996 27.8959 16.5996 29.2669C16.5996 30.6379 17.711 31.7493 19.082 31.7493C20.4529 31.7493 21.5643 30.6379 21.5643 29.2669Z" fill="#4182D1"/>
<path d="M35.6806 26.7845C35.1897 26.7845 34.7097 26.9301 34.3015 27.2029C33.8933 27.4756 33.5751 27.8633 33.3872 28.3169C33.1993 28.7705 33.1502 29.2697 33.2459 29.7512C33.3417 30.2327 33.5781 30.6751 33.9253 31.0222C34.2725 31.3694 34.7148 31.6058 35.1963 31.7016C35.6778 31.7973 36.177 31.7482 36.6306 31.5603C37.0842 31.3724 37.4719 31.0542 37.7446 30.646C38.0174 30.2378 38.163 29.7578 38.163 29.2669C38.163 28.6085 37.9014 27.9771 37.4359 27.5116C36.9704 27.0461 36.339 26.7845 35.6806 26.7845Z" fill="#4182D1"/>
<path d="M52.2801 26.7845C51.7892 26.7846 51.3092 26.9302 50.901 27.2029C50.4928 27.4757 50.1746 27.8635 49.9868 28.3171C49.7989 28.7707 49.7498 29.2698 49.8456 29.7513C49.9414 30.2328 50.1778 30.6751 50.525 31.0222C50.8721 31.3694 51.3144 31.6058 51.796 31.7016C52.2775 31.7974 52.7766 31.7482 53.2302 31.5603C53.6838 31.3724 54.0715 31.0542 54.3442 30.646C54.617 30.2378 54.7626 29.7579 54.7626 29.2669C54.7626 28.9409 54.6984 28.6181 54.5736 28.3169C54.4489 28.0157 54.266 27.7421 54.0355 27.5116C53.805 27.281 53.5313 27.0982 53.2301 26.9735C52.9289 26.8487 52.6061 26.7845 52.2801 26.7845Z" fill="#4182D1"/>
<path d="M71.3612 29.2669C71.3612 27.8959 70.2498 26.7845 68.8788 26.7845C67.5079 26.7845 66.3965 27.8959 66.3965 29.2669C66.3965 30.6379 67.5079 31.7493 68.8788 31.7493C70.2498 31.7493 71.3612 30.6379 71.3612 29.2669Z" fill="#4182D1"/>
<path d="M87.9599 29.2669C87.9599 27.8959 86.8484 26.7845 85.4775 26.7845C84.1065 26.7845 82.9951 27.8959 82.9951 29.2669C82.9951 30.6379 84.1065 31.7493 85.4775 31.7493C86.8484 31.7493 87.9599 30.6379 87.9599 29.2669Z" fill="#4182D1"/>
<path d="M4.96471 15.8758C4.96471 14.5048 3.85333 13.3934 2.48236 13.3934C1.11138 13.3934 -1.68434e-07 14.5048 -1.08507e-07 15.8758C-4.85802e-08 17.2468 1.11138 18.3582 2.48236 18.3582C3.85333 18.3582 4.96471 17.2468 4.96471 15.8758Z" fill="#4182D1"/>
<path d="M21.5643 15.8758C21.5643 14.5048 20.4529 13.3934 19.082 13.3934C17.711 13.3934 16.5996 14.5048 16.5996 15.8758C16.5996 17.2468 17.711 18.3582 19.082 18.3582C20.4529 18.3582 21.5643 17.2468 21.5643 15.8758Z" fill="#4182D1"/>
<path d="M35.6806 13.3934C35.1897 13.3934 34.7097 13.539 34.3015 13.8117C33.8933 14.0845 33.5751 14.4722 33.3872 14.9258C33.1993 15.3794 33.1502 15.8785 33.2459 16.3601C33.3417 16.8416 33.5781 17.2839 33.9253 17.6311C34.2724 17.9783 34.7148 18.2147 35.1963 18.3104C35.6778 18.4062 36.177 18.3571 36.6306 18.1692C37.0842 17.9813 37.4718 17.6632 37.7446 17.2549C38.0174 16.8467 38.163 16.3667 38.163 15.8758C38.163 15.2174 37.9014 14.586 37.4359 14.1205C36.9704 13.655 36.339 13.3934 35.6806 13.3934Z" fill="#4182D1"/>
<path d="M52.2792 13.3934C51.7882 13.3934 51.3083 13.539 50.9001 13.8118C50.4918 14.0846 50.1737 14.4723 49.9858 14.9259C49.7979 15.3795 49.7488 15.8786 49.8446 16.3601C49.9404 16.8417 50.1768 17.284 50.524 17.6311C50.8712 17.9783 51.3135 18.2147 51.795 18.3105C52.2766 18.4062 52.7757 18.3571 53.2292 18.1692C53.6828 17.9813 54.0705 17.6632 54.3433 17.2549C54.6161 16.8467 54.7616 16.3667 54.7616 15.8758C54.7616 15.5498 54.6974 15.227 54.5727 14.9258C54.4479 14.6246 54.2651 14.3509 54.0345 14.1204C53.804 13.8899 53.5304 13.7071 53.2292 13.5823C52.928 13.4576 52.6052 13.3934 52.2792 13.3934Z" fill="#4182D1"/>
<path d="M71.3612 15.8758C71.3612 14.5048 70.2498 13.3934 68.8788 13.3934C67.5079 13.3934 66.3965 14.5048 66.3965 15.8758C66.3965 17.2468 67.5079 18.3582 68.8788 18.3582C70.2498 18.3582 71.3612 17.2468 71.3612 15.8758Z" fill="#4182D1"/>
<path d="M87.9599 15.8758C87.9599 14.5048 86.8484 13.3934 85.4775 13.3934C84.1065 13.3934 82.9951 14.5048 82.9951 15.8758C82.9951 17.2468 84.1065 18.3582 85.4775 18.3582C86.8484 18.3582 87.9599 17.2468 87.9599 15.8758Z" fill="#4182D1"/>
<path d="M2.48247 4.42373e-05C1.99149 3.28147e-05 1.51153 0.145612 1.10329 0.418379C0.695049 0.691147 0.376863 1.07882 0.188968 1.53243C0.00107225 1.98603 -0.0480833 2.48516 0.0476998 2.96671C0.143483 3.44826 0.379897 3.89057 0.727073 4.23774C1.07425 4.58492 1.51659 4.82137 1.99814 4.91715C2.47969 5.01294 2.97882 4.96375 3.43243 4.77585C3.88603 4.58795 4.27372 4.26982 4.54649 3.86158C4.81926 3.45334 4.96484 2.97338 4.96483 2.4824C4.96483 2.15641 4.90063 1.8336 4.77588 1.53243C4.65113 1.23125 4.46829 0.957566 4.23778 0.727057C4.00727 0.496548 3.7336 0.313702 3.43243 0.188952C3.13125 0.0642012 2.80846 4.42231e-05 2.48247 4.42373e-05Z" fill="#4182D1"/>
<path d="M19.0821 4.42373e-05C18.5911 3.28147e-05 18.1111 0.145612 17.7029 0.418379C17.2946 0.691147 16.9765 1.07882 16.7886 1.53243C16.6007 1.98603 16.5515 2.48516 16.6473 2.96671C16.7431 3.44826 16.9795 3.89057 17.3267 4.23774C17.6739 4.58492 18.1162 4.82137 18.5978 4.91715C19.0793 5.01294 19.5784 4.96375 20.032 4.77585C20.4856 4.58795 20.8733 4.26982 21.1461 3.86158C21.4189 3.45334 21.5645 2.97338 21.5645 2.4824C21.5645 1.82404 21.3029 1.19259 20.8374 0.727057C20.3718 0.261523 19.7404 4.42086e-05 19.0821 4.42373e-05Z" fill="#4182D1"/>
<path d="M35.6807 4.42373e-05C35.1897 3.28147e-05 34.7098 0.145612 34.3015 0.418379C33.8933 0.691147 33.5751 1.07882 33.3872 1.53243C33.1993 1.98603 33.1502 2.48516 33.2459 2.96671C33.3417 3.44826 33.5781 3.89057 33.9253 4.23774C34.2725 4.58492 34.7148 4.82137 35.1964 4.91715C35.6779 5.01294 36.1771 4.96375 36.6307 4.77585C37.0843 4.58795 37.472 4.26982 37.7447 3.86158C38.0175 3.45334 38.1631 2.97338 38.1631 2.4824C38.1631 1.82404 37.9015 1.19265 37.436 0.727126C36.9705 0.261598 36.3391 7.09114e-05 35.6807 4.42373e-05Z" fill="#4182D1"/>
<path d="M52.2792 4.75752e-05C51.7883 5.90408e-05 51.3083 0.145602 50.9001 0.418383C50.4919 0.691164 50.1737 1.07889 49.9858 1.5325C49.7979 1.98611 49.7488 2.48524 49.8446 2.96678C49.9404 3.44832 50.1768 3.89065 50.524 4.23782C50.8712 4.58498 51.3135 4.82138 51.795 4.91716C52.2766 5.01293 52.7757 4.96375 53.2293 4.77585C53.6829 4.58795 54.0706 4.26982 54.3434 3.86158C54.6161 3.45334 54.7617 2.97338 54.7617 2.4824C54.7617 1.82403 54.5001 1.19259 54.0346 0.727061C53.569 0.261528 52.9376 3.89634e-05 52.2792 4.75752e-05Z" fill="#4182D1"/>
<path d="M68.879 4.42373e-05C68.388 3.28147e-05 67.908 0.145612 67.4998 0.418379C67.0915 0.691147 66.7734 1.07882 66.5855 1.53243C66.3976 1.98603 66.3484 2.48516 66.4442 2.96671C66.54 3.44826 66.7764 3.89057 67.1236 4.23774C67.4708 4.58492 67.9131 4.82137 68.3946 4.91715C68.8762 5.01294 69.3753 4.96375 69.8289 4.77585C70.2825 4.58795 70.6702 4.26982 70.943 3.86158C71.2158 3.45334 71.3613 2.97338 71.3613 2.4824C71.3613 1.82404 71.0998 1.19259 70.6343 0.727057C70.1687 0.261523 69.5373 4.42086e-05 68.879 4.42373e-05Z" fill="#4182D1"/>
<path d="M85.4776 4.42373e-05C84.9866 3.28147e-05 84.5067 0.145612 84.0984 0.418379C83.6902 0.691147 83.372 1.07882 83.1841 1.53243C82.9962 1.98603 82.947 2.48516 83.0428 2.96671C83.1386 3.44826 83.375 3.89057 83.7222 4.23774C84.0694 4.58492 84.5117 4.82137 84.9933 4.91715C85.4748 5.01294 85.9739 4.96375 86.4275 4.77585C86.8811 4.58795 87.2689 4.26982 87.5416 3.86158C87.8144 3.45334 87.96 2.97338 87.96 2.4824C87.96 1.82404 87.6984 1.19259 87.2329 0.727057C86.7673 0.261523 86.136 4.42086e-05 85.4776 4.42373e-05Z" fill="#4182D1"/>
</g>
</svg>
