<?xml version="1.0" standalone="no"?>
<!DOCTYPE svg PUBLIC "-//W3C//DTD SVG 20010904//EN"
 "http://www.w3.org/TR/2001/REC-SVG-20010904/DTD/svg10.dtd">
<svg version="1.0" xmlns="http://www.w3.org/2000/svg"
 width="116.000000pt" height="116.000000pt" viewBox="0 0 116.000000 116.000000"
 preserveAspectRatio="xMidYMid meet">
<metadata>
Created by potrace 1.14, written by Peter Selinger 2001-2017
</metadata>
<g transform="translate(0.000000,116.000000) scale(0.100000,-0.100000)"
fill="#000000" stroke="none">
<path d="M450 1045 c-18 -22 2 -65 30 -65 28 0 48 43 30 65 -7 8 -20 15 -30
15 -10 0 -23 -7 -30 -15z"/>
<path d="M678 1049 c-22 -12 -23 -52 -3 -69 8 -7 25 -10 39 -6 32 8 40 42 15
67 -22 22 -27 22 -51 8z"/>
<path d="M562 1023 c-7 -3 -18 -16 -23 -30 -11 -29 2 -59 31 -68 22 -7 28 -35
7 -35 -26 0 -49 -38 -49 -80 1 -52 -21 -66 -71 -45 -29 12 -35 20 -41 55 -5
35 -3 44 15 59 49 39 18 115 -44 109 -63 -6 -77 -93 -18 -118 44 -18 57 -91
20 -110 -17 -10 -26 -6 -59 22 -32 28 -37 38 -33 63 6 38 -28 85 -61 85 -32 0
-63 -25 -69 -57 -4 -20 2 -33 23 -54 25 -25 31 -27 61 -19 34 10 44 6 87 -38
25 -27 25 -24 13 -55 -8 -21 -16 -24 -73 -26 -34 -1 -78 -4 -97 -6 -25 -2 -35
2 -38 14 -2 10 -17 25 -33 34 -48 29 -109 -7 -110 -64 0 -36 34 -69 73 -69 40
0 50 7 70 45 15 30 16 30 111 33 l96 3 0 -25 c0 -29 -10 -32 -40 -14 -31 20
-72 -1 -84 -41 -13 -44 -47 -60 -84 -39 -59 34 -116 -34 -72 -87 29 -35 100
-5 100 42 0 12 11 25 26 32 21 9 29 8 49 -8 43 -33 96 -9 99 46 2 46 13 54 46
35 32 -18 43 -62 15 -62 -22 0 -55 -41 -55 -68 l0 -23 -26 20 c-26 21 -46 19
-76 -6 -13 -12 -14 -20 -6 -43 5 -16 19 -32 29 -35 24 -8 69 19 69 40 0 21 13
19 28 -5 7 -11 19 -20 27 -20 21 0 19 -19 -2 -27 -49 -17 -66 -60 -42 -105 12
-23 10 -27 -22 -33 -12 -3 -30 -11 -38 -19 -21 -22 0 -66 33 -66 32 0 47 21
44 61 -3 32 -2 34 28 31 25 -3 36 3 53 24 26 33 21 67 -12 95 -24 19 -19 28
26 47 25 11 27 10 27 -11 0 -29 10 -43 36 -51 26 -8 54 16 54 44 0 27 -38 52
-62 39 -22 -12 -20 -13 -23 34 -2 37 -28 77 -49 77 -7 0 -12 10 -13 23 -1 16
7 26 35 39 44 21 58 12 53 -38 -5 -67 70 -109 124 -70 26 19 55 3 55 -30 0
-42 18 -64 50 -64 36 0 65 38 55 70 -8 27 -50 44 -74 30 -27 -14 -60 13 -54
44 7 35 74 45 104 15 14 -14 29 -19 45 -16 36 7 57 -26 39 -60 -28 -54 26
-112 86 -91 27 9 54 52 43 69 -3 6 0 16 6 24 11 13 15 13 33 0 15 -11 25 -11
41 -3 41 22 46 48 15 79 -32 32 -79 11 -79 -37 0 -27 -24 -38 -40 -18 -7 8
-29 14 -50 14 -43 0 -65 20 -55 50 9 30 -19 70 -50 70 -15 0 -31 -10 -41 -25
-22 -33 -82 -45 -101 -20 -18 25 -18 26 22 78 31 40 38 45 59 37 28 -10 66 6
81 36 6 11 16 19 23 16 6 -2 12 1 12 7 0 6 -6 11 -14 11 -8 0 -17 11 -20 25
-3 13 -15 29 -26 35 -16 9 -18 15 -10 31 6 11 15 17 20 14 12 -7 50 34 50 54
-1 38 -42 64 -77 48 -31 -14 -39 -51 -18 -83 19 -30 14 -54 -13 -54 -10 0 -29
-11 -42 -25 -31 -33 -44 -32 -61 8 -8 17 -24 36 -36 42 -28 12 -29 25 -3 48
49 42 3 115 -58 90z m143 -259 c12 -28 10 -33 -22 -76 -31 -43 -36 -46 -68
-41 -23 4 -43 0 -58 -10 -33 -21 -51 -8 -42 31 3 17 2 40 -4 50 -8 15 -6 23 9
37 17 15 24 16 49 5 25 -10 34 -9 60 6 17 10 31 22 31 27 0 20 33 -1 45 -29z"/>
<path d="M606 735 c-15 -16 -11 -44 8 -57 35 -24 76 14 56 52 -13 24 -43 26
-64 5z"/>
<path d="M543 733 c-17 -6 -17 -40 0 -46 23 -9 40 8 32 32 -6 21 -11 23 -32
14z"/>
<path d="M261 986 c-17 -20 -3 -46 25 -46 19 0 24 5 24 24 0 13 -7 27 -16 30
-21 8 -20 8 -33 -8z"/>
<path d="M687 934 c-4 -4 -7 -16 -7 -26 0 -14 6 -19 23 -16 14 2 22 10 22 23
0 20 -25 32 -38 19z"/>
<path d="M491 916 c-9 -11 -8 -18 5 -31 14 -14 19 -14 31 -2 15 15 8 47 -12
47 -7 0 -18 -6 -24 -14z"/>
<path d="M928 919 c-22 -13 -24 -62 -2 -79 23 -20 68 -1 72 30 1 14 -1 30 -5
36 -12 18 -46 24 -65 13z"/>
<path d="M846 861 c-7 -10 3 -41 13 -41 17 1 33 20 28 34 -7 17 -32 22 -41 7z"/>
<path d="M353 824 c-8 -21 13 -42 28 -27 13 13 5 43 -11 43 -6 0 -13 -7 -17
-16z"/>
<path d="M437 833 c-15 -14 -7 -43 12 -43 27 0 34 15 15 34 -18 18 -18 18 -27
9z"/>
<path d="M1023 824 c-3 -9 0 -20 8 -24 15 -10 39 6 39 26 0 19 -39 18 -47 -2z"/>
<path d="M102 818 c-28 -28 -1 -75 37 -63 27 8 32 29 15 54 -17 24 -34 27 -52
9z"/>
<path d="M896 804 c-21 -20 -20 -37 2 -64 15 -19 24 -22 48 -15 45 14 49 12
46 -18 -8 -63 33 -108 92 -101 73 8 98 105 38 150 -23 18 -73 17 -97 0 -25
-18 -45 -10 -45 18 0 44 -52 62 -84 30z"/>
<path d="M172 753 c-14 -28 4 -63 33 -63 31 0 52 43 32 68 -14 18 -55 15 -65
-5z"/>
<path d="M276 754 c-12 -12 -13 -20 -6 -35 12 -22 30 -25 48 -7 18 18 15 36
-7 48 -15 7 -23 6 -35 -6z"/>
<path d="M835 710 c-7 -23 10 -50 30 -50 20 0 37 27 30 50 -4 13 -15 20 -30
20 -15 0 -26 -7 -30 -20z"/>
<path d="M721 680 c-7 -4 -11 -16 -9 -26 4 -22 37 -31 48 -13 16 25 -14 55
-39 39z"/>
<path d="M892 651 c-15 -9 -5 -41 13 -41 8 0 17 5 21 11 9 15 -18 40 -34 30z"/>
<path d="M167 629 c-20 -11 -22 -30 -5 -47 14 -14 48 2 48 22 0 22 -23 36 -43
25z"/>
<path d="M943 623 c-19 -7 -16 -60 3 -67 22 -8 54 11 54 34 0 26 -29 43 -57
33z"/>
<path d="M724 559 c-3 -6 -1 -16 5 -22 9 -9 14 -8 21 3 9 15 4 30 -10 30 -5 0
-12 -5 -16 -11z"/>
<path d="M203 513 c-18 -6 -16 -40 1 -46 8 -3 20 1 27 9 10 12 9 18 -2 28 -8
8 -20 12 -26 9z"/>
<path d="M622 448 c-31 -31 10 -75 43 -48 19 16 19 25 -1 44 -19 19 -26 20
-42 4z"/>
<path d="M264 369 c-7 -12 15 -31 28 -23 4 3 8 12 8 20 0 17 -26 19 -36 3z"/>
<path d="M262 318 c-25 -25 -6 -68 30 -68 26 0 45 44 28 65 -15 18 -41 20 -58
3z"/>
<path d="M253 149 c-15 -15 -5 -39 16 -39 25 0 32 10 20 31 -11 22 -20 24 -36
8z"/>
</g>
</svg>
