<svg width="20" height="20" viewBox="0 0 20 20" fill="none" xmlns="http://www.w3.org/2000/svg">
<path d="M9.6 0.0400391C4.3008 0.0400391 0 4.34084 0 9.64004C0 14.9392 4.3008 19.24 9.6 19.24H14.4V17.32H9.6C5.4336 17.32 1.92 13.8064 1.92 9.64004C1.92 5.47364 5.4336 1.96004 9.6 1.96004C13.7664 1.96004 17.28 5.47364 17.28 9.64004V11.0128C17.28 11.7712 16.5984 12.52 15.84 12.52C15.0816 12.52 14.4 11.7712 14.4 11.0128V9.64004C14.4 6.99044 12.2496 4.84004 9.6 4.84004C6.9504 4.84004 4.8 6.99044 4.8 9.64004C4.8 12.2896 6.9504 14.44 9.6 14.44C10.9248 14.44 12.1344 13.9024 12.9984 13.0288C13.6224 13.8832 14.6976 14.44 15.84 14.44C17.7312 14.44 19.2 12.904 19.2 11.0128V9.64004C19.2 4.34084 14.8992 0.0400391 9.6 0.0400391ZM9.6 12.52C8.0064 12.52 6.72 11.2336 6.72 9.64004C6.72 8.04644 8.0064 6.76004 9.6 6.76004C11.1936 6.76004 12.48 8.04644 12.48 9.64004C12.48 11.2336 11.1936 12.52 9.6 12.52Z" fill="#282419"/>
</svg>
