<svg width="532" height="360" viewBox="0 0 532 360" fill="none" xmlns="http://www.w3.org/2000/svg">
<mask id="mask0_20_13" style="mask-type:alpha" maskUnits="userSpaceOnUse" x="0" y="0" width="584" height="360">
<path fill-rule="evenodd" clip-rule="evenodd" d="M423.674 43.6613L423.717 43.575L445.893 5.13405L490.417 5.13406L490.46 5.17719L512.636 43.6613L512.593 43.7476L490.417 82.1885L445.893 82.1885L445.85 82.1022L423.674 43.6613ZM446.109 5.43607L424.062 43.6613L446.109 81.8434L490.245 81.8434L512.291 43.6613L490.245 5.43607L446.109 5.43607Z" fill="url(#paint0_linear_20_13)"/>
<path fill-rule="evenodd" clip-rule="evenodd" d="M423.674 120.371L423.717 120.285L445.893 81.8438L490.417 81.8438L490.46 81.93L512.636 120.371L512.593 120.457L490.417 158.898L445.893 158.898L445.85 158.812L423.674 120.371ZM446.109 82.1889L424.062 120.371L446.109 158.596L490.245 158.596L512.291 120.371L490.245 82.1889L446.109 82.1889Z" fill="url(#paint1_linear_20_13)"/>
<path fill-rule="evenodd" clip-rule="evenodd" d="M423.674 197.123L423.717 197.037L445.893 158.596L490.417 158.596L490.46 158.639L512.636 197.123L512.593 197.209L490.417 235.65L445.893 235.65L445.85 235.564L423.674 197.123ZM446.109 158.898L424.062 197.123L446.109 235.305L490.245 235.305L512.291 197.123L490.245 158.898L446.109 158.898Z" fill="url(#paint2_linear_20_13)"/>
<path fill-rule="evenodd" clip-rule="evenodd" d="M423.674 273.832L423.717 273.746L445.893 235.305L490.417 235.305L490.46 235.391L512.636 273.832L512.593 273.918L490.417 312.359L445.893 312.359L445.85 312.273L423.674 273.832ZM446.109 235.65L424.062 273.832L446.109 312.057L490.245 312.057L512.291 273.832L490.245 235.65L446.109 235.65Z" fill="url(#paint3_linear_20_13)"/>
<path d="M429.498 359.99L424.062 350.585L446.109 312.359L490.201 312.359L512.248 350.585L506.812 359.99L507.2 359.99L512.593 350.671L512.636 350.585L490.46 312.1L490.417 312.057L445.893 312.057L423.717 350.498L423.674 350.585L429.11 359.99L429.498 359.99Z" fill="url(#paint4_linear_20_13)"/>
<path fill-rule="evenodd" clip-rule="evenodd" d="M357.233 82.0161L357.276 81.9298L379.452 43.4889L423.933 43.4889L424.019 43.5752L446.195 82.0162L446.152 82.1024L423.933 120.543L379.452 120.543L379.409 120.457L357.233 82.0161ZM379.668 43.8341L357.621 82.0161L379.668 120.198L423.803 120.198L445.85 82.0162L423.803 43.8341L379.668 43.8341Z" fill="url(#paint5_linear_20_13)"/>
<path fill-rule="evenodd" clip-rule="evenodd" d="M357.233 158.725L357.276 158.639L379.452 120.198L423.933 120.198L424.019 120.284L446.195 158.725L446.152 158.812L423.933 197.296L379.452 197.296L379.409 197.209L357.233 158.725ZM379.668 120.5L357.621 158.725L379.668 196.907L423.803 196.907L445.85 158.725L423.803 120.5L379.668 120.5Z" fill="url(#paint6_linear_20_13)"/>
<path fill-rule="evenodd" clip-rule="evenodd" d="M357.233 235.478L357.276 235.391L379.452 196.951L423.933 196.951L424.019 197.037L446.195 235.478L446.152 235.564L423.933 274.005L379.452 274.005L379.409 273.919L357.233 235.478ZM379.668 197.296L357.621 235.478L379.668 273.703L423.803 273.703L445.85 235.478L423.803 197.296L379.668 197.296Z" fill="url(#paint7_linear_20_13)"/>
<path fill-rule="evenodd" clip-rule="evenodd" d="M357.233 312.187L357.276 312.101L379.452 273.66L423.933 273.66L424.019 273.746L446.195 312.187L446.152 312.273L423.933 350.757L379.452 350.757L379.409 350.671L357.233 312.187ZM379.668 273.962L357.621 312.187L379.668 350.369L423.803 350.369L445.85 312.187L423.803 273.962L379.668 273.962Z" fill="url(#paint8_linear_20_13)"/>
<path d="M374.318 359.99L379.668 350.757L423.76 350.757L429.11 359.99L429.498 359.99L424.019 350.498L423.933 350.412L379.452 350.412L373.929 359.99L374.318 359.99Z" fill="url(#paint9_linear_20_13)"/>
<path fill-rule="evenodd" clip-rule="evenodd" d="M290.749 197.123L290.792 197.037L313.011 158.596L357.492 158.596L357.535 158.639L379.754 197.123L379.711 197.209L357.492 235.65L313.011 235.65L312.968 235.564L290.749 197.123ZM313.183 158.898L291.137 197.123L313.183 235.305L357.276 235.305L379.322 197.123L357.276 158.898L313.183 158.898Z" fill="url(#paint10_linear_20_13)"/>
<path fill-rule="evenodd" clip-rule="evenodd" d="M290.749 273.832L290.792 273.746L313.011 235.305L357.492 235.305L357.535 235.391L379.754 273.832L379.711 273.918L357.492 312.359L313.011 312.359L312.968 312.273L290.749 273.832ZM313.183 235.65L291.137 273.832L313.183 312.057L357.276 312.057L379.322 273.832L357.276 235.65L313.183 235.65Z" fill="url(#paint11_linear_20_13)"/>
<path d="M296.573 359.99L291.137 350.585L313.183 312.359L357.319 312.359L379.366 350.585L373.929 359.99L374.318 359.99L379.711 350.671L379.754 350.585L357.535 312.1L357.492 312.057L313.011 312.057L290.792 350.498L290.749 350.585L296.185 359.99L296.573 359.99Z" fill="url(#paint12_linear_20_13)"/>
<path fill-rule="evenodd" clip-rule="evenodd" d="M224.307 235.478L224.351 235.391L246.57 196.951L291.051 196.951L291.094 197.037L313.313 235.478L313.27 235.564L291.051 274.005L246.57 274.005L246.526 273.919L224.307 235.478ZM246.742 197.296L224.696 235.478L246.742 273.703L290.835 273.703L312.881 235.478L290.835 197.296L246.742 197.296Z" fill="url(#paint13_linear_20_13)"/>
<path fill-rule="evenodd" clip-rule="evenodd" d="M224.307 312.187L224.351 312.101L246.57 273.66L291.051 273.66L291.094 273.746L313.313 312.187L313.27 312.273L291.051 350.757L246.57 350.757L246.526 350.671L224.307 312.187ZM246.742 273.962L224.696 312.187L246.742 350.369L290.835 350.369L312.881 312.187L290.835 273.962L246.742 273.962Z" fill="url(#paint14_linear_20_13)"/>
<path d="M241.392 359.99L246.742 350.757L290.878 350.757L296.185 359.99L296.573 359.99L291.094 350.498L291.051 350.412L246.57 350.412L241.004 359.99L241.392 359.99Z" fill="url(#paint15_linear_20_13)"/>
<path fill-rule="evenodd" clip-rule="evenodd" d="M157.866 273.832L157.91 273.746L180.085 235.305L224.61 235.305L224.653 235.391L246.828 273.832L246.785 273.918L224.61 312.359L180.085 312.359L180.042 312.273L157.866 273.832ZM180.301 235.65L158.255 273.832L180.301 312.057L224.437 312.057L246.483 273.832L224.437 235.65L180.301 235.65Z" fill="url(#paint16_linear_20_13)"/>
<path d="M163.691 359.99L158.255 350.585L180.301 312.359L224.394 312.359L246.44 350.585L241.004 359.99L241.392 359.99L246.785 350.671L246.828 350.585L224.653 312.1L224.61 312.057L180.085 312.057L157.91 350.498L157.866 350.585L163.302 359.99L163.691 359.99Z" fill="url(#paint17_linear_20_13)"/>
<path d="M108.51 359.99L113.86 350.757L157.953 350.757L163.302 359.99L163.691 359.99L158.212 350.498L158.168 350.412L113.644 350.412L108.122 359.99L108.51 359.99Z" fill="url(#paint18_linear_20_13)"/>
<path d="M0.133414 197.296L25.0704 197.296L47.1168 235.478L25.0704 273.66L0.133411 273.66L0.133411 274.005L25.243 274.005L47.4619 235.564L47.5051 235.478L25.2861 197.037L25.243 196.951L0.133414 196.951L0.133414 197.296Z" fill="url(#paint19_linear_20_13)"/>
<path d="M0.133411 274.005L25.0704 274.005L47.1168 312.187L25.0704 350.412L0.133408 350.412L0.133408 350.757L25.243 350.757L47.4619 312.273L47.5051 312.187L25.2861 273.746L25.243 273.66L0.133411 273.66L0.133411 274.005Z" fill="url(#paint20_linear_20_13)"/>
<path d="M583.866 185.345L546.116 185.345L517.727 136.248L546.116 87.1071L583.866 87.1071L583.866 85.3814L545.123 85.3814L515.742 136.248L545.123 187.114L583.866 187.114L583.866 185.345Z" fill="url(#paint21_linear_20_13)"/>
<path d="M583.866 285.352L546.116 285.352L517.727 236.254L546.116 187.114L583.866 187.114L583.866 185.345L545.123 185.345L515.742 236.254L545.123 287.121L583.866 287.121L583.866 285.352Z" fill="url(#paint22_linear_20_13)"/>
<path d="M546.116 287.121L583.866 287.121L583.866 285.352L545.123 285.352L515.742 336.218L529.462 359.99L531.447 359.99L517.727 336.218L546.116 287.121Z" fill="url(#paint23_linear_20_13)"/>
<path fill-rule="evenodd" clip-rule="evenodd" d="M429.153 186.251L458.491 135.341L517.252 135.341L546.633 186.251L517.252 237.117L458.491 237.117L429.153 186.251ZM459.526 137.11L431.181 186.251L459.526 235.348L516.26 235.348L544.649 186.251L516.26 137.11L459.526 137.11Z" fill="url(#paint24_linear_20_13)"/>
<path fill-rule="evenodd" clip-rule="evenodd" d="M429.153 286.214L458.491 235.348L517.252 235.348L546.633 286.214L517.252 337.081L458.491 337.081L429.153 286.214ZM459.526 237.117L431.181 286.214L459.526 335.355L516.26 335.355L544.649 286.214L516.26 237.117L459.526 237.117Z" fill="url(#paint25_linear_20_13)"/>
<path d="M446.281 359.99L459.526 337.081L516.26 337.081L529.462 359.99L531.447 359.99L517.252 335.355L458.491 335.355L444.297 359.99L446.281 359.99Z" fill="url(#paint26_linear_20_13)"/>
<path fill-rule="evenodd" clip-rule="evenodd" d="M342.521 236.254L371.902 185.345L430.663 185.345L460.001 236.254L430.663 287.121L371.902 287.121L342.521 236.254ZM372.894 187.114L344.549 236.254L372.894 285.352L429.628 285.352L458.016 236.254L429.628 187.114L372.894 187.114Z" fill="url(#paint27_linear_20_13)"/>
<path d="M358.268 359.99L344.549 336.218L372.894 287.121L429.628 287.121L458.016 336.218L444.297 359.99L446.281 359.99L460.001 336.218L430.663 285.352L371.902 285.352L342.521 336.218L356.241 359.99L358.268 359.99Z" fill="url(#paint28_linear_20_13)"/>
<path d="M273.103 359.99L286.305 337.081L343.039 337.081L356.241 359.99L358.268 359.99L344.031 335.355L285.313 335.355L271.075 359.99L273.103 359.99Z" fill="url(#paint29_linear_20_13)"/>
<path fill-rule="evenodd" clip-rule="evenodd" d="M82.7102 286.214L112.091 235.348L170.809 235.348L200.19 286.214L170.809 337.081L112.091 337.081L82.7102 286.214ZM113.083 237.117L84.6948 286.214L113.083 335.355L169.817 335.355L198.162 286.214L169.817 237.117L113.083 237.117Z" fill="url(#paint30_linear_20_13)"/>
<path d="M111.573 336.218L97.8536 359.99L99.8813 359.99L113.601 336.218L84.2203 285.352L25.5018 285.352L0.133408 329.272L0.133408 332.767L26.4941 287.121L83.2279 287.121L111.573 336.218Z" fill="url(#paint31_linear_20_13)"/>
<path d="M11.8253 359.99L0.133408 339.713L0.133408 343.164L9.84068 359.99L11.8253 359.99Z" fill="url(#paint32_linear_20_13)"/>
<path d="M0.133412 243.157L24.9841 286.215L0.133408 329.272L0.133408 332.767L27.0118 286.215L0.133412 239.706L0.133412 243.157Z" fill="url(#paint33_linear_20_13)"/>
<path d="M11.8253 359.99L0.133408 339.713L0.133408 343.164L9.84068 359.99L11.8253 359.99Z" fill="url(#paint34_linear_20_13)"/>
<path d="M495.594 5.26352C495.594 2.3729 493.222 -3.96221e-06 490.288 -4.09044e-06C487.397 -4.2168e-06 485.024 2.3729 485.024 5.26352C485.024 8.19728 487.397 10.5702 490.288 10.5702C493.222 10.5702 495.594 8.19728 495.594 5.26352Z" fill="url(#paint35_linear_20_13)"/>
<path d="M442.7 5.26374C442.7 7.11891 444.167 8.5858 446.022 8.5858C447.834 8.5858 449.301 7.11891 449.301 5.26374C449.301 3.45171 447.834 1.98483 446.022 1.98483C444.167 1.98483 442.7 3.45171 442.7 5.26374Z" fill="url(#paint36_linear_20_13)"/>
<path d="M420.87 43.6614C420.87 45.3009 422.207 46.6383 423.847 46.6383C425.486 46.6383 426.824 45.3009 426.824 43.6614C426.824 42.022 425.486 40.6845 423.847 40.6845C422.207 40.6845 420.87 42.022 420.87 43.6614Z" fill="url(#paint37_linear_20_13)"/>
<path d="M510.91 43.6614C510.91 44.4812 511.601 45.1715 512.464 45.1715C513.326 45.1715 513.974 44.4812 513.974 43.6614C513.974 42.7986 513.326 42.1083 512.464 42.1083C511.601 42.1083 510.91 42.7986 510.91 43.6614Z" fill="url(#paint38_linear_20_13)"/>
<path d="M487.268 82.0162C487.268 83.6988 488.648 85.0363 490.288 85.0363C491.97 85.0363 493.351 83.6988 493.351 82.0162C493.351 80.3337 491.97 78.9962 490.288 78.9962C488.648 78.9962 487.268 80.3337 487.268 82.0162Z" fill="url(#paint39_linear_20_13)"/>
<path d="M451.329 82.0164C451.329 79.0826 448.956 76.6665 446.022 76.6665C443.046 76.6665 440.673 79.0826 440.673 82.0164C440.673 84.9501 443.046 87.323 446.022 87.323C448.956 87.323 451.329 84.9501 451.329 82.0164Z" fill="url(#paint40_linear_20_13)"/>
<path d="M510.22 120.37C510.22 121.622 511.212 122.614 512.464 122.614C513.715 122.614 514.707 121.622 514.707 120.37C514.707 119.119 513.715 118.127 512.464 118.127C511.212 118.127 510.22 119.119 510.22 120.37Z" fill="url(#paint41_linear_20_13)"/>
<path d="M486.189 158.726C486.189 161.012 488.001 162.867 490.288 162.867C492.574 162.867 494.43 161.012 494.43 158.726C494.43 156.439 492.574 154.584 490.288 154.584C488.001 154.584 486.189 156.439 486.189 158.726Z" fill="url(#paint42_linear_20_13)"/>
<path d="M441.061 158.725C441.061 161.486 443.261 163.687 446.022 163.687C448.74 163.687 450.941 161.486 450.941 158.725C450.941 156.007 448.74 153.807 446.022 153.807C443.261 153.807 441.061 156.007 441.061 158.725Z" fill="url(#paint43_linear_20_13)"/>
<path d="M509.875 197.123C509.875 198.546 511.04 199.711 512.464 199.711C513.887 199.711 515.052 198.546 515.052 197.123C515.052 195.699 513.887 194.534 512.464 194.534C511.04 194.534 509.875 195.699 509.875 197.123Z" fill="url(#paint44_linear_20_13)"/>
<path d="M487.354 235.477C487.354 237.117 488.648 238.454 490.288 238.454C491.927 238.454 493.265 237.117 493.265 235.477C493.265 233.838 491.927 232.501 490.288 232.501C488.648 232.501 487.354 233.838 487.354 235.477Z" fill="url(#paint45_linear_20_13)"/>
<path d="M443.908 235.478C443.908 236.643 444.858 237.592 446.022 237.592C447.187 237.592 448.136 236.643 448.136 235.478C448.136 234.313 447.187 233.364 446.022 233.364C444.858 233.364 443.908 234.313 443.908 235.478Z" fill="url(#paint46_linear_20_13)"/>
<path d="M510.479 273.833C510.479 274.954 511.342 275.817 512.464 275.817C513.542 275.817 514.448 274.954 514.448 273.833C514.448 272.754 513.542 271.848 512.464 271.848C511.342 271.848 510.479 272.754 510.479 273.833Z" fill="url(#paint47_linear_20_13)"/>
<path d="M487.181 312.187C487.181 313.956 488.562 315.337 490.288 315.337C492.057 315.337 493.437 313.956 493.437 312.187C493.437 310.461 492.057 309.081 490.288 309.081C488.562 309.081 487.181 310.461 487.181 312.187Z" fill="url(#paint48_linear_20_13)"/>
<path d="M442.442 312.187C442.442 314.172 444.038 315.768 446.022 315.768C447.964 315.768 449.56 314.172 449.56 312.187C449.56 310.246 447.964 308.649 446.022 308.649C444.038 308.649 442.442 310.246 442.442 312.187Z" fill="url(#paint49_linear_20_13)"/>
<path d="M509.443 350.585C509.443 352.225 510.781 353.562 512.464 353.562C514.103 353.562 515.44 352.225 515.44 350.585C515.44 348.903 514.103 347.565 512.464 347.565C510.781 347.565 509.443 348.903 509.443 350.585Z" fill="url(#paint50_linear_20_13)"/>
<path d="M375.569 43.661C375.569 45.8614 377.338 47.6303 379.538 47.6303C381.782 47.6303 383.551 45.8614 383.551 43.661C383.551 41.4176 381.782 39.6487 379.538 39.6487C377.338 39.6487 375.569 41.4176 375.569 43.661Z" fill="url(#paint51_linear_20_13)"/>
<path d="M425.918 120.371C425.918 119.249 424.968 118.343 423.847 118.343C422.725 118.343 421.819 119.249 421.819 120.371C421.819 121.492 422.725 122.441 423.847 122.441C424.968 122.441 425.918 121.492 425.918 120.371Z" fill="url(#paint52_linear_20_13)"/>
<path d="M375.741 120.37C375.741 122.484 377.467 124.167 379.538 124.167C381.652 124.167 383.335 122.484 383.335 120.37C383.335 118.299 381.652 116.574 379.538 116.574C377.467 116.574 375.741 118.299 375.741 120.37Z" fill="url(#paint53_linear_20_13)"/>
<path d="M357.406 161.141C358.743 161.141 359.822 160.063 359.822 158.725C359.822 157.431 358.743 156.352 357.406 156.352C356.068 156.352 354.989 157.431 354.989 158.725C354.989 160.063 356.068 161.141 357.406 161.141Z" fill="url(#paint54_linear_20_13)"/>
<path d="M429.455 197.123C429.455 194.017 426.953 191.514 423.847 191.514C420.74 191.514 418.238 194.017 418.238 197.123C418.238 200.186 420.74 202.732 423.847 202.732C426.953 202.732 429.455 200.186 429.455 197.123Z" fill="url(#paint55_linear_20_13)"/>
<path d="M419.705 273.832C419.705 276.119 421.56 278.017 423.847 278.017C426.133 278.017 428.032 276.119 428.032 273.832C428.032 271.546 426.133 269.691 423.847 269.691C421.56 269.691 419.705 271.546 419.705 273.832Z" fill="url(#paint56_linear_20_13)"/>
<path d="M353.264 312.187C353.264 314.474 355.119 316.329 357.405 316.329C359.692 316.329 361.547 314.474 361.547 312.187C361.547 309.901 359.692 308.045 357.405 308.045C355.119 308.045 353.264 309.901 353.264 312.187Z" fill="url(#paint57_linear_20_13)"/>
<path d="M374.663 273.832C374.663 276.55 376.863 278.707 379.538 278.707C382.256 278.707 384.457 276.55 384.457 273.832C384.457 271.157 382.256 268.957 379.538 268.957C376.863 268.957 374.663 271.157 374.663 273.832Z" fill="url(#paint58_linear_20_13)"/>
<path d="M419.403 350.585C419.403 353.044 421.387 355.028 423.847 355.028C426.306 355.028 428.29 353.044 428.29 350.585C428.29 348.126 426.306 346.141 423.847 346.141C421.387 346.141 419.403 348.126 419.403 350.585Z" fill="url(#paint59_linear_20_13)"/>
<path d="M357.405 85.2088C359.174 85.2088 360.598 83.7851 360.598 82.0162C360.598 80.2473 359.174 78.8236 357.405 78.8236C355.637 78.8236 354.213 80.2473 354.213 82.0162C354.213 83.7851 355.637 85.2088 357.405 85.2088Z" fill="url(#paint60_linear_20_13)"/>
<path d="M379.538 199.668C380.962 199.668 382.127 198.546 382.127 197.123C382.127 195.699 380.962 194.534 379.538 194.534C378.158 194.534 376.993 195.699 376.993 197.123C376.993 198.546 378.158 199.668 379.538 199.668Z" fill="url(#paint61_linear_20_13)"/>
<path d="M354.644 235.478C354.644 236.988 355.895 238.239 357.405 238.239C358.915 238.239 360.167 236.988 360.167 235.478C360.167 233.968 358.915 232.717 357.405 232.717C355.895 232.717 354.644 233.968 354.644 235.478Z" fill="url(#paint62_linear_20_13)"/>
<path d="M293.682 350.585C293.682 349.075 292.474 347.824 290.964 347.824C289.454 347.824 288.246 349.075 288.246 350.585C288.246 352.095 289.454 353.303 290.964 353.303C292.474 353.303 293.682 352.095 293.682 350.585Z" fill="url(#paint63_linear_20_13)"/>
<path d="M316.635 312.187C316.635 310.246 315.082 308.649 313.097 308.649C311.156 308.649 309.559 310.246 309.559 312.187C309.559 314.172 311.156 315.768 313.097 315.768C315.082 315.768 316.635 314.172 316.635 312.187Z" fill="url(#paint64_linear_20_13)"/>
<path d="M382.947 350.585C382.947 348.687 381.436 347.177 379.538 347.177C377.683 347.177 376.173 348.687 376.173 350.585C376.173 352.44 377.683 353.95 379.538 353.95C381.436 353.95 382.947 352.44 382.947 350.585Z" fill="url(#paint65_linear_20_13)"/>
<path d="M317.196 158.726C317.196 156.482 315.384 154.627 313.097 154.627C310.854 154.627 308.998 156.482 308.998 158.726C308.998 161.012 310.854 162.824 313.097 162.824C315.384 162.824 317.196 161.012 317.196 158.726Z" fill="url(#paint66_linear_20_13)"/>
<path d="M290.964 192.852C288.591 192.852 286.693 194.75 286.693 197.123C286.693 199.453 288.591 201.351 290.964 201.351C293.294 201.351 295.192 199.453 295.192 197.123C295.192 194.75 293.294 192.852 290.964 192.852Z" fill="url(#paint67_linear_20_13)"/>
<path d="M221.935 235.478C221.935 236.901 223.099 238.066 224.523 238.066C225.904 238.066 227.069 236.901 227.069 235.478C227.069 234.054 225.904 232.889 224.523 232.889C223.099 232.889 221.935 234.054 221.935 235.478Z" fill="url(#paint68_linear_20_13)"/>
<path d="M250.021 197.123C250.021 195.268 248.511 193.758 246.656 193.758C244.801 193.758 243.291 195.268 243.291 197.123C243.291 198.978 244.801 200.445 246.656 200.445C248.511 200.445 250.021 198.978 250.021 197.123Z" fill="url(#paint69_linear_20_13)"/>
<path d="M309.516 235.478C309.516 237.462 311.112 239.059 313.097 239.059C315.082 239.059 316.678 237.462 316.678 235.478C316.678 233.493 315.082 231.897 313.097 231.897C311.112 231.897 309.516 233.493 309.516 235.478Z" fill="url(#paint70_linear_20_13)"/>
<path d="M241.565 273.833C241.565 276.637 243.851 278.923 246.656 278.923C249.46 278.923 251.747 276.637 251.747 273.833C251.747 271.028 249.46 268.742 246.656 268.742C243.851 268.742 241.565 271.028 241.565 273.833Z" fill="url(#paint71_linear_20_13)"/>
<path d="M221.633 312.187C221.633 313.783 222.927 315.077 224.523 315.077C226.076 315.077 227.371 313.783 227.371 312.187C227.371 310.634 226.076 309.339 224.523 309.339C222.927 309.339 221.633 310.634 221.633 312.187Z" fill="url(#paint72_linear_20_13)"/>
<path d="M285.917 273.833C285.917 276.637 288.16 278.88 290.964 278.88C293.726 278.88 295.969 276.637 295.969 273.833C295.969 271.071 293.726 268.828 290.964 268.828C288.16 268.828 285.917 271.071 285.917 273.833Z" fill="url(#paint73_linear_20_13)"/>
<path d="M248.942 350.585C248.942 349.334 247.907 348.298 246.656 348.298C245.405 348.298 244.369 349.334 244.369 350.585C244.369 351.836 245.405 352.872 246.656 352.872C247.907 352.872 248.942 351.836 248.942 350.585Z" fill="url(#paint74_linear_20_13)"/>
<path d="M93.9707 235.478C93.9707 234.183 92.8921 233.105 91.5979 233.105C90.3035 233.105 89.2249 234.183 89.2249 235.478C89.2249 236.772 90.3035 237.851 91.5979 237.851C92.8921 237.851 93.9707 236.772 93.9707 235.478Z" fill="url(#paint75_linear_20_13)"/>
<path d="M177.454 235.478C177.454 236.988 178.662 238.239 180.215 238.239C181.725 238.239 182.976 236.988 182.976 235.478C182.976 233.968 181.725 232.717 180.215 232.717C178.662 232.717 177.454 233.968 177.454 235.478Z" fill="url(#paint76_linear_20_13)"/>
<path d="M163.432 273.832C163.432 270.855 161.016 268.439 158.039 268.439C155.062 268.439 152.646 270.855 152.646 273.832C152.646 276.809 155.062 279.225 158.039 279.225C161.016 279.225 163.432 276.809 163.432 273.832Z" fill="url(#paint77_linear_20_13)"/>
<path d="M177.281 312.187C177.281 313.826 178.575 315.12 180.215 315.12C181.811 315.12 183.148 313.826 183.148 312.187C183.148 310.59 181.811 309.253 180.215 309.253C178.575 309.253 177.281 310.59 177.281 312.187Z" fill="url(#paint78_linear_20_13)"/>
<path d="M153.638 350.585C153.638 353.001 155.623 354.986 158.039 354.986C160.498 354.986 162.44 353.001 162.44 350.585C162.44 348.126 160.498 346.184 158.039 346.184C155.623 346.184 153.638 348.126 153.638 350.585Z" fill="url(#paint79_linear_20_13)"/>
<path d="M119.598 350.585C119.598 347.349 116.966 344.718 113.73 344.718C110.495 344.718 107.906 347.349 107.906 350.585C107.906 353.821 110.495 356.453 113.73 356.453C116.966 356.453 119.598 353.821 119.598 350.585Z" fill="url(#paint80_linear_20_13)"/>
<path d="M47.2892 238.67C49.0582 238.67 50.4819 237.247 50.4819 235.478C50.4819 233.709 49.0582 232.285 47.2892 232.285C45.5204 232.285 44.0967 233.709 44.0967 235.478C44.0967 237.247 45.5204 238.67 47.2892 238.67Z" fill="url(#paint81_linear_20_13)"/>
<path d="M87.456 312.187C87.456 314.517 89.3112 316.372 91.5979 316.372C93.8844 316.372 95.7396 314.517 95.7396 312.187C95.7396 309.901 93.8844 308.045 91.5979 308.045C89.3112 308.045 87.456 309.901 87.456 312.187Z" fill="url(#paint82_linear_20_13)"/>
<path d="M51.4311 312.187C51.4311 309.901 49.5759 308.045 47.2893 308.045C45.0027 308.045 43.1475 309.901 43.1475 312.187C43.1475 314.474 45.0027 316.329 47.2893 316.329C49.5759 316.329 51.4311 314.474 51.4311 312.187Z" fill="url(#paint83_linear_20_13)"/>
<path d="M21.8346 197.123C21.8346 198.935 23.3447 200.402 25.1567 200.402C26.9687 200.402 28.4356 198.935 28.4356 197.123C28.4356 195.268 26.9687 193.801 25.1567 193.801C23.3447 193.801 21.8346 195.268 21.8346 197.123Z" fill="url(#paint84_linear_20_13)"/>
<path d="M21.4895 273.833C21.4895 275.86 23.1289 277.5 25.1567 277.5C27.1413 277.5 28.7807 275.86 28.7807 273.833C28.7807 271.848 27.1413 270.208 25.1567 270.208C23.1289 270.208 21.4895 271.848 21.4895 273.833Z" fill="url(#paint85_linear_20_13)"/>
</mask>
<g mask="url(#mask0_20_13)">
<path fill-rule="evenodd" clip-rule="evenodd" d="M423.674 43.6613L423.717 43.575L445.893 5.13405L490.417 5.13406L490.46 5.17719L512.636 43.6613L512.593 43.7476L490.417 82.1885L445.893 82.1885L445.85 82.1022L423.674 43.6613ZM446.109 5.43607L424.062 43.6613L446.109 81.8434L490.245 81.8434L512.291 43.6613L490.245 5.43607L446.109 5.43607Z" fill="url(#paint86_linear_20_13)"/>
<path fill-rule="evenodd" clip-rule="evenodd" d="M423.674 120.371L423.717 120.285L445.893 81.8438L490.417 81.8438L490.46 81.93L512.636 120.371L512.593 120.457L490.417 158.898L445.893 158.898L445.85 158.812L423.674 120.371ZM446.109 82.1889L424.062 120.371L446.109 158.596L490.245 158.596L512.291 120.371L490.245 82.1889L446.109 82.1889Z" fill="url(#paint87_linear_20_13)"/>
<path fill-rule="evenodd" clip-rule="evenodd" d="M423.674 197.123L423.717 197.037L445.893 158.596L490.417 158.596L490.46 158.639L512.636 197.123L512.593 197.209L490.417 235.65L445.893 235.65L445.85 235.564L423.674 197.123ZM446.109 158.898L424.062 197.123L446.109 235.305L490.245 235.305L512.291 197.123L490.245 158.898L446.109 158.898Z" fill="url(#paint88_linear_20_13)"/>
<path fill-rule="evenodd" clip-rule="evenodd" d="M423.674 273.832L423.717 273.746L445.893 235.305L490.417 235.305L490.46 235.391L512.636 273.832L512.593 273.918L490.417 312.359L445.893 312.359L445.85 312.273L423.674 273.832ZM446.109 235.65L424.062 273.832L446.109 312.057L490.245 312.057L512.291 273.832L490.245 235.65L446.109 235.65Z" fill="url(#paint89_linear_20_13)"/>
<path d="M429.498 359.99L424.062 350.585L446.109 312.359L490.201 312.359L512.248 350.585L506.812 359.99L507.2 359.99L512.593 350.671L512.636 350.585L490.46 312.1L490.417 312.057L445.893 312.057L423.717 350.498L423.674 350.585L429.11 359.99L429.498 359.99Z" fill="url(#paint90_linear_20_13)"/>
<path fill-rule="evenodd" clip-rule="evenodd" d="M357.233 82.0161L357.276 81.9298L379.452 43.4889L423.933 43.4889L424.019 43.5752L446.195 82.0162L446.152 82.1024L423.933 120.543L379.452 120.543L379.409 120.457L357.233 82.0161ZM379.668 43.8341L357.621 82.0161L379.668 120.198L423.803 120.198L445.85 82.0162L423.803 43.8341L379.668 43.8341Z" fill="url(#paint91_linear_20_13)"/>
<path fill-rule="evenodd" clip-rule="evenodd" d="M357.233 158.725L357.276 158.639L379.452 120.198L423.933 120.198L424.019 120.284L446.195 158.725L446.152 158.812L423.933 197.296L379.452 197.296L379.409 197.209L357.233 158.725ZM379.668 120.5L357.621 158.725L379.668 196.907L423.803 196.907L445.85 158.725L423.803 120.5L379.668 120.5Z" fill="url(#paint92_linear_20_13)"/>
<path fill-rule="evenodd" clip-rule="evenodd" d="M357.233 235.478L357.276 235.391L379.452 196.951L423.933 196.951L424.019 197.037L446.195 235.478L446.152 235.564L423.933 274.005L379.452 274.005L379.409 273.919L357.233 235.478ZM379.668 197.296L357.621 235.478L379.668 273.703L423.803 273.703L445.85 235.478L423.803 197.296L379.668 197.296Z" fill="url(#paint93_linear_20_13)"/>
<path fill-rule="evenodd" clip-rule="evenodd" d="M357.233 312.187L357.276 312.101L379.452 273.66L423.933 273.66L424.019 273.746L446.195 312.187L446.152 312.273L423.933 350.757L379.452 350.757L379.409 350.671L357.233 312.187ZM379.668 273.962L357.621 312.187L379.668 350.369L423.803 350.369L445.85 312.187L423.803 273.962L379.668 273.962Z" fill="url(#paint94_linear_20_13)"/>
<path d="M374.318 359.99L379.668 350.757L423.76 350.757L429.11 359.99L429.498 359.99L424.019 350.498L423.933 350.412L379.452 350.412L373.929 359.99L374.318 359.99Z" fill="url(#paint95_linear_20_13)"/>
<path fill-rule="evenodd" clip-rule="evenodd" d="M290.749 197.123L290.792 197.037L313.011 158.596L357.492 158.596L357.535 158.639L379.754 197.123L379.711 197.209L357.492 235.65L313.011 235.65L312.968 235.564L290.749 197.123ZM313.183 158.898L291.137 197.123L313.183 235.305L357.276 235.305L379.322 197.123L357.276 158.898L313.183 158.898Z" fill="url(#paint96_linear_20_13)"/>
<path fill-rule="evenodd" clip-rule="evenodd" d="M290.749 273.832L290.792 273.746L313.011 235.305L357.492 235.305L357.535 235.391L379.754 273.832L379.711 273.918L357.492 312.359L313.011 312.359L312.968 312.273L290.749 273.832ZM313.183 235.65L291.137 273.832L313.183 312.057L357.276 312.057L379.322 273.832L357.276 235.65L313.183 235.65Z" fill="url(#paint97_linear_20_13)"/>
<path d="M296.573 359.99L291.137 350.585L313.183 312.359L357.319 312.359L379.366 350.585L373.929 359.99L374.318 359.99L379.711 350.671L379.754 350.585L357.535 312.1L357.492 312.057L313.011 312.057L290.792 350.498L290.749 350.585L296.185 359.99L296.573 359.99Z" fill="url(#paint98_linear_20_13)"/>
<path fill-rule="evenodd" clip-rule="evenodd" d="M224.307 235.478L224.351 235.391L246.57 196.951L291.051 196.951L291.094 197.037L313.313 235.478L313.27 235.564L291.051 274.005L246.57 274.005L246.526 273.919L224.307 235.478ZM246.742 197.296L224.696 235.478L246.742 273.703L290.835 273.703L312.881 235.478L290.835 197.296L246.742 197.296Z" fill="url(#paint99_linear_20_13)"/>
<path fill-rule="evenodd" clip-rule="evenodd" d="M224.307 312.187L224.351 312.101L246.57 273.66L291.051 273.66L291.094 273.746L313.313 312.187L313.27 312.273L291.051 350.757L246.57 350.757L246.526 350.671L224.307 312.187ZM246.742 273.962L224.696 312.187L246.742 350.369L290.835 350.369L312.881 312.187L290.835 273.962L246.742 273.962Z" fill="url(#paint100_linear_20_13)"/>
<path d="M241.392 359.99L246.742 350.757L290.878 350.757L296.185 359.99L296.573 359.99L291.094 350.498L291.051 350.412L246.57 350.412L241.004 359.99L241.392 359.99Z" fill="url(#paint101_linear_20_13)"/>
<path fill-rule="evenodd" clip-rule="evenodd" d="M157.866 273.832L157.91 273.746L180.085 235.305L224.61 235.305L224.653 235.391L246.828 273.832L246.785 273.918L224.61 312.359L180.085 312.359L180.042 312.273L157.866 273.832ZM180.301 235.65L158.255 273.832L180.301 312.057L224.437 312.057L246.483 273.832L224.437 235.65L180.301 235.65Z" fill="url(#paint102_linear_20_13)"/>
<path d="M163.691 359.99L158.255 350.585L180.301 312.359L224.394 312.359L246.44 350.585L241.004 359.99L241.392 359.99L246.785 350.671L246.828 350.585L224.653 312.1L224.61 312.057L180.085 312.057L157.91 350.498L157.866 350.585L163.302 359.99L163.691 359.99Z" fill="url(#paint103_linear_20_13)"/>
<path d="M108.51 359.99L113.86 350.757L157.953 350.757L163.302 359.99L163.691 359.99L158.212 350.498L158.168 350.412L113.644 350.412L108.122 359.99L108.51 359.99Z" fill="url(#paint104_linear_20_13)"/>
<path d="M0.133414 197.296L25.0704 197.296L47.1168 235.478L25.0704 273.66L0.133411 273.66L0.133411 274.005L25.243 274.005L47.4619 235.564L47.5051 235.478L25.2861 197.037L25.243 196.951L0.133414 196.951L0.133414 197.296Z" fill="url(#paint105_linear_20_13)"/>
<path d="M0.133411 274.005L25.0704 274.005L47.1168 312.187L25.0704 350.412L0.133408 350.412L0.133408 350.757L25.243 350.757L47.4619 312.273L47.5051 312.187L25.2861 273.746L25.243 273.66L0.133411 273.66L0.133411 274.005Z" fill="url(#paint106_linear_20_13)"/>
<path d="M583.866 185.345L546.116 185.345L517.727 136.248L546.116 87.1071L583.866 87.1071L583.866 85.3814L545.123 85.3814L515.742 136.248L545.123 187.114L583.866 187.114L583.866 185.345Z" fill="url(#paint107_linear_20_13)"/>
<path d="M583.866 285.352L546.116 285.352L517.727 236.254L546.116 187.114L583.866 187.114L583.866 185.345L545.123 185.345L515.742 236.254L545.123 287.121L583.866 287.121L583.866 285.352Z" fill="url(#paint108_linear_20_13)"/>
<path d="M546.116 287.121L583.866 287.121L583.866 285.352L545.123 285.352L515.742 336.218L529.462 359.99L531.447 359.99L517.727 336.218L546.116 287.121Z" fill="url(#paint109_linear_20_13)"/>
<path fill-rule="evenodd" clip-rule="evenodd" d="M429.153 186.251L458.491 135.341L517.252 135.341L546.633 186.251L517.252 237.117L458.491 237.117L429.153 186.251ZM459.526 137.11L431.181 186.251L459.526 235.348L516.26 235.348L544.649 186.251L516.26 137.11L459.526 137.11Z" fill="url(#paint110_linear_20_13)"/>
<path fill-rule="evenodd" clip-rule="evenodd" d="M429.153 286.214L458.491 235.348L517.252 235.348L546.633 286.214L517.252 337.081L458.491 337.081L429.153 286.214ZM459.526 237.117L431.181 286.214L459.526 335.355L516.26 335.355L544.649 286.214L516.26 237.117L459.526 237.117Z" fill="url(#paint111_linear_20_13)"/>
<path d="M446.281 359.99L459.526 337.081L516.26 337.081L529.462 359.99L531.447 359.99L517.252 335.355L458.491 335.355L444.297 359.99L446.281 359.99Z" fill="url(#paint112_linear_20_13)"/>
<path fill-rule="evenodd" clip-rule="evenodd" d="M342.521 236.254L371.902 185.345L430.663 185.345L460.001 236.254L430.663 287.121L371.902 287.121L342.521 236.254ZM372.894 187.114L344.549 236.254L372.894 285.352L429.628 285.352L458.016 236.254L429.628 187.114L372.894 187.114Z" fill="url(#paint113_linear_20_13)"/>
<path d="M358.268 359.99L344.549 336.218L372.894 287.121L429.628 287.121L458.016 336.218L444.297 359.99L446.281 359.99L460.001 336.218L430.663 285.352L371.902 285.352L342.521 336.218L356.241 359.99L358.268 359.99Z" fill="url(#paint114_linear_20_13)"/>
<path d="M273.103 359.99L286.305 337.081L343.039 337.081L356.241 359.99L358.268 359.99L344.031 335.355L285.313 335.355L271.075 359.99L273.103 359.99Z" fill="url(#paint115_linear_20_13)"/>
<path fill-rule="evenodd" clip-rule="evenodd" d="M82.7102 286.214L112.091 235.348L170.809 235.348L200.19 286.214L170.809 337.081L112.091 337.081L82.7102 286.214ZM113.083 237.117L84.6948 286.214L113.083 335.355L169.817 335.355L198.162 286.214L169.817 237.117L113.083 237.117Z" fill="url(#paint116_linear_20_13)"/>
<path d="M111.573 336.218L97.8536 359.99L99.8813 359.99L113.601 336.218L84.2203 285.352L25.5018 285.352L0.133408 329.272L0.133408 332.767L26.4941 287.121L83.2279 287.121L111.573 336.218Z" fill="url(#paint117_linear_20_13)"/>
<path d="M11.8253 359.99L0.133408 339.713L0.133408 343.164L9.84068 359.99L11.8253 359.99Z" fill="url(#paint118_linear_20_13)"/>
<path d="M0.133412 243.157L24.9841 286.215L0.133408 329.272L0.133408 332.767L27.0118 286.215L0.133412 239.706L0.133412 243.157Z" fill="url(#paint119_linear_20_13)"/>
<path d="M11.8253 359.99L0.133408 339.713L0.133408 343.164L9.84068 359.99L11.8253 359.99Z" fill="url(#paint120_linear_20_13)"/>
<path d="M495.594 5.26352C495.594 2.3729 493.222 -3.96221e-06 490.288 -4.09044e-06C487.397 -4.2168e-06 485.024 2.3729 485.024 5.26352C485.024 8.19728 487.397 10.5702 490.288 10.5702C493.222 10.5702 495.594 8.19728 495.594 5.26352Z" fill="url(#paint121_linear_20_13)"/>
<path d="M442.7 5.26374C442.7 7.11891 444.167 8.5858 446.022 8.5858C447.834 8.5858 449.301 7.11891 449.301 5.26374C449.301 3.45171 447.834 1.98483 446.022 1.98483C444.167 1.98483 442.7 3.45171 442.7 5.26374Z" fill="url(#paint122_linear_20_13)"/>
<path d="M420.87 43.6614C420.87 45.3009 422.207 46.6383 423.847 46.6383C425.486 46.6383 426.824 45.3009 426.824 43.6614C426.824 42.022 425.486 40.6845 423.847 40.6845C422.207 40.6845 420.87 42.022 420.87 43.6614Z" fill="url(#paint123_linear_20_13)"/>
<path d="M510.91 43.6614C510.91 44.4812 511.601 45.1715 512.464 45.1715C513.326 45.1715 513.974 44.4812 513.974 43.6614C513.974 42.7986 513.326 42.1083 512.464 42.1083C511.601 42.1083 510.91 42.7986 510.91 43.6614Z" fill="url(#paint124_linear_20_13)"/>
<path d="M487.268 82.0162C487.268 83.6988 488.648 85.0363 490.288 85.0363C491.97 85.0363 493.351 83.6988 493.351 82.0162C493.351 80.3337 491.97 78.9962 490.288 78.9962C488.648 78.9962 487.268 80.3337 487.268 82.0162Z" fill="url(#paint125_linear_20_13)"/>
<path d="M451.329 82.0164C451.329 79.0826 448.956 76.6665 446.022 76.6665C443.046 76.6665 440.673 79.0826 440.673 82.0164C440.673 84.9501 443.046 87.323 446.022 87.323C448.956 87.323 451.329 84.9501 451.329 82.0164Z" fill="url(#paint126_linear_20_13)"/>
<path d="M510.22 120.37C510.22 121.622 511.212 122.614 512.464 122.614C513.715 122.614 514.707 121.622 514.707 120.37C514.707 119.119 513.715 118.127 512.464 118.127C511.212 118.127 510.22 119.119 510.22 120.37Z" fill="url(#paint127_linear_20_13)"/>
<path d="M486.189 158.726C486.189 161.012 488.001 162.867 490.288 162.867C492.574 162.867 494.43 161.012 494.43 158.726C494.43 156.439 492.574 154.584 490.288 154.584C488.001 154.584 486.189 156.439 486.189 158.726Z" fill="url(#paint128_linear_20_13)"/>
<path d="M441.061 158.725C441.061 161.486 443.261 163.687 446.022 163.687C448.74 163.687 450.941 161.486 450.941 158.725C450.941 156.007 448.74 153.807 446.022 153.807C443.261 153.807 441.061 156.007 441.061 158.725Z" fill="url(#paint129_linear_20_13)"/>
<path d="M509.875 197.123C509.875 198.546 511.04 199.711 512.464 199.711C513.887 199.711 515.052 198.546 515.052 197.123C515.052 195.699 513.887 194.534 512.464 194.534C511.04 194.534 509.875 195.699 509.875 197.123Z" fill="url(#paint130_linear_20_13)"/>
<path d="M487.354 235.477C487.354 237.117 488.648 238.454 490.288 238.454C491.927 238.454 493.265 237.117 493.265 235.477C493.265 233.838 491.927 232.501 490.288 232.501C488.648 232.501 487.354 233.838 487.354 235.477Z" fill="url(#paint131_linear_20_13)"/>
<path d="M443.908 235.478C443.908 236.643 444.858 237.592 446.022 237.592C447.187 237.592 448.136 236.643 448.136 235.478C448.136 234.313 447.187 233.364 446.022 233.364C444.858 233.364 443.908 234.313 443.908 235.478Z" fill="url(#paint132_linear_20_13)"/>
<path d="M510.479 273.833C510.479 274.954 511.342 275.817 512.464 275.817C513.542 275.817 514.448 274.954 514.448 273.833C514.448 272.754 513.542 271.848 512.464 271.848C511.342 271.848 510.479 272.754 510.479 273.833Z" fill="url(#paint133_linear_20_13)"/>
<path d="M487.181 312.187C487.181 313.956 488.562 315.337 490.288 315.337C492.057 315.337 493.437 313.956 493.437 312.187C493.437 310.461 492.057 309.081 490.288 309.081C488.562 309.081 487.181 310.461 487.181 312.187Z" fill="url(#paint134_linear_20_13)"/>
<path d="M442.442 312.187C442.442 314.172 444.038 315.768 446.022 315.768C447.964 315.768 449.56 314.172 449.56 312.187C449.56 310.246 447.964 308.649 446.022 308.649C444.038 308.649 442.442 310.246 442.442 312.187Z" fill="url(#paint135_linear_20_13)"/>
<path d="M509.443 350.585C509.443 352.225 510.781 353.562 512.464 353.562C514.103 353.562 515.44 352.225 515.44 350.585C515.44 348.903 514.103 347.565 512.464 347.565C510.781 347.565 509.443 348.903 509.443 350.585Z" fill="url(#paint136_linear_20_13)"/>
<path d="M375.569 43.661C375.569 45.8614 377.338 47.6303 379.538 47.6303C381.782 47.6303 383.551 45.8614 383.551 43.661C383.551 41.4176 381.782 39.6487 379.538 39.6487C377.338 39.6487 375.569 41.4176 375.569 43.661Z" fill="url(#paint137_linear_20_13)"/>
<path d="M425.918 120.371C425.918 119.249 424.968 118.343 423.847 118.343C422.725 118.343 421.819 119.249 421.819 120.371C421.819 121.492 422.725 122.441 423.847 122.441C424.968 122.441 425.918 121.492 425.918 120.371Z" fill="url(#paint138_linear_20_13)"/>
<path d="M375.741 120.37C375.741 122.484 377.467 124.167 379.538 124.167C381.652 124.167 383.335 122.484 383.335 120.37C383.335 118.299 381.652 116.574 379.538 116.574C377.467 116.574 375.741 118.299 375.741 120.37Z" fill="url(#paint139_linear_20_13)"/>
<path d="M357.406 161.141C358.743 161.141 359.822 160.063 359.822 158.725C359.822 157.431 358.743 156.352 357.406 156.352C356.068 156.352 354.989 157.431 354.989 158.725C354.989 160.063 356.068 161.141 357.406 161.141Z" fill="url(#paint140_linear_20_13)"/>
<path d="M429.455 197.123C429.455 194.017 426.953 191.514 423.847 191.514C420.74 191.514 418.238 194.017 418.238 197.123C418.238 200.186 420.74 202.732 423.847 202.732C426.953 202.732 429.455 200.186 429.455 197.123Z" fill="url(#paint141_linear_20_13)"/>
<path d="M419.705 273.832C419.705 276.119 421.56 278.017 423.847 278.017C426.133 278.017 428.032 276.119 428.032 273.832C428.032 271.546 426.133 269.691 423.847 269.691C421.56 269.691 419.705 271.546 419.705 273.832Z" fill="url(#paint142_linear_20_13)"/>
<path d="M353.264 312.187C353.264 314.474 355.119 316.329 357.405 316.329C359.692 316.329 361.547 314.474 361.547 312.187C361.547 309.901 359.692 308.045 357.405 308.045C355.119 308.045 353.264 309.901 353.264 312.187Z" fill="url(#paint143_linear_20_13)"/>
<path d="M374.663 273.832C374.663 276.55 376.863 278.707 379.538 278.707C382.256 278.707 384.457 276.55 384.457 273.832C384.457 271.157 382.256 268.957 379.538 268.957C376.863 268.957 374.663 271.157 374.663 273.832Z" fill="url(#paint144_linear_20_13)"/>
<path d="M419.403 350.585C419.403 353.044 421.387 355.028 423.847 355.028C426.306 355.028 428.29 353.044 428.29 350.585C428.29 348.126 426.306 346.141 423.847 346.141C421.387 346.141 419.403 348.126 419.403 350.585Z" fill="url(#paint145_linear_20_13)"/>
<path d="M357.405 85.2088C359.174 85.2088 360.598 83.7851 360.598 82.0162C360.598 80.2473 359.174 78.8236 357.405 78.8236C355.637 78.8236 354.213 80.2473 354.213 82.0162C354.213 83.7851 355.637 85.2088 357.405 85.2088Z" fill="url(#paint146_linear_20_13)"/>
<path d="M379.538 199.668C380.962 199.668 382.127 198.546 382.127 197.123C382.127 195.699 380.962 194.534 379.538 194.534C378.158 194.534 376.993 195.699 376.993 197.123C376.993 198.546 378.158 199.668 379.538 199.668Z" fill="url(#paint147_linear_20_13)"/>
<path d="M354.644 235.478C354.644 236.988 355.895 238.239 357.405 238.239C358.915 238.239 360.167 236.988 360.167 235.478C360.167 233.968 358.915 232.717 357.405 232.717C355.895 232.717 354.644 233.968 354.644 235.478Z" fill="url(#paint148_linear_20_13)"/>
<path d="M293.682 350.585C293.682 349.075 292.474 347.824 290.964 347.824C289.454 347.824 288.246 349.075 288.246 350.585C288.246 352.095 289.454 353.303 290.964 353.303C292.474 353.303 293.682 352.095 293.682 350.585Z" fill="url(#paint149_linear_20_13)"/>
<path d="M316.635 312.187C316.635 310.246 315.082 308.649 313.097 308.649C311.156 308.649 309.559 310.246 309.559 312.187C309.559 314.172 311.156 315.768 313.097 315.768C315.082 315.768 316.635 314.172 316.635 312.187Z" fill="url(#paint150_linear_20_13)"/>
<path d="M382.947 350.585C382.947 348.687 381.436 347.177 379.538 347.177C377.683 347.177 376.173 348.687 376.173 350.585C376.173 352.44 377.683 353.95 379.538 353.95C381.436 353.95 382.947 352.44 382.947 350.585Z" fill="url(#paint151_linear_20_13)"/>
<path d="M317.196 158.726C317.196 156.482 315.384 154.627 313.097 154.627C310.854 154.627 308.998 156.482 308.998 158.726C308.998 161.012 310.854 162.824 313.097 162.824C315.384 162.824 317.196 161.012 317.196 158.726Z" fill="url(#paint152_linear_20_13)"/>
<path d="M290.964 192.852C288.591 192.852 286.693 194.75 286.693 197.123C286.693 199.453 288.591 201.351 290.964 201.351C293.294 201.351 295.192 199.453 295.192 197.123C295.192 194.75 293.294 192.852 290.964 192.852Z" fill="url(#paint153_linear_20_13)"/>
<path d="M221.935 235.478C221.935 236.901 223.099 238.066 224.523 238.066C225.904 238.066 227.069 236.901 227.069 235.478C227.069 234.054 225.904 232.889 224.523 232.889C223.099 232.889 221.935 234.054 221.935 235.478Z" fill="url(#paint154_linear_20_13)"/>
<path d="M250.021 197.123C250.021 195.268 248.511 193.758 246.656 193.758C244.801 193.758 243.291 195.268 243.291 197.123C243.291 198.978 244.801 200.445 246.656 200.445C248.511 200.445 250.021 198.978 250.021 197.123Z" fill="url(#paint155_linear_20_13)"/>
<path d="M309.516 235.478C309.516 237.462 311.112 239.059 313.097 239.059C315.082 239.059 316.678 237.462 316.678 235.478C316.678 233.493 315.082 231.897 313.097 231.897C311.112 231.897 309.516 233.493 309.516 235.478Z" fill="url(#paint156_linear_20_13)"/>
<path d="M241.565 273.833C241.565 276.637 243.851 278.923 246.656 278.923C249.46 278.923 251.747 276.637 251.747 273.833C251.747 271.028 249.46 268.742 246.656 268.742C243.851 268.742 241.565 271.028 241.565 273.833Z" fill="url(#paint157_linear_20_13)"/>
<path d="M221.633 312.187C221.633 313.783 222.927 315.077 224.523 315.077C226.076 315.077 227.371 313.783 227.371 312.187C227.371 310.634 226.076 309.339 224.523 309.339C222.927 309.339 221.633 310.634 221.633 312.187Z" fill="url(#paint158_linear_20_13)"/>
<path d="M285.917 273.833C285.917 276.637 288.16 278.88 290.964 278.88C293.726 278.88 295.969 276.637 295.969 273.833C295.969 271.071 293.726 268.828 290.964 268.828C288.16 268.828 285.917 271.071 285.917 273.833Z" fill="url(#paint159_linear_20_13)"/>
<path d="M248.942 350.585C248.942 349.334 247.907 348.298 246.656 348.298C245.405 348.298 244.369 349.334 244.369 350.585C244.369 351.836 245.405 352.872 246.656 352.872C247.907 352.872 248.942 351.836 248.942 350.585Z" fill="url(#paint160_linear_20_13)"/>
<path d="M93.9707 235.478C93.9707 234.183 92.8921 233.105 91.5979 233.105C90.3035 233.105 89.2249 234.183 89.2249 235.478C89.2249 236.772 90.3035 237.851 91.5979 237.851C92.8921 237.851 93.9707 236.772 93.9707 235.478Z" fill="url(#paint161_linear_20_13)"/>
<path d="M177.454 235.478C177.454 236.988 178.662 238.239 180.215 238.239C181.725 238.239 182.976 236.988 182.976 235.478C182.976 233.968 181.725 232.717 180.215 232.717C178.662 232.717 177.454 233.968 177.454 235.478Z" fill="url(#paint162_linear_20_13)"/>
<path d="M163.432 273.832C163.432 270.855 161.016 268.439 158.039 268.439C155.062 268.439 152.646 270.855 152.646 273.832C152.646 276.809 155.062 279.225 158.039 279.225C161.016 279.225 163.432 276.809 163.432 273.832Z" fill="url(#paint163_linear_20_13)"/>
<path d="M177.281 312.187C177.281 313.826 178.575 315.12 180.215 315.12C181.811 315.12 183.148 313.826 183.148 312.187C183.148 310.59 181.811 309.253 180.215 309.253C178.575 309.253 177.281 310.59 177.281 312.187Z" fill="url(#paint164_linear_20_13)"/>
<path d="M153.638 350.585C153.638 353.001 155.623 354.986 158.039 354.986C160.498 354.986 162.44 353.001 162.44 350.585C162.44 348.126 160.498 346.184 158.039 346.184C155.623 346.184 153.638 348.126 153.638 350.585Z" fill="url(#paint165_linear_20_13)"/>
<path d="M119.598 350.585C119.598 347.349 116.966 344.718 113.73 344.718C110.495 344.718 107.906 347.349 107.906 350.585C107.906 353.821 110.495 356.453 113.73 356.453C116.966 356.453 119.598 353.821 119.598 350.585Z" fill="url(#paint166_linear_20_13)"/>
<path d="M47.2892 238.67C49.0582 238.67 50.4819 237.247 50.4819 235.478C50.4819 233.709 49.0582 232.285 47.2892 232.285C45.5204 232.285 44.0967 233.709 44.0967 235.478C44.0967 237.247 45.5204 238.67 47.2892 238.67Z" fill="url(#paint167_linear_20_13)"/>
<path d="M87.456 312.187C87.456 314.517 89.3112 316.372 91.5979 316.372C93.8844 316.372 95.7396 314.517 95.7396 312.187C95.7396 309.901 93.8844 308.045 91.5979 308.045C89.3112 308.045 87.456 309.901 87.456 312.187Z" fill="url(#paint168_linear_20_13)"/>
<path d="M51.4311 312.187C51.4311 309.901 49.5759 308.045 47.2893 308.045C45.0027 308.045 43.1475 309.901 43.1475 312.187C43.1475 314.474 45.0027 316.329 47.2893 316.329C49.5759 316.329 51.4311 314.474 51.4311 312.187Z" fill="url(#paint169_linear_20_13)"/>
<path d="M21.8346 197.123C21.8346 198.935 23.3447 200.402 25.1567 200.402C26.9687 200.402 28.4356 198.935 28.4356 197.123C28.4356 195.268 26.9687 193.801 25.1567 193.801C23.3447 193.801 21.8346 195.268 21.8346 197.123Z" fill="url(#paint170_linear_20_13)"/>
<path d="M21.4895 273.833C21.4895 275.86 23.1289 277.5 25.1567 277.5C27.1413 277.5 28.7807 275.86 28.7807 273.833C28.7807 271.848 27.1413 270.208 25.1567 270.208C23.1289 270.208 21.4895 271.848 21.4895 273.833Z" fill="url(#paint171_linear_20_13)"/>
<rect x="615.171" y="-17.9062" width="516.521" height="689.615" transform="rotate(90 615.171 -17.9062)" fill="#FFF2CB"/>
</g>
<defs>
<linearGradient id="paint0_linear_20_13" x1="-1.31439e+06" y1="756088" x2="-501493" y2="-97621.7" gradientUnits="userSpaceOnUse">
<stop stop-color="#52BBE8"/>
<stop offset="1" stop-color="#E1EFF8"/>
</linearGradient>
<linearGradient id="paint1_linear_20_13" x1="-1.24469e+06" y1="792303" x2="-431796" y2="-61406.7" gradientUnits="userSpaceOnUse">
<stop stop-color="#52BBE8"/>
<stop offset="1" stop-color="#E1EFF8"/>
</linearGradient>
<linearGradient id="paint2_linear_20_13" x1="-1.175e+06" y1="828482" x2="-362098" y2="-25227.6" gradientUnits="userSpaceOnUse">
<stop stop-color="#52BBE8"/>
<stop offset="1" stop-color="#E1EFF8"/>
</linearGradient>
<linearGradient id="paint3_linear_20_13" x1="-1.1053e+06" y1="864661" x2="-292458" y2="10970.4" gradientUnits="userSpaceOnUse">
<stop stop-color="#52BBE8"/>
<stop offset="1" stop-color="#E1EFF8"/>
</linearGradient>
<linearGradient id="paint4_linear_20_13" x1="-959365" y1="832226" x2="-241276" y2="78066.6" gradientUnits="userSpaceOnUse">
<stop stop-color="#52BBE8"/>
<stop offset="1" stop-color="#E1EFF8"/>
</linearGradient>
<linearGradient id="paint5_linear_20_13" x1="-1.27627e+06" y1="736972" x2="-463376" y2="-116737" gradientUnits="userSpaceOnUse">
<stop stop-color="#52BBE8"/>
<stop offset="1" stop-color="#E1EFF8"/>
</linearGradient>
<linearGradient id="paint6_linear_20_13" x1="-1.20658e+06" y1="773151" x2="-393678" y2="-80558.1" gradientUnits="userSpaceOnUse">
<stop stop-color="#52BBE8"/>
<stop offset="1" stop-color="#E1EFF8"/>
</linearGradient>
<linearGradient id="paint7_linear_20_13" x1="-1.13688e+06" y1="809366" x2="-323980" y2="-44343.1" gradientUnits="userSpaceOnUse">
<stop stop-color="#52BBE8"/>
<stop offset="1" stop-color="#E1EFF8"/>
</linearGradient>
<linearGradient id="paint8_linear_20_13" x1="-1.06718e+06" y1="845546" x2="-254283" y2="-8164.04" gradientUnits="userSpaceOnUse">
<stop stop-color="#52BBE8"/>
<stop offset="1" stop-color="#E1EFF8"/>
</linearGradient>
<linearGradient id="paint9_linear_20_13" x1="-900583" y1="732401" x2="-293677" y2="95025.3" gradientUnits="userSpaceOnUse">
<stop stop-color="#52BBE8"/>
<stop offset="1" stop-color="#E1EFF8"/>
</linearGradient>
<linearGradient id="paint10_linear_20_13" x1="-1.16846e+06" y1="754036" x2="-355560" y2="-99673.6" gradientUnits="userSpaceOnUse">
<stop stop-color="#52BBE8"/>
<stop offset="1" stop-color="#E1EFF8"/>
</linearGradient>
<linearGradient id="paint11_linear_20_13" x1="-1.09876e+06" y1="790215" x2="-285862" y2="-63494.6" gradientUnits="userSpaceOnUse">
<stop stop-color="#52BBE8"/>
<stop offset="1" stop-color="#E1EFF8"/>
</linearGradient>
<linearGradient id="paint12_linear_20_13" x1="-974542" y1="766456" x2="-256395" y2="12277.4" gradientUnits="userSpaceOnUse">
<stop stop-color="#52BBE8"/>
<stop offset="1" stop-color="#E1EFF8"/>
</linearGradient>
<linearGradient id="paint13_linear_20_13" x1="-1.13034e+06" y1="734920" x2="-317442" y2="-118789" gradientUnits="userSpaceOnUse">
<stop stop-color="#52BBE8"/>
<stop offset="1" stop-color="#E1EFF8"/>
</linearGradient>
<linearGradient id="paint14_linear_20_13" x1="-1.06064e+06" y1="771099" x2="-247745" y2="-82610.1" gradientUnits="userSpaceOnUse">
<stop stop-color="#52BBE8"/>
<stop offset="1" stop-color="#E1EFF8"/>
</linearGradient>
<linearGradient id="paint15_linear_20_13" x1="-941211" y1="676818" x2="-334363" y2="39461.8" gradientUnits="userSpaceOnUse">
<stop stop-color="#52BBE8"/>
<stop offset="1" stop-color="#E1EFF8"/>
</linearGradient>
<linearGradient id="paint16_linear_20_13" x1="-1.09222e+06" y1="715769" x2="-279325" y2="-137941" gradientUnits="userSpaceOnUse">
<stop stop-color="#52BBE8"/>
<stop offset="1" stop-color="#E1EFF8"/>
</linearGradient>
<linearGradient id="paint17_linear_20_13" x1="-989719" y1="700685" x2="-271572" y2="-53492.8" gradientUnits="userSpaceOnUse">
<stop stop-color="#52BBE8"/>
<stop offset="1" stop-color="#E1EFF8"/>
</linearGradient>
<linearGradient id="paint18_linear_20_13" x1="-981897" y1="621235" x2="-375021" y2="-16086.1" gradientUnits="userSpaceOnUse">
<stop stop-color="#52BBE8"/>
<stop offset="1" stop-color="#E1EFF8"/>
</linearGradient>
<linearGradient id="paint19_linear_20_13" x1="-1.03642e+06" y1="606980" x2="-320105" y2="-145322" gradientUnits="userSpaceOnUse">
<stop stop-color="#52BBE8"/>
<stop offset="1" stop-color="#E1EFF8"/>
</linearGradient>
<linearGradient id="paint20_linear_20_13" x1="-975009" y1="646471" x2="-258697" y2="-105831" gradientUnits="userSpaceOnUse">
<stop stop-color="#52BBE8"/>
<stop offset="1" stop-color="#E1EFF8"/>
</linearGradient>
<linearGradient id="paint21_linear_20_13" x1="-1.08282e+06" y1="814478" x2="-375311" y2="71389" gradientUnits="userSpaceOnUse">
<stop stop-color="#52BBE8"/>
<stop offset="1" stop-color="#E1EFF8"/>
</linearGradient>
<linearGradient id="paint22_linear_20_13" x1="-1.00379e+06" y1="866317" x2="-296188" y2="123243" gradientUnits="userSpaceOnUse">
<stop stop-color="#52BBE8"/>
<stop offset="1" stop-color="#E1EFF8"/>
</linearGradient>
<linearGradient id="paint23_linear_20_13" x1="-833045" y1="863329" x2="-206736" y2="205618" gradientUnits="userSpaceOnUse">
<stop stop-color="#52BBE8"/>
<stop offset="1" stop-color="#E1EFF8"/>
</linearGradient>
<linearGradient id="paint24_linear_20_13" x1="-1.20173e+06" y1="819302" x2="-388833" y2="-34407.4" gradientUnits="userSpaceOnUse">
<stop stop-color="#52BBE8"/>
<stop offset="1" stop-color="#E1EFF8"/>
</linearGradient>
<linearGradient id="paint25_linear_20_13" x1="-1.1109e+06" y1="866461" x2="-298004" y2="12751.4" gradientUnits="userSpaceOnUse">
<stop stop-color="#52BBE8"/>
<stop offset="1" stop-color="#E1EFF8"/>
</linearGradient>
<linearGradient id="paint26_linear_20_13" x1="-912433" y1="774519" x2="-271612" y2="101504" gradientUnits="userSpaceOnUse">
<stop stop-color="#52BBE8"/>
<stop offset="1" stop-color="#E1EFF8"/>
</linearGradient>
<linearGradient id="paint27_linear_20_13" x1="-1.152e+06" y1="794355" x2="-339128" y2="-59301.1" gradientUnits="userSpaceOnUse">
<stop stop-color="#52BBE8"/>
<stop offset="1" stop-color="#E1EFF8"/>
</linearGradient>
<linearGradient id="paint28_linear_20_13" x1="-1.0164e+06" y1="791763" x2="-269928" y2="7821.2" gradientUnits="userSpaceOnUse">
<stop stop-color="#52BBE8"/>
<stop offset="1" stop-color="#E1EFF8"/>
</linearGradient>
<linearGradient id="paint29_linear_20_13" x1="-955337" y1="698021" x2="-314459" y2="24986.7" gradientUnits="userSpaceOnUse">
<stop stop-color="#52BBE8"/>
<stop offset="1" stop-color="#E1EFF8"/>
</linearGradient>
<linearGradient id="paint30_linear_20_13" x1="-1.0938e+06" y1="672426" x2="-280901" y2="-181283" gradientUnits="userSpaceOnUse">
<stop stop-color="#52BBE8"/>
<stop offset="1" stop-color="#E1EFF8"/>
</linearGradient>
<linearGradient id="paint31_linear_20_13" x1="-1.04751e+06" y1="624331" x2="-268787" y2="-193520" gradientUnits="userSpaceOnUse">
<stop stop-color="#52BBE8"/>
<stop offset="1" stop-color="#E1EFF8"/>
</linearGradient>
<linearGradient id="paint32_linear_20_13" x1="-1.67765e+06" y1="967834" x2="2.32344e+06" y2="-3.23414e+06" gradientUnits="userSpaceOnUse">
<stop stop-color="#52BBE8"/>
<stop offset="1" stop-color="#E1EFF8"/>
</linearGradient>
<linearGradient id="paint33_linear_20_13" x1="-1.007e+06" y1="646471" x2="-208231" y2="-192366" gradientUnits="userSpaceOnUse">
<stop stop-color="#52BBE8"/>
<stop offset="1" stop-color="#E1EFF8"/>
</linearGradient>
<linearGradient id="paint34_linear_20_13" x1="-1.67759e+06" y1="967834" x2="2.32332e+06" y2="-3.23399e+06" gradientUnits="userSpaceOnUse">
<stop stop-color="#52BBE8"/>
<stop offset="1" stop-color="#E1EFF8"/>
</linearGradient>
<linearGradient id="paint35_linear_20_13" x1="-1.23553e+06" y1="764188" x2="-471579" y2="-38141.9" gradientUnits="userSpaceOnUse">
<stop stop-color="#52BBE8"/>
<stop offset="1" stop-color="#E1EFF8"/>
</linearGradient>
<linearGradient id="paint36_linear_20_13" x1="-1.23506e+06" y1="742804" x2="-471112" y2="-59525.3" gradientUnits="userSpaceOnUse">
<stop stop-color="#52BBE8"/>
<stop offset="1" stop-color="#E1EFF8"/>
</linearGradient>
<linearGradient id="paint37_linear_20_13" x1="-1.20278e+06" y1="750400" x2="-438774" y2="-51948.5" gradientUnits="userSpaceOnUse">
<stop stop-color="#52BBE8"/>
<stop offset="1" stop-color="#E1EFF8"/>
</linearGradient>
<linearGradient id="paint38_linear_20_13" x1="-1.19823e+06" y1="798423" x2="-434221" y2="-3925.75" gradientUnits="userSpaceOnUse">
<stop stop-color="#52BBE8"/>
<stop offset="1" stop-color="#E1EFF8"/>
</linearGradient>
<linearGradient id="paint39_linear_20_13" x1="-1.16776e+06" y1="804255" x2="-403750" y2="1906.08" gradientUnits="userSpaceOnUse">
<stop stop-color="#52BBE8"/>
<stop offset="1" stop-color="#E1EFF8"/>
</linearGradient>
<linearGradient id="paint40_linear_20_13" x1="-1.17161e+06" y1="778695" x2="-407661" y2="-23634.3" gradientUnits="userSpaceOnUse">
<stop stop-color="#52BBE8"/>
<stop offset="1" stop-color="#E1EFF8"/>
</linearGradient>
<linearGradient id="paint41_linear_20_13" x1="-1.13343e+06" y1="835610" x2="-369427" y2="33261.3" gradientUnits="userSpaceOnUse">
<stop stop-color="#52BBE8"/>
<stop offset="1" stop-color="#E1EFF8"/>
</linearGradient>
<linearGradient id="paint42_linear_20_13" x1="-1.10337e+06" y1="841046" x2="-339365" y2="38697.1" gradientUnits="userSpaceOnUse">
<stop stop-color="#52BBE8"/>
<stop offset="1" stop-color="#E1EFF8"/>
</linearGradient>
<linearGradient id="paint43_linear_20_13" x1="-1.10571e+06" y1="816926" x2="-341757" y2="14596.7" gradientUnits="userSpaceOnUse">
<stop stop-color="#52BBE8"/>
<stop offset="1" stop-color="#E1EFF8"/>
</linearGradient>
<linearGradient id="paint44_linear_20_13" x1="-1.06829e+06" y1="873157" x2="-304310" y2="70773.6" gradientUnits="userSpaceOnUse">
<stop stop-color="#52BBE8"/>
<stop offset="1" stop-color="#E1EFF8"/>
</linearGradient>
<linearGradient id="paint45_linear_20_13" x1="-1.03665e+06" y1="880033" x2="-272701" y2="77703" gradientUnits="userSpaceOnUse">
<stop stop-color="#52BBE8"/>
<stop offset="1" stop-color="#E1EFF8"/>
</linearGradient>
<linearGradient id="paint46_linear_20_13" x1="-1.03735e+06" y1="857533" x2="-273344" y2="55184.7" gradientUnits="userSpaceOnUse">
<stop stop-color="#52BBE8"/>
<stop offset="1" stop-color="#E1EFF8"/>
</linearGradient>
<linearGradient id="paint47_linear_20_13" x1="-1.00215e+06" y1="911568" x2="-238203" y2="109238" gradientUnits="userSpaceOnUse">
<stop stop-color="#52BBE8"/>
<stop offset="1" stop-color="#E1EFF8"/>
</linearGradient>
<linearGradient id="paint48_linear_20_13" x1="-971390" y1="917724" x2="-207383" y2="115375" gradientUnits="userSpaceOnUse">
<stop stop-color="#52BBE8"/>
<stop offset="1" stop-color="#E1EFF8"/>
</linearGradient>
<linearGradient id="paint49_linear_20_13" x1="-973374" y1="894000" x2="-209367" y2="91651.7" gradientUnits="userSpaceOnUse">
<stop stop-color="#52BBE8"/>
<stop offset="1" stop-color="#E1EFF8"/>
</linearGradient>
<linearGradient id="paint50_linear_20_13" x1="-937708" y1="948467" x2="-173701" y2="146118" gradientUnits="userSpaceOnUse">
<stop stop-color="#52BBE8"/>
<stop offset="1" stop-color="#E1EFF8"/>
</linearGradient>
<linearGradient id="paint51_linear_20_13" x1="-1.20535e+06" y1="726065" x2="-441343" y2="-76283.9" gradientUnits="userSpaceOnUse">
<stop stop-color="#52BBE8"/>
<stop offset="1" stop-color="#E1EFF8"/>
</linearGradient>
<linearGradient id="paint52_linear_20_13" x1="-1.13629e+06" y1="789171" x2="-372373" y2="-13193.2" gradientUnits="userSpaceOnUse">
<stop stop-color="#52BBE8"/>
<stop offset="1" stop-color="#E1EFF8"/>
</linearGradient>
<linearGradient id="paint53_linear_20_13" x1="-1.13962e+06" y1="764152" x2="-375672" y2="-38177.9" gradientUnits="userSpaceOnUse">
<stop stop-color="#52BBE8"/>
<stop offset="1" stop-color="#E1EFF8"/>
</linearGradient>
<linearGradient id="paint54_linear_20_13" x1="-1.10623e+06" y1="772755" x2="-342282" y2="-29574.2" gradientUnits="userSpaceOnUse">
<stop stop-color="#52BBE8"/>
<stop offset="1" stop-color="#E1EFF8"/>
</linearGradient>
<linearGradient id="paint55_linear_20_13" x1="-1.07442e+06" y1="823586" x2="-310497" y2="21221.9" gradientUnits="userSpaceOnUse">
<stop stop-color="#52BBE8"/>
<stop offset="1" stop-color="#E1EFF8"/>
</linearGradient>
<linearGradient id="paint56_linear_20_13" x1="-1.00746e+06" y1="862825" x2="-243457" y2="60476.5" gradientUnits="userSpaceOnUse">
<stop stop-color="#52BBE8"/>
<stop offset="1" stop-color="#E1EFF8"/>
</linearGradient>
<linearGradient id="paint57_linear_20_13" x1="-977052" y1="846805" x2="-213045" y2="44457" gradientUnits="userSpaceOnUse">
<stop stop-color="#52BBE8"/>
<stop offset="1" stop-color="#E1EFF8"/>
</linearGradient>
<linearGradient id="paint58_linear_20_13" x1="-1.00974e+06" y1="838814" x2="-245791" y2="36484.2" gradientUnits="userSpaceOnUse">
<stop stop-color="#52BBE8"/>
<stop offset="1" stop-color="#E1EFF8"/>
</linearGradient>
<linearGradient id="paint59_linear_20_13" x1="-942261" y1="900408" x2="-178254" y2="98059.6" gradientUnits="userSpaceOnUse">
<stop stop-color="#52BBE8"/>
<stop offset="1" stop-color="#E1EFF8"/>
</linearGradient>
<linearGradient id="paint60_linear_20_13" x1="-1.17254e+06" y1="734128" x2="-408537" y2="-68220" gradientUnits="userSpaceOnUse">
<stop stop-color="#52BBE8"/>
<stop offset="1" stop-color="#E1EFF8"/>
</linearGradient>
<linearGradient id="paint61_linear_20_13" x1="-1.0729e+06" y1="803175" x2="-308894" y2="826.11" gradientUnits="userSpaceOnUse">
<stop stop-color="#52BBE8"/>
<stop offset="1" stop-color="#E1EFF8"/>
</linearGradient>
<linearGradient id="paint62_linear_20_13" x1="-1.04109e+06" y1="810266" x2="-277138" y2="7936.9" gradientUnits="userSpaceOnUse">
<stop stop-color="#52BBE8"/>
<stop offset="1" stop-color="#E1EFF8"/>
</linearGradient>
<linearGradient id="paint63_linear_20_13" x1="-945180" y1="832118" x2="-181173" y2="29769.4" gradientUnits="userSpaceOnUse">
<stop stop-color="#52BBE8"/>
<stop offset="1" stop-color="#E1EFF8"/>
</linearGradient>
<linearGradient id="paint64_linear_20_13" x1="-977986" y1="824054" x2="-213979" y2="21705.6" gradientUnits="userSpaceOnUse">
<stop stop-color="#52BBE8"/>
<stop offset="1" stop-color="#E1EFF8"/>
</linearGradient>
<linearGradient id="paint65_linear_20_13" x1="-942728" y1="878125" x2="-178721" y2="75776.1" gradientUnits="userSpaceOnUse">
<stop stop-color="#52BBE8"/>
<stop offset="1" stop-color="#E1EFF8"/>
</linearGradient>
<linearGradient id="paint66_linear_20_13" x1="-1.10956e+06" y1="747808" x2="-345580" y2="-54575.1" gradientUnits="userSpaceOnUse">
<stop stop-color="#52BBE8"/>
<stop offset="1" stop-color="#E1EFF8"/>
</linearGradient>
<linearGradient id="paint67_linear_20_13" x1="-1.07769e+06" y1="754900" x2="-313738" y2="-47429.7" gradientUnits="userSpaceOnUse">
<stop stop-color="#52BBE8"/>
<stop offset="1" stop-color="#E1EFF8"/>
</linearGradient>
<linearGradient id="paint68_linear_20_13" x1="-1.04558e+06" y1="740500" x2="-281575" y2="-61848.2" gradientUnits="userSpaceOnUse">
<stop stop-color="#52BBE8"/>
<stop offset="1" stop-color="#E1EFF8"/>
</linearGradient>
<linearGradient id="paint69_linear_20_13" x1="-1.07833e+06" y1="732473" x2="-314323" y2="-69876" gradientUnits="userSpaceOnUse">
<stop stop-color="#52BBE8"/>
<stop offset="1" stop-color="#E1EFF8"/>
</linearGradient>
<linearGradient id="paint70_linear_20_13" x1="-1.04348e+06" y1="786147" x2="-279531" y2="-16182.5" gradientUnits="userSpaceOnUse">
<stop stop-color="#52BBE8"/>
<stop offset="1" stop-color="#E1EFF8"/>
</linearGradient>
<linearGradient id="paint71_linear_20_13" x1="-1.01459e+06" y1="768652" x2="-250579" y2="-33697" gradientUnits="userSpaceOnUse">
<stop stop-color="#52BBE8"/>
<stop offset="1" stop-color="#E1EFF8"/>
</linearGradient>
<linearGradient id="paint72_linear_20_13" x1="-980379" y1="778083" x2="-216400" y2="-24299.9" gradientUnits="userSpaceOnUse">
<stop stop-color="#52BBE8"/>
<stop offset="1" stop-color="#E1EFF8"/>
</linearGradient>
<linearGradient id="paint73_linear_20_13" x1="-1.01301e+06" y1="792015" x2="-249003" y2="-10333.6" gradientUnits="userSpaceOnUse">
<stop stop-color="#52BBE8"/>
<stop offset="1" stop-color="#E1EFF8"/>
</linearGradient>
<linearGradient id="paint74_linear_20_13" x1="-946231" y1="809223" x2="-182224" y2="6873.98" gradientUnits="userSpaceOnUse">
<stop stop-color="#52BBE8"/>
<stop offset="1" stop-color="#E1EFF8"/>
</linearGradient>
<linearGradient id="paint75_linear_20_13" x1="-1.05002e+06" y1="670734" x2="-286039" y2="-131649" gradientUnits="userSpaceOnUse">
<stop stop-color="#52BBE8"/>
<stop offset="1" stop-color="#E1EFF8"/>
</linearGradient>
<linearGradient id="paint76_linear_20_13" x1="-1.04733e+06" y1="716993" x2="-283326" y2="-85355.6" gradientUnits="userSpaceOnUse">
<stop stop-color="#52BBE8"/>
<stop offset="1" stop-color="#E1EFF8"/>
</linearGradient>
<linearGradient id="paint77_linear_20_13" x1="-1.01803e+06" y1="721709" x2="-254023" y2="-80639.7" gradientUnits="userSpaceOnUse">
<stop stop-color="#52BBE8"/>
<stop offset="1" stop-color="#E1EFF8"/>
</linearGradient>
<linearGradient id="paint78_linear_20_13" x1="-982014" y1="754684" x2="-218007" y2="-47664.6" gradientUnits="userSpaceOnUse">
<stop stop-color="#52BBE8"/>
<stop offset="1" stop-color="#E1EFF8"/>
</linearGradient>
<linearGradient id="paint79_linear_20_13" x1="-951484" y1="760552" x2="-187535" y2="-41777.8" gradientUnits="userSpaceOnUse">
<stop stop-color="#52BBE8"/>
<stop offset="1" stop-color="#E1EFF8"/>
</linearGradient>
<linearGradient id="paint80_linear_20_13" x1="-954520" y1="735784" x2="-190570" y2="-66545.1" gradientUnits="userSpaceOnUse">
<stop stop-color="#52BBE8"/>
<stop offset="1" stop-color="#E1EFF8"/>
</linearGradient>
<linearGradient id="paint81_linear_20_13" x1="-1.05241e+06" y1="646615" x2="-288405" y2="-155734" gradientUnits="userSpaceOnUse">
<stop stop-color="#52BBE8"/>
<stop offset="1" stop-color="#E1EFF8"/>
</linearGradient>
<linearGradient id="paint82_linear_20_13" x1="-986333" y1="706841" x2="-222326" y2="-95507.3" gradientUnits="userSpaceOnUse">
<stop stop-color="#52BBE8"/>
<stop offset="1" stop-color="#E1EFF8"/>
</linearGradient>
<linearGradient id="paint83_linear_20_13" x1="-987851" y1="683550" x2="-223901" y2="-118780" gradientUnits="userSpaceOnUse">
<stop stop-color="#52BBE8"/>
<stop offset="1" stop-color="#E1EFF8"/>
</linearGradient>
<linearGradient id="paint84_linear_20_13" x1="-1.08603e+06" y1="615908" x2="-322028" y2="-186441" gradientUnits="userSpaceOnUse">
<stop stop-color="#52BBE8"/>
<stop offset="1" stop-color="#E1EFF8"/>
</linearGradient>
<linearGradient id="paint85_linear_20_13" x1="-12730.2" y1="13504.6" x2="1407.56" y2="4348.22" gradientUnits="userSpaceOnUse">
<stop stop-color="#52BBE8"/>
<stop offset="1" stop-color="#E1EFF8"/>
</linearGradient>
<linearGradient id="paint86_linear_20_13" x1="-1.31439e+06" y1="756088" x2="-501493" y2="-97621.7" gradientUnits="userSpaceOnUse">
<stop stop-color="#52BBE8"/>
<stop offset="1" stop-color="#E1EFF8"/>
</linearGradient>
<linearGradient id="paint87_linear_20_13" x1="-1.24469e+06" y1="792303" x2="-431796" y2="-61406.7" gradientUnits="userSpaceOnUse">
<stop stop-color="#52BBE8"/>
<stop offset="1" stop-color="#E1EFF8"/>
</linearGradient>
<linearGradient id="paint88_linear_20_13" x1="-1.175e+06" y1="828482" x2="-362098" y2="-25227.6" gradientUnits="userSpaceOnUse">
<stop stop-color="#52BBE8"/>
<stop offset="1" stop-color="#E1EFF8"/>
</linearGradient>
<linearGradient id="paint89_linear_20_13" x1="-1.1053e+06" y1="864661" x2="-292458" y2="10970.4" gradientUnits="userSpaceOnUse">
<stop stop-color="#52BBE8"/>
<stop offset="1" stop-color="#E1EFF8"/>
</linearGradient>
<linearGradient id="paint90_linear_20_13" x1="-959365" y1="832226" x2="-241276" y2="78066.6" gradientUnits="userSpaceOnUse">
<stop stop-color="#52BBE8"/>
<stop offset="1" stop-color="#E1EFF8"/>
</linearGradient>
<linearGradient id="paint91_linear_20_13" x1="-1.27627e+06" y1="736972" x2="-463376" y2="-116737" gradientUnits="userSpaceOnUse">
<stop stop-color="#52BBE8"/>
<stop offset="1" stop-color="#E1EFF8"/>
</linearGradient>
<linearGradient id="paint92_linear_20_13" x1="-1.20658e+06" y1="773151" x2="-393678" y2="-80558.1" gradientUnits="userSpaceOnUse">
<stop stop-color="#52BBE8"/>
<stop offset="1" stop-color="#E1EFF8"/>
</linearGradient>
<linearGradient id="paint93_linear_20_13" x1="-1.13688e+06" y1="809366" x2="-323980" y2="-44343.1" gradientUnits="userSpaceOnUse">
<stop stop-color="#52BBE8"/>
<stop offset="1" stop-color="#E1EFF8"/>
</linearGradient>
<linearGradient id="paint94_linear_20_13" x1="-1.06718e+06" y1="845546" x2="-254283" y2="-8164.04" gradientUnits="userSpaceOnUse">
<stop stop-color="#52BBE8"/>
<stop offset="1" stop-color="#E1EFF8"/>
</linearGradient>
<linearGradient id="paint95_linear_20_13" x1="-900583" y1="732401" x2="-293677" y2="95025.3" gradientUnits="userSpaceOnUse">
<stop stop-color="#52BBE8"/>
<stop offset="1" stop-color="#E1EFF8"/>
</linearGradient>
<linearGradient id="paint96_linear_20_13" x1="-1.16846e+06" y1="754036" x2="-355560" y2="-99673.6" gradientUnits="userSpaceOnUse">
<stop stop-color="#52BBE8"/>
<stop offset="1" stop-color="#E1EFF8"/>
</linearGradient>
<linearGradient id="paint97_linear_20_13" x1="-1.09876e+06" y1="790215" x2="-285862" y2="-63494.6" gradientUnits="userSpaceOnUse">
<stop stop-color="#52BBE8"/>
<stop offset="1" stop-color="#E1EFF8"/>
</linearGradient>
<linearGradient id="paint98_linear_20_13" x1="-974542" y1="766456" x2="-256395" y2="12277.4" gradientUnits="userSpaceOnUse">
<stop stop-color="#52BBE8"/>
<stop offset="1" stop-color="#E1EFF8"/>
</linearGradient>
<linearGradient id="paint99_linear_20_13" x1="-1.13034e+06" y1="734920" x2="-317442" y2="-118789" gradientUnits="userSpaceOnUse">
<stop stop-color="#52BBE8"/>
<stop offset="1" stop-color="#E1EFF8"/>
</linearGradient>
<linearGradient id="paint100_linear_20_13" x1="-1.06064e+06" y1="771099" x2="-247745" y2="-82610.1" gradientUnits="userSpaceOnUse">
<stop stop-color="#52BBE8"/>
<stop offset="1" stop-color="#E1EFF8"/>
</linearGradient>
<linearGradient id="paint101_linear_20_13" x1="-941211" y1="676818" x2="-334363" y2="39461.8" gradientUnits="userSpaceOnUse">
<stop stop-color="#52BBE8"/>
<stop offset="1" stop-color="#E1EFF8"/>
</linearGradient>
<linearGradient id="paint102_linear_20_13" x1="-1.09222e+06" y1="715769" x2="-279325" y2="-137941" gradientUnits="userSpaceOnUse">
<stop stop-color="#52BBE8"/>
<stop offset="1" stop-color="#E1EFF8"/>
</linearGradient>
<linearGradient id="paint103_linear_20_13" x1="-989719" y1="700685" x2="-271572" y2="-53492.8" gradientUnits="userSpaceOnUse">
<stop stop-color="#52BBE8"/>
<stop offset="1" stop-color="#E1EFF8"/>
</linearGradient>
<linearGradient id="paint104_linear_20_13" x1="-981897" y1="621235" x2="-375021" y2="-16086.1" gradientUnits="userSpaceOnUse">
<stop stop-color="#52BBE8"/>
<stop offset="1" stop-color="#E1EFF8"/>
</linearGradient>
<linearGradient id="paint105_linear_20_13" x1="-1.03642e+06" y1="606980" x2="-320105" y2="-145322" gradientUnits="userSpaceOnUse">
<stop stop-color="#52BBE8"/>
<stop offset="1" stop-color="#E1EFF8"/>
</linearGradient>
<linearGradient id="paint106_linear_20_13" x1="-975009" y1="646471" x2="-258697" y2="-105831" gradientUnits="userSpaceOnUse">
<stop stop-color="#52BBE8"/>
<stop offset="1" stop-color="#E1EFF8"/>
</linearGradient>
<linearGradient id="paint107_linear_20_13" x1="-1.08282e+06" y1="814478" x2="-375311" y2="71389" gradientUnits="userSpaceOnUse">
<stop stop-color="#52BBE8"/>
<stop offset="1" stop-color="#E1EFF8"/>
</linearGradient>
<linearGradient id="paint108_linear_20_13" x1="-1.00379e+06" y1="866317" x2="-296188" y2="123243" gradientUnits="userSpaceOnUse">
<stop stop-color="#52BBE8"/>
<stop offset="1" stop-color="#E1EFF8"/>
</linearGradient>
<linearGradient id="paint109_linear_20_13" x1="-833045" y1="863329" x2="-206736" y2="205618" gradientUnits="userSpaceOnUse">
<stop stop-color="#52BBE8"/>
<stop offset="1" stop-color="#E1EFF8"/>
</linearGradient>
<linearGradient id="paint110_linear_20_13" x1="-1.20173e+06" y1="819302" x2="-388833" y2="-34407.4" gradientUnits="userSpaceOnUse">
<stop stop-color="#52BBE8"/>
<stop offset="1" stop-color="#E1EFF8"/>
</linearGradient>
<linearGradient id="paint111_linear_20_13" x1="-1.1109e+06" y1="866461" x2="-298004" y2="12751.4" gradientUnits="userSpaceOnUse">
<stop stop-color="#52BBE8"/>
<stop offset="1" stop-color="#E1EFF8"/>
</linearGradient>
<linearGradient id="paint112_linear_20_13" x1="-912433" y1="774519" x2="-271612" y2="101504" gradientUnits="userSpaceOnUse">
<stop stop-color="#52BBE8"/>
<stop offset="1" stop-color="#E1EFF8"/>
</linearGradient>
<linearGradient id="paint113_linear_20_13" x1="-1.152e+06" y1="794355" x2="-339128" y2="-59301.1" gradientUnits="userSpaceOnUse">
<stop stop-color="#52BBE8"/>
<stop offset="1" stop-color="#E1EFF8"/>
</linearGradient>
<linearGradient id="paint114_linear_20_13" x1="-1.0164e+06" y1="791763" x2="-269928" y2="7821.2" gradientUnits="userSpaceOnUse">
<stop stop-color="#52BBE8"/>
<stop offset="1" stop-color="#E1EFF8"/>
</linearGradient>
<linearGradient id="paint115_linear_20_13" x1="-955337" y1="698021" x2="-314459" y2="24986.7" gradientUnits="userSpaceOnUse">
<stop stop-color="#52BBE8"/>
<stop offset="1" stop-color="#E1EFF8"/>
</linearGradient>
<linearGradient id="paint116_linear_20_13" x1="-1.0938e+06" y1="672426" x2="-280901" y2="-181283" gradientUnits="userSpaceOnUse">
<stop stop-color="#52BBE8"/>
<stop offset="1" stop-color="#E1EFF8"/>
</linearGradient>
<linearGradient id="paint117_linear_20_13" x1="-1.04751e+06" y1="624331" x2="-268787" y2="-193520" gradientUnits="userSpaceOnUse">
<stop stop-color="#52BBE8"/>
<stop offset="1" stop-color="#E1EFF8"/>
</linearGradient>
<linearGradient id="paint118_linear_20_13" x1="-1.67765e+06" y1="967834" x2="2.32344e+06" y2="-3.23414e+06" gradientUnits="userSpaceOnUse">
<stop stop-color="#52BBE8"/>
<stop offset="1" stop-color="#E1EFF8"/>
</linearGradient>
<linearGradient id="paint119_linear_20_13" x1="-1.007e+06" y1="646471" x2="-208231" y2="-192366" gradientUnits="userSpaceOnUse">
<stop stop-color="#52BBE8"/>
<stop offset="1" stop-color="#E1EFF8"/>
</linearGradient>
<linearGradient id="paint120_linear_20_13" x1="-1.67759e+06" y1="967834" x2="2.32332e+06" y2="-3.23399e+06" gradientUnits="userSpaceOnUse">
<stop stop-color="#52BBE8"/>
<stop offset="1" stop-color="#E1EFF8"/>
</linearGradient>
<linearGradient id="paint121_linear_20_13" x1="-1.23553e+06" y1="764188" x2="-471579" y2="-38141.9" gradientUnits="userSpaceOnUse">
<stop stop-color="#52BBE8"/>
<stop offset="1" stop-color="#E1EFF8"/>
</linearGradient>
<linearGradient id="paint122_linear_20_13" x1="-1.23506e+06" y1="742804" x2="-471112" y2="-59525.3" gradientUnits="userSpaceOnUse">
<stop stop-color="#52BBE8"/>
<stop offset="1" stop-color="#E1EFF8"/>
</linearGradient>
<linearGradient id="paint123_linear_20_13" x1="-1.20278e+06" y1="750400" x2="-438774" y2="-51948.5" gradientUnits="userSpaceOnUse">
<stop stop-color="#52BBE8"/>
<stop offset="1" stop-color="#E1EFF8"/>
</linearGradient>
<linearGradient id="paint124_linear_20_13" x1="-1.19823e+06" y1="798423" x2="-434221" y2="-3925.75" gradientUnits="userSpaceOnUse">
<stop stop-color="#52BBE8"/>
<stop offset="1" stop-color="#E1EFF8"/>
</linearGradient>
<linearGradient id="paint125_linear_20_13" x1="-1.16776e+06" y1="804255" x2="-403750" y2="1906.08" gradientUnits="userSpaceOnUse">
<stop stop-color="#52BBE8"/>
<stop offset="1" stop-color="#E1EFF8"/>
</linearGradient>
<linearGradient id="paint126_linear_20_13" x1="-1.17161e+06" y1="778695" x2="-407661" y2="-23634.3" gradientUnits="userSpaceOnUse">
<stop stop-color="#52BBE8"/>
<stop offset="1" stop-color="#E1EFF8"/>
</linearGradient>
<linearGradient id="paint127_linear_20_13" x1="-1.13343e+06" y1="835610" x2="-369427" y2="33261.3" gradientUnits="userSpaceOnUse">
<stop stop-color="#52BBE8"/>
<stop offset="1" stop-color="#E1EFF8"/>
</linearGradient>
<linearGradient id="paint128_linear_20_13" x1="-1.10337e+06" y1="841046" x2="-339365" y2="38697.1" gradientUnits="userSpaceOnUse">
<stop stop-color="#52BBE8"/>
<stop offset="1" stop-color="#E1EFF8"/>
</linearGradient>
<linearGradient id="paint129_linear_20_13" x1="-1.10571e+06" y1="816926" x2="-341757" y2="14596.7" gradientUnits="userSpaceOnUse">
<stop stop-color="#52BBE8"/>
<stop offset="1" stop-color="#E1EFF8"/>
</linearGradient>
<linearGradient id="paint130_linear_20_13" x1="-1.06829e+06" y1="873157" x2="-304310" y2="70773.6" gradientUnits="userSpaceOnUse">
<stop stop-color="#52BBE8"/>
<stop offset="1" stop-color="#E1EFF8"/>
</linearGradient>
<linearGradient id="paint131_linear_20_13" x1="-1.03665e+06" y1="880033" x2="-272701" y2="77703" gradientUnits="userSpaceOnUse">
<stop stop-color="#52BBE8"/>
<stop offset="1" stop-color="#E1EFF8"/>
</linearGradient>
<linearGradient id="paint132_linear_20_13" x1="-1.03735e+06" y1="857533" x2="-273344" y2="55184.7" gradientUnits="userSpaceOnUse">
<stop stop-color="#52BBE8"/>
<stop offset="1" stop-color="#E1EFF8"/>
</linearGradient>
<linearGradient id="paint133_linear_20_13" x1="-1.00215e+06" y1="911568" x2="-238203" y2="109238" gradientUnits="userSpaceOnUse">
<stop stop-color="#52BBE8"/>
<stop offset="1" stop-color="#E1EFF8"/>
</linearGradient>
<linearGradient id="paint134_linear_20_13" x1="-971390" y1="917724" x2="-207383" y2="115375" gradientUnits="userSpaceOnUse">
<stop stop-color="#52BBE8"/>
<stop offset="1" stop-color="#E1EFF8"/>
</linearGradient>
<linearGradient id="paint135_linear_20_13" x1="-973374" y1="894000" x2="-209367" y2="91651.7" gradientUnits="userSpaceOnUse">
<stop stop-color="#52BBE8"/>
<stop offset="1" stop-color="#E1EFF8"/>
</linearGradient>
<linearGradient id="paint136_linear_20_13" x1="-937708" y1="948467" x2="-173701" y2="146118" gradientUnits="userSpaceOnUse">
<stop stop-color="#52BBE8"/>
<stop offset="1" stop-color="#E1EFF8"/>
</linearGradient>
<linearGradient id="paint137_linear_20_13" x1="-1.20535e+06" y1="726065" x2="-441343" y2="-76283.9" gradientUnits="userSpaceOnUse">
<stop stop-color="#52BBE8"/>
<stop offset="1" stop-color="#E1EFF8"/>
</linearGradient>
<linearGradient id="paint138_linear_20_13" x1="-1.13629e+06" y1="789171" x2="-372373" y2="-13193.2" gradientUnits="userSpaceOnUse">
<stop stop-color="#52BBE8"/>
<stop offset="1" stop-color="#E1EFF8"/>
</linearGradient>
<linearGradient id="paint139_linear_20_13" x1="-1.13962e+06" y1="764152" x2="-375672" y2="-38177.9" gradientUnits="userSpaceOnUse">
<stop stop-color="#52BBE8"/>
<stop offset="1" stop-color="#E1EFF8"/>
</linearGradient>
<linearGradient id="paint140_linear_20_13" x1="-1.10623e+06" y1="772755" x2="-342282" y2="-29574.2" gradientUnits="userSpaceOnUse">
<stop stop-color="#52BBE8"/>
<stop offset="1" stop-color="#E1EFF8"/>
</linearGradient>
<linearGradient id="paint141_linear_20_13" x1="-1.07442e+06" y1="823586" x2="-310497" y2="21221.9" gradientUnits="userSpaceOnUse">
<stop stop-color="#52BBE8"/>
<stop offset="1" stop-color="#E1EFF8"/>
</linearGradient>
<linearGradient id="paint142_linear_20_13" x1="-1.00746e+06" y1="862825" x2="-243457" y2="60476.5" gradientUnits="userSpaceOnUse">
<stop stop-color="#52BBE8"/>
<stop offset="1" stop-color="#E1EFF8"/>
</linearGradient>
<linearGradient id="paint143_linear_20_13" x1="-977052" y1="846805" x2="-213045" y2="44457" gradientUnits="userSpaceOnUse">
<stop stop-color="#52BBE8"/>
<stop offset="1" stop-color="#E1EFF8"/>
</linearGradient>
<linearGradient id="paint144_linear_20_13" x1="-1.00974e+06" y1="838814" x2="-245791" y2="36484.2" gradientUnits="userSpaceOnUse">
<stop stop-color="#52BBE8"/>
<stop offset="1" stop-color="#E1EFF8"/>
</linearGradient>
<linearGradient id="paint145_linear_20_13" x1="-942261" y1="900408" x2="-178254" y2="98059.6" gradientUnits="userSpaceOnUse">
<stop stop-color="#52BBE8"/>
<stop offset="1" stop-color="#E1EFF8"/>
</linearGradient>
<linearGradient id="paint146_linear_20_13" x1="-1.17254e+06" y1="734128" x2="-408537" y2="-68220" gradientUnits="userSpaceOnUse">
<stop stop-color="#52BBE8"/>
<stop offset="1" stop-color="#E1EFF8"/>
</linearGradient>
<linearGradient id="paint147_linear_20_13" x1="-1.0729e+06" y1="803175" x2="-308894" y2="826.11" gradientUnits="userSpaceOnUse">
<stop stop-color="#52BBE8"/>
<stop offset="1" stop-color="#E1EFF8"/>
</linearGradient>
<linearGradient id="paint148_linear_20_13" x1="-1.04109e+06" y1="810266" x2="-277138" y2="7936.9" gradientUnits="userSpaceOnUse">
<stop stop-color="#52BBE8"/>
<stop offset="1" stop-color="#E1EFF8"/>
</linearGradient>
<linearGradient id="paint149_linear_20_13" x1="-945180" y1="832118" x2="-181173" y2="29769.4" gradientUnits="userSpaceOnUse">
<stop stop-color="#52BBE8"/>
<stop offset="1" stop-color="#E1EFF8"/>
</linearGradient>
<linearGradient id="paint150_linear_20_13" x1="-977986" y1="824054" x2="-213979" y2="21705.6" gradientUnits="userSpaceOnUse">
<stop stop-color="#52BBE8"/>
<stop offset="1" stop-color="#E1EFF8"/>
</linearGradient>
<linearGradient id="paint151_linear_20_13" x1="-942728" y1="878125" x2="-178721" y2="75776.1" gradientUnits="userSpaceOnUse">
<stop stop-color="#52BBE8"/>
<stop offset="1" stop-color="#E1EFF8"/>
</linearGradient>
<linearGradient id="paint152_linear_20_13" x1="-1.10956e+06" y1="747808" x2="-345580" y2="-54575.1" gradientUnits="userSpaceOnUse">
<stop stop-color="#52BBE8"/>
<stop offset="1" stop-color="#E1EFF8"/>
</linearGradient>
<linearGradient id="paint153_linear_20_13" x1="-1.07769e+06" y1="754900" x2="-313738" y2="-47429.7" gradientUnits="userSpaceOnUse">
<stop stop-color="#52BBE8"/>
<stop offset="1" stop-color="#E1EFF8"/>
</linearGradient>
<linearGradient id="paint154_linear_20_13" x1="-1.04558e+06" y1="740500" x2="-281575" y2="-61848.2" gradientUnits="userSpaceOnUse">
<stop stop-color="#52BBE8"/>
<stop offset="1" stop-color="#E1EFF8"/>
</linearGradient>
<linearGradient id="paint155_linear_20_13" x1="-1.07833e+06" y1="732473" x2="-314323" y2="-69876" gradientUnits="userSpaceOnUse">
<stop stop-color="#52BBE8"/>
<stop offset="1" stop-color="#E1EFF8"/>
</linearGradient>
<linearGradient id="paint156_linear_20_13" x1="-1.04348e+06" y1="786147" x2="-279531" y2="-16182.5" gradientUnits="userSpaceOnUse">
<stop stop-color="#52BBE8"/>
<stop offset="1" stop-color="#E1EFF8"/>
</linearGradient>
<linearGradient id="paint157_linear_20_13" x1="-1.01459e+06" y1="768652" x2="-250579" y2="-33697" gradientUnits="userSpaceOnUse">
<stop stop-color="#52BBE8"/>
<stop offset="1" stop-color="#E1EFF8"/>
</linearGradient>
<linearGradient id="paint158_linear_20_13" x1="-980379" y1="778083" x2="-216400" y2="-24299.9" gradientUnits="userSpaceOnUse">
<stop stop-color="#52BBE8"/>
<stop offset="1" stop-color="#E1EFF8"/>
</linearGradient>
<linearGradient id="paint159_linear_20_13" x1="-1.01301e+06" y1="792015" x2="-249003" y2="-10333.6" gradientUnits="userSpaceOnUse">
<stop stop-color="#52BBE8"/>
<stop offset="1" stop-color="#E1EFF8"/>
</linearGradient>
<linearGradient id="paint160_linear_20_13" x1="-946231" y1="809223" x2="-182224" y2="6873.98" gradientUnits="userSpaceOnUse">
<stop stop-color="#52BBE8"/>
<stop offset="1" stop-color="#E1EFF8"/>
</linearGradient>
<linearGradient id="paint161_linear_20_13" x1="-1.05002e+06" y1="670734" x2="-286039" y2="-131649" gradientUnits="userSpaceOnUse">
<stop stop-color="#52BBE8"/>
<stop offset="1" stop-color="#E1EFF8"/>
</linearGradient>
<linearGradient id="paint162_linear_20_13" x1="-1.04733e+06" y1="716993" x2="-283326" y2="-85355.6" gradientUnits="userSpaceOnUse">
<stop stop-color="#52BBE8"/>
<stop offset="1" stop-color="#E1EFF8"/>
</linearGradient>
<linearGradient id="paint163_linear_20_13" x1="-1.01803e+06" y1="721709" x2="-254023" y2="-80639.7" gradientUnits="userSpaceOnUse">
<stop stop-color="#52BBE8"/>
<stop offset="1" stop-color="#E1EFF8"/>
</linearGradient>
<linearGradient id="paint164_linear_20_13" x1="-982014" y1="754684" x2="-218007" y2="-47664.6" gradientUnits="userSpaceOnUse">
<stop stop-color="#52BBE8"/>
<stop offset="1" stop-color="#E1EFF8"/>
</linearGradient>
<linearGradient id="paint165_linear_20_13" x1="-951484" y1="760552" x2="-187535" y2="-41777.8" gradientUnits="userSpaceOnUse">
<stop stop-color="#52BBE8"/>
<stop offset="1" stop-color="#E1EFF8"/>
</linearGradient>
<linearGradient id="paint166_linear_20_13" x1="-954520" y1="735784" x2="-190570" y2="-66545.1" gradientUnits="userSpaceOnUse">
<stop stop-color="#52BBE8"/>
<stop offset="1" stop-color="#E1EFF8"/>
</linearGradient>
<linearGradient id="paint167_linear_20_13" x1="-1.05241e+06" y1="646615" x2="-288405" y2="-155734" gradientUnits="userSpaceOnUse">
<stop stop-color="#52BBE8"/>
<stop offset="1" stop-color="#E1EFF8"/>
</linearGradient>
<linearGradient id="paint168_linear_20_13" x1="-986333" y1="706841" x2="-222326" y2="-95507.3" gradientUnits="userSpaceOnUse">
<stop stop-color="#52BBE8"/>
<stop offset="1" stop-color="#E1EFF8"/>
</linearGradient>
<linearGradient id="paint169_linear_20_13" x1="-987851" y1="683550" x2="-223901" y2="-118780" gradientUnits="userSpaceOnUse">
<stop stop-color="#52BBE8"/>
<stop offset="1" stop-color="#E1EFF8"/>
</linearGradient>
<linearGradient id="paint170_linear_20_13" x1="-1.08603e+06" y1="615908" x2="-322028" y2="-186441" gradientUnits="userSpaceOnUse">
<stop stop-color="#52BBE8"/>
<stop offset="1" stop-color="#E1EFF8"/>
</linearGradient>
<linearGradient id="paint171_linear_20_13" x1="-12730.2" y1="13504.6" x2="1407.56" y2="4348.22" gradientUnits="userSpaceOnUse">
<stop stop-color="#52BBE8"/>
<stop offset="1" stop-color="#E1EFF8"/>
</linearGradient>
</defs>
</svg>
