<svg width="58" height="58" viewBox="0 0 58 58" fill="none" xmlns="http://www.w3.org/2000/svg">
<path d="M57.4075 43.4044C56.4567 40.6109 54.471 38.3532 51.8161 37.0474L38.4269 30.4625C38.3255 30.4126 38.2152 30.3831 38.1023 30.3758C37.9895 30.3684 37.8763 30.3833 37.7692 30.4195C37.662 30.4557 37.5631 30.5125 37.478 30.5867C37.3928 30.661 37.3232 30.7512 37.2732 30.8523L28.9966 47.56L26.5629 42.6469C28.5987 40.4542 29.8924 37.8129 30.3156 34.9721C30.4455 34.0996 30.4942 33.217 30.4609 32.3356C32.1271 32.1895 34 31.2378 35.5095 29.7337C37.2414 28.0074 38.2474 25.8038 38.1341 23.9829C38.121 23.774 38.0318 23.5771 37.8833 23.4292C37.7348 23.2812 37.5372 23.1923 37.3276 23.1793C35.501 23.0669 33.2889 24.0688 31.5564 25.7949C30.805 26.5437 30.1904 27.3822 29.7445 28.2402C29.3163 26.8623 28.6999 25.4746 27.8961 24.0828C25.7133 20.3057 25.271 16.5677 26.7121 14.0836C27.3227 13.0313 28.2399 12.2804 29.3812 11.8715C28.8802 13.0362 28.9162 14.4137 29.5993 15.5934C30.3721 16.9263 31.7785 17.6723 33.2223 17.6723C33.6646 17.6723 34.1105 17.602 34.5431 17.4572C34.9291 19.3569 36.6166 20.7911 38.6351 20.7911C40.6526 20.7911 42.3407 19.3569 42.7266 17.4581C43.1521 17.6017 43.5983 17.6749 44.0475 17.6749C44.4103 17.6749 44.7753 17.6271 45.135 17.5311C46.2125 17.2436 47.1127 16.555 47.6696 15.5934C48.6786 13.8523 48.2762 11.6786 46.8182 10.3958C48.2762 9.11348 48.679 6.93938 47.6696 5.19814C47.1127 4.2357 46.2125 3.54763 45.135 3.25989C44.3299 3.04534 43.4986 3.07366 42.7266 3.33341C42.3412 1.43414 40.6531 0 38.6351 0C36.617 0 34.9291 1.43414 34.5431 3.33341C33.7712 3.07321 32.9395 3.04489 32.1343 3.25989C31.0573 3.54718 30.1571 4.2357 29.5993 5.19768C28.7031 6.74511 28.9211 8.63373 30.0043 9.93556C27.9374 10.317 26.2392 11.4684 25.2204 13.2242C24.9517 13.6871 24.7354 14.1822 24.5693 14.704C23.833 13.1176 22.7303 11.5468 21.338 10.16C18.5298 7.36147 14.9713 5.73668 12.0499 5.91589C11.8403 5.92897 11.6427 6.01783 11.4942 6.16577C11.3458 6.31372 11.2566 6.51057 11.2435 6.71939C11.1688 7.91904 11.405 9.27094 11.9264 10.6285C11.9668 10.7338 12.0277 10.8301 12.1054 10.9119C12.1832 10.9938 12.2764 11.0596 12.3797 11.1055C12.483 11.1515 12.5943 11.1767 12.7074 11.1798C12.8205 11.1829 12.9331 11.1638 13.0387 11.1235C13.1444 11.0832 13.241 11.0226 13.3232 10.9451C13.4053 10.8676 13.4713 10.7748 13.5175 10.6719C13.5636 10.5689 13.5889 10.458 13.592 10.3453C13.5951 10.2326 13.5759 10.1205 13.5355 10.0152C13.2196 9.19221 13.0288 8.38327 12.971 7.63538C15.2542 7.80191 17.9183 9.1802 20.1198 11.3737C22.322 13.568 23.7055 16.2231 23.8716 18.4985C21.5885 18.333 18.9233 16.9546 16.721 14.7602C16.0349 14.0766 15.4207 13.3407 14.8958 12.5724C14.7672 12.3843 14.5688 12.2548 14.3443 12.2124C14.1199 12.17 13.8877 12.2182 13.6989 12.3463C13.6053 12.4097 13.5252 12.4909 13.4631 12.5851C13.4011 12.6794 13.3583 12.785 13.3372 12.8957C13.3161 13.0065 13.3172 13.1203 13.3403 13.2307C13.3634 13.3411 13.4081 13.4458 13.4719 13.5389C14.0573 14.3956 14.7407 15.2147 15.5028 15.974C18.1692 18.6313 21.5134 20.2318 24.3446 20.2318C24.3947 20.2318 24.4445 20.2304 24.4938 20.2291C24.849 21.7611 25.4873 23.3545 26.403 24.9395C28.3371 28.2862 29.0801 31.5767 28.6116 34.7193C28.2709 37.0054 27.2828 39.1475 25.7378 40.9813L20.7202 30.8524C20.6702 30.7513 20.6006 30.661 20.5155 30.5867C20.4305 30.5124 20.3315 30.4555 20.2244 30.4193C20.1173 30.3831 20.004 30.3683 19.8911 30.3757C19.7782 30.3831 19.6679 30.4126 19.5665 30.4625L6.17702 37.0475C0.696746 39.7426 -1.56106 46.3779 1.14355 51.8386C2.45408 54.4837 4.71995 56.4623 7.52359 57.4098C8.69154 57.804 9.89417 58 11.0924 58C12.7707 58 14.4397 57.6154 15.9883 56.8539L28.9966 50.4562L42.005 56.8539C43.5303 57.6048 45.2088 57.9955 46.9101 57.9956C48.8088 57.9956 50.7051 57.5088 52.4087 56.5411C52.6039 56.4267 52.746 56.2403 52.8043 56.0223C52.8626 55.8043 52.8324 55.5722 52.7203 55.3762C52.6082 55.1802 52.4231 55.036 52.2051 54.975C51.9871 54.9139 51.7538 54.9408 51.5555 55.0498C48.8456 56.5889 45.5606 56.688 42.7675 55.3144L30.1504 49.1092L38.4366 32.3821L51.054 38.5869C53.296 39.6896 54.973 41.5963 55.7759 43.9557C56.5788 46.3153 56.4114 48.845 55.3046 51.0789C54.8878 51.9226 54.3451 52.6987 53.6952 53.3807C53.5434 53.5467 53.4629 53.7654 53.471 53.9898C53.4791 54.2142 53.5751 54.4266 53.7385 54.5813C53.9018 54.736 54.1195 54.8208 54.3449 54.8175C54.5702 54.8141 54.7853 54.723 54.944 54.5635C55.7135 53.7561 56.356 52.8374 56.8497 51.8385C58.1599 49.1933 58.3579 46.1979 57.4075 43.4044ZM32.7746 27.0087C33.8635 25.9233 35.1875 25.1763 36.3519 24.9551C36.1299 26.1153 35.3802 27.4345 34.2912 28.5199C33.2023 29.6049 31.8785 30.3519 30.7139 30.5731C30.9356 29.4129 31.6857 28.0938 32.7746 27.0087ZM31.0915 14.7345C30.4155 13.5685 30.8183 12.0716 31.989 11.398C32.0281 11.3755 32.0707 11.3525 32.1152 11.3299C33.2809 11.7649 34.8824 12.1056 36.2738 12.1056C36.6965 12.1056 37.0998 12.0742 37.4648 12.0048C37.5444 11.9897 37.6207 11.9719 37.6962 11.9538C37.1554 13.1504 35.8501 14.6071 34.8437 15.3589C34.6963 15.4696 34.5604 15.5602 34.441 15.6293C33.2703 16.3019 31.7674 15.901 31.0915 14.7345ZM38.6351 19.0742C37.2828 19.0742 36.1827 17.9781 36.1827 16.6312C36.1827 16.5864 36.1846 16.5386 36.1867 16.4896C37.4396 15.4615 38.9233 13.7145 39.4486 12.2109C39.4754 12.1348 39.4984 12.06 39.5203 11.9857C40.2894 13.0512 40.9035 14.905 41.0537 16.1488C41.0759 16.3306 41.087 16.4931 41.087 16.631C41.087 17.9781 39.987 19.0742 38.6351 19.0742ZM46.1774 14.7349C45.8505 15.3 45.3221 15.7041 44.6891 15.8731C44.3782 15.957 44.0536 15.9787 43.7342 15.9369C43.4148 15.895 43.1069 15.7905 42.8284 15.6293C42.7876 15.6055 42.7473 15.5808 42.7076 15.5553C42.4402 13.9596 41.663 11.8047 40.6189 10.6006C40.5672 10.5413 40.5139 10.4833 40.459 10.4267C41.7697 10.2949 43.6877 10.6923 44.8424 11.1835C45.0134 11.2569 45.1613 11.329 45.2807 11.3976C46.4514 12.0711 46.8537 13.568 46.1774 14.7349ZM44.6891 4.91799C45.0005 5.00017 45.2924 5.14307 45.5479 5.33844C45.8035 5.5338 46.0176 5.77774 46.1778 6.05613C46.8537 7.22259 46.4514 8.7196 45.2811 9.39305C45.2394 9.41663 45.1972 9.43937 45.1546 9.46125C43.6344 8.89394 41.3748 8.48681 39.8054 8.78643C39.7258 8.80139 39.649 8.81872 39.5735 8.8373C40.1149 7.63991 41.4196 6.18312 42.4255 5.43218C42.5739 5.32161 42.7093 5.23088 42.8284 5.16223C43.3959 4.83575 44.0562 4.74943 44.6891 4.91799ZM38.6351 1.71644C39.9869 1.71644 41.087 2.81255 41.087 4.15957C41.087 4.20421 41.0852 4.25201 41.083 4.30163C39.8311 5.32864 38.3469 7.07521 37.8215 8.57924C37.7955 8.65396 37.7715 8.72935 37.7495 8.80535C36.9804 7.73983 36.3666 5.88666 36.216 4.64363C36.1942 4.46181 36.1831 4.29891 36.1831 4.15957C36.1831 2.81266 37.2828 1.71644 38.6351 1.71644ZM31.0915 6.05613C31.2519 5.77784 31.466 5.53397 31.7215 5.33862C31.977 5.14326 32.2688 5.0003 32.5801 4.91799C32.8911 4.83418 33.2157 4.81265 33.5351 4.85465C33.8545 4.89665 34.1624 5.00134 34.441 5.16268C34.4796 5.18488 34.5204 5.21003 34.5622 5.23665C34.8296 6.83143 35.6063 8.98547 36.6503 10.19C36.7032 10.2512 36.7565 10.3086 36.8102 10.3639C35.4997 10.4953 33.5816 10.0985 32.4256 9.60636L32.4091 9.59968C32.2471 9.52979 32.1059 9.46034 31.9896 9.39351C30.8183 8.71948 30.4156 7.22259 31.0915 6.05613ZM15.2257 55.3144C12.9839 56.4171 10.445 56.584 8.07692 55.7839C5.70884 54.9838 3.7953 53.313 2.68851 51.0787C0.404104 46.4671 2.31105 40.863 6.93955 38.5869L19.5567 32.382L27.8432 49.1091L15.2257 55.3144Z" fill="#332807"/>
</svg>
