<svg width="62" height="63" viewBox="0 0 62 63" fill="none" xmlns="http://www.w3.org/2000/svg">
<path d="M33.1669 20.1706C33.3409 20.3199 33.5361 20.4426 33.7461 20.5348V24.036C33.7461 24.5459 34.1589 24.9588 34.6689 24.9588C34.9137 24.9588 35.1484 24.8616 35.3215 24.6885C35.4946 24.5155 35.5918 24.2807 35.5918 24.036V20.5349C35.8017 20.4428 35.9967 20.32 36.1705 20.1706C39.0126 17.7279 40.642 14.1797 40.642 10.4363C40.642 9.40583 40.5195 8.38023 40.2777 7.38761C40.1571 6.89259 39.6575 6.59027 39.1625 6.70938C38.6675 6.83058 38.3637 7.32953 38.4844 7.82455C38.6922 8.67958 38.7971 9.55641 38.7968 10.4363C38.7973 13.3435 37.6447 16.1323 35.5918 18.1908V8.5397C35.5918 8.29494 35.4946 8.06021 35.3215 7.88714C35.1484 7.71408 34.9137 7.61685 34.6689 7.61685C34.5477 7.6168 34.4277 7.64064 34.3157 7.687C34.2037 7.73336 34.102 7.80133 34.0163 7.88704C33.9306 7.97274 33.8626 8.0745 33.8162 8.18648C33.7699 8.29847 33.746 8.41849 33.7461 8.5397V18.1908C31.6932 16.1323 30.5406 13.3435 30.5411 10.4363C30.5411 7.08086 32.0456 3.95387 34.6689 1.85382C35.538 2.54939 36.2971 3.37226 36.9203 4.29458C36.9882 4.39502 37.0751 4.4811 37.1763 4.54792C37.2774 4.61474 37.3907 4.66099 37.5097 4.68403C37.6287 4.70706 37.751 4.70643 37.8698 4.68217C37.9885 4.65792 38.1013 4.6105 38.2017 4.54264C38.3022 4.47481 38.3883 4.38785 38.4551 4.28673C38.522 4.18561 38.5682 4.07231 38.5912 3.95331C38.6143 3.83431 38.6136 3.71194 38.5893 3.59319C38.565 3.47444 38.5176 3.36164 38.4497 3.26123C37.7187 2.1795 36.8277 1.21505 35.8071 0.400887C35.1365 -0.133629 34.2008 -0.133629 33.5308 0.400887C30.4574 2.85321 28.6954 6.5109 28.6954 10.4363C28.6954 14.1797 30.3253 17.7279 33.1669 20.1706ZM41.673 29.066C41.909 29.066 42.145 28.9762 42.3252 28.7963L44.8025 26.32C45.016 26.4031 45.2407 26.4543 45.4691 26.4719C45.7931 26.4959 46.1166 26.5085 46.4388 26.5085C48.1246 26.509 49.7941 26.1773 51.3517 25.5324C52.9094 24.8874 54.3247 23.9419 55.5168 22.7498C58.2935 19.9735 59.6344 16.1413 59.1961 12.2359C59.1005 11.3838 58.4386 10.7214 57.5859 10.6262C53.6792 10.1879 49.8456 11.5284 47.0688 14.3042C44.4208 16.9512 43.0639 20.6123 43.3452 24.3484C43.3629 24.5768 43.4139 24.8014 43.4966 25.0151L41.0203 27.4909C40.8472 27.6639 40.7499 27.8985 40.7498 28.1432C40.7497 28.3879 40.8468 28.6227 41.0198 28.7958C41.1055 28.8816 41.2074 28.9497 41.3195 28.996C41.4316 29.0424 41.5517 29.0662 41.673 29.066ZM48.3738 15.6096C50.455 13.5289 53.2292 12.3902 56.1334 12.3902C56.5415 12.3902 56.9525 12.4128 57.3638 12.4585C57.734 15.7971 56.5852 19.0713 54.2117 21.4442C52.1464 23.5087 49.36 24.655 46.4613 24.6618L53.2869 17.8385C53.46 17.6654 53.5573 17.4307 53.5574 17.1859C53.5575 16.9412 53.4603 16.7064 53.2872 16.5333C53.1142 16.3601 52.8795 16.2628 52.6347 16.2628C52.3899 16.2627 52.1551 16.3599 51.982 16.5329L45.1554 23.3577C45.1601 20.4508 46.3175 17.6644 48.3738 15.6096ZM13.9754 22.7498C15.1675 23.9419 16.5828 24.8874 18.1404 25.5324C19.6981 26.1773 21.3676 26.509 23.0534 26.5085C23.3756 26.5085 23.6994 26.4959 24.0231 26.4719C24.2516 26.4542 24.4764 26.403 24.6901 26.32L27.167 28.7963C27.2527 28.8819 27.3543 28.9498 27.4662 28.9961C27.5781 29.0424 27.6981 29.0661 27.8192 29.066C28.0557 29.066 28.2917 28.9762 28.4719 28.7958C28.5576 28.7101 28.6256 28.6084 28.672 28.4965C28.7184 28.3845 28.7423 28.2645 28.7423 28.1433C28.7423 28.0222 28.7184 27.9022 28.672 27.7902C28.6256 27.6783 28.5576 27.5766 28.4719 27.4909L25.995 25.0151C26.0758 24.8059 26.1291 24.5829 26.1465 24.3484C26.4283 20.6118 25.0708 16.9512 22.4228 14.3042C19.6462 11.5284 15.813 10.1879 11.9058 10.6257C11.0535 10.7214 10.3912 11.3833 10.2961 12.2354C9.85765 16.1413 11.1987 19.9735 13.9754 22.7498ZM12.1282 12.4585C15.4698 12.0889 18.7445 13.2366 21.1184 15.6097C23.1749 17.6642 24.3325 20.4504 24.3373 23.3573L17.5102 16.5331C17.4245 16.4473 17.3228 16.3793 17.2108 16.3329C17.0989 16.2865 16.9789 16.2627 16.8577 16.2627C16.7365 16.2627 16.6165 16.2865 16.5045 16.3329C16.3925 16.3793 16.2908 16.4473 16.2052 16.5331C16.0321 16.7062 15.9348 16.941 15.9348 17.1858C15.9348 17.4306 16.0321 17.6654 16.2052 17.8385L23.0314 24.6618C20.1312 24.655 17.3458 23.5087 15.2809 21.4442C12.907 19.0719 11.7586 15.7971 12.1282 12.4585ZM60.5727 32.2407C59.6473 31.2769 58.3507 30.7248 57.0159 30.7248C55.8436 30.7249 54.7097 31.1431 53.8181 31.9042C53.8095 31.912 53.8009 31.9191 53.7922 31.9273L42.1411 42.6546C42.0607 42.7195 41.9605 42.7549 41.8571 42.755H33.1039C32.5945 42.755 32.1801 42.3402 32.1801 41.8306C32.1798 41.7096 32.2034 41.5897 32.2495 41.4778C32.2956 41.3659 32.3633 41.2642 32.4488 41.1785C32.5348 41.0924 32.6369 41.0241 32.7493 40.9776C32.8617 40.931 32.9822 40.9071 33.1039 40.9073H39.3568C41.4846 40.9073 43.2159 39.1775 43.2159 37.0505C43.2159 36.0206 42.815 35.052 42.0854 34.321C41.3557 33.5938 40.3868 33.1929 39.3568 33.1929H23.8336C20.396 33.1929 17.1424 34.5079 14.6715 36.8962L9.25288 42.1349L9.23036 42.1123C8.49737 41.3798 7.30529 41.3798 6.5723 42.1123L0.550881 48.132C0.195645 48.4867 0 48.9587 0 49.4609C0 49.9631 0.195645 50.4353 0.550881 50.7901L12.2152 62.4506C12.3897 62.6251 12.5969 62.7635 12.825 62.8578C13.053 62.9521 13.2975 63.0004 13.5443 63C14.0259 63 14.5075 62.8169 14.8738 62.4506L20.8953 56.4309C21.0705 56.2569 21.2094 56.0498 21.304 55.8217C21.3986 55.5936 21.4469 55.3489 21.4462 55.102C21.4462 54.7458 21.3462 54.4059 21.1621 54.1108C22.3143 53.0741 23.7909 52.5059 25.3501 52.5059H43.1784C43.8985 52.5061 44.6103 52.3521 45.266 52.0544C45.9217 51.7566 46.5061 51.3221 46.9799 50.7798L60.6424 35.1448C61.3802 34.2993 61.3504 33.051 60.5727 32.2407ZM59.2524 33.9307L45.5903 49.5653C45.2896 49.9091 44.9188 50.1847 44.5028 50.3735C44.0868 50.5623 43.6352 50.6599 43.1784 50.6598H25.3501C23.3149 50.6598 21.39 51.4086 19.8937 52.7712L14.1888 47.0683C14.1031 46.9826 14.0013 46.9146 13.8893 46.8683C13.7773 46.8219 13.6573 46.7981 13.5361 46.7981C13.4149 46.7981 13.2949 46.822 13.1829 46.8684C13.071 46.9148 12.9692 46.9828 12.8836 47.0686C12.7979 47.1543 12.7299 47.2561 12.6836 47.368C12.6372 47.48 12.6134 47.6 12.6134 47.7212C12.6134 47.8424 12.6373 47.9624 12.6837 48.0744C12.7301 48.1864 12.7981 48.2881 12.8839 48.3738L19.217 54.7044L19.2223 54.7106C19.2251 54.7135 19.2284 54.716 19.2314 54.7188L19.5904 55.0784C19.5937 55.0813 19.6005 55.088 19.6005 55.1019C19.6005 55.1158 19.5937 55.1225 19.5904 55.126L13.5692 61.1452C13.5558 61.1587 13.5337 61.1587 13.5203 61.1452L1.85542 49.4845C1.85247 49.4817 1.8457 49.4749 1.8457 49.461C1.8457 49.4471 1.85247 49.4404 1.85579 49.4374L7.87697 43.4177C7.89038 43.4043 7.91253 43.4043 7.92594 43.4177L10.072 45.5629C10.1577 45.6486 10.2594 45.7166 10.3714 45.763C10.4833 45.8094 10.6033 45.8333 10.7245 45.8333C10.8457 45.8333 10.9657 45.8094 11.0777 45.763C11.1896 45.7166 11.2914 45.6486 11.377 45.5629C11.55 45.3898 11.6472 45.1552 11.6472 44.9104C11.6472 44.6657 11.55 44.4311 11.377 44.258L10.5585 43.4399L15.9538 38.2234C18.0793 36.1695 20.8771 35.0386 23.8331 35.0386H39.3567C39.621 35.0379 39.8828 35.0895 40.1272 35.1904C40.3715 35.2912 40.5935 35.4394 40.7803 35.6264C40.9678 35.8131 41.1164 36.035 41.2177 36.2795C41.3189 36.5239 41.3708 36.786 41.3702 37.0505C41.3702 38.1594 40.467 39.0616 39.3568 39.0616H33.1035C32.3653 39.0616 31.67 39.349 31.1438 39.8735C30.6218 40.3969 30.3339 41.0919 30.3339 41.8306C30.3339 43.3577 31.5764 44.6007 33.1034 44.6007H41.857C42.4035 44.6007 42.9336 44.4045 43.3495 44.0494C43.3582 44.042 43.3668 44.0344 43.375 44.0268L55.0288 33.2971C55.5846 32.8279 56.2886 32.5705 57.016 32.5704C57.8633 32.5704 58.654 32.9073 59.2413 33.5187C59.3519 33.6336 59.3567 33.8109 59.2524 33.9307Z" fill="#332807"/>
</svg>
