<svg width="72" height="59" viewBox="0 0 72 59" fill="none" xmlns="http://www.w3.org/2000/svg">
<path d="M47.6521 41.8163L47.6122 41.8571C47.0687 42.4119 47.0778 43.3022 47.6326 43.8458C47.8951 44.1038 48.2486 44.2481 48.6167 44.2476C48.8038 44.2478 48.9891 44.2106 49.1616 44.1381C49.3342 44.0656 49.4905 43.9594 49.6213 43.8256L49.6612 43.7848C50.2048 43.23 50.1956 42.3397 49.6409 41.7961C49.0861 41.2525 48.1958 41.2617 47.6521 41.8163ZM64.7683 27.0531H61.0313V23.3161C61.0313 22.5394 60.4018 21.9099 59.6251 21.9099C58.8484 21.9099 58.2188 22.5394 58.2188 23.3161V27.0531H54.4819C53.7052 27.0531 53.0756 27.6826 53.0756 28.4593C53.0756 29.236 53.7052 29.8656 54.4819 29.8656H58.2188V33.6025C58.2188 34.3792 58.8484 35.0088 59.6251 35.0088C60.4018 35.0088 61.0313 34.3792 61.0313 33.6025V29.8656H64.7683C65.545 29.8656 66.1746 29.236 66.1746 28.4593C66.1746 27.6826 65.545 27.0531 64.7683 27.0531Z" fill="#332807"/>
<path d="M64.2226 16.9703C62.9092 7.263 54.794 0 45.1616 0C40.2992 0 35.7507 1.81252 32.2031 5.13478C28.6554 1.81252 24.1069 0 19.2447 0C8.63311 0 0 8.8387 0 19.703C0 21.8495 0.626203 24.2554 1.872 26.9113H1.40625C0.629578 26.9113 0 27.5408 0 28.3175C0 29.0942 0.629578 29.7238 1.40625 29.7238H3.36966C5.99611 34.1703 10.1496 39.2268 15.8131 44.8582C23.4885 52.4901 31.2712 58.4609 31.349 58.5204C31.601 58.7132 31.9021 58.8095 32.2031 58.8095C32.5042 58.8095 32.8051 58.7132 33.0573 58.5204C33.1166 58.475 39.069 53.9106 45.6654 47.6913C46.2306 47.1585 46.2568 46.2684 45.7239 45.7034C45.1913 45.1384 44.3012 45.1121 43.7361 45.6449C38.7053 50.388 34.0609 54.1488 32.2033 55.618C29.9957 53.8715 23.8501 48.8859 17.7761 42.8439C12.9133 38.0066 9.19069 33.5983 6.67392 29.7238H19.2635C19.5688 29.7238 19.8659 29.6244 20.1097 29.4407C20.3536 29.2569 20.531 28.9988 20.6152 28.7054L23.0722 20.141L29.8762 41.9404C29.9655 42.2265 30.144 42.4766 30.3854 42.6542C30.6269 42.8318 30.9188 42.9275 31.2185 42.9275C31.5183 42.9275 31.8102 42.8318 32.0516 42.6542C32.2931 42.4766 32.4715 42.2265 32.5609 41.9404L36.3289 29.8645H42.607C43.3837 29.8645 44.0132 29.235 44.0132 28.4583C44.0132 27.6816 43.3837 27.052 42.607 27.052H35.2946C34.9949 27.052 34.7029 27.1478 34.4614 27.3254C34.2199 27.5031 34.0415 27.7532 33.9522 28.0394L31.2182 36.801L24.3577 14.8205C24.2679 14.5314 24.0871 14.2791 23.8423 14.1012C23.5974 13.9233 23.3016 13.8293 22.9989 13.8333C22.6964 13.8368 22.4031 13.9378 22.1625 14.1212C21.9219 14.3047 21.7469 14.5609 21.6634 14.8517L18.2036 26.9114H5.00963C3.55598 24.167 2.8125 21.7481 2.8125 19.703C2.8125 10.3895 10.1839 2.8125 19.2447 2.8125C23.7987 2.8125 28.0337 4.6845 31.1695 8.08341C31.3012 8.22613 31.4611 8.34003 31.6389 8.41793C31.8168 8.49584 32.0089 8.53606 32.2031 8.53606C32.3973 8.53606 32.5894 8.49584 32.7673 8.41793C32.9452 8.34003 33.105 8.22613 33.2367 8.08341C36.3725 4.6845 40.6076 2.8125 45.1616 2.8125C52.9954 2.8125 59.6555 8.46197 61.2385 16.1895C60.7035 16.1194 60.1645 16.0843 59.6249 16.0843C52.8013 16.0843 47.2499 21.6357 47.2499 28.4593C47.2499 35.2828 52.8013 40.8343 59.6249 40.8343C66.4484 40.8343 71.9999 35.2828 71.9999 28.4593C72 23.2595 68.7762 18.7992 64.2226 16.9703ZM59.625 38.0218C54.3523 38.0218 50.0625 33.732 50.0625 28.4593C50.0625 23.1865 54.3523 18.8968 59.625 18.8968C64.8977 18.8968 69.1875 23.1865 69.1875 28.4593C69.1875 33.732 64.8977 38.0218 59.625 38.0218Z" fill="#332807"/>
</svg>
