<svg width="18" height="21" viewBox="0 0 18 21" fill="none" xmlns="http://www.w3.org/2000/svg">
<path d="M9 11.45C10.6569 11.45 12 10.174 12 8.6C12 7.02599 10.6569 5.75 9 5.75C7.34315 5.75 6 7.02599 6 8.6C6 10.174 7.34315 11.45 9 11.45Z" stroke="#282419" stroke-width="1.5" stroke-linecap="round" stroke-linejoin="round"/>
<path d="M9 1C6.87827 1 4.84344 1.80071 3.34315 3.22599C1.84285 4.65126 1 6.58435 1 8.6C1 10.3974 1.402 11.5735 2.5 12.875L9 20L15.5 12.875C16.598 11.5735 17 10.3974 17 8.6C17 6.58435 16.1571 4.65126 14.6569 3.22599C13.1566 1.80071 11.1217 1 9 1Z" stroke="#282419" stroke-width="1.5" stroke-linecap="round" stroke-linejoin="round"/>
</svg>
