<svg width="230" height="443" viewBox="0 0 230 443" fill="none" xmlns="http://www.w3.org/2000/svg">
<mask id="mask0_22_1050" style="mask-type:alpha" maskUnits="userSpaceOnUse" x="0" y="0" width="274" height="443">
<path fill-rule="evenodd" clip-rule="evenodd" d="M33.115 320.799L33.0496 320.831L3.89394 337.628L3.89394 371.351L3.92665 371.384L33.115 388.18L33.1805 388.148L62.3361 371.351V337.628L62.2706 337.595L33.115 320.799ZM4.123 337.791L33.115 321.093L62.0743 337.791V371.22L33.115 387.919L4.123 371.22L4.123 337.791Z" fill="url(#paint0_linear_22_1050)"/>
<path fill-rule="evenodd" clip-rule="evenodd" d="M91.2957 320.799L91.2302 320.831L62.0746 337.628V371.351L62.14 371.384L91.2957 388.18L91.3611 388.148L120.517 371.351V337.628L120.451 337.595L91.2957 320.799ZM62.3364 337.791L91.2957 321.093L120.288 337.791V371.22L91.2957 387.919L62.3364 371.22V337.791Z" fill="url(#paint1_linear_22_1050)"/>
<path fill-rule="evenodd" clip-rule="evenodd" d="M149.508 320.799L149.443 320.831L120.287 337.628V371.351L120.32 371.384L149.508 388.18L149.574 388.148L178.729 371.351L178.729 337.628L178.664 337.595L149.508 320.799ZM120.516 337.791L149.508 321.093L178.468 337.791L178.468 371.22L149.508 387.919L120.516 371.22V337.791Z" fill="url(#paint2_linear_22_1050)"/>
<path fill-rule="evenodd" clip-rule="evenodd" d="M207.689 320.799L207.623 320.831L178.468 337.628L178.468 371.351L178.533 371.384L207.689 388.18L207.754 388.148L236.91 371.351L236.91 337.628L236.844 337.595L207.689 320.799ZM178.729 337.791L207.689 321.093L236.681 337.791L236.681 371.22L207.689 387.919L178.729 371.22L178.729 337.791Z" fill="url(#paint3_linear_22_1050)"/>
<path d="M273.035 325.21L265.902 321.093L236.91 337.791L236.91 371.188L265.902 387.886L273.035 383.769V384.063L265.967 388.148L265.902 388.18L236.713 371.384L236.681 371.351L236.681 337.628L265.836 320.831L265.902 320.799L273.035 324.916V325.21Z" fill="url(#paint4_linear_22_1050)"/>
<path fill-rule="evenodd" clip-rule="evenodd" d="M62.2054 270.475L62.1399 270.507L32.9843 287.304L32.9843 320.995L33.0497 321.06L62.2054 337.856L62.2708 337.824L91.4264 320.995L91.4264 287.304L91.361 287.271L62.2054 270.475ZM33.2461 287.467L62.2054 270.769L91.1646 287.467L91.1646 320.897L62.2054 337.595L33.2461 320.897L33.2461 287.467Z" fill="url(#paint5_linear_22_1050)"/>
<path fill-rule="evenodd" clip-rule="evenodd" d="M120.386 270.475L120.32 270.507L91.1646 287.304L91.1646 320.995L91.23 321.06L120.386 337.856L120.451 337.824L149.639 320.995V287.304L149.574 287.271L120.386 270.475ZM91.3936 287.467L120.386 270.769L149.345 287.467V320.897L120.386 337.595L91.3936 320.897L91.3936 287.467Z" fill="url(#paint6_linear_22_1050)"/>
<path fill-rule="evenodd" clip-rule="evenodd" d="M178.599 270.475L178.533 270.507L149.378 287.304V320.995L149.443 321.06L178.599 337.856L178.664 337.824L207.82 320.995V287.304L207.754 287.271L178.599 270.475ZM149.639 287.467L178.599 270.769L207.591 287.467V320.897L178.599 337.595L149.639 320.897V287.467Z" fill="url(#paint7_linear_22_1050)"/>
<path fill-rule="evenodd" clip-rule="evenodd" d="M236.779 270.475L236.714 270.507L207.558 287.304V320.995L207.623 321.06L236.779 337.856L236.844 337.824L266.033 320.995V287.304L265.967 287.271L236.779 270.475ZM207.787 287.467L236.779 270.769L265.738 287.467V320.897L236.779 337.595L207.787 320.897V287.467Z" fill="url(#paint8_linear_22_1050)"/>
<path d="M273.035 283.415L266.033 287.467V320.864L273.035 324.916V325.21L265.836 321.06L265.771 320.995V287.304L273.035 283.121V283.415Z" fill="url(#paint9_linear_22_1050)"/>
<path fill-rule="evenodd" clip-rule="evenodd" d="M149.508 220.118L149.443 220.151L120.287 236.98V270.671L120.32 270.703L149.508 287.533L149.574 287.5L178.729 270.671V236.98L178.664 236.947L149.508 220.118ZM120.516 237.111L149.508 220.412L178.468 237.111V270.507L149.508 287.206L120.516 270.507V237.111Z" fill="url(#paint10_linear_22_1050)"/>
<path fill-rule="evenodd" clip-rule="evenodd" d="M207.689 220.118L207.623 220.151L178.468 236.98V270.671L178.533 270.703L207.689 287.533L207.754 287.5L236.91 270.671V236.98L236.844 236.947L207.689 220.118ZM178.729 237.111L207.689 220.412L236.681 237.111V270.507L207.689 287.206L178.729 270.507V237.111Z" fill="url(#paint11_linear_22_1050)"/>
<path d="M273.035 224.53L265.902 220.412L236.91 237.111V270.54L265.902 287.238L273.035 283.121V283.415L265.967 287.5L265.902 287.533L236.713 270.703L236.681 270.671V236.98L265.836 220.151L265.902 220.118L273.035 224.235V224.53Z" fill="url(#paint12_linear_22_1050)"/>
<path fill-rule="evenodd" clip-rule="evenodd" d="M178.599 169.794L178.533 169.827L149.378 186.656V220.347L149.443 220.379L178.599 237.209L178.664 237.176L207.82 220.347V186.656L207.754 186.623L178.599 169.794ZM149.639 186.787L178.599 170.088L207.591 186.787V220.183L178.599 236.882L149.639 220.183V186.787Z" fill="url(#paint13_linear_22_1050)"/>
<path fill-rule="evenodd" clip-rule="evenodd" d="M236.779 169.794L236.714 169.827L207.558 186.656V220.347L207.623 220.379L236.779 237.209L236.844 237.176L266.033 220.347V186.656L265.967 186.623L236.779 169.794ZM207.787 186.787L236.779 170.088L265.738 186.787V220.183L236.779 236.882L207.787 220.183V186.787Z" fill="url(#paint14_linear_22_1050)"/>
<path d="M273.035 182.735L266.033 186.787V220.216L273.035 224.235V224.53L265.836 220.379L265.771 220.347V186.656L273.035 182.44V182.735Z" fill="url(#paint15_linear_22_1050)"/>
<path fill-rule="evenodd" clip-rule="evenodd" d="M207.689 119.47L207.623 119.503L178.468 136.299V170.023L178.533 170.056L207.689 186.852L207.754 186.819L236.91 170.023V136.299L236.844 136.267L207.689 119.47ZM178.729 136.463L207.689 119.764L236.681 136.463V169.892L207.689 186.591L178.729 169.892V136.463Z" fill="url(#paint16_linear_22_1050)"/>
<path d="M273.035 123.882L265.902 119.764L236.91 136.463V169.86L265.902 186.558L273.035 182.44V182.735L265.967 186.819L265.902 186.852L236.713 170.056L236.681 170.023V136.299L265.836 119.503L265.902 119.47L273.035 123.588V123.882Z" fill="url(#paint17_linear_22_1050)"/>
<path d="M273.035 82.0868L266.033 86.1388V119.536L273.035 123.588V123.882L265.836 119.732L265.771 119.699V85.9754L273.035 81.7927V82.0868Z" fill="url(#paint18_linear_22_1050)"/>
<path d="M149.639 -6.10352e-05L149.639 18.8878L178.599 35.5862L207.558 18.8878L207.558 -6.10352e-05H207.82L207.82 19.0185L178.664 35.8476L178.599 35.8802L149.443 19.0511L149.378 19.0185L149.378 -6.10352e-05H149.639Z" fill="url(#paint19_linear_22_1050)"/>
<path d="M207.82 -6.10352e-05L207.82 18.8878L236.779 35.5862L265.771 18.8878V-6.10352e-05H266.033V19.0185L236.844 35.8476L236.779 35.8802L207.623 19.0511L207.558 19.0185L207.558 -6.10352e-05H207.82Z" fill="url(#paint20_linear_22_1050)"/>
<path d="M140.575 442.131V413.538L103.337 392.036L66.0666 413.538V442.131H64.7577V412.787L103.337 390.533L141.917 412.787V442.131H140.575Z" fill="url(#paint21_linear_22_1050)"/>
<path d="M216.426 442.131V413.538L179.188 392.036L141.917 413.538L141.917 442.131H140.575L140.575 412.787L179.188 390.533L217.767 412.787V442.131H216.426Z" fill="url(#paint22_linear_22_1050)"/>
<path d="M217.767 413.538L217.767 442.131H216.426L216.426 412.787L255.005 390.533L273.035 400.925V402.428L255.005 392.036L217.767 413.538Z" fill="url(#paint23_linear_22_1050)"/>
<path fill-rule="evenodd" clip-rule="evenodd" d="M141.262 324.949L102.65 347.17V391.677L141.262 413.93L179.842 391.677L179.842 347.17L141.262 324.949ZM103.992 347.954L141.262 326.484L178.5 347.954L178.5 390.925L141.262 412.427L103.992 390.925V347.954Z" fill="url(#paint24_linear_22_1050)"/>
<path fill-rule="evenodd" clip-rule="evenodd" d="M217.08 324.949L178.5 347.17L178.5 391.677L217.08 413.93L255.66 391.677L255.66 347.17L217.08 324.949ZM179.842 347.954L217.08 326.484L254.351 347.954L254.351 390.925L217.08 412.427L179.842 390.925L179.842 347.954Z" fill="url(#paint25_linear_22_1050)"/>
<path d="M273.035 337.922L255.66 347.954L255.66 390.925L273.035 400.925V402.428L254.351 391.677L254.351 347.17L273.035 336.419V337.922Z" fill="url(#paint26_linear_22_1050)"/>
<path fill-rule="evenodd" clip-rule="evenodd" d="M179.188 259.331L140.575 281.585V326.092L179.188 348.313L217.767 326.092V281.585L179.188 259.331ZM141.917 282.337L179.188 260.867L216.426 282.337V325.308L179.188 346.81L141.917 325.308V282.337Z" fill="url(#paint27_linear_22_1050)"/>
<path d="M273.035 271.259L255.005 260.867L217.767 282.337V325.308L255.005 346.81L273.035 336.419V337.922L255.005 348.313L216.426 326.092V281.585L255.005 259.331L273.035 269.723V271.259Z" fill="url(#paint28_linear_22_1050)"/>
<path d="M273.035 206.753L255.66 216.752V259.724L273.035 269.723V271.259L254.351 260.475V216.001L273.035 205.217V206.753Z" fill="url(#paint29_linear_22_1050)"/>
<path fill-rule="evenodd" clip-rule="evenodd" d="M217.08 62.5454L178.5 84.799V129.274L217.08 151.527L255.66 129.274V84.799L217.08 62.5454ZM179.842 85.5506L217.08 64.0485L254.351 85.5506V128.522L217.08 149.991L179.842 128.522V85.5506Z" fill="url(#paint30_linear_22_1050)"/>
<path d="M176.537 -6.10352e-05L141.917 19.9661V62.9375L179.188 84.4069L216.426 62.9375V19.9661L181.806 -6.10352e-05H184.423L217.767 19.2145V63.6891L179.188 85.9427L140.575 63.6891V19.2145L173.919 -6.10352e-05H176.537Z" fill="url(#paint31_linear_22_1050)"/>
<path d="M255.005 84.4069L273.035 74.0153V75.5511L255.005 85.9427L216.426 63.6891V19.2145L249.737 -6.10352e-05H252.388L217.767 19.9661V62.9375L255.005 84.4069Z" fill="url(#paint32_linear_22_1050)"/>
<path d="M273.036 8.85565L257.656 -6.10352e-05H260.274L273.036 7.35245V8.85565Z" fill="url(#paint33_linear_22_1050)"/>
<path d="M32.7549 -6.10352e-05L65.4118 18.8224L98.0687 -6.10352e-05H100.687L65.4118 20.3582L30.1044 -6.10352e-05H32.7549Z" fill="url(#paint34_linear_22_1050)"/>
<path d="M108.605 -6.10352e-05L141.262 18.8224L173.919 -6.10352e-05H176.537L141.262 20.3582L105.955 -6.10352e-05H108.605Z" fill="url(#paint35_linear_22_1050)"/>
<path d="M184.423 -6.10352e-05L217.08 18.8224L249.737 -6.10352e-05H252.388L217.08 20.3582L181.806 -6.10352e-05H184.423Z" fill="url(#paint36_linear_22_1050)"/>
<path d="M273.036 8.85565L257.656 -6.10352e-05H260.274L273.036 7.35245V8.85565Z" fill="url(#paint37_linear_22_1050)"/>
<path d="M3.99213 375.273C1.79973 375.273 0 373.475 0 371.253C0 369.064 1.79973 367.266 3.99213 367.266C6.21725 367.266 8.01698 369.064 8.01698 371.253C8.01698 373.475 6.21725 375.273 3.99213 375.273Z" fill="url(#paint38_linear_22_1050)"/>
<path d="M3.9923 335.209C5.39936 335.209 6.51192 336.321 6.51192 337.726C6.51192 339.098 5.39936 340.209 3.9923 340.209C2.61796 340.209 1.50541 339.098 1.50541 337.726C1.50541 336.321 2.61796 335.209 3.9923 335.209Z" fill="url(#paint39_linear_22_1050)"/>
<path d="M33.1151 318.674C34.3586 318.674 35.373 319.688 35.373 320.929C35.373 322.171 34.3586 323.184 33.1151 323.184C31.8717 323.184 30.8573 322.171 30.8573 320.929C30.8573 319.688 31.8717 318.674 33.1151 318.674Z" fill="url(#paint40_linear_22_1050)"/>
<path d="M33.1151 386.873C33.7369 386.873 34.2604 387.396 34.2604 388.05C34.2604 388.703 33.7369 389.193 33.1151 389.193C32.4607 389.193 31.9371 388.703 31.9371 388.05C31.9371 387.396 32.4607 386.873 33.1151 386.873Z" fill="url(#paint41_linear_22_1050)"/>
<path d="M62.2054 368.966C63.4816 368.966 64.496 370.011 64.496 371.253C64.496 372.528 63.4816 373.573 62.2054 373.573C60.9293 373.573 59.9149 372.528 59.9149 371.253C59.9149 370.011 60.9293 368.966 62.2054 368.966Z" fill="url(#paint42_linear_22_1050)"/>
<path d="M62.2055 341.745C59.9804 341.745 58.1479 339.948 58.1479 337.726C58.1479 335.471 59.9804 333.674 62.2055 333.674C64.4306 333.674 66.2303 335.471 66.2303 337.726C66.2303 339.948 64.4306 341.745 62.2055 341.745Z" fill="url(#paint43_linear_22_1050)"/>
<path d="M91.2953 386.35C92.2442 386.35 92.9968 387.102 92.9968 388.05C92.9968 388.997 92.2442 389.749 91.2953 389.749C90.3463 389.749 89.5937 388.997 89.5937 388.05C89.5937 387.102 90.3463 386.35 91.2953 386.35Z" fill="url(#paint44_linear_22_1050)"/>
<path d="M120.386 368.149C122.12 368.149 123.527 369.521 123.527 371.253C123.527 372.985 122.12 374.39 120.386 374.39C118.651 374.39 117.244 372.985 117.244 371.253C117.244 369.521 118.651 368.149 120.386 368.149Z" fill="url(#paint45_linear_22_1050)"/>
<path d="M120.386 333.968C122.48 333.968 124.149 335.634 124.149 337.726C124.149 339.784 122.48 341.451 120.386 341.451C118.324 341.451 116.655 339.784 116.655 337.726C116.655 335.634 118.324 333.968 120.386 333.968Z" fill="url(#paint46_linear_22_1050)"/>
<path d="M149.508 386.089C150.588 386.089 151.472 386.971 151.472 388.05C151.472 389.128 150.588 390.01 149.508 390.01C148.428 390.01 147.545 389.128 147.545 388.05C147.545 386.971 148.428 386.089 149.508 386.089Z" fill="url(#paint47_linear_22_1050)"/>
<path d="M178.598 369.031C179.842 369.031 180.856 370.011 180.856 371.253C180.856 372.495 179.842 373.508 178.598 373.508C177.355 373.508 176.341 372.495 176.341 371.253C176.341 370.011 177.355 369.031 178.598 369.031Z" fill="url(#paint48_linear_22_1050)"/>
<path d="M178.599 336.124C179.482 336.124 180.202 336.843 180.202 337.726C180.202 338.608 179.482 339.327 178.599 339.327C177.715 339.327 176.995 338.608 176.995 337.726C176.995 336.843 177.715 336.124 178.599 336.124Z" fill="url(#paint49_linear_22_1050)"/>
<path d="M207.689 386.546C208.54 386.546 209.194 387.2 209.194 388.05C209.194 388.867 208.54 389.553 207.689 389.553C206.871 389.553 206.184 388.867 206.184 388.05C206.184 387.2 206.871 386.546 207.689 386.546Z" fill="url(#paint50_linear_22_1050)"/>
<path d="M236.779 368.9C238.121 368.9 239.168 369.946 239.168 371.253C239.168 372.593 238.121 373.639 236.779 373.639C235.47 373.639 234.423 372.593 234.423 371.253C234.423 369.946 235.47 368.9 236.779 368.9Z" fill="url(#paint51_linear_22_1050)"/>
<path d="M236.779 335.013C238.284 335.013 239.495 336.223 239.495 337.726C239.495 339.196 238.284 340.405 236.779 340.405C235.306 340.405 234.096 339.196 234.096 337.726C234.096 336.223 235.306 335.013 236.779 335.013Z" fill="url(#paint52_linear_22_1050)"/>
<path d="M265.902 385.762C267.146 385.762 268.16 386.775 268.16 388.05C268.16 389.291 267.146 390.304 265.902 390.304C264.626 390.304 263.612 389.291 263.612 388.05C263.612 386.775 264.626 385.762 265.902 385.762Z" fill="url(#paint53_linear_22_1050)"/>
<path d="M33.1148 284.363C34.7837 284.363 36.1253 285.703 36.1253 287.369C36.1253 289.068 34.7837 290.408 33.1148 290.408C31.4133 290.408 30.0717 289.068 30.0717 287.369C30.0717 285.703 31.4133 284.363 33.1148 284.363Z" fill="url(#paint54_linear_22_1050)"/>
<path d="M91.2953 322.498C90.4446 322.498 89.7574 321.779 89.7574 320.929C89.7574 320.08 90.4446 319.393 91.2953 319.393C92.1461 319.393 92.866 320.08 92.866 320.929C92.866 321.779 92.1461 322.498 91.2953 322.498Z" fill="url(#paint55_linear_22_1050)"/>
<path d="M91.2952 284.493C92.8986 284.493 94.1748 285.801 94.1748 287.369C94.1748 288.97 92.8986 290.245 91.2952 290.245C89.7245 290.245 88.4156 288.97 88.4156 287.369C88.4156 285.801 89.7245 284.493 91.2952 284.493Z" fill="url(#paint56_linear_22_1050)"/>
<path d="M122.218 270.605C122.218 271.618 121.4 272.435 120.386 272.435C119.404 272.435 118.586 271.618 118.586 270.605C118.586 269.592 119.404 268.775 120.386 268.775C121.4 268.775 122.218 269.592 122.218 270.605Z" fill="url(#paint57_linear_22_1050)"/>
<path d="M149.508 325.177C147.152 325.177 145.255 323.282 145.255 320.929C145.255 318.576 147.152 316.681 149.508 316.681C151.832 316.681 153.762 318.576 153.762 320.929C153.762 323.282 151.832 325.177 149.508 325.177Z" fill="url(#paint58_linear_22_1050)"/>
<path d="M207.689 317.792C209.423 317.792 210.863 319.197 210.863 320.929C210.863 322.661 209.423 324.099 207.689 324.099C205.955 324.099 204.547 322.661 204.547 320.929C204.547 319.197 205.955 317.792 207.689 317.792Z" fill="url(#paint59_linear_22_1050)"/>
<path d="M236.779 267.468C238.513 267.468 239.92 268.873 239.92 270.605C239.92 272.337 238.513 273.742 236.779 273.742C235.045 273.742 233.638 272.337 233.638 270.605C233.638 268.873 235.045 267.468 236.779 267.468Z" fill="url(#paint60_linear_22_1050)"/>
<path d="M207.689 283.677C209.75 283.677 211.386 285.343 211.386 287.369C211.386 289.428 209.75 291.094 207.689 291.094C205.66 291.094 203.991 289.428 203.991 287.369C203.991 285.343 205.66 283.677 207.689 283.677Z" fill="url(#paint61_linear_22_1050)"/>
<path d="M265.902 317.563C267.767 317.563 269.272 319.067 269.272 320.929C269.272 322.792 267.767 324.295 265.902 324.295C264.037 324.295 262.531 322.792 262.531 320.929C262.531 319.067 264.037 317.563 265.902 317.563Z" fill="url(#paint62_linear_22_1050)"/>
<path d="M64.6268 270.605C64.6268 271.945 63.547 273.024 62.2054 273.024C60.8638 273.024 59.7839 271.945 59.7839 270.605C59.7839 269.266 60.8638 268.187 62.2054 268.187C63.547 268.187 64.6268 269.266 64.6268 270.605Z" fill="url(#paint63_linear_22_1050)"/>
<path d="M151.439 287.369C151.439 288.447 150.588 289.33 149.508 289.33C148.428 289.33 147.545 288.447 147.545 287.369C147.545 286.323 148.428 285.441 149.508 285.441C150.588 285.441 151.439 286.323 151.439 287.369Z" fill="url(#paint64_linear_22_1050)"/>
<path d="M178.599 268.514C179.744 268.514 180.693 269.462 180.693 270.605C180.693 271.749 179.744 272.697 178.599 272.697C177.454 272.697 176.505 271.749 176.505 270.605C176.505 269.462 177.454 268.514 178.599 268.514Z" fill="url(#paint65_linear_22_1050)"/>
<path d="M265.902 222.34C264.757 222.34 263.808 221.425 263.808 220.281C263.808 219.138 264.757 218.223 265.902 218.223C267.047 218.223 267.963 219.138 267.963 220.281C267.963 221.425 267.047 222.34 265.902 222.34Z" fill="url(#paint66_linear_22_1050)"/>
<path d="M236.779 239.725C235.306 239.725 234.096 238.548 234.096 237.045C234.096 235.575 235.306 234.366 236.779 234.366C238.284 234.366 239.495 235.575 239.495 237.045C239.495 238.548 238.284 239.725 236.779 239.725Z" fill="url(#paint67_linear_22_1050)"/>
<path d="M265.902 289.951C264.462 289.951 263.317 288.807 263.317 287.369C263.317 285.964 264.462 284.82 265.902 284.82C267.309 284.82 268.454 285.964 268.454 287.369C268.454 288.807 267.309 289.951 265.902 289.951Z" fill="url(#paint68_linear_22_1050)"/>
<path d="M120.386 240.15C118.684 240.15 117.277 238.777 117.277 237.045C117.277 235.346 118.684 233.941 120.386 233.941C122.12 233.941 123.494 235.346 123.494 237.045C123.494 238.777 122.12 240.15 120.386 240.15Z" fill="url(#paint69_linear_22_1050)"/>
<path d="M146.269 220.281C146.269 218.484 147.709 217.046 149.508 217.046C151.275 217.046 152.715 218.484 152.715 220.281C152.715 222.046 151.275 223.484 149.508 223.484C147.709 223.484 146.269 222.046 146.269 220.281Z" fill="url(#paint70_linear_22_1050)"/>
<path d="M178.599 167.997C179.678 167.997 180.562 168.879 180.562 169.957C180.562 171.003 179.678 171.885 178.599 171.885C177.519 171.885 176.635 171.003 176.635 169.957C176.635 168.879 177.519 167.997 178.599 167.997Z" fill="url(#paint71_linear_22_1050)"/>
<path d="M149.508 189.27C148.101 189.27 146.956 188.126 146.956 186.721C146.956 185.316 148.101 184.172 149.508 184.172C150.915 184.172 152.028 185.316 152.028 186.721C152.028 188.126 150.915 189.27 149.508 189.27Z" fill="url(#paint72_linear_22_1050)"/>
<path d="M178.599 234.333C180.104 234.333 181.315 235.542 181.315 237.045C181.315 238.548 180.104 239.757 178.599 239.757C177.093 239.757 175.883 238.548 175.883 237.045C175.883 235.542 177.093 234.333 178.599 234.333Z" fill="url(#paint73_linear_22_1050)"/>
<path d="M207.689 182.865C209.816 182.865 211.55 184.597 211.55 186.721C211.55 188.845 209.816 190.577 207.689 190.577C205.562 190.577 203.828 188.845 203.828 186.721C203.828 184.597 205.562 182.865 207.689 182.865Z" fill="url(#paint74_linear_22_1050)"/>
<path d="M236.779 167.768C237.99 167.768 238.971 168.748 238.971 169.957C238.971 171.134 237.99 172.114 236.779 172.114C235.601 172.114 234.619 171.134 234.619 169.957C234.619 168.748 235.601 167.768 236.779 167.768Z" fill="url(#paint75_linear_22_1050)"/>
<path d="M207.689 216.458C209.816 216.458 211.517 218.157 211.517 220.281C211.517 222.373 209.816 224.072 207.689 224.072C205.595 224.072 203.893 222.373 203.893 220.281C203.893 218.157 205.595 216.458 207.689 216.458Z" fill="url(#paint76_linear_22_1050)"/>
<path d="M265.902 188.453C264.953 188.453 264.168 187.669 264.168 186.721C264.168 185.774 264.953 184.989 265.902 184.989C266.851 184.989 267.636 185.774 267.636 186.721C267.636 187.669 266.851 188.453 265.902 188.453Z" fill="url(#paint77_linear_22_1050)"/>
<path d="M178.599 71.0743C177.617 71.0743 176.799 70.2574 176.799 69.277C176.799 68.2967 177.617 67.4797 178.599 67.4797C179.58 67.4797 180.398 68.2967 180.398 69.277C180.398 70.2574 179.58 71.0743 178.599 71.0743Z" fill="url(#paint78_linear_22_1050)"/>
<path d="M178.599 134.306C179.744 134.306 180.693 135.221 180.693 136.397C180.693 137.541 179.744 138.489 178.599 138.489C177.454 138.489 176.505 137.541 176.505 136.397C176.505 135.221 177.454 134.306 178.599 134.306Z" fill="url(#paint79_linear_22_1050)"/>
<path d="M207.689 123.686C205.431 123.686 203.599 121.856 203.599 119.601C203.599 117.346 205.431 115.516 207.689 115.516C209.947 115.516 211.779 117.346 211.779 119.601C211.779 121.856 209.947 123.686 207.689 123.686Z" fill="url(#paint80_linear_22_1050)"/>
<path d="M236.779 134.175C238.022 134.175 239.004 135.156 239.004 136.397C239.004 137.606 238.022 138.619 236.779 138.619C235.568 138.619 234.554 137.606 234.554 136.397C234.554 135.156 235.568 134.175 236.779 134.175Z" fill="url(#paint81_linear_22_1050)"/>
<path d="M265.902 116.268C267.735 116.268 269.24 117.771 269.24 119.601C269.24 121.464 267.735 122.934 265.902 122.934C264.037 122.934 262.564 121.464 262.564 119.601C262.564 117.771 264.037 116.268 265.902 116.268Z" fill="url(#paint82_linear_22_1050)"/>
<path d="M265.902 90.485C263.448 90.485 261.452 88.4916 261.452 86.0407C261.452 83.5899 263.448 81.6292 265.902 81.6292C268.356 81.6292 270.352 83.5899 270.352 86.0407C270.352 88.4916 268.356 90.485 265.902 90.485Z" fill="url(#paint83_linear_22_1050)"/>
<path d="M181.02 35.7168C181.02 37.0566 179.94 38.135 178.599 38.135C177.257 38.135 176.177 37.0566 176.177 35.7168C176.177 34.377 177.257 33.2987 178.599 33.2987C179.94 33.2987 181.02 34.377 181.02 35.7168Z" fill="url(#paint84_linear_22_1050)"/>
<path d="M236.779 66.14C238.546 66.14 239.953 67.5451 239.953 69.277C239.953 71.009 238.546 72.4141 236.779 72.4141C235.045 72.4141 233.638 71.009 233.638 69.277C233.638 67.5451 235.045 66.14 236.779 66.14Z" fill="url(#paint85_linear_22_1050)"/>
<path d="M236.779 38.8539C235.045 38.8539 233.638 37.4488 233.638 35.7168C233.638 33.9849 235.045 32.5797 236.779 32.5797C238.513 32.5797 239.92 33.9849 239.92 35.7168C239.92 37.4488 238.513 38.8539 236.779 38.8539Z" fill="url(#paint86_linear_22_1050)"/>
<path d="M149.509 16.4369C150.883 16.4369 151.996 17.5806 151.996 18.9531C151.996 20.3256 150.883 21.4366 149.509 21.4366C148.102 21.4366 146.989 20.3256 146.989 18.9531C146.989 17.5806 148.102 16.4369 149.509 16.4369Z" fill="url(#paint87_linear_22_1050)"/>
<path d="M207.689 16.1755C209.227 16.1755 210.47 17.4172 210.47 18.9531C210.47 20.4563 209.227 21.6981 207.689 21.6981C206.184 21.6981 204.94 20.4563 204.94 18.9531C204.94 17.4172 206.184 16.1755 207.689 16.1755Z" fill="url(#paint88_linear_22_1050)"/>
</mask>
<g mask="url(#mask0_22_1050)">
<path fill-rule="evenodd" clip-rule="evenodd" d="M33.115 320.799L33.0496 320.831L3.89394 337.628L3.89394 371.351L3.92665 371.384L33.115 388.18L33.1805 388.148L62.3361 371.351V337.628L62.2706 337.595L33.115 320.799ZM4.123 337.791L33.115 321.093L62.0743 337.791V371.22L33.115 387.919L4.123 371.22L4.123 337.791Z" fill="url(#paint89_linear_22_1050)"/>
<path fill-rule="evenodd" clip-rule="evenodd" d="M91.2957 320.799L91.2302 320.831L62.0746 337.628V371.351L62.14 371.384L91.2957 388.18L91.3611 388.148L120.517 371.351V337.628L120.451 337.595L91.2957 320.799ZM62.3364 337.791L91.2957 321.093L120.288 337.791V371.22L91.2957 387.919L62.3364 371.22V337.791Z" fill="url(#paint90_linear_22_1050)"/>
<path fill-rule="evenodd" clip-rule="evenodd" d="M149.508 320.799L149.443 320.831L120.287 337.628V371.351L120.32 371.384L149.508 388.18L149.574 388.148L178.729 371.351L178.729 337.628L178.664 337.595L149.508 320.799ZM120.516 337.791L149.508 321.093L178.468 337.791L178.468 371.22L149.508 387.919L120.516 371.22V337.791Z" fill="url(#paint91_linear_22_1050)"/>
<path fill-rule="evenodd" clip-rule="evenodd" d="M207.689 320.799L207.623 320.831L178.468 337.628L178.468 371.351L178.533 371.384L207.689 388.18L207.754 388.148L236.91 371.351L236.91 337.628L236.844 337.595L207.689 320.799ZM178.729 337.791L207.689 321.093L236.681 337.791L236.681 371.22L207.689 387.919L178.729 371.22L178.729 337.791Z" fill="url(#paint92_linear_22_1050)"/>
<path d="M273.035 325.21L265.902 321.093L236.91 337.791L236.91 371.188L265.902 387.886L273.035 383.769V384.063L265.967 388.148L265.902 388.18L236.713 371.384L236.681 371.351L236.681 337.628L265.836 320.831L265.902 320.799L273.035 324.916V325.21Z" fill="url(#paint93_linear_22_1050)"/>
<path fill-rule="evenodd" clip-rule="evenodd" d="M62.2053 270.475L62.1399 270.507L32.9843 287.304L32.9843 320.995L33.0497 321.06L62.2053 337.856L62.2708 337.824L91.4264 320.995L91.4264 287.304L91.361 287.271L62.2053 270.475ZM33.2461 287.467L62.2053 270.769L91.1646 287.467L91.1646 320.897L62.2053 337.595L33.2461 320.897L33.2461 287.467Z" fill="url(#paint94_linear_22_1050)"/>
<path fill-rule="evenodd" clip-rule="evenodd" d="M120.386 270.475L120.32 270.507L91.1646 287.304L91.1646 320.995L91.23 321.06L120.386 337.856L120.451 337.824L149.639 320.995V287.304L149.574 287.271L120.386 270.475ZM91.3936 287.467L120.386 270.769L149.345 287.467V320.897L120.386 337.595L91.3936 320.897L91.3936 287.467Z" fill="url(#paint95_linear_22_1050)"/>
<path fill-rule="evenodd" clip-rule="evenodd" d="M178.599 270.475L178.533 270.507L149.378 287.304V320.995L149.443 321.06L178.599 337.856L178.664 337.824L207.82 320.995V287.304L207.754 287.271L178.599 270.475ZM149.639 287.467L178.599 270.769L207.591 287.467V320.897L178.599 337.595L149.639 320.897V287.467Z" fill="url(#paint96_linear_22_1050)"/>
<path fill-rule="evenodd" clip-rule="evenodd" d="M236.779 270.475L236.714 270.507L207.558 287.304V320.995L207.623 321.06L236.779 337.856L236.844 337.824L266.033 320.995V287.304L265.967 287.271L236.779 270.475ZM207.787 287.467L236.779 270.769L265.738 287.467V320.897L236.779 337.595L207.787 320.897V287.467Z" fill="url(#paint97_linear_22_1050)"/>
<path d="M273.035 283.415L266.033 287.467V320.864L273.035 324.916V325.21L265.836 321.06L265.771 320.995V287.304L273.035 283.121V283.415Z" fill="url(#paint98_linear_22_1050)"/>
<path fill-rule="evenodd" clip-rule="evenodd" d="M149.508 220.118L149.443 220.151L120.287 236.98V270.671L120.32 270.703L149.508 287.533L149.574 287.5L178.729 270.671V236.98L178.664 236.947L149.508 220.118ZM120.516 237.111L149.508 220.412L178.468 237.111V270.507L149.508 287.206L120.516 270.507V237.111Z" fill="url(#paint99_linear_22_1050)"/>
<path fill-rule="evenodd" clip-rule="evenodd" d="M207.689 220.118L207.623 220.151L178.468 236.98V270.671L178.533 270.703L207.689 287.533L207.754 287.5L236.91 270.671V236.98L236.844 236.947L207.689 220.118ZM178.729 237.111L207.689 220.412L236.681 237.111V270.507L207.689 287.206L178.729 270.507V237.111Z" fill="url(#paint100_linear_22_1050)"/>
<path d="M273.035 224.53L265.902 220.412L236.91 237.111V270.54L265.902 287.238L273.035 283.121V283.415L265.967 287.5L265.902 287.533L236.713 270.703L236.681 270.671V236.98L265.836 220.151L265.902 220.118L273.035 224.236V224.53Z" fill="url(#paint101_linear_22_1050)"/>
<path fill-rule="evenodd" clip-rule="evenodd" d="M178.599 169.794L178.533 169.827L149.378 186.656V220.347L149.443 220.379L178.599 237.209L178.664 237.176L207.82 220.347V186.656L207.754 186.623L178.599 169.794ZM149.639 186.787L178.599 170.088L207.591 186.787V220.183L178.599 236.882L149.639 220.183V186.787Z" fill="url(#paint102_linear_22_1050)"/>
<path fill-rule="evenodd" clip-rule="evenodd" d="M236.779 169.794L236.714 169.827L207.558 186.656V220.347L207.623 220.379L236.779 237.209L236.844 237.176L266.033 220.347V186.656L265.967 186.623L236.779 169.794ZM207.787 186.787L236.779 170.088L265.738 186.787V220.183L236.779 236.882L207.787 220.183V186.787Z" fill="url(#paint103_linear_22_1050)"/>
<path d="M273.035 182.735L266.033 186.787V220.216L273.035 224.236V224.53L265.836 220.379L265.771 220.347V186.656L273.035 182.441V182.735Z" fill="url(#paint104_linear_22_1050)"/>
<path fill-rule="evenodd" clip-rule="evenodd" d="M207.689 119.47L207.623 119.503L178.468 136.299V170.023L178.533 170.056L207.689 186.852L207.754 186.819L236.91 170.023V136.299L236.844 136.267L207.689 119.47ZM178.729 136.463L207.689 119.764L236.681 136.463V169.892L207.689 186.591L178.729 169.892V136.463Z" fill="url(#paint105_linear_22_1050)"/>
<path d="M273.035 123.882L265.902 119.764L236.91 136.463V169.86L265.902 186.558L273.035 182.441V182.735L265.967 186.819L265.902 186.852L236.713 170.056L236.681 170.023V136.299L265.836 119.503L265.902 119.47L273.035 123.588V123.882Z" fill="url(#paint106_linear_22_1050)"/>
<path d="M273.035 82.0868L266.033 86.1388V119.536L273.035 123.588V123.882L265.836 119.732L265.771 119.699V85.9754L273.035 81.7927V82.0868Z" fill="url(#paint107_linear_22_1050)"/>
<path d="M149.639 -3.05176e-05L149.639 18.8878L178.599 35.5862L207.558 18.8878L207.558 -3.05176e-05H207.82L207.82 19.0185L178.664 35.8476L178.599 35.8803L149.443 19.0511L149.378 19.0185L149.378 -3.05176e-05H149.639Z" fill="url(#paint108_linear_22_1050)"/>
<path d="M207.82 -3.05176e-05L207.82 18.8878L236.779 35.5862L265.771 18.8878V-3.05176e-05H266.033V19.0185L236.844 35.8476L236.779 35.8803L207.623 19.0511L207.558 19.0185L207.558 -3.05176e-05H207.82Z" fill="url(#paint109_linear_22_1050)"/>
<path d="M140.575 442.131V413.538L103.337 392.036L66.0666 413.538V442.131H64.7577V412.787L103.337 390.533L141.917 412.787V442.131H140.575Z" fill="url(#paint110_linear_22_1050)"/>
<path d="M216.426 442.131V413.538L179.188 392.036L141.917 413.538L141.917 442.131H140.575L140.575 412.787L179.188 390.533L217.767 412.787V442.131H216.426Z" fill="url(#paint111_linear_22_1050)"/>
<path d="M217.767 413.538L217.767 442.131H216.426L216.426 412.787L255.005 390.533L273.035 400.925V402.428L255.005 392.036L217.767 413.538Z" fill="url(#paint112_linear_22_1050)"/>
<path fill-rule="evenodd" clip-rule="evenodd" d="M141.262 324.949L102.65 347.17V391.677L141.262 413.93L179.842 391.677L179.842 347.17L141.262 324.949ZM103.992 347.954L141.262 326.484L178.5 347.954L178.5 390.925L141.262 412.427L103.992 390.925V347.954Z" fill="url(#paint113_linear_22_1050)"/>
<path fill-rule="evenodd" clip-rule="evenodd" d="M217.08 324.949L178.5 347.17L178.5 391.677L217.08 413.93L255.66 391.677L255.66 347.17L217.08 324.949ZM179.842 347.954L217.08 326.484L254.351 347.954L254.351 390.925L217.08 412.427L179.842 390.925L179.842 347.954Z" fill="url(#paint114_linear_22_1050)"/>
<path d="M273.035 337.922L255.66 347.954L255.66 390.925L273.035 400.925V402.428L254.351 391.677L254.351 347.17L273.035 336.419V337.922Z" fill="url(#paint115_linear_22_1050)"/>
<path fill-rule="evenodd" clip-rule="evenodd" d="M179.188 259.331L140.575 281.585V326.092L179.188 348.313L217.767 326.092V281.585L179.188 259.331ZM141.917 282.337L179.188 260.867L216.426 282.337V325.308L179.188 346.81L141.917 325.308V282.337Z" fill="url(#paint116_linear_22_1050)"/>
<path d="M273.035 271.259L255.005 260.867L217.767 282.337V325.308L255.005 346.81L273.035 336.419V337.922L255.005 348.313L216.426 326.092V281.585L255.005 259.331L273.035 269.723V271.259Z" fill="url(#paint117_linear_22_1050)"/>
<path d="M273.035 206.753L255.66 216.752V259.724L273.035 269.723V271.259L254.351 260.475V216.001L273.035 205.217V206.753Z" fill="url(#paint118_linear_22_1050)"/>
<path fill-rule="evenodd" clip-rule="evenodd" d="M217.08 62.5454L178.5 84.799V129.274L217.08 151.527L255.66 129.274V84.799L217.08 62.5454ZM179.842 85.5506L217.08 64.0486L254.351 85.5506V128.522L217.08 149.991L179.842 128.522V85.5506Z" fill="url(#paint119_linear_22_1050)"/>
<path d="M176.537 -3.05176e-05L141.917 19.9661V62.9375L179.188 84.4069L216.426 62.9375V19.9661L181.805 -3.05176e-05H184.423L217.767 19.2145V63.6891L179.188 85.9427L140.575 63.6891V19.2145L173.919 -3.05176e-05H176.537Z" fill="url(#paint120_linear_22_1050)"/>
<path d="M255.005 84.4069L273.035 74.0154V75.5512L255.005 85.9427L216.426 63.6891V19.2145L249.737 -3.05176e-05H252.388L217.767 19.9661V62.9375L255.005 84.4069Z" fill="url(#paint121_linear_22_1050)"/>
<path d="M273.036 8.85565L257.656 -3.05176e-05H260.274L273.036 7.35245V8.85565Z" fill="url(#paint122_linear_22_1050)"/>
<path d="M184.423 -3.05176e-05L217.08 18.8224L249.737 -3.05176e-05H252.388L217.08 20.3582L181.805 -3.05176e-05H184.423Z" fill="url(#paint123_linear_22_1050)"/>
<path d="M273.036 8.85565L257.656 -3.05176e-05H260.274L273.036 7.35245V8.85565Z" fill="url(#paint124_linear_22_1050)"/>
<path d="M3.99213 375.273C1.79973 375.273 0 373.475 0 371.253C0 369.064 1.79973 367.266 3.99213 367.266C6.21725 367.266 8.01698 369.064 8.01698 371.253C8.01698 373.475 6.21725 375.273 3.99213 375.273Z" fill="url(#paint125_linear_22_1050)"/>
<path d="M3.9923 335.209C5.39936 335.209 6.51192 336.321 6.51192 337.726C6.51192 339.098 5.39936 340.209 3.9923 340.209C2.61796 340.209 1.50541 339.098 1.50541 337.726C1.50541 336.321 2.61796 335.209 3.9923 335.209Z" fill="url(#paint126_linear_22_1050)"/>
<path d="M33.1151 318.674C34.3586 318.674 35.373 319.688 35.373 320.929C35.373 322.171 34.3586 323.184 33.1151 323.184C31.8717 323.184 30.8573 322.171 30.8573 320.929C30.8573 319.688 31.8717 318.674 33.1151 318.674Z" fill="url(#paint127_linear_22_1050)"/>
<path d="M33.1151 386.873C33.7369 386.873 34.2604 387.396 34.2604 388.05C34.2604 388.703 33.7369 389.193 33.1151 389.193C32.4607 389.193 31.9371 388.703 31.9371 388.05C31.9371 387.396 32.4607 386.873 33.1151 386.873Z" fill="url(#paint128_linear_22_1050)"/>
<path d="M62.2054 368.966C63.4816 368.966 64.496 370.011 64.496 371.253C64.496 372.528 63.4816 373.573 62.2054 373.573C60.9292 373.573 59.9149 372.528 59.9149 371.253C59.9149 370.011 60.9292 368.966 62.2054 368.966Z" fill="url(#paint129_linear_22_1050)"/>
<path d="M62.2055 341.745C59.9804 341.745 58.1479 339.948 58.1479 337.726C58.1479 335.471 59.9804 333.674 62.2055 333.674C64.4306 333.674 66.2303 335.471 66.2303 337.726C66.2303 339.948 64.4306 341.745 62.2055 341.745Z" fill="url(#paint130_linear_22_1050)"/>
<path d="M91.2953 386.35C92.2442 386.35 92.9968 387.102 92.9968 388.05C92.9968 388.997 92.2442 389.749 91.2953 389.749C90.3463 389.749 89.5937 388.997 89.5937 388.05C89.5937 387.102 90.3463 386.35 91.2953 386.35Z" fill="url(#paint131_linear_22_1050)"/>
<path d="M120.386 368.149C122.12 368.149 123.527 369.521 123.527 371.253C123.527 372.985 122.12 374.39 120.386 374.39C118.651 374.39 117.244 372.985 117.244 371.253C117.244 369.521 118.651 368.149 120.386 368.149Z" fill="url(#paint132_linear_22_1050)"/>
<path d="M120.386 333.968C122.48 333.968 124.149 335.634 124.149 337.726C124.149 339.784 122.48 341.451 120.386 341.451C118.324 341.451 116.655 339.784 116.655 337.726C116.655 335.634 118.324 333.968 120.386 333.968Z" fill="url(#paint133_linear_22_1050)"/>
<path d="M149.508 386.089C150.588 386.089 151.472 386.971 151.472 388.05C151.472 389.128 150.588 390.01 149.508 390.01C148.428 390.01 147.545 389.128 147.545 388.05C147.545 386.971 148.428 386.089 149.508 386.089Z" fill="url(#paint134_linear_22_1050)"/>
<path d="M178.598 369.031C179.842 369.031 180.856 370.011 180.856 371.253C180.856 372.495 179.842 373.508 178.598 373.508C177.355 373.508 176.341 372.495 176.341 371.253C176.341 370.011 177.355 369.031 178.598 369.031Z" fill="url(#paint135_linear_22_1050)"/>
<path d="M178.599 336.124C179.482 336.124 180.202 336.843 180.202 337.726C180.202 338.608 179.482 339.327 178.599 339.327C177.715 339.327 176.995 338.608 176.995 337.726C176.995 336.843 177.715 336.124 178.599 336.124Z" fill="url(#paint136_linear_22_1050)"/>
<path d="M207.689 386.546C208.54 386.546 209.194 387.2 209.194 388.05C209.194 388.867 208.54 389.553 207.689 389.553C206.871 389.553 206.184 388.867 206.184 388.05C206.184 387.2 206.871 386.546 207.689 386.546Z" fill="url(#paint137_linear_22_1050)"/>
<path d="M236.779 368.9C238.121 368.9 239.168 369.946 239.168 371.253C239.168 372.593 238.121 373.639 236.779 373.639C235.47 373.639 234.423 372.593 234.423 371.253C234.423 369.946 235.47 368.9 236.779 368.9Z" fill="url(#paint138_linear_22_1050)"/>
<path d="M236.779 335.013C238.284 335.013 239.495 336.223 239.495 337.726C239.495 339.196 238.284 340.405 236.779 340.405C235.306 340.405 234.096 339.196 234.096 337.726C234.096 336.223 235.306 335.013 236.779 335.013Z" fill="url(#paint139_linear_22_1050)"/>
<path d="M265.902 385.762C267.146 385.762 268.16 386.775 268.16 388.05C268.16 389.291 267.146 390.304 265.902 390.304C264.626 390.304 263.612 389.291 263.612 388.05C263.612 386.775 264.626 385.762 265.902 385.762Z" fill="url(#paint140_linear_22_1050)"/>
<path d="M33.1148 284.363C34.7837 284.363 36.1253 285.703 36.1253 287.369C36.1253 289.068 34.7837 290.408 33.1148 290.408C31.4133 290.408 30.0717 289.068 30.0717 287.369C30.0717 285.703 31.4133 284.363 33.1148 284.363Z" fill="url(#paint141_linear_22_1050)"/>
<path d="M91.2953 322.498C90.4446 322.498 89.7574 321.779 89.7574 320.929C89.7574 320.08 90.4446 319.393 91.2953 319.393C92.1461 319.393 92.866 320.08 92.866 320.929C92.866 321.779 92.1461 322.498 91.2953 322.498Z" fill="url(#paint142_linear_22_1050)"/>
<path d="M91.2952 284.493C92.8986 284.493 94.1748 285.801 94.1748 287.369C94.1748 288.97 92.8986 290.245 91.2952 290.245C89.7245 290.245 88.4156 288.97 88.4156 287.369C88.4156 285.801 89.7245 284.493 91.2952 284.493Z" fill="url(#paint143_linear_22_1050)"/>
<path d="M122.218 270.605C122.218 271.618 121.4 272.435 120.386 272.435C119.404 272.435 118.586 271.618 118.586 270.605C118.586 269.592 119.404 268.775 120.386 268.775C121.4 268.775 122.218 269.592 122.218 270.605Z" fill="url(#paint144_linear_22_1050)"/>
<path d="M149.508 325.177C147.152 325.177 145.255 323.282 145.255 320.929C145.255 318.576 147.152 316.681 149.508 316.681C151.832 316.681 153.762 318.576 153.762 320.929C153.762 323.282 151.832 325.177 149.508 325.177Z" fill="url(#paint145_linear_22_1050)"/>
<path d="M207.689 317.792C209.423 317.792 210.863 319.197 210.863 320.929C210.863 322.661 209.423 324.099 207.689 324.099C205.955 324.099 204.547 322.661 204.547 320.929C204.547 319.197 205.955 317.792 207.689 317.792Z" fill="url(#paint146_linear_22_1050)"/>
<path d="M236.779 267.468C238.513 267.468 239.92 268.873 239.92 270.605C239.92 272.337 238.513 273.742 236.779 273.742C235.045 273.742 233.638 272.337 233.638 270.605C233.638 268.873 235.045 267.468 236.779 267.468Z" fill="url(#paint147_linear_22_1050)"/>
<path d="M207.689 283.677C209.75 283.677 211.386 285.343 211.386 287.369C211.386 289.428 209.75 291.094 207.689 291.094C205.66 291.094 203.991 289.428 203.991 287.369C203.991 285.343 205.66 283.677 207.689 283.677Z" fill="url(#paint148_linear_22_1050)"/>
<path d="M265.902 317.563C267.767 317.563 269.272 319.067 269.272 320.929C269.272 322.792 267.767 324.295 265.902 324.295C264.037 324.295 262.531 322.792 262.531 320.929C262.531 319.067 264.037 317.563 265.902 317.563Z" fill="url(#paint149_linear_22_1050)"/>
<path d="M64.6268 270.605C64.6268 271.945 63.547 273.024 62.2054 273.024C60.8638 273.024 59.7839 271.945 59.7839 270.605C59.7839 269.266 60.8638 268.187 62.2054 268.187C63.547 268.187 64.6268 269.266 64.6268 270.605Z" fill="url(#paint150_linear_22_1050)"/>
<path d="M151.439 287.369C151.439 288.447 150.588 289.33 149.508 289.33C148.428 289.33 147.545 288.447 147.545 287.369C147.545 286.323 148.428 285.441 149.508 285.441C150.588 285.441 151.439 286.323 151.439 287.369Z" fill="url(#paint151_linear_22_1050)"/>
<path d="M178.599 268.514C179.744 268.514 180.693 269.462 180.693 270.605C180.693 271.749 179.744 272.697 178.599 272.697C177.454 272.697 176.505 271.749 176.505 270.605C176.505 269.462 177.454 268.514 178.599 268.514Z" fill="url(#paint152_linear_22_1050)"/>
<path d="M265.902 222.34C264.757 222.34 263.808 221.425 263.808 220.281C263.808 219.138 264.757 218.223 265.902 218.223C267.047 218.223 267.963 219.138 267.963 220.281C267.963 221.425 267.047 222.34 265.902 222.34Z" fill="url(#paint153_linear_22_1050)"/>
<path d="M236.779 239.725C235.306 239.725 234.096 238.548 234.096 237.045C234.096 235.575 235.306 234.366 236.779 234.366C238.284 234.366 239.495 235.575 239.495 237.045C239.495 238.548 238.284 239.725 236.779 239.725Z" fill="url(#paint154_linear_22_1050)"/>
<path d="M265.902 289.951C264.462 289.951 263.317 288.807 263.317 287.369C263.317 285.964 264.462 284.82 265.902 284.82C267.309 284.82 268.454 285.964 268.454 287.369C268.454 288.807 267.309 289.951 265.902 289.951Z" fill="url(#paint155_linear_22_1050)"/>
<path d="M120.386 240.15C118.684 240.15 117.277 238.777 117.277 237.045C117.277 235.346 118.684 233.941 120.386 233.941C122.12 233.941 123.494 235.346 123.494 237.045C123.494 238.777 122.12 240.15 120.386 240.15Z" fill="url(#paint156_linear_22_1050)"/>
<path d="M146.269 220.281C146.269 218.484 147.709 217.046 149.508 217.046C151.275 217.046 152.715 218.484 152.715 220.281C152.715 222.046 151.275 223.484 149.508 223.484C147.709 223.484 146.269 222.046 146.269 220.281Z" fill="url(#paint157_linear_22_1050)"/>
<path d="M178.599 167.997C179.678 167.997 180.562 168.879 180.562 169.958C180.562 171.003 179.678 171.885 178.599 171.885C177.519 171.885 176.635 171.003 176.635 169.958C176.635 168.879 177.519 167.997 178.599 167.997Z" fill="url(#paint158_linear_22_1050)"/>
<path d="M149.508 189.27C148.101 189.27 146.956 188.126 146.956 186.721C146.956 185.316 148.101 184.172 149.508 184.172C150.915 184.172 152.028 185.316 152.028 186.721C152.028 188.126 150.915 189.27 149.508 189.27Z" fill="url(#paint159_linear_22_1050)"/>
<path d="M178.599 234.333C180.104 234.333 181.315 235.542 181.315 237.045C181.315 238.548 180.104 239.757 178.599 239.757C177.093 239.757 175.883 238.548 175.883 237.045C175.883 235.542 177.093 234.333 178.599 234.333Z" fill="url(#paint160_linear_22_1050)"/>
<path d="M207.689 182.865C209.816 182.865 211.55 184.597 211.55 186.721C211.55 188.845 209.816 190.577 207.689 190.577C205.562 190.577 203.828 188.845 203.828 186.721C203.828 184.597 205.562 182.865 207.689 182.865Z" fill="url(#paint161_linear_22_1050)"/>
<path d="M236.779 167.768C237.99 167.768 238.971 168.748 238.971 169.958C238.971 171.134 237.99 172.114 236.779 172.114C235.601 172.114 234.619 171.134 234.619 169.958C234.619 168.748 235.601 167.768 236.779 167.768Z" fill="url(#paint162_linear_22_1050)"/>
<path d="M207.689 216.458C209.816 216.458 211.517 218.157 211.517 220.281C211.517 222.373 209.816 224.072 207.689 224.072C205.595 224.072 203.893 222.373 203.893 220.281C203.893 218.157 205.595 216.458 207.689 216.458Z" fill="url(#paint163_linear_22_1050)"/>
<path d="M265.902 188.453C264.953 188.453 264.168 187.669 264.168 186.721C264.168 185.774 264.953 184.989 265.902 184.989C266.851 184.989 267.636 185.774 267.636 186.721C267.636 187.669 266.851 188.453 265.902 188.453Z" fill="url(#paint164_linear_22_1050)"/>
<path d="M178.599 71.0743C177.617 71.0743 176.799 70.2574 176.799 69.2771C176.799 68.2967 177.617 67.4798 178.599 67.4798C179.58 67.4798 180.398 68.2967 180.398 69.2771C180.398 70.2574 179.58 71.0743 178.599 71.0743Z" fill="url(#paint165_linear_22_1050)"/>
<path d="M178.599 134.306C179.744 134.306 180.693 135.221 180.693 136.397C180.693 137.541 179.744 138.489 178.599 138.489C177.454 138.489 176.505 137.541 176.505 136.397C176.505 135.221 177.454 134.306 178.599 134.306Z" fill="url(#paint166_linear_22_1050)"/>
<path d="M207.689 123.686C205.431 123.686 203.599 121.856 203.599 119.601C203.599 117.346 205.431 115.516 207.689 115.516C209.947 115.516 211.779 117.346 211.779 119.601C211.779 121.856 209.947 123.686 207.689 123.686Z" fill="url(#paint167_linear_22_1050)"/>
<path d="M236.779 134.175C238.022 134.175 239.004 135.156 239.004 136.397C239.004 137.606 238.022 138.619 236.779 138.619C235.568 138.619 234.554 137.606 234.554 136.397C234.554 135.156 235.568 134.175 236.779 134.175Z" fill="url(#paint168_linear_22_1050)"/>
<path d="M265.902 116.268C267.735 116.268 269.24 117.771 269.24 119.601C269.24 121.464 267.735 122.934 265.902 122.934C264.037 122.934 262.564 121.464 262.564 119.601C262.564 117.771 264.037 116.268 265.902 116.268Z" fill="url(#paint169_linear_22_1050)"/>
<path d="M265.902 90.485C263.448 90.485 261.452 88.4916 261.452 86.0408C261.452 83.5899 263.448 81.6293 265.902 81.6293C268.356 81.6293 270.352 83.5899 270.352 86.0408C270.352 88.4916 268.356 90.485 265.902 90.485Z" fill="url(#paint170_linear_22_1050)"/>
<path d="M181.02 35.7169C181.02 37.0566 179.94 38.135 178.599 38.135C177.257 38.135 176.177 37.0566 176.177 35.7169C176.177 34.377 177.257 33.2987 178.599 33.2987C179.94 33.2987 181.02 34.377 181.02 35.7169Z" fill="url(#paint171_linear_22_1050)"/>
<path d="M236.779 66.14C238.546 66.14 239.953 67.5451 239.953 69.2771C239.953 71.009 238.546 72.4141 236.779 72.4141C235.045 72.4141 233.638 71.009 233.638 69.2771C233.638 67.5451 235.045 66.14 236.779 66.14Z" fill="url(#paint172_linear_22_1050)"/>
<path d="M236.779 38.8539C235.045 38.8539 233.638 37.4488 233.638 35.7169C233.638 33.9849 235.045 32.5797 236.779 32.5797C238.513 32.5797 239.92 33.9849 239.92 35.7169C239.92 37.4488 238.513 38.8539 236.779 38.8539Z" fill="url(#paint173_linear_22_1050)"/>
<path d="M149.509 16.4369C150.883 16.4369 151.996 17.5807 151.996 18.9531C151.996 20.3256 150.883 21.4366 149.509 21.4366C148.102 21.4366 146.989 20.3256 146.989 18.9531C146.989 17.5807 148.102 16.4369 149.509 16.4369Z" fill="url(#paint174_linear_22_1050)"/>
<path d="M207.689 16.1755C209.227 16.1755 210.47 17.4173 210.47 18.9531C210.47 20.4563 209.227 21.6981 207.689 21.6981C206.184 21.6981 204.94 20.4563 204.94 18.9531C204.94 17.4173 206.184 16.1755 207.689 16.1755Z" fill="url(#paint175_linear_22_1050)"/>
<rect width="436" height="708" transform="matrix(1 0 0 -1 -19 449.132)" fill="url(#paint176_linear_22_1050)"/>
</g>
<defs>
<linearGradient id="paint0_linear_22_1050" x1="573457" y1="-995547" x2="-73203.4" y2="-378963" gradientUnits="userSpaceOnUse">
<stop stop-color="#52BBE8"/>
<stop offset="1" stop-color="#E1EFF8"/>
</linearGradient>
<linearGradient id="paint1_linear_22_1050" x1="600924" y1="-942757" x2="-45736" y2="-326172" gradientUnits="userSpaceOnUse">
<stop stop-color="#52BBE8"/>
<stop offset="1" stop-color="#E1EFF8"/>
</linearGradient>
<linearGradient id="paint2_linear_22_1050" x1="628364" y1="-889967" x2="-18295.9" y2="-273382" gradientUnits="userSpaceOnUse">
<stop stop-color="#52BBE8"/>
<stop offset="1" stop-color="#E1EFF8"/>
</linearGradient>
<linearGradient id="paint3_linear_22_1050" x1="655804" y1="-837176" x2="9158.47" y2="-220635" gradientUnits="userSpaceOnUse">
<stop stop-color="#52BBE8"/>
<stop offset="1" stop-color="#E1EFF8"/>
</linearGradient>
<linearGradient id="paint4_linear_22_1050" x1="631204" y1="-726643" x2="59950.1" y2="-181971" gradientUnits="userSpaceOnUse">
<stop stop-color="#52BBE8"/>
<stop offset="1" stop-color="#E1EFF8"/>
</linearGradient>
<linearGradient id="paint5_linear_22_1050" x1="558958" y1="-966676" x2="-87701.6" y2="-350092" gradientUnits="userSpaceOnUse">
<stop stop-color="#52BBE8"/>
<stop offset="1" stop-color="#E1EFF8"/>
</linearGradient>
<linearGradient id="paint6_linear_22_1050" x1="586399" y1="-913886" x2="-60261.5" y2="-297301" gradientUnits="userSpaceOnUse">
<stop stop-color="#52BBE8"/>
<stop offset="1" stop-color="#E1EFF8"/>
</linearGradient>
<linearGradient id="paint7_linear_22_1050" x1="613866" y1="-861095" x2="-32794.1" y2="-244511" gradientUnits="userSpaceOnUse">
<stop stop-color="#52BBE8"/>
<stop offset="1" stop-color="#E1EFF8"/>
</linearGradient>
<linearGradient id="paint8_linear_22_1050" x1="641306" y1="-808305" x2="-5354.03" y2="-191720" gradientUnits="userSpaceOnUse">
<stop stop-color="#52BBE8"/>
<stop offset="1" stop-color="#E1EFF8"/>
</linearGradient>
<linearGradient id="paint9_linear_22_1050" x1="555491" y1="-682120" x2="72697.8" y2="-221781" gradientUnits="userSpaceOnUse">
<stop stop-color="#52BBE8"/>
<stop offset="1" stop-color="#E1EFF8"/>
</linearGradient>
<linearGradient id="paint10_linear_22_1050" x1="571900" y1="-885015" x2="-74759.7" y2="-268430" gradientUnits="userSpaceOnUse">
<stop stop-color="#52BBE8"/>
<stop offset="1" stop-color="#E1EFF8"/>
</linearGradient>
<linearGradient id="paint11_linear_22_1050" x1="599340" y1="-832224" x2="-47319.6" y2="-215640" gradientUnits="userSpaceOnUse">
<stop stop-color="#52BBE8"/>
<stop offset="1" stop-color="#E1EFF8"/>
</linearGradient>
<linearGradient id="paint12_linear_22_1050" x1="581320" y1="-738138" x2="10052.1" y2="-193423" gradientUnits="userSpaceOnUse">
<stop stop-color="#52BBE8"/>
<stop offset="1" stop-color="#E1EFF8"/>
</linearGradient>
<linearGradient id="paint13_linear_22_1050" x1="557402" y1="-856143" x2="-89257.9" y2="-239559" gradientUnits="userSpaceOnUse">
<stop stop-color="#52BBE8"/>
<stop offset="1" stop-color="#E1EFF8"/>
</linearGradient>
<linearGradient id="paint14_linear_22_1050" x1="584842" y1="-803353" x2="-61817.8" y2="-186768" gradientUnits="userSpaceOnUse">
<stop stop-color="#52BBE8"/>
<stop offset="1" stop-color="#E1EFF8"/>
</linearGradient>
<linearGradient id="paint15_linear_22_1050" x1="513334" y1="-712893" x2="30555.5" y2="-252597" gradientUnits="userSpaceOnUse">
<stop stop-color="#52BBE8"/>
<stop offset="1" stop-color="#E1EFF8"/>
</linearGradient>
<linearGradient id="paint16_linear_22_1050" x1="542877" y1="-827272" x2="-103783" y2="-210688" gradientUnits="userSpaceOnUse">
<stop stop-color="#52BBE8"/>
<stop offset="1" stop-color="#E1EFF8"/>
</linearGradient>
<linearGradient id="paint17_linear_22_1050" x1="531437" y1="-749634" x2="-39831.5" y2="-204918" gradientUnits="userSpaceOnUse">
<stop stop-color="#52BBE8"/>
<stop offset="1" stop-color="#E1EFF8"/>
</linearGradient>
<linearGradient id="paint18_linear_22_1050" x1="471178" y1="-743709" x2="-11574.9" y2="-283393" gradientUnits="userSpaceOnUse">
<stop stop-color="#52BBE8"/>
<stop offset="1" stop-color="#E1EFF8"/>
</linearGradient>
<linearGradient id="paint19_linear_22_1050" x1="460365" y1="-785004" x2="-109482" y2="-241680" gradientUnits="userSpaceOnUse">
<stop stop-color="#52BBE8"/>
<stop offset="1" stop-color="#E1EFF8"/>
</linearGradient>
<linearGradient id="paint20_linear_22_1050" x1="490317" y1="-738492" x2="-79529.6" y2="-195168" gradientUnits="userSpaceOnUse">
<stop stop-color="#52BBE8"/>
<stop offset="1" stop-color="#E1EFF8"/>
</linearGradient>
<linearGradient id="paint21_linear_22_1050" x1="617743" y1="-820154" x2="54874.5" y2="-283503" gradientUnits="userSpaceOnUse">
<stop stop-color="#52BBE8"/>
<stop offset="1" stop-color="#E1EFF8"/>
</linearGradient>
<linearGradient id="paint22_linear_22_1050" x1="657060" y1="-760289" x2="94203.6" y2="-223574" gradientUnits="userSpaceOnUse">
<stop stop-color="#52BBE8"/>
<stop offset="1" stop-color="#E1EFF8"/>
</linearGradient>
<linearGradient id="paint23_linear_22_1050" x1="654794" y1="-630966" x2="156597" y2="-155909" gradientUnits="userSpaceOnUse">
<stop stop-color="#52BBE8"/>
<stop offset="1" stop-color="#E1EFF8"/>
</linearGradient>
<linearGradient id="paint24_linear_22_1050" x1="621402" y1="-910216" x2="-25258.3" y2="-293631" gradientUnits="userSpaceOnUse">
<stop stop-color="#52BBE8"/>
<stop offset="1" stop-color="#E1EFF8"/>
</linearGradient>
<linearGradient id="paint25_linear_22_1050" x1="657169" y1="-841420" x2="10509.3" y2="-224836" gradientUnits="userSpaceOnUse">
<stop stop-color="#52BBE8"/>
<stop offset="1" stop-color="#E1EFF8"/>
</linearGradient>
<linearGradient id="paint26_linear_22_1050" x1="587436" y1="-691096" x2="77646.3" y2="-205032" gradientUnits="userSpaceOnUse">
<stop stop-color="#52BBE8"/>
<stop offset="1" stop-color="#E1EFF8"/>
</linearGradient>
<linearGradient id="paint27_linear_22_1050" x1="602480" y1="-872547" x2="-44139.1" y2="-255984" gradientUnits="userSpaceOnUse">
<stop stop-color="#52BBE8"/>
<stop offset="1" stop-color="#E1EFF8"/>
</linearGradient>
<linearGradient id="paint28_linear_22_1050" x1="600515" y1="-769839" x2="6701.53" y2="-203642" gradientUnits="userSpaceOnUse">
<stop stop-color="#52BBE8"/>
<stop offset="1" stop-color="#E1EFF8"/>
</linearGradient>
<linearGradient id="paint29_linear_22_1050" x1="529416" y1="-723592" x2="19611.9" y2="-237485" gradientUnits="userSpaceOnUse">
<stop stop-color="#52BBE8"/>
<stop offset="1" stop-color="#E1EFF8"/>
</linearGradient>
<linearGradient id="paint30_linear_22_1050" x1="510003" y1="-828466" x2="-136657" y2="-211881" gradientUnits="userSpaceOnUse">
<stop stop-color="#52BBE8"/>
<stop offset="1" stop-color="#E1EFF8"/>
</linearGradient>
<linearGradient id="paint31_linear_22_1050" x1="455587" y1="-848937" x2="-176925" y2="-245876" gradientUnits="userSpaceOnUse">
<stop stop-color="#52BBE8"/>
<stop offset="1" stop-color="#E1EFF8"/>
</linearGradient>
<linearGradient id="paint32_linear_22_1050" x1="473526" y1="-793405" x2="-145973" y2="-202743" gradientUnits="userSpaceOnUse">
<stop stop-color="#52BBE8"/>
<stop offset="1" stop-color="#E1EFF8"/>
</linearGradient>
<linearGradient id="paint33_linear_22_1050" x1="734056" y1="-1.27069e+06" x2="-2.44881e+06" y2="1.76415e+06" gradientUnits="userSpaceOnUse">
<stop stop-color="#52BBE8"/>
<stop offset="1" stop-color="#E1EFF8"/>
</linearGradient>
<linearGradient id="paint34_linear_22_1050" x1="417826" y1="-897925" x2="-217595" y2="-292080" gradientUnits="userSpaceOnUse">
<stop stop-color="#52BBE8"/>
<stop offset="1" stop-color="#E1EFF8"/>
</linearGradient>
<linearGradient id="paint35_linear_22_1050" x1="454086" y1="-830323" x2="-181336" y2="-224478" gradientUnits="userSpaceOnUse">
<stop stop-color="#52BBE8"/>
<stop offset="1" stop-color="#E1EFF8"/>
</linearGradient>
<linearGradient id="paint36_linear_22_1050" x1="490317" y1="-762721" x2="-145077" y2="-156855" gradientUnits="userSpaceOnUse">
<stop stop-color="#52BBE8"/>
<stop offset="1" stop-color="#E1EFF8"/>
</linearGradient>
<linearGradient id="paint37_linear_22_1050" x1="734056" y1="-1.27064e+06" x2="-2.4487e+06" y2="1.76406e+06" gradientUnits="userSpaceOnUse">
<stop stop-color="#52BBE8"/>
<stop offset="1" stop-color="#E1EFF8"/>
</linearGradient>
<linearGradient id="paint38_linear_22_1050" x1="579600" y1="-935816" x2="-28141.2" y2="-356358" gradientUnits="userSpaceOnUse">
<stop stop-color="#52BBE8"/>
<stop offset="1" stop-color="#E1EFF8"/>
</linearGradient>
<linearGradient id="paint39_linear_22_1050" x1="563382" y1="-935462" x2="-44359.6" y2="-356004" gradientUnits="userSpaceOnUse">
<stop stop-color="#52BBE8"/>
<stop offset="1" stop-color="#E1EFF8"/>
</linearGradient>
<linearGradient id="paint40_linear_22_1050" x1="569143" y1="-911012" x2="-38612.8" y2="-331511" gradientUnits="userSpaceOnUse">
<stop stop-color="#52BBE8"/>
<stop offset="1" stop-color="#E1EFF8"/>
</linearGradient>
<linearGradient id="paint41_linear_22_1050" x1="605566" y1="-907563" x2="-2189.89" y2="-328062" gradientUnits="userSpaceOnUse">
<stop stop-color="#52BBE8"/>
<stop offset="1" stop-color="#E1EFF8"/>
</linearGradient>
<linearGradient id="paint42_linear_22_1050" x1="609989" y1="-884484" x2="2233.28" y2="-304983" gradientUnits="userSpaceOnUse">
<stop stop-color="#52BBE8"/>
<stop offset="1" stop-color="#E1EFF8"/>
</linearGradient>
<linearGradient id="paint43_linear_22_1050" x1="590603" y1="-887402" x2="-17137.9" y2="-307945" gradientUnits="userSpaceOnUse">
<stop stop-color="#52BBE8"/>
<stop offset="1" stop-color="#E1EFF8"/>
</linearGradient>
<linearGradient id="paint44_linear_22_1050" x1="633770" y1="-858487" x2="26014.7" y2="-278986" gradientUnits="userSpaceOnUse">
<stop stop-color="#52BBE8"/>
<stop offset="1" stop-color="#E1EFF8"/>
</linearGradient>
<linearGradient id="paint45_linear_22_1050" x1="637893" y1="-835717" x2="30137.5" y2="-256216" gradientUnits="userSpaceOnUse">
<stop stop-color="#52BBE8"/>
<stop offset="1" stop-color="#E1EFF8"/>
</linearGradient>
<linearGradient id="paint46_linear_22_1050" x1="619600" y1="-837485" x2="11858.5" y2="-258028" gradientUnits="userSpaceOnUse">
<stop stop-color="#52BBE8"/>
<stop offset="1" stop-color="#E1EFF8"/>
</linearGradient>
<linearGradient id="paint47_linear_22_1050" x1="662248" y1="-809145" x2="54466" y2="-229665" gradientUnits="userSpaceOnUse">
<stop stop-color="#52BBE8"/>
<stop offset="1" stop-color="#E1EFF8"/>
</linearGradient>
<linearGradient id="paint48_linear_22_1050" x1="667463" y1="-785181" x2="59721.6" y2="-205724" gradientUnits="userSpaceOnUse">
<stop stop-color="#52BBE8"/>
<stop offset="1" stop-color="#E1EFF8"/>
</linearGradient>
<linearGradient id="paint49_linear_22_1050" x1="650398" y1="-785712" x2="42642.6" y2="-206211" gradientUnits="userSpaceOnUse">
<stop stop-color="#52BBE8"/>
<stop offset="1" stop-color="#E1EFF8"/>
</linearGradient>
<linearGradient id="paint50_linear_22_1050" x1="691381" y1="-759051" x2="83639.5" y2="-179594" gradientUnits="userSpaceOnUse">
<stop stop-color="#52BBE8"/>
<stop offset="1" stop-color="#E1EFF8"/>
</linearGradient>
<linearGradient id="paint51_linear_22_1050" x1="696050" y1="-735751" x2="88294.1" y2="-156250" gradientUnits="userSpaceOnUse">
<stop stop-color="#52BBE8"/>
<stop offset="1" stop-color="#E1EFF8"/>
</linearGradient>
<linearGradient id="paint52_linear_22_1050" x1="678057" y1="-737254" x2="70301.1" y2="-157753" gradientUnits="userSpaceOnUse">
<stop stop-color="#52BBE8"/>
<stop offset="1" stop-color="#E1EFF8"/>
</linearGradient>
<linearGradient id="paint53_linear_22_1050" x1="719367" y1="-710240" x2="111611" y2="-130739" gradientUnits="userSpaceOnUse">
<stop stop-color="#52BBE8"/>
<stop offset="1" stop-color="#E1EFF8"/>
</linearGradient>
<linearGradient id="paint54_linear_22_1050" x1="550686" y1="-912957" x2="-57070.1" y2="-333456" gradientUnits="userSpaceOnUse">
<stop stop-color="#52BBE8"/>
<stop offset="1" stop-color="#E1EFF8"/>
</linearGradient>
<linearGradient id="paint55_linear_22_1050" x1="598549" y1="-860653" x2="-9218.88" y2="-281217" gradientUnits="userSpaceOnUse">
<stop stop-color="#52BBE8"/>
<stop offset="1" stop-color="#E1EFF8"/>
</linearGradient>
<linearGradient id="paint56_linear_22_1050" x1="579573" y1="-863173" x2="-28168.6" y2="-283716" gradientUnits="userSpaceOnUse">
<stop stop-color="#52BBE8"/>
<stop offset="1" stop-color="#E1EFF8"/>
</linearGradient>
<linearGradient id="paint57_linear_22_1050" x1="586098" y1="-837883" x2="-21643" y2="-258426" gradientUnits="userSpaceOnUse">
<stop stop-color="#52BBE8"/>
<stop offset="1" stop-color="#E1EFF8"/>
</linearGradient>
<linearGradient id="paint58_linear_22_1050" x1="624651" y1="-813787" x2="16883.3" y2="-234351" gradientUnits="userSpaceOnUse">
<stop stop-color="#52BBE8"/>
<stop offset="1" stop-color="#E1EFF8"/>
</linearGradient>
<linearGradient id="paint59_linear_22_1050" x1="654412" y1="-763075" x2="46656.2" y2="-183574" gradientUnits="userSpaceOnUse">
<stop stop-color="#52BBE8"/>
<stop offset="1" stop-color="#E1EFF8"/>
</linearGradient>
<linearGradient id="paint60_linear_22_1050" x1="642262" y1="-740040" x2="34506.1" y2="-160539" gradientUnits="userSpaceOnUse">
<stop stop-color="#52BBE8"/>
<stop offset="1" stop-color="#E1EFF8"/>
</linearGradient>
<linearGradient id="paint61_linear_22_1050" x1="636200" y1="-764799" x2="28459" y2="-185342" gradientUnits="userSpaceOnUse">
<stop stop-color="#52BBE8"/>
<stop offset="1" stop-color="#E1EFF8"/>
</linearGradient>
<linearGradient id="paint62_linear_22_1050" x1="682917" y1="-713689" x2="75161.1" y2="-134188" gradientUnits="userSpaceOnUse">
<stop stop-color="#52BBE8"/>
<stop offset="1" stop-color="#E1EFF8"/>
</linearGradient>
<linearGradient id="paint63_linear_22_1050" x1="556802" y1="-888110" x2="-50954" y2="-308609" gradientUnits="userSpaceOnUse">
<stop stop-color="#52BBE8"/>
<stop offset="1" stop-color="#E1EFF8"/>
</linearGradient>
<linearGradient id="paint64_linear_22_1050" x1="609170" y1="-812638" x2="1414.17" y2="-233137" gradientUnits="userSpaceOnUse">
<stop stop-color="#52BBE8"/>
<stop offset="1" stop-color="#E1EFF8"/>
</linearGradient>
<linearGradient id="paint65_linear_22_1050" x1="614549" y1="-788542" x2="6807.3" y2="-209084" gradientUnits="userSpaceOnUse">
<stop stop-color="#52BBE8"/>
<stop offset="1" stop-color="#E1EFF8"/>
</linearGradient>
<linearGradient id="paint66_linear_22_1050" x1="631122" y1="-715899" x2="23366.2" y2="-136398" gradientUnits="userSpaceOnUse">
<stop stop-color="#52BBE8"/>
<stop offset="1" stop-color="#E1EFF8"/>
</linearGradient>
<linearGradient id="paint67_linear_22_1050" x1="625006" y1="-740747" x2="17250.3" y2="-161246" gradientUnits="userSpaceOnUse">
<stop stop-color="#52BBE8"/>
<stop offset="1" stop-color="#E1EFF8"/>
</linearGradient>
<linearGradient id="paint68_linear_22_1050" x1="666016" y1="-714042" x2="58260.2" y2="-134541" gradientUnits="userSpaceOnUse">
<stop stop-color="#52BBE8"/>
<stop offset="1" stop-color="#E1EFF8"/>
</linearGradient>
<linearGradient id="paint69_linear_22_1050" x1="567177" y1="-840404" x2="-40605" y2="-260924" gradientUnits="userSpaceOnUse">
<stop stop-color="#52BBE8"/>
<stop offset="1" stop-color="#E1EFF8"/>
</linearGradient>
<linearGradient id="paint70_linear_22_1050" x1="572556" y1="-816263" x2="-35185.6" y2="-236806" gradientUnits="userSpaceOnUse">
<stop stop-color="#52BBE8"/>
<stop offset="1" stop-color="#E1EFF8"/>
</linearGradient>
<linearGradient id="paint71_linear_22_1050" x1="561634" y1="-791946" x2="-46121.3" y2="-212445" gradientUnits="userSpaceOnUse">
<stop stop-color="#52BBE8"/>
<stop offset="1" stop-color="#E1EFF8"/>
</linearGradient>
<linearGradient id="paint72_linear_22_1050" x1="555546" y1="-816749" x2="-52210" y2="-237249" gradientUnits="userSpaceOnUse">
<stop stop-color="#52BBE8"/>
<stop offset="1" stop-color="#E1EFF8"/>
</linearGradient>
<linearGradient id="paint73_linear_22_1050" x1="596255" y1="-790354" x2="-11486.1" y2="-210897" gradientUnits="userSpaceOnUse">
<stop stop-color="#52BBE8"/>
<stop offset="1" stop-color="#E1EFF8"/>
</linearGradient>
<linearGradient id="paint74_linear_22_1050" x1="582986" y1="-768469" x2="-24769.9" y2="-188968" gradientUnits="userSpaceOnUse">
<stop stop-color="#52BBE8"/>
<stop offset="1" stop-color="#E1EFF8"/>
</linearGradient>
<linearGradient id="paint75_linear_22_1050" x1="590139" y1="-742560" x2="-17642.7" y2="-163080" gradientUnits="userSpaceOnUse">
<stop stop-color="#52BBE8"/>
<stop offset="1" stop-color="#E1EFF8"/>
</linearGradient>
<linearGradient id="paint76_linear_22_1050" x1="600706" y1="-767275" x2="-7049.93" y2="-187774" gradientUnits="userSpaceOnUse">
<stop stop-color="#52BBE8"/>
<stop offset="1" stop-color="#E1EFF8"/>
</linearGradient>
<linearGradient id="paint77_linear_22_1050" x1="613757" y1="-716695" x2="6001.19" y2="-137194" gradientUnits="userSpaceOnUse">
<stop stop-color="#52BBE8"/>
<stop offset="1" stop-color="#E1EFF8"/>
</linearGradient>
<linearGradient id="paint78_linear_22_1050" x1="508720" y1="-795306" x2="-99061.9" y2="-215826" gradientUnits="userSpaceOnUse">
<stop stop-color="#52BBE8"/>
<stop offset="1" stop-color="#E1EFF8"/>
</linearGradient>
<linearGradient id="paint79_linear_22_1050" x1="543805" y1="-793272" x2="-63950.6" y2="-213771" gradientUnits="userSpaceOnUse">
<stop stop-color="#52BBE8"/>
<stop offset="1" stop-color="#E1EFF8"/>
</linearGradient>
<linearGradient id="paint80_linear_22_1050" x1="547382" y1="-771077" x2="-60373.8" y2="-191576" gradientUnits="userSpaceOnUse">
<stop stop-color="#52BBE8"/>
<stop offset="1" stop-color="#E1EFF8"/>
</linearGradient>
<linearGradient id="paint81_linear_22_1050" x1="572392" y1="-743798" x2="-35363.7" y2="-164297" gradientUnits="userSpaceOnUse">
<stop stop-color="#52BBE8"/>
<stop offset="1" stop-color="#E1EFF8"/>
</linearGradient>
<linearGradient id="paint82_linear_22_1050" x1="576842" y1="-720674" x2="-30898.9" y2="-141217" gradientUnits="userSpaceOnUse">
<stop stop-color="#52BBE8"/>
<stop offset="1" stop-color="#E1EFF8"/>
</linearGradient>
<linearGradient id="paint83_linear_22_1050" x1="558058" y1="-722973" x2="-49683.8" y2="-143516" gradientUnits="userSpaceOnUse">
<stop stop-color="#52BBE8"/>
<stop offset="1" stop-color="#E1EFF8"/>
</linearGradient>
<linearGradient id="paint84_linear_22_1050" x1="490427" y1="-797119" x2="-117329" y2="-217618" gradientUnits="userSpaceOnUse">
<stop stop-color="#52BBE8"/>
<stop offset="1" stop-color="#E1EFF8"/>
</linearGradient>
<linearGradient id="paint85_linear_22_1050" x1="536105" y1="-747070" x2="-71650.2" y2="-167569" gradientUnits="userSpaceOnUse">
<stop stop-color="#52BBE8"/>
<stop offset="1" stop-color="#E1EFF8"/>
</linearGradient>
<linearGradient id="paint86_linear_22_1050" x1="518440" y1="-748219" x2="-89301.2" y2="-168762" gradientUnits="userSpaceOnUse">
<stop stop-color="#52BBE8"/>
<stop offset="1" stop-color="#E1EFF8"/>
</linearGradient>
<linearGradient id="paint87_linear_22_1050" x1="467137" y1="-822586" x2="-140619" y2="-243085" gradientUnits="userSpaceOnUse">
<stop stop-color="#52BBE8"/>
<stop offset="1" stop-color="#E1EFF8"/>
</linearGradient>
<linearGradient id="paint88_linear_22_1050" x1="10242.6" y1="-9642.24" x2="3311.23" y2="1074.62" gradientUnits="userSpaceOnUse">
<stop stop-color="#52BBE8"/>
<stop offset="1" stop-color="#E1EFF8"/>
</linearGradient>
<linearGradient id="paint89_linear_22_1050" x1="573457" y1="-995547" x2="-73203.4" y2="-378963" gradientUnits="userSpaceOnUse">
<stop stop-color="#52BBE8"/>
<stop offset="1" stop-color="#E1EFF8"/>
</linearGradient>
<linearGradient id="paint90_linear_22_1050" x1="600924" y1="-942757" x2="-45736" y2="-326172" gradientUnits="userSpaceOnUse">
<stop stop-color="#52BBE8"/>
<stop offset="1" stop-color="#E1EFF8"/>
</linearGradient>
<linearGradient id="paint91_linear_22_1050" x1="628364" y1="-889967" x2="-18295.9" y2="-273382" gradientUnits="userSpaceOnUse">
<stop stop-color="#52BBE8"/>
<stop offset="1" stop-color="#E1EFF8"/>
</linearGradient>
<linearGradient id="paint92_linear_22_1050" x1="655804" y1="-837176" x2="9158.47" y2="-220635" gradientUnits="userSpaceOnUse">
<stop stop-color="#52BBE8"/>
<stop offset="1" stop-color="#E1EFF8"/>
</linearGradient>
<linearGradient id="paint93_linear_22_1050" x1="631204" y1="-726643" x2="59950.1" y2="-181971" gradientUnits="userSpaceOnUse">
<stop stop-color="#52BBE8"/>
<stop offset="1" stop-color="#E1EFF8"/>
</linearGradient>
<linearGradient id="paint94_linear_22_1050" x1="558958" y1="-966676" x2="-87701.6" y2="-350092" gradientUnits="userSpaceOnUse">
<stop stop-color="#52BBE8"/>
<stop offset="1" stop-color="#E1EFF8"/>
</linearGradient>
<linearGradient id="paint95_linear_22_1050" x1="586399" y1="-913886" x2="-60261.5" y2="-297301" gradientUnits="userSpaceOnUse">
<stop stop-color="#52BBE8"/>
<stop offset="1" stop-color="#E1EFF8"/>
</linearGradient>
<linearGradient id="paint96_linear_22_1050" x1="613866" y1="-861095" x2="-32794.1" y2="-244511" gradientUnits="userSpaceOnUse">
<stop stop-color="#52BBE8"/>
<stop offset="1" stop-color="#E1EFF8"/>
</linearGradient>
<linearGradient id="paint97_linear_22_1050" x1="641306" y1="-808305" x2="-5354.03" y2="-191720" gradientUnits="userSpaceOnUse">
<stop stop-color="#52BBE8"/>
<stop offset="1" stop-color="#E1EFF8"/>
</linearGradient>
<linearGradient id="paint98_linear_22_1050" x1="555491" y1="-682120" x2="72697.8" y2="-221781" gradientUnits="userSpaceOnUse">
<stop stop-color="#52BBE8"/>
<stop offset="1" stop-color="#E1EFF8"/>
</linearGradient>
<linearGradient id="paint99_linear_22_1050" x1="571900" y1="-885015" x2="-74759.7" y2="-268430" gradientUnits="userSpaceOnUse">
<stop stop-color="#52BBE8"/>
<stop offset="1" stop-color="#E1EFF8"/>
</linearGradient>
<linearGradient id="paint100_linear_22_1050" x1="599340" y1="-832224" x2="-47319.6" y2="-215640" gradientUnits="userSpaceOnUse">
<stop stop-color="#52BBE8"/>
<stop offset="1" stop-color="#E1EFF8"/>
</linearGradient>
<linearGradient id="paint101_linear_22_1050" x1="581320" y1="-738138" x2="10052.1" y2="-193423" gradientUnits="userSpaceOnUse">
<stop stop-color="#52BBE8"/>
<stop offset="1" stop-color="#E1EFF8"/>
</linearGradient>
<linearGradient id="paint102_linear_22_1050" x1="557402" y1="-856143" x2="-89257.9" y2="-239559" gradientUnits="userSpaceOnUse">
<stop stop-color="#52BBE8"/>
<stop offset="1" stop-color="#E1EFF8"/>
</linearGradient>
<linearGradient id="paint103_linear_22_1050" x1="584842" y1="-803353" x2="-61817.8" y2="-186768" gradientUnits="userSpaceOnUse">
<stop stop-color="#52BBE8"/>
<stop offset="1" stop-color="#E1EFF8"/>
</linearGradient>
<linearGradient id="paint104_linear_22_1050" x1="513334" y1="-712893" x2="30555.5" y2="-252597" gradientUnits="userSpaceOnUse">
<stop stop-color="#52BBE8"/>
<stop offset="1" stop-color="#E1EFF8"/>
</linearGradient>
<linearGradient id="paint105_linear_22_1050" x1="542877" y1="-827272" x2="-103783" y2="-210688" gradientUnits="userSpaceOnUse">
<stop stop-color="#52BBE8"/>
<stop offset="1" stop-color="#E1EFF8"/>
</linearGradient>
<linearGradient id="paint106_linear_22_1050" x1="531437" y1="-749634" x2="-39831.5" y2="-204918" gradientUnits="userSpaceOnUse">
<stop stop-color="#52BBE8"/>
<stop offset="1" stop-color="#E1EFF8"/>
</linearGradient>
<linearGradient id="paint107_linear_22_1050" x1="471178" y1="-743709" x2="-11574.9" y2="-283393" gradientUnits="userSpaceOnUse">
<stop stop-color="#52BBE8"/>
<stop offset="1" stop-color="#E1EFF8"/>
</linearGradient>
<linearGradient id="paint108_linear_22_1050" x1="460365" y1="-785004" x2="-109482" y2="-241680" gradientUnits="userSpaceOnUse">
<stop stop-color="#52BBE8"/>
<stop offset="1" stop-color="#E1EFF8"/>
</linearGradient>
<linearGradient id="paint109_linear_22_1050" x1="490317" y1="-738492" x2="-79529.6" y2="-195168" gradientUnits="userSpaceOnUse">
<stop stop-color="#52BBE8"/>
<stop offset="1" stop-color="#E1EFF8"/>
</linearGradient>
<linearGradient id="paint110_linear_22_1050" x1="617743" y1="-820154" x2="54874.5" y2="-283503" gradientUnits="userSpaceOnUse">
<stop stop-color="#52BBE8"/>
<stop offset="1" stop-color="#E1EFF8"/>
</linearGradient>
<linearGradient id="paint111_linear_22_1050" x1="657060" y1="-760289" x2="94203.6" y2="-223574" gradientUnits="userSpaceOnUse">
<stop stop-color="#52BBE8"/>
<stop offset="1" stop-color="#E1EFF8"/>
</linearGradient>
<linearGradient id="paint112_linear_22_1050" x1="654794" y1="-630966" x2="156597" y2="-155909" gradientUnits="userSpaceOnUse">
<stop stop-color="#52BBE8"/>
<stop offset="1" stop-color="#E1EFF8"/>
</linearGradient>
<linearGradient id="paint113_linear_22_1050" x1="621402" y1="-910216" x2="-25258.3" y2="-293631" gradientUnits="userSpaceOnUse">
<stop stop-color="#52BBE8"/>
<stop offset="1" stop-color="#E1EFF8"/>
</linearGradient>
<linearGradient id="paint114_linear_22_1050" x1="657169" y1="-841420" x2="10509.3" y2="-224836" gradientUnits="userSpaceOnUse">
<stop stop-color="#52BBE8"/>
<stop offset="1" stop-color="#E1EFF8"/>
</linearGradient>
<linearGradient id="paint115_linear_22_1050" x1="587436" y1="-691096" x2="77646.3" y2="-205032" gradientUnits="userSpaceOnUse">
<stop stop-color="#52BBE8"/>
<stop offset="1" stop-color="#E1EFF8"/>
</linearGradient>
<linearGradient id="paint116_linear_22_1050" x1="602480" y1="-872547" x2="-44139.1" y2="-255984" gradientUnits="userSpaceOnUse">
<stop stop-color="#52BBE8"/>
<stop offset="1" stop-color="#E1EFF8"/>
</linearGradient>
<linearGradient id="paint117_linear_22_1050" x1="600515" y1="-769839" x2="6701.53" y2="-203642" gradientUnits="userSpaceOnUse">
<stop stop-color="#52BBE8"/>
<stop offset="1" stop-color="#E1EFF8"/>
</linearGradient>
<linearGradient id="paint118_linear_22_1050" x1="529416" y1="-723592" x2="19611.9" y2="-237485" gradientUnits="userSpaceOnUse">
<stop stop-color="#52BBE8"/>
<stop offset="1" stop-color="#E1EFF8"/>
</linearGradient>
<linearGradient id="paint119_linear_22_1050" x1="510003" y1="-828466" x2="-136657" y2="-211881" gradientUnits="userSpaceOnUse">
<stop stop-color="#52BBE8"/>
<stop offset="1" stop-color="#E1EFF8"/>
</linearGradient>
<linearGradient id="paint120_linear_22_1050" x1="455587" y1="-848937" x2="-176925" y2="-245876" gradientUnits="userSpaceOnUse">
<stop stop-color="#52BBE8"/>
<stop offset="1" stop-color="#E1EFF8"/>
</linearGradient>
<linearGradient id="paint121_linear_22_1050" x1="473526" y1="-793405" x2="-145973" y2="-202743" gradientUnits="userSpaceOnUse">
<stop stop-color="#52BBE8"/>
<stop offset="1" stop-color="#E1EFF8"/>
</linearGradient>
<linearGradient id="paint122_linear_22_1050" x1="734056" y1="-1.27069e+06" x2="-2.44881e+06" y2="1.76415e+06" gradientUnits="userSpaceOnUse">
<stop stop-color="#52BBE8"/>
<stop offset="1" stop-color="#E1EFF8"/>
</linearGradient>
<linearGradient id="paint123_linear_22_1050" x1="490317" y1="-762721" x2="-145077" y2="-156855" gradientUnits="userSpaceOnUse">
<stop stop-color="#52BBE8"/>
<stop offset="1" stop-color="#E1EFF8"/>
</linearGradient>
<linearGradient id="paint124_linear_22_1050" x1="734056" y1="-1.27064e+06" x2="-2.4487e+06" y2="1.76406e+06" gradientUnits="userSpaceOnUse">
<stop stop-color="#52BBE8"/>
<stop offset="1" stop-color="#E1EFF8"/>
</linearGradient>
<linearGradient id="paint125_linear_22_1050" x1="579600" y1="-935816" x2="-28141.2" y2="-356358" gradientUnits="userSpaceOnUse">
<stop stop-color="#52BBE8"/>
<stop offset="1" stop-color="#E1EFF8"/>
</linearGradient>
<linearGradient id="paint126_linear_22_1050" x1="563382" y1="-935462" x2="-44359.6" y2="-356004" gradientUnits="userSpaceOnUse">
<stop stop-color="#52BBE8"/>
<stop offset="1" stop-color="#E1EFF8"/>
</linearGradient>
<linearGradient id="paint127_linear_22_1050" x1="569143" y1="-911012" x2="-38612.8" y2="-331511" gradientUnits="userSpaceOnUse">
<stop stop-color="#52BBE8"/>
<stop offset="1" stop-color="#E1EFF8"/>
</linearGradient>
<linearGradient id="paint128_linear_22_1050" x1="605566" y1="-907563" x2="-2189.89" y2="-328062" gradientUnits="userSpaceOnUse">
<stop stop-color="#52BBE8"/>
<stop offset="1" stop-color="#E1EFF8"/>
</linearGradient>
<linearGradient id="paint129_linear_22_1050" x1="609989" y1="-884484" x2="2233.28" y2="-304983" gradientUnits="userSpaceOnUse">
<stop stop-color="#52BBE8"/>
<stop offset="1" stop-color="#E1EFF8"/>
</linearGradient>
<linearGradient id="paint130_linear_22_1050" x1="590603" y1="-887402" x2="-17137.9" y2="-307945" gradientUnits="userSpaceOnUse">
<stop stop-color="#52BBE8"/>
<stop offset="1" stop-color="#E1EFF8"/>
</linearGradient>
<linearGradient id="paint131_linear_22_1050" x1="633770" y1="-858487" x2="26014.7" y2="-278986" gradientUnits="userSpaceOnUse">
<stop stop-color="#52BBE8"/>
<stop offset="1" stop-color="#E1EFF8"/>
</linearGradient>
<linearGradient id="paint132_linear_22_1050" x1="637893" y1="-835717" x2="30137.5" y2="-256216" gradientUnits="userSpaceOnUse">
<stop stop-color="#52BBE8"/>
<stop offset="1" stop-color="#E1EFF8"/>
</linearGradient>
<linearGradient id="paint133_linear_22_1050" x1="619600" y1="-837485" x2="11858.5" y2="-258028" gradientUnits="userSpaceOnUse">
<stop stop-color="#52BBE8"/>
<stop offset="1" stop-color="#E1EFF8"/>
</linearGradient>
<linearGradient id="paint134_linear_22_1050" x1="662248" y1="-809145" x2="54466" y2="-229665" gradientUnits="userSpaceOnUse">
<stop stop-color="#52BBE8"/>
<stop offset="1" stop-color="#E1EFF8"/>
</linearGradient>
<linearGradient id="paint135_linear_22_1050" x1="667463" y1="-785181" x2="59721.6" y2="-205724" gradientUnits="userSpaceOnUse">
<stop stop-color="#52BBE8"/>
<stop offset="1" stop-color="#E1EFF8"/>
</linearGradient>
<linearGradient id="paint136_linear_22_1050" x1="650398" y1="-785712" x2="42642.6" y2="-206211" gradientUnits="userSpaceOnUse">
<stop stop-color="#52BBE8"/>
<stop offset="1" stop-color="#E1EFF8"/>
</linearGradient>
<linearGradient id="paint137_linear_22_1050" x1="691381" y1="-759051" x2="83639.5" y2="-179594" gradientUnits="userSpaceOnUse">
<stop stop-color="#52BBE8"/>
<stop offset="1" stop-color="#E1EFF8"/>
</linearGradient>
<linearGradient id="paint138_linear_22_1050" x1="696050" y1="-735751" x2="88294.1" y2="-156250" gradientUnits="userSpaceOnUse">
<stop stop-color="#52BBE8"/>
<stop offset="1" stop-color="#E1EFF8"/>
</linearGradient>
<linearGradient id="paint139_linear_22_1050" x1="678057" y1="-737254" x2="70301.1" y2="-157753" gradientUnits="userSpaceOnUse">
<stop stop-color="#52BBE8"/>
<stop offset="1" stop-color="#E1EFF8"/>
</linearGradient>
<linearGradient id="paint140_linear_22_1050" x1="719367" y1="-710240" x2="111611" y2="-130739" gradientUnits="userSpaceOnUse">
<stop stop-color="#52BBE8"/>
<stop offset="1" stop-color="#E1EFF8"/>
</linearGradient>
<linearGradient id="paint141_linear_22_1050" x1="550686" y1="-912957" x2="-57070.1" y2="-333456" gradientUnits="userSpaceOnUse">
<stop stop-color="#52BBE8"/>
<stop offset="1" stop-color="#E1EFF8"/>
</linearGradient>
<linearGradient id="paint142_linear_22_1050" x1="598549" y1="-860653" x2="-9218.88" y2="-281217" gradientUnits="userSpaceOnUse">
<stop stop-color="#52BBE8"/>
<stop offset="1" stop-color="#E1EFF8"/>
</linearGradient>
<linearGradient id="paint143_linear_22_1050" x1="579573" y1="-863173" x2="-28168.6" y2="-283716" gradientUnits="userSpaceOnUse">
<stop stop-color="#52BBE8"/>
<stop offset="1" stop-color="#E1EFF8"/>
</linearGradient>
<linearGradient id="paint144_linear_22_1050" x1="586098" y1="-837883" x2="-21643" y2="-258426" gradientUnits="userSpaceOnUse">
<stop stop-color="#52BBE8"/>
<stop offset="1" stop-color="#E1EFF8"/>
</linearGradient>
<linearGradient id="paint145_linear_22_1050" x1="624651" y1="-813787" x2="16883.3" y2="-234351" gradientUnits="userSpaceOnUse">
<stop stop-color="#52BBE8"/>
<stop offset="1" stop-color="#E1EFF8"/>
</linearGradient>
<linearGradient id="paint146_linear_22_1050" x1="654412" y1="-763075" x2="46656.2" y2="-183574" gradientUnits="userSpaceOnUse">
<stop stop-color="#52BBE8"/>
<stop offset="1" stop-color="#E1EFF8"/>
</linearGradient>
<linearGradient id="paint147_linear_22_1050" x1="642262" y1="-740040" x2="34506.1" y2="-160539" gradientUnits="userSpaceOnUse">
<stop stop-color="#52BBE8"/>
<stop offset="1" stop-color="#E1EFF8"/>
</linearGradient>
<linearGradient id="paint148_linear_22_1050" x1="636200" y1="-764799" x2="28459" y2="-185342" gradientUnits="userSpaceOnUse">
<stop stop-color="#52BBE8"/>
<stop offset="1" stop-color="#E1EFF8"/>
</linearGradient>
<linearGradient id="paint149_linear_22_1050" x1="682917" y1="-713689" x2="75161.1" y2="-134188" gradientUnits="userSpaceOnUse">
<stop stop-color="#52BBE8"/>
<stop offset="1" stop-color="#E1EFF8"/>
</linearGradient>
<linearGradient id="paint150_linear_22_1050" x1="556802" y1="-888110" x2="-50954" y2="-308609" gradientUnits="userSpaceOnUse">
<stop stop-color="#52BBE8"/>
<stop offset="1" stop-color="#E1EFF8"/>
</linearGradient>
<linearGradient id="paint151_linear_22_1050" x1="609170" y1="-812638" x2="1414.17" y2="-233137" gradientUnits="userSpaceOnUse">
<stop stop-color="#52BBE8"/>
<stop offset="1" stop-color="#E1EFF8"/>
</linearGradient>
<linearGradient id="paint152_linear_22_1050" x1="614549" y1="-788542" x2="6807.3" y2="-209084" gradientUnits="userSpaceOnUse">
<stop stop-color="#52BBE8"/>
<stop offset="1" stop-color="#E1EFF8"/>
</linearGradient>
<linearGradient id="paint153_linear_22_1050" x1="631122" y1="-715899" x2="23366.2" y2="-136398" gradientUnits="userSpaceOnUse">
<stop stop-color="#52BBE8"/>
<stop offset="1" stop-color="#E1EFF8"/>
</linearGradient>
<linearGradient id="paint154_linear_22_1050" x1="625006" y1="-740747" x2="17250.3" y2="-161246" gradientUnits="userSpaceOnUse">
<stop stop-color="#52BBE8"/>
<stop offset="1" stop-color="#E1EFF8"/>
</linearGradient>
<linearGradient id="paint155_linear_22_1050" x1="666016" y1="-714042" x2="58260.2" y2="-134541" gradientUnits="userSpaceOnUse">
<stop stop-color="#52BBE8"/>
<stop offset="1" stop-color="#E1EFF8"/>
</linearGradient>
<linearGradient id="paint156_linear_22_1050" x1="567177" y1="-840404" x2="-40605" y2="-260924" gradientUnits="userSpaceOnUse">
<stop stop-color="#52BBE8"/>
<stop offset="1" stop-color="#E1EFF8"/>
</linearGradient>
<linearGradient id="paint157_linear_22_1050" x1="572556" y1="-816263" x2="-35185.6" y2="-236806" gradientUnits="userSpaceOnUse">
<stop stop-color="#52BBE8"/>
<stop offset="1" stop-color="#E1EFF8"/>
</linearGradient>
<linearGradient id="paint158_linear_22_1050" x1="561634" y1="-791946" x2="-46121.3" y2="-212445" gradientUnits="userSpaceOnUse">
<stop stop-color="#52BBE8"/>
<stop offset="1" stop-color="#E1EFF8"/>
</linearGradient>
<linearGradient id="paint159_linear_22_1050" x1="555546" y1="-816749" x2="-52210" y2="-237249" gradientUnits="userSpaceOnUse">
<stop stop-color="#52BBE8"/>
<stop offset="1" stop-color="#E1EFF8"/>
</linearGradient>
<linearGradient id="paint160_linear_22_1050" x1="596255" y1="-790354" x2="-11486.1" y2="-210897" gradientUnits="userSpaceOnUse">
<stop stop-color="#52BBE8"/>
<stop offset="1" stop-color="#E1EFF8"/>
</linearGradient>
<linearGradient id="paint161_linear_22_1050" x1="582986" y1="-768469" x2="-24769.9" y2="-188968" gradientUnits="userSpaceOnUse">
<stop stop-color="#52BBE8"/>
<stop offset="1" stop-color="#E1EFF8"/>
</linearGradient>
<linearGradient id="paint162_linear_22_1050" x1="590139" y1="-742560" x2="-17642.7" y2="-163080" gradientUnits="userSpaceOnUse">
<stop stop-color="#52BBE8"/>
<stop offset="1" stop-color="#E1EFF8"/>
</linearGradient>
<linearGradient id="paint163_linear_22_1050" x1="600706" y1="-767275" x2="-7049.93" y2="-187774" gradientUnits="userSpaceOnUse">
<stop stop-color="#52BBE8"/>
<stop offset="1" stop-color="#E1EFF8"/>
</linearGradient>
<linearGradient id="paint164_linear_22_1050" x1="613757" y1="-716695" x2="6001.19" y2="-137194" gradientUnits="userSpaceOnUse">
<stop stop-color="#52BBE8"/>
<stop offset="1" stop-color="#E1EFF8"/>
</linearGradient>
<linearGradient id="paint165_linear_22_1050" x1="508720" y1="-795306" x2="-99061.9" y2="-215826" gradientUnits="userSpaceOnUse">
<stop stop-color="#52BBE8"/>
<stop offset="1" stop-color="#E1EFF8"/>
</linearGradient>
<linearGradient id="paint166_linear_22_1050" x1="543805" y1="-793272" x2="-63950.6" y2="-213771" gradientUnits="userSpaceOnUse">
<stop stop-color="#52BBE8"/>
<stop offset="1" stop-color="#E1EFF8"/>
</linearGradient>
<linearGradient id="paint167_linear_22_1050" x1="547382" y1="-771077" x2="-60373.8" y2="-191576" gradientUnits="userSpaceOnUse">
<stop stop-color="#52BBE8"/>
<stop offset="1" stop-color="#E1EFF8"/>
</linearGradient>
<linearGradient id="paint168_linear_22_1050" x1="572392" y1="-743798" x2="-35363.7" y2="-164297" gradientUnits="userSpaceOnUse">
<stop stop-color="#52BBE8"/>
<stop offset="1" stop-color="#E1EFF8"/>
</linearGradient>
<linearGradient id="paint169_linear_22_1050" x1="576842" y1="-720674" x2="-30898.9" y2="-141217" gradientUnits="userSpaceOnUse">
<stop stop-color="#52BBE8"/>
<stop offset="1" stop-color="#E1EFF8"/>
</linearGradient>
<linearGradient id="paint170_linear_22_1050" x1="558058" y1="-722973" x2="-49683.8" y2="-143516" gradientUnits="userSpaceOnUse">
<stop stop-color="#52BBE8"/>
<stop offset="1" stop-color="#E1EFF8"/>
</linearGradient>
<linearGradient id="paint171_linear_22_1050" x1="490427" y1="-797119" x2="-117329" y2="-217618" gradientUnits="userSpaceOnUse">
<stop stop-color="#52BBE8"/>
<stop offset="1" stop-color="#E1EFF8"/>
</linearGradient>
<linearGradient id="paint172_linear_22_1050" x1="536105" y1="-747070" x2="-71650.2" y2="-167569" gradientUnits="userSpaceOnUse">
<stop stop-color="#52BBE8"/>
<stop offset="1" stop-color="#E1EFF8"/>
</linearGradient>
<linearGradient id="paint173_linear_22_1050" x1="518440" y1="-748219" x2="-89301.2" y2="-168762" gradientUnits="userSpaceOnUse">
<stop stop-color="#52BBE8"/>
<stop offset="1" stop-color="#E1EFF8"/>
</linearGradient>
<linearGradient id="paint174_linear_22_1050" x1="467137" y1="-822586" x2="-140619" y2="-243085" gradientUnits="userSpaceOnUse">
<stop stop-color="#52BBE8"/>
<stop offset="1" stop-color="#E1EFF8"/>
</linearGradient>
<linearGradient id="paint175_linear_22_1050" x1="10242.6" y1="-9642.24" x2="3311.23" y2="1074.62" gradientUnits="userSpaceOnUse">
<stop stop-color="#52BBE8"/>
<stop offset="1" stop-color="#E1EFF8"/>
</linearGradient>
<linearGradient id="paint176_linear_22_1050" x1="218" y1="0" x2="218" y2="554" gradientUnits="userSpaceOnUse">
<stop stop-color="#FFF3CD"/>
<stop offset="1" stop-color="white" stop-opacity="0"/>
</linearGradient>
</defs>
</svg>
