<svg width="403" height="668" viewBox="0 0 403 668" fill="none" xmlns="http://www.w3.org/2000/svg">
<mask id="mask0_20_21" style="mask-type:alpha" maskUnits="userSpaceOnUse" x="-164" y="32" width="527" height="618">
<path fill-rule="evenodd" clip-rule="evenodd" d="M294.114 278.686L294.209 278.687L337.518 276.223L357.046 237.379L357.027 237.322L333.133 201.073L333.039 201.073L289.73 203.537L270.202 242.381L270.258 242.457L294.114 278.686ZM337.348 275.902L294.285 278.348L270.598 242.344L289.956 203.839L332.982 201.374L356.706 237.397L337.348 275.902Z" fill="url(#paint0_linear_20_21)"/>
<path fill-rule="evenodd" clip-rule="evenodd" d="M227.099 244.996L227.194 244.996L270.503 242.532L290.031 203.688L289.974 203.613L266.118 167.383L266.024 167.382L222.715 169.846L203.187 208.691L203.243 208.766L227.099 244.996ZM270.296 242.193L227.27 244.657L203.545 208.635L222.903 170.129L265.967 167.684L289.654 203.687L270.296 242.193Z" fill="url(#paint1_linear_20_21)"/>
<path fill-rule="evenodd" clip-rule="evenodd" d="M160.048 211.287L160.142 211.287L203.451 208.823L222.979 169.979L222.96 169.923L199.066 133.674L198.972 133.673L155.663 136.137L136.135 174.982L136.191 175.057L160.048 211.287ZM203.282 208.503L160.218 210.948L136.531 174.945L155.889 136.439L198.915 133.975L222.64 169.997L203.282 208.503Z" fill="url(#paint2_linear_20_21)"/>
<path fill-rule="evenodd" clip-rule="evenodd" d="M93.033 177.597L93.1273 177.597L136.436 175.133L155.964 136.289L155.908 136.213L132.052 99.9835L131.957 99.9832L88.6483 102.447L69.1201 141.291L69.1766 141.367L93.033 177.597ZM136.229 174.793L93.2033 177.258L69.4785 141.236L88.8364 102.73L131.9 100.285L155.587 136.288L136.229 174.793Z" fill="url(#paint3_linear_20_21)"/>
<path d="M20.3187 134.675L26.151 143.549L69.2147 141.103L88.5537 102.635L64.8289 66.613L54.2281 67.2249L54.3984 66.8861L64.9049 66.274L64.9992 66.2742L88.8934 102.523L88.9122 102.58L69.384 141.424L26.075 143.888L25.9807 143.887L20.1484 135.014L20.3187 134.675Z" fill="url(#paint4_linear_20_21)"/>
<path fill-rule="evenodd" clip-rule="evenodd" d="M231.466 319.806L231.56 319.807L274.869 317.343L294.379 278.536L294.341 278.423L270.485 242.193L270.39 242.193L227.062 244.694L207.553 283.501L207.61 283.577L231.466 319.806ZM274.662 317.003L231.636 319.468L207.949 283.464L227.307 244.959L270.333 242.494L294.02 278.498L274.662 317.003Z" fill="url(#paint5_linear_20_21)"/>
<path fill-rule="evenodd" clip-rule="evenodd" d="M164.452 286.116L164.546 286.116L207.855 283.653L227.364 244.846L227.327 244.733L203.47 208.503L203.376 208.503L160.01 210.985L140.501 249.792L140.557 249.867L164.452 286.116ZM207.686 283.332L164.622 285.777L140.935 249.774L160.293 211.269L203.319 208.804L227.043 244.826L207.686 283.332Z" fill="url(#paint6_linear_20_21)"/>
<path fill-rule="evenodd" clip-rule="evenodd" d="M97.3993 252.407L97.4936 252.407L140.802 249.943L160.312 211.137L160.274 211.024L136.418 174.794L136.323 174.793L92.9956 177.295L73.4863 216.102L73.5428 216.177L97.3993 252.407ZM140.596 249.604L97.5696 252.068L73.8448 216.046L93.2027 177.541L136.266 175.095L159.953 211.098L140.596 249.604Z" fill="url(#paint7_linear_20_21)"/>
<path fill-rule="evenodd" clip-rule="evenodd" d="M30.3846 218.717L30.479 218.717L73.7879 216.253L93.2972 177.447L93.2596 177.333L69.4031 141.103L69.3089 141.103L25.9433 143.586L6.43401 182.392L6.49049 182.468L30.3846 218.717ZM73.6187 215.932L30.5549 218.378L6.86786 182.375L26.2257 143.869L69.2518 141.405L92.9765 177.427L73.6187 215.932Z" fill="url(#paint8_linear_20_21)"/>
<path d="M-3.88357 182.817L6.52868 182.204L25.8676 143.736L20.1484 135.014L20.3187 134.675L26.2074 143.624L26.2449 143.737L6.73562 182.544L-4.05388 183.155L-3.88357 182.817Z" fill="url(#paint9_linear_20_21)"/>
<path fill-rule="evenodd" clip-rule="evenodd" d="M101.747 327.255L101.841 327.255L145.169 324.754L164.678 285.947L164.66 285.891L140.784 249.604L140.69 249.604L97.3622 252.105L77.853 290.912L77.9094 290.988L101.747 327.255ZM144.981 324.471L101.917 326.916L78.2302 290.913L97.5691 252.445L140.595 249.981L164.32 286.003L144.981 324.471Z" fill="url(#paint10_linear_20_21)"/>
<path fill-rule="evenodd" clip-rule="evenodd" d="M34.7323 293.565L34.8266 293.565L78.1545 291.064L97.6638 252.257L97.6073 252.181L73.7698 215.914L73.6755 215.914L30.3476 218.415L10.8383 257.222L10.8948 257.297L34.7323 293.565ZM77.9287 290.761L34.9026 293.226L11.1779 257.204L30.5168 218.736L73.5805 216.29L97.2676 252.294L77.9287 290.761Z" fill="url(#paint11_linear_20_21)"/>
<path d="M-37.982 250.643L-32.1496 259.517L10.9141 257.071L30.2719 218.566L6.54717 182.543L-4.05388 183.155L-3.88357 182.817L6.6232 182.204L6.71748 182.205L30.5927 218.491L30.6115 218.548L11.1022 257.354L-32.2256 259.856L-32.32 259.856L-38.1523 250.982L-37.982 250.643Z" fill="url(#paint12_linear_20_21)"/>
<path fill-rule="evenodd" clip-rule="evenodd" d="M39.0985 368.375L39.1928 368.375L82.5207 365.874L102.03 327.067L101.974 326.992L78.136 290.724L78.0416 290.724L34.7138 293.225L15.2046 332.032L15.261 332.108L39.0985 368.375ZM82.2949 365.572L39.2689 368.036L15.5441 332.014L34.883 293.546L77.9467 291.101L101.634 327.104L82.2949 365.572Z" fill="url(#paint13_linear_20_21)"/>
<path fill-rule="evenodd" clip-rule="evenodd" d="M-27.9161 334.685L-27.8218 334.685L15.5061 332.184L35.0154 293.377L34.9589 293.302L11.1213 257.034L11.0271 257.034L-32.3385 259.516L-51.8478 298.323L-51.7913 298.398L-27.9161 334.685ZM15.318 331.9L-27.7458 334.346L-51.4329 298.343L-32.0939 259.875L10.9321 257.41L34.6569 293.433L15.318 331.9Z" fill="url(#paint14_linear_20_21)"/>
<path d="M-62.1843 298.785L-51.772 298.172L-32.4141 259.667L-38.1523 250.982L-37.982 250.643L-32.0933 259.592L-32.0369 259.668L-51.5461 298.474L-62.3546 299.123L-62.1843 298.785Z" fill="url(#paint15_linear_20_21)"/>
<path fill-rule="evenodd" clip-rule="evenodd" d="M-23.5494 409.495L-23.4551 409.496L19.8538 407.032L39.382 368.187L39.3255 368.112L15.4691 331.882L15.3748 331.882L-27.9342 334.346L-47.4624 373.19L-47.4059 373.265L-23.5494 409.495ZM19.6469 406.692L-23.3791 409.156L-47.1039 373.134L-27.746 334.629L15.3177 332.183L39.0048 368.186L19.6469 406.692Z" fill="url(#paint16_linear_20_21)"/>
<path d="M-96.2638 366.574L-90.4314 375.447L-47.3677 373.002L-28.0288 334.534L-51.7535 298.512L-62.3546 299.123L-62.1843 298.785L-51.6775 298.173L-51.5832 298.173L-27.689 334.422L-27.6703 334.478L-47.1985 373.323L-90.5074 375.786L-90.6017 375.786L-96.4341 366.913L-96.2638 366.574Z" fill="url(#paint17_linear_20_21)"/>
<path d="M-120.466 414.715L-110.054 414.103L-90.7148 375.635L-96.4341 366.913L-96.2638 366.574L-90.3751 375.523L-90.3187 375.598L-109.847 414.443L-120.636 415.054L-120.466 414.715Z" fill="url(#paint18_linear_20_21)"/>
<path d="M-25.867 580.721L-14.9297 558.965L-38.6167 522.962L-81.6428 525.426L-92.5801 547.182L-92.8816 547.03L-81.8686 525.124L-38.5408 522.623L-38.4465 522.623L-14.6089 558.89L-14.5525 558.966L-25.5655 580.872L-25.867 580.721Z" fill="url(#paint19_linear_20_21)"/>
<path d="M-92.8816 547.03L-81.9443 525.275L-105.631 489.271L-148.695 491.717L-159.632 513.473L-159.934 513.321L-148.921 491.415L-105.555 488.932L-105.461 488.933L-81.6236 525.2L-81.5671 525.276L-92.5801 547.182L-92.8816 547.03Z" fill="url(#paint20_linear_20_21)"/>
<path d="M240.597 76.7032L224.039 109.638L254.481 155.968L309.862 152.784L326.419 119.849L327.927 120.607L310.934 154.407L253.61 157.7L222.059 109.727L239.051 75.9263L240.597 76.7032Z" fill="url(#paint21_linear_20_21)"/>
<path d="M153.229 32.7809L136.672 65.7156L167.113 112.046L222.494 108.861L239.051 75.9263L240.597 76.7032L223.604 110.504L166.243 113.777L134.691 65.8045L151.684 32.0039L153.229 32.7809Z" fill="url(#paint22_linear_20_21)"/>
<path d="M135.126 64.9388L151.684 32.0039L153.229 32.7809L136.237 66.5814L78.9126 69.8739L64.1623 47.4639L65.0327 45.7325L79.783 68.1425L135.126 64.9388Z" fill="url(#paint23_linear_20_21)"/>
<path fill-rule="evenodd" clip-rule="evenodd" d="M171.949 211.282L229.292 208.046L255.064 156.78L223.475 108.789L166.151 112.081L140.379 163.346L171.949 211.282ZM228.2 206.366L172.838 209.513L142.378 163.22L167.261 113.724L222.605 110.52L253.084 156.869L228.2 206.366Z" fill="url(#paint24_linear_20_21)"/>
<path fill-rule="evenodd" clip-rule="evenodd" d="M84.6189 167.378L141.924 164.123L167.697 112.858L136.145 64.8852L78.8212 68.1777L53.0486 119.443L84.6189 167.378ZM140.833 162.443L85.5083 165.609L55.0104 119.298L79.8936 69.8013L135.275 66.6166L165.716 112.947L140.833 162.443Z" fill="url(#paint25_linear_20_21)"/>
<path d="M27.6792 120.033L53.5024 118.539L78.3857 69.0432L64.1623 47.4639L65.0327 45.7325L80.3286 68.9354L54.5559 120.201L26.8088 121.765L27.6792 120.033Z" fill="url(#paint26_linear_20_21)"/>
<path fill-rule="evenodd" clip-rule="evenodd" d="M90.2681 264.901L147.63 261.627L173.403 210.362L141.795 162.408L84.4894 165.663L58.7167 216.928L90.2681 264.901ZM146.52 259.985L91.1575 263.132L60.6973 216.839L85.5806 167.343L140.924 164.139L171.403 210.489L146.52 259.985Z" fill="url(#paint27_linear_20_21)"/>
<path d="M-10.9228 196.819L3.82749 219.229L59.152 216.062L84.0353 166.566L53.5941 120.236L26.8088 121.765L27.6792 120.033L54.4645 118.505L86.0348 166.44L60.2622 217.705L2.93812 220.998L-11.8122 198.588L-10.9228 196.819Z" fill="url(#paint28_linear_20_21)"/>
<path d="M-48.2763 271.119L-22.472 269.663L2.41124 220.167L-11.8122 198.588L-10.9228 196.819L4.35411 220.059L-21.3996 271.287L-49.1657 272.888L-48.2763 271.119Z" fill="url(#paint29_linear_20_21)"/>
<path fill-rule="evenodd" clip-rule="evenodd" d="M-67.33 469.626L-10.006 466.333L15.7477 415.105L-15.8036 367.133L-73.1277 370.425L-98.8814 421.653L-67.33 469.626ZM-11.1161 464.691L-66.4596 467.894L-96.9386 421.545L-72.0552 372.049L-16.693 368.902L13.7672 415.194L-11.1161 464.691Z" fill="url(#paint30_linear_20_21)"/>
<path d="M-56.8491 565.145L-5.41021 562.195L19.4731 512.698L-11.0248 466.387L-66.3494 469.553L-91.2326 519.049L-62.9173 562.094L-65.9326 560.578L-93.2133 519.138L-67.4595 467.91L-10.1355 464.618L21.4536 512.609L-4.30013 563.837L-53.8338 566.661L-56.8491 565.145Z" fill="url(#paint31_linear_20_21)"/>
<path d="M-98.3548 422.483L-125.14 424.012L-124.251 422.243L-97.4655 420.714L-65.9141 468.687L-91.6678 519.915L-141.164 522.758L-144.217 521.223L-92.7779 518.272L-67.8947 468.776L-98.3548 422.483Z" fill="url(#paint32_linear_20_21)"/>
<path d="M-162.872 499.066L-150.285 518.172L-153.301 516.656L-163.742 500.797L-162.872 499.066Z" fill="url(#paint33_linear_20_21)"/>
<path d="M108.766 648.405L82.0494 607.814L33.5343 610.584L30.519 609.068L82.9388 606.045L111.819 649.939L108.766 648.405Z" fill="url(#paint34_linear_20_21)"/>
<path d="M21.3979 604.482L-5.31831 563.891L-53.8338 566.661L-56.8491 565.145L-4.42896 562.122L24.4509 606.017L21.3979 604.482Z" fill="url(#paint35_linear_20_21)"/>
<path d="M-65.9326 560.578L-92.6487 519.988L-141.164 522.758L-144.217 521.223L-91.7593 518.219L-62.9173 562.094L-65.9326 560.578Z" fill="url(#paint36_linear_20_21)"/>
<path d="M-162.872 499.066L-150.285 518.172L-153.301 516.656L-163.742 500.797L-162.872 499.066Z" fill="url(#paint37_linear_20_21)"/>
<path d="M359.204 232.805C361.729 234.075 362.761 237.187 361.474 239.746C360.207 242.268 357.093 243.296 354.567 242.027C352.004 240.738 350.972 237.626 352.24 235.104C353.527 232.545 356.641 231.516 359.204 232.805Z" fill="url(#paint38_linear_20_21)"/>
<path d="M336.004 278.951C334.383 278.136 333.745 276.212 334.559 274.594C335.354 273.013 337.279 272.378 338.899 273.192C340.482 273.988 341.12 275.912 340.326 277.493C339.512 279.112 337.587 279.747 336.004 278.951Z" fill="url(#paint39_linear_20_21)"/>
<path d="M292.884 281.133C291.452 280.413 290.87 278.659 291.589 277.228C292.308 275.798 294.063 275.219 295.496 275.939C296.928 276.659 297.51 278.413 296.791 279.843C296.072 281.274 294.317 281.853 292.884 281.133Z" fill="url(#paint40_linear_20_21)"/>
<path d="M332.376 202.579C331.66 202.219 331.36 201.313 331.738 200.56C332.116 199.808 333.003 199.546 333.719 199.906C334.473 200.285 334.792 201.153 334.414 201.906C334.036 202.659 333.13 202.958 332.376 202.579Z" fill="url(#paint41_linear_20_21)"/>
<path d="M288.499 206.36C287.029 205.621 286.466 203.829 287.185 202.399C287.923 200.931 289.697 200.314 291.167 201.053C292.637 201.792 293.2 203.584 292.462 205.052C291.743 206.482 289.969 207.099 288.499 206.36Z" fill="url(#paint42_linear_20_21)"/>
<path d="M272.736 237.714C275.299 239.002 276.369 242.134 275.082 244.693C273.777 247.29 270.625 248.299 268.062 247.011C265.499 245.723 264.467 242.61 265.773 240.013C267.06 237.454 270.173 236.425 272.736 237.714Z" fill="url(#paint43_linear_20_21)"/>
<path d="M265.059 169.491C263.966 168.941 263.534 167.64 264.083 166.548C264.632 165.457 265.934 165.027 267.027 165.576C268.12 166.126 268.551 167.427 268.003 168.519C267.454 169.61 266.152 170.04 265.059 169.491Z" fill="url(#paint44_linear_20_21)"/>
<path d="M221.011 173.611C219.014 172.607 218.188 170.211 219.19 168.216C220.193 166.221 222.628 165.417 224.625 166.422C226.623 167.426 227.43 169.859 226.427 171.854C225.424 173.849 223.009 174.615 221.011 173.611Z" fill="url(#paint45_linear_20_21)"/>
<path d="M201.218 212.982C198.806 211.769 197.849 208.883 199.06 206.475C200.252 204.103 203.139 203.15 205.552 204.363C207.926 205.556 208.883 208.442 207.691 210.814C206.48 213.223 203.593 214.176 201.218 212.982Z" fill="url(#paint46_linear_20_21)"/>
<path d="M197.855 136.083C196.611 135.457 196.105 133.93 196.729 132.687C197.354 131.445 198.882 130.941 200.126 131.566C201.37 132.191 201.877 133.719 201.252 134.961C200.628 136.203 199.099 136.708 197.855 136.083Z" fill="url(#paint47_linear_20_21)"/>
<path d="M154.47 138.886C153.038 138.165 152.437 136.449 153.156 135.019C153.875 133.588 155.63 133.009 157.063 133.729C158.495 134.449 159.077 136.203 158.358 137.633C157.639 139.064 155.902 139.606 154.47 138.886Z" fill="url(#paint48_linear_20_21)"/>
<path d="M135.415 176.789C134.397 176.277 133.984 175.032 134.495 174.016C135.006 173 136.252 172.588 137.269 173.1C138.287 173.612 138.7 174.857 138.189 175.873C137.678 176.889 136.433 177.3 135.415 176.789Z" fill="url(#paint49_linear_20_21)"/>
<path d="M131.105 101.865C130.125 101.373 129.75 100.241 130.242 99.2622C130.715 98.3212 131.866 97.9097 132.846 98.4024C133.788 98.8761 134.182 100.064 133.709 101.005C133.217 101.984 132.047 102.339 131.105 101.865Z" fill="url(#paint50_linear_20_21)"/>
<path d="M87.3796 105.346C85.8343 104.569 85.2337 102.758 85.9906 101.252C86.7665 99.7091 88.5781 99.111 90.1234 99.8878C91.631 100.646 92.2316 102.457 91.4558 104C90.6989 105.505 88.8872 106.104 87.3796 105.346Z" fill="url(#paint51_linear_20_21)"/>
<path d="M67.7569 144.378C66.0231 143.507 65.3287 141.413 66.1992 139.681C67.0507 137.988 69.1454 137.296 70.8792 138.168C72.5753 139.02 73.2697 141.114 72.4182 142.808C71.5478 144.539 69.453 145.231 67.7569 144.378Z" fill="url(#paint52_linear_20_21)"/>
<path d="M63.5985 69.0593C62.1662 68.3393 61.5844 66.5851 62.3224 65.1171C63.0414 63.6868 64.7965 63.1074 66.2287 63.8274C67.6987 64.5664 68.2805 66.3206 67.5614 67.751C66.8235 69.2189 65.0684 69.7983 63.5985 69.0593Z" fill="url(#paint53_linear_20_21)"/>
<path d="M273.016 320.655C271.094 319.688 270.324 317.368 271.289 315.449C272.273 313.491 274.594 312.725 276.517 313.691C278.477 314.677 279.246 316.997 278.262 318.954C277.297 320.874 274.976 321.64 273.016 320.655Z" fill="url(#paint54_linear_20_21)"/>
<path d="M228.084 243.039C229.064 243.532 229.439 244.758 228.947 245.736C228.455 246.715 227.266 247.107 226.286 246.615C225.306 246.122 224.874 244.915 225.366 243.936C225.858 242.957 227.104 242.546 228.084 243.039Z" fill="url(#paint55_linear_20_21)"/>
<path d="M206.077 286.814C204.23 285.886 203.517 283.641 204.425 281.834C205.353 279.99 207.56 279.261 209.407 280.189C211.217 281.099 211.986 283.325 211.059 285.169C210.151 286.976 207.886 287.724 206.077 286.814Z" fill="url(#paint56_linear_20_21)"/>
<path d="M162.417 284.904C163.003 283.738 164.419 283.27 165.587 283.858C166.718 284.426 167.187 285.841 166.6 287.008C166.014 288.175 164.598 288.642 163.468 288.073C162.299 287.486 161.83 286.071 162.417 284.904Z" fill="url(#paint57_linear_20_21)"/>
<path d="M162.583 206.243C165.297 207.607 166.385 210.89 165.023 213.6C163.661 216.31 160.377 217.394 157.663 216.029C154.987 214.684 153.861 211.383 155.223 208.673C156.586 205.963 159.907 204.898 162.583 206.243Z" fill="url(#paint58_linear_20_21)"/>
<path d="M91.292 181.059C89.2944 180.055 88.4497 177.603 89.4526 175.608C90.4555 173.613 92.9464 172.791 94.9441 173.795C96.9417 174.799 97.7298 177.27 96.7269 179.265C95.724 181.26 93.2896 182.064 91.292 181.059Z" fill="url(#paint59_linear_20_21)"/>
<path d="M28.6436 222.18C26.646 221.175 25.8389 218.742 26.8418 216.747C27.8447 214.752 30.2791 213.948 32.2767 214.953C34.2744 215.957 35.0814 218.39 34.0785 220.385C33.0756 222.38 30.6412 223.184 28.6436 222.18Z" fill="url(#paint60_linear_20_21)"/>
<path d="M71.537 220.355C69.1624 219.162 68.2429 216.295 69.4161 213.961C70.6082 211.59 73.4579 210.617 75.8324 211.811C78.1692 212.986 79.1264 215.872 77.9343 218.243C76.7611 220.577 73.8738 221.53 71.537 220.355Z" fill="url(#paint61_linear_20_21)"/>
<path d="M24.1073 147.614C21.9589 146.534 21.0956 143.931 22.1742 141.785C23.2528 139.64 25.857 138.78 28.0054 139.86C30.1538 140.94 31.0171 143.543 29.9385 145.689C28.86 147.834 26.2557 148.694 24.1073 147.614Z" fill="url(#paint62_linear_20_21)"/>
<path d="M228.753 318.254C229.528 316.71 231.397 316.094 232.942 316.87C234.487 317.647 235.107 319.515 234.331 321.058C233.555 322.601 231.687 323.218 230.141 322.441C228.596 321.664 227.977 319.797 228.753 318.254Z" fill="url(#paint63_linear_20_21)"/>
<path d="M138.466 248.675C139.091 247.432 140.581 246.909 141.825 247.534C143.069 248.159 143.576 249.687 142.951 250.929C142.346 252.134 140.817 252.639 139.573 252.013C138.33 251.388 137.861 249.879 138.466 248.675Z" fill="url(#paint64_linear_20_21)"/>
<path d="M96.2637 254.665C94.9445 254.002 94.4002 252.361 95.0625 251.044C95.7248 249.726 97.3666 249.184 98.6858 249.847C100.005 250.511 100.549 252.152 99.887 253.469C99.2247 254.786 97.5829 255.328 96.2637 254.665Z" fill="url(#paint65_linear_20_21)"/>
<path d="M-31.0334 257.296C-29.7142 257.959 -29.151 259.563 -29.8133 260.88C-30.4756 262.197 -32.0984 262.702 -33.4176 262.039C-34.7368 261.375 -35.2623 259.791 -34.6 258.474C-33.9377 257.156 -32.3526 256.633 -31.0334 257.296Z" fill="url(#paint66_linear_20_21)"/>
<path d="M12.5784 254.136C14.2745 254.988 14.9879 257.045 14.1175 258.776C13.266 260.47 11.1712 261.161 9.47513 260.309C7.74135 259.437 7.04693 257.343 7.89845 255.65C8.7689 253.918 10.8447 253.264 12.5784 254.136Z" fill="url(#paint67_linear_20_21)"/>
<path d="M8.11737 179.419C9.77578 180.253 10.4327 182.234 9.60009 183.89C8.78642 185.508 6.80492 186.162 5.14652 185.329C3.5258 184.514 2.86895 182.533 3.68262 180.915C4.51522 179.259 6.49666 178.604 8.11737 179.419Z" fill="url(#paint68_linear_20_21)"/>
<path d="M146.891 321.046C148.851 322.031 149.677 324.427 148.674 326.422C147.69 328.379 145.256 329.183 143.296 328.197C141.298 327.193 140.529 324.779 141.513 322.821C142.516 320.827 144.894 320.042 146.891 321.046Z" fill="url(#paint69_linear_20_21)"/>
<path d="M105.573 328.943C104.532 331.013 102.041 331.835 99.9681 330.793C97.9328 329.77 97.107 327.28 98.1477 325.21C99.1695 323.177 101.661 322.355 103.696 323.378C105.769 324.42 106.595 326.91 105.573 328.943Z" fill="url(#paint70_linear_20_21)"/>
<path d="M38.058 370.445C36.8142 369.82 36.3074 368.292 36.9319 367.05C37.5374 365.846 39.0659 365.341 40.3098 365.966C41.5536 366.592 42.0603 368.119 41.4548 369.324C40.8303 370.566 39.3018 371.071 38.058 370.445Z" fill="url(#paint71_linear_20_21)"/>
<path d="M83.884 362.787C85.5047 363.602 86.1616 365.582 85.3479 367.201C84.5342 368.819 82.5528 369.474 80.932 368.659C79.3113 367.844 78.6921 365.882 79.5058 364.264C80.3195 362.645 82.2633 361.972 83.884 362.787Z" fill="url(#paint72_linear_20_21)"/>
<path d="M76.4709 294.037C74.7371 293.165 74.0426 291.071 74.9131 289.34C75.7835 287.608 77.8782 286.917 79.612 287.788C81.3458 288.66 82.0402 290.754 81.1698 292.485C80.2993 294.217 78.2047 294.908 76.4709 294.037Z" fill="url(#paint73_linear_20_21)"/>
<path d="M13.1602 336.474C10.7103 335.242 9.71557 332.243 10.9455 329.797C12.1755 327.35 15.176 326.359 17.626 327.591C20.0759 328.823 21.0706 331.822 19.8406 334.268C18.6107 336.715 15.6101 337.706 13.1602 336.474Z" fill="url(#paint74_linear_20_21)"/>
<path d="M-29.089 337.019C-30.4836 336.318 -31.0466 334.62 -30.3465 333.227C-29.6652 331.872 -27.9669 331.311 -26.5723 332.013C-25.2154 332.695 -24.6524 334.392 -25.3336 335.747C-26.0337 337.14 -27.7321 337.701 -29.089 337.019Z" fill="url(#paint75_linear_20_21)"/>
<path d="M32.6127 297.78C30.1628 296.549 29.1869 293.606 30.4168 291.16C31.6279 288.751 34.5718 287.779 37.0217 289.01C39.4339 290.223 40.4099 293.166 39.1988 295.574C37.9688 298.021 35.0249 298.993 32.6127 297.78Z" fill="url(#paint76_linear_20_21)"/>
<path d="M-50.6564 296.328C-49.5633 296.878 -49.1128 298.236 -49.6616 299.328C-50.2104 300.419 -51.5691 300.868 -52.6621 300.318C-53.7552 299.769 -54.2056 298.411 -53.6568 297.319C-53.1081 296.227 -51.7494 295.779 -50.6564 296.328Z" fill="url(#paint77_linear_20_21)"/>
<path d="M-18.0667 482.085C-16.936 482.653 -16.4667 484.068 -17.0344 485.197C-17.6021 486.326 -19.0174 486.794 -20.1482 486.225C-21.2789 485.657 -21.7481 484.242 -21.1804 483.113C-20.6127 481.984 -19.1974 481.516 -18.0667 482.085Z" fill="url(#paint78_linear_20_21)"/>
<path d="M18.5484 409.252C17.2292 408.589 16.666 406.985 17.3472 405.63C18.0095 404.313 19.6513 403.771 20.9705 404.434C22.2897 405.097 22.834 406.738 22.1717 408.056C21.4904 409.411 19.8676 409.915 18.5484 409.252Z" fill="url(#paint79_linear_20_21)"/>
<path d="M-21.1086 404.64C-18.5079 405.947 -17.4569 409.116 -18.7625 411.713C-20.0682 414.31 -23.2386 415.357 -25.8392 414.05C-28.4399 412.742 -29.4909 409.573 -28.1853 406.976C-26.8796 404.379 -23.7092 403.332 -21.1086 404.64Z" fill="url(#paint80_linear_20_21)"/>
<path d="M-48.5415 375.712C-49.9737 374.992 -50.5368 373.295 -49.8177 371.864C-49.1176 370.472 -47.4003 369.873 -45.968 370.593C-44.5734 371.294 -43.9916 373.049 -44.6917 374.441C-45.4108 375.872 -47.1469 376.413 -48.5415 375.712Z" fill="url(#paint81_linear_20_21)"/>
<path d="M-92.4566 379.475C-94.5673 378.413 -95.4306 375.81 -94.371 373.703C-93.2924 371.557 -90.7071 370.735 -88.5964 371.796C-86.448 372.876 -85.6034 375.423 -86.682 377.568C-87.7417 379.676 -90.3082 380.555 -92.4566 379.475Z" fill="url(#paint82_linear_20_21)"/>
<path d="M-107.387 409.172C-104.56 410.593 -103.415 414.045 -104.834 416.868C-106.253 419.691 -109.688 420.794 -112.515 419.373C-115.341 417.952 -116.505 414.537 -115.086 411.714C-113.667 408.891 -110.213 407.751 -107.387 409.172Z" fill="url(#paint83_linear_20_21)"/>
<path d="M-41.3303 521.409C-40.5545 519.866 -38.6862 519.249 -37.1409 520.026C-35.5956 520.803 -34.9762 522.67 -35.752 524.213C-36.5279 525.757 -38.3961 526.373 -39.9414 525.596C-41.4868 524.82 -42.1061 522.952 -41.3303 521.409Z" fill="url(#paint84_linear_20_21)"/>
<path d="M-87.9388 454.078C-89.9741 453.055 -90.7812 450.622 -89.7783 448.627C-88.7754 446.632 -86.341 445.828 -84.3057 446.851C-82.3081 447.856 -81.501 450.289 -82.5039 452.284C-83.5068 454.279 -85.9412 455.082 -87.9388 454.078Z" fill="url(#paint85_linear_20_21)"/>
<path d="M-103.739 485.507C-101.742 486.512 -100.935 488.945 -101.938 490.94C-102.94 492.935 -105.375 493.738 -107.372 492.734C-109.37 491.73 -110.177 489.297 -109.174 487.302C-108.171 485.307 -105.737 484.503 -103.739 485.507Z" fill="url(#paint86_linear_20_21)"/>
<path d="M-16.1984 561.864C-17.7814 561.068 -18.4006 559.106 -17.6059 557.525C-16.8111 555.944 -14.8862 555.309 -13.3032 556.105C-11.6825 556.919 -11.0444 558.843 -11.8391 560.424C-12.6339 562.005 -14.5777 562.678 -16.1984 561.864Z" fill="url(#paint87_linear_20_21)"/>
<path d="M-83.3643 528.474C-85.1357 527.584 -85.8489 525.434 -84.9596 523.664C-84.0891 521.933 -81.9378 521.223 -80.1663 522.113C-78.4325 522.985 -77.7193 525.135 -78.5898 526.867C-79.4791 528.636 -81.6305 529.346 -83.3643 528.474Z" fill="url(#paint88_linear_20_21)"/>
</mask>
<g mask="url(#mask0_20_21)">
<path fill-rule="evenodd" clip-rule="evenodd" d="M294.114 278.686L294.209 278.687L337.518 276.223L357.046 237.379L357.027 237.322L333.133 201.073L333.039 201.073L289.73 203.537L270.202 242.381L270.258 242.457L294.114 278.686ZM337.348 275.902L294.285 278.348L270.598 242.344L289.956 203.839L332.982 201.374L356.706 237.397L337.348 275.902Z" fill="url(#paint89_linear_20_21)"/>
<path fill-rule="evenodd" clip-rule="evenodd" d="M227.099 244.996L227.194 244.996L270.503 242.532L290.031 203.688L289.974 203.613L266.118 167.383L266.024 167.382L222.715 169.846L203.187 208.691L203.243 208.766L227.099 244.996ZM270.296 242.193L227.27 244.657L203.545 208.635L222.903 170.129L265.967 167.684L289.654 203.687L270.296 242.193Z" fill="url(#paint90_linear_20_21)"/>
<path fill-rule="evenodd" clip-rule="evenodd" d="M160.048 211.287L160.142 211.287L203.451 208.823L222.979 169.979L222.96 169.923L199.066 133.674L198.972 133.673L155.663 136.137L136.135 174.982L136.191 175.057L160.048 211.287ZM203.282 208.503L160.218 210.948L136.531 174.945L155.889 136.439L198.915 133.975L222.64 169.997L203.282 208.503Z" fill="url(#paint91_linear_20_21)"/>
<path fill-rule="evenodd" clip-rule="evenodd" d="M93.033 177.597L93.1273 177.597L136.436 175.133L155.964 136.289L155.908 136.213L132.052 99.9835L131.957 99.9832L88.6482 102.447L69.1201 141.291L69.1766 141.367L93.033 177.597ZM136.229 174.793L93.2033 177.258L69.4785 141.236L88.8364 102.73L131.9 100.285L155.587 136.288L136.229 174.793Z" fill="url(#paint92_linear_20_21)"/>
<path d="M20.3187 134.675L26.151 143.549L69.2147 141.103L88.5537 102.635L64.8289 66.613L54.228 67.2249L54.3984 66.8861L64.9049 66.274L64.9992 66.2742L88.8934 102.523L88.9122 102.58L69.384 141.424L26.075 143.888L25.9807 143.887L20.1483 135.014L20.3187 134.675Z" fill="url(#paint93_linear_20_21)"/>
<path fill-rule="evenodd" clip-rule="evenodd" d="M231.466 319.806L231.56 319.807L274.869 317.343L294.379 278.536L294.341 278.423L270.485 242.193L270.39 242.193L227.062 244.694L207.553 283.501L207.61 283.577L231.466 319.806ZM274.662 317.003L231.636 319.468L207.949 283.464L227.307 244.959L270.333 242.494L294.02 278.498L274.662 317.003Z" fill="url(#paint94_linear_20_21)"/>
<path fill-rule="evenodd" clip-rule="evenodd" d="M164.452 286.116L164.546 286.116L207.855 283.653L227.364 244.846L227.327 244.733L203.47 208.503L203.376 208.503L160.01 210.985L140.501 249.792L140.557 249.867L164.452 286.116ZM207.686 283.332L164.622 285.777L140.935 249.774L160.293 211.269L203.319 208.804L227.043 244.826L207.686 283.332Z" fill="url(#paint95_linear_20_21)"/>
<path fill-rule="evenodd" clip-rule="evenodd" d="M97.3992 252.407L97.4936 252.407L140.802 249.943L160.312 211.137L160.274 211.024L136.418 174.794L136.323 174.793L92.9956 177.295L73.4863 216.102L73.5428 216.177L97.3992 252.407ZM140.596 249.604L97.5696 252.068L73.8448 216.046L93.2027 177.541L136.266 175.095L159.953 211.098L140.596 249.604Z" fill="url(#paint96_linear_20_21)"/>
<path fill-rule="evenodd" clip-rule="evenodd" d="M30.3846 218.717L30.479 218.717L73.7879 216.253L93.2972 177.447L93.2596 177.333L69.4031 141.103L69.3089 141.103L25.9432 143.586L6.43399 182.392L6.49049 182.468L30.3846 218.717ZM73.6187 215.932L30.5549 218.378L6.86784 182.375L26.2257 143.869L69.2518 141.405L92.9765 177.427L73.6187 215.932Z" fill="url(#paint97_linear_20_21)"/>
<path d="M-3.88357 182.817L6.52867 182.204L25.8676 143.736L20.1483 135.014L20.3187 134.675L26.2074 143.624L26.2449 143.737L6.73562 182.544L-4.05388 183.155L-3.88357 182.817Z" fill="url(#paint98_linear_20_21)"/>
<path fill-rule="evenodd" clip-rule="evenodd" d="M101.747 327.255L101.841 327.255L145.169 324.754L164.678 285.947L164.66 285.891L140.784 249.604L140.69 249.604L97.3622 252.105L77.853 290.912L77.9094 290.987L101.747 327.255ZM144.981 324.471L101.917 326.916L78.2302 290.913L97.5691 252.445L140.595 249.981L164.32 286.003L144.981 324.471Z" fill="url(#paint99_linear_20_21)"/>
<path fill-rule="evenodd" clip-rule="evenodd" d="M34.7323 293.565L34.8266 293.565L78.1545 291.064L97.6638 252.257L97.6073 252.181L73.7698 215.914L73.6755 215.914L30.3476 218.415L10.8383 257.222L10.8948 257.297L34.7323 293.565ZM77.9287 290.761L34.9027 293.226L11.1779 257.204L30.5168 218.736L73.5805 216.29L97.2676 252.294L77.9287 290.761Z" fill="url(#paint100_linear_20_21)"/>
<path d="M-37.982 250.643L-32.1496 259.517L10.9141 257.071L30.2719 218.566L6.54717 182.543L-4.05388 183.155L-3.88357 182.817L6.6232 182.204L6.71747 182.205L30.5927 218.491L30.6115 218.548L11.1022 257.354L-32.2256 259.856L-32.32 259.856L-38.1523 250.982L-37.982 250.643Z" fill="url(#paint101_linear_20_21)"/>
<path fill-rule="evenodd" clip-rule="evenodd" d="M39.0985 368.375L39.1928 368.375L82.5207 365.874L102.03 327.067L101.974 326.992L78.136 290.724L78.0416 290.724L34.7138 293.225L15.2046 332.032L15.261 332.108L39.0985 368.375ZM82.2949 365.572L39.2688 368.036L15.5441 332.014L34.883 293.546L77.9467 291.101L101.634 327.104L82.2949 365.572Z" fill="url(#paint102_linear_20_21)"/>
<path fill-rule="evenodd" clip-rule="evenodd" d="M-27.9161 334.685L-27.8218 334.685L15.5061 332.184L35.0154 293.377L34.9589 293.302L11.1214 257.034L11.0271 257.034L-32.3385 259.516L-51.8478 298.323L-51.7913 298.398L-27.9161 334.685ZM15.318 331.9L-27.7458 334.346L-51.4329 298.343L-32.0939 259.875L10.9321 257.41L34.6569 293.433L15.318 331.9Z" fill="url(#paint103_linear_20_21)"/>
<path d="M-62.1843 298.785L-51.772 298.172L-32.4141 259.667L-38.1523 250.982L-37.982 250.643L-32.0933 259.592L-32.0369 259.668L-51.5462 298.474L-62.3546 299.123L-62.1843 298.785Z" fill="url(#paint104_linear_20_21)"/>
<path fill-rule="evenodd" clip-rule="evenodd" d="M-23.5494 409.495L-23.4552 409.496L19.8538 407.032L39.382 368.187L39.3255 368.112L15.4691 331.882L15.3748 331.882L-27.9342 334.346L-47.4624 373.19L-47.4059 373.265L-23.5494 409.495ZM19.6469 406.692L-23.3791 409.156L-47.1039 373.134L-27.746 334.629L15.3177 332.183L39.0048 368.186L19.6469 406.692Z" fill="url(#paint105_linear_20_21)"/>
<path d="M-96.2638 366.574L-90.4314 375.447L-47.3677 373.002L-28.0288 334.534L-51.7535 298.512L-62.3546 299.123L-62.1843 298.785L-51.6775 298.173L-51.5832 298.173L-27.689 334.422L-27.6703 334.478L-47.1985 373.323L-90.5074 375.786L-90.6017 375.786L-96.4341 366.913L-96.2638 366.574Z" fill="url(#paint106_linear_20_21)"/>
<path d="M-120.466 414.715L-110.054 414.103L-90.7148 375.635L-96.4341 366.913L-96.2638 366.574L-90.3751 375.523L-90.3187 375.598L-109.847 414.443L-120.636 415.054L-120.466 414.715Z" fill="url(#paint107_linear_20_21)"/>
<path d="M-25.867 580.721L-14.9297 558.965L-38.6168 522.962L-81.6428 525.426L-92.5801 547.182L-92.8816 547.03L-81.8686 525.124L-38.5408 522.623L-38.4465 522.623L-14.6089 558.89L-14.5525 558.966L-25.5655 580.872L-25.867 580.721Z" fill="url(#paint108_linear_20_21)"/>
<path d="M-92.8816 547.03L-81.9443 525.275L-105.631 489.271L-148.695 491.717L-159.632 513.473L-159.934 513.321L-148.921 491.415L-105.555 488.932L-105.461 488.933L-81.6236 525.2L-81.5671 525.276L-92.5801 547.182L-92.8816 547.03Z" fill="url(#paint109_linear_20_21)"/>
<path d="M240.597 76.7032L224.039 109.638L254.481 155.968L309.862 152.784L326.419 119.849L327.927 120.607L310.934 154.407L253.61 157.7L222.059 109.727L239.051 75.9263L240.597 76.7032Z" fill="url(#paint110_linear_20_21)"/>
<path d="M153.229 32.7809L136.672 65.7157L167.113 112.046L222.494 108.861L239.051 75.9263L240.597 76.7032L223.604 110.504L166.243 113.777L134.691 65.8045L151.684 32.0039L153.229 32.7809Z" fill="url(#paint111_linear_20_21)"/>
<path d="M135.126 64.9388L151.684 32.0039L153.229 32.7809L136.237 66.5814L78.9126 69.8739L64.1623 47.4639L65.0327 45.7325L79.783 68.1425L135.126 64.9388Z" fill="url(#paint112_linear_20_21)"/>
<path fill-rule="evenodd" clip-rule="evenodd" d="M171.949 211.282L229.292 208.046L255.064 156.78L223.475 108.789L166.151 112.081L140.379 163.346L171.949 211.282ZM228.2 206.366L172.838 209.513L142.378 163.22L167.261 113.724L222.605 110.52L253.084 156.869L228.2 206.366Z" fill="url(#paint113_linear_20_21)"/>
<path fill-rule="evenodd" clip-rule="evenodd" d="M84.6189 167.378L141.924 164.123L167.697 112.858L136.145 64.8852L78.8212 68.1777L53.0486 119.443L84.6189 167.378ZM140.833 162.443L85.5083 165.609L55.0103 119.298L79.8936 69.8013L135.275 66.6166L165.716 112.947L140.833 162.443Z" fill="url(#paint114_linear_20_21)"/>
<path d="M27.6792 120.033L53.5024 118.539L78.3857 69.0432L64.1623 47.4639L65.0327 45.7325L80.3286 68.9354L54.5559 120.201L26.8088 121.765L27.6792 120.033Z" fill="url(#paint115_linear_20_21)"/>
<path fill-rule="evenodd" clip-rule="evenodd" d="M90.2681 264.901L147.63 261.627L173.403 210.362L141.795 162.408L84.4894 165.663L58.7167 216.928L90.2681 264.901ZM146.52 259.985L91.1575 263.132L60.6973 216.839L85.5806 167.343L140.924 164.139L171.403 210.489L146.52 259.985Z" fill="url(#paint116_linear_20_21)"/>
<path d="M-10.9228 196.819L3.8275 219.229L59.152 216.062L84.0353 166.566L53.5941 120.236L26.8088 121.765L27.6792 120.033L54.4645 118.505L86.0348 166.44L60.2622 217.705L2.93813 220.998L-11.8122 198.588L-10.9228 196.819Z" fill="url(#paint117_linear_20_21)"/>
<path d="M-48.2763 271.119L-22.472 269.663L2.41125 220.167L-11.8122 198.588L-10.9228 196.819L4.35412 220.059L-21.3996 271.287L-49.1656 272.888L-48.2763 271.119Z" fill="url(#paint118_linear_20_21)"/>
<path fill-rule="evenodd" clip-rule="evenodd" d="M-67.33 469.626L-10.006 466.333L15.7477 415.105L-15.8036 367.133L-73.1277 370.425L-98.8814 421.653L-67.33 469.626ZM-11.1161 464.691L-66.4596 467.894L-96.9386 421.545L-72.0553 372.049L-16.693 368.902L13.7672 415.194L-11.1161 464.691Z" fill="url(#paint119_linear_20_21)"/>
<path d="M-56.8491 565.145L-5.41022 562.195L19.4731 512.698L-11.0248 466.387L-66.3494 469.553L-91.2327 519.049L-62.9173 562.094L-65.9326 560.578L-93.2133 519.138L-67.4595 467.91L-10.1355 464.618L21.4536 512.609L-4.30013 563.837L-53.8338 566.661L-56.8491 565.145Z" fill="url(#paint120_linear_20_21)"/>
<path d="M-98.3548 422.483L-125.14 424.012L-124.251 422.243L-97.4655 420.714L-65.9141 468.687L-91.6678 519.915L-141.164 522.757L-144.217 521.223L-92.7779 518.272L-67.8947 468.776L-98.3548 422.483Z" fill="url(#paint121_linear_20_21)"/>
<path d="M-162.872 499.066L-150.285 518.172L-153.301 516.656L-163.742 500.797L-162.872 499.066Z" fill="url(#paint122_linear_20_21)"/>
<path d="M-65.9326 560.578L-92.6486 519.988L-141.164 522.757L-144.217 521.223L-91.7593 518.219L-62.9173 562.094L-65.9326 560.578Z" fill="url(#paint123_linear_20_21)"/>
<path d="M-162.872 499.066L-150.285 518.172L-153.301 516.656L-163.742 500.797L-162.872 499.066Z" fill="url(#paint124_linear_20_21)"/>
<path d="M359.204 232.805C361.729 234.075 362.761 237.187 361.474 239.746C360.207 242.268 357.093 243.296 354.567 242.027C352.004 240.738 350.972 237.626 352.24 235.104C353.527 232.545 356.641 231.516 359.204 232.805Z" fill="url(#paint125_linear_20_21)"/>
<path d="M336.004 278.951C334.383 278.136 333.745 276.212 334.559 274.594C335.354 273.013 337.279 272.378 338.899 273.192C340.482 273.988 341.12 275.912 340.326 277.493C339.512 279.112 337.587 279.747 336.004 278.951Z" fill="url(#paint126_linear_20_21)"/>
<path d="M292.884 281.133C291.452 280.413 290.87 278.659 291.589 277.228C292.308 275.798 294.063 275.219 295.496 275.939C296.928 276.659 297.51 278.413 296.791 279.843C296.072 281.274 294.317 281.853 292.884 281.133Z" fill="url(#paint127_linear_20_21)"/>
<path d="M332.376 202.579C331.66 202.219 331.36 201.313 331.738 200.56C332.116 199.808 333.003 199.546 333.719 199.906C334.473 200.285 334.792 201.153 334.414 201.906C334.036 202.659 333.13 202.958 332.376 202.579Z" fill="url(#paint128_linear_20_21)"/>
<path d="M288.499 206.36C287.029 205.621 286.466 203.829 287.185 202.399C287.923 200.931 289.697 200.314 291.167 201.053C292.637 201.792 293.2 203.584 292.462 205.052C291.743 206.482 289.969 207.099 288.499 206.36Z" fill="url(#paint129_linear_20_21)"/>
<path d="M272.736 237.714C275.299 239.002 276.369 242.134 275.082 244.693C273.777 247.29 270.625 248.299 268.062 247.011C265.499 245.723 264.467 242.61 265.773 240.013C267.06 237.454 270.173 236.425 272.736 237.714Z" fill="url(#paint130_linear_20_21)"/>
<path d="M265.059 169.491C263.966 168.941 263.534 167.64 264.083 166.548C264.632 165.457 265.934 165.027 267.027 165.576C268.12 166.126 268.551 167.427 268.003 168.519C267.454 169.61 266.152 170.04 265.059 169.491Z" fill="url(#paint131_linear_20_21)"/>
<path d="M221.011 173.611C219.014 172.607 218.188 170.211 219.19 168.216C220.193 166.221 222.628 165.417 224.625 166.422C226.623 167.426 227.43 169.859 226.427 171.854C225.424 173.849 223.009 174.615 221.011 173.611Z" fill="url(#paint132_linear_20_21)"/>
<path d="M201.218 212.982C198.806 211.769 197.849 208.883 199.06 206.475C200.252 204.103 203.139 203.15 205.552 204.363C207.926 205.556 208.883 208.442 207.691 210.814C206.48 213.223 203.593 214.176 201.218 212.982Z" fill="url(#paint133_linear_20_21)"/>
<path d="M197.855 136.083C196.611 135.457 196.105 133.93 196.729 132.687C197.354 131.445 198.882 130.941 200.126 131.566C201.37 132.191 201.877 133.719 201.252 134.961C200.628 136.203 199.099 136.708 197.855 136.083Z" fill="url(#paint134_linear_20_21)"/>
<path d="M154.47 138.886C153.038 138.165 152.437 136.449 153.156 135.019C153.875 133.588 155.63 133.009 157.063 133.729C158.495 134.449 159.077 136.203 158.358 137.633C157.639 139.064 155.902 139.606 154.47 138.886Z" fill="url(#paint135_linear_20_21)"/>
<path d="M135.415 176.789C134.397 176.277 133.984 175.032 134.495 174.016C135.006 173 136.252 172.588 137.269 173.1C138.287 173.612 138.7 174.857 138.189 175.873C137.678 176.889 136.433 177.3 135.415 176.789Z" fill="url(#paint136_linear_20_21)"/>
<path d="M131.105 101.865C130.125 101.373 129.75 100.241 130.242 99.2622C130.715 98.3212 131.866 97.9097 132.846 98.4024C133.788 98.8761 134.182 100.064 133.709 101.005C133.217 101.984 132.047 102.339 131.105 101.865Z" fill="url(#paint137_linear_20_21)"/>
<path d="M87.3796 105.346C85.8343 104.569 85.2337 102.758 85.9906 101.252C86.7665 99.7091 88.5781 99.111 90.1234 99.8878C91.631 100.646 92.2316 102.457 91.4558 104C90.6989 105.505 88.8872 106.104 87.3796 105.346Z" fill="url(#paint138_linear_20_21)"/>
<path d="M67.7569 144.378C66.0231 143.506 65.3287 141.413 66.1992 139.681C67.0507 137.988 69.1454 137.296 70.8792 138.168C72.5753 139.02 73.2697 141.114 72.4182 142.808C71.5478 144.539 69.453 145.231 67.7569 144.378Z" fill="url(#paint139_linear_20_21)"/>
<path d="M63.5985 69.0594C62.1662 68.3393 61.5844 66.5851 62.3224 65.1171C63.0414 63.6868 64.7965 63.1074 66.2287 63.8274C67.6987 64.5664 68.2805 66.3206 67.5614 67.7509C66.8234 69.2189 65.0684 69.7983 63.5985 69.0594Z" fill="url(#paint140_linear_20_21)"/>
<path d="M273.016 320.655C271.094 319.688 270.324 317.368 271.289 315.449C272.273 313.491 274.594 312.725 276.517 313.691C278.477 314.677 279.246 316.997 278.262 318.954C277.297 320.874 274.976 321.64 273.016 320.655Z" fill="url(#paint141_linear_20_21)"/>
<path d="M228.084 243.039C229.064 243.532 229.439 244.758 228.947 245.736C228.455 246.715 227.266 247.107 226.286 246.615C225.306 246.122 224.874 244.915 225.366 243.936C225.858 242.957 227.104 242.546 228.084 243.039Z" fill="url(#paint142_linear_20_21)"/>
<path d="M206.077 286.814C204.23 285.886 203.517 283.641 204.425 281.834C205.353 279.99 207.56 279.261 209.407 280.189C211.216 281.099 211.986 283.325 211.059 285.169C210.151 286.976 207.886 287.724 206.077 286.814Z" fill="url(#paint143_linear_20_21)"/>
<path d="M162.417 284.904C163.003 283.738 164.419 283.27 165.587 283.858C166.718 284.426 167.187 285.841 166.6 287.008C166.014 288.175 164.598 288.642 163.468 288.073C162.299 287.486 161.83 286.071 162.417 284.904Z" fill="url(#paint144_linear_20_21)"/>
<path d="M162.583 206.243C165.297 207.607 166.385 210.89 165.023 213.6C163.661 216.31 160.377 217.394 157.663 216.029C154.987 214.684 153.861 211.383 155.223 208.673C156.586 205.963 159.907 204.898 162.583 206.243Z" fill="url(#paint145_linear_20_21)"/>
<path d="M91.292 181.059C89.2944 180.055 88.4497 177.603 89.4526 175.608C90.4555 173.613 92.9464 172.791 94.9441 173.795C96.9417 174.799 97.7298 177.27 96.7269 179.265C95.724 181.26 93.2896 182.064 91.292 181.059Z" fill="url(#paint146_linear_20_21)"/>
<path d="M28.6436 222.179C26.646 221.175 25.839 218.742 26.8419 216.747C27.8448 214.752 30.2791 213.948 32.2767 214.953C34.2744 215.957 35.0814 218.39 34.0785 220.385C33.0756 222.38 30.6412 223.184 28.6436 222.179Z" fill="url(#paint147_linear_20_21)"/>
<path d="M71.5369 220.355C69.1624 219.162 68.2429 216.295 69.4161 213.961C70.6082 211.59 73.4579 210.617 75.8324 211.811C78.1692 212.986 79.1265 215.872 77.9343 218.243C76.7611 220.577 73.8738 221.53 71.5369 220.355Z" fill="url(#paint148_linear_20_21)"/>
<path d="M24.1073 147.614C21.9589 146.534 21.0956 143.931 22.1742 141.785C23.2528 139.64 25.857 138.78 28.0054 139.86C30.1538 140.94 31.0171 143.543 29.9386 145.689C28.86 147.834 26.2557 148.694 24.1073 147.614Z" fill="url(#paint149_linear_20_21)"/>
<path d="M228.753 318.254C229.528 316.71 231.397 316.094 232.942 316.87C234.487 317.647 235.107 319.515 234.331 321.058C233.555 322.601 231.687 323.218 230.141 322.441C228.596 321.664 227.977 319.797 228.753 318.254Z" fill="url(#paint150_linear_20_21)"/>
<path d="M138.466 248.675C139.091 247.432 140.581 246.909 141.825 247.534C143.069 248.159 143.576 249.687 142.951 250.929C142.346 252.134 140.817 252.639 139.573 252.013C138.33 251.388 137.861 249.879 138.466 248.675Z" fill="url(#paint151_linear_20_21)"/>
<path d="M96.2637 254.665C94.9445 254.002 94.4002 252.361 95.0625 251.044C95.7248 249.726 97.3666 249.184 98.6858 249.847C100.005 250.511 100.549 252.152 99.887 253.469C99.2247 254.786 97.5829 255.328 96.2637 254.665Z" fill="url(#paint152_linear_20_21)"/>
<path d="M-31.0334 257.296C-29.7142 257.959 -29.151 259.563 -29.8133 260.88C-30.4756 262.197 -32.0984 262.702 -33.4176 262.039C-34.7368 261.375 -35.2623 259.791 -34.6 258.474C-33.9377 257.156 -32.3525 256.633 -31.0334 257.296Z" fill="url(#paint153_linear_20_21)"/>
<path d="M12.5784 254.136C14.2745 254.988 14.9879 257.045 14.1175 258.776C13.266 260.47 11.1712 261.161 9.47512 260.309C7.74133 259.437 7.04693 257.343 7.89844 255.65C8.76889 253.918 10.8446 253.264 12.5784 254.136Z" fill="url(#paint154_linear_20_21)"/>
<path d="M8.11739 179.419C9.77579 180.253 10.4327 182.234 9.60009 183.89C8.78642 185.508 6.80493 186.162 5.14653 185.329C3.52581 184.514 2.86895 182.533 3.68263 180.915C4.51522 179.259 6.49667 178.604 8.11739 179.419Z" fill="url(#paint155_linear_20_21)"/>
<path d="M146.891 321.046C148.851 322.031 149.677 324.427 148.674 326.422C147.69 328.379 145.256 329.183 143.296 328.197C141.298 327.193 140.529 324.779 141.513 322.821C142.516 320.827 144.894 320.042 146.891 321.046Z" fill="url(#paint156_linear_20_21)"/>
<path d="M105.573 328.943C104.532 331.013 102.041 331.835 99.9681 330.793C97.9328 329.77 97.107 327.28 98.1477 325.21C99.1695 323.177 101.661 322.355 103.696 323.378C105.769 324.42 106.595 326.91 105.573 328.943Z" fill="url(#paint157_linear_20_21)"/>
<path d="M38.0579 370.445C36.8141 369.82 36.3074 368.292 36.9319 367.05C37.5374 365.846 39.0659 365.341 40.3097 365.966C41.5535 366.592 42.0603 368.119 41.4548 369.324C40.8303 370.566 39.3018 371.071 38.0579 370.445Z" fill="url(#paint158_linear_20_21)"/>
<path d="M83.884 362.787C85.5047 363.602 86.1616 365.582 85.3479 367.201C84.5342 368.819 82.5528 369.474 80.9321 368.659C79.3113 367.844 78.6921 365.882 79.5058 364.264C80.3194 362.645 82.2633 361.972 83.884 362.787Z" fill="url(#paint159_linear_20_21)"/>
<path d="M76.4709 294.037C74.7371 293.165 74.0426 291.071 74.9131 289.34C75.7835 287.608 77.8782 286.917 79.612 287.788C81.3458 288.66 82.0402 290.754 81.1698 292.485C80.2993 294.217 78.2047 294.908 76.4709 294.037Z" fill="url(#paint160_linear_20_21)"/>
<path d="M13.1602 336.474C10.7103 335.242 9.71556 332.243 10.9455 329.797C12.1755 327.35 15.176 326.359 17.626 327.591C20.0759 328.823 21.0706 331.822 19.8406 334.268C18.6107 336.715 15.6101 337.706 13.1602 336.474Z" fill="url(#paint161_linear_20_21)"/>
<path d="M-29.089 337.019C-30.4836 336.318 -31.0466 334.62 -30.3465 333.227C-29.6653 331.872 -27.9669 331.311 -26.5723 332.013C-25.2154 332.695 -24.6524 334.392 -25.3336 335.747C-26.0337 337.14 -27.7321 337.701 -29.089 337.019Z" fill="url(#paint162_linear_20_21)"/>
<path d="M32.6127 297.78C30.1628 296.549 29.1869 293.606 30.4169 291.16C31.6279 288.751 34.5718 287.779 37.0217 289.01C39.4339 290.223 40.4099 293.166 39.1988 295.574C37.9688 298.021 35.025 298.993 32.6127 297.78Z" fill="url(#paint163_linear_20_21)"/>
<path d="M-50.6564 296.328C-49.5633 296.878 -49.1128 298.236 -49.6616 299.328C-50.2104 300.419 -51.5691 300.868 -52.6622 300.318C-53.7552 299.769 -54.2056 298.411 -53.6568 297.319C-53.1081 296.227 -51.7494 295.779 -50.6564 296.328Z" fill="url(#paint164_linear_20_21)"/>
<path d="M-18.0667 482.085C-16.9359 482.653 -16.4667 484.068 -17.0344 485.197C-17.6021 486.326 -19.0174 486.794 -20.1482 486.225C-21.2789 485.657 -21.7481 484.242 -21.1804 483.113C-20.6128 481.984 -19.1974 481.516 -18.0667 482.085Z" fill="url(#paint165_linear_20_21)"/>
<path d="M18.5484 409.252C17.2292 408.589 16.666 406.985 17.3472 405.63C18.0095 404.313 19.6513 403.771 20.9705 404.434C22.2897 405.097 22.834 406.738 22.1717 408.056C21.4905 409.411 19.8676 409.915 18.5484 409.252Z" fill="url(#paint166_linear_20_21)"/>
<path d="M-21.1086 404.64C-18.5079 405.947 -17.4569 409.116 -18.7625 411.713C-20.0682 414.31 -23.2386 415.357 -25.8392 414.05C-28.4399 412.742 -29.491 409.573 -28.1853 406.976C-26.8796 404.379 -23.7093 403.332 -21.1086 404.64Z" fill="url(#paint167_linear_20_21)"/>
<path d="M-48.5415 375.712C-49.9738 374.992 -50.5368 373.295 -49.8177 371.864C-49.1176 370.472 -47.4003 369.873 -45.968 370.593C-44.5735 371.294 -43.9916 373.049 -44.6917 374.441C-45.4108 375.872 -47.1469 376.413 -48.5415 375.712Z" fill="url(#paint168_linear_20_21)"/>
<path d="M-92.4566 379.475C-94.5673 378.413 -95.4307 375.81 -94.371 373.703C-93.2924 371.557 -90.7071 370.735 -88.5964 371.796C-86.448 372.876 -85.6034 375.423 -86.682 377.568C-87.7417 379.676 -90.3082 380.555 -92.4566 379.475Z" fill="url(#paint169_linear_20_21)"/>
<path d="M-107.387 409.172C-104.56 410.593 -103.415 414.045 -104.834 416.868C-106.253 419.691 -109.688 420.794 -112.515 419.373C-115.341 417.952 -116.505 414.537 -115.086 411.714C-113.667 408.891 -110.213 407.751 -107.387 409.172Z" fill="url(#paint170_linear_20_21)"/>
<path d="M-41.3303 521.409C-40.5545 519.866 -38.6862 519.249 -37.1409 520.026C-35.5956 520.803 -34.9762 522.67 -35.752 524.213C-36.5279 525.756 -38.3961 526.373 -39.9414 525.596C-41.4868 524.82 -42.1061 522.952 -41.3303 521.409Z" fill="url(#paint171_linear_20_21)"/>
<path d="M-87.9388 454.078C-89.9741 453.055 -90.7812 450.622 -89.7783 448.627C-88.7754 446.632 -86.341 445.828 -84.3057 446.851C-82.3081 447.856 -81.501 450.289 -82.5039 452.284C-83.5068 454.279 -85.9412 455.082 -87.9388 454.078Z" fill="url(#paint172_linear_20_21)"/>
<path d="M-103.739 485.507C-101.742 486.512 -100.935 488.945 -101.938 490.94C-102.94 492.935 -105.375 493.738 -107.372 492.734C-109.37 491.73 -110.177 489.297 -109.174 487.302C-108.171 485.307 -105.737 484.503 -103.739 485.507Z" fill="url(#paint173_linear_20_21)"/>
<path d="M-16.1984 561.864C-17.7814 561.068 -18.4006 559.106 -17.6059 557.525C-16.8111 555.944 -14.8862 555.309 -13.3032 556.105C-11.6825 556.919 -11.0444 558.843 -11.8391 560.424C-12.6339 562.005 -14.5777 562.678 -16.1984 561.864Z" fill="url(#paint174_linear_20_21)"/>
<path d="M-83.3643 528.474C-85.1357 527.584 -85.8489 525.434 -84.9596 523.664C-84.0891 521.933 -81.9378 521.223 -80.1663 522.113C-78.4325 522.985 -77.7193 525.135 -78.5898 526.867C-79.4791 528.636 -81.6305 529.346 -83.3643 528.474Z" fill="url(#paint175_linear_20_21)"/>
<rect width="436" height="708" transform="matrix(-0.893449 -0.449164 -0.449164 0.893449 422.637 160.386)" fill="url(#paint176_linear_20_21)"/>
</g>
<defs>
<linearGradient id="paint0_linear_20_21" x1="-1.23687e+06" y1="815312" x2="-134979" y2="479563" gradientUnits="userSpaceOnUse">
<stop stop-color="#52BBE8"/>
<stop offset="1" stop-color="#E1EFF8"/>
</linearGradient>
<linearGradient id="paint1_linear_20_21" x1="-1.23794e+06" y1="738601" x2="-136048" y2="402851" gradientUnits="userSpaceOnUse">
<stop stop-color="#52BBE8"/>
<stop offset="1" stop-color="#E1EFF8"/>
</linearGradient>
<linearGradient id="paint2_linear_20_21" x1="-1.23898e+06" y1="661905" x2="-137086" y2="326155" gradientUnits="userSpaceOnUse">
<stop stop-color="#52BBE8"/>
<stop offset="1" stop-color="#E1EFF8"/>
</linearGradient>
<linearGradient id="paint3_linear_20_21" x1="-1.24002e+06" y1="585209" x2="-138165" y2="249501" gradientUnits="userSpaceOnUse">
<stop stop-color="#52BBE8"/>
<stop offset="1" stop-color="#E1EFF8"/>
</linearGradient>
<linearGradient id="paint4_linear_20_21" x1="-1.14768e+06" y1="472137" x2="-174280" y2="175554" gradientUnits="userSpaceOnUse">
<stop stop-color="#52BBE8"/>
<stop offset="1" stop-color="#E1EFF8"/>
</linearGradient>
<linearGradient id="paint5_linear_20_21" x1="-1.20346e+06" y1="790453" x2="-101561" y2="454703" gradientUnits="userSpaceOnUse">
<stop stop-color="#52BBE8"/>
<stop offset="1" stop-color="#E1EFF8"/>
</linearGradient>
<linearGradient id="paint6_linear_20_21" x1="-1.20449e+06" y1="713757" x2="-102599" y2="378007" gradientUnits="userSpaceOnUse">
<stop stop-color="#52BBE8"/>
<stop offset="1" stop-color="#E1EFF8"/>
</linearGradient>
<linearGradient id="paint7_linear_20_21" x1="-1.20556e+06" y1="637045" x2="-103668" y2="301295" gradientUnits="userSpaceOnUse">
<stop stop-color="#52BBE8"/>
<stop offset="1" stop-color="#E1EFF8"/>
</linearGradient>
<linearGradient id="paint8_linear_20_21" x1="-1.2066e+06" y1="560349" x2="-104705" y2="224599" gradientUnits="userSpaceOnUse">
<stop stop-color="#52BBE8"/>
<stop offset="1" stop-color="#E1EFF8"/>
</linearGradient>
<linearGradient id="paint9_linear_20_21" x1="-1.03468e+06" y1="464697" x2="-212016" y2="214028" gradientUnits="userSpaceOnUse">
<stop stop-color="#52BBE8"/>
<stop offset="1" stop-color="#E1EFF8"/>
</linearGradient>
<linearGradient id="paint10_linear_20_21" x1="-1.17108e+06" y1="688897" x2="-69180.8" y2="353147" gradientUnits="userSpaceOnUse">
<stop stop-color="#52BBE8"/>
<stop offset="1" stop-color="#E1EFF8"/>
</linearGradient>
<linearGradient id="paint11_linear_20_21" x1="-1.17211e+06" y1="612201" x2="-70218.3" y2="276452" gradientUnits="userSpaceOnUse">
<stop stop-color="#52BBE8"/>
<stop offset="1" stop-color="#E1EFF8"/>
</linearGradient>
<linearGradient id="paint12_linear_20_21" x1="-1.09687e+06" y1="514264" x2="-123437" y2="217639" gradientUnits="userSpaceOnUse">
<stop stop-color="#52BBE8"/>
<stop offset="1" stop-color="#E1EFF8"/>
</linearGradient>
<linearGradient id="paint13_linear_20_21" x1="-1.13766e+06" y1="664037" x2="-35762.8" y2="328288" gradientUnits="userSpaceOnUse">
<stop stop-color="#52BBE8"/>
<stop offset="1" stop-color="#E1EFF8"/>
</linearGradient>
<linearGradient id="paint14_linear_20_21" x1="-1.13869e+06" y1="587341" x2="-36800.3" y2="251592" gradientUnits="userSpaceOnUse">
<stop stop-color="#52BBE8"/>
<stop offset="1" stop-color="#E1EFF8"/>
</linearGradient>
<linearGradient id="paint15_linear_20_21" x1="-1.00395e+06" y1="524553" x2="-181319" y2="273926" gradientUnits="userSpaceOnUse">
<stop stop-color="#52BBE8"/>
<stop offset="1" stop-color="#E1EFF8"/>
</linearGradient>
<linearGradient id="paint16_linear_20_21" x1="-1.10421e+06" y1="639194" x2="-2313.39" y2="303444" gradientUnits="userSpaceOnUse">
<stop stop-color="#52BBE8"/>
<stop offset="1" stop-color="#E1EFF8"/>
</linearGradient>
<linearGradient id="paint17_linear_20_21" x1="-1.04607e+06" y1="556391" x2="-72635.2" y2="259766" gradientUnits="userSpaceOnUse">
<stop stop-color="#52BBE8"/>
<stop offset="1" stop-color="#E1EFF8"/>
</linearGradient>
<linearGradient id="paint18_linear_20_21" x1="-973233" y1="584461" x2="-150624" y2="333794" gradientUnits="userSpaceOnUse">
<stop stop-color="#52BBE8"/>
<stop offset="1" stop-color="#E1EFF8"/>
</linearGradient>
<linearGradient id="paint19_linear_20_21" x1="-984692" y1="638287" x2="-13696.7" y2="342442" gradientUnits="userSpaceOnUse">
<stop stop-color="#52BBE8"/>
<stop offset="1" stop-color="#E1EFF8"/>
</linearGradient>
<linearGradient id="paint20_linear_20_21" x1="-992258" y1="567368" x2="-21263.1" y2="271523" gradientUnits="userSpaceOnUse">
<stop stop-color="#52BBE8"/>
<stop offset="1" stop-color="#E1EFF8"/>
</linearGradient>
<linearGradient id="paint21_linear_20_21" x1="-1.18632e+06" y1="587642" x2="-227228" y2="295443" gradientUnits="userSpaceOnUse">
<stop stop-color="#52BBE8"/>
<stop offset="1" stop-color="#E1EFF8"/>
</linearGradient>
<linearGradient id="paint22_linear_20_21" x1="-1.19694e+06" y1="495920" x2="-237826" y2="203640" gradientUnits="userSpaceOnUse">
<stop stop-color="#52BBE8"/>
<stop offset="1" stop-color="#E1EFF8"/>
</linearGradient>
<linearGradient id="paint23_linear_20_21" x1="-1.11944e+06" y1="348272" x2="-270510" y2="89570.3" gradientUnits="userSpaceOnUse">
<stop stop-color="#52BBE8"/>
<stop offset="1" stop-color="#E1EFF8"/>
</linearGradient>
<linearGradient id="paint24_linear_20_21" x1="-1.24269e+06" y1="689261" x2="-140792" y2="353511" gradientUnits="userSpaceOnUse">
<stop stop-color="#52BBE8"/>
<stop offset="1" stop-color="#E1EFF8"/>
</linearGradient>
<linearGradient id="paint25_linear_20_21" x1="-1.24405e+06" y1="589307" x2="-142153" y2="253557" gradientUnits="userSpaceOnUse">
<stop stop-color="#52BBE8"/>
<stop offset="1" stop-color="#E1EFF8"/>
</linearGradient>
<linearGradient id="paint26_linear_20_21" x1="-1.07668e+06" y1="456537" x2="-208017" y2="191870" gradientUnits="userSpaceOnUse">
<stop stop-color="#52BBE8"/>
<stop offset="1" stop-color="#E1EFF8"/>
</linearGradient>
<linearGradient id="paint27_linear_20_21" x1="-1.19908e+06" y1="656828" x2="-97244.1" y2="321081" gradientUnits="userSpaceOnUse">
<stop stop-color="#52BBE8"/>
<stop offset="1" stop-color="#E1EFF8"/>
</linearGradient>
<linearGradient id="paint28_linear_20_21" x1="-1.13734e+06" y1="539664" x2="-125495" y2="231351" gradientUnits="userSpaceOnUse">
<stop stop-color="#52BBE8"/>
<stop offset="1" stop-color="#E1EFF8"/>
</linearGradient>
<linearGradient id="paint29_linear_20_21" x1="-1.02867e+06" y1="527565" x2="-159963" y2="262857" gradientUnits="userSpaceOnUse">
<stop stop-color="#52BBE8"/>
<stop offset="1" stop-color="#E1EFF8"/>
</linearGradient>
<linearGradient id="paint30_linear_20_21" x1="-1.06703e+06" y1="659605" x2="34860.4" y2="323855" gradientUnits="userSpaceOnUse">
<stop stop-color="#52BBE8"/>
<stop offset="1" stop-color="#E1EFF8"/>
</linearGradient>
<linearGradient id="paint31_linear_20_21" x1="-1.01621e+06" y1="714694" x2="61557.5" y2="386330" gradientUnits="userSpaceOnUse">
<stop stop-color="#52BBE8"/>
<stop offset="1" stop-color="#E1EFF8"/>
</linearGradient>
<linearGradient id="paint32_linear_20_21" x1="-1.00471e+06" y1="640343" x2="50882.8" y2="318723" gradientUnits="userSpaceOnUse">
<stop stop-color="#52BBE8"/>
<stop offset="1" stop-color="#E1EFF8"/>
</linearGradient>
<linearGradient id="paint33_linear_20_21" x1="-1.58118e+06" y1="1.03923e+06" x2="3.84235e+06" y2="-613329" gradientUnits="userSpaceOnUse">
<stop stop-color="#52BBE8"/>
<stop offset="1" stop-color="#E1EFF8"/>
</linearGradient>
<linearGradient id="paint34_linear_20_21" x1="-1.00108e+06" y1="792987" x2="81647.5" y2="463100" gradientUnits="userSpaceOnUse">
<stop stop-color="#52BBE8"/>
<stop offset="1" stop-color="#E1EFF8"/>
</linearGradient>
<linearGradient id="paint35_linear_20_21" x1="-1.0037e+06" y1="694123" x2="79028.8" y2="364236" gradientUnits="userSpaceOnUse">
<stop stop-color="#52BBE8"/>
<stop offset="1" stop-color="#E1EFF8"/>
</linearGradient>
<linearGradient id="paint36_linear_20_21" x1="-1.00629e+06" y1="595276" x2="76423.3" y2="265350" gradientUnits="userSpaceOnUse">
<stop stop-color="#52BBE8"/>
<stop offset="1" stop-color="#E1EFF8"/>
</linearGradient>
<linearGradient id="paint37_linear_20_21" x1="-1.58116e+06" y1="1.03918e+06" x2="3.84218e+06" y2="-613291" gradientUnits="userSpaceOnUse">
<stop stop-color="#52BBE8"/>
<stop offset="1" stop-color="#E1EFF8"/>
</linearGradient>
<linearGradient id="paint38_linear_20_21" x1="-1.20936e+06" y1="742953" x2="-173794" y2="427432" gradientUnits="userSpaceOnUse">
<stop stop-color="#52BBE8"/>
<stop offset="1" stop-color="#E1EFF8"/>
</linearGradient>
<linearGradient id="paint39_linear_20_21" x1="-1.19048e+06" y1="751937" x2="-154908" y2="436416" gradientUnits="userSpaceOnUse">
<stop stop-color="#52BBE8"/>
<stop offset="1" stop-color="#E1EFF8"/>
</linearGradient>
<linearGradient id="paint40_linear_20_21" x1="-1.18295e+06" y1="720439" x2="-147344" y2="404876" gradientUnits="userSpaceOnUse">
<stop stop-color="#52BBE8"/>
<stop offset="1" stop-color="#E1EFF8"/>
</linearGradient>
<linearGradient id="paint41_linear_20_21" x1="-1.22291e+06" y1="695375" x2="-187301" y2="379812" gradientUnits="userSpaceOnUse">
<stop stop-color="#52BBE8"/>
<stop offset="1" stop-color="#E1EFF8"/>
</linearGradient>
<linearGradient id="paint42_linear_20_21" x1="-1.21464e+06" y1="666230" x2="-179031" y2="350667" gradientUnits="userSpaceOnUse">
<stop stop-color="#52BBE8"/>
<stop offset="1" stop-color="#E1EFF8"/>
</linearGradient>
<linearGradient id="paint43_linear_20_21" x1="-1.194e+06" y1="680817" x2="-158434" y2="365295" gradientUnits="userSpaceOnUse">
<stop stop-color="#52BBE8"/>
<stop offset="1" stop-color="#E1EFF8"/>
</linearGradient>
<linearGradient id="paint44_linear_20_21" x1="-1.22698e+06" y1="622514" x2="-191370" y2="306951" gradientUnits="userSpaceOnUse">
<stop stop-color="#52BBE8"/>
<stop offset="1" stop-color="#E1EFF8"/>
</linearGradient>
<linearGradient id="paint45_linear_20_21" x1="-1.21854e+06" y1="593900" x2="-182933" y2="278336" gradientUnits="userSpaceOnUse">
<stop stop-color="#52BBE8"/>
<stop offset="1" stop-color="#E1EFF8"/>
</linearGradient>
<linearGradient id="paint46_linear_20_21" x1="-1.19849e+06" y1="606530" x2="-162928" y2="291009" gradientUnits="userSpaceOnUse">
<stop stop-color="#52BBE8"/>
<stop offset="1" stop-color="#E1EFF8"/>
</linearGradient>
<linearGradient id="paint47_linear_20_21" x1="-1.23121e+06" y1="549190" x2="-195581" y2="233666" gradientUnits="userSpaceOnUse">
<stop stop-color="#52BBE8"/>
<stop offset="1" stop-color="#E1EFF8"/>
</linearGradient>
<linearGradient id="paint48_linear_20_21" x1="-1.22334e+06" y1="518568" x2="-187771" y2="203046" gradientUnits="userSpaceOnUse">
<stop stop-color="#52BBE8"/>
<stop offset="1" stop-color="#E1EFF8"/>
</linearGradient>
<linearGradient id="paint49_linear_20_21" x1="-1.20399e+06" y1="529060" x2="-168381" y2="213497" gradientUnits="userSpaceOnUse">
<stop stop-color="#52BBE8"/>
<stop offset="1" stop-color="#E1EFF8"/>
</linearGradient>
<linearGradient id="paint50_linear_20_21" x1="-1.23576e+06" y1="474620" x2="-200190" y2="159099" gradientUnits="userSpaceOnUse">
<stop stop-color="#52BBE8"/>
<stop offset="1" stop-color="#E1EFF8"/>
</linearGradient>
<linearGradient id="paint51_linear_20_21" x1="-1.22764e+06" y1="445078" x2="-192034" y2="129515" gradientUnits="userSpaceOnUse">
<stop stop-color="#52BBE8"/>
<stop offset="1" stop-color="#E1EFF8"/>
</linearGradient>
<linearGradient id="paint52_linear_20_21" x1="-1.20779e+06" y1="457229" x2="-172179" y2="141666" gradientUnits="userSpaceOnUse">
<stop stop-color="#52BBE8"/>
<stop offset="1" stop-color="#E1EFF8"/>
</linearGradient>
<linearGradient id="paint53_linear_20_21" x1="-1.23973e+06" y1="402191" x2="-204119" y2="86628" gradientUnits="userSpaceOnUse">
<stop stop-color="#52BBE8"/>
<stop offset="1" stop-color="#E1EFF8"/>
</linearGradient>
<linearGradient id="paint54_linear_20_21" x1="-1.16282e+06" y1="733367" x2="-127211" y2="417804" gradientUnits="userSpaceOnUse">
<stop stop-color="#52BBE8"/>
<stop offset="1" stop-color="#E1EFF8"/>
</linearGradient>
<linearGradient id="paint55_linear_20_21" x1="-1.18766e+06" y1="645405" x2="-152078" y2="329924" gradientUnits="userSpaceOnUse">
<stop stop-color="#52BBE8"/>
<stop offset="1" stop-color="#E1EFF8"/>
</linearGradient>
<linearGradient id="paint56_linear_20_21" x1="-1.16726e+06" y1="659296" x2="-131698" y2="343775" gradientUnits="userSpaceOnUse">
<stop stop-color="#52BBE8"/>
<stop offset="1" stop-color="#E1EFF8"/>
</linearGradient>
<linearGradient id="paint57_linear_20_21" x1="-1.16014e+06" y1="626388" x2="-124570" y2="310866" gradientUnits="userSpaceOnUse">
<stop stop-color="#52BBE8"/>
<stop offset="1" stop-color="#E1EFF8"/>
</linearGradient>
<linearGradient id="paint58_linear_20_21" x1="-1.19059e+06" y1="576308" x2="-155005" y2="260826" gradientUnits="userSpaceOnUse">
<stop stop-color="#52BBE8"/>
<stop offset="1" stop-color="#E1EFF8"/>
</linearGradient>
<linearGradient id="paint59_linear_20_21" x1="-1.1955e+06" y1="500662" x2="-159896" y2="185099" gradientUnits="userSpaceOnUse">
<stop stop-color="#52BBE8"/>
<stop offset="1" stop-color="#E1EFF8"/>
</linearGradient>
<linearGradient id="paint60_linear_20_21" x1="-1.16817e+06" y1="481165" x2="-132562" y2="165602" gradientUnits="userSpaceOnUse">
<stop stop-color="#52BBE8"/>
<stop offset="1" stop-color="#E1EFF8"/>
</linearGradient>
<linearGradient id="paint61_linear_20_21" x1="-1.17553e+06" y1="513194" x2="-139959" y2="197672" gradientUnits="userSpaceOnUse">
<stop stop-color="#52BBE8"/>
<stop offset="1" stop-color="#E1EFF8"/>
</linearGradient>
<linearGradient id="paint62_linear_20_21" x1="-1.19974e+06" y1="427271" x2="-164131" y2="111707" gradientUnits="userSpaceOnUse">
<stop stop-color="#52BBE8"/>
<stop offset="1" stop-color="#E1EFF8"/>
</linearGradient>
<linearGradient id="paint63_linear_20_21" x1="-1.15548e+06" y1="701205" x2="-119867" y2="385642" gradientUnits="userSpaceOnUse">
<stop stop-color="#52BBE8"/>
<stop offset="1" stop-color="#E1EFF8"/>
</linearGradient>
<linearGradient id="paint64_linear_20_21" x1="-1.17209e+06" y1="583949" x2="-136484" y2="268385" gradientUnits="userSpaceOnUse">
<stop stop-color="#52BBE8"/>
<stop offset="1" stop-color="#E1EFF8"/>
</linearGradient>
<linearGradient id="paint65_linear_20_21" x1="-1.16433e+06" y1="553079" x2="-128768" y2="237558" gradientUnits="userSpaceOnUse">
<stop stop-color="#52BBE8"/>
<stop offset="1" stop-color="#E1EFF8"/>
</linearGradient>
<linearGradient id="paint66_linear_20_21" x1="-1.14136e+06" y1="459810" x2="-105751" y2="144246" gradientUnits="userSpaceOnUse">
<stop stop-color="#52BBE8"/>
<stop offset="1" stop-color="#E1EFF8"/>
</linearGradient>
<linearGradient id="paint67_linear_20_21" x1="-1.1487e+06" y1="491972" x2="-113095" y2="176409" gradientUnits="userSpaceOnUse">
<stop stop-color="#52BBE8"/>
<stop offset="1" stop-color="#E1EFF8"/>
</linearGradient>
<linearGradient id="paint68_linear_20_21" x1="-1.18048e+06" y1="437465" x2="-144868" y2="121902" gradientUnits="userSpaceOnUse">
<stop stop-color="#52BBE8"/>
<stop offset="1" stop-color="#E1EFF8"/>
</linearGradient>
<linearGradient id="paint69_linear_20_21" x1="-1.1398e+06" y1="640247" x2="-104175" y2="324724" gradientUnits="userSpaceOnUse">
<stop stop-color="#52BBE8"/>
<stop offset="1" stop-color="#E1EFF8"/>
</linearGradient>
<linearGradient id="paint70_linear_20_21" x1="-1.13202e+06" y1="609327" x2="-96451.5" y2="293805" gradientUnits="userSpaceOnUse">
<stop stop-color="#52BBE8"/>
<stop offset="1" stop-color="#E1EFF8"/>
</linearGradient>
<linearGradient id="paint71_linear_20_21" x1="-1.10536e+06" y1="587641" x2="-69748.8" y2="272078" gradientUnits="userSpaceOnUse">
<stop stop-color="#52BBE8"/>
<stop offset="1" stop-color="#E1EFF8"/>
</linearGradient>
<linearGradient id="paint72_linear_20_21" x1="-1.11271e+06" y1="619737" x2="-77098.4" y2="304174" gradientUnits="userSpaceOnUse">
<stop stop-color="#52BBE8"/>
<stop offset="1" stop-color="#E1EFF8"/>
</linearGradient>
<linearGradient id="paint73_linear_20_21" x1="-1.14431e+06" y1="565760" x2="-108747" y2="250239" gradientUnits="userSpaceOnUse">
<stop stop-color="#52BBE8"/>
<stop offset="1" stop-color="#E1EFF8"/>
</linearGradient>
<linearGradient id="paint74_linear_20_21" x1="-1.11636e+06" y1="548235" x2="-80747.3" y2="232672" gradientUnits="userSpaceOnUse">
<stop stop-color="#52BBE8"/>
<stop offset="1" stop-color="#E1EFF8"/>
</linearGradient>
<linearGradient id="paint75_linear_20_21" x1="-1.10959e+06" y1="514250" x2="-73966" y2="198726" gradientUnits="userSpaceOnUse">
<stop stop-color="#52BBE8"/>
<stop offset="1" stop-color="#E1EFF8"/>
</linearGradient>
<linearGradient id="paint76_linear_20_21" x1="-1.13608e+06" y1="536599" x2="-100467" y2="221036" gradientUnits="userSpaceOnUse">
<stop stop-color="#52BBE8"/>
<stop offset="1" stop-color="#E1EFF8"/>
</linearGradient>
<linearGradient id="paint77_linear_20_21" x1="-1.12182e+06" y1="470782" x2="-86210.5" y2="155219" gradientUnits="userSpaceOnUse">
<stop stop-color="#52BBE8"/>
<stop offset="1" stop-color="#E1EFF8"/>
</linearGradient>
<linearGradient id="paint78_linear_20_21" x1="-1.04635e+06" y1="622153" x2="-10727.5" y2="306629" gradientUnits="userSpaceOnUse">
<stop stop-color="#52BBE8"/>
<stop offset="1" stop-color="#E1EFF8"/>
</linearGradient>
<linearGradient id="paint79_linear_20_21" x1="-1.08559e+06" y1="599493" x2="-49980.3" y2="283930" gradientUnits="userSpaceOnUse">
<stop stop-color="#52BBE8"/>
<stop offset="1" stop-color="#E1EFF8"/>
</linearGradient>
<linearGradient id="paint80_linear_20_21" x1="-1.07686e+06" y1="571857" x2="-41247.9" y2="256294" gradientUnits="userSpaceOnUse">
<stop stop-color="#52BBE8"/>
<stop offset="1" stop-color="#E1EFF8"/>
</linearGradient>
<linearGradient id="paint81_linear_20_21" x1="-1.08987e+06" y1="525953" x2="-54258.8" y2="210390" gradientUnits="userSpaceOnUse">
<stop stop-color="#52BBE8"/>
<stop offset="1" stop-color="#E1EFF8"/>
</linearGradient>
<linearGradient id="paint82_linear_20_21" x1="-1.0816e+06" y1="496741" x2="-46036.8" y2="181220" gradientUnits="userSpaceOnUse">
<stop stop-color="#52BBE8"/>
<stop offset="1" stop-color="#E1EFF8"/>
</linearGradient>
<linearGradient id="paint83_linear_20_21" x1="-1.0613e+06" y1="510267" x2="-25730.9" y2="194746" gradientUnits="userSpaceOnUse">
<stop stop-color="#52BBE8"/>
<stop offset="1" stop-color="#E1EFF8"/>
</linearGradient>
<linearGradient id="paint84_linear_20_21" x1="-1.02633e+06" y1="634834" x2="9275.83" y2="319271" gradientUnits="userSpaceOnUse">
<stop stop-color="#52BBE8"/>
<stop offset="1" stop-color="#E1EFF8"/>
</linearGradient>
<linearGradient id="paint85_linear_20_21" x1="-1.04997e+06" y1="550734" x2="-14357.1" y2="235170" gradientUnits="userSpaceOnUse">
<stop stop-color="#52BBE8"/>
<stop offset="1" stop-color="#E1EFF8"/>
</linearGradient>
<linearGradient id="paint86_linear_20_21" x1="-1.03028e+06" y1="562287" x2="5283.27" y2="246766" gradientUnits="userSpaceOnUse">
<stop stop-color="#52BBE8"/>
<stop offset="1" stop-color="#E1EFF8"/>
</linearGradient>
<linearGradient id="paint87_linear_20_21" x1="-1.01425e+06" y1="677654" x2="21355.2" y2="362091" gradientUnits="userSpaceOnUse">
<stop stop-color="#52BBE8"/>
<stop offset="1" stop-color="#E1EFF8"/>
</linearGradient>
<linearGradient id="paint88_linear_20_21" x1="-17234.9" y1="5842.57" x2="-3045.24" y2="-2487.84" gradientUnits="userSpaceOnUse">
<stop stop-color="#52BBE8"/>
<stop offset="1" stop-color="#E1EFF8"/>
</linearGradient>
<linearGradient id="paint89_linear_20_21" x1="-1.23687e+06" y1="815312" x2="-134979" y2="479563" gradientUnits="userSpaceOnUse">
<stop stop-color="#52BBE8"/>
<stop offset="1" stop-color="#E1EFF8"/>
</linearGradient>
<linearGradient id="paint90_linear_20_21" x1="-1.23794e+06" y1="738601" x2="-136048" y2="402851" gradientUnits="userSpaceOnUse">
<stop stop-color="#52BBE8"/>
<stop offset="1" stop-color="#E1EFF8"/>
</linearGradient>
<linearGradient id="paint91_linear_20_21" x1="-1.23898e+06" y1="661905" x2="-137086" y2="326155" gradientUnits="userSpaceOnUse">
<stop stop-color="#52BBE8"/>
<stop offset="1" stop-color="#E1EFF8"/>
</linearGradient>
<linearGradient id="paint92_linear_20_21" x1="-1.24002e+06" y1="585209" x2="-138165" y2="249501" gradientUnits="userSpaceOnUse">
<stop stop-color="#52BBE8"/>
<stop offset="1" stop-color="#E1EFF8"/>
</linearGradient>
<linearGradient id="paint93_linear_20_21" x1="-1.14768e+06" y1="472137" x2="-174280" y2="175554" gradientUnits="userSpaceOnUse">
<stop stop-color="#52BBE8"/>
<stop offset="1" stop-color="#E1EFF8"/>
</linearGradient>
<linearGradient id="paint94_linear_20_21" x1="-1.20346e+06" y1="790453" x2="-101561" y2="454703" gradientUnits="userSpaceOnUse">
<stop stop-color="#52BBE8"/>
<stop offset="1" stop-color="#E1EFF8"/>
</linearGradient>
<linearGradient id="paint95_linear_20_21" x1="-1.20449e+06" y1="713757" x2="-102599" y2="378007" gradientUnits="userSpaceOnUse">
<stop stop-color="#52BBE8"/>
<stop offset="1" stop-color="#E1EFF8"/>
</linearGradient>
<linearGradient id="paint96_linear_20_21" x1="-1.20556e+06" y1="637045" x2="-103668" y2="301295" gradientUnits="userSpaceOnUse">
<stop stop-color="#52BBE8"/>
<stop offset="1" stop-color="#E1EFF8"/>
</linearGradient>
<linearGradient id="paint97_linear_20_21" x1="-1.2066e+06" y1="560349" x2="-104705" y2="224599" gradientUnits="userSpaceOnUse">
<stop stop-color="#52BBE8"/>
<stop offset="1" stop-color="#E1EFF8"/>
</linearGradient>
<linearGradient id="paint98_linear_20_21" x1="-1.03468e+06" y1="464697" x2="-212016" y2="214028" gradientUnits="userSpaceOnUse">
<stop stop-color="#52BBE8"/>
<stop offset="1" stop-color="#E1EFF8"/>
</linearGradient>
<linearGradient id="paint99_linear_20_21" x1="-1.17108e+06" y1="688897" x2="-69180.8" y2="353147" gradientUnits="userSpaceOnUse">
<stop stop-color="#52BBE8"/>
<stop offset="1" stop-color="#E1EFF8"/>
</linearGradient>
<linearGradient id="paint100_linear_20_21" x1="-1.17211e+06" y1="612201" x2="-70218.3" y2="276452" gradientUnits="userSpaceOnUse">
<stop stop-color="#52BBE8"/>
<stop offset="1" stop-color="#E1EFF8"/>
</linearGradient>
<linearGradient id="paint101_linear_20_21" x1="-1.09687e+06" y1="514264" x2="-123437" y2="217639" gradientUnits="userSpaceOnUse">
<stop stop-color="#52BBE8"/>
<stop offset="1" stop-color="#E1EFF8"/>
</linearGradient>
<linearGradient id="paint102_linear_20_21" x1="-1.13766e+06" y1="664037" x2="-35762.8" y2="328288" gradientUnits="userSpaceOnUse">
<stop stop-color="#52BBE8"/>
<stop offset="1" stop-color="#E1EFF8"/>
</linearGradient>
<linearGradient id="paint103_linear_20_21" x1="-1.13869e+06" y1="587341" x2="-36800.3" y2="251592" gradientUnits="userSpaceOnUse">
<stop stop-color="#52BBE8"/>
<stop offset="1" stop-color="#E1EFF8"/>
</linearGradient>
<linearGradient id="paint104_linear_20_21" x1="-1.00395e+06" y1="524553" x2="-181319" y2="273926" gradientUnits="userSpaceOnUse">
<stop stop-color="#52BBE8"/>
<stop offset="1" stop-color="#E1EFF8"/>
</linearGradient>
<linearGradient id="paint105_linear_20_21" x1="-1.10421e+06" y1="639194" x2="-2313.39" y2="303444" gradientUnits="userSpaceOnUse">
<stop stop-color="#52BBE8"/>
<stop offset="1" stop-color="#E1EFF8"/>
</linearGradient>
<linearGradient id="paint106_linear_20_21" x1="-1.04607e+06" y1="556391" x2="-72635.2" y2="259766" gradientUnits="userSpaceOnUse">
<stop stop-color="#52BBE8"/>
<stop offset="1" stop-color="#E1EFF8"/>
</linearGradient>
<linearGradient id="paint107_linear_20_21" x1="-973233" y1="584461" x2="-150624" y2="333794" gradientUnits="userSpaceOnUse">
<stop stop-color="#52BBE8"/>
<stop offset="1" stop-color="#E1EFF8"/>
</linearGradient>
<linearGradient id="paint108_linear_20_21" x1="-984692" y1="638287" x2="-13696.7" y2="342442" gradientUnits="userSpaceOnUse">
<stop stop-color="#52BBE8"/>
<stop offset="1" stop-color="#E1EFF8"/>
</linearGradient>
<linearGradient id="paint109_linear_20_21" x1="-992258" y1="567368" x2="-21263.1" y2="271523" gradientUnits="userSpaceOnUse">
<stop stop-color="#52BBE8"/>
<stop offset="1" stop-color="#E1EFF8"/>
</linearGradient>
<linearGradient id="paint110_linear_20_21" x1="-1.18632e+06" y1="587642" x2="-227228" y2="295443" gradientUnits="userSpaceOnUse">
<stop stop-color="#52BBE8"/>
<stop offset="1" stop-color="#E1EFF8"/>
</linearGradient>
<linearGradient id="paint111_linear_20_21" x1="-1.19694e+06" y1="495920" x2="-237826" y2="203640" gradientUnits="userSpaceOnUse">
<stop stop-color="#52BBE8"/>
<stop offset="1" stop-color="#E1EFF8"/>
</linearGradient>
<linearGradient id="paint112_linear_20_21" x1="-1.11944e+06" y1="348272" x2="-270510" y2="89570.3" gradientUnits="userSpaceOnUse">
<stop stop-color="#52BBE8"/>
<stop offset="1" stop-color="#E1EFF8"/>
</linearGradient>
<linearGradient id="paint113_linear_20_21" x1="-1.24269e+06" y1="689261" x2="-140792" y2="353511" gradientUnits="userSpaceOnUse">
<stop stop-color="#52BBE8"/>
<stop offset="1" stop-color="#E1EFF8"/>
</linearGradient>
<linearGradient id="paint114_linear_20_21" x1="-1.24405e+06" y1="589307" x2="-142153" y2="253557" gradientUnits="userSpaceOnUse">
<stop stop-color="#52BBE8"/>
<stop offset="1" stop-color="#E1EFF8"/>
</linearGradient>
<linearGradient id="paint115_linear_20_21" x1="-1.07668e+06" y1="456537" x2="-208017" y2="191870" gradientUnits="userSpaceOnUse">
<stop stop-color="#52BBE8"/>
<stop offset="1" stop-color="#E1EFF8"/>
</linearGradient>
<linearGradient id="paint116_linear_20_21" x1="-1.19908e+06" y1="656828" x2="-97244.1" y2="321081" gradientUnits="userSpaceOnUse">
<stop stop-color="#52BBE8"/>
<stop offset="1" stop-color="#E1EFF8"/>
</linearGradient>
<linearGradient id="paint117_linear_20_21" x1="-1.13734e+06" y1="539664" x2="-125495" y2="231351" gradientUnits="userSpaceOnUse">
<stop stop-color="#52BBE8"/>
<stop offset="1" stop-color="#E1EFF8"/>
</linearGradient>
<linearGradient id="paint118_linear_20_21" x1="-1.02867e+06" y1="527565" x2="-159963" y2="262857" gradientUnits="userSpaceOnUse">
<stop stop-color="#52BBE8"/>
<stop offset="1" stop-color="#E1EFF8"/>
</linearGradient>
<linearGradient id="paint119_linear_20_21" x1="-1.06703e+06" y1="659605" x2="34860.4" y2="323855" gradientUnits="userSpaceOnUse">
<stop stop-color="#52BBE8"/>
<stop offset="1" stop-color="#E1EFF8"/>
</linearGradient>
<linearGradient id="paint120_linear_20_21" x1="-1.01621e+06" y1="714694" x2="61557.5" y2="386330" gradientUnits="userSpaceOnUse">
<stop stop-color="#52BBE8"/>
<stop offset="1" stop-color="#E1EFF8"/>
</linearGradient>
<linearGradient id="paint121_linear_20_21" x1="-1.00471e+06" y1="640343" x2="50882.8" y2="318723" gradientUnits="userSpaceOnUse">
<stop stop-color="#52BBE8"/>
<stop offset="1" stop-color="#E1EFF8"/>
</linearGradient>
<linearGradient id="paint122_linear_20_21" x1="-1.58118e+06" y1="1.03923e+06" x2="3.84235e+06" y2="-613329" gradientUnits="userSpaceOnUse">
<stop stop-color="#52BBE8"/>
<stop offset="1" stop-color="#E1EFF8"/>
</linearGradient>
<linearGradient id="paint123_linear_20_21" x1="-1.00629e+06" y1="595276" x2="76423.3" y2="265350" gradientUnits="userSpaceOnUse">
<stop stop-color="#52BBE8"/>
<stop offset="1" stop-color="#E1EFF8"/>
</linearGradient>
<linearGradient id="paint124_linear_20_21" x1="-1.58116e+06" y1="1.03918e+06" x2="3.84218e+06" y2="-613291" gradientUnits="userSpaceOnUse">
<stop stop-color="#52BBE8"/>
<stop offset="1" stop-color="#E1EFF8"/>
</linearGradient>
<linearGradient id="paint125_linear_20_21" x1="-1.20936e+06" y1="742953" x2="-173794" y2="427432" gradientUnits="userSpaceOnUse">
<stop stop-color="#52BBE8"/>
<stop offset="1" stop-color="#E1EFF8"/>
</linearGradient>
<linearGradient id="paint126_linear_20_21" x1="-1.19048e+06" y1="751937" x2="-154908" y2="436416" gradientUnits="userSpaceOnUse">
<stop stop-color="#52BBE8"/>
<stop offset="1" stop-color="#E1EFF8"/>
</linearGradient>
<linearGradient id="paint127_linear_20_21" x1="-1.18295e+06" y1="720439" x2="-147344" y2="404876" gradientUnits="userSpaceOnUse">
<stop stop-color="#52BBE8"/>
<stop offset="1" stop-color="#E1EFF8"/>
</linearGradient>
<linearGradient id="paint128_linear_20_21" x1="-1.22291e+06" y1="695375" x2="-187301" y2="379812" gradientUnits="userSpaceOnUse">
<stop stop-color="#52BBE8"/>
<stop offset="1" stop-color="#E1EFF8"/>
</linearGradient>
<linearGradient id="paint129_linear_20_21" x1="-1.21464e+06" y1="666230" x2="-179031" y2="350667" gradientUnits="userSpaceOnUse">
<stop stop-color="#52BBE8"/>
<stop offset="1" stop-color="#E1EFF8"/>
</linearGradient>
<linearGradient id="paint130_linear_20_21" x1="-1.194e+06" y1="680817" x2="-158434" y2="365295" gradientUnits="userSpaceOnUse">
<stop stop-color="#52BBE8"/>
<stop offset="1" stop-color="#E1EFF8"/>
</linearGradient>
<linearGradient id="paint131_linear_20_21" x1="-1.22698e+06" y1="622514" x2="-191370" y2="306951" gradientUnits="userSpaceOnUse">
<stop stop-color="#52BBE8"/>
<stop offset="1" stop-color="#E1EFF8"/>
</linearGradient>
<linearGradient id="paint132_linear_20_21" x1="-1.21854e+06" y1="593900" x2="-182933" y2="278336" gradientUnits="userSpaceOnUse">
<stop stop-color="#52BBE8"/>
<stop offset="1" stop-color="#E1EFF8"/>
</linearGradient>
<linearGradient id="paint133_linear_20_21" x1="-1.19849e+06" y1="606530" x2="-162928" y2="291009" gradientUnits="userSpaceOnUse">
<stop stop-color="#52BBE8"/>
<stop offset="1" stop-color="#E1EFF8"/>
</linearGradient>
<linearGradient id="paint134_linear_20_21" x1="-1.23121e+06" y1="549190" x2="-195581" y2="233666" gradientUnits="userSpaceOnUse">
<stop stop-color="#52BBE8"/>
<stop offset="1" stop-color="#E1EFF8"/>
</linearGradient>
<linearGradient id="paint135_linear_20_21" x1="-1.22334e+06" y1="518568" x2="-187771" y2="203046" gradientUnits="userSpaceOnUse">
<stop stop-color="#52BBE8"/>
<stop offset="1" stop-color="#E1EFF8"/>
</linearGradient>
<linearGradient id="paint136_linear_20_21" x1="-1.20399e+06" y1="529060" x2="-168381" y2="213497" gradientUnits="userSpaceOnUse">
<stop stop-color="#52BBE8"/>
<stop offset="1" stop-color="#E1EFF8"/>
</linearGradient>
<linearGradient id="paint137_linear_20_21" x1="-1.23576e+06" y1="474620" x2="-200190" y2="159099" gradientUnits="userSpaceOnUse">
<stop stop-color="#52BBE8"/>
<stop offset="1" stop-color="#E1EFF8"/>
</linearGradient>
<linearGradient id="paint138_linear_20_21" x1="-1.22764e+06" y1="445078" x2="-192034" y2="129515" gradientUnits="userSpaceOnUse">
<stop stop-color="#52BBE8"/>
<stop offset="1" stop-color="#E1EFF8"/>
</linearGradient>
<linearGradient id="paint139_linear_20_21" x1="-1.20779e+06" y1="457229" x2="-172179" y2="141666" gradientUnits="userSpaceOnUse">
<stop stop-color="#52BBE8"/>
<stop offset="1" stop-color="#E1EFF8"/>
</linearGradient>
<linearGradient id="paint140_linear_20_21" x1="-1.23973e+06" y1="402191" x2="-204119" y2="86628" gradientUnits="userSpaceOnUse">
<stop stop-color="#52BBE8"/>
<stop offset="1" stop-color="#E1EFF8"/>
</linearGradient>
<linearGradient id="paint141_linear_20_21" x1="-1.16282e+06" y1="733367" x2="-127211" y2="417804" gradientUnits="userSpaceOnUse">
<stop stop-color="#52BBE8"/>
<stop offset="1" stop-color="#E1EFF8"/>
</linearGradient>
<linearGradient id="paint142_linear_20_21" x1="-1.18766e+06" y1="645405" x2="-152078" y2="329924" gradientUnits="userSpaceOnUse">
<stop stop-color="#52BBE8"/>
<stop offset="1" stop-color="#E1EFF8"/>
</linearGradient>
<linearGradient id="paint143_linear_20_21" x1="-1.16726e+06" y1="659296" x2="-131698" y2="343775" gradientUnits="userSpaceOnUse">
<stop stop-color="#52BBE8"/>
<stop offset="1" stop-color="#E1EFF8"/>
</linearGradient>
<linearGradient id="paint144_linear_20_21" x1="-1.16014e+06" y1="626388" x2="-124570" y2="310866" gradientUnits="userSpaceOnUse">
<stop stop-color="#52BBE8"/>
<stop offset="1" stop-color="#E1EFF8"/>
</linearGradient>
<linearGradient id="paint145_linear_20_21" x1="-1.19059e+06" y1="576308" x2="-155005" y2="260826" gradientUnits="userSpaceOnUse">
<stop stop-color="#52BBE8"/>
<stop offset="1" stop-color="#E1EFF8"/>
</linearGradient>
<linearGradient id="paint146_linear_20_21" x1="-1.1955e+06" y1="500662" x2="-159896" y2="185099" gradientUnits="userSpaceOnUse">
<stop stop-color="#52BBE8"/>
<stop offset="1" stop-color="#E1EFF8"/>
</linearGradient>
<linearGradient id="paint147_linear_20_21" x1="-1.16817e+06" y1="481165" x2="-132562" y2="165602" gradientUnits="userSpaceOnUse">
<stop stop-color="#52BBE8"/>
<stop offset="1" stop-color="#E1EFF8"/>
</linearGradient>
<linearGradient id="paint148_linear_20_21" x1="-1.17553e+06" y1="513194" x2="-139959" y2="197672" gradientUnits="userSpaceOnUse">
<stop stop-color="#52BBE8"/>
<stop offset="1" stop-color="#E1EFF8"/>
</linearGradient>
<linearGradient id="paint149_linear_20_21" x1="-1.19974e+06" y1="427271" x2="-164131" y2="111707" gradientUnits="userSpaceOnUse">
<stop stop-color="#52BBE8"/>
<stop offset="1" stop-color="#E1EFF8"/>
</linearGradient>
<linearGradient id="paint150_linear_20_21" x1="-1.15548e+06" y1="701205" x2="-119867" y2="385642" gradientUnits="userSpaceOnUse">
<stop stop-color="#52BBE8"/>
<stop offset="1" stop-color="#E1EFF8"/>
</linearGradient>
<linearGradient id="paint151_linear_20_21" x1="-1.17209e+06" y1="583949" x2="-136484" y2="268385" gradientUnits="userSpaceOnUse">
<stop stop-color="#52BBE8"/>
<stop offset="1" stop-color="#E1EFF8"/>
</linearGradient>
<linearGradient id="paint152_linear_20_21" x1="-1.16433e+06" y1="553079" x2="-128768" y2="237558" gradientUnits="userSpaceOnUse">
<stop stop-color="#52BBE8"/>
<stop offset="1" stop-color="#E1EFF8"/>
</linearGradient>
<linearGradient id="paint153_linear_20_21" x1="-1.14136e+06" y1="459810" x2="-105751" y2="144246" gradientUnits="userSpaceOnUse">
<stop stop-color="#52BBE8"/>
<stop offset="1" stop-color="#E1EFF8"/>
</linearGradient>
<linearGradient id="paint154_linear_20_21" x1="-1.1487e+06" y1="491972" x2="-113095" y2="176409" gradientUnits="userSpaceOnUse">
<stop stop-color="#52BBE8"/>
<stop offset="1" stop-color="#E1EFF8"/>
</linearGradient>
<linearGradient id="paint155_linear_20_21" x1="-1.18048e+06" y1="437465" x2="-144868" y2="121902" gradientUnits="userSpaceOnUse">
<stop stop-color="#52BBE8"/>
<stop offset="1" stop-color="#E1EFF8"/>
</linearGradient>
<linearGradient id="paint156_linear_20_21" x1="-1.1398e+06" y1="640247" x2="-104175" y2="324724" gradientUnits="userSpaceOnUse">
<stop stop-color="#52BBE8"/>
<stop offset="1" stop-color="#E1EFF8"/>
</linearGradient>
<linearGradient id="paint157_linear_20_21" x1="-1.13202e+06" y1="609327" x2="-96451.5" y2="293805" gradientUnits="userSpaceOnUse">
<stop stop-color="#52BBE8"/>
<stop offset="1" stop-color="#E1EFF8"/>
</linearGradient>
<linearGradient id="paint158_linear_20_21" x1="-1.10536e+06" y1="587641" x2="-69748.8" y2="272078" gradientUnits="userSpaceOnUse">
<stop stop-color="#52BBE8"/>
<stop offset="1" stop-color="#E1EFF8"/>
</linearGradient>
<linearGradient id="paint159_linear_20_21" x1="-1.11271e+06" y1="619737" x2="-77098.4" y2="304174" gradientUnits="userSpaceOnUse">
<stop stop-color="#52BBE8"/>
<stop offset="1" stop-color="#E1EFF8"/>
</linearGradient>
<linearGradient id="paint160_linear_20_21" x1="-1.14431e+06" y1="565760" x2="-108747" y2="250239" gradientUnits="userSpaceOnUse">
<stop stop-color="#52BBE8"/>
<stop offset="1" stop-color="#E1EFF8"/>
</linearGradient>
<linearGradient id="paint161_linear_20_21" x1="-1.11636e+06" y1="548235" x2="-80747.3" y2="232672" gradientUnits="userSpaceOnUse">
<stop stop-color="#52BBE8"/>
<stop offset="1" stop-color="#E1EFF8"/>
</linearGradient>
<linearGradient id="paint162_linear_20_21" x1="-1.10959e+06" y1="514250" x2="-73966" y2="198726" gradientUnits="userSpaceOnUse">
<stop stop-color="#52BBE8"/>
<stop offset="1" stop-color="#E1EFF8"/>
</linearGradient>
<linearGradient id="paint163_linear_20_21" x1="-1.13608e+06" y1="536599" x2="-100467" y2="221036" gradientUnits="userSpaceOnUse">
<stop stop-color="#52BBE8"/>
<stop offset="1" stop-color="#E1EFF8"/>
</linearGradient>
<linearGradient id="paint164_linear_20_21" x1="-1.12182e+06" y1="470782" x2="-86210.5" y2="155219" gradientUnits="userSpaceOnUse">
<stop stop-color="#52BBE8"/>
<stop offset="1" stop-color="#E1EFF8"/>
</linearGradient>
<linearGradient id="paint165_linear_20_21" x1="-1.04635e+06" y1="622153" x2="-10727.5" y2="306629" gradientUnits="userSpaceOnUse">
<stop stop-color="#52BBE8"/>
<stop offset="1" stop-color="#E1EFF8"/>
</linearGradient>
<linearGradient id="paint166_linear_20_21" x1="-1.08559e+06" y1="599493" x2="-49980.3" y2="283930" gradientUnits="userSpaceOnUse">
<stop stop-color="#52BBE8"/>
<stop offset="1" stop-color="#E1EFF8"/>
</linearGradient>
<linearGradient id="paint167_linear_20_21" x1="-1.07686e+06" y1="571857" x2="-41247.9" y2="256294" gradientUnits="userSpaceOnUse">
<stop stop-color="#52BBE8"/>
<stop offset="1" stop-color="#E1EFF8"/>
</linearGradient>
<linearGradient id="paint168_linear_20_21" x1="-1.08987e+06" y1="525953" x2="-54258.8" y2="210390" gradientUnits="userSpaceOnUse">
<stop stop-color="#52BBE8"/>
<stop offset="1" stop-color="#E1EFF8"/>
</linearGradient>
<linearGradient id="paint169_linear_20_21" x1="-1.0816e+06" y1="496741" x2="-46036.8" y2="181220" gradientUnits="userSpaceOnUse">
<stop stop-color="#52BBE8"/>
<stop offset="1" stop-color="#E1EFF8"/>
</linearGradient>
<linearGradient id="paint170_linear_20_21" x1="-1.0613e+06" y1="510267" x2="-25730.9" y2="194746" gradientUnits="userSpaceOnUse">
<stop stop-color="#52BBE8"/>
<stop offset="1" stop-color="#E1EFF8"/>
</linearGradient>
<linearGradient id="paint171_linear_20_21" x1="-1.02633e+06" y1="634834" x2="9275.83" y2="319271" gradientUnits="userSpaceOnUse">
<stop stop-color="#52BBE8"/>
<stop offset="1" stop-color="#E1EFF8"/>
</linearGradient>
<linearGradient id="paint172_linear_20_21" x1="-1.04997e+06" y1="550734" x2="-14357.1" y2="235170" gradientUnits="userSpaceOnUse">
<stop stop-color="#52BBE8"/>
<stop offset="1" stop-color="#E1EFF8"/>
</linearGradient>
<linearGradient id="paint173_linear_20_21" x1="-1.03028e+06" y1="562287" x2="5283.27" y2="246766" gradientUnits="userSpaceOnUse">
<stop stop-color="#52BBE8"/>
<stop offset="1" stop-color="#E1EFF8"/>
</linearGradient>
<linearGradient id="paint174_linear_20_21" x1="-1.01425e+06" y1="677654" x2="21355.2" y2="362091" gradientUnits="userSpaceOnUse">
<stop stop-color="#52BBE8"/>
<stop offset="1" stop-color="#E1EFF8"/>
</linearGradient>
<linearGradient id="paint175_linear_20_21" x1="-17234.9" y1="5842.57" x2="-3045.24" y2="-2487.84" gradientUnits="userSpaceOnUse">
<stop stop-color="#52BBE8"/>
<stop offset="1" stop-color="#E1EFF8"/>
</linearGradient>
<linearGradient id="paint176_linear_20_21" x1="218" y1="0" x2="218" y2="554" gradientUnits="userSpaceOnUse">
<stop stop-color="#FFF3CD"/>
<stop offset="1" stop-color="white" stop-opacity="0"/>
</linearGradient>
</defs>
</svg>
