<svg width="543" height="601" viewBox="0 0 543 601" fill="none" xmlns="http://www.w3.org/2000/svg">
<mask id="mask0_20_17" style="mask-type:alpha" maskUnits="userSpaceOnUse" x="20" y="47" width="613" height="549">
<path fill-rule="evenodd" clip-rule="evenodd" d="M373.22 119.178L373.211 119.085L371.624 75.7347L408.478 52.6682L408.536 52.6816L446.855 73.0902L446.864 73.184L448.451 116.534L411.598 139.6L411.518 139.551L373.22 119.178ZM371.96 75.8732L373.542 118.977L411.598 139.203L448.129 116.337L446.57 73.269L408.491 53.0079L371.96 75.8732Z" fill="url(#paint0_linear_20_17)"/>
<path fill-rule="evenodd" clip-rule="evenodd" d="M413.015 182.759L413.006 182.665L411.419 139.315L448.272 116.248L448.353 116.297L486.65 136.67L486.659 136.764L488.246 180.114L451.393 203.181L451.312 203.131L413.015 182.759ZM411.777 139.489L413.336 182.557L451.415 202.818L487.947 179.953L486.364 136.849L448.309 116.624L411.777 139.489Z" fill="url(#paint1_linear_20_17)"/>
<path fill-rule="evenodd" clip-rule="evenodd" d="M452.832 246.374L452.823 246.28L451.236 202.93L488.089 179.863L488.147 179.877L526.467 200.285L526.476 200.379L528.063 243.729L491.21 266.796L491.129 266.746L452.832 246.374ZM451.571 203.068L453.153 246.172L491.209 266.398L527.741 243.532L526.181 200.464L488.103 180.203L451.571 203.068Z" fill="url(#paint2_linear_20_17)"/>
<path fill-rule="evenodd" clip-rule="evenodd" d="M492.627 309.953L492.617 309.859L491.031 266.509L527.884 243.443L527.964 243.492L566.262 263.865L566.271 263.959L567.858 307.309L531.004 330.375L530.924 330.326L492.627 309.953ZM491.388 266.684L492.948 309.752L531.026 330.013L567.558 307.148L565.976 264.044L527.92 243.818L491.388 266.684Z" fill="url(#paint3_linear_20_17)"/>
<path d="M542.144 378.347L532.765 373.368L531.183 330.263L567.679 307.421L605.757 327.682L606.137 338.293L606.458 338.092L606.088 327.574L606.079 327.48L567.759 307.072L567.701 307.058L530.848 330.125L532.434 373.475L532.444 373.569L541.822 378.548L542.144 378.347Z" fill="url(#paint4_linear_20_17)"/>
<path fill-rule="evenodd" clip-rule="evenodd" d="M338.123 185.389L338.114 185.296L336.528 141.946L373.345 118.901L373.461 118.928L411.759 139.301L411.768 139.395L413.319 182.767L376.501 205.811L376.421 205.762L338.123 185.389ZM336.885 142.12L338.445 185.188L376.501 205.414L413.033 182.548L411.473 139.48L373.417 119.255L336.885 142.12Z" fill="url(#paint5_linear_20_17)"/>
<path fill-rule="evenodd" clip-rule="evenodd" d="M377.918 248.969L377.909 248.875L376.322 205.525L413.14 182.481L413.256 182.508L451.553 202.881L451.562 202.975L453.136 246.383L416.318 269.427L416.238 269.378L377.918 248.969ZM376.657 205.664L378.24 248.768L416.295 268.993L452.827 246.128L451.267 203.06L413.189 182.799L376.657 205.664Z" fill="url(#paint6_linear_20_17)"/>
<path fill-rule="evenodd" clip-rule="evenodd" d="M417.735 312.585L417.726 312.491L416.139 269.141L452.957 246.097L453.073 246.123L491.37 266.496L491.379 266.59L492.93 309.962L456.113 333.007L456.032 332.957L417.735 312.585ZM416.497 269.315L418.057 312.383L456.135 332.644L492.667 309.779L491.085 266.675L453.029 246.45L416.497 269.315Z" fill="url(#paint7_linear_20_17)"/>
<path fill-rule="evenodd" clip-rule="evenodd" d="M457.53 376.164L457.521 376.07L455.934 332.72L492.751 309.676L492.868 309.703L531.165 330.076L531.174 330.17L532.747 373.578L495.93 396.622L495.849 396.573L457.53 376.164ZM456.269 332.859L457.851 375.963L495.907 396.188L532.439 373.323L530.879 330.255L492.801 309.994L456.269 332.859Z" fill="url(#paint8_linear_20_17)"/>
<path d="M496.47 406.934L496.108 396.51L532.605 373.667L541.822 378.548L542.144 378.347L532.685 373.319L532.568 373.292L495.751 396.336L496.149 407.135L496.47 406.934Z" fill="url(#paint9_linear_20_17)"/>
<path fill-rule="evenodd" clip-rule="evenodd" d="M342.808 315.238L342.799 315.144L341.248 271.772L378.065 248.727L378.123 248.741L416.479 269.127L416.488 269.221L418.039 312.593L381.221 335.637L381.141 335.588L342.808 315.238ZM341.547 271.933L343.129 315.037L381.185 335.262L417.681 312.419L416.122 269.351L378.043 249.09L341.547 271.933Z" fill="url(#paint10_linear_20_17)"/>
<path fill-rule="evenodd" clip-rule="evenodd" d="M382.603 378.818L382.593 378.724L381.042 335.351L417.86 312.307L417.94 312.356L456.273 332.707L456.282 332.801L457.834 376.173L421.016 399.217L420.936 399.168L382.603 378.818ZM381.364 335.548L382.924 378.616L421.002 398.877L457.498 376.034L455.916 332.93L417.86 312.705L381.364 335.548Z" fill="url(#paint11_linear_20_17)"/>
<path d="M432.12 447.211L422.741 442.232L421.159 399.128L457.691 376.262L495.769 396.523L496.149 407.135L496.47 406.934L496.099 396.416L496.09 396.322L457.735 375.936L457.677 375.923L420.859 398.967L422.41 442.339L422.42 442.433L431.798 447.412L432.12 447.211Z" fill="url(#paint12_linear_20_17)"/>
<path fill-rule="evenodd" clip-rule="evenodd" d="M307.711 381.449L307.702 381.355L306.151 337.983L342.968 314.939L343.049 314.988L381.382 335.338L381.391 335.432L382.942 378.804L346.125 401.848L346.044 401.799L307.711 381.449ZM306.473 338.179L308.032 381.248L346.111 401.509L382.607 378.666L381.025 335.562L342.969 315.336L306.473 338.179Z" fill="url(#paint13_linear_20_17)"/>
<path fill-rule="evenodd" clip-rule="evenodd" d="M347.506 445.029L347.497 444.935L345.945 401.562L382.763 378.518L382.843 378.567L421.176 398.918L421.185 399.012L422.759 442.42L385.942 465.464L385.861 465.415L347.506 445.029ZM346.245 401.723L347.827 444.827L385.883 465.053L422.379 442.21L420.819 399.141L382.741 378.88L346.245 401.723Z" fill="url(#paint14_linear_20_17)"/>
<path d="M386.446 475.798L386.084 465.374L422.616 442.509L431.798 447.412L432.12 447.211L422.66 442.183L422.58 442.134L385.763 465.178L386.125 476L386.446 475.798Z" fill="url(#paint15_linear_20_17)"/>
<path fill-rule="evenodd" clip-rule="evenodd" d="M272.614 447.659L272.605 447.566L271.018 404.216L307.871 381.149L307.952 381.198L346.249 401.571L346.258 401.665L347.845 445.015L310.992 468.081L310.911 468.032L272.614 447.659ZM271.376 404.39L272.936 447.458L311.014 467.719L347.546 444.854L345.964 401.75L307.908 381.525L271.376 404.39Z" fill="url(#paint16_linear_20_17)"/>
<path d="M322.131 516.053L312.753 511.074L311.17 467.97L347.667 445.127L385.745 465.388L386.125 476L386.446 475.798L386.075 465.28L386.066 465.187L347.747 444.778L347.688 444.765L310.835 467.831L312.422 511.181L312.431 511.275L321.81 516.254L322.131 516.053Z" fill="url(#paint17_linear_20_17)"/>
<path d="M276.458 544.64L276.096 534.216L312.592 511.373L321.81 516.254L322.131 516.053L312.672 511.025L312.592 510.976L275.738 534.042L276.136 544.841L276.458 544.64Z" fill="url(#paint18_linear_20_17)"/>
<path d="M102.351 465.939L122.992 453.02L161.048 473.245L162.608 516.314L141.967 529.233L142.146 529.519L162.93 516.51L161.378 473.138L161.369 473.044L123.036 452.694L122.956 452.645L102.172 465.653L102.351 465.939Z" fill="url(#paint19_linear_20_17)"/>
<path d="M142.146 529.519L162.787 516.6L200.843 536.825L202.425 579.929L181.784 592.848L181.963 593.134L202.747 580.126L201.173 536.718L201.164 536.624L162.831 516.274L162.751 516.224L141.967 529.233L142.146 529.519Z" fill="url(#paint20_linear_20_17)"/>
<path d="M579.315 153.621L548.068 173.179L499.1 147.192L497.105 91.7552L528.352 72.1979L527.457 70.7675L495.389 90.8389L497.458 148.22L548.165 175.159L580.233 155.088L579.315 153.621Z" fill="url(#paint21_linear_20_17)"/>
<path d="M631.196 236.511L599.949 256.068L550.981 230.082L548.986 174.645L580.233 155.088L579.315 153.621L547.247 173.693L549.338 231.11L600.045 258.049L632.113 237.977L631.196 236.511Z" fill="url(#paint22_linear_20_17)"/>
<path d="M600.867 257.534L632.113 237.977L631.196 236.511L599.128 256.582L601.197 313.964L624.885 326.559L626.528 325.531L602.839 312.935L600.867 257.534Z" fill="url(#paint23_linear_20_17)"/>
<path fill-rule="evenodd" clip-rule="evenodd" d="M451.727 234.524L449.6 177.129L498.237 146.687L548.967 173.661L551.036 231.042L502.398 261.485L451.727 234.524ZM451.374 178.059L453.405 233.473L502.338 259.482L549.297 230.09L547.324 174.689L498.334 148.667L451.374 178.059Z" fill="url(#paint24_linear_20_17)"/>
<path fill-rule="evenodd" clip-rule="evenodd" d="M503.585 317.378L501.48 260.019L550.118 229.576L600.825 256.515L602.894 313.896L554.256 344.339L503.585 317.378ZM503.255 260.948L505.264 316.327L554.218 342.372L601.178 312.98L599.182 257.543L550.214 231.556L503.255 260.948Z" fill="url(#paint25_linear_20_17)"/>
<path d="M556.035 369.652L555.114 343.803L602.073 314.411L624.885 326.559L626.528 325.531L601.999 312.466L553.361 342.909L554.393 370.681L556.035 369.652Z" fill="url(#paint26_linear_20_17)"/>
<path fill-rule="evenodd" clip-rule="evenodd" d="M405.961 320.85L403.869 263.433L452.507 232.991L503.2 259.988L505.305 317.346L456.668 347.789L405.961 320.85ZM405.608 264.385L407.639 319.8L456.571 345.809L503.531 316.417L501.558 261.016L452.567 234.993L405.608 264.385Z" fill="url(#paint27_linear_20_17)"/>
<path d="M483.186 415.249L459.497 402.653L457.489 347.275L504.448 317.883L553.416 343.87L554.393 370.681L556.035 369.652L555.059 342.841L504.388 315.88L455.75 346.323L457.819 403.704L481.507 416.299L483.186 415.249Z" fill="url(#paint28_linear_20_17)"/>
<path d="M412.693 459.37L411.736 433.543L458.695 404.151L481.507 416.299L483.186 415.249L458.621 402.206L410.019 432.627L411.015 460.421L412.693 459.37Z" fill="url(#paint29_linear_20_17)"/>
<path fill-rule="evenodd" clip-rule="evenodd" d="M216.83 496.858L214.761 439.477L263.363 409.057L314.07 435.996L316.139 493.377L267.537 523.797L216.83 496.858ZM216.5 440.429L218.473 495.83L267.463 521.853L314.422 492.461L312.391 437.046L263.459 411.037L216.5 440.429Z" fill="url(#paint30_linear_20_17)"/>
<path d="M120.749 495.333L118.889 443.843L165.848 414.452L214.802 440.496L216.811 495.875L169.852 525.267L124.353 501.09L126.143 503.951L169.948 527.247L218.55 496.827L216.481 439.446L165.752 412.471L117.15 442.891L118.959 492.472L120.749 495.333Z" fill="url(#paint31_linear_20_17)"/>
<path d="M266.661 523.35L267.637 550.161L269.316 549.111L268.339 522.3L217.632 495.361L169.03 525.781L170.817 575.326L172.63 578.223L170.769 526.733L217.729 497.341L266.661 523.35Z" fill="url(#paint32_linear_20_17)"/>
<path d="M196.431 594.73L176.234 583.98L178.024 586.841L194.788 595.758L196.431 594.73Z" fill="url(#paint33_linear_20_17)"/>
<path d="M22.4039 338.207L65.3101 361.021L67.0778 409.583L68.8683 412.443L66.9884 359.97L20.591 335.311L22.4039 338.207Z" fill="url(#paint34_linear_20_17)"/>
<path d="M74.2846 421.097L117.191 443.91L118.959 492.472L120.749 495.333L118.869 442.86L72.4717 418.2L74.2846 421.097Z" fill="url(#paint35_linear_20_17)"/>
<path d="M126.143 503.951L169.049 526.764L170.817 575.326L172.63 578.223L170.728 525.714L124.353 501.09L126.143 503.951Z" fill="url(#paint36_linear_20_17)"/>
<path d="M196.431 594.73L176.234 583.98L178.024 586.841L194.788 595.758L196.431 594.73Z" fill="url(#paint37_linear_20_17)"/>
<path d="M412.83 50.0933C411.33 47.6974 408.135 46.96 405.707 48.4799C403.314 49.9774 402.581 53.1735 404.081 55.5694C405.603 58.001 408.798 58.7384 411.191 57.2409C413.619 55.721 414.352 52.5249 412.83 50.0933Z" fill="url(#paint38_linear_20_17)"/>
<path d="M369.049 77.4961C370.011 79.0338 371.987 79.4897 373.522 78.5286C375.022 77.5898 375.475 75.614 374.513 74.0764C373.573 72.5745 371.598 72.1187 370.098 73.0574C368.562 74.0185 368.109 75.9943 369.049 77.4961Z" fill="url(#paint39_linear_20_17)"/>
<path d="M370.899 120.631C371.75 121.99 373.55 122.406 374.907 121.557C376.264 120.707 376.678 118.906 375.827 117.547C374.977 116.188 373.176 115.772 371.819 116.622C370.462 117.471 370.049 119.273 370.899 120.631Z" fill="url(#paint40_linear_20_17)"/>
<path d="M445.427 73.9843C445.852 74.6638 446.782 74.8783 447.496 74.4313C448.21 73.9842 448.388 73.0768 447.962 72.3974C447.515 71.6822 446.621 71.4453 445.907 71.8924C445.193 72.3394 444.979 73.2692 445.427 73.9843Z" fill="url(#paint41_linear_20_17)"/>
<path d="M445.755 118.023C446.628 119.417 448.464 119.811 449.821 118.961C451.214 118.09 451.663 116.266 450.79 114.871C449.917 113.477 448.081 113.083 446.688 113.955C445.331 114.804 444.882 116.628 445.755 118.023Z" fill="url(#paint42_linear_20_17)"/>
<path d="M416.008 136.641C414.486 134.21 411.269 133.437 408.841 134.957C406.376 136.499 405.666 139.731 407.188 142.162C408.71 144.594 411.905 145.331 414.369 143.789C416.797 142.269 417.53 139.073 416.008 136.641Z" fill="url(#paint43_linear_20_17)"/>
<path d="M484.65 137.921C485.299 138.958 486.635 139.267 487.671 138.619C488.707 137.97 489.013 136.634 488.364 135.597C487.715 134.56 486.379 134.252 485.343 134.9C484.308 135.548 484.001 136.884 484.65 137.921Z" fill="url(#paint44_linear_20_17)"/>
<path d="M484.657 182.161C485.843 184.057 488.305 184.655 490.198 183.471C492.091 182.286 492.664 179.787 491.478 177.892C490.291 175.997 487.793 175.42 485.901 176.605C484.008 177.79 483.471 180.266 484.657 182.161Z" fill="url(#paint45_linear_20_17)"/>
<path d="M447.304 205.54C448.736 207.829 451.699 208.513 453.984 207.082C456.234 205.674 456.914 202.711 455.481 200.422C454.071 198.169 451.109 197.485 448.859 198.894C446.573 200.324 445.894 203.288 447.304 205.54Z" fill="url(#paint46_linear_20_17)"/>
<path d="M524.181 201.716C524.92 202.896 526.488 203.258 527.667 202.52C528.845 201.782 529.205 200.213 528.467 199.033C527.728 197.853 526.16 197.491 524.981 198.229C523.803 198.967 523.443 200.536 524.181 201.716Z" fill="url(#paint47_linear_20_17)"/>
<path d="M525.438 245.173C526.288 246.532 528.054 246.97 529.411 246.12C530.768 245.271 531.181 243.47 530.33 242.111C529.48 240.752 527.679 240.336 526.322 241.186C524.965 242.035 524.587 243.814 525.438 245.173Z" fill="url(#paint48_linear_20_17)"/>
<path d="M489.478 267.681C490.082 268.646 491.36 268.941 492.324 268.338C493.288 267.734 493.581 266.456 492.977 265.49C492.373 264.525 491.095 264.23 490.131 264.833C489.166 265.437 488.873 266.715 489.478 267.681Z" fill="url(#paint49_linear_20_17)"/>
<path d="M564.476 264.983C565.058 265.913 566.22 266.181 567.149 265.6C568.041 265.041 568.344 263.856 567.762 262.927C567.202 262.033 565.982 261.751 565.089 262.31C564.161 262.891 563.917 264.089 564.476 264.983Z" fill="url(#paint50_linear_20_17)"/>
<path d="M565.09 308.842C566.008 310.308 567.866 310.737 569.295 309.843C570.759 308.927 571.186 307.067 570.268 305.601C569.373 304.171 567.514 303.742 566.05 304.658C564.621 305.552 564.195 307.412 565.09 308.842Z" fill="url(#paint51_linear_20_17)"/>
<path d="M528.058 332.02C529.088 333.665 531.237 334.161 532.88 333.133C534.487 332.127 534.98 329.977 533.95 328.333C532.943 326.723 530.794 326.227 529.187 327.233C527.544 328.261 527.051 330.411 528.058 332.02Z" fill="url(#paint52_linear_20_17)"/>
<path d="M603.436 329.135C604.287 330.494 606.088 330.909 607.48 330.038C608.837 329.188 609.251 327.387 608.4 326.028C607.527 324.633 605.726 324.218 604.369 325.067C602.977 325.939 602.563 327.74 603.436 329.135Z" fill="url(#paint53_linear_20_17)"/>
<path d="M333.403 144.1C334.544 145.924 336.926 146.473 338.747 145.333C340.604 144.171 341.151 141.789 340.009 139.965C338.846 138.105 336.464 137.556 334.607 138.718C332.786 139.858 332.239 142.24 333.403 144.1Z" fill="url(#paint54_linear_20_17)"/>
<path d="M414.872 181.596C414.29 180.666 413.034 180.407 412.106 180.988C411.177 181.569 410.897 182.79 411.479 183.719C412.061 184.649 413.304 184.966 414.232 184.385C415.161 183.804 415.454 182.526 414.872 181.596Z" fill="url(#paint55_linear_20_17)"/>
<path d="M373.34 207.59C374.437 209.342 376.738 209.843 378.453 208.77C380.202 207.675 380.722 205.409 379.625 203.656C378.551 201.94 376.263 201.381 374.513 202.477C372.799 203.549 372.266 205.874 373.34 207.59Z" fill="url(#paint56_linear_20_17)"/>
<path d="M379.314 250.882C380.421 250.189 380.755 248.736 380.061 247.628C379.389 246.555 377.937 246.22 376.83 246.913C375.723 247.606 375.39 249.058 376.061 250.131C376.755 251.24 378.207 251.575 379.314 250.882Z" fill="url(#paint57_linear_20_17)"/>
<path d="M457.617 243.379C456.006 240.804 452.636 240.026 450.065 241.636C447.494 243.245 446.721 246.615 448.332 249.19C449.922 251.729 453.313 252.542 455.884 250.933C458.456 249.324 459.206 245.918 457.617 243.379Z" fill="url(#paint58_linear_20_17)"/>
<path d="M489.341 312.01C490.527 313.905 493.048 314.517 494.94 313.333C496.833 312.148 497.42 309.591 496.233 307.696C495.047 305.801 492.513 305.246 490.621 306.431C488.728 307.616 488.155 310.114 489.341 312.01Z" fill="url(#paint59_linear_20_17)"/>
<path d="M454.244 378.221C455.431 380.116 457.929 380.692 459.821 379.508C461.714 378.323 462.287 375.825 461.101 373.929C459.915 372.034 457.417 371.457 455.524 372.642C453.631 373.827 453.058 376.325 454.244 378.221Z" fill="url(#paint60_linear_20_17)"/>
<path d="M452.059 335.344C453.469 337.597 456.41 338.245 458.624 336.859C460.874 335.451 461.576 332.523 460.166 330.271C458.778 328.053 455.815 327.37 453.566 328.778C451.351 330.164 450.672 333.127 452.059 335.344Z" fill="url(#paint61_linear_20_17)"/>
<path d="M528.908 375.782C530.184 377.82 532.856 378.437 534.892 377.163C536.927 375.888 537.54 373.215 536.265 371.177C534.989 369.139 532.317 368.522 530.281 369.796C528.246 371.07 527.632 373.743 528.908 375.782Z" fill="url(#paint62_linear_20_17)"/>
<path d="M339.923 187.946C341.387 187.03 341.827 185.112 340.909 183.646C339.991 182.18 338.074 181.737 336.61 182.654C335.146 183.57 334.706 185.488 335.624 186.954C336.541 188.42 338.459 188.863 339.923 187.946Z" fill="url(#paint63_linear_20_17)"/>
<path d="M417.62 271.349C418.799 270.611 419.181 269.078 418.443 267.898C417.704 266.718 416.135 266.356 414.957 267.093C413.814 267.808 413.454 269.377 414.193 270.558C414.932 271.738 416.478 272.064 417.62 271.349Z" fill="url(#paint64_linear_20_17)"/>
<path d="M415.593 313.926C416.376 315.177 418.061 315.566 419.311 314.784C420.56 314.002 420.947 312.316 420.164 311.065C419.38 309.813 417.696 309.424 416.446 310.207C415.196 310.989 414.809 312.674 415.593 313.926Z" fill="url(#paint65_linear_20_17)"/>
<path d="M424.848 440.913C424.065 439.662 422.416 439.25 421.166 440.033C419.916 440.815 419.565 442.478 420.348 443.729C421.132 444.981 422.758 445.356 424.008 444.574C425.258 443.792 425.631 442.165 424.848 440.913Z" fill="url(#paint66_linear_20_17)"/>
<path d="M423.926 397.197C422.919 395.588 420.805 395.069 419.163 396.097C417.556 397.103 417.062 399.253 418.07 400.862C419.099 402.507 421.249 403.003 422.856 401.998C424.498 400.969 424.956 398.842 423.926 397.197Z" fill="url(#paint67_linear_20_17)"/>
<path d="M498.733 394.669C497.748 393.095 495.715 392.626 494.144 393.609C492.608 394.571 492.142 396.604 493.127 398.178C494.089 399.715 496.122 400.185 497.658 399.224C499.229 398.24 499.695 396.206 498.733 394.669Z" fill="url(#paint68_linear_20_17)"/>
<path d="M344.779 269.711C343.615 267.852 341.153 267.253 339.26 268.438C337.403 269.6 336.83 272.099 337.994 273.958C339.18 275.853 341.656 276.394 343.513 275.232C345.405 274.047 345.965 271.606 344.779 269.711Z" fill="url(#paint69_linear_20_17)"/>
<path d="M340.771 311.586C338.807 312.815 338.22 315.372 339.451 317.339C340.66 319.27 343.216 319.86 345.18 318.631C347.108 317.424 347.695 314.867 346.486 312.936C345.255 310.969 342.699 310.379 340.771 311.586Z" fill="url(#paint70_linear_20_17)"/>
<path d="M305.747 382.678C306.485 383.858 308.054 384.22 309.232 383.482C310.375 382.767 310.735 381.198 309.996 380.018C309.258 378.838 307.689 378.476 306.547 379.191C305.368 379.929 305.008 381.498 305.747 382.678Z" fill="url(#paint71_linear_20_17)"/>
<path d="M309.097 336.337C308.135 334.8 306.101 334.33 304.566 335.292C303.03 336.253 302.564 338.287 303.526 339.824C304.489 341.362 306.5 341.795 308.035 340.834C309.571 339.873 310.06 337.875 309.097 336.337Z" fill="url(#paint72_linear_20_17)"/>
<path d="M378.239 337.305C379.269 338.95 381.418 339.446 383.061 338.418C384.704 337.39 385.197 335.24 384.167 333.595C383.138 331.95 380.988 331.454 379.346 332.482C377.703 333.51 377.21 335.66 378.239 337.305Z" fill="url(#paint73_linear_20_17)"/>
<path d="M341.893 404.298C343.347 406.623 346.426 407.333 348.747 405.88C351.069 404.428 351.775 401.348 350.32 399.023C348.865 396.699 345.787 395.988 343.465 397.441C341.144 398.894 340.438 401.974 341.893 404.298Z" fill="url(#paint74_linear_20_17)"/>
<path d="M345.291 446.414C346.12 447.737 347.862 448.139 349.184 447.312C350.469 446.508 350.869 444.764 350.041 443.441C349.235 442.154 347.492 441.752 346.207 442.556C344.886 443.383 344.486 445.127 345.291 446.414Z" fill="url(#paint75_linear_20_17)"/>
<path d="M378.603 381.321C380.058 383.645 383.079 384.343 385.4 382.89C387.685 381.459 388.378 378.438 386.924 376.113C385.491 373.825 382.47 373.127 380.185 374.558C377.864 376.011 377.171 379.033 378.603 381.321Z" fill="url(#paint76_linear_20_17)"/>
<path d="M387.816 464.092C387.167 463.055 385.773 462.733 384.737 463.381C383.702 464.029 383.382 465.424 384.031 466.461C384.68 467.498 386.074 467.82 387.11 467.171C388.145 466.523 388.465 465.129 387.816 464.092Z" fill="url(#paint77_linear_20_17)"/>
<path d="M199.83 448.972C199.158 447.899 197.706 447.564 196.635 448.234C195.563 448.905 195.23 450.358 195.901 451.431C196.573 452.503 198.025 452.838 199.097 452.168C200.168 451.497 200.501 450.045 199.83 448.972Z" fill="url(#paint78_linear_20_17)"/>
<path d="M268.93 405.722C269.713 406.974 271.362 407.385 272.648 406.581C273.897 405.798 274.284 404.113 273.501 402.861C272.717 401.61 271.033 401.221 269.783 402.003C268.497 402.808 268.146 404.471 268.93 405.722Z" fill="url(#paint79_linear_20_17)"/>
<path d="M277.221 444.776C275.677 442.309 272.423 441.558 269.959 443.1C267.495 444.642 266.749 447.897 268.293 450.364C269.838 452.831 273.091 453.582 275.555 452.04C278.019 450.498 278.765 447.244 277.221 444.776Z" fill="url(#paint80_linear_20_17)"/>
<path d="M308.581 469.391C309.432 470.75 311.174 471.152 312.531 470.303C313.853 469.476 314.288 467.71 313.438 466.351C312.61 465.028 310.809 464.613 309.487 465.44C308.13 466.289 307.753 468.068 308.581 469.391Z" fill="url(#paint81_linear_20_17)"/>
<path d="M308.932 513.466C310.185 515.468 312.857 516.085 314.857 514.833C316.893 513.559 317.47 510.909 316.217 508.906C314.941 506.868 312.327 506.264 310.291 507.538C308.292 508.79 307.656 511.427 308.932 513.466Z" fill="url(#paint82_linear_20_17)"/>
<path d="M280.756 531.101C279.078 528.419 275.534 527.601 272.856 529.277C270.177 530.954 269.4 534.476 271.079 537.158C272.757 539.84 276.265 540.68 278.943 539.004C281.622 537.327 282.435 533.783 280.756 531.101Z" fill="url(#paint83_linear_20_17)"/>
<path d="M162.847 475.802C164.311 474.886 164.751 472.968 163.833 471.502C162.916 470.036 160.999 469.594 159.535 470.51C158.07 471.426 157.631 473.344 158.548 474.81C159.466 476.276 161.383 476.719 162.847 475.802Z" fill="url(#paint84_linear_20_17)"/>
<path d="M234.232 515.927C235.441 517.858 237.939 518.434 239.831 517.25C241.724 516.065 242.297 513.566 241.089 511.635C239.902 509.74 237.404 509.164 235.512 510.348C233.619 511.533 233.046 514.032 234.232 515.927Z" fill="url(#paint85_linear_20_17)"/>
<path d="M204.414 534.59C203.228 532.695 200.73 532.118 198.837 533.303C196.944 534.488 196.371 536.986 197.557 538.882C198.744 540.777 201.242 541.353 203.134 540.169C205.027 538.984 205.6 536.485 204.414 534.59Z" fill="url(#paint86_linear_20_17)"/>
<path d="M120.224 454.554C121.164 456.056 123.175 456.489 124.675 455.55C126.175 454.612 126.628 452.636 125.688 451.134C124.726 449.596 122.751 449.14 121.251 450.079C119.751 451.018 119.262 453.016 120.224 454.554Z" fill="url(#paint87_linear_20_17)"/>
<path d="M159.733 518.312C160.785 519.993 162.993 520.502 164.671 519.452C166.314 518.424 166.82 516.215 165.768 514.535C164.739 512.89 162.531 512.38 160.889 513.408C159.21 514.459 158.704 516.667 159.733 518.312Z" fill="url(#paint88_linear_20_17)"/>
</mask>
<g mask="url(#mask0_20_17)">
<path fill-rule="evenodd" clip-rule="evenodd" d="M373.22 119.178L373.211 119.085L371.624 75.7347L408.478 52.6682L408.536 52.6816L446.855 73.0902L446.864 73.184L448.451 116.534L411.598 139.6L411.518 139.551L373.22 119.178ZM371.96 75.8732L373.542 118.977L411.598 139.203L448.129 116.337L446.57 73.269L408.491 53.0079L371.96 75.8732Z" fill="url(#paint89_linear_20_17)"/>
<path fill-rule="evenodd" clip-rule="evenodd" d="M413.015 182.759L413.006 182.665L411.419 139.315L448.272 116.248L448.353 116.297L486.65 136.67L486.659 136.764L488.246 180.114L451.393 203.181L451.312 203.131L413.015 182.759ZM411.777 139.489L413.336 182.557L451.415 202.818L487.947 179.953L486.364 136.849L448.309 116.624L411.777 139.489Z" fill="url(#paint90_linear_20_17)"/>
<path fill-rule="evenodd" clip-rule="evenodd" d="M452.832 246.374L452.823 246.28L451.236 202.93L488.089 179.863L488.147 179.877L526.467 200.285L526.476 200.379L528.063 243.729L491.21 266.796L491.129 266.746L452.832 246.374ZM451.571 203.068L453.153 246.172L491.209 266.398L527.741 243.532L526.181 200.464L488.103 180.203L451.571 203.068Z" fill="url(#paint91_linear_20_17)"/>
<path fill-rule="evenodd" clip-rule="evenodd" d="M492.627 309.953L492.617 309.859L491.031 266.509L527.884 243.443L527.964 243.492L566.262 263.865L566.271 263.959L567.858 307.309L531.004 330.375L530.924 330.326L492.627 309.953ZM491.388 266.684L492.948 309.752L531.026 330.013L567.558 307.148L565.976 264.044L527.92 243.818L491.388 266.684Z" fill="url(#paint92_linear_20_17)"/>
<path d="M542.144 378.347L532.765 373.368L531.183 330.263L567.679 307.421L605.757 327.682L606.137 338.293L606.458 338.092L606.088 327.574L606.079 327.48L567.759 307.072L567.701 307.058L530.848 330.125L532.434 373.475L532.444 373.569L541.822 378.548L542.144 378.347Z" fill="url(#paint93_linear_20_17)"/>
<path fill-rule="evenodd" clip-rule="evenodd" d="M338.123 185.389L338.114 185.296L336.528 141.946L373.345 118.901L373.461 118.928L411.759 139.301L411.768 139.395L413.319 182.767L376.501 205.811L376.421 205.762L338.123 185.389ZM336.885 142.12L338.445 185.188L376.501 205.414L413.033 182.548L411.473 139.48L373.417 119.255L336.885 142.12Z" fill="url(#paint94_linear_20_17)"/>
<path fill-rule="evenodd" clip-rule="evenodd" d="M377.918 248.969L377.909 248.875L376.322 205.525L413.14 182.481L413.256 182.508L451.553 202.881L451.562 202.975L453.136 246.383L416.318 269.427L416.238 269.378L377.918 248.969ZM376.657 205.664L378.24 248.768L416.295 268.993L452.827 246.128L451.267 203.06L413.189 182.799L376.657 205.664Z" fill="url(#paint95_linear_20_17)"/>
<path fill-rule="evenodd" clip-rule="evenodd" d="M417.735 312.585L417.726 312.491L416.139 269.141L452.957 246.097L453.073 246.123L491.37 266.496L491.379 266.59L492.93 309.962L456.113 333.007L456.032 332.957L417.735 312.585ZM416.497 269.315L418.057 312.383L456.135 332.644L492.667 309.779L491.085 266.675L453.029 246.45L416.497 269.315Z" fill="url(#paint96_linear_20_17)"/>
<path fill-rule="evenodd" clip-rule="evenodd" d="M457.53 376.164L457.521 376.07L455.934 332.72L492.751 309.676L492.868 309.703L531.165 330.076L531.174 330.17L532.747 373.578L495.93 396.622L495.849 396.573L457.53 376.164ZM456.269 332.859L457.851 375.963L495.907 396.188L532.439 373.323L530.879 330.255L492.801 309.994L456.269 332.859Z" fill="url(#paint97_linear_20_17)"/>
<path d="M496.47 406.934L496.108 396.51L532.605 373.667L541.822 378.548L542.144 378.347L532.685 373.319L532.568 373.292L495.751 396.336L496.149 407.135L496.47 406.934Z" fill="url(#paint98_linear_20_17)"/>
<path fill-rule="evenodd" clip-rule="evenodd" d="M342.808 315.238L342.799 315.144L341.248 271.772L378.065 248.727L378.123 248.741L416.479 269.127L416.488 269.221L418.039 312.593L381.221 335.637L381.141 335.588L342.808 315.238ZM341.547 271.933L343.129 315.037L381.185 335.262L417.681 312.419L416.122 269.351L378.043 249.09L341.547 271.933Z" fill="url(#paint99_linear_20_17)"/>
<path fill-rule="evenodd" clip-rule="evenodd" d="M382.603 378.818L382.593 378.724L381.042 335.351L417.86 312.307L417.94 312.356L456.273 332.707L456.282 332.801L457.834 376.173L421.016 399.217L420.936 399.168L382.603 378.818ZM381.364 335.548L382.924 378.616L421.002 398.877L457.498 376.034L455.916 332.93L417.86 312.705L381.364 335.548Z" fill="url(#paint100_linear_20_17)"/>
<path d="M432.12 447.211L422.741 442.232L421.159 399.128L457.691 376.262L495.769 396.523L496.149 407.135L496.47 406.934L496.099 396.416L496.09 396.322L457.735 375.936L457.677 375.923L420.859 398.967L422.41 442.339L422.42 442.433L431.798 447.412L432.12 447.211Z" fill="url(#paint101_linear_20_17)"/>
<path fill-rule="evenodd" clip-rule="evenodd" d="M307.711 381.449L307.702 381.355L306.151 337.983L342.968 314.939L343.049 314.988L381.382 335.338L381.391 335.432L382.942 378.804L346.125 401.848L346.044 401.799L307.711 381.449ZM306.473 338.179L308.032 381.248L346.111 401.509L382.607 378.666L381.025 335.562L342.969 315.336L306.473 338.179Z" fill="url(#paint102_linear_20_17)"/>
<path fill-rule="evenodd" clip-rule="evenodd" d="M347.506 445.029L347.497 444.935L345.945 401.562L382.763 378.518L382.843 378.567L421.176 398.918L421.185 399.012L422.759 442.42L385.942 465.464L385.861 465.415L347.506 445.029ZM346.245 401.723L347.827 444.827L385.883 465.053L422.379 442.21L420.819 399.141L382.741 378.88L346.245 401.723Z" fill="url(#paint103_linear_20_17)"/>
<path d="M386.446 475.798L386.084 465.374L422.616 442.509L431.798 447.412L432.12 447.211L422.66 442.183L422.58 442.134L385.763 465.178L386.125 476L386.446 475.798Z" fill="url(#paint104_linear_20_17)"/>
<path fill-rule="evenodd" clip-rule="evenodd" d="M272.614 447.659L272.605 447.566L271.018 404.216L307.871 381.149L307.952 381.198L346.249 401.571L346.258 401.665L347.845 445.015L310.992 468.081L310.911 468.032L272.614 447.659ZM271.376 404.39L272.936 447.458L311.014 467.719L347.546 444.854L345.964 401.75L307.908 381.525L271.376 404.39Z" fill="url(#paint105_linear_20_17)"/>
<path d="M322.131 516.053L312.753 511.074L311.17 467.97L347.667 445.127L385.745 465.388L386.125 476L386.446 475.798L386.075 465.28L386.066 465.187L347.747 444.778L347.688 444.765L310.835 467.831L312.422 511.181L312.431 511.275L321.81 516.254L322.131 516.053Z" fill="url(#paint106_linear_20_17)"/>
<path d="M276.458 544.64L276.096 534.216L312.592 511.373L321.81 516.254L322.131 516.053L312.672 511.025L312.592 510.976L275.738 534.042L276.136 544.841L276.458 544.64Z" fill="url(#paint107_linear_20_17)"/>
<path d="M102.351 465.939L122.992 453.02L161.048 473.245L162.608 516.314L141.967 529.233L142.146 529.519L162.93 516.51L161.378 473.138L161.369 473.044L123.036 452.694L122.956 452.645L102.172 465.653L102.351 465.939Z" fill="url(#paint108_linear_20_17)"/>
<path d="M142.146 529.519L162.787 516.6L200.843 536.825L202.425 579.929L181.784 592.848L181.963 593.134L202.747 580.126L201.173 536.718L201.164 536.624L162.831 516.274L162.751 516.224L141.967 529.233L142.146 529.519Z" fill="url(#paint109_linear_20_17)"/>
<path d="M579.315 153.621L548.068 173.179L499.1 147.192L497.105 91.7552L528.352 72.1979L527.457 70.7675L495.389 90.8389L497.458 148.22L548.165 175.159L580.233 155.088L579.315 153.621Z" fill="url(#paint110_linear_20_17)"/>
<path d="M631.196 236.511L599.949 256.068L550.981 230.082L548.986 174.645L580.233 155.088L579.315 153.621L547.247 173.693L549.338 231.11L600.045 258.049L632.113 237.977L631.196 236.511Z" fill="url(#paint111_linear_20_17)"/>
<path d="M600.867 257.534L632.113 237.977L631.196 236.511L599.128 256.582L601.197 313.964L624.885 326.559L626.528 325.531L602.839 312.935L600.867 257.534Z" fill="url(#paint112_linear_20_17)"/>
<path fill-rule="evenodd" clip-rule="evenodd" d="M451.727 234.524L449.6 177.129L498.237 146.687L548.967 173.661L551.036 231.042L502.398 261.485L451.727 234.524ZM451.374 178.059L453.405 233.473L502.338 259.482L549.297 230.09L547.324 174.689L498.334 148.667L451.374 178.059Z" fill="url(#paint113_linear_20_17)"/>
<path fill-rule="evenodd" clip-rule="evenodd" d="M503.585 317.378L501.48 260.019L550.118 229.576L600.825 256.515L602.894 313.896L554.256 344.339L503.585 317.378ZM503.255 260.948L505.264 316.327L554.218 342.372L601.178 312.98L599.182 257.543L550.214 231.556L503.255 260.948Z" fill="url(#paint114_linear_20_17)"/>
<path d="M556.035 369.652L555.114 343.803L602.073 314.411L624.885 326.559L626.528 325.531L601.999 312.466L553.361 342.909L554.393 370.681L556.035 369.652Z" fill="url(#paint115_linear_20_17)"/>
<path fill-rule="evenodd" clip-rule="evenodd" d="M405.961 320.85L403.869 263.433L452.507 232.991L503.2 259.988L505.305 317.346L456.668 347.789L405.961 320.85ZM405.608 264.385L407.639 319.8L456.571 345.809L503.531 316.417L501.558 261.016L452.567 234.993L405.608 264.385Z" fill="url(#paint116_linear_20_17)"/>
<path d="M483.186 415.249L459.497 402.653L457.489 347.275L504.448 317.883L553.416 343.87L554.393 370.681L556.035 369.652L555.059 342.841L504.388 315.88L455.75 346.323L457.819 403.704L481.507 416.299L483.186 415.249Z" fill="url(#paint117_linear_20_17)"/>
<path d="M412.693 459.37L411.736 433.543L458.695 404.151L481.507 416.299L483.186 415.249L458.621 402.206L410.019 432.627L411.015 460.421L412.693 459.37Z" fill="url(#paint118_linear_20_17)"/>
<path fill-rule="evenodd" clip-rule="evenodd" d="M216.83 496.858L214.761 439.477L263.363 409.057L314.07 435.996L316.139 493.377L267.537 523.797L216.83 496.858ZM216.5 440.429L218.473 495.83L267.463 521.853L314.422 492.461L312.391 437.046L263.459 411.037L216.5 440.429Z" fill="url(#paint119_linear_20_17)"/>
<path d="M120.749 495.333L118.889 443.843L165.848 414.452L214.802 440.496L216.811 495.875L169.852 525.267L124.353 501.09L126.143 503.951L169.948 527.247L218.55 496.827L216.481 439.446L165.752 412.471L117.15 442.891L118.959 492.472L120.749 495.333Z" fill="url(#paint120_linear_20_17)"/>
<path d="M266.661 523.35L267.637 550.161L269.316 549.111L268.339 522.3L217.632 495.361L169.03 525.781L170.817 575.326L172.63 578.223L170.769 526.733L217.729 497.341L266.661 523.35Z" fill="url(#paint121_linear_20_17)"/>
<path d="M196.431 594.73L176.234 583.98L178.024 586.841L194.788 595.758L196.431 594.73Z" fill="url(#paint122_linear_20_17)"/>
<path d="M22.4039 338.207L65.3101 361.021L67.0778 409.583L68.8683 412.443L66.9884 359.97L20.591 335.311L22.4039 338.207Z" fill="url(#paint123_linear_20_17)"/>
<path d="M74.2846 421.097L117.191 443.91L118.959 492.472L120.749 495.333L118.869 442.86L72.4717 418.2L74.2846 421.097Z" fill="url(#paint124_linear_20_17)"/>
<path d="M126.143 503.951L169.049 526.764L170.817 575.326L172.63 578.223L170.728 525.714L124.353 501.09L126.143 503.951Z" fill="url(#paint125_linear_20_17)"/>
<path d="M196.431 594.73L176.234 583.98L178.024 586.841L194.788 595.758L196.431 594.73Z" fill="url(#paint126_linear_20_17)"/>
<path d="M412.83 50.0933C411.33 47.6974 408.135 46.96 405.707 48.4799C403.314 49.9774 402.581 53.1735 404.081 55.5694C405.603 58.001 408.798 58.7384 411.191 57.2409C413.619 55.721 414.352 52.5249 412.83 50.0933Z" fill="url(#paint127_linear_20_17)"/>
<path d="M369.049 77.4961C370.011 79.0338 371.987 79.4897 373.522 78.5286C375.022 77.5898 375.475 75.614 374.513 74.0764C373.573 72.5745 371.598 72.1187 370.098 73.0574C368.562 74.0185 368.109 75.9943 369.049 77.4961Z" fill="url(#paint128_linear_20_17)"/>
<path d="M370.899 120.631C371.75 121.99 373.55 122.406 374.907 121.557C376.264 120.707 376.678 118.906 375.827 117.547C374.977 116.188 373.176 115.772 371.819 116.622C370.462 117.471 370.049 119.273 370.899 120.631Z" fill="url(#paint129_linear_20_17)"/>
<path d="M445.427 73.9843C445.852 74.6638 446.782 74.8783 447.496 74.4313C448.21 73.9842 448.388 73.0768 447.962 72.3974C447.515 71.6822 446.621 71.4453 445.907 71.8924C445.193 72.3394 444.979 73.2692 445.427 73.9843Z" fill="url(#paint130_linear_20_17)"/>
<path d="M445.755 118.023C446.628 119.417 448.464 119.811 449.821 118.961C451.214 118.09 451.663 116.266 450.79 114.871C449.917 113.477 448.081 113.083 446.688 113.955C445.331 114.804 444.882 116.628 445.755 118.023Z" fill="url(#paint131_linear_20_17)"/>
<path d="M416.008 136.641C414.486 134.21 411.269 133.437 408.841 134.957C406.376 136.499 405.666 139.731 407.188 142.162C408.71 144.594 411.905 145.331 414.369 143.789C416.797 142.269 417.53 139.073 416.008 136.641Z" fill="url(#paint132_linear_20_17)"/>
<path d="M484.65 137.921C485.299 138.958 486.635 139.267 487.671 138.619C488.707 137.97 489.013 136.634 488.364 135.597C487.715 134.56 486.379 134.252 485.343 134.9C484.308 135.548 484.001 136.884 484.65 137.921Z" fill="url(#paint133_linear_20_17)"/>
<path d="M484.657 182.161C485.843 184.057 488.305 184.655 490.198 183.471C492.091 182.286 492.664 179.787 491.478 177.892C490.291 175.997 487.793 175.42 485.901 176.605C484.008 177.79 483.471 180.266 484.657 182.161Z" fill="url(#paint134_linear_20_17)"/>
<path d="M447.304 205.54C448.736 207.829 451.699 208.513 453.984 207.082C456.234 205.674 456.914 202.711 455.481 200.422C454.071 198.169 451.109 197.485 448.859 198.894C446.573 200.324 445.894 203.288 447.304 205.54Z" fill="url(#paint135_linear_20_17)"/>
<path d="M524.181 201.716C524.92 202.896 526.488 203.258 527.667 202.52C528.845 201.782 529.205 200.213 528.467 199.033C527.728 197.853 526.16 197.491 524.981 198.229C523.803 198.967 523.443 200.536 524.181 201.716Z" fill="url(#paint136_linear_20_17)"/>
<path d="M525.438 245.173C526.288 246.532 528.054 246.97 529.411 246.12C530.768 245.271 531.181 243.47 530.33 242.111C529.48 240.752 527.679 240.336 526.322 241.186C524.965 242.035 524.587 243.814 525.438 245.173Z" fill="url(#paint137_linear_20_17)"/>
<path d="M489.478 267.681C490.082 268.646 491.36 268.941 492.324 268.338C493.288 267.734 493.581 266.456 492.977 265.49C492.373 264.525 491.095 264.23 490.131 264.833C489.166 265.437 488.873 266.715 489.478 267.681Z" fill="url(#paint138_linear_20_17)"/>
<path d="M564.476 264.983C565.058 265.913 566.22 266.181 567.149 265.6C568.041 265.041 568.344 263.856 567.762 262.927C567.202 262.033 565.982 261.751 565.089 262.31C564.161 262.891 563.917 264.089 564.476 264.983Z" fill="url(#paint139_linear_20_17)"/>
<path d="M565.09 308.842C566.008 310.308 567.866 310.737 569.295 309.843C570.759 308.927 571.186 307.067 570.268 305.601C569.373 304.171 567.514 303.742 566.05 304.658C564.621 305.552 564.195 307.412 565.09 308.842Z" fill="url(#paint140_linear_20_17)"/>
<path d="M528.058 332.02C529.088 333.665 531.237 334.161 532.88 333.133C534.487 332.127 534.98 329.977 533.95 328.333C532.943 326.723 530.794 326.227 529.187 327.233C527.544 328.261 527.051 330.411 528.058 332.02Z" fill="url(#paint141_linear_20_17)"/>
<path d="M603.436 329.135C604.287 330.494 606.088 330.909 607.48 330.038C608.837 329.188 609.251 327.387 608.4 326.028C607.527 324.633 605.726 324.218 604.369 325.067C602.977 325.939 602.563 327.74 603.436 329.135Z" fill="url(#paint142_linear_20_17)"/>
<path d="M333.403 144.1C334.544 145.924 336.926 146.473 338.747 145.333C340.604 144.171 341.151 141.789 340.009 139.965C338.846 138.105 336.464 137.556 334.607 138.718C332.786 139.858 332.239 142.24 333.403 144.1Z" fill="url(#paint143_linear_20_17)"/>
<path d="M414.872 181.596C414.29 180.666 413.034 180.407 412.106 180.988C411.177 181.569 410.897 182.79 411.479 183.719C412.061 184.649 413.304 184.966 414.232 184.385C415.161 183.804 415.454 182.526 414.872 181.596Z" fill="url(#paint144_linear_20_17)"/>
<path d="M373.34 207.59C374.437 209.342 376.738 209.843 378.453 208.77C380.202 207.675 380.722 205.409 379.625 203.656C378.551 201.94 376.263 201.381 374.513 202.477C372.799 203.549 372.266 205.874 373.34 207.59Z" fill="url(#paint145_linear_20_17)"/>
<path d="M379.314 250.882C380.421 250.189 380.755 248.736 380.061 247.628C379.389 246.555 377.937 246.22 376.83 246.913C375.723 247.606 375.39 249.058 376.061 250.131C376.755 251.24 378.207 251.575 379.314 250.882Z" fill="url(#paint146_linear_20_17)"/>
<path d="M457.617 243.379C456.006 240.804 452.636 240.026 450.065 241.636C447.494 243.245 446.721 246.615 448.332 249.19C449.922 251.729 453.313 252.542 455.884 250.933C458.456 249.324 459.206 245.918 457.617 243.379Z" fill="url(#paint147_linear_20_17)"/>
<path d="M489.341 312.01C490.527 313.905 493.048 314.517 494.94 313.333C496.833 312.148 497.42 309.591 496.233 307.696C495.047 305.801 492.513 305.246 490.621 306.431C488.728 307.616 488.155 310.114 489.341 312.01Z" fill="url(#paint148_linear_20_17)"/>
<path d="M454.244 378.221C455.431 380.116 457.929 380.692 459.821 379.508C461.714 378.323 462.287 375.825 461.101 373.929C459.915 372.034 457.417 371.457 455.524 372.642C453.631 373.827 453.058 376.325 454.244 378.221Z" fill="url(#paint149_linear_20_17)"/>
<path d="M452.059 335.344C453.469 337.597 456.41 338.245 458.624 336.859C460.874 335.451 461.576 332.523 460.166 330.271C458.778 328.053 455.815 327.37 453.566 328.778C451.351 330.164 450.672 333.127 452.059 335.344Z" fill="url(#paint150_linear_20_17)"/>
<path d="M528.908 375.782C530.184 377.82 532.856 378.437 534.892 377.163C536.927 375.888 537.54 373.215 536.265 371.177C534.989 369.139 532.317 368.522 530.281 369.796C528.246 371.07 527.632 373.743 528.908 375.782Z" fill="url(#paint151_linear_20_17)"/>
<path d="M339.923 187.946C341.387 187.03 341.827 185.112 340.909 183.646C339.991 182.18 338.074 181.737 336.61 182.654C335.146 183.57 334.706 185.488 335.624 186.954C336.541 188.42 338.459 188.863 339.923 187.946Z" fill="url(#paint152_linear_20_17)"/>
<path d="M417.62 271.349C418.799 270.611 419.181 269.078 418.443 267.898C417.704 266.718 416.135 266.356 414.957 267.093C413.814 267.808 413.454 269.377 414.193 270.558C414.932 271.738 416.478 272.064 417.62 271.349Z" fill="url(#paint153_linear_20_17)"/>
<path d="M415.593 313.926C416.376 315.177 418.061 315.566 419.311 314.784C420.56 314.002 420.947 312.316 420.164 311.065C419.38 309.813 417.696 309.424 416.446 310.207C415.196 310.989 414.809 312.674 415.593 313.926Z" fill="url(#paint154_linear_20_17)"/>
<path d="M424.848 440.913C424.065 439.662 422.416 439.25 421.166 440.033C419.916 440.815 419.565 442.478 420.348 443.729C421.132 444.981 422.758 445.356 424.008 444.574C425.258 443.792 425.631 442.165 424.848 440.913Z" fill="url(#paint155_linear_20_17)"/>
<path d="M423.926 397.197C422.919 395.588 420.805 395.069 419.163 396.097C417.556 397.103 417.062 399.253 418.07 400.862C419.099 402.507 421.249 403.003 422.856 401.998C424.498 400.969 424.956 398.842 423.926 397.197Z" fill="url(#paint156_linear_20_17)"/>
<path d="M498.733 394.669C497.748 393.095 495.715 392.626 494.144 393.609C492.608 394.571 492.142 396.604 493.127 398.178C494.089 399.715 496.122 400.185 497.658 399.224C499.229 398.24 499.695 396.206 498.733 394.669Z" fill="url(#paint157_linear_20_17)"/>
<path d="M344.779 269.711C343.615 267.852 341.153 267.253 339.26 268.438C337.403 269.6 336.83 272.099 337.994 273.958C339.18 275.853 341.656 276.394 343.513 275.232C345.405 274.047 345.965 271.606 344.779 269.711Z" fill="url(#paint158_linear_20_17)"/>
<path d="M340.771 311.586C338.807 312.815 338.22 315.372 339.451 317.339C340.66 319.27 343.216 319.86 345.18 318.631C347.108 317.424 347.695 314.867 346.486 312.936C345.255 310.969 342.699 310.379 340.771 311.586Z" fill="url(#paint159_linear_20_17)"/>
<path d="M305.747 382.678C306.485 383.858 308.054 384.22 309.232 383.482C310.375 382.767 310.735 381.198 309.996 380.018C309.258 378.838 307.689 378.476 306.547 379.191C305.368 379.929 305.008 381.498 305.747 382.678Z" fill="url(#paint160_linear_20_17)"/>
<path d="M309.097 336.337C308.135 334.8 306.101 334.33 304.566 335.292C303.03 336.253 302.564 338.287 303.526 339.824C304.489 341.362 306.5 341.795 308.035 340.834C309.571 339.873 310.06 337.875 309.097 336.337Z" fill="url(#paint161_linear_20_17)"/>
<path d="M378.239 337.305C379.269 338.95 381.418 339.446 383.061 338.418C384.704 337.39 385.197 335.24 384.167 333.595C383.138 331.95 380.988 331.454 379.346 332.482C377.703 333.51 377.21 335.66 378.239 337.305Z" fill="url(#paint162_linear_20_17)"/>
<path d="M341.893 404.298C343.347 406.623 346.426 407.333 348.747 405.88C351.069 404.428 351.775 401.348 350.32 399.023C348.865 396.699 345.787 395.988 343.465 397.441C341.144 398.894 340.438 401.974 341.893 404.298Z" fill="url(#paint163_linear_20_17)"/>
<path d="M345.291 446.414C346.12 447.737 347.862 448.139 349.184 447.312C350.469 446.508 350.869 444.764 350.041 443.441C349.235 442.154 347.492 441.752 346.207 442.556C344.886 443.383 344.486 445.127 345.291 446.414Z" fill="url(#paint164_linear_20_17)"/>
<path d="M378.603 381.321C380.058 383.645 383.079 384.343 385.4 382.89C387.685 381.459 388.378 378.438 386.924 376.113C385.491 373.825 382.47 373.127 380.185 374.558C377.864 376.011 377.171 379.033 378.603 381.321Z" fill="url(#paint165_linear_20_17)"/>
<path d="M387.816 464.092C387.167 463.055 385.773 462.733 384.737 463.381C383.702 464.029 383.382 465.424 384.031 466.461C384.68 467.498 386.074 467.82 387.11 467.171C388.145 466.523 388.465 465.129 387.816 464.092Z" fill="url(#paint166_linear_20_17)"/>
<path d="M199.83 448.972C199.158 447.899 197.706 447.564 196.635 448.234C195.563 448.905 195.23 450.358 195.901 451.431C196.573 452.503 198.025 452.838 199.097 452.168C200.168 451.497 200.501 450.045 199.83 448.972Z" fill="url(#paint167_linear_20_17)"/>
<path d="M268.93 405.722C269.713 406.974 271.362 407.385 272.648 406.581C273.897 405.798 274.284 404.113 273.501 402.861C272.717 401.61 271.033 401.221 269.783 402.003C268.497 402.808 268.146 404.471 268.93 405.722Z" fill="url(#paint168_linear_20_17)"/>
<path d="M277.221 444.776C275.677 442.309 272.423 441.558 269.959 443.1C267.495 444.642 266.749 447.897 268.293 450.364C269.838 452.831 273.091 453.582 275.555 452.04C278.019 450.498 278.765 447.244 277.221 444.776Z" fill="url(#paint169_linear_20_17)"/>
<path d="M308.581 469.391C309.432 470.75 311.174 471.152 312.531 470.303C313.853 469.476 314.288 467.71 313.438 466.351C312.61 465.028 310.809 464.613 309.487 465.44C308.13 466.289 307.753 468.068 308.581 469.391Z" fill="url(#paint170_linear_20_17)"/>
<path d="M308.932 513.466C310.185 515.468 312.857 516.085 314.857 514.833C316.893 513.559 317.47 510.909 316.217 508.906C314.941 506.868 312.327 506.264 310.291 507.538C308.292 508.79 307.656 511.427 308.932 513.466Z" fill="url(#paint171_linear_20_17)"/>
<path d="M280.756 531.101C279.078 528.419 275.534 527.601 272.856 529.277C270.177 530.954 269.4 534.476 271.079 537.158C272.757 539.84 276.265 540.68 278.943 539.004C281.622 537.327 282.435 533.783 280.756 531.101Z" fill="url(#paint172_linear_20_17)"/>
<path d="M162.847 475.802C164.311 474.886 164.751 472.968 163.833 471.502C162.916 470.036 160.999 469.594 159.535 470.51C158.07 471.426 157.631 473.344 158.548 474.81C159.466 476.276 161.383 476.719 162.847 475.802Z" fill="url(#paint173_linear_20_17)"/>
<path d="M234.232 515.927C235.441 517.858 237.939 518.434 239.831 517.25C241.724 516.065 242.297 513.566 241.089 511.635C239.902 509.74 237.404 509.164 235.512 510.348C233.619 511.533 233.046 514.032 234.232 515.927Z" fill="url(#paint174_linear_20_17)"/>
<path d="M204.414 534.59C203.228 532.695 200.73 532.118 198.837 533.303C196.944 534.488 196.371 536.986 197.557 538.882C198.744 540.777 201.242 541.353 203.134 540.169C205.027 538.984 205.6 536.485 204.414 534.59Z" fill="url(#paint175_linear_20_17)"/>
<path d="M120.224 454.554C121.164 456.056 123.175 456.489 124.675 455.55C126.175 454.612 126.628 452.636 125.688 451.134C124.726 449.596 122.751 449.14 121.251 450.079C119.751 451.018 119.262 453.016 120.224 454.554Z" fill="url(#paint176_linear_20_17)"/>
<path d="M159.733 518.312C160.785 519.993 162.993 520.502 164.671 519.452C166.314 518.424 166.82 516.215 165.768 514.535C164.739 512.89 162.531 512.38 160.889 513.408C159.21 514.459 158.704 516.667 159.733 518.312Z" fill="url(#paint177_linear_20_17)"/>
<rect x="479.017" y="-19.8193" width="436" height="708" transform="rotate(57.9575 479.017 -19.8193)" fill="url(#paint178_linear_20_17)"/>
</g>
<defs>
<linearGradient id="paint0_linear_20_17" x1="-695701" y1="1.30792e+06" x2="-464202" y2="179511" gradientUnits="userSpaceOnUse">
<stop stop-color="#52BBE8"/>
<stop offset="1" stop-color="#E1EFF8"/>
</linearGradient>
<linearGradient id="paint1_linear_20_17" x1="-619224" y1="1.30183e+06" x2="-387725" y2="173420" gradientUnits="userSpaceOnUse">
<stop stop-color="#52BBE8"/>
<stop offset="1" stop-color="#E1EFF8"/>
</linearGradient>
<linearGradient id="paint2_linear_20_17" x1="-542766" y1="1.29571e+06" x2="-311267" y2="167298" gradientUnits="userSpaceOnUse">
<stop stop-color="#52BBE8"/>
<stop offset="1" stop-color="#E1EFF8"/>
</linearGradient>
<linearGradient id="paint3_linear_20_17" x1="-466307" y1="1.28959e+06" x2="-234847" y2="161222" gradientUnits="userSpaceOnUse">
<stop stop-color="#52BBE8"/>
<stop offset="1" stop-color="#E1EFF8"/>
</linearGradient>
<linearGradient id="paint4_linear_20_17" x1="-362343" y1="1.1871e+06" x2="-157854" y2="190282" gradientUnits="userSpaceOnUse">
<stop stop-color="#52BBE8"/>
<stop offset="1" stop-color="#E1EFF8"/>
</linearGradient>
<linearGradient id="paint5_linear_20_17" x1="-674067" y1="1.27233e+06" x2="-442568" y2="143920" gradientUnits="userSpaceOnUse">
<stop stop-color="#52BBE8"/>
<stop offset="1" stop-color="#E1EFF8"/>
</linearGradient>
<linearGradient id="paint6_linear_20_17" x1="-597609" y1="1.26621e+06" x2="-366110" y2="137799" gradientUnits="userSpaceOnUse">
<stop stop-color="#52BBE8"/>
<stop offset="1" stop-color="#E1EFF8"/>
</linearGradient>
<linearGradient id="paint7_linear_20_17" x1="-521132" y1="1.26012e+06" x2="-289633" y2="131707" gradientUnits="userSpaceOnUse">
<stop stop-color="#52BBE8"/>
<stop offset="1" stop-color="#E1EFF8"/>
</linearGradient>
<linearGradient id="paint8_linear_20_17" x1="-444673" y1="1.25399e+06" x2="-213175" y2="125586" gradientUnits="userSpaceOnUse">
<stop stop-color="#52BBE8"/>
<stop offset="1" stop-color="#E1EFF8"/>
</linearGradient>
<linearGradient id="paint9_linear_20_17" x1="-365475" y1="1.07391e+06" x2="-192639" y2="231443" gradientUnits="userSpaceOnUse">
<stop stop-color="#52BBE8"/>
<stop offset="1" stop-color="#E1EFF8"/>
</linearGradient>
<linearGradient id="paint10_linear_20_17" x1="-575975" y1="1.23062e+06" x2="-344476" y2="102208" gradientUnits="userSpaceOnUse">
<stop stop-color="#52BBE8"/>
<stop offset="1" stop-color="#E1EFF8"/>
</linearGradient>
<linearGradient id="paint11_linear_20_17" x1="-499516" y1="1.2245e+06" x2="-268018" y2="96086.2" gradientUnits="userSpaceOnUse">
<stop stop-color="#52BBE8"/>
<stop offset="1" stop-color="#E1EFF8"/>
</linearGradient>
<linearGradient id="paint12_linear_20_17" x1="-409025" y1="1.14045e+06" x2="-204498" y2="143586" gradientUnits="userSpaceOnUse">
<stop stop-color="#52BBE8"/>
<stop offset="1" stop-color="#E1EFF8"/>
</linearGradient>
<linearGradient id="paint13_linear_20_17" x1="-554341" y1="1.19503e+06" x2="-322842" y2="66616.3" gradientUnits="userSpaceOnUse">
<stop stop-color="#52BBE8"/>
<stop offset="1" stop-color="#E1EFF8"/>
</linearGradient>
<linearGradient id="paint14_linear_20_17" x1="-477882" y1="1.1889e+06" x2="-246384" y2="60494.9" gradientUnits="userSpaceOnUse">
<stop stop-color="#52BBE8"/>
<stop offset="1" stop-color="#E1EFF8"/>
</linearGradient>
<linearGradient id="paint15_linear_20_17" x1="-427938" y1="1.04889e+06" x2="-255140" y2="206467" gradientUnits="userSpaceOnUse">
<stop stop-color="#52BBE8"/>
<stop offset="1" stop-color="#E1EFF8"/>
</linearGradient>
<linearGradient id="paint16_linear_20_17" x1="-532725" y1="1.1594e+06" x2="-301227" y2="30995.2" gradientUnits="userSpaceOnUse">
<stop stop-color="#52BBE8"/>
<stop offset="1" stop-color="#E1EFF8"/>
</linearGradient>
<linearGradient id="paint17_linear_20_17" x1="-455707" y1="1.0938e+06" x2="-251180" y2="96936.1" gradientUnits="userSpaceOnUse">
<stop stop-color="#52BBE8"/>
<stop offset="1" stop-color="#E1EFF8"/>
</linearGradient>
<linearGradient id="paint18_linear_20_17" x1="-490449" y1="1.0239e+06" x2="-317610" y2="181491" gradientUnits="userSpaceOnUse">
<stop stop-color="#52BBE8"/>
<stop offset="1" stop-color="#E1EFF8"/>
</linearGradient>
<linearGradient id="paint19_linear_20_17" x1="-542972" y1="1.04033e+06" x2="-338993" y2="45966.8" gradientUnits="userSpaceOnUse">
<stop stop-color="#52BBE8"/>
<stop offset="1" stop-color="#E1EFF8"/>
</linearGradient>
<linearGradient id="paint20_linear_20_17" x1="-471656" y1="1.04124e+06" x2="-267678" y2="46884.7" gradientUnits="userSpaceOnUse">
<stop stop-color="#52BBE8"/>
<stop offset="1" stop-color="#E1EFF8"/>
</linearGradient>
<linearGradient id="paint21_linear_20_17" x1="-473739" y1="1.23635e+06" x2="-272280" y2="254182" gradientUnits="userSpaceOnUse">
<stop stop-color="#52BBE8"/>
<stop offset="1" stop-color="#E1EFF8"/>
</linearGradient>
<linearGradient id="paint22_linear_20_17" x1="-381426" y1="1.23837e+06" x2="-179889" y2="256171" gradientUnits="userSpaceOnUse">
<stop stop-color="#52BBE8"/>
<stop offset="1" stop-color="#E1EFF8"/>
</linearGradient>
<linearGradient id="paint23_linear_20_17" x1="-241651" y1="1.14744e+06" x2="-63267.9" y2="278072" gradientUnits="userSpaceOnUse">
<stop stop-color="#52BBE8"/>
<stop offset="1" stop-color="#E1EFF8"/>
</linearGradient>
<linearGradient id="paint24_linear_20_17" x1="-569657" y1="1.30195e+06" x2="-338158" y2="173540" gradientUnits="userSpaceOnUse">
<stop stop-color="#52BBE8"/>
<stop offset="1" stop-color="#E1EFF8"/>
</linearGradient>
<linearGradient id="paint25_linear_20_17" x1="-470012" y1="1.29398e+06" x2="-238513" y2="165572" gradientUnits="userSpaceOnUse">
<stop stop-color="#52BBE8"/>
<stop offset="1" stop-color="#E1EFF8"/>
</linearGradient>
<linearGradient id="paint26_linear_20_17" x1="-353433" y1="1.11496e+06" x2="-170951" y2="225394" gradientUnits="userSpaceOnUse">
<stop stop-color="#52BBE8"/>
<stop offset="1" stop-color="#E1EFF8"/>
</linearGradient>
<linearGradient id="paint27_linear_20_17" x1="-541433" y1="1.25551e+06" x2="-309931" y2="127157" gradientUnits="userSpaceOnUse">
<stop stop-color="#52BBE8"/>
<stop offset="1" stop-color="#E1EFF8"/>
</linearGradient>
<linearGradient id="paint28_linear_20_17" x1="-430539" y1="1.18311e+06" x2="-217958" y2="146915" gradientUnits="userSpaceOnUse">
<stop stop-color="#52BBE8"/>
<stop offset="1" stop-color="#E1EFF8"/>
</linearGradient>
<linearGradient id="paint29_linear_20_17" x1="-428631" y1="1.07378e+06" x2="-246111" y2="184172" gradientUnits="userSpaceOnUse">
<stop stop-color="#52BBE8"/>
<stop offset="1" stop-color="#E1EFF8"/>
</linearGradient>
<linearGradient id="paint30_linear_20_17" x1="-556515" y1="1.1243e+06" x2="-325017" y2="-4112.43" gradientUnits="userSpaceOnUse">
<stop stop-color="#52BBE8"/>
<stop offset="1" stop-color="#E1EFF8"/>
</linearGradient>
<linearGradient id="paint31_linear_20_17" x1="-616105" y1="1.07883e+06" x2="-389709" y2="-24865.4" gradientUnits="userSpaceOnUse">
<stop stop-color="#52BBE8"/>
<stop offset="1" stop-color="#E1EFF8"/>
</linearGradient>
<linearGradient id="paint32_linear_20_17" x1="-543150" y1="1.06045e+06" x2="-321402" y2="-20543.7" gradientUnits="userSpaceOnUse">
<stop stop-color="#52BBE8"/>
<stop offset="1" stop-color="#E1EFF8"/>
</linearGradient>
<linearGradient id="paint33_linear_20_17" x1="-886525" y1="1.67162e+06" x2="252909" y2="-3.88243e+06" gradientUnits="userSpaceOnUse">
<stop stop-color="#52BBE8"/>
<stop offset="1" stop-color="#E1EFF8"/>
</linearGradient>
<linearGradient id="paint34_linear_20_17" x1="-695468" y1="1.07107e+06" x2="-468019" y2="-37706.6" gradientUnits="userSpaceOnUse">
<stop stop-color="#52BBE8"/>
<stop offset="1" stop-color="#E1EFF8"/>
</linearGradient>
<linearGradient id="paint35_linear_20_17" x1="-596791" y1="1.06446e+06" x2="-369342" y2="-44321.4" gradientUnits="userSpaceOnUse">
<stop stop-color="#52BBE8"/>
<stop offset="1" stop-color="#E1EFF8"/>
</linearGradient>
<linearGradient id="paint36_linear_20_17" x1="-498134" y1="1.05782e+06" x2="-270643" y2="-50951.6" gradientUnits="userSpaceOnUse">
<stop stop-color="#52BBE8"/>
<stop offset="1" stop-color="#E1EFF8"/>
</linearGradient>
<linearGradient id="paint37_linear_20_17" x1="-886477" y1="1.67159e+06" x2="252888" y2="-3.88225e+06" gradientUnits="userSpaceOnUse">
<stop stop-color="#52BBE8"/>
<stop offset="1" stop-color="#E1EFF8"/>
</linearGradient>
<linearGradient id="paint38_linear_20_17" x1="-626224" y1="1.27378e+06" x2="-408678" y2="213294" gradientUnits="userSpaceOnUse">
<stop stop-color="#52BBE8"/>
<stop offset="1" stop-color="#E1EFF8"/>
</linearGradient>
<linearGradient id="paint39_linear_20_17" x1="-636930" y1="1.25581e+06" x2="-419385" y2="195329" gradientUnits="userSpaceOnUse">
<stop stop-color="#52BBE8"/>
<stop offset="1" stop-color="#E1EFF8"/>
</linearGradient>
<linearGradient id="paint40_linear_20_17" x1="-606271" y1="1.24539e+06" x2="-388687" y2="184856" gradientUnits="userSpaceOnUse">
<stop stop-color="#52BBE8"/>
<stop offset="1" stop-color="#E1EFF8"/>
</linearGradient>
<linearGradient id="paint41_linear_20_17" x1="-577589" y1="1.28283e+06" x2="-360006" y2="222300" gradientUnits="userSpaceOnUse">
<stop stop-color="#52BBE8"/>
<stop offset="1" stop-color="#E1EFF8"/>
</linearGradient>
<linearGradient id="paint42_linear_20_17" x1="-549343" y1="1.27188e+06" x2="-331759" y2="211348" gradientUnits="userSpaceOnUse">
<stop stop-color="#52BBE8"/>
<stop offset="1" stop-color="#E1EFF8"/>
</linearGradient>
<linearGradient id="paint43_linear_20_17" x1="-565791" y1="1.25269e+06" x2="-348246" y2="192205" gradientUnits="userSpaceOnUse">
<stop stop-color="#52BBE8"/>
<stop offset="1" stop-color="#E1EFF8"/>
</linearGradient>
<linearGradient id="paint44_linear_20_17" x1="-504667" y1="1.28008e+06" x2="-287083" y2="219554" gradientUnits="userSpaceOnUse">
<stop stop-color="#52BBE8"/>
<stop offset="1" stop-color="#E1EFF8"/>
</linearGradient>
<linearGradient id="paint45_linear_20_17" x1="-476964" y1="1.26901e+06" x2="-259380" y2="208485" gradientUnits="userSpaceOnUse">
<stop stop-color="#52BBE8"/>
<stop offset="1" stop-color="#E1EFF8"/>
</linearGradient>
<linearGradient id="paint46_linear_20_17" x1="-491409" y1="1.25023e+06" x2="-273863" y2="189749" gradientUnits="userSpaceOnUse">
<stop stop-color="#52BBE8"/>
<stop offset="1" stop-color="#E1EFF8"/>
</linearGradient>
<linearGradient id="paint47_linear_20_17" x1="-431267" y1="1.27745e+06" x2="-213725" y2="216911" gradientUnits="userSpaceOnUse">
<stop stop-color="#52BBE8"/>
<stop offset="1" stop-color="#E1EFF8"/>
</linearGradient>
<linearGradient id="paint48_linear_20_17" x1="-401513" y1="1.26676e+06" x2="-183967" y2="206279" gradientUnits="userSpaceOnUse">
<stop stop-color="#52BBE8"/>
<stop offset="1" stop-color="#E1EFF8"/>
</linearGradient>
<linearGradient id="paint49_linear_20_17" x1="-413765" y1="1.24848e+06" x2="-196181" y2="187948" gradientUnits="userSpaceOnUse">
<stop stop-color="#52BBE8"/>
<stop offset="1" stop-color="#E1EFF8"/>
</linearGradient>
<linearGradient id="paint50_linear_20_17" x1="-356598" y1="1.27503e+06" x2="-139053" y2="214544" gradientUnits="userSpaceOnUse">
<stop stop-color="#52BBE8"/>
<stop offset="1" stop-color="#E1EFF8"/>
</linearGradient>
<linearGradient id="paint51_linear_20_17" x1="-327942" y1="1.26419e+06" x2="-110359" y2="203664" gradientUnits="userSpaceOnUse">
<stop stop-color="#52BBE8"/>
<stop offset="1" stop-color="#E1EFF8"/>
</linearGradient>
<linearGradient id="paint52_linear_20_17" x1="-341892" y1="1.24556e+06" x2="-124309" y2="185029" gradientUnits="userSpaceOnUse">
<stop stop-color="#52BBE8"/>
<stop offset="1" stop-color="#E1EFF8"/>
</linearGradient>
<linearGradient id="paint53_linear_20_17" x1="-284115" y1="1.27223e+06" x2="-66531.5" y2="211696" gradientUnits="userSpaceOnUse">
<stop stop-color="#52BBE8"/>
<stop offset="1" stop-color="#E1EFF8"/>
</linearGradient>
<linearGradient id="paint54_linear_20_17" x1="-621021" y1="1.22655e+06" x2="-403438" y2="166016" gradientUnits="userSpaceOnUse">
<stop stop-color="#52BBE8"/>
<stop offset="1" stop-color="#E1EFF8"/>
</linearGradient>
<linearGradient id="paint55_linear_20_17" x1="-531125" y1="1.24308e+06" x2="-313621" y2="182577" gradientUnits="userSpaceOnUse">
<stop stop-color="#52BBE8"/>
<stop offset="1" stop-color="#E1EFF8"/>
</linearGradient>
<linearGradient id="paint56_linear_20_17" x1="-546859" y1="1.22406e+06" x2="-329313" y2="163578" gradientUnits="userSpaceOnUse">
<stop stop-color="#52BBE8"/>
<stop offset="1" stop-color="#E1EFF8"/>
</linearGradient>
<linearGradient id="paint57_linear_20_17" x1="-514758" y1="1.2139e+06" x2="-297213" y2="153411" gradientUnits="userSpaceOnUse">
<stop stop-color="#52BBE8"/>
<stop offset="1" stop-color="#E1EFF8"/>
</linearGradient>
<linearGradient id="paint58_linear_20_17" x1="-462056" y1="1.23954e+06" x2="-244552" y2="179046" gradientUnits="userSpaceOnUse">
<stop stop-color="#52BBE8"/>
<stop offset="1" stop-color="#E1EFF8"/>
</linearGradient>
<linearGradient id="paint59_linear_20_17" x1="-386281" y1="1.23738e+06" x2="-168698" y2="176851" gradientUnits="userSpaceOnUse">
<stop stop-color="#52BBE8"/>
<stop offset="1" stop-color="#E1EFF8"/>
</linearGradient>
<linearGradient id="paint60_linear_20_17" x1="-369419" y1="1.20835e+06" x2="-151836" y2="147817" gradientUnits="userSpaceOnUse">
<stop stop-color="#52BBE8"/>
<stop offset="1" stop-color="#E1EFF8"/>
</linearGradient>
<linearGradient id="paint61_linear_20_17" x1="-400622" y1="1.21866e+06" x2="-183077" y2="158174" gradientUnits="userSpaceOnUse">
<stop stop-color="#52BBE8"/>
<stop offset="1" stop-color="#E1EFF8"/>
</linearGradient>
<linearGradient id="paint62_linear_20_17" x1="-312815" y1="1.23475e+06" x2="-95231.8" y2="174222" gradientUnits="userSpaceOnUse">
<stop stop-color="#52BBE8"/>
<stop offset="1" stop-color="#E1EFF8"/>
</linearGradient>
<linearGradient id="paint63_linear_20_17" x1="-589684" y1="1.21623e+06" x2="-372101" y2="155704" gradientUnits="userSpaceOnUse">
<stop stop-color="#52BBE8"/>
<stop offset="1" stop-color="#E1EFF8"/>
</linearGradient>
<linearGradient id="paint64_linear_20_17" x1="-471389" y1="1.22184e+06" x2="-253806" y2="161311" gradientUnits="userSpaceOnUse">
<stop stop-color="#52BBE8"/>
<stop offset="1" stop-color="#E1EFF8"/>
</linearGradient>
<linearGradient id="paint65_linear_20_17" x1="-441378" y1="1.21124e+06" x2="-223832" y2="150752" gradientUnits="userSpaceOnUse">
<stop stop-color="#52BBE8"/>
<stop offset="1" stop-color="#E1EFF8"/>
</linearGradient>
<linearGradient id="paint66_linear_20_17" x1="-350658" y1="1.17966e+06" x2="-133075" y2="119132" gradientUnits="userSpaceOnUse">
<stop stop-color="#52BBE8"/>
<stop offset="1" stop-color="#E1EFF8"/>
</linearGradient>
<linearGradient id="paint67_linear_20_17" x1="-381995" y1="1.18997e+06" x2="-164412" y2="129444" gradientUnits="userSpaceOnUse">
<stop stop-color="#52BBE8"/>
<stop offset="1" stop-color="#E1EFF8"/>
</linearGradient>
<linearGradient id="paint68_linear_20_17" x1="-324762" y1="1.21652e+06" x2="-107178" y2="155994" gradientUnits="userSpaceOnUse">
<stop stop-color="#52BBE8"/>
<stop offset="1" stop-color="#E1EFF8"/>
</linearGradient>
<linearGradient id="paint69_linear_20_17" x1="-530454" y1="1.19494e+06" x2="-312912" y2="134398" gradientUnits="userSpaceOnUse">
<stop stop-color="#52BBE8"/>
<stop offset="1" stop-color="#E1EFF8"/>
</linearGradient>
<linearGradient id="paint70_linear_20_17" x1="-500395" y1="1.18431e+06" x2="-282849" y2="123824" gradientUnits="userSpaceOnUse">
<stop stop-color="#52BBE8"/>
<stop offset="1" stop-color="#E1EFF8"/>
</linearGradient>
<linearGradient id="paint71_linear_20_17" x1="-481291" y1="1.15574e+06" x2="-263707" y2="95210.7" gradientUnits="userSpaceOnUse">
<stop stop-color="#52BBE8"/>
<stop offset="1" stop-color="#E1EFF8"/>
</linearGradient>
<linearGradient id="paint72_linear_20_17" x1="-512561" y1="1.16605e+06" x2="-294977" y2="105522" gradientUnits="userSpaceOnUse">
<stop stop-color="#52BBE8"/>
<stop offset="1" stop-color="#E1EFF8"/>
</linearGradient>
<linearGradient id="paint73_linear_20_17" x1="-455871" y1="1.19249e+06" x2="-238325" y2="132001" gradientUnits="userSpaceOnUse">
<stop stop-color="#52BBE8"/>
<stop offset="1" stop-color="#E1EFF8"/>
</linearGradient>
<linearGradient id="paint74_linear_20_17" x1="-441031" y1="1.16301e+06" x2="-223447" y2="102485" gradientUnits="userSpaceOnUse">
<stop stop-color="#52BBE8"/>
<stop offset="1" stop-color="#E1EFF8"/>
</linearGradient>
<linearGradient id="paint75_linear_20_17" x1="-407824" y1="1.15311e+06" x2="-190282" y2="92567.1" gradientUnits="userSpaceOnUse">
<stop stop-color="#52BBE8"/>
<stop offset="1" stop-color="#E1EFF8"/>
</linearGradient>
<linearGradient id="paint76_linear_20_17" x1="-427606" y1="1.18156e+06" x2="-210022" y2="121033" gradientUnits="userSpaceOnUse">
<stop stop-color="#52BBE8"/>
<stop offset="1" stop-color="#E1EFF8"/>
</linearGradient>
<linearGradient id="paint77_linear_20_17" x1="-363405" y1="1.16123e+06" x2="-145822" y2="100700" gradientUnits="userSpaceOnUse">
<stop stop-color="#52BBE8"/>
<stop offset="1" stop-color="#E1EFF8"/>
</linearGradient>
<linearGradient id="paint78_linear_20_17" x1="-521156" y1="1.10021e+06" x2="-303613" y2="39669.7" gradientUnits="userSpaceOnUse">
<stop stop-color="#52BBE8"/>
<stop offset="1" stop-color="#E1EFF8"/>
</linearGradient>
<linearGradient id="paint79_linear_20_17" x1="-494935" y1="1.13716e+06" x2="-277352" y2="76634" gradientUnits="userSpaceOnUse">
<stop stop-color="#52BBE8"/>
<stop offset="1" stop-color="#E1EFF8"/>
</linearGradient>
<linearGradient id="paint80_linear_20_17" x1="-468234" y1="1.12589e+06" x2="-250651" y2="65361.7" gradientUnits="userSpaceOnUse">
<stop stop-color="#52BBE8"/>
<stop offset="1" stop-color="#E1EFF8"/>
</linearGradient>
<linearGradient id="paint81_linear_20_17" x1="-421316" y1="1.13456e+06" x2="-203733" y2="74033.9" gradientUnits="userSpaceOnUse">
<stop stop-color="#52BBE8"/>
<stop offset="1" stop-color="#E1EFF8"/>
</linearGradient>
<linearGradient id="paint82_linear_20_17" x1="-393003" y1="1.12361e+06" x2="-175457" y2="63126.6" gradientUnits="userSpaceOnUse">
<stop stop-color="#52BBE8"/>
<stop offset="1" stop-color="#E1EFF8"/>
</linearGradient>
<linearGradient id="paint83_linear_20_17" x1="-408364" y1="1.10465e+06" x2="-190818" y2="44171" gradientUnits="userSpaceOnUse">
<stop stop-color="#52BBE8"/>
<stop offset="1" stop-color="#E1EFF8"/>
</linearGradient>
<linearGradient id="paint84_linear_20_17" x1="-535649" y1="1.08146e+06" x2="-318066" y2="20932.9" gradientUnits="userSpaceOnUse">
<stop stop-color="#52BBE8"/>
<stop offset="1" stop-color="#E1EFF8"/>
</linearGradient>
<linearGradient id="paint85_linear_20_17" x1="-449711" y1="1.09715e+06" x2="-232128" y2="36617.8" gradientUnits="userSpaceOnUse">
<stop stop-color="#52BBE8"/>
<stop offset="1" stop-color="#E1EFF8"/>
</linearGradient>
<linearGradient id="paint86_linear_20_17" x1="-463050" y1="1.07863e+06" x2="-245505" y2="18144.7" gradientUnits="userSpaceOnUse">
<stop stop-color="#52BBE8"/>
<stop offset="1" stop-color="#E1EFF8"/>
</linearGradient>
<linearGradient id="paint87_linear_20_17" x1="-579409" y1="1.07343e+06" x2="-361826" y2="12900.5" gradientUnits="userSpaceOnUse">
<stop stop-color="#52BBE8"/>
<stop offset="1" stop-color="#E1EFF8"/>
</linearGradient>
<linearGradient id="paint88_linear_20_17" x1="-3531.27" y1="18090.7" x2="3439.19" y2="3185.9" gradientUnits="userSpaceOnUse">
<stop stop-color="#52BBE8"/>
<stop offset="1" stop-color="#E1EFF8"/>
</linearGradient>
<linearGradient id="paint89_linear_20_17" x1="-695701" y1="1.30792e+06" x2="-464202" y2="179511" gradientUnits="userSpaceOnUse">
<stop stop-color="#52BBE8"/>
<stop offset="1" stop-color="#E1EFF8"/>
</linearGradient>
<linearGradient id="paint90_linear_20_17" x1="-619224" y1="1.30183e+06" x2="-387725" y2="173420" gradientUnits="userSpaceOnUse">
<stop stop-color="#52BBE8"/>
<stop offset="1" stop-color="#E1EFF8"/>
</linearGradient>
<linearGradient id="paint91_linear_20_17" x1="-542766" y1="1.29571e+06" x2="-311267" y2="167298" gradientUnits="userSpaceOnUse">
<stop stop-color="#52BBE8"/>
<stop offset="1" stop-color="#E1EFF8"/>
</linearGradient>
<linearGradient id="paint92_linear_20_17" x1="-466307" y1="1.28959e+06" x2="-234847" y2="161222" gradientUnits="userSpaceOnUse">
<stop stop-color="#52BBE8"/>
<stop offset="1" stop-color="#E1EFF8"/>
</linearGradient>
<linearGradient id="paint93_linear_20_17" x1="-362343" y1="1.1871e+06" x2="-157854" y2="190282" gradientUnits="userSpaceOnUse">
<stop stop-color="#52BBE8"/>
<stop offset="1" stop-color="#E1EFF8"/>
</linearGradient>
<linearGradient id="paint94_linear_20_17" x1="-674067" y1="1.27233e+06" x2="-442568" y2="143920" gradientUnits="userSpaceOnUse">
<stop stop-color="#52BBE8"/>
<stop offset="1" stop-color="#E1EFF8"/>
</linearGradient>
<linearGradient id="paint95_linear_20_17" x1="-597609" y1="1.26621e+06" x2="-366110" y2="137799" gradientUnits="userSpaceOnUse">
<stop stop-color="#52BBE8"/>
<stop offset="1" stop-color="#E1EFF8"/>
</linearGradient>
<linearGradient id="paint96_linear_20_17" x1="-521132" y1="1.26012e+06" x2="-289633" y2="131707" gradientUnits="userSpaceOnUse">
<stop stop-color="#52BBE8"/>
<stop offset="1" stop-color="#E1EFF8"/>
</linearGradient>
<linearGradient id="paint97_linear_20_17" x1="-444673" y1="1.25399e+06" x2="-213175" y2="125586" gradientUnits="userSpaceOnUse">
<stop stop-color="#52BBE8"/>
<stop offset="1" stop-color="#E1EFF8"/>
</linearGradient>
<linearGradient id="paint98_linear_20_17" x1="-365475" y1="1.07391e+06" x2="-192639" y2="231443" gradientUnits="userSpaceOnUse">
<stop stop-color="#52BBE8"/>
<stop offset="1" stop-color="#E1EFF8"/>
</linearGradient>
<linearGradient id="paint99_linear_20_17" x1="-575975" y1="1.23062e+06" x2="-344476" y2="102208" gradientUnits="userSpaceOnUse">
<stop stop-color="#52BBE8"/>
<stop offset="1" stop-color="#E1EFF8"/>
</linearGradient>
<linearGradient id="paint100_linear_20_17" x1="-499516" y1="1.2245e+06" x2="-268018" y2="96086.2" gradientUnits="userSpaceOnUse">
<stop stop-color="#52BBE8"/>
<stop offset="1" stop-color="#E1EFF8"/>
</linearGradient>
<linearGradient id="paint101_linear_20_17" x1="-409025" y1="1.14045e+06" x2="-204498" y2="143586" gradientUnits="userSpaceOnUse">
<stop stop-color="#52BBE8"/>
<stop offset="1" stop-color="#E1EFF8"/>
</linearGradient>
<linearGradient id="paint102_linear_20_17" x1="-554341" y1="1.19503e+06" x2="-322842" y2="66616.3" gradientUnits="userSpaceOnUse">
<stop stop-color="#52BBE8"/>
<stop offset="1" stop-color="#E1EFF8"/>
</linearGradient>
<linearGradient id="paint103_linear_20_17" x1="-477882" y1="1.1889e+06" x2="-246384" y2="60494.9" gradientUnits="userSpaceOnUse">
<stop stop-color="#52BBE8"/>
<stop offset="1" stop-color="#E1EFF8"/>
</linearGradient>
<linearGradient id="paint104_linear_20_17" x1="-427938" y1="1.04889e+06" x2="-255140" y2="206467" gradientUnits="userSpaceOnUse">
<stop stop-color="#52BBE8"/>
<stop offset="1" stop-color="#E1EFF8"/>
</linearGradient>
<linearGradient id="paint105_linear_20_17" x1="-532725" y1="1.1594e+06" x2="-301227" y2="30995.2" gradientUnits="userSpaceOnUse">
<stop stop-color="#52BBE8"/>
<stop offset="1" stop-color="#E1EFF8"/>
</linearGradient>
<linearGradient id="paint106_linear_20_17" x1="-455707" y1="1.0938e+06" x2="-251180" y2="96936.1" gradientUnits="userSpaceOnUse">
<stop stop-color="#52BBE8"/>
<stop offset="1" stop-color="#E1EFF8"/>
</linearGradient>
<linearGradient id="paint107_linear_20_17" x1="-490449" y1="1.0239e+06" x2="-317610" y2="181491" gradientUnits="userSpaceOnUse">
<stop stop-color="#52BBE8"/>
<stop offset="1" stop-color="#E1EFF8"/>
</linearGradient>
<linearGradient id="paint108_linear_20_17" x1="-542972" y1="1.04033e+06" x2="-338993" y2="45966.8" gradientUnits="userSpaceOnUse">
<stop stop-color="#52BBE8"/>
<stop offset="1" stop-color="#E1EFF8"/>
</linearGradient>
<linearGradient id="paint109_linear_20_17" x1="-471656" y1="1.04124e+06" x2="-267678" y2="46884.7" gradientUnits="userSpaceOnUse">
<stop stop-color="#52BBE8"/>
<stop offset="1" stop-color="#E1EFF8"/>
</linearGradient>
<linearGradient id="paint110_linear_20_17" x1="-473739" y1="1.23635e+06" x2="-272280" y2="254182" gradientUnits="userSpaceOnUse">
<stop stop-color="#52BBE8"/>
<stop offset="1" stop-color="#E1EFF8"/>
</linearGradient>
<linearGradient id="paint111_linear_20_17" x1="-381426" y1="1.23837e+06" x2="-179889" y2="256171" gradientUnits="userSpaceOnUse">
<stop stop-color="#52BBE8"/>
<stop offset="1" stop-color="#E1EFF8"/>
</linearGradient>
<linearGradient id="paint112_linear_20_17" x1="-241651" y1="1.14744e+06" x2="-63267.9" y2="278072" gradientUnits="userSpaceOnUse">
<stop stop-color="#52BBE8"/>
<stop offset="1" stop-color="#E1EFF8"/>
</linearGradient>
<linearGradient id="paint113_linear_20_17" x1="-569657" y1="1.30195e+06" x2="-338158" y2="173540" gradientUnits="userSpaceOnUse">
<stop stop-color="#52BBE8"/>
<stop offset="1" stop-color="#E1EFF8"/>
</linearGradient>
<linearGradient id="paint114_linear_20_17" x1="-470012" y1="1.29398e+06" x2="-238513" y2="165572" gradientUnits="userSpaceOnUse">
<stop stop-color="#52BBE8"/>
<stop offset="1" stop-color="#E1EFF8"/>
</linearGradient>
<linearGradient id="paint115_linear_20_17" x1="-353433" y1="1.11496e+06" x2="-170951" y2="225394" gradientUnits="userSpaceOnUse">
<stop stop-color="#52BBE8"/>
<stop offset="1" stop-color="#E1EFF8"/>
</linearGradient>
<linearGradient id="paint116_linear_20_17" x1="-541433" y1="1.25551e+06" x2="-309931" y2="127157" gradientUnits="userSpaceOnUse">
<stop stop-color="#52BBE8"/>
<stop offset="1" stop-color="#E1EFF8"/>
</linearGradient>
<linearGradient id="paint117_linear_20_17" x1="-430539" y1="1.18311e+06" x2="-217958" y2="146915" gradientUnits="userSpaceOnUse">
<stop stop-color="#52BBE8"/>
<stop offset="1" stop-color="#E1EFF8"/>
</linearGradient>
<linearGradient id="paint118_linear_20_17" x1="-428631" y1="1.07378e+06" x2="-246111" y2="184172" gradientUnits="userSpaceOnUse">
<stop stop-color="#52BBE8"/>
<stop offset="1" stop-color="#E1EFF8"/>
</linearGradient>
<linearGradient id="paint119_linear_20_17" x1="-556515" y1="1.1243e+06" x2="-325017" y2="-4112.43" gradientUnits="userSpaceOnUse">
<stop stop-color="#52BBE8"/>
<stop offset="1" stop-color="#E1EFF8"/>
</linearGradient>
<linearGradient id="paint120_linear_20_17" x1="-616105" y1="1.07883e+06" x2="-389709" y2="-24865.4" gradientUnits="userSpaceOnUse">
<stop stop-color="#52BBE8"/>
<stop offset="1" stop-color="#E1EFF8"/>
</linearGradient>
<linearGradient id="paint121_linear_20_17" x1="-543150" y1="1.06045e+06" x2="-321402" y2="-20543.7" gradientUnits="userSpaceOnUse">
<stop stop-color="#52BBE8"/>
<stop offset="1" stop-color="#E1EFF8"/>
</linearGradient>
<linearGradient id="paint122_linear_20_17" x1="-886525" y1="1.67162e+06" x2="252909" y2="-3.88243e+06" gradientUnits="userSpaceOnUse">
<stop stop-color="#52BBE8"/>
<stop offset="1" stop-color="#E1EFF8"/>
</linearGradient>
<linearGradient id="paint123_linear_20_17" x1="-695468" y1="1.07107e+06" x2="-468019" y2="-37706.6" gradientUnits="userSpaceOnUse">
<stop stop-color="#52BBE8"/>
<stop offset="1" stop-color="#E1EFF8"/>
</linearGradient>
<linearGradient id="paint124_linear_20_17" x1="-596791" y1="1.06446e+06" x2="-369342" y2="-44321.4" gradientUnits="userSpaceOnUse">
<stop stop-color="#52BBE8"/>
<stop offset="1" stop-color="#E1EFF8"/>
</linearGradient>
<linearGradient id="paint125_linear_20_17" x1="-498134" y1="1.05782e+06" x2="-270643" y2="-50951.6" gradientUnits="userSpaceOnUse">
<stop stop-color="#52BBE8"/>
<stop offset="1" stop-color="#E1EFF8"/>
</linearGradient>
<linearGradient id="paint126_linear_20_17" x1="-886477" y1="1.67159e+06" x2="252888" y2="-3.88225e+06" gradientUnits="userSpaceOnUse">
<stop stop-color="#52BBE8"/>
<stop offset="1" stop-color="#E1EFF8"/>
</linearGradient>
<linearGradient id="paint127_linear_20_17" x1="-626224" y1="1.27378e+06" x2="-408678" y2="213294" gradientUnits="userSpaceOnUse">
<stop stop-color="#52BBE8"/>
<stop offset="1" stop-color="#E1EFF8"/>
</linearGradient>
<linearGradient id="paint128_linear_20_17" x1="-636930" y1="1.25581e+06" x2="-419385" y2="195329" gradientUnits="userSpaceOnUse">
<stop stop-color="#52BBE8"/>
<stop offset="1" stop-color="#E1EFF8"/>
</linearGradient>
<linearGradient id="paint129_linear_20_17" x1="-606271" y1="1.24539e+06" x2="-388687" y2="184856" gradientUnits="userSpaceOnUse">
<stop stop-color="#52BBE8"/>
<stop offset="1" stop-color="#E1EFF8"/>
</linearGradient>
<linearGradient id="paint130_linear_20_17" x1="-577589" y1="1.28283e+06" x2="-360006" y2="222300" gradientUnits="userSpaceOnUse">
<stop stop-color="#52BBE8"/>
<stop offset="1" stop-color="#E1EFF8"/>
</linearGradient>
<linearGradient id="paint131_linear_20_17" x1="-549343" y1="1.27188e+06" x2="-331759" y2="211348" gradientUnits="userSpaceOnUse">
<stop stop-color="#52BBE8"/>
<stop offset="1" stop-color="#E1EFF8"/>
</linearGradient>
<linearGradient id="paint132_linear_20_17" x1="-565791" y1="1.25269e+06" x2="-348246" y2="192205" gradientUnits="userSpaceOnUse">
<stop stop-color="#52BBE8"/>
<stop offset="1" stop-color="#E1EFF8"/>
</linearGradient>
<linearGradient id="paint133_linear_20_17" x1="-504667" y1="1.28008e+06" x2="-287083" y2="219554" gradientUnits="userSpaceOnUse">
<stop stop-color="#52BBE8"/>
<stop offset="1" stop-color="#E1EFF8"/>
</linearGradient>
<linearGradient id="paint134_linear_20_17" x1="-476964" y1="1.26901e+06" x2="-259380" y2="208485" gradientUnits="userSpaceOnUse">
<stop stop-color="#52BBE8"/>
<stop offset="1" stop-color="#E1EFF8"/>
</linearGradient>
<linearGradient id="paint135_linear_20_17" x1="-491409" y1="1.25023e+06" x2="-273863" y2="189749" gradientUnits="userSpaceOnUse">
<stop stop-color="#52BBE8"/>
<stop offset="1" stop-color="#E1EFF8"/>
</linearGradient>
<linearGradient id="paint136_linear_20_17" x1="-431267" y1="1.27745e+06" x2="-213725" y2="216911" gradientUnits="userSpaceOnUse">
<stop stop-color="#52BBE8"/>
<stop offset="1" stop-color="#E1EFF8"/>
</linearGradient>
<linearGradient id="paint137_linear_20_17" x1="-401513" y1="1.26676e+06" x2="-183967" y2="206279" gradientUnits="userSpaceOnUse">
<stop stop-color="#52BBE8"/>
<stop offset="1" stop-color="#E1EFF8"/>
</linearGradient>
<linearGradient id="paint138_linear_20_17" x1="-413765" y1="1.24848e+06" x2="-196181" y2="187948" gradientUnits="userSpaceOnUse">
<stop stop-color="#52BBE8"/>
<stop offset="1" stop-color="#E1EFF8"/>
</linearGradient>
<linearGradient id="paint139_linear_20_17" x1="-356598" y1="1.27503e+06" x2="-139053" y2="214544" gradientUnits="userSpaceOnUse">
<stop stop-color="#52BBE8"/>
<stop offset="1" stop-color="#E1EFF8"/>
</linearGradient>
<linearGradient id="paint140_linear_20_17" x1="-327942" y1="1.26419e+06" x2="-110359" y2="203664" gradientUnits="userSpaceOnUse">
<stop stop-color="#52BBE8"/>
<stop offset="1" stop-color="#E1EFF8"/>
</linearGradient>
<linearGradient id="paint141_linear_20_17" x1="-341892" y1="1.24556e+06" x2="-124309" y2="185029" gradientUnits="userSpaceOnUse">
<stop stop-color="#52BBE8"/>
<stop offset="1" stop-color="#E1EFF8"/>
</linearGradient>
<linearGradient id="paint142_linear_20_17" x1="-284115" y1="1.27223e+06" x2="-66531.5" y2="211696" gradientUnits="userSpaceOnUse">
<stop stop-color="#52BBE8"/>
<stop offset="1" stop-color="#E1EFF8"/>
</linearGradient>
<linearGradient id="paint143_linear_20_17" x1="-621021" y1="1.22655e+06" x2="-403438" y2="166016" gradientUnits="userSpaceOnUse">
<stop stop-color="#52BBE8"/>
<stop offset="1" stop-color="#E1EFF8"/>
</linearGradient>
<linearGradient id="paint144_linear_20_17" x1="-531125" y1="1.24308e+06" x2="-313621" y2="182577" gradientUnits="userSpaceOnUse">
<stop stop-color="#52BBE8"/>
<stop offset="1" stop-color="#E1EFF8"/>
</linearGradient>
<linearGradient id="paint145_linear_20_17" x1="-546859" y1="1.22406e+06" x2="-329313" y2="163578" gradientUnits="userSpaceOnUse">
<stop stop-color="#52BBE8"/>
<stop offset="1" stop-color="#E1EFF8"/>
</linearGradient>
<linearGradient id="paint146_linear_20_17" x1="-514758" y1="1.2139e+06" x2="-297213" y2="153411" gradientUnits="userSpaceOnUse">
<stop stop-color="#52BBE8"/>
<stop offset="1" stop-color="#E1EFF8"/>
</linearGradient>
<linearGradient id="paint147_linear_20_17" x1="-462056" y1="1.23954e+06" x2="-244552" y2="179046" gradientUnits="userSpaceOnUse">
<stop stop-color="#52BBE8"/>
<stop offset="1" stop-color="#E1EFF8"/>
</linearGradient>
<linearGradient id="paint148_linear_20_17" x1="-386281" y1="1.23738e+06" x2="-168698" y2="176851" gradientUnits="userSpaceOnUse">
<stop stop-color="#52BBE8"/>
<stop offset="1" stop-color="#E1EFF8"/>
</linearGradient>
<linearGradient id="paint149_linear_20_17" x1="-369419" y1="1.20835e+06" x2="-151836" y2="147817" gradientUnits="userSpaceOnUse">
<stop stop-color="#52BBE8"/>
<stop offset="1" stop-color="#E1EFF8"/>
</linearGradient>
<linearGradient id="paint150_linear_20_17" x1="-400622" y1="1.21866e+06" x2="-183077" y2="158174" gradientUnits="userSpaceOnUse">
<stop stop-color="#52BBE8"/>
<stop offset="1" stop-color="#E1EFF8"/>
</linearGradient>
<linearGradient id="paint151_linear_20_17" x1="-312815" y1="1.23475e+06" x2="-95231.8" y2="174222" gradientUnits="userSpaceOnUse">
<stop stop-color="#52BBE8"/>
<stop offset="1" stop-color="#E1EFF8"/>
</linearGradient>
<linearGradient id="paint152_linear_20_17" x1="-589684" y1="1.21623e+06" x2="-372101" y2="155704" gradientUnits="userSpaceOnUse">
<stop stop-color="#52BBE8"/>
<stop offset="1" stop-color="#E1EFF8"/>
</linearGradient>
<linearGradient id="paint153_linear_20_17" x1="-471389" y1="1.22184e+06" x2="-253806" y2="161311" gradientUnits="userSpaceOnUse">
<stop stop-color="#52BBE8"/>
<stop offset="1" stop-color="#E1EFF8"/>
</linearGradient>
<linearGradient id="paint154_linear_20_17" x1="-441378" y1="1.21124e+06" x2="-223832" y2="150752" gradientUnits="userSpaceOnUse">
<stop stop-color="#52BBE8"/>
<stop offset="1" stop-color="#E1EFF8"/>
</linearGradient>
<linearGradient id="paint155_linear_20_17" x1="-350658" y1="1.17966e+06" x2="-133075" y2="119132" gradientUnits="userSpaceOnUse">
<stop stop-color="#52BBE8"/>
<stop offset="1" stop-color="#E1EFF8"/>
</linearGradient>
<linearGradient id="paint156_linear_20_17" x1="-381995" y1="1.18997e+06" x2="-164412" y2="129444" gradientUnits="userSpaceOnUse">
<stop stop-color="#52BBE8"/>
<stop offset="1" stop-color="#E1EFF8"/>
</linearGradient>
<linearGradient id="paint157_linear_20_17" x1="-324762" y1="1.21652e+06" x2="-107178" y2="155994" gradientUnits="userSpaceOnUse">
<stop stop-color="#52BBE8"/>
<stop offset="1" stop-color="#E1EFF8"/>
</linearGradient>
<linearGradient id="paint158_linear_20_17" x1="-530454" y1="1.19494e+06" x2="-312912" y2="134398" gradientUnits="userSpaceOnUse">
<stop stop-color="#52BBE8"/>
<stop offset="1" stop-color="#E1EFF8"/>
</linearGradient>
<linearGradient id="paint159_linear_20_17" x1="-500395" y1="1.18431e+06" x2="-282849" y2="123824" gradientUnits="userSpaceOnUse">
<stop stop-color="#52BBE8"/>
<stop offset="1" stop-color="#E1EFF8"/>
</linearGradient>
<linearGradient id="paint160_linear_20_17" x1="-481291" y1="1.15574e+06" x2="-263707" y2="95210.7" gradientUnits="userSpaceOnUse">
<stop stop-color="#52BBE8"/>
<stop offset="1" stop-color="#E1EFF8"/>
</linearGradient>
<linearGradient id="paint161_linear_20_17" x1="-512561" y1="1.16605e+06" x2="-294977" y2="105522" gradientUnits="userSpaceOnUse">
<stop stop-color="#52BBE8"/>
<stop offset="1" stop-color="#E1EFF8"/>
</linearGradient>
<linearGradient id="paint162_linear_20_17" x1="-455871" y1="1.19249e+06" x2="-238325" y2="132001" gradientUnits="userSpaceOnUse">
<stop stop-color="#52BBE8"/>
<stop offset="1" stop-color="#E1EFF8"/>
</linearGradient>
<linearGradient id="paint163_linear_20_17" x1="-441031" y1="1.16301e+06" x2="-223447" y2="102485" gradientUnits="userSpaceOnUse">
<stop stop-color="#52BBE8"/>
<stop offset="1" stop-color="#E1EFF8"/>
</linearGradient>
<linearGradient id="paint164_linear_20_17" x1="-407824" y1="1.15311e+06" x2="-190282" y2="92567.1" gradientUnits="userSpaceOnUse">
<stop stop-color="#52BBE8"/>
<stop offset="1" stop-color="#E1EFF8"/>
</linearGradient>
<linearGradient id="paint165_linear_20_17" x1="-427606" y1="1.18156e+06" x2="-210022" y2="121033" gradientUnits="userSpaceOnUse">
<stop stop-color="#52BBE8"/>
<stop offset="1" stop-color="#E1EFF8"/>
</linearGradient>
<linearGradient id="paint166_linear_20_17" x1="-363405" y1="1.16123e+06" x2="-145822" y2="100700" gradientUnits="userSpaceOnUse">
<stop stop-color="#52BBE8"/>
<stop offset="1" stop-color="#E1EFF8"/>
</linearGradient>
<linearGradient id="paint167_linear_20_17" x1="-521156" y1="1.10021e+06" x2="-303613" y2="39669.7" gradientUnits="userSpaceOnUse">
<stop stop-color="#52BBE8"/>
<stop offset="1" stop-color="#E1EFF8"/>
</linearGradient>
<linearGradient id="paint168_linear_20_17" x1="-494935" y1="1.13716e+06" x2="-277352" y2="76634" gradientUnits="userSpaceOnUse">
<stop stop-color="#52BBE8"/>
<stop offset="1" stop-color="#E1EFF8"/>
</linearGradient>
<linearGradient id="paint169_linear_20_17" x1="-468234" y1="1.12589e+06" x2="-250651" y2="65361.7" gradientUnits="userSpaceOnUse">
<stop stop-color="#52BBE8"/>
<stop offset="1" stop-color="#E1EFF8"/>
</linearGradient>
<linearGradient id="paint170_linear_20_17" x1="-421316" y1="1.13456e+06" x2="-203733" y2="74033.9" gradientUnits="userSpaceOnUse">
<stop stop-color="#52BBE8"/>
<stop offset="1" stop-color="#E1EFF8"/>
</linearGradient>
<linearGradient id="paint171_linear_20_17" x1="-393003" y1="1.12361e+06" x2="-175457" y2="63126.6" gradientUnits="userSpaceOnUse">
<stop stop-color="#52BBE8"/>
<stop offset="1" stop-color="#E1EFF8"/>
</linearGradient>
<linearGradient id="paint172_linear_20_17" x1="-408364" y1="1.10465e+06" x2="-190818" y2="44171" gradientUnits="userSpaceOnUse">
<stop stop-color="#52BBE8"/>
<stop offset="1" stop-color="#E1EFF8"/>
</linearGradient>
<linearGradient id="paint173_linear_20_17" x1="-535649" y1="1.08146e+06" x2="-318066" y2="20932.9" gradientUnits="userSpaceOnUse">
<stop stop-color="#52BBE8"/>
<stop offset="1" stop-color="#E1EFF8"/>
</linearGradient>
<linearGradient id="paint174_linear_20_17" x1="-449711" y1="1.09715e+06" x2="-232128" y2="36617.8" gradientUnits="userSpaceOnUse">
<stop stop-color="#52BBE8"/>
<stop offset="1" stop-color="#E1EFF8"/>
</linearGradient>
<linearGradient id="paint175_linear_20_17" x1="-463050" y1="1.07863e+06" x2="-245505" y2="18144.7" gradientUnits="userSpaceOnUse">
<stop stop-color="#52BBE8"/>
<stop offset="1" stop-color="#E1EFF8"/>
</linearGradient>
<linearGradient id="paint176_linear_20_17" x1="-579409" y1="1.07343e+06" x2="-361826" y2="12900.5" gradientUnits="userSpaceOnUse">
<stop stop-color="#52BBE8"/>
<stop offset="1" stop-color="#E1EFF8"/>
</linearGradient>
<linearGradient id="paint177_linear_20_17" x1="-3531.27" y1="18090.7" x2="3439.19" y2="3185.9" gradientUnits="userSpaceOnUse">
<stop stop-color="#52BBE8"/>
<stop offset="1" stop-color="#E1EFF8"/>
</linearGradient>
<linearGradient id="paint178_linear_20_17" x1="697.017" y1="-19.8193" x2="697.017" y2="534.181" gradientUnits="userSpaceOnUse">
<stop stop-color="#FFF3CD"/>
<stop offset="1" stop-color="white" stop-opacity="0"/>
</linearGradient>
</defs>
</svg>
