<?xml version="1.0" standalone="no"?>
<!DOCTYPE svg PUBLIC "-//W3C//DTD SVG 20010904//EN"
 "http://www.w3.org/TR/2001/REC-SVG-20010904/DTD/svg10.dtd">
<svg version="1.0" xmlns="http://www.w3.org/2000/svg"
 width="70.000000pt" height="70.000000pt" viewBox="0 0 70.000000 70.000000"
 preserveAspectRatio="xMidYMid meet">
<metadata>
Created by potrace 1.14, written by Peter Selinger 2001-2017
</metadata>
<g transform="translate(0.000000,70.000000) scale(0.100000,-0.100000)"
fill="#000000" stroke="none">
<path d="M190 340 l0 -190 120 0 c131 0 176 11 204 51 25 37 21 86 -12 119
-28 28 -28 29 -10 52 26 34 23 89 -5 116 -34 32 -79 42 -194 42 l-103 0 0
-190z m214 114 c10 -4 16 -18 16 -35 0 -36 -28 -49 -101 -49 l-49 0 0 45 0 45
59 0 c33 0 66 -3 75 -6z m17 -154 c21 -12 25 -50 7 -68 -7 -7 -42 -12 -85 -12
l-73 0 0 45 0 45 66 0 c36 0 74 -5 85 -10z"/>
</g>
</svg>
