<svg width="77" height="77" viewBox="0 0 77 77" fill="none" xmlns="http://www.w3.org/2000/svg">
<ellipse cx="44.5" cy="17" rx="11.5" ry="11" fill="#F07E23"/>
<path d="M5 54.7105L9.125 51.4396C11.6917 48.6359 22.1111 59.9285 27 65.9253L21.5 72L5 54.7105Z" fill="#F07E23"/>
<path d="M35.3968 52.2256C35.9838 51.6375 35.9838 50.6858 35.3968 50.0978C34.8091 49.5115 33.8571 49.5115 33.2689 50.0978C32.6824 50.6858 32.6824 51.6375 33.2689 52.2256C33.8571 52.8119 34.8091 52.8119 35.3968 52.2256Z" fill="#484040"/>
<path d="M28.2745 16.5383C28.2745 25.6575 35.6959 33.0772 44.8179 33.0772C53.9399 33.0772 61.3613 25.6575 61.3613 16.5383C61.3613 7.41909 53.9399 0 44.8179 0C35.6959 0 28.2745 7.41909 28.2745 16.5383ZM58.3538 16.5383C58.3538 23.9997 52.2816 30.0699 44.8179 30.0699C37.3542 30.0699 31.2821 23.9997 31.2821 16.5383C31.2821 9.0775 37.3542 3.00723 44.8179 3.00723C52.2816 3.00723 58.3538 9.0775 58.3538 16.5383Z" fill="#484040"/>
<path d="M17.3231 76.5554C17.906 77.1429 18.8551 77.1493 19.4457 76.5677L26.7372 69.3866C27.976 68.1482 28.3526 66.3147 27.8079 64.7209L29.3763 63.2088C30.2208 62.3934 31.3326 61.944 32.5079 61.944H52.5014C56.0484 61.944 59.4009 60.5823 61.9425 58.1096C62.0471 58.008 61.1486 59.066 75.5824 41.8204C77.7232 39.2884 77.4029 35.4864 74.8678 33.3439C72.3486 31.2214 68.5747 31.5263 66.428 34.0148L57.5534 43.1334C56.4327 41.7546 54.7239 40.8952 52.8775 40.8952H36.1066C33.7202 39.8971 31.188 39.3918 28.5754 39.3918C21.3332 39.3918 15.0095 42.7357 11.6159 49.0051C10.1861 48.7343 8.67822 49.1666 7.59343 50.2511L0.438826 57.4246C-0.145295 58.0103 -0.14647 58.9579 0.436476 59.5454L17.3231 76.5554ZM28.5748 42.3985C30.8783 42.3985 33.1055 42.862 35.1958 43.7761C35.3862 43.8595 35.5913 43.9024 35.7987 43.9024H52.8775C54.5082 43.9024 55.8857 45.2318 55.8857 46.909C55.8857 48.5674 54.5364 49.9163 52.8775 49.9163H40.6068C39.7765 49.9163 39.103 50.5895 39.103 51.4196C39.103 52.2502 39.7765 52.9229 40.6068 52.9229H52.8775C56.1947 52.9229 58.8932 50.2253 58.8932 46.909C58.8932 46.6447 58.8744 46.3827 58.8403 46.123C67.4253 37.301 68.6358 36.0615 68.6875 35.9998C69.7594 34.735 71.6622 34.5746 72.928 35.6415C74.195 36.7124 74.3554 38.6134 73.2806 39.8853L59.7911 56.0065C57.8214 57.897 55.2351 58.9374 52.5014 58.9374H32.5079C30.5487 58.9374 28.6941 59.6864 27.2872 61.0452L26.0091 62.2783L14.2268 50.5002C16.9805 45.3358 22.1477 42.3985 28.5748 42.3985ZM9.72188 52.376C10.2179 51.8801 10.9794 51.7909 11.5841 52.1645C11.8445 52.3231 11.097 51.6428 24.6105 65.1333C25.2117 65.7343 25.1793 66.6919 24.6187 67.2523L18.4026 73.3743L3.62505 58.4885L9.72188 52.376Z" fill="#484040"/>
<path d="M43.0132 7.51778V9.27959C41.2626 9.89995 40.0051 11.5713 40.0051 13.5317C40.0051 16.0184 42.0289 18.0422 44.517 18.0422C45.3462 18.0422 46.0208 18.7166 46.0208 19.5455C46.0208 20.3744 45.3462 21.0488 44.517 21.0488C43.8747 21.0488 43.1807 20.6453 42.5643 19.9115C42.0295 19.2759 41.0811 19.1942 40.4452 19.7282C39.8094 20.2628 39.7271 21.211 40.2619 21.8466C41.0658 22.8024 42.0113 23.4686 43.0132 23.8046V25.5594C43.0132 26.3901 43.6867 27.0627 44.517 27.0627C45.3474 27.0627 46.0208 26.3901 46.0208 25.5594V23.7976C47.7714 23.1766 49.029 21.5053 49.029 19.5455C49.029 17.0582 47.0051 15.035 44.517 15.035C43.6879 15.035 43.0132 14.3606 43.0132 13.5317C43.0132 12.7027 43.6879 12.0277 44.517 12.0277C45.05 12.0277 45.6124 12.2997 46.1436 12.8138C46.7407 13.3912 47.6927 13.3754 48.2703 12.7791C48.848 12.1822 48.8321 11.2306 48.2357 10.6531C47.4723 9.91463 46.7084 9.49695 46.0208 9.26901V7.51778C46.0208 6.68711 45.3474 6.01387 44.517 6.01387C43.6867 6.01387 43.0132 6.68711 43.0132 7.51778Z" fill="#484040"/>
</svg>
