<svg width="70" height="76" viewBox="0 0 70 76" fill="none" xmlns="http://www.w3.org/2000/svg">
<rect x="6" y="52" width="6" height="19" fill="#F07E23"/>
<path d="M37 33C30.2 23.8 36.1666 16.1667 40 13.5L41 25.5L45.5 28L49 25.5L50 15L53 14C60.6 28.4 53.5 33.3333 49 34V44.5L47 48.5L41 47.5L40 35L37 33Z" fill="#F07E23"/>
<path d="M66.6742 18.9385H65.9041C65.4489 17.3392 64.813 15.8047 64.0046 14.3539L64.552 13.8061C65.1783 13.1799 65.523 12.3447 65.523 11.4542C65.523 10.5638 65.1783 9.72866 64.5515 9.10168L60.9045 5.45747C60.2782 4.82707 59.4423 4.48003 58.5506 4.48003C57.659 4.48003 56.8229 4.82707 56.1997 5.45436L55.653 6.00134C54.2017 5.19014 52.6672 4.55277 51.0695 4.09752V3.3273C51.0697 1.49265 49.5778 0 47.7437 0H42.5874C40.7535 0 39.2615 1.49265 39.2615 3.3273V4.09752C37.6641 4.55262 36.1287 5.19014 34.6745 6.00193L34.1302 5.45747C33.5036 4.82707 32.6677 4.48004 31.7761 4.48018C30.8845 4.48018 30.0486 4.82737 29.4254 5.4545L25.7791 9.10242C25.1528 9.72866 24.8082 10.5639 24.8082 11.4544C24.8082 12.3448 25.1528 13.1799 25.779 13.8061L26.3262 14.3537C25.5144 15.809 24.8782 17.3438 24.4255 18.9385H23.6526C21.8187 18.9385 20.3267 20.4312 20.3267 22.2658V27.4287C20.3267 29.2633 21.8187 30.756 23.6526 30.756H24.4255C24.8782 32.3506 25.5144 33.8854 26.3262 35.3408L25.779 35.8884C25.1527 36.5146 24.808 37.3499 24.808 38.2403C24.808 39.1306 25.1527 39.9659 25.7788 40.5921L29.4223 44.237C30.0486 44.8674 30.8844 45.2145 31.776 45.2145C32.6676 45.2145 33.5038 44.8674 34.1271 44.2402L34.6743 43.6926C36.13 44.5051 37.6654 45.1418 39.2613 45.5945V46.3674C39.2613 48.202 40.7534 49.6947 42.5873 49.6947H47.7436C49.5775 49.6947 51.0695 48.202 51.0695 46.3674V45.5945C52.6659 45.1416 54.2001 44.5053 55.653 43.6932L56.1966 44.237C56.8229 44.8674 57.6588 45.2145 58.5504 45.2145C59.4421 45.2145 60.2782 44.8673 60.9008 44.2408L64.552 40.5921C65.1781 39.9657 65.5228 39.1305 65.5228 38.2402C65.5228 37.3497 65.1781 36.5146 64.552 35.8884L64.0045 35.3407C64.8128 33.8899 65.4486 32.3553 65.904 30.756H66.674C68.5079 30.756 70 29.2633 70 27.4287V22.2658C70.0001 20.4312 68.5082 18.9385 66.6742 18.9385ZM48.1022 46.3672C48.1022 46.5617 47.9381 46.7258 47.7437 46.7258H42.5874C42.393 46.7258 42.2289 46.5617 42.2289 46.3672V35.0824C42.2289 34.4616 41.8429 33.9065 41.2612 33.6907C37.2741 32.2114 34.5954 28.3726 34.5954 24.1383C34.5954 20.7827 36.2656 17.6371 39.0625 15.7245C39.188 15.6387 39.299 15.5686 39.396 15.5112C39.3907 15.7042 39.377 15.8876 39.3698 15.9834C39.3586 16.134 39.3497 16.2529 39.3497 16.3709V23.3766C39.3497 26.5921 41.8613 29.2776 45.0672 29.4903C45.1326 29.4946 45.1982 29.4946 45.2636 29.4903C48.4673 29.2777 50.9769 26.5922 50.9769 23.3766V16.3709C50.9769 16.2535 50.9682 16.1354 50.9572 15.9856C50.9501 15.8894 50.9364 15.7049 50.9312 15.5111C51.028 15.5684 51.1384 15.6383 51.2635 15.7239C54.061 17.6369 55.7313 20.7825 55.7313 24.1382C55.7313 28.372 53.054 32.2109 49.0693 33.6907C48.4878 33.9066 48.1019 34.4616 48.1019 35.0822L48.1022 46.3672ZM67.0327 27.4287C67.0327 27.6197 66.8651 27.7873 66.6742 27.7873H64.7522C64.0589 27.7873 63.458 28.2675 63.3051 28.9439C62.8352 31.0209 62.0213 32.985 60.8861 34.7815C60.5155 35.3681 60.6006 36.1334 61.0912 36.6242L62.454 37.9875C62.5424 38.076 62.5556 38.1838 62.5556 38.2402C62.5556 38.2964 62.5424 38.4043 62.4544 38.4922L58.8001 42.144C58.7166 42.228 58.6182 42.2457 58.5506 42.2457C58.483 42.2457 58.3848 42.228 58.2982 42.1407L56.9353 40.7773C56.4441 40.286 55.6783 40.2014 55.092 40.5731C53.8254 41.376 52.4773 42.0131 51.0697 42.4839V36.0696C55.6728 33.9265 58.6991 29.2563 58.6991 24.138C58.6991 19.8012 56.5454 15.7395 52.9384 13.273C52.3859 12.8952 50.7056 11.7459 49.2359 12.5921C47.7928 13.4233 47.9366 15.3718 47.9979 16.2039C48.0032 16.2762 48.0084 16.3369 48.0096 16.3709V23.3766C48.0096 25.0013 46.7683 26.3635 45.1656 26.5201C43.5606 26.3634 42.3174 25.0012 42.3174 23.3766L42.3172 16.3816C42.3186 16.3369 42.3239 16.2762 42.3292 16.2036C42.3911 15.372 42.5361 13.4245 41.0942 12.5928C39.6251 11.7451 37.9423 12.8949 37.3887 13.273C33.7814 15.7396 31.6279 19.8014 31.6279 24.1382C31.6279 29.2572 34.6558 33.9277 39.2615 36.0702V42.484C37.8535 42.0132 36.5038 41.3758 35.2335 40.5725C34.9893 40.4181 34.7145 40.3429 34.4411 40.3429C34.0578 40.3429 33.6777 40.4912 33.3915 40.7776L32.0258 42.144C31.9423 42.2281 31.8439 42.2458 31.7763 42.2458C31.7086 42.2458 31.6105 42.2281 31.5239 42.141L27.8774 38.4929C27.7889 38.4045 27.7757 38.2966 27.7757 38.2403C27.7757 38.1839 27.7889 38.0761 27.8774 37.9875L29.2401 36.6242C29.7306 36.1334 29.8158 35.3681 29.4452 34.7815C28.3042 32.9755 27.4905 31.0123 27.0268 28.9464C26.8749 28.2688 26.2734 27.7871 25.5791 27.7871H23.6529C23.462 27.7871 23.2945 27.6196 23.2945 27.4285V22.2657C23.2945 22.0712 23.4586 21.9071 23.6529 21.9071H25.5791C26.2734 21.9071 26.8747 21.4254 27.0268 20.7478C27.4905 18.6819 28.304 16.7186 29.4452 14.9127C29.8158 14.3261 29.7306 13.5608 29.2401 13.0701L27.8773 11.7067C27.7889 11.6182 27.7757 11.5105 27.7757 11.4541C27.7757 11.3977 27.7889 11.2899 27.8774 11.2013L31.527 7.5501C31.6105 7.46608 31.7088 7.44842 31.7764 7.44842C31.8441 7.44842 31.9423 7.46608 32.029 7.55321L33.3916 8.91658C33.8824 9.40745 34.6475 9.4925 35.2337 9.12171C37.0366 7.98144 39.0012 7.1658 41.0724 6.69779C41.749 6.5449 42.2292 5.94359 42.2292 5.24996V3.3273C42.2292 3.13285 42.3933 2.96868 42.5877 2.96868H47.744C47.9384 2.96868 48.1025 3.13285 48.1025 3.3273V5.25026C48.1025 5.94404 48.5828 6.5452 49.2592 6.69808C51.3323 7.16654 53.2947 7.98174 55.0922 9.12127C55.6788 9.49295 56.4444 9.40834 56.9356 8.91702L58.3014 7.55054C58.385 7.46653 58.4833 7.44886 58.5508 7.44886C58.6185 7.44886 58.7167 7.46653 58.804 7.55425L62.4543 11.2017C62.5427 11.2902 62.5559 11.398 62.5559 11.4544C62.5559 11.5108 62.5427 11.6185 62.4541 11.7071L61.0915 13.0705C60.6009 13.5612 60.5158 14.3266 60.8864 14.9132C62.0215 16.7097 62.8354 18.6736 63.3054 20.7508C63.4583 21.4272 64.0592 21.9074 64.7524 21.9074H66.6745C66.8689 21.9074 67.033 22.0715 67.033 22.266L67.0327 27.4287Z" fill="#484040"/>
<path d="M53.8109 65.3586C53.2315 65.9383 53.2315 66.8782 53.8109 67.458C54.1007 67.7477 54.4804 67.8928 54.8601 67.8928C55.2398 67.8928 55.6195 67.7477 55.9093 67.458L55.9134 67.4538C56.4928 66.8742 56.4908 65.9363 55.9112 65.3567C55.3316 64.777 54.3903 64.7793 53.8109 65.3586Z" fill="#484040"/>
<path d="M60.6845 50.9797L48.9049 57.0315C47.9063 55.9969 46.5072 55.3515 44.9595 55.3515H36.8885C36.4366 55.3515 36.3262 55.3156 36.3188 55.313C36.2533 55.2786 36.0465 55.0842 35.8805 54.928L35.8069 54.8588C29.2772 48.7097 23.7614 49.0993 17.4889 51.5758C16.474 51.9765 16.4544 51.9774 15.4352 52.0209L13.6102 52.0223C13.0903 50.4532 11.6107 49.3176 9.87015 49.3176H3.93578C1.76551 49.3176 0 51.0859 0 53.2593V68.8403C0 71.0113 1.76551 72.7776 3.93578 72.7776H9.87015C11.6106 72.7776 13.09 71.6435 13.6101 70.0763H16.9485C17.2433 70.0763 17.2433 70.0763 17.5862 70.1729C17.7108 70.2081 17.8625 70.2508 18.0583 70.3035L33.4142 74.4134C34.0911 74.5963 34.7119 74.7763 35.3123 74.9503C37.2798 75.5206 38.9336 76 40.6572 76C42.6054 76 44.6424 75.3876 47.3216 73.6013C47.3345 73.5927 47.3474 73.5838 47.3602 73.5747L50.2917 71.4835C50.959 71.0074 51.1142 70.0806 50.6383 69.4131C50.1625 68.7454 49.2358 68.5903 48.569 69.0663L45.6568 71.1437C41.7688 73.7307 40.1179 73.2525 36.1382 72.0989C35.5251 71.9212 34.8912 71.7374 34.1848 71.5465L18.8278 67.4365C18.648 67.3881 18.5069 67.3484 18.3911 67.3157C17.8309 67.1578 17.6214 67.1079 16.9486 67.1079H13.8102V54.9921H15.4137C15.4351 54.9921 15.4561 54.9917 15.4775 54.9908L15.5621 54.9872C16.8059 54.9341 17.1538 54.9001 18.5785 54.3374C24.0875 52.1625 28.3399 51.9041 33.7749 57.0226L33.8483 57.0916C34.7771 57.9648 35.312 58.3205 36.8887 58.3205H44.9596C45.9068 58.3205 46.7328 58.8465 47.1634 59.6215C47.168 59.6301 47.1734 59.6383 47.1781 59.6469C47.3704 60.0027 47.4799 60.4097 47.4799 60.8419C47.4799 62.2299 46.3494 63.3591 44.9598 63.3591H31.8795C31.0602 63.3591 30.3958 64.0236 30.3958 64.8434C30.3958 65.6632 31.0602 66.3277 31.8795 66.3277H44.9598C47.9857 66.3277 50.4474 63.8669 50.4474 60.8419C50.4474 60.4308 50.4005 60.0306 50.3145 59.6451L62.0402 53.6209C63.15 53.0509 64.6676 53.1121 65.421 54.3352C66.0875 55.4132 65.7209 56.8462 64.5688 57.668L59.4251 61.3328C58.7575 61.8084 58.6017 62.7352 59.0771 63.403C59.3666 63.8096 59.8233 64.0264 60.287 64.0264C60.5848 64.0264 60.8854 63.9369 61.1464 63.7511L66.2906 60.0858C68.7338 58.3433 69.4448 55.1998 67.9459 52.7757C66.472 50.3827 63.3505 49.6105 60.6845 50.9797ZM10.8426 68.8403C10.8426 69.3654 10.3973 69.809 9.87015 69.809H3.93578C3.41083 69.809 2.96749 69.3653 2.96749 68.8403V53.2595C2.96749 52.723 3.40192 52.2865 3.93578 52.2865H9.87015C10.3973 52.2865 10.8426 52.7319 10.8426 53.2595V68.8403Z" fill="#484040"/>
</svg>
