<svg width="63" height="78" viewBox="0 0 63 78" fill="none" xmlns="http://www.w3.org/2000/svg">
<circle cx="31.5" cy="12.54" r="3.78" fill="#F07E23"/>
<path d="M40.74 39.84L22.26 39.42L21.84 48.66H40.32L40.74 39.84Z" fill="#F07E23"/>
<path d="M40.74 39.84L22.26 39.42L21.84 48.66H40.32L40.74 39.84Z" fill="#F07E23"/>
<path d="M23.94 30.18L7.56001 29.76L5.04001 39H23.52L23.94 30.18Z" fill="#F07E23"/>
<path d="M21.84 49.08H4.19999L1.67999 58.32H20.16L21.84 49.08Z" fill="#F07E23"/>
<path d="M42 49.08H58.38L60.9 57.9H42.42L42 49.08Z" fill="#F07E23"/>
<path d="M39.48 29.76H55.86L58.38 38.58H39.9L39.48 29.76Z" fill="#F07E23"/>
<path d="M31.4999 6.44582C28.3621 6.44582 25.8095 9.00391 25.8095 12.1484C25.8095 15.2929 28.3621 17.8508 31.4999 17.8508C34.6377 17.8508 37.1903 15.2926 37.1903 12.1484C37.1904 9.00391 34.6377 6.44582 31.4999 6.44582ZM31.4999 15.5748C29.6145 15.5748 28.0805 14.0377 28.0805 12.1483C28.0805 10.2588 29.6143 8.72151 31.4999 8.72151C33.3854 8.72151 34.9193 10.2587 34.9193 12.1483C34.9193 14.0378 33.3854 15.5748 31.4999 15.5748Z" fill="#484040"/>
<path d="M31.4999 0.359985C30.8726 0.359985 30.3644 0.869551 30.3644 1.49791V3.01936C30.3644 3.64786 30.8728 4.15728 31.4999 4.15728C32.1271 4.15728 32.6354 3.64771 32.6354 3.01936V1.49791C32.6356 0.869551 32.1272 0.359985 31.4999 0.359985Z" fill="#484040"/>
<path d="M25.8616 4.88843L24.788 3.8127C24.3448 3.36834 23.6257 3.36849 23.1822 3.8127C22.7388 4.25706 22.7388 4.97764 23.1823 5.42215L24.2558 6.49803C24.4775 6.72021 24.7681 6.83131 25.0587 6.83131C25.3492 6.83131 25.6399 6.72021 25.8618 6.49788C26.3052 6.05337 26.3052 5.33279 25.8616 4.88843Z" fill="#484040"/>
<path d="M22.3907 11.0102H20.8725C20.2452 11.0102 19.737 11.5198 19.737 12.1481C19.737 12.7766 20.2453 13.286 20.8725 13.286H22.3907C23.018 13.286 23.5262 12.7765 23.5262 12.1481C23.5262 11.5198 23.0178 11.0102 22.3907 11.0102Z" fill="#484040"/>
<path d="M25.8616 17.7988C25.418 17.3544 24.6992 17.3544 24.2554 17.7988L23.182 18.8745C22.7386 19.3189 22.7386 20.0395 23.182 20.4838C23.4039 20.706 23.6946 20.8173 23.9851 20.8173C24.2756 20.8173 24.5663 20.7062 24.7882 20.4838L25.8616 19.4081C26.305 18.9637 26.305 18.2432 25.8616 17.7988Z" fill="#484040"/>
<path d="M31.4999 20.1393C30.8726 20.1393 30.3644 20.6488 30.3644 21.2772V22.7986C30.3644 23.4271 30.8728 23.9365 31.4999 23.9365C32.1271 23.9365 32.6354 23.427 32.6354 22.7986V21.2772C32.6356 20.6488 32.1272 20.1393 31.4999 20.1393Z" fill="#484040"/>
<path d="M39.818 18.8748L38.7445 17.7991C38.3011 17.3547 37.5821 17.3546 37.1385 17.799C36.695 18.2433 36.695 18.9639 37.1384 19.4084L38.2118 20.4841C38.4337 20.7063 38.7242 20.8174 39.0149 20.8174C39.3054 20.8174 39.5961 20.7063 39.8178 20.4841C40.2614 20.0398 40.2614 19.3192 39.818 18.8748Z" fill="#484040"/>
<path d="M42.1277 11.0105H40.6095C39.9821 11.0105 39.474 11.5201 39.474 12.1484C39.474 12.7768 39.9823 13.2863 40.6095 13.2863H42.1277C42.755 13.2863 43.2631 12.7768 43.2631 12.1484C43.2631 11.5201 42.755 11.0105 42.1277 11.0105Z" fill="#484040"/>
<path d="M39.8178 3.81255C39.3745 3.36819 38.6555 3.36834 38.2119 3.81255L37.1385 4.88828C36.6951 5.33264 36.6951 6.05322 37.1387 6.49773C37.3602 6.72006 37.6509 6.83115 37.9414 6.83115C38.232 6.83115 38.5227 6.72006 38.7445 6.49773L39.818 5.422C40.2614 4.97764 40.2614 4.25706 39.8178 3.81255Z" fill="#484040"/>
<path d="M62.9974 58.6495C62.9965 58.6296 62.9964 58.6098 62.9944 58.5899C62.9905 58.5499 62.9845 58.5105 62.9763 58.4719C62.9762 58.471 62.9762 58.4702 62.9759 58.4693L60.9536 48.8428C60.9528 48.8393 60.9521 48.836 60.9515 48.8325L58.9293 39.2065C58.9285 39.2031 58.9278 39.1998 58.9272 39.1963L56.9031 29.5608C56.7925 29.0342 56.3289 28.6573 55.7918 28.6573H7.20786C6.67077 28.6573 6.20733 29.0342 6.09662 29.5608L4.07295 39.1952C4.07205 39.1993 4.07114 39.2032 4.07039 39.2073L2.04837 48.8334C2.04777 48.8361 2.04717 48.839 2.04672 48.8417L0.0245507 58.4684C0.0161162 58.509 0.00963979 58.5505 0.00557317 58.5925C0.00466947 58.6021 0.00481977 58.6121 0.00406669 58.6218C0.00210868 58.6488 0 58.6758 0 58.7034V63.2682C0 63.8967 0.508328 64.4062 1.13549 64.4062H28.0867V70.7993H19.3537C18.7264 70.7993 18.2182 71.3089 18.2182 71.9372V75.3641H7.20802C6.5807 75.3641 6.07253 75.8737 6.07253 76.5021C6.07253 77.1304 6.58085 77.64 7.20802 77.64H55.79C56.4173 77.64 56.9255 77.1304 56.9255 76.5021C56.9255 75.8737 56.4172 75.3641 55.79 75.3641H44.7815V71.9372C44.7815 71.3087 44.2732 70.7993 43.646 70.7993H34.913V64.4062H61.8643C62.4917 64.4062 62.9998 63.8966 62.9998 63.2682V58.7238C63 58.7223 63 58.7205 63 58.7187V58.7039C63.0001 58.6853 62.9983 58.6676 62.9974 58.6495ZM60.4653 57.5656H42.6804L42.1649 50.2054H58.9191L60.4653 57.5656ZM56.8948 40.5694L58.4412 47.9296H42.0055L41.49 40.5694H56.8948ZM54.8705 30.9333L56.4169 38.2935H41.3306L40.815 30.9333H54.8705ZM24.4612 30.9333H38.5385L39.0541 38.2935H23.9458L24.4612 30.9333ZM23.7866 40.5694H39.2134L39.729 47.9296H23.2712L23.7866 40.5694ZM23.112 50.2056H39.8883L40.4037 57.5656H22.5966L23.112 50.2056ZM8.12933 30.9333H22.1846L21.6692 38.2935H6.58311L8.12933 30.9333ZM6.10521 40.5694H21.5099L20.9945 47.9296H4.55899L6.10521 40.5694ZM42.5105 73.0756V75.3644H20.4895V73.0756H42.5105ZM30.358 70.7996V64.4065H32.642V70.7996H30.358ZM33.7908 62.1305C33.7864 62.1305 33.7821 62.1299 33.7777 62.1299H29.2225C29.2181 62.1299 29.2137 62.1305 29.2094 62.1305H2.27098V59.8416H7.68035C8.30766 59.8416 8.81584 59.3321 8.81584 58.7037C8.81584 58.0752 8.30751 57.5658 7.68035 57.5658H2.53486L4.08093 50.2056H20.8351L20.3197 57.5656H12.591C11.9637 57.5656 11.4554 58.0752 11.4554 58.7036C11.4554 59.3321 11.9637 59.8415 12.5909 59.8415H21.3775C21.3782 59.8415 21.3788 59.8415 21.3796 59.8415C21.3801 59.8415 21.3807 59.8415 21.3811 59.8415H41.6189C41.6193 59.8415 41.6199 59.8415 41.6204 59.8415C41.6211 59.8415 41.6217 59.8415 41.6225 59.8415H60.7287V62.1303H33.7908V62.1305Z" fill="#484040"/>
</svg>
