<svg width="204" height="49" viewBox="0 0 204 49" fill="none" xmlns="http://www.w3.org/2000/svg">
<path d="M70.2056 27.1479H66.3035V36.2122H61.8242V10.9297H70.2016C76.2702 10.9297 79.9894 13.6368 79.9894 19.055C79.9894 24.4733 76.2702 27.1438 70.2016 27.1438L70.2056 27.1479ZM69.9536 14.6895H66.3035V23.3921H69.9536C73.5997 23.3921 75.441 22.0914 75.441 19.0591C75.441 16.0268 73.5997 14.6895 69.9536 14.6895V14.6895Z" fill="#2B2D82"/>
<path d="M94.6834 24.4738C94.6834 22.1244 93.6712 20.5717 90.4235 20.5717C88.7286 20.5717 87.0661 21.1488 85.6597 22.3032L83.2006 19.8481C85.367 18.0068 88.0782 17.0679 90.9276 17.0679C97.1019 17.0679 98.9472 20.3887 98.9472 25.1932V36.2086H94.6834V34.6559C93.3461 35.9566 91.3625 36.6435 89.196 36.6435C85.115 36.6435 82.1519 34.1153 82.1519 30.5424C82.1519 26.9695 85.115 24.4372 89.196 24.4372C91.5088 24.4372 93.2404 25.1241 94.6834 26.2419V24.4738V24.4738ZM94.6834 31.5179V29.5669C93.4924 28.4816 91.9763 27.9044 90.2772 27.9044C87.9644 27.9044 86.4848 28.7702 86.4848 30.5424C86.4848 32.3146 87.9644 33.1763 90.2772 33.1763C91.9031 33.1763 93.529 32.6357 94.6834 31.5179Z" fill="#2B2D82"/>
<path d="M107.898 23.0674V36.2127H103.638V17.5028H107.898V19.6693C109.34 18.2263 111.474 17.0679 114.182 17.0679C118.116 17.0679 120.791 19.523 120.791 24.0714V36.2045H116.527V24.6851C116.527 22.0471 115.373 20.531 112.917 20.531C110.82 20.531 108.91 21.7585 107.898 23.0593V23.0674Z" fill="#2B2D82"/>
<path d="M136.928 24.4738C136.928 22.1244 135.916 20.5717 132.664 20.5717C130.969 20.5717 129.306 21.1488 127.9 22.3032L125.445 19.8481C127.611 18.0068 130.318 17.0679 133.172 17.0679C139.346 17.0679 141.187 20.3887 141.187 25.1932V36.2086H136.924V34.6559C135.586 35.9566 133.603 36.6435 131.436 36.6435C127.355 36.6435 124.392 34.1153 124.392 30.5424C124.392 26.9695 127.355 24.4372 131.436 24.4372C133.749 24.4372 135.481 25.1241 136.924 26.2419V24.4738H136.928ZM136.928 31.5179V29.5669C135.737 28.4816 134.221 27.9044 132.522 27.9044C130.209 27.9044 128.729 28.7702 128.729 30.5424C128.729 32.3146 130.209 33.1763 132.522 33.1763C134.147 33.1763 135.773 32.6357 136.928 31.5179Z" fill="#2B2D82"/>
<path d="M152.346 17.0718C155.272 17.0718 157.943 18.0798 159.857 20.0309L157.04 22.3437C155.922 21.1527 154.223 20.539 152.707 20.539C150.939 20.539 150.037 21.0796 150.037 22.1649C150.037 23.2501 150.756 23.8598 154.333 24.9085C158.414 26.0995 160.544 27.8717 160.544 30.9771C160.544 34.4078 158.052 36.6474 153.248 36.6474C149.744 36.6474 146.675 35.493 144.472 33.038L147.468 30.656C148.911 32.1356 150.862 33.1843 152.886 33.1843C155.053 33.1843 155.992 32.4608 155.992 31.1966C155.992 29.7903 155.162 29.1399 151.947 28.2335C147.07 26.8596 145.484 25.1646 145.484 22.2746C145.484 19.2057 147.939 17.0758 152.346 17.0758V17.0718Z" fill="#2B2D82"/>
<path d="M164.149 28.339V17.5024H168.413V28.3755C168.413 31.6232 170.254 33.18 172.709 33.18C175.164 33.18 177.006 31.6273 177.006 28.3755V17.5024H181.266V28.339C181.266 33.9726 177.872 36.6432 172.705 36.6432C167.539 36.6432 164.145 33.9686 164.145 28.339H164.149Z" fill="#2B2D82"/>
<path d="M190.184 23.0674V36.2127H185.924V17.5028H190.184V19.6693C191.627 18.2263 193.761 17.0679 196.468 17.0679C200.402 17.0679 203.077 19.523 203.077 24.0714V36.2045H198.813V24.6851C198.813 22.0471 197.659 20.531 195.204 20.531C193.106 20.531 191.196 21.7585 190.184 23.0593V23.0674Z" fill="#2B2D82"/>
<path d="M26.823 2.32501C26.823 3.6054 25.7825 4.64596 24.5021 4.64596C23.2217 4.64596 22.1812 3.6054 22.1812 2.32501C22.1812 1.04463 23.2217 0 24.5021 0C25.7825 0 26.823 1.04057 26.823 2.32501Z" fill="#F07E23"/>
<path d="M15.4218 4.13353C16.064 5.2432 15.682 6.66585 14.5723 7.304C13.4626 7.94623 12.04 7.56415 11.3978 6.45448C10.7555 5.34075 11.1376 3.92217 12.2473 3.27994C13.357 2.63772 14.7796 3.0198 15.4218 4.13353Z" fill="#F07E23"/>
<path d="M6.45447 11.4017C7.56413 12.0439 7.94622 13.4665 7.30399 14.5762C6.66583 15.6859 5.24318 16.068 4.13352 15.4257C3.02385 14.7835 2.64177 13.3609 3.28399 12.2512C3.92622 11.1415 5.34887 10.7594 6.45853 11.4017H6.45447Z" fill="#F07E23"/>
<path d="M2.32095 22.1772C3.6054 22.1772 4.64596 23.2178 4.6419 24.4982C4.6419 25.7826 3.60133 26.8191 2.32095 26.8191C1.04057 26.8191 0 25.7786 0 24.4982C0 23.2178 1.04057 22.1772 2.32095 22.1772Z" fill="#F07E23"/>
<path d="M4.13368 33.5784C5.24334 32.9362 6.66599 33.3183 7.30415 34.428C7.94637 35.5376 7.56429 36.9603 6.45463 37.6025C5.34496 38.2447 3.92231 37.8626 3.28009 36.753C2.63786 35.6433 3.01995 34.2207 4.12961 33.5784H4.13368Z" fill="#F07E23"/>
<path d="M11.3978 42.5451C12.04 41.4355 13.4586 41.0534 14.5723 41.6956C15.682 42.3378 16.064 43.7605 15.4218 44.8702C14.7796 45.9798 13.361 46.3619 12.2473 45.7197C11.1376 45.0775 10.7555 43.6548 11.3978 42.5492V42.5451Z" fill="#F07E23"/>
<path d="M22.1772 46.6789C22.1772 45.3985 23.2178 44.3579 24.4982 44.3579C25.7786 44.3579 26.8191 45.3985 26.8191 46.6789C26.8191 47.9592 25.7786 48.9998 24.4982 48.9998C23.2178 48.9998 22.1772 47.9592 22.1772 46.6789Z" fill="#F07E23"/>
<path d="M33.5784 44.8662C32.9362 43.7566 33.3183 42.3339 34.428 41.6917C35.5376 41.0495 36.9603 41.4316 37.6025 42.5412C38.2447 43.6509 37.8626 45.0735 36.753 45.7117C35.6433 46.3539 34.2207 45.9718 33.5825 44.8622L33.5784 44.8662Z" fill="#F07E23"/>
<path d="M42.5451 37.5986C41.4355 36.9564 41.0534 35.5378 41.6956 34.424C42.3378 33.3144 43.7564 32.9323 44.8702 33.5745C45.9798 34.2167 46.3578 35.6353 45.7197 36.7491C45.0775 37.8587 43.6589 38.2408 42.5492 37.5986H42.5451Z" fill="#F07E23"/>
<path d="M46.675 26.823C45.3946 26.823 44.354 25.7825 44.354 24.5021C44.354 23.2217 45.3946 22.1812 46.675 22.1812C47.9553 22.1812 48.9959 23.2217 48.9959 24.5021C48.9959 25.7825 47.9553 26.823 46.675 26.823Z" fill="#F07E23"/>
<path d="M44.8662 15.4254C43.7566 16.0636 42.3339 15.6855 41.6917 14.5759C41.0495 13.4662 41.4316 12.0436 42.5412 11.4013C43.6509 10.7632 45.0735 11.1412 45.7117 12.2509C46.3539 13.3605 45.9718 14.7832 44.8622 15.4254H44.8662Z" fill="#F07E23"/>
<path d="M37.5986 6.45886C36.9564 7.56853 35.5378 7.95061 34.424 7.30839C33.3144 6.66616 32.9323 5.24758 33.5745 4.13791C34.2167 3.02825 35.6353 2.64616 36.745 3.28839C37.8547 3.93061 38.2367 5.3492 37.5945 6.46293L37.5986 6.45886Z" fill="#F07E23"/>
<path d="M25.9772 10.377C25.9772 11.194 25.3146 11.8566 24.4976 11.8566C23.6806 11.8566 23.0181 11.194 23.0181 10.377C23.0181 9.56001 23.6806 8.89746 24.4976 8.89746C25.3146 8.89746 25.9772 9.56001 25.9772 10.377Z" fill="#F07E23"/>
<path d="M18.7176 11.5316C19.1281 12.2348 18.8843 13.1412 18.177 13.5518C17.4697 13.9582 16.5633 13.7144 16.1528 13.0112C15.7463 12.3039 15.9861 11.3975 16.6934 10.991C17.4006 10.5845 18.3071 10.8243 18.7135 11.5357L18.7176 11.5316Z" fill="#F07E23"/>
<path d="M13.0068 16.1572C13.714 16.5677 13.9579 17.4741 13.5474 18.1773C13.1409 18.8886 12.2345 19.1285 11.5272 18.7179C10.82 18.3115 10.5761 17.405 10.9866 16.6978C11.3931 15.9905 12.3036 15.7507 13.0068 16.1572Z" fill="#F07E23"/>
<path d="M10.377 23.0225C11.194 23.0225 11.8566 23.685 11.8566 24.502C11.8566 25.319 11.194 25.9816 10.377 25.9816C9.56001 25.9816 8.89746 25.319 8.89746 24.502C8.89746 23.685 9.56001 23.0225 10.377 23.0225Z" fill="#F07E23"/>
<path d="M11.5314 30.282C12.2386 29.8715 13.145 30.1154 13.5515 30.8226C13.958 31.5299 13.7182 32.4363 13.0109 32.8428C12.3077 33.2533 11.3972 33.0094 10.9908 32.3022C10.5843 31.5949 10.8282 30.6885 11.5314 30.282V30.282Z" fill="#F07E23"/>
<path d="M16.157 35.9886C16.5675 35.2814 17.4699 35.0375 18.1812 35.448C18.8885 35.8545 19.1283 36.7609 18.7218 37.4682C18.3113 38.1755 17.4089 38.4193 16.7017 38.0088C15.9944 37.6023 15.7546 36.6959 16.1611 35.9886H16.157Z" fill="#F07E23"/>
<path d="M23.0181 38.6231C23.0181 37.8061 23.6806 37.1436 24.4976 37.1436C25.3146 37.1436 25.9772 37.8061 25.9772 38.6231C25.9772 39.4401 25.3146 40.1027 24.4976 40.1027C23.6806 40.1027 23.0181 39.4401 23.0181 38.6231Z" fill="#F07E23"/>
<path d="M30.282 37.4684C29.8715 36.7652 30.1154 35.8588 30.8226 35.4483C31.5299 35.0418 32.4363 35.2857 32.8468 35.9889C33.2533 36.6961 33.0094 37.6026 32.3062 38.009C31.599 38.4155 30.6926 38.1757 30.2861 37.4684H30.282Z" fill="#F07E23"/>
<path d="M35.9888 32.8428C35.2815 32.4363 35.0417 31.5299 35.4482 30.8226C35.8547 30.1154 36.7611 29.8715 37.4683 30.282C38.1715 30.6885 38.4154 31.5949 38.0049 32.3022C37.5984 33.0094 36.692 33.2533 35.9847 32.8428H35.9888Z" fill="#F07E23"/>
<path d="M38.6226 25.9816C37.8056 25.9816 37.1431 25.319 37.1431 24.502C37.1431 23.685 37.8056 23.0225 38.6226 23.0225C39.4396 23.0225 40.1022 23.685 40.1022 24.502C40.1022 25.319 39.4396 25.9816 38.6226 25.9816Z" fill="#F07E23"/>
<path d="M37.4683 18.7179C36.7651 19.1285 35.8547 18.8846 35.4482 18.1773C35.0417 17.4701 35.2815 16.5636 35.9888 16.1572C36.696 15.7507 37.6025 15.9905 38.0089 16.6978C38.4154 17.4091 38.1756 18.3115 37.4683 18.7179Z" fill="#F07E23"/>
<path d="M32.8425 13.0112C32.4319 13.7184 31.5255 13.9582 30.8182 13.5518C30.111 13.1453 29.8671 12.2348 30.2776 11.5316C30.6882 10.8243 31.5905 10.5805 32.2978 10.991C33.005 11.3975 33.2489 12.3039 32.8384 13.0112H32.8425Z" fill="#F07E23"/>
<path d="M25.2825 17.0475C25.2825 17.4784 24.933 17.8279 24.5021 17.8279C24.0712 17.8279 23.7217 17.4784 23.7217 17.0475C23.7217 16.6167 24.0712 16.2671 24.5021 16.2671C24.933 16.2671 25.2825 16.6167 25.2825 17.0475Z" fill="#F07E23"/>
<path d="M21.4496 17.6572C21.6651 18.0312 21.5391 18.5067 21.1651 18.7222C20.7912 18.9376 20.3115 18.8075 20.1002 18.4336C19.8847 18.0596 20.0148 17.584 20.3887 17.3686C20.7627 17.1532 21.2383 17.2792 21.4537 17.6572H21.4496Z" fill="#F07E23"/>
<path d="M18.4376 20.0961C18.8116 20.3116 18.9376 20.7912 18.7222 21.1611C18.5067 21.535 18.0271 21.6651 17.6572 21.4497C17.2832 21.2343 17.1572 20.7546 17.3727 20.3847C17.5881 20.0108 18.0637 19.8848 18.4376 20.1002V20.0961Z" fill="#F07E23"/>
<path d="M17.0475 23.7217C17.4784 23.7217 17.8279 24.0712 17.8279 24.5021C17.8279 24.933 17.4784 25.2825 17.0475 25.2825C16.6167 25.2825 16.2671 24.933 16.2671 24.5021C16.2671 24.0712 16.6167 23.7217 17.0475 23.7217Z" fill="#F07E23"/>
<path d="M17.6572 27.5505C18.0311 27.3351 18.5108 27.4651 18.7221 27.835C18.9376 28.209 18.8075 28.6845 18.4376 28.9C18.0637 29.1154 17.5881 28.9853 17.3727 28.6114C17.1572 28.2374 17.2832 27.7619 17.6572 27.5464V27.5505Z" fill="#F07E23"/>
<path d="M20.0961 30.5627C20.3115 30.1888 20.7911 30.0628 21.161 30.2741C21.535 30.4896 21.661 30.9651 21.4455 31.3391C21.2301 31.713 20.7505 31.839 20.3806 31.6236C20.0066 31.4082 19.8806 30.9285 20.092 30.5587L20.0961 30.5627Z" fill="#F07E23"/>
<path d="M23.7178 31.9528C23.7178 31.5179 24.0673 31.1724 24.4982 31.1724C24.9291 31.1724 25.2786 31.5219 25.2786 31.9528C25.2786 32.3836 24.9291 32.7332 24.4982 32.7332C24.0673 32.7332 23.7178 32.3836 23.7178 31.9528Z" fill="#F07E23"/>
<path d="M27.551 31.3428C27.3355 30.9689 27.4656 30.4893 27.8355 30.2779C28.2095 30.0625 28.6891 30.1925 28.9005 30.5665C29.1159 30.9364 28.9858 31.416 28.6159 31.6314C28.242 31.8469 27.7623 31.7209 27.551 31.3469V31.3428Z" fill="#F07E23"/>
<path d="M30.5625 28.9043C30.1885 28.6888 30.0625 28.2092 30.2779 27.8393C30.4934 27.4654 30.973 27.3394 31.3429 27.5548C31.7168 27.7702 31.8429 28.2458 31.6274 28.6198C31.412 28.9937 30.9364 29.1197 30.5625 28.9083V28.9043Z" fill="#F07E23"/>
<path d="M31.9528 25.2786C31.5219 25.2786 31.1724 24.9291 31.1724 24.4982C31.1724 24.0673 31.5219 23.7178 31.9528 23.7178C32.3836 23.7178 32.7332 24.0673 32.7332 24.4982C32.7332 24.9291 32.3836 25.2786 31.9528 25.2786Z" fill="#F07E23"/>
<path d="M31.3429 21.4494C30.9689 21.6649 30.4893 21.5389 30.2779 21.1609C30.0625 20.7869 30.1885 20.3113 30.5625 20.0959C30.9364 19.8805 31.412 20.0105 31.6274 20.3804C31.8429 20.7544 31.7168 21.23 31.3429 21.4454V21.4494Z" fill="#F07E23"/>
<path d="M28.9004 18.4376C28.6849 18.8115 28.2053 18.9375 27.8354 18.7262C27.4615 18.5107 27.3355 18.0311 27.5509 17.6612C27.7663 17.2873 28.246 17.1572 28.6158 17.3726C28.9898 17.588 29.1158 18.0677 28.9004 18.4376Z" fill="#F07E23"/>
</svg>
