<svg width="191" height="46" viewBox="0 0 191 46" fill="none" xmlns="http://www.w3.org/2000/svg">
<path d="M65.9073 25.486H62.2441V33.9953H58.0391V10.2608H65.9035C71.6006 10.2608 75.0921 12.8021 75.0921 17.8887C75.0921 22.9752 71.6006 25.4822 65.9035 25.4822L65.9073 25.486ZM65.6708 13.7904H62.2441V21.9602H65.6708C69.0936 21.9602 70.8222 20.7391 70.8222 17.8925C70.8222 15.0458 69.0936 13.7904 65.6708 13.7904Z" fill="#2B2D82"/>
<path d="M88.8863 22.9752C88.8863 20.7696 87.9362 19.312 84.8873 19.312C83.2961 19.312 81.7354 19.8538 80.4151 20.9375L78.1066 18.6327C80.1404 16.9042 82.6856 16.0227 85.3605 16.0227C91.1568 16.0227 92.8891 19.1403 92.8891 23.6506V33.9915H88.8863V32.5339C87.6309 33.755 85.7688 34.3998 83.7349 34.3998C79.9038 34.3998 77.1221 32.0264 77.1221 28.6722C77.1221 25.3181 79.9038 22.9408 83.7349 22.9408C85.9062 22.9408 87.5317 23.5857 88.8863 24.6351V22.9752ZM88.8863 29.588V27.7564C87.7683 26.7376 86.345 26.1958 84.75 26.1958C82.5787 26.1958 81.1898 27.0085 81.1898 28.6722C81.1898 30.3359 82.5787 31.1449 84.75 31.1449C86.2763 31.1449 87.8026 30.6374 88.8863 29.588Z" fill="#2B2D82"/>
<path d="M101.291 21.6549V33.9953H97.2925V16.431H101.291V18.4648C102.646 17.1102 104.649 16.0227 107.191 16.0227C110.885 16.0227 113.395 18.3275 113.395 22.5974V33.9877H109.393V23.1736C109.393 20.6971 108.309 19.2738 106.004 19.2738C104.035 19.2738 102.242 20.4262 101.291 21.6473V21.6549Z" fill="#2B2D82"/>
<path d="M128.544 22.9752C128.544 20.7696 127.594 19.312 124.542 19.312C122.95 19.312 121.39 19.8538 120.069 20.9375L117.765 18.6327C119.799 16.9042 122.34 16.0227 125.019 16.0227C130.815 16.0227 132.543 19.1403 132.543 23.6506V33.9915H128.541V32.5339C127.285 33.755 125.423 34.3998 123.389 34.3998C119.558 34.3998 116.776 32.0264 116.776 28.6722C116.776 25.3181 119.558 22.9408 123.389 22.9408C125.56 22.9408 127.186 23.5857 128.541 24.6351V22.9752H128.544ZM128.544 29.588V27.7564C127.426 26.7376 126.003 26.1958 124.408 26.1958C122.237 26.1958 120.848 27.0085 120.848 28.6722C120.848 30.3359 122.237 31.1449 124.408 31.1449C125.934 31.1449 127.461 30.6374 128.544 29.588Z" fill="#2B2D82"/>
<path d="M143.018 16.0265C145.765 16.0265 148.272 16.9728 150.069 18.8045L147.425 20.9757C146.376 19.8576 144.781 19.2814 143.357 19.2814C141.697 19.2814 140.85 19.7889 140.85 20.8078C140.85 21.8266 141.526 22.399 144.884 23.3835C148.715 24.5015 150.714 26.1652 150.714 29.0805C150.714 32.3011 148.375 34.4036 143.865 34.4036C140.576 34.4036 137.695 33.3199 135.626 31.0152L138.439 28.7791C139.793 30.168 141.625 31.1525 143.525 31.1525C145.559 31.1525 146.441 30.4733 146.441 29.2866C146.441 27.9663 145.662 27.3558 142.644 26.5048C138.065 25.2151 136.577 23.6239 136.577 20.9108C136.577 18.0298 138.881 16.0303 143.018 16.0303V16.0265Z" fill="#2B2D82"/>
<path d="M154.099 26.604V16.431H158.102V26.6384C158.102 29.6873 159.83 31.1487 162.135 31.1487C164.44 31.1487 166.169 29.6911 166.169 26.6384V16.431H170.168V26.604C170.168 31.8928 166.981 34.3998 162.131 34.3998C157.281 34.3998 154.095 31.889 154.095 26.604H154.099Z" fill="#2B2D82"/>
<path d="M178.54 21.6549V33.9953H174.541V16.431H178.54V18.4648C179.894 17.1102 181.897 16.0227 184.439 16.0227C188.133 16.0227 190.643 18.3275 190.643 22.5974V33.9877H186.641V23.1736C186.641 20.6971 185.557 19.2738 183.252 19.2738C181.283 19.2738 179.49 20.4262 178.54 21.6473V21.6549Z" fill="#2B2D82"/>
<path d="M25.1809 2.18266C25.1809 3.38466 24.2041 4.36151 23.0021 4.36151C21.8001 4.36151 20.8232 3.38466 20.8232 2.18266C20.8232 0.980673 21.8001 0 23.0021 0C24.2041 0 25.1809 0.976857 25.1809 2.18266Z" fill="#F07E23"/>
<path d="M14.4772 3.88073C15.0801 4.92246 14.7214 6.258 13.6796 6.85709C12.6379 7.46 11.3024 7.10131 10.6995 6.05958C10.0966 5.01404 10.4553 3.68231 11.497 3.0794C12.5387 2.4765 13.8743 2.83519 14.4772 3.88073Z" fill="#F07E23"/>
<path d="M6.05962 10.7035C7.10135 11.3064 7.46004 12.642 6.85713 13.6837C6.25805 14.7254 4.9225 15.0841 3.88077 14.4812C2.83905 13.8783 2.48036 12.5427 3.08326 11.501C3.68617 10.4593 5.02171 10.1006 6.06344 10.7035H6.05962Z" fill="#F07E23"/>
<path d="M2.17885 20.8193C3.38466 20.8193 4.36151 21.7961 4.3577 22.9981C4.3577 24.2039 3.38084 25.177 2.17885 25.177C0.976857 25.177 0 24.2001 0 22.9981C0 21.7961 0.976857 20.8193 2.17885 20.8193Z" fill="#F07E23"/>
<path d="M3.88068 31.5227C4.92241 30.9198 6.25796 31.2785 6.85704 32.3202C7.45995 33.3619 7.10126 34.6975 6.05953 35.3004C5.01781 35.9033 3.68226 35.5446 3.07936 34.5029C2.47645 33.4611 2.83514 32.1256 3.87687 31.5227H3.88068Z" fill="#F07E23"/>
<path d="M10.6995 39.9404C11.3024 38.8987 12.6341 38.54 13.6796 39.1429C14.7214 39.7458 15.0801 41.0814 14.4772 42.1231C13.8743 43.1648 12.5425 43.5235 11.497 42.9206C10.4553 42.3177 10.0966 40.9822 10.6995 39.9443V39.9404Z" fill="#F07E23"/>
<path d="M20.8193 43.8211C20.8193 42.6191 21.7962 41.6423 22.9982 41.6423C24.2002 41.6423 25.177 42.6191 25.177 43.8211C25.177 45.0231 24.2002 46 22.9982 46C21.7962 46 20.8193 45.0231 20.8193 43.8211Z" fill="#F07E23"/>
<path d="M31.5227 42.1193C30.9198 41.0776 31.2785 39.742 32.3202 39.1391C33.362 38.5362 34.6975 38.8949 35.3004 39.9366C35.9033 40.9783 35.5446 42.3139 34.5029 42.913C33.4612 43.5159 32.1256 43.1572 31.5265 42.1155L31.5227 42.1193Z" fill="#F07E23"/>
<path d="M39.9403 35.2966C38.8986 34.6937 38.5399 33.3619 39.1428 32.3164C39.7457 31.2747 41.0775 30.916 42.123 31.5189C43.1647 32.1218 43.5196 33.4535 42.9205 34.499C42.3176 35.5408 40.9859 35.8995 39.9442 35.2966H39.9403Z" fill="#F07E23"/>
<path d="M43.8175 25.1808C42.6155 25.1808 41.6387 24.204 41.6387 23.002C41.6387 21.8 42.6155 20.8231 43.8175 20.8231C45.0195 20.8231 45.9964 21.8 45.9964 23.002C45.9964 24.204 45.0195 25.1808 43.8175 25.1808Z" fill="#F07E23"/>
<path d="M42.1191 14.4812C41.0774 15.0803 39.7418 14.7254 39.1389 13.6837C38.536 12.6419 38.8947 11.3064 39.9364 10.7035C40.9782 10.1044 42.3137 10.4593 42.9128 11.501C43.5157 12.5427 43.157 13.8783 42.1153 14.4812H42.1191Z" fill="#F07E23"/>
<path d="M35.2965 6.06335C34.6936 7.10507 33.3619 7.46376 32.3163 6.86086C31.2746 6.25795 30.9159 4.92622 31.5188 3.8845C32.1217 2.84277 33.4534 2.48408 34.4952 3.08698C35.5369 3.68989 35.8956 5.02162 35.2927 6.06716L35.2965 6.06335Z" fill="#F07E23"/>
<path d="M24.3873 9.74181C24.3873 10.5088 23.7653 11.1308 22.9983 11.1308C22.2314 11.1308 21.6094 10.5088 21.6094 9.74181C21.6094 8.97483 22.2314 8.35284 22.9983 8.35284C23.7653 8.35284 24.3873 8.97483 24.3873 9.74181Z" fill="#F07E23"/>
<path d="M17.5719 10.8255C17.9573 11.4857 17.7284 12.3366 17.0644 12.722C16.4004 13.1036 15.5495 12.8746 15.1641 12.2145C14.7825 11.5505 15.0077 10.6996 15.6716 10.318C16.3356 9.93644 17.1865 10.1616 17.5681 10.8293L17.5719 10.8255Z" fill="#F07E23"/>
<path d="M12.2107 15.1679C12.8747 15.5533 13.1036 16.4043 12.7182 17.0644C12.3366 17.7322 11.4857 17.9573 10.8217 17.5719C10.1578 17.1903 9.92884 16.3394 10.3142 15.6755C10.6958 15.0115 11.5506 14.7864 12.2107 15.1679Z" fill="#F07E23"/>
<path d="M9.742 21.6129C10.509 21.6129 11.131 22.2349 11.131 23.0019C11.131 23.7689 10.509 24.3909 9.742 24.3909C8.97501 24.3909 8.35303 23.7689 8.35303 23.0019C8.35303 22.2349 8.97501 21.6129 9.742 21.6129Z" fill="#F07E23"/>
<path d="M10.8256 28.428C11.4895 28.0426 12.3405 28.2716 12.722 28.9355C13.1036 29.5995 12.8785 30.4504 12.2145 30.832C11.5544 31.2174 10.6996 30.9884 10.3181 30.3245C9.93647 29.6605 10.1654 28.8096 10.8256 28.428Z" fill="#F07E23"/>
<path d="M15.1681 33.7855C15.5535 33.1215 16.4006 32.8926 17.0684 33.278C17.7323 33.6595 17.9575 34.5105 17.5759 35.1744C17.1905 35.8384 16.3434 36.0673 15.6794 35.6819C15.0155 35.3004 14.7903 34.4494 15.1719 33.7855H15.1681Z" fill="#F07E23"/>
<path d="M21.6094 36.2581C21.6094 35.4912 22.2314 34.8692 22.9983 34.8692C23.7653 34.8692 24.3873 35.4912 24.3873 36.2581C24.3873 37.0251 23.7653 37.6471 22.9983 37.6471C22.2314 37.6471 21.6094 37.0251 21.6094 36.2581Z" fill="#F07E23"/>
<path d="M28.428 35.1744C28.0426 34.5143 28.2716 33.6634 28.9355 33.278C29.5995 32.8964 30.4504 33.1253 30.8358 33.7855C31.2174 34.4494 30.9884 35.3004 30.3283 35.6819C29.6643 36.0635 28.8134 35.8384 28.4318 35.1744H28.428Z" fill="#F07E23"/>
<path d="M33.7859 30.832C33.1219 30.4504 32.8968 29.5995 33.2784 28.9355C33.6599 28.2716 34.5109 28.0426 35.1748 28.428C35.835 28.8096 36.0639 29.6605 35.6785 30.3245C35.2969 30.9884 34.446 31.2174 33.7821 30.832H33.7859Z" fill="#F07E23"/>
<path d="M36.2581 24.3909C35.4911 24.3909 34.8691 23.7689 34.8691 23.0019C34.8691 22.2349 35.4911 21.6129 36.2581 21.6129C37.0251 21.6129 37.6471 22.2349 37.6471 23.0019C37.6471 23.7689 37.0251 24.3909 36.2581 24.3909Z" fill="#F07E23"/>
<path d="M35.1748 17.5719C34.5147 17.9573 33.6599 17.7284 33.2784 17.0644C32.8968 16.4005 33.1219 15.5495 33.7859 15.1679C34.4498 14.7864 35.3008 15.0115 35.6823 15.6755C36.0639 16.3432 35.8388 17.1903 35.1748 17.5719Z" fill="#F07E23"/>
<path d="M30.8324 12.2145C30.447 12.8785 29.5961 13.1036 28.9321 12.722C28.2681 12.3404 28.0392 11.4857 28.4246 10.8255C28.81 10.1616 29.6571 9.93262 30.3211 10.318C30.985 10.6996 31.214 11.5505 30.8286 12.2145H30.8324Z" fill="#F07E23"/>
<path d="M23.7343 16.0037C23.7343 16.4081 23.4062 16.7363 23.0017 16.7363C22.5972 16.7363 22.269 16.4081 22.269 16.0037C22.269 15.5992 22.5972 15.271 23.0017 15.271C23.4062 15.271 23.7343 15.5992 23.7343 16.0037Z" fill="#F07E23"/>
<path d="M20.136 16.576C20.3383 16.9271 20.22 17.3735 19.8689 17.5758C19.5179 17.778 19.0676 17.6559 18.8692 17.3048C18.6669 16.9538 18.789 16.5073 19.1401 16.3051C19.4912 16.1029 19.9376 16.2211 20.1398 16.576H20.136Z" fill="#F07E23"/>
<path d="M17.3089 18.8656C17.6599 19.0678 17.7782 19.5181 17.576 19.8653C17.3737 20.2164 16.9235 20.3385 16.5762 20.1362C16.2252 19.934 16.1069 19.4837 16.3091 19.1365C16.5113 18.7854 16.9578 18.6671 17.3089 18.8694V18.8656Z" fill="#F07E23"/>
<path d="M16.0036 22.2693C16.4081 22.2693 16.7363 22.5974 16.7363 23.0019C16.7363 23.4064 16.4081 23.7345 16.0036 23.7345C15.5992 23.7345 15.271 23.4064 15.271 23.0019C15.271 22.5974 15.5992 22.2693 16.0036 22.2693Z" fill="#F07E23"/>
<path d="M16.5762 25.8638C16.9273 25.6616 17.3775 25.7837 17.576 26.1309C17.7782 26.482 17.6561 26.9284 17.3089 27.1307C16.9578 27.3329 16.5113 27.2108 16.3091 26.8597C16.1069 26.5087 16.2252 26.0622 16.5762 25.86V25.8638Z" fill="#F07E23"/>
<path d="M18.8654 28.6914C19.0677 28.3403 19.5179 28.222 19.8652 28.4205C20.2162 28.6227 20.3345 29.0691 20.1323 29.4202C19.9301 29.7713 19.4798 29.8896 19.1325 29.6873C18.7815 29.4851 18.6632 29.0348 18.8616 28.6876L18.8654 28.6914Z" fill="#F07E23"/>
<path d="M22.2656 29.9964C22.2656 29.5881 22.5938 29.2637 22.9983 29.2637C23.4027 29.2637 23.7309 29.5919 23.7309 29.9964C23.7309 30.4009 23.4027 30.729 22.9983 30.729C22.5938 30.729 22.2656 30.4009 22.2656 29.9964Z" fill="#F07E23"/>
<path d="M25.8639 29.424C25.6617 29.073 25.7838 28.6227 26.131 28.4243C26.4821 28.222 26.9324 28.3441 27.1308 28.6952C27.333 29.0424 27.2109 29.4927 26.8637 29.6949C26.5126 29.8972 26.0624 29.7789 25.8639 29.4278V29.424Z" fill="#F07E23"/>
<path d="M28.6914 27.1345C28.3404 26.9322 28.2221 26.482 28.4243 26.1347C28.6266 25.7837 29.0768 25.6654 29.4241 25.8676C29.7751 26.0698 29.8934 26.5163 29.6912 26.8674C29.489 27.2184 29.0425 27.3367 28.6914 27.1383V27.1345Z" fill="#F07E23"/>
<path d="M29.9963 23.7308C29.5918 23.7308 29.2637 23.4026 29.2637 22.9981C29.2637 22.5936 29.5918 22.2655 29.9963 22.2655C30.4008 22.2655 30.729 22.5936 30.729 22.9981C30.729 23.4026 30.4008 23.7308 29.9963 23.7308Z" fill="#F07E23"/>
<path d="M29.4241 20.1362C29.073 20.3384 28.6228 20.2201 28.4243 19.8653C28.2221 19.5142 28.3404 19.0678 28.6914 18.8655C29.0425 18.6633 29.489 18.7854 29.6912 19.1326C29.8934 19.4837 29.7751 19.9301 29.4241 20.1324V20.1362Z" fill="#F07E23"/>
<path d="M27.1307 17.3087C26.9284 17.6597 26.4781 17.778 26.1309 17.5796C25.7798 17.3774 25.6616 16.9271 25.8638 16.5799C26.066 16.2288 26.5163 16.1067 26.8635 16.3089C27.2146 16.5112 27.3329 16.9614 27.1307 17.3087Z" fill="#F07E23"/>
</svg>
