<svg width="191" height="46" viewBox="0 0 191 46" fill="none" xmlns="http://www.w3.org/2000/svg">
<path d="M65.9073 25.486H62.2441V33.9953H58.0391V10.2608H65.9035C71.6006 10.2608 75.0921 12.8021 75.0921 17.8887C75.0921 22.9752 71.6006 25.4822 65.9035 25.4822L65.9073 25.486ZM65.6708 13.7904H62.2441V21.9602H65.6708C69.0936 21.9602 70.8222 20.7391 70.8222 17.8925C70.8222 15.0458 69.0936 13.7904 65.6708 13.7904V13.7904Z" fill="white"/>
<path d="M88.8864 22.9752C88.8864 20.7696 87.9362 19.312 84.8874 19.312C83.2962 19.312 81.7355 19.8538 80.4152 20.9375L78.1066 18.6327C80.1405 16.9042 82.6856 16.0227 85.3605 16.0227C91.1568 16.0227 92.8892 19.1403 92.8892 23.6506V33.9915H88.8864V32.5339C87.631 33.755 85.7688 34.3998 83.735 34.3998C79.9039 34.3998 77.1221 32.0264 77.1221 28.6722C77.1221 25.3181 79.9039 22.9408 83.735 22.9408C85.9062 22.9408 87.5318 23.5857 88.8864 24.6351V22.9752V22.9752ZM88.8864 29.588V27.7564C87.7684 26.7376 86.345 26.1958 84.75 26.1958C82.5788 26.1958 81.1898 27.0085 81.1898 28.6722C81.1898 30.3359 82.5788 31.1449 84.75 31.1449C86.2764 31.1449 87.8027 30.6374 88.8864 29.588Z" fill="white"/>
<path d="M101.292 21.6549V33.9953H97.2927V16.431H101.292V18.4648C102.646 17.1102 104.65 16.0227 107.191 16.0227C110.885 16.0227 113.396 18.3275 113.396 22.5974V33.9877H109.393V23.1736C109.393 20.6971 108.309 19.2738 106.004 19.2738C104.035 19.2738 102.242 20.4262 101.292 21.6473V21.6549Z" fill="white"/>
<path d="M128.544 22.9752C128.544 20.7696 127.594 19.312 124.542 19.312C122.95 19.312 121.39 19.8538 120.07 20.9375L117.765 18.6327C119.799 16.9042 122.34 16.0227 125.019 16.0227C130.815 16.0227 132.544 19.1403 132.544 23.6506V33.9915H128.541V32.5339C127.285 33.755 125.423 34.3998 123.389 34.3998C119.558 34.3998 116.776 32.0264 116.776 28.6722C116.776 25.3181 119.558 22.9408 123.389 22.9408C125.561 22.9408 127.186 23.5857 128.541 24.6351V22.9752H128.544ZM128.544 29.588V27.7564C127.426 26.7376 126.003 26.1958 124.408 26.1958C122.237 26.1958 120.848 27.0085 120.848 28.6722C120.848 30.3359 122.237 31.1449 124.408 31.1449C125.934 31.1449 127.461 30.6374 128.544 29.588Z" fill="white"/>
<path d="M143.018 16.0265C145.765 16.0265 148.272 16.9728 150.07 18.8045L147.425 20.9757C146.376 19.8576 144.781 19.2814 143.358 19.2814C141.698 19.2814 140.851 19.7889 140.851 20.8078C140.851 21.8266 141.526 22.399 144.884 23.3835C148.715 24.5015 150.715 26.1652 150.715 29.0805C150.715 32.3011 148.375 34.4036 143.865 34.4036C140.576 34.4036 137.695 33.3199 135.627 31.0152L138.439 28.7791C139.794 30.168 141.625 31.1525 143.526 31.1525C145.559 31.1525 146.441 30.4733 146.441 29.2866C146.441 27.9663 145.662 27.3558 142.644 26.5048C138.065 25.2151 136.577 23.6239 136.577 20.9108C136.577 18.0298 138.882 16.0303 143.018 16.0303V16.0265Z" fill="white"/>
<path d="M154.099 26.604V16.431H158.102V26.6384C158.102 29.6873 159.831 31.1487 162.135 31.1487C164.44 31.1487 166.169 29.6911 166.169 26.6384V16.431H170.168V26.604C170.168 31.8928 166.982 34.3998 162.132 34.3998C157.282 34.3998 154.095 31.889 154.095 26.604H154.099Z" fill="white"/>
<path d="M178.54 21.6549V33.9953H174.541V16.431H178.54V18.4648C179.894 17.1102 181.898 16.0227 184.439 16.0227C188.133 16.0227 190.644 18.3275 190.644 22.5974V33.9877H186.641V23.1736C186.641 20.6971 185.557 19.2738 183.252 19.2738C181.283 19.2738 179.49 20.4262 178.54 21.6473V21.6549Z" fill="white"/>
<path d="M25.1808 2.18266C25.1808 3.38466 24.2039 4.36151 23.002 4.36151C21.8 4.36151 20.8231 3.38466 20.8231 2.18266C20.8231 0.980673 21.8 0 23.002 0C24.2039 0 25.1808 0.976857 25.1808 2.18266Z" fill="#F07E23"/>
<path d="M14.4774 3.88073C15.0803 4.92246 14.7216 6.258 13.6799 6.85709C12.6381 7.46 11.3026 7.10131 10.6997 6.05958C10.0968 5.01404 10.4555 3.68231 11.4972 3.0794C12.5389 2.4765 13.8745 2.83519 14.4774 3.88073Z" fill="#F07E23"/>
<path d="M6.05953 10.7035C7.10126 11.3064 7.45995 12.642 6.85704 13.6837C6.25796 14.7254 4.92241 15.0841 3.88068 14.4812C2.83896 13.8783 2.48027 12.5427 3.08317 11.501C3.68607 10.4593 5.02162 10.1006 6.06335 10.7035H6.05953Z" fill="#F07E23"/>
<path d="M2.17885 20.8193C3.38466 20.8193 4.36151 21.7961 4.3577 22.9981C4.3577 24.2039 3.38084 25.177 2.17885 25.177C0.976857 25.177 0 24.2001 0 22.9981C0 21.7961 0.976857 20.8193 2.17885 20.8193Z" fill="#F07E23"/>
<path d="M3.88068 31.5227C4.9224 30.9198 6.25795 31.2785 6.85704 32.3202C7.45994 33.3619 7.10125 34.6975 6.05953 35.3004C5.0178 35.9033 3.68225 35.5446 3.07935 34.5029C2.47644 33.4611 2.83513 32.1256 3.87686 31.5227H3.88068Z" fill="#F07E23"/>
<path d="M10.6997 39.9404C11.3026 38.8987 12.6343 38.54 13.6799 39.1429C14.7216 39.7458 15.0803 41.0814 14.4774 42.1231C13.8745 43.1648 12.5427 43.5235 11.4972 42.9206C10.4555 42.3177 10.0968 40.9822 10.6997 39.9443V39.9404Z" fill="#F07E23"/>
<path d="M20.8193 43.8211C20.8193 42.6191 21.7961 41.6423 22.9981 41.6423C24.2001 41.6423 25.177 42.6191 25.177 43.8211C25.177 45.0231 24.2001 46 22.9981 46C21.7961 46 20.8193 45.0231 20.8193 43.8211Z" fill="#F07E23"/>
<path d="M31.5227 42.1193C30.9198 41.0776 31.2785 39.742 32.3202 39.1391C33.3619 38.5362 34.6975 38.8949 35.3004 39.9366C35.9033 40.9783 35.5446 42.3139 34.5029 42.913C33.4611 43.5159 32.1256 43.1572 31.5265 42.1155L31.5227 42.1193Z" fill="#F07E23"/>
<path d="M39.9404 35.2966C38.8987 34.6937 38.54 33.3619 39.1429 32.3164C39.7458 31.2747 41.0776 30.916 42.1231 31.5189C43.1648 32.1218 43.5197 33.4535 42.9206 34.499C42.3177 35.5408 40.986 35.8995 39.9443 35.2966H39.9404Z" fill="#F07E23"/>
<path d="M43.8174 25.1808C42.6154 25.1808 41.6386 24.204 41.6386 23.002C41.6386 21.8 42.6154 20.8231 43.8174 20.8231C45.0194 20.8231 45.9963 21.8 45.9963 23.002C45.9963 24.204 45.0194 25.1808 43.8174 25.1808Z" fill="#F07E23"/>
<path d="M42.1193 14.4812C41.0776 15.0803 39.742 14.7254 39.1391 13.6837C38.5362 12.6419 38.8949 11.3064 39.9366 10.7035C40.9783 10.1044 42.3139 10.4593 42.913 11.501C43.5159 12.5427 43.1572 13.8783 42.1155 14.4812H42.1193Z" fill="#F07E23"/>
<path d="M35.2966 6.06335C34.6937 7.10507 33.3619 7.46376 32.3164 6.86086C31.2747 6.25795 30.916 4.92622 31.5189 3.8845C32.1218 2.84277 33.4535 2.48408 34.4952 3.08698C35.537 3.68989 35.8956 5.02162 35.2927 6.06716L35.2966 6.06335Z" fill="#F07E23"/>
<path d="M24.387 9.74181C24.387 10.5088 23.7651 11.1308 22.9981 11.1308C22.2311 11.1308 21.6091 10.5088 21.6091 9.74181C21.6091 8.97483 22.2311 8.35284 22.9981 8.35284C23.7651 8.35284 24.387 8.97483 24.387 9.74181Z" fill="#F07E23"/>
<path d="M17.5719 10.8255C17.9573 11.4857 17.7284 12.3366 17.0644 12.722C16.4005 13.1036 15.5495 12.8746 15.1641 12.2145C14.7826 11.5505 15.0077 10.6996 15.6716 10.318C16.3356 9.93644 17.1865 10.1616 17.5681 10.8293L17.5719 10.8255Z" fill="#F07E23"/>
<path d="M12.2107 15.1679C12.8746 15.5533 13.1036 16.4043 12.7182 17.0644C12.3366 17.7322 11.4857 17.9573 10.8217 17.5719C10.1577 17.1903 9.92879 16.3394 10.3142 15.6755C10.6958 15.0115 11.5505 14.7864 12.2107 15.1679Z" fill="#F07E23"/>
<path d="M9.74182 21.6129C10.5088 21.6129 11.1308 22.2349 11.1308 23.0019C11.1308 23.7689 10.5088 24.3909 9.74182 24.3909C8.97484 24.3909 8.35285 23.7689 8.35285 23.0019C8.35285 22.2349 8.97484 21.6129 9.74182 21.6129Z" fill="#F07E23"/>
<path d="M10.8255 28.428C11.4895 28.0426 12.3404 28.2716 12.722 28.9355C13.1036 29.5995 12.8784 30.4504 12.2145 30.832C11.5543 31.2174 10.6996 30.9884 10.318 30.3245C9.93643 29.6605 10.1654 28.8096 10.8255 28.428V28.428Z" fill="#F07E23"/>
<path d="M15.168 33.7855C15.5534 33.1215 16.4005 32.8926 17.0682 33.278C17.7322 33.6595 17.9573 34.5105 17.5758 35.1744C17.1904 35.8384 16.3432 36.0673 15.6793 35.6819C15.0153 35.3004 14.7902 34.4494 15.1718 33.7855H15.168Z" fill="#F07E23"/>
<path d="M21.6091 36.2581C21.6091 35.4912 22.2311 34.8692 22.9981 34.8692C23.7651 34.8692 24.387 35.4912 24.387 36.2581C24.387 37.0251 23.7651 37.6471 22.9981 37.6471C22.2311 37.6471 21.6091 37.0251 21.6091 36.2581Z" fill="#F07E23"/>
<path d="M28.428 35.1744C28.0426 34.5143 28.2716 33.6634 28.9355 33.278C29.5995 32.8964 30.4504 33.1253 30.8358 33.7855C31.2174 34.4494 30.9885 35.3004 30.3283 35.6819C29.6644 36.0635 28.8134 35.8384 28.4318 35.1744H28.428Z" fill="#F07E23"/>
<path d="M33.7855 30.832C33.1215 30.4504 32.8964 29.5995 33.278 28.9355C33.6596 28.2716 34.5105 28.0426 35.1744 28.428C35.8346 28.8096 36.0635 29.6605 35.6781 30.3245C35.2966 30.9884 34.4456 31.2174 33.7817 30.832H33.7855Z" fill="#F07E23"/>
<path d="M36.2581 24.3909C35.4912 24.3909 34.8692 23.7689 34.8692 23.0019C34.8692 22.2349 35.4912 21.6129 36.2581 21.6129C37.0251 21.6129 37.6471 22.2349 37.6471 23.0019C37.6471 23.7689 37.0251 24.3909 36.2581 24.3909Z" fill="#F07E23"/>
<path d="M35.1744 17.5719C34.5143 17.9573 33.6596 17.7284 33.278 17.0644C32.8964 16.4005 33.1215 15.5495 33.7855 15.1679C34.4494 14.7864 35.3004 15.0115 35.682 15.6755C36.0635 16.3432 35.8384 17.1903 35.1744 17.5719Z" fill="#F07E23"/>
<path d="M30.832 12.2145C30.4466 12.8785 29.5957 13.1036 28.9317 12.722C28.2678 12.3404 28.0388 11.4857 28.4242 10.8255C28.8096 10.1616 29.6567 9.93262 30.3207 10.318C30.9846 10.6996 31.2136 11.5505 30.8282 12.2145H30.832Z" fill="#F07E23"/>
<path d="M23.7346 16.0037C23.7346 16.4081 23.4064 16.7363 23.0019 16.7363C22.5975 16.7363 22.2693 16.4081 22.2693 16.0037C22.2693 15.5992 22.5975 15.271 23.0019 15.271C23.4064 15.271 23.7346 15.5992 23.7346 16.0037Z" fill="#F07E23"/>
<path d="M20.1362 16.576C20.3385 16.9271 20.2202 17.3735 19.8691 17.5758C19.5181 17.778 19.0678 17.6559 18.8694 17.3048C18.6671 16.9538 18.7892 16.5073 19.1403 16.3051C19.4914 16.1029 19.9378 16.2211 20.1401 16.576H20.1362Z" fill="#F07E23"/>
<path d="M17.3087 18.8656C17.6598 19.0678 17.778 19.5181 17.5758 19.8653C17.3736 20.2164 16.9233 20.3385 16.5761 20.1362C16.225 19.934 16.1067 19.4837 16.3089 19.1365C16.5112 18.7854 16.9576 18.6671 17.3087 18.8694V18.8656Z" fill="#F07E23"/>
<path d="M16.0037 22.2693C16.4082 22.2693 16.7363 22.5974 16.7363 23.0019C16.7363 23.4064 16.4082 23.7345 16.0037 23.7345C15.5992 23.7345 15.271 23.4064 15.271 23.0019C15.271 22.5974 15.5992 22.2693 16.0037 22.2693Z" fill="#F07E23"/>
<path d="M16.5761 25.8638C16.9271 25.6616 17.3774 25.7837 17.5758 26.1309C17.778 26.482 17.6559 26.9284 17.3087 27.1307C16.9576 27.3329 16.5112 27.2108 16.3089 26.8597C16.1067 26.5087 16.225 26.0622 16.5761 25.86V25.8638Z" fill="#F07E23"/>
<path d="M18.8656 28.6914C19.0678 28.3403 19.5181 28.222 19.8653 28.4205C20.2164 28.6227 20.3347 29.0691 20.1324 29.4202C19.9302 29.7713 19.4799 29.8896 19.1327 29.6873C18.7816 29.4851 18.6633 29.0348 18.8617 28.6876L18.8656 28.6914Z" fill="#F07E23"/>
<path d="M22.2655 29.9964C22.2655 29.5881 22.5936 29.2637 22.9981 29.2637C23.4026 29.2637 23.7308 29.5919 23.7308 29.9964C23.7308 30.4009 23.4026 30.729 22.9981 30.729C22.5936 30.729 22.2655 30.4009 22.2655 29.9964Z" fill="#F07E23"/>
<path d="M25.8638 29.424C25.6616 29.073 25.7837 28.6227 26.1309 28.4243C26.482 28.222 26.9323 28.3441 27.1307 28.6952C27.3329 29.0424 27.2108 29.4927 26.8636 29.6949C26.5125 29.8972 26.0623 29.7789 25.8638 29.4278V29.424Z" fill="#F07E23"/>
<path d="M28.6914 27.1345C28.3403 26.9322 28.222 26.482 28.4243 26.1347C28.6265 25.7837 29.0768 25.6654 29.424 25.8676C29.7751 26.0698 29.8934 26.5163 29.6911 26.8674C29.4889 27.2184 29.0424 27.3367 28.6914 27.1383V27.1345Z" fill="#F07E23"/>
<path d="M29.9964 23.7308C29.5919 23.7308 29.2637 23.4026 29.2637 22.9981C29.2637 22.5936 29.5919 22.2655 29.9964 22.2655C30.4009 22.2655 30.729 22.5936 30.729 22.9981C30.729 23.4026 30.4009 23.7308 29.9964 23.7308Z" fill="#F07E23"/>
<path d="M29.424 20.1362C29.073 20.3384 28.6227 20.2201 28.4243 19.8653C28.222 19.5142 28.3403 19.0678 28.6914 18.8655C29.0424 18.6633 29.4889 18.7854 29.6911 19.1326C29.8934 19.4837 29.7751 19.9301 29.424 20.1324V20.1362Z" fill="#F07E23"/>
<path d="M27.1307 17.3087C26.9284 17.6597 26.4782 17.778 26.1309 17.5796C25.7799 17.3774 25.6616 16.9271 25.8638 16.5799C26.0661 16.2288 26.5163 16.1067 26.8636 16.3089C27.2146 16.5112 27.3329 16.9614 27.1307 17.3087Z" fill="#F07E23"/>
</svg>
