<svg width="87" height="13" viewBox="0 0 87 13" fill="none" xmlns="http://www.w3.org/2000/svg">
<path d="M12.0269 4.57767L8.30102 3.98457L6.63547 0.28611C6.58998 0.184848 6.51514 0.102875 6.42269 0.0530477C6.19084 -0.0723237 5.90909 0.0321525 5.79316 0.28611L4.12761 3.98457L0.401764 4.57767C0.299043 4.59374 0.205126 4.64678 0.133221 4.72715C0.0462922 4.82502 -0.00160965 4.95668 4.13026e-05 5.09321C0.00169226 5.22974 0.0527609 5.35996 0.142026 5.45527L2.83772 8.33399L2.20085 12.3989C2.18592 12.4935 2.19547 12.5907 2.22843 12.6796C2.26139 12.7686 2.31643 12.8456 2.38732 12.902C2.45821 12.9584 2.5421 12.9919 2.62949 12.9987C2.71688 13.0055 2.80427 12.9854 2.88175 12.9406L6.21432 11.0214L9.54688 12.9406C9.63787 12.9936 9.74352 13.0113 9.84478 12.992C10.1001 12.9438 10.2718 12.6786 10.2278 12.3989L9.59091 8.33399L12.2866 5.45527C12.36 5.37651 12.4084 5.27364 12.4231 5.16113C12.4627 4.87985 12.2837 4.61946 12.0269 4.57767ZM8.45657 7.92894L8.98632 11.3092L6.21432 9.71468L3.44231 11.3108L3.97206 7.93055L1.7298 5.53564L4.82905 5.04219L6.21432 1.96737L7.59959 5.04219L10.6988 5.53564L8.45657 7.92894Z" fill="#F07E23"/>
<path d="M4.43878 4.64286L1.33163 5.57143L3.55102 7.89286L3.10714 11.6071L6.65816 10.2143L9.32143 12.0714L8.87755 7.89286L11.0969 5.10714L7.9898 4.64286L6.21429 1.85714L4.43878 4.64286Z" fill="#F07E23"/>
<path d="M22.6378 4.64286L19.5306 5.57143L21.75 7.89286L21.3061 11.6071L24.8571 10.2143L27.9643 12.0714L27.0765 7.89286L30.1837 5.57143L26.1888 4.64286L24.4133 1.85714L22.6378 4.64286Z" fill="#F07E23"/>
<path d="M41.2806 4.64286L38.1735 5.57143L40.3929 7.89286L39.949 11.6071L43.5 10.2143L47.051 12.0714L46.1633 7.89286L48.8265 5.57143L44.8316 4.64286L43.5 1.39286L41.2806 4.64286Z" fill="#F07E23"/>
<path d="M30.9543 4.57767L26.8363 3.98457L24.9954 0.28611C24.9451 0.184848 24.8624 0.102875 24.7602 0.0530477C24.504 -0.0723237 24.1926 0.0321525 24.0644 0.28611L22.2236 3.98457L18.1055 4.57767C17.992 4.59374 17.8882 4.64678 17.8087 4.72715C17.7126 4.82502 17.6597 4.95668 17.6615 5.09321C17.6633 5.22974 17.7198 5.35996 17.8184 5.45527L20.7979 8.33399L20.094 12.3989C20.0775 12.4935 20.088 12.5907 20.1245 12.6796C20.1609 12.7686 20.2217 12.8456 20.3001 12.902C20.3784 12.9584 20.4712 12.9919 20.5678 12.9987C20.6643 13.0055 20.7609 12.9854 20.8466 12.9406L24.5299 11.0214L28.2133 12.9406C28.3139 12.9936 28.4306 13.0113 28.5425 12.992C28.8248 12.9438 29.0145 12.6786 28.9659 12.3989L28.2619 8.33399L31.2414 5.45527C31.3225 5.37651 31.376 5.27364 31.3922 5.16113C31.436 4.87985 31.2382 4.61946 30.9543 4.57767ZM27.0082 7.92894L27.5937 11.3092L24.5299 9.71468L21.4661 11.3108L22.0516 7.93055L19.5734 5.53564L22.9988 5.04219L24.5299 1.96737L26.061 5.04219L29.4865 5.53564L27.0082 7.92894Z" fill="#F07E23"/>
<path d="M49.3126 4.57767L45.5867 3.98457L43.9212 0.28611C43.8757 0.184848 43.8009 0.102875 43.7084 0.0530477C43.4766 -0.0723237 43.1948 0.0321525 43.0789 0.28611L41.4133 3.98457L37.6875 4.57767C37.5848 4.59374 37.4908 4.64678 37.4189 4.72715C37.332 4.82502 37.2841 4.95668 37.2858 5.09321C37.2874 5.22974 37.3385 5.35996 37.4277 5.45527L40.1234 8.33399L39.4866 12.3989C39.4716 12.4935 39.4812 12.5907 39.5141 12.6796C39.5471 12.7686 39.6021 12.8456 39.673 12.902C39.7439 12.9584 39.8278 12.9919 39.9152 12.9987C40.0026 13.0055 40.09 12.9854 40.1675 12.9406L43.5 11.0214L46.8326 12.9406C46.9236 12.9936 47.0292 13.0113 47.1305 12.992C47.3858 12.9438 47.5575 12.6786 47.5135 12.3989L46.8766 8.33399L49.5723 5.45527C49.6457 5.37651 49.6941 5.27364 49.7088 5.16113C49.7484 4.87985 49.5694 4.61946 49.3126 4.57767ZM45.7423 7.92894L46.272 11.3092L43.5 9.71468L40.728 11.3108L41.2578 7.93055L39.0155 5.53564L42.1148 5.04219L43.5 1.96737L44.8853 5.04219L47.9845 5.53564L45.7423 7.92894Z" fill="#F07E23"/>
<path d="M68.24 4.57767L64.122 3.98457L62.2811 0.28611C62.2308 0.184848 62.1481 0.102875 62.046 0.0530477C61.7897 -0.0723237 61.4783 0.0321525 61.3502 0.28611L59.5093 3.98457L55.3912 4.57767C55.2777 4.59374 55.1739 4.64678 55.0944 4.72715C54.9984 4.82502 54.9454 4.95668 54.9472 5.09321C54.9491 5.22974 55.0055 5.35996 55.1042 5.45527L58.0836 8.33399L57.3797 12.3989C57.3632 12.4935 57.3738 12.5907 57.4102 12.6796C57.4466 12.7686 57.5075 12.8456 57.5858 12.902C57.6642 12.9584 57.7569 12.9919 57.8535 12.9987C57.9501 13.0055 58.0466 12.9854 58.1323 12.9406L61.8156 11.0214L65.499 12.9406C65.5996 12.9936 65.7163 13.0113 65.8283 12.992C66.1105 12.9438 66.3002 12.6786 66.2516 12.3989L65.5477 8.33399L68.5271 5.45527C68.6082 5.37651 68.6617 5.27364 68.678 5.16113C68.7217 4.87985 68.5239 4.61946 68.24 4.57767ZM64.2939 7.92894L64.8794 11.3092L61.8156 9.71468L58.7518 11.3108L59.3374 7.93055L56.8591 5.53564L60.2846 5.04219L61.8156 1.96737L63.3467 5.04219L66.7722 5.53564L64.2939 7.92894Z" fill="#F07E23"/>
<path d="M59.9235 4.64286L56.8163 5.57143L59.0357 7.89286L58.5918 11.6071L62.1429 10.2143L65.6939 12.0714L64.8061 7.89286L67.4694 5.57143L63.4745 4.64286L62.1429 1.39286L59.9235 4.64286Z" fill="#F07E23"/>
<path d="M78.5663 4.64286L75.4592 5.57143L77.6786 7.89286L77.2347 11.6071L80.7857 10.2143L84.3367 12.0714L83.449 7.89286L86.1122 5.57143L82.1174 4.64286L80.7857 1.39286L78.5663 4.64286Z" fill="#F07E23"/>
<path d="M86.5983 4.57767L82.8725 3.98457L81.2069 0.28611C81.1614 0.184848 81.0866 0.102875 80.9941 0.0530477C80.7623 -0.0723237 80.4805 0.0321525 80.3646 0.28611L78.699 3.98457L74.9732 4.57767C74.8705 4.59374 74.7766 4.64678 74.7047 4.72715C74.6177 4.82502 74.5698 4.95668 74.5715 5.09321C74.5731 5.22974 74.6242 5.35996 74.7135 5.45527L77.4092 8.33399L76.7723 12.3989C76.7573 12.4935 76.7669 12.5907 76.7999 12.6796C76.8328 12.7686 76.8879 12.8456 76.9587 12.902C77.0296 12.9584 77.1135 12.9919 77.2009 12.9987C77.2883 13.0055 77.3757 12.9854 77.4532 12.9406L80.7857 11.0214L84.1183 12.9406C84.2093 12.9936 84.3149 13.0113 84.4162 12.992C84.6715 12.9438 84.8432 12.6786 84.7992 12.3989L84.1623 8.33399L86.858 5.45527C86.9314 5.37651 86.9798 5.27364 86.9945 5.16113C87.0341 4.87985 86.8551 4.61946 86.5983 4.57767ZM83.028 7.92894L83.5577 11.3092L80.7857 9.71468L78.0137 11.3108L78.5435 7.93055L76.3012 5.53564L79.4005 5.04219L80.7857 1.96737L82.171 5.04219L85.2703 5.53564L83.028 7.92894Z" fill="#F07E23"/>
</svg>
