<svg width="12" height="7" viewBox="0 0 12 7" fill="none" xmlns="http://www.w3.org/2000/svg">
<path d="M1.00705 0.396604C1.14169 0.261962 1.30111 0.194641 1.4853 0.194641C1.66913 0.194641 1.82836 0.261962 1.96301 0.396604L5.90802 4.34162L9.86649 0.38314C9.99216 0.257474 10.1492 0.194641 10.3377 0.194641C10.5262 0.194641 10.6878 0.261962 10.8225 0.396604C10.9571 0.531246 11.0244 0.690662 11.0244 0.874853C11.0244 1.05868 10.9571 1.21792 10.8225 1.35256L6.28501 5.87653C6.23116 5.93039 6.17281 5.96863 6.10998 5.99125C6.04715 6.01351 5.97983 6.02464 5.90802 6.02464C5.83621 6.02464 5.76889 6.01351 5.70605 5.99125C5.64322 5.96863 5.58488 5.93039 5.53102 5.87653L0.993584 1.3391C0.867918 1.21343 0.805084 1.05868 0.805084 0.874852C0.805084 0.690662 0.872406 0.531246 1.00705 0.396604Z" fill="#2B2D82"/>
</svg>
