<svg width="370" height="292" viewBox="0 0 370 292" fill="none" xmlns="http://www.w3.org/2000/svg">
<path fill-rule="evenodd" clip-rule="evenodd" d="M370.248 45.7655V24.2389L389.655 35.397V12.2911L389.483 12.1881L371.214 1.68228C371.237 1.56784 371.248 1.4534 371.248 1.33896C371.248 0.583649 370.662 0 369.904 0C369.145 0 368.559 0.583649 368.559 1.33896C368.559 1.95694 368.973 2.47195 369.559 2.64362V23.4492L350.152 34.6074V56.9237L349.807 57.0954L350.152 57.3013V57.7133L350.497 57.5073L369.214 68.2535L350.152 79.2056L331.124 90.1921L311.373 78.828V123.838L293.276 134.241C293.034 134.001 292.69 133.829 292.31 133.829C291.931 133.829 291.587 134.001 291.345 134.241L272.559 123.426V146.532L272.731 146.635L291.966 157.69V158.102L292.31 157.896L292.655 158.102V157.69L312.062 146.532V124.628L330.78 135.374V157.313L311.373 168.436V189.654C310.787 189.826 310.373 190.341 310.373 190.959C310.373 191.577 310.787 192.092 311.373 192.263V213.481L311.545 213.55L330.745 224.605V247.333L350.497 235.969L370.248 247.333V247.299L389.655 258.457V235.385L389.483 235.282L370.248 224.193V181.105C370.8 180.968 371.248 180.419 371.248 179.801C371.248 179.045 370.628 178.462 369.904 178.462C369.524 178.462 369.18 178.599 368.939 178.874L350.152 168.059V213.069L331.469 223.815V201.911L331.297 201.808L313.027 191.302C313.05 191.188 313.062 191.073 313.062 190.959C313.062 190.844 313.05 190.73 313.027 190.615L331.469 180.007V157.69L350.841 146.532V103.033C351.083 102.964 351.29 102.861 351.462 102.689L369.559 113.092V135.786H369.593V157.69L369.766 157.793L389.655 169.26V146.154L389.483 146.051L370.593 135.202L389.655 124.25V101.934L390 101.728L389.655 101.522V79.2056L389.483 79.137L370.593 68.2535L390 57.0954L370.248 45.7655ZM370.248 135.82L388.966 146.566V168.093L370.248 157.313V135.82ZM388.966 101.179L370.248 90.4324V68.9058L388.966 79.652V101.179ZM388.966 123.907L370.248 134.653V113.126L388.966 102.38V123.907ZM351.807 102.14C351.83 102.025 351.841 101.911 351.841 101.797C351.841 101.682 351.83 101.568 351.807 101.453L369.904 91.0504L380.107 96.9213L388.621 101.797L369.904 112.543L351.807 102.14ZM340.81 129.297L331.435 134.653V113.161L340.81 107.77L349.532 102.758C349.704 102.93 349.911 103.033 350.152 103.101V123.907L340.81 129.297ZM350.841 191.645L369.559 202.392V223.918L350.841 213.138V191.645ZM368.594 179.56C368.571 179.675 368.548 179.789 368.525 179.904C368.525 180.522 368.973 181.071 369.559 181.208V201.636L350.841 190.856V169.363L368.594 179.56ZM370.283 225.12L388.966 235.866V257.393L370.283 246.612V225.12ZM369.559 246.234L350.841 235.488V213.962L369.559 224.742V246.234ZM331.435 225.085L331.469 225.12V224.708L350.152 213.962V235.454L331.435 246.234V225.085ZM312.062 213.138V192.332C312.303 192.263 312.51 192.16 312.682 191.989L330.78 202.392V223.884L312.062 213.138ZM330.745 158.171V179.698L312.682 190.1C312.51 189.929 312.303 189.791 312.062 189.757V168.917L330.745 158.171ZM331.435 157.004V135.477L340.776 130.087L350.118 124.731V146.223L331.435 157.004ZM291.001 134.962C290.978 135.076 290.966 135.191 290.966 135.305C290.966 135.923 291.38 136.438 291.966 136.61V157.038L273.248 146.257V124.765L291.001 134.962ZM293.655 135.305C293.655 135.168 293.643 135.054 293.62 134.962L311.373 124.731V146.257L292.655 157.004V136.61C293.241 136.438 293.655 135.923 293.655 135.305ZM312.062 102.415L330.745 113.195V134.687L312.062 123.941V102.415ZM312.062 80.0983L330.745 90.8788V112.371L312.062 101.625V80.0983ZM350.152 80.0983V100.526C349.566 100.664 349.152 101.179 349.152 101.797C349.152 101.934 349.164 102.06 349.187 102.174L340.81 106.981L331.435 112.371V90.8444L350.152 80.0983ZM350.841 79.7206L369.559 68.9401V90.4668L351.462 100.87C351.324 100.698 351.083 100.595 350.841 100.526V79.7206ZM351.186 57.1983L369.904 46.4522L388.621 57.1983L370.248 67.7728L369.904 67.9788L369.559 67.7728L351.186 57.1983ZM350.841 35.0881L369.559 24.3419V45.8342L350.841 56.6147V35.0881ZM370.248 23.5179V2.71228C370.49 2.64362 370.696 2.54062 370.869 2.36893L388.966 12.7718V34.2984L370.248 23.5179ZM272.903 167.338C272.145 167.338 271.559 167.956 271.559 168.711C271.559 169.329 271.973 169.844 272.559 170.016V190.409L253.497 179.457L234.124 190.615L214.717 179.457L195.31 190.615L175.559 179.251V202.357L175.731 202.46L194 212.966C193.977 213.08 193.966 213.195 193.966 213.309C193.966 213.927 194.38 214.477 194.966 214.614V235.42L176.248 246.2V224.261L176.076 224.158L156.876 213.103V192.298C157.462 192.16 157.875 191.645 157.875 190.993C157.875 190.272 157.255 189.654 156.531 189.654C156.152 189.654 155.807 189.826 155.566 190.066L136.779 179.251V202.357L136.952 202.46L156.186 213.515V257.324L137.469 246.578V223.884L117.717 235.214L99.0339 224.467L118.062 213.515V190.409L98.6892 201.568V179.251L78.5929 190.821V212.005C78.3516 212.073 78.1448 212.211 77.9724 212.382L59.186 201.568L59.186 224.261L40.4684 235.042V213.103L40.2961 213.035L20.4066 201.568L20.4066 224.261L2.30953 234.664C2.06824 234.424 1.72353 234.287 1.34435 234.287C0.585998 234.287 0 234.87 0 235.626C0 236.381 0.585998 236.965 1.34435 236.965C1.72353 236.965 2.06824 236.827 2.30953 236.587L20.4066 246.99L20.4066 269.684L39.779 258.526L59.8754 246.99V225.051L78.5929 235.832V258.526L98.3445 247.161L117.372 258.148V258.526L117.717 258.32L118.062 258.526V258.148L136.779 247.367V269.272L136.952 269.375L156.876 280.842L176.248 292V269.272L194.345 258.869C194.517 259.041 194.724 259.178 194.966 259.247V280.842L214.717 269.478L215.062 269.684V269.272L233.779 258.526V280.43L233.952 280.533L253.841 292V268.894L253.669 268.791L234.469 257.736V235.832L234.813 235.626L234.469 235.42V213.103L234.296 213.035L215.407 202.151L234.124 191.405L253.152 202.357V225.051V245.479C252.6 245.616 252.152 246.166 252.152 246.784C252.152 247.505 252.773 248.123 253.497 248.123C254.255 248.123 254.875 247.505 254.875 246.784C254.852 246.646 254.829 246.532 254.806 246.44L272.903 236.003L291.621 246.784L272.593 257.736V280.842L292.69 269.272V247.367L312.062 258.526V236.656C312.648 236.518 313.096 236.003 313.096 235.385C313.096 234.63 312.476 234.012 311.717 234.012C311.269 234.012 310.89 234.252 310.614 234.596L292.655 224.261V179.663L292.483 179.56L274.213 169.054C274.236 168.94 274.248 168.826 274.248 168.711C274.248 167.956 273.662 167.338 272.903 167.338ZM291.966 201.568L273.593 190.993L273.248 190.821V170.016C273.489 169.947 273.696 169.81 273.869 169.638L291.966 180.041V201.568ZM253.841 202.357L272.559 191.611V213.138L253.841 223.884V202.357ZM273.248 191.611L291.966 202.357V223.884L273.248 213.103V191.611ZM291.966 246.2L273.248 235.454V213.927L291.966 224.708V246.2ZM292.69 246.578V225.051L310.373 235.248C310.373 235.294 310.373 235.34 310.373 235.385C310.373 236.003 310.821 236.518 311.373 236.656V257.324L292.69 246.578ZM273.317 258.148L292 247.367V268.894L273.317 279.64V258.148ZM253.876 224.708L272.593 213.962V235.454L254.496 245.857C254.324 245.685 254.117 245.582 253.876 245.513V224.708ZM224.955 230.785L233.435 235.66L214.752 246.406L204.514 240.57L196.034 235.66L214.752 224.914L224.955 230.785ZM195.689 236.244L214.028 246.818L196.31 257.015C196.138 256.843 195.931 256.74 195.689 256.672V236.244ZM214.372 268.516L196.62 258.32C196.666 258.205 196.689 258.091 196.689 257.976C196.689 257.839 196.666 257.713 196.62 257.599L214.372 247.402V268.516ZM195.689 235.042V214.648C196.275 214.477 196.689 213.962 196.689 213.344C196.689 213.229 196.666 213.115 196.62 213L214.372 202.769V224.296L195.689 235.042ZM195.689 191.611L214.062 202.186L196.31 212.382C196.138 212.211 195.931 212.108 195.689 212.039V191.611ZM233.814 235.042L215.096 224.261V202.769L233.814 213.515V235.042ZM234.503 258.526L253.221 269.306V290.798L234.503 280.052V258.526ZM215.096 268.482V246.99L233.814 236.209V257.736L215.096 268.482ZM195.689 279.64V259.212C195.931 259.144 196.138 259.041 196.31 258.869L214.062 269.066L195.689 279.64ZM156.876 280.052V258.526L175.593 269.272V290.798L156.876 280.052ZM98.6892 246.578L98.6892 225.085L117.407 235.832V257.358L98.6892 246.578ZM79.2823 235.797L88.6238 230.441L97.9998 225.051L97.9998 246.578L79.2823 257.324V235.797ZM97.9998 224.261L88.6238 229.617L79.2823 235.008L79.2823 214.58C79.8683 214.442 80.282 213.927 80.282 213.309C80.282 213.172 80.2704 213.046 80.2475 212.932L88.6238 208.125L97.9998 202.735V224.261ZM59.186 246.578L40.5029 257.324V235.832L59.186 225.051V246.578ZM21.096 246.99L39.8135 236.209V257.736L21.096 268.482L21.096 246.99ZM2.6887 235.66C2.6887 235.523 2.67722 235.397 2.65424 235.282L20.7513 224.879L30.9546 230.75L39.4688 235.66L20.7513 246.406L2.65424 236.003C2.67722 235.889 2.6887 235.774 2.6887 235.66ZM39.8135 235.042L21.096 224.296L21.096 202.769L39.8135 213.55V235.042ZM77.6277 212.966C77.6047 213.08 77.5932 213.195 77.5932 213.309C77.5932 213.962 78.0069 214.477 78.5929 214.614L78.5929 235.042L59.8754 224.261L59.8754 202.769L77.6277 212.966ZM97.9998 201.945L88.6238 207.335L79.9028 212.348C79.7304 212.211 79.5236 212.073 79.2823 212.005V191.199L97.9998 180.453V201.945ZM117.372 213.103L98.6892 223.849V202.323L117.372 191.577V213.103ZM136.779 246.578L118.062 257.324V235.797L136.779 225.051V246.578ZM156.186 258.114V279.64L137.469 268.894V247.367L156.186 258.114ZM156.876 257.702V236.209L175.593 246.955V268.482L156.876 257.702ZM155.221 190.615C155.198 190.73 155.186 190.844 155.186 190.959C155.186 191.577 155.6 192.126 156.186 192.263V212.691L137.469 201.911V180.419L155.221 190.615ZM175.593 246.131L156.876 235.385V213.859L175.593 224.605V246.131ZM176.282 246.921L194.966 236.175V256.603C194.414 256.74 193.966 257.255 193.966 257.908C193.966 258.022 193.989 258.136 194.035 258.251L176.282 268.448V246.921ZM176.282 180.384L194.966 191.165V211.97C194.724 212.039 194.517 212.142 194.345 212.314L176.282 201.911V180.384ZM233.435 190.959L215.062 201.499L214.717 201.705L214.372 201.499L196 190.959L214.717 180.178L233.435 190.959ZM253.531 180.213L272.214 190.959L253.531 201.739L234.813 190.959L253.531 180.213Z" fill="#E7E5F1"/>
</svg>
