<svg width="436" height="289" viewBox="0 0 436 289" fill="none" xmlns="http://www.w3.org/2000/svg">
<path opacity="0.5" fill-rule="evenodd" clip-rule="evenodd" d="M22.0813 51.0944V27.0612L0.385376 39.5186V13.7223L0.578064 13.6073L21.0023 1.87817C20.9766 1.7504 20.9638 1.62265 20.9638 1.49487C20.9638 0.651611 21.6189 0 22.4667 0C23.3145 0 23.9696 0.651611 23.9696 1.49487C23.9696 2.18481 23.5072 2.7598 22.8521 2.95145V26.1797L44.548 38.637V63.5518L44.9333 63.7434L44.548 63.9734V64.4334L44.1626 64.2034L23.2374 76.2008L44.548 88.4282L65.8201 100.694L87.9014 88.0066V138.258L108.133 149.872C108.403 149.604 108.788 149.412 109.212 149.412C109.636 149.412 110.021 149.604 110.291 149.872L131.293 137.798V163.594L131.101 163.709L109.597 176.051V176.511L109.212 176.281L108.827 176.511V176.051L87.1306 163.594V139.139L66.2054 151.137V175.63L87.9014 188.049V211.737C88.5565 211.929 89.0189 212.504 89.0189 213.194C89.0189 213.884 88.5565 214.459 87.9014 214.65V238.338L87.7087 238.415L66.244 250.757V276.132L44.1626 263.445L22.0813 276.132V276.094L0.385376 288.551V262.793L0.578064 262.678L22.0813 250.297V202.193C21.4648 202.04 20.9638 201.426 20.9638 200.736C20.9638 199.893 21.6574 199.241 22.4667 199.241C22.8906 199.241 23.2759 199.395 23.5457 199.701L44.548 187.627V237.878L65.4347 249.876V225.421L65.6274 225.306L86.0516 213.577C86.0259 213.449 86.0131 213.321 86.0131 213.194C86.0131 213.066 86.0259 212.938 86.0516 212.81L65.4347 200.966V176.051L43.7773 163.594V115.029C43.5075 114.953 43.2763 114.838 43.0836 114.646L22.8521 126.26V151.597H22.8135V176.051L22.6208 176.166L0.385376 188.969V163.172L0.578064 163.057L21.696 150.945L0.385376 138.718V113.803L0 113.573L0.385376 113.343V88.4282L0.578064 88.3516L21.696 76.2008L0 63.7434L22.0813 51.0944ZM22.0813 151.635L1.1561 163.632V187.666L22.0813 175.63V151.635ZM1.1561 112.96L22.0813 100.962V76.9291L1.1561 88.9265V112.96ZM1.1561 138.334L22.0813 150.332V126.299L1.1561 114.301V138.334ZM42.6983 114.033C42.6726 113.905 42.6598 113.777 42.6598 113.65C42.6598 113.522 42.6726 113.394 42.6983 113.266L22.4667 101.652L11.06 108.207L1.54147 113.65L22.4667 125.647L42.6983 114.033ZM54.9914 144.352L65.4732 150.332V126.337L54.9914 120.319L45.2417 114.723C45.049 114.915 44.8177 115.03 44.548 115.106V138.334L54.9914 144.352ZM43.7773 213.96L22.8521 225.958V249.991L43.7773 237.955V213.96ZM23.9311 200.468C23.9568 200.596 23.9825 200.723 24.0081 200.851C24.0081 201.541 23.5072 202.154 22.8521 202.308V225.114L43.7773 213.079V189.084L23.9311 200.468ZM22.0428 251.332L1.1561 263.33V287.363L22.0428 275.327V251.332ZM22.8521 274.906L43.7773 262.908V238.875L22.8521 250.911V274.906ZM65.4732 251.294L65.4347 251.332V250.872L44.548 238.875V262.87L65.4732 274.906V251.294ZM87.1306 237.955V214.727C86.8609 214.65 86.6297 214.535 86.437 214.344L66.2054 225.958V249.952L87.1306 237.955ZM66.244 176.588V200.621L86.437 212.235C86.6297 212.044 86.8609 211.89 87.1306 211.852V188.586L66.244 176.588ZM65.4732 175.285V151.252L55.0299 145.234L44.5866 139.254V163.249L65.4732 175.285ZM110.676 150.677C110.702 150.805 110.715 150.932 110.715 151.06C110.715 151.75 110.252 152.325 109.597 152.517V175.323L130.523 163.287V139.293L110.676 150.677ZM107.709 151.06C107.709 150.907 107.722 150.779 107.748 150.677L87.9014 139.254V163.287L108.827 175.285V152.517C108.171 152.325 107.709 151.75 107.709 151.06ZM87.1306 114.34L66.244 126.375V150.37L87.1306 138.373V114.34ZM87.1306 89.4248L66.244 101.461V125.455L87.1306 113.458V89.4248ZM44.548 89.4248V112.231C45.2031 112.385 45.6656 112.96 45.6656 113.65C45.6656 113.803 45.6527 113.943 45.627 114.071L54.9914 119.438L65.4732 125.455V101.422L44.548 89.4248ZM43.7773 89.0032L22.8521 76.9674V101.001L43.0836 112.615C43.2378 112.423 43.5075 112.308 43.7773 112.231V89.0032ZM43.3919 63.8584L22.4667 51.861L1.54147 63.8584L22.0813 75.6642L22.4667 75.8942L22.8521 75.6642L43.3919 63.8584ZM43.7773 39.1737L22.8521 27.1762V51.1711L43.7773 63.2068V39.1737ZM22.0813 26.2563V3.02808C21.8116 2.95142 21.5804 2.83643 21.3877 2.64478L1.1561 14.2589V38.2921L22.0813 26.2563ZM130.908 186.822C131.756 186.822 132.411 187.512 132.411 188.356C132.411 189.046 131.948 189.62 131.293 189.812V212.58L152.604 200.353L174.261 212.81L195.957 200.353L217.653 212.81L239.735 200.123V225.919L239.542 226.034L219.118 237.763C219.143 237.891 219.156 238.019 219.156 238.147C219.156 238.837 218.694 239.45 218.039 239.603V262.832L238.964 274.867V250.374L239.156 250.259L260.621 237.917V214.689C259.966 214.535 259.504 213.96 259.504 213.232C259.504 212.427 260.197 211.737 261.007 211.737C261.43 211.737 261.816 211.929 262.086 212.197L283.088 200.123V225.919L282.895 226.034L261.392 238.377V287.286L282.317 275.289V249.952L304.398 262.602L325.285 250.604L304.013 238.377V212.58L325.671 225.038V200.123L348.137 213.04V236.69C348.407 236.767 348.638 236.92 348.831 237.112L369.833 225.038V250.374L390.758 262.41V237.917L390.951 237.84L413.186 225.038V250.374L433.418 261.988C433.688 261.72 434.073 261.567 434.497 261.567C435.345 261.567 436 262.218 436 263.061C436 263.905 435.345 264.556 434.497 264.556C434.073 264.556 433.688 264.403 433.418 264.135L413.186 275.749V301.085L391.529 288.628L369.062 275.749V251.256L348.137 263.291V288.628L326.056 275.941L304.784 288.206V288.628L304.398 288.398L304.013 288.628V288.206L283.088 276.17V300.625L282.895 300.74L260.621 313.543L238.964 326V300.625L218.732 289.011C218.54 289.203 218.308 289.356 218.039 289.433V313.543L195.957 300.855L195.572 301.085V300.625L174.647 288.628V313.083L174.454 313.198L152.219 326V300.204L152.411 300.089L173.876 287.746V263.291L173.491 263.061L173.876 262.832V237.917L174.069 237.84L195.186 225.689L174.261 213.692L152.989 225.919V251.256V274.062C153.606 274.216 154.107 274.829 154.107 275.519C154.107 276.324 153.413 277.014 152.604 277.014C151.756 277.014 151.062 276.324 151.062 275.519C151.088 275.366 151.114 275.238 151.139 275.136L130.908 263.483L109.983 275.519L131.255 287.746V313.543L108.788 300.625V276.17L87.1306 288.628V264.211C86.4755 264.058 85.9745 263.483 85.9745 262.793C85.9745 261.95 86.6682 261.26 87.516 261.26C88.017 261.26 88.4409 261.528 88.7492 261.912L108.827 250.374V200.583L109.019 200.468L129.444 188.739C129.418 188.611 129.405 188.483 129.405 188.356C129.405 187.512 130.06 186.822 130.908 186.822ZM109.597 225.038L130.137 213.232L130.523 213.04V189.812C130.253 189.735 130.022 189.582 129.829 189.39L109.597 201.005V225.038ZM152.219 225.919L131.293 213.922V237.955L152.219 249.952V225.919ZM130.523 213.922L109.597 225.919V249.952L130.523 237.917V213.922ZM109.597 274.867L130.523 262.87V238.837L109.597 250.872V274.867ZM108.788 275.289V251.256L89.0189 262.64C89.0189 262.691 89.0189 262.742 89.0189 262.793C89.0189 263.483 88.5179 264.058 87.9014 264.211V287.286L108.788 275.289ZM130.445 288.206L109.559 276.17V300.204L130.445 312.201V288.206ZM152.18 250.872L131.255 238.875V262.87L151.486 274.484C151.679 274.292 151.91 274.177 152.18 274.101V250.872ZM184.512 257.657L175.032 263.1L195.919 275.097L207.364 268.581L216.844 263.1L195.919 251.102L184.512 257.657ZM217.229 263.751L196.728 275.557L216.536 286.941C216.728 286.75 216.96 286.635 217.229 286.558V263.751ZM196.343 299.782L216.189 288.398C216.137 288.27 216.112 288.142 216.112 288.015C216.112 287.861 216.137 287.721 216.189 287.593L196.343 276.209V299.782ZM217.229 262.41V239.642C216.574 239.45 216.112 238.875 216.112 238.185C216.112 238.057 216.137 237.93 216.189 237.802L196.343 226.379V250.412L217.229 262.41ZM217.229 213.922L196.689 225.728L216.536 237.112C216.728 236.92 216.96 236.805 217.229 236.729V213.922ZM174.608 262.41L195.533 250.374V226.379L174.608 238.377V262.41ZM173.837 288.628L152.912 300.664V324.658L173.837 312.661V288.628ZM195.533 299.744V275.749L174.608 263.713V287.746L195.533 299.744ZM217.229 312.201V289.394C216.96 289.318 216.728 289.203 216.536 289.011L196.689 300.395L217.229 312.201ZM260.621 312.661V288.628L239.696 300.625V324.658L260.621 312.661ZM325.671 275.289V251.294L304.745 263.291V287.325L325.671 275.289ZM347.366 263.253L336.923 257.274L326.441 251.256V275.289L347.366 287.286V263.253ZM326.441 250.374L336.923 256.354L347.366 262.372V239.565C346.711 239.412 346.249 238.837 346.249 238.147C346.249 237.993 346.262 237.853 346.287 237.725L336.923 232.359L326.441 226.341V250.374ZM369.833 275.289L390.72 287.286V263.291L369.833 251.256V275.289ZM412.416 275.749L391.491 263.713V287.746L412.416 299.744V275.749ZM432.994 263.1C432.994 262.947 433.007 262.806 433.033 262.678L412.801 251.064L401.394 257.619L391.876 263.1L412.801 275.097L433.033 263.483C433.007 263.355 432.994 263.228 432.994 263.1ZM391.491 262.41L412.416 250.412V226.379L391.491 238.415V262.41ZM349.216 237.763C349.242 237.891 349.255 238.019 349.255 238.147C349.255 238.875 348.792 239.45 348.137 239.603V262.41L369.062 250.374V226.379L349.216 237.763ZM326.441 225.459L336.923 231.477L346.673 237.073C346.865 236.92 347.097 236.767 347.366 236.69V213.462L326.441 201.465V225.459ZM304.784 237.917L325.671 249.914V225.881L304.784 213.884V237.917ZM283.088 275.289L304.013 287.286V263.253L283.088 251.256V275.289ZM261.392 288.168V312.201L282.317 300.204V276.17L261.392 288.168ZM260.621 287.708V263.713L239.696 275.711V299.744L260.621 287.708ZM262.471 212.81C262.497 212.938 262.509 213.066 262.509 213.194C262.509 213.884 262.047 214.497 261.392 214.65V237.457L282.317 225.421V201.426L262.471 212.81ZM239.696 274.791L260.621 262.793V238.76L239.696 250.757V274.791ZM238.925 275.672L218.039 263.675V286.481C218.655 286.635 219.156 287.21 219.156 287.938C219.156 288.066 219.13 288.193 219.079 288.321L238.925 299.705V275.672ZM238.925 201.388L218.039 213.424V236.652C218.308 236.729 218.54 236.844 218.732 237.035L238.925 225.421V201.388ZM175.032 213.194L195.572 224.961L195.957 225.191L196.343 224.961L216.882 213.194L195.957 201.158L175.032 213.194ZM152.565 201.196L131.679 213.194L152.565 225.229L173.491 213.194L152.565 201.196Z" fill="url(#paint0_linear_19_1389)"/>
<defs>
<linearGradient id="paint0_linear_19_1389" x1="25" y1="326" x2="184" y2="140.5" gradientUnits="userSpaceOnUse">
<stop stop-color="#E7E5F1"/>
<stop offset="1" stop-color="#E7E5F1" stop-opacity="0"/>
</linearGradient>
</defs>
</svg>
