<svg width="436" height="374" viewBox="0 0 436 374" fill="none" xmlns="http://www.w3.org/2000/svg">
<path fill-rule="evenodd" clip-rule="evenodd" d="M473.728 315.383V342.954L498.559 328.663V358.257L498.338 358.389L474.963 371.845C474.992 371.992 475.007 372.138 475.007 372.285C475.007 373.252 474.257 374 473.287 374C472.317 374 471.567 373.252 471.567 372.285C471.567 371.493 472.096 370.834 472.846 370.614V343.966L448.015 329.674V301.091L447.574 300.871L448.015 300.607V300.079L448.456 300.343L472.405 286.579L448.015 272.552L423.669 258.48L398.397 273.035V215.385L375.242 202.061C374.934 202.369 374.493 202.589 374.007 202.589C373.522 202.589 373.081 202.369 372.772 202.061L348.735 215.913V186.318L348.956 186.186L373.566 172.027V171.499L374.007 171.763L374.448 171.499V172.027L399.279 186.318V214.374L423.228 200.61V172.511L398.397 158.263V131.087C397.648 130.867 397.118 130.207 397.118 129.416C397.118 128.624 397.648 127.965 398.397 127.745V100.569L398.618 100.481L423.184 86.3212V57.2103L448.456 71.7658L473.728 57.2103V57.2543L498.559 42.9627V72.5133L498.338 72.6453L473.728 86.8489V142.036C474.434 142.212 475.007 142.916 475.007 143.707C475.007 144.675 474.213 145.422 473.287 145.422C472.802 145.422 472.361 145.247 472.052 144.895L448.015 158.747V101.097L424.11 87.3326V115.388L423.89 115.52L400.514 128.976C400.544 129.123 400.558 129.269 400.558 129.416C400.558 129.562 400.544 129.709 400.514 129.856L424.11 143.444V172.027L448.897 186.318V242.034C449.206 242.122 449.47 242.254 449.691 242.473L472.846 229.149V200.082H472.89V172.027L473.111 171.895L498.559 157.208V186.802L498.338 186.934L474.169 200.83L498.559 214.858V243.441L499 243.705L498.559 243.968V272.552L498.338 272.64L474.169 286.579L499 300.871L473.728 315.383ZM473.728 200.038L497.677 186.274V158.703L473.728 172.511V200.038ZM497.677 244.408L473.728 258.172V285.744L497.677 271.98V244.408ZM497.677 215.297L473.728 201.533V229.105L497.677 242.869V215.297ZM450.132 243.177C450.161 243.324 450.176 243.47 450.176 243.617C450.176 243.763 450.161 243.91 450.132 244.056L473.287 257.381L486.342 249.861L497.236 243.617L473.287 229.853L450.132 243.177ZM436.063 208.393L424.066 201.533V229.061L436.063 235.965L447.221 242.385C447.442 242.166 447.706 242.034 448.015 241.946V215.297L436.063 208.393ZM448.897 128.536L472.846 114.772V87.2007L448.897 101.009V128.536ZM471.611 144.015C471.582 143.869 471.552 143.722 471.523 143.576C471.523 142.784 472.096 142.08 472.846 141.905V115.74L448.897 129.548V157.076L471.611 144.015ZM473.772 85.6616L497.677 71.8977V44.3259L473.772 58.1338V85.6616ZM472.846 58.6175L448.897 72.3814V99.9532L472.846 86.1453V58.6175ZM424.066 85.7056L424.11 85.6616V86.1893L448.015 99.9532V72.4254L424.066 58.6175V85.7056ZM399.279 101.009V127.657C399.588 127.745 399.853 127.877 400.073 128.097L423.228 114.772V87.2447L399.279 101.009ZM423.184 171.411V143.839L400.073 130.515C399.853 130.735 399.588 130.911 399.279 130.955V157.647L423.184 171.411ZM424.066 172.906V200.478L436.019 207.382L447.971 214.242V186.714L424.066 172.906ZM372.331 201.138C372.302 200.991 372.287 200.845 372.287 200.698C372.287 199.906 372.817 199.247 373.566 199.027V172.862L349.618 186.67V214.198L372.331 201.138ZM375.728 200.698C375.728 200.874 375.713 201.02 375.683 201.138L398.397 214.242V186.67L374.448 172.906V199.027C375.198 199.247 375.728 199.906 375.728 200.698ZM399.279 242.825L423.184 229.017V201.489L399.279 215.253V242.825ZM399.279 271.408L423.184 257.6V230.073L399.279 243.837V271.408ZM448.015 271.408V245.244C447.265 245.068 446.736 244.408 446.736 243.617C446.736 243.441 446.751 243.28 446.78 243.133L436.063 236.977L424.066 230.073V257.644L448.015 271.408ZM448.897 271.892L472.846 285.7V258.128L449.691 244.804C449.515 245.024 449.206 245.156 448.897 245.244V271.892ZM449.338 300.739L473.287 314.503L497.236 300.739L473.728 287.195L473.287 286.931L472.846 287.195L449.338 300.739ZM448.897 329.058L472.846 342.822V315.295L448.897 301.487V329.058ZM473.728 343.878V370.526C474.037 370.614 474.301 370.746 474.522 370.966L497.677 357.642V330.07L473.728 343.878ZM349.176 159.67C348.206 159.67 347.456 158.879 347.456 157.911C347.456 157.12 347.986 156.46 348.735 156.24V130.119L324.346 144.147L299.559 129.856L274.728 144.147L249.897 129.856L224.625 144.411V114.816L224.845 114.685L248.221 101.228C248.192 101.082 248.177 100.935 248.177 100.789C248.177 99.9972 248.706 99.2936 249.456 99.1177V72.4694L225.507 58.6615V86.761L225.287 86.8929L200.72 101.053V127.701C201.47 127.877 201.999 128.536 201.999 129.372C201.999 130.295 201.205 131.087 200.279 131.087C199.794 131.087 199.353 130.867 199.044 130.559L175.007 144.411V114.816L175.228 114.685L199.838 100.525V44.4139L175.889 58.1778V87.2447L150.617 72.7332L126.713 86.4971L151.058 100.525V130.119L126.272 115.828V144.411L100.559 129.592V102.46C100.25 102.372 99.9852 102.196 99.7647 101.976L75.7277 115.828V86.761L51.7789 72.9531V101.053L51.5583 101.141L26.11 115.828V86.761L2.95502 73.4368C2.64628 73.7446 2.20523 73.9205 1.72008 73.9205C0.749776 73.9205 0 73.173 0 72.2055C0 71.2381 0.749776 70.4905 1.72008 70.4905C2.20523 70.4905 2.64628 70.6664 2.95502 70.9743L26.11 57.6501V28.5832L50.8968 42.8748L76.6098 57.6501V85.7496L100.559 71.9417V42.8748L125.831 57.4302L150.176 43.3585V42.8748L150.617 43.1386L151.058 42.8748V43.3585L175.007 57.1664V29.1109L175.228 28.979L200.72 14.2916L225.507 0V29.1109L248.662 42.435C248.882 42.2152 249.147 42.0393 249.456 41.9513V14.2916L274.728 28.847L275.169 28.5832V29.1109L299.118 42.8748V14.8193L299.338 14.6874L324.787 0V29.5946L324.566 29.7265L300 43.8862V71.9417L300.441 72.2055L300 72.4694V101.053L299.779 101.141L275.61 115.08L299.559 128.844L323.905 114.816V85.7496V59.585C323.199 59.4091 322.625 58.7055 322.625 57.9139C322.625 56.9905 323.419 56.1989 324.346 56.1989C325.316 56.1989 326.11 56.9905 326.11 57.9139C326.08 58.0898 326.051 58.2364 326.022 58.3537L349.176 71.7218L373.125 57.9139L348.78 43.8862V14.2916L374.493 29.1109V57.1664L399.279 42.8748V70.8863C400.029 71.0622 400.603 71.7218 400.603 72.5133C400.603 73.4808 399.809 74.2723 398.838 74.2723C398.265 74.2723 397.78 73.9645 397.427 73.5247L374.448 86.761V143.883L374.228 144.015L350.852 157.471C350.882 157.618 350.897 157.765 350.897 157.911C350.897 158.879 350.147 159.67 349.176 159.67ZM373.566 115.828L350.059 129.372L349.618 129.592V156.24C349.926 156.328 350.191 156.504 350.411 156.724L373.566 143.4V115.828ZM324.787 114.816L348.735 128.58V101.009L324.787 87.2447V114.816ZM349.618 128.58L373.566 114.816V87.2447L349.618 101.053V128.58ZM373.566 58.6615L349.618 72.4254V99.9972L373.566 86.1893V58.6615ZM374.493 58.1778V85.7496L397.118 72.6892C397.118 72.6306 397.118 72.572 397.118 72.5133C397.118 71.7218 397.692 71.0622 398.397 70.8863V44.4139L374.493 58.1778ZM349.706 43.3585L373.61 57.1664V29.5946L349.706 15.8307V43.3585ZM324.831 86.1893L348.78 99.9532V72.4254L325.625 59.1012C325.404 59.3211 325.139 59.453 324.831 59.541V86.1893ZM287.827 78.4059L298.677 72.1616L274.772 58.3977L261.673 65.8733L250.823 72.1616L274.772 85.9255L287.827 78.4059ZM250.382 71.414L273.846 57.87L251.176 44.8096C250.955 45.0295 250.691 45.1614 250.382 45.2494V71.414ZM274.287 30.0783L251.573 43.1386C251.632 43.2852 251.661 43.4318 251.661 43.5784C251.661 43.7543 251.632 43.9155 251.573 44.0621L274.287 57.1224V30.0783ZM250.382 72.9531V99.0737C251.132 99.2936 251.661 99.9532 251.661 100.745C251.661 100.891 251.632 101.038 251.573 101.184L274.287 114.289V86.717L250.382 72.9531ZM250.382 128.58L273.89 115.036L251.176 101.976C250.955 102.196 250.691 102.328 250.382 102.416V128.58ZM299.162 72.9531L275.213 86.761V114.289L299.162 100.525V72.9531ZM300.044 42.8748L323.993 29.0669V1.53909L300.044 15.303V42.8748ZM275.213 30.1223V57.6501L299.162 71.458V43.8862L275.213 30.1223ZM250.382 15.8307V41.9953C250.691 42.0832 250.955 42.2152 251.176 42.435L273.89 29.3747L250.382 15.8307ZM200.72 15.303V42.8748L224.669 29.1109V1.53909L200.72 15.303ZM126.272 58.1778V85.7056L150.22 71.9417V44.3699L126.272 58.1778ZM101.441 71.9857L113.393 78.8456L125.389 85.7496V58.1778L101.441 44.4139V71.9857ZM125.389 86.761L113.393 79.901L101.441 72.9971V99.1617C102.19 99.3376 102.72 99.9972 102.72 100.789C102.72 100.965 102.705 101.126 102.676 101.272L113.393 107.429L125.389 114.333V86.761ZM75.7277 58.1778L51.823 44.4139V71.9417L75.7277 85.7496V58.1778ZM26.9921 57.6501L50.9409 71.458V43.8862L26.9921 30.1223V57.6501ZM3.44016 72.1616C3.44016 72.3374 3.42547 72.4987 3.39606 72.6453L26.551 85.9694L39.606 78.4499L50.4998 72.1616L26.551 58.3977L3.39606 71.7218C3.42547 71.8684 3.44016 72.015 3.44016 72.1616ZM50.9409 72.9531L26.9921 86.717V114.289L50.9409 100.481V72.9531ZM99.3237 101.228C99.2943 101.082 99.2795 100.935 99.2795 100.789C99.2795 99.9532 99.8088 99.2936 100.559 99.1177V72.9531L76.6098 86.761V114.289L99.3237 101.228ZM125.389 115.344L113.393 108.44L102.235 102.02C102.014 102.196 101.749 102.372 101.441 102.46V129.108L125.389 142.872V115.344ZM150.176 101.053L126.272 87.2887V114.86L150.176 128.624V101.053ZM175.007 58.1778L151.058 44.4139V71.9857L175.007 85.7496V58.1778ZM199.838 43.4025V15.8307L175.889 29.5946V57.1664L199.838 43.4025ZM200.72 43.9302V71.458L224.669 57.6941V30.1223L200.72 43.9302ZM198.603 129.856C198.574 129.709 198.559 129.562 198.559 129.416C198.559 128.624 199.088 127.921 199.838 127.745V101.58L175.889 115.388V142.916L198.603 129.856ZM224.669 58.7494L200.72 72.5133V100.085L224.669 86.3212V58.7494ZM225.551 57.738L249.456 71.5019V45.3373C248.75 45.1614 248.177 44.5018 248.177 43.6663C248.177 43.5197 248.206 43.3732 248.265 43.2266L225.551 30.1663V57.738ZM225.551 142.96L249.456 129.152V102.504C249.147 102.416 248.882 102.284 248.662 102.064L225.551 115.388V142.96ZM298.677 129.416L275.169 115.916L274.728 115.652L274.287 115.916L250.779 129.416L274.728 143.224L298.677 129.416ZM324.39 143.18L348.294 129.416L324.39 115.608L300.441 129.416L324.39 143.18Z" fill="#E7E5F1"/>
</svg>
