<svg width="29" height="24" viewBox="0 0 29 24" fill="none" xmlns="http://www.w3.org/2000/svg">
<path d="M21.8364 5.80726C21.4216 4.14919 20.4647 2.67722 19.1178 1.62509C17.7708 0.572966 16.111 0.000993715 14.4018 1.29363e-06C12.6926 -0.000991127 11.0321 0.569053 9.68394 1.61962C8.33576 2.67018 7.3772 4.14103 6.96048 5.79862C4.99478 5.9831 3.17569 6.91773 1.88107 8.40836C0.586454 9.89899 -0.0841822 11.831 0.00846563 13.8032C0.101113 15.7754 0.949924 17.636 2.37858 18.9987C3.80725 20.3614 5.70594 21.1214 7.68028 21.1208H10.5595C10.814 21.1208 11.0581 21.0197 11.2381 20.8397C11.4181 20.6597 11.5192 20.4156 11.5192 20.1611C11.5192 19.9065 11.4181 19.6624 11.2381 19.4824C11.0581 19.3024 10.814 19.2013 10.5595 19.2013H7.68028C6.92407 19.2035 6.17484 19.0568 5.47535 18.7694C4.77587 18.4821 4.13983 18.0598 3.60355 17.5266C2.52049 16.4498 1.90953 14.9869 1.90507 13.4597C1.90062 11.9325 2.50304 10.466 3.5798 9.38298C4.65656 8.29992 6.11946 7.68896 7.64669 7.6845C7.89295 7.70304 8.13732 7.62945 8.33238 7.478C8.52745 7.32656 8.65932 7.10806 8.7024 6.86489C8.89782 5.49445 9.58111 4.24052 10.6268 3.33339C11.6724 2.42625 13.0103 1.92683 14.3946 1.92683C15.7789 1.92683 17.1167 2.42625 18.1624 3.33339C19.2081 4.24052 19.8913 5.49445 20.0868 6.86489C20.137 7.09961 20.2671 7.30964 20.4549 7.45912C20.6427 7.60859 20.8766 7.68826 21.1166 7.6845C22.6438 7.6845 24.1085 8.29119 25.1884 9.3711C26.2683 10.451 26.875 11.9157 26.875 13.4429C26.875 14.9701 26.2683 16.4348 25.1884 17.5147C24.1085 18.5946 22.6438 19.2013 21.1166 19.2013H18.2374C17.9828 19.2013 17.7387 19.3024 17.5587 19.4824C17.3787 19.6624 17.2776 19.9065 17.2776 20.1611C17.2776 20.4156 17.3787 20.6597 17.5587 20.8397C17.7387 21.0197 17.9828 21.1208 18.2374 21.1208H21.1166C23.0765 21.1003 24.9543 20.331 26.3653 18.9706C27.7763 17.6102 28.6136 15.7617 28.7056 13.8038C28.7977 11.846 28.1374 9.92708 26.8603 8.44032C25.5831 6.95355 23.7857 6.01152 21.8364 5.80726V5.80726Z" fill="#F07E23"/>
<path d="M18.5181 14.1214C18.6991 14.2963 18.9416 14.393 19.1932 14.3908C19.4448 14.3886 19.6856 14.2877 19.8635 14.1097C20.0414 13.9318 20.1424 13.6911 20.1446 13.4394C20.1468 13.1878 20.05 12.9454 19.8752 12.7644L15.0765 7.96569C14.8965 7.78577 14.6525 7.68469 14.398 7.68469C14.1435 7.68469 13.8994 7.78577 13.7195 7.96569L8.92078 12.7644C8.74595 12.9454 8.64922 13.1878 8.6514 13.4394C8.65359 13.6911 8.75452 13.9318 8.93247 14.1097C9.11041 14.2877 9.35112 14.3886 9.60276 14.3908C9.8544 14.393 10.0968 14.2963 10.2778 14.1214L13.4382 10.961V23.0402C13.4382 23.2948 13.5394 23.5389 13.7193 23.7189C13.8993 23.8989 14.1434 24 14.398 24C14.6525 24 14.8966 23.8989 15.0766 23.7189C15.2566 23.5389 15.3577 23.2948 15.3577 23.0402V10.961L18.5181 14.1214Z" fill="#F07E23"/>
</svg>
