<svg width="12" height="12" viewBox="0 0 12 12" fill="none" xmlns="http://www.w3.org/2000/svg">
<path d="M10.8563 0.295621L2.97645 0.295533C2.75152 0.295533 2.53989 0.383696 2.38006 0.543526C2.22005 0.703532 2.13207 0.91516 2.13198 1.14L2.13207 1.85551C2.13198 2.08018 2.22005 2.29207 2.37997 2.45199C2.5398 2.61182 2.75675 2.70495 2.98141 2.70486L7.58338 2.70992L0.281077 10.0122C-0.0481614 10.3415 -0.0505561 10.8594 0.278771 11.1887L0.784601 11.6945C1.11393 12.0238 1.65781 12.0474 1.98705 11.7182L9.31543 4.38981L9.30736 9.03063C9.30745 9.25547 9.39144 9.46329 9.55136 9.62321C9.7111 9.78295 9.92105 9.86907 10.1458 9.86907L10.8602 9.86801C11.0851 9.86801 11.2962 9.77949 11.4562 9.61948C11.616 9.45965 11.7038 9.24767 11.7038 9.02274L11.7038 1.14302C11.7037 0.917466 11.6151 0.704864 11.4546 0.545211C11.2943 0.384229 11.0817 0.295444 10.8563 0.295621Z" fill="white"/>
</svg>
