<svg width="16" height="16" viewBox="0 0 16 16" fill="none" xmlns="http://www.w3.org/2000/svg">
<g clip-path="url(#clip0_535_1076)">
<path d="M14.1666 7.16688C13.8906 7.16688 13.6666 6.94288 13.6666 6.66688C13.6666 4.7522 12.9214 2.95288 11.568 1.59888C11.3727 1.40357 11.3727 1.08691 11.568 0.891602C11.7633 0.696289 12.08 0.696289 12.2754 0.891602C13.8174 2.43423 14.6666 4.4856 14.6666 6.66688C14.6666 6.94288 14.4426 7.16688 14.1666 7.16688ZM0.5 7.16688C0.224 7.16688 0 6.94288 0 6.66688C0 4.48563 0.849375 2.43423 2.39197 0.892227C2.58728 0.696914 2.90406 0.696914 3.09938 0.892227C3.29469 1.08754 3.29469 1.40432 3.09938 1.59963C1.74538 2.95288 1 4.7522 1 6.66688C1 6.94288 0.776 7.16688 0.5 7.16688ZM7.33337 16.0003C5.95472 16.0003 4.83337 14.8789 4.83337 13.5003C4.83337 13.2243 5.05737 13.0003 5.33337 13.0003C5.60938 13.0003 5.83337 13.2243 5.83337 13.5003C5.83337 14.3277 6.50597 15.0003 7.33337 15.0003C8.16066 15.0003 8.83337 14.3277 8.83337 13.5003C8.83337 13.2243 9.05737 13.0003 9.33337 13.0003C9.60938 13.0003 9.83337 13.2243 9.83337 13.5003C9.83337 14.8789 8.71203 16.0003 7.33337 16.0003Z" fill="#8D8D8D"/>
<path d="M12.8337 14H1.83374C1.1903 14 0.666992 13.4767 0.666992 12.8334C0.666885 12.6649 0.703313 12.4983 0.773764 12.3452C0.844216 12.1922 0.947018 12.0562 1.07509 11.9467C2.08899 11.09 2.66699 9.84472 2.66699 8.52541V6.66663C2.66699 4.09337 4.76037 2 7.33374 2C9.90699 2 12.0004 4.09337 12.0004 6.66663V8.52538C12.0004 9.84475 12.5784 11.09 13.5857 11.942C13.8517 12.1687 14.0004 12.4919 14.0004 12.8334C14.0004 13.4767 13.4771 14 12.8337 14ZM7.33374 3C5.31165 3 3.66699 4.64466 3.66699 6.66663V8.52538C3.66699 10.1393 2.95971 11.6633 1.72705 12.7053C1.70374 12.7253 1.66699 12.7667 1.66699 12.8334C1.66699 12.9239 1.74305 13 1.83374 13H12.8337C12.9243 13 13.0004 12.9239 13.0004 12.8334C13.0004 12.7667 12.9637 12.7253 12.9416 12.7067C11.7076 11.6633 11.0004 10.1393 11.0004 8.52541V6.66663C11.0004 4.64466 9.35571 3 7.33374 3Z" fill="#8D8D8D"/>
<path d="M7.33301 3C7.05701 3 6.83301 2.776 6.83301 2.5V0.5C6.83301 0.224 7.05701 0 7.33301 0C7.60901 0 7.83301 0.224 7.83301 0.5V2.5C7.83301 2.776 7.60901 3 7.33301 3Z" fill="#8D8D8D"/>
</g>
<defs>
<clipPath id="clip0_535_1076">
<rect width="16" height="16" fill="white"/>
</clipPath>
</defs>
</svg>
