<svg width="1600" height="860" viewBox="0 0 1600 860" fill="none" xmlns="http://www.w3.org/2000/svg">
<mask id="mask0_535_2270" style="mask-type:alpha" maskUnits="userSpaceOnUse" x="0" y="0" width="1600" height="860">
<rect width="1600" height="860" fill="#7894D9"/>
</mask>
<g mask="url(#mask0_535_2270)">
<path opacity="0.1" d="M288 173C305 142.5 329.5 87.5 334 0C237.2 -199.2 -20.3333 -103.667 -137 -31C-99.3333 78.3333 -19.5651 294.195 -0.5 297.5C37 304 121.846 301.69 194 282.5C241 270 271.233 203.081 288 173Z" fill="#89ABFF"/>
<path opacity="0.1" d="M1104 628C1084.33 663.327 1041.21 763.652 1036 865C1148.01 1095.73 1496 994.442 1631 910.275C1587.42 783.638 1625 603 1598 592C1557.21 575.384 1301.92 512.888 1216 522C1150 529 1123.4 593.158 1104 628Z" fill="#89ABFF"/>
<rect opacity="0.1" x="978.626" y="448.906" width="51.0795" height="49.3305" rx="16" transform="rotate(33.3106 978.626 448.906)" fill="#D9D9D9"/>
</g>
</svg>
