<svg width="16" height="16" viewBox="0 0 16 16" fill="none" xmlns="http://www.w3.org/2000/svg">
<g clip-path="url(#clip0_1144_42)">
<mask id="mask0_1144_42" style="mask-type:luminance" maskUnits="userSpaceOnUse" x="0" y="0" width="16" height="16">
<path d="M16 0H0V16H16V0Z" fill="white"/>
</mask>
<g mask="url(#mask0_1144_42)">
<path d="M15.7443 7.37752L9.9661 1.59923C9.80116 1.43429 9.58132 1.34375 9.34692 1.34375C9.11225 1.34375 8.89255 1.43442 8.7276 1.59923L8.20299 2.12397C8.03818 2.28866 7.94738 2.50862 7.94738 2.74316C7.94738 2.97756 8.03818 3.20494 8.20299 3.36962L11.5739 6.74794H0.864383C0.381525 6.74794 0 7.12595 0 7.60894V8.35078C0 8.83377 0.381525 9.2499 0.864383 9.2499H11.6121L8.20312 12.6471C8.03831 12.812 7.94751 13.026 7.94751 13.2606C7.94751 13.4948 8.03831 13.7119 8.20312 13.8768L8.72773 14.3998C8.89268 14.5647 9.11238 14.6546 9.34705 14.6546C9.58145 14.6546 9.80129 14.5636 9.96623 14.3986L15.7444 8.62044C15.9097 8.45498 16.0007 8.2341 16 7.99931C16.0005 7.76373 15.9097 7.54273 15.7443 7.37752Z" fill="#004DF7"/>
</g>
</g>
<defs>
<clipPath id="clip0_1144_42">
<rect width="16" height="16" fill="white"/>
</clipPath>
</defs>
</svg>
