<svg width="38" height="38" viewBox="0 0 38 38" fill="none" xmlns="http://www.w3.org/2000/svg">
<path d="M36.3933 4.0477C36.9547 3.48629 36.9547 2.57608 36.3933 2.01469C35.8318 1.4533 34.9216 1.45331 34.3602 2.01473C33.7988 2.57614 33.7989 3.48635 34.3603 4.04774C34.9217 4.60913 35.8319 4.60912 36.3933 4.0477Z" stroke="#0B3150" stroke-width="2" stroke-miterlimit="10" stroke-linecap="round" stroke-linejoin="round"/>
<path d="M10.8193 27.5933C8.5892 25.3633 7.43347 22.4661 7.35093 19.5442H3.03711C3.12051 23.57 4.69772 27.5706 7.76984 30.6428C10.2799 33.1529 13.4101 34.6643 16.6672 35.1791V30.7936C14.5241 30.3262 12.4855 29.2595 10.8193 27.5933ZM27.5914 10.8212C29.2576 12.4874 30.3242 14.5261 30.7916 16.6692H35.1772C34.6623 13.412 33.151 10.2819 30.6408 7.77179C27.5687 4.69968 23.5681 3.12246 19.5423 3.03906V7.35288C22.4641 7.43542 25.3613 8.59122 27.5914 10.8212ZM27.5914 27.5933C25.3614 29.8234 22.4641 30.9791 19.5423 31.0616V35.3755C23.5681 35.2921 27.5687 33.7148 30.6408 30.6427C33.713 27.5706 35.2902 23.57 35.3736 19.5441H31.0598C30.9772 22.4661 29.8214 25.3632 27.5914 27.5933Z" stroke="#0B3150" stroke-width="2" stroke-miterlimit="10" stroke-linecap="round" stroke-linejoin="round"/>
<path d="M19.2052 27.4691C23.7703 27.4691 27.471 23.7683 27.471 19.2033C27.471 14.6382 23.7703 10.9375 19.2052 10.9375C14.6402 10.9375 10.9395 14.6382 10.9395 19.2033C10.9395 23.7683 14.6402 27.4691 19.2052 27.4691Z" stroke="#0B3150" stroke-width="2" stroke-miterlimit="10" stroke-linecap="round" stroke-linejoin="round"/>
<path d="M34.3003 3.98438L30.3457 7.48185" stroke="#0B3150" stroke-width="2" stroke-miterlimit="10" stroke-linecap="round" stroke-linejoin="round"/>
<path d="M4.04954 36.3954C4.61093 35.8339 4.61091 34.9237 4.0495 34.3623C3.48809 33.801 2.57788 33.801 2.01649 34.3624C1.4551 34.9238 1.45511 35.834 2.01652 36.3954C2.57794 36.9568 3.48815 36.9568 4.04954 36.3954Z" stroke="#0B3150" stroke-width="2" stroke-miterlimit="10" stroke-linecap="round" stroke-linejoin="round"/>
<path d="M7.76873 30.6418L4.04913 34.3621M16.6662 7.61992V3.23438C13.8536 3.67899 11.1361 4.86722 8.83039 6.79935L11.8969 9.86588C13.2967 8.76681 14.9272 7.99896 16.6662 7.61992ZM3.23242 16.6681H7.61797C7.99696 14.9292 8.76479 13.2987 9.86386 11.8989L6.79733 8.83242C4.86533 11.1381 3.67703 13.8556 3.23242 16.6681Z" stroke="#0B3150" stroke-width="2" stroke-miterlimit="10" stroke-linecap="round" stroke-linejoin="round"/>
</svg>
