<svg width="18" height="18" viewBox="0 0 18 18" fill="none" xmlns="http://www.w3.org/2000/svg">
<path d="M2.74902 8.33377C2.43837 8.33464 2.13431 8.42344 1.87202 8.58991C1.60973 8.75638 1.39993 8.99371 1.26689 9.27444C1.13386 9.55517 1.08302 9.86783 1.12027 10.1762C1.15751 10.4847 1.28132 10.7762 1.47736 11.0172L5.65647 16.1366C5.80548 16.3216 5.99648 16.4684 6.21361 16.5648C6.43074 16.6612 6.66774 16.7044 6.90491 16.6908C7.41216 16.6635 7.87013 16.3922 8.16211 15.946L16.8432 1.96516C16.8446 1.96282 16.8461 1.96051 16.8476 1.95824C16.9291 1.83317 16.9027 1.58532 16.7345 1.42962C16.6884 1.38687 16.6339 1.35402 16.5745 1.3331C16.5152 1.31218 16.4522 1.30363 16.3894 1.30799C16.3266 1.31235 16.2654 1.32951 16.2095 1.35842C16.1535 1.38734 16.1042 1.42739 16.0643 1.47611C16.0612 1.47994 16.058 1.48372 16.0547 1.48743L7.2997 11.3793C7.26639 11.4169 7.22592 11.4476 7.18067 11.4694C7.13541 11.4913 7.08625 11.504 7.03606 11.5067C6.98587 11.5094 6.93564 11.5021 6.88828 11.4852C6.84093 11.4684 6.7974 11.4423 6.76022 11.4084L3.8546 8.76431C3.55283 8.48768 3.1584 8.33408 2.74902 8.33377Z" fill="#004DF7"/>
</svg>
