<svg width="16" height="12" viewBox="0 0 16 12" fill="none" xmlns="http://www.w3.org/2000/svg">
<path d="M12.5 6.75H3.5C3.05 6.75 2.75 6.45 2.75 6C2.75 5.55 3.05 5.25 3.5 5.25H12.5C12.95 5.25 13.25 5.55 13.25 6C13.25 6.45 12.95 6.75 12.5 6.75ZM10.25 11.25H5.75C5.3 11.25 5 10.95 5 10.5C5 10.05 5.3 9.75 5.75 9.75H10.25C10.7 9.75 11 10.05 11 10.5C11 10.95 10.7 11.25 10.25 11.25ZM14.75 2.25H1.25C0.8 2.25 0.5 1.95 0.5 1.5C0.5 1.05 0.8 0.75 1.25 0.75H14.75C15.2 0.75 15.5 1.05 15.5 1.5C15.5 1.95 15.2 2.25 14.75 2.25Z" fill="black"/>
</svg>
