<svg width="264" height="48" viewBox="0 0 264 48" fill="none" xmlns="http://www.w3.org/2000/svg">
<path d="M64.1654 16.4451V11.5132H42.7607V40.3695H64.1654V35.4375H48.1336V27.953H60.959V23.4537H48.1336V16.4451H64.1654Z" fill="#004DF7"/>
<path d="M78.204 31.8031L82.7103 40.3692H88.1264L82.017 29.7698L87.6931 19.603H82.277L78.204 27.7364H76.5142L72.4412 19.603H67.0251L72.7012 29.7698L72.6579 29.8996L66.5918 40.3692H72.008L76.5142 31.8031H78.204Z" fill="#004DF7"/>
<path d="M94.0198 10.1289C93.1099 10.1289 92.3733 10.4317 91.7234 11.0374C91.1168 11.6431 90.8135 12.3353 90.8135 13.114C90.8135 13.8928 91.1168 14.585 91.7234 15.1907C92.33 15.7963 93.1099 16.0992 94.0198 16.0992C94.9297 16.0992 95.6663 15.7963 96.3163 15.1907C96.9229 14.585 97.2262 13.8928 97.2262 13.114C97.2262 12.3353 96.9229 11.6431 96.3163 11.0374C95.6663 10.4317 94.9297 10.1289 94.0198 10.1289Z" fill="#004DF7"/>
<path d="M96.4894 19.603H91.5498V40.3259H96.4894V19.603Z" fill="#004DF7"/>
<path d="M99.8691 23.6697H102.642V40.3692H113.994V36.2592H107.582V23.6697H113.778V19.603H107.582V14.9307H102.642V19.603H99.8691V23.6697Z" fill="#004DF7"/>
<path d="M138.561 39.6774C139.861 39.2447 140.945 38.6391 141.811 37.9036C142.678 37.1681 143.328 36.3029 143.761 35.3078C144.194 34.3128 144.411 33.2312 144.411 32.0631C144.411 30.6354 144.151 29.4673 143.588 28.6454C143.024 27.7801 142.418 27.0879 141.724 26.6553C140.945 26.1361 140.035 25.7467 139.038 25.5304L138.605 25.4439V24.4056L138.995 24.2758C139.775 24.0162 140.511 23.6701 141.205 23.1942C141.724 22.8049 142.201 22.1992 142.678 21.4637C143.111 20.7283 143.328 19.7765 143.328 18.6084C143.328 17.6566 143.111 16.7048 142.721 15.8396C142.331 14.9743 141.768 14.1956 140.988 13.5466C140.251 12.8977 139.255 12.3785 138.128 11.9892C137.002 11.5998 135.658 11.4268 134.185 11.4268H119.323V40.283H133.969C135.745 40.3696 137.262 40.11 138.561 39.6774ZM124.739 16.2289H133.405C134.835 16.2289 135.918 16.575 136.655 17.224C137.392 17.9162 137.781 18.7382 137.781 19.7332C137.781 20.7283 137.392 21.5935 136.655 22.2425C135.918 22.8914 134.835 23.2375 133.405 23.2375H124.739V16.2289ZM124.739 35.6107V27.7368H133.622C135.355 27.7368 136.698 28.1262 137.522 28.8617C138.388 29.6404 138.821 30.5922 138.821 31.6737C138.821 32.7986 138.388 33.7504 137.522 34.4858C136.655 35.2213 135.355 35.6107 133.622 35.6107H124.739Z" fill="#004DF7"/>
<path d="M168.459 29.9866C168.459 28.4724 168.199 27.0015 167.679 25.7036C167.159 24.3624 166.38 23.1943 165.426 22.1993C164.473 21.2043 163.26 20.4255 161.96 19.8198C160.617 19.2574 159.1 18.9546 157.497 18.9546C155.937 18.9546 154.421 19.2574 153.077 19.8198C151.691 20.3823 150.521 21.161 149.481 22.156C148.485 23.1511 147.705 24.3192 147.098 25.6603C146.535 27.0015 146.231 28.4291 146.231 29.9433C146.231 31.4575 146.535 32.8852 147.098 34.2264C147.661 35.5675 148.485 36.7356 149.481 37.7306C150.478 38.7257 151.691 39.5044 153.077 40.0668C154.464 40.6292 155.937 40.9321 157.497 40.9321C158.624 40.9321 159.664 40.8456 160.573 40.6293C161.483 40.4129 162.307 40.1534 163 39.8073C163.693 39.4611 164.343 39.0718 164.863 38.6392C165.426 38.2065 165.903 37.7739 166.293 37.298C167.029 36.3895 167.636 35.3945 168.069 34.3129H162.697C162.437 34.7455 162.09 35.1349 161.7 35.481C161.267 35.8271 160.703 36.1732 160.053 36.4328C159.36 36.7356 158.494 36.8654 157.454 36.8654C156.717 36.8654 155.981 36.7356 155.287 36.4328C154.594 36.1299 153.987 35.7406 153.424 35.2214C152.904 34.7023 152.428 34.0966 152.081 33.4476C151.734 32.7987 151.474 32.0632 151.344 31.3278L151.258 30.7221H168.459V29.9866ZM151.388 28.1696L151.561 27.5206C151.908 26.3525 152.601 25.3142 153.597 24.449C154.637 23.5404 155.894 23.1078 157.41 23.1078C158.147 23.1078 158.84 23.2376 159.49 23.4972C160.14 23.7568 160.703 24.0596 161.18 24.4922C161.657 24.8816 162.09 25.3575 162.393 25.9199C162.697 26.4391 162.913 27.0015 163.043 27.6072L163.173 28.2561H151.388V28.1696Z" fill="#004DF7"/>
<path d="M192.55 40.3694V19.6465H187.61V22.4153H186.614L186.44 22.199C186.007 21.5933 185.487 21.0742 184.88 20.5983C184.36 20.2089 183.667 19.8196 182.887 19.4735C182.107 19.1273 181.154 18.9976 180.028 18.9976C178.728 18.9976 177.471 19.2571 176.345 19.7763C175.218 20.2954 174.178 21.0309 173.312 21.9394C172.445 22.8912 171.752 24.0593 171.275 25.4005C170.755 26.7416 170.495 28.2991 170.495 29.9863C170.495 31.6736 170.755 33.231 171.275 34.5722C171.795 35.9133 172.488 37.0814 173.312 38.0332C174.178 38.985 175.175 39.7204 176.345 40.1963C177.471 40.7155 178.728 40.9751 180.028 40.9751C181.154 40.9751 182.107 40.802 182.887 40.4992C183.667 40.1531 184.36 39.807 184.88 39.3743C185.487 38.8984 186.007 38.3793 186.44 37.7736L186.614 37.5573H187.61V40.3261H192.55V40.3694ZM185.92 35.0913C184.794 36.3027 183.321 36.9084 181.544 36.9084C179.898 36.9084 178.468 36.3027 177.341 35.0913C176.215 33.88 175.651 32.1495 175.651 29.9863C175.651 27.8232 176.215 26.0927 177.341 24.8813C178.468 23.6699 179.898 23.0643 181.544 23.0643C183.321 23.0643 184.794 23.6699 185.92 24.8813C187.047 26.0927 187.61 27.8232 187.61 29.9863C187.61 32.1495 187.047 33.88 185.92 35.0913Z" fill="#004DF7"/>
<path d="M213.391 38.423C213.911 37.9472 214.388 37.428 214.778 36.9088C215.558 35.8705 216.121 34.7457 216.468 33.4911H211.268C211.008 34.0535 210.705 34.5294 210.315 35.0053C209.882 35.4812 209.318 35.9138 208.668 36.3032C207.975 36.6925 207.109 36.9088 206.025 36.9088C205.202 36.9088 204.422 36.7358 203.686 36.3897C202.949 36.0436 202.299 35.5677 201.736 34.962C201.173 34.3563 200.739 33.6209 200.393 32.7989C200.089 31.9769 199.916 31.0251 199.916 29.9868C199.916 28.9485 200.089 27.9967 200.393 27.1747C200.696 26.3527 201.173 25.6173 201.736 25.0116C202.299 24.4059 202.949 23.93 203.686 23.5839C204.422 23.2378 205.202 23.0648 206.025 23.0648C207.065 23.0648 207.975 23.2811 208.668 23.6704C209.318 24.0598 209.882 24.4924 210.315 24.925C210.705 25.4009 211.052 25.9201 211.312 26.4825H216.468C216.078 25.2279 215.471 24.0598 214.691 23.0648C214.301 22.5456 213.868 22.0264 213.305 21.5506C212.785 21.0747 212.178 20.642 211.485 20.2527C210.792 19.8633 209.968 19.5605 209.058 19.3442C208.149 19.1278 207.152 18.998 206.025 18.998C204.466 18.998 202.949 19.3009 201.606 19.8633C200.219 20.4257 199.049 21.2045 198.009 22.1995C197.013 23.1945 196.233 24.3626 195.626 25.7038C195.063 27.0449 194.76 28.4726 194.76 29.9868C194.76 31.501 195.063 32.9719 195.626 34.2698C196.19 35.611 197.013 36.7791 198.009 37.7741C199.006 38.7691 200.219 39.5479 201.606 40.1103C202.992 40.6727 204.466 40.9755 206.025 40.9755C207.152 40.9755 208.235 40.8458 209.145 40.6295C210.055 40.4131 210.878 40.1103 211.572 39.7209C212.265 39.3316 212.871 38.8989 213.391 38.423Z" fill="#004DF7"/>
<path d="M237.959 22.156C236.962 21.161 235.705 20.3823 234.319 19.8198C232.932 19.2574 231.416 18.9546 229.769 18.9546C228.123 18.9546 226.606 19.2574 225.176 19.8198C223.79 20.3823 222.533 21.161 221.537 22.156C220.54 23.1511 219.717 24.3192 219.154 25.6603C218.59 27.0015 218.287 28.4291 218.287 29.9433C218.287 31.4575 218.59 32.9285 219.154 34.2264C219.717 35.5675 220.54 36.7356 221.537 37.7306C222.533 38.7257 223.79 39.5044 225.176 40.0668C226.563 40.6292 228.123 40.9321 229.769 40.9321C231.416 40.9321 232.932 40.6292 234.319 40.0668C235.705 39.5044 236.919 38.7257 237.959 37.7306C238.955 36.7356 239.778 35.5675 240.385 34.2264C240.948 32.8852 241.252 31.4575 241.252 29.9433C241.252 28.4291 240.948 27.0015 240.385 25.6603C239.778 24.3624 238.999 23.1511 237.959 22.156ZM235.619 32.7987C235.316 33.6639 234.839 34.3561 234.276 34.9618C233.712 35.5675 233.019 36.0434 232.282 36.3895C231.503 36.7356 230.679 36.9087 229.813 36.9087C228.946 36.9087 228.123 36.7356 227.343 36.3895C226.606 36.0434 225.913 35.5675 225.35 34.9618C224.787 34.3561 224.31 33.6207 224.007 32.7987C223.703 31.9767 223.53 31.0249 223.53 29.9866C223.53 28.9483 223.703 27.9965 224.007 27.1745C224.31 26.3093 224.787 25.6171 225.35 25.0114C225.913 24.4057 226.606 23.9298 227.343 23.5837C228.859 22.8915 230.766 22.8915 232.282 23.5837C233.062 23.9298 233.712 24.4057 234.276 25.0114C234.839 25.6171 235.316 26.3525 235.619 27.1745C235.922 27.9965 236.095 28.9483 236.095 29.9866C236.095 31.0249 235.922 31.9767 235.619 32.7987Z" fill="#004DF7"/>
<path d="M250.048 24.7949C250.568 24.2325 251.175 23.7998 251.868 23.497C252.561 23.1942 253.298 23.0211 254.035 23.0211C255.594 23.0211 256.808 23.497 257.718 24.4055C258.628 25.314 259.061 26.6984 259.061 28.4289V40.283H264V27.5637C264 24.7083 263.307 22.5019 261.877 21.0743C260.491 19.6466 258.498 18.9111 255.984 18.9111C254.815 18.9111 253.818 19.0842 253.038 19.4303C252.258 19.7764 251.565 20.209 251.045 20.6416C250.438 21.1175 249.962 21.68 249.572 22.2856L249.398 22.5452H248.358V19.5601H243.419V40.283H248.358V29.2942C248.358 28.3857 248.488 27.5204 248.792 26.7417C249.095 26.0495 249.528 25.3573 250.048 24.7949Z" fill="#004DF7"/>
<path d="M25.4727 7.96582C28.809 10.6049 31.6688 14.8879 30.5855 19.3439C29.329 23.7567 24.8661 26.0064 21.1831 28.1263C18.6267 29.6405 15.8969 31.0682 15.2036 34.1398C14.857 35.654 15.0303 37.298 15.247 38.8555C14.7704 38.1633 14.4237 37.4278 14.1204 36.6058C11.304 28.5156 20.6198 25.6603 25.5593 21.7667C30.7155 18.2191 28.2024 12.3354 25.4727 7.96582Z" fill="#004DF7"/>
<path d="M24.6054 10.9941C26.3819 12.7247 26.7719 15.6665 25.602 17.9162C24.4321 20.1659 21.919 21.4637 19.4492 21.334C20.3158 20.512 21.1824 19.8198 21.8756 19.1275C24.2154 16.9211 24.6921 14.1091 24.6054 10.9941Z" fill="#004DF7"/>
<path d="M34.4417 22.2856C34.3117 22.026 34.1383 21.6367 33.9217 21.2473C33.6184 20.7281 33.3151 20.209 32.9251 19.6898C32.8385 19.56 32.7085 19.4735 32.6218 19.3437C32.6218 19.56 32.6218 19.8196 32.6218 19.8196C32.3618 26.0495 25.3858 29.1644 25.3858 29.1644C24.9959 29.3807 24.6492 29.5538 24.2593 29.7268C24.1726 29.7701 24.0426 29.8133 23.956 29.8999C23.4794 30.1162 23.0027 30.3757 22.5261 30.5921C12.0838 36.0432 19.4064 42.8787 19.4064 42.8787C19.4064 42.8787 13.7303 42.8354 12.0838 36.0864C11.1305 31.8899 12.1271 26.7849 14.1202 23.7998C17.7599 18.392 24.3026 13.46 22.6994 6.14858C21.8329 2.21166 19.0165 0.524414 19.0165 0.524414C19.753 2.77408 19.9264 5.02375 11.3905 10.821C10.7839 11.2536 10.2206 11.6862 9.70066 12.1188C4.50115 16.5317 4.93443 21.9395 5.19441 23.4104C5.23774 23.5402 5.23774 23.67 5.28107 23.7998C5.28107 23.7998 5.19441 23.7565 5.02109 23.5835C4.5878 23.1509 3.63456 21.8962 3.33125 19.1274C3.33125 19.1274 1.16479 21.9828 0.341537 26.0495C0.341537 26.136 0.298205 26.1793 0.298205 26.2658C0.254876 26.4388 0.211542 26.6551 0.211542 26.8715C-0.0484339 28.5154 -0.0917631 30.3757 0.211542 32.4524C0.211542 32.4524 1.46809 42.922 11.6938 46.5128C11.6938 46.5128 19.1898 49.8007 27.4657 44.912C27.4657 44.912 33.5751 41.278 35.3516 34.3559C35.3083 34.3559 37.0847 28.0828 34.4417 22.2856Z" fill="#004DF7"/>
</svg>
