<svg width="31" height="31" viewBox="0 0 31 31" fill="none" xmlns="http://www.w3.org/2000/svg">
<path d="M25.2142 26.4537C23.4733 26.771 22.7093 26.4162 21.4447 25.8295C20.3842 25.3412 19.0631 24.7262 17.1165 24.5318C14.9858 24.2982 12.8975 24.8255 11.0187 25.3627C12.0479 22.5767 12.0457 20.0502 11.8944 17.7148H21.4999V13.2847H11.6412C11.6454 11.9353 11.7824 10.5598 12.2219 9.07499C12.8443 7.31415 14.05 5.12302 16.2652 4.56393C18.2118 4.07407 20.6513 4.94889 22.7874 6.90687L25.7751 3.63533C22.4886 0.630553 18.6274 -0.595489 15.1862 0.272937C11.95 1.08433 9.40787 3.71055 8.02578 7.65809L7.99334 7.75386C7.39688 9.75158 7.21783 11.5858 7.21498 13.2847H5.05571V17.7148H7.45785C7.6841 20.9371 7.64024 23.6448 4.99121 27.1769L6.76189 30.7188C8.4246 30.7188 10.104 30.2337 11.7246 29.7686C13.4236 29.2787 15.1761 28.7731 16.6387 28.9336L16.6612 28.9367C17.8724 29.0581 18.6678 29.4264 19.5832 29.8487C20.7681 30.3962 22.0684 31 24.0139 31C24.6109 31 25.271 30.9429 26.0088 30.8093L25.2142 26.4537Z" fill="#40B3FF"/>
</svg>
