<svg width="68" height="68" viewBox="0 0 68 68" fill="none" xmlns="http://www.w3.org/2000/svg">
<path d="M48.7982 63.9157H20.8906C20.6212 63.9157 20.3628 64.0227 20.1723 64.2132C19.9818 64.4037 19.8748 64.6621 19.8748 64.9315C19.8748 65.2009 19.9818 65.4592 20.1723 65.6497C20.3628 65.8402 20.6212 65.9472 20.8906 65.9472H48.7982C49.0676 65.9472 49.326 65.8402 49.5164 65.6497C49.7069 65.4592 49.814 65.2009 49.814 64.9315C49.814 64.6621 49.7069 64.4037 49.5164 64.2132C49.326 64.0227 49.0676 63.9157 48.7982 63.9157ZM16.426 63.9157C16.1566 63.9157 15.8982 64.0227 15.7077 64.2132C15.5172 64.4037 15.4102 64.6621 15.4102 64.9315C15.4102 65.2009 15.5172 65.4592 15.7077 65.6497C15.8982 65.8402 16.1566 65.9472 16.426 65.9472H17.5405C17.8099 65.9472 18.0683 65.8402 18.2588 65.6497C18.4493 65.4592 18.5563 65.2009 18.5563 64.9315C18.5563 64.6621 18.4493 64.4037 18.2588 64.2132C18.0683 64.0227 17.8099 63.9157 17.5405 63.9157H16.426ZM53.2681 63.9157H52.1536C51.8842 63.9157 51.6258 64.0227 51.4353 64.2132C51.2448 64.4037 51.1378 64.6621 51.1378 64.9315C51.1378 65.2009 51.2448 65.4592 51.4353 65.6497C51.6258 65.8402 51.8842 65.9472 52.1536 65.9472H53.2681C53.5375 65.9472 53.7959 65.8402 53.9864 65.6497C54.1769 65.4592 54.2839 65.2009 54.2839 64.9315C54.2839 64.6621 54.1769 64.4037 53.9864 64.2132C53.7959 64.0227 53.5375 63.9157 53.2681 63.9157ZM53.7643 2.05273H14.2372C13.9678 2.05273 13.7095 2.15975 13.519 2.35024C13.3285 2.54073 13.2215 2.79909 13.2215 3.06848V15.8015H9.89902C8.91778 15.8026 7.97704 16.1928 7.2831 16.8866C6.58916 17.5803 6.19867 18.5209 6.19727 19.5022V48.0526C6.19839 49.034 6.58876 49.9749 7.28273 50.6689C7.97669 51.3629 8.9176 51.7532 9.89902 51.7544H29.8676C29.806 53.1207 29.1143 55.8025 23.7795 59.9473C23.6123 60.0772 23.4898 60.2561 23.4293 60.4591C23.3687 60.662 23.3731 60.8788 23.4418 61.0791C23.5105 61.2794 23.6402 61.4532 23.8125 61.5763C23.9849 61.6993 24.1914 61.7654 24.4032 61.7652H45.3886C45.5973 61.7655 45.801 61.7013 45.9719 61.5816C46.1428 61.4619 46.2727 61.2924 46.3437 61.0962C46.4148 60.9 46.4237 60.6867 46.3691 60.4853C46.3146 60.2839 46.1993 60.1042 46.0389 59.9707C41.1918 55.9204 40.1983 53.2121 39.9933 51.7554H58.1025C59.0839 51.7543 60.0248 51.3639 60.7188 50.67C61.4128 49.976 61.8031 49.0351 61.8043 48.0537V19.5022C61.8029 18.5209 61.4124 17.5803 60.7184 16.8866C60.0245 16.1928 59.0837 15.8026 58.1025 15.8015H54.7801V3.06848C54.7801 2.93509 54.7538 2.80301 54.7028 2.67977C54.6517 2.55654 54.5769 2.44456 54.4826 2.35024C54.3882 2.25592 54.2763 2.1811 54.153 2.13005C54.0298 2.07901 53.8977 2.05273 53.7643 2.05273ZM15.253 4.08423H52.7486V44.7015H15.253V4.08423ZM9.89902 17.833H13.2215V44.795H8.22877V19.5022C8.22877 18.582 8.97783 17.833 9.89902 17.833ZM42.7919 59.7337H27.1264C31.2149 55.7664 31.8365 53.2939 31.8938 51.7544H37.9437C38.0935 53.2217 38.8691 55.7154 42.7919 59.7337ZM58.1025 49.7229H9.89902C9.45621 49.7223 9.0317 49.5461 8.71859 49.233C8.40548 48.9199 8.22933 48.4954 8.22877 48.0526V46.8254H59.7728V48.0526C59.7728 48.9738 59.0237 49.7229 58.1025 49.7229ZM58.1025 17.833C59.0237 17.833 59.7728 18.582 59.7728 19.5022V44.795H54.7801V17.833H58.1025Z" fill="url(#paint0_linear_601_12035)"/>
<path d="M21.2501 31.4027H46.7512C47.0206 31.4027 47.2789 31.2957 47.4694 31.1052C47.6599 30.9147 47.7669 30.6563 47.7669 30.3869C47.7669 30.1176 47.6599 29.8592 47.4694 29.6687C47.2789 29.4782 47.0206 29.3712 46.7512 29.3712H21.2501C20.9807 29.3712 20.7224 29.4782 20.5319 29.6687C20.3414 29.8592 20.2344 30.1176 20.2344 30.3869C20.2344 30.6563 20.3414 30.9147 20.5319 31.1052C20.7224 31.2957 20.9807 31.4027 21.2501 31.4027ZM40.0553 34.0058H27.9471C27.6777 34.0058 27.4193 34.1128 27.2288 34.3033C27.0383 34.4938 26.9313 34.7522 26.9313 35.0216C26.9313 35.291 27.0383 35.5493 27.2288 35.7398C27.4193 35.9303 27.6777 36.0373 27.9471 36.0373H40.0553C40.3247 36.0373 40.5831 35.9303 40.7736 35.7398C40.964 35.5493 41.0711 35.291 41.0711 35.0216C41.0711 34.7522 40.964 34.4938 40.7736 34.3033C40.5831 34.1128 40.3247 34.0058 40.0553 34.0058ZM35.9955 38.3451H32.0069C31.8735 38.3451 31.7414 38.3713 31.6182 38.4224C31.4949 38.4734 31.383 38.5483 31.2886 38.6426C31.1943 38.7369 31.1195 38.8489 31.0684 38.9721C31.0174 39.0953 30.9911 39.2274 30.9911 39.3608C30.9911 39.4942 31.0174 39.6263 31.0684 39.7495C31.1195 39.8728 31.1943 39.9847 31.2886 40.0791C31.383 40.1734 31.4949 40.2482 31.6182 40.2993C31.7414 40.3503 31.8735 40.3766 32.0069 40.3766H35.9955C36.1289 40.3766 36.261 40.3503 36.3842 40.2993C36.5074 40.2482 36.6194 40.1734 36.7137 40.0791C36.8081 39.9847 36.8829 39.8728 36.9339 39.7495C36.985 39.6263 37.0112 39.4942 37.0112 39.3608C37.0112 39.2274 36.985 39.0953 36.9339 38.9721C36.8829 38.8489 36.8081 38.7369 36.7137 38.6426C36.6194 38.5483 36.5074 38.4734 36.3842 38.4224C36.261 38.3713 36.1289 38.3451 35.9955 38.3451ZM33.0247 24.8832C34.8464 24.8825 36.6228 24.315 38.1074 23.2593C39.592 22.2036 40.7113 20.7121 41.3101 18.9916C41.3539 18.8656 41.3724 18.7323 41.3646 18.5991C41.3568 18.466 41.3228 18.3357 41.2646 18.2157C41.2065 18.0956 41.1252 17.9882 41.0256 17.8996C40.9259 17.811 40.8098 17.7428 40.6838 17.6991C40.5578 17.6554 40.4244 17.6369 40.2913 17.6447C40.1581 17.6525 40.0278 17.6864 39.9078 17.7446C39.7878 17.8027 39.6804 17.884 39.5917 17.9836C39.5031 18.0833 39.435 18.1995 39.3913 18.3254C39.1359 19.0504 38.7578 19.7261 38.2735 20.3229C36.9262 18.8046 35.0371 17.9174 33.0226 17.9174C31.0007 17.9174 29.119 18.8068 27.7728 20.3261C26.8108 19.1341 26.2866 17.6483 26.2874 16.1165C26.2894 14.3303 26.9999 12.6178 28.2629 11.3547C29.526 10.0916 31.2385 9.38117 33.0247 9.3792C35.1349 9.3792 37.0835 10.3397 38.3723 12.0174C38.5395 12.2218 38.7798 12.3531 39.0422 12.3834C39.3045 12.4136 39.5684 12.3405 39.7778 12.1795C39.9871 12.0185 40.1255 11.7823 40.1637 11.521C40.2018 11.2596 40.1366 10.9937 39.982 10.7796C39.1662 9.70901 38.1135 8.842 36.9064 8.24657C35.6993 7.65114 34.3707 7.34347 33.0247 7.3477C28.1904 7.3477 24.257 11.2811 24.257 16.1154C24.257 20.9498 28.1904 24.8832 33.0247 24.8832ZM33.0226 19.7439C34.5303 19.7439 35.9487 20.4228 36.9549 21.5831C35.81 22.407 34.4353 22.8504 33.0247 22.8506C31.6147 22.8506 30.2407 22.4051 29.0988 21.5778C30.1039 20.4207 31.5128 19.7439 33.0226 19.7439Z" fill="url(#paint1_linear_601_12035)"/>
<path d="M30.1172 13.5556C30.1172 15.1143 31.3614 16.8579 33.0252 16.8579C34.6902 16.8579 35.9333 15.1143 35.9333 13.5556C35.9333 11.9523 34.6286 10.6465 33.0252 10.6465C31.4219 10.6465 30.1172 11.9523 30.1172 13.5556ZM34.1058 13.5556C34.1058 14.2452 33.5299 15.0293 33.0252 15.0293C32.5206 15.0293 31.9447 14.2452 31.9447 13.5556C31.9447 13.269 32.0585 12.9942 32.2612 12.7915C32.4638 12.5889 32.7387 12.475 33.0252 12.475C33.3118 12.475 33.5867 12.5889 33.7893 12.7915C33.992 12.9942 34.1058 13.269 34.1058 13.5556ZM38.7404 13.4791C38.6378 13.3906 38.5185 13.3234 38.3896 13.2817C38.2606 13.24 38.1246 13.2244 37.9896 13.2361C37.8545 13.2477 37.7232 13.2863 37.6033 13.3495C37.4834 13.4126 37.3773 13.4992 37.2914 13.604C37.2054 13.7088 37.1413 13.8298 37.1028 13.9597C37.0644 14.0897 37.0523 14.226 37.0673 14.3608C37.0823 14.4955 37.1242 14.6258 37.1904 14.7441C37.2566 14.8624 37.3457 14.9662 37.4527 15.0495L39.1697 16.4573C39.2724 16.5425 39.391 16.6064 39.5187 16.6454C39.6463 16.6844 39.7804 16.6977 39.9132 16.6846C40.046 16.6715 40.1748 16.6321 40.2923 16.5688C40.4098 16.5056 40.5136 16.4196 40.5977 16.316L43.5153 12.7598C43.6039 12.6572 43.671 12.5379 43.7127 12.4089C43.7545 12.28 43.77 12.144 43.7583 12.0089C43.7467 11.8739 43.7081 11.7425 43.645 11.6226C43.5818 11.5027 43.4952 11.3967 43.3904 11.3107C43.2856 11.2248 43.1647 11.1607 43.0347 11.1222C42.9047 11.0837 42.7684 11.0716 42.6337 11.0867C42.499 11.1017 42.3686 11.1435 42.2503 11.2097C42.1321 11.2759 42.0282 11.3651 41.9449 11.472L39.6712 14.243L38.7404 13.4791Z" fill="url(#paint2_linear_601_12035)"/>
<defs>
<linearGradient id="paint0_linear_601_12035" x1="34.0008" y1="2.05273" x2="34.0008" y2="65.9472" gradientUnits="userSpaceOnUse">
<stop stop-color="#004DF7"/>
<stop offset="1" stop-color="#40B3FF"/>
</linearGradient>
<linearGradient id="paint1_linear_601_12035" x1="34.0007" y1="7.34766" x2="34.0007" y2="40.3766" gradientUnits="userSpaceOnUse">
<stop stop-color="#004DF7"/>
<stop offset="1" stop-color="#40B3FF"/>
</linearGradient>
<linearGradient id="paint2_linear_601_12035" x1="36.9396" y1="10.6465" x2="36.9396" y2="16.8579" gradientUnits="userSpaceOnUse">
<stop stop-color="#004DF7"/>
<stop offset="1" stop-color="#40B3FF"/>
</linearGradient>
</defs>
</svg>
