<svg width="68" height="68" viewBox="0 0 68 68" fill="none" xmlns="http://www.w3.org/2000/svg">
<rect width="68" height="68" fill="url(#paint0_linear_601_12046)"/>
<path d="M27.5 65.875C20.737 65.875 14.251 63.1884 9.46878 58.4062C4.6866 53.624 2 47.138 2 40.375C2 33.612 4.6866 27.126 9.46878 22.3438C14.251 17.5616 20.737 14.875 27.5 14.875C27.7818 14.875 28.052 14.9869 28.2513 15.1862C28.4506 15.3855 28.5625 15.6557 28.5625 15.9375C28.5625 16.2193 28.4506 16.4895 28.2513 16.6888C28.052 16.8881 27.7818 17 27.5 17C22.8769 17 18.3575 18.3709 14.5135 20.9394C10.6695 23.5079 7.67351 27.1586 5.90432 31.4298C4.13512 35.701 3.67221 40.4009 4.57414 44.9352C5.47607 49.4695 7.70233 53.6346 10.9714 56.9036C14.2404 60.1727 18.4055 62.3989 22.9398 63.3009C27.4741 64.2028 32.174 63.7399 36.4452 61.9707C40.7164 60.2015 44.3671 57.2055 46.9356 53.3615C49.5041 49.5175 50.875 44.9981 50.875 40.375C50.875 40.0932 50.9869 39.823 51.1862 39.6237C51.3855 39.4244 51.6557 39.3125 51.9375 39.3125C52.2193 39.3125 52.4895 39.4244 52.6888 39.6237C52.8881 39.823 53 40.0932 53 40.375C52.9921 47.1356 50.303 53.6171 45.5225 58.3975C40.7421 63.178 34.2606 65.8671 27.5 65.875Z" fill="url(#paint1_linear_601_12046)"/>
<path d="M19.2129 57.0839C19.0557 57.0839 18.8942 57.0786 18.7199 57.0658C15.5909 56.8438 11.5842 54.638 10.6067 51.7076C9.45069 48.2375 4.69919 42.381 2.58801 41.3313C2.3358 41.2053 2.14397 40.9843 2.0547 40.7169C1.96543 40.4495 1.98605 40.1576 2.11201 39.9054C2.23797 39.6532 2.45896 39.4613 2.72636 39.3721C2.99376 39.2828 3.28568 39.3034 3.53788 39.4294C6.34607 40.8298 11.3558 47.2313 12.6254 51.0351C13.2916 53.0358 16.5312 54.7804 18.8719 54.9461C19.6783 55.0067 20.2967 54.8537 20.4412 54.5626C20.7971 53.8507 20.4348 52.4567 20.0831 51.1084C19.5274 48.9738 18.8358 46.3176 20.6409 44.5113C23.2249 41.9263 23.4927 41.5363 21.8628 39.9043C20.9703 39.0107 18.3449 38.4041 16.2316 37.9153C13.3363 37.2449 11.2442 36.7604 10.6163 35.4269C10.4974 35.169 10.4398 34.8872 10.4479 34.6033C10.456 34.3195 10.5296 34.0414 10.663 33.7907C11.4227 32.2724 13.417 31.8368 15.3465 31.4139C17.6192 30.9187 19.1067 30.5086 19.1067 29.3781C19.1067 26.8037 14.8779 22.8395 13.3968 21.6548C13.2878 21.5677 13.197 21.4599 13.1296 21.3377C13.0622 21.2155 13.0195 21.0811 13.004 20.9424C12.9727 20.6623 13.054 20.3812 13.23 20.1609C13.406 19.9407 13.6622 19.7994 13.9424 19.7681C14.2226 19.7369 14.5037 19.8181 14.7239 19.9941C15.3901 20.5254 21.2317 25.3194 21.2317 29.3781C21.2317 32.3032 18.2216 32.9609 15.8023 33.4911C14.5921 33.7556 13.1068 34.0797 12.6531 34.6109C13.952 35.1844 15.3155 35.5986 16.7139 35.8445C19.333 36.4512 22.0403 37.077 23.3641 38.4019C26.5591 41.5969 24.5127 43.6422 22.1433 46.0126C21.2625 46.8934 21.5696 48.3894 22.1433 50.5729C22.5938 52.3005 23.0592 54.0876 22.3473 55.5124C22.0379 56.0541 21.5753 56.4922 21.0176 56.7718C20.4599 57.0514 19.8321 57.16 19.2129 57.0839ZM37.9714 63.325C37.5668 63.1962 37.1731 63.0352 36.7941 62.8437C36.2318 62.602 35.7277 62.2426 35.3159 61.7897C34.904 61.3368 34.594 60.801 34.4067 60.2183C34.2847 59.6419 34.2893 59.0459 34.4203 58.4715C34.5513 57.8971 34.8055 57.358 35.1653 56.8916C37.4348 53.4947 37.4348 50.0437 37.4348 45.2625H39.5598C39.5598 50.2212 39.5598 54.1376 36.9376 58.0699C36.752 58.2912 36.6144 58.5487 36.5334 58.8259C36.4524 59.1032 36.4297 59.3942 36.4669 59.6806C36.7137 60.2563 37.1776 60.7114 37.7578 60.9471C38.0335 61.0862 38.3199 61.2031 38.6142 61.2967L37.9714 63.325ZM41.3129 36.125C39.8456 36.1259 38.3978 35.7891 37.0815 35.1408C35.7652 34.4924 34.6158 33.5498 33.7222 32.386C32.8287 31.2221 32.2149 29.8683 31.9285 28.4292C31.642 26.9901 31.6906 25.5044 32.0705 24.0871C32.4503 22.6698 33.1512 21.3589 34.1189 20.256C35.0866 19.153 36.2951 18.2875 37.651 17.7265C39.0068 17.1655 40.4736 16.924 41.9377 17.0208C43.4018 17.1176 44.824 17.55 46.0942 18.2846C46.2212 18.351 46.3334 18.4424 46.4241 18.5533C46.5149 18.6642 46.5822 18.7924 46.6221 18.93C46.6621 19.0676 46.6737 19.2119 46.6564 19.3541C46.6392 19.4964 46.5933 19.6337 46.5216 19.7577C46.4499 19.8818 46.3538 19.9901 46.2392 20.0761C46.1245 20.162 45.9937 20.2239 45.8545 20.258C45.7153 20.2921 45.5707 20.2977 45.4293 20.2744C45.2879 20.2512 45.1526 20.1996 45.0317 20.1227C43.4691 19.2203 41.6317 18.9167 39.8618 19.2686C38.092 19.6204 36.5104 20.6037 35.4119 22.0353C34.3133 23.4668 33.7726 25.2489 33.8906 27.0495C34.0085 28.8501 34.7771 30.5464 36.053 31.8224C37.329 33.0984 39.0253 33.8669 40.8259 33.9849C42.6266 34.1028 44.4087 33.5622 45.8402 32.4636C47.2717 31.365 48.255 29.7834 48.6069 28.0136C48.9587 26.2438 48.6552 24.4064 47.7528 22.8437C47.6219 22.6005 47.5908 22.3158 47.6663 22.0501C47.7417 21.7843 47.9177 21.5584 48.1569 21.4202C48.3961 21.2821 48.6797 21.2425 48.9476 21.3099C49.2155 21.3772 49.4466 21.5463 49.5919 21.7812C50.4311 23.2348 50.873 24.8835 50.8731 26.5619C50.8732 28.2403 50.4315 29.8891 49.5925 31.3427C48.7535 32.7963 47.5467 34.0035 46.0934 34.843C44.64 35.6824 42.9913 36.1246 41.3129 36.125Z" fill="url(#paint2_linear_601_12046)"/>
<path d="M41.3128 41.4375C38.9894 41.4385 36.6981 40.8952 34.6225 39.8512C32.5469 38.8071 30.7447 37.2914 29.3604 35.4255C27.976 33.5596 27.048 31.3953 26.6507 29.1061C26.2534 26.817 26.3979 24.4666 27.0725 22.2433C27.7472 20.02 28.9332 17.9857 30.5356 16.3033C32.1381 14.6209 34.1123 13.3373 36.3001 12.5553C38.488 11.7734 40.8285 11.5147 43.1343 11.8002C45.4401 12.0857 47.647 12.9073 49.578 14.1993C49.8122 14.3561 49.9745 14.5995 50.0292 14.876C50.0839 15.1524 50.0265 15.4393 49.8697 15.6735C49.7129 15.9076 49.4694 16.0699 49.193 16.1246C48.9165 16.1793 48.6296 16.1219 48.3955 15.9651C45.762 14.2043 42.5677 13.4861 39.434 13.9502C36.3003 14.4142 33.4513 16.0274 31.4413 18.4759C29.4312 20.9244 28.4038 24.0331 28.559 27.1971C28.7142 30.3612 30.0409 33.3544 32.2809 35.5944C34.5209 37.8345 37.5141 39.1611 40.6782 39.3163C43.8423 39.4715 46.9509 38.4441 49.3994 36.4341C51.8479 34.424 53.4611 31.575 53.9252 28.4413C54.3892 25.3076 53.671 22.1133 51.9102 19.4799C51.8285 19.3641 51.7708 19.2332 51.7405 19.0948C51.7102 18.9564 51.7079 18.8133 51.7336 18.674C51.7594 18.5347 51.8128 18.4019 51.8907 18.2836C51.9685 18.1652 52.0692 18.0636 52.1869 17.9847C52.3046 17.9059 52.4369 17.8513 52.576 17.8243C52.7151 17.7974 52.8582 17.7985 52.9968 17.8276C53.1355 17.8567 53.2669 17.9133 53.3834 17.9939C53.4998 18.0746 53.599 18.1778 53.675 18.2973C55.1738 20.5362 56.0362 23.1402 56.1699 25.8311C56.3036 28.522 55.7036 31.1987 54.4341 33.575C53.1645 35.9514 51.2731 37.9382 48.9621 39.323C46.651 40.7079 44.0071 41.4387 41.3128 41.4375Z" fill="url(#paint3_linear_601_12046)"/>
<path d="M58.3125 27.6248H46.625C46.3432 27.6248 46.073 27.5128 45.8737 27.3136C45.6744 27.1143 45.5625 26.8441 45.5625 26.5623C45.5625 26.2805 45.6744 26.0102 45.8737 25.811C46.073 25.6117 46.3432 25.4998 46.625 25.4998H58.3125C58.5943 25.4998 58.8645 25.6117 59.0638 25.811C59.2631 26.0102 59.375 26.2805 59.375 26.5623C59.375 26.8441 59.2631 27.1143 59.0638 27.3136C58.8645 27.5128 58.5943 27.6248 58.3125 27.6248ZM41.3125 22.3123C41.0307 22.3123 40.7605 22.2003 40.5612 22.0011C40.3619 21.8018 40.25 21.5316 40.25 21.2498V9.56227C40.25 9.28048 40.3619 9.01023 40.5612 8.81097C40.7605 8.61172 41.0307 8.49977 41.3125 8.49977C41.5943 8.49977 41.8645 8.61172 42.0638 8.81097C42.2631 9.01023 42.375 9.28048 42.375 9.56227V21.2498C42.375 21.5316 42.2631 21.8018 42.0638 22.0011C41.8645 22.2003 41.5943 22.3123 41.3125 22.3123ZM36 27.6248H24.3125C24.0307 27.6248 23.7605 27.5128 23.5612 27.3136C23.3619 27.1143 23.25 26.8441 23.25 26.5623C23.25 26.2805 23.3619 26.0102 23.5612 25.811C23.7605 25.6117 24.0307 25.4998 24.3125 25.4998H36C36.2818 25.4998 36.552 25.6117 36.7513 25.811C36.9506 26.0102 37.0625 26.2805 37.0625 26.5623C37.0625 26.8441 36.9506 27.1143 36.7513 27.3136C36.552 27.5128 36.2818 27.6248 36 27.6248ZM41.3125 44.6248C41.0307 44.6248 40.7605 44.5128 40.5612 44.3136C40.3619 44.1143 40.25 43.8441 40.25 43.5623V31.8748C40.25 31.593 40.3619 31.3227 40.5612 31.1235C40.7605 30.9242 41.0307 30.8123 41.3125 30.8123C41.5943 30.8123 41.8645 30.9242 42.0638 31.1235C42.2631 31.3227 42.375 31.593 42.375 31.8748V43.5623C42.375 43.8441 42.2631 44.1143 42.0638 44.3136C41.8645 44.5128 41.5943 44.6248 41.3125 44.6248ZM41.3125 27.6248C41.1024 27.6247 40.897 27.5624 40.7223 27.4456C40.5476 27.3289 40.4115 27.163 40.3311 26.9688C40.2507 26.7747 40.2297 26.5611 40.2706 26.3551C40.3116 26.149 40.4128 25.9597 40.5613 25.8111L50.875 15.4974V9.56227C50.8751 9.2805 50.987 9.0103 51.1863 8.81109L57.5613 2.43609C57.7099 2.28754 57.8992 2.18638 58.1053 2.1454C58.3114 2.10443 58.525 2.12547 58.7191 2.20587C58.9132 2.28627 59.0791 2.42241 59.1959 2.5971C59.3126 2.77178 59.375 2.97716 59.375 3.18727V8.49977H64.6875C64.8976 8.49982 65.103 8.56216 65.2777 8.67891C65.4524 8.79566 65.5885 8.96159 65.6689 9.1557C65.7493 9.34982 65.7703 9.56342 65.7294 9.76949C65.6884 9.97557 65.5872 10.1649 65.4387 10.3135L59.0637 16.6885C58.8645 16.8877 58.5943 16.9997 58.3125 16.9998H52.3774L42.0637 27.3135C41.8645 27.5127 41.5943 27.6247 41.3125 27.6248ZM54.5024 14.8748H57.8726L62.1226 10.6248H58.7524L54.5024 14.8748ZM53 10.0021V13.3724L57.25 9.1224V5.75215L53 10.0021Z" fill="url(#paint4_linear_601_12046)"/>
<defs>
<linearGradient id="paint0_linear_601_12046" x1="34" y1="0" x2="34" y2="68" gradientUnits="userSpaceOnUse">
<stop stop-color="white"/>
<stop offset="1" stop-color="white" stop-opacity="0"/>
</linearGradient>
<linearGradient id="paint1_linear_601_12046" x1="27.4999" y1="0.374948" x2="27.4999" y2="74.7752" gradientUnits="userSpaceOnUse">
<stop stop-color="#004DF7"/>
<stop offset="1" stop-color="#40B3FF"/>
</linearGradient>
<linearGradient id="paint2_linear_601_12046" x1="26.4365" y1="3.82912" x2="26.4365" y2="71.4094" gradientUnits="userSpaceOnUse">
<stop stop-color="#004DF7"/>
<stop offset="1" stop-color="#40B3FF"/>
</linearGradient>
<linearGradient id="paint3_linear_601_12046" x1="41.3099" y1="3.22914" x2="41.3099" y2="46.6293" gradientUnits="userSpaceOnUse">
<stop stop-color="#004DF7"/>
<stop offset="1" stop-color="#40B3FF"/>
</linearGradient>
<linearGradient id="paint4_linear_601_12046" x1="44.4998" y1="-9.95831" x2="44.4998" y2="52.0416" gradientUnits="userSpaceOnUse">
<stop stop-color="#004DF7"/>
<stop offset="1" stop-color="#40B3FF"/>
</linearGradient>
</defs>
</svg>
