<svg width="60" height="60" viewBox="0 0 60 60" fill="none" xmlns="http://www.w3.org/2000/svg">
<g clip-path="url(#clip0_601_12052)">
<path d="M50 32.5774V5.98535C49.9982 4.39462 49.3654 2.86957 48.2406 1.74476C47.1158 0.61994 45.5907 -0.0127958 44 -0.0146484H6C4.4104 -0.00911386 2.88749 0.624804 1.76347 1.74883C0.639453 2.87285 0.00553458 4.39576 0 5.98535L0 21.9854C0 22.5158 0.210714 23.0245 0.585787 23.3996C0.960859 23.7746 1.46957 23.9854 2 23.9854H10V50.3604C9.99896 50.7179 10.0942 51.069 10.2756 51.3771C10.457 51.6851 10.718 51.9387 11.0312 52.1111C11.3443 52.2835 11.6981 52.3685 12.0555 52.3571C12.4128 52.3457 12.7605 52.2384 13.062 52.0464L15.756 50.3554L19.449 52.6874C19.768 52.8855 20.136 52.9904 20.5115 52.9904C20.887 52.9904 21.255 52.8855 21.574 52.6874L25.266 50.3574L28.933 52.6754C29.2523 52.8803 29.6236 52.9892 30.003 52.9892C30.3824 52.9892 30.7537 52.8803 31.073 52.6754L33.091 51.4004C34.0027 53.5787 35.4505 55.491 37.2998 56.9594C39.1491 58.4278 41.3397 59.4046 43.668 59.7989C45.9962 60.1932 48.3863 59.9922 50.616 59.2145C52.8456 58.4369 54.8424 57.1079 56.4204 55.3512C57.9985 53.5946 59.1066 51.4673 59.6416 49.1673C60.1766 46.8673 60.1211 44.4694 59.4804 42.1966C58.8396 39.9238 57.6344 37.85 55.9768 36.1682C54.3193 34.4863 52.2632 33.2511 50 32.5774ZM10 21.9874H2V5.98735C2.00475 4.92622 2.42908 3.91005 3.18035 3.16064C3.93163 2.41124 4.94886 1.98945 6.01 1.98735H6.089C6.19284 1.98493 6.29673 1.98928 6.4 2.00035C7.41128 2.13579 8.33729 2.63885 9.0013 3.41353C9.66531 4.1882 10.0208 5.18025 10 6.20035V21.9874ZM30 50.9874L26.333 48.6684C26.0134 48.4638 25.6419 48.3551 25.2625 48.3551C24.8831 48.3551 24.5116 48.4638 24.192 48.6684L20.511 50.9984L16.823 48.6704C16.504 48.4652 16.1328 48.3561 15.7535 48.3561C15.3742 48.3561 15.003 48.4652 14.684 48.6704L12 50.3604V6.20035C11.9985 4.64846 11.4294 3.15071 10.4 1.98935H44C45.0609 1.98935 46.0783 2.41078 46.8284 3.16092C47.5786 3.91107 48 4.92849 48 5.98935V32.1474C45.7205 31.8063 43.392 32.0359 41.223 32.8155C39.0539 33.5951 37.1121 34.9004 35.5713 36.6145C34.0304 38.3287 32.9387 40.3982 32.3938 42.6377C31.8489 44.8772 31.8679 47.2169 32.449 49.4474L30 50.9874ZM46 57.9904C43.6266 57.9904 41.3066 57.2866 39.3332 55.968C37.3598 54.6494 35.8217 52.7753 34.9134 50.5826C34.0052 48.3898 33.7676 45.977 34.2306 43.6493C34.6936 41.3215 35.8365 39.1833 37.5147 37.5051C39.193 35.8268 41.3312 34.684 43.6589 34.2209C45.9867 33.7579 48.3995 33.9955 50.5922 34.9038C52.7849 35.8121 54.6591 37.3501 55.9776 39.3235C57.2962 41.2969 58 43.617 58 45.9904C57.9963 49.1718 56.7308 52.2219 54.4812 54.4715C52.2316 56.7212 49.1815 57.9867 46 57.9904Z" fill="url(#paint0_linear_601_12052)"/>
<path d="M16 21.9874H44C44.2652 21.9874 44.5196 21.882 44.7071 21.6945C44.8946 21.5069 45 21.2526 45 20.9874C45 20.7221 44.8946 20.4678 44.7071 20.2802C44.5196 20.0927 44.2652 19.9874 44 19.9874H16C15.7348 19.9874 15.4804 20.0927 15.2929 20.2802C15.1054 20.4678 15 20.7221 15 20.9874C15 21.2526 15.1054 21.5069 15.2929 21.6945C15.4804 21.882 15.7348 21.9874 16 21.9874ZM30 39.9883H16C15.7348 39.9883 15.4804 40.0937 15.2929 40.2812C15.1054 40.4688 15 40.7231 15 40.9883C15 41.2536 15.1054 41.5079 15.2929 41.6955C15.4804 41.883 15.7348 41.9883 16 41.9883H30C30.2652 41.9883 30.5196 41.883 30.7071 41.6955C30.8946 41.5079 31 41.2536 31 40.9883C31 40.7231 30.8946 40.4688 30.7071 40.2812C30.5196 40.0937 30.2652 39.9883 30 39.9883ZM16 26.9874H19C19.2652 26.9874 19.5196 26.882 19.7071 26.6945C19.8946 26.5069 20 26.2526 20 25.9874C20 25.7221 19.8946 25.4678 19.7071 25.2802C19.5196 25.0927 19.2652 24.9874 19 24.9874H16C15.7348 24.9874 15.4804 25.0927 15.2929 25.2802C15.1054 25.4678 15 25.7221 15 25.9874C15 26.2526 15.1054 26.5069 15.2929 26.6945C15.4804 26.882 15.7348 26.9874 16 26.9874ZM40 24.9874H23C22.7348 24.9874 22.4804 25.0927 22.2929 25.2802C22.1054 25.4678 22 25.7221 22 25.9874C22 26.2526 22.1054 26.5069 22.2929 26.6945C22.4804 26.882 22.7348 26.9874 23 26.9874H40C40.2652 26.9874 40.5196 26.882 40.7071 26.6945C40.8946 26.5069 41 26.2526 41 25.9874C41 25.7221 40.8946 25.4678 40.7071 25.2802C40.5196 25.0927 40.2652 24.9874 40 24.9874ZM16 31.9884H19C19.2652 31.9884 19.5196 31.883 19.7071 31.6955C19.8946 31.5079 20 31.2536 20 30.9884C20 30.7231 19.8946 30.4688 19.7071 30.2812C19.5196 30.0937 19.2652 29.9884 19 29.9884H16C15.7348 29.9884 15.4804 30.0937 15.2929 30.2812C15.1054 30.4688 15 30.7231 15 30.9884C15 31.2536 15.1054 31.5079 15.2929 31.6955C15.4804 31.883 15.7348 31.9884 16 31.9884ZM39 29.9874H23C22.7348 29.9874 22.4804 30.0927 22.2929 30.2802C22.1054 30.4678 22 30.7221 22 30.9874C22 31.2526 22.1054 31.5069 22.2929 31.6945C22.4804 31.882 22.7348 31.9874 23 31.9874H39C39.2652 31.9874 39.5196 31.882 39.7071 31.6945C39.8946 31.5069 40 31.2526 40 30.9874C40 30.7221 39.8946 30.4678 39.7071 30.2802C39.5196 30.0927 39.2652 29.9874 39 29.9874ZM16 36.9883H19C19.2652 36.9883 19.5196 36.883 19.7071 36.6955C19.8946 36.5079 20 36.2536 20 35.9883C20 35.7231 19.8946 35.4688 19.7071 35.2812C19.5196 35.0937 19.2652 34.9883 19 34.9883H16C15.7348 34.9883 15.4804 35.0937 15.2929 35.2812C15.1054 35.4688 15 35.7231 15 35.9883C15 36.2536 15.1054 36.5079 15.2929 36.6955C15.4804 36.883 15.7348 36.9883 16 36.9883ZM33 34.9883H23C22.7348 34.9883 22.4804 35.0937 22.2929 35.2812C22.1054 35.4688 22 35.7231 22 35.9883C22 36.2536 22.1054 36.5079 22.2929 36.6955C22.4804 36.883 22.7348 36.9883 23 36.9883H33C33.2652 36.9883 33.5196 36.883 33.7071 36.6955C33.8946 36.5079 34 36.2536 34 35.9883C34 35.7231 33.8946 35.4688 33.7071 35.2812C33.5196 35.0937 33.2652 34.9883 33 34.9883ZM19 11.9854C19.1755 11.9855 19.3479 12.0319 19.4998 12.1198C19.6517 12.2076 19.7778 12.3339 19.8654 12.486C19.9531 12.638 19.9991 12.8105 19.999 12.986C19.9989 13.1615 19.9526 13.3338 19.8648 13.4858C19.777 13.6377 19.6507 13.7639 19.4987 13.8516C19.3467 13.9393 19.1743 13.9854 18.9988 13.9854C18.8233 13.9853 18.6509 13.9391 18.4989 13.8513C18.3469 13.7636 18.2207 13.6373 18.133 13.4854C18.0696 13.3675 17.9831 13.2635 17.8788 13.1797C17.7744 13.0958 17.6543 13.0338 17.5255 12.9972C17.3967 12.9607 17.2619 12.9504 17.1291 12.9669C16.9963 12.9834 16.8681 13.0264 16.7522 13.0933C16.6363 13.1603 16.535 13.2499 16.4543 13.3567C16.3737 13.4635 16.3153 13.5855 16.2826 13.7153C16.25 13.8451 16.2437 13.9801 16.2642 14.1124C16.2847 14.2447 16.3316 14.3715 16.402 14.4854C16.7646 15.0945 17.3315 15.5552 18.002 15.7854V15.9854C18.002 16.2506 18.1074 16.5049 18.2949 16.6925C18.4824 16.88 18.7368 16.9854 19.002 16.9854C19.2672 16.9854 19.5216 16.88 19.7091 16.6925C19.8966 16.5049 20.002 16.2506 20.002 15.9854V15.8004C20.6694 15.566 21.2322 15.1029 21.5907 14.4932C21.9492 13.8834 22.0801 13.1664 21.9603 12.4693C21.8404 11.7721 21.4776 11.14 20.936 10.6849C20.3945 10.2299 19.7093 9.98133 19.002 9.98335C18.8265 9.98318 18.6541 9.93683 18.5022 9.84895C18.3503 9.76107 18.2242 9.63477 18.1366 9.48272C18.0489 9.33067 18.0029 9.15824 18.003 8.98274C18.0031 8.80725 18.0494 8.63487 18.1372 8.48293C18.225 8.33099 18.3513 8.20484 18.5033 8.11714C18.6553 8.02945 18.8277 7.98331 19.0032 7.98335C19.1787 7.98339 19.3511 8.02962 19.5031 8.11739C19.6551 8.20515 19.7813 8.33137 19.869 8.48335C20.0058 8.70445 20.2233 8.86359 20.4754 8.92702C20.7276 8.99045 20.9945 8.95318 21.2196 8.82313C21.4448 8.69307 21.6104 8.48045 21.6814 8.23034C21.7524 7.98023 21.7232 7.7123 21.6 7.48335C21.238 6.87309 20.6709 6.41129 20 6.18035V5.98535C20 5.72014 19.8946 5.46578 19.7071 5.27824C19.5196 5.09071 19.2652 4.98535 19 4.98535C18.7348 4.98535 18.4804 5.09071 18.2929 5.27824C18.1054 5.46578 18 5.72014 18 5.98535V6.16935C17.3333 6.40417 16.7713 6.86736 16.4134 7.47688C16.0555 8.08641 15.9248 8.80292 16.0446 9.49953C16.1644 10.1961 16.5268 10.8279 17.0678 11.2829C17.6087 11.7378 18.2932 11.9867 19 11.9854ZM26 11.9854H35C35.2652 11.9854 35.5196 11.88 35.7071 11.6925C35.8946 11.5049 36 11.2506 36 10.9854C36 10.7201 35.8946 10.4658 35.7071 10.2782C35.5196 10.0907 35.2652 9.98535 35 9.98535H26C25.7348 9.98535 25.4804 10.0907 25.2929 10.2782C25.1054 10.4658 25 10.7201 25 10.9854C25 11.2506 25.1054 11.5049 25.2929 11.6925C25.4804 11.88 25.7348 11.9854 26 11.9854ZM26 16.9864H44C44.2652 16.9864 44.5196 16.881 44.7071 16.6935C44.8946 16.5059 45 16.2516 45 15.9864C45 15.7211 44.8946 15.4668 44.7071 15.2792C44.5196 15.0917 44.2652 14.9864 44 14.9864H26C25.7348 14.9864 25.4804 15.0917 25.2929 15.2792C25.1054 15.4668 25 15.7211 25 15.9864C25 16.2516 25.1054 16.5059 25.2929 16.6935C25.4804 16.881 25.7348 16.9864 26 16.9864ZM50.181 40.4154L43.864 49.4403L41.707 47.2824C41.519 47.0948 41.2641 46.9897 40.9986 46.9901C40.733 46.9905 40.4785 47.0963 40.291 47.2844C40.1035 47.4724 39.9984 47.7272 39.9987 47.9928C39.9991 48.2583 40.105 48.5128 40.293 48.7004L43.293 51.7004C43.481 51.8868 43.7352 51.9911 44 51.9904C44.029 51.9918 44.058 51.9918 44.087 51.9904C44.2325 51.9776 44.3734 51.9331 44.4999 51.86C44.6264 51.7869 44.7353 51.687 44.819 51.5674L51.819 41.5674C51.8972 41.4599 51.9532 41.338 51.9837 41.2087C52.0143 41.0794 52.0188 40.9453 51.9969 40.8142C51.975 40.6832 51.9273 40.5578 51.8564 40.4454C51.7855 40.333 51.693 40.2359 51.5841 40.1597C51.4753 40.0835 51.3524 40.0297 51.2225 40.0015C51.0927 39.9734 50.9585 39.9714 50.8279 39.9956C50.6972 40.0199 50.5728 40.07 50.4617 40.1429C50.3506 40.2158 50.2552 40.3101 50.181 40.4203V40.4154Z" fill="url(#paint1_linear_601_12052)"/>
</g>
<defs>
<linearGradient id="paint0_linear_601_12052" x1="30.0028" y1="-0.0146484" x2="30.0028" y2="59.9954" gradientUnits="userSpaceOnUse">
<stop stop-color="#004DF7"/>
<stop offset="1" stop-color="#40B3FF"/>
</linearGradient>
<linearGradient id="paint1_linear_601_12052" x1="33.5053" y1="4.98535" x2="33.5053" y2="51.9915" gradientUnits="userSpaceOnUse">
<stop stop-color="#004DF7"/>
<stop offset="1" stop-color="#40B3FF"/>
</linearGradient>
<clipPath id="clip0_601_12052">
<rect width="60" height="60" fill="white"/>
</clipPath>
</defs>
</svg>
