<svg width="85" height="57" viewBox="0 0 85 57" fill="none" xmlns="http://www.w3.org/2000/svg">
<path d="M84.2445 3.86163C83.7723 3.5296 83.167 3.44825 82.6241 3.64896L68.1877 8.89922C66.3979 9.5495 64.9728 10.8604 64.1756 12.5896C64.0262 12.9138 63.9281 13.2507 63.8298 13.587C61.3509 12.8823 56.7439 11.4104 52.1655 9.05145C45.2472 5.48659 39.9617 7.24736 35.4285 10.7051C33.1315 10.7503 29.9655 11.0219 26.8534 11.2962C24.8682 11.4713 22.992 11.6325 21.4707 11.7253C21.4328 10.7993 21.2134 9.88966 20.825 9.04813C20.0278 7.31875 18.6029 6.00788 16.8129 5.35777L2.37619 0.107178C2.10893 0.00961817 1.82207 -0.0219918 1.53998 0.0150325C1.25789 0.0520568 0.988903 0.156622 0.755871 0.319845C0.522535 0.483141 0.332004 0.70028 0.200425 0.952862C0.0688449 1.20544 9.47586e-05 1.48602 3.81842e-07 1.77082V37.1875C-0.000152407 37.4201 0.0455488 37.6505 0.13449 37.8654C0.223432 38.0803 0.353869 38.2756 0.518342 38.4401C0.682815 38.6045 0.878097 38.735 1.09302 38.8239C1.30794 38.9129 1.53829 38.9585 1.77089 38.9584H6.94329C9.14316 38.9584 11.1898 37.9208 12.5128 36.2454C13.2175 36.7813 14.0523 37.4088 14.9277 38.0661C16.9942 39.6208 19.2562 41.3172 20.2488 42.1491C26.8428 47.6691 34.7701 53.6301 36.3489 54.6677C37.8239 55.636 40.4802 56.6668 42.5001 56.6668C43.2903 56.6668 45.2808 56.6668 46.6782 55.4856C48.1187 56.0511 49.6716 56.0235 51.1156 55.387C52.5562 54.7523 53.7218 53.5557 54.3996 52.1012C55.783 52.3848 57.3723 52.1772 58.8128 51.4544C60.1634 50.7782 61.1578 49.7544 61.6904 48.5578C62.97 48.6753 64.3363 48.2586 65.5589 47.3229C67.3057 45.9877 68.1056 44.0157 67.8793 42.0704L72.3712 39.5853C73.6867 41.3685 75.7775 42.4999 78.0567 42.4999H83.2291C83.4617 42.5 83.6921 42.4543 83.907 42.3654C84.1219 42.2764 84.3172 42.146 84.4817 41.9815C84.6461 41.817 84.7766 41.6218 84.8655 41.4068C84.9545 41.1919 85.0002 40.9616 85 40.729V5.31261C85 5.02783 84.9313 4.74725 84.7998 4.49466C84.6683 4.24207 84.4778 4.02492 84.2445 3.86163ZM10.2601 33.1185C9.7448 34.4932 8.41153 35.4168 6.94329 35.4168H3.54162V4.29908L15.602 8.68472C16.4978 9.01161 17.2104 9.66704 17.608 10.5317C18.0074 11.3963 18.0421 12.3648 17.7083 13.2553L10.2601 33.1185ZM63.4095 44.5096C62.8093 44.9697 61.9689 45.2257 61.5954 44.8521C61.5763 44.833 61.5468 44.8349 61.5272 44.8166C61.4933 44.7852 61.4765 44.7429 61.4398 44.7137C60.174 43.7141 54.5017 37.9105 50.9964 34.2547C50.3203 33.5474 49.198 33.5214 48.4941 34.201C47.7869 34.8772 47.7626 35.9978 48.4405 36.7034C49.2632 37.5622 55.868 44.4411 58.5115 46.8468C58.3141 47.6244 57.5933 48.1045 57.2272 48.2882C56.0928 48.8571 54.9099 48.762 54.4672 48.3504C54.4541 48.3381 54.4345 48.3388 54.4209 48.3268C54.3993 48.3076 54.3896 48.2805 54.3667 48.2623C52.2431 46.5657 46.9151 40.9039 45.7097 39.5931C45.0473 38.8719 43.9285 38.8269 43.2073 39.4877C42.488 40.1501 42.4395 41.2707 43.1019 41.99C43.16 42.0529 48.3815 47.6854 51.3142 50.3016C51.026 51.1297 50.4388 51.8155 49.6854 52.148C49.1294 52.3951 48.2598 52.5217 47.2662 51.7874C44.7232 49.6312 39.6197 44.1987 38.616 43.1244C37.9503 42.4084 36.8262 42.3722 36.1136 43.0397C35.3994 43.7073 35.3614 44.8279 36.0289 45.5421C37.2189 46.8158 40.7363 50.5438 43.4102 53.0681C43.1082 53.1052 42.8043 53.1243 42.5001 53.1252C41.3275 53.1252 39.3129 52.3765 38.2944 51.7071C37.0528 50.8908 29.2568 45.0734 22.5245 39.4357C21.506 38.5814 19.1818 36.8331 17.0547 35.2352C15.9146 34.3793 14.8642 33.5903 14.0901 32.9948L20.7205 15.3114C22.4415 15.2362 24.736 15.0378 27.1644 14.8237C28.5378 14.7026 29.9128 14.5846 31.2266 14.4823C29.2072 16.5554 26.2048 20.2683 26.6006 23.7487C26.7822 25.3328 27.6486 26.6523 29.1099 27.5654C32.0031 29.376 37.3589 27.8576 39.939 24.6843C41.6043 24.444 42.7302 24.0186 43.9579 23.4098C46.0331 25.3605 48.8155 27.6537 51.7382 30.0626C56.8259 34.2545 62.5932 39.0067 64.1185 41.6716C64.9675 43.1538 63.79 44.2191 63.4095 44.5096ZM66.4474 38.8146C64.088 35.6583 58.9734 31.4354 53.9897 27.3286C50.6677 24.591 47.5307 22.0057 45.5229 19.998C44.9696 19.448 44.1204 19.3235 43.4356 19.6884C41.6318 20.6551 40.8192 21.0546 38.782 21.2586C38.5141 21.2856 38.2559 21.3733 38.027 21.515C37.798 21.6568 37.6044 21.8488 37.4608 22.0766C36.0721 24.2798 32.2122 25.3277 30.9879 24.5633C30.2926 24.1275 30.1578 23.6848 30.1198 23.3476C29.9486 21.8413 31.4738 19.2335 34.0039 16.7018C40.2693 10.4364 44.7483 9.21033 50.5432 12.1986C56.049 15.0373 61.4828 16.6424 63.7639 17.2487C63.8298 17.514 63.8776 17.7819 63.9749 18.042L70.8508 36.3787L66.4474 38.8146ZM81.4585 38.9584H78.0569C76.5886 38.9584 75.2554 38.0349 74.7401 36.6601L67.2917 16.7988C66.9581 15.9064 66.9926 14.938 67.392 14.0733C67.7898 13.2087 68.5023 12.5532 69.398 12.2263L81.4584 7.8407V38.9584H81.4585Z" fill="url(#paint0_linear_535_856)"/>
<defs>
<linearGradient id="paint0_linear_535_856" x1="42.5" y1="0" x2="42.5" y2="56.6668" gradientUnits="userSpaceOnUse">
<stop stop-color="#004DF7"/>
<stop offset="1" stop-color="#40B3FF"/>
</linearGradient>
</defs>
</svg>
