<svg width="78" height="78" viewBox="0 0 78 78" fill="none" xmlns="http://www.w3.org/2000/svg">
<path d="M32.9063 55.7578C33.7472 55.7578 34.4297 55.0753 34.4297 54.2344C34.4297 53.3934 33.7472 52.7109 32.9063 52.7109C32.0653 52.7109 31.3828 53.3934 31.3828 54.2344C31.3828 55.0753 32.0653 55.7578 32.9063 55.7578Z" fill="url(#paint0_linear_535_861)"/>
<path d="M0.446295 59.2724L18.7276 77.5537C18.869 77.6952 19.0369 77.8074 19.2217 77.884C19.4065 77.9606 19.6046 78 19.8046 78C20.0047 78 20.2028 77.9606 20.3876 77.884C20.5724 77.8074 20.7403 77.6952 20.8817 77.5537L30.9364 67.499C31.0779 67.3576 31.1901 67.1897 31.2667 67.0049C31.3433 66.8201 31.3827 66.622 31.3827 66.4219C31.3827 66.2219 31.3433 66.0238 31.2667 65.839C31.1901 65.6542 31.0779 65.4863 30.9364 65.3449L30.49 64.8985H52.4504C54.3791 64.8985 56.2195 64.1755 57.6389 62.8579L76.1207 45.5365C77.8898 43.8935 78.4761 41.2834 77.5786 39.0422C77.26 38.2427 76.7693 37.5231 76.1413 36.9345C75.5134 36.3459 74.7635 35.9028 73.9451 35.6366C73.1272 35.368 72.2603 35.2828 71.4059 35.387C70.5514 35.4912 69.7304 35.7822 69.001 36.2394C68.9914 36.2454 64.8978 38.9316 64.8978 38.9316C64.8699 30.6735 59.8788 21.8673 53.0084 17.9028C53.4099 17.4411 53.7148 16.9037 53.9053 16.3223C54.6914 13.9305 53.3846 11.3419 50.9894 10.551C50.9143 10.526 50.8394 10.504 50.7644 10.4808L54.686 3.43612C54.7975 3.23615 54.8624 3.01361 54.8759 2.78508C54.8894 2.55655 54.8512 2.32791 54.764 2.11621C54.6772 1.90436 54.5436 1.71486 54.3733 1.56184C54.2029 1.40882 54.0003 1.29623 53.7804 1.23246C50.9686 0.414832 48.046 0 45.0937 0C42.1421 0 39.219 0.414833 36.4071 1.23185C36.1871 1.29569 35.9844 1.40831 35.814 1.56133C35.6436 1.71435 35.5099 1.90383 35.4229 2.11567C35.3358 2.3275 35.2977 2.55624 35.3113 2.78486C35.3249 3.01348 35.3899 3.23609 35.5014 3.43612L39.423 10.4808C39.3468 10.5046 39.2707 10.5273 39.1945 10.5523C36.8029 11.3419 35.4967 13.9299 36.2828 16.3233C36.4744 16.9043 36.7806 17.441 37.1831 17.9016C30.2103 21.925 25.289 30.8216 25.289 39C25.289 39.2232 25.2943 39.4434 25.3015 39.6618C22.573 40.4062 20.0362 41.7625 17.9028 43.6304L13.2729 47.6812L12.6551 47.0636C12.5137 46.9221 12.3458 46.8099 12.161 46.7333C11.9762 46.6567 11.7781 46.6173 11.5781 46.6173C11.378 46.6173 11.1799 46.6567 10.9951 46.7333C10.8103 46.8099 10.6424 46.9221 10.501 47.0636L0.446295 57.1183C0.304807 57.2597 0.192568 57.4276 0.115991 57.6124C0.0394143 57.7972 0 57.9953 0 58.1954C0 58.3954 0.0394143 58.5935 0.115991 58.7783C0.192568 58.9631 0.304807 59.131 0.446295 59.2724ZM39.1267 3.68428C41.0787 3.26046 43.0782 3.04688 45.0937 3.04688C47.1092 3.04688 49.1087 3.26046 51.0613 3.68428L47.6663 9.782C45.9598 9.54336 44.2283 9.54336 42.5217 9.782L39.1267 3.68428ZM40.1456 13.4468C43.2717 12.4238 46.6796 12.3464 50.0377 13.4456C50.8369 13.7091 51.2732 14.5732 51.0107 15.3707C50.9166 15.6609 50.7369 15.9159 50.4953 16.1023C50.2537 16.2886 49.9615 16.3976 49.6569 16.4151C46.6528 15.4599 43.5326 15.4582 40.5299 16.412H40.5293C39.9032 16.3729 39.3718 15.9634 39.1767 15.3712C38.9142 14.5726 39.3503 13.7085 40.1456 13.4468ZM40.988 19.472C43.6297 18.5204 46.3666 18.4979 49.0147 19.4079C56.0929 21.8415 61.8515 30.6307 61.8515 39C61.8515 39.7094 61.8069 40.3855 61.7188 41.0174L54.3961 45.8215C53.2629 44.4174 51.5446 43.5704 49.664 43.5704H46.6172V41.785C48.3904 41.156 49.664 39.4624 49.664 37.4766C49.664 34.9564 47.6139 32.9063 45.0937 32.9063C44.254 32.9063 43.5703 32.2232 43.5703 31.3828C43.5703 30.5425 44.254 29.8594 45.0937 29.8594C45.6335 29.8594 46.2029 30.135 46.7415 30.6557C47.3463 31.2407 48.3108 31.2246 48.8958 30.6207C49.4808 30.0159 49.4646 29.0512 48.8601 28.4662C48.087 27.7176 47.3134 27.2947 46.6172 27.0636V25.2891C46.6172 24.4477 45.9351 23.7656 45.0937 23.7656C44.2523 23.7656 43.5703 24.4477 43.5703 25.2891V27.0744C41.7975 27.7034 40.5234 29.397 40.5234 31.3828C40.5234 33.9031 42.5735 35.9532 45.0937 35.9532C45.934 35.9532 46.6172 36.6363 46.6172 37.4766C46.6172 38.3169 45.934 39 45.0937 39C44.4427 39 43.7404 38.5905 43.1157 37.8474C42.5741 37.2034 41.613 37.1201 40.9692 37.6615C40.3252 38.2033 40.2419 39.1643 40.7835 39.8081C41.5976 40.777 42.5557 41.4519 43.5703 41.7922V43.5704H43.0633C42.3147 43.5704 41.9784 43.0824 41.4512 42.7415C38.2321 40.3289 34.2453 39 30.2234 39C29.5946 39 28.9643 39.0328 28.3371 39.0965C28.3371 39.0643 28.3359 39.0328 28.3359 39C28.3359 30.7479 34.0119 21.9881 40.988 19.472ZM19.9096 45.9227C22.7718 43.4162 26.4499 42.0469 30.2234 42.0469C33.5904 42.0469 36.9282 43.159 39.6217 45.1783C40.0102 45.4056 41.0921 46.6172 43.0625 46.6172H49.664C51.3982 46.6172 52.7109 48.027 52.7109 49.6641C52.7109 51.344 51.3439 52.711 49.664 52.711H39C38.1586 52.711 37.4765 53.393 37.4765 54.2344C37.4765 55.0758 38.1586 55.7579 39 55.7579H49.664C53.024 55.7579 55.7578 53.0241 55.7578 49.6641C55.7578 49.3148 55.7269 48.9702 55.6685 48.6311L70.6287 38.8156C70.9792 38.5985 71.373 38.4606 71.7824 38.4117C72.1918 38.3627 72.607 38.4039 72.9988 38.5322C73.3932 38.6607 73.7545 38.8744 74.0571 39.1582C74.3596 39.442 74.5961 39.7888 74.7496 40.1742C75.1894 41.2715 74.9132 42.5004 74.0421 43.3091L55.5608 60.6298C54.7161 61.4162 53.6044 61.8529 52.4502 61.8516H27.4433L15.4325 49.8402L19.9096 45.9227ZM11.5782 50.295L27.7052 66.4219L19.8046 74.3225L3.67751 58.1954L11.5782 50.295Z" fill="url(#paint1_linear_535_861)"/>
<defs>
<linearGradient id="paint0_linear_535_861" x1="32.9063" y1="52.7109" x2="32.9063" y2="55.7578" gradientUnits="userSpaceOnUse">
<stop stop-color="#004DF7"/>
<stop offset="1" stop-color="#40B3FF"/>
</linearGradient>
<linearGradient id="paint1_linear_535_861" x1="38.9972" y1="0" x2="38.9972" y2="78" gradientUnits="userSpaceOnUse">
<stop stop-color="#004DF7"/>
<stop offset="1" stop-color="#40B3FF"/>
</linearGradient>
</defs>
</svg>
