<svg width="80" height="80" viewBox="0 0 80 80" fill="none" xmlns="http://www.w3.org/2000/svg">
<path d="M61.6667 51.8334C61.2246 51.8334 60.8007 52.009 60.4882 52.3216C60.1756 52.6342 60 53.0581 60 53.5001V66.6668C60 69.4234 57.7567 71.6668 55 71.6668H18.3333C15.5767 71.6668 13.3333 69.4234 13.3333 66.6668V13.3334C13.3333 10.5768 15.5767 8.33343 18.3333 8.33343H55C57.3567 8.33343 59.36 9.9351 59.875 12.2301C59.9172 12.4491 60.0029 12.6574 60.127 12.8427C60.2512 13.0279 60.4112 13.1864 60.5978 13.3087C60.7843 13.431 60.9934 13.5146 61.2128 13.5546C61.4322 13.5946 61.6574 13.5901 61.8751 13.5414C62.0927 13.4928 62.2984 13.401 62.4799 13.2714C62.6614 13.1418 62.8151 12.9771 62.9318 12.7871C63.0485 12.597 63.1259 12.3855 63.1594 12.165C63.1929 11.9445 63.1817 11.7196 63.1267 11.5034C62.7205 9.65327 61.6922 7.99834 60.2132 6.81482C58.7343 5.63129 56.8942 4.99076 55 5.0001H18.3333C13.7383 5.0001 10 8.73843 10 13.3334V66.6668C10 71.2618 13.7383 75.0001 18.3333 75.0001H55C59.595 75.0001 63.3333 71.2618 63.3333 66.6668V53.5001C63.3333 53.0581 63.1577 52.6342 62.8452 52.3216C62.5326 52.009 62.1087 51.8334 61.6667 51.8334Z" fill="url(#paint0_linear_535_940)"/>
<path d="M73.1617 20.6767C72.9936 20.0417 72.7013 19.4463 72.3017 18.9251C71.902 18.4039 71.4029 17.9671 70.8333 17.64L69.39 16.8067C68.2408 16.1458 66.8766 15.9674 65.5961 16.3104C64.3156 16.6534 63.2233 17.4899 62.5583 18.6367L43.1483 52.255C42.5033 53.3766 42.1263 54.632 42.0467 55.9233L41.7833 60.3267C41.7446 60.945 41.8796 61.5618 42.1733 62.1073C42.467 62.6528 42.9075 63.1053 43.445 63.4133C43.9803 63.7244 44.592 63.8794 45.2108 63.8609C45.8297 63.8423 46.431 63.6509 46.9467 63.3083L50.6267 60.8783C51.7063 60.1648 52.6054 59.2103 53.2533 58.09L72.6633 24.4717C73.33 23.315 73.5067 21.9683 73.1617 20.6767ZM50.365 56.4233C49.9762 57.0952 49.4372 57.668 48.79 58.0967L45.11 60.525L45.3733 56.1267C45.42 55.3533 45.65 54.5917 46.035 53.9233L62.1117 26.0783L66.4417 28.5783L50.365 56.4233ZM69.775 22.805L68.1083 25.6917L63.7783 23.1917L65.445 20.305C65.5543 20.1153 65.6999 19.949 65.8735 19.8157C66.0471 19.6823 66.2454 19.5845 66.4568 19.5278C66.6683 19.4712 66.8889 19.4568 67.1059 19.4855C67.3229 19.5141 67.5322 19.5854 67.7217 19.695L69.165 20.5283C69.5472 20.7499 69.8258 21.1141 69.9399 21.5409C70.0539 21.9677 69.994 22.4223 69.7733 22.805H69.775ZM21.6667 18.3333H36.6667C37.1087 18.3333 37.5326 18.1577 37.8452 17.8452C38.1577 17.5326 38.3333 17.1087 38.3333 16.6667C38.3333 16.2246 38.1577 15.8007 37.8452 15.4882C37.5326 15.1756 37.1087 15 36.6667 15H21.6667C21.2246 15 20.8007 15.1756 20.4882 15.4882C20.1756 15.8007 20 16.2246 20 16.6667C20 17.1087 20.1756 17.5326 20.4882 17.8452C20.8007 18.1577 21.2246 18.3333 21.6667 18.3333ZM53.8167 26.6667C53.8167 26.2246 53.6411 25.8007 53.3285 25.4882C53.016 25.1756 52.592 25 52.15 25H21.6667C21.2246 25 20.8007 25.1756 20.4882 25.4882C20.1756 25.8007 20 26.2246 20 26.6667C20 27.1087 20.1756 27.5326 20.4882 27.8452C20.8007 28.1577 21.2246 28.3333 21.6667 28.3333H52.15C52.592 28.3333 53.016 28.1577 53.3285 27.8452C53.6411 27.5326 53.8167 27.1087 53.8167 26.6667ZM48.0333 36.6667C48.0333 36.2246 47.8577 35.8007 47.5452 35.4882C47.2326 35.1756 46.8087 35 46.3667 35H21.6667C21.2246 35 20.8007 35.1756 20.4882 35.4882C20.1756 35.8007 20 36.2246 20 36.6667C20 37.1087 20.1756 37.5326 20.4882 37.8452C20.8007 38.1577 21.2246 38.3333 21.6667 38.3333H46.3667C46.8087 38.3333 47.2326 38.1577 47.5452 37.8452C47.8577 37.5326 48.0333 37.1087 48.0333 36.6667ZM42.2667 46.6667C42.2667 46.2246 42.0911 45.8007 41.7785 45.4882C41.466 45.1756 41.042 45 40.6 45H21.6667C21.2246 45 20.8007 45.1756 20.4882 45.4882C20.1756 45.8007 20 46.2246 20 46.6667C20 47.1087 20.1756 47.5326 20.4882 47.8452C20.8007 48.1577 21.2246 48.3333 21.6667 48.3333H40.6C41.042 48.3333 41.466 48.1577 41.7785 47.8452C42.0911 47.5326 42.2667 47.1087 42.2667 46.6667ZM35.89 61.6667L34.4483 59.51C33.835 58.565 32.795 58 31.6667 58C30.5383 58 29.4983 58.5633 28.8967 59.4933L28.7083 59.775L28.095 58.2417C27.58 56.9717 26.3667 56.15 25.0017 56.15C23.6367 56.15 22.4217 56.9717 21.905 58.2483L20.1217 62.715C19.9575 63.1256 19.9631 63.5847 20.1373 63.9912C20.3116 64.3977 20.6402 64.7183 21.0508 64.8825C21.4615 65.0467 21.9205 65.0411 22.327 64.8668C22.7335 64.6926 23.0541 64.364 23.2183 63.9533L25.005 59.4867L26.2083 62.4917C26.5517 63.34 27.33 63.9317 28.24 64.035C28.697 64.0865 29.1593 64.0119 29.5769 63.8191C29.9944 63.6264 30.3511 63.3229 30.6083 62.9417L31.67 61.3433L33.62 64.26C33.7722 64.4878 33.9782 64.6744 34.2198 64.8035C34.4614 64.9326 34.7311 65.0001 35.005 65H37.2717C37.7137 65 38.1376 64.8244 38.4502 64.5118C38.7627 64.1993 38.9383 63.7754 38.9383 63.3333C38.9383 62.8913 38.7627 62.4674 38.4502 62.1548C38.1376 61.8423 37.7137 61.6667 37.2717 61.6667H35.895H35.89Z" fill="url(#paint1_linear_535_940)"/>
<defs>
<linearGradient id="paint0_linear_535_940" x1="36.6667" y1="5" x2="36.6667" y2="75.0001" gradientUnits="userSpaceOnUse">
<stop stop-color="#004DF7"/>
<stop offset="1" stop-color="#40B3FF"/>
</linearGradient>
<linearGradient id="paint1_linear_535_940" x1="46.6676" y1="15" x2="46.6676" y2="65.0017" gradientUnits="userSpaceOnUse">
<stop stop-color="#004DF7"/>
<stop offset="1" stop-color="#40B3FF"/>
</linearGradient>
</defs>
</svg>
