<svg width="37" height="37" viewBox="0 0 37 37" fill="none" xmlns="http://www.w3.org/2000/svg">
<path d="M9.10185 14.792C9.10185 14.4902 9.22172 14.2009 9.43508 13.9875C9.64845 13.7741 9.93784 13.6543 10.2396 13.6543H17.066C17.3678 13.6543 17.6572 13.7741 17.8706 13.9875C18.0839 14.2009 18.2038 14.4902 18.2038 14.792C18.2038 15.0937 18.0839 15.3831 17.8706 15.5965C17.6572 15.8099 17.3678 15.9297 17.066 15.9297H10.2396C9.93784 15.9297 9.64845 15.8099 9.43508 15.5965C9.22172 15.3831 9.10185 15.0937 9.10185 14.792ZM17.066 18.2052H10.2396C9.93784 18.2052 9.64845 18.3251 9.43508 18.5385C9.22172 18.7518 9.10185 19.0412 9.10185 19.343C9.10185 19.6447 9.22172 19.9341 9.43508 20.1475C9.64845 20.3608 9.93784 20.4807 10.2396 20.4807H17.066C17.3678 20.4807 17.6572 20.3608 17.8706 20.1475C18.0839 19.9341 18.2038 19.6447 18.2038 19.343C18.2038 19.0412 18.0839 18.7518 17.8706 18.5385C17.6572 18.3251 17.3678 18.2052 17.066 18.2052ZM17.066 22.7562H10.2396C9.93784 22.7562 9.64845 22.8761 9.43508 23.0894C9.22172 23.3028 9.10185 23.5922 9.10185 23.8939C9.10185 24.1957 9.22172 24.4851 9.43508 24.6984C9.64845 24.9118 9.93784 25.0317 10.2396 25.0317H17.066C17.3678 25.0317 17.6572 24.9118 17.8706 24.6984C18.0839 24.4851 18.2038 24.1957 18.2038 23.8939C18.2038 23.5922 18.0839 23.3028 17.8706 23.0894C17.6572 22.8761 17.3678 22.7562 17.066 22.7562ZM17.066 27.3072H10.2396C9.93784 27.3072 9.64845 27.427 9.43508 27.6404C9.22172 27.8538 9.10185 28.1432 9.10185 28.4449C9.10185 28.7467 9.22172 29.036 9.43508 29.2494C9.64845 29.4628 9.93784 29.5827 10.2396 29.5827H17.066C17.3678 29.5827 17.6572 29.4628 17.8706 29.2494C18.0839 29.036 18.2038 28.7467 18.2038 28.4449C18.2038 28.1432 18.0839 27.8538 17.8706 27.6404C17.6572 27.427 17.3678 27.3072 17.066 27.3072ZM34.1322 32.9959C34.1322 33.2976 34.0123 33.587 33.799 33.8004C33.5856 34.0138 33.2962 34.1336 32.9944 34.1336H3.41313C3.11139 34.1336 2.822 34.0138 2.60863 33.8004C2.39526 33.587 2.27539 33.2976 2.27539 32.9959C2.27539 32.6941 2.39526 32.4047 2.60863 32.1914C2.822 31.978 3.11139 31.8581 3.41313 31.8581H4.55088V10.9442C4.54947 10.5213 4.66649 10.1066 4.88869 9.74683C5.11088 9.38709 5.42937 9.09677 5.80808 8.90873L19.461 2.08227C20.1732 1.7273 20.9992 1.76371 21.675 2.18126C22.3509 2.59881 22.7536 3.32241 22.7536 4.1177V12.5165H29.5801C30.835 12.5165 31.8556 13.5371 31.8556 14.792V31.8581H32.9933C33.2951 31.8581 33.5844 31.978 33.7978 32.1914C34.0112 32.4047 34.1322 32.6941 34.1322 32.9959ZM22.7548 14.792V31.8581H29.5812V14.792H22.7548ZM6.82636 31.8581H20.4793V4.1177L6.82636 10.9442V31.8581Z" fill="#0B3150"/>
</svg>
