<svg width="16" height="16" viewBox="0 0 16 16" fill="none" xmlns="http://www.w3.org/2000/svg">
<g clip-path="url(#clip0_535_2911)">
<path d="M0.532388 7.40056L6.10419 1.82863C6.26324 1.66958 6.47522 1.58228 6.70126 1.58228C6.92754 1.58228 7.1394 1.6697 7.29845 1.82863L7.80433 2.33463C7.96325 2.49343 8.05081 2.70554 8.05081 2.9317C8.05081 3.15773 7.96325 3.37699 7.80433 3.53579L4.55382 6.79345L14.8808 6.79345C15.3465 6.79345 15.7144 7.15797 15.7144 7.6237V8.33906C15.7144 8.80479 15.3465 9.20606 14.8808 9.20606H4.51694L7.8042 12.4819C7.96313 12.641 8.05068 12.8473 8.05068 13.0735C8.05068 13.2994 7.96313 13.5087 7.8042 13.6676L7.29833 14.172C7.13928 14.3311 6.92742 14.4177 6.70113 14.4177C6.4751 14.4177 6.26312 14.3299 6.10406 14.1709L0.532263 8.59908C0.372835 8.43953 0.285157 8.22654 0.285785 8.00013C0.285283 7.77297 0.372835 7.55986 0.532388 7.40056Z" fill="#004DF7"/>
</g>
<defs>
<clipPath id="clip0_535_2911">
<rect width="15.4286" height="15.4286" fill="white" transform="matrix(-1 0 0 1 15.7144 0.285767)"/>
</clipPath>
</defs>
</svg>
