<svg width="202" height="37" viewBox="0 0 202 37" fill="none" xmlns="http://www.w3.org/2000/svg">
<path d="M49.0966 11.8237V8.04425H32.7188V30.1576H49.0966V26.3781H36.8298V20.6426H46.6432V17.1946H36.8298V11.8237H49.0966Z" fill="white"/>
<path d="M59.8382 23.9699L63.2862 30.5343H67.4304L62.7557 22.4117L67.0989 14.6207H62.9547L59.8382 20.8535H58.5453L55.4288 14.6207H51.2847L55.6278 22.4117L55.5946 22.5112L50.9531 30.5343H55.0973L58.5453 23.9699H59.8382Z" fill="white"/>
<path d="M71.9387 7.36007C71.2425 7.36007 70.6789 7.59214 70.1816 8.05629C69.7174 8.52044 69.4854 9.05089 69.4854 9.64766C69.4854 10.2444 69.7174 10.7749 70.1816 11.239C70.6457 11.7032 71.2425 11.9352 71.9387 11.9352C72.6349 11.9352 73.1985 11.7032 73.6958 11.239C74.16 10.7749 74.3921 10.2444 74.3921 9.64766C74.3921 9.05089 74.16 8.52044 73.6958 8.05629C73.1985 7.59214 72.6349 7.36007 71.9387 7.36007Z" fill="white"/>
<path d="M73.8283 14.6207H70.0488V30.5012H73.8283V14.6207Z" fill="white"/>
<path d="M76.415 17.7371H78.5369V30.5343H87.2231V27.3847H82.3163V17.7371H87.0573V14.6207H82.3163V11.0401H78.5369V14.6207H76.415V17.7371Z" fill="white"/>
<path d="M106.021 30.0039C107.015 29.6723 107.844 29.2082 108.507 28.6446C109.17 28.081 109.668 27.4179 109.999 26.6554C110.331 25.8928 110.497 25.064 110.497 24.1689C110.497 23.0748 110.298 22.1797 109.867 21.5497C109.436 20.8867 108.972 20.3562 108.441 20.0247C107.844 19.6268 107.148 19.3285 106.386 19.1627L106.054 19.0964V18.3007L106.352 18.2012C106.949 18.0023 107.513 17.7371 108.043 17.3724C108.441 17.074 108.806 16.6099 109.17 16.0463C109.502 15.4827 109.668 14.7533 109.668 13.8581C109.668 13.1288 109.502 12.3994 109.204 11.7363C108.905 11.0732 108.474 10.4765 107.878 9.97919C107.314 9.48188 106.551 9.08404 105.689 8.78566C104.827 8.48728 103.8 8.35466 102.672 8.35466H91.3008V30.468H102.507C103.866 30.5343 105.026 30.3354 106.021 30.0039ZM95.445 12.0347H102.076C103.17 12.0347 103.999 12.2999 104.562 12.7972C105.126 13.3277 105.424 13.9576 105.424 14.7201C105.424 15.4827 105.126 16.1457 104.562 16.643C103.999 17.1403 103.17 17.4056 102.076 17.4056H95.445V12.0347ZM95.445 26.8874V20.8535H102.241C103.568 20.8535 104.595 21.1519 105.225 21.7155C105.888 22.3123 106.22 23.0416 106.22 23.8705C106.22 24.7325 105.888 25.4618 105.225 26.0254C104.562 26.5891 103.568 26.8874 102.241 26.8874H95.445Z" fill="white"/>
<path d="M128.896 22.5775C128.896 21.4171 128.697 20.2899 128.3 19.2953C127.902 18.2675 127.305 17.3724 126.576 16.6099C125.846 15.8473 124.918 15.2506 123.923 14.7864C122.896 14.3554 121.735 14.1234 120.509 14.1234C119.315 14.1234 118.155 14.3554 117.127 14.7864C116.066 15.2174 115.171 15.8142 114.375 16.5767C113.613 17.3392 113.016 18.2344 112.552 19.2622C112.121 20.2899 111.889 21.384 111.889 22.5443C111.889 23.7047 112.121 24.7988 112.552 25.8265C112.983 26.8543 113.613 27.7494 114.375 28.512C115.138 29.2745 116.066 29.8712 117.127 30.3022C118.188 30.7332 119.315 30.9653 120.509 30.9653C121.371 30.9653 122.166 30.899 122.862 30.7332C123.559 30.5675 124.189 30.3685 124.719 30.1033C125.25 29.8381 125.747 29.5397 126.145 29.2082C126.576 28.8766 126.94 28.5451 127.239 28.1804C127.802 27.4842 128.266 26.7217 128.598 25.8928H124.487C124.288 26.2244 124.023 26.5227 123.724 26.788C123.393 27.0532 122.962 27.3184 122.465 27.5174C121.934 27.7494 121.271 27.8489 120.475 27.8489C119.912 27.8489 119.348 27.7494 118.818 27.5174C118.287 27.2853 117.823 26.9869 117.392 26.5891C116.994 26.1912 116.63 25.7271 116.364 25.2298C116.099 24.7325 115.9 24.1689 115.801 23.6053L115.734 23.1411H128.896V22.5775ZM115.834 21.185L115.967 20.6877C116.232 19.7926 116.762 18.9969 117.525 18.3339C118.32 17.6376 119.282 17.3061 120.442 17.3061C121.006 17.3061 121.536 17.4056 122.034 17.6045C122.531 17.8034 122.962 18.0355 123.327 18.367C123.691 18.6654 124.023 19.0301 124.255 19.4611C124.487 19.8589 124.653 20.2899 124.752 20.7541L124.852 21.2514H115.834V21.185Z" fill="white"/>
<path d="M147.33 30.5343V14.6538H143.551V16.7756H142.788L142.656 16.6099C142.324 16.1457 141.926 15.7479 141.462 15.3832C141.064 15.0848 140.534 14.7864 139.937 14.5212C139.34 14.256 138.611 14.1565 137.749 14.1565C136.754 14.1565 135.793 14.3554 134.931 14.7533C134.069 15.1511 133.273 15.7147 132.61 16.411C131.947 17.1403 131.417 18.0355 131.052 19.0632C130.654 20.091 130.455 21.2845 130.455 22.5775C130.455 23.8705 130.654 25.064 131.052 26.0918C131.45 27.1195 131.98 28.0147 132.61 28.744C133.273 29.4734 134.036 30.037 134.931 30.4017C135.793 30.7995 136.754 30.9985 137.749 30.9985C138.611 30.9985 139.34 30.8658 139.937 30.6338C140.534 30.3685 141.064 30.1033 141.462 29.7718C141.926 29.4071 142.324 29.0093 142.656 28.5451L142.788 28.3793H143.551V30.5012H147.33V30.5343ZM142.258 26.4896C141.396 27.4179 140.268 27.882 138.909 27.882C137.649 27.882 136.555 27.4179 135.693 26.4896C134.831 25.5613 134.4 24.2352 134.4 22.5775C134.4 20.9198 134.831 19.5937 135.693 18.6654C136.555 17.7371 137.649 17.2729 138.909 17.2729C140.268 17.2729 141.396 17.7371 142.258 18.6654C143.12 19.5937 143.551 20.9198 143.551 22.5775C143.551 24.2352 143.12 25.5613 142.258 26.4896Z" fill="white"/>
<path d="M163.276 29.0424C163.674 28.6777 164.039 28.2799 164.337 27.882C164.934 27.0864 165.365 26.2244 165.63 25.2629H161.652C161.453 25.6939 161.221 26.0586 160.923 26.4233C160.591 26.788 160.16 27.1195 159.663 27.4179C159.132 27.7163 158.469 27.882 157.64 27.882C157.01 27.882 156.414 27.7494 155.85 27.4842C155.287 27.219 154.789 26.8543 154.358 26.3901C153.927 25.926 153.596 25.3624 153.33 24.7325C153.098 24.1026 152.966 23.3732 152.966 22.5775C152.966 21.7818 153.098 21.0524 153.33 20.4225C153.563 19.7926 153.927 19.229 154.358 18.7648C154.789 18.3007 155.287 17.936 155.85 17.6708C156.414 17.4056 157.01 17.2729 157.64 17.2729C158.436 17.2729 159.132 17.4387 159.663 17.7371C160.16 18.0355 160.591 18.367 160.923 18.6985C161.221 19.0632 161.486 19.4611 161.685 19.8921H165.63C165.332 18.9306 164.868 18.0355 164.271 17.2729C163.973 16.8751 163.641 16.4773 163.21 16.1126C162.812 15.7479 162.348 15.4164 161.818 15.118C161.287 14.8196 160.657 14.5875 159.961 14.4217C159.265 14.256 158.502 14.1565 157.64 14.1565C156.447 14.1565 155.287 14.3886 154.259 14.8196C153.198 15.2506 152.303 15.8473 151.507 16.6099C150.744 17.3724 150.148 18.2675 149.684 19.2953C149.253 20.3231 149.021 21.4171 149.021 22.5775C149.021 23.7379 149.253 24.8651 149.684 25.8597C150.115 26.8874 150.744 27.7826 151.507 28.5451C152.27 29.3076 153.198 29.9044 154.259 30.3354C155.32 30.7664 156.447 30.9985 157.64 30.9985C158.502 30.9985 159.331 30.899 160.027 30.7332C160.724 30.5675 161.354 30.3354 161.884 30.037C162.414 29.7386 162.879 29.4071 163.276 29.0424Z" fill="white"/>
<path d="M182.075 16.5767C181.313 15.8142 180.351 15.2174 179.29 14.7864C178.229 14.3554 177.069 14.1234 175.809 14.1234C174.549 14.1234 173.389 14.3554 172.295 14.7864C171.234 15.2174 170.272 15.8142 169.51 16.5767C168.747 17.3392 168.118 18.2344 167.687 19.2622C167.256 20.2899 167.023 21.384 167.023 22.5443C167.023 23.7047 167.256 24.8319 167.687 25.8265C168.118 26.8543 168.747 27.7494 169.51 28.512C170.272 29.2745 171.234 29.8712 172.295 30.3022C173.356 30.7332 174.549 30.9653 175.809 30.9653C177.069 30.9653 178.229 30.7332 179.29 30.3022C180.351 29.8712 181.279 29.2745 182.075 28.512C182.838 27.7494 183.468 26.8543 183.932 25.8265C184.363 24.7988 184.595 23.7047 184.595 22.5443C184.595 21.384 184.363 20.2899 183.932 19.2622C183.468 18.2675 182.871 17.3392 182.075 16.5767ZM180.285 24.7325C180.053 25.3955 179.688 25.926 179.257 26.3901C178.826 26.8543 178.296 27.219 177.732 27.4842C177.135 27.7494 176.505 27.882 175.842 27.882C175.179 27.882 174.549 27.7494 173.953 27.4842C173.389 27.219 172.858 26.8543 172.427 26.3901C171.996 25.926 171.632 25.3624 171.4 24.7325C171.168 24.1026 171.035 23.3732 171.035 22.5775C171.035 21.7818 171.168 21.0524 171.4 20.4225C171.632 19.7595 171.996 19.229 172.427 18.7648C172.858 18.3007 173.389 17.936 173.953 17.6708C175.113 17.1403 176.572 17.1403 177.732 17.6708C178.329 17.936 178.826 18.3007 179.257 18.7648C179.688 19.229 180.053 19.7926 180.285 20.4225C180.517 21.0524 180.65 21.7818 180.65 22.5775C180.65 23.3732 180.517 24.1026 180.285 24.7325Z" fill="white"/>
<path d="M191.324 18.5991C191.722 18.1681 192.186 17.8366 192.717 17.6045C193.247 17.3724 193.811 17.2398 194.375 17.2398C195.568 17.2398 196.496 17.6045 197.193 18.3007C197.889 18.9969 198.22 20.0578 198.22 21.384V30.468H202V20.7209C202 18.5328 201.469 16.8419 200.375 15.7479C199.314 14.6538 197.789 14.0902 195.866 14.0902C194.971 14.0902 194.209 14.2228 193.612 14.4881C193.015 14.7533 192.485 15.0848 192.087 15.4163C191.623 15.781 191.258 16.212 190.96 16.6762L190.827 16.8751H190.031V14.5875H186.252V30.468H190.031V22.047C190.031 21.3508 190.131 20.6877 190.363 20.091C190.595 19.5605 190.927 19.0301 191.324 18.5991Z" fill="white"/>
<path d="M19.4902 5.70239C22.043 7.72475 24.2311 11.0069 23.4023 14.4217C22.4409 17.8034 19.0261 19.5274 16.208 21.1519C14.252 22.3123 12.1633 23.4063 11.6328 25.7602C11.3676 26.9206 11.5002 28.1804 11.666 29.3739C11.3013 28.8435 11.0361 28.2799 10.804 27.65C8.64902 21.4503 15.777 19.2621 19.5565 16.2783C23.5018 13.5598 21.5789 9.05089 19.4902 5.70239Z" fill="white"/>
<path d="M18.8271 8.02313C20.1864 9.34927 20.4848 11.6037 19.5896 13.3277C18.6945 15.0517 16.7716 16.0463 14.8818 15.9468C15.5449 15.3169 16.208 14.7864 16.7384 14.256C18.5287 12.5652 18.8934 10.4102 18.8271 8.02313Z" fill="white"/>
<path d="M26.3531 16.6762C26.2536 16.4773 26.121 16.1789 25.9552 15.8805C25.7232 15.4827 25.4911 15.0848 25.1927 14.687C25.1264 14.5875 25.0269 14.5212 24.9606 14.4217C24.9606 14.5875 24.9606 14.7864 24.9606 14.7864C24.7617 19.5605 19.424 21.9476 19.424 21.9476C19.1256 22.1133 18.8604 22.246 18.562 22.3786C18.4957 22.4117 18.3963 22.4449 18.33 22.5112C17.9653 22.677 17.6006 22.8759 17.2359 23.0416C9.2459 27.219 14.8488 32.4572 14.8488 32.4572C14.8488 32.4572 10.5057 32.4241 9.24591 27.2521C8.51654 24.0362 9.27906 20.1241 10.8041 17.8366C13.589 13.6924 18.5952 9.91288 17.3685 4.30995C16.7054 1.29298 14.5505 0 14.5505 0C15.1141 1.72398 15.2467 3.44796 8.71545 7.89052C8.25131 8.22205 7.82031 8.55359 7.42247 8.88512C3.44406 12.2668 3.77559 16.411 3.97451 17.5382C4.00766 17.6376 4.00766 17.7371 4.04082 17.8366C4.04082 17.8366 3.97451 17.8034 3.8419 17.6708C3.51036 17.3393 2.78099 16.3778 2.54891 14.256C2.54891 14.256 0.891243 16.4441 0.261328 19.5605C0.261328 19.6268 0.228172 19.66 0.228172 19.7263C0.195019 19.8589 0.161861 20.0247 0.161861 20.1904C-0.0370592 21.4503 -0.0702127 22.8759 0.161861 24.4672C0.161861 24.4672 1.12331 32.4904 8.94752 35.2421C8.94752 35.2421 14.6831 37.7618 21.0154 34.0154C21.0154 34.0154 25.69 31.2305 27.0493 25.926C27.0162 25.926 28.3754 21.1187 26.3531 16.6762Z" fill="white"/>
</svg>
