<svg width="202" height="37" viewBox="0 0 202 37" fill="none" xmlns="http://www.w3.org/2000/svg">
<path d="M49.0966 11.8225V8.04297H32.7188V30.1563H49.0966V26.3768H36.8298V20.6413H46.6432V17.1933H36.8298V11.8225H49.0966Z" fill="#004DF7"/>
<path d="M59.8382 23.9704L63.2862 30.5347H67.4304L62.7557 22.4122L67.0989 14.6211H62.9547L59.8382 20.8539H58.5453L55.4288 14.6211H51.2847L55.6278 22.4122L55.5946 22.5116L50.9531 30.5347H55.0973L58.5453 23.9704H59.8382Z" fill="#004DF7"/>
<path d="M71.9387 7.35938C71.2425 7.35938 70.6789 7.59145 70.1816 8.0556C69.7174 8.51975 69.4854 9.0502 69.4854 9.64697C69.4854 10.2437 69.7174 10.7742 70.1816 11.2383C70.6457 11.7025 71.2425 11.9346 71.9387 11.9346C72.6349 11.9346 73.1985 11.7025 73.6958 11.2383C74.16 10.7742 74.3921 10.2437 74.3921 9.64697C74.3921 9.0502 74.16 8.51975 73.6958 8.0556C73.1985 7.59145 72.6349 7.35938 71.9387 7.35938Z" fill="#004DF7"/>
<path d="M73.8283 14.6211H70.0488V30.5016H73.8283V14.6211Z" fill="#004DF7"/>
<path d="M76.415 17.7361H78.5369V30.5333H87.2231V27.3837H82.3163V17.7361H87.0573V14.6196H82.3163V11.0391H78.5369V14.6196H76.415V17.7361Z" fill="#004DF7"/>
<path d="M106.021 30.0047C107.015 29.6731 107.844 29.209 108.507 28.6454C109.17 28.0818 109.668 27.4187 109.999 26.6562C110.331 25.8936 110.497 25.0648 110.497 24.1697C110.497 23.0756 110.298 22.1805 109.867 21.5505C109.436 20.8875 108.972 20.357 108.441 20.0255C107.844 19.6276 107.148 19.3293 106.386 19.1635L106.054 19.0972V18.3015L106.352 18.202C106.949 18.0031 107.513 17.7379 108.043 17.3732C108.441 17.0748 108.806 16.6107 109.17 16.0471C109.502 15.4835 109.668 14.7541 109.668 13.8589C109.668 13.1296 109.502 12.4002 109.204 11.7371C108.905 11.074 108.474 10.4773 107.878 9.97999C107.314 9.48269 106.551 9.08485 105.689 8.78646C104.827 8.48808 103.8 8.35547 102.672 8.35547H91.3008V30.4688H102.507C103.866 30.5351 105.026 30.3362 106.021 30.0047ZM95.445 12.0355H102.076C103.17 12.0355 103.999 12.3007 104.562 12.798C105.126 13.3285 105.424 13.9584 105.424 14.7209C105.424 15.4835 105.126 16.1465 104.562 16.6438C103.999 17.1411 103.17 17.4064 102.076 17.4064H95.445V12.0355ZM95.445 26.8882V20.8543H102.241C103.568 20.8543 104.595 21.1527 105.225 21.7163C105.888 22.3131 106.22 23.0424 106.22 23.8713C106.22 24.7333 105.888 25.4626 105.225 26.0263C104.562 26.5899 103.568 26.8882 102.241 26.8882H95.445Z" fill="#004DF7"/>
<path d="M128.896 22.5791C128.896 21.4188 128.697 20.2915 128.3 19.2969C127.902 18.2692 127.305 17.374 126.576 16.6115C125.846 15.849 124.918 15.2522 123.923 14.7881C122.896 14.3571 121.735 14.125 120.509 14.125C119.315 14.125 118.155 14.3571 117.127 14.7881C116.066 15.2191 115.171 15.8158 114.375 16.5784C113.613 17.3409 113.016 18.236 112.552 19.2638C112.121 20.2915 111.889 21.3856 111.889 22.546C111.889 23.7063 112.121 24.8004 112.552 25.8282C112.983 26.8559 113.613 27.7511 114.375 28.5136C115.138 29.2761 116.066 29.8729 117.127 30.3039C118.188 30.7349 119.315 30.9669 120.509 30.9669C121.371 30.9669 122.166 30.9006 122.862 30.7349C123.559 30.5691 124.189 30.3702 124.719 30.105C125.25 29.8397 125.747 29.5414 126.145 29.2098C126.576 28.8783 126.94 28.5467 127.239 28.1821C127.802 27.4858 128.266 26.7233 128.598 25.8945H124.487C124.288 26.226 124.023 26.5244 123.724 26.7896C123.393 27.0548 122.962 27.3201 122.465 27.519C121.934 27.7511 121.271 27.8505 120.475 27.8505C119.912 27.8505 119.348 27.7511 118.818 27.519C118.287 27.2869 117.823 26.9885 117.392 26.5907C116.994 26.1929 116.63 25.7287 116.364 25.2314C116.099 24.7341 115.9 24.1705 115.801 23.6069L115.734 23.1427H128.896V22.5791ZM115.834 21.1867L115.967 20.6894C116.232 19.7942 116.762 18.9986 117.525 18.3355C118.32 17.6393 119.282 17.3077 120.442 17.3077C121.006 17.3077 121.536 17.4072 122.034 17.6061C122.531 17.805 122.962 18.0371 123.327 18.3686C123.691 18.667 124.023 19.0317 124.255 19.4627C124.487 19.8605 124.653 20.2915 124.752 20.7557L124.852 21.253H115.834V21.1867Z" fill="#004DF7"/>
<path d="M147.33 30.5341V14.6536H143.551V16.7754H142.788L142.656 16.6096C142.324 16.1455 141.926 15.7476 141.462 15.3829C141.064 15.0845 140.534 14.7862 139.937 14.5209C139.34 14.2557 138.611 14.1562 137.749 14.1562C136.754 14.1562 135.793 14.3552 134.931 14.753C134.069 15.1509 133.273 15.7145 132.61 16.4107C131.947 17.1401 131.417 18.0352 131.052 19.063C130.654 20.0907 130.455 21.2842 130.455 22.5772C130.455 23.8702 130.654 25.0637 131.052 26.0915C131.45 27.1192 131.98 28.0144 132.61 28.7438C133.273 29.4731 134.036 30.0368 134.931 30.4014C135.793 30.7993 136.754 30.9982 137.749 30.9982C138.611 30.9982 139.34 30.8656 139.937 30.6335C140.534 30.3683 141.064 30.1031 141.462 29.7715C141.926 29.4068 142.324 29.009 142.656 28.5448L142.788 28.3791H143.551V30.5009H147.33V30.5341ZM142.258 26.4893C141.396 27.4176 140.268 27.8818 138.909 27.8818C137.649 27.8818 136.555 27.4176 135.693 26.4893C134.831 25.561 134.4 24.2349 134.4 22.5772C134.4 20.9196 134.831 19.5934 135.693 18.6651C136.555 17.7368 137.649 17.2727 138.909 17.2727C140.268 17.2727 141.396 17.7368 142.258 18.6651C143.12 19.5934 143.551 20.9196 143.551 22.5772C143.551 24.2349 143.12 25.561 142.258 26.4893Z" fill="#004DF7"/>
<path d="M163.276 29.0421C163.674 28.6775 164.039 28.2796 164.337 27.8818C164.934 27.0861 165.365 26.2241 165.63 25.2627H161.652C161.453 25.6937 161.221 26.0583 160.923 26.423C160.591 26.7877 160.16 27.1192 159.663 27.4176C159.132 27.716 158.469 27.8818 157.64 27.8818C157.01 27.8818 156.414 27.7492 155.85 27.4839C155.287 27.2187 154.789 26.854 154.358 26.3899C153.927 25.9257 153.596 25.3621 153.33 24.7322C153.098 24.1023 152.966 23.3729 152.966 22.5772C152.966 21.7815 153.098 21.0522 153.33 20.4223C153.563 19.7923 153.927 19.2287 154.358 18.7646C154.789 18.3004 155.287 17.9357 155.85 17.6705C156.414 17.4053 157.01 17.2727 157.64 17.2727C158.436 17.2727 159.132 17.4384 159.663 17.7368C160.16 18.0352 160.591 18.3667 160.923 18.6983C161.221 19.063 161.486 19.4608 161.685 19.8918H165.63C165.332 18.9303 164.868 18.0352 164.271 17.2727C163.973 16.8748 163.641 16.477 163.21 16.1123C162.812 15.7476 162.348 15.4161 161.818 15.1177C161.287 14.8193 160.657 14.5872 159.961 14.4215C159.265 14.2557 158.502 14.1562 157.64 14.1562C156.447 14.1562 155.287 14.3883 154.259 14.8193C153.198 15.2503 152.303 15.8471 151.507 16.6096C150.744 17.3721 150.148 18.2673 149.684 19.295C149.253 20.3228 149.021 21.4169 149.021 22.5772C149.021 23.7376 149.253 24.8648 149.684 25.8594C150.115 26.8872 150.744 27.7823 151.507 28.5448C152.27 29.3074 153.198 29.9041 154.259 30.3351C155.32 30.7661 156.447 30.9982 157.64 30.9982C158.502 30.9982 159.331 30.8987 160.027 30.733C160.724 30.5672 161.354 30.3351 161.884 30.0367C162.414 29.7384 162.879 29.4068 163.276 29.0421Z" fill="#004DF7"/>
<path d="M182.075 16.5784C181.313 15.8158 180.351 15.2191 179.29 14.7881C178.229 14.3571 177.069 14.125 175.809 14.125C174.549 14.125 173.389 14.3571 172.295 14.7881C171.234 15.2191 170.272 15.8158 169.51 16.5784C168.747 17.3409 168.118 18.236 167.687 19.2638C167.256 20.2915 167.023 21.3856 167.023 22.546C167.023 23.7063 167.256 24.8336 167.687 25.8282C168.118 26.8559 168.747 27.7511 169.51 28.5136C170.272 29.2761 171.234 29.8729 172.295 30.3039C173.356 30.7349 174.549 30.9669 175.809 30.9669C177.069 30.9669 178.229 30.7349 179.29 30.3039C180.351 29.8729 181.279 29.2761 182.075 28.5136C182.838 27.7511 183.468 26.8559 183.932 25.8282C184.363 24.8004 184.595 23.7063 184.595 22.546C184.595 21.3856 184.363 20.2915 183.932 19.2638C183.468 18.2692 182.871 17.3409 182.075 16.5784ZM180.285 24.7341C180.053 25.3972 179.688 25.9276 179.257 26.3918C178.826 26.8559 178.296 27.2206 177.732 27.4858C177.135 27.7511 176.505 27.8837 175.842 27.8837C175.179 27.8837 174.549 27.7511 173.953 27.4858C173.389 27.2206 172.858 26.8559 172.427 26.3918C171.996 25.9276 171.632 25.364 171.4 24.7341C171.168 24.1042 171.035 23.3748 171.035 22.5791C171.035 21.7834 171.168 21.0541 171.4 20.4242C171.632 19.7611 171.996 19.2306 172.427 18.7665C172.858 18.3023 173.389 17.9376 173.953 17.6724C175.113 17.142 176.572 17.142 177.732 17.6724C178.329 17.9376 178.826 18.3023 179.257 18.7665C179.688 19.2306 180.053 19.7942 180.285 20.4242C180.517 21.0541 180.65 21.7834 180.65 22.5791C180.65 23.3748 180.517 24.1042 180.285 24.7341Z" fill="#004DF7"/>
<path d="M191.324 18.5987C191.722 18.1677 192.186 17.8362 192.717 17.6041C193.247 17.372 193.811 17.2394 194.375 17.2394C195.568 17.2394 196.496 17.6041 197.193 18.3003C197.889 18.9966 198.22 20.0575 198.22 21.3836V30.4676H202V20.7205C202 18.5324 201.469 16.8416 200.375 15.7475C199.314 14.6535 197.789 14.0898 195.866 14.0898C194.971 14.0898 194.209 14.2225 193.612 14.4877C193.015 14.7529 192.485 15.0844 192.087 15.416C191.623 15.7807 191.258 16.2117 190.96 16.6758L190.827 16.8747H190.031V14.5871H186.252V30.4676H190.031V22.0467C190.031 21.3504 190.131 20.6874 190.363 20.0906C190.595 19.5602 190.927 19.0297 191.324 18.5987Z" fill="#004DF7"/>
<path d="M19.4902 5.70312C22.043 7.72548 24.2311 11.0077 23.4023 14.4225C22.4409 17.8041 19.0261 19.5281 16.208 21.1526C14.252 22.313 12.1633 23.4071 11.6328 25.761C11.3676 26.9213 11.5002 28.1812 11.666 29.3747C11.3013 28.8442 11.0361 28.2806 10.804 27.6507C8.64902 21.451 15.777 19.2629 19.5565 16.2791C23.5018 13.5605 21.5789 9.05162 19.4902 5.70312Z" fill="#004DF7"/>
<path d="M18.8271 8.02344C20.1864 9.34958 20.4848 11.604 19.5896 13.328C18.6945 15.052 16.7716 16.0466 14.8818 15.9471C15.5449 15.3172 16.208 14.7867 16.7384 14.2563C18.5287 12.5655 18.8934 10.4105 18.8271 8.02344Z" fill="#004DF7"/>
<path d="M26.3531 16.6762C26.2536 16.4773 26.121 16.1789 25.9552 15.8805C25.7232 15.4827 25.4911 15.0848 25.1927 14.687C25.1264 14.5875 25.0269 14.5212 24.9606 14.4217C24.9606 14.5875 24.9606 14.7864 24.9606 14.7864C24.7617 19.5605 19.424 21.9476 19.424 21.9476C19.1256 22.1133 18.8604 22.246 18.562 22.3786C18.4957 22.4117 18.3963 22.4449 18.33 22.5112C17.9653 22.677 17.6006 22.8759 17.2359 23.0416C9.2459 27.219 14.8488 32.4572 14.8488 32.4572C14.8488 32.4572 10.5057 32.4241 9.24591 27.2521C8.51654 24.0362 9.27906 20.1241 10.8041 17.8366C13.589 13.6924 18.5952 9.91288 17.3685 4.30995C16.7054 1.29298 14.5505 0 14.5505 0C15.1141 1.72398 15.2467 3.44796 8.71545 7.89052C8.25131 8.22205 7.82031 8.55359 7.42247 8.88512C3.44406 12.2668 3.77559 16.411 3.97451 17.5382C4.00766 17.6376 4.00766 17.7371 4.04082 17.8366C4.04082 17.8366 3.97451 17.8034 3.8419 17.6708C3.51036 17.3393 2.78099 16.3778 2.54891 14.256C2.54891 14.256 0.891243 16.4441 0.261328 19.5605C0.261328 19.6268 0.228172 19.66 0.228172 19.7263C0.195019 19.8589 0.161861 20.0247 0.161861 20.1904C-0.0370592 21.4503 -0.0702127 22.8759 0.161861 24.4672C0.161861 24.4672 1.12331 32.4904 8.94752 35.2421C8.94752 35.2421 14.6831 37.7618 21.0154 34.0154C21.0154 34.0154 25.69 31.2305 27.0493 25.926C27.0162 25.926 28.3754 21.1187 26.3531 16.6762Z" fill="#004DF7"/>
</svg>
