<svg width="16" height="16" viewBox="0 0 16 16" fill="none" xmlns="http://www.w3.org/2000/svg">
<path d="M15.8591 3.17878L11.0066 8L15.8591 12.8212C15.9468 12.6379 16 12.4352 16 12.2188V3.78125C16 3.56478 15.9468 3.36213 15.8591 3.17878ZM14.5938 2.375H1.40625C1.18978 2.375 0.987125 2.42822 0.803781 2.51594L7.00575 8.68666C7.55413 9.23503 8.44588 9.23503 8.99425 8.68666L15.1962 2.51594C15.0129 2.42822 14.8102 2.375 14.5938 2.375ZM0.140938 3.17878C0.0532188 3.36213 0 3.56478 0 3.78125V12.2188C0 12.4352 0.0532188 12.6379 0.140938 12.8212L4.99341 8L0.140938 3.17878Z" fill="#004DF7"/>
<path d="M10.3437 8.66309L9.65702 9.34974C8.7433 10.2635 7.25652 10.2635 6.3428 9.34974L5.65618 8.66309L0.803711 13.4843C0.987055 13.572 1.18971 13.6252 1.40618 13.6252H14.5937C14.8101 13.6252 15.0128 13.572 15.1961 13.4843L10.3437 8.66309Z" fill="#004DF7"/>
</svg>
