<svg width="16" height="20" viewBox="0 0 16 20" fill="none" xmlns="http://www.w3.org/2000/svg">
<path d="M10.7777 0.15457C10.686 0.0579688 10.5603 0 10.43 0H2.62805C1.18832 0 0 1.18359 0 2.62313V17.3767C0 18.8164 1.18836 20 2.62801 20H13.2173C14.657 20 15.8454 18.8164 15.8454 17.3767V5.66172C15.8454 5.53617 15.7873 5.41547 15.7053 5.32359L10.7777 0.15457ZM10.9178 1.70535L14.2174 5.16906H12.0725C11.4348 5.16906 10.9178 4.65695 10.9178 4.01934V1.70535ZM13.2173 19.0338H2.62801C1.72469 19.0338 0.966172 18.2851 0.966172 17.3767V2.62313C0.966172 1.7198 1.7198 0.966172 2.62801 0.966172H9.95164V4.0193C9.95164 5.19316 10.8986 6.13523 12.0725 6.13523H14.8791V17.3767C14.8791 18.2851 14.1255 19.0338 13.2173 19.0338Z" fill="white"/>
<path d="M11.8986 15.7007H3.94695C3.68133 15.7007 3.46387 15.9179 3.46387 16.1838C3.46387 16.4494 3.68129 16.6668 3.94695 16.6668H11.9035C12.1691 16.6668 12.3866 16.4494 12.3866 16.1838C12.3866 15.9179 12.1691 15.7007 11.8986 15.7007ZM7.57016 13.9663C7.66203 14.0629 7.78758 14.1209 7.92277 14.1209C8.05813 14.1209 8.18371 14.0629 8.27543 13.9663L11.1064 10.9277C11.29 10.7343 11.2754 10.4252 11.0823 10.2466C10.8889 10.063 10.5798 10.0773 10.4011 10.2707L8.40586 12.4107V7.13543C8.40586 6.86961 8.18844 6.65234 7.92277 6.65234C7.65715 6.65234 7.43969 6.86961 7.43969 7.13543V12.4107L5.44934 10.2707C5.26574 10.0775 4.96137 10.063 4.76816 10.2466C4.575 10.4301 4.56051 10.7345 4.74406 10.9277L7.57016 13.9663Z" fill="white"/>
</svg>
