<svg width="53" height="53" viewBox="0 0 53 53" fill="none" xmlns="http://www.w3.org/2000/svg">
<path d="M13.25 0C11.4281 0 9.9375 1.49062 9.9375 3.3125V49.6875C9.9375 51.5094 11.4281 53 13.25 53H46.375C48.1969 53 49.6875 51.5094 49.6875 49.6875V13.25L36.4375 0H13.25Z" fill="#E2E5E7"/>
<path d="M39.75 13.25H49.6875L36.4375 0V9.9375C36.4375 11.7594 37.9281 13.25 39.75 13.25Z" fill="#B0B7BD"/>
<path d="M49.6875 23.1875L39.75 13.25H49.6875V23.1875Z" fill="#CAD1D8"/>
<path d="M43.0625 43.0625C43.0625 43.9734 42.3172 44.7188 41.4062 44.7188H4.96875C4.05781 44.7188 3.3125 43.9734 3.3125 43.0625V26.5C3.3125 25.5891 4.05781 24.8438 4.96875 24.8438H41.4062C42.3172 24.8438 43.0625 25.5891 43.0625 26.5V43.0625Z" fill="#F15642"/>
<path d="M10.5322 31.383C10.5322 30.9458 10.8767 30.4688 11.4316 30.4688H14.4907C16.2132 30.4688 17.7634 31.6215 17.7634 33.8309C17.7634 35.9244 16.2132 37.0904 14.4907 37.0904H12.2796V38.8394C12.2796 39.4224 11.9086 39.752 11.4316 39.752C10.9943 39.752 10.5322 39.4224 10.5322 38.8394V31.383ZM12.2796 32.1366V35.4358H14.4907C15.3784 35.4358 16.0807 34.6524 16.0807 33.8309C16.0807 32.9051 15.3784 32.1366 14.4907 32.1366H12.2796ZM20.3571 39.752C19.9199 39.752 19.4429 39.5135 19.4429 38.9322V31.4095C19.4429 30.9342 19.9199 30.588 20.3571 30.588H23.3897C29.4416 30.588 29.3091 39.752 23.5089 39.752H20.3571ZM21.1919 32.2045V38.1372H23.3897C26.9655 38.1372 27.1245 32.2045 23.3897 32.2045H21.1919ZM31.4556 32.3105V34.4156H34.8327C35.3097 34.4156 35.7867 34.8926 35.7867 35.3547C35.7867 35.7919 35.3097 36.1497 34.8327 36.1497H31.4556V38.9305C31.4556 39.3943 31.126 39.7504 30.6623 39.7504C30.0793 39.7504 29.7232 39.3943 29.7232 38.9305V31.4078C29.7232 30.9325 30.0809 30.5863 30.6623 30.5863H35.3114C35.8944 30.5863 36.2389 30.9325 36.2389 31.4078C36.2389 31.8318 35.8944 32.3088 35.3114 32.3088H31.4556V32.3105Z" fill="white"/>
<path d="M41.4062 44.7188H9.9375V46.375H41.4062C42.3172 46.375 43.0625 45.6297 43.0625 44.7188V43.0625C43.0625 43.9734 42.3172 44.7188 41.4062 44.7188Z" fill="#CAD1D8"/>
</svg>
