<svg width="16" height="16" viewBox="0 0 16 16" fill="none" xmlns="http://www.w3.org/2000/svg">
<g clip-path="url(#clip0_535_1112)">
<path d="M15.8483 15.1295L11.7174 11.0646C12.7991 9.8893 13.4638 8.33495 13.4638 6.62455C13.4633 2.96568 10.4496 0 6.7317 0C3.01382 0 0.00012207 2.96568 0.00012207 6.62455C0.00012207 10.2834 3.01382 13.2491 6.7317 13.2491C8.33808 13.2491 9.81141 12.6935 10.9687 11.7697L15.1157 15.8507C15.3177 16.0498 15.6458 16.0498 15.8478 15.8507C15.8959 15.8038 15.9341 15.7477 15.9602 15.6858C15.9863 15.6239 15.9998 15.5574 15.9998 15.4902C15.9998 15.423 15.9865 15.3565 15.9604 15.2946C15.9344 15.2326 15.8963 15.1765 15.8483 15.1295ZM6.7317 12.2299C3.58597 12.2299 1.03587 9.72029 1.03587 6.62455C1.03587 3.52881 3.58597 1.01923 6.7317 1.01923C9.87745 1.01923 12.4275 3.52881 12.4275 6.62455C12.4275 9.72029 9.87745 12.2299 6.7317 12.2299Z" fill="#8D8D8D"/>
<path d="M6.56201 9.45312V4.29687H7.43701V9.45312H6.56201ZM4.42139 7.3125V6.4375H9.57764V7.3125H4.42139Z" fill="#8D8D8D"/>
</g>
<defs>
<clipPath id="clip0_535_1112">
<rect width="16" height="16" fill="white"/>
</clipPath>
</defs>
</svg>
