<svg width="1600" height="610" viewBox="0 0 1600 610" fill="none" xmlns="http://www.w3.org/2000/svg">
<path opacity="0.1" d="M288 99C305 68.5 329.5 13.5 334 -74C237.2 -273.2 -20.3333 -177.667 -137 -105C-99.3333 4.33333 -19.5651 220.195 -0.5 223.5C37 230 121.846 227.69 194 208.5C241 196 271.233 129.081 288 99Z" fill="#89ABFF"/>
<path opacity="0.1" d="M1104 554C1084.33 589.327 1041.21 689.652 1036 791C1148.01 1021.73 1496 920.442 1631 836.275C1587.42 709.638 1625 529 1598 518C1557.21 501.384 1301.92 438.888 1216 448C1150 455 1123.4 519.158 1104 554Z" fill="#89ABFF"/>
</svg>
