<svg width="20" height="20" viewBox="0 0 20 20" fill="none" xmlns="http://www.w3.org/2000/svg">
<g clip-path="url(#clip0_648_628)">
<path d="M17.9167 15H15.4167C15.3062 15 15.2002 14.9561 15.122 14.878C15.0439 14.7998 15 14.6938 15 14.5833C15 14.4728 15.0439 14.3668 15.122 14.2887C15.2002 14.2106 15.3062 14.1667 15.4167 14.1667H17.9167C18.6058 14.1667 19.1667 13.6058 19.1667 12.9167V7.08333C19.1667 6.39417 18.6058 5.83333 17.9167 5.83333H2.08333C1.39417 5.83333 0.833333 6.39417 0.833333 7.08333V12.9167C0.833333 13.6058 1.39417 14.1667 2.08333 14.1667H4.58333C4.69384 14.1667 4.79982 14.2106 4.87796 14.2887C4.9561 14.3668 5 14.4728 5 14.5833C5 14.6938 4.9561 14.7998 4.87796 14.878C4.79982 14.9561 4.69384 15 4.58333 15H2.08333C1.531 14.9993 1.00148 14.7796 0.610925 14.3891C0.220367 13.9985 0.000661607 13.469 0 12.9167V7.08333C0 5.935 0.934167 5 2.08333 5H17.9167C19.0658 5 20 5.935 20 7.08333V12.9167C20 14.065 19.0658 15 17.9167 15ZM12.0833 17.5H7.08333C6.97283 17.5 6.86685 17.4561 6.7887 17.378C6.71057 17.2998 6.66667 17.1938 6.66667 17.0833C6.66667 16.9728 6.71057 16.8668 6.7887 16.7887C6.86685 16.7106 6.97283 16.6667 7.08333 16.6667H12.0833C12.1938 16.6667 12.2998 16.7106 12.378 16.7887C12.4561 16.8668 12.5 16.9728 12.5 17.0833C12.5 17.1938 12.4561 17.2998 12.378 17.378C12.2998 17.4561 12.1938 17.5 12.0833 17.5ZM12.0833 15.8333H7.08333C6.97283 15.8333 6.86685 15.7894 6.7887 15.7113C6.71057 15.6332 6.66667 15.5272 6.66667 15.4167C6.66667 15.3062 6.71057 15.2002 6.7887 15.122C6.86685 15.0439 6.97283 15 7.08333 15H12.0833C12.1938 15 12.2998 15.0439 12.378 15.122C12.4561 15.2002 12.5 15.3062 12.5 15.4167C12.5 15.5272 12.4561 15.6332 12.378 15.7113C12.2998 15.7894 12.1938 15.8333 12.0833 15.8333Z" fill="#8D8D8D"/>
<path d="M8.74935 14.1667H7.08268C6.97218 14.1667 6.86619 14.1228 6.78805 14.0446C6.70991 13.9665 6.66602 13.8605 6.66602 13.75C6.66602 13.6395 6.70991 13.5335 6.78805 13.4554C6.86619 13.3772 6.97218 13.3333 7.08268 13.3333H8.74935C8.85986 13.3333 8.96584 13.3772 9.04398 13.4554C9.12212 13.5335 9.16602 13.6395 9.16602 13.75C9.16602 13.8605 9.12212 13.9665 9.04398 14.0446C8.96584 14.1228 8.85986 14.1667 8.74935 14.1667ZM15.416 5.83333C15.3055 5.83333 15.1995 5.78944 15.1214 5.7113C15.0432 5.63315 14.9994 5.52717 14.9994 5.41667V2.08333C14.9994 1.39417 14.4385 0.833333 13.7494 0.833333H6.24935C5.56018 0.833333 4.99935 1.39417 4.99935 2.08333V5.41667C4.99935 5.52717 4.95545 5.63315 4.87731 5.7113C4.79917 5.78944 4.69319 5.83333 4.58268 5.83333C4.47218 5.83333 4.36619 5.78944 4.28805 5.7113C4.20991 5.63315 4.16602 5.52717 4.16602 5.41667V2.08333C4.16602 0.935 5.10018 0 6.24935 0H13.7494C14.8985 0 15.8327 0.935 15.8327 2.08333V5.41667C15.8327 5.52717 15.7888 5.63315 15.7106 5.7113C15.6325 5.78944 15.5265 5.83333 15.416 5.83333Z" fill="#8D8D8D"/>
<path d="M13.7494 20.0026H6.24935C5.69702 20.0019 5.1675 19.7822 4.77694 19.3917C4.38638 19.0011 4.16668 18.4716 4.16602 17.9193V11.2526C4.16602 11.1421 4.20991 11.0361 4.28805 10.958C4.36619 10.8798 4.47218 10.8359 4.58268 10.8359H15.416C15.5265 10.8359 15.6325 10.8798 15.7106 10.958C15.7888 11.0361 15.8327 11.1421 15.8327 11.2526V17.9193C15.8327 19.0676 14.8985 20.0026 13.7494 20.0026ZM4.99935 11.6693V17.9193C4.99935 18.6084 5.56018 19.1693 6.24935 19.1693H13.7494C14.4385 19.1693 14.9994 18.6084 14.9994 17.9193V11.6693H4.99935Z" fill="#8D8D8D"/>
</g>
<defs>
<clipPath id="clip0_648_628">
<rect width="20" height="20" fill="white"/>
</clipPath>
</defs>
</svg>
