<svg width="16" height="16" viewBox="0 0 16 16" fill="none" xmlns="http://www.w3.org/2000/svg">
<g clip-path="url(#clip0_535_2906)">
<path d="M15.4676 7.40056L9.89581 1.82863C9.73676 1.66958 9.52478 1.58228 9.29874 1.58228C9.07246 1.58228 8.8606 1.6697 8.70155 1.82863L8.19567 2.33463C8.03675 2.49343 7.94919 2.70554 7.94919 2.9317C7.94919 3.15773 8.03675 3.37699 8.19567 3.53579L11.4462 6.79345L1.11916 6.79345C0.653544 6.79345 0.285645 7.15797 0.285645 7.6237L0.285645 8.33906C0.285645 8.80479 0.653544 9.20606 1.11916 9.20606H11.4831L8.1958 12.4819C8.03687 12.641 7.94932 12.8473 7.94932 13.0735C7.94932 13.2994 8.03687 13.5087 8.1958 13.6676L8.70167 14.172C8.86072 14.3311 9.07258 14.4177 9.29887 14.4177C9.5249 14.4177 9.73688 14.3299 9.89594 14.1709L15.4677 8.59908C15.6272 8.43953 15.7148 8.22654 15.7142 8.00013C15.7147 7.77297 15.6272 7.55986 15.4676 7.40056Z" fill="#004DF7"/>
</g>
<defs>
<clipPath id="clip0_535_2906">
<rect width="15.4286" height="15.4286" fill="white" transform="translate(0.285645 0.285767)"/>
</clipPath>
</defs>
</svg>
