<svg width="20" height="20" viewBox="0 0 20 20" fill="none" xmlns="http://www.w3.org/2000/svg">
<path d="M16.25 19.375C16.1219 19.3749 15.9968 19.3354 15.8919 19.2619L10 15.1381L4.10813 19.2631C4.01439 19.3287 3.90446 19.3672 3.79032 19.3746C3.67618 19.382 3.56221 19.3579 3.46081 19.305C3.35942 19.2521 3.27448 19.1723 3.21527 19.0745C3.15606 18.9766 3.12484 18.8644 3.125 18.75V3.625C3.12583 2.8296 3.44216 2.06702 4.00459 1.50459C4.56702 0.942163 5.32961 0.625827 6.125 0.625H13.875C14.6704 0.625827 15.433 0.942163 15.9954 1.50459C16.5578 2.06702 16.8742 2.8296 16.875 3.625V18.75C16.875 18.9158 16.8092 19.0747 16.6919 19.1919C16.5747 19.3092 16.4158 19.375 16.25 19.375ZM10 13.75C10.1282 13.7501 10.2532 13.7896 10.3581 13.8631L15.625 17.5494V3.625C15.625 3.16087 15.4406 2.71575 15.1124 2.38756C14.7843 2.05937 14.3391 1.875 13.875 1.875H6.125C5.66087 1.875 5.21575 2.05937 4.88756 2.38756C4.55938 2.71575 4.375 3.16087 4.375 3.625V17.5494L9.64188 13.8619C9.74698 13.7888 9.87199 13.7497 10 13.75Z" fill="#8D8D8D"/>
</svg>
