<svg width="18" height="18" viewBox="0 0 18 18" fill="none" xmlns="http://www.w3.org/2000/svg">
<g clip-path="url(#clip0_535_1109)">
<path d="M7.24444 14.4823C8.85329 14.4823 10.4162 13.9455 11.6854 12.9569L16.474 17.7455C16.8317 18.0909 17.4017 18.081 17.7472 17.7233C18.0842 17.3744 18.0842 16.8212 17.7472 16.4722L12.9586 11.6837C15.4118 8.52577 14.8406 3.97709 11.6827 1.52391C8.52475 -0.929268 3.97612 -0.358007 1.52294 2.7999C-0.930245 5.9578 -0.358984 10.5065 2.79892 12.9597C4.07027 13.9473 5.63453 14.4831 7.24444 14.4823ZM3.39686 3.39507C5.52184 1.27005 8.96711 1.27001 11.0921 3.39499C13.2171 5.51997 13.2172 8.96524 11.0922 11.0903C8.96723 13.2153 5.52196 13.2153 3.39694 11.0903L3.39686 11.0903C1.27188 8.98076 1.25936 5.54805 3.36886 3.42307L3.39686 3.39507Z" fill="#8D8D8D"/>
</g>
<defs>
<clipPath id="clip0_535_1109">
<rect width="18" height="18" fill="white"/>
</clipPath>
</defs>
</svg>
