<svg width="60" height="60" viewBox="0 0 60 60" fill="none" xmlns="http://www.w3.org/2000/svg">
<g clip-path="url(#clip0_535_2313)">
<path d="M59.1458 15.7552H59.1455L59.1436 15.7532L55.2707 15.2007C55.0758 15.1729 54.8934 15.088 54.7467 14.9565C54.6001 14.8251 54.4957 14.6531 54.4467 14.4624C54.3978 14.2716 54.4066 14.0706 54.4719 13.8848C54.5373 13.699 54.6562 13.5368 54.8138 13.4186L57.9439 11.071C58.1551 10.9126 58.2948 10.6767 58.3321 10.4154C58.3694 10.154 58.3014 9.88844 58.143 9.67721L54.5589 4.89841C54.4005 4.68718 54.1646 4.54753 53.9032 4.51019C53.6418 4.47284 53.3763 4.54087 53.1651 4.6993L50.036 7.04688C49.8785 7.16635 49.6891 7.23625 49.4918 7.24769C49.2945 7.25913 49.0982 7.21158 48.928 7.11111C48.7579 7.01064 48.6214 6.86179 48.5361 6.68351C48.4508 6.50523 48.4205 6.3056 48.449 6.11004L49.0026 2.23722C49.0211 2.1078 49.014 1.976 48.9816 1.84932C48.9493 1.72265 48.8923 1.6036 48.8139 1.49896C48.7355 1.39432 48.6373 1.30614 48.5248 1.23946C48.4123 1.17279 48.2878 1.12891 48.1584 1.11035L48.1573 1.11022L42.2475 0.265969C42.1181 0.247384 41.9863 0.254472 41.8596 0.28683C41.7329 0.319187 41.6139 0.37618 41.5092 0.454554C41.4046 0.532927 41.3164 0.631147 41.2497 0.743604C41.183 0.856062 41.1391 0.980554 41.1205 1.10997V1.11022L40.567 4.98304C40.5392 5.17801 40.4542 5.36037 40.3228 5.50704C40.1914 5.65371 40.0194 5.75811 39.8286 5.80703C39.6379 5.85595 39.4369 5.84719 39.2511 5.78186C39.0653 5.71653 38.9031 5.59756 38.7849 5.44001L36.4383 2.3099C36.2799 2.09866 36.044 1.95901 35.7826 1.92167C35.5212 1.88433 35.2557 1.95236 35.0445 2.11078L32.0528 4.35582C30.6993 4.21196 29.3343 4.21196 27.9808 4.35582C19.1169 5.36895 12.1659 12.4378 11.3019 21.3176C11.275 21.5993 11.265 21.8791 11.2511 22.1588H10.9524C10.7232 22.1592 10.5012 22.2387 10.3238 22.3838C10.1465 22.5289 10.0246 22.7307 9.97872 22.9553L9.29077 26.2268L6.535 24.3262C6.34332 24.194 6.11134 24.1331 5.87942 24.1542C5.64749 24.1753 5.43031 24.277 5.26564 24.4417L2.27889 27.4284C2.11447 27.593 2.01289 27.81 1.9918 28.0417C1.9707 28.2734 2.03142 28.5052 2.1634 28.6968L4.05501 31.4476L0.78253 32.1355C0.560395 32.1842 0.361614 32.3075 0.219247 32.4848C0.0768809 32.6621 -0.000490178 32.8828 2.33691e-06 33.1102V37.0925C-0.000100031 37.3211 0.0784061 37.5426 0.222344 37.7201C0.366281 37.8976 0.566889 38.0202 0.790495 38.0672L4.06297 38.7552L2.17137 41.506C2.03938 41.6976 1.97866 41.9293 1.99976 42.161C2.02086 42.3927 2.12243 42.6097 2.28685 42.7743L5.2736 45.7611C5.43827 45.9258 5.65546 46.0275 5.88738 46.0486C6.1193 46.0697 6.35128 46.0088 6.54297 45.8766L9.29376 43.98L9.98171 47.2525C10.0275 47.477 10.1494 47.6789 10.3268 47.824C10.5042 47.9691 10.7262 48.0485 10.9554 48.0489H14.9377C15.1662 48.049 15.3878 47.9705 15.5653 47.8266C15.7428 47.6827 15.8653 47.482 15.9124 47.2584L16.6003 43.986L19.3511 45.8776C19.5427 46.0096 19.7745 46.0703 20.0062 46.0492C20.2379 46.0281 20.4549 45.9265 20.6195 45.7621L22.1656 44.211V47.0484C22.1678 47.7443 22.353 48.4274 22.7024 49.0292C23.0519 49.631 23.5535 50.1303 24.1568 50.4772V56.0086C24.1568 58.208 25.9398 59.9909 28.1391 59.9909H32.1215C34.3208 59.9909 36.1038 58.208 36.1038 56.0086V50.4772C36.7071 50.1303 37.2087 49.631 37.5582 49.0292C37.9076 48.4274 38.0928 47.7443 38.095 47.0484V43.1079C38.1083 42.2919 38.326 41.4923 38.7283 40.7823C39.1306 40.0723 39.7046 39.4746 40.3977 39.0439C41.224 38.5078 42.0075 37.9087 42.7413 37.2518L41.4132 35.7684C40.7568 36.3568 40.0554 36.8931 39.3155 37.3723C38.3427 37.9829 37.5388 38.828 36.9776 39.8302C36.4165 40.8323 36.116 41.9594 36.1038 43.1079V47.0484C36.1038 48.1481 35.2124 49.0395 34.1126 49.0395H26.148C25.0482 49.0395 24.1568 48.1481 24.1568 47.0484V43.0252C24.1455 41.8986 23.8501 40.793 23.2981 39.8109C22.7461 38.8287 21.9553 38.0016 20.9988 37.4062C13.108 32.4479 10.7305 22.0318 15.6888 14.1409C17.2023 11.7321 19.3004 9.74501 21.7878 8.36444C24.2753 6.98387 27.0714 6.25461 29.9162 6.24444C29.9014 6.2799 29.8884 6.31612 29.8774 6.35296C29.8405 6.61435 29.9089 6.87971 30.0676 7.09068L32.4142 10.2198C32.535 10.3762 32.6054 10.5657 32.6161 10.763C32.6268 10.9604 32.5772 11.1564 32.4739 11.3249C32.3744 11.4947 32.2265 11.6309 32.0492 11.7162C31.8718 11.8015 31.6731 11.832 31.4783 11.8038L27.6055 11.2502C27.4761 11.2317 27.3443 11.2388 27.2176 11.2711C27.0909 11.3035 26.9719 11.3605 26.8672 11.4389C26.7626 11.5173 26.6744 11.6155 26.6077 11.728C26.5411 11.8404 26.4972 11.9649 26.4786 12.0944L26.4785 12.0955L25.6333 18.0082C25.5958 18.2696 25.6637 18.5351 25.822 18.7465C25.9803 18.9578 26.216 19.0976 26.4774 19.1351L26.4785 19.1352L30.3513 19.6888C30.5463 19.7166 30.7286 19.8015 30.8753 19.933C31.022 20.0644 31.1264 20.2364 31.1753 20.4271C31.2242 20.6179 31.2155 20.8189 31.1501 21.0047C31.0848 21.1905 30.9658 21.3527 30.8083 21.4709L27.6792 23.8175C27.4679 23.9759 27.3283 24.2117 27.2909 24.4731C27.2536 24.7345 27.3216 25 27.4801 25.2113L31.0642 29.9901C31.2226 30.2013 31.4584 30.341 31.7198 30.3783C31.9812 30.4156 32.2467 30.3476 32.458 30.1892L35.5881 27.8426C35.7456 27.7248 35.9345 27.6563 36.1309 27.6458C36.3273 27.6352 36.5224 27.683 36.6916 27.7833C36.8608 27.8835 36.9966 28.0316 37.0817 28.2089C37.1669 28.3862 37.1976 28.5847 37.1701 28.7794L36.6175 32.6523C36.5989 32.7817 36.606 32.9135 36.6384 33.0402C36.6707 33.1668 36.7277 33.2859 36.8061 33.3906C36.8845 33.4952 36.9827 33.5834 37.0951 33.6501C37.2076 33.7168 37.3321 33.7607 37.4615 33.7793H37.4618L43.3755 34.6245C43.4221 34.6305 43.469 34.6335 43.5159 34.6335C43.7556 34.6337 43.9874 34.5475 44.1687 34.3906C44.3499 34.2336 44.4685 34.0166 44.5025 33.7793L45.0551 29.9064C45.0828 29.7115 45.1678 29.5291 45.2992 29.3824C45.4307 29.2358 45.6026 29.1314 45.7934 29.0824C45.9842 29.0335 46.1852 29.0423 46.371 29.1076C46.5568 29.173 46.719 29.2919 46.8372 29.4495L49.1847 32.5786C49.3432 32.7898 49.579 32.9295 49.8404 32.9668C50.1018 33.0041 50.3673 32.9361 50.5786 32.7777L55.3574 29.1936C55.5686 29.0352 55.7082 28.7993 55.7456 28.5379C55.7829 28.2765 55.7149 28.011 55.5565 27.7998L53.2099 24.6707C53.0896 24.514 53.0194 24.3246 53.0088 24.1274C52.9981 23.9301 53.0474 23.7343 53.1502 23.5656C53.2474 23.3938 53.395 23.2559 53.573 23.1705C53.751 23.0851 53.9508 23.0562 54.1457 23.0877L58.0185 23.6402C58.148 23.6588 58.2798 23.6517 58.4065 23.6194C58.5331 23.587 58.6522 23.53 58.7569 23.4517C58.8615 23.3733 58.9497 23.2751 59.0164 23.1626C59.0831 23.0502 59.127 22.9257 59.1455 22.7962V22.796L59.9898 16.8822C60.0084 16.7528 60.0013 16.621 59.9689 16.4943C59.9366 16.3676 59.8796 16.2486 59.8012 16.1439C59.7228 16.0393 59.6246 15.9511 59.5122 15.8844C59.3997 15.8177 59.2752 15.7738 59.1458 15.7552ZM26.148 51.0307H34.1126V53.0219H26.148V51.0307ZM26.148 55.013H34.1126V56.0086C34.1126 57.1084 33.2212 57.9998 32.1215 57.9998H28.1391C27.0394 57.9998 26.148 57.1084 26.148 56.0086V55.013ZM18.2221 37.8442C18.7657 38.2888 19.3338 38.7026 19.9236 39.0837C20.8643 39.6782 21.5724 40.5775 21.9297 41.6314L19.7942 43.763L17.7263 42.3373C16.8209 41.7133 15.581 41.9415 14.9569 42.847C14.8073 43.0641 14.7023 43.3088 14.648 43.5668L14.1263 46.0528H11.7598L11.2381 43.5708C11.0116 42.4947 9.9557 41.8059 8.8796 42.0324C8.62158 42.0867 8.37692 42.1917 8.15979 42.3413L6.09097 43.763L4.27702 41.953L5.7017 39.8862C6.3263 38.981 6.09881 37.741 5.19371 37.1164C4.97643 36.9665 4.73149 36.8612 4.47315 36.8068L1.99117 36.2841V33.9186L4.47315 33.396C5.54888 33.1678 6.23608 32.1109 6.00797 31.0351C5.95388 30.7799 5.85015 30.5378 5.7027 30.3226L4.27702 28.2498L6.09097 26.4398L8.16079 27.8655C9.06664 28.4889 10.3065 28.2599 10.9299 27.354C11.0792 27.1371 11.184 26.8927 11.2381 26.635L11.4124 25.8066C11.5719 26.9537 11.8361 28.0838 12.2019 29.1826C8.92602 29.5732 6.58702 32.5455 6.97754 35.8213C7.36806 39.0972 10.3404 41.4361 13.6162 41.0456C14.5873 40.9298 15.5152 40.5773 16.3183 40.0191C17.1214 39.4609 17.7751 38.7141 18.2221 37.8442ZM16.676 36.4414C15.9326 38.5079 13.6548 39.5804 11.5883 38.8371C9.52187 38.0936 8.44938 35.8158 9.19271 33.7494C9.47027 32.9778 9.97955 32.311 10.6508 31.8401C11.3221 31.3692 12.1225 31.1174 12.9424 31.1191H12.9803C13.8958 33.0932 15.1462 34.8939 16.676 36.4414ZM57.3097 21.5256L54.4225 21.1135C52.7895 20.8802 51.2767 22.0151 51.0435 23.648C50.9315 24.4321 51.1356 25.2287 51.611 25.8624L53.3602 28.195L50.1744 30.5844L48.4241 28.2528C47.4345 26.933 45.5624 26.6653 44.2428 27.6549C43.6091 28.1301 43.1901 28.8376 43.0778 29.6217L42.6746 32.5129L38.7331 31.9494L39.1453 29.0622C39.3791 27.4293 38.2449 25.916 36.612 25.6823C36.2236 25.6267 35.8279 25.6481 35.4477 25.7455C35.0676 25.8428 34.7103 26.0142 34.3964 26.2497L32.0637 27.9989L29.6743 24.813L32.006 23.0628C33.3257 22.0732 33.5934 20.2011 32.6038 18.8815C32.1286 18.2478 31.4212 17.8287 30.6371 17.7165L27.7499 17.3044L28.3134 13.3629L31.2006 13.775C32.8334 14.0089 34.3467 12.8746 34.5804 11.2418C34.6361 10.8533 34.6146 10.4576 34.5173 10.0775C34.4199 9.69729 34.2486 9.34002 34.0131 9.0261L32.2579 6.69146L35.4437 4.30206L37.194 6.63471C38.1836 7.95448 40.0556 8.22216 41.3753 7.23255C42.009 6.75734 42.428 6.04989 42.5402 5.26578L42.9524 2.37859L46.8939 2.9411L46.4817 5.82829C46.2485 7.46129 47.3832 8.97408 49.0162 9.20729C49.8004 9.31929 50.597 9.1152 51.2307 8.63981L53.5633 6.89057L55.9527 10.0764L53.6201 11.8267C52.3003 12.8163 52.0326 14.6883 53.0222 16.008C53.4974 16.6417 54.2049 17.0607 54.989 17.1729L57.8762 17.5851L57.3097 21.5256Z" fill="url(#paint0_linear_535_2313)"/>
<path d="M42.81 9.47927C38.4113 9.47927 34.8454 13.0452 34.8454 17.4439C34.8454 21.8427 38.4113 25.4086 42.81 25.4086C47.2087 25.4086 50.7747 21.8427 50.7747 17.4439C50.7697 13.0472 47.2068 9.48413 42.81 9.47927ZM42.81 23.4174C39.5109 23.4174 36.8365 20.743 36.8365 17.4439C36.8365 14.1448 39.5109 11.4704 42.81 11.4704C46.1091 11.4704 48.7835 14.1448 48.7835 17.4439C48.7796 20.7414 46.1075 23.4136 42.81 23.4174ZM29.1347 44.0618H31.1259V47.0486H29.1347V44.0618ZM25.7756 34.2842C19.6298 31.8834 16.5939 24.9549 18.9948 18.809C19.9252 16.4276 21.5949 14.4075 23.7586 13.0454L22.6943 11.3609C16.1812 15.4641 14.2275 24.0703 18.3306 30.5834C19.9198 33.1059 22.2758 35.0523 25.0528 36.137C27.5109 37.0788 29.1341 39.4383 29.1347 42.0707H31.1259C31.129 38.617 29.0007 35.5196 25.7756 34.2842ZM49.0463 37.0927H56.0154V39.0839H49.0463V37.0927ZM47.4137 43.8305L48.6882 42.3006L54.6622 47.2778L53.3876 48.8075L47.4137 43.8305ZM43.0728 45.0574H45.064V52.0265H43.0728V45.0574ZM1.0166 17.2098L8.98076 15.2192L9.46337 17.1497L1.49921 19.1407L1.0166 17.2098ZM2.67039 7.04022L3.82713 5.42078L10.7956 10.3982L9.63896 12.0176L2.67039 7.04022ZM11.2007 0.501487L13.1296 0.00830078L15.1659 7.97234L13.237 8.46552L11.2007 0.501487Z" fill="url(#paint1_linear_535_2313)"/>
</g>
<defs>
<linearGradient id="paint0_linear_535_2313" x1="30" y1="0.255859" x2="30" y2="59.9909" gradientUnits="userSpaceOnUse">
<stop stop-color="#004DF7"/>
<stop offset="1" stop-color="#40B3FF"/>
</linearGradient>
<linearGradient id="paint1_linear_535_2313" x1="28.516" y1="0.00830078" x2="28.516" y2="52.0265" gradientUnits="userSpaceOnUse">
<stop stop-color="#004DF7"/>
<stop offset="1" stop-color="#40B3FF"/>
</linearGradient>
<clipPath id="clip0_535_2313">
<rect width="60" height="60" fill="white"/>
</clipPath>
</defs>
</svg>
