<svg width="60" height="61" viewBox="0 0 60 61" fill="none" xmlns="http://www.w3.org/2000/svg">
<path d="M42.6211 37.7468C42.3642 37.7468 42.1179 37.6447 41.9362 37.4631C41.7545 37.2814 41.6525 37.035 41.6525 36.7781V25.1541H22.2791V30.9661C22.2791 31.223 22.1771 31.4694 21.9954 31.6511C21.8138 31.8327 21.5674 31.9348 21.3105 31.9348C21.0536 31.9348 20.8072 31.8327 20.6255 31.6511C20.4439 31.4694 20.3418 31.223 20.3418 30.9661V24.1855C20.3418 23.9286 20.4439 23.6822 20.6255 23.5005C20.8072 23.3189 21.0536 23.2168 21.3105 23.2168H42.6211C42.878 23.2168 43.1244 23.3189 43.3061 23.5005C43.4878 23.6822 43.5898 23.9286 43.5898 24.1855V36.7781C43.5898 37.035 43.4878 37.2814 43.3061 37.4631C43.1244 37.6447 42.878 37.7468 42.6211 37.7468Z" fill="url(#paint0_linear_535_2334)"/>
<path d="M42.6211 29.0289H21.3105C21.0536 29.0289 20.8072 28.9268 20.6255 28.7451C20.4439 28.5635 20.3418 28.3171 20.3418 28.0602C20.3418 27.8033 20.4439 27.5569 20.6255 27.3752C20.8072 27.1936 21.0536 27.0915 21.3105 27.0915H42.6211C42.8781 27.0915 43.1244 27.1936 43.3061 27.3752C43.4878 27.5569 43.5898 27.8033 43.5898 28.0602C43.5898 28.3171 43.4878 28.5635 43.3061 28.7451C43.1244 28.9268 42.8781 29.0289 42.6211 29.0289ZM42.6211 32.9035H36.0633C35.8064 32.9035 35.56 32.8015 35.3783 32.6198C35.1967 32.4381 35.0946 32.1918 35.0946 31.9349C35.0946 31.6779 35.1967 31.4316 35.3783 31.2499C35.56 31.0682 35.8064 30.9662 36.0633 30.9662H42.6211C42.8781 30.9662 43.1244 31.0682 43.3061 31.2499C43.4878 31.4316 43.5898 31.6779 43.5898 31.9349C43.5898 32.1918 43.4878 32.4381 43.3061 32.6198C43.1244 32.8015 42.8781 32.9035 42.6211 32.9035ZM31.9658 24.1855C29.6668 24.1855 27.4194 23.5038 25.5079 22.2265C23.5963 20.9493 22.1064 19.1338 21.2266 17.0098C20.3468 14.8858 20.1166 12.5486 20.5652 10.2938C21.0137 8.03894 22.1207 5.96774 23.7464 4.3421C25.372 2.71645 27.4432 1.60937 29.6981 1.16086C31.9529 0.712342 34.2901 0.942537 36.4141 1.82233C38.5381 2.70212 40.3536 4.192 41.6308 6.10356C42.9081 8.01512 43.5898 10.2625 43.5898 12.5615C43.5865 15.6434 42.3607 18.598 40.1815 20.7772C38.0023 22.9564 35.0477 24.1822 31.9658 24.1855ZM31.9658 2.87484C30.05 2.87484 28.1771 3.44295 26.5842 4.50734C24.9912 5.57172 23.7497 7.08457 23.0165 8.85458C22.2833 10.6246 22.0915 12.5723 22.4653 14.4513C22.839 16.3303 23.7616 18.0563 25.1163 19.411C26.471 20.7657 28.197 21.6883 30.076 22.0621C31.9551 22.4358 33.9027 22.244 35.6727 21.5108C37.4427 20.7777 38.9556 19.5361 40.02 17.9431C41.0844 16.3502 41.6525 14.4774 41.6525 12.5615C41.6497 9.99331 40.6282 7.53111 38.8122 5.71512C36.9962 3.89912 34.534 2.87766 31.9658 2.87484Z" fill="url(#paint1_linear_535_2334)"/>
<path d="M32.9351 17.4049H29.0605C28.8036 17.4049 28.5572 17.3029 28.3755 17.1212C28.1939 16.9396 28.0918 16.6932 28.0918 16.4363C28.0918 16.1794 28.1939 15.933 28.3755 15.7513C28.5572 15.5697 28.8036 15.4676 29.0605 15.4676H32.9351C33.192 15.4676 33.4384 15.3655 33.6201 15.1839C33.8017 15.0022 33.9038 14.7558 33.9038 14.4989C33.9038 14.242 33.8017 13.9956 33.6201 13.814C33.4384 13.6323 33.192 13.5303 32.9351 13.5303H30.9978C30.2271 13.5303 29.4879 13.2241 28.9429 12.6791C28.398 12.1341 28.0918 11.395 28.0918 10.6243C28.0918 9.85354 28.398 9.11439 28.9429 8.56941C29.4879 8.02443 30.2271 7.71826 30.9978 7.71826H34.8725C35.1294 7.71826 35.3758 7.82032 35.5574 8.00198C35.7391 8.18364 35.8411 8.43002 35.8411 8.68693C35.8411 8.94384 35.7391 9.19022 35.5574 9.37188C35.3758 9.55354 35.1294 9.6556 34.8725 9.6556H30.9978C30.7409 9.6556 30.4945 9.75765 30.3128 9.93931C30.1312 10.121 30.0291 10.3674 30.0291 10.6243C30.0291 10.8812 30.1312 11.1276 30.3128 11.3092C30.4945 11.4909 30.7409 11.5929 30.9978 11.5929H32.9351C33.7059 11.5929 34.445 11.8991 34.99 12.4441C35.535 12.9891 35.8411 13.7282 35.8411 14.4989C35.8411 15.2697 35.535 16.0088 34.99 16.5538C34.445 17.0988 33.7059 17.4049 32.9351 17.4049Z" fill="url(#paint2_linear_535_2334)"/>
<path d="M31.9658 9.65543C31.7089 9.65543 31.4625 9.55337 31.2809 9.37171C31.0992 9.19005 30.9971 8.94367 30.9971 8.68676V6.74943C30.9971 6.49252 31.0992 6.24614 31.2809 6.06448C31.4625 5.88282 31.7089 5.78076 31.9658 5.78076C32.2227 5.78076 32.4691 5.88282 32.6508 6.06448C32.8324 6.24614 32.9345 6.49252 32.9345 6.74943V8.68676C32.9345 8.94367 32.8324 9.19005 32.6508 9.37171C32.4691 9.55337 32.2227 9.65543 31.9658 9.65543ZM31.9658 19.3421C31.7089 19.3421 31.4625 19.24 31.2809 19.0584C31.0992 18.8767 30.9971 18.6303 30.9971 18.3734V16.4361C30.9971 16.1792 31.0992 15.9328 31.2809 15.7511C31.4625 15.5695 31.7089 15.4674 31.9658 15.4674C32.2227 15.4674 32.4691 15.5695 32.6508 15.7511C32.8324 15.9328 32.9345 16.1792 32.9345 16.4361V18.3734C32.9345 18.6303 32.8324 18.8767 32.6508 19.0584C32.4691 19.24 32.2227 19.3421 31.9658 19.3421ZM17.4358 60.9948C17.1789 60.9947 16.9326 60.8926 16.751 60.711L0.283613 44.2436C0.102016 44.062 0 43.8156 0 43.5588C0 43.3019 0.102016 43.0556 0.283613 42.8739L7.06428 36.0933C7.24593 35.9117 7.49227 35.8097 7.74913 35.8097C8.00599 35.8097 8.25233 35.9117 8.43398 36.0933L24.9013 52.5606C25.0829 52.7423 25.1849 52.9886 25.1849 53.2455C25.1849 53.5023 25.0829 53.7486 24.9013 53.9303L18.1207 60.711C17.939 60.8926 17.6927 60.9947 17.4358 60.9948ZM2.33816 43.5588L17.4358 58.6564L22.8468 53.2455L7.74913 38.1478L2.33816 43.5588Z" fill="url(#paint3_linear_535_2334)"/>
<path d="M9.68623 39.6842C9.49468 39.6842 9.30744 39.6274 9.14818 39.5209C8.98892 39.4145 8.8648 39.2632 8.7915 39.0862C8.7182 38.9093 8.69902 38.7145 8.73638 38.5266C8.77373 38.3388 8.86596 38.1662 9.00139 38.0307L16.7507 30.2814C16.9323 30.0997 17.1787 29.9976 17.4356 29.9976H33.9029C34.9305 29.9976 35.9161 30.4058 36.6427 31.1324C37.3694 31.8591 37.7776 32.8446 37.7776 33.8722C37.7776 34.8999 37.3694 35.8854 36.6427 36.612C35.9161 37.3387 34.9305 37.7469 33.9029 37.7469H27.1222C26.8653 37.7469 26.619 37.6448 26.4373 37.4632C26.2556 37.2815 26.1536 37.0351 26.1536 36.7782C26.1536 36.5213 26.2556 36.2749 26.4373 36.0933C26.619 35.9116 26.8653 35.8096 27.1222 35.8096H33.9029C34.4167 35.8096 34.9095 35.6055 35.2728 35.2421C35.6361 34.8788 35.8402 34.386 35.8402 33.8722C35.8402 33.3584 35.6361 32.8656 35.2728 32.5023C34.9095 32.139 34.4167 31.9349 33.9029 31.9349H17.8366L10.3711 39.4004C10.1895 39.5821 9.94312 39.6842 9.68623 39.6842Z" fill="url(#paint4_linear_535_2334)"/>
<path d="M22.279 52.2768C22.0875 52.2768 21.9002 52.2199 21.741 52.1135C21.5817 52.007 21.4576 51.8558 21.3843 51.6788C21.311 51.5018 21.2918 51.3071 21.3291 51.1192C21.3665 50.9313 21.4587 50.7587 21.5942 50.6233L26.4375 45.7799C26.6191 45.5983 26.8655 45.4962 27.1223 45.4961H41.2349L57.6354 28.1512C57.9637 27.8124 58.144 27.3571 58.1367 26.8855C58.1293 26.4138 57.9349 25.9643 57.5961 25.636C57.2574 25.3077 56.8021 25.1274 56.3304 25.1347C55.8588 25.1421 55.4093 25.3365 55.081 25.6753L43.3068 37.463C43.2168 37.553 43.1099 37.6245 42.9922 37.6732C42.8745 37.7219 42.7484 37.7469 42.621 37.7468H32.9343C32.6774 37.7468 32.4311 37.6447 32.2494 37.4631C32.0677 37.2814 31.9657 37.035 31.9657 36.7781C31.9657 36.5212 32.0677 36.2748 32.2494 36.0932C32.4311 35.9115 32.6774 35.8094 32.9343 35.8094H42.219L53.7094 24.3046C54.4044 23.6375 55.3313 23.2663 56.2946 23.2693C57.258 23.2723 58.1826 23.6492 58.8734 24.3206C59.5643 24.992 59.9675 25.9054 59.998 26.8683C60.0285 27.8312 59.684 28.7683 59.037 29.4821L42.3566 47.1312C42.2659 47.2269 42.1567 47.303 42.0356 47.3549C41.9145 47.4069 41.7841 47.4336 41.6524 47.4335H27.5234L22.9639 51.993C22.7822 52.1746 22.5359 52.2767 22.279 52.2768Z" fill="url(#paint5_linear_535_2334)"/>
<defs>
<linearGradient id="paint0_linear_535_2334" x1="31.9658" y1="23.2168" x2="31.9658" y2="37.7468" gradientUnits="userSpaceOnUse">
<stop stop-color="#004DF7"/>
<stop offset="1" stop-color="#40B3FF"/>
</linearGradient>
<linearGradient id="paint1_linear_535_2334" x1="31.9658" y1="0.9375" x2="31.9658" y2="32.9035" gradientUnits="userSpaceOnUse">
<stop stop-color="#004DF7"/>
<stop offset="1" stop-color="#40B3FF"/>
</linearGradient>
<linearGradient id="paint2_linear_535_2334" x1="31.9665" y1="7.71826" x2="31.9665" y2="17.4049" gradientUnits="userSpaceOnUse">
<stop stop-color="#004DF7"/>
<stop offset="1" stop-color="#40B3FF"/>
</linearGradient>
<linearGradient id="paint3_linear_535_2334" x1="16.4672" y1="5.78076" x2="16.4672" y2="60.9948" gradientUnits="userSpaceOnUse">
<stop stop-color="#004DF7"/>
<stop offset="1" stop-color="#40B3FF"/>
</linearGradient>
<linearGradient id="paint4_linear_535_2334" x1="23.2477" y1="29.9976" x2="23.2477" y2="39.6842" gradientUnits="userSpaceOnUse">
<stop stop-color="#004DF7"/>
<stop offset="1" stop-color="#40B3FF"/>
</linearGradient>
<linearGradient id="paint5_linear_535_2334" x1="40.6552" y1="23.2693" x2="40.6552" y2="52.2768" gradientUnits="userSpaceOnUse">
<stop stop-color="#004DF7"/>
<stop offset="1" stop-color="#40B3FF"/>
</linearGradient>
</defs>
</svg>
