<svg width="60" height="61" viewBox="0 0 60 61" fill="none" xmlns="http://www.w3.org/2000/svg">
<path d="M0.0799999 42.483C0.0970941 42.6973 0.182782 42.9003 0.32436 43.0621C0.465939 43.2238 0.655871 43.3357 0.866 43.381L4.351 44.133C4.474 44.727 4.63 45.313 4.819 45.885L2.181 48.275C2.02173 48.4194 1.91325 48.6113 1.87164 48.8223C1.83003 49.0332 1.85751 49.2519 1.95 49.446C2.40651 50.4156 2.94023 51.3469 3.546 52.231C3.66814 52.4076 3.84386 52.5402 4.04718 52.6091C4.25051 52.6781 4.47063 52.6798 4.675 52.614L8.062 51.523C8.467 51.977 8.898 52.408 9.352 52.813L8.261 56.2C8.19518 56.4044 8.19688 56.6245 8.26586 56.8278C8.33483 57.0311 8.46742 57.2069 8.644 57.329C9.52806 57.9348 10.4594 58.4685 11.429 58.925C11.6231 59.0175 11.8418 59.045 12.0527 59.0034C12.2637 58.9617 12.4556 58.8533 12.6 58.694L14.99 56.056C15.563 56.244 16.149 56.401 16.743 56.524L17.495 60.009C17.588 60.44 17.953 60.759 18.392 60.795C18.924 60.837 19.457 60.875 20 60.875C20.543 60.875 21.076 60.837 21.608 60.795C21.8223 60.7779 22.0253 60.6922 22.1871 60.5506C22.3489 60.4091 22.4607 60.2191 22.506 60.009L23.258 56.524C23.8508 56.4017 24.4361 56.2454 25.011 56.056L27.401 58.694C27.5453 58.8534 27.7372 58.962 27.9482 59.0036C28.1592 59.0452 28.3779 59.0176 28.572 58.925C29.5414 58.4681 30.4727 57.9344 31.357 57.329C31.5336 57.2069 31.6662 57.0311 31.7351 56.8278C31.8041 56.6245 31.8058 56.4044 31.74 56.2L30.649 52.813C31.103 52.408 31.534 51.977 31.939 51.524L35.326 52.615C35.5304 52.681 35.7505 52.6794 35.9539 52.6104C36.1573 52.5414 36.333 52.4087 36.455 52.232C37.0608 51.3479 37.5945 50.4166 38.051 49.447C38.1435 49.2529 38.171 49.0342 38.1294 48.8232C38.0877 48.6123 37.9793 48.4204 37.82 48.276L35.182 45.886C35.37 45.313 35.527 44.727 35.65 44.133L39.135 43.381C39.566 43.288 39.885 42.923 39.921 42.484C39.962 41.951 40 41.418 40 40.875C40 40.332 39.962 39.799 39.92 39.267C39.9029 39.0527 39.8172 38.8496 39.6756 38.6879C39.5341 38.5261 39.3441 38.4143 39.134 38.369L35.649 37.617C35.5267 37.0242 35.3704 36.4389 35.181 35.864L37.819 33.474C37.9783 33.3296 38.0868 33.1377 38.1284 32.9267C38.17 32.7158 38.1425 32.4971 38.05 32.303C37.5931 31.3336 37.0594 30.4023 36.454 29.518C36.332 29.3413 36.1563 29.2086 35.9529 29.1396C35.7495 29.0706 35.5294 29.069 35.325 29.135L31.938 30.226C31.5329 29.7718 31.1021 29.3411 30.648 28.936L31.739 25.549C31.8048 25.3446 31.8031 25.1245 31.7341 24.9212C31.6652 24.7179 31.5326 24.5421 31.356 24.42C30.4719 23.8142 29.5406 23.2805 28.571 22.824C28.377 22.7312 28.1582 22.7035 27.9472 22.7451C27.7362 22.7868 27.5442 22.8955 27.4 23.055L25.01 25.693C24.4349 25.5042 23.8497 25.3479 23.257 25.225L22.505 21.74C22.4596 21.5301 22.3479 21.3404 22.1863 21.1988C22.0248 21.0573 21.8221 20.9714 21.608 20.954C20.5374 20.869 19.4616 20.869 18.391 20.954C18.1767 20.9711 17.9737 21.0568 17.8119 21.1984C17.6501 21.3399 17.5383 21.5299 17.493 21.74L16.741 25.225C16.147 25.348 15.561 25.504 14.989 25.693L12.599 23.055C12.4546 22.8957 12.2627 22.7872 12.0517 22.7456C11.8408 22.704 11.6221 22.7315 11.428 22.824C10.4584 23.2805 9.52706 23.8142 8.643 24.42C8.46642 24.5421 8.33383 24.7179 8.26486 24.9212C8.19588 25.1245 8.19418 25.3446 8.26 25.549L9.351 28.936C8.897 29.341 8.466 29.772 8.061 30.226L4.675 29.135C4.47066 29.0688 4.25042 29.0704 4.04703 29.1394C3.84363 29.2084 3.66792 29.3412 3.546 29.518C2.94023 30.4021 2.40651 31.3334 1.95 32.303C1.85751 32.4971 1.83003 32.7158 1.87164 32.9267C1.91325 33.1377 2.02173 33.3296 2.181 33.474L4.819 35.864C4.63017 36.4391 4.47392 37.0243 4.351 37.617L0.866 38.369C0.435 38.462 0.116 38.827 0.0799999 39.266C0.0379999 39.799 0 40.332 0 40.875C0 41.418 0.0379999 41.951 0.0799999 42.483ZM2.021 40.166L5.423 39.431C5.61947 39.3886 5.7986 39.2879 5.93703 39.1422C6.07545 38.9965 6.16674 38.8124 6.199 38.614C6.349 37.692 6.591 36.787 6.918 35.923C6.98923 35.7351 7.00214 35.5301 6.95504 35.3347C6.90794 35.1394 6.80303 34.9628 6.654 34.828L4.085 32.5C4.309 32.071 4.543 31.66 4.785 31.271L8.081 32.333C8.471 32.458 8.901 32.333 9.162 32.015C9.75394 31.2915 10.4166 30.6289 11.14 30.037C11.458 29.777 11.585 29.348 11.458 28.956L10.396 25.66C10.785 25.417 11.195 25.183 11.625 24.96L13.953 27.53C14.23 27.835 14.666 27.94 15.049 27.794C15.9193 27.4647 16.8205 27.2238 17.739 27.075C17.9374 27.0427 18.1215 26.9514 18.2672 26.813C18.4129 26.6746 18.5136 26.4955 18.556 26.299L19.29 22.897C19.761 22.872 20.24 22.871 20.709 22.897L21.444 26.299C21.4864 26.4955 21.5871 26.6746 21.7328 26.813C21.8785 26.9514 22.0626 27.0427 22.261 27.075C23.183 27.225 24.088 27.467 24.952 27.794C25.1399 27.8654 25.3449 27.8783 25.5403 27.8312C25.7357 27.7841 25.9123 27.6791 26.047 27.53L28.375 24.961C28.804 25.185 29.215 25.419 29.604 25.661L28.542 28.957C28.416 29.349 28.542 29.777 28.86 30.038C29.5834 30.6299 30.2461 31.2925 30.838 32.016C30.965 32.1719 31.1363 32.2858 31.3292 32.3426C31.5222 32.3993 31.7278 32.3963 31.919 32.334L35.215 31.272C35.458 31.661 35.692 32.071 35.915 32.5L33.345 34.828C33.1959 34.9629 33.0909 35.1397 33.0438 35.3352C32.9967 35.5308 33.0097 35.7359 33.081 35.924C33.408 36.786 33.65 37.691 33.8 38.614C33.8323 38.8124 33.9235 38.9965 34.062 39.1422C34.2004 39.2879 34.3795 39.3886 34.576 39.431L37.978 40.165C37.991 40.4 38 40.637 38 40.875C38 41.113 37.992 41.35 37.979 41.584L34.577 42.319C34.3805 42.3614 34.2014 42.4621 34.063 42.6078C33.9245 42.7535 33.8333 42.9376 33.801 43.136C33.6518 44.0547 33.4109 44.9562 33.082 45.827C33.0108 46.0149 32.9979 46.2199 33.045 46.4152C33.0921 46.6106 33.197 46.7872 33.346 46.922L35.915 49.25C35.691 49.679 35.457 50.09 35.215 50.479L31.919 49.417C31.7278 49.3545 31.5221 49.3515 31.3291 49.4082C31.1362 49.465 30.9649 49.5789 30.838 49.735C30.2458 50.4582 29.5832 51.1208 28.86 51.713C28.542 51.973 28.416 52.402 28.542 52.793L29.604 56.089C29.215 56.332 28.805 56.566 28.376 56.789L26.048 54.219C25.9127 54.0703 25.736 53.9657 25.5406 53.9186C25.3452 53.8716 25.1401 53.8842 24.952 53.955C24.09 54.282 23.185 54.524 22.262 54.674C22.0636 54.7062 21.8795 54.7975 21.7338 54.936C21.5881 55.0744 21.4874 55.2535 21.445 55.45L20.711 58.852C20.24 58.877 19.761 58.878 19.292 58.852L18.557 55.45C18.5146 55.2535 18.4139 55.0744 18.2682 54.936C18.1225 54.7975 17.9384 54.7062 17.74 54.674C16.8212 54.5248 15.9197 54.2839 15.049 53.955C14.8611 53.8836 14.6561 53.8706 14.4607 53.9177C14.2653 53.9649 14.0887 54.0699 13.954 54.219L11.626 56.788C11.2077 56.5701 10.7978 56.3366 10.397 56.088L11.459 52.792C11.585 52.4 11.459 51.972 11.141 51.711C10.4176 51.119 9.75494 50.4564 9.163 49.733C9.03573 49.5774 8.86447 49.4638 8.67161 49.407C8.47875 49.3503 8.27326 49.3531 8.082 49.415L4.786 50.477C4.53639 50.0768 4.30287 49.6668 4.086 49.248L6.656 46.92C6.80511 46.785 6.91007 46.6083 6.95716 46.4127C7.00426 46.2172 6.99131 46.012 6.92 45.824C6.59073 44.9537 6.34985 44.0525 6.201 43.134C6.16874 42.9356 6.07745 42.7515 5.93903 42.6058C5.8006 42.4601 5.62147 42.3594 5.425 42.317L2.021 41.585C2.009 41.35 2 41.113 2 40.875C2 40.637 2.008 40.4 2.021 40.166ZM52.219 15.11C52.4032 15.052 52.5666 14.9419 52.6896 14.793C52.8126 14.6441 52.8898 14.4628 52.912 14.271C52.972 13.766 53 13.309 53 12.875C53 12.441 52.972 11.984 52.913 11.479C52.8908 11.2872 52.8136 11.1059 52.6906 10.957C52.5676 10.8081 52.4042 10.698 52.22 10.64L49.447 9.76899C49.3643 9.54259 49.2722 9.31973 49.171 9.10099L50.515 6.52599C50.6041 6.35482 50.6418 6.16156 50.6238 5.96944C50.6057 5.77733 50.5325 5.59452 50.413 5.44299C49.8321 4.70904 49.1679 4.04494 48.434 3.46399C48.2826 3.34435 48.0998 3.27099 47.9077 3.25272C47.7156 3.23444 47.5223 3.27204 47.351 3.36099L44.774 4.70499C44.5551 4.60451 44.3322 4.51277 44.106 4.42999L43.235 1.65699C43.177 1.47281 43.0669 1.30935 42.918 1.18638C42.7691 1.0634 42.5878 0.986163 42.396 0.963991C41.4687 0.845987 40.5303 0.845987 39.603 0.963991C39.4112 0.986163 39.2299 1.0634 39.081 1.18638C38.9321 1.30935 38.822 1.47281 38.764 1.65699L37.893 4.42999C37.666 4.51299 37.443 4.60499 37.225 4.70599L34.65 3.36199C34.4788 3.27315 34.2856 3.23552 34.0935 3.25361C33.9014 3.2717 33.7186 3.34474 33.567 3.46399C32.833 4.04494 32.1689 4.70904 31.588 5.44299C31.4681 5.59431 31.3946 5.77708 31.3763 5.96926C31.3581 6.16143 31.3958 6.35479 31.485 6.52599L32.828 9.10099C32.728 9.31899 32.636 9.54199 32.553 9.76899L29.78 10.64C29.5958 10.698 29.4324 10.8081 29.3094 10.957C29.1864 11.1059 29.1092 11.2872 29.087 11.479C29.028 11.984 29 12.441 29 12.875C29 13.309 29.028 13.766 29.087 14.271C29.1092 14.4628 29.1864 14.6441 29.3094 14.793C29.4324 14.9419 29.5958 15.052 29.78 15.11L32.553 15.981C32.636 16.208 32.728 16.431 32.829 16.649L31.485 19.224C31.303 19.573 31.343 19.997 31.587 20.307C32.1679 21.0409 32.8321 21.705 33.566 22.286C33.875 22.531 34.3 22.57 34.649 22.389L37.224 21.046C37.442 21.146 37.665 21.238 37.892 21.321L38.763 24.094C38.821 24.2782 38.9311 24.4416 39.08 24.5646C39.2289 24.6876 39.4102 24.7648 39.602 24.787C40.109 24.847 40.566 24.875 41 24.875C41.434 24.875 41.891 24.847 42.396 24.788C42.5878 24.7658 42.7691 24.6886 42.918 24.5656C43.0669 24.4426 43.177 24.2792 43.235 24.095L44.106 21.322C44.333 21.239 44.556 21.147 44.774 21.046L47.349 22.39C47.5201 22.4793 47.7134 22.5172 47.9056 22.4991C48.0978 22.481 48.2806 22.4077 48.432 22.288C49.166 21.707 49.8301 21.0429 50.411 20.309C50.5309 20.1577 50.6044 19.9749 50.6227 19.7827C50.6409 19.5905 50.6032 19.3972 50.514 19.226L49.17 16.651C49.271 16.433 49.363 16.21 49.446 15.983L52.219 15.11ZM48.359 14.226C48.043 14.326 47.797 14.575 47.701 14.893C47.5664 15.341 47.3875 15.7745 47.167 16.187C47.0895 16.3306 47.0484 16.491 47.0473 16.6542C47.0463 16.8174 47.0853 16.9784 47.161 17.123L48.43 19.555C48.193 19.818 47.942 20.069 47.68 20.305L45.248 19.036C45.1033 18.9606 44.9424 18.9217 44.7793 18.9227C44.6161 18.9238 44.4557 18.9647 44.312 19.042C43.8995 19.2625 43.466 19.4414 43.018 19.576C42.8617 19.6231 42.7192 19.7077 42.6029 19.8223C42.4867 19.937 42.4002 20.0783 42.351 20.234L41.527 22.858C41.176 22.88 40.824 22.88 40.473 22.858L39.649 20.234C39.5998 20.0783 39.5133 19.937 39.3971 19.8223C39.2808 19.7077 39.1383 19.6231 38.982 19.576C38.5341 19.4419 38.1009 19.263 37.689 19.042C37.5452 18.9645 37.3846 18.9235 37.2212 18.9225C37.0579 18.9214 36.8968 18.9604 36.752 19.036L34.32 20.305C34.0572 20.0682 33.8068 19.8178 33.57 19.555L34.839 17.123C34.9144 16.9783 34.9533 16.8174 34.9523 16.6542C34.9512 16.4911 34.9103 16.3307 34.833 16.187C34.6125 15.7745 34.4336 15.341 34.299 14.893C34.2519 14.7367 34.1673 14.5942 34.0527 14.4779C33.938 14.3617 33.7967 14.2752 33.641 14.226L31.017 13.402C30.9939 13.051 30.9939 12.6989 31.017 12.348L33.641 11.524C33.957 11.424 34.203 11.175 34.299 10.857C34.435 10.404 34.615 9.96899 34.833 9.56399C34.9104 9.42018 34.9515 9.25958 34.9525 9.09624C34.9536 8.9329 34.9146 8.77179 34.839 8.62699L33.57 6.19499C33.807 5.93199 34.058 5.68099 34.32 5.44499L36.752 6.71399C37.045 6.86699 37.397 6.86399 37.688 6.70799C38.1005 6.48746 38.534 6.30858 38.982 6.17399C39.299 6.07899 39.549 5.83199 39.649 5.51599L40.473 2.89199C40.824 2.86999 41.176 2.86999 41.527 2.89199L42.351 5.51599C42.451 5.83199 42.7 6.07799 43.018 6.17399C43.471 6.30999 43.906 6.48999 44.311 6.70799C44.4548 6.78544 44.6154 6.82649 44.7788 6.82753C44.9421 6.82858 45.1032 6.78959 45.248 6.71399L47.68 5.44499C47.943 5.68199 48.194 5.93299 48.43 6.19499L47.161 8.62699C47.0856 8.77166 47.0467 8.93259 47.0477 9.09574C47.0488 9.25889 47.0897 9.4193 47.167 9.56299C47.385 9.96999 47.565 10.405 47.701 10.857C47.796 11.174 48.043 11.424 48.359 11.524L50.983 12.348C51.0061 12.6989 51.0061 13.051 50.983 13.402L48.359 14.226ZM59.262 33.839L57.544 33.229C57.4466 32.9507 57.3341 32.678 57.207 32.412L57.988 30.767C58.0679 30.5994 58.0993 30.4129 58.0788 30.2285C58.0583 30.044 57.9867 29.8689 57.872 29.723C57.3706 29.0823 56.7934 28.5047 56.153 28.003C56.0068 27.8885 55.8315 27.8171 55.647 27.7966C55.4624 27.7761 55.2758 27.8074 55.108 27.887L53.462 28.668C53.1964 28.541 52.924 28.4289 52.646 28.332L52.035 26.614C51.9725 26.4388 51.8626 26.2845 51.7174 26.1683C51.5722 26.0521 51.3976 25.9786 51.213 25.956C50.4075 25.849 49.5915 25.849 48.786 25.956C48.6013 25.9783 48.4265 26.0517 48.2813 26.1679C48.136 26.2842 48.0262 26.4387 47.964 26.614L47.354 28.332C47.075 28.43 46.802 28.542 46.537 28.669L44.892 27.888C44.7243 27.8086 44.5379 27.7774 44.3535 27.7979C44.1692 27.8184 43.9941 27.8897 43.848 28.004C43.209 28.504 42.63 29.082 42.128 29.723C42.0138 29.8693 41.9424 30.0445 41.9219 30.2291C41.9014 30.4136 41.9326 30.6002 42.012 30.768L42.793 32.414C42.666 32.6796 42.5539 32.952 42.457 33.23L40.739 33.841C40.5638 33.9035 40.4095 34.0134 40.2933 34.1586C40.1771 34.3038 40.1036 34.4784 40.081 34.663C40.026 35.106 40 35.503 40 35.875C40 36.247 40.026 36.643 40.08 37.088C40.125 37.464 40.38 37.783 40.738 37.91L42.456 38.52C42.554 38.799 42.666 39.072 42.793 39.337L42.012 40.982C41.9321 41.1495 41.9007 41.3361 41.9212 41.5205C41.9417 41.705 42.0133 41.8801 42.128 42.026C42.628 42.665 43.206 43.244 43.847 43.746C44.145 43.979 44.551 44.024 44.892 43.862L46.538 43.081C46.802 43.207 47.075 43.32 47.354 43.417L47.965 45.135C48.092 45.492 48.411 45.747 48.787 45.793C49.232 45.849 49.628 45.875 50 45.875C50.372 45.875 50.768 45.849 51.213 45.795C51.3977 45.7727 51.5725 45.6993 51.7177 45.5831C51.863 45.4668 51.9728 45.3123 52.035 45.137L52.645 43.419C52.924 43.321 53.197 43.209 53.462 43.082L55.107 43.863C55.2745 43.9431 55.4611 43.9747 55.6456 43.9542C55.8301 43.9337 56.0052 43.8619 56.151 43.747C56.79 43.247 57.369 42.669 57.871 42.028C58.104 41.73 58.149 41.325 57.987 40.983L57.206 39.337C57.332 39.073 57.445 38.8 57.542 38.521L59.26 37.91C59.617 37.783 59.872 37.464 59.918 37.088C59.974 36.643 60 36.247 60 35.875C60 35.503 59.974 35.107 59.92 34.662C59.8978 34.4772 59.8244 34.3022 59.7082 34.1568C59.5919 34.0114 59.4374 33.9013 59.262 33.839ZM57.99 36.24L56.405 36.803C56.2537 36.8567 56.1175 36.9461 56.008 37.0636C55.8985 37.1811 55.8189 37.3232 55.776 37.478C55.6469 37.948 55.4605 38.4004 55.221 38.825C55.061 39.108 55.049 39.452 55.188 39.746L55.906 41.259C55.74 41.441 55.566 41.615 55.385 41.78L53.872 41.062C53.727 40.9935 53.5677 40.9607 53.4075 40.9664C53.2472 40.9722 53.0907 41.0163 52.951 41.095C52.531 41.333 52.078 41.519 51.605 41.65C51.4502 41.6931 51.308 41.7727 51.1904 41.8822C51.0728 41.9916 50.9831 42.1277 50.929 42.279L50.366 43.864C50.1228 43.877 49.8792 43.877 49.636 43.864L49.073 42.279C49.0193 42.1277 48.9299 41.9915 48.8124 41.882C48.6949 41.7725 48.5527 41.6929 48.398 41.65C47.928 41.5209 47.4756 41.3345 47.051 41.095C46.9112 41.0167 46.7547 40.9728 46.5945 40.9671C46.4343 40.9613 46.2751 40.9939 46.13 41.062L44.617 41.78C44.4354 41.6144 44.2616 41.4406 44.096 41.259L44.814 39.746C44.8828 39.6011 44.9157 39.4418 44.9099 39.2815C44.9042 39.1212 44.86 38.9646 44.781 38.825C44.5416 38.4007 44.3552 37.9487 44.226 37.479C44.1829 37.3242 44.1033 37.182 43.9938 37.0644C43.8844 36.9468 43.7483 36.8571 43.597 36.803L42.012 36.24C41.9952 35.997 41.9945 35.7531 42.01 35.51L43.595 34.946C43.7463 34.8924 43.8825 34.8031 43.9918 34.6855C44.1011 34.568 44.1805 34.4258 44.223 34.271C44.3527 33.801 44.5394 33.3486 44.779 32.924C44.939 32.641 44.951 32.297 44.812 32.003L44.094 30.49C44.26 30.308 44.434 30.134 44.615 29.969L46.128 30.687C46.422 30.827 46.766 30.815 47.049 30.654C47.469 30.416 47.922 30.23 48.395 30.099C48.709 30.012 48.961 29.777 49.071 29.47L49.634 27.885C49.876 27.872 50.122 27.872 50.364 27.885L50.927 29.47C50.9807 29.6213 51.0701 29.7575 51.1876 29.867C51.3051 29.9765 51.4473 30.0561 51.602 30.099C52.072 30.2281 52.5244 30.4145 52.949 30.654C53.0885 30.7332 53.2451 30.7775 53.4055 30.7833C53.5658 30.789 53.7252 30.756 53.87 30.687L55.383 29.969C55.565 30.135 55.739 30.309 55.904 30.49L55.186 32.003C55.1172 32.1479 55.0843 32.3072 55.0901 32.4675C55.0958 32.6278 55.14 32.7844 55.219 32.924C55.457 33.344 55.643 33.797 55.774 34.27C55.861 34.584 56.096 34.836 56.403 34.946L57.988 35.509C58.0047 35.7523 58.0053 35.9965 57.99 36.24Z" fill="url(#paint0_linear_535_2375)"/>
<path d="M20 51.8751C26.065 51.8751 31 46.9401 31 40.8751C31 34.8101 26.065 29.8751 20 29.8751C13.935 29.8751 8.99997 34.8101 8.99997 40.8751C8.99997 46.9401 13.935 51.8751 20 51.8751ZM20 31.8751C24.962 31.8751 29 35.9131 29 40.8751C29 45.8371 24.962 49.8751 20 49.8751C15.038 49.8751 11 45.8371 11 40.8751C11 35.9131 15.038 31.8751 20 31.8751ZM0.0219727 24.2341L1.55797 25.5151C3.80818 22.8082 6.62738 20.6307 9.81491 19.1373C13.0024 17.644 16.48 16.8716 20 16.8751C20.509 16.8751 21.017 16.9041 21.525 16.9361L20.293 18.1681L21.707 19.5821L24.707 16.5821C24.7999 16.4893 24.8737 16.3791 24.924 16.2578C24.9743 16.1365 25.0002 16.0064 25.0002 15.8751C25.0002 15.7438 24.9743 15.6137 24.924 15.4924C24.8737 15.3711 24.7999 15.2609 24.707 15.1681L21.707 12.1681L20.293 13.5821L21.652 14.9411C21.1021 14.9016 20.5512 14.8796 20 14.8751C16.1869 14.8713 12.4198 15.708 8.96675 17.3256C5.51375 18.9432 2.45971 21.302 0.0219727 24.2341ZM41 7.8751C38.243 7.8751 36 10.1181 36 12.8751C36 15.6321 38.243 17.8751 41 17.8751C43.757 17.8751 46 15.6321 46 12.8751C46 10.1181 43.757 7.8751 41 7.8751ZM41 15.8751C39.346 15.8751 38 14.5291 38 12.8751C38 11.2211 39.346 9.8751 41 9.8751C42.654 9.8751 44 11.2211 44 12.8751C44 14.5291 42.654 15.8751 41 15.8751ZM50 31.8751C47.794 31.8751 46 33.6691 46 35.8751C46 38.0811 47.794 39.8751 50 39.8751C52.206 39.8751 54 38.0811 54 35.8751C54 33.6691 52.206 31.8751 50 31.8751ZM50 37.8751C48.897 37.8751 48 36.9781 48 35.8751C48 34.7721 48.897 33.8751 50 33.8751C51.103 33.8751 52 34.7721 52 35.8751C52 36.9781 51.103 37.8751 50 37.8751ZM59.196 3.8951L54.196 2.8951C54.0672 2.86902 53.9345 2.86863 53.8056 2.89395C53.6767 2.91927 53.554 2.9698 53.4446 3.04264C53.3353 3.11548 53.2414 3.2092 53.1683 3.31842C53.0953 3.42764 53.0445 3.55021 53.019 3.6791L52.019 8.6791L53.98 9.0721L54.519 6.3801C55.4931 8.40678 55.9992 10.6265 56 12.8751C56.0131 16.2853 54.8512 19.5959 52.71 22.2501L54.271 23.5011C56.6817 20.4837 57.9964 16.7372 58 12.8751C58 10.2561 57.395 7.6741 56.244 5.3441L58.804 5.8561L59.196 3.8951Z" fill="url(#paint1_linear_535_2375)"/>
<defs>
<linearGradient id="paint0_linear_535_2375" x1="30" y1="0.875488" x2="30" y2="60.875" gradientUnits="userSpaceOnUse">
<stop stop-color="#004DF7"/>
<stop offset="1" stop-color="#40B3FF"/>
</linearGradient>
<linearGradient id="paint1_linear_535_2375" x1="29.609" y1="2.87524" x2="29.609" y2="51.8751" gradientUnits="userSpaceOnUse">
<stop stop-color="#004DF7"/>
<stop offset="1" stop-color="#40B3FF"/>
</linearGradient>
</defs>
</svg>
