<svg width="60" height="56" viewBox="0 0 60 56" fill="none" xmlns="http://www.w3.org/2000/svg">
<path d="M58.6697 44.5593H21.9699L20.5968 39.4413H50.6806C51.18 39.4413 51.6793 39.0668 51.8041 38.6923L59.918 18.3452C60.0428 17.9707 60.0428 17.4714 59.7932 17.2217C59.5435 16.8472 59.169 16.7224 58.7945 16.7224H53.1772C52.4282 7.7347 45.0633 0.744263 36.0756 0.744263H35.9508C27.2128 0.744263 19.5982 7.48504 18.974 16.7224H14.3554L10.1112 1.11875C9.98633 0.494605 9.48702 0.120117 8.86287 0.120117H1.24829C0.499317 0.120117 0 0.619434 0 1.36841C0 2.11738 0.499317 2.6167 1.24829 2.6167H7.98907L19.8478 46.0573C19.9727 46.5566 20.472 46.9311 21.0961 46.9311H23.5927C22.9686 47.8049 22.5941 48.9283 22.5941 50.1766C22.5941 53.2973 25.2155 55.9188 28.3362 55.9188C31.457 55.9188 34.0784 53.2973 34.0784 50.1766C34.0784 48.9283 33.7039 47.9297 33.0797 46.9311H46.6861C46.062 47.8049 45.6875 48.9283 45.6875 50.1766C45.6875 53.2973 48.3089 55.9188 51.4296 55.9188C54.5504 55.9188 57.1718 53.2973 57.1718 50.1766C57.1718 48.9283 56.7973 47.9297 56.1731 46.9311H58.6697C59.4187 46.9311 59.918 46.4317 59.918 45.6828C59.918 44.9338 59.2939 44.5593 58.6697 44.5593ZM50.5558 16.5976H45.313C45.313 15.3493 45.1882 13.9762 44.9385 12.8527H49.682C50.1813 13.9762 50.431 15.3493 50.5558 16.5976ZM44.9385 22.839C45.1882 21.5907 45.313 20.3424 45.313 19.0942H50.5558C50.431 20.4673 50.1813 21.7156 49.682 22.839H44.9385ZM48.5586 25.3356C47.0606 27.957 44.6888 29.9543 41.9426 31.2026C43.0661 29.5798 43.9399 27.5825 44.4392 25.3356H48.5586ZM48.5586 10.3561H44.4392C43.815 7.98436 42.9412 5.98709 41.9426 4.48914C44.6888 5.6126 47.0606 7.7347 48.5586 10.3561ZM37.3239 3.49051C39.1964 4.23948 40.944 6.73606 41.9426 10.3561H37.3239V3.49051ZM37.3239 12.8527H42.4419C42.6916 13.9762 42.8164 15.2244 42.8164 16.5976H37.1991V12.8527H37.3239ZM37.3239 19.0942H42.9412C42.9412 20.4673 42.6916 21.7156 42.5667 22.839H37.4488V19.0942H37.3239ZM37.3239 25.3356H41.9426C40.944 28.9557 39.1964 31.4522 37.3239 32.2012V25.3356ZM34.8273 3.49051V10.3561H30.2087C31.2073 6.73606 32.9549 4.23948 34.8273 3.49051ZM29.5845 22.839C29.3349 21.7156 29.21 20.3424 29.21 19.0942H34.8273V22.839H29.5845ZM34.8273 25.3356V32.2012C32.9549 31.4522 31.2073 28.9557 30.2087 25.3356H34.8273ZM27.5872 25.3356C28.2114 27.7074 29.0852 29.7046 30.0838 31.2026C27.3376 29.9543 24.9658 27.8322 23.4679 25.3356H27.5872ZM22.3444 22.839C21.9699 21.5907 21.5954 20.3424 21.4706 19.0942H26.7134C26.7134 20.3424 26.8383 21.7156 27.0879 22.839H22.3444ZM29.21 16.5976C29.21 15.2244 29.4597 13.9762 29.5845 12.8527H34.7025V16.5976H29.21ZM30.0838 4.36431C28.9604 5.98709 28.0866 7.98436 27.5872 10.2313H23.4679C24.9658 7.7347 27.3376 5.6126 30.0838 4.36431ZM22.3444 12.8527H27.0879C26.8383 14.101 26.8383 15.3493 26.7134 16.5976H21.4706C21.5954 15.3493 21.8451 13.9762 22.3444 12.8527ZM19.8478 36.9447L14.9795 19.0942H18.974C19.5982 28.2067 27.2128 34.9475 35.9508 35.0723H36.0756C44.8137 35.0723 52.4283 28.2067 53.0524 19.0942H56.7973L49.682 36.9447H19.8478ZM28.2114 53.547C26.4638 53.547 24.9658 52.0491 24.9658 50.3014C24.9658 48.5538 26.4638 47.0559 28.2114 47.0559C29.959 47.0559 31.457 48.5538 31.457 50.3014C31.457 52.0491 29.959 53.547 28.2114 53.547ZM51.18 53.547C49.4324 53.547 47.9344 52.0491 47.9344 50.3014C47.9344 48.5538 49.4324 47.0559 51.18 47.0559C52.9276 47.0559 54.4255 48.5538 54.4255 50.3014C54.4255 52.0491 53.0524 53.547 51.18 53.547Z" fill="url(#paint0_linear_535_2357)"/>
<defs>
<linearGradient id="paint0_linear_535_2357" x1="30" y1="0.120117" x2="30" y2="55.9188" gradientUnits="userSpaceOnUse">
<stop stop-color="#004DF7"/>
<stop offset="0.786458" stop-color="#40B3FF"/>
</linearGradient>
</defs>
</svg>
