<svg width="66" height="66" viewBox="0 0 66 66" fill="none" xmlns="http://www.w3.org/2000/svg">
<rect width="66" height="66" fill="#3C3C3C"/>
<g id="Home 7" clip-path="url(#clip0_535_499)">
<rect width="1600" height="5252" transform="translate(-913 -2115)" fill="#F8F8FA"/>
<rect id="Rectangle 192" x="-913" y="-228" width="1600" height="805" fill="#EEF3FF"/>
<g id="Group 14">
<mask id="mask0_535_499" style="mask-type:alpha" maskUnits="userSpaceOnUse" x="-913" y="-228" width="1600" height="805">
<rect id="Rectangle 200" x="-913" y="-228" width="1600" height="805" fill="#F4F8FF"/>
</mask>
<g mask="url(#mask0_535_499)">
<path id="Vector 13" d="M-190.37 -22C-284.77 -62 -295.036 -176 -288.37 -228H223.63C141.63 -108 -72.3696 28 -190.37 -22Z" fill="#E5EDFF"/>
</g>
</g>
<g id="Group 1707481747">
<g id="Rectangle 1650" filter="url(#filter0_b_535_499)">
<rect x="-101" y="-38" width="267" height="226" rx="20" fill="#F3F7FF" fill-opacity="0.8"/>
<rect x="-100.5" y="-37.5" width="266" height="225" rx="19.5" stroke="#DDE8FF"/>
</g>
<g id="Group 1707481737">
<g id="Frame" clip-path="url(#clip1_535_499)">
<g id="Group">
<path id="Vector" d="M33 62.3906C32.7265 62.3906 32.4642 62.282 32.2708 62.0886C32.0774 61.8952 31.9688 61.6329 31.9688 61.3594V32.4607C31.9705 32.4007 31.9774 32.341 31.9894 32.2822C32.0289 32.0812 32.1276 31.8966 32.273 31.7522C32.3091 31.7165 32.3477 31.6834 32.3885 31.6532C32.4649 31.5969 32.5489 31.5518 32.638 31.5191L58.3987 21.2138C58.5986 21.1342 58.8185 21.1191 59.0275 21.1707C59.2365 21.2223 59.4241 21.338 59.564 21.5016L65.7515 28.7203C65.8554 28.8415 65.9298 28.9852 65.9688 29.14C66.0078 29.2948 66.0103 29.4566 65.9761 29.6126C65.9419 29.7686 65.8719 29.9144 65.7718 30.0388C65.6716 30.1631 65.5439 30.2625 65.3988 30.3291L59.8125 32.8886V48.9844C59.8124 49.1786 59.7575 49.3688 59.6541 49.5332C59.5506 49.6976 59.4028 49.8294 59.2278 49.9135L33.4465 62.2885C33.3073 62.3559 33.1547 62.3909 33 62.3906ZM34.0312 35.2275V59.7197L57.75 48.3347V33.8353L40.656 41.6728C40.4539 41.7653 40.2274 41.7902 40.01 41.7437C39.7927 41.6973 39.5961 41.582 39.4494 41.415L34.0312 35.2275ZM34.7356 32.9L40.4951 39.4762L58.3409 31.2953L58.3615 31.285L63.2961 29.0235L58.4791 23.4032L34.7356 32.9Z" fill="url(#paint0_linear_535_499)"/>
<path id="Vector_2" d="M32.999 62.3904C32.8447 62.3905 32.6923 62.3556 32.5535 62.2883L6.77222 49.9133C6.59715 49.8293 6.44939 49.6974 6.34594 49.533C6.2425 49.3687 6.18758 49.1784 6.1875 48.9842V32.2161C6.1875 31.9426 6.29615 31.6803 6.48955 31.4869C6.68294 31.2935 6.94525 31.1848 7.21875 31.1848C7.49225 31.1848 7.75456 31.2935 7.94795 31.4869C8.14135 31.6803 8.25 31.9426 8.25 32.2161V48.3355L33.4465 60.4311C33.657 60.5324 33.8269 60.7023 33.9283 60.9128C34.0297 61.1233 34.0565 61.362 34.0045 61.5898C33.9525 61.8175 33.8247 62.0209 33.642 62.1666C33.4593 62.3122 33.2326 62.3905 32.999 62.3904Z" fill="url(#paint1_linear_535_499)"/>
<path id="Vector_3" d="M25.7817 41.7654C25.6334 41.7658 25.4867 41.7342 25.3517 41.6726L0.601688 30.3144C0.456705 30.2475 0.32922 30.1479 0.229258 30.0234C0.129297 29.8988 0.0595835 29.7528 0.0256011 29.5968C-0.00838127 29.4408 -0.00570635 29.279 0.0334155 29.1242C0.0725374 28.9694 0.147039 28.8258 0.251063 28.7046L6.45506 21.4993C6.59523 21.3361 6.78294 21.2208 6.9919 21.1695C7.20086 21.1183 7.42061 21.1337 7.62038 21.2136L33.3841 31.5261C33.5371 31.5875 33.6731 31.6846 33.7808 31.8094C33.8885 31.9341 33.9647 32.0828 34.0031 32.2431C34.0415 32.4034 34.0409 32.5705 34.0014 32.7305C33.9618 32.8906 33.8846 33.0387 33.776 33.1627L26.5572 41.4127C26.4605 41.5234 26.3413 41.6121 26.2076 41.6729C26.0738 41.7337 25.9286 41.7653 25.7817 41.7654ZM2.7075 29.0119L25.5126 39.476L31.2649 32.8998L7.53891 23.403L2.7075 29.0119Z" fill="url(#paint2_linear_535_499)"/>
<path id="Vector_4" d="M7.23977 23.2031C7.00322 23.203 6.7739 23.1216 6.59026 22.9725C6.40661 22.8234 6.2798 22.6157 6.23109 22.3842C6.18238 22.1527 6.21472 21.9115 6.3227 21.7011C6.43068 21.4906 6.60773 21.3237 6.82417 21.2282L13.0014 18.5057C13.2501 18.4045 13.5285 18.4042 13.7774 18.505C14.0263 18.6059 14.2261 18.7998 14.3342 19.0456C14.4424 19.2914 14.4503 19.5697 14.3565 19.8214C14.2626 20.073 14.0742 20.278 13.8315 20.3929L7.65433 23.1154C7.52406 23.173 7.3822 23.2029 7.23977 23.2031ZM58.7806 23.2031C58.6375 23.2029 58.496 23.1731 58.365 23.1154C57.1646 22.584 55.9622 22.0546 54.7577 21.5273C53.5532 20.9993 52.3494 20.4699 51.1463 19.9392C51.0224 19.8845 50.9104 19.8059 50.8169 19.7079C50.7233 19.61 50.65 19.4945 50.6011 19.3682C50.5022 19.1131 50.5088 18.8292 50.6193 18.579C50.7298 18.3287 50.9352 18.1326 51.1903 18.0338C51.3166 17.9848 51.4513 17.9613 51.5867 17.9644C51.7221 17.9675 51.8556 17.9973 51.9795 18.052C53.1799 18.5834 54.3823 19.1125 55.5868 19.6391C56.7913 20.1678 57.9951 20.6972 59.1983 21.2272C59.4154 21.3223 59.5932 21.4893 59.7016 21.7001C59.81 21.9109 59.8425 22.1527 59.7936 22.3846C59.7447 22.6166 59.6174 22.8246 59.4331 22.9737C59.2487 23.1227 59.0177 23.2038 58.7806 23.2031Z" fill="url(#paint3_linear_535_499)"/>
<path id="Vector_5" d="M29.9062 32.2831C29.6327 32.2831 29.3704 32.1745 29.177 31.9811C28.9836 31.7877 28.875 31.5254 28.875 31.2519V19.078C28.875 18.8616 28.9432 18.6507 29.0698 18.4752C29.1964 18.2998 29.375 18.1686 29.5804 18.1004L51.2366 10.8816C51.3916 10.8298 51.5566 10.8155 51.7182 10.84C51.8797 10.8646 52.0331 10.9272 52.1657 11.0227C52.2983 11.1182 52.4062 11.2438 52.4807 11.3893C52.5551 11.5348 52.5939 11.6958 52.5938 11.8592V25.0592C52.5938 25.3327 52.4851 25.595 52.2917 25.7884C52.0983 25.9818 51.836 26.0905 51.5625 26.0905C51.289 26.0905 51.0267 25.9818 50.8333 25.7884C50.6399 25.595 50.5312 25.3327 50.5312 25.0592V13.2906L30.9375 19.8205V31.2509C30.9375 31.5244 30.8289 31.7867 30.6355 31.9801C30.4421 32.1735 30.1798 32.2831 29.9062 32.2831Z" fill="url(#paint4_linear_535_499)"/>
<path id="Vector_6" d="M13.4207 25.6843C13.1474 25.6843 12.8852 25.5758 12.6918 25.3826C12.4985 25.1894 12.3897 24.9274 12.3894 24.6541L12.375 11.8604C12.3749 11.6891 12.4175 11.5205 12.4989 11.3698C12.5803 11.2191 12.6979 11.091 12.8412 10.9972C12.9845 10.9033 13.1489 10.8467 13.3195 10.8323C13.4902 10.8179 13.6618 10.8462 13.8187 10.9147L30.3188 18.1335C30.561 18.2482 30.749 18.4528 30.843 18.7038C30.937 18.9547 30.9295 19.2325 30.8223 19.4781C30.715 19.7237 30.5164 19.9179 30.2684 20.0196C30.0204 20.1213 29.7425 20.1224 29.4937 20.0227L14.4396 13.4361L14.4519 24.652C14.4521 24.7875 14.4255 24.9217 14.3737 25.0469C14.322 25.1722 14.246 25.286 14.1503 25.3819C14.0545 25.4777 13.9408 25.5538 13.8156 25.6057C13.6904 25.6576 13.5562 25.6843 13.4207 25.6843Z" fill="url(#paint5_linear_535_499)"/>
<path id="Vector_7" d="M51.5625 12.8905C51.4466 12.8905 51.3316 12.871 51.2222 12.8328L30.9685 5.74395L13.7981 12.8142C13.6729 12.8657 13.5387 12.8919 13.4033 12.8916C13.2678 12.8912 13.1338 12.8641 13.0088 12.8119C12.8839 12.7597 12.7704 12.6834 12.6749 12.5874C12.5795 12.4913 12.5038 12.3774 12.4524 12.2522C12.3484 11.9992 12.3493 11.7153 12.4547 11.4629C12.5601 11.2105 12.7614 11.0103 13.0144 10.9064L30.5456 3.68764C30.779 3.59159 31.0394 3.58425 31.2778 3.66701L51.9028 10.8858C52.1328 10.9661 52.3269 11.1253 52.4507 11.3351C52.5745 11.5449 52.62 11.7917 52.5793 12.0319C52.5385 12.272 52.414 12.49 52.2279 12.6471C52.0418 12.8043 51.8061 12.8905 51.5625 12.8905ZM36.0938 56.203C35.8563 56.203 35.6262 56.121 35.4422 55.9709C35.2582 55.8208 35.1316 55.6118 35.0839 55.3792C35.0361 55.1466 35.0701 54.9046 35.18 54.6942C35.29 54.4837 35.4692 54.3177 35.6875 54.224L42.9062 51.1303C43.1567 51.0271 43.4378 51.0266 43.6887 51.129C43.9396 51.2314 44.1401 51.4284 44.2468 51.6775C44.3536 51.9265 44.3581 52.2075 44.2593 52.4598C44.1605 52.7121 43.9663 52.9154 43.7188 53.0257L36.5001 56.1195C36.3718 56.175 36.2335 56.2035 36.0938 56.203ZM36.0938 52.078C35.8563 52.078 35.6262 51.996 35.4422 51.8459C35.2582 51.6958 35.1316 51.4868 35.0839 51.2542C35.0361 51.0216 35.0701 50.7796 35.18 50.5692C35.29 50.3587 35.4692 50.1927 35.6875 50.099L42.9062 47.0053C43.1567 46.9021 43.4378 46.9016 43.6887 47.004C43.9396 47.1064 44.1401 47.3034 44.2468 47.5525C44.3536 47.8015 44.3581 48.0825 44.2593 48.3348C44.1605 48.5871 43.9663 48.7904 43.7188 48.9007L36.5001 51.9945C36.3718 52.05 36.2335 52.0785 36.0938 52.078ZM28.875 54.1405C28.744 54.1408 28.6141 54.1159 28.4924 54.0673L23.3362 52.0048C23.1446 51.9283 22.9805 51.7961 22.8648 51.6253C22.7492 51.4545 22.6874 51.253 22.6875 51.0468V45.8905C22.6875 45.722 22.7287 45.556 22.8076 45.4071C22.8866 45.2582 23.0008 45.131 23.1403 45.0364C23.2798 44.9419 23.4403 44.883 23.6079 44.8649C23.7754 44.8467 23.9449 44.87 24.1014 44.9325L29.2576 46.995C29.4491 47.0715 29.6133 47.2037 29.7289 47.3745C29.8446 47.5452 29.9063 47.7468 29.9063 47.953V53.1093C29.9063 53.3828 29.7976 53.6451 29.6042 53.8385C29.4108 54.0319 29.1485 54.1405 28.875 54.1405ZM24.75 50.3486L27.8438 51.5861V48.6512L24.75 47.4137V50.3486Z" fill="url(#paint6_linear_535_499)"/>
<path id="Vector_8" d="M39.1883 31.0529C38.9148 31.0529 38.6525 30.9442 38.4591 30.7508C38.2657 30.5574 38.1571 30.2951 38.1571 30.0216V16.6587L21.423 9.3327C21.299 9.27832 21.1868 9.20005 21.093 9.10234C20.9992 9.00464 20.9256 8.88941 20.8763 8.76325C20.8271 8.63708 20.8031 8.50245 20.8059 8.36704C20.8086 8.23162 20.838 8.09808 20.8924 7.97403C20.9468 7.84998 21.0251 7.73785 21.1228 7.64405C21.2205 7.55025 21.3357 7.47662 21.4619 7.42735C21.588 7.37808 21.7227 7.35414 21.8581 7.3569C21.9935 7.35967 22.127 7.38907 22.2511 7.44345L39.6019 15.0396C39.7855 15.12 39.9417 15.2522 40.0514 15.4199C40.1611 15.5877 40.2196 15.7838 40.2196 15.9843V30.0216C40.2196 30.2951 40.1109 30.5574 39.9175 30.7508C39.7242 30.9442 39.4618 31.0529 39.1883 31.0529Z" fill="url(#paint7_linear_535_499)"/>
</g>
</g>
</g>
</g>
</g>
<defs>
<filter id="filter0_b_535_499" x="-126" y="-63" width="317" height="276" filterUnits="userSpaceOnUse" color-interpolation-filters="sRGB">
<feFlood flood-opacity="0" result="BackgroundImageFix"/>
<feGaussianBlur in="BackgroundImageFix" stdDeviation="12.5"/>
<feComposite in2="SourceAlpha" operator="in" result="effect1_backgroundBlur_535_499"/>
<feBlend mode="normal" in="SourceGraphic" in2="effect1_backgroundBlur_535_499" result="shape"/>
</filter>
<linearGradient id="paint0_linear_535_499" x1="48.9844" y1="21.1406" x2="48.9844" y2="62.3906" gradientUnits="userSpaceOnUse">
<stop stop-color="#004DF7"/>
<stop offset="1" stop-color="#40B3FF"/>
</linearGradient>
<linearGradient id="paint1_linear_535_499" x1="20.109" y1="31.1848" x2="20.109" y2="62.3915" gradientUnits="userSpaceOnUse">
<stop stop-color="#004DF7"/>
<stop offset="1" stop-color="#40B3FF"/>
</linearGradient>
<linearGradient id="paint2_linear_535_499" x1="17.0167" y1="21.1399" x2="17.0167" y2="41.7654" gradientUnits="userSpaceOnUse">
<stop stop-color="#004DF7"/>
<stop offset="1" stop-color="#40B3FF"/>
</linearGradient>
<linearGradient id="paint3_linear_535_499" x1="33.0124" y1="17.9641" x2="33.0124" y2="23.2031" gradientUnits="userSpaceOnUse">
<stop stop-color="#004DF7"/>
<stop offset="1" stop-color="#40B3FF"/>
</linearGradient>
<linearGradient id="paint4_linear_535_499" x1="40.7344" y1="10.8284" x2="40.7344" y2="32.2831" gradientUnits="userSpaceOnUse">
<stop stop-color="#004DF7"/>
<stop offset="1" stop-color="#40B3FF"/>
</linearGradient>
<linearGradient id="paint5_linear_535_499" x1="21.6417" y1="10.8286" x2="21.6417" y2="25.6843" gradientUnits="userSpaceOnUse">
<stop stop-color="#004DF7"/>
<stop offset="1" stop-color="#40B3FF"/>
</linearGradient>
<linearGradient id="paint6_linear_535_499" x1="32.4844" y1="3.60986" x2="32.4844" y2="56.203" gradientUnits="userSpaceOnUse">
<stop stop-color="#004DF7"/>
<stop offset="1" stop-color="#40B3FF"/>
</linearGradient>
<linearGradient id="paint7_linear_535_499" x1="30.5126" y1="7.35669" x2="30.5126" y2="31.0529" gradientUnits="userSpaceOnUse">
<stop stop-color="#004DF7"/>
<stop offset="1" stop-color="#40B3FF"/>
</linearGradient>
<clipPath id="clip0_535_499">
<rect width="1600" height="5252" fill="white" transform="translate(-913 -2115)"/>
</clipPath>
<clipPath id="clip1_535_499">
<rect width="66" height="66" fill="white"/>
</clipPath>
</defs>
</svg>
