<svg width="60" height="60" viewBox="0 0 60 60" fill="none" xmlns="http://www.w3.org/2000/svg">
<g clip-path="url(#clip0_535_2324)">
<path d="M60 21.93C59.9983 21.6208 59.9219 21.3166 59.7774 21.0433C59.6329 20.7699 59.4245 20.5355 59.17 20.36C58.8942 20.1739 58.5781 20.056 58.2477 20.016C57.9174 19.976 57.5823 20.0151 57.27 20.13L47 24V18.26L47.31 18.47C47.8049 18.8174 48.3954 19.0026 49 19C49.6397 18.9994 50.2624 18.7944 50.7773 18.4149C51.2922 18.0354 51.6723 17.5012 51.8622 16.8904C52.052 16.2795 52.0416 15.624 51.8326 15.0195C51.6235 14.4149 51.2267 13.893 50.7 13.53L31.7 0.53C31.2 0.185352 30.6072 0.000541685 30 0C29.3928 0.000541685 28.8 0.185352 28.3 0.53L9.3 13.53C8.97282 13.7519 8.69272 14.0362 8.47581 14.3667C8.25889 14.6972 8.10942 15.0673 8.03601 15.4558C7.9626 15.8442 7.96668 16.2433 8.04802 16.6302C8.12937 17.017 8.28637 17.384 8.51 17.71C8.78857 18.1116 9.16103 18.439 9.59499 18.6639C10.029 18.8887 10.5113 19.0041 11 19C11.6028 19.0004 12.1917 18.8192 12.69 18.48L13 18.26V24.26L2.75 20.15C2.44672 20.0273 2.11797 19.9809 1.79258 20.0148C1.46719 20.0488 1.15509 20.162 0.883642 20.3446C0.612195 20.5272 0.389688 20.7736 0.235628 21.0622C0.0815693 21.3509 0.000662156 21.6728 0 22L0 49C0 49.5304 0.210714 50.0391 0.585786 50.4142C0.960859 50.7893 1.46957 51 2 51H2.75C3.29852 50.9965 3.83559 50.8428 4.30281 50.5554C4.77003 50.268 5.14952 49.858 5.4 49.37L6.24 47.7L8 48.52C7.81867 49.0001 7.75663 49.5171 7.8192 50.0265C7.88176 50.5359 8.06707 51.0224 8.3592 51.4444C8.65133 51.8664 9.04154 52.2111 9.4963 52.449C9.95107 52.6868 10.4568 52.8107 10.97 52.81C11.3603 52.8075 11.7468 52.7329 12.11 52.59C12.3642 53.2422 12.8096 53.8022 13.3878 54.1966C13.9661 54.5911 14.6501 54.8014 15.35 54.8C15.767 54.8 16.18 54.726 16.57 54.58C16.8129 55.2583 17.2592 55.8451 17.8481 56.2604C18.4369 56.6756 19.1395 56.899 19.86 56.9C20.22 56.898 20.5775 56.8407 20.92 56.73V56.78C21.0561 57.1505 21.2639 57.4904 21.5316 57.7804C21.7993 58.0704 22.1216 58.3048 22.48 58.47C23.1165 58.7611 23.8348 58.8205 24.5105 58.6379C25.1862 58.4553 25.7768 58.0421 26.18 57.47L28.55 59.38C28.9833 59.7074 29.4914 59.9213 30.0284 60.0025C30.5653 60.0836 31.114 60.0293 31.6246 59.8445C32.1352 59.6597 32.5916 59.3503 32.9523 58.9444C33.313 58.5384 33.5666 58.0488 33.69 57.52C34.2155 57.673 34.7728 57.6793 35.3015 57.5383C35.8303 57.3973 36.3105 57.1143 36.69 56.72C37.1913 56.2257 37.5028 55.5708 37.57 54.87C37.713 54.88 37.857 54.88 38 54.87C38.883 54.872 39.7371 54.5557 40.4057 53.9789C41.0742 53.4022 41.5125 52.6037 41.64 51.73C42.0365 51.8639 42.4515 51.9348 42.87 51.94C43.3733 51.9413 43.872 51.8432 44.3372 51.6512C44.8025 51.4591 45.2253 51.1771 45.5812 50.8212C45.9371 50.4653 46.2191 50.0425 46.4111 49.5772C46.6032 49.112 46.7013 48.6133 46.7 48.11C46.6971 47.6083 46.5951 47.1122 46.4 46.65L52.76 44L54.62 47.44C54.8782 47.912 55.2586 48.3058 55.7213 48.5802C56.184 48.8547 56.712 48.9997 57.25 49H58C58.5185 49.0003 59.0169 48.7992 59.39 48.4392C59.7632 48.0791 59.9819 47.5882 60 47.07V21.93ZM11.56 16.83C11.3412 16.9798 11.0718 17.0366 10.8112 16.9879C10.5505 16.9391 10.3199 16.7888 10.17 16.57C10.0957 16.4597 10.0442 16.3356 10.0184 16.2051C9.99266 16.0746 9.9932 15.9403 10.02 15.81C10.0695 15.5547 10.2166 15.3287 10.43 15.18L29.43 2.18C29.5954 2.05958 29.7955 1.99638 30 2C30.2039 2.00048 30.4028 2.06329 30.57 2.18L49.57 15.18C49.786 15.3297 49.9343 15.5584 49.983 15.8167C50.0316 16.0749 49.9767 16.342 49.83 16.56C49.6801 16.7788 49.4495 16.9291 49.1888 16.9778C48.9282 17.0266 48.6588 16.9698 48.44 16.82L30.57 4.6C30.4026 4.48387 30.2037 4.42165 30 4.42165C29.7963 4.42165 29.5974 4.48387 29.43 4.6L11.56 16.83ZM30 6.63L45 16.9V25C44.5025 25.4083 44.1639 25.9782 44.0433 26.6105C43.9227 27.2427 44.0277 27.8972 44.34 28.46L45.34 30.32L42.64 31.32C42.1855 31.4966 41.6948 31.5598 41.2104 31.504C40.726 31.4482 40.2625 31.2752 39.86 31L35 27.41V22C35 21.4696 34.7893 20.9609 34.4142 20.5858C34.0391 20.2107 33.5304 20 33 20H27C26.4696 20 25.9609 20.2107 25.5858 20.5858C25.2107 20.9609 25 21.4696 25 22V28.53C24.6219 29.0551 24.2875 29.6103 24 30.19C22.9192 30.2888 21.8467 30.4625 20.79 30.71C20.2024 30.8561 19.6037 30.9531 19 31C17.6744 30.8418 16.3839 30.4668 15.18 29.89L15.66 28.89C15.9626 28.3012 16.062 27.6288 15.9426 26.9777C15.8232 26.3265 15.4918 25.7332 15 25.29V16.9L30 6.63ZM33 26.05C32.0553 25.5658 30.9953 25.3516 29.9367 25.431C28.8781 25.5104 27.8619 25.8803 27 26.5V22H33V26.05ZM2.75 49H2V22L13.38 26.62C13.511 26.6731 13.6293 26.7534 13.727 26.8555C13.8248 26.9576 13.8997 27.0794 13.947 27.2126C13.9942 27.3458 14.0127 27.4876 14.0011 27.6285C13.9896 27.7694 13.9483 27.9062 13.88 28.03L3.62 48.47C3.53578 48.6282 3.4106 48.7609 3.25755 48.8541C3.1045 48.9473 2.9292 48.9977 2.75 49ZM10.44 50.67C10.1568 50.5394 9.93681 50.302 9.82813 50.0097C9.71944 49.7174 9.7309 49.3939 9.86 49.11L11 46.71C11.1306 46.4268 11.368 46.2068 11.6603 46.0981C11.9526 45.9894 12.2761 46.0009 12.56 46.13C12.846 46.256 13.067 46.495 13.17 46.79C13.2895 47.0816 13.2895 47.4084 13.17 47.7L12 50.1C11.9355 50.2403 11.8438 50.3663 11.7303 50.471C11.6168 50.5757 11.4837 50.6568 11.3387 50.7098C11.1937 50.7628 11.0396 50.7866 10.8854 50.7797C10.7311 50.7729 10.5798 50.7356 10.44 50.67ZM15.83 52.67C15.6497 52.7465 15.4558 52.7859 15.26 52.7859C15.0642 52.7859 14.8703 52.7465 14.69 52.67C14.51 52.5899 14.3482 52.4741 14.2141 52.3298C14.0801 52.1854 13.9766 52.0154 13.91 51.83C13.7605 51.4613 13.7605 51.0488 13.91 50.68L15.63 47C15.7957 46.6391 16.0978 46.3585 16.47 46.22C16.8447 46.0883 17.2553 46.1026 17.62 46.26C17.982 46.43 18.262 46.735 18.4 47.11C18.4767 47.292 18.5163 47.4875 18.5163 47.685C18.5163 47.8825 18.4767 48.078 18.4 48.26L16.68 51.9C16.5102 52.2616 16.2048 52.5418 15.83 52.68V52.67ZM19.23 54.67C18.8689 54.5005 18.5889 54.1957 18.4504 53.8216C18.312 53.4474 18.3262 53.0338 18.49 52.67L19.75 50C19.9183 49.641 20.2195 49.3613 20.59 49.22C20.7571 49.1611 20.9328 49.1306 21.11 49.13C21.3281 49.1262 21.544 49.1742 21.74 49.27C22.103 49.433 22.384 49.736 22.52 50.11C22.66 50.484 22.641 50.9 22.47 51.26L21.31 53.8L21.23 53.97C21.1481 54.1506 21.0312 54.3132 20.886 54.4483C20.7409 54.5835 20.5704 54.6885 20.3844 54.7573C20.1984 54.8261 20.0006 54.8574 19.8025 54.8493C19.6043 54.8411 19.4097 54.7938 19.23 54.71V54.67ZM23.32 56.55C23.0794 56.4395 22.8924 56.2382 22.8 55.99C22.7491 55.868 22.7229 55.7372 22.7229 55.605C22.7229 55.4728 22.7491 55.342 22.8 55.22L23.11 54.55L24.04 52.55C24.1281 52.374 24.2662 52.228 24.437 52.1301C24.6078 52.0323 24.8036 51.987 25 52C25.1449 51.9992 25.2882 52.0299 25.42 52.09C25.5418 52.144 25.6517 52.2217 25.743 52.3187C25.8344 52.4157 25.9054 52.5299 25.952 52.6548C25.9986 52.7796 26.0198 52.9125 26.0143 53.0456C26.0088 53.1787 25.9767 53.3094 25.92 53.43L24.67 56.14C24.6133 56.2605 24.5332 56.3685 24.4343 56.4576C24.3353 56.5467 24.2196 56.6151 24.0938 56.6589C23.9681 56.7027 23.8349 56.7209 23.702 56.7125C23.5691 56.7041 23.4392 56.6693 23.32 56.61V56.55ZM44.16 49.36C43.8342 49.6888 43.3954 49.8812 42.9328 49.8979C42.4702 49.9146 42.0187 49.7545 41.67 49.45L36.81 45.19L35.66 44.19C35.5592 44.0988 35.4398 44.0306 35.31 43.99C35.2601 43.9851 35.2099 43.9851 35.16 43.99C34.9576 43.9509 34.748 43.9754 34.56 44.06C34.444 44.1222 34.3392 44.2033 34.25 44.3C34.1629 44.3936 34.0959 44.5039 34.0529 44.6242C34.0099 44.7446 33.9919 44.8725 34 45C33.9958 45.0299 33.9958 45.0602 34 45.09C34.0328 45.3163 34.1422 45.5246 34.31 45.68L39.08 49.86C39.3997 50.1666 39.5857 50.5868 39.5978 51.0295C39.6098 51.4723 39.447 51.902 39.1445 52.2255C38.842 52.5491 38.4242 52.7404 37.9816 52.7581C37.5391 52.7758 37.1073 52.6184 36.78 52.32L36.67 52.21L32.67 48.21C32.4817 48.0217 32.2263 47.9159 31.96 47.9159C31.6937 47.9159 31.4383 48.0217 31.25 48.21C31.0617 48.3983 30.9559 48.6537 30.9559 48.92C30.9559 49.1863 31.0617 49.4417 31.25 49.63L35.25 53.63C35.3546 53.7333 35.4377 53.8563 35.4944 53.9919C35.5511 54.1275 35.5803 54.273 35.5803 54.42C35.5803 54.567 35.5511 54.7125 35.4944 54.8481C35.4377 54.9837 35.3546 55.1068 35.25 55.21C35.0348 55.4125 34.7505 55.5253 34.455 55.5253C34.1595 55.5253 33.8752 55.4125 33.66 55.21L32.8 54.34L31.68 53.22C31.587 53.1263 31.4764 53.0519 31.3546 53.0011C31.2327 52.9503 31.102 52.9242 30.97 52.9242C30.838 52.9242 30.7073 52.9503 30.5854 53.0011C30.4636 53.0519 30.353 53.1263 30.26 53.22C30.1663 53.313 30.0919 53.4236 30.0411 53.5454C29.9903 53.6673 29.9642 53.798 29.9642 53.93C29.9642 54.062 29.9903 54.1927 30.0411 54.3146C30.0919 54.4364 30.1663 54.547 30.26 54.64L31.38 55.76C31.625 55.995 31.763 56.32 31.76 56.66C31.7498 56.8877 31.6789 57.1086 31.5547 57.2998C31.4306 57.491 31.2576 57.6455 31.0537 57.7475C30.8498 57.8494 30.6224 57.895 30.395 57.8797C30.1675 57.8643 29.9483 57.7885 29.76 57.66L27.1 55.6L27.72 54.24C27.8879 53.8811 27.9831 53.4925 28.0001 53.0967C28.017 52.7008 27.9553 52.3055 27.8187 51.9336C27.682 51.5617 27.473 51.2206 27.2038 50.9299C26.9345 50.6392 26.6104 50.4047 26.25 50.24C25.7178 49.9995 25.127 49.9196 24.55 50.01C24.5154 49.8097 24.4652 49.6125 24.4 49.42C24.1152 48.6393 23.5603 47.9862 22.8358 47.5791C22.1113 47.1719 21.265 47.0374 20.45 47.2C20.3873 46.6769 20.2069 46.1747 19.9225 45.7312C19.638 45.2877 19.2568 44.9144 18.8075 44.6392C18.3582 44.3641 17.8524 44.1942 17.3281 44.1424C16.8037 44.0905 16.2745 44.1581 15.78 44.34C15.2927 44.5249 14.8522 44.8152 14.49 45.19C14.1927 44.811 13.8086 44.5092 13.37 44.31C12.6048 43.9562 11.7305 43.9208 10.9391 44.2114C10.1478 44.5021 9.50429 45.0951 9.15 45.86L8.78 46.68L7.14 45.9L14.28 31.68C15.7651 32.3897 17.3622 32.8363 19 33C19.7325 32.9556 20.459 32.8417 21.17 32.66C21.73 32.54 22.33 32.42 22.96 32.32L21.32 36C20.9523 36.8384 20.9217 37.7862 21.2345 38.6465C21.5474 39.5069 22.1797 40.2136 23 40.62H23.1C23.7965 40.9497 24.5815 41.0431 25.3359 40.8861C26.0903 40.7291 26.7729 40.3302 27.28 39.75L31.23 35.35L44.08 46.76C44.2675 46.9247 44.4191 47.1263 44.5255 47.3521C44.6318 47.5779 44.6905 47.8231 44.698 48.0726C44.7055 48.3221 44.6616 48.5704 44.5691 48.8022C44.4765 49.034 44.3373 49.2443 44.16 49.42V49.36ZM45.16 44.97L30.66 32.25C30.4593 32.0884 30.204 32.0104 29.9473 32.0325C29.6906 32.0545 29.4522 32.1747 29.282 32.3682C29.1118 32.5616 29.0228 32.8133 29.0336 33.0707C29.0444 33.3282 29.1542 33.5715 29.34 33.75L29.7 34.07L25.76 38.46C25.5317 38.7208 25.224 38.8992 24.8843 38.9679C24.5445 39.0366 24.1917 38.9916 23.88 38.84H23.81C23.4716 38.6477 23.216 38.3373 23.0924 37.9682C22.9688 37.5991 22.9857 37.1974 23.14 36.84L25.46 31.7C26.007 30.4859 26.7926 29.3943 27.77 28.49C28.4133 27.8936 29.244 27.5395 30.1197 27.4885C30.9955 27.4374 31.8617 27.6925 32.57 28.21L38.66 32.65C39.3275 33.1291 40.1029 33.4363 40.9174 33.5445C41.7319 33.6526 42.5606 33.5583 43.33 33.27L46.33 32.16L51.8 42.27L45.16 44.97ZM57.27 46.97C57.0941 46.9745 56.92 46.9325 56.7655 46.8482C56.611 46.764 56.4815 46.6404 56.39 46.49L46.12 27.49C46.0653 27.3917 46.0325 27.2827 46.0238 27.1705C46.0152 27.0583 46.031 26.9455 46.07 26.84C46.1173 26.7196 46.1901 26.6108 46.2833 26.5211C46.3765 26.4314 46.4879 26.3628 46.61 26.32L58 21.93V47L57.27 46.97Z" fill="url(#paint0_linear_535_2324)"/>
<path d="M30 18C31.0609 18 32.0783 17.5786 32.8284 16.8284C33.5786 16.0783 34 15.0609 34 14C34 12.9391 33.5786 11.9217 32.8284 11.1716C32.0783 10.4214 31.0609 10 30 10C28.9391 10 27.9217 10.4214 27.1716 11.1716C26.4214 11.9217 26 12.9391 26 14C26 15.0609 26.4214 16.0783 27.1716 16.8284C27.9217 17.5786 28.9391 18 30 18ZM30 12C30.5304 12 31.0391 12.2107 31.4142 12.5858C31.7893 12.9609 32 13.4696 32 14C32 14.5304 31.7893 15.0391 31.4142 15.4142C31.0391 15.7893 30.5304 16 30 16C29.4696 16 28.9609 15.7893 28.5858 15.4142C28.2107 15.0391 28 14.5304 28 14C28 13.4696 28.2107 12.9609 28.5858 12.5858C28.9609 12.2107 29.4696 12 30 12Z" fill="url(#paint1_linear_535_2324)"/>
</g>
<defs>
<linearGradient id="paint0_linear_535_2324" x1="30" y1="0" x2="30" y2="60.039" gradientUnits="userSpaceOnUse">
<stop stop-color="#004DF7"/>
<stop offset="1" stop-color="#40B3FF"/>
</linearGradient>
<linearGradient id="paint1_linear_535_2324" x1="30" y1="10" x2="30" y2="18" gradientUnits="userSpaceOnUse">
<stop stop-color="#004DF7"/>
<stop offset="1" stop-color="#40B3FF"/>
</linearGradient>
<clipPath id="clip0_535_2324">
<rect width="60" height="60" fill="white"/>
</clipPath>
</defs>
</svg>
