<svg width="14" height="14" viewBox="0 0 14 14" fill="none" xmlns="http://www.w3.org/2000/svg">
<g clip-path="url(#clip0_535_3022)">
<path d="M5.10375 10.2737V12.9792C5.1042 13.0712 5.13356 13.1606 5.18769 13.235C5.24181 13.3093 5.31796 13.3647 5.40533 13.3934C5.4927 13.422 5.58687 13.4224 5.6745 13.3946C5.76213 13.3668 5.83878 13.312 5.89359 13.2382L7.47617 11.0845L5.10375 10.2737ZM13.8158 0.0811267C13.7501 0.0343163 13.6727 0.0065988 13.5922 0.00103953C13.5117 -0.00451973 13.4312 0.0122959 13.3597 0.0496267L0.234669 6.90379C0.159152 6.94371 0.09693 7.0048 0.0556389 7.07957C0.0143478 7.15434 -0.00421589 7.23954 0.00222621 7.32471C0.0086683 7.40988 0.0398359 7.49132 0.0919038 7.55903C0.143972 7.62674 0.214675 7.67778 0.295336 7.70588L3.94409 8.95304L11.7147 2.30888L5.70167 9.55329L11.8168 11.6434C11.8774 11.6638 11.9418 11.6706 12.0054 11.6635C12.0691 11.6564 12.1304 11.6355 12.185 11.6022C12.2397 11.5689 12.2865 11.5241 12.322 11.4708C12.3575 11.4176 12.381 11.3572 12.3908 11.294L13.9949 0.502293C14.0068 0.422406 13.9964 0.340791 13.9647 0.266465C13.9331 0.19214 13.8816 0.127998 13.8158 0.0811267Z" fill="#004DF7"/>
</g>
<defs>
<clipPath id="clip0_535_3022">
<rect width="14" height="14" fill="white"/>
</clipPath>
</defs>
</svg>
