<svg width="30" height="30" viewBox="0 0 30 30" fill="none" xmlns="http://www.w3.org/2000/svg">
<circle cx="15" cy="15" r="14.5" stroke="#DEDEDE"/>
<path d="M10.1331 20.8095C9.84006 20.8265 9.55185 20.7291 9.32924 20.5378C8.89025 20.0962 8.89025 19.3829 9.32924 18.9413L18.9417 9.32883C19.3983 8.90159 20.1148 8.92534 20.542 9.38193C20.9283 9.79482 20.9509 10.4294 20.5947 10.8687L10.9256 20.5378C10.7059 20.7263 10.4223 20.8236 10.1331 20.8095Z" fill="#C0C0C0"/>
<path d="M19.7339 20.8095C19.4369 20.8083 19.1523 20.6904 18.9414 20.4812L9.32889 10.8687C8.92218 10.3937 8.97748 9.67899 9.45241 9.27225C9.8763 8.90925 10.5015 8.90925 10.9253 9.27225L20.5944 18.8848C21.0509 19.3121 21.0745 20.0286 20.6471 20.4851C20.6301 20.5032 20.6126 20.5208 20.5944 20.5378C20.4773 20.6397 20.3404 20.7163 20.1924 20.7631C20.0444 20.8098 19.8883 20.8256 19.7339 20.8095Z" fill="#C0C0C0"/>
</svg>
