<svg width="30" height="30" viewBox="0 0 30 30" fill="none" xmlns="http://www.w3.org/2000/svg">
<circle cx="15" cy="15" r="14.5" stroke="#004DF7" stroke-opacity="0.5"/>
<path d="M10.2141 14.2001C9.98422 14.2007 9.7592 14.2665 9.5651 14.3897C9.371 14.5128 9.21574 14.6885 9.11729 14.8962C9.01884 15.104 8.98122 15.3353 9.00878 15.5636C9.03635 15.7918 9.12796 16.0076 9.27304 16.1859L12.3657 19.9744C12.476 20.1114 12.6173 20.22 12.778 20.2913C12.9387 20.3626 13.1141 20.3946 13.2896 20.3845C13.665 20.3644 14.0039 20.1636 14.22 19.8334L20.6442 9.48714C20.6453 9.48541 20.6464 9.4837 20.6475 9.48202C20.7078 9.38947 20.6882 9.20605 20.5638 9.09083C20.5296 9.05919 20.4893 9.03488 20.4454 9.0194C20.4015 9.00392 20.3548 8.9976 20.3084 9.00082C20.2619 9.00404 20.2166 9.01674 20.1752 9.03814C20.1339 9.05954 20.0973 9.08918 20.0678 9.12523C20.0655 9.12807 20.0631 9.13086 20.0607 9.13361L13.5817 16.4539C13.5571 16.4817 13.5271 16.5044 13.4937 16.5206C13.4602 16.5368 13.4238 16.5461 13.3866 16.5481C13.3495 16.5502 13.3123 16.5448 13.2773 16.5323C13.2422 16.5198 13.21 16.5005 13.1825 16.4754L11.0323 14.5187C10.809 14.314 10.5171 14.2003 10.2141 14.2001Z" fill="#004DF7"/>
</svg>
