<svg width="12" height="16" viewBox="0 0 12 16" fill="none" xmlns="http://www.w3.org/2000/svg">
<path d="M11 15.5C10.8975 15.4999 10.7975 15.4683 10.7135 15.4095L6 12.1105L1.2865 15.4105C1.21151 15.4629 1.12357 15.4938 1.03226 15.4997C0.940948 15.5056 0.849767 15.4863 0.76865 15.444C0.687532 15.4016 0.619588 15.3379 0.572218 15.2596C0.524848 15.1813 0.499868 15.0915 0.500001 15V2.9C0.500662 2.26368 0.753731 1.65362 1.20368 1.20367C1.65362 0.753731 2.26368 0.500662 2.9 0.5H9.1C9.73632 0.500662 10.3464 0.753731 10.7963 1.20367C11.2463 1.65362 11.4993 2.26368 11.5 2.9V15C11.5 15.1326 11.4473 15.2598 11.3536 15.3536C11.2598 15.4473 11.1326 15.5 11 15.5ZM6 11C6.10252 11.0001 6.20254 11.0317 6.2865 11.0905L10.5 14.0395V2.9C10.5 2.5287 10.3525 2.1726 10.09 1.91005C9.8274 1.6475 9.4713 1.5 9.1 1.5H2.9C2.5287 1.5 2.1726 1.6475 1.91005 1.91005C1.6475 2.1726 1.5 2.5287 1.5 2.9V14.0395L5.7135 11.0895C5.79758 11.031 5.89759 10.9998 6 11Z" fill="#B0B0B0"/>
</svg>
