<svg width="18" height="18" viewBox="0 0 18 18" fill="none" xmlns="http://www.w3.org/2000/svg">
<path d="M2.74902 8.33383C2.43837 8.3347 2.13431 8.42351 1.87202 8.58997C1.60973 8.75644 1.39993 8.99377 1.26689 9.2745C1.13386 9.55523 1.08302 9.86789 1.12027 10.1763C1.15751 10.4847 1.28132 10.7763 1.47736 11.0173L5.65647 16.1367C5.80548 16.3217 5.99648 16.4685 6.21361 16.5649C6.43074 16.6613 6.66774 16.7045 6.90491 16.6908C7.41216 16.6636 7.87013 16.3923 8.16211 15.9461L16.8432 1.96522C16.8446 1.96288 16.8461 1.96058 16.8476 1.9583C16.9291 1.83323 16.9027 1.58538 16.7345 1.42968C16.6884 1.38693 16.6339 1.35408 16.5745 1.33316C16.5152 1.31224 16.4522 1.3037 16.3894 1.30805C16.3266 1.31241 16.2654 1.32957 16.2095 1.35848C16.1535 1.3874 16.1042 1.42745 16.0643 1.47617C16.0612 1.48 16.058 1.48378 16.0547 1.48749L7.2997 11.3793C7.26639 11.417 7.22592 11.4476 7.18067 11.4695C7.13541 11.4914 7.08625 11.504 7.03606 11.5067C6.98587 11.5095 6.93564 11.5022 6.88828 11.4853C6.84093 11.4684 6.7974 11.4423 6.76022 11.4085L3.8546 8.76437C3.55283 8.48774 3.1584 8.33414 2.74902 8.33383Z" fill="#B4B4B4"/>
</svg>
