<svg width="14" height="14" viewBox="0 0 14 14" fill="none" xmlns="http://www.w3.org/2000/svg">
<g clip-path="url(#clip0_535_3033)">
<path d="M14 2.31618C13.4847 2.56838 12.9293 2.73412 12.3537 2.81338C12.9426 2.43147 13.3977 1.82618 13.6119 1.09838C13.0564 1.45868 12.4407 1.71088 11.7916 1.855C11.2629 1.23529 10.5201 0.875 9.67686 0.875C8.10421 0.875 6.81931 2.25853 6.81931 3.96632C6.81931 4.21132 6.84608 4.44912 6.89293 4.6725C4.51052 4.54279 2.3891 3.31059 0.977056 1.44426C0.729446 1.89824 0.58891 2.43147 0.58891 2.99353C0.58891 4.06721 1.09082 5.01838 1.86711 5.55882C1.39197 5.55882 0.950287 5.41471 0.562142 5.19853V5.22015C0.562142 6.71897 1.55258 7.97279 2.86424 8.25382C2.44313 8.37791 2.00102 8.39518 1.57266 8.30426C1.75442 8.91855 2.1104 9.45606 2.59055 9.84123C3.0707 10.2264 3.65087 10.4399 4.24952 10.4516C3.23474 11.3166 1.97686 11.7842 0.6826 11.7775C0.455067 11.7775 0.227533 11.7631 0 11.7343C1.27151 12.6134 2.78394 13.125 4.40344 13.125C9.67686 13.125 12.5746 8.41235 12.5746 4.32662C12.5746 4.18971 12.5746 4.06 12.5679 3.92309C13.13 3.49073 13.6119 2.94309 14 2.31618Z" fill="#004DF7"/>
</g>
<defs>
<clipPath id="clip0_535_3033">
<rect width="14" height="14" fill="white"/>
</clipPath>
</defs>
</svg>
