<svg width="39" height="39" viewBox="0 0 39 39" fill="none" xmlns="http://www.w3.org/2000/svg">
<path d="M16.5215 25.6348C17.3059 27.4287 18.3038 29.1215 19.4936 30.6765C20.6861 29.1217 21.687 27.4289 22.4748 25.6348C20.4965 25.5436 18.4999 25.5436 16.5215 25.6348Z" fill="#15B6B8"/>
<path d="M9.51074 26.3273C11.1756 28.6879 13.6193 30.3859 16.4123 31.1228C15.2769 29.4765 14.3404 27.7015 13.6224 25.835C12.2458 25.9535 10.8692 26.1176 9.51074 26.3273Z" fill="#15B6B8"/>
<path d="M8.11545 14.8398C6.98496 17.7013 6.98496 20.8856 8.11545 23.7471C9.69266 23.4828 11.2791 23.273 12.8198 23.1181C12.2637 20.5956 12.2637 17.9823 12.8198 15.4598C11.2699 15.3139 9.69266 15.1043 8.11545 14.8398Z" fill="#15B6B8"/>
<path d="M15.6095 22.9088C16.9041 22.8358 18.1987 22.7994 19.4933 22.7994C20.7971 22.7994 22.0916 22.8358 23.3862 22.9088C23.9697 20.5311 23.9697 18.0476 23.3862 15.6699C20.7963 15.8249 18.1994 15.8249 15.6095 15.6699C15.026 18.0476 15.026 20.5311 15.6095 22.9088Z" fill="#15B6B8"/>
<path d="M30.8811 23.7471C31.9995 20.8833 31.9995 17.7036 30.8811 14.8398C29.3039 15.1043 27.7175 15.3139 26.1768 15.4598C26.7329 17.9823 26.7329 20.5956 26.1768 23.1181C27.7175 23.273 29.3039 23.4828 30.8811 23.7471Z" fill="#15B6B8"/>
<path d="M22.5752 7.46484C23.7168 9.10887 24.6565 10.8842 25.3741 12.7527C26.7508 12.6342 28.1274 12.4609 29.4859 12.2604C27.8175 9.89935 25.3708 8.20147 22.5752 7.46484Z" fill="#15B6B8"/>
<path d="M22.4748 12.9528C21.6891 11.1576 20.688 9.46465 19.4936 7.91113C18.3019 9.46482 17.3039 11.1578 16.5215 12.9528C18.4999 13.044 20.4965 13.044 22.4748 12.9528Z" fill="#15B6B8"/>
<path d="M3.98876 12.8613C4.17762 12.98 4.39882 13.0368 4.62151 13.0239C4.84421 13.0109 5.0573 12.9287 5.23108 12.7888C5.58723 12.4885 5.74504 11.9299 5.90151 11.51L6.46738 9.99026H11.2853L11.8511 11.4777C12.0596 12.0246 12.3136 12.8376 12.9588 12.9919C13.1259 13.0305 13.2994 13.0326 13.4673 12.998C13.6353 12.9633 13.7938 12.8928 13.932 12.7912C14.0701 12.6896 14.1847 12.5594 14.2679 12.4094C14.351 12.2594 14.4007 12.0932 14.4137 11.9222C14.3665 11.4814 14.2434 11.052 14.0499 10.6531L10.9538 3.00594C10.7822 2.46982 10.5506 1.95478 10.2634 1.47059C9.82165 0.827713 8.96931 0.800291 8.24084 1.0639C7.36381 1.38126 7.10488 2.44417 6.79882 3.22112C6.79675 3.22639 3.76743 10.7178 3.76743 10.7178C3.47684 11.438 3.16359 12.3654 3.98876 12.8613ZM8.85208 3.49595L10.6386 8.18761H7.09793L8.85208 3.49595Z" fill="#15B6B8"/>
<path d="M34.1979 29.8435C34.4421 29.8435 34.6762 29.7465 34.8488 29.5739C35.0215 29.4012 35.1185 29.1671 35.1185 28.9229C35.1185 28.6788 35.0215 28.4447 34.8488 28.272C34.6762 28.0994 34.4421 28.0024 34.1979 28.0024H28.0487L28.1533 26.8382C28.1749 26.5951 28.0992 26.3534 27.9426 26.1661C27.7861 25.9789 27.5616 25.8614 27.3185 25.8396C27.0754 25.8178 26.8336 25.8934 26.6463 26.0498C26.4589 26.2062 26.3413 26.4307 26.3194 26.6737L26.2 28.0024H24.1007C23.8566 28.0024 23.6225 28.0994 23.4498 28.272C23.2772 28.4447 23.1802 28.6788 23.1802 28.9229C23.1802 29.1671 23.2772 29.4012 23.4498 29.5739C23.6225 29.7465 23.8566 29.8435 24.1007 29.8435H26.0346L25.744 33.0789C25.7224 33.3186 25.7957 33.5573 25.9481 33.7437C26.3996 34.2599 26.9021 34.7292 27.448 35.1444C26.2913 35.8685 24.9763 36.3014 23.6157 36.4059C23.3797 36.4271 23.161 36.5385 23.005 36.7168C22.849 36.8952 22.7678 37.1269 22.7782 37.3636C22.7887 37.6003 22.8901 37.8239 23.0612 37.9878C23.2324 38.1516 23.4601 38.2432 23.6971 38.2434C23.7245 38.2434 23.7524 38.2421 23.7802 38.2398C25.711 38.1006 27.5604 37.4061 29.1057 36.24C30.399 36.9603 32.0714 37.8047 34.1112 37.9975C34.1408 38.0002 34.17 38.0015 34.1988 38.0015C34.4354 38.0013 34.6628 37.91 34.8338 37.7466C35.0049 37.5832 35.1065 37.3602 35.1175 37.1239C35.1286 36.8876 35.0482 36.6561 34.8931 36.4775C34.7381 36.2988 34.5202 36.1867 34.2847 36.1645C32.8139 36.0254 31.5695 35.4017 30.5469 34.9017C31.7887 33.4373 32.6763 31.7064 33.1408 29.8435H34.1979ZM28.9271 33.9396C28.4601 33.6085 28.0211 33.2398 27.6143 32.837L27.8833 29.8435H31.24C30.8036 31.3725 30.011 32.7762 28.9271 33.9396Z" fill="#15B6B8"/>
<path d="M19.4997 1.62891C17.4856 1.62768 15.4862 1.97256 13.5889 2.64849L14.4407 4.74567C17.2665 3.76023 20.3182 3.61986 23.2225 4.34174C26.1269 5.06361 28.7578 6.61643 30.7934 8.81019C32.8289 11.0039 34.1809 13.7435 34.6839 16.6936C35.1868 19.6437 34.8189 22.6765 33.6251 25.4208H34.1994C34.7911 25.4213 35.3729 25.5723 35.8901 25.8596C36.7321 23.7719 37.1637 21.5415 37.1613 19.2905C37.1613 10.0838 29.2372 1.62891 19.4997 1.62891Z" fill="#15B6B8"/>
<path d="M4.09643 19.4898C4.09473 18.2455 4.24644 17.0058 4.54814 15.7987C3.77209 15.7998 3.01633 15.5509 2.39284 15.0889C1.72298 17.6982 1.65864 20.4261 2.20473 23.0641C2.75081 25.702 3.89287 28.1802 5.54358 30.3091C7.19429 32.4381 9.30994 34.1613 11.7288 35.3472C14.1476 36.5331 16.8056 37.1502 19.4995 37.1514C19.7383 37.1514 19.9835 37.1449 20.2222 37.132C20.2948 36.4502 20.5689 35.8054 21.0095 35.28C21.1739 35.081 21.3625 34.9033 21.5709 34.7509C20.8847 34.8472 20.1925 34.8946 19.4995 34.8928C15.4156 34.8889 11.5 33.2648 8.61225 30.377C5.72447 27.4892 4.10038 23.5737 4.09643 19.4898Z" fill="#15B6B8"/>
</svg>
