<svg width="45" height="45" viewBox="0 0 45 45" fill="none" xmlns="http://www.w3.org/2000/svg">
<path d="M31.5782 10.2534C32.852 11.832 33.8336 13.6253 34.4769 15.549L32.2671 15.9421L36.9635 19.9572L38.3374 17.3982L38.4042 17.2722L39.8412 14.5949L37.6905 14.9765C36.7779 12.5612 35.406 10.3455 33.6506 8.45198C31.3596 5.97356 28.4713 4.12402 25.2617 3.08008L24.5518 5.05518C27.2998 6.15879 29.7189 7.94852 31.5782 10.2534V10.2534Z" fill="#1D75B8"/>
<path d="M13.4342 34.7312C12.2102 33.1137 11.285 31.2907 10.702 29.3478L12.923 29.0238L8.35404 24.8643L6.90094 27.3792L6.83028 27.503L5.31055 30.1343L7.47208 29.8199C8.30895 32.2625 9.61113 34.5199 11.3066 36.4672C13.5193 39.0158 16.3485 40.9545 19.5241 42.098L20.2952 40.146C17.5829 38.9572 15.2207 37.093 13.4342 34.7312V34.7312Z" fill="#1D75B8"/>
<g clip-path="url(#clip0_202_4167)">
<path d="M18.5793 4.39355C18.9107 4.39355 19.1792 4.66214 19.1792 4.99341V20.1424C19.1792 20.4737 18.9106 20.7422 18.5793 20.7422H7.96216C7.63085 20.7422 7.3623 20.4736 7.3623 20.1424V4.39355H18.5793Z" fill="#CDBFBA"/>
<path d="M8.04114 3.16406H17.3498C17.6811 3.16406 17.9497 3.43264 17.9497 3.76392V18.9129C17.9497 19.2442 17.6811 19.5127 17.3498 19.5127H6.73267C6.40136 19.5127 6.13281 19.2441 6.13281 18.9129V5.01708L8.04114 3.16406Z" fill="#F9F3F1"/>
<path d="M17.95 3.76371V18.9129C17.95 19.2441 17.6815 19.5125 17.35 19.5125H16.6416C16.9731 19.5125 17.2416 19.2441 17.2416 18.9129V3.76371C17.2416 3.43254 16.9731 3.16406 16.6416 3.16406H17.35C17.6815 3.16406 17.95 3.43254 17.95 3.76371V3.76371Z" fill="#EFE2DD"/>
<path d="M8.04114 3.16406L8.03667 4.79028C8.03633 4.91834 7.93224 5.02188 7.80418 5.02154L6.13281 5.01708L8.04114 3.16406Z" fill="#CDBFBA"/>
<path d="M15.1962 3.16406V6.18008C15.1962 6.32998 15.3182 6.45193 15.4681 6.45193C15.618 6.45193 15.7399 6.32998 15.7399 6.18008V4.81387C15.7399 4.6674 15.8586 4.54872 16.0051 4.54872C16.1515 4.54872 16.2702 4.6674 16.2702 4.81387V6.18008C16.2702 6.62235 15.9104 6.98219 15.4681 6.98219C15.0258 6.98219 14.666 6.62235 14.666 6.18008V3.16406H15.1962Z" fill="#CDBFBA"/>
<path d="M13.7597 8.24613H12.9644C12.8078 8.24613 12.6809 8.1192 12.6809 7.96265V7.16727C12.6809 7.01072 12.554 6.88379 12.3974 6.88379H11.6858C11.5293 6.88379 11.4023 7.01072 11.4023 7.16727V7.96265C11.4023 8.1192 11.2754 8.24613 11.1189 8.24613H10.3235C10.167 8.24613 10.04 8.37305 10.04 8.52961V9.24121C10.04 9.39777 10.167 9.5247 10.3235 9.5247H11.1189C11.2754 9.5247 11.4023 9.65162 11.4023 9.80818V10.6035C11.4023 10.7601 11.5293 10.887 11.6858 10.887H12.3974C12.554 10.887 12.6809 10.7601 12.6809 10.6035V9.80818C12.6809 9.65162 12.8078 9.5247 12.9644 9.5247H13.7597C13.9163 9.5247 14.0432 9.39777 14.0432 9.24121V8.52961C14.0432 8.37305 13.9163 8.24613 13.7597 8.24613Z" fill="#EE6161"/>
<path d="M12.2512 9.52441H12.9641C12.8076 9.52441 12.6808 9.65158 12.6808 9.80814V10.6033C12.6808 10.7599 12.554 10.887 12.3975 10.887H11.6855C11.8414 10.8863 11.9675 10.7595 11.9675 10.6033V9.80814C11.9675 9.65158 12.0946 9.52441 12.2512 9.52441V9.52441Z" fill="#E94444"/>
<path d="M12.9642 8.2464H12.2512C12.0947 8.2464 11.9675 8.11924 11.9675 7.96268V7.16751C11.9675 7.0113 11.8414 6.88451 11.6855 6.88379H12.3975C12.554 6.88379 12.6808 7.01096 12.6808 7.16751V7.96268C12.6808 8.11924 12.8076 8.2464 12.9642 8.2464Z" fill="#E94444"/>
<path d="M14.0426 8.52944V9.24101C14.0426 9.39756 13.9158 9.52435 13.7593 9.52435H13.0459C13.2025 9.52435 13.3296 9.39756 13.3296 9.24101V8.52944C13.3296 8.37288 13.2025 8.24609 13.0459 8.24609H13.7593C13.9158 8.24609 14.0426 8.37288 14.0426 8.52944Z" fill="#E94444"/>
<path d="M11.1221 12.3145H8.14128C7.99908 12.3145 7.88379 12.4297 7.88379 12.5719C7.88379 12.7142 7.99908 12.8294 8.14128 12.8294H11.1221C11.2643 12.8294 11.3796 12.7142 11.3796 12.5719C11.3796 12.4297 11.2643 12.3145 11.1221 12.3145Z" fill="#CDBFBA"/>
<path d="M12.6569 12.8294H15.978C16.1202 12.8294 16.2355 12.7142 16.2355 12.5719C16.2355 12.4297 16.1202 12.3145 15.978 12.3145H12.6569C12.5147 12.3145 12.3994 12.4297 12.3994 12.5719C12.3994 12.7142 12.5147 12.8294 12.6569 12.8294Z" fill="#CDBFBA"/>
<path d="M11.1221 13.7041H8.14128C7.99908 13.7041 7.88379 13.8194 7.88379 13.9616C7.88379 14.1038 7.99908 14.2191 8.14128 14.2191H11.1221C11.2643 14.2191 11.3796 14.1038 11.3796 13.9616C11.3796 13.8194 11.2643 13.7041 11.1221 13.7041Z" fill="#CDBFBA"/>
<path d="M15.978 13.7041H12.6569C12.5147 13.7041 12.3994 13.8194 12.3994 13.9616C12.3994 14.1038 12.5147 14.2191 12.6569 14.2191H15.978C16.1202 14.2191 16.2355 14.1038 16.2355 13.9616C16.2355 13.8194 16.1202 13.7041 15.978 13.7041Z" fill="#CDBFBA"/>
<path d="M11.1221 15.0947H8.14128C7.99908 15.0947 7.88379 15.21 7.88379 15.3522C7.88379 15.4945 7.99908 15.6097 8.14128 15.6097H11.1221C11.2643 15.6097 11.3796 15.4945 11.3796 15.3522C11.3796 15.21 11.2643 15.0947 11.1221 15.0947Z" fill="#CDBFBA"/>
<path d="M15.978 15.0947H12.6569C12.5147 15.0947 12.3994 15.21 12.3994 15.3522C12.3994 15.4945 12.5147 15.6097 12.6569 15.6097H15.978C16.1202 15.6097 16.2355 15.4945 16.2355 15.3522C16.2355 15.21 16.1202 15.0947 15.978 15.0947Z" fill="#CDBFBA"/>
<path d="M11.1221 16.4844H8.14128C7.99908 16.4844 7.88379 16.5996 7.88379 16.7419C7.88379 16.8841 7.99908 16.9994 8.14128 16.9994H11.1221C11.2643 16.9994 11.3796 16.8841 11.3796 16.7419C11.3796 16.5996 11.2643 16.4844 11.1221 16.4844Z" fill="#CDBFBA"/>
<path d="M15.978 16.4844H12.6569C12.5147 16.4844 12.3994 16.5996 12.3994 16.7419C12.3994 16.8841 12.5147 16.9994 12.6569 16.9994H15.978C16.1202 16.9994 16.2355 16.8841 16.2355 16.7419C16.2355 16.5996 16.1202 16.4844 15.978 16.4844Z" fill="#CDBFBA"/>
</g>
<g clip-path="url(#clip1_202_4167)">
<path d="M39.3215 26.1904C39.6528 26.1904 39.9214 26.459 39.9214 26.7903V41.9392C39.9214 42.2705 39.6528 42.5391 39.3215 42.5391H28.7043C28.373 42.5391 28.1045 42.2705 28.1045 41.9392V26.1904H39.3215Z" fill="#CDBFBA"/>
<path d="M28.7833 24.9609H38.092C38.4233 24.9609 38.6919 25.2295 38.6919 25.5608V40.7097C38.6919 41.041 38.4233 41.3096 38.092 41.3096H27.4749C27.1435 41.3096 26.875 41.041 26.875 40.7097V26.814L28.7833 24.9609Z" fill="#F9F3F1"/>
<path d="M38.6922 25.5606V40.7098C38.6922 41.0409 38.4237 41.3094 38.0922 41.3094H37.3838C37.7153 41.3094 37.9838 41.0409 37.9838 40.7098V25.5606C37.9838 25.2294 37.7153 24.9609 37.3838 24.9609H38.0922C38.4237 24.9609 38.6922 25.2294 38.6922 25.5606V25.5606Z" fill="#EFE2DD"/>
<path d="M28.7833 24.9609L28.7789 26.5872C28.7785 26.7152 28.6744 26.8188 28.5464 26.8184L26.875 26.814L28.7833 24.9609Z" fill="#CDBFBA"/>
<path d="M35.9384 24.9609V27.977C35.9384 28.1269 36.0604 28.2488 36.2103 28.2488C36.3602 28.2488 36.4821 28.1269 36.4821 27.977V26.6107C36.4821 26.4643 36.6008 26.3456 36.7473 26.3456C36.8937 26.3456 37.0124 26.4643 37.0124 26.6107V27.977C37.0124 28.4192 36.6526 28.7791 36.2103 28.7791C35.768 28.7791 35.4082 28.4192 35.4082 27.977V24.9609H35.9384Z" fill="#CDBFBA"/>
<path d="M34.5019 30.043H33.7066C33.55 30.043 33.4231 29.9161 33.4231 29.7595V28.9641C33.4231 28.8076 33.2962 28.6807 33.1396 28.6807H32.428C32.2715 28.6807 32.1445 28.8076 32.1445 28.9641V29.7595C32.1445 29.9161 32.0176 30.043 31.861 30.043H31.0657C30.9092 30.043 30.7822 30.1699 30.7822 30.3265V31.0381C30.7822 31.1946 30.9092 31.3216 31.0657 31.3216H31.861C32.0176 31.3216 32.1445 31.4485 32.1445 31.6051V32.4004C32.1445 32.5569 32.2715 32.6839 32.428 32.6839H33.1396C33.2962 32.6839 33.4231 32.5569 33.4231 32.4004V31.6051C33.4231 31.4485 33.55 31.3216 33.7066 31.3216H34.5019C34.6585 31.3216 34.7854 31.1946 34.7854 31.0381V30.3265C34.7854 30.1699 34.6585 30.043 34.5019 30.043Z" fill="#EE6161"/>
<path d="M32.9934 31.3213H33.7063C33.5498 31.3213 33.423 31.4485 33.423 31.605V32.4002C33.423 32.5567 33.2962 32.6839 33.1396 32.6839H32.4277C32.5836 32.6832 32.7097 32.5564 32.7097 32.4002V31.605C32.7097 31.4485 32.8368 31.3213 32.9934 31.3213V31.3213Z" fill="#E94444"/>
<path d="M33.7064 30.0433H32.9934C32.8368 30.0433 32.7097 29.9161 32.7097 29.7596V28.9644C32.7097 28.8082 32.5836 28.6814 32.4277 28.6807H33.1396C33.2962 28.6807 33.423 28.8078 33.423 28.9644V29.7596C33.423 29.9161 33.5498 30.0433 33.7064 30.0433Z" fill="#E94444"/>
<path d="M34.7848 30.3263V31.0379C34.7848 31.1944 34.658 31.3212 34.5014 31.3212H33.7881C33.9446 31.3212 34.0718 31.1944 34.0718 31.0379V30.3263C34.0718 30.1698 33.9446 30.043 33.7881 30.043H34.5014C34.658 30.043 34.7848 30.1698 34.7848 30.3263Z" fill="#E94444"/>
<path d="M31.8643 34.1113H28.8835C28.7413 34.1113 28.626 34.2266 28.626 34.3688C28.626 34.5111 28.7413 34.6263 28.8835 34.6263H31.8643C32.0065 34.6263 32.1218 34.5111 32.1218 34.3688C32.1218 34.2266 32.0065 34.1113 31.8643 34.1113Z" fill="#CDBFBA"/>
<path d="M33.3991 34.6263H36.7202C36.8624 34.6263 36.9777 34.5111 36.9777 34.3688C36.9777 34.2266 36.8624 34.1113 36.7202 34.1113H33.3991C33.2569 34.1113 33.1416 34.2266 33.1416 34.3688C33.1416 34.5111 33.2569 34.6263 33.3991 34.6263Z" fill="#CDBFBA"/>
<path d="M31.8643 35.501H28.8835C28.7413 35.501 28.626 35.6162 28.626 35.7585C28.626 35.9007 28.7413 36.016 28.8835 36.016H31.8643C32.0065 36.016 32.1218 35.9007 32.1218 35.7585C32.1218 35.6162 32.0065 35.501 31.8643 35.501Z" fill="#CDBFBA"/>
<path d="M36.7202 35.501H33.3991C33.2569 35.501 33.1416 35.6162 33.1416 35.7585C33.1416 35.9007 33.2569 36.016 33.3991 36.016H36.7202C36.8624 36.016 36.9777 35.9007 36.9777 35.7585C36.9777 35.6162 36.8624 35.501 36.7202 35.501Z" fill="#CDBFBA"/>
<path d="M31.8643 36.8916H28.8835C28.7413 36.8916 28.626 37.0069 28.626 37.1491C28.626 37.2913 28.7413 37.4066 28.8835 37.4066H31.8643C32.0065 37.4066 32.1218 37.2913 32.1218 37.1491C32.1218 37.0069 32.0065 36.8916 31.8643 36.8916Z" fill="#CDBFBA"/>
<path d="M36.7202 36.8916H33.3991C33.2569 36.8916 33.1416 37.0069 33.1416 37.1491C33.1416 37.2913 33.2569 37.4066 33.3991 37.4066H36.7202C36.8624 37.4066 36.9777 37.2913 36.9777 37.1491C36.9777 37.0069 36.8624 36.8916 36.7202 36.8916Z" fill="#CDBFBA"/>
<path d="M31.8643 38.2812H28.8835C28.7413 38.2812 28.626 38.3965 28.626 38.5387C28.626 38.681 28.7413 38.7962 28.8835 38.7962H31.8643C32.0065 38.7962 32.1218 38.681 32.1218 38.5387C32.1218 38.3965 32.0065 38.2812 31.8643 38.2812Z" fill="#CDBFBA"/>
<path d="M36.7202 38.2812H33.3991C33.2569 38.2812 33.1416 38.3965 33.1416 38.5387C33.1416 38.681 33.2569 38.7962 33.3991 38.7962H36.7202C36.8624 38.7962 36.9777 38.681 36.9777 38.5387C36.9777 38.3965 36.8624 38.2812 36.7202 38.2812Z" fill="#CDBFBA"/>
</g>
<defs>
<clipPath id="clip0_202_4167">
<rect width="17.5781" height="17.5781" fill="white" transform="translate(3.86719 3.16406)"/>
</clipPath>
<clipPath id="clip1_202_4167">
<rect width="17.5781" height="17.5781" fill="white" transform="translate(24.6094 24.9609)"/>
</clipPath>
</defs>
</svg>
