<svg width="40" height="40" viewBox="0 0 40 40" fill="none" xmlns="http://www.w3.org/2000/svg">
<path d="M33.3332 4H6.6668C5.2004 4 4 5.2004 4 6.6668V33.3336C4 34.7996 5.2004 36 6.6668 36H33.3332C34.7996 36 36 34.7996 36 33.3332V6.6668C36 5.2004 34.7996 4 33.3332 4ZM21.3332 6.6668V7.8024C21.3332 9.762 22.0964 11.6032 23.4792 12.986L24.7472 14.2528C25.1248 14.6304 25.3332 15.1316 25.3332 15.6656C25.3332 16.7696 24.4348 17.6668 23.3332 17.6668C23.1044 17.6656 22.9532 17.5612 22.862 17.4704L20.9424 15.5496C20.4216 15.03 19.578 15.03 19.0572 15.5508L17.1392 17.4688C17.0492 17.5588 16.8944 17.6656 16.6664 17.6668C15.5632 17.6668 14.6664 16.7684 14.6664 15.6656C14.6664 15.1328 14.8748 14.6304 15.2536 14.2516L16.518 12.9872C17.9032 11.6032 18.6664 9.7608 18.6676 7.7996V6.6668H21.3332ZM21.9064 20C21.5628 20.164 21.2436 20.376 20.9768 20.6432L20.0028 21.6196L19.0248 20.6432C18.758 20.376 18.4404 20.164 18.0948 20C18.44 19.836 18.7576 19.6224 19.0244 19.3568L20 18.3788L20.9764 19.3552C21.2432 19.6224 21.5624 19.836 21.9064 20ZM6.6668 33.3332V6.6668H15.9988V7.7996C15.9988 8.9948 15.544 10.1892 14.6328 11.1016L13.3672 12.3672C12.5224 13.2108 12 14.3764 12 15.6656C12 17.6384 13.2292 19.3164 14.9608 20C13.2292 20.6824 12 22.362 12.0012 24.3332C12.0012 25.6224 12.5236 26.7892 13.3684 27.6328L14.6356 28.9012C15.5456 29.8112 16 31.0052 16.0012 32.2004V33.3332H6.6668ZM18.6668 33.3332V32.1992C18.6668 30.2396 17.9036 28.3984 16.5208 27.0156L15.254 25.7472C14.8752 25.37 14.6668 24.87 14.6668 24.336C14.6668 23.2316 15.5636 22.3348 16.668 22.3332C16.8956 22.3332 17.0496 22.4388 17.1396 22.5284L19.06 24.4504C19.5812 24.97 20.4232 24.97 20.9456 24.448L22.8624 22.5312C22.9508 22.4412 23.1068 22.3348 23.3336 22.3332C24.438 22.3332 25.3364 23.2304 25.3336 24.3348C25.3336 24.8672 25.1252 25.37 24.7476 25.7472L23.482 27.0128C22.0992 28.3984 21.3336 30.2408 21.3336 32.2004V33.3332H18.6668ZM33.3332 33.3332H24V32.2004C24 31.004 24.456 29.8096 25.3672 28.8984L26.6328 27.6328C27.4792 26.7892 28 25.624 28 24.3348C28.0028 22.362 26.7724 20.6824 25.0404 20C26.7708 19.3176 28 17.6392 28 15.6668C28 14.3776 27.4764 13.2112 26.6328 12.366L25.3672 11.0992C24.456 10.1888 24 8.9936 24 7.7996V6.6668H33.3332V33.3332Z" fill="#E94444"/>
</svg>
