<svg width="32" height="32" viewBox="0 0 32 32" fill="none" xmlns="http://www.w3.org/2000/svg">
<path d="M17.25 19.125C16.9062 19.125 16.625 19.4062 16.625 19.75C16.625 20.0938 16.9062 20.375 17.25 20.375C17.5938 20.375 17.875 20.0938 17.875 19.75C17.875 19.4062 17.5938 19.125 17.25 19.125Z" fill="#15B6B8"/>
<path d="M16 11.625C15.6562 11.625 15.375 11.9062 15.375 12.25C15.375 12.5938 15.6562 12.875 16 12.875C16.3438 12.875 16.625 12.5938 16.625 12.25C16.625 11.9062 16.3438 11.625 16 11.625Z" fill="#15B6B8"/>
<path d="M16 9.125C14.275 9.125 12.875 10.525 12.875 12.25C12.875 13.975 14.275 15.375 16 15.375C17.725 15.375 19.125 13.975 19.125 12.25C19.125 10.525 17.725 9.125 16 9.125ZM16 14.125C14.9688 14.125 14.125 13.2812 14.125 12.25C14.125 11.2188 14.9688 10.375 16 10.375C17.0312 10.375 17.875 11.2188 17.875 12.25C17.875 13.2812 17.0312 14.125 16 14.125Z" fill="#15B6B8"/>
<path d="M28.0625 24.5004C26.4062 24.5004 24.8875 25.5629 24.3438 27.0067C23.9813 26.9817 23.6187 27.0192 23.275 27.1192C22.5625 26.2504 21.5125 25.7504 20.375 25.7504C19.9438 25.7504 19.5187 25.8254 19.125 25.9629V22.4004L19.825 20.9942L21.725 23.8504C21.8625 24.0567 22.1125 24.1629 22.3563 24.1192C22.6 24.0754 22.8 23.8879 22.85 23.6442L23.7188 19.8004C24.3312 17.9129 23.7 15.8879 22.1688 14.8629C21.8563 14.6504 21.5188 14.4879 21.1688 14.3692L21.4062 12.7504C21.4062 12.7442 21.4062 12.7442 21.4062 12.7379C21.7625 9.86919 21.2687 6.61919 19.8312 4.14419C18.325 1.55669 16.375 0.137941 16.3563 0.125441C16.125 -0.0433091 15.8 -0.0245591 15.5813 0.162941C15.5688 0.169191 15.55 0.187941 15.5312 0.206691C13.1812 2.10669 11.3562 4.81919 10.6687 7.87544C10.3375 9.35669 10.3875 11.2067 10.5375 12.4379C10.5375 12.4442 10.5375 12.4442 10.5375 12.4504L10.8188 14.3692C10.4625 14.4879 10.125 14.6567 9.8125 14.8692C8.28125 15.8942 7.64375 17.9192 8.2625 19.8067L9.13125 23.6504C9.1875 23.8942 9.38125 24.0817 9.625 24.1254C9.86875 24.1692 10.1188 24.0629 10.2563 23.8567L12.1562 21.0004L12.8562 22.4067V25.9754C12.4625 25.8379 12.0375 25.7629 11.6062 25.7629C10.4688 25.7629 9.41875 26.2692 8.70625 27.1317C8.35625 27.0317 7.99375 26.9942 7.6375 27.0192C7.1125 25.5629 5.59375 24.5004 3.9375 24.5004C1.80625 24.5004 0 26.2192 0 28.2504C0 30.2817 1.80625 32.0004 3.9375 32.0004H28.0625C30.1938 32.0004 32 30.2817 32 28.2504C32 26.2192 30.1938 24.5004 28.0625 24.5004ZM20.9875 15.6317C21.1562 15.7067 21.325 15.7942 21.4813 15.9004C22.5375 16.6067 22.9813 18.0879 22.5312 19.4317C22.525 19.4504 22.5188 19.4692 22.5125 19.4942L21.9562 21.9442L20.4 19.6067L20.9875 15.6317ZM16.0063 1.43169C17.1688 2.43169 18.2688 3.82544 18.95 5.10669C18.1438 5.83794 17.0938 6.25044 16 6.25044C14.9062 6.25044 13.85 5.83794 13.0437 5.10044C13.7875 3.73794 14.8188 2.45669 16.0063 1.43169ZM10.0375 21.9379L9.48125 19.4879C9.475 19.4692 9.46875 19.4504 9.4625 19.4254C9.0125 18.0817 9.45625 16.6004 10.5125 15.8942C10.6687 15.7879 10.8375 15.7004 11.0125 15.6254L11.5938 19.6004L10.0375 21.9379ZM12.7875 19.1254L11.7875 12.2692C11.6125 10.8504 11.6562 9.22544 11.9 8.13794C12.0437 7.50669 12.2375 6.88169 12.4937 6.26919C13.4812 7.05669 14.725 7.50044 16.0063 7.50044C17.275 7.50044 18.5 7.06919 19.4813 6.29419C20.1813 8.18169 20.4438 10.4629 20.1812 12.5629L19.1437 19.5629L18.1125 21.6254H13.8875L13.2625 20.3754H14.75C15.0938 20.3754 15.375 20.0942 15.375 19.7504C15.375 19.4067 15.0938 19.1254 14.75 19.1254H12.7875ZM28.0625 30.7504H3.9375C2.50625 30.7504 1.25 29.5817 1.25 28.2504C1.25 26.9192 2.50625 25.7504 3.9375 25.7504C5.01875 25.7504 6.05 26.4317 6.44375 27.3504C6.15625 27.5004 5.89375 27.6879 5.6625 27.9192C5.41875 28.1629 5.41875 28.5567 5.6625 28.8004C5.90625 29.0442 6.3 29.0442 6.54375 28.8004C6.775 28.5692 7.05625 28.4067 7.3625 28.3192C7.8 28.2004 8.26875 28.2379 8.675 28.4379C8.8625 28.5317 9.0375 28.6504 9.1875 28.8004C9.43125 29.0442 9.825 29.0442 10.0688 28.8004C10.3125 28.5567 10.3125 28.1629 10.0688 27.9192C10 27.8504 9.925 27.7817 9.85 27.7254C10.3125 27.2692 10.9375 27.0067 11.6062 27.0067C12.05 27.0067 12.4812 27.1192 12.8562 27.3442V28.8754C12.8562 29.2192 13.1375 29.5004 13.4812 29.5004C13.825 29.5004 14.1062 29.2192 14.1062 28.8754C14.1062 28.0754 14.1062 23.7879 14.1062 22.8754H17.8563C17.8563 23.6004 17.8563 28.1504 17.8563 28.8754C17.8563 29.2192 18.1375 29.5004 18.4813 29.5004C18.825 29.5004 19.1063 29.2192 19.1063 28.8754V27.3317C19.4813 27.1129 19.9125 27.0004 20.3563 27.0004C21.025 27.0004 21.65 27.2629 22.1125 27.7192C22.0375 27.7817 21.9625 27.8442 21.8937 27.9129C21.65 28.1567 21.65 28.5504 21.8937 28.7942C22.1375 29.0379 22.5312 29.0379 22.775 28.7942C22.925 28.6442 23.1 28.5192 23.2875 28.4317C23.6938 28.2379 24.1625 28.1942 24.6 28.3129C24.9062 28.4004 25.1938 28.5629 25.4188 28.7942C25.6625 29.0379 26.0562 29.0379 26.3 28.7942C26.5437 28.5504 26.5437 28.1567 26.3 27.9129C26.0687 27.6817 25.8062 27.4942 25.5187 27.3442C25.9125 26.4317 26.9438 25.7442 28.025 25.7442C29.4562 25.7442 30.7125 26.9129 30.7125 28.2442C30.75 29.5817 29.4937 30.7504 28.0625 30.7504Z" fill="#15B6B8"/>
</svg>
