<svg width="40" height="40" viewBox="0 0 40 40" fill="none" xmlns="http://www.w3.org/2000/svg">
<path d="M4.17441 24.0201L11.3072 28.5232L18.4377 24.0201V20.0357H17.5002V23.5029L11.7736 27.1186V20.274L13.8049 21.4396L21.4705 17.0436L15.0697 13.5068L11.3033 11.4248L1.1416 17.0436L4.17441 18.7834V24.0201ZM5.11191 19.3209L8.80566 21.4396L10.8369 20.274V27.1186L5.11035 23.5029L5.11191 19.3209ZM13.8088 20.3592L12.2463 19.4646L17.9729 16.1834L19.5604 17.0607L13.8088 20.3592ZM13.6525 13.7904L14.6033 14.3162L17.0189 15.6514L11.3104 18.9248L5.60176 15.6514L11.3072 12.4998L13.6525 13.7904ZM4.63848 16.1818L10.365 19.4631L8.80254 20.3576L3.05176 17.0584L4.63848 16.1818Z" fill="#E94444" stroke="#E94444" stroke-width="0.5"/>
<path d="M35.4906 4.12305H12.8555V10.7027H13.793V5.06055H34.5531V32.109H18.4141V32.5777C18.4197 32.8847 18.3641 33.1898 18.2505 33.4751C18.137 33.7603 17.9677 34.0201 17.7525 34.2392C17.5374 34.4583 17.2808 34.6324 16.9977 34.7512C16.7145 34.87 16.4106 34.9312 16.1035 34.9312C15.7965 34.9312 15.4925 34.87 15.2094 34.7512C14.9262 34.6324 14.6696 34.4583 14.4545 34.2392C14.2394 34.0201 14.0701 33.7603 13.9565 33.4751C13.8429 33.1898 13.7873 32.8847 13.793 32.5777V29.4637H12.8555V32.5777C12.8592 33.4339 13.1943 34.2553 13.7904 34.8698C14.3866 35.4843 15.1975 35.8442 16.0531 35.8738H35.5609C36.4349 35.8728 37.2729 35.5252 37.891 34.9074C38.5092 34.2895 38.8571 33.4517 38.8586 32.5777V32.109H35.4906V4.12305ZM35.5609 34.9387H18.3539C18.8757 34.4318 19.215 33.7665 19.3187 33.0465H37.875C37.766 33.58 37.4763 34.0597 37.0547 34.4044C36.6331 34.7491 36.1055 34.9378 35.5609 34.9387Z" fill="#E94444" stroke="#E94444" stroke-width="0.5"/>
<path d="M32.4917 25.7461H19.8354V26.6836H32.4917V25.7461Z" fill="#E94444" stroke="#E94444" stroke-width="0.5"/>
<path d="M32.4868 28.4209H19.8306V29.3584H32.4868V28.4209Z" fill="#E94444" stroke="#E94444" stroke-width="0.5"/>
<path d="M32.5376 20.6035H25.7017V21.541H32.5376V20.6035Z" fill="#E94444" stroke="#E94444" stroke-width="0.5"/>
<path d="M32.4868 23.0635H25.6509V24.001H32.4868V23.0635Z" fill="#E94444" stroke="#E94444" stroke-width="0.5"/>
<path d="M29.5563 11.6621L30.3336 12.1848L30.9773 11.2285C31.2252 12.0869 31.1808 13.0034 30.851 13.8337C30.5212 14.6641 29.9249 15.3614 29.1556 15.8159C28.3864 16.2703 27.4879 16.4563 26.6014 16.3444C25.715 16.2326 24.8909 15.8293 24.2586 15.198L23.5938 15.859C24.372 16.6369 25.3866 17.1344 26.4782 17.2733C27.5698 17.4122 28.6766 17.1847 29.625 16.6266C30.5733 16.0684 31.3094 15.2111 31.7178 14.1892C32.1262 13.1674 32.1836 12.0389 31.8812 10.9809L32.9102 11.673L33.4336 10.8918L31.1172 9.33398L29.5563 11.6621Z" fill="#E94444" stroke="#E94444" stroke-width="0.5"/>
<path d="M24.2102 12.3989L23.4289 11.8755L22.7859 12.8317C22.5381 11.9733 22.5825 11.0569 22.9123 10.2265C23.242 9.39611 23.8384 8.69887 24.6077 8.24439C25.3769 7.7899 26.2754 7.60396 27.1618 7.7158C28.0483 7.82763 28.8724 8.2309 29.5047 8.8622L30.1672 8.1997C29.3891 7.42162 28.3746 6.92399 27.283 6.78494C26.1915 6.64589 25.0846 6.87329 24.1363 7.43145C23.188 7.9896 22.4519 8.8469 22.0436 9.86873C21.6353 10.8906 21.5779 12.0191 21.8805 13.077L20.8594 12.3849L20.3359 13.1661L22.6523 14.7239L24.2102 12.3989Z" fill="#E94444" stroke="#E94444" stroke-width="0.5"/>
</svg>
