<svg width="164" height="101" viewBox="0 0 164 101" fill="none" xmlns="http://www.w3.org/2000/svg">
<g clip-path="url(#clip0_202_4362)">
<path d="M12.5659 30.873C14.6598 30.873 16.3573 29.1755 16.3573 27.0815C16.3573 24.9875 14.6598 23.29 12.5659 23.29C10.4719 23.29 8.77441 24.9875 8.77441 27.0815C8.77441 29.1755 10.4719 30.873 12.5659 30.873Z" fill="url(#paint0_linear_202_4362)"/>
<path d="M20.5823 36.9038C22.8358 36.9038 24.6626 35.077 24.6626 32.8235C24.6626 30.57 22.8358 28.7432 20.5823 28.7432C18.3288 28.7432 16.502 30.57 16.502 32.8235C16.502 35.077 18.3288 36.9038 20.5823 36.9038Z" fill="url(#paint1_linear_202_4362)"/>
<path d="M29.6815 35.8562C31.4365 35.8562 32.8591 34.4335 32.8591 32.6786C32.8591 30.9236 31.4365 29.501 29.6815 29.501C27.9266 29.501 26.5039 30.9236 26.5039 32.6786C26.5039 34.4335 27.9266 35.8562 29.6815 35.8562Z" fill="url(#paint2_linear_202_4362)"/>
<path d="M28.3095 12.2773C29.9847 12.2773 31.3427 10.9193 31.3427 9.24411C31.3427 7.56893 29.9847 6.21094 28.3095 6.21094C26.6344 6.21094 25.2764 7.56893 25.2764 9.24411C25.2764 10.9193 26.6344 12.2773 28.3095 12.2773Z" fill="url(#paint3_linear_202_4362)"/>
<path d="M36.9399 26.7929C38.1963 26.7929 39.2148 25.7744 39.2148 24.518C39.2148 23.2617 38.1963 22.2432 36.9399 22.2432C35.6835 22.2432 34.665 23.2617 34.665 24.518C34.665 25.7744 35.6835 26.7929 36.9399 26.7929Z" fill="url(#paint4_linear_202_4362)"/>
<path d="M45.2445 27.2263C46.5807 27.2263 47.6638 26.1432 47.6638 24.807C47.6638 23.4709 46.5807 22.3877 45.2445 22.3877C43.9084 22.3877 42.8252 23.4709 42.8252 24.807C42.8252 26.1432 43.9084 27.2263 45.2445 27.2263Z" fill="url(#paint5_linear_202_4362)"/>
<path d="M47.9886 7.8718C50.1624 7.8718 51.9245 6.10963 51.9245 3.9359C51.9245 1.76216 50.1624 0 47.9886 0C45.8149 0 44.0527 1.76216 44.0527 3.9359C44.0527 6.10963 45.8149 7.8718 47.9886 7.8718Z" fill="url(#paint6_linear_202_4362)"/>
<path d="M51.1662 18.4515C52.6619 18.4515 53.8744 17.239 53.8744 15.7433C53.8744 14.2477 52.6619 13.0352 51.1662 13.0352C49.6705 13.0352 48.458 14.2477 48.458 15.7433C48.458 17.239 49.6705 18.4515 51.1662 18.4515Z" fill="url(#paint7_linear_202_4362)"/>
<path d="M63.7327 39.1782C65.9862 39.1782 67.813 37.3514 67.813 35.0979C67.813 32.8444 65.9862 31.0176 63.7327 31.0176C61.4792 31.0176 59.6523 32.8444 59.6523 35.0979C59.6523 37.3514 61.4792 39.1782 63.7327 39.1782Z" fill="url(#paint8_linear_202_4362)"/>
<path d="M55.5354 37.6617C56.9513 37.6617 58.0992 36.5139 58.0992 35.0979C58.0992 33.682 56.9513 32.5342 55.5354 32.5342C54.1195 32.5342 52.9717 33.682 52.9717 35.0979C52.9717 36.5139 54.1195 37.6617 55.5354 37.6617Z" fill="url(#paint9_linear_202_4362)"/>
<path d="M64.3103 66.8746C66.145 66.8746 67.6324 65.3872 67.6324 63.5525C67.6324 61.7178 66.145 60.2305 64.3103 60.2305C62.4756 60.2305 60.9883 61.7178 60.9883 63.5525C60.9883 65.3872 62.4756 66.8746 64.3103 66.8746Z" fill="url(#paint10_linear_202_4362)"/>
<path d="M73.6989 52.9359C74.7758 52.9359 75.6488 52.0629 75.6488 50.986C75.6488 49.9091 74.7758 49.0361 73.6989 49.0361C72.622 49.0361 71.749 49.9091 71.749 50.986C71.749 52.0629 72.622 52.9359 73.6989 52.9359Z" fill="url(#paint11_linear_202_4362)"/>
<path d="M96.231 50.6974C98.2452 50.6974 99.878 49.0645 99.878 47.0503C99.878 45.0362 98.2452 43.4033 96.231 43.4033C94.2168 43.4033 92.584 45.0362 92.584 47.0503C92.584 49.0645 94.2168 50.6974 96.231 50.6974Z" fill="url(#paint12_linear_202_4362)"/>
<path d="M90.6342 44.956C91.8906 44.956 92.9091 43.9375 92.9091 42.6811C92.9091 41.4247 91.8906 40.4062 90.6342 40.4062C89.3779 40.4062 88.3594 41.4247 88.3594 42.6811C88.3594 43.9375 89.3779 44.956 90.6342 44.956Z" fill="url(#paint13_linear_202_4362)"/>
<path d="M73.5547 43.4396C75.1502 43.4396 76.4435 42.1462 76.4435 40.5508C76.4435 38.9554 75.1502 37.6621 73.5547 37.6621C71.9593 37.6621 70.666 38.9554 70.666 40.5508C70.666 42.1462 71.9593 43.4396 73.5547 43.4396Z" fill="url(#paint14_linear_202_4362)"/>
<path d="M86.5534 39.7923C88.4679 39.7923 90.0199 38.2403 90.0199 36.3259C90.0199 34.4114 88.4679 32.8594 86.5534 32.8594C84.6389 32.8594 83.0869 34.4114 83.0869 36.3259C83.0869 38.2403 84.6389 39.7923 86.5534 39.7923Z" fill="url(#paint15_linear_202_4362)"/>
<path d="M107.28 45.6781C111.974 45.6781 115.766 41.8866 115.766 37.1924C115.766 32.4983 111.974 28.7068 107.28 28.7068C104.464 28.7068 101.936 30.0789 100.42 32.2094L97.8558 30.7289C98.1086 30.1512 98.2169 29.5012 98.2169 28.8512C98.2169 26.1069 95.9781 23.8682 93.2338 23.8682C90.8867 23.8682 88.9369 25.4931 88.3952 27.6596L84.351 27.2985C84.351 27.2624 84.351 27.2263 84.351 27.1902C84.351 23.9404 82.2205 21.1961 79.2957 20.2934L80.379 16.3575C80.7401 16.4297 81.1012 16.4658 81.4622 16.4658C84.4593 16.4658 86.9147 14.0104 86.9147 11.0133C86.9147 8.01624 84.4593 5.56082 81.4622 5.56082C78.4652 5.56082 76.0098 8.01624 76.0098 11.0133C76.0098 13.2882 77.418 15.2381 79.404 16.0686L78.3208 20.0406C77.9236 19.9684 77.5264 19.9323 77.1292 19.9323C73.7349 19.9323 70.8462 22.2794 70.0879 25.457L66.4047 24.6265C66.4408 24.3376 66.477 24.0487 66.477 23.7237C66.477 20.0406 63.5882 17.0074 59.9412 16.7908L59.7606 13.7937C62.2883 13.3243 64.2021 11.1216 64.2021 8.44955C64.2021 5.45249 61.7467 2.99707 58.7496 2.99707C55.7525 2.99707 53.2971 5.45249 53.2971 8.44955C53.2971 11.4466 55.7164 13.902 58.7135 13.902L58.894 16.7908C55.3192 17.0796 52.5388 20.0767 52.5388 23.7237C52.5388 25.1681 52.9721 26.5041 53.7304 27.6235L49.2529 31.3789C47.7002 29.8262 45.5336 28.8512 43.1504 28.8512C42.8977 28.8512 42.6449 28.8512 42.4283 28.8873L40.8033 19.4267C43.5476 18.7407 45.6059 16.2491 45.6059 13.2521C45.6059 9.74948 42.7532 6.89686 39.2506 6.89686C35.7481 6.89686 32.8954 9.74948 32.8954 13.2521C32.8954 16.7547 35.7481 19.6073 39.2506 19.6073C39.4312 19.6073 39.6117 19.6073 39.7923 19.5712L41.4172 28.9957C39.7201 29.3568 38.1674 30.2234 37.0119 31.415L28.6346 23.5793C29.3928 22.496 29.8623 21.16 29.8623 19.7156C29.8623 16.0325 26.8652 13.0715 23.2182 13.0715C19.5712 13.0715 16.5741 16.0686 16.5741 19.7156C16.5741 23.3987 19.5712 26.3597 23.2182 26.3597C25.0959 26.3597 26.7569 25.6014 27.9846 24.3376L36.3619 32.1372C35.2425 33.5815 34.5926 35.4231 34.5926 37.373C34.5926 37.4452 34.5926 37.4813 34.5926 37.5535L14.7686 38.709C14.1909 35.1703 11.1216 32.4983 7.43849 32.4983C3.32204 32.4983 0 35.8203 0 39.9367C0 44.0532 3.32204 47.3752 7.43849 47.3752C11.5549 47.3752 14.877 44.0532 14.877 39.9367C14.877 39.8645 14.877 39.7923 14.877 39.7201L34.6287 38.709C34.8092 40.0451 35.3148 41.2367 36.0008 42.3199L33.2926 44.3421C32.1733 42.9338 30.4039 42.0311 28.454 42.0311C25.0236 42.0311 22.2432 44.8115 22.2432 48.2418C22.2432 48.8196 22.3155 49.3973 22.496 49.939L16.1408 52.5749C15.1297 50.8778 13.2882 49.7584 11.1938 49.7584C8.01623 49.7584 5.45248 52.3222 5.45248 55.4998C5.45248 58.6774 8.01623 61.2411 11.1938 61.2411C14.3714 61.2411 16.9352 58.6774 16.9352 55.4998C16.9352 54.7776 16.7908 54.1276 16.5741 53.4777L22.821 50.8778C23.832 52.9721 25.9625 54.4165 28.4179 54.4165C31.8483 54.4165 34.6287 51.6361 34.6287 48.2057C34.6287 47.0863 34.3398 46.0753 33.8343 45.1726L36.5786 43.1143C37.9507 44.7393 39.9367 45.8225 42.1755 46.0392L42.2477 50.7695H42.2116C38.1313 50.7695 34.8092 54.0915 34.8092 58.1719C34.8092 58.6774 34.8453 59.1829 34.9537 59.6884L33.6537 60.0495C32.9677 57.9913 31.0539 56.5108 28.779 56.5108C25.9264 56.5108 23.6515 58.8218 23.6515 61.6383C23.6515 64.491 25.9625 66.7658 28.779 66.7658C31.5955 66.7658 33.9065 64.4548 33.9065 61.6383C33.9065 61.4217 33.9065 61.2411 33.8704 61.0606L35.2425 60.6634C36.1092 63.1188 38.2396 64.9604 40.8756 65.4298L40.695 67.8491C40.5506 67.8491 40.4061 67.8491 40.2617 67.8491C36.6508 67.8491 33.7621 70.774 33.7621 74.3488C33.7621 76.3348 34.6648 78.1041 36.0369 79.2957L35.8564 79.6929L34.412 81.7872C33.8704 81.5706 33.2926 81.4261 32.6788 81.4261C30.2595 81.4261 28.2735 83.376 28.2735 85.8315C28.2735 88.2508 30.2234 90.2368 32.6788 90.2368C35.1342 90.2368 37.0841 88.2869 37.0841 85.8315C37.0841 84.3871 36.398 83.1233 35.3148 82.3289L36.7591 80.2346L36.9036 79.9096C37.8785 80.5234 39.034 80.8484 40.2617 80.8484C43.8726 80.8484 46.7614 77.9236 46.7614 74.3488C46.7614 71.2434 44.5948 68.6796 41.7061 67.9936L41.8866 65.5381C41.9949 65.5381 42.1033 65.5381 42.2116 65.5381C44.5587 65.5381 46.653 64.4549 48.0252 62.7577L49.614 63.9854C49.2529 64.6354 49.0362 65.3937 49.0362 66.152C49.0362 68.6435 51.0583 70.7017 53.586 70.7017C56.0775 70.7017 58.1357 68.6796 58.1357 66.152C58.1357 63.6604 56.1136 61.6022 53.586 61.6022C52.2499 61.6022 51.0222 62.18 50.1917 63.1188L48.6029 61.8911C49.2529 60.7717 49.6501 59.5079 49.6501 58.1358C49.6501 54.4165 46.9058 51.3111 43.2949 50.8056L43.2227 46.0392C45.967 46.0031 48.4224 44.7031 49.9751 42.681L53.0082 44.7393C52.2138 46.0031 51.7805 47.4836 51.7805 49.0724C51.7805 53.586 55.4275 57.233 59.9412 57.233C62.5772 57.233 64.9243 55.9692 66.4408 54.0193L70.8101 56.8358C70.2684 57.7024 69.9434 58.7135 69.9434 59.7968C69.9434 62.7938 72.3988 65.2493 75.3959 65.2493C78.393 65.2493 80.8484 62.7938 80.8484 59.7968C80.8484 56.7997 78.393 54.3443 75.3959 54.3443C73.8432 54.3443 72.4711 54.9943 71.46 56.0053L67.0186 53.1527C67.7408 51.9611 68.138 50.5528 68.138 49.0362C68.138 48.7113 68.1019 48.4224 68.1019 48.0974L76.5875 46.8336C77.0569 49.2168 79.1513 50.9861 81.6428 50.9861C82.8344 50.9861 83.9538 50.5889 84.8204 49.9029L88.1063 54.1276C86.5536 55.3915 85.5787 57.3413 85.5787 59.4718C85.5787 63.2994 88.6841 66.4409 92.5478 66.4409C96.4114 66.4409 99.5168 63.3355 99.5168 59.4718C99.5168 58.5329 99.3363 57.6302 99.0113 56.8358L101.647 55.2109C102.55 56.5108 104.03 57.3414 105.728 57.3414C108.472 57.3414 110.711 55.1026 110.711 52.3583C110.711 49.614 108.472 47.3752 105.728 47.3752C102.983 47.3752 100.745 49.614 100.745 52.3583C100.745 53.0444 100.889 53.7304 101.142 54.3082L98.4335 56.0414C97.2058 54.0193 95.0032 52.6472 92.4755 52.6472C91.1395 52.6472 89.9118 53.0082 88.8646 53.6582L85.5065 49.3251C86.2648 48.4224 86.7342 47.2669 86.7342 46.0031C86.7342 43.1505 84.4232 40.8756 81.6067 40.8756C78.7902 40.8756 76.4792 43.1505 76.4792 45.967L67.9213 47.2308C67.5241 45.5698 66.5853 44.0893 65.3576 43.006L72.9766 33.1121C74.1682 33.9426 75.6126 34.4481 77.1653 34.4481C80.7762 34.4481 83.7732 31.8122 84.3149 28.3457L88.2869 28.7068C88.2869 28.779 88.2869 28.8151 88.2869 28.8873C88.2869 31.6316 90.5257 33.8704 93.27 33.8704C95.0032 33.8704 96.5198 33.0038 97.4225 31.6677L99.9501 33.1121C99.2641 34.3398 98.903 35.712 98.903 37.1924C98.8307 41.8866 102.622 45.6781 107.28 45.6781ZM64.491 42.3922C63.191 41.5255 61.6383 41.02 59.9412 41.02C57.3774 41.02 55.1026 42.1755 53.6221 44.0171L50.5889 41.9227C51.3472 40.6228 51.7805 39.1423 51.7805 37.5174C51.7805 35.4953 51.0945 33.6537 49.939 32.2094L54.3804 28.4901C55.6442 29.8623 57.4858 30.7289 59.5079 30.7289C62.6855 30.7289 65.3576 28.5985 66.1881 25.6736L69.8712 26.5402C69.8351 26.7569 69.8351 27.0097 69.8351 27.2624C69.8351 29.3206 70.7017 31.1983 72.11 32.4983L64.491 42.3922Z" fill="url(#paint16_linear_202_4362)"/>
<path d="M95.4001 23.0737C98.0724 23.0737 100.239 20.9074 100.239 18.2351C100.239 15.5628 98.0724 13.3965 95.4001 13.3965C92.7278 13.3965 90.5615 15.5628 90.5615 18.2351C90.5615 20.9074 92.7278 23.0737 95.4001 23.0737Z" fill="url(#paint17_linear_202_4362)"/>
<path d="M104.572 26.4675C105.908 26.4675 106.991 25.3844 106.991 24.0482C106.991 22.7121 105.908 21.6289 104.572 21.6289C103.236 21.6289 102.152 22.7121 102.152 24.0482C102.152 25.3844 103.236 26.4675 104.572 26.4675Z" fill="url(#paint18_linear_202_4362)"/>
<path d="M86.5541 23.7595C87.8902 23.7595 88.9734 22.6764 88.9734 21.3402C88.9734 20.0041 87.8902 18.9209 86.5541 18.9209C85.2179 18.9209 84.1348 20.0041 84.1348 21.3402C84.1348 22.6764 85.2179 23.7595 86.5541 23.7595Z" fill="url(#paint19_linear_202_4362)"/>
<path d="M70.3771 17.224C71.8728 17.224 73.0853 16.0115 73.0853 14.5158C73.0853 13.0201 71.8728 11.8076 70.3771 11.8076C68.8814 11.8076 67.6689 13.0201 67.6689 14.5158C67.6689 16.0115 68.8814 17.224 70.3771 17.224Z" fill="url(#paint20_linear_202_4362)"/>
<path d="M70.0879 9.0997C72.5209 9.0997 74.4932 7.12737 74.4932 4.69438C74.4932 2.26139 72.5209 0.289062 70.0879 0.289062C67.6549 0.289062 65.6826 2.26139 65.6826 4.69438C65.6826 7.12737 67.6549 9.0997 70.0879 9.0997Z" fill="url(#paint21_linear_202_4362)"/>
<path d="M27.1184 95.3287C28.5344 95.3287 29.6822 94.1808 29.6822 92.7649C29.6822 91.349 28.5344 90.2012 27.1184 90.2012C25.7025 90.2012 24.5547 91.349 24.5547 92.7649C24.5547 94.1808 25.7025 95.3287 27.1184 95.3287Z" fill="url(#paint22_linear_202_4362)"/>
<path d="M28.8509 80.8845C31.0247 80.8845 32.7868 79.1223 32.7868 76.9486C32.7868 74.7749 31.0247 73.0127 28.8509 73.0127C26.6772 73.0127 24.915 74.7749 24.915 76.9486C24.915 79.1223 26.6772 80.8845 28.8509 80.8845Z" fill="url(#paint23_linear_202_4362)"/>
<path d="M28.3093 71.7123C29.3862 71.7123 30.2592 70.8393 30.2592 69.7624C30.2592 68.6855 29.3862 67.8125 28.3093 67.8125C27.2324 67.8125 26.3594 68.6855 26.3594 69.7624C26.3594 70.8393 27.2324 71.7123 28.3093 71.7123Z" fill="url(#paint24_linear_202_4362)"/>
<path d="M21.1956 59.6158C22.6115 59.6158 23.7593 58.468 23.7593 57.052C23.7593 55.6361 22.6115 54.4883 21.1956 54.4883C19.7797 54.4883 18.6318 55.6361 18.6318 57.052C18.6318 58.468 19.7797 59.6158 21.1956 59.6158Z" fill="url(#paint25_linear_202_4362)"/>
<path d="M18.0186 48.422C19.614 48.422 20.9073 47.1287 20.9073 45.5333C20.9073 43.9379 19.614 42.6445 18.0186 42.6445C16.4232 42.6445 15.1299 43.9379 15.1299 45.5333C15.1299 47.1287 16.4232 48.422 18.0186 48.422Z" fill="url(#paint26_linear_202_4362)"/>
</g>
<g clip-path="url(#clip1_202_4362)">
<path d="M71.1374 83.3188H69.3606C69.2969 82.2349 68.9764 81.3876 68.3992 80.7769C67.5771 79.9413 66.3942 79.5236 64.8506 79.5236C63.4513 79.5236 62.3574 79.8675 61.5688 80.5554C60.8944 81.1661 60.5571 81.948 60.5571 82.901C60.5571 84.3976 61.5269 85.3506 63.4665 85.76L66.7734 86.4496C68.3841 86.7952 69.5519 87.3137 70.2767 88.0049C71.0988 88.8103 71.5099 89.8556 71.5099 91.1408C71.5099 92.8656 70.8438 94.2129 69.5116 95.1826C68.3606 96.0383 66.8808 96.4662 65.0721 96.4662C62.589 96.4662 60.7467 95.6927 59.5454 94.1457C58.8206 93.2263 58.4347 91.9193 58.3877 90.2247H60.1595C60.2098 93.3823 61.8708 94.9612 65.1426 94.9612C66.6392 94.9612 67.807 94.5837 68.6459 93.8286C69.3875 93.1709 69.7583 92.3236 69.7583 91.2867C69.7583 90.4143 69.4747 89.728 68.9076 89.2281C68.3405 88.7247 67.3976 88.3338 66.0788 88.0553L62.9228 87.3657C60.1611 86.7717 58.7803 85.2919 58.7803 82.9262C58.7803 81.3155 59.4061 80.0655 60.6578 79.1762C61.7417 78.4045 63.1544 78.0186 64.896 78.0186C67.2818 78.0186 69.0167 78.7249 70.1005 80.1376C70.7113 80.9262 71.0569 81.9866 71.1374 83.3188ZM74.6911 100.141V83.2684H76.2665V85.1208C77.3537 83.6577 78.7514 82.9262 80.4594 82.9262C82.2513 82.9262 83.6573 83.6007 84.6774 84.9496C85.5499 86.1308 85.9861 87.6509 85.9861 89.5099C85.9861 91.7146 85.4106 93.4578 84.2596 94.7397C83.2395 95.8571 81.956 96.4158 80.4091 96.4158C78.8151 96.4158 77.4343 95.6759 76.2665 94.1961V100.141H74.6911ZM80.3386 84.3305C78.9896 84.3305 77.9527 84.8724 77.2279 85.9563C76.587 86.8959 76.2665 88.1375 76.2665 89.6811C76.2665 91.4428 76.6776 92.8085 77.4997 93.7783C78.2245 94.6004 79.1708 95.0115 80.3386 95.0115C81.6842 95.0115 82.7278 94.4763 83.4694 93.4058C84.0935 92.4696 84.4056 91.228 84.4056 89.6811C84.4056 87.9059 83.9946 86.5419 83.1724 85.5889C82.4677 84.75 81.5231 84.3305 80.3386 84.3305ZM99.6016 89.9277H90.028C90.0783 91.6391 90.5229 92.9394 91.3619 93.8286C92.0867 94.6172 93.0397 95.0115 94.2209 95.0115C96.0799 95.0115 97.3382 94.0249 97.9959 92.0518H99.6016C98.6956 94.9612 96.8869 96.4158 94.1755 96.4158C92.283 96.4158 90.8182 95.7413 89.7813 94.3924C88.8787 93.1944 88.4273 91.6408 88.4273 89.7314C88.4273 87.5435 89.0196 85.8171 90.2042 84.552C91.2377 83.4681 92.5531 82.9262 94.1504 82.9262C95.9423 82.9262 97.3315 83.5755 98.3181 84.8741C99.1905 86.0083 99.6268 87.4965 99.6268 89.3388C99.6268 89.4529 99.6184 89.6492 99.6016 89.9277ZM90.1035 88.6492H97.9708C97.907 87.3002 97.5379 86.2432 96.8634 85.4781C96.1889 84.713 95.293 84.3305 94.1755 84.3305C93.0548 84.3305 92.142 84.7047 91.4374 85.453C90.7293 86.2013 90.2847 87.2667 90.1035 88.6492ZM104.263 87.1694H102.586C102.65 84.3406 104.352 82.9262 107.69 82.9262C110.831 82.9262 112.402 84.208 112.402 86.7717V93.9494C112.402 94.5736 112.606 94.8857 113.016 94.8857C113.18 94.8857 113.452 94.78 113.831 94.5686V95.9477C113.321 96.1289 112.893 96.2195 112.548 96.2195C111.397 96.2195 110.821 95.6356 110.821 94.4679V94.1709C109.835 95.6675 108.289 96.4158 106.185 96.4158C104.786 96.4158 103.709 96.0467 102.954 95.3085C102.296 94.6642 101.967 93.8085 101.967 92.7414C101.967 91.5736 102.353 90.6525 103.125 89.978C103.719 89.468 104.674 89.114 105.989 88.916L110.746 88.1559C110.762 88.0385 110.771 87.9227 110.771 87.8086C110.771 86.4261 110.553 85.5016 110.116 85.0352C109.684 84.5654 108.85 84.3305 107.615 84.3305C106.497 84.3305 105.672 84.557 105.138 85.01C104.602 85.463 104.31 86.1828 104.263 87.1694ZM110.821 90.8891V89.4093L106.261 90.2498C104.516 90.5451 103.643 91.3589 103.643 92.6911C103.643 93.4327 103.899 94.0216 104.409 94.4578C104.919 94.8907 105.601 95.1071 106.457 95.1071C108.101 95.1071 109.343 94.4914 110.182 93.2599C110.608 92.6357 110.821 91.8455 110.821 90.8891ZM126.606 83.2684L121.351 88.0804L126.802 96.0685H124.854L120.193 89.0418L117.949 91.0904V96.0685H116.373V78.4112H117.949V89.3136L124.487 83.2684H126.606ZM144.143 80.9279L138.369 96.0685H136.769L130.995 80.7568C131.096 83.8473 131.146 87.0117 131.146 90.2498V96.0685H129.465V78.4112H131.685L137.609 94.1709L143.549 78.4112H145.698V96.0685H144.017V91.3824C144.017 86.6644 144.059 83.1795 144.143 80.9279ZM156.007 96.0685H149.941V78.4112H156.374C159.236 78.4112 161.26 79.3239 162.444 81.1494C163.481 82.7433 164 84.7567 164 87.1895C164 89.7901 163.391 91.9126 162.172 93.5568C161.515 94.4427 160.704 95.0836 159.741 95.4796C158.782 95.8722 157.537 96.0685 156.007 96.0685ZM151.688 79.9162V94.5686H155.614C156.993 94.5686 158.065 94.4192 158.83 94.1206C159.595 93.8253 160.256 93.3085 160.813 92.5703C161.77 91.2549 162.248 89.4781 162.248 87.2398C162.248 84.6929 161.73 82.802 160.693 81.5671C159.773 80.4665 158.302 79.9162 156.278 79.9162H151.688Z" fill="black"/>
</g>
<defs>
<linearGradient id="paint0_linear_202_4362" x1="-1.49622" y1="27.0826" x2="116.247" y2="27.0826" gradientUnits="userSpaceOnUse">
<stop stop-color="#47D9DB"/>
<stop offset="1" stop-color="#15B6B8"/>
</linearGradient>
<linearGradient id="paint1_linear_202_4362" x1="-1.49604" y1="32.8329" x2="116.247" y2="32.8329" gradientUnits="userSpaceOnUse">
<stop stop-color="#47D9DB"/>
<stop offset="1" stop-color="#15B6B8"/>
</linearGradient>
<linearGradient id="paint2_linear_202_4362" x1="-1.49632" y1="32.6811" x2="116.247" y2="32.6811" gradientUnits="userSpaceOnUse">
<stop stop-color="#47D9DB"/>
<stop offset="1" stop-color="#15B6B8"/>
</linearGradient>
<linearGradient id="paint3_linear_202_4362" x1="-1.49614" y1="9.22923" x2="116.247" y2="9.22923" gradientUnits="userSpaceOnUse">
<stop stop-color="#47D9DB"/>
<stop offset="1" stop-color="#15B6B8"/>
</linearGradient>
<linearGradient id="paint4_linear_202_4362" x1="-1.49585" y1="24.5107" x2="116.247" y2="24.5107" gradientUnits="userSpaceOnUse">
<stop stop-color="#47D9DB"/>
<stop offset="1" stop-color="#15B6B8"/>
</linearGradient>
<linearGradient id="paint5_linear_202_4362" x1="-1.49635" y1="24.8134" x2="116.247" y2="24.8134" gradientUnits="userSpaceOnUse">
<stop stop-color="#47D9DB"/>
<stop offset="1" stop-color="#15B6B8"/>
</linearGradient>
<linearGradient id="paint6_linear_202_4362" x1="-1.49655" y1="3.93341" x2="116.246" y2="3.93341" gradientUnits="userSpaceOnUse">
<stop stop-color="#47D9DB"/>
<stop offset="1" stop-color="#15B6B8"/>
</linearGradient>
<linearGradient id="paint7_linear_202_4362" x1="-1.49659" y1="15.7349" x2="116.246" y2="15.7349" gradientUnits="userSpaceOnUse">
<stop stop-color="#47D9DB"/>
<stop offset="1" stop-color="#15B6B8"/>
</linearGradient>
<linearGradient id="paint8_linear_202_4362" x1="-1.49607" y1="35.102" x2="116.247" y2="35.102" gradientUnits="userSpaceOnUse">
<stop stop-color="#47D9DB"/>
<stop offset="1" stop-color="#15B6B8"/>
</linearGradient>
<linearGradient id="paint9_linear_202_4362" x1="-1.49655" y1="35.102" x2="116.246" y2="35.102" gradientUnits="userSpaceOnUse">
<stop stop-color="#47D9DB"/>
<stop offset="1" stop-color="#15B6B8"/>
</linearGradient>
<linearGradient id="paint10_linear_202_4362" x1="-1.49617" y1="63.5477" x2="116.247" y2="63.5477" gradientUnits="userSpaceOnUse">
<stop stop-color="#47D9DB"/>
<stop offset="1" stop-color="#15B6B8"/>
</linearGradient>
<linearGradient id="paint11_linear_202_4362" x1="-1.4959" y1="50.989" x2="116.247" y2="50.989" gradientUnits="userSpaceOnUse">
<stop stop-color="#47D9DB"/>
<stop offset="1" stop-color="#15B6B8"/>
</linearGradient>
<linearGradient id="paint12_linear_202_4362" x1="-1.49606" y1="47.0553" x2="116.247" y2="47.0553" gradientUnits="userSpaceOnUse">
<stop stop-color="#47D9DB"/>
<stop offset="1" stop-color="#15B6B8"/>
</linearGradient>
<linearGradient id="paint13_linear_202_4362" x1="-1.49588" y1="42.6674" x2="116.247" y2="42.6674" gradientUnits="userSpaceOnUse">
<stop stop-color="#47D9DB"/>
<stop offset="1" stop-color="#15B6B8"/>
</linearGradient>
<linearGradient id="paint14_linear_202_4362" x1="-1.49572" y1="40.5494" x2="116.247" y2="40.5494" gradientUnits="userSpaceOnUse">
<stop stop-color="#47D9DB"/>
<stop offset="1" stop-color="#15B6B8"/>
</linearGradient>
<linearGradient id="paint15_linear_202_4362" x1="-1.49641" y1="36.3126" x2="116.247" y2="36.3126" gradientUnits="userSpaceOnUse">
<stop stop-color="#47D9DB"/>
<stop offset="1" stop-color="#15B6B8"/>
</linearGradient>
<linearGradient id="paint16_linear_202_4362" x1="-1.49611" y1="46.6769" x2="116.247" y2="46.6769" gradientUnits="userSpaceOnUse">
<stop stop-color="#47D9DB"/>
<stop offset="1" stop-color="#15B6B8"/>
</linearGradient>
<linearGradient id="paint17_linear_202_4362" x1="-1.49631" y1="18.2249" x2="116.247" y2="18.2249" gradientUnits="userSpaceOnUse">
<stop stop-color="#47D9DB"/>
<stop offset="1" stop-color="#15B6B8"/>
</linearGradient>
<linearGradient id="paint18_linear_202_4362" x1="-1.49674" y1="24.0565" x2="116.246" y2="24.0565" gradientUnits="userSpaceOnUse">
<stop stop-color="#47D9DB"/>
<stop offset="1" stop-color="#15B6B8"/>
</linearGradient>
<linearGradient id="paint19_linear_202_4362" x1="-1.49564" y1="21.3331" x2="116.247" y2="21.3331" gradientUnits="userSpaceOnUse">
<stop stop-color="#47D9DB"/>
<stop offset="1" stop-color="#15B6B8"/>
</linearGradient>
<linearGradient id="paint20_linear_202_4362" x1="-1.49572" y1="14.5246" x2="116.247" y2="14.5246" gradientUnits="userSpaceOnUse">
<stop stop-color="#47D9DB"/>
<stop offset="1" stop-color="#15B6B8"/>
</linearGradient>
<linearGradient id="paint21_linear_202_4362" x1="-1.49604" y1="4.69012" x2="116.247" y2="4.69012" gradientUnits="userSpaceOnUse">
<stop stop-color="#47D9DB"/>
<stop offset="1" stop-color="#15B6B8"/>
</linearGradient>
<linearGradient id="paint22_linear_202_4362" x1="-1.49564" y1="92.7496" x2="116.247" y2="92.7496" gradientUnits="userSpaceOnUse">
<stop stop-color="#47D9DB"/>
<stop offset="1" stop-color="#15B6B8"/>
</linearGradient>
<linearGradient id="paint23_linear_202_4362" x1="-1.49638" y1="76.9378" x2="116.247" y2="76.9378" gradientUnits="userSpaceOnUse">
<stop stop-color="#47D9DB"/>
<stop offset="1" stop-color="#15B6B8"/>
</linearGradient>
<linearGradient id="paint24_linear_202_4362" x1="-1.49641" y1="69.7503" x2="116.246" y2="69.7503" gradientUnits="userSpaceOnUse">
<stop stop-color="#47D9DB"/>
<stop offset="1" stop-color="#15B6B8"/>
</linearGradient>
<linearGradient id="paint25_linear_202_4362" x1="-1.49659" y1="57.0408" x2="116.246" y2="57.0408" gradientUnits="userSpaceOnUse">
<stop stop-color="#47D9DB"/>
<stop offset="1" stop-color="#15B6B8"/>
</linearGradient>
<linearGradient id="paint26_linear_202_4362" x1="-1.49597" y1="45.5417" x2="116.247" y2="45.5417" gradientUnits="userSpaceOnUse">
<stop stop-color="#47D9DB"/>
<stop offset="1" stop-color="#15B6B8"/>
</linearGradient>
<clipPath id="clip0_202_4362">
<rect width="115.769" height="95.3282" fill="white"/>
</clipPath>
<clipPath id="clip1_202_4362">
<rect width="105.612" height="22.122" fill="white" transform="translate(58.3877 78.0186)"/>
</clipPath>
</defs>
</svg>
