<svg width="13" height="13" viewBox="0 0 13 13" fill="none" xmlns="http://www.w3.org/2000/svg">
<path d="M12.6063 9.16741C12.7938 9.35491 12.8876 9.58259 12.8876 9.85045C12.8876 10.1183 12.7938 10.346 12.6063 10.5335L11.2402 11.8996C11.0527 12.0871 10.8251 12.1808 10.5572 12.1808C10.2893 12.1808 10.0617 12.0871 9.87416 11.8996L6.92104 8.94643L3.96791 11.8996C3.78041 12.0871 3.55273 12.1808 3.28488 12.1808C3.01702 12.1808 2.78934 12.0871 2.60184 11.8996L1.23577 10.5335C1.04827 10.346 0.95452 10.1183 0.95452 9.85045C0.95452 9.58259 1.04827 9.35491 1.23577 9.16741L4.1889 6.21429L1.23577 3.26116C1.04827 3.07366 0.95452 2.84598 0.95452 2.57812C0.95452 2.31027 1.04827 2.08259 1.23577 1.89509L2.60184 0.529017C2.78934 0.341517 3.01702 0.247767 3.28488 0.247767C3.55273 0.247767 3.78041 0.341517 3.96791 0.529017L6.92104 3.48214L9.87416 0.529017C10.0617 0.341517 10.2893 0.247767 10.5572 0.247767C10.8251 0.247767 11.0527 0.341517 11.2402 0.529017L12.6063 1.89509C12.7938 2.08259 12.8876 2.31027 12.8876 2.57812C12.8876 2.84598 12.7938 3.07366 12.6063 3.26116L9.65318 6.21429L12.6063 9.16741Z" fill="#232B43"/>
</svg>
