<svg width="13" height="13" viewBox="0 0 13 13" fill="none" xmlns="http://www.w3.org/2000/svg">
<g clip-path="url(#clip0_233_2)">
<path d="M12.6069 9.16769C12.7944 9.35519 12.8882 9.58287 12.8882 9.85073C12.8882 10.1186 12.7944 10.3463 12.6069 10.5338L11.2408 11.8999C11.0533 12.0874 10.8257 12.1811 10.5578 12.1811C10.2899 12.1811 10.0623 12.0874 9.87472 11.8999L6.9216 8.94671L3.96847 11.8999C3.78097 12.0874 3.55329 12.1811 3.28544 12.1811C3.01758 12.1811 2.7899 12.0874 2.6024 11.8999L1.23633 10.5338C1.04883 10.3463 0.955078 10.1186 0.955078 9.85073C0.955078 9.58287 1.04883 9.35519 1.23633 9.16769L4.18946 6.21457L1.23633 3.26144C1.04883 3.07394 0.955078 2.84626 0.955078 2.5784C0.955078 2.31055 1.04883 2.08287 1.23633 1.89537L2.6024 0.529297C2.7899 0.341797 3.01758 0.248047 3.28544 0.248047C3.55329 0.248047 3.78097 0.341797 3.96847 0.529297L6.9216 3.48242L9.87472 0.529297C10.0623 0.341797 10.2899 0.248047 10.5578 0.248047C10.8257 0.248047 11.0533 0.341797 11.2408 0.529297L12.6069 1.89537C12.7944 2.08287 12.8882 2.31055 12.8882 2.5784C12.8882 2.84626 12.7944 3.07394 12.6069 3.26144L9.65374 6.21457L12.6069 9.16769Z" fill="white"/>
</g>
<defs>
<clipPath id="clip0_233_2">
<rect width="13" height="13" fill="white"/>
</clipPath>
</defs>
</svg>
