<svg width="16" height="11" viewBox="0 0 16 11" fill="none" xmlns="http://www.w3.org/2000/svg">
<path d="M15.92 4.62409C15.8724 4.50134 15.801 4.3892 15.71 4.29409L11.71 0.294092C11.6168 0.200853 11.5061 0.126893 11.3842 0.0764322C11.2624 0.0259719 11.1319 0 11 0C10.7337 0 10.4783 0.105788 10.29 0.294092C10.1017 0.482395 9.99591 0.73779 9.99591 1.00409C9.99591 1.27039 10.1017 1.52579 10.29 1.71409L12.59 4.00409H1C0.734784 4.00409 0.48043 4.10945 0.292893 4.29699C0.105357 4.48452 0 4.73888 0 5.00409C0 5.26931 0.105357 5.52366 0.292893 5.7112C0.48043 5.89873 0.734784 6.00409 1 6.00409H12.59L10.29 8.29409C10.1963 8.38706 10.1219 8.49765 10.0711 8.61951C10.0203 8.74137 9.9942 8.87208 9.9942 9.00409C9.9942 9.1361 10.0203 9.26681 10.0711 9.38867C10.1219 9.51053 10.1963 9.62113 10.29 9.71409C10.383 9.80782 10.4936 9.88221 10.6154 9.93298C10.7373 9.98375 10.868 10.0099 11 10.0099C11.132 10.0099 11.2627 9.98375 11.3846 9.93298C11.5064 9.88221 11.617 9.80782 11.71 9.71409L15.71 5.71409C15.801 5.61899 15.8724 5.50684 15.92 5.38409C16.02 5.14063 16.02 4.86755 15.92 4.62409Z" fill="white"/>
</svg>
