<svg width="512" height="512" viewBox="0 0 512 512" fill="none" xmlns="http://www.w3.org/2000/svg">
<path d="M398.23 236.022L170.384 8.17945C165.114 2.90547 158.079 0 150.578 0C143.077 0 136.042 2.90547 130.773 8.17945L113.993 24.9546C103.075 35.8855 103.075 53.6513 113.993 64.5656L305.322 255.894L113.781 447.434C108.511 452.708 105.602 459.739 105.602 467.236C105.602 474.741 108.511 481.771 113.781 487.05L130.56 503.821C135.834 509.095 142.865 512 150.366 512C157.867 512 164.902 509.095 170.171 503.821L398.23 275.77C403.512 270.479 406.414 263.416 406.397 255.906C406.414 248.368 403.512 241.308 398.23 236.022Z" fill="#15B6B8"/>
</svg>
