<svg width="24" height="24" viewBox="0 0 24 24" fill="none" xmlns="http://www.w3.org/2000/svg">
<path d="M9.1703 12.7103L13.4103 16.9503C13.5033 17.044 13.6139 17.1184 13.7357 17.1692C13.8576 17.22 13.9883 17.2461 14.1203 17.2461C14.2523 17.2461 14.383 17.22 14.5049 17.1692C14.6267 17.1184 14.7373 17.044 14.8303 16.9503C15.0166 16.7629 15.1211 16.5095 15.1211 16.2453C15.1211 15.9811 15.0166 15.7277 14.8303 15.5403L11.2903 12.0003L14.8303 8.4603C15.0166 8.27293 15.1211 8.01948 15.1211 7.75529C15.1211 7.49111 15.0166 7.23766 14.8303 7.05029C14.7369 6.95761 14.626 6.88429 14.5042 6.83452C14.3824 6.78476 14.2519 6.75954 14.1203 6.7603C13.9887 6.75954 13.8582 6.78476 13.7364 6.83452C13.6146 6.88429 13.5037 6.95761 13.4103 7.0503L9.1703 11.2903C9.07657 11.3833 9.00218 11.4939 8.95141 11.6157C8.90064 11.7376 8.8745 11.8683 8.8745 12.0003C8.8745 12.1323 8.90064 12.263 8.95141 12.3849C9.00218 12.5067 9.07657 12.6173 9.1703 12.7103Z" fill="white"/>
</svg>
