<svg width="24" height="24" viewBox="0 0 24 24" fill="none" xmlns="http://www.w3.org/2000/svg">
<path d="M9.1708 12.7098L13.4108 16.9498C13.5038 17.0435 13.6144 17.1179 13.7362 17.1687C13.8581 17.2195 13.9888 17.2456 14.1208 17.2456C14.2528 17.2456 14.3835 17.2195 14.5054 17.1687C14.6272 17.1179 14.7378 17.0435 14.8308 16.9498C15.0171 16.7624 15.1216 16.509 15.1216 16.2448C15.1216 15.9806 15.0171 15.7272 14.8308 15.5398L11.2908 11.9998L14.8308 8.45978C15.0171 8.27241 15.1216 8.01896 15.1216 7.75477C15.1216 7.49059 15.0171 7.23714 14.8308 7.04977C14.7374 6.95709 14.6265 6.88377 14.5047 6.834C14.3829 6.78424 14.2524 6.75902 14.1208 6.75978C13.9892 6.75902 13.8587 6.78424 13.7369 6.834C13.6151 6.88377 13.5042 6.95709 13.4108 7.04978L9.1708 11.2898C9.07707 11.3828 9.00268 11.4934 8.95191 11.6152C8.90114 11.7371 8.875 11.8678 8.875 11.9998C8.875 12.1318 8.90114 12.2625 8.95191 12.3844C9.00268 12.5062 9.07707 12.6168 9.1708 12.7098Z" fill="#15B6B8"/>
</svg>
