<svg width="24" height="24" viewBox="0 0 24 24" fill="none" xmlns="http://www.w3.org/2000/svg">
<path d="M11.2897 9.1703L7.0497 13.4103C6.95598 13.5033 6.88158 13.6139 6.83081 13.7357C6.78004 13.8576 6.75391 13.9883 6.75391 14.1203C6.75391 14.2523 6.78004 14.383 6.83081 14.5049C6.88158 14.6267 6.95598 14.7373 7.0497 14.8303C7.23707 15.0166 7.49052 15.1211 7.7547 15.1211C8.01889 15.1211 8.27234 15.0166 8.4597 14.8303L11.9997 11.2903L15.5397 14.8303C15.7271 15.0166 15.9805 15.1211 16.2447 15.1211C16.5089 15.1211 16.7623 15.0166 16.9497 14.8303C17.0424 14.7369 17.1157 14.626 17.1655 14.5042C17.2152 14.3824 17.2405 14.2519 17.2397 14.1203C17.2405 13.9887 17.2152 13.8582 17.1655 13.7364C17.1157 13.6146 17.0424 13.5037 16.9497 13.4103L12.7097 9.1703C12.6167 9.07657 12.5061 9.00218 12.3843 8.95141C12.2624 8.90064 12.1317 8.8745 11.9997 8.8745C11.8677 8.8745 11.737 8.90064 11.6151 8.95141C11.4933 9.00218 11.3827 9.07657 11.2897 9.1703Z" fill="white"/>
</svg>
