<svg width="56" height="56" viewBox="0 0 56 56" fill="none" xmlns="http://www.w3.org/2000/svg">
<path d="M43.2595 21L20.7195 8.07331C19.4999 7.36902 18.1155 7.00007 16.7071 7.00394C15.2987 7.0078 13.9164 7.38435 12.7006 8.09534C11.4848 8.80632 10.4789 9.82641 9.78493 11.052C9.09097 12.2776 8.73374 13.665 8.74952 15.0733V41.02C8.74952 43.1364 9.59027 45.1661 11.0868 46.6627C12.5834 48.1592 14.6131 49 16.7295 49C18.1305 48.9976 19.5064 48.6275 20.7195 47.9266L43.2595 35C44.4707 34.299 45.4762 33.2919 46.1752 32.0797C46.8743 30.8674 47.2422 29.4927 47.2422 28.0933C47.2422 26.694 46.8743 25.3192 46.1752 24.107C45.4762 22.8947 44.4707 21.8876 43.2595 21.1866V21ZM40.9262 30.7766L18.3862 43.89C17.881 44.1763 17.3102 44.3268 16.7295 44.3268C16.1488 44.3268 15.5781 44.1763 15.0729 43.89C14.5691 43.5991 14.1508 43.1808 13.86 42.677C13.5691 42.1732 13.4161 41.6017 13.4162 41.02V14.98C13.4161 14.3983 13.5691 13.8268 13.86 13.323C14.1508 12.8192 14.5691 12.4008 15.0729 12.11C15.5801 11.828 16.1492 11.6757 16.7295 11.6666C17.3094 11.6785 17.8778 11.8307 18.3862 12.11L40.9262 25.13C41.4302 25.4207 41.8487 25.839 42.1397 26.3428C42.4306 26.8466 42.5838 27.4182 42.5838 28C42.5838 28.5818 42.4306 29.1533 42.1397 29.6571C41.8487 30.1609 41.4302 30.5792 40.9262 30.87V30.7766Z" fill="white"/>
</svg>
