<svg width="14" height="14" viewBox="0 0 14 14" fill="none" xmlns="http://www.w3.org/2000/svg">
<path d="M4.80634 4.14026L6.33301 2.60692V9.00026C6.33301 9.17707 6.40325 9.34664 6.52827 9.47166C6.65329 9.59669 6.82286 9.66692 6.99967 9.66692C7.17649 9.66692 7.34605 9.59669 7.47108 9.47166C7.5961 9.34664 7.66634 9.17707 7.66634 9.00026V2.60692L9.19301 4.14026C9.25498 4.20274 9.32872 4.25234 9.40996 4.28618C9.4912 4.32003 9.57833 4.33746 9.66634 4.33746C9.75435 4.33746 9.84149 4.32003 9.92272 4.28618C10.004 4.25234 10.0777 4.20274 10.1397 4.14026C10.2022 4.07828 10.2518 4.00455 10.2856 3.92331C10.3194 3.84207 10.3369 3.75493 10.3369 3.66692C10.3369 3.57892 10.3194 3.49178 10.2856 3.41054C10.2518 3.3293 10.2022 3.25557 10.1397 3.19359L7.47301 0.526923C7.40961 0.466229 7.33484 0.418653 7.25301 0.386923C7.0907 0.320244 6.90865 0.320244 6.74634 0.386923C6.66451 0.418653 6.58974 0.466229 6.52634 0.526923L3.85967 3.19359C3.79752 3.25575 3.74821 3.32954 3.71457 3.41076C3.68093 3.49197 3.66361 3.57902 3.66361 3.66692C3.66361 3.75483 3.68093 3.84187 3.71457 3.92309C3.74821 4.0043 3.79752 4.0781 3.85967 4.14026C3.92183 4.20242 3.99563 4.25172 4.07684 4.28536C4.15806 4.319 4.2451 4.33632 4.33301 4.33632C4.42091 4.33632 4.50796 4.319 4.58917 4.28536C4.67039 4.25172 4.74418 4.20242 4.80634 4.14026ZM12.9997 8.33359C12.8229 8.33359 12.6533 8.40383 12.5283 8.52885C12.4032 8.65388 12.333 8.82345 12.333 9.00026V11.6669C12.333 11.8437 12.2628 12.0133 12.1377 12.1383C12.0127 12.2634 11.8432 12.3336 11.6663 12.3336H2.33301C2.1562 12.3336 1.98663 12.2634 1.8616 12.1383C1.73658 12.0133 1.66634 11.8437 1.66634 11.6669V9.00026C1.66634 8.82345 1.5961 8.65388 1.47108 8.52885C1.34605 8.40383 1.17649 8.33359 0.999674 8.33359C0.822863 8.33359 0.653294 8.40383 0.52827 8.52885C0.403246 8.65388 0.333008 8.82345 0.333008 9.00026V11.6669C0.333008 12.1974 0.543722 12.7061 0.918794 13.0811C1.29387 13.4562 1.80257 13.6669 2.33301 13.6669H11.6663C12.1968 13.6669 12.7055 13.4562 13.0806 13.0811C13.4556 12.7061 13.6663 12.1974 13.6663 11.6669V9.00026C13.6663 8.82345 13.5961 8.65388 13.4711 8.52885C13.3461 8.40383 13.1765 8.33359 12.9997 8.33359Z" fill="white"/>
</svg>
