<svg width="75" height="70" viewBox="0 0 75 70" fill="none" xmlns="http://www.w3.org/2000/svg">
<path d="M64.9554 69.9256H10.044C9.4127 69.9256 8.90479 69.4177 8.90479 68.7864V33.8497C8.90479 33.2184 9.4127 32.7104 10.044 32.7104C10.6754 32.7104 11.1833 33.2184 11.1833 33.8497V67.6472H63.8162V33.8497C63.8162 33.2184 64.3241 32.7104 64.9554 32.7104C65.5868 32.7104 66.0947 33.2184 66.0947 33.8497V68.7864C66.0947 69.4177 65.582 69.9256 64.9554 69.9256Z" fill="#345A84"/>
<path d="M70.4333 38.663C69.6501 38.663 68.8953 38.4019 68.2687 37.9082L37.4998 13.6994L6.73078 37.9082C5.20704 39.1044 2.99502 38.8433 1.79881 37.3196C1.2197 36.5839 0.958623 35.663 1.07255 34.7326C1.18172 33.8022 1.65166 32.9668 2.38742 32.3876L36.7972 5.31645C37.2102 4.98892 37.7941 4.98892 38.207 5.31645L72.6169 32.3876C74.1406 33.5839 74.4017 35.7959 73.2055 37.3196C72.6263 38.0554 71.7909 38.5253 70.8605 38.6345C70.7181 38.6535 70.5757 38.663 70.4333 38.663ZM37.4998 11.1123C37.7466 11.1123 37.9982 11.193 38.2023 11.3544L69.6786 36.1139C69.9396 36.318 70.2624 36.4082 70.59 36.3702C70.9175 36.3323 71.2118 36.1661 71.4159 35.9098C71.8384 35.3734 71.7434 34.5949 71.207 34.1772L37.4998 7.66139L3.79248 34.1772C3.53141 34.3813 3.37002 34.6756 3.33204 35.0032C3.29407 35.3307 3.38426 35.6535 3.58837 35.9145C4.01084 36.4509 4.78457 36.5411 5.32096 36.1234L36.7972 11.3639C37.0013 11.193 37.2529 11.1123 37.4998 11.1123Z" fill="#345A84"/>
<path d="M59.0742 24.3228C58.4429 24.3228 57.935 23.8149 57.935 23.1836V10.0871H52.2862V16.9463C52.2862 17.5776 51.7783 18.0855 51.147 18.0855C50.5157 18.0855 50.0077 17.5776 50.0077 16.9463V8.94783C50.0077 8.31651 50.5157 7.80859 51.147 7.80859H59.0742C59.7055 7.80859 60.2134 8.31651 60.2134 8.94783V23.1836C60.2134 23.8149 59.7055 24.3228 59.0742 24.3228ZM52.4286 69.9257H22.571C21.9445 69.9257 21.4318 69.4178 21.4318 68.7912C21.4271 66.4225 21.522 60.508 22.5948 56.682C22.8843 55.6425 23.2403 54.7928 23.7103 54.0048C24.109 53.3402 25.253 51.6646 27.3084 50.5111C29.2071 49.4431 31.0299 49.2817 32.2214 49.3387C32.4445 49.3482 32.6581 49.4241 32.8384 49.557L37.3717 52.8656L42.1707 49.5428C42.3464 49.4194 42.5552 49.3529 42.7688 49.3434C43.9603 49.2864 45.7831 49.4478 47.6818 50.5159C49.7372 51.6741 50.8859 53.345 51.2799 54.0095C51.7498 54.7975 52.1059 55.6472 52.3954 56.6868C53.4682 60.5127 53.5679 66.432 53.5584 68.7959C53.5679 69.4178 53.0552 69.9257 52.4286 69.9257ZM37.4619 67.6472H51.2846C51.2514 65.1551 51.071 60.3703 50.2119 57.2944C49.9745 56.4447 49.704 55.7896 49.3337 55.1725C49.0299 54.6646 48.1517 53.383 46.571 52.4953C45.2989 51.7785 44.079 51.6076 43.196 51.6029L38.0125 55.1915C37.6138 55.4668 37.0821 55.4621 36.6929 55.1773L31.7941 51.6029C30.9112 51.6076 29.696 51.7833 28.4334 52.4953C26.8527 53.383 25.9745 54.6646 25.6707 55.1725C25.3005 55.7896 25.0299 56.4447 24.7926 57.2991C23.9334 60.3703 23.753 65.1599 23.7198 67.6519L37.4619 67.6472Z" fill="#345A84"/>
<path d="M28.8604 69.9256C28.2291 69.9256 27.7212 69.4177 27.7212 68.7864V60.4034C27.7212 59.7721 28.2291 59.2642 28.8604 59.2642C29.4918 59.2642 29.9997 59.7721 29.9997 60.4034V68.7864C29.9997 69.4177 29.4918 69.9256 28.8604 69.9256ZM46.1389 69.9256C45.5076 69.9256 44.9997 69.4177 44.9997 68.7864V60.4034C44.9997 59.7721 45.5076 59.2642 46.1389 59.2642C46.7702 59.2642 47.2782 59.7721 47.2782 60.4034V68.7864C47.2782 69.4177 46.7655 69.9256 46.1389 69.9256ZM37.5424 49.9841C35.3826 49.9841 33.3557 49.0585 31.8414 47.3829C30.3557 45.7357 29.5345 43.5569 29.5345 41.2405V38.0221C29.5345 37.5379 29.843 37.106 30.3035 36.9446C30.6737 36.8164 31.7655 36.337 32.3494 35.6867C32.7576 35.2357 33.4269 35.174 33.8968 35.5538C33.9585 35.5965 34.756 36.1756 36.1231 36.4604C38.0171 36.8639 40.0677 36.5553 42.2133 35.5443C42.6595 35.3354 43.1864 35.4351 43.5282 35.7911C43.7465 36.019 44.4395 36.693 45.0187 37.049C45.3557 37.2579 45.5598 37.6234 45.5598 38.0174V41.231C45.5598 43.5474 44.7386 45.7262 43.2528 47.3734C41.7291 49.0585 39.7022 49.9841 37.5424 49.9841ZM31.8082 38.7816V41.2357C31.8082 44.8006 34.381 47.7009 37.5376 47.7009C40.6943 47.7009 43.2671 44.8006 43.2671 41.2357V38.6202C42.9633 38.3876 42.6785 38.1455 42.4459 37.9319C38.0076 39.7547 34.7702 38.6297 33.3225 37.8702C32.8003 38.2737 32.2449 38.5775 31.8082 38.7816Z" fill="#345A84"/>
<path d="M30.6741 39.1661C30.2326 39.1661 29.8149 38.9098 29.6297 38.4778C29.2405 37.5759 29.1788 36.6265 29.1266 35.7911C29.0839 35.1075 29.0316 34.2579 29.231 33.4177C29.4066 32.6724 29.8386 31.8892 30.5506 31.0205C30.6598 30.8876 30.7785 30.7547 30.8972 30.6265C32.7959 28.5949 35.9051 27.8022 36.5079 27.6598C37.6899 27.3892 38.8244 27.2895 39.8782 27.3702C40.6187 27.4272 41.25 27.5316 41.8006 27.6882C42.6028 27.9113 43.2294 28.3481 43.6187 28.9509C43.8133 29.2499 43.9225 29.5443 44.0222 29.8006C44.0981 29.9952 44.1693 30.1851 44.2405 30.2658C44.3639 30.4082 44.5396 30.5506 44.7389 30.7072C44.981 30.8971 45.2563 31.1155 45.5127 31.405C46.1203 32.0886 46.8038 33.2373 46.913 34.405C47.0127 35.5015 46.5902 36.4367 46.2057 37.1344C46.1962 37.1534 46.1725 37.1914 46.144 37.2531C45.4984 38.4968 45.3608 38.6914 45.1709 38.8623C44.7057 39.2848 43.9842 39.2563 43.5617 38.7911C43.1677 38.3639 43.1677 37.7136 43.5332 37.2816C43.5902 37.1914 43.7373 36.9398 44.1171 36.2041C44.1598 36.1186 44.193 36.0617 44.2025 36.0427C44.5396 35.4303 44.6725 34.9889 44.6392 34.6139C44.5965 34.1297 44.2453 33.4129 43.8038 32.9193C43.6804 32.7816 43.5142 32.6487 43.3244 32.4968C43.0633 32.2927 42.769 32.0553 42.4984 31.7373C42.1804 31.3575 42.019 30.9493 41.8956 30.6218C41.8291 30.4509 41.7674 30.2895 41.701 30.1898C41.5918 30.0189 41.326 29.924 41.1788 29.8813C40.7706 29.7674 40.2816 29.6867 39.693 29.6439C38.8671 29.5822 37.9652 29.6582 37.0063 29.8813C35.6535 30.1946 33.6693 30.9825 32.5491 32.1835C32.4636 32.2737 32.3829 32.3686 32.3022 32.4636C31.7041 33.1946 31.5 33.674 31.4335 33.9446C31.3101 34.4572 31.3529 35.0886 31.3861 35.6487C31.4288 36.3322 31.4715 37.0348 31.7041 37.5712C31.9557 38.1503 31.6899 38.8196 31.1108 39.0711C30.9779 39.1329 30.8212 39.1661 30.6741 39.1661ZM33.4082 52.5094C33.2468 52.5094 33.0807 52.4762 32.9241 52.4003C32.3544 52.1344 32.1076 51.4556 32.3782 50.886C32.5633 50.492 32.8766 49.6993 32.9003 48.8496C32.9098 48.5316 32.8718 48.4082 32.7959 48.1329C32.7769 48.0712 32.7579 48.0047 32.7437 47.9335C32.587 47.3259 32.9478 46.7041 33.5601 46.5427C34.1677 46.3813 34.7896 46.7468 34.951 47.3591C34.9652 47.4161 34.9794 47.4731 34.9984 47.5253C35.0934 47.867 35.1978 48.2515 35.1835 48.9066C35.1503 50.1075 34.7658 51.1708 34.4478 51.8496C34.2484 52.2674 33.8354 52.5094 33.4082 52.5094ZM41.5158 52.5189C41.1028 52.5189 40.7041 52.2911 40.5 51.9018C39.9684 50.867 39.6741 49.7848 39.6503 48.7689C39.6361 48.2515 39.7025 47.905 39.769 47.6344C39.8829 47.1265 40.3386 46.7468 40.8797 46.7468C41.5111 46.7468 42.019 47.2547 42.019 47.886C42.019 47.981 42.0095 48.0759 41.9858 48.1661C41.9525 48.3037 41.9241 48.4367 41.9288 48.7072C41.9525 49.5617 42.2658 50.3449 42.5316 50.8575C42.8212 51.4177 42.5981 52.106 42.038 52.3908C41.8718 52.4762 41.6915 52.5189 41.5158 52.5189Z" fill="#345A84"/>
</svg>
