<svg width="72" height="64" viewBox="0 0 72 64" fill="none" xmlns="http://www.w3.org/2000/svg">
<path d="M52.5968 22.6416H9.51635C8.83695 22.6416 8.28662 22.1208 8.28662 21.4777C8.28662 20.8347 8.83695 20.3138 9.51635 20.3138H52.5967C53.2761 20.3138 53.8264 20.8347 53.8264 21.4777C53.8264 22.1208 53.2761 22.6416 52.5968 22.6416Z" fill="#345A84"/>
<path d="M55.3761 63.9998H9.51635C9.35485 63.9999 9.19493 63.9698 9.04573 63.9113C8.89652 63.8528 8.76095 63.7671 8.64675 63.659C8.53256 63.5509 8.44198 63.4226 8.38019 63.2814C8.31839 63.1402 8.2866 62.9888 8.28662 62.8359V21.4777C8.28662 20.8347 8.83695 20.3138 9.51635 20.3138C10.1957 20.3138 10.7461 20.8347 10.7461 21.4777V61.6719H55.3761C55.5376 61.6719 55.6975 61.702 55.8467 61.7605C55.996 61.819 56.1315 61.9047 56.2457 62.0128C56.3599 62.1209 56.4505 62.2492 56.5123 62.3905C56.5741 62.5317 56.6059 62.6831 56.6058 62.8359C56.6059 62.9888 56.5741 63.1402 56.5123 63.2814C56.4505 63.4226 56.3599 63.5509 56.2457 63.659C56.1315 63.7671 55.996 63.8528 55.8467 63.9113C55.6975 63.9698 55.5376 63.9999 55.3761 63.9998Z" fill="#345A84"/>
<path d="M40.0701 63.9997H24.8222C24.6607 63.9997 24.5008 63.9697 24.3516 63.9112C24.2024 63.8527 24.0668 63.767 23.9526 63.6589C23.8384 63.5508 23.7478 63.4225 23.686 63.2813C23.6242 63.14 23.5924 62.9887 23.5925 62.8358V43.3989C23.5924 43.246 23.6242 43.0947 23.686 42.9534C23.7478 42.8122 23.8384 42.6839 23.9526 42.5758C24.0668 42.4677 24.2024 42.382 24.3516 42.3235C24.5008 42.265 24.6607 42.235 24.8222 42.235H40.0701C40.2316 42.235 40.3915 42.265 40.5407 42.3235C40.6899 42.382 40.8255 42.4677 40.9397 42.5758C41.0539 42.6839 41.1445 42.8122 41.2063 42.9534C41.2681 43.0947 41.2999 43.246 41.2998 43.3989V62.8358C41.2998 63.1445 41.1703 63.4406 40.9396 63.6588C40.709 63.8771 40.3962 63.9997 40.0701 63.9997ZM26.0517 61.6718H38.8401V44.5628H26.0517V61.6718ZM26.276 37.6209H16.0852C15.9237 37.6209 15.7638 37.5908 15.6146 37.5323C15.4654 37.4738 15.3298 37.3881 15.2156 37.28C15.1014 37.1719 15.0108 37.0436 14.949 36.9024C14.8872 36.7612 14.8554 36.6098 14.8555 36.457V27.3961C14.8554 27.2432 14.8872 27.0919 14.949 26.9506C15.0108 26.8094 15.1014 26.6811 15.2156 26.573C15.3298 26.4649 15.4654 26.3792 15.6146 26.3207C15.7638 26.2622 15.9237 26.2321 16.0852 26.2321H26.276C26.4375 26.232 26.5975 26.2621 26.7467 26.3206C26.8959 26.3791 27.0315 26.4649 27.1457 26.573C27.2599 26.6811 27.3505 26.8094 27.4122 26.9506C27.474 27.0919 27.5058 27.2432 27.5058 27.3961V36.457C27.5058 36.6098 27.474 36.7612 27.4122 36.9024C27.3505 37.0436 27.2599 37.172 27.1457 37.28C27.0315 37.3881 26.8959 37.4739 26.7467 37.5323C26.5975 37.5908 26.4375 37.6209 26.276 37.6209ZM17.3149 35.2931H25.0461V28.5601H17.3149V35.2931Z" fill="#345A84"/>
<path d="M20.8718 37.6209C20.7103 37.6209 20.5504 37.5908 20.4012 37.5323C20.252 37.4739 20.1164 37.3881 20.0022 37.28C19.888 37.172 19.7974 37.0436 19.7356 36.9024C19.6738 36.7612 19.642 36.6098 19.6421 36.457V34.7763C19.6421 34.6235 19.6739 34.4721 19.7357 34.3309C19.7974 34.1897 19.888 34.0613 20.0022 33.9533C20.1164 33.8452 20.252 33.7595 20.4012 33.701C20.5504 33.6425 20.7103 33.6124 20.8718 33.6124C21.0333 33.6124 21.1932 33.6425 21.3425 33.7009C21.4917 33.7594 21.6273 33.8451 21.7415 33.9532C21.8557 34.0613 21.9462 34.1896 22.008 34.3309C22.0698 34.4721 22.1016 34.6234 22.1015 34.7763V36.457C22.1016 36.6098 22.0698 36.7612 22.008 36.9024C21.9462 37.0436 21.8557 37.172 21.7415 37.28C21.6273 37.3881 21.4917 37.4739 21.3425 37.5323C21.1932 37.5908 21.0333 37.6209 20.8718 37.6209ZM44.0203 37.6209H38.6161C38.4546 37.6209 38.2946 37.5908 38.1454 37.5323C37.9962 37.4739 37.8606 37.3881 37.7464 37.2801C37.6322 37.172 37.5416 37.0437 37.4798 36.9024C37.418 36.7612 37.3862 36.6098 37.3862 36.457V27.3961C37.3862 27.2432 37.418 27.0918 37.4798 26.9506C37.5416 26.8094 37.6322 26.681 37.7464 26.5729C37.8606 26.4649 37.9962 26.3791 38.1454 26.3206C38.2946 26.2621 38.4546 26.232 38.6161 26.2321H48.8072C48.9688 26.232 49.1287 26.2621 49.2779 26.3206C49.4271 26.3791 49.5627 26.4649 49.6769 26.573C49.7911 26.6811 49.8817 26.8094 49.9435 26.9506C50.0052 27.0919 50.037 27.2432 50.037 27.3961V31.9268C50.037 32.5696 49.4865 33.0906 48.8072 33.0906C48.128 33.0906 47.5775 32.5696 47.5775 31.9268V28.5601H39.846V35.2932H44.0205C44.182 35.2932 44.3419 35.3233 44.4911 35.3817C44.6403 35.4402 44.7759 35.526 44.8901 35.634C45.0043 35.7421 45.0949 35.8704 45.1567 36.0117C45.2184 36.1529 45.2502 36.3043 45.2502 36.4571C45.2502 36.61 45.2184 36.7613 45.1566 36.9025C45.0947 37.0437 45.0041 37.172 44.8899 37.2801C44.7757 37.3882 44.6401 37.4739 44.4909 37.5324C44.3417 37.5908 44.1818 37.6209 44.0203 37.6209Z" fill="#345A84"/>
<path d="M44.0204 37.621C43.8589 37.621 43.699 37.591 43.5498 37.5325C43.4006 37.474 43.265 37.3883 43.1508 37.2802C43.0366 37.1721 42.946 37.0438 42.8842 36.9025C42.8224 36.7613 42.7907 36.61 42.7907 36.4571V34.7764C42.7907 34.1334 43.341 33.6125 44.0204 33.6125C44.6998 33.6125 45.2501 34.1334 45.2501 34.7764V36.4571C45.2502 36.61 45.2184 36.7613 45.1566 36.9025C45.0948 37.0438 45.0043 37.1721 44.8901 37.2802C44.7759 37.3883 44.6403 37.474 44.4911 37.5325C44.3419 37.591 44.1819 37.621 44.0204 37.621ZM34.8071 56.429C34.6456 56.429 34.4857 56.3989 34.3365 56.3404C34.1872 56.282 34.0517 56.1962 33.9375 56.0882C33.8233 55.9801 33.7327 55.8518 33.6709 55.7105C33.6091 55.5693 33.5773 55.418 33.5773 55.2651V50.9694C33.5773 50.8166 33.6091 50.6652 33.6709 50.524C33.7327 50.3828 33.8233 50.2544 33.9375 50.1464C34.0517 50.0383 34.1872 49.9526 34.3365 49.8941C34.4857 49.8356 34.6456 49.8055 34.8071 49.8055C34.9686 49.8055 35.1285 49.8356 35.2777 49.894C35.4269 49.9525 35.5625 50.0382 35.6767 50.1463C35.7909 50.2544 35.8815 50.3827 35.9433 50.524C36.0051 50.6652 36.0368 50.8166 36.0368 50.9694V55.2651C36.0369 55.418 36.0051 55.5694 35.9433 55.7106C35.8815 55.8518 35.791 55.9802 35.6768 56.0882C35.5626 56.1963 35.427 56.2821 35.2777 56.3405C35.1285 56.399 34.9686 56.4291 34.8071 56.429ZM70.656 63.9999H1.22973C1.06823 63.9999 0.908311 63.9698 0.759105 63.9113C0.609898 63.8528 0.474326 63.7671 0.360131 63.659C0.245937 63.5509 0.155357 63.4226 0.0935647 63.2814C0.0317726 63.1402 -2.09726e-05 62.9888 1.03794e-08 62.836C-2.09695e-05 62.6831 0.0317712 62.5318 0.0935613 62.3905C0.155351 62.2493 0.245929 62.121 0.360122 62.0129C0.474314 61.9048 0.609885 61.819 0.759093 61.7605C0.9083 61.702 1.06822 61.6719 1.22973 61.6719H70.656C70.8175 61.6719 70.9774 61.702 71.1267 61.7605C71.2759 61.819 71.4115 61.9047 71.5257 62.0128C71.6398 62.1209 71.7304 62.2493 71.7922 62.3905C71.854 62.5317 71.8858 62.6831 71.8857 62.836C71.8857 62.9888 71.854 63.1402 71.7922 63.2814C71.7304 63.4226 71.6398 63.5509 71.5256 63.659C71.4114 63.7671 71.2758 63.8528 71.1266 63.9113C70.9774 63.9698 70.8175 63.9999 70.656 63.9999ZM51.6632 22.6413H3.08294C2.82372 22.6414 2.57112 22.5639 2.36125 22.4199C2.15138 22.2759 1.99498 22.0727 1.9144 21.8396C1.83368 21.6065 1.83284 21.3553 1.91199 21.1217C1.99115 20.8882 2.14624 20.6843 2.35514 20.5392L31.593 0.22555C31.8041 0.079011 32.059 0 32.3208 0C32.5826 0 32.8375 0.079011 33.0486 0.22555L42.7907 6.99388V4.88957C42.7907 4.73671 42.8224 4.58535 42.8842 4.44412C42.946 4.30289 43.0366 4.17457 43.1508 4.06648C43.265 3.9584 43.4006 3.87267 43.5498 3.81419C43.699 3.75572 43.8589 3.72564 44.0204 3.72568H52.3596C52.5212 3.72564 52.6811 3.75572 52.8303 3.81419C52.9795 3.87267 53.1151 3.9584 53.2293 4.06648C53.3435 4.17457 53.4341 4.30289 53.4958 4.44412C53.5576 4.58535 53.5894 4.73671 53.5894 4.88957V14.4969L58.1177 17.643C58.3806 17.8257 58.556 18.0998 58.6054 18.4049C58.6548 18.71 58.5741 19.0212 58.3811 19.27C57.9795 19.7888 57.2089 19.899 56.6621 19.5194L51.6318 16.0245C51.4762 15.9164 51.3497 15.7752 51.2625 15.6123C51.1752 15.4493 51.1298 15.2692 51.1298 15.0865V6.0536H45.25V9.29217C45.25 9.5073 45.1869 9.71822 45.0679 9.90152C44.9489 10.0848 44.7786 10.2333 44.5759 10.3306C44.3731 10.4279 44.1457 10.4701 43.9191 10.4524C43.6925 10.4347 43.4756 10.3577 43.2925 10.2302L32.3208 2.60745L6.83617 20.3136H51.6632C51.8246 20.3136 51.9846 20.3437 52.1338 20.4022C52.283 20.4607 52.4185 20.5464 52.5327 20.6545C52.6469 20.7625 52.7375 20.8908 52.7993 21.0321C52.8611 21.1733 52.8929 21.3246 52.8929 21.4775C52.8929 21.6303 52.8611 21.7816 52.7993 21.9229C52.7375 22.0641 52.6469 22.1924 52.5327 22.3004C52.4185 22.4085 52.283 22.4943 52.1338 22.5527C51.9846 22.6112 51.8246 22.6413 51.6632 22.6413Z" fill="#345A84"/>
<path d="M63.3232 63.9998H53.5922C53.4307 63.9999 53.2708 63.9698 53.1216 63.9113C52.9724 63.8528 52.8368 63.7671 52.7227 63.659C52.6085 63.5509 52.5179 63.4226 52.4561 63.2814C52.3943 63.1402 52.3625 62.9888 52.3625 62.8359V49.6823H49.1273C48.9658 49.6823 48.8059 49.6522 48.6567 49.5938C48.5074 49.5353 48.3719 49.4496 48.2576 49.3415C48.1434 49.2334 48.0528 49.1051 47.991 48.9638C47.9292 48.8226 47.8974 48.6712 47.8975 48.5184V38.4292C47.8975 35.4099 50.4932 32.9536 53.6833 32.9536H63.2323C66.4224 32.9536 69.0181 35.4099 69.0181 38.4292V48.5184C69.0181 48.6712 68.9863 48.8226 68.9245 48.9638C68.8627 49.1051 68.7721 49.2334 68.6579 49.3415C68.5437 49.4496 68.4081 49.5353 68.2589 49.5938C68.1097 49.6522 67.9497 49.6823 67.7882 49.6823H64.5531V62.8359C64.5531 62.9888 64.5212 63.1402 64.4594 63.2814C64.3976 63.4226 64.307 63.5509 64.1928 63.659C64.0786 63.7671 63.943 63.8528 63.7938 63.9113C63.6446 63.9698 63.4847 63.9999 63.3232 63.9998ZM54.8221 61.6719H62.0935V48.5184C62.0934 48.3655 62.1252 48.2142 62.187 48.0729C62.2488 47.9317 62.3393 47.8034 62.4535 47.6953C62.5677 47.5872 62.7033 47.5015 62.8525 47.443C63.0017 47.3845 63.1617 47.3545 63.3232 47.3545H66.5584V38.4292C66.5584 36.6935 65.0665 35.2814 63.2321 35.2814H53.6831C51.8488 35.2814 50.3569 36.6935 50.3569 38.4292V47.3545H53.5921C53.7536 47.3545 53.9135 47.3845 54.0627 47.443C54.2119 47.5015 54.3475 47.5872 54.4617 47.6953C54.5759 47.8034 54.6665 47.9317 54.7283 48.0729C54.7901 48.2142 54.8219 48.3655 54.8218 48.5184V61.6719H54.8221Z" fill="#345A84"/>
<path d="M58.4579 64C58.2964 64 58.1365 63.9699 57.9873 63.9114C57.8381 63.8529 57.7025 63.7672 57.5883 63.6591C57.4741 63.551 57.3835 63.4227 57.3217 63.2815C57.2599 63.1403 57.2282 62.9889 57.2282 62.8361V50.7816C57.2282 50.1385 57.7785 49.6177 58.4579 49.6177C59.1373 49.6177 59.6876 50.1385 59.6876 50.7816V62.8361C59.6876 62.9889 59.6559 63.1403 59.5941 63.2815C59.5323 63.4227 59.4417 63.551 59.3275 63.6591C59.2133 63.7672 59.0777 63.8529 58.9285 63.9114C58.7793 63.9699 58.6194 64 58.4579 64ZM53.5925 49.6824C53.431 49.6824 53.2711 49.6523 53.1219 49.5939C52.9727 49.5354 52.8371 49.4497 52.7229 49.3416C52.6087 49.2335 52.5181 49.1052 52.4563 48.9639C52.3945 48.8227 52.3628 48.6714 52.3628 48.5185V39.5235C52.3628 38.8805 52.9131 38.3597 53.5925 38.3597C54.2719 38.3597 54.8222 38.8807 54.8222 39.5235V48.5185C54.8223 48.6713 54.7905 48.8227 54.7287 48.9639C54.6669 49.1051 54.5763 49.2335 54.4621 49.3415C54.3479 49.4496 54.2123 49.5353 54.0631 49.5938C53.9139 49.6523 53.754 49.6824 53.5925 49.6824ZM63.3233 49.6824C63.1618 49.6824 63.0019 49.6523 62.8526 49.5939C62.7034 49.5354 62.5678 49.4497 62.4536 49.3416C62.3394 49.2335 62.2489 49.1052 62.1871 48.9639C62.1253 48.8227 62.0935 48.6714 62.0936 48.5185V39.5235C62.0935 39.3707 62.1253 39.2193 62.1871 39.0781C62.2489 38.9369 62.3394 38.8085 62.4536 38.7005C62.5678 38.5924 62.7034 38.5066 62.8526 38.4482C63.0019 38.3897 63.1618 38.3596 63.3233 38.3597C63.4848 38.3596 63.6447 38.3897 63.7939 38.4482C63.9431 38.5067 64.0787 38.5924 64.1929 38.7005C64.3071 38.8086 64.3977 38.9369 64.4594 39.0781C64.5212 39.2193 64.553 39.3707 64.553 39.5235V48.5185C64.5531 48.6714 64.5213 48.8227 64.4595 48.9639C64.3977 49.1052 64.3071 49.2335 64.1929 49.3416C64.0787 49.4497 63.9431 49.5354 63.7939 49.5939C63.6447 49.6523 63.4848 49.6824 63.3233 49.6824ZM58.4579 31.6736C55.6561 31.6736 53.3764 29.5157 53.3764 26.8637C53.3764 24.2119 55.6561 22.0542 58.4579 22.0542C61.2602 22.0542 63.5399 24.2119 63.5399 26.8637C63.5399 29.5157 61.2602 31.6736 58.4579 31.6736ZM58.4579 24.382C57.0119 24.382 55.8358 25.4951 55.8358 26.8637C55.8358 28.2323 57.0119 29.3457 58.4579 29.3457C59.9039 29.3457 61.0805 28.2323 61.0805 26.8637C61.0805 25.4951 59.9039 24.382 58.4579 24.382Z" fill="#345A84"/>
</svg>
