<svg width="117" height="116" viewBox="0 0 117 116" fill="none" xmlns="http://www.w3.org/2000/svg">
<ellipse cx="2.6407" cy="4.24584" rx="2.6407" ry="4.24584" transform="matrix(-0.707107 0.707107 0.707107 0.707107 110.177 106.019)" fill="white"/>
<ellipse cx="2.6407" cy="4.24584" rx="2.6407" ry="4.24584" transform="matrix(-0.707107 0.707107 0.707107 0.707107 57.3906 106.019)" fill="#FF9B17"/>
<ellipse cx="2.6407" cy="4.24584" rx="2.6407" ry="4.24584" transform="matrix(-0.707107 0.707107 0.707107 0.707107 83.7837 106.019)" fill="white"/>
<ellipse cx="2.6407" cy="4.24584" rx="2.6407" ry="4.24584" transform="matrix(-0.707107 0.707107 0.707107 0.707107 30.9971 106.019)" fill="#FF9B17"/>
<ellipse cx="2.6407" cy="4.24584" rx="2.6407" ry="4.24584" transform="matrix(-0.707107 0.707107 0.707107 0.707107 4.604 106.019)" fill="#FF9B17"/>
<ellipse cx="2.6407" cy="4.24584" rx="2.6407" ry="4.24584" transform="matrix(-0.707107 0.707107 0.707107 0.707107 110.177 53.2308)" fill="white"/>
<ellipse cx="2.6407" cy="4.24584" rx="2.6407" ry="4.24584" transform="matrix(-0.707107 0.707107 0.707107 0.707107 57.3911 53.2308)" fill="#FF9B17"/>
<ellipse cx="2.6407" cy="4.24584" rx="2.6407" ry="4.24584" transform="matrix(-0.707107 0.707107 0.707107 0.707107 83.7842 53.231)" fill="white"/>
<ellipse cx="2.6407" cy="4.24584" rx="2.6407" ry="4.24584" transform="matrix(-0.707107 0.707107 0.707107 0.707107 30.9976 53.23)" fill="#FF9B17"/>
<ellipse cx="2.6407" cy="4.24584" rx="2.6407" ry="4.24584" transform="matrix(-0.707107 0.707107 0.707107 0.707107 4.60449 53.23)" fill="#FF9B17"/>
<ellipse cx="2.6407" cy="4.24584" rx="2.6407" ry="4.24584" transform="matrix(-0.707107 0.707107 0.707107 0.707107 110.177 79.625)" fill="white"/>
<ellipse cx="2.6407" cy="4.24584" rx="2.6407" ry="4.24584" transform="matrix(-0.707107 0.707107 0.707107 0.707107 57.3911 79.625)" fill="#FF9B17"/>
<ellipse cx="2.6407" cy="4.24584" rx="2.6407" ry="4.24584" transform="matrix(-0.707107 0.707107 0.707107 0.707107 83.7842 79.6256)" fill="white"/>
<ellipse cx="2.6407" cy="4.24584" rx="2.6407" ry="4.24584" transform="matrix(-0.707107 0.707107 0.707107 0.707107 30.9976 79.6244)" fill="#FF9B17"/>
<ellipse cx="2.6407" cy="4.24584" rx="2.6407" ry="4.24584" transform="matrix(-0.707107 0.707107 0.707107 0.707107 4.60449 79.6244)" fill="#FF9B17"/>
<ellipse cx="2.6407" cy="4.24584" rx="2.6407" ry="4.24584" transform="matrix(-0.707107 0.707107 0.707107 0.707107 110.177 0.441437)" fill="white"/>
<ellipse cx="2.6407" cy="4.24584" rx="2.6407" ry="4.24584" transform="matrix(-0.707107 0.707107 0.707107 0.707107 57.3911 0.442078)" fill="#FF9B17"/>
<ellipse cx="2.6407" cy="4.24584" rx="2.6407" ry="4.24584" transform="matrix(-0.707107 0.707107 0.707107 0.707107 83.7842 0.4422)" fill="white"/>
<ellipse cx="2.6407" cy="4.24584" rx="2.6407" ry="4.24584" transform="matrix(-0.707107 0.707107 0.707107 0.707107 30.9976 0.441071)" fill="#FF9B17"/>
<ellipse cx="2.6407" cy="4.24584" rx="2.6407" ry="4.24584" transform="matrix(-0.707107 0.707107 0.707107 0.707107 4.60449 0.441071)" fill="#FF9B17"/>
<ellipse cx="2.6407" cy="4.24584" rx="2.6407" ry="4.24584" transform="matrix(-0.707107 0.707107 0.707107 0.707107 110.177 26.8361)" fill="white"/>
<ellipse cx="2.6407" cy="4.24584" rx="2.6407" ry="4.24584" transform="matrix(-0.707107 0.707107 0.707107 0.707107 57.3911 26.8364)" fill="#FF9B17"/>
<ellipse cx="2.6407" cy="4.24584" rx="2.6407" ry="4.24584" transform="matrix(-0.707107 0.707107 0.707107 0.707107 83.7842 26.8366)" fill="white"/>
<ellipse cx="2.6407" cy="4.24584" rx="2.6407" ry="4.24584" transform="matrix(-0.707107 0.707107 0.707107 0.707107 30.9976 26.8354)" fill="#FF9B17"/>
<ellipse cx="2.6407" cy="4.24584" rx="2.6407" ry="4.24584" transform="matrix(-0.707107 0.707107 0.707107 0.707107 4.60449 26.8354)" fill="#FF9B17"/>
</svg>
