<svg width="29" height="22" viewBox="0 0 29 22" fill="none" xmlns="http://www.w3.org/2000/svg">
<path d="M28.5323 6.3437H28.3899V1.93065C28.3899 1.33631 27.9064 0.852787 27.3121 0.852787H25.515C25.4314 0.369267 25.0101 0 24.5031 0H21.1509C20.6439 0 20.2225 0.369267 20.139 0.852787H10.3241C10.0657 0.852787 9.85632 1.06221 9.85632 1.32053V3.90328H8.9615V2.52998C8.9615 2.27167 8.75208 2.06224 8.49376 2.06224H2.29805C2.03973 2.06224 1.83031 2.27167 1.83031 2.52998V3.90328H1.68799C1.09364 3.90328 0.610123 4.3868 0.610123 4.98114V6.3437H0.467742C0.209424 6.3437 0 6.55313 0 6.81144C0 7.06976 0.209424 7.27919 0.467742 7.27919H0.610123V20.2336C0.610123 20.8279 1.09364 21.3114 1.68799 21.3114H27.3121C27.9064 21.3114 28.3899 20.8279 28.3899 20.2336V7.27919H28.5323C28.7906 7.27919 29 7.06976 29 6.81144C29 6.55313 28.7906 6.3437 28.5323 6.3437ZM21.0584 1.02803C21.0584 0.977019 21.0998 0.935484 21.1509 0.935484H24.503C24.554 0.935484 24.5955 0.977019 24.5955 1.02803V4.38018C24.5955 4.4312 24.554 4.47273 24.503 4.47273H21.1509C21.0998 4.47273 21.0584 4.4312 21.0584 4.38018V1.02803ZM2.76579 2.99773H8.02608V3.90328H2.76579V2.99773ZM1.54561 4.98114C1.54561 4.90399 1.61078 4.83876 1.68799 4.83876H10.3241C10.5824 4.83876 10.7919 4.62933 10.7919 4.37102V1.78827H20.1229V4.38018C20.1229 4.94703 20.5841 5.40822 21.1509 5.40822H24.503C25.0698 5.40822 25.531 4.94703 25.531 4.38018V1.78827H27.312C27.3892 1.78827 27.4544 1.85344 27.4544 1.93065V6.3437H1.54561V4.98114ZM27.3121 20.376H1.68792C1.61078 20.376 1.54554 20.3108 1.54554 20.2336V19.4811H4.73841C4.99673 19.4811 5.20615 19.2717 5.20615 19.0134C5.20615 18.7551 4.99673 18.5457 4.73841 18.5457H1.54561V7.27919H12.9552C11.0434 8.4289 9.76159 10.5237 9.76159 12.9124C9.76159 15.3011 11.0434 17.3959 12.9552 18.5457H6.60944C6.35112 18.5457 6.1417 18.7551 6.1417 19.0134C6.1417 19.2717 6.35112 19.4811 6.60944 19.4811H27.4545V20.2336C27.4545 20.3107 27.3892 20.376 27.3121 20.376ZM16.3303 7.27919C19.4365 7.27919 21.9635 9.80624 21.9635 12.9124C21.9635 16.0186 19.4364 18.5457 16.3303 18.5457C13.2242 18.5457 10.6971 16.0186 10.6971 12.9124C10.6971 9.80624 13.2241 7.27919 16.3303 7.27919ZM27.4545 18.5457H19.7054C21.6172 17.3959 22.899 15.3011 22.899 12.9124C22.899 10.5237 21.6172 8.42896 19.7054 7.27919H27.4545V18.5457Z" fill="#847F7F"/>
</svg>
