<svg width="97" height="97" viewBox="0 0 97 97" fill="none" xmlns="http://www.w3.org/2000/svg">
<g clip-path="url(#clip0_134_10)">
<g opacity="0.5">
<path opacity="0.5" d="M82.5992 14.7444C76.4895 14.1634 70.2056 14.5118 64.0375 14.5118H44.3703C31.278 14.5118 18.1857 14.5118 5.09339 14.6285C4.39465 14.6285 4.39465 15.6728 5.09339 15.6728C17.9531 15.6154 30.8703 15.6154 43.73 15.6728C56.5313 15.7303 69.5643 16.5439 82.3666 15.6728C83.0653 15.6154 83.0653 14.6285 82.3666 14.5702C69.9721 13.7575 57.2885 14.5702 44.8355 14.5702C31.6264 14.6276 18.3599 14.6276 5.15178 14.5702C4.45304 14.5702 4.45304 15.6154 5.15178 15.6154C17.8363 15.6728 30.5793 15.7303 43.2648 15.7303H62.932C69.4485 15.7303 76.1411 16.0796 82.6576 15.4986C83.0644 15.4412 83.0644 14.7444 82.5992 14.7444Z" fill="#DD0000"/>
<path opacity="0.5" d="M79.9798 15.0344C66.1313 14.4543 56.9959 0.000908554 42.7406 0.987762C37.5029 1.33522 32.3246 4.64419 30.5787 9.63589C28.3676 15.9054 30.4045 22.2898 34.6525 27.2241C38.4927 31.6357 45.2427 35.0021 50.5369 31.0557C53.6793 28.6752 56.7049 22.6382 52.4579 19.7944C49.7807 17.9949 45.3585 18.285 43.671 21.3613C41.8677 24.6119 45.8821 27.8051 48.8494 26.4114C50.0717 25.8314 50.1885 24.3803 49.8975 23.2192C49.6065 22.1166 48.0348 22.5808 48.21 23.6835L46.9876 25.0762C45.9989 25.0187 45.4169 24.4961 45.1843 23.6251C44.835 22.8124 45.1843 22.1166 45.7663 21.5356C46.7551 20.4913 48.5593 20.3745 49.8975 20.4329C52.8073 20.6071 53.5635 23.3351 52.9815 25.774C52.167 29.1394 48.8503 31.7515 45.5327 32.0425C40.1802 32.5068 35.2335 27.3399 32.7324 23.2192C29.8225 18.1692 29.7067 11.958 32.8482 7.14052C38.6678 -1.85698 51.1188 2.38046 58.3925 6.6179C65.3751 10.6811 71.5432 15.3244 79.9223 15.3244C80.1549 15.3244 80.1549 15.0344 79.9798 15.0344Z" fill="#DD0000"/>
<path opacity="0.5" d="M48.6757 22.8122C48.0354 23.9732 46.7556 22.3479 47.1634 21.4195C47.396 20.9553 47.8621 20.7227 48.3264 20.5484C48.7925 20.3742 49.4329 20.3742 49.8397 20.0842C49.9564 20.0268 49.9564 19.91 49.9564 19.7942C49.7813 18.749 48.0938 18.8657 47.396 19.1558C46.3488 19.62 45.6501 20.6068 45.7085 21.7679C45.7659 22.8122 46.5221 23.6248 47.396 23.9732C48.2689 24.3217 48.9083 23.6832 48.9667 22.8706C49.0241 22.7547 48.7341 22.6964 48.6757 22.8131V22.8122Z" fill="#DD0000"/>
<path opacity="0.5" d="M48.7924 22.755C48.5014 23.0451 48.0363 23.3351 47.6869 23.3935C47.3959 23.4509 47.1049 23.3935 46.8139 23.2193C46.6397 23.1035 46.6397 23.1034 46.4646 22.9292C46.522 23.0441 46.4071 22.755 46.3487 22.755C46.4062 22.9292 46.2904 22.5224 46.3487 22.6966C46.3487 22.5224 46.3487 22.4066 46.4646 22.2908C46.6397 21.9424 46.9298 21.7098 46.8723 21.3039C46.8139 20.8971 46.5813 20.6071 46.1736 20.6071C45.1848 20.4913 44.6029 21.9424 44.6612 22.755C44.7187 23.5677 45.2432 24.2636 45.8826 24.6694C46.523 25.0762 47.3949 25.193 48.0937 24.9604C48.5014 24.7862 48.8499 24.5545 49.0834 24.2061C49.3744 23.8577 49.316 23.4509 49.316 23.0451C49.2586 22.6966 48.9666 22.5224 48.7924 22.755Z" fill="#DD0000"/>
<path opacity="0.5" d="M47.8616 24.6122C47.2213 24.6696 46.5235 24.3805 46.1741 23.8579C45.8831 23.4511 45.7673 22.581 45.2437 22.6385C45.0686 22.6385 44.8943 22.6968 44.836 22.871C44.3708 23.8569 44.836 24.728 45.7089 25.309C46.4651 25.889 47.5122 25.7148 48.0942 25.0764C48.211 24.9022 48.0942 24.5547 47.8616 24.6122Z" fill="#DD0000"/>
<path opacity="0.5" d="M47.4545 25.1934C46.8132 25.135 46.2322 24.7282 45.8244 24.2649C45.6502 24.0323 45.476 23.7997 45.3592 23.5681C45.2434 23.3355 44.9524 23.1038 44.7773 22.9287C44.603 22.697 44.2537 22.9287 44.2537 23.1613C44.2537 23.5681 44.2537 23.9749 44.4863 24.3223C44.7189 24.6707 45.0098 24.9608 45.3008 25.2508C45.9996 25.7734 46.6983 25.8892 47.5703 25.7734C47.8613 25.6576 47.7445 25.1934 47.4545 25.1934ZM37.0384 3.07771C40.1809 2.14924 44.0211 2.55509 46.8141 4.2962C48.9678 5.63147 49.6656 8.35943 47.9781 10.3915C46.9299 11.61 45.0682 12.0168 43.5559 11.7268C41.6932 11.03 41.5774 9.86891 43.1481 8.24266C43.4391 8.24266 44.4863 8.302 44.603 8.70785C44.7772 9.40467 45.767 9.6947 46.2322 9.11465C47.1635 7.95359 46.3489 6.84996 45.185 6.32829C43.4391 5.51469 41.6932 6.27086 40.8203 7.8952C40.0641 9.34628 40.7044 11.4942 42.0426 12.3652C43.9043 13.5837 45.9996 13.2937 47.8622 12.2485C51.4105 10.2747 50.5376 5.80567 47.7455 3.71615C44.8356 1.56824 40.1225 1.45242 36.9226 2.84416C36.7475 2.84416 36.8642 3.07675 37.0384 3.07675V3.07771Z" fill="#DD0000"/>
<path opacity="0.5" d="M46.5228 11.7263C45.4756 11.8411 42.5074 11.4353 42.9142 9.81001C43.0894 9.17157 43.904 8.82411 44.4275 8.70734C45.0095 8.59152 45.4756 8.99736 46.0576 9.05575C46.1615 9.05233 46.2618 9.01708 46.345 8.95476C46.4282 8.89245 46.4903 8.80607 46.5228 8.70734C46.8138 7.37207 45.1263 7.02365 44.1949 7.19786C43.032 7.37207 42.0422 8.2431 41.6929 9.34577C41.3445 10.4484 42.1006 11.5521 43.1478 12.0163C44.2533 12.4805 45.4756 12.3647 46.6396 12.1321C46.7554 12.0163 46.697 11.7253 46.5228 11.7253V11.7263ZM29.998 15.0927C30.0555 18.9817 32.6743 24.0318 36.6313 25.1345C38.4346 25.6571 40.5873 24.9028 40.9951 22.9291C41.4019 21.0712 39.4827 18.8075 37.5033 19.0391C36.1077 19.2133 36.1077 21.0712 37.5033 21.2454C38.0852 21.3029 38.493 21.7097 38.7256 22.1739C39.3076 23.1608 38.6682 23.916 37.6784 24.2634C36.1077 24.7861 34.7112 23.4508 33.7215 22.4065C31.9756 20.4912 30.6374 17.6464 30.2306 15.0927C30.2306 14.9185 29.9971 14.9759 29.9971 15.0927H29.998ZM73.1726 14.28C69.0414 11.5521 62.8159 8.53313 58.2186 11.7837C55.2513 13.8732 55.1929 18.9243 56.6469 21.8255C58.277 25.2503 63.4553 26.1213 65.5496 22.6965C67.9359 18.8075 61.07 16.8338 58.6838 19.2133C57.8108 20.0844 58.9164 21.5939 60.0219 20.898C61.0116 20.2586 62.0004 20.027 63.106 20.607C63.5137 22.6965 62.815 23.7418 61.0116 23.7992C59.9645 23.8566 59.0332 23.2766 58.277 22.6381C56.3559 20.9554 56.2401 17.8207 56.8795 15.5569C58.8589 7.95308 68.6337 13.5248 72.94 14.9185C73.2884 15.0927 73.522 14.5117 73.1726 14.28Z" fill="#DD0000"/>
<path opacity="0.5" d="M61.5348 24.3806C63.2807 24.438 64.3853 22.8711 63.8033 21.2458C63.2223 19.6205 61.3596 18.5178 59.7305 19.1563C59.504 19.239 59.2982 19.37 59.1275 19.5403C58.9567 19.7105 58.8251 19.9159 58.7417 20.1422C58.625 20.4915 58.7417 20.9558 59.1485 21.0132C59.8473 21.13 60.546 20.6658 61.1854 20.9558C61.709 21.1874 62.1751 21.6516 62.3493 22.2327C62.5236 22.9869 61.8842 23.6254 61.3596 24.0322C61.2438 24.148 61.3596 24.3806 61.5348 24.3806ZM50.8278 30.6501C51.8759 30.0107 54.5522 29.1397 55.1341 30.8234C55.2509 31.1718 54.9599 31.637 54.7264 31.8686C54.3779 32.217 54.4354 31.9835 54.3196 31.6944C53.6792 30.3591 51.7007 31.5202 52.3411 32.8554C53.6208 35.6408 57.753 33.7839 57.171 30.9976C56.88 29.7791 55.5993 28.6754 54.3779 28.5596C52.8063 28.3854 51.6423 29.2564 50.712 30.4166C50.5952 30.5908 50.7119 30.765 50.8278 30.6491V30.6501ZM49.3154 7.0824C48.966 10.1588 52.0501 13.2352 55.1341 11.8425C56.3555 11.3198 56.7049 9.75293 56.2981 8.59187C55.7745 7.14079 54.3196 6.44396 52.8646 6.61817C52.3995 6.6756 52.0501 7.25661 52.0501 7.72084C52.0501 8.41767 52.5737 8.76608 53.1556 8.82351C54.2028 8.94029 54.6105 9.75198 53.6792 10.333C52.8063 10.8556 51.7007 10.333 51.0613 9.75293C50.3051 9.05611 49.7806 8.01087 49.6064 7.02497C49.6638 6.79237 49.3738 6.85076 49.3154 7.0824ZM35.0017 3.83181C32.3829 5.39872 30.9864 8.12764 31.51 11.1456C31.9177 13.4094 34.1288 15.6157 36.5141 14.5704C38.4926 13.6994 40.2375 11.0872 38.9578 8.99772C37.678 6.84981 33.7794 6.73399 33.1391 9.52034C32.8481 10.6814 34.594 11.5524 35.176 10.3914C35.9896 8.70769 37.0961 10.1588 37.0377 11.204C36.9802 12.7125 35.7579 13.9894 34.1862 13.7578C32.1503 13.4678 31.9751 10.2162 32.2087 8.76608C32.4987 6.96658 33.7785 5.34129 35.0592 4.12184C35.2918 3.94763 35.1176 3.77343 35.0017 3.83181ZM42.1586 31.5786C41.635 31.1718 41.4024 30.5333 41.344 29.8939C41.344 29.3139 41.7508 28.7913 42.3912 28.908C42.3912 28.908 42.6822 29.0239 42.6238 28.9655C42.507 28.908 42.7406 29.0822 42.6238 28.9655C42.6812 29.0239 42.7406 29.1397 42.798 29.1981C42.9731 29.4881 42.7406 29.0239 42.8564 29.3139C42.9731 29.6039 42.8564 29.0822 42.8564 29.3713C42.8564 29.6039 42.9138 29.2565 42.9138 29.1981C42.9731 29.0239 43.0306 29.0822 42.9138 29.1406C42.7405 29.3139 42.6822 29.4881 42.5654 29.7207C42.4496 30.0681 42.6238 30.5333 42.8564 30.765C43.4967 31.4034 44.3687 31.1134 44.8349 30.4749C45.1842 30.0107 45.1842 29.4307 45.0675 28.908C44.8349 27.747 43.8461 26.9343 42.6238 27.0511C41.2856 27.166 40.2959 28.2112 40.2385 29.4881C40.1217 30.6491 40.9947 31.5202 41.9834 31.926C42.1586 31.9835 42.3328 31.6944 42.1586 31.5776V31.5786ZM56.0061 15.7315C55.8319 16.4857 55.0173 17.0668 54.3196 17.2984C54.2028 17.3558 54.087 17.3558 53.9702 17.3558H53.7376C53.8534 17.4142 53.8534 17.531 53.8534 17.5884C53.8534 17.3568 53.8534 17.241 53.9118 16.95C54.087 15.4989 51.5849 15.4415 51.6433 16.95C51.7007 18.5753 53.0982 19.2721 54.4354 18.6337C55.0173 18.402 55.4251 17.8794 55.8329 17.3568C56.2397 16.8342 56.2981 16.3115 56.2981 15.6731C56.2397 15.6157 56.0071 15.6157 56.0071 15.7305L56.0061 15.7315ZM45.0091 15.4405C44.3103 14.4546 42.9148 14.7446 41.9844 15.2089C40.8779 15.7899 40.0049 17.0084 40.4127 18.2278C40.8195 19.3305 42.1002 19.9689 43.2057 19.8531C44.8349 19.7363 45.591 17.9952 44.5439 16.7183C43.6709 15.7315 42.0418 17.0084 42.7405 18.111C42.9148 18.3436 42.8564 18.4594 42.798 18.0536C42.798 17.8794 43.0306 17.5884 42.9148 17.7052C43.089 17.531 42.798 17.7626 42.798 17.7626C42.6822 17.821 42.507 17.9368 42.3912 17.9952C41.9834 18.1694 41.635 17.9378 41.7508 17.4726C41.925 16.3115 43.9045 15.7889 44.8932 15.7889C45.0091 15.7889 45.1258 15.6157 45.0091 15.4415V15.4405ZM30.346 16.0799C31.4516 15.8473 32.9065 16.0799 33.8962 16.66C34.3614 16.95 34.6524 17.4736 34.3614 17.9368C34.2446 18.111 33.8962 18.1694 34.012 18.2852C33.1975 17.0668 31.219 18.2278 32.0335 19.4463C33.6627 21.7684 37.1544 19.5621 35.9321 17.0668C34.9434 15.1505 31.8593 14.5704 30.2886 15.9057C30.1134 15.9631 30.2302 16.0799 30.346 16.0799Z" fill="#DD0000"/>
<path opacity="0.5" d="M41.1698 1.6832C34.6514 0.812165 30.7538 5.10799 27.6697 10.2165C24.4689 15.4982 22.5488 22.5804 24.6441 28.6747C25.3428 30.5901 26.7968 32.3312 28.9495 32.3896C30.8696 32.4479 30.9864 30.3584 30.8122 29.0231C30.637 27.7463 29.4731 26.5268 28.7169 25.54C27.3204 23.683 27.0294 21.6509 26.971 19.3298C26.9136 15.034 29.1821 11.7259 30.2876 7.72014C30.346 7.54593 30.1134 7.43011 29.9976 7.54593C27.3204 10.5065 26.099 15.4408 25.808 19.3288C25.6912 21.0709 25.8654 23.3346 26.7384 24.9015C27.262 25.83 27.8439 26.701 28.4259 27.5721C29.0663 28.3263 29.1246 29.2557 28.7169 30.3C27.553 30.01 27.0294 28.7915 26.5058 27.8621C23.6544 22.4062 25.2844 16.7176 28.0181 11.5517C29.2405 9.22961 30.8705 6.90749 32.7897 5.05056C35.0592 2.8433 38.2025 2.38003 41.2272 1.97227C41.344 1.97227 41.344 1.68224 41.1698 1.68224V1.6832Z" fill="#DD0000"/>
<path opacity="0.5" d="M26.3319 14.2806C24.1782 17.2411 23.5972 21.3618 23.8882 24.9608C24.0624 27.2245 25.3431 32.333 28.4262 32.1013C28.7756 32.1013 29.0082 31.8104 28.9498 31.462C28.6588 30.4177 27.7859 29.7783 27.2049 28.8498C26.1567 27.2829 25.8658 25.3082 25.7499 23.5097C25.5173 20.4333 26.0409 17.4153 26.7971 14.3973C26.7971 14.2222 26.4477 14.1064 26.3319 14.2806Z" fill="#DD0000"/>
<path opacity="0.5" d="M29.2994 31.1719C28.6006 29.315 27.3209 27.8055 26.6815 25.8892C25.9253 23.7423 26.2153 21.4192 25.575 19.2722C25.5176 18.9822 25.0514 18.9238 24.9356 19.2148C22.8403 22.697 24.7604 30.2434 28.8342 31.6361C29.1252 31.6936 29.4162 31.4035 29.2994 31.1719ZM37.5043 2.43925C32.4408 1.85824 28.7174 7.60515 27.3783 11.7842C27.3209 12.0168 27.6109 12.191 27.7851 12.0168C29.3568 10.4489 30.0546 8.24359 31.3937 6.50248C32.9635 4.47038 35.2339 3.54192 37.5608 2.67088C37.6776 2.67088 37.6776 2.49668 37.5034 2.43925H37.5043Z" fill="#DD0000"/>
<path opacity="0.5" d="M33.5472 3.48307C29.9386 4.93415 27.4949 7.9531 25.459 11.2037C22.7243 15.5569 21.5604 20.9554 18.418 25.0187C16.7888 27.1082 16.4395 24.3802 16.673 22.8708C16.9056 21.4771 17.6618 20.2002 18.3596 18.9817C19.5235 16.8922 20.8042 14.8017 22.2007 12.829C23.8882 10.4485 26.1568 8.47476 28.7172 6.96625C30.1721 6.15264 32.9068 5.7468 33.7798 4.23828C33.8956 4.06407 33.7798 3.83148 33.5472 3.83148C28.3688 4.52831 24.1783 8.12731 21.1526 12.1905C18.5931 15.6144 13.88 22.0581 15.9743 26.5856C17.4292 29.7778 21.5604 21.1871 21.7346 20.8971C24.6444 14.3959 27.4375 7.83632 33.663 3.88987C33.8965 3.71566 33.7798 3.36725 33.5472 3.48307Z" fill="#DD0000"/>
<path opacity="0.5" d="M31.3359 4.75995C27.3205 6.32781 24.2948 9.69422 21.8502 13.1774C20.4546 15.1501 19.4075 17.2981 18.4761 19.5044C17.6032 21.5939 16.3818 23.8576 16.3818 26.1213C16.3818 26.8182 17.429 27.224 17.7784 26.5272C19.6985 22.6966 20.8031 18.6333 23.0725 14.9185C25.4004 11.1453 28.5428 8.30152 31.5101 5.04998C31.5675 4.93511 31.5101 4.70252 31.3359 4.75995Z" fill="#DD0000"/>
<path opacity="0.5" d="M17.4879 26.1218C17.8947 24.2649 18.0699 22.407 18.7093 20.6075C19.3496 18.7505 20.2809 17.1827 20.6294 15.2664C20.6877 14.9764 20.3384 14.7447 20.1058 14.9764C17.3711 17.5311 15.0432 22.5812 16.7891 26.2376C16.9059 26.5276 17.4295 26.4702 17.4879 26.1218ZM41.9841 2.20663C35.1182 0.175493 27.2052 5.3414 20.7461 7.43092C19.4664 7.83677 17.8363 8.41682 16.4398 8.18518C15.3342 8.01097 18.535 5.74724 18.7676 5.63142C19.7564 5.1088 20.8619 4.76039 21.9684 4.41197C27.4952 2.61248 33.3149 3.59933 38.7842 2.03242C39.0168 1.97499 38.9584 1.62658 38.7268 1.62658C32.3835 0.987182 25.4583 1.56819 19.5229 4.00613C18.7667 4.29616 12.5402 8.06936 15.9736 9.17203C18.9409 10.1005 23.3631 7.77934 26.0403 6.7341C31.2186 4.76039 36.3396 2.49666 41.9831 2.43923C42.0415 2.43923 42.0999 2.26502 41.9831 2.20663H41.9841Z" fill="#DD0000"/>
<path opacity="0.5" d="M37.2703 2.03178C33.4301 0.987497 29.008 2.43858 25.2836 3.48287C22.9567 4.12131 16.3234 5.10816 15.5672 7.9529C15.4505 8.30131 15.7414 8.64973 16.0908 8.64973C17.4873 8.64973 18.9413 7.66287 20.222 7.19768C22.0837 6.55925 24.0038 6.03758 25.8655 5.51496C29.6483 4.46972 33.4885 3.54125 37.2703 2.5544C37.5029 2.49697 37.5029 2.14856 37.2703 2.03178Z" fill="#DD0000"/>
<path opacity="0.5" d="M16.9058 7.95287C18.0698 7.31443 19.0585 6.50178 20.1057 5.74657C21.2112 4.93392 22.5494 4.41226 23.8885 4.00546C24.1211 3.94803 24.1785 3.54122 23.8885 3.48284C20.6293 2.8444 18.535 5.16652 16.2655 7.13927C15.8577 7.60446 16.3823 8.2429 16.9058 7.95287ZM0.729492 15.2083C0.729492 15.2083 13.7634 13.1772 14.869 13.1772C15.9745 13.1772 16.9058 14.1056 16.9058 15.2083C16.9058 16.311 15.9745 17.2404 14.869 17.2404C13.7634 17.2394 0.729492 15.2083 0.729492 15.2083ZM82.5991 15.0341C83.181 21.1294 82.8317 27.398 82.8317 33.5508V53.1701C82.8317 66.2308 82.8317 79.2915 82.7149 92.3513C82.7149 93.0482 81.6677 93.0482 81.6677 92.3513C81.7261 79.5232 81.7261 66.6376 81.6677 53.8085C81.6103 41.0397 80.7948 28.0364 81.6677 15.2667C81.7261 14.5699 82.7149 14.5699 82.7733 15.2667C83.5878 27.6306 82.8317 40.2845 82.7733 52.7059C82.7151 65.9018 82.7151 79.0979 82.7733 92.2939C82.7733 92.9898 81.7261 92.9898 81.7261 92.2939C81.6687 79.64 81.6103 66.9277 81.6103 54.2737V34.6534C81.6103 28.1523 81.2609 21.4778 81.8429 14.9767C81.9003 14.5115 82.5991 14.5115 82.5991 15.0341Z" fill="#DD0000"/>
<path opacity="0.5" d="M82.3081 17.6463C82.8901 31.4613 97.379 40.5746 96.3892 54.7954C96.0399 59.9623 92.7232 65.1282 87.7191 66.9277C81.4352 69.133 75.0345 67.1019 70.0888 62.8644C65.6666 59.0328 62.2916 52.3 66.2486 47.0174C68.6339 43.8836 74.6851 40.8646 77.5366 45.103C79.3409 47.7726 79.0489 52.1842 75.9659 53.8669C72.7076 55.6664 69.5068 51.6616 70.9033 48.701C71.4853 47.4816 72.9402 47.3658 74.1032 47.6558C75.2087 47.9468 74.7445 49.5127 73.638 49.3395L72.2415 50.558C72.2999 51.5448 72.8234 52.1258 73.6964 52.3575C74.5109 52.7059 75.2087 52.3575 75.7907 51.7774C76.8388 50.7915 76.9546 48.992 76.8972 47.6558C76.722 44.7536 73.9874 43.9994 71.5437 44.5794C68.1687 45.393 65.5498 48.701 65.2588 52.01C64.7936 57.3501 69.972 62.2834 74.1032 64.7798C79.0499 67.7403 85.2754 67.8561 90.1637 64.6639C99.1823 58.8586 94.9343 46.4373 90.6873 39.1819C86.6135 32.2155 81.9588 26.0628 81.9588 17.7047C82.0172 17.4137 82.3081 17.4137 82.3081 17.6463Z" fill="#DD0000"/>
<path opacity="0.5" d="M74.5109 48.8169C73.347 49.4554 74.9761 50.7322 75.8491 50.3264C76.3152 50.0938 76.6052 49.6296 76.722 49.1653C76.8972 48.7011 76.8972 48.0627 77.1872 47.6559C77.2456 47.54 77.3624 47.54 77.4782 47.54C78.5263 47.7142 78.4095 49.397 78.1195 50.0938C77.6533 51.139 76.6646 51.8359 75.4997 51.7775C74.4525 51.72 73.638 50.9648 73.2886 50.0938C72.9402 49.2228 73.5796 48.5853 74.3941 48.5269C74.5693 48.4695 74.6277 48.7585 74.5109 48.8169Z" fill="#DD0000"/>
<path opacity="0.5" d="M74.57 48.7011C74.279 48.9911 73.988 49.4553 73.9296 49.8037C73.8722 50.0938 73.9296 50.3838 74.1048 50.6748C74.2206 50.849 74.2206 50.849 74.3948 51.0232C74.279 50.9648 74.57 51.0806 74.57 51.1381C74.3948 51.0806 74.8026 51.1974 74.6274 51.1381C74.8026 51.1381 74.9193 51.1381 75.0352 51.0232C75.3845 50.849 75.6171 50.558 76.0249 50.6164C76.4317 50.6738 76.7236 50.9064 76.7236 51.3132C76.8385 52.2991 75.3836 52.8801 74.57 52.8227C73.7554 52.7643 73.0576 52.2417 72.6499 51.6032C72.2421 50.9648 72.1263 50.0938 72.3589 49.3979C72.5331 48.9911 72.7657 48.6427 73.1151 48.411C73.4644 48.121 73.8712 48.1785 74.279 48.1785C74.6284 48.2359 74.8026 48.5269 74.57 48.7011Z" fill="#DD0000"/>
<path opacity="0.5" d="M72.7073 49.631C72.649 50.2685 72.9399 50.9653 73.4635 51.3137C73.8703 51.6037 74.7433 51.7196 74.6849 52.2422C74.6849 52.4164 74.6275 52.5906 74.4523 52.649C73.4635 53.1132 72.5906 52.649 72.0086 51.7779C71.4266 51.0237 71.6018 49.9784 72.2412 49.3984C72.4164 49.2816 72.7648 49.3984 72.7073 49.63V49.631Z" fill="#DD0000"/>
<path opacity="0.5" d="M72.1253 50.0364C72.1827 50.6749 72.5905 51.2549 73.0557 51.6617C73.2883 51.8359 73.5218 52.0102 73.7544 52.126C73.987 52.2418 74.2196 52.5318 74.3938 52.706C74.6274 52.8802 74.3938 53.2286 74.1612 53.2286C73.7544 53.2286 73.3476 53.2286 72.9973 52.997C72.6489 52.7644 72.3579 52.4744 72.0669 52.1834C71.5434 51.4875 71.4266 50.7907 71.5434 49.9206C71.6592 49.6296 72.1253 49.7464 72.1253 50.0355V50.0364ZM94.2936 60.4266C95.2249 57.2919 94.8181 53.4612 93.0722 50.6749C91.7341 48.527 88.9994 47.8301 86.9626 49.5138C85.7412 50.5581 85.3334 52.416 85.6244 53.9255C86.3232 55.7824 87.4861 55.8992 89.1153 54.3313C89.1153 54.0413 89.0578 52.997 88.6501 52.8802C87.9513 52.706 87.6613 51.7192 88.2433 51.2549C89.4062 50.3265 90.5118 51.1391 91.0363 52.3002C91.8499 54.0422 91.0938 55.7824 89.4646 56.6534C88.0097 57.4077 85.857 56.7693 84.985 55.4349C83.7627 53.5771 84.0537 51.4875 85.0999 49.6296C87.0793 46.089 91.5599 46.9591 93.6542 49.7464C95.8079 52.6486 95.9227 57.3503 94.5272 60.5434C94.5272 60.7167 94.2946 60.6008 94.2946 60.4266H94.2936Z" fill="#DD0000"/>
<path opacity="0.5" d="M85.6242 51.0232C85.5074 52.0675 85.9152 55.0281 87.5443 54.6222C88.1847 54.448 88.534 53.6354 88.6499 53.1127C88.7666 52.5317 88.3589 52.0675 88.3005 51.4874C88.3005 51.2549 88.4757 51.0806 88.6499 51.0232C89.988 50.7332 90.279 52.4159 90.1622 53.3444C89.988 54.5054 89.1151 55.4923 88.0095 55.8407C86.904 56.1891 85.7984 55.4349 85.3332 54.3896C84.8681 53.2869 84.9839 52.0675 85.159 50.9064C85.3332 50.7332 85.6242 50.7916 85.6242 51.0232ZM82.2492 67.4503C78.3506 67.392 73.2881 64.7798 72.1825 60.8324C71.659 59.0329 72.4161 56.8859 74.3936 56.4791C76.2563 56.0733 78.5258 57.9886 78.2922 59.9623C78.2756 60.2443 78.1519 60.5092 77.9464 60.703C77.7409 60.8968 77.4691 61.0047 77.1867 61.0047C76.9042 61.0047 76.6325 60.8968 76.4269 60.703C76.2214 60.5092 76.0977 60.2443 76.0811 59.9623C76.0237 59.3813 75.6159 58.9755 75.1508 58.7429C74.161 58.1628 73.4049 58.8003 73.0555 59.7881C72.5319 61.355 73.8701 62.7487 74.9182 63.7346C76.8383 65.4766 79.6887 66.8119 82.2502 67.2178C82.4234 67.2178 82.365 67.4503 82.2502 67.4503H82.2492ZM83.0638 24.3801C85.7984 28.5008 88.825 34.7119 85.5658 39.2978C83.4715 42.2583 78.409 42.3157 75.4992 40.923C72.0667 39.2978 71.1938 34.1319 74.6272 32.0414C78.5258 29.6618 80.5043 36.5114 78.118 38.891C77.2451 39.762 75.7327 38.6593 76.4305 37.5566C77.0709 36.5698 77.3035 35.5829 76.7215 34.4793C74.6272 34.0735 73.5791 34.7703 73.5216 36.5698C73.4632 37.6141 74.0452 38.5435 74.6846 39.2978C76.3721 41.2131 79.5145 41.3289 81.784 40.6905C89.406 38.7167 83.8199 28.965 82.4244 24.6701C82.2492 24.2633 82.8312 24.0317 83.0638 24.3801Z" fill="#DD0000"/>
<path opacity="0.5" d="M72.9389 35.9889C72.8815 34.2469 74.4522 33.1452 76.0814 33.7252C77.7114 34.3062 78.817 36.1631 78.1766 37.7884C78.0933 38.015 77.9616 38.2206 77.7906 38.3911C77.6197 38.5615 77.4137 38.6926 77.1869 38.7753C76.8385 38.8911 76.3733 38.7753 76.3149 38.3685C76.1981 37.6726 76.6633 36.9758 76.3724 36.3374C76.1398 35.8147 75.6736 35.3505 75.0926 35.1763C74.3364 35.0021 73.6961 35.6405 73.2883 36.1631C73.1725 36.279 72.9399 36.1631 72.9399 35.9889H72.9389ZM66.6551 46.6692C67.2964 45.6249 68.1674 42.9553 66.4808 42.3743C66.1315 42.2585 65.6663 42.5485 65.4337 42.7801C65.0843 43.1285 65.3169 43.0711 65.6079 43.1869C66.946 43.8254 65.7821 45.7991 64.444 45.1606C61.6509 43.8838 63.5136 39.7621 66.3066 40.3422C67.528 40.6332 68.6336 41.9101 68.7503 43.1285C68.9245 44.6964 68.0516 45.8565 66.8886 46.785C66.7134 46.9018 66.5392 46.785 66.6551 46.6701V46.6692ZM90.2792 48.1786C87.1952 48.527 84.1112 45.4507 85.5077 42.3743C86.0313 41.1548 87.6029 40.8064 88.7669 41.2132C90.2218 41.7358 90.9196 43.1869 90.7454 44.638C90.687 45.1023 90.1041 45.4507 89.6389 45.4507C88.9411 45.4507 88.5917 44.928 88.5343 44.348C88.4175 43.3028 87.603 42.8969 87.021 43.8254C86.4974 44.6964 87.021 45.7991 87.603 46.4375C88.3017 47.1918 89.3488 47.7144 90.3376 47.8886C90.5702 47.8312 90.5118 48.1786 90.2802 48.1786H90.2792ZM93.5375 62.4579C91.9677 65.071 89.2321 66.4636 86.2055 65.941C83.937 65.5342 81.7259 63.3289 82.773 60.9493C83.646 58.9756 86.2648 57.2345 88.4175 58.5114C90.5712 59.7883 90.686 63.6773 87.8939 64.3157C86.73 64.6058 85.8571 62.8647 87.021 62.2836C88.7085 61.471 87.2536 60.3693 86.2064 60.4267C84.6941 60.4841 83.4134 61.7036 83.646 63.2705C83.9369 65.3026 87.1952 65.4768 88.6501 65.2442C90.4544 64.9542 92.0835 63.6773 93.3049 62.4004C93.4217 62.1678 93.5959 62.342 93.5375 62.4579ZM65.7247 55.3182C66.1315 55.8409 66.7718 56.0735 67.4122 56.1318C67.9942 56.1318 68.5177 55.725 68.4009 55.0866C68.4009 55.0866 68.2851 54.7956 68.3435 54.854C68.401 54.9698 68.2267 54.7382 68.3435 54.854C68.2851 54.7966 68.1684 54.7382 68.11 54.6798C67.819 54.5056 68.2851 54.7372 67.9942 54.6224C67.7032 54.5056 68.2267 54.6224 67.9358 54.6224C67.7032 54.6224 68.0516 54.564 68.11 54.564C68.2851 54.5066 68.2267 54.4482 68.1674 54.564C67.9942 54.7382 67.819 54.7956 67.5864 54.9124C67.237 55.0282 66.7718 54.855 66.5392 54.6214C65.8989 53.983 66.1899 53.1129 66.8302 52.6487C67.2954 52.3003 67.8774 52.3003 68.4009 52.4161C69.5649 52.6487 70.3794 53.6355 70.2627 54.854C70.1468 56.1893 69.0997 57.1761 67.7606 57.2336C66.5976 57.3503 65.7247 56.4793 65.3169 55.4925C65.3169 55.3182 65.6079 55.2024 65.7247 55.3182ZM81.61 41.5616C80.8539 41.7358 80.271 42.5475 80.0384 43.2444C79.9809 43.3611 79.9809 43.477 79.9809 43.5928V43.8254C79.9225 43.7096 79.8058 43.7096 79.7474 43.7096C79.98 43.7096 80.0967 43.7096 80.3877 43.6512C81.7843 43.477 81.9001 45.9733 80.3877 45.9149C78.7586 45.8575 78.0599 44.4638 78.7002 43.1295C78.9328 42.5485 79.4564 42.1417 79.98 41.7358C80.5035 41.329 81.0281 41.2716 81.6675 41.2716C81.7259 41.2716 81.7259 41.5033 81.61 41.5616ZM81.9001 52.4735C82.8898 53.1703 82.5988 54.564 82.1336 55.4925C81.5517 56.5951 80.3293 57.4662 79.107 57.0603C78.0024 56.6535 77.3621 55.3757 77.4779 54.274C77.5947 52.6487 79.3406 51.8934 80.6203 52.9387C81.61 53.8097 80.3293 55.435 79.2238 54.7382C78.9912 54.564 78.8744 54.6224 79.2812 54.6808C79.4564 54.6808 79.7474 54.4482 79.6315 54.564C79.8058 54.3898 79.5732 54.6798 79.5732 54.6798C79.5148 54.7956 79.399 54.9698 79.3406 55.0866C79.1654 55.4925 79.398 55.8409 79.8641 55.725C81.0281 55.5508 81.5517 53.5771 81.5517 52.5903C81.5517 52.4745 81.7259 52.3586 81.9001 52.4745V52.4735ZM81.2607 67.1021C81.4933 65.9994 81.2607 64.5483 80.6787 63.5605C80.3877 63.0963 79.8641 62.8063 79.398 63.0963C79.2238 63.2131 79.1654 63.5615 79.0496 63.4447C80.2709 64.2583 79.107 66.2311 77.8857 65.4184C75.5578 63.7931 77.7689 60.3109 80.2709 61.5294C82.191 62.5162 82.773 65.5926 81.4349 67.1595C81.3775 67.3337 81.2607 67.2179 81.2607 67.1021Z" fill="#DD0000"/>
<path opacity="0.5" d="M95.6914 56.3053C96.5643 62.8065 92.258 66.6955 87.138 69.7729C81.8429 72.9651 74.7435 74.8804 68.6338 72.7909C66.7137 72.094 64.9678 70.643 64.9104 68.495C64.852 66.5797 66.9463 66.4639 68.2844 66.6381C69.5651 66.8114 70.7875 67.9724 71.7762 68.7276C73.6379 70.1203 75.6748 70.4104 78.0027 70.4688C82.3081 70.5262 85.6247 68.2634 89.6391 67.1598C89.8143 67.1023 89.9311 67.334 89.8143 67.4508C86.847 70.1213 81.9003 71.3398 78.0027 71.6298C76.2568 71.7456 73.9873 71.5724 72.4166 70.7013C71.4852 70.1787 70.6123 69.5977 69.7394 69.0177C68.9832 68.3792 68.0518 68.3208 67.0047 68.7276C67.2957 69.8887 68.517 70.4104 69.4484 70.933C74.9187 73.7777 80.6206 72.1524 85.7989 69.4235C88.1268 68.205 90.4547 66.5797 92.3164 64.6644C94.5275 62.4007 94.9927 59.2659 95.4004 56.247C95.4004 56.1321 95.6914 56.1321 95.6914 56.3053Z" fill="#DD0000"/>
<path opacity="0.5" d="M83.0639 71.1072C80.0967 73.2551 75.9655 73.8352 72.3579 73.5451C70.0884 73.3709 64.9684 72.0941 65.201 69.0177C65.201 68.6693 65.492 68.4376 65.8404 68.4951C66.8876 68.7851 67.5279 69.6561 68.4593 70.2371C70.03 71.2814 72.0085 71.5714 73.8128 71.6882C76.8968 71.9199 79.9225 71.3972 82.9481 70.643C83.1223 70.643 83.2391 70.9914 83.0639 71.1072Z" fill="#DD0000"/>
<path opacity="0.5" d="M66.1317 68.1467C67.9944 68.8436 69.5067 70.1205 71.4268 70.7598C73.5805 71.5141 75.9074 71.2231 78.0601 71.8616C78.3511 71.92 78.4094 72.3842 78.1185 72.5C74.6276 74.5905 67.063 72.6742 65.6655 68.611C65.6081 68.3793 65.8991 68.0309 66.1317 68.1467ZM94.9352 60.0203C95.5162 65.0704 89.7568 68.7852 85.5663 70.1205C85.3337 70.1779 85.1595 69.8888 85.3337 69.7146C86.9044 68.1467 89.1155 67.4509 90.8614 66.1156C92.8983 64.5477 93.8287 62.284 94.7016 59.9628C94.7016 59.7886 94.8768 59.8461 94.9342 60.0203H94.9352Z" fill="#DD0000"/>
<path opacity="0.5" d="M93.8876 63.9093C92.4327 67.5083 89.3496 69.9463 86.1488 71.9784C81.7841 74.7063 76.3731 75.8674 72.3003 79.0012C70.206 80.6274 72.9407 80.9749 74.454 80.7433C75.8495 80.5107 77.1303 79.7564 78.3516 79.0596C80.4469 77.8985 82.5412 76.6216 84.5197 75.2289C86.905 73.5453 88.8844 71.2815 90.3968 68.7278C91.2104 67.2767 91.6181 64.5478 93.1314 63.6777C93.3057 63.5609 93.5382 63.6777 93.5382 63.9093C92.8405 69.0762 89.2328 73.2552 85.16 76.2732C81.7266 78.8279 75.2676 83.5287 70.7296 81.4401C67.5288 79.988 76.1405 75.8674 76.4315 75.6932C82.949 72.791 89.5238 70.0047 93.4808 63.7935C93.655 63.5609 94.0044 63.6777 93.8876 63.9093Z" fill="#DD0000"/>
<path opacity="0.5" d="M92.6075 66.1156C91.0368 70.1205 87.6618 73.1385 84.17 75.5774C82.1915 76.9701 80.0388 78.0153 77.8277 78.9438C75.7334 79.8148 73.4629 81.0333 71.1944 81.0333C70.4957 81.0333 70.0889 79.9881 70.7876 79.6396C74.6278 77.7253 78.7006 76.6216 82.425 74.3579C86.2059 72.0358 89.0583 68.902 92.3165 65.9414C92.4323 65.884 92.6659 65.9414 92.6075 66.1156Z" fill="#DD0000"/>
<path opacity="0.5" d="M71.194 79.9302C73.0557 79.5234 74.9175 79.3492 76.7217 78.7108C78.5835 78.0723 80.1552 77.1439 82.0753 76.7955C82.3662 76.738 82.5988 77.0855 82.3662 77.3181C79.8058 80.046 74.7433 82.3682 71.0782 80.6261C70.7872 80.5112 70.8446 79.9877 71.194 79.9302ZM95.1676 55.4924C97.2035 62.342 92.0252 70.2359 89.9308 76.6796C89.5231 77.9565 88.9411 79.5818 89.1747 80.9745C89.3489 82.0772 91.6174 78.885 91.7342 78.6533C92.2577 77.6665 92.6071 76.5629 92.9565 75.4602C94.7598 69.9468 93.7701 64.1415 95.3418 58.6856C95.3992 58.453 95.7486 58.5104 95.7486 58.743C96.3899 65.07 95.807 71.978 93.3633 77.9565C93.0723 78.7108 89.2905 84.9219 88.1849 81.4981C87.2536 78.5366 89.5815 74.1249 90.6286 71.4553C92.6071 66.2894 94.8766 61.181 94.934 55.5508C94.934 55.435 95.1092 55.3766 95.1676 55.4934V55.4924Z" fill="#DD0000"/>
<path opacity="0.5" d="M95.2837 60.1942C96.3308 64.0258 94.8769 68.4375 93.8287 72.1523C93.1894 74.4735 92.1996 81.0914 89.3491 81.8457C88.9998 81.9615 88.6504 81.6715 88.6504 81.323C88.6504 79.9303 89.6401 78.4793 90.1053 77.2024C90.7457 75.3454 91.2692 73.4292 91.7928 71.5713C92.84 67.7981 93.7713 63.9674 94.7601 60.1942C94.8769 59.9626 95.2253 59.9626 95.2837 60.1942Z" fill="#DD0000"/>
<path opacity="0.5" d="M89.3498 80.5106C89.9892 79.3495 90.8047 78.3627 91.5608 77.3184C92.3744 76.2157 92.899 74.8805 93.3058 73.5452C93.3642 73.3126 93.7719 73.2552 93.8294 73.5452C94.4707 76.7958 92.1419 78.8863 90.1634 81.149C89.7566 81.6133 89.1162 81.0332 89.3498 80.5106ZM82.1345 96.6477C82.1345 96.6477 84.1705 83.6454 84.1705 82.5427C84.1705 81.44 83.2401 80.5106 82.1345 80.5106C81.029 80.5106 80.0977 81.4391 80.0977 82.5427C80.0977 83.6454 82.1345 96.6477 82.1345 96.6477Z" fill="#DD0000"/>
</g>
</g>
<defs>
<clipPath id="clip0_134_10">
<rect width="95.7181" height="95.7181" fill="white" transform="translate(0.729492 0.929688)"/>
</clipPath>
</defs>
</svg>
