<svg width="97" height="97" viewBox="0 0 97 97" fill="none" xmlns="http://www.w3.org/2000/svg">
<g opacity="0.5">
<path opacity="0.5" d="M14.2826 82.8377C20.3923 83.4187 26.6762 83.0703 32.8443 83.0703H52.5115C65.6038 83.0703 78.6961 83.0703 91.7884 82.9535C92.4872 82.9535 92.4872 81.9092 91.7884 81.9092C78.9287 81.9666 66.0116 81.9666 53.1518 81.9092C40.3505 81.8518 27.3175 81.0382 14.5152 81.9092C13.8165 81.9666 13.8165 82.9535 14.5152 83.0119C26.9098 83.8245 39.5934 83.0119 52.0463 83.0119C65.2554 82.9544 78.5219 82.9544 91.7301 83.0119C92.4288 83.0119 92.4288 81.9666 91.7301 81.9666C79.0455 81.9092 66.3026 81.8518 53.617 81.8518H33.9498C27.4334 81.8518 20.7407 81.5024 14.2243 82.0834C13.8175 82.1408 13.8175 82.8377 14.2826 82.8377Z" fill="#DD0000"/>
<path opacity="0.5" d="M16.9021 82.5476C30.7506 83.1277 39.8859 97.5811 54.1412 96.5943C59.3789 96.2468 64.5572 92.9378 66.3031 87.9461C68.5142 81.6766 66.4773 75.2922 62.2294 70.358C58.3892 65.9463 51.6391 62.5799 46.345 66.5264C43.2025 68.9069 40.1769 74.9438 44.4239 77.7876C47.1011 79.5871 51.5233 79.2971 53.2108 76.2207C55.0141 72.9701 50.9997 69.7769 48.0325 71.1706C46.8102 71.7507 46.6934 73.2017 46.9844 74.3628C47.2753 75.4655 48.847 75.0012 48.6719 73.8986L49.8942 72.5059C50.883 72.5633 51.4649 73.0859 51.6975 73.957C52.0469 74.7696 51.6975 75.4655 51.1156 76.0465C50.1268 77.0908 48.3225 77.2075 46.9844 77.1491C44.0745 76.9749 43.3184 74.247 43.9003 71.8081C44.7149 68.4426 48.0315 65.8305 51.3491 65.5395C56.7017 65.0753 61.6484 70.2421 64.1495 74.3628C67.0593 79.4129 67.1751 85.624 64.0337 90.4415C58.214 99.439 45.763 95.2016 38.4894 90.9641C31.5067 86.9009 25.3387 82.2576 16.9595 82.2576C16.7269 82.2576 16.7269 82.5476 16.9021 82.5476Z" fill="#DD0000"/>
<path opacity="0.5" d="M48.2061 74.7699C48.8465 73.6088 50.1262 75.2341 49.7184 76.1625C49.4858 76.6268 49.0197 76.8594 48.5555 77.0336C48.0893 77.2078 47.449 77.2078 47.0422 77.4978C46.9254 77.5552 46.9254 77.672 46.9254 77.7878C47.1006 78.8331 48.7881 78.7163 49.4858 78.4263C50.533 77.962 51.2317 76.9752 51.1734 75.8141C51.1159 74.7699 50.3598 73.9572 49.4858 73.6088C48.6129 73.2604 47.9735 73.8988 47.9151 74.7115C47.8577 74.8273 48.1477 74.8857 48.2061 74.7689V74.7699Z" fill="#DD0000"/>
<path opacity="0.5" d="M48.0894 74.827C48.3804 74.537 48.8456 74.2469 49.195 74.1886C49.4859 74.1311 49.7769 74.1886 50.0679 74.3628C50.2421 74.4786 50.2421 74.4786 50.4173 74.6528C50.3598 74.5379 50.4747 74.827 50.5331 74.827C50.4757 74.6528 50.5915 75.0596 50.5331 74.8854C50.5331 75.0596 50.5331 75.1754 50.4173 75.2912C50.2421 75.6396 49.9521 75.8722 50.0095 76.2781C50.0679 76.6849 50.3005 76.9749 50.7082 76.9749C51.697 77.0907 52.279 75.6396 52.2206 74.827C52.1632 74.0143 51.6386 73.3185 50.9992 72.9126C50.3589 72.5058 49.4869 72.3891 48.7881 72.6217C48.3804 72.7959 48.032 73.0275 47.7984 73.3759C47.5074 73.7243 47.5658 74.1311 47.5658 74.537C47.6233 74.8854 47.9152 75.0596 48.0894 74.827Z" fill="#DD0000"/>
<path opacity="0.5" d="M49.0212 72.9699C49.6616 72.9124 50.3593 73.2015 50.7087 73.7241C50.9997 74.1309 51.1155 75.001 51.6391 74.9436C51.8143 74.9436 51.9885 74.8852 52.0469 74.711C52.512 73.7251 52.0468 72.8541 51.1739 72.273C50.4177 71.693 49.3706 71.8672 48.7886 72.5056C48.6718 72.6798 48.7886 73.0273 49.0212 72.9699Z" fill="#DD0000"/>
<path opacity="0.5" d="M49.4274 72.3887C50.0687 72.4471 50.6497 72.8539 51.0574 73.3171C51.2316 73.5497 51.4058 73.7823 51.5226 74.014C51.6384 74.2466 51.9294 74.4782 52.1046 74.6534C52.2788 74.885 52.6282 74.6534 52.6282 74.4208C52.6282 74.014 52.6282 73.6072 52.3956 73.2597C52.163 72.9113 51.872 72.6213 51.581 72.3312C50.8823 71.8086 50.1835 71.6928 49.3115 71.8086C49.0206 71.9244 49.1373 72.3887 49.4274 72.3887ZM59.8434 94.5043C56.701 95.4328 52.8608 95.0269 50.0677 93.2858C47.9141 91.9506 47.2163 89.2226 48.9038 87.1905C49.9519 85.972 51.8136 85.5652 53.3259 85.8552C55.1886 86.5521 55.3044 87.7131 53.7337 89.3394C53.4427 89.3394 52.3956 89.28 52.2788 88.8742C52.1046 88.1774 51.1149 87.8873 50.6497 88.4674C49.7183 89.6284 50.5329 90.7321 51.6968 91.2537C53.4427 92.0673 55.1886 91.3112 56.0616 89.6868C56.8177 88.2357 56.1774 86.0878 54.8393 85.2168C52.9775 83.9983 50.8823 84.2883 49.0196 85.3336C45.4713 87.3073 46.3443 91.7764 49.1364 93.8659C52.0462 96.0138 56.7594 96.1296 59.9592 94.7379C60.1344 94.7379 60.0176 94.5053 59.8434 94.5053V94.5043Z" fill="#DD0000"/>
<path opacity="0.5" d="M50.359 85.8557C51.4062 85.7409 54.3744 86.1467 53.9676 87.772C53.7924 88.4105 52.9779 88.7579 52.4543 88.8747C51.8723 88.9905 51.4062 88.5847 50.8242 88.5263C50.7203 88.5297 50.62 88.565 50.5368 88.6273C50.4536 88.6896 50.3915 88.776 50.359 88.8747C50.0681 90.21 51.7556 90.5584 52.6869 90.3842C53.8499 90.21 54.8396 89.3389 55.189 88.2363C55.5374 87.1336 54.7812 86.03 53.7341 85.5657C52.6285 85.1015 51.4062 85.2173 50.2423 85.4499C50.1264 85.5657 50.1848 85.8567 50.359 85.8567V85.8557ZM66.8838 82.4893C66.8264 78.6003 64.2075 73.5502 60.2505 72.4476C58.4472 71.9249 56.2945 72.6792 55.8868 74.6529C55.48 76.5108 57.3991 78.7745 59.3786 78.5429C60.7741 78.3687 60.7741 76.5108 59.3786 76.3366C58.7966 76.2792 58.3888 75.8724 58.1562 75.4081C57.5743 74.4213 58.2137 73.6661 59.2034 73.3186C60.7741 72.796 62.1707 74.1312 63.1604 75.1755C64.9063 77.0908 66.2444 79.9356 66.6512 82.4893C66.6512 82.6636 66.8848 82.6061 66.8848 82.4893H66.8838ZM23.7092 83.302C27.8404 86.03 34.0659 89.0489 38.6632 85.7983C41.6305 83.7088 41.6889 78.6578 40.2349 75.7565C38.6049 72.3317 33.4265 71.4607 31.3322 74.8855C28.9459 78.7745 35.8118 80.7482 38.1981 78.3687C39.071 77.4977 37.9655 75.9882 36.8599 76.684C35.8702 77.3234 34.8814 77.5551 33.7759 76.975C33.3681 74.8855 34.0669 73.8403 35.8702 73.7828C36.9173 73.7254 37.8487 74.3055 38.6049 74.9439C40.5259 76.6266 40.6417 79.7614 40.0023 82.0251C38.0229 89.629 28.2482 84.0572 23.9418 82.6636C23.5934 82.4893 23.3598 83.0704 23.7092 83.302Z" fill="#DD0000"/>
<path opacity="0.5" d="M35.3461 73.2015C33.6002 73.144 32.4956 74.7109 33.0775 76.3362C33.6586 77.9615 35.5212 79.0642 37.1504 78.4258C37.3769 78.3431 37.5826 78.212 37.7534 78.0418C37.9241 77.8715 38.0558 77.6661 38.1391 77.4399C38.2559 77.0905 38.1391 76.6263 37.7323 76.5688C37.0336 76.452 36.3348 76.9163 35.6954 76.6263C35.1719 76.3946 34.7057 75.9304 34.5315 75.3494C34.3573 74.5951 34.9967 73.9567 35.5212 73.5499C35.6371 73.4341 35.5212 73.2015 35.3461 73.2015ZM46.0531 66.9319C45.005 67.5713 42.3287 68.4424 41.7467 66.7587C41.63 66.4103 41.9209 65.9451 42.1545 65.7134C42.5029 65.365 42.4455 65.5986 42.5613 65.8876C43.2017 67.2229 45.1801 66.0618 44.5398 64.7266C43.26 61.9412 39.1279 63.7981 39.7099 66.5845C40.0008 67.803 41.2815 68.9066 42.5029 69.0224C44.0746 69.1966 45.2385 68.3256 46.1689 67.1655C46.2857 66.9913 46.1689 66.8171 46.0531 66.9329V66.9319ZM47.5654 90.4996C47.9148 87.4233 44.8308 84.3469 41.7467 85.7396C40.5254 86.2622 40.176 87.8291 40.5828 88.9902C41.1064 90.4412 42.5613 91.1381 44.0162 90.9639C44.4814 90.9064 44.8308 90.3254 44.8308 89.8612C44.8308 89.1644 44.3072 88.8159 43.7252 88.7585C42.6781 88.6417 42.2703 87.8301 43.2017 87.249C44.0746 86.7264 45.1801 87.249 45.8195 87.8291C46.5757 88.5259 47.1002 89.5712 47.2745 90.5571C47.217 90.7897 47.5071 90.7313 47.5654 90.4996ZM61.8791 93.7502C64.498 92.1833 65.8945 89.4544 65.3709 86.4364C64.9631 84.1727 62.7521 81.9664 60.3668 83.0116C58.3883 83.8826 56.6433 86.4948 57.9231 88.5843C59.2028 90.7322 63.1014 90.848 63.7418 88.0617C64.0328 86.9006 62.2869 86.0296 61.7049 87.1907C60.8913 88.8743 59.7848 87.4233 59.8432 86.378C59.9006 84.8695 61.1229 83.5926 62.6946 83.8243C64.7306 84.1143 64.9057 87.3658 64.6722 88.8159C64.3821 90.6154 63.1024 92.2407 61.8217 93.4602C61.5891 93.6344 61.7633 93.8086 61.8791 93.7502ZM54.7223 66.0035C55.2459 66.4103 55.4784 67.0487 55.5368 67.6881C55.5368 68.2682 55.13 68.7908 54.4897 68.674C54.4897 68.674 54.1987 68.5582 54.2571 68.6166C54.3739 68.674 54.1403 68.4998 54.2571 68.6166C54.1997 68.5582 54.1403 68.4424 54.0829 68.384C53.9077 68.0939 54.1403 68.5582 54.0245 68.2682C53.9077 67.9781 54.0245 68.4998 54.0245 68.2107C54.0245 67.9781 53.9671 68.3256 53.9671 68.384C53.9077 68.5582 53.8503 68.4998 53.9671 68.4414C54.1403 68.2682 54.1987 68.0939 54.3155 67.8613C54.4313 67.5139 54.2571 67.0487 54.0245 66.8171C53.3841 66.1786 52.5121 66.4687 52.046 67.1071C51.6966 67.5713 51.6966 68.1514 51.8134 68.674C52.046 69.8351 53.0348 70.6477 54.2571 70.5309C55.5952 70.4161 56.5849 69.3708 56.6424 68.0939C56.7592 66.9329 55.8862 66.0618 54.8974 65.656C54.7223 65.5986 54.5481 65.8876 54.7223 66.0044V66.0035ZM40.8747 81.8505C41.049 81.0963 41.8635 80.5153 42.5613 80.2836C42.6781 80.2262 42.7939 80.2262 42.9107 80.2262H43.1433C43.0274 80.1678 43.0274 80.051 43.0274 79.9936C43.0274 80.2253 43.0274 80.3411 42.9691 80.6321C42.7939 82.0831 45.296 82.1406 45.2376 80.6321C45.1801 79.0068 43.7827 78.3099 42.4455 78.9484C41.8635 79.18 41.4558 79.7026 41.048 80.2253C40.6412 80.7479 40.5828 81.2705 40.5828 81.9089C40.6412 81.9664 40.8738 81.9664 40.8738 81.8515L40.8747 81.8505ZM51.8718 82.1415C52.5705 83.1274 53.9661 82.8374 54.8965 82.3732C56.003 81.7922 56.8759 80.5737 56.4682 79.3542C56.0614 78.2515 54.7807 77.6131 53.6751 77.7289C52.046 77.8457 51.2898 79.5868 52.337 80.8637C53.2099 81.8505 54.8391 80.5737 54.1403 79.471C53.9661 79.2384 54.0245 79.1226 54.0829 79.5284C54.0829 79.7026 53.8503 79.9936 53.9661 79.8768C53.7919 80.051 54.0829 79.8194 54.0829 79.8194C54.1987 79.761 54.3739 79.6452 54.4897 79.5868C54.8974 79.4126 55.2459 79.6442 55.13 80.1094C54.9558 81.2705 52.9764 81.7931 51.9876 81.7931C51.8718 81.7931 51.755 81.9664 51.8718 82.1406V82.1415ZM66.5348 81.5021C65.4293 81.7347 63.9744 81.5021 62.9847 80.9221C62.5195 80.6321 62.2285 80.1085 62.5195 79.6452C62.6362 79.471 62.9847 79.4126 62.8688 79.2968C63.6834 80.5153 65.6619 79.3542 64.8473 78.1357C63.2182 75.8136 59.7264 78.0199 60.9487 80.5153C61.9375 82.4316 65.0215 83.0116 66.5923 81.6763C66.7674 81.6189 66.6507 81.5021 66.5348 81.5021Z" fill="#DD0000"/>
<path opacity="0.5" d="M55.7111 95.8988C62.2295 96.7699 66.1271 92.474 69.2111 87.3656C72.4119 82.0838 74.332 75.0017 72.2368 68.9073C71.538 66.992 70.0841 65.2509 67.9314 65.1925C66.0113 65.1341 65.8945 67.2236 66.0687 68.5589C66.2439 69.8358 67.4078 71.0552 68.164 72.0421C69.5605 73.899 69.8515 75.9311 69.9099 78.2522C69.9673 82.5481 67.6988 85.8561 66.5932 89.8619C66.5349 90.0361 66.7674 90.1519 66.8833 90.0361C69.5605 87.0755 70.7819 82.1413 71.0728 78.2532C71.1896 76.5111 71.0154 74.2474 70.1425 72.6805C69.6189 71.752 69.0369 70.881 68.455 70.01C67.8146 69.2557 67.7562 68.3263 68.164 67.282C69.3279 67.572 69.8515 68.7905 70.3751 69.7199C73.2265 75.1759 71.5964 80.8644 68.8627 86.0303C67.6404 88.3524 66.0103 90.6745 64.0912 92.5315C61.8217 94.7387 58.6783 95.202 55.6536 95.6098C55.5368 95.6098 55.5368 95.8998 55.7111 95.8998V95.8988Z" fill="#DD0000"/>
<path opacity="0.5" d="M70.549 83.3015C72.7026 80.3409 73.2836 76.2202 72.9926 72.6213C72.8184 70.3575 71.5377 65.249 68.4546 65.4807C68.1053 65.4807 67.8727 65.7717 67.9311 66.1201C68.222 67.1644 69.095 67.8038 69.676 68.7322C70.7241 70.2991 71.0151 72.2738 71.1309 74.0723C71.3635 77.1487 70.8399 80.1667 70.0838 83.1847C70.0838 83.3599 70.4331 83.4757 70.549 83.3015Z" fill="#DD0000"/>
<path opacity="0.5" d="M67.5825 66.4101C68.2812 68.2671 69.5609 69.7765 70.2003 71.6928C70.9565 73.8398 70.6665 76.1629 71.3068 78.3098C71.3643 78.5998 71.8304 78.6582 71.9462 78.3672C74.0415 74.885 72.1214 67.3386 68.0476 65.9459C67.7567 65.8885 67.4657 66.1785 67.5825 66.4101ZM59.3775 95.1428C64.441 95.7238 68.1644 89.9769 69.5035 85.7978C69.561 85.5652 69.2709 85.391 69.0967 85.5652C67.525 87.1331 66.8272 89.3384 65.4881 91.0796C63.9184 93.1116 61.6479 94.0401 59.321 94.9111C59.2043 94.9111 59.2043 95.0854 59.3785 95.1428H59.3775Z" fill="#DD0000"/>
<path opacity="0.5" d="M63.3347 94.099C66.9432 92.6479 69.3869 89.6289 71.4229 86.3783C74.1575 82.0251 75.3215 76.6266 78.4639 72.5634C80.093 70.4738 80.4424 73.2018 80.2088 74.7113C79.9762 76.1049 79.22 77.3818 78.5223 78.6003C77.3583 80.6898 76.0776 82.7803 74.6811 84.7531C72.9936 87.1336 70.7251 89.1073 68.1646 90.6158C66.7097 91.4294 63.975 91.8352 63.1021 93.3438C62.9863 93.518 63.1021 93.7506 63.3347 93.7506C68.513 93.0537 72.7036 89.4547 75.7292 85.3915C78.2887 81.9677 83.0019 75.5239 80.9076 70.9965C79.4526 67.8043 75.3215 76.395 75.1472 76.685C72.2374 83.1861 69.4444 89.7457 63.2189 93.6922C62.9853 93.8664 63.1021 94.2148 63.3347 94.099Z" fill="#DD0000"/>
<path opacity="0.5" d="M65.546 92.8221C69.5613 91.2542 72.587 87.8878 75.0316 84.4046C76.4272 82.4319 77.4744 80.284 78.4057 78.0777C79.2786 75.9881 80.5 73.7244 80.5 71.4607C80.5 70.7639 79.4528 70.358 79.1035 71.0548C77.1834 74.8855 76.0788 78.9487 73.8093 82.6635C71.4814 86.4367 68.339 89.2805 65.3718 92.5321C65.3143 92.6469 65.3718 92.8795 65.546 92.8221Z" fill="#DD0000"/>
<path opacity="0.5" d="M79.3939 71.4602C78.9871 73.3172 78.812 75.1751 78.1726 76.9746C77.5322 78.8315 76.6009 80.3994 76.2525 82.3156C76.1941 82.6057 76.5435 82.8373 76.7761 82.6057C79.5107 80.0509 81.8386 75.0009 80.0927 71.3444C79.9759 71.0544 79.4523 71.1118 79.3939 71.4602ZM54.8978 95.3754C61.7636 97.4065 69.6767 92.2406 76.1357 90.1511C77.4155 89.7453 79.0455 89.1652 80.4421 89.3969C81.5476 89.5711 78.3468 91.8348 78.1142 91.9506C77.1254 92.4732 76.0199 92.8216 74.9134 93.1701C69.3866 94.9696 63.567 93.9827 58.0976 95.5496C57.865 95.607 57.9234 95.9555 58.1551 95.9555C64.4983 96.5948 71.4235 96.0138 77.359 93.5759C78.1152 93.2859 84.3416 89.5127 80.9082 88.41C77.9409 87.4815 73.5188 89.8027 70.8415 90.8479C65.6632 92.8216 60.5423 95.0854 54.8987 95.1428C54.8404 95.1428 54.782 95.317 54.8987 95.3754H54.8978Z" fill="#DD0000"/>
<path opacity="0.5" d="M59.6105 95.5503C63.4507 96.5945 67.8729 95.1434 71.5973 94.0992C73.9242 93.4607 80.5575 92.4739 81.3136 89.6291C81.4304 89.2807 81.1394 88.9323 80.7901 88.9323C79.3935 88.9323 77.9396 89.9192 76.6589 90.3843C74.7971 91.0228 72.877 91.5444 71.0153 92.0671C67.2325 93.1123 63.3923 94.0408 59.6105 95.0276C59.3779 95.0851 59.3779 95.4335 59.6105 95.5503Z" fill="#DD0000"/>
<path opacity="0.5" d="M79.976 89.6292C78.8121 90.2676 77.8233 91.0802 76.7761 91.8355C75.6706 92.6481 74.3325 93.1698 72.9934 93.5766C72.7608 93.634 72.7033 94.0408 72.9934 94.0992C76.2526 94.7376 78.3469 92.4155 80.6163 90.4428C81.0241 89.9776 80.4996 89.3391 79.976 89.6292ZM96.1523 82.3737C96.1523 82.3737 83.1184 84.4049 82.0129 84.4049C80.9073 84.4049 79.976 83.4764 79.976 82.3737C79.976 81.2711 80.9073 80.3416 82.0129 80.3416C83.1184 80.3426 96.1523 82.3737 96.1523 82.3737ZM14.2828 82.5479C13.7008 76.4526 14.0502 70.184 14.0502 64.0313V44.4119C14.0502 31.3512 14.0502 18.2905 14.167 5.23071C14.167 4.53387 15.2141 4.53387 15.2141 5.23071C15.1557 18.0588 15.1557 30.9444 15.2141 43.7735C15.2715 56.5423 16.0871 69.5456 15.2141 82.3153C15.1557 83.0122 14.167 83.0122 14.1086 82.3153C13.294 69.9514 14.0502 57.2975 14.1086 44.8762C14.1668 31.6802 14.1668 18.4841 14.1086 5.28813C14.1086 4.59226 15.1557 4.59226 15.1557 5.28813C15.2132 17.9421 15.2715 30.6544 15.2715 43.3083V62.9286C15.2715 69.4298 15.6209 76.1042 15.0389 82.6054C14.9815 83.0706 14.2828 83.0706 14.2828 82.5479Z" fill="#DD0000"/>
<path opacity="0.5" d="M14.5737 79.9358C13.9917 66.1208 -0.497116 57.0075 0.492611 42.7866C0.841982 37.6198 4.15862 32.4539 9.16276 30.6544C15.4466 28.449 21.8473 30.4802 26.7931 34.7176C31.2152 38.5492 34.5903 45.282 30.6333 50.5647C28.248 53.6985 22.1967 56.7174 19.3452 52.479C17.541 49.8095 17.8329 45.3978 20.916 43.7151C24.1742 41.9156 27.375 45.9204 25.9785 48.881C25.3965 50.1004 23.9416 50.2163 22.7787 49.9262C21.6731 49.6352 22.1373 48.0693 23.2438 48.2425L24.6404 47.0241C24.582 46.0372 24.0584 45.4562 23.1854 45.2246C22.3709 44.8761 21.6731 45.2246 21.0911 45.8046C20.043 46.7905 19.9272 48.59 19.9846 49.9262C20.1598 52.8284 22.8945 53.5827 25.3381 53.0026C28.7132 52.189 31.332 48.881 31.623 45.572C32.0882 40.2319 26.9098 35.2986 22.7787 32.8023C17.8319 29.8417 11.6064 29.7259 6.71812 32.9181C-2.30044 38.7234 1.94753 51.1447 6.19454 58.4002C10.2683 65.3665 14.9231 71.5193 14.9231 79.8774C14.8647 80.1684 14.5737 80.1684 14.5737 79.9358Z" fill="#DD0000"/>
<path opacity="0.5" d="M22.3709 48.7651C23.5348 48.1267 21.9057 46.8498 21.0328 47.2556C20.5666 47.4882 20.2766 47.9525 20.1598 48.4167C19.9847 48.8809 19.9847 49.5194 19.6946 49.9262C19.6363 50.042 19.5195 50.042 19.4037 50.042C18.3555 49.8678 18.4723 48.1851 18.7624 47.4882C19.2285 46.443 20.2173 45.7462 21.3822 45.8046C22.4293 45.862 23.2439 46.6172 23.5932 47.4882C23.9416 48.3593 23.3023 48.9967 22.4877 49.0551C22.3125 49.1126 22.2541 48.8235 22.3709 48.7651Z" fill="#DD0000"/>
<path opacity="0.5" d="M22.3128 48.881C22.6038 48.5909 22.8948 48.1267 22.9532 47.7783C23.0106 47.4883 22.9532 47.1982 22.778 46.9073C22.6622 46.733 22.6622 46.733 22.488 46.5588C22.6038 46.6172 22.3128 46.5014 22.3128 46.444C22.488 46.5014 22.0802 46.3846 22.2554 46.444C22.0802 46.444 21.9635 46.444 21.8477 46.5588C21.4983 46.733 21.2657 47.024 20.8579 46.9656C20.4511 46.9082 20.1592 46.6756 20.1592 46.2688C20.0443 45.2829 21.4992 44.7019 22.3128 44.7593C23.1274 44.8177 23.8252 45.3404 24.2329 45.9788C24.6407 46.6172 24.7565 47.4883 24.5239 48.1841C24.3497 48.5909 24.1171 48.9393 23.7678 49.171C23.4184 49.461 23.0116 49.4036 22.6038 49.4036C22.2545 49.3462 22.0803 49.0552 22.3128 48.881Z" fill="#DD0000"/>
<path opacity="0.5" d="M24.1745 47.951C24.2329 47.3136 23.9419 46.6167 23.4183 46.2683C23.0115 45.9783 22.1386 45.8625 22.197 45.3399C22.197 45.1656 22.2544 44.9914 22.4295 44.9331C23.4183 44.4688 24.2913 44.9331 24.8732 45.8041C25.4552 46.5583 25.28 47.6036 24.6406 48.1836C24.4655 48.3004 24.1171 48.1836 24.1745 47.952V47.951Z" fill="#DD0000"/>
<path opacity="0.5" d="M24.7555 47.5456C24.6981 46.9071 24.2904 46.3271 23.8252 45.9203C23.5926 45.7461 23.359 45.5719 23.1264 45.4561C22.8938 45.3402 22.6612 45.0502 22.487 44.876C22.2535 44.7018 22.487 44.3534 22.7196 44.3534C23.1264 44.3534 23.5332 44.3534 23.8835 44.585C24.232 44.8176 24.5229 45.1076 24.8139 45.3986C25.3375 46.0945 25.4543 46.7913 25.3375 47.6614C25.2217 47.9524 24.7555 47.8356 24.7555 47.5465V47.5456ZM2.58725 37.1554C1.65592 40.2902 2.06272 44.1208 3.80862 46.9071C5.14675 49.0551 7.88141 49.7519 9.91829 48.0682C11.1397 47.0239 11.5474 45.166 11.2564 43.6566C10.5577 41.7996 9.39472 41.6829 7.7656 43.2507C7.7656 43.5407 7.82303 44.585 8.23079 44.7018C8.92953 44.876 9.21955 45.8629 8.63759 46.3271C7.47461 47.2556 6.36907 46.4429 5.84454 45.2819C5.03093 43.5398 5.7871 41.7996 7.41623 40.9286C8.87114 40.1743 11.0238 40.8128 11.8958 42.1471C13.1181 44.005 12.8272 46.0945 11.781 47.9524C9.80152 51.493 5.32096 50.6229 3.22665 47.8356C1.07299 44.9334 0.95813 40.2318 2.3537 37.0386C2.3537 36.8654 2.5863 36.9812 2.5863 37.1554H2.58725Z" fill="#DD0000"/>
<path opacity="0.5" d="M11.2566 46.5588C11.3734 45.5145 10.9657 42.554 9.33654 42.9598C8.69618 43.134 8.34681 43.9467 8.23099 44.4693C8.11422 45.0503 8.52197 45.5145 8.58036 46.0946C8.58036 46.3272 8.4052 46.5014 8.23099 46.5588C6.89285 46.8488 6.60187 45.1661 6.71865 44.2377C6.89285 43.0766 7.7658 42.0897 8.87135 41.7413C9.97689 41.3929 11.0824 42.1472 11.5476 43.1924C12.0128 44.2951 11.897 45.5145 11.7218 46.6756C11.5476 46.8488 11.2566 46.7905 11.2566 46.5588ZM14.6317 30.1317C18.5303 30.1901 23.5928 32.8022 24.6983 36.7496C25.2219 38.5491 24.4648 40.6961 22.4872 41.1029C20.6246 41.5087 18.3551 39.5934 18.5886 37.6197C18.6052 37.3377 18.7289 37.0728 18.9345 36.879C19.14 36.6853 19.4117 36.5773 19.6942 36.5773C19.9766 36.5773 20.2484 36.6853 20.4539 36.879C20.6594 37.0728 20.7831 37.3377 20.7997 37.6197C20.8572 38.2007 21.2649 38.6066 21.7301 38.8392C22.7198 39.4192 23.476 38.7817 23.8254 37.7939C24.349 36.227 23.0108 34.8334 21.9627 33.8475C20.0426 32.1054 17.1921 30.7701 14.6307 30.3643C14.4574 30.3643 14.5158 30.1317 14.6307 30.1317H14.6317ZM13.8171 73.2019C11.0824 69.0813 8.05582 62.8701 11.315 58.2843C13.4093 55.3237 18.4719 55.2663 21.3817 56.659C24.8141 58.2843 25.6871 63.4502 22.2537 65.5407C18.3551 67.9202 16.3766 61.0706 18.7628 58.6911C19.6358 57.82 21.1481 58.9227 20.4504 60.0254C19.81 61.0122 19.5774 61.9991 20.1594 63.1027C22.2537 63.5086 23.3018 62.8117 23.3592 61.0122C23.4176 59.968 22.8356 59.0385 22.1963 58.2843C20.5087 56.369 17.3663 56.2531 15.0968 56.8916C7.47482 58.8653 13.0609 68.617 14.4565 72.9119C14.6317 73.3187 14.0497 73.5503 13.8171 73.2019Z" fill="#DD0000"/>
<path opacity="0.5" d="M23.9419 61.5931C23.9993 63.3352 22.4286 64.4369 20.7995 63.8568C19.1694 63.2758 18.0639 61.4189 18.7042 59.7936C18.7876 59.5671 18.9193 59.3614 19.0902 59.191C19.2611 59.0205 19.4672 58.8894 19.6939 58.8067C20.0424 58.6909 20.5075 58.8067 20.5659 59.2135C20.6827 59.9094 20.2175 60.6062 20.5085 61.2447C20.7411 61.7673 21.2072 62.2315 21.7883 62.4057C22.5444 62.5799 23.1848 61.9415 23.5925 61.4189C23.7084 61.3031 23.941 61.4189 23.941 61.5931H23.9419ZM30.2258 50.9129C29.5845 51.9572 28.7135 54.6267 30.4 55.2077C30.7494 55.3236 31.2146 55.0335 31.4472 54.8019C31.7965 54.4535 31.5639 54.5109 31.273 54.3951C29.9348 53.7567 31.0988 51.783 32.4369 52.4214C35.2299 53.6983 33.3673 57.8199 30.5742 57.2398C29.3529 56.9489 28.2473 55.672 28.1305 54.4535C27.9563 52.8856 28.8293 51.7255 29.9922 50.7971C30.1674 50.6803 30.3416 50.7971 30.2258 50.9119V50.9129ZM6.60163 49.4034C9.68567 49.055 12.7697 52.1314 11.3732 55.2077C10.8496 56.4272 9.27791 56.7756 8.11398 56.3688C6.65907 55.8462 5.96128 54.3951 6.13549 52.944C6.19387 52.4798 6.7768 52.1314 7.24199 52.1314C7.93977 52.1314 8.28914 52.654 8.34657 53.234C8.46335 54.2793 9.27791 54.6851 9.85987 53.7567C10.3835 52.8856 9.85987 51.783 9.27791 51.1445C8.57917 50.3903 7.53201 49.8676 6.54325 49.6934C6.31065 49.7509 6.36904 49.4034 6.60068 49.4034H6.60163ZM3.34339 35.1242C4.91317 32.5111 7.64879 31.1184 10.6754 31.641C12.9439 32.0478 15.155 34.2531 14.1078 36.6327C13.2349 38.6064 10.616 40.3475 8.46335 39.0706C6.30969 37.7938 6.19483 33.9047 8.98692 33.2663C10.1509 32.9763 11.0238 34.7174 9.85987 35.2984C8.17237 36.111 9.62728 37.2127 10.6744 37.1553C12.1868 37.0979 13.4675 35.8784 13.2349 34.3115C12.9439 32.2794 9.68567 32.1052 8.23076 32.3378C6.42647 32.6279 4.79735 33.9047 3.57598 35.1816C3.45921 35.4142 3.285 35.24 3.34339 35.1242ZM31.1562 42.2638C30.7494 41.7412 30.109 41.5086 29.4687 41.4502C28.8867 41.4502 28.3631 41.857 28.4799 42.4954C28.4799 42.4954 28.5957 42.7864 28.5373 42.728C28.4799 42.6122 28.6541 42.8438 28.5373 42.728C28.5957 42.7854 28.7125 42.8438 28.7709 42.9022C29.0619 43.0764 28.5957 42.8448 28.8867 42.9597C29.1777 43.0764 28.6541 42.9597 28.9451 42.9597C29.1777 42.9597 28.8293 43.018 28.7709 43.018C28.5957 43.0755 28.6541 43.1339 28.7135 43.018C28.8867 42.8438 29.0619 42.7864 29.2945 42.6696C29.6438 42.5538 30.109 42.7271 30.3416 42.9606C30.982 43.5991 30.691 44.4691 30.0506 44.9334C29.5855 45.2818 29.0035 45.2818 28.4799 45.166C27.316 44.9334 26.5014 43.9465 26.6182 42.728C26.734 41.3928 27.7812 40.4059 29.1203 40.3485C30.2832 40.2317 31.1562 41.1027 31.5639 42.0896C31.5639 42.2638 31.273 42.3796 31.1562 42.2638ZM15.2708 56.0204C16.027 55.8462 16.6099 55.0345 16.8425 54.3377C16.8999 54.2209 16.8999 54.1051 16.8999 53.9893V53.7567C16.9583 53.8725 17.0751 53.8725 17.1335 53.8725C16.9009 53.8725 16.7841 53.8725 16.4931 53.9309C15.0966 54.1051 14.9808 51.6087 16.4931 51.6671C18.1223 51.7246 18.821 53.1182 18.1806 54.4525C17.9481 55.0335 17.4245 55.4403 16.9009 55.8462C16.3773 56.253 15.8528 56.3104 15.2134 56.3104C15.155 56.3104 15.155 56.0788 15.2708 56.0204ZM14.9808 45.1085C13.9911 44.4117 14.2821 43.018 14.7472 42.0896C15.3292 40.9869 16.5515 40.1159 17.7738 40.5217C18.8784 40.9285 19.5188 42.2064 19.403 43.3081C19.2862 44.9334 17.5403 45.6886 16.2605 44.6433C15.2708 43.7723 16.5515 42.147 17.6571 42.8438C17.8897 43.018 18.0064 42.9597 17.5996 42.9013C17.4245 42.9013 17.1335 43.1339 17.2493 43.018C17.0751 43.1923 17.3077 42.9022 17.3077 42.9022C17.3661 42.7864 17.4819 42.6122 17.5403 42.4954C17.7155 42.0896 17.4829 41.7412 17.0167 41.857C15.8528 42.0312 15.3292 44.0049 15.3292 44.9918C15.3292 45.1076 15.155 45.2234 14.9808 45.1076V45.1085ZM15.6202 30.4799C15.3876 31.5826 15.6202 33.0337 16.2022 34.0215C16.4931 34.4857 17.0167 34.7758 17.4829 34.4857C17.6571 34.369 17.7155 34.0206 17.8313 34.1373C16.6099 33.3237 17.7738 31.351 18.9952 32.1636C21.3231 33.7889 19.112 37.2711 16.6099 36.0526C14.6898 35.0658 14.1078 31.9894 15.446 30.4225C15.5034 30.2483 15.6202 30.3641 15.6202 30.4799Z" fill="#DD0000"/>
<path opacity="0.5" d="M1.19044 41.2767C0.317493 34.7755 4.62385 30.8865 9.74381 27.8092C15.0389 24.617 22.1383 22.7016 28.248 24.7912C30.1681 25.488 31.914 26.9391 31.9715 29.087C32.0298 31.0023 29.9355 31.1181 28.5974 30.9439C27.3167 30.7707 26.0944 29.6096 25.1056 28.8544C23.2439 27.4617 21.207 27.1717 18.8791 27.1133C14.5737 27.0559 11.2571 29.3186 7.24269 30.4223C7.06753 30.4797 6.95075 30.248 7.06753 30.1313C10.0348 27.4607 14.9815 26.2422 18.8791 25.9522C20.625 25.8364 22.8945 26.0097 24.4653 26.8807C25.3966 27.4033 26.2695 27.9843 27.1425 28.5644C27.8987 29.2028 28.83 29.2612 29.8772 28.8544C29.5862 27.6933 28.3648 27.1717 27.4335 26.649C21.9632 23.8043 16.2613 25.4296 11.0829 28.1585C8.75504 29.377 6.42718 31.0023 4.56546 32.9176C2.35437 35.1814 1.88918 38.3161 1.48142 41.3351C1.48142 41.4499 1.19044 41.4499 1.19044 41.2767Z" fill="#DD0000"/>
<path opacity="0.5" d="M13.8169 26.4748C16.7842 24.3269 20.9154 23.7469 24.523 24.0369C26.7925 24.2111 31.9124 25.488 31.6798 28.5643C31.6798 28.9128 31.3889 29.1444 31.0404 29.087C29.9933 28.7969 29.3529 27.9259 28.4216 27.3449C26.8509 26.3006 24.8724 26.0106 23.0681 25.8938C19.9841 25.6622 16.9584 26.1848 13.9328 26.9391C13.7585 26.9391 13.6418 26.5906 13.8169 26.4748Z" fill="#DD0000"/>
<path opacity="0.5" d="M30.7501 29.4353C28.8875 28.7385 27.3751 27.4616 25.455 26.8222C23.3014 26.0679 20.9745 26.3589 18.8218 25.7205C18.5308 25.6621 18.4724 25.1978 18.7634 25.082C22.2542 22.9915 29.8188 24.9078 31.2163 28.9711C31.2737 29.2027 30.9827 29.5511 30.7501 29.4353ZM1.94667 37.5617C1.36566 32.5117 7.12501 28.7968 11.3155 27.4616C11.5481 27.4041 11.7224 27.6932 11.5481 27.8674C9.97741 29.4353 7.76632 30.1312 6.02043 31.4664C3.98355 33.0343 3.05317 35.298 2.18022 37.6192C2.18022 37.7934 2.00506 37.736 1.94763 37.5617H1.94667Z" fill="#DD0000"/>
<path opacity="0.5" d="M2.9952 33.6727C4.45012 30.0737 7.53319 27.6358 10.734 25.6037C15.0987 22.8757 20.5097 21.7146 24.5825 18.5808C26.6768 16.9546 23.9421 16.6071 22.4288 16.8388C21.0333 17.0714 19.7526 17.8256 18.5312 18.5225C16.4359 19.6835 14.3416 20.9604 12.3631 22.3531C9.97783 24.0368 7.99838 26.3005 6.48603 28.8543C5.67243 30.3053 5.26467 33.0343 3.75137 33.9043C3.57716 34.0211 3.34457 33.9043 3.34457 33.6727C4.04235 28.5059 7.64997 24.3268 11.7228 21.3088C15.1562 18.7541 21.6152 14.0534 26.1532 16.1419C29.354 17.594 20.7423 21.7146 20.4513 21.8889C13.9339 24.791 7.35898 27.5774 3.402 33.7885C3.22779 34.0211 2.87843 33.9043 2.9952 33.6727Z" fill="#DD0000"/>
<path opacity="0.5" d="M4.27432 31.4664C5.84506 27.4616 9.22008 24.4436 12.7119 22.0047C14.6904 20.612 16.8431 19.5667 19.0541 18.6383C21.1485 17.7672 23.4189 16.5487 25.6874 16.5487C26.3861 16.5487 26.7929 17.594 26.0942 17.9424C22.254 19.8567 18.1812 20.9604 14.4568 23.2241C10.6759 25.5462 7.82355 28.68 4.56531 31.6406C4.44949 31.698 4.21594 31.6406 4.27432 31.4664Z" fill="#DD0000"/>
<path opacity="0.5" d="M25.6878 17.6518C23.8261 18.0586 21.9644 18.2328 20.1601 18.8713C18.2984 19.5097 16.7267 20.4382 14.8066 20.7866C14.5156 20.844 14.283 20.4966 14.5156 20.264C17.0761 17.536 22.1386 15.2139 25.8036 16.9559C26.0946 17.0708 26.0372 17.5944 25.6878 17.6518ZM1.71425 42.0896C-0.321672 35.24 4.85668 27.3461 6.95099 20.9024C7.35875 19.6255 7.94072 18.0002 7.70716 16.6075C7.53296 15.5049 5.26444 18.6971 5.14767 18.9287C4.62409 19.9155 4.27472 21.0192 3.92535 22.1218C2.12202 27.6352 3.11174 33.4405 1.54005 38.8964C1.48261 39.129 1.13325 39.0716 1.13325 38.839C0.491938 32.512 1.07486 25.6041 3.51854 19.6255C3.80952 18.8713 7.59135 12.6601 8.6969 16.084C9.62823 19.0455 7.30037 23.4571 6.25321 26.1267C4.27472 31.2926 2.00524 36.4011 1.94781 42.0312C1.94781 42.147 1.77264 42.2054 1.71425 42.0886V42.0896Z" fill="#DD0000"/>
<path opacity="0.5" d="M1.59817 37.3878C0.551017 33.5562 2.00497 29.1446 3.05309 25.4297C3.69248 23.1086 4.68221 16.4906 7.5327 15.7364C7.88207 15.6205 8.23145 15.9106 8.23145 16.259C8.23145 17.6517 7.24172 19.1028 6.77652 20.3797C6.13617 22.2366 5.61259 24.1529 5.08901 26.0107C4.04186 29.7839 3.11052 33.6146 2.12175 37.3878C2.00497 37.6194 1.65656 37.6194 1.59817 37.3878Z" fill="#DD0000"/>
<path opacity="0.5" d="M7.53305 17.0714C6.89365 18.2325 6.07814 19.2193 5.32197 20.2636C4.50836 21.3663 3.98382 22.7016 3.57702 24.0368C3.51863 24.2694 3.11088 24.3269 3.05345 24.0368C2.41214 20.7862 4.74096 18.6958 6.71945 16.433C7.12625 15.9688 7.7666 16.5488 7.53305 17.0714ZM14.7483 0.934311C14.7483 0.934311 12.7124 13.9367 12.7124 15.0393C12.7124 16.142 13.6427 17.0714 14.7483 17.0714C15.8538 17.0714 16.7852 16.143 16.7852 15.0393C16.7852 13.9367 14.7483 0.934311 14.7483 0.934311Z" fill="#DD0000"/>
</g>
</svg>
