<svg width="40" height="30" viewBox="0 0 40 30" fill="none" xmlns="http://www.w3.org/2000/svg">
<g clip-path="url(#clip0_9_318)">
<path d="M38.0373 7.4368C37.8886 7.43608 37.7413 7.46544 37.6037 7.5232C37.4662 7.58096 37.3413 7.66597 37.2361 7.77332C37.131 7.88067 37.0477 8.00822 36.9911 8.14861C36.9346 8.28901 36.9058 8.43945 36.9065 8.59126C36.9061 8.77767 36.9503 8.96136 37.0353 9.12633C37.1203 9.29131 37.2435 9.43257 37.3942 9.53781C36.526 11.8741 34.1035 17.9583 32.4957 17.9583C30.8879 17.9583 29.28 10.8455 28.7441 8.30675C28.8596 8.19901 28.9521 8.06806 29.0157 7.92213C29.0793 7.7762 29.1128 7.61842 29.1139 7.45869C29.1146 7.30688 29.0858 7.15643 29.0293 7.01604C28.9727 6.87564 28.8894 6.74809 28.7843 6.64074C28.6791 6.5334 28.5542 6.44839 28.4167 6.39063C28.2791 6.33287 28.1318 6.3035 27.983 6.30423C27.6831 6.30423 27.3955 6.42586 27.1834 6.64236C26.9714 6.85886 26.8522 7.1525 26.8522 7.45869C26.8529 7.64276 26.8971 7.82393 26.9811 7.98682C27.0651 8.1497 27.1863 8.28949 27.3346 8.39429C26.7182 10.8072 25.0568 16.8257 23.8402 16.8257C22.7683 16.8257 21.048 7.64471 20.3512 3.69438C20.6914 3.54844 20.982 3.30361 21.1868 2.99035C21.3917 2.6771 21.5018 2.30925 21.5035 1.93259C21.4993 1.4213 21.2966 0.932596 20.9399 0.57362C20.5833 0.214644 20.1018 0.0146942 19.6009 0.0176096C19.3532 0.0161685 19.1076 0.0645592 18.8782 0.160017C18.6487 0.255475 18.44 0.396131 18.2638 0.573954C18.0876 0.751777 17.9475 0.963285 17.8514 1.1964C17.7553 1.42952 17.7051 1.67968 17.7037 1.93259C17.704 2.31458 17.8165 2.68769 18.0267 3.00371C18.2369 3.31973 18.5351 3.56413 18.8828 3.70532C18.186 7.67207 16.471 16.8366 15.3938 16.8366C14.0968 16.8366 12.3067 10.0521 11.7976 8.0113C11.9595 7.91027 12.0936 7.76891 12.1874 7.60047C12.2811 7.43204 12.3314 7.24205 12.3335 7.04833C12.3343 6.89653 12.3055 6.74608 12.2489 6.60568C12.1923 6.46529 12.1091 6.33774 12.0039 6.23039C11.8988 6.12304 11.7738 6.03804 11.6363 5.98027C11.4988 5.92251 11.3514 5.89315 11.2027 5.89387C11.0545 5.89387 10.9077 5.92377 10.7708 5.98185C10.6339 6.03994 10.5095 6.12506 10.405 6.23234C10.3004 6.33961 10.2176 6.46692 10.1614 6.60695C10.1051 6.74699 10.0765 6.89699 10.0772 7.04833C10.0771 7.2374 10.1226 7.42358 10.2095 7.59053C10.2964 7.75749 10.4221 7.90009 10.5757 8.00583C10.1469 10.1944 8.49083 17.9692 6.7651 17.9692C5.15727 17.9692 2.76697 11.9507 1.88266 9.60347C2.00683 9.49669 2.10666 9.36352 2.17516 9.21325C2.24366 9.06299 2.27919 8.89926 2.27926 8.73352C2.27785 8.42778 2.15825 8.13497 1.94648 7.91878C1.73471 7.70259 1.4479 7.58049 1.14842 7.57906C0.848934 7.58049 0.562119 7.70259 0.35035 7.91878C0.138582 8.13497 0.0189875 8.42778 0.0175781 8.73352C0.0177636 9.02012 0.12287 9.29631 0.312258 9.50787C0.501646 9.71944 0.761642 9.85111 1.04123 9.87704L3.31363 21.6843H19.6384H35.9632L38.2624 9.74572C38.5212 9.6982 38.7554 9.55923 38.9239 9.35317C39.0925 9.1471 39.1846 8.88707 39.1843 8.61862C39.1879 8.46334 39.1608 8.3089 39.1045 8.16457C39.0483 8.02023 38.9641 7.88896 38.8571 7.77862C38.75 7.66828 38.6222 7.58113 38.4813 7.52239C38.3405 7.46366 38.1895 7.43455 38.0373 7.4368ZM11.3099 12.1914C11.3793 12.1905 11.4481 12.2043 11.5121 12.2318C11.576 12.2594 11.6337 12.3001 11.6815 12.3515C11.7293 12.4028 11.7662 12.4637 11.7899 12.5304C11.8135 12.597 11.8235 12.6679 11.819 12.7386C11.8125 12.8743 11.7568 13.0027 11.6627 13.0987C11.5686 13.1948 11.4428 13.2517 11.3099 13.2583C11.1779 13.2504 11.0534 13.1929 10.9605 13.097C10.8675 13.001 10.8125 12.8734 10.8061 12.7386C10.8017 12.6683 10.8115 12.5979 10.8348 12.5317C10.8582 12.4654 10.8946 12.4048 10.9418 12.3535C10.989 12.3022 11.0461 12.2613 11.1094 12.2335C11.1727 12.2056 11.2409 12.1913 11.3099 12.1914ZM11.3099 18.1005L10.1844 16.1746L11.3099 14.2487L12.4407 16.1746L11.3099 18.1005ZM19.5848 10.0193C19.8293 10.0193 20.0638 10.1184 20.2367 10.2949C20.4095 10.4714 20.5067 10.7108 20.5067 10.9604C20.5067 11.2105 20.4097 11.4504 20.237 11.6278C20.0643 11.8051 19.8298 11.9055 19.5848 11.9069C19.3399 11.9055 19.1054 11.8051 18.9327 11.6278C18.76 11.4504 18.663 11.2105 18.663 10.9604C18.663 10.7108 18.7601 10.4714 18.933 10.2949C19.1059 10.1184 19.3404 10.0193 19.5848 10.0193ZM19.5848 20.7596L17.5322 17.2579L19.5848 13.7562L21.6375 17.2579L19.5848 20.7596ZM27.967 18.1005L26.8361 16.1746L27.967 14.2487L29.0978 16.1746L27.967 18.1005Z" fill="#DD0000"/>
</g>
<path d="M33.3612 30.0007L35.834 21.5391L30.5351 20.834H21.7036H8.98616H3.33398L5.10029 30.0007H33.3612Z" fill="#DD0000"/>
<defs>
<clipPath id="clip0_9_318">
<rect width="39.1667" height="21.6667" fill="white"/>
</clipPath>
</defs>
</svg>
