<svg width="55" height="30" viewBox="0 0 55 30" fill="none" xmlns="http://www.w3.org/2000/svg">
<path d="M53.4119 10.2952C53.2031 10.2942 52.9961 10.3349 52.803 10.4149C52.6099 10.4948 52.4345 10.6125 52.2868 10.7612C52.1392 10.9098 52.0222 11.0864 51.9428 11.2808C51.8633 11.4752 51.8229 11.6835 51.8239 11.8937C51.8233 12.1518 51.8854 12.4062 52.0048 12.6346C52.1241 12.863 52.2972 13.0586 52.5088 13.2043C51.2896 16.4392 47.8878 24.8634 45.63 24.8634C43.3722 24.8634 41.1144 15.0149 40.3618 11.4998C40.524 11.3506 40.6539 11.1693 40.7432 10.9672C40.8326 10.7652 40.8796 10.5467 40.8811 10.3255C40.8821 10.1153 40.8417 9.90703 40.7623 9.71264C40.6828 9.51825 40.5659 9.34163 40.4182 9.193C40.2706 9.04437 40.0951 8.92666 39.902 8.84669C39.7089 8.76671 39.5019 8.72605 39.2931 8.72705C38.872 8.72705 38.4681 8.89546 38.1703 9.19524C37.8725 9.49501 37.7051 9.90159 37.7051 10.3255C37.7061 10.5804 37.7682 10.8313 37.8862 11.0568C38.0041 11.2823 38.1743 11.4759 38.3825 11.621C37.517 14.9619 35.1839 23.2952 33.4755 23.2952C31.9703 23.2952 29.5545 10.5831 28.5761 5.11341C29.0537 4.91134 29.4618 4.57234 29.7495 4.13861C30.0372 3.70487 30.1919 3.19555 30.1942 2.67402C30.1882 1.96608 29.9036 1.28941 29.4028 0.792365C28.902 0.295321 28.2258 0.0184679 27.5225 0.0225045C27.1746 0.0205091 26.8297 0.0875116 26.5075 0.219684C26.1854 0.351856 25.8922 0.546611 25.6448 0.792828C25.3974 1.03904 25.2006 1.3319 25.0657 1.65468C24.9307 1.97745 24.8602 2.32383 24.8583 2.67402C24.8587 3.20292 25.0167 3.71954 25.3119 4.1571C25.607 4.59467 26.0258 4.93307 26.514 5.12857C25.5356 10.621 23.1273 23.3104 21.6146 23.3104C19.7933 23.3104 17.2796 13.9164 16.5646 11.0907C16.792 10.9508 16.9803 10.7551 17.112 10.5219C17.2436 10.2886 17.3142 10.0256 17.3172 9.75735C17.3182 9.54716 17.2778 9.33884 17.1984 9.14445C17.1189 8.95006 17.002 8.77345 16.8543 8.62482C16.7067 8.47618 16.5312 8.35848 16.3381 8.2785C16.145 8.19853 15.938 8.15787 15.7292 8.15887C15.521 8.15887 15.3149 8.20027 15.1227 8.28069C14.9304 8.36111 14.7559 8.47898 14.609 8.62751C14.4621 8.77604 14.3459 8.95232 14.2669 9.14621C14.1879 9.3401 14.1478 9.5478 14.1488 9.75735C14.1487 10.0191 14.2124 10.2769 14.3345 10.5081C14.4565 10.7393 14.6331 10.9367 14.8487 11.0831C14.2466 14.1134 11.9211 24.8786 9.4977 24.8786C7.2399 24.8786 3.88331 16.5452 2.64152 13.2952C2.81588 13.1474 2.95606 12.963 3.05226 12.7549C3.14845 12.5469 3.19834 12.3202 3.19843 12.0907C3.19645 11.6674 3.02851 11.2619 2.73114 10.9626C2.43376 10.6632 2.031 10.4942 1.61045 10.4922C1.1899 10.4942 0.787135 10.6632 0.489758 10.9626C0.192381 11.2619 0.02444 11.6674 0.0224609 12.0907C0.0227213 12.4875 0.170318 12.8699 0.436267 13.1629C0.702216 13.4558 1.06732 13.6381 1.45993 13.674L4.65096 30.0225H50.4993L53.728 13.4922C54.0914 13.4264 54.4203 13.234 54.6569 12.9487C54.8936 12.6633 55.023 12.3033 55.0225 11.9316C55.0276 11.7166 54.9895 11.5028 54.9105 11.3029C54.8316 11.1031 54.7134 10.9213 54.563 10.7685C54.4126 10.6157 54.2332 10.4951 54.0354 10.4137C53.8376 10.3324 53.6255 10.2921 53.4119 10.2952ZM15.8797 16.8786C15.9772 16.8773 16.0739 16.8964 16.1637 16.9345C16.2535 16.9726 16.3345 17.029 16.4016 17.1002C16.4687 17.1713 16.5205 17.2556 16.5538 17.3478C16.587 17.4401 16.6009 17.5382 16.5947 17.6361C16.5856 17.8241 16.5073 18.0018 16.3752 18.1349C16.243 18.2679 16.0664 18.3467 15.8797 18.3558C15.6944 18.3448 15.5196 18.2653 15.389 18.1324C15.2585 17.9996 15.1813 17.8228 15.1723 17.6361C15.1661 17.5389 15.1798 17.4414 15.2126 17.3496C15.2454 17.2579 15.2965 17.174 15.3628 17.1029C15.4292 17.0319 15.5093 16.9754 15.5982 16.9368C15.6871 16.8982 15.7829 16.8784 15.8797 16.8786ZM15.8797 25.0604L14.2993 22.3937L15.8797 19.7271L17.4677 22.3937L15.8797 25.0604ZM27.4999 13.871C27.8432 13.871 28.1725 14.0083 28.4152 14.2526C28.658 14.497 28.7944 14.8284 28.7944 15.174C28.7944 15.5203 28.6582 15.8525 28.4157 16.0981C28.1731 16.3437 27.8439 16.4826 27.4999 16.4846C27.1559 16.4826 26.8266 16.3437 26.5841 16.0981C26.3416 15.8525 26.2054 15.5203 26.2054 15.174C26.2054 14.8284 26.3418 14.497 26.5846 14.2526C26.8273 14.0083 27.1566 13.871 27.4999 13.871ZM27.4999 28.7422L24.6174 23.8937L27.4999 19.0452L30.3823 23.8937L27.4999 28.7422ZM39.2705 25.0604L37.6826 22.3937L39.2705 19.7271L40.8585 22.3937L39.2705 25.0604Z" fill="#DD0000"/>
</svg>
