<svg width="63" height="34" viewBox="0 0 63 34" fill="none" xmlns="http://www.w3.org/2000/svg">
<path d="M61.1806 11.6679C60.9414 11.6667 60.7043 11.7128 60.4831 11.8035C60.2619 11.8941 60.061 12.0275 59.8918 12.1959C59.7227 12.3644 59.5887 12.5646 59.4977 12.7849C59.4067 13.0052 59.3605 13.2413 59.3616 13.4795C59.3609 13.772 59.432 14.0602 59.5687 14.3191C59.7055 14.578 59.9037 14.7997 60.1461 14.9648C58.7495 18.631 54.853 28.1785 52.2668 28.1785C49.6806 28.1785 47.0944 17.0169 46.2323 13.033C46.4181 12.8639 46.5668 12.6585 46.6692 12.4295C46.7716 12.2005 46.8253 11.9529 46.8271 11.7022C46.8283 11.464 46.782 11.2279 46.691 11.0076C46.6 10.7873 46.466 10.5871 46.2969 10.4187C46.1278 10.2502 45.9268 10.1168 45.7056 10.0262C45.4844 9.93554 45.2473 9.88945 45.0081 9.89059C44.5257 9.89059 44.0631 10.0815 43.722 10.4212C43.3808 10.7609 43.1892 11.2217 43.1892 11.7022C43.1903 11.9911 43.2615 12.2754 43.3965 12.531C43.5316 12.7866 43.7266 13.0059 43.965 13.1704C42.9737 16.9568 40.3013 26.4012 38.3444 26.4012C36.6202 26.4012 33.853 11.9941 32.7323 5.79514C33.2794 5.56612 33.7468 5.18193 34.0764 4.69036C34.4059 4.19879 34.5831 3.62156 34.5857 3.03049C34.5789 2.22816 34.2529 1.46127 33.6792 0.897949C33.1055 0.334633 32.331 0.0208651 31.5254 0.02544C31.1269 0.0231785 30.7319 0.0991147 30.3628 0.24891C29.9938 0.398705 29.658 0.619427 29.3746 0.898473C29.0913 1.17752 28.8658 1.50942 28.7112 1.87524C28.5567 2.24105 28.4759 2.6336 28.4737 3.03049C28.4742 3.62991 28.6551 4.21541 28.9932 4.71132C29.3313 5.20723 29.811 5.59075 30.3702 5.81231C29.2495 12.0371 26.4909 26.4184 24.7582 26.4184C22.6719 26.4184 19.7926 15.7719 18.9737 12.5694C19.2341 12.4109 19.4499 12.189 19.6007 11.9247C19.7514 11.6604 19.8323 11.3623 19.8357 11.0583C19.8369 10.82 19.7906 10.584 19.6996 10.3636C19.6086 10.1433 19.4747 9.94318 19.3055 9.77473C19.1364 9.60628 18.9354 9.47288 18.7142 9.38224C18.493 9.2916 18.256 9.24552 18.0168 9.24665C17.7783 9.24665 17.5422 9.29357 17.322 9.38472C17.1018 9.47587 16.9018 9.60944 16.7336 9.77778C16.5654 9.94612 16.4322 10.1459 16.3418 10.3656C16.2513 10.5854 16.2053 10.8208 16.2064 11.0583C16.2063 11.355 16.2794 11.6471 16.4192 11.9091C16.559 12.1711 16.7612 12.3949 17.0082 12.5608C16.3185 15.9951 13.6547 28.1956 10.8788 28.1956C8.29264 28.1956 4.44781 18.7512 3.0254 15.0679C3.22513 14.9003 3.3857 14.6913 3.49588 14.4555C3.60607 14.2197 3.66322 13.9628 3.66332 13.7027C3.66106 13.2229 3.46869 12.7635 3.12806 12.4242C2.78742 12.0849 2.32608 11.8934 1.84436 11.8911C1.36264 11.8934 0.901291 12.0849 0.560658 12.4242C0.220026 12.7635 0.0276576 13.2229 0.0253906 13.7027C0.0256889 14.1525 0.194754 14.5859 0.499387 14.9179C0.804019 15.2498 1.22223 15.4565 1.67195 15.4972L5.32712 34.0254H57.8444L61.5426 15.2911C61.9589 15.2165 62.3356 14.9985 62.6067 14.6751C62.8778 14.3517 63.026 13.9437 63.0254 13.5224C63.0312 13.2787 62.9876 13.0364 62.8972 12.8099C62.8068 12.5834 62.6714 12.3774 62.4991 12.2043C62.3269 12.0311 62.1213 11.8943 61.8948 11.8022C61.6682 11.71 61.4253 11.6643 61.1806 11.6679ZM18.1892 19.129C18.3008 19.1276 18.4115 19.1491 18.5144 19.1924C18.6173 19.2356 18.7101 19.2995 18.787 19.3801C18.8639 19.4607 18.9232 19.5563 18.9613 19.6608C18.9993 19.7654 19.0153 19.8766 19.0082 19.9876C18.9977 20.2005 18.9081 20.402 18.7567 20.5528C18.6053 20.7035 18.403 20.7928 18.1892 20.8032C17.9769 20.7908 17.7767 20.7006 17.6271 20.55C17.4775 20.3994 17.3891 20.1991 17.3788 19.9876C17.3718 19.8773 17.3875 19.7668 17.425 19.6629C17.4626 19.5589 17.5211 19.4638 17.5971 19.3833C17.6731 19.3028 17.7648 19.2387 17.8667 19.1949C17.9685 19.1512 18.0783 19.1287 18.1892 19.129ZM18.1892 28.4017L16.3788 25.3795L18.1892 22.3573L20.0082 25.3795L18.1892 28.4017ZM31.4995 15.7204C31.8928 15.7204 32.2699 15.876 32.548 16.1529C32.8261 16.4299 32.9823 16.8055 32.9823 17.1972C32.9823 17.5896 32.8264 17.9661 32.5485 18.2444C32.2707 18.5227 31.8936 18.6802 31.4995 18.6825C31.1055 18.6802 30.7284 18.5227 30.4505 18.2444C30.1727 17.9661 30.0168 17.5896 30.0168 17.1972C30.0168 16.8055 30.173 16.4299 30.4511 16.1529C30.7291 15.876 31.1063 15.7204 31.4995 15.7204ZM31.4995 32.5744L28.1978 27.0795L31.4995 21.5845L34.8013 27.0795L31.4995 32.5744ZM44.9823 28.4017L43.1633 25.3795L44.9823 22.3573L46.8013 25.3795L44.9823 28.4017Z" fill="#FFFDFD"/>
</svg>
