<svg width="193" height="142" viewBox="0 0 193 142" fill="none" xmlns="http://www.w3.org/2000/svg">
<g clip-path="url(#clip0_147_23)">
<path d="M76.7335 4.76562L75.1426 5.13687C75.5755 12.3434 73.1945 15.0622 73.1945 15.0622C69.2833 13.7672 66.411 9.57433 66.411 9.57433L64.8828 10.0679C65.188 16.1104 63.6599 19.2551 63.6599 19.2551C58.3374 19.0149 53.385 15.1321 53.385 15.1321L52.6512 15.9335C54.7898 21.1746 54.424 27.0316 54.424 27.0316C48.74 27.5862 45.3179 26.2301 45.3179 26.2301L44.4002 27.7107C47.3331 30.2374 48.4348 35.4173 48.4348 35.4173C44.4608 37.3281 38.5344 35.4173 38.5344 35.4173L37.9824 36.7123C45.3785 38.2541 53.8742 42.2613 53.8742 42.2613C50.6274 39.7958 46.4781 37.6361 46.4781 37.6361C48.556 37.267 54.24 35.9109 55.7075 29.4971C57.1751 23.0833 54.7292 17.7199 54.7292 17.7199C54.7292 17.7199 61.3915 22.1595 67.6859 20.7422C73.9802 19.325 75.9975 13.4658 75.9975 13.4658C76.8071 19.5805 78.7465 21.7293 78.7465 21.7293C76.7335 14.2062 76.7335 4.76562 76.7335 4.76562ZM50.6815 34.415C50.6383 33.0457 48.1404 28.7611 48.1404 28.7611C50.4131 29.7198 53.9716 28.8223 53.9716 28.8223C53.6493 31.0515 52.4667 33.0618 50.6815 34.415ZM65.7919 19.325C66.5885 18.2134 67.1989 13.2824 67.1989 13.2824C68.4218 15.44 71.7833 16.9184 71.7833 16.9184C70.1796 18.4875 68.0257 19.3527 65.7919 19.325Z" fill="#DD0000"/>
<path d="M43.18 28.3888C44.4962 28.3888 45.5631 27.3123 45.5631 25.9844C45.5631 24.6565 44.4962 23.5801 43.18 23.5801C41.8638 23.5801 40.7969 24.6565 40.7969 25.9844C40.7969 27.3123 41.8638 28.3888 43.18 28.3888Z" fill="#DD0000"/>
<path d="M36.3831 37.5587C37.6993 37.5587 38.7662 36.4822 38.7662 35.1544C38.7662 33.8265 37.6993 32.75 36.3831 32.75C35.067 32.75 34 33.8265 34 35.1544C34 36.4822 35.067 37.5587 36.3831 37.5587Z" fill="#DD0000"/>
<path d="M51.8499 16.4806C53.1661 16.4806 54.233 15.4041 54.233 14.0762C54.233 12.7483 53.1661 11.6719 51.8499 11.6719C50.5338 11.6719 49.4668 12.7483 49.4668 14.0762C49.4668 15.4041 50.5338 16.4806 51.8499 16.4806Z" fill="#DD0000"/>
<path d="M65.0784 10.4064C66.3946 10.4064 67.4615 9.3299 67.4615 8.00201C67.4615 6.67412 66.3946 5.59766 65.0784 5.59766C63.7623 5.59766 62.6953 6.67412 62.6953 8.00201C62.6953 9.3299 63.7623 10.4064 65.0784 10.4064Z" fill="#DD0000"/>
<path d="M75.4007 5.59582C76.7169 5.59582 77.7838 4.51935 77.7838 3.19146C77.7838 1.86358 76.7169 0.787109 75.4007 0.787109C74.0845 0.787109 73.0176 1.86358 73.0176 3.19146C73.0176 4.51935 74.0845 5.59582 75.4007 5.59582Z" fill="#DD0000"/>
</g>
<g clip-path="url(#clip1_147_23)">
<path d="M127.896 75.8296V27.4219H122.446V75.8296H127.896Z" fill="#DD0000"/>
<path d="M112.476 81.2207H160.299V75.7031H112.476V81.2207Z" fill="#DD0000"/>
<path d="M112.476 90.9688H160.299V85.4511H112.476V90.9688Z" fill="#DD0000"/>
<path d="M117.928 75.8296V27.4219H112.477V75.8296H117.928Z" fill="#DD0000"/>
<path d="M86.3474 91H59.3574V85.4153H86.3474C89.7744 85.4153 93.1678 84.7321 96.334 83.4046C99.5001 82.0771 102.377 80.1314 104.8 77.6785C107.223 75.2256 109.146 72.3136 110.457 69.1087C111.769 65.9038 112.444 62.4689 112.444 59C112.444 55.5311 111.769 52.0961 110.457 48.8913C109.146 45.6864 107.223 42.7744 104.8 40.3215C102.377 37.8686 99.5001 35.9229 96.334 34.5954C93.1678 33.2679 89.7744 32.5846 86.3474 32.5846H59.3574V27H86.3474C94.7318 27 102.773 30.3714 108.701 36.3726C114.63 42.3737 117.961 50.5131 117.961 59C117.961 67.4869 114.63 75.6263 108.701 81.6274C102.773 87.6286 94.7318 91 86.3474 91Z" fill="#FFFEFE"/>
<path d="M85.5523 81.2521H59.2988V75.6675H85.5523C87.6939 75.6675 89.8147 75.2405 91.7933 74.4108C93.772 73.5812 95.5699 72.3652 97.0843 70.8323C98.5987 69.2994 99.8 67.4795 100.62 65.4767C101.439 63.4738 101.861 61.3271 101.861 59.1593C101.861 56.9914 101.439 54.8447 100.62 52.8418C99.8 50.839 98.5987 49.0191 97.0843 47.4862C95.5699 45.9533 93.772 44.7373 91.7933 43.9077C89.8147 43.078 87.6939 42.651 85.5523 42.651H68.9539V37.0664H85.5523C91.3408 37.0664 96.8923 39.394 100.986 43.5373C105.079 47.6805 107.378 53.2999 107.378 59.1593C107.378 65.0186 105.079 70.638 100.986 74.7813C96.8923 78.9245 91.3408 81.2521 85.5523 81.2521Z" fill="#FFFEFE"/>
<path d="M64.8105 75.8358V31.625H59.3596V75.8358H64.8105Z" fill="#FFFEFE"/>
<path d="M74.3887 75.8298V39.4766H68.9377V75.8298H74.3887Z" fill="#FFFEFE"/>
</g>
<path d="M12.816 116.692H3.744C3.312 116.692 3.06 116.944 3.06 117.34V141.352C3.06 141.748 3.312 142 3.744 142H12.816C20.808 142 26.1 136.924 26.1 129.328C26.1 121.732 20.808 116.692 12.816 116.692ZM12.6 137.608H8.028V121.084H12.6C17.892 121.084 21.06 124.396 21.06 129.4C21.06 134.332 17.892 137.608 12.6 137.608ZM31.4471 142H35.0831C35.4791 142 35.7311 141.748 35.7311 141.352V117.34C35.7311 116.944 35.4791 116.692 35.0831 116.692H31.4471C31.0151 116.692 30.7631 116.944 30.7631 117.34V141.352C30.7631 141.748 31.0151 142 31.4471 142ZM62.3573 116.692H58.3613C58.0013 116.692 57.7133 116.872 57.6053 117.232L52.8173 130.084L51.2333 135.196L49.6133 130.084L44.6813 117.232C44.5733 116.872 44.2853 116.692 43.9253 116.692H39.7493C39.2813 116.692 39.0653 116.98 39.2453 117.448L49.2893 141.496C49.3973 141.856 49.6853 142 50.0453 142H52.0973C52.4573 142 52.7453 141.856 52.8533 141.496L62.8613 117.448C63.0413 116.98 62.8613 116.692 62.3573 116.692ZM86.0144 141.244L75.5744 117.196C75.4304 116.872 75.1424 116.692 74.7824 116.692H72.6224C72.2624 116.692 71.9384 116.872 71.8304 117.196L61.2824 141.244C61.1024 141.712 61.3184 142 61.8224 142H65.6744C66.0344 142 66.2864 141.82 66.4304 141.46L68.2304 137.104H79.0664L80.8664 141.46C81.0104 141.82 81.2624 142 81.6224 142H85.4744C85.9784 142 86.1944 141.712 86.0144 141.244ZM73.6664 123.748L77.4824 132.892H69.8144L73.6664 123.748ZM105.893 137.644H94.3366V117.34C94.3366 116.944 94.0846 116.692 93.6886 116.692H90.0526C89.6206 116.692 89.3686 116.944 89.3686 117.34V141.352C89.3686 141.748 89.6206 142 90.0526 142H105.893C106.325 142 106.577 141.748 106.577 141.352V138.292C106.577 137.86 106.325 137.644 105.893 137.644ZM131.858 141.244L121.418 117.196C121.274 116.872 120.986 116.692 120.626 116.692H118.466C118.106 116.692 117.782 116.872 117.674 117.196L107.126 141.244C106.946 141.712 107.162 142 107.666 142H111.518C111.878 142 112.13 141.82 112.274 141.46L114.074 137.104H124.91L126.71 141.46C126.854 141.82 127.106 142 127.466 142H131.318C131.822 142 132.038 141.712 131.858 141.244ZM119.51 123.748L123.326 132.892H115.658L119.51 123.748ZM135.896 142H139.532C139.928 142 140.18 141.748 140.18 141.352V117.34C140.18 116.944 139.928 116.692 139.532 116.692H135.896C135.464 116.692 135.212 116.944 135.212 117.34V141.352C135.212 141.748 135.464 142 135.896 142ZM161.407 128.752C163.603 127.888 165.115 125.944 165.115 123.244C165.115 119.5 162.415 116.692 155.791 116.692H146.971C146.575 116.692 146.323 116.944 146.323 117.34V141.352C146.323 141.748 146.575 142 146.971 142H156.403C163.027 142 166.015 139.264 166.015 134.764C166.015 131.956 164.359 129.58 161.407 128.752ZM160.291 124.108C160.291 126.088 158.923 127.24 156.079 127.24H151.183V120.832H155.719C158.959 120.832 160.291 122.092 160.291 124.108ZM156.367 137.86H151.183V131.2H156.367C159.679 131.2 161.119 132.532 161.119 134.44C161.119 136.564 159.535 137.86 156.367 137.86ZM192.292 141.244L181.852 117.196C181.708 116.872 181.42 116.692 181.06 116.692H178.9C178.54 116.692 178.216 116.872 178.108 117.196L167.56 141.244C167.38 141.712 167.596 142 168.1 142H171.952C172.312 142 172.564 141.82 172.708 141.46L174.508 137.104H185.344L187.144 141.46C187.288 141.82 187.54 142 187.9 142H191.752C192.256 142 192.472 141.712 192.292 141.244ZM179.944 123.748L183.76 132.892H176.092L179.944 123.748Z" fill="white"/>
<defs>
<clipPath id="clip0_147_23">
<rect width="44.7489" height="41.4746" fill="white" transform="translate(34 0.787109)"/>
</clipPath>
<clipPath id="clip1_147_23">
<rect width="101" height="64" fill="white" transform="translate(59.2988 27)"/>
</clipPath>
</defs>
</svg>
