<svg width="254" height="49" viewBox="0 0 254 49" fill="none" xmlns="http://www.w3.org/2000/svg">
<path d="M73.7559 39.301V11.2422H83.6227C87.5626 11.2422 90.9543 12.6126 93.7294 15.3534C96.5044 18.0942 97.9091 21.4174 97.9091 25.2887C97.9091 29.1601 96.5044 32.4833 93.7294 35.2241C90.9543 37.9649 87.5968 39.3353 83.6227 39.3353H73.7559V39.301ZM80.0939 33.5454H83.6227C85.9524 33.5454 87.8367 32.7574 89.3098 31.1472C90.783 29.537 91.5367 27.5841 91.5367 25.2887C91.5367 22.9933 90.783 21.0063 89.3098 19.4303C87.8367 17.8201 85.9181 17.0321 83.6227 17.0321H80.0939V33.5454Z" fill="black"/>
<path d="M107.262 15.9355H101.712C101.198 15.3188 100.924 14.5651 100.924 13.6744C100.924 12.6808 101.266 11.8243 101.952 11.1391C102.637 10.4539 103.493 10.1113 104.487 10.1113C105.48 10.1113 106.337 10.4539 107.022 11.1391C107.707 11.8243 108.05 12.6808 108.05 13.6744C108.05 14.5651 107.776 15.3188 107.262 15.9355Z" fill="url(#paint0_linear_134_426)"/>
<path d="M107.434 19.5332H101.473V39.3012H107.434V19.5332Z" fill="black"/>
<path d="M120.761 39.6427L109.25 19.5664H116.136L120.761 28.1999L125.386 19.5664H132.273L120.761 39.6427Z" fill="black"/>
<path d="M146.078 39.3009V38.1703C144.879 39.1296 143.44 39.6435 141.727 39.6435C138.884 39.6435 136.588 38.65 134.807 36.6286C133.025 34.6416 132.169 32.2434 132.169 29.434C132.169 26.6247 133.06 24.2265 134.807 22.2395C136.588 20.2524 138.884 19.2246 141.727 19.2246C143.406 19.2246 144.879 19.7385 146.078 20.732V19.5329H152.04V39.3009H146.078ZM142.721 34.1619C144.126 34.1619 145.222 33.6137 146.078 32.5517V26.3507C145.222 25.2543 144.091 24.7062 142.721 24.7062C141.351 24.7062 140.254 25.1516 139.432 26.0766C138.61 27.0016 138.199 28.0979 138.199 29.4683C138.199 30.8044 138.61 31.935 139.432 32.86C140.254 33.7165 141.351 34.1619 142.721 34.1619Z" fill="black"/>
<path d="M156.631 39.301V11.2422H162.969V33.0315H173.898V39.3353H156.631V39.301Z" fill="black"/>
<path d="M189.691 39.3009V38.1703C188.492 39.1296 187.053 39.6435 185.34 39.6435C182.496 39.6435 180.201 38.65 178.419 36.6286C176.638 34.6416 175.781 32.2434 175.781 29.434C175.781 26.6247 176.672 24.2265 178.419 22.2395C180.201 20.2524 182.496 19.2246 185.34 19.2246C187.018 19.2246 188.492 19.7385 189.691 20.732V19.5329H195.652V39.3009H189.691ZM186.333 34.1619C187.738 34.1619 188.834 33.6137 189.691 32.5517V26.3507C188.834 25.2543 187.704 24.7062 186.333 24.7062C184.963 24.7062 183.867 25.1516 183.044 26.0766C182.222 27.0016 181.811 28.0979 181.811 29.4683C181.811 30.8044 182.222 31.935 183.044 32.86C183.867 33.7165 184.963 34.1619 186.333 34.1619Z" fill="black"/>
<path d="M206.205 15.9355H200.655C200.141 15.3188 199.867 14.5651 199.867 13.6744C199.867 12.6808 200.21 11.8243 200.895 11.1391C201.58 10.4539 202.437 10.1113 203.43 10.1113C204.424 10.1113 205.28 10.4539 205.965 11.1391C206.651 11.8243 206.993 12.6808 206.993 13.6744C206.993 14.5651 206.719 15.3188 206.205 15.9355Z" fill="url(#paint1_linear_134_426)"/>
<path d="M206.376 19.5332H200.415V39.3012H206.376V19.5332Z" fill="black"/>
<path d="M211.138 39.301V11.2422H217.099V20.7322C218.298 19.7386 219.771 19.2248 221.45 19.2248C224.293 19.2248 226.589 20.2183 228.37 22.2396C230.152 24.2267 231.008 26.6591 231.008 29.4342C231.008 32.2092 230.118 34.6417 228.37 36.6288C226.589 38.6158 224.293 39.6436 221.45 39.6436C219.737 39.6436 218.298 39.164 217.099 38.1705V39.301H211.138ZM220.456 24.6721C219.017 24.6721 217.921 25.2202 217.099 26.3165V32.5176C217.887 33.6139 219.017 34.1278 220.456 34.1278C221.827 34.1278 222.923 33.6824 223.745 32.7574C224.568 31.8324 224.979 30.7361 224.979 29.3657C224.979 28.0295 224.568 26.899 223.745 25.9739C222.923 25.1517 221.827 24.6721 220.456 24.6721Z" fill="black"/>
<path d="M247.556 39.3009V38.1703C246.357 39.1296 244.918 39.6435 243.205 39.6435C240.361 39.6435 238.066 38.65 236.284 36.6286C234.503 34.6416 233.646 32.2434 233.646 29.434C233.646 26.6247 234.537 24.2265 236.284 22.2395C238.066 20.2524 240.361 19.2246 243.205 19.2246C244.884 19.2246 246.357 19.7385 247.556 20.732V19.5329H253.517V39.3009H247.556ZM244.199 34.1619C245.603 34.1619 246.699 33.6137 247.556 32.5517V26.3507C246.699 25.2543 245.569 24.7062 244.199 24.7062C242.828 24.7062 241.732 25.1516 240.91 26.0766C240.087 27.0016 239.676 28.0979 239.676 29.4683C239.676 30.8044 240.087 31.935 240.91 32.86C241.732 33.7165 242.828 34.1619 244.199 34.1619Z" fill="black"/>
<path d="M55.7805 49H11.648C5.61229 49 0.728516 46.4851 0.728516 40.4493V0H44.8447C50.8805 0 55.7643 3.37483 55.7643 9.41059V49H55.7805Z" fill="url(#paint2_linear_134_426)"/>
<path d="M0.744141 40.4493V0H44.8604" fill="url(#paint3_linear_134_426)"/>
<path d="M35.3684 13.402V8.42087C35.3684 8.06391 35.0925 7.78809 34.7356 7.78809H29.5273C29.1704 7.78809 28.8945 8.06391 28.8945 8.42087V9.31325C28.8945 9.57285 29.0568 9.81623 29.3002 9.91358C31.5555 10.7573 33.1293 12.3798 34.2326 13.8076C34.6058 14.2782 35.3684 14.0186 35.3684 13.402Z" fill="white"/>
<path d="M37.1374 33.6998C36.6182 33.6998 36.2126 33.2779 36.2126 32.7749C36.2126 30.4547 36.1964 24.5163 36.1477 23.8673C35.9043 20.3302 34.7036 16.566 32.2212 13.9375C29.7063 11.2766 25.7149 9.75142 22.0967 9.7352L9.05165 9.68652C8.74338 9.68652 8.5 9.9299 8.5 10.2382V15.6412C8.5 15.9494 8.74338 16.1928 9.05165 16.1928H21.3503C21.8046 16.209 22.2589 16.2739 22.697 16.3551C23.9788 16.6147 25.1957 17.1663 26.2666 17.9614C32.1563 22.4233 29.7225 32.5478 22.3563 33.7322C22.3238 33.7322 22.2914 33.7322 22.2589 33.7322H15.5417C15.2334 33.7322 14.9901 33.4888 14.9901 33.1806V19.7624C14.9901 19.4541 14.7467 19.2107 14.4384 19.2107H9.05165C8.74338 19.2107 8.5 19.4541 8.5 19.7624V39.6706C8.5 39.9789 8.74338 40.2223 9.05165 40.2223H22.7295L22.7944 40.2061C25.001 39.9465 27.0616 39.2001 28.8788 38.0968C29.252 37.8696 29.7063 38.1292 29.7063 38.5673V39.6057C29.7063 39.914 29.9497 40.1574 30.2579 40.1574H49.5659C49.8742 40.1574 50.1175 39.914 50.1175 39.6057V34.5922C50.1175 34.0729 49.6957 33.6673 49.1927 33.6673C46.1424 33.6998 40.204 33.6998 37.1374 33.6998Z" fill="white"/>
<defs>
<linearGradient id="paint0_linear_134_426" x1="100.934" y1="13.019" x2="108.051" y2="13.019" gradientUnits="userSpaceOnUse">
<stop stop-color="#DD0000"/>
<stop offset="0.8618" stop-color="#A30000"/>
</linearGradient>
<linearGradient id="paint1_linear_134_426" x1="199.862" y1="13.019" x2="206.979" y2="13.019" gradientUnits="userSpaceOnUse">
<stop stop-color="#DD0000"/>
<stop offset="0.8618" stop-color="#A30000"/>
</linearGradient>
<linearGradient id="paint2_linear_134_426" x1="0.73963" y1="24.4972" x2="55.7827" y2="24.4972" gradientUnits="userSpaceOnUse">
<stop stop-color="#DD0000"/>
<stop offset="0.8618" stop-color="#A30000"/>
</linearGradient>
<linearGradient id="paint3_linear_134_426" x1="32.0187" y1="-6.9242" x2="-15.8152" y2="34.592" gradientUnits="userSpaceOnUse">
<stop stop-color="#DD0000"/>
<stop offset="0.8618" stop-color="#A30000"/>
</linearGradient>
</defs>
</svg>
