<svg width="20" height="24" viewBox="0 0 20 24" fill="none" xmlns="http://www.w3.org/2000/svg">
<path d="M1.01146 8.82313C-1.01611 12.344 0.27285 17.6872 2.51501 20.927C3.63421 22.5467 4.76732 24.0006 6.31931 24.0006C6.34856 24.0006 6.37789 24.0001 6.40793 23.9989C7.1371 23.9698 7.66402 23.7451 8.17349 23.528C8.74547 23.2841 9.33704 23.0319 10.2649 23.0319C11.1477 23.0319 11.711 23.2759 12.2558 23.5118C12.7927 23.7443 13.3457 23.9847 14.1629 23.9694C15.911 23.9368 16.9844 22.3679 17.9314 20.9839C18.9196 19.5388 19.4153 18.1357 19.5825 17.5995L19.5893 17.5782C19.6211 17.4829 19.5762 17.3788 19.4849 17.3369C19.4824 17.3357 19.4731 17.3319 19.4705 17.3308C19.1626 17.2048 16.4622 16.006 16.4338 12.7385C16.4075 10.0839 18.4596 8.6781 18.8712 8.42331L18.8904 8.41135C18.935 8.38263 18.966 8.33707 18.9766 8.28498C18.9871 8.23296 18.9761 8.17883 18.9462 8.13508C17.5297 6.06069 15.3586 5.74806 14.4846 5.71045C14.3577 5.69778 14.2268 5.69141 14.0953 5.69141C13.0687 5.69141 12.0852 6.07942 11.2951 6.39118C10.7497 6.6064 10.2786 6.79226 9.95368 6.79226C9.58858 6.79226 9.11482 6.60411 8.56619 6.3863C7.83254 6.09492 7.00099 5.76474 6.12068 5.76474C6.09969 5.76474 6.07901 5.76498 6.05864 5.76537C4.0118 5.79551 2.07773 6.96734 1.01146 8.82313Z" fill="#666666"/>
<path d="M14.4863 0.000151194C13.2468 0.050669 11.76 0.81418 10.8712 1.85585C10.116 2.73142 9.37816 4.19124 9.57254 5.66271C9.58473 5.75478 9.65959 5.82583 9.75214 5.83299C9.83581 5.83952 9.9212 5.84283 10.0063 5.84291C11.2183 5.84291 12.5257 5.17193 13.4186 4.09154C14.3583 2.95072 14.8335 1.48665 14.6898 0.175232C14.6784 0.0724656 14.5881 -0.0038619 14.4863 0.000151194Z" fill="#666666"/>
</svg>
