<svg width="16" height="16" viewBox="0 0 16 16" fill="none" xmlns="http://www.w3.org/2000/svg">
<path d="M14.9337 11.7436C14.5637 12.5402 14.387 12.8969 13.917 13.6002C13.257 14.5836 12.3203 15.8136 11.167 15.8202C10.1403 15.8269 9.87699 15.1636 8.48032 15.1769C7.08699 15.1836 6.79699 15.8336 5.77032 15.8236C4.61699 15.8136 3.73366 14.7069 3.07032 13.7269C1.21699 10.9702 1.02366 7.74025 2.16699 6.02358C2.97699 4.80358 4.25699 4.09025 5.46032 4.09025C6.68366 4.09025 7.45366 4.74691 8.46699 4.74691C9.45032 4.74691 10.047 4.08691 11.4637 4.08691C12.5337 4.08691 13.667 4.65691 14.477 5.64025C11.827 7.06025 12.257 10.7569 14.9337 11.7436Z" fill="#42A5F5"/>
<path d="M10.5708 2.81285C11.1242 2.12618 11.5408 1.15952 11.3875 0.172852C10.4875 0.232852 9.43417 0.789518 8.82084 1.50952C8.26417 2.16618 7.80084 3.14285 7.98084 4.08618C8.96417 4.11618 9.98084 3.54952 10.5708 2.81285Z" fill="#42A5F5"/>
<path d="M13.4756 6.44336C9.67896 10.6067 6.19896 6.69669 1.51562 9.67003C1.67896 10.9867 2.18229 12.41 3.06562 13.7267C3.72562 14.71 4.61229 15.8167 5.76562 15.8234C6.79229 15.8334 7.08562 15.1834 8.47562 15.1767C9.86896 15.1667 10.1323 15.83 11.1623 15.82C12.3156 15.81 13.2523 14.5834 13.9123 13.6C14.3856 12.8967 14.5623 12.54 14.929 11.7434C12.669 10.9067 12.0223 8.13669 13.4756 6.44336Z" fill="#1E88E5"/>
</svg>
