<svg width="24" height="17" viewBox="0 0 24 17" fill="none" xmlns="http://www.w3.org/2000/svg">
<path d="M3.2 16.1V16.8667H4.8V16.1H3.2ZM11.2 16.1V16.8667H12.8V16.1H11.2ZM4.8 16.1V15.3332H3.2V16.1H4.8ZM11.2 15.3329V16.1H12.8V15.3329H11.2ZM8 12.2667C9.76746 12.2667 11.2 13.6393 11.2 15.3329H12.8C12.8 12.7921 10.6508 10.7333 8 10.7333V12.2667ZM4.8 15.3332C4.8 13.6395 6.23264 12.2667 8 12.2667V10.7333C5.34909 10.7333 3.2 12.7926 3.2 15.3332H4.8ZM8 3.06667C6.23269 3.06667 4.8 4.43966 4.8 6.13333H6.4C6.4 5.2865 7.11635 4.6 8 4.6V3.06667ZM11.2 6.13333C11.2 4.43966 9.76731 3.06667 8 3.06667V4.6C8.88365 4.6 9.6 5.2865 9.6 6.13333H11.2ZM8 9.2C9.76731 9.2 11.2 7.82701 11.2 6.13333H9.6C9.6 6.98016 8.88365 7.66667 8 7.66667V9.2ZM8 7.66667C7.11635 7.66667 6.4 6.98016 6.4 6.13333H4.8C4.8 7.82701 6.23269 9.2 8 9.2V7.66667ZM2.4 1.53333H21.6V0H2.4V1.53333ZM22.4 2.3V14.5667H24V2.3H22.4ZM21.6 15.3333H2.4V16.8667H21.6V15.3333ZM1.6 14.5667V2.3H0V14.5667H1.6ZM2.4 15.3333C1.95818 15.3333 1.6 14.99 1.6 14.5667H0C0 15.8369 1.07452 16.8667 2.4 16.8667V15.3333ZM22.4 14.5667C22.4 14.99 22.0418 15.3333 21.6 15.3333V16.8667C22.9254 16.8667 24 15.8369 24 14.5667H22.4ZM21.6 1.53333C22.0418 1.53333 22.4 1.87659 22.4 2.3H24C24 1.02974 22.9254 0 21.6 0V1.53333ZM2.4 0C1.07452 0 0 1.02974 0 2.3H1.6C1.6 1.87659 1.95818 1.53333 2.4 1.53333V0ZM14.4 6.13333H19.2V4.6H14.4V6.13333ZM14.4 10.7333H19.2V9.2H14.4V10.7333Z" fill="#A1A1A1"/>
</svg>
