<svg width="11" height="7" viewBox="0 0 11 7" fill="none" xmlns="http://www.w3.org/2000/svg">
<path d="M10.7847 0.91961C10.853 0.987677 10.9071 1.06854 10.944 1.15756C10.981 1.24658 11 1.34202 11 1.4384C11 1.53479 10.981 1.63022 10.944 1.71925C10.9071 1.80827 10.853 1.88913 10.7847 1.9572L5.91335 6.82857C5.85912 6.88291 5.7947 6.92602 5.72379 6.95544C5.65287 6.98486 5.57685 7 5.50008 7C5.4233 7 5.34728 6.98486 5.27637 6.95544C5.20545 6.92602 5.14103 6.88291 5.0868 6.82857L0.215429 1.9572C-0.071812 1.66995 -0.071812 1.20685 0.215429 0.91961C0.50267 0.63237 0.965773 0.63237 1.25301 0.91961L5.50301 5.16374L9.753 0.91375C10.0344 0.632371 10.5033 0.63237 10.7847 0.91961Z" fill="#5C5C5C"/>
</svg>
