<svg width="14" height="14" viewBox="0 0 14 14" fill="none" xmlns="http://www.w3.org/2000/svg">
<path d="M7 0C3.14222 0 0 3.14222 0 7C0 10.8578 3.14222 14 7 14C10.8578 14 14 10.8578 14 7C14 3.14222 10.8578 0 7 0ZM7 12.7556C3.82667 12.7556 1.24444 10.1733 1.24444 7C1.24444 3.82669 3.82669 1.24444 7 1.24444C10.1733 1.24444 12.7556 3.82669 12.7556 7C12.7556 10.1733 10.1733 12.7556 7 12.7556Z" fill="black"/>
<path d="M7.77821 3.23481C7.77821 3.66439 7.43002 4.01259 7.00043 4.01259C6.57085 4.01259 6.22266 3.66439 6.22266 3.23481C6.22266 2.80523 6.57085 2.45703 7.00043 2.45703C7.43002 2.45703 7.77821 2.80523 7.77821 3.23481Z" fill="black"/>
<path d="M7.00107 5.17969C6.65885 5.17969 6.37891 5.45963 6.37891 5.80185V10.9352C6.37891 11.2774 6.65885 11.5574 7.00107 11.5574C7.3433 11.5574 7.62324 11.2774 7.62324 10.9352V5.80185C7.62324 5.4441 7.3433 5.17969 7.00107 5.17969Z" fill="black"/>
</svg>
