<svg width="24" height="24" viewBox="0 0 24 24" fill="none" xmlns="http://www.w3.org/2000/svg">
<g clip-path="url(#clip0_1100_848)">
<path d="M5.26644 9.76453C6.19903 6.93863 8.85469 4.90909 12.0002 4.90909C13.6912 4.90909 15.2184 5.50909 16.4184 6.49091L19.9093 3C17.7821 1.14545 15.0548 0 12.0002 0C7.27031 0 3.19799 2.6983 1.24023 6.65002L5.26644 9.76453Z" fill="#EA4335"/>
<path d="M16.0415 18.0128C14.9517 18.7165 13.5669 19.0911 12.0008 19.0911C8.8673 19.0911 6.21994 17.0771 5.2778 14.2681L1.23828 17.3352C3.19361 21.2938 7.26582 24.0002 12.0008 24.0002C14.9337 24.0002 17.7362 22.9576 19.835 20.9998L16.0415 18.0128Z" fill="#34A853"/>
<path d="M19.8342 20.9998C22.0292 18.9523 23.4545 15.9038 23.4545 12.0002C23.4545 11.2911 23.3455 10.5275 23.1818 9.81836H12V14.4547H18.4364C18.1188 16.0138 17.2663 17.2214 16.0407 18.0128L19.8342 20.9998Z" fill="#4A90E2"/>
<path d="M5.27698 14.2678C5.03833 13.5562 4.90909 12.7936 4.90909 11.9999C4.90909 11.2182 5.03444 10.4667 5.2662 9.76441L1.23999 6.6499C0.436587 8.26031 0 10.0753 0 11.9999C0 13.9194 0.444781 15.73 1.23746 17.3349L5.27698 14.2678Z" fill="#FBBC05"/>
</g>
<defs>
<clipPath id="clip0_1100_848">
<rect width="24" height="24" fill="white"/>
</clipPath>
</defs>
</svg>
