<svg width="16" height="16" viewBox="0 0 16 16" fill="none" xmlns="http://www.w3.org/2000/svg">
<path fill-rule="evenodd" clip-rule="evenodd" d="M3.34695 8.0004C3.34695 7.49231 3.43313 7.0052 3.58695 6.54831L0.894582 4.53516C0.369855 5.57836 0.0742188 6.75382 0.0742188 8.0004C0.0742188 9.24591 0.369491 10.4207 0.893491 11.4632L3.5844 9.44609C3.43204 8.99133 3.34695 8.506 3.34695 8.0004Z" fill="#FBBC05"/>
<path fill-rule="evenodd" clip-rule="evenodd" d="M8.07417 3.37773C9.20144 3.37773 10.2196 3.76885 11.0196 4.40885L13.3469 2.13329C11.9287 0.924401 10.1105 0.177734 8.07417 0.177734C4.91271 0.177734 2.19562 1.94805 0.894531 4.53471L3.58689 6.54787C4.20726 4.70396 5.97562 3.37773 8.07417 3.37773Z" fill="#EA4335"/>
<path fill-rule="evenodd" clip-rule="evenodd" d="M8.07417 12.6223C5.97562 12.6223 4.20726 11.2961 3.58689 9.45215L0.894531 11.4649C2.19562 14.052 4.91271 15.8223 8.07417 15.8223C10.0254 15.8223 11.8883 15.1439 13.2865 13.8728L10.7309 11.9382C10.0098 12.383 9.1018 12.6223 8.07417 12.6223Z" fill="#34A853"/>
<path fill-rule="evenodd" clip-rule="evenodd" d="M15.7106 8.00035C15.7106 7.53812 15.6379 7.04035 15.5288 6.57812H8.07422V9.60035H12.3651C12.1506 10.6307 11.5666 11.4229 10.7309 11.9385L13.2866 13.8731C14.7553 12.5383 15.7106 10.55 15.7106 8.00035Z" fill="#4285F4"/>
</svg>
