<svg width="10" height="17" viewBox="0 0 10 17" fill="none" xmlns="http://www.w3.org/2000/svg">
<path d="M0.465522 0.597776C0.167358 0.89772 0 1.30346 0 1.72639C0 2.14932 0.167358 2.55506 0.465522 2.85501L6.13261 8.60214L0.465522 14.2692C0.167358 14.5692 0 14.9749 0 15.3978C0 15.8208 0.167358 16.2265 0.465522 16.5265C0.614344 16.6765 0.791402 16.7956 0.986483 16.8769C1.18156 16.9582 1.39081 17 1.60214 17C1.81348 17 2.02272 16.9582 2.2178 16.8769C2.41288 16.7956 2.58994 16.6765 2.73876 16.5265L9.52646 9.73876C9.67651 9.58994 9.79561 9.41288 9.87688 9.2178C9.95816 9.02272 10 8.81348 10 8.60214C10 8.39081 9.95816 8.18156 9.87688 7.98648C9.79561 7.7914 9.67651 7.61434 9.52646 7.46552L2.73876 0.597776C2.58994 0.447729 2.41288 0.328633 2.2178 0.247359C2.02272 0.166085 1.81348 0.124239 1.60214 0.124239C1.39081 0.124239 1.18156 0.166085 0.986483 0.247359C0.791402 0.328633 0.614344 0.447729 0.465522 0.597776Z" fill="white"/>
</svg>
