<svg width="70" height="70" viewBox="0 0 70 70" fill="none" xmlns="http://www.w3.org/2000/svg">
<path d="M6.5625 10.9375H8.75V13.125H6.5625V10.9375ZM10.9375 10.9375H13.125V13.125H10.9375V10.9375ZM15.3125 10.9375H17.5V13.125H15.3125V10.9375Z" fill="#2A9DF4"/>
<path d="M6.5625 59.0625H25.8478L25.2511 65.625H21.875V67.8125H45.9375V65.625H42.5614L41.9647 59.0625H61.25C62.4099 59.0612 63.522 58.5998 64.3422 57.7797C65.1623 56.9595 65.6237 55.8474 65.625 54.6875V30.625H63.4375V48.125H4.375V17.5H32.8125V15.3125H4.375V10.9375C4.37569 10.3575 4.60638 9.80155 5.01646 9.39146C5.42655 8.98138 5.98255 8.75069 6.5625 8.75H40.4688V6.5625H6.5625C5.40258 6.5638 4.29054 7.02516 3.47035 7.84535C2.65016 8.66554 2.1888 9.77758 2.1875 10.9375V54.6875C2.1888 55.8474 2.65016 56.9595 3.47035 57.7797C4.29054 58.5998 5.40258 59.0612 6.5625 59.0625ZM40.3648 65.625H27.4477L28.0443 59.0625H39.7682L40.3648 65.625ZM63.4375 50.3125V54.6875C63.4368 55.2674 63.2061 55.8235 62.796 56.2335C62.386 56.6436 61.8299 56.8743 61.25 56.875H6.5625C5.98255 56.8743 5.42655 56.6436 5.01646 56.2335C4.60638 55.8235 4.37569 55.2674 4.375 54.6875V50.3125H63.4375Z" fill="#222222"/>
<path d="M51.4062 26.25C52.7042 26.25 53.973 25.8651 55.0522 25.144C56.1314 24.4229 56.9725 23.398 57.4692 22.1989C57.9659 20.9997 58.0959 19.6802 57.8427 18.4072C57.5894 17.1342 56.9644 15.9649 56.0466 15.0471C55.1289 14.1293 53.9595 13.5043 52.6865 13.2511C51.4135 12.9979 50.094 13.1278 48.8949 13.6245C47.6957 14.1212 46.6708 14.9624 45.9497 16.0416C45.2286 17.1208 44.8438 18.3896 44.8438 19.6875C44.8457 21.4274 45.5378 23.0954 46.7681 24.3257C47.9983 25.556 49.6664 26.248 51.4062 26.25ZM51.4062 15.3125C52.2715 15.3125 53.1174 15.5691 53.8369 16.0498C54.5563 16.5306 55.1171 17.2138 55.4482 18.0133C55.7794 18.8127 55.866 19.6924 55.6972 20.541C55.5284 21.3897 55.1117 22.1692 54.4998 22.7811C53.888 23.3929 53.1084 23.8096 52.2598 23.9784C51.4111 24.1472 50.5314 24.0606 49.732 23.7295C48.9326 23.3983 48.2493 22.8376 47.7686 22.1181C47.2878 21.3987 47.0312 20.5528 47.0312 19.6875C47.0326 18.5276 47.4939 17.4155 48.3141 16.5953C49.1343 15.7752 50.2463 15.3138 51.4062 15.3125Z" fill="#2A9DF4"/>
<path d="M37.6194 10.7828C37.3938 10.7711 37.1701 10.8296 36.9792 10.9502C36.7882 11.0709 36.6393 11.2478 36.553 11.4565L35.0833 15.0049C34.9968 15.2136 34.9771 15.4439 35.0268 15.6642C35.0765 15.8845 35.1932 16.084 35.3608 16.2354L38.0473 18.6608V20.7143L35.3608 23.1397C35.1932 23.291 35.0765 23.4905 35.0268 23.7109C34.9771 23.9312 34.9968 24.1615 35.0833 24.3701L36.553 27.9185C36.6394 28.1272 36.7883 28.304 36.9793 28.4246C37.1702 28.5453 37.3938 28.6038 37.6194 28.5923L41.2341 28.4077L42.6861 29.8597L42.5015 33.4744C42.4899 33.6999 42.5485 33.9235 42.6691 34.1145C42.7898 34.3054 42.9666 34.4543 43.1752 34.5408L46.7236 36.0105C46.9323 36.097 47.1626 36.1167 47.3829 36.067C47.6032 36.0173 47.8028 35.9006 47.9541 35.733L50.3795 33.0464H52.433L54.8584 35.733C55.0097 35.9006 55.2093 36.0173 55.4296 36.067C55.6499 36.1167 55.8802 36.097 56.0889 36.0105L59.6373 34.5408C59.8459 34.4543 60.0227 34.3054 60.1434 34.1145C60.264 33.9235 60.3226 33.6999 60.311 33.4744L60.1264 29.8597L61.5784 28.4077L65.1931 28.5923C65.4187 28.6042 65.6425 28.5458 65.8335 28.4252C66.0246 28.3045 66.1734 28.1274 66.2595 27.9185L67.7292 24.3701C67.8157 24.1615 67.8354 23.9312 67.7857 23.7109C67.736 23.4905 67.6193 23.291 67.4517 23.1397L64.7652 20.7143V18.6608L67.4517 16.2354C67.6193 16.084 67.736 15.8845 67.7857 15.6642C67.8354 15.4439 67.8157 15.2136 67.7292 15.0049L66.2595 11.4571C66.1731 11.2484 66.0242 11.0716 65.8332 10.951C65.6423 10.8303 65.4187 10.7718 65.1931 10.7833L61.5781 10.9673L60.1264 9.51565L60.311 5.90094C60.3226 5.67537 60.264 5.45177 60.1434 5.26082C60.0227 5.06988 59.8459 4.92097 59.6373 4.83453L56.0889 3.36453C55.8802 3.27809 55.6499 3.25836 55.4296 3.30805C55.2093 3.35775 55.0097 3.47443 54.8584 3.64207L52.433 6.32859H50.3795L47.9541 3.64207C47.8028 3.47443 47.6032 3.35775 47.3829 3.30805C47.1626 3.25836 46.9323 3.27809 46.7236 3.36453L43.1758 4.83426C42.9671 4.92069 42.7903 5.06961 42.6697 5.26055C42.5491 5.45149 42.4905 5.6751 42.502 5.90066L42.6866 9.51537L41.2344 10.9673L37.6194 10.7828ZM42.4375 12.8579L44.5766 10.7188C44.6848 10.6106 44.7691 10.4808 44.8241 10.338C44.879 10.1952 44.9034 10.0424 44.8956 9.88957L44.7255 6.56033L46.8476 5.68137L49.082 8.15529C49.1846 8.26888 49.3098 8.35968 49.4497 8.42183C49.5895 8.48398 49.7408 8.51609 49.8939 8.51609H52.9195C53.0723 8.51598 53.2235 8.48381 53.3632 8.42167C53.5029 8.35952 53.628 8.26878 53.7305 8.15529L55.9645 5.68068L58.0866 6.55965L57.9165 9.88889C57.9087 10.0417 57.9331 10.1945 57.988 10.3373C58.043 10.4802 58.1273 10.6099 58.2355 10.7181L60.375 12.8579C60.4833 12.966 60.613 13.0503 60.7558 13.1052C60.8986 13.1601 61.0514 13.1845 61.2042 13.1768L64.5334 13.0068L65.4124 15.1289L62.9385 17.3633C62.8249 17.4659 62.7341 17.5911 62.6719 17.7309C62.6098 17.8708 62.5777 18.0221 62.5777 18.1751V21.2007C62.5778 21.3536 62.61 21.5048 62.6721 21.6445C62.7342 21.7842 62.825 21.9093 62.9385 22.0117L65.4131 24.2457L64.5341 26.3679L61.2049 26.1978C61.052 26.1899 60.8992 26.2143 60.7564 26.2692C60.6136 26.3241 60.4839 26.4085 60.3757 26.5168L58.2359 28.6563C58.1277 28.7645 58.0434 28.8942 57.9884 29.037C57.9335 29.1799 57.9091 29.3326 57.9169 29.4855L58.087 32.8147L55.9649 33.6937L53.7305 31.2197C53.6279 31.1062 53.5027 31.0154 53.3628 30.9532C53.223 30.8911 53.0717 30.8589 52.9186 30.8589H49.893C49.7402 30.8591 49.589 30.8912 49.4493 30.9534C49.3096 31.0155 49.1845 31.1063 49.082 31.2197L46.848 33.6944L44.7259 32.8154L44.896 29.4862C44.9038 29.3333 44.8794 29.1805 44.8245 29.0377C44.7695 28.8949 44.6852 28.7652 44.577 28.657L42.4375 26.5172C42.3292 26.4091 42.1995 26.3248 42.0567 26.2699C41.9139 26.2149 41.7611 26.1905 41.6083 26.1982L38.2791 26.3683L37.4001 24.2461L39.874 22.0117C39.9876 21.9092 40.0784 21.7839 40.1406 21.6441C40.2027 21.5043 40.2348 21.3529 40.2348 21.1999V18.1743C40.2347 18.0214 40.2025 17.8703 40.1404 17.7306C40.0783 17.5909 39.9875 17.4658 39.874 17.3633L37.3994 15.1293L38.2784 13.0072L41.6076 13.1772C41.7606 13.1851 41.9135 13.1607 42.0565 13.1056C42.1994 13.0506 42.3292 12.9662 42.4375 12.8579ZM14.2188 21.875C14.2188 21.5849 14.1035 21.3067 13.8984 21.1016C13.6933 20.8965 13.4151 20.7813 13.125 20.7813H8.75C8.45992 20.7813 8.18172 20.8965 7.9766 21.1016C7.77148 21.3067 7.65625 21.5849 7.65625 21.875V26.25C7.65625 26.5401 7.77148 26.8183 7.9766 27.0234C8.18172 27.2285 8.45992 27.3438 8.75 27.3438H13.125C13.4151 27.3438 13.6933 27.2285 13.8984 27.0234C14.1035 26.8183 14.2188 26.5401 14.2188 26.25V21.875ZM12.0312 25.1563H9.84375V22.9688H12.0312V25.1563ZM22.9688 21.875C22.9688 21.5849 22.8535 21.3067 22.6484 21.1016C22.4433 20.8965 22.1651 20.7813 21.875 20.7813H17.5C17.2099 20.7813 16.9317 20.8965 16.7266 21.1016C16.5215 21.3067 16.4062 21.5849 16.4062 21.875V26.25C16.4062 26.5401 16.5215 26.8183 16.7266 27.0234C16.9317 27.2285 17.2099 27.3438 17.5 27.3438H21.875C22.1651 27.3438 22.4433 27.2285 22.6484 27.0234C22.8535 26.8183 22.9688 26.5401 22.9688 26.25V21.875ZM20.7812 25.1563H18.5938V22.9688H20.7812V25.1563ZM31.7188 21.875C31.7188 21.5849 31.6035 21.3067 31.3984 21.1016C31.1933 20.8965 30.9151 20.7813 30.625 20.7813H26.25C25.9599 20.7813 25.6817 20.8965 25.4766 21.1016C25.2715 21.3067 25.1562 21.5849 25.1562 21.875V26.25C25.1562 26.5401 25.2715 26.8183 25.4766 27.0234C25.6817 27.2285 25.9599 27.3438 26.25 27.3438H30.625C30.9151 27.3438 31.1933 27.2285 31.3984 27.0234C31.6035 26.8183 31.7188 26.5401 31.7188 26.25V21.875ZM29.5312 25.1563H27.3438V22.9688H29.5312V25.1563ZM14.2188 30.625C14.2188 30.3349 14.1035 30.0567 13.8984 29.8516C13.6933 29.6465 13.4151 29.5313 13.125 29.5313H8.75C8.45992 29.5313 8.18172 29.6465 7.9766 29.8516C7.77148 30.0567 7.65625 30.3349 7.65625 30.625V35C7.65625 35.2901 7.77148 35.5683 7.9766 35.7734C8.18172 35.9785 8.45992 36.0938 8.75 36.0938H13.125C13.4151 36.0938 13.6933 35.9785 13.8984 35.7734C14.1035 35.5683 14.2188 35.2901 14.2188 35V30.625ZM12.0312 33.9063H9.84375V31.7188H12.0312V33.9063ZM22.9688 30.625C22.9688 30.3349 22.8535 30.0567 22.6484 29.8516C22.4433 29.6465 22.1651 29.5313 21.875 29.5313H17.5C17.2099 29.5313 16.9317 29.6465 16.7266 29.8516C16.5215 30.0567 16.4062 30.3349 16.4062 30.625V35C16.4062 35.2901 16.5215 35.5683 16.7266 35.7734C16.9317 35.9785 17.2099 36.0938 17.5 36.0938H21.875C22.1651 36.0938 22.4433 35.9785 22.6484 35.7734C22.8535 35.5683 22.9688 35.2901 22.9688 35V30.625ZM20.7812 33.9063H18.5938V31.7188H20.7812V33.9063ZM31.7188 30.625C31.7188 30.3349 31.6035 30.0567 31.3984 29.8516C31.1933 29.6465 30.9151 29.5313 30.625 29.5313H26.25C25.9599 29.5313 25.6817 29.6465 25.4766 29.8516C25.2715 30.0567 25.1562 30.3349 25.1562 30.625V35C25.1562 35.2901 25.2715 35.5683 25.4766 35.7734C25.6817 35.9785 25.9599 36.0938 26.25 36.0938H30.625C30.9151 36.0938 31.1933 35.9785 31.3984 35.7734C31.6035 35.5683 31.7188 35.2901 31.7188 35V30.625ZM29.5312 33.9063H27.3438V31.7188H29.5312V33.9063ZM13.125 38.2813H8.75C8.45992 38.2813 8.18172 38.3965 7.9766 38.6016C7.77148 38.8067 7.65625 39.0849 7.65625 39.375V43.75C7.65625 44.0401 7.77148 44.3183 7.9766 44.5234C8.18172 44.7285 8.45992 44.8438 8.75 44.8438H13.125C13.4151 44.8438 13.6933 44.7285 13.8984 44.5234C14.1035 44.3183 14.2188 44.0401 14.2188 43.75V39.375C14.2188 39.0849 14.1035 38.8067 13.8984 38.6016C13.6933 38.3965 13.4151 38.2813 13.125 38.2813ZM12.0312 42.6563H9.84375V40.4688H12.0312V42.6563ZM21.875 38.2813H17.5C17.2099 38.2813 16.9317 38.3965 16.7266 38.6016C16.5215 38.8067 16.4062 39.0849 16.4062 39.375V43.75C16.4062 44.0401 16.5215 44.3183 16.7266 44.5234C16.9317 44.7285 17.2099 44.8438 17.5 44.8438H21.875C22.1651 44.8438 22.4433 44.7285 22.6484 44.5234C22.8535 44.3183 22.9688 44.0401 22.9688 43.75V39.375C22.9688 39.0849 22.8535 38.8067 22.6484 38.6016C22.4433 38.3965 22.1651 38.2813 21.875 38.2813ZM20.7812 42.6563H18.5938V40.4688H20.7812V42.6563ZM30.625 38.2813H26.25C25.9599 38.2813 25.6817 38.3965 25.4766 38.6016C25.2715 38.8067 25.1562 39.0849 25.1562 39.375V43.75C25.1562 44.0401 25.2715 44.3183 25.4766 44.5234C25.6817 44.7285 25.9599 44.8438 26.25 44.8438H30.625C30.9151 44.8438 31.1933 44.7285 31.3984 44.5234C31.6035 44.3183 31.7188 44.0401 31.7188 43.75V39.375C31.7188 39.0849 31.6035 38.8067 31.3984 38.6016C31.1933 38.3965 30.9151 38.2813 30.625 38.2813ZM29.5312 42.6563H27.3438V40.4688H29.5312V42.6563ZM37.1875 38.2813H39.375V40.4688H37.1875V38.2813ZM41.5625 38.2813H60.1562V40.4688H41.5625V38.2813ZM35 42.6563H55.7812V44.8438H35V42.6563Z" fill="#2A9DF4"/>
</svg>
