<svg width="70" height="64" viewBox="0 0 70 64" fill="none" xmlns="http://www.w3.org/2000/svg">
<path d="M65.7326 0.625H52.5418C52.2699 0.625 52.0091 0.733032 51.8168 0.92533C51.6245 1.11763 51.5164 1.37844 51.5164 1.65039C51.5164 1.92234 51.6245 2.18315 51.8168 2.37545C52.0091 2.56775 52.2699 2.67578 52.5418 2.67578H65.7326C66.9549 2.67578 67.9492 3.67014 67.9492 4.8924V43.8537H2.05078V4.8924C2.05078 3.67014 3.04514 2.67578 4.2674 2.67578H47.7565C48.0285 2.67578 48.2893 2.56775 48.4816 2.37545C48.6739 2.18315 48.7819 1.92234 48.7819 1.65039C48.7819 1.37844 48.6739 1.11763 48.4816 0.92533C48.2893 0.733032 48.0285 0.625 47.7565 0.625H4.2674C1.91434 0.625 0 2.53934 0 4.8924V47.1058C0 49.4589 1.91434 51.3732 4.2674 51.3732H14.0839C14.3559 51.3732 14.6167 51.2652 14.809 51.0729C15.0013 50.8806 15.1093 50.6198 15.1093 50.3478C15.1093 50.0759 15.0013 49.8151 14.809 49.6228C14.6167 49.4305 14.3559 49.3224 14.0839 49.3224H4.2674C3.04514 49.3224 2.05078 48.3281 2.05078 47.1058V45.9045H67.9492V47.1058C67.9492 48.3281 66.9549 49.3224 65.7326 49.3224H18.824C18.552 49.3224 18.2912 49.4305 18.0989 49.6228C17.9066 49.8151 17.7986 50.0759 17.7986 50.3478C17.7986 50.6198 17.9066 50.8806 18.0989 51.0729C18.2912 51.2652 18.552 51.3732 18.824 51.3732H25.2777L24.2653 57.2241H22.3941C20.6978 57.2241 19.3179 58.604 19.3179 60.3003C19.3179 61.9965 20.6978 63.3764 22.3941 63.3764H47.6059C49.3021 63.3764 50.682 61.9965 50.682 60.3003C50.682 58.604 49.3021 57.2241 47.6059 57.2241H45.7347L44.7223 51.3732H65.7325C68.0855 51.3732 69.9999 49.4589 69.9999 47.1058V4.8924C70 2.53934 68.0857 0.625 65.7326 0.625ZM43.6535 57.2241H40.8619C40.59 57.2241 40.3292 57.3321 40.1369 57.5244C39.9446 57.7167 39.8366 57.9775 39.8366 58.2495C39.8366 58.5214 39.9446 58.7823 40.1369 58.9746C40.3292 59.1669 40.59 59.2749 40.8619 59.2749H47.6059C48.1713 59.2749 48.6313 59.7348 48.6313 60.3003C48.6313 60.8657 48.1713 61.3257 47.6059 61.3257H22.3941C21.8286 61.3257 21.3687 60.8657 21.3687 60.3003C21.3687 59.7348 21.8286 59.2749 22.3941 59.2749H36.0752C36.3471 59.2749 36.6079 59.1669 36.8002 58.9746C36.9925 58.7823 37.1005 58.5214 37.1005 58.2495C37.1005 57.9775 36.9925 57.7167 36.8002 57.5244C36.6079 57.3321 36.3471 57.2241 36.0752 57.2241H26.3465L27.3589 51.3732H42.6412L43.6535 57.2241Z" fill="#222222"/>
<path d="M55.4694 26.5697C55.2802 26.5697 55.0947 26.6221 54.9333 26.721C54.772 26.8199 54.6412 26.9615 54.5554 27.1301L49.7164 36.641L45.6329 28.6149C45.5471 28.4463 45.4163 28.3047 45.255 28.2058C45.0937 28.1069 44.9081 28.0545 44.7189 28.0545C44.5297 28.0545 44.3442 28.1069 44.1829 28.2058C44.0216 28.3047 43.8908 28.4463 43.805 28.6149L41.5913 32.9657H38.057C37.7851 32.9657 37.5243 33.0737 37.332 33.266C37.1397 33.4583 37.0316 33.7191 37.0316 33.9911C37.0316 34.263 37.1397 34.5238 37.332 34.7161C37.5243 34.9084 37.7851 35.0165 38.057 35.0165H42.2201C42.4093 35.0165 42.5949 34.9641 42.7562 34.8652C42.9175 34.7663 43.0483 34.6247 43.1341 34.4561L44.7189 31.3412L48.8024 39.3673C48.8883 39.5359 49.0191 39.6775 49.1804 39.7764C49.3417 39.8753 49.5272 39.9276 49.7164 39.9276C49.9056 39.9276 50.0911 39.8753 50.2524 39.7764C50.4137 39.6775 50.5445 39.5359 50.6304 39.3673L55.4694 29.8564L57.8096 34.4562C57.8954 34.6248 58.0262 34.7664 58.1875 34.8653C58.3488 34.9642 58.5344 35.0166 58.7236 35.0166H62.8867C63.1586 35.0166 63.4194 34.9086 63.6117 34.7163C63.804 34.524 63.912 34.2632 63.912 33.9912C63.912 33.7193 63.804 33.4585 63.6117 33.2662C63.4194 33.0739 63.1586 32.9658 62.8867 32.9658H59.3523L56.3834 27.1303C56.2976 26.9616 56.1668 26.8199 56.0055 26.721C55.8442 26.6221 55.6586 26.5697 55.4694 26.5697ZM38.0574 23.5321H43.3784C43.6503 23.5321 43.9112 23.4241 44.1035 23.2318C44.2958 23.0395 44.4038 22.7787 44.4038 22.5067V11.7122C44.4038 11.4403 44.2958 11.1794 44.1035 10.9871C43.9112 10.7948 43.6503 10.6868 43.3784 10.6868H38.0574C37.7855 10.6868 37.5247 10.7948 37.3324 10.9871C37.1401 11.1794 37.032 11.4403 37.032 11.7122V22.5067C37.032 22.7787 37.1401 23.0395 37.3324 23.2318C37.5247 23.4241 37.7855 23.5321 38.0574 23.5321ZM39.0828 12.7376H42.353V21.4813H39.0828V12.7376ZM53.1687 13.6201H47.8477C47.5758 13.6201 47.315 13.7281 47.1227 13.9204C46.9304 14.1127 46.8223 14.3736 46.8223 14.6455V22.5067C46.8223 22.7787 46.9304 23.0395 47.1227 23.2318C47.315 23.4241 47.5758 23.5321 47.8477 23.5321H53.1687C53.4406 23.5321 53.7015 23.4241 53.8937 23.2318C54.086 23.0395 54.1941 22.7787 54.1941 22.5067V14.6455C54.1941 14.3736 54.086 14.1127 53.8937 13.9204C53.7015 13.7281 53.4406 13.6201 53.1687 13.6201ZM52.1433 21.4813H48.8731V15.6709H52.1433V21.4813ZM62.8867 23.5321C63.1586 23.5321 63.4194 23.4241 63.6117 23.2318C63.804 23.0395 63.912 22.7787 63.912 22.5067V9.00586C63.912 8.73391 63.804 8.4731 63.6117 8.2808C63.4194 8.0885 63.1586 7.98047 62.8867 7.98047H57.5657C57.2938 7.98047 57.0329 8.0885 56.8406 8.2808C56.6483 8.4731 56.5403 8.73391 56.5403 9.00586V22.5067C56.5403 22.7787 56.6483 23.0395 56.8406 23.2318C57.0329 23.4241 57.2938 23.5321 57.5657 23.5321H62.8867ZM58.5911 10.0312H61.8613V21.4813H58.5911V10.0312ZM30.3376 19.58H7.09543C6.82348 19.58 6.56267 19.688 6.37037 19.8803C6.17807 20.0726 6.07004 20.3334 6.07004 20.6054C6.07004 20.8773 6.17807 21.1381 6.37037 21.3304C6.56267 21.5227 6.82348 21.6307 7.09543 21.6307H30.3376C30.6096 21.6307 30.8704 21.5227 31.0627 21.3304C31.255 21.1381 31.363 20.8773 31.363 20.6054C31.363 20.3334 31.255 20.0726 31.0627 19.8803C30.8704 19.688 30.6096 19.58 30.3376 19.58ZM7.09543 27.0778H11.2547C11.5266 27.0778 11.7874 26.9697 11.9797 26.7774C12.172 26.5851 12.2801 26.3243 12.2801 26.0524C12.2801 25.7804 12.172 25.5196 11.9797 25.3273C11.7874 25.135 11.5266 25.027 11.2547 25.027H7.09543C6.82348 25.027 6.56267 25.135 6.37037 25.3273C6.17807 25.5196 6.07004 25.7804 6.07004 26.0524C6.07004 26.3243 6.17807 26.5851 6.37037 26.7774C6.56267 26.9697 6.82348 27.0778 7.09543 27.0778ZM30.3376 25.027H15.953C15.6811 25.027 15.4203 25.135 15.228 25.3273C15.0357 25.5196 14.9276 25.7804 14.9276 26.0524C14.9276 26.3243 15.0357 26.5851 15.228 26.7774C15.4203 26.9697 15.6811 27.0778 15.953 27.0778H30.3376C30.6096 27.0778 30.8704 26.9697 31.0627 26.7774C31.255 26.5851 31.363 26.3243 31.363 26.0524C31.363 25.7804 31.255 25.5196 31.0627 25.3273C30.8704 25.135 30.6096 25.027 30.3376 25.027ZM30.3376 7.98047H7.09543C6.82348 7.98047 6.56267 8.0885 6.37037 8.2808C6.17807 8.4731 6.07004 8.73391 6.07004 9.00586C6.07004 9.27781 6.17807 9.53862 6.37037 9.73092C6.56267 9.92322 6.82348 10.0312 7.09543 10.0312H30.3376C30.6096 10.0312 30.8704 9.92322 31.0627 9.73092C31.255 9.53862 31.363 9.27781 31.363 9.00586C31.363 8.73391 31.255 8.4731 31.0627 8.2808C30.8704 8.0885 30.6096 7.98047 30.3376 7.98047ZM7.09543 15.4784H21.5086C21.7805 15.4784 22.0414 15.3704 22.2337 15.1781C22.426 14.9858 22.534 14.725 22.534 14.453C22.534 14.1811 22.426 13.9202 22.2337 13.7279C22.0414 13.5356 21.7805 13.4276 21.5086 13.4276H7.09543C6.82348 13.4276 6.56267 13.5356 6.37037 13.7279C6.17807 13.9202 6.07004 14.1811 6.07004 14.453C6.07004 14.725 6.17807 14.9858 6.37037 15.1781C6.56267 15.3704 6.82348 15.4784 7.09543 15.4784ZM30.3376 13.4276H26.2069C25.935 13.4276 25.6742 13.5356 25.4819 13.7279C25.2896 13.9202 25.1815 14.1811 25.1815 14.453C25.1815 14.725 25.2896 14.9858 25.4819 15.1781C25.6742 15.3704 25.935 15.4784 26.2069 15.4784H30.3376C30.6096 15.4784 30.8704 15.3704 31.0627 15.1781C31.255 14.9858 31.363 14.725 31.363 14.453C31.363 14.1811 31.255 13.9202 31.0627 13.7279C30.8704 13.5356 30.6096 13.4276 30.3376 13.4276ZM31.363 31.4333C31.363 31.1614 31.255 30.9006 31.0627 30.7083C30.8704 30.516 30.6096 30.4079 30.3376 30.4079H7.09543C6.82348 30.4079 6.56267 30.516 6.37037 30.7083C6.17807 30.9006 6.07004 31.1614 6.07004 31.4333C6.07004 31.7053 6.17807 31.9661 6.37037 32.1584C6.56267 32.3507 6.82348 32.4587 7.09543 32.4587H30.3376C30.6096 32.4587 30.8704 32.3507 31.0627 32.1584C31.255 31.9661 31.363 31.7053 31.363 31.4333ZM7.09543 35.8261C6.82348 35.8261 6.56267 35.9341 6.37037 36.1264C6.17807 36.3187 6.07004 36.5796 6.07004 36.8515C6.07004 37.1235 6.17807 37.3843 6.37037 37.5766C6.56267 37.7689 6.82348 37.8769 7.09543 37.8769H18.0329C18.3049 37.8769 18.5657 37.7689 18.758 37.5766C18.9503 37.3843 19.0583 37.1235 19.0583 36.8515C19.0583 36.5796 18.9503 36.3187 18.758 36.1264C18.5657 35.9341 18.3049 35.8261 18.0329 35.8261H7.09543Z" fill="#2594F4"/>
</svg>
