<svg width="70" height="70" viewBox="0 0 70 70" fill="none" xmlns="http://www.w3.org/2000/svg">
<g clip-path="url(#clip0_332_5566)">
<path d="M44.6555 18.1954C46.5401 18.1954 48.0734 16.6621 48.0734 14.7775C48.0734 12.8928 46.5401 11.3594 44.6555 11.3594C42.7708 11.3594 41.2375 12.8928 41.2375 14.7775C41.2375 15.5472 41.4934 16.2581 41.9245 16.8302L36.3087 24.678C35.9652 24.565 35.606 24.5074 35.2444 24.5075C34.3463 24.5075 33.5285 24.8562 32.9179 25.4247L29.1747 23.3007C29.2256 23.0645 29.2513 22.8236 29.2514 22.5819C29.2514 20.6973 27.7181 19.164 25.8334 19.164C23.9487 19.164 22.4154 20.6973 22.4154 22.5819C22.4154 22.8284 22.4422 23.0688 22.4921 23.3007L18.7489 25.4247C18.1383 24.8562 17.3205 24.5076 16.4224 24.5076C14.5377 24.5076 13.0044 26.0411 13.0044 27.9257C13.0044 29.8104 14.5377 31.3438 16.4224 31.3438C18.307 31.3438 19.8403 29.8104 19.8403 27.9257C19.8403 27.6841 19.8146 27.4432 19.7636 27.207L23.5069 25.0829C24.1174 25.6514 24.9353 26.0002 25.8334 26.0002C26.7315 26.0002 27.5492 25.6514 28.1599 25.0831L31.9032 27.2071C31.8522 27.4433 31.8265 27.6842 31.8265 27.9259C31.8265 29.8105 33.3598 31.344 35.2444 31.344C37.1292 31.344 38.6625 29.8105 38.6625 27.9259C38.6633 27.1849 38.422 26.4641 37.9754 25.8729L43.5913 18.0251C43.9347 18.138 44.2939 18.1955 44.6555 18.1954ZM44.6555 13.4102C45.4093 13.4102 46.0227 14.0235 46.0227 14.7775C46.0227 15.5313 45.4093 16.1447 44.6555 16.1447C43.9016 16.1447 43.2883 15.5313 43.2883 14.7775C43.2881 14.0235 43.9015 13.4102 44.6555 13.4102ZM16.422 29.2928C15.6681 29.2928 15.0548 28.6795 15.0548 27.9254C15.0548 27.1714 15.6681 26.5581 16.422 26.5581C17.1758 26.5581 17.7891 27.1714 17.7891 27.9254C17.7891 28.6795 17.1758 29.2928 16.422 29.2928ZM25.8331 23.9491C25.0793 23.9491 24.4659 23.3358 24.4659 22.5818C24.4659 21.8279 25.0793 21.2146 25.8331 21.2146C26.587 21.2146 27.2003 21.8279 27.2003 22.5818C27.2005 23.3358 26.587 23.9491 25.8331 23.9491ZM35.2443 29.2928C34.4904 29.2928 33.8771 28.6795 33.8771 27.9254C33.8771 27.1714 34.4904 26.5581 35.2443 26.5581C35.9983 26.5581 36.6116 27.1714 36.6116 27.9254C36.6116 28.6795 35.9982 29.2928 35.2443 29.2928Z" fill="#2A9DF4"/>
<path d="M57.2573 51.54H2.90049C2.67521 51.5398 2.45923 51.4502 2.29993 51.2909C2.14064 51.1316 2.05103 50.9156 2.05078 50.6903V8.38693C2.05103 8.16166 2.14064 7.94568 2.29993 7.78638C2.45923 7.62708 2.67521 7.53748 2.90049 7.53723H7.73432C8.30061 7.53723 8.75971 7.07826 8.75971 6.51184C8.75971 5.94541 8.30061 5.48645 7.73432 5.48645H2.90049C1.30115 5.48645 0 6.7876 0 8.38693V50.6903C0 52.2896 1.30115 53.5908 2.90049 53.5908H9.97063V55.8475C9.97063 57.133 11.0165 58.1789 12.3021 58.1789H22.5661L17.7345 67.6123C17.6135 67.854 17.5928 68.1337 17.677 68.3906C17.7612 68.6474 17.9434 68.8607 18.1839 68.9839C18.4245 69.1071 18.704 69.1304 18.9617 69.0486C19.2193 68.9668 19.4342 68.7866 19.5597 68.5471L24.8702 58.1789H36.2072L41.5178 68.5471C41.5791 68.667 41.6635 68.7736 41.7661 68.8609C41.8686 68.9482 41.9874 69.0144 42.1156 69.0557C42.2437 69.0971 42.3788 69.1128 42.513 69.1019C42.6472 69.091 42.778 69.0538 42.8978 68.9924C43.0177 68.9311 43.1243 68.8466 43.2115 68.7441C43.2988 68.6415 43.3649 68.5227 43.4063 68.3946C43.4476 68.2664 43.4633 68.1313 43.4524 67.9971C43.4416 67.8629 43.4044 67.7321 43.343 67.6123L38.5114 58.1789H48.7754C50.0609 58.1789 51.1068 57.1332 51.1068 55.8475V53.5908H57.2573C57.8236 53.5908 58.2827 53.1318 58.2827 52.5654C58.2827 51.999 57.8236 51.54 57.2573 51.54ZM49.0561 55.8475C49.056 55.9219 49.0264 55.9933 48.9738 56.0459C48.9211 56.0985 48.8498 56.1281 48.7754 56.1282H12.3021C12.2277 56.1281 12.1563 56.0985 12.1037 56.0459C12.0511 55.9933 12.0215 55.9219 12.0214 55.8475V53.5908H49.0561V55.8475ZM11.8359 7.53723H58.1768C58.4021 7.53748 58.6181 7.62708 58.7774 7.78638C58.9367 7.94568 59.0263 8.16166 59.0266 8.38693V18.1365C59.0266 18.7029 59.4856 19.1619 60.0519 19.1619C60.6182 19.1619 61.0773 18.7029 61.0773 18.1365V8.38693C61.0773 6.7876 59.7762 5.48645 58.1768 5.48645H36.2298V3.47094C36.2298 2.05248 35.0757 0.898438 33.6572 0.898438H27.4203C26.0019 0.898438 24.8477 2.05248 24.8477 3.47094V5.48645H11.8359C11.2696 5.48645 10.8105 5.94541 10.8105 6.51184C10.8105 7.07826 11.2696 7.53723 11.8359 7.53723ZM26.8985 3.47094C26.8986 3.33259 26.9536 3.19995 27.0515 3.10214C27.1493 3.00432 27.282 2.94933 27.4203 2.94922H33.6572C33.7955 2.94936 33.9281 3.00437 34.026 3.10218C34.1238 3.19998 34.1788 3.3326 34.179 3.47094V5.48645H26.8986V3.47094H26.8985Z" fill="#222222"/>
<path d="M14.342 36.5842C14.0701 36.5842 13.8093 36.6923 13.617 36.8846C13.4247 37.0769 13.3167 37.3377 13.3167 37.6096V46.6702C13.3167 46.9422 13.4247 47.203 13.617 47.3953C13.8093 47.5876 14.0701 47.6956 14.342 47.6956H18.502C18.7739 47.6956 19.0347 47.5876 19.227 47.3953C19.4193 47.203 19.5274 46.9422 19.5274 46.6702V37.6096C19.5274 37.3377 19.4193 37.0769 19.227 36.8846C19.0347 36.6923 18.7739 36.5842 18.502 36.5842H14.342ZM17.4766 45.645H15.3674V38.6351H17.4766V45.645ZM23.7531 31.3441C23.4811 31.3441 23.2203 31.4521 23.028 31.6444C22.8357 31.8367 22.7277 32.0975 22.7277 32.3695V46.6704C22.7277 46.9423 22.8357 47.2031 23.028 47.3954C23.2203 47.5877 23.4811 47.6958 23.7531 47.6958H27.913C28.185 47.6958 28.4458 47.5877 28.6381 47.3954C28.8304 47.2031 28.9384 46.9423 28.9384 46.6704V32.3695C28.9384 32.0975 28.8304 31.8367 28.6381 31.6444C28.4458 31.4521 28.185 31.3441 27.913 31.3441H23.7531ZM26.8878 45.645H24.7786V33.3949H26.8878V45.645ZM33.1642 36.5842C32.8923 36.5842 32.6315 36.6923 32.4392 36.8846C32.2469 37.0769 32.1389 37.3377 32.1389 37.6096V46.6702C32.1389 46.9422 32.2469 47.203 32.4392 47.3953C32.6315 47.5876 32.8923 47.6956 33.1642 47.6956H37.3242C37.5961 47.6956 37.857 47.5876 38.0493 47.3953C38.2415 47.203 38.3496 46.9422 38.3496 46.6702V37.6096C38.3496 37.3377 38.2415 37.0769 38.0493 36.8846C37.857 36.6923 37.5961 36.5842 37.3242 36.5842H33.1642ZM36.2988 45.645H34.1896V38.6351H36.2988V45.645ZM42.5754 42.6349C42.3035 42.6349 42.0427 42.7429 41.8504 42.9352C41.6581 43.1275 41.55 43.3883 41.55 43.6602V46.6704C41.55 46.9423 41.6581 47.2031 41.8504 47.3954C42.0427 47.5877 42.3035 47.6958 42.5754 47.6958H46.7354C47.3017 47.6958 47.7607 47.2368 47.7607 46.6704C47.7607 46.104 47.3017 45.645 46.7354 45.645H43.6008V43.6602C43.6008 43.3883 43.4928 43.1275 43.3005 42.9352C43.1082 42.7429 42.8474 42.6349 42.5754 42.6349ZM69.477 52.5042L63.5944 42.3151C65.0848 40.7265 66.1701 38.7855 66.7498 36.6221C67.6763 33.1643 67.2008 29.5526 65.4109 26.4524C61.7159 20.0522 53.5031 17.852 47.1033 21.5468C40.7033 25.2416 38.5028 33.4545 42.1978 39.8544C43.9877 42.9546 46.8778 45.1722 50.3356 46.0989C51.4738 46.405 52.6473 46.5605 53.826 46.5613C54.8435 46.5613 55.855 46.4443 56.8443 46.2126L62.7257 56.402C63.4466 57.6512 64.7594 58.3503 66.1077 58.3501C66.7685 58.3501 67.4379 58.1821 68.0502 57.8288C69.2528 57.1347 70 55.8404 70 54.451C70 53.7703 69.8192 53.0973 69.477 52.5042ZM50.8663 44.118C47.9377 43.3332 45.4897 41.4548 43.9736 38.829C40.8441 33.4084 42.708 26.4524 48.1285 23.3228C49.9117 22.2933 51.8604 21.8044 53.7851 21.8044C57.711 21.8044 61.5348 23.8405 63.6348 27.4778C65.1507 30.1036 65.5535 33.1626 64.7687 36.0914C63.9839 39.0201 62.1056 41.4678 59.4797 42.9839C56.8541 44.5 53.7951 44.9025 50.8663 44.118ZM67.0252 56.0526C66.143 56.562 65.011 56.2587 64.502 55.3769L58.8434 45.5736C59.4153 45.3404 59.9705 45.0686 60.5054 44.76C61.0401 44.4505 61.5531 44.1049 62.0407 43.7256L67.7009 53.5293C67.8629 53.8096 67.9485 54.1275 67.9492 54.4512C67.9488 54.7756 67.8632 55.0943 67.7011 55.3753C67.5389 55.6563 67.3059 55.8898 67.0252 56.0526Z" fill="#2A9DF4"/>
<path d="M63.1014 36.0427C63.8254 33.7108 63.653 31.2143 62.616 29.0132C62.5595 28.8899 62.4791 28.7791 62.3795 28.6871C62.2799 28.5952 62.1631 28.5239 62.0358 28.4773C61.9085 28.4308 61.7732 28.41 61.6378 28.4161C61.5023 28.4221 61.3695 28.455 61.2468 28.5128C61.1242 28.5706 61.0142 28.6521 60.9233 28.7526C60.8324 28.8532 60.7623 28.9707 60.7171 29.0985C60.6719 29.2263 60.6525 29.3618 60.66 29.4972C60.6675 29.6325 60.7018 29.765 60.7608 29.8871C61.5788 31.6234 61.7146 33.5934 61.1429 35.4344C60.5682 37.2856 59.3265 38.8391 57.6466 39.809C55.869 40.8355 53.7979 41.1078 51.8153 40.5767C49.8326 40.0454 48.1753 38.7738 47.1491 36.9962C45.0304 33.3265 46.2923 28.6174 49.962 26.4986C51.2707 25.7409 52.7741 25.3867 54.2834 25.4805C55.7927 25.5743 57.2407 26.112 58.4455 27.0259C58.5528 27.1072 58.6752 27.1666 58.8055 27.2006C58.9358 27.2345 59.0715 27.2425 59.2049 27.2241C59.3383 27.2056 59.4667 27.161 59.5829 27.0929C59.699 27.0248 59.8006 26.9344 59.8819 26.827C60.0459 26.6101 60.1171 26.337 60.0798 26.0676C60.0425 25.7982 59.8997 25.5547 59.6828 25.3907C58.1567 24.2328 56.3225 23.5517 54.4106 23.4328C52.4986 23.3139 50.5942 23.7626 48.9364 24.7225C46.6844 26.0227 45.0734 28.1222 44.4004 30.634C43.7273 33.1458 44.0728 35.7694 45.373 38.0214C46.6732 40.2736 48.7726 41.8844 51.2844 42.5576C52.1113 42.78 52.9638 42.8929 53.82 42.8935C55.5069 42.8935 57.172 42.4511 58.6719 41.585C60.8002 40.3564 62.3733 38.3882 63.1014 36.0427Z" fill="#2A9DF4"/>
</g>
<defs>
<clipPath id="clip0_332_5566">
<rect width="70" height="70" fill="white"/>
</clipPath>
</defs>
</svg>
