<svg width="70" height="70" viewBox="0 0 70 70" fill="none" xmlns="http://www.w3.org/2000/svg">
<path d="M62.3438 37.7672V16.3188C66.0483 15.785 68.9062 12.5989 68.9062 8.75C68.9062 4.52922 65.4719 1.09375 61.25 1.09375C57.0281 1.09375 53.5938 4.52922 53.5938 8.75H1.09375V52.5H33.962C34.5308 61.6394 42.1269 68.9062 51.4062 68.9062C61.0553 68.9062 68.9062 61.0553 68.9062 51.4062C68.9062 45.8948 66.3392 40.9773 62.3438 37.7672ZM61.25 3.28125C64.2655 3.28125 66.7188 5.73453 66.7188 8.75C66.7188 11.7655 64.2655 14.2188 61.25 14.2188C58.2345 14.2188 55.7812 11.7655 55.7812 8.75C55.7812 5.73453 58.2345 3.28125 61.25 3.28125ZM3.28125 10.9375H53.9164C54.1763 11.7991 54.5862 12.6081 55.1272 13.3273L48.4378 20.0167C48.0091 19.8111 47.5366 19.6875 47.0312 19.6875C46.5259 19.6875 46.0534 19.8111 45.6258 20.0167L43.4219 17.8128C43.6264 17.3841 43.75 16.9116 43.75 16.4062C43.75 14.5972 42.2778 13.125 40.4688 13.125C38.6597 13.125 37.1875 14.5972 37.1875 16.4062C37.1875 16.9116 37.3111 17.3841 37.5167 17.8117L32.0316 23.2969C31.5932 23.0834 31.1125 22.9713 30.625 22.9688C28.8159 22.9688 27.3438 24.4409 27.3438 26.25C27.3438 28.0591 28.8159 29.5312 30.625 29.5312C32.4341 29.5312 33.9062 28.0591 33.9062 26.25C33.9041 25.7627 33.7915 25.2821 33.577 24.8445L39.0622 19.3594C39.4909 19.5639 39.9634 19.6875 40.4688 19.6875C40.9741 19.6875 41.4466 19.5639 41.8742 19.3583L44.0781 21.5622C43.8736 21.9909 43.75 22.4634 43.75 22.9688C43.75 24.7778 45.2222 26.25 47.0312 26.25C48.8403 26.25 50.3125 24.7778 50.3125 22.9688C50.3103 22.4814 50.1978 22.0009 49.9833 21.5633L56.6738 14.8739C57.6949 15.6404 58.8925 16.1377 60.1562 16.3198V36.2753C57.5008 34.7247 54.4812 33.9072 51.4062 33.9062C46.1781 33.9062 41.4903 36.2228 38.2812 39.8705V35H31.7188V48.125H34.2256C34.092 48.8479 34.004 49.5785 33.962 50.3125H3.28125V10.9375ZM47.0312 21.875C47.2479 21.8748 47.4597 21.9388 47.6399 22.0591C47.8201 22.1793 47.9606 22.3503 48.0436 22.5504C48.1266 22.7505 48.1484 22.9707 48.1062 23.1832C48.064 23.3956 47.9597 23.5908 47.8065 23.744C47.6533 23.8972 47.4581 24.0015 47.2457 24.0437C47.0332 24.0859 46.813 24.0641 46.6129 23.9811C46.4128 23.8981 46.2418 23.7576 46.1216 23.5774C46.0013 23.3972 45.9373 23.1854 45.9375 22.9688C45.9375 22.365 46.4286 21.875 47.0312 21.875ZM39.375 16.4062C39.3748 16.1896 39.4388 15.9778 39.5591 15.7976C39.6793 15.6174 39.8503 15.4769 40.0504 15.3939C40.2505 15.3109 40.4707 15.2891 40.6832 15.3313C40.8956 15.3735 41.0908 15.4778 41.244 15.631C41.3972 15.7842 41.5015 15.9794 41.5437 16.1918C41.5859 16.4043 41.5641 16.6245 41.4811 16.8246C41.3981 17.0247 41.2576 17.1957 41.0774 17.3159C40.8972 17.4362 40.6854 17.5002 40.4688 17.5C39.8661 17.5 39.375 17.01 39.375 16.4062ZM31.7188 26.25C31.7062 26.5316 31.5854 26.7975 31.3817 26.9924C31.1779 27.1872 30.9069 27.2959 30.625 27.2959C30.3431 27.2959 30.0721 27.1872 29.8683 26.9924C29.6646 26.7975 29.5438 26.5316 29.5312 26.25C29.5438 25.9684 29.6646 25.7025 29.8683 25.5076C30.0721 25.3128 30.3431 25.2041 30.625 25.2041C30.9069 25.2041 31.1779 25.3128 31.3817 25.5076C31.5854 25.7025 31.7062 25.9684 31.7188 26.25ZM51.4062 60.1562C46.5817 60.1562 42.6562 56.2308 42.6562 51.4062C42.6562 46.5817 46.5817 42.6562 51.4062 42.6562C56.2308 42.6562 60.1562 46.5817 60.1562 51.4062C60.1562 56.2308 56.2308 60.1562 51.4062 60.1562ZM36.0938 42.9527C35.5678 43.9047 35.1324 44.904 34.7933 45.9375H33.9062V37.1875H36.0938V42.9527ZM50.3125 36.1495V40.5245C44.7934 41.0758 40.4688 45.745 40.4688 51.4062C40.4688 53.0064 40.8231 54.5234 41.4433 55.895L37.6491 58.0858C36.6279 56.007 36.0959 53.7222 36.0938 51.4062C36.0938 43.3322 42.3795 36.7139 50.3125 36.1495ZM51.4062 66.7188C46.1409 66.7188 41.4881 64.0467 38.7319 59.9867L42.5414 57.7872C44.5298 60.5412 47.7575 62.3438 51.4062 62.3438C55.055 62.3438 58.2827 60.5412 60.2711 57.7872L64.0806 59.9867C61.3244 64.0467 56.6716 66.7188 51.4062 66.7188ZM65.1634 58.0858L61.3692 55.895C62.0102 54.4853 62.3425 52.9549 62.3438 51.4062C62.3438 45.745 58.0191 41.0747 52.5 40.5245V36.1495C60.433 36.7139 66.7188 43.3322 66.7188 51.4062C66.7188 53.8027 66.15 56.0645 65.1634 58.0858Z" fill="#222222"/>
<path d="M51.4062 44.8438C47.787 44.8438 44.8438 47.787 44.8438 51.4062C44.8438 55.0255 47.787 57.9688 51.4062 57.9688C55.0255 57.9688 57.9688 55.0255 57.9688 51.4062C57.9688 47.787 55.0255 44.8438 51.4062 44.8438ZM51.4062 55.7812C48.9934 55.7812 47.0312 53.8191 47.0312 51.4062C47.0312 48.9934 48.9934 47.0312 51.4062 47.0312C53.8191 47.0312 55.7812 48.9934 55.7812 51.4062C55.7812 53.8191 53.8191 55.7812 51.4062 55.7812ZM5.46875 13.125H7.65625V15.3125H5.46875V13.125ZM9.84375 13.125H25.1562V15.3125H9.84375V13.125ZM5.46875 17.5H7.65625V19.6875H5.46875V17.5ZM9.84375 17.5H25.1562V19.6875H9.84375V17.5ZM5.46875 21.875H7.65625V24.0625H5.46875V21.875ZM9.84375 21.875H25.1562V24.0625H9.84375V21.875ZM5.46875 26.25H7.65625V28.4375H5.46875V26.25ZM9.84375 26.25H25.1562V28.4375H9.84375V26.25ZM5.46875 48.125H12.0312V37.1875H5.46875V48.125ZM7.65625 39.375H9.84375V45.9375H7.65625V39.375ZM14.2188 48.125H20.7812V39.375H14.2188V48.125ZM16.4062 41.5625H18.5938V45.9375H16.4062V41.5625ZM22.9688 48.125H29.5312V30.625H22.9688V48.125ZM25.1562 32.8125H27.3438V45.9375H25.1562V32.8125Z" fill="#2A9DF4"/>
</svg>
