<svg width="13" height="13" viewBox="0 0 13 13" fill="none" xmlns="http://www.w3.org/2000/svg">
<path d="M12.6285 1.77672C12.4373 1.58515 12.127 1.58481 11.9357 1.7759L6.05798 7.63814L3.9373 5.33488C3.75406 5.13597 3.44424 5.12307 3.245 5.30629C3.04591 5.48954 3.03317 5.79951 3.21641 5.99859L5.6825 8.67682C5.72718 8.72538 5.78121 8.76441 5.84136 8.79155C5.9015 8.81869 5.96652 8.83338 6.03249 8.83475C6.03607 8.8349 6.03952 8.8349 6.04295 8.8349C6.1726 8.83486 6.29696 8.78348 6.38884 8.69201L12.6275 2.46965C12.8193 2.27859 12.8196 1.96829 12.6285 1.77672Z" fill="#2594F4"/>
<path d="M12.51 6.01004C12.2394 6.01004 12.0201 6.22936 12.0201 6.5C12.0201 9.5439 9.5439 12.0201 6.5 12.0201C3.45627 12.0201 0.9799 9.5439 0.9799 6.5C0.9799 3.45627 3.45627 0.9799 6.5 0.9799C6.77061 0.9799 6.98996 0.760576 6.98996 0.489963C6.98996 0.219324 6.77061 0 6.5 0C2.91586 0 0 2.91586 0 6.5C0 10.084 2.91586 13 6.5 13C10.084 13 13 10.084 13 6.5C13 6.22939 12.7807 6.01004 12.51 6.01004Z" fill="#2594F4"/>
</svg>
