<svg width="13" height="13" viewBox="0 0 13 13" fill="none" xmlns="http://www.w3.org/2000/svg">
<path d="M6.50033 0.539062C5.32188 0.539062 4.1699 0.888513 3.19006 1.54322C2.21021 2.19793 1.44652 3.1285 0.995546 4.21724C0.544574 5.30598 0.426579 6.50401 0.656483 7.65981C0.886386 8.81561 1.45386 9.87729 2.28715 10.7106C3.12044 11.5439 4.18211 12.1113 5.33792 12.3412C6.49372 12.5711 7.69174 12.4532 8.78048 12.0022C9.86923 11.5512 10.7998 10.7875 11.4545 9.80767C12.1092 8.82783 12.4587 7.67584 12.4587 6.4974C12.4568 4.91772 11.8284 3.40328 10.7114 2.28628C9.59445 1.16928 8.08 0.540926 6.50033 0.539062ZM6.50033 11.3724C5.53614 11.3724 4.59361 11.0865 3.79192 10.5508C2.99023 10.0151 2.36539 9.25377 1.99642 8.36298C1.62744 7.47219 1.5309 6.49199 1.719 5.54633C1.9071 4.60067 2.3714 3.73203 3.05318 3.05025C3.73496 2.36847 4.60361 1.90417 5.54926 1.71607C6.49492 1.52796 7.47512 1.62451 8.36591 1.99348C9.2567 2.36246 10.0181 2.9873 10.5537 3.78899C11.0894 4.59068 11.3753 5.53321 11.3753 6.4974C11.3739 7.78989 10.8598 9.02903 9.94589 9.94296C9.03196 10.8569 7.79282 11.371 6.50033 11.3724Z" fill="#C2C2C2"/>
<path d="M8.79797 4.19661C8.6964 4.09507 8.55865 4.03802 8.41501 4.03802C8.27138 4.03802 8.13363 4.09507 8.03206 4.19661L6.50022 5.72899L4.96839 4.19661C4.91842 4.14488 4.85865 4.10361 4.79257 4.07523C4.72648 4.04684 4.6554 4.0319 4.58348 4.03127C4.51156 4.03065 4.44023 4.04435 4.37367 4.07159C4.3071 4.09882 4.24662 4.13904 4.19576 4.1899C4.1449 4.24076 4.10468 4.30124 4.07745 4.36781C4.05021 4.43437 4.0365 4.5057 4.03713 4.57762C4.03775 4.64955 4.0527 4.72062 4.08109 4.78671C4.10947 4.85279 4.15074 4.91256 4.20247 4.96253L5.73431 6.49491L4.20247 8.02728C4.15074 8.07725 4.10947 8.13702 4.08109 8.2031C4.0527 8.26919 4.03775 8.34027 4.03713 8.41219C4.0365 8.48411 4.05021 8.55544 4.07745 8.62201C4.10468 8.68858 4.1449 8.74905 4.19576 8.79991C4.24662 8.85077 4.3071 8.89099 4.37367 8.91823C4.44023 8.94546 4.51156 8.95917 4.58348 8.95854C4.6554 8.95792 4.72648 8.94298 4.79257 8.91459C4.85865 8.8862 4.91842 8.84493 4.96839 8.7932L6.50022 7.26082L8.03206 8.7932C8.08202 8.84493 8.14179 8.8862 8.20788 8.91459C8.27396 8.94298 8.34504 8.95792 8.41696 8.95854C8.48889 8.95917 8.56021 8.94546 8.62678 8.91823C8.69335 8.89099 8.75383 8.85077 8.80469 8.79991C8.85555 8.74905 8.89577 8.68858 8.923 8.62201C8.95024 8.55544 8.96394 8.48411 8.96332 8.41219C8.96269 8.34027 8.94775 8.26919 8.91936 8.2031C8.89097 8.13702 8.84971 8.07725 8.79797 8.02728L7.26614 6.49491L8.79797 4.96253C8.89952 4.86095 8.95657 4.7232 8.95657 4.57957C8.95657 4.43594 8.89952 4.29819 8.79797 4.19661Z" fill="#C2C2C2"/>
</svg>
