<svg width="34" height="26" viewBox="0 0 34 26" fill="none" xmlns="http://www.w3.org/2000/svg">
<path d="M12.75 0L3.1875 0C1.43012 0 0 1.43012 0 3.1875L0 12.75C0 14.5074 1.43012 15.9375 3.1875 15.9375L7.47681 15.9375L5.86394 24.2356C5.83419 24.3893 5.83878 24.5477 5.87739 24.6995C5.91599 24.8512 5.98765 24.9925 6.08725 25.1133C6.18684 25.2342 6.3119 25.3315 6.45349 25.3983C6.59507 25.4651 6.74968 25.4999 6.90625 25.5H10.3488C11.2731 25.5 12.0934 24.8954 12.3739 24.0199L15.4657 16.6834C15.4838 16.6409 15.4987 16.5984 15.5114 16.5559C15.7941 15.5369 15.9375 14.484 15.9375 13.4268L15.9375 3.1875C15.9375 1.43012 14.5074 0 12.75 0ZM30.8125 0L21.25 0C19.4926 0 18.0625 1.43012 18.0625 3.1875V12.75C18.0625 14.5074 19.4926 15.9375 21.25 15.9375L25.5393 15.9375L23.9264 24.2356C23.8961 24.3894 23.9003 24.548 23.9386 24.7C23.977 24.852 24.0486 24.9936 24.1483 25.1145C24.248 25.2355 24.3734 25.3328 24.5152 25.3994C24.6571 25.4661 24.812 25.5004 24.9688 25.5H28.4112C29.3356 25.5 30.1569 24.8954 30.4353 24.0199L33.5293 16.6834C33.5463 16.6409 33.5612 16.5984 33.5739 16.5548C33.8566 15.5359 34 14.4829 34 13.4268V3.1875C34 1.43012 32.5699 0 30.8125 0Z" fill="black"/>
</svg>
