<svg width="34" height="26" viewBox="0 0 34 26" fill="none" xmlns="http://www.w3.org/2000/svg">
<path d="M21.25 25.5L30.8125 25.5C32.5699 25.5 34 24.0699 34 22.3125L34 12.75C34 10.9926 32.5699 9.56251 30.8125 9.56251L26.5232 9.56251L28.1361 1.26438C28.1658 1.11067 28.1612 0.952272 28.1226 0.800535C28.084 0.648797 28.0123 0.507471 27.9128 0.386659C27.8132 0.265848 27.6881 0.168538 27.5465 0.101697C27.4049 0.0348543 27.2503 0.000131017 27.0938 7.02563e-06L23.6513 6.72468e-06C22.7269 6.64387e-06 21.9066 0.604569 21.6261 1.48007L18.5343 8.81663C18.5162 8.85913 18.5013 8.90163 18.4886 8.94413C18.2059 9.96307 18.0625 11.016 18.0625 12.0732L18.0625 22.3125C18.0625 24.0699 19.4926 25.5 21.25 25.5ZM3.1875 25.5L12.75 25.5C14.5074 25.5 15.9375 24.0699 15.9375 22.3125L15.9375 12.75C15.9375 10.9926 14.5074 9.5625 12.75 9.5625L8.46069 9.5625L10.0736 1.26438C10.1039 1.11059 10.0997 0.951988 10.0614 0.800005C10.023 0.64802 9.95138 0.506445 9.85167 0.385492C9.75196 0.26454 9.62665 0.167223 9.48478 0.100563C9.3429 0.033901 9.18801 -0.000442767 9.03125 5.44656e-06L5.58875 5.1456e-06C4.66438 5.06479e-06 3.84306 0.604568 3.56469 1.48007L0.470689 8.81663C0.453691 8.85913 0.438814 8.90163 0.426061 8.94519C0.143438 9.96413 1.26614e-06 11.0171 1.17381e-06 12.0732L2.7866e-07 22.3125C1.25025e-07 24.0699 1.43013 25.5 3.1875 25.5Z" fill="black"/>
</svg>
