<svg width="70" height="70" viewBox="0 0 70 70" fill="none" xmlns="http://www.w3.org/2000/svg">
<g clip-path="url(#clip0_332_6028)">
<path d="M23.3335 50.168H21.0002C20.6907 50.168 20.394 50.2909 20.1752 50.5097C19.9564 50.7285 19.8335 51.0252 19.8335 51.3346C19.8335 51.6441 19.9564 51.9408 20.1752 52.1596C20.394 52.3784 20.6907 52.5013 21.0002 52.5013H23.3335C23.6429 52.5013 23.9397 52.3784 24.1585 52.1596C24.3772 51.9408 24.5002 51.6441 24.5002 51.3346C24.5002 51.0252 24.3772 50.7285 24.1585 50.5097C23.9397 50.2909 23.6429 50.168 23.3335 50.168ZM56.0002 50.168H28.0002C27.6907 50.168 27.394 50.2909 27.1752 50.5097C26.9564 50.7285 26.8335 51.0252 26.8335 51.3346C26.8335 51.6441 26.9564 51.9408 27.1752 52.1596C27.394 52.3784 27.6907 52.5013 28.0002 52.5013H56.0002C56.3096 52.5013 56.6063 52.3784 56.8251 52.1596C57.0439 51.9408 57.1668 51.6441 57.1668 51.3346C57.1668 51.0252 57.0439 50.7285 56.8251 50.5097C56.6063 50.2909 56.3096 50.168 56.0002 50.168ZM23.3335 43.168H21.0002C20.6907 43.168 20.394 43.2909 20.1752 43.5097C19.9564 43.7285 19.8335 44.0252 19.8335 44.3346C19.8335 44.6441 19.9564 44.9408 20.1752 45.1596C20.394 45.3784 20.6907 45.5013 21.0002 45.5013H23.3335C23.6429 45.5013 23.9397 45.3784 24.1585 45.1596C24.3772 44.9408 24.5002 44.6441 24.5002 44.3346C24.5002 44.0252 24.3772 43.7285 24.1585 43.5097C23.9397 43.2909 23.6429 43.168 23.3335 43.168ZM56.0002 43.168H28.0002C27.6907 43.168 27.394 43.2909 27.1752 43.5097C26.9564 43.7285 26.8335 44.0252 26.8335 44.3346C26.8335 44.6441 26.9564 44.9408 27.1752 45.1596C27.394 45.3784 27.6907 45.5013 28.0002 45.5013H56.0002C56.3096 45.5013 56.6063 45.3784 56.8251 45.1596C57.0439 44.9408 57.1668 44.6441 57.1668 44.3346C57.1668 44.0252 57.0439 43.7285 56.8251 43.5097C56.6063 43.2909 56.3096 43.168 56.0002 43.168ZM23.3335 36.168H21.0002C20.6907 36.168 20.394 36.2909 20.1752 36.5097C19.9564 36.7285 19.8335 37.0252 19.8335 37.3346C19.8335 37.6441 19.9564 37.9408 20.1752 38.1596C20.394 38.3784 20.6907 38.5013 21.0002 38.5013H23.3335C23.6429 38.5013 23.9397 38.3784 24.1585 38.1596C24.3772 37.9408 24.5002 37.6441 24.5002 37.3346C24.5002 37.0252 24.3772 36.7285 24.1585 36.5097C23.9397 36.2909 23.6429 36.168 23.3335 36.168ZM56.0002 36.168H28.0002C27.6907 36.168 27.394 36.2909 27.1752 36.5097C26.9564 36.7285 26.8335 37.0252 26.8335 37.3346C26.8335 37.6441 26.9564 37.9408 27.1752 38.1596C27.394 38.3784 27.6907 38.5013 28.0002 38.5013H56.0002C56.3096 38.5013 56.6063 38.3784 56.8251 38.1596C57.0439 37.9408 57.1668 37.6441 57.1668 37.3346C57.1668 37.0252 57.0439 36.7285 56.8251 36.5097C56.6063 36.2909 56.3096 36.168 56.0002 36.168ZM23.3335 29.168H21.0002C20.6907 29.168 20.394 29.2909 20.1752 29.5097C19.9564 29.7285 19.8335 30.0252 19.8335 30.3346C19.8335 30.6441 19.9564 30.9408 20.1752 31.1596C20.394 31.3784 20.6907 31.5013 21.0002 31.5013H23.3335C23.6429 31.5013 23.9397 31.3784 24.1585 31.1596C24.3772 30.9408 24.5002 30.6441 24.5002 30.3346C24.5002 30.0252 24.3772 29.7285 24.1585 29.5097C23.9397 29.2909 23.6429 29.168 23.3335 29.168ZM56.0002 29.168H28.0002C27.6907 29.168 27.394 29.2909 27.1752 29.5097C26.9564 29.7285 26.8335 30.0252 26.8335 30.3346C26.8335 30.6441 26.9564 30.9408 27.1752 31.1596C27.394 31.3784 27.6907 31.5013 28.0002 31.5013H56.0002C56.3096 31.5013 56.6063 31.3784 56.8251 31.1596C57.0439 30.9408 57.1668 30.6441 57.1668 30.3346C57.1668 30.0252 57.0439 29.7285 56.8251 29.5097C56.6063 29.2909 56.3096 29.168 56.0002 29.168ZM23.3335 22.168H21.0002C20.6907 22.168 20.394 22.2909 20.1752 22.5097C19.9564 22.7285 19.8335 23.0252 19.8335 23.3346C19.8335 23.6441 19.9564 23.9408 20.1752 24.1596C20.394 24.3784 20.6907 24.5013 21.0002 24.5013H23.3335C23.6429 24.5013 23.9397 24.3784 24.1585 24.1596C24.3772 23.9408 24.5002 23.6441 24.5002 23.3346C24.5002 23.0252 24.3772 22.7285 24.1585 22.5097C23.9397 22.2909 23.6429 22.168 23.3335 22.168ZM56.0002 22.168H28.0002C27.6907 22.168 27.394 22.2909 27.1752 22.5097C26.9564 22.7285 26.8335 23.0252 26.8335 23.3346C26.8335 23.6441 26.9564 23.9408 27.1752 24.1596C27.394 24.3784 27.6907 24.5013 28.0002 24.5013H56.0002C56.3096 24.5013 56.6063 24.3784 56.8251 24.1596C57.0439 23.9408 57.1668 23.6441 57.1668 23.3346C57.1668 23.0252 57.0439 22.7285 56.8251 22.5097C56.6063 22.2909 56.3096 22.168 56.0002 22.168Z" fill="#2594F4"/>
<path d="M64.1517 17.4265C64.1459 17.3243 64.1258 17.2234 64.0922 17.1267C64.0793 17.0893 64.07 17.0532 64.0537 17.017C63.9969 16.8901 63.9179 16.7743 63.8203 16.6752L47.487 0.341833C47.3879 0.2443 47.2721 0.165278 47.1452 0.1085C47.109 0.0921667 47.0728 0.0828333 47.0367 0.07C46.9391 0.0364493 46.8375 0.0160476 46.7345 0.00933333C46.7147 0.0128333 46.6925 0 46.6668 0H14.0002C13.6907 0 13.394 0.122916 13.1752 0.341709C12.9564 0.560501 12.8335 0.857247 12.8335 1.16667V4.66667H7.00016C6.69074 4.66667 6.394 4.78958 6.17521 5.00838C5.95641 5.22717 5.8335 5.52391 5.8335 5.83333V68.8333C5.8335 69.1428 5.95641 69.4395 6.17521 69.6583C6.394 69.8771 6.69074 70 7.00016 70H56.0002C56.3096 70 56.6063 69.8771 56.8251 69.6583C57.0439 69.4395 57.1668 69.1428 57.1668 68.8333V63H63.0002C63.3096 63 63.6063 62.8771 63.8251 62.6583C64.0439 62.4395 64.1668 62.1427 64.1668 61.8333V17.5C64.1668 17.4743 64.154 17.4522 64.1517 17.4265ZM47.8335 3.983L60.1838 16.3333H47.8335V3.983ZM54.8335 67.6667H8.16683V7H12.8335V61.8333C12.8335 62.1427 12.9564 62.4395 13.1752 62.6583C13.394 62.8771 13.6907 63 14.0002 63H54.8335V67.6667ZM61.8335 60.6667H15.1668V2.33333H45.5002V17.5C45.5002 17.8094 45.6231 18.1062 45.8419 18.325C46.0607 18.5437 46.3574 18.6667 46.6668 18.6667H61.8335V60.6667Z" fill="black"/>
<path d="M28.0002 10.5H21.0002C20.6907 10.5 20.394 10.6229 20.1752 10.8417C19.9564 11.0605 19.8335 11.3572 19.8335 11.6667V18.6667C19.8335 18.9761 19.9564 19.2728 20.1752 19.4916C20.394 19.7104 20.6907 19.8333 21.0002 19.8333H28.0002C28.3096 19.8333 28.6063 19.7104 28.8251 19.4916C29.0439 19.2728 29.1668 18.9761 29.1668 18.6667V11.6667C29.1668 11.3572 29.0439 11.0605 28.8251 10.8417C28.6063 10.6229 28.3096 10.5 28.0002 10.5ZM26.8335 17.5H22.1668V12.8333H26.8335V17.5Z" fill="#2594F4"/>
</g>
<defs>
<clipPath id="clip0_332_6028">
<rect width="70" height="70" fill="white"/>
</clipPath>
</defs>
</svg>
