<svg width="70" height="70" viewBox="0 0 70 70" fill="none" xmlns="http://www.w3.org/2000/svg">
<g clip-path="url(#clip0_332_6015)">
<path d="M5.83333 7.0013H31.5V46.668H23.3333V49.0013H31.5V50.168C31.5 52.1008 33.0671 53.668 35 53.668C36.9329 53.668 38.5 52.1008 38.5 50.168V49.0013H65.3333C65.6428 49.0013 65.9395 48.8784 66.1583 48.6596C66.3771 48.4408 66.5 48.1441 66.5 47.8346V28.0013H64.1667V46.668H38.5V7.0013H40.8333V4.66797H37.3333C37.0239 4.66797 36.7272 4.79089 36.5084 5.00968C36.2896 5.22847 36.1667 5.52522 36.1667 5.83464V7.0013H33.8333V5.83464C33.8333 5.52522 33.7104 5.22847 33.4916 5.00968C33.2728 4.79089 32.9761 4.66797 32.6667 4.66797H4.66667C4.35725 4.66797 4.0605 4.79089 3.84171 5.00968C3.62292 5.22847 3.5 5.52522 3.5 5.83464V36.168H5.83333V7.0013ZM36.1667 9.33464V50.168C36.1667 50.4774 36.0438 50.7741 35.825 50.9929C35.6062 51.2117 35.3094 51.3346 35 51.3346C34.6906 51.3346 34.3938 51.2117 34.175 50.9929C33.9563 50.7741 33.8333 50.4774 33.8333 50.168V9.33464H36.1667Z" fill="black"/>
<path d="M23.3333 50.1696H30.3333V52.5029H23.3333V50.1696ZM0 8.20312H2.33333V38.5029H0V8.20312ZM8.16667 11.6696H12.8333V14.0029H8.16667V11.6696ZM15.1667 11.6696H29.1667V14.0029H15.1667V11.6696ZM8.16667 16.3363H29.1667V18.6696H8.16667V16.3363ZM67.6667 23.3698V50.1696H39.6667V52.5029H68.8333C69.1427 52.5029 69.4395 52.38 69.6583 52.1612C69.8771 51.9424 70 51.6457 70 51.3363V23.3698H67.6667ZM8.16667 31.5029C8.16667 31.8123 8.28958 32.1091 8.50838 32.3279C8.72717 32.5467 9.02391 32.6696 9.33333 32.6696H28C28.3094 32.6696 28.6062 32.5467 28.825 32.3279C29.0437 32.1091 29.1667 31.8123 29.1667 31.5029V22.1696C29.1667 21.8602 29.0437 21.5634 28.825 21.3446C28.6062 21.1258 28.3094 21.0029 28 21.0029H9.33333C9.02391 21.0029 8.72717 21.1258 8.50838 21.3446C8.28958 21.5634 8.16667 21.8602 8.16667 22.1696V31.5029ZM10.5 23.3363H26.8333V30.3363H10.5V23.3363Z" fill="black"/>
<path d="M17.5002 25.6667H19.8335V28H17.5002V25.6667ZM22.1668 25.6667H24.5002V28H22.1668V25.6667ZM12.8335 25.6667H15.1668V28H12.8335V25.6667ZM44.3335 35H60.6668V37.3333H44.3335V35ZM44.3335 39.6667H60.6668V42H44.3335V39.6667ZM54.8335 21C58.6992 21 61.8335 17.8657 61.8335 14C61.8335 10.1342 58.6992 7 54.8335 7C50.9678 7 47.8335 10.1342 47.8335 14C47.8374 17.8646 50.9689 20.9961 54.8335 21ZM54.8335 9.33333C57.4107 9.33333 59.5002 11.4228 59.5002 14C59.5002 16.5772 57.4107 18.6667 54.8335 18.6667C52.2563 18.6667 50.1668 16.5772 50.1668 14C50.1668 11.4228 52.2563 9.33333 54.8335 9.33333Z" fill="#2594F4"/>
<path d="M40.8333 16.3333C40.8333 16.8875 41.2236 17.3655 41.7664 17.4767L43.8366 17.8908C43.9721 18.2765 44.1278 18.6547 44.3032 19.024L43.1365 20.774C42.9868 20.9983 42.9195 21.2676 42.946 21.536C42.9726 21.8044 43.0915 22.0553 43.2823 22.2459L46.584 25.5499C46.7746 25.7407 47.0255 25.8596 47.2939 25.8862C47.5623 25.9128 47.8317 25.8455 48.056 25.6957L49.806 24.529C50.1753 24.7044 50.5535 24.8602 50.9392 24.9957L51.3567 27.067C51.4106 27.3304 51.5539 27.5671 51.7622 27.7371C51.9705 27.9071 52.2311 28 52.5 28H57.1667C57.7208 28 58.1989 27.6098 58.31 27.067L58.7242 24.9967C59.1098 24.8613 59.4881 24.7055 59.8573 24.5302L61.6073 25.6969C61.8316 25.8466 62.1009 25.9139 62.3693 25.8873C62.6377 25.8607 62.8886 25.7419 63.0792 25.551L66.3832 22.2494C66.5741 22.0588 66.6929 21.8079 66.7195 21.5394C66.7461 21.271 66.6788 21.0017 66.529 20.7773L65.3624 19.0273C65.5378 18.6581 65.6935 18.2799 65.829 17.8942L67.9003 17.4767C68.1637 17.4227 68.4004 17.2795 68.5704 17.0712C68.7404 16.8628 68.8333 16.6022 68.8333 16.3333V11.6667C68.8333 11.1125 68.4431 10.6345 67.9003 10.5233L65.8301 10.1092C65.6946 9.72351 65.5389 9.34527 65.3635 8.97604L66.5302 7.22604C66.6807 7.0013 66.7484 6.73119 66.7215 6.46203C66.6947 6.19287 66.5751 5.94142 66.3832 5.75079L63.0826 2.45C62.892 2.25916 62.6411 2.14032 62.3727 2.11372C62.1043 2.08713 61.835 2.15444 61.6107 2.30417L59.8607 3.47083C59.4914 3.29543 59.1132 3.13966 58.7275 3.00417L58.31 0.933188C58.2561 0.669747 58.1129 0.433002 57.9045 0.26297C57.6962 0.0929383 57.4356 4.79716e-05 57.1667 0L52.5 0C52.2311 4.10895e-05 51.9705 0.0929107 51.7622 0.262914C51.5539 0.432917 51.4106 0.669627 51.3567 0.933042L50.9425 3.00329C50.5569 3.13873 50.1786 3.29446 49.8094 3.46981L48.0594 2.30315C47.8351 2.15341 47.5657 2.08611 47.2973 2.1127C47.0289 2.13929 46.7781 2.25814 46.5875 2.44898L43.2835 5.75065C43.0926 5.94124 42.9737 6.19214 42.9472 6.46057C42.9206 6.729 42.9879 6.99834 43.1377 7.22269L44.3043 8.97269C44.1289 9.34191 43.9731 9.72015 43.8377 10.1058L41.7664 10.5233C41.503 10.5773 41.2663 10.7205 41.0963 10.9288C40.9263 11.1372 40.8334 11.3978 40.8333 11.6667V16.3333ZM43.1667 12.6232L44.9725 12.2615C45.1826 12.2196 45.377 12.1206 45.5345 11.9753C45.6919 11.8301 45.8063 11.6443 45.865 11.4383C46.061 10.7523 46.3351 10.0912 46.682 9.46779C46.7863 9.28047 46.837 9.06806 46.8286 8.85383C46.8201 8.6396 46.7529 8.43183 46.6342 8.25329L45.6145 6.72496L47.5628 4.77663L49.0912 5.79571C49.2696 5.91467 49.4774 5.98209 49.6917 5.99053C49.906 5.99896 50.1184 5.9481 50.3057 5.84354C50.9292 5.4971 51.5903 5.22324 52.2762 5.02731C52.4821 4.9684 52.6679 4.85395 52.8132 4.69651C52.9585 4.53907 53.0576 4.3447 53.0998 4.13467L53.4567 2.33333H56.2103L56.572 4.13919C56.6139 4.34925 56.7129 4.54369 56.8581 4.70114C57.0034 4.85859 57.1892 4.97296 57.3952 5.03169C58.0812 5.22761 58.7423 5.50173 59.3657 5.84865C59.553 5.95294 59.7654 6.00364 59.9797 5.9952C60.1939 5.98677 60.4017 5.91951 60.5802 5.80081L62.1085 4.78115L64.0569 6.72948L63.0378 8.25781C62.9188 8.43624 62.8514 8.64404 62.843 8.85833C62.8345 9.07262 62.8854 9.28508 62.99 9.47231C63.3364 10.0958 63.6103 10.757 63.8062 11.4428C63.8651 11.6488 63.9795 11.8346 64.137 11.9798C64.2944 12.1251 64.4888 12.2243 64.6988 12.2665L66.5 12.6233V15.377L64.6942 15.7386C64.4841 15.7806 64.2897 15.8796 64.1322 16.0248C63.9748 16.17 63.8604 16.3559 63.8017 16.5619C63.6057 17.2478 63.3316 17.909 62.9847 18.5324C62.8804 18.7197 62.8297 18.9321 62.8381 19.1463C62.8466 19.3605 62.9138 19.5683 63.0325 19.7469L64.0522 21.2752L62.1039 23.2235L60.5755 22.2044C60.3971 22.0855 60.1893 22.0181 59.975 22.0096C59.7607 22.0012 59.5483 22.052 59.361 22.1566C58.7375 22.503 58.0764 22.7769 57.3905 22.9728C57.1846 23.0318 56.9988 23.1462 56.8535 23.3036C56.7082 23.4611 56.6091 23.6555 56.5669 23.8655L56.21 25.6667H53.4567L53.095 23.8608C53.0531 23.6508 52.9541 23.4563 52.8088 23.2989C52.6636 23.1414 52.4778 23.027 52.2718 22.9683C51.5858 22.7724 50.9246 22.4983 50.3013 22.1514C50.114 22.0471 49.9015 21.9964 49.6873 22.0048C49.4731 22.0132 49.2653 22.0805 49.0868 22.1992L47.5584 23.2189L45.6101 21.2705L46.6292 19.7422C46.7482 19.5638 46.8156 19.356 46.824 19.1417C46.8325 18.9274 46.7816 18.7149 46.677 18.5277C46.3306 17.9042 46.0567 17.243 45.8608 16.5572C45.8019 16.3512 45.6874 16.1654 45.53 16.0202C45.3726 15.8749 45.1782 15.7757 44.9682 15.7335L43.1667 15.3767V12.6232ZM39.0925 24.0333C39.6445 24.8952 40.2649 25.7104 40.949 26.4717L42.6835 24.9118C42.0849 24.246 41.5418 23.5323 41.0595 22.7779L39.0925 24.0333Z" fill="#2594F4"/>
<path d="M61.2603 29.0208C55.4625 31.4966 48.7569 30.4188 44.0265 26.25L42.4821 28C47.8887 32.767 55.5558 33.9986 62.1832 31.165L61.2603 29.0208ZM59.5001 56H30.3335C30.1847 56 30.0379 56.0279 29.8993 56.0825L24.066 58.4159C23.6222 58.5931 23.3311 59.0225 23.3311 59.5C23.3311 59.9775 23.6222 60.4069 24.0661 60.5841L29.8995 62.9175C30.0379 62.9721 30.1847 63 30.3335 63H59.5001C61.433 63 63.0001 61.4329 63.0001 59.5C63.0001 57.5671 61.433 56 59.5001 56ZM32.6668 58.3333H56.0001V60.6667H32.6668V58.3333ZM27.6407 59.5L30.3335 58.4233V60.5767L27.6407 59.5ZM59.5001 60.6667H58.3335V58.3333H59.5001C59.8096 58.3333 60.1063 58.4562 60.3251 58.675C60.5439 58.8938 60.6668 59.1906 60.6668 59.5C60.6668 59.8094 60.5439 60.1062 60.3251 60.325C60.1063 60.5438 59.8096 60.6667 59.5001 60.6667ZM10.5001 37.3333C5.97755 37.326 1.96028 40.2198 0.535051 44.5111C-0.890762 48.803 0.596593 53.5254 4.22463 56.225C3.88203 56.6676 3.65185 57.1866 3.55384 57.7377C3.45582 58.2887 3.49289 58.8553 3.66186 59.3889C3.83069 59.9226 4.12648 60.4075 4.52387 60.8018C4.92126 61.1961 5.40837 61.4881 5.94343 61.6528C6.41505 63.7907 8.3103 65.3134 10.5001 65.3134C12.69 65.3134 14.5852 63.7907 15.0568 61.6528C15.5919 61.4881 16.079 61.1961 16.4764 60.8018C16.8738 60.4075 17.1696 59.9226 17.3384 59.3889C17.5074 58.8553 17.5444 58.2887 17.4464 57.7377C17.3483 57.1866 17.1181 56.6676 16.7755 56.225C20.4038 53.5254 21.891 48.8028 20.4652 44.5111C19.04 40.2198 15.0227 37.3259 10.5001 37.3333ZM10.5001 63C10.0923 62.9988 9.69205 62.8904 9.3394 62.6856C8.98676 62.4808 8.69417 62.1869 8.49099 61.8333H12.5093C12.3061 62.1869 12.0135 62.4808 11.6609 62.6856C11.3082 62.8904 10.9079 62.9988 10.5001 63ZM14.0001 59.5H7.00013C6.69072 59.5 6.39397 59.3771 6.17518 59.1583C5.95638 58.9395 5.83347 58.6428 5.83347 58.3333C5.83347 58.0239 5.95638 57.7272 6.17518 57.5084C6.39397 57.2896 6.69072 57.1667 7.00013 57.1667H14.0001C14.3096 57.1667 14.6063 57.2896 14.8251 57.5084C15.0439 57.7272 15.1668 58.0239 15.1668 58.3333C15.1668 58.6428 15.0439 58.9395 14.8251 59.1583C14.6063 59.3771 14.3096 59.5 14.0001 59.5ZM14.559 54.8892C14.3744 54.8561 14.1876 54.8374 14.0001 54.8333H7.00013C6.81269 54.8374 6.62584 54.8561 6.4413 54.8892C3.01028 52.913 1.49434 48.7568 2.84797 45.0357C4.2013 41.314 8.03293 39.1027 11.9322 39.7925C15.8317 40.4823 18.6719 43.8737 18.6668 47.8333C18.6684 49.2679 18.2889 50.6771 17.5672 51.9168C16.8454 53.1566 15.8073 54.1823 14.559 54.8892Z" fill="black"/>
<path d="M12.8335 48.0657L11.4708 46.0217C11.2418 45.7151 10.8824 45.5352 10.5001 45.5352C10.1179 45.5352 9.75842 45.7151 9.52946 46.0217L8.16679 48.0657L6.80413 46.0177L4.86279 47.313L7.19613 50.813C7.309 50.9639 7.4555 51.0864 7.624 51.1708C7.7925 51.2552 7.97835 51.2991 8.16679 51.2991C8.35524 51.2991 8.54109 51.2552 8.70959 51.1708C8.87808 51.0864 9.02459 50.9639 9.13746 50.813L10.5001 48.7651L11.8628 50.8091C11.9693 50.9689 12.1136 51.1001 12.2829 51.1907C12.4523 51.2814 12.6414 51.3289 12.8335 51.3289C13.0255 51.3289 13.2147 51.2814 13.384 51.1907C13.5533 51.1001 13.6977 50.9689 13.8041 50.8091L16.1375 47.3091L14.1961 46.0142L12.8335 48.0657Z" fill="#2594F4"/>
</g>
<defs>
<clipPath id="clip0_332_6015">
<rect width="70" height="70" fill="white"/>
</clipPath>
</defs>
</svg>
