<svg width="66" height="66" viewBox="0 0 66 66" fill="none" xmlns="http://www.w3.org/2000/svg">
<g clip-path="url(#clip0_332_6023)">
<path d="M54.3984 12.375C53.6869 12.375 53.1094 12.9525 53.1094 13.6641C53.1094 14.3756 53.6869 14.9531 54.3984 14.9531C55.11 14.9531 55.6875 14.3756 55.6875 13.6641C55.6875 12.9525 55.11 12.375 54.3984 12.375ZM54.3984 38.1562C53.6869 38.1562 53.1094 38.7337 53.1094 39.4453C53.1094 40.1569 53.6869 40.7344 54.3984 40.7344C55.11 40.7344 55.6875 40.1569 55.6875 39.4453C55.6875 38.7337 55.11 38.1562 54.3984 38.1562ZM9.02344 25.2656C8.31187 25.2656 7.73438 25.8431 7.73438 26.5547C7.73438 27.2662 8.31187 27.8438 9.02344 27.8438C9.735 27.8438 10.3125 27.2662 10.3125 26.5547C10.3125 25.8431 9.735 25.2656 9.02344 25.2656Z" fill="black"/>
<path d="M65.5359 38.4551L57.8015 32.0097C57.5699 31.8166 57.2779 31.7109 56.9764 31.7109H36.867V21.3984H56.9764C57.278 21.3984 57.5699 21.2927 57.8015 21.0996L65.5359 14.6543C65.681 14.5333 65.7978 14.3819 65.878 14.2108C65.9581 14.0397 65.9997 13.853 65.9997 13.6641C65.9997 13.4751 65.9581 13.2884 65.878 13.1173C65.7978 12.9462 65.681 12.7948 65.5359 12.6738L57.8015 6.22849C57.5699 6.0354 57.2779 5.92966 56.9764 5.92969H36.867V3.86719C36.867 2.83465 36.4647 1.8636 35.7339 1.13283C35.0033 0.402316 34.0324 0 32.9998 0C30.8674 0 29.1326 1.73482 29.1326 3.86719V18.8203H9.02325C8.72174 18.8203 8.42977 18.926 8.198 19.1191L0.46362 25.5644C0.318438 25.6854 0.201629 25.8368 0.121469 26.0079C0.0413078 26.1791 -0.000244141 26.3657 -0.000244141 26.5547C-0.000244141 26.7437 0.0413078 26.9303 0.121469 27.1014C0.201629 27.2726 0.318438 27.424 0.46362 27.5449L8.198 33.9903C8.42967 34.1833 8.72169 34.289 9.02325 34.2891H29.1326V55.6875H21.968C21.156 55.6866 20.3643 55.9417 19.7055 56.4165C19.0467 56.8913 18.5544 57.5617 18.2984 58.3324L16.6019 63.4219H12.3748C11.6629 63.4219 11.0858 63.999 11.0858 64.7109C11.0858 65.4229 11.6629 66 12.3748 66H54.6561C55.3679 66 55.9451 65.4229 55.9451 64.7109C55.9451 63.999 55.3679 63.4219 54.6561 63.4219H49.3976L47.7013 58.3329C47.4455 57.5621 46.9531 56.8916 46.2943 56.4167C45.6355 55.9418 44.8438 55.6866 44.0316 55.6875H36.867V47.1797H56.9764C57.278 47.1797 57.5699 47.074 57.8015 46.8809L65.5359 40.4356C65.681 40.3146 65.7978 40.1632 65.878 39.9921C65.9581 39.8209 65.9997 39.6343 65.9997 39.4453C65.9997 39.2563 65.9581 39.0697 65.878 38.8986C65.7978 38.7274 65.681 38.576 65.5359 38.4551ZM36.867 8.50781H56.5097L62.6972 13.6641L56.5097 18.8203H36.867V8.50781ZM31.7108 3.86719C31.7108 3.1564 32.289 2.57812 32.9998 2.57812C33.1691 2.57772 33.3368 2.6109 33.4932 2.67576C33.6496 2.74061 33.7916 2.83585 33.9109 2.95595C34.0311 3.07529 34.1263 3.21728 34.1912 3.3737C34.2561 3.53011 34.2893 3.69785 34.2889 3.86719V55.6875H31.7108V3.86719ZM9.49002 31.7109L3.30252 26.5547L9.49002 21.3984H29.1326V31.7109H9.49002ZM44.0316 58.2656C44.3024 58.2653 44.5665 58.3503 44.7862 58.5087C45.0059 58.6671 45.17 58.8907 45.2553 59.1477L46.6801 63.4219H19.3195L20.7444 59.1472C20.8298 58.8903 20.994 58.6668 21.2137 58.5086C21.4333 58.3503 21.6973 58.2653 21.968 58.2656H44.0316ZM56.5097 44.6016H36.867V34.2891H56.5097L62.6972 39.4453L56.5097 44.6016Z" fill="black"/>
<path d="M49.2422 12.375H40.7344C40.0226 12.375 39.4453 12.9521 39.4453 13.6641C39.4453 14.376 40.0226 14.9531 40.7344 14.9531H49.2422C49.954 14.9531 50.5312 14.376 50.5312 13.6641C50.5312 12.9521 49.954 12.375 49.2422 12.375ZM49.2422 38.1562H40.7344C40.0226 38.1562 39.4453 38.7334 39.4453 39.4453C39.4453 40.1573 40.0226 40.7344 40.7344 40.7344H49.2422C49.954 40.7344 50.5312 40.1573 50.5312 39.4453C50.5312 38.7334 49.954 38.1562 49.2422 38.1562ZM25.2656 25.2656H14.1797C13.4677 25.2656 12.8906 25.8427 12.8906 26.5547C12.8906 27.2666 13.4677 27.8438 14.1797 27.8438H25.2656C25.9776 27.8438 26.5547 27.2666 26.5547 26.5547C26.5547 25.8427 25.9776 25.2656 25.2656 25.2656Z" fill="#2594F4"/>
</g>
<defs>
<clipPath id="clip0_332_6023">
<rect width="66" height="66" fill="white"/>
</clipPath>
</defs>
</svg>
