<svg width="18" height="14" viewBox="0 0 18 14" fill="none" xmlns="http://www.w3.org/2000/svg">
<path d="M0.432129 4.2532V11.2C0.432129 11.9426 0.726869 12.6548 1.25151 13.1799C1.77615 13.705 2.48772 14 3.22967 14H14.4199C15.1618 14 15.8734 13.705 16.398 13.1799C16.9227 12.6548 17.2174 11.9426 17.2174 11.2V2.8C17.2174 2.05739 16.9227 1.3452 16.398 0.820101C15.8734 0.294999 15.1618 0 14.4199 0H3.22967C2.48772 0 1.77615 0.294999 1.25151 0.820101C0.726869 1.3452 0.432129 2.05739 0.432129 2.8V4.2532ZM3.22967 1.4H14.4199C14.7908 1.4 15.1466 1.5475 15.4089 1.81005C15.6713 2.0726 15.8186 2.4287 15.8186 2.8V3.836L8.82477 7.6048L1.8309 3.836V2.8C1.8309 2.4287 1.97827 2.0726 2.24059 1.81005C2.50291 1.5475 2.8587 1.4 3.22967 1.4ZM1.8309 5.4264L8.49326 9.016C8.59515 9.0709 8.70905 9.09963 8.82477 9.09963C8.94048 9.09963 9.05439 9.0709 9.15628 9.016L15.8186 5.4264V11.2C15.8186 11.5713 15.6713 11.9274 15.4089 12.1899C15.1466 12.4525 14.7908 12.6 14.4199 12.6H3.22967C2.8587 12.6 2.50291 12.4525 2.24059 12.1899C1.97827 11.9274 1.8309 11.5713 1.8309 11.2V5.4264Z" fill="#2A9DF4"/>
</svg>
