<svg width="20" height="11" viewBox="0 0 20 11" fill="none" xmlns="http://www.w3.org/2000/svg">
<g clip-path="url(#clip0_332_5529)">
<path d="M19.7709 4.90388L19.7702 4.90311L15.688 0.681708C15.3821 0.365469 14.8875 0.366645 14.5831 0.684468C14.2787 1.00225 14.2799 1.51625 14.5857 1.83253L17.3265 4.66671H0.78125C0.349766 4.66671 0 5.03016 0 5.47852C0 5.92688 0.349766 6.29033 0.78125 6.29033H17.3264L14.5857 9.12451C14.2799 9.44079 14.2787 9.95479 14.5831 10.2726C14.8875 10.5904 15.3822 10.5915 15.688 10.2753L19.7702 6.05393L19.7709 6.05316C20.0769 5.73582 20.0759 5.22016 19.7709 4.90388Z" fill="black"/>
</g>
<defs>
<clipPath id="clip0_332_5529">
<rect width="20" height="11" fill="white"/>
</clipPath>
</defs>
</svg>
