<svg width="18" height="18" viewBox="0 0 18 18" fill="none" xmlns="http://www.w3.org/2000/svg">
<g clip-path="url(#clip0_332_5596)">
<path d="M13.5 0H4.5C1.98 0 0 1.98 0 4.5V13.5C0 16.02 1.98 18 4.5 18H13.5C16.02 18 18 16.02 18 13.5V4.5C18 1.98 16.02 0 13.5 0ZM16.2 13.5C16.2 15.03 15.03 16.2 13.5 16.2H4.5C2.97 16.2 1.8 15.03 1.8 13.5V4.5C1.8 2.97 2.97 1.8 4.5 1.8H13.5C15.03 1.8 16.2 2.97 16.2 4.5V13.5Z" fill="black"/>
<path d="M9 4.5C6.48 4.5 4.5 6.48 4.5 9C4.5 11.52 6.48 13.5 9 13.5C11.52 13.5 13.5 11.52 13.5 9C13.5 6.48 11.52 4.5 9 4.5ZM9 11.7C7.47 11.7 6.3 10.53 6.3 9C6.3 7.47 7.47 6.3 9 6.3C10.53 6.3 11.7 7.47 11.7 9C11.7 10.53 10.53 11.7 9 11.7Z" fill="black"/>
<path d="M13.5 5.40156C13.9971 5.40156 14.4 4.99862 14.4 4.50156C14.4 4.00451 13.9971 3.60156 13.5 3.60156C13.003 3.60156 12.6 4.00451 12.6 4.50156C12.6 4.99862 13.003 5.40156 13.5 5.40156Z" fill="black"/>
</g>
<defs>
<clipPath id="clip0_332_5596">
<rect width="18" height="18" fill="white"/>
</clipPath>
</defs>
</svg>
