<svg width="20" height="21" viewBox="0 0 20 21" fill="none" xmlns="http://www.w3.org/2000/svg">
<g clip-path="url(#clip0_332_5606)">
<path d="M8.75441 12.1219L12.0073 10.2484L8.75441 8.375V12.1219Z" fill="black"/>
<path d="M10 0.25C4.47801 0.25 0 4.72801 0 10.25C0 15.772 4.47801 20.25 10 20.25C15.522 20.25 20 15.772 20 10.25C20 4.72801 15.522 0.25 10 0.25ZM16.2484 10.2602C16.2484 10.2602 16.2484 12.2883 15.9912 13.2662C15.847 13.8015 15.425 14.2236 14.8896 14.3676C13.9118 14.625 10 14.625 10 14.625C10 14.625 6.09848 14.625 5.11031 14.3573C4.57504 14.2133 4.15297 13.7911 4.00879 13.2558C3.75137 12.2882 3.75137 10.25 3.75137 10.25C3.75137 10.25 3.75137 8.22211 4.00879 7.24414C4.15285 6.70891 4.58527 6.27645 5.11035 6.13242C6.0882 5.875 10 5.875 10 5.875C10 5.875 13.9117 5.875 14.8897 6.14266C15.425 6.28668 15.847 6.70891 15.9912 7.24418C16.2589 8.22211 16.2485 10.2602 16.2485 10.2602L16.2484 10.2602Z" fill="black"/>
</g>
<defs>
<clipPath id="clip0_332_5606">
<rect width="20" height="20" fill="white" transform="translate(0 0.25)"/>
</clipPath>
</defs>
</svg>
