<svg width="20" height="11" viewBox="0 0 20 11" fill="none" xmlns="http://www.w3.org/2000/svg">
<path d="M0.229143 6.09612L0.229846 6.09689L4.31203 10.3183C4.61785 10.6345 5.1125 10.6334 5.41692 10.3155C5.72129 9.99775 5.72012 9.48375 5.4143 9.16747L2.67352 6.33329L19.2188 6.33329C19.6502 6.33329 20 5.96984 20 5.52148C20 5.07312 19.6502 4.70967 19.2188 4.70967L2.67356 4.70967L5.41426 1.87549C5.72008 1.55921 5.72125 1.04521 5.41688 0.727427C5.11246 0.409564 4.61778 0.408468 4.31199 0.724667L0.229807 4.94607L0.229104 4.94684C-0.076873 5.26418 -0.0758962 5.77984 0.229143 6.09612Z" fill="black"/>
</svg>
