<?xml version="1.0" standalone="no"?>
<!DOCTYPE svg PUBLIC "-//W3C//DTD SVG 20010904//EN"
 "http://www.w3.org/TR/2001/REC-SVG-20010904/DTD/svg10.dtd">
<svg version="1.0" xmlns="http://www.w3.org/2000/svg"
 width="102.000000pt" height="102.000000pt" viewBox="0 0 102.000000 102.000000"
 preserveAspectRatio="xMidYMid meet">
<metadata>
Created by potrace 1.14, written by Peter Selinger 2001-2017
</metadata>
<g transform="translate(0.000000,102.000000) scale(0.100000,-0.100000)"
fill="#000000" stroke="none">
<path d="M455 831 c-6 -11 13 -26 22 -17 4 3 1 6 -6 6 -7 0 -9 5 -6 10 3 6 4
10 1 10 -3 0 -7 -4 -11 -9z"/>
<path d="M537 795 c-4 -9 -3 -13 3 -10 6 3 10 2 10 -4 0 -5 -4 -11 -9 -13 -5
-1 -10 -23 -12 -48 -1 -25 -6 -55 -11 -67 -6 -19 -4 -23 12 -23 16 0 20 7 21
38 0 20 2 56 3 79 3 46 -7 75 -17 48z"/>
<path d="M622 785 c-6 -14 -8 -25 -3 -25 8 0 23 41 17 47 -1 2 -8 -8 -14 -22z"/>
<path d="M384 770 c3 -19 9 -46 12 -60 3 -14 7 -36 10 -50 6 -31 19 -44 34
-35 8 5 7 11 -2 22 -7 9 -12 19 -11 22 3 7 -16 70 -26 86 -3 6 -6 16 -7 23 -2
8 -6 17 -10 20 -3 4 -4 -9 0 -28z"/>
<path d="M463 717 c2 -72 5 -87 17 -84 8 2 14 8 13 13 -1 6 -3 32 -4 57 -2 26
-7 47 -11 47 -5 0 -7 3 -5 8 3 4 1 16 -3 27 -5 12 -8 -16 -7 -68z"/>
<path d="M312 743 c5 -21 13 -42 17 -48 4 -5 16 -32 25 -58 14 -37 21 -45 31
-37 10 8 10 16 1 35 -6 14 -15 25 -19 25 -5 0 -6 4 -3 8 3 5 -3 18 -12 28 -10
10 -19 21 -19 24 -5 19 -23 60 -27 60 -2 0 0 -17 6 -37z"/>
<path d="M690 755 c-7 -8 -9 -15 -6 -15 4 0 -2 -13 -13 -29 -12 -16 -21 -34
-21 -40 0 -7 -9 -21 -20 -33 -20 -22 -18 -38 4 -38 12 0 61 109 61 135 0 6 4
13 10 17 5 4 7 10 4 13 -4 3 -12 -1 -19 -10z"/>
<path d="M600 732 c0 -10 -3 -22 -7 -26 -7 -6 -14 -35 -17 -66 -3 -36 20 -17
30 24 7 25 10 46 8 46 -3 0 0 9 6 20 9 16 8 20 -5 20 -8 0 -15 -8 -15 -18z"/>
<path d="M230 734 c0 -6 9 -23 21 -38 11 -14 17 -26 14 -26 -4 0 4 -15 19 -34
14 -19 26 -39 26 -45 0 -6 8 -15 19 -20 28 -16 22 21 -11 57 -14 16 -33 43
-42 58 -8 16 -16 25 -16 19 0 -5 -7 1 -15 15 -8 14 -14 20 -15 14z"/>
<path d="M740 690 c-17 -22 -29 -40 -26 -40 3 0 -8 -14 -24 -30 -17 -17 -30
-35 -30 -40 0 -17 37 -11 43 8 8 24 50 96 60 100 4 2 7 10 7 17 0 7 6 16 13
18 8 4 8 6 0 6 -6 1 -26 -17 -43 -39z"/>
<path d="M825 663 c-84 -73 -125 -113 -125 -121 0 -22 27 -4 75 48 28 30 52
57 55 60 12 12 32 40 29 40 -2 0 -17 -12 -34 -27z"/>
<path d="M160 676 c0 -3 27 -32 60 -66 33 -34 60 -65 60 -71 0 -15 20 -10 27
7 3 9 -3 21 -16 30 -12 9 -32 25 -44 37 -28 27 -87 69 -87 63z"/>
<path d="M126 602 c-4 -7 3 -17 18 -24 14 -6 26 -15 26 -20 0 -4 5 -8 11 -8 7
0 22 -11 34 -24 12 -13 31 -29 43 -35 18 -10 20 -9 17 10 -3 12 -6 22 -7 23
-2 0 -12 7 -23 14 -11 6 -36 20 -55 30 -19 9 -40 23 -46 31 -8 10 -13 11 -18
3z"/>
<path d="M440 597 c0 -6 -3 -8 -6 -4 -11 10 -67 -24 -102 -62 -37 -39 -58 -81
-67 -131 -5 -28 -3 -31 12 -25 18 7 35 11 80 19 13 3 28 8 33 11 6 4 55 6 108
6 124 -2 132 -3 132 -13 0 -5 5 -6 10 -3 6 3 10 1 10 -5 0 -7 -8 -9 -22 -4
-33 10 -218 13 -218 4 0 -5 -12 -8 -27 -7 -34 1 -137 -29 -169 -50 -13 -8 -24
-13 -24 -9 0 9 -98 -60 -140 -99 -36 -33 -48 -55 -30 -55 5 0 10 5 10 11 0 5
6 7 12 3 7 -4 9 -3 5 1 -6 7 162 65 182 63 3 0 8 1 11 2 35 13 126 22 255 24
120 2 170 -2 250 -19 17 -3 43 -8 59 -11 47 -9 149 -44 172 -59 44 -29 19 12
-36 60 -50 43 -190 122 -190 107 0 -3 -5 -1 -12 6 -7 7 -22 12 -35 12 -13 0
-23 4 -23 10 0 5 10 8 23 6 12 -3 22 -5 22 -6 0 -1 8 -3 18 -5 18 -3 23 6 10
19 -5 4 -8 11 -9 14 -5 68 -92 172 -155 187 -49 12 -149 13 -149 2z"/>
<path d="M838 576 c-8 -7 -23 -16 -34 -20 -11 -3 -34 -16 -51 -29 -23 -16 -27
-25 -19 -33 8 -8 15 -8 23 0 25 24 42 36 50 36 4 1 24 14 43 30 23 20 29 30
18 30 -9 0 -23 -6 -30 -14z"/>
<path d="M74 528 c-4 -7 -2 -8 4 -4 7 4 12 2 12 -3 0 -6 9 -11 19 -11 11 0 21
-3 23 -7 6 -16 111 -64 119 -56 9 9 -18 36 -42 41 -8 1 -23 7 -34 12 -65 30
-95 38 -101 28z"/>
<path d="M860 509 c-36 -15 -72 -29 -81 -29 -9 0 -19 -9 -22 -19 -3 -14 0 -19
12 -16 28 5 91 38 91 47 0 5 4 7 9 3 5 -3 12 -1 16 5 4 6 10 8 15 5 4 -3 11 2
14 11 3 8 11 12 17 8 8 -4 9 -3 5 4 -4 7 -8 12 -9 11 -1 -1 -31 -14 -67 -30z"/>
<path d="M56 450 c20 -19 184 -66 184 -52 -1 16 -16 29 -32 26 -10 -1 -18 1
-18 5 0 5 -12 8 -27 9 -16 0 -48 5 -72 11 -24 5 -39 6 -35 1z"/>
<path d="M927 447 c3 -5 -1 -7 -8 -6 -15 3 -102 -9 -131 -17 -10 -3 -18 -11
-18 -19 0 -15 29 -13 77 6 16 6 30 10 33 10 9 -1 75 21 82 28 4 3 -4 6 -17 6
-12 0 -21 -4 -18 -8z"/>
<path d="M75 369 c-27 -3 -39 -7 -25 -8 14 -2 36 -4 50 -7 73 -11 119 -10 124
3 3 7 0 13 -7 14 -68 3 -99 3 -142 -2z"/>
<path d="M808 372 c-16 -2 -28 -7 -28 -11 0 -13 33 -19 72 -15 18 3 46 6 61 8
15 1 33 9 40 16 10 12 9 12 -5 1 -10 -7 -18 -10 -18 -5 0 9 -69 12 -122 6z"/>
</g>
</svg>
