<?xml version="1.0" standalone="no"?>
<!DOCTYPE svg PUBLIC "-//W3C//DTD SVG 20010904//EN"
 "http://www.w3.org/TR/2001/REC-SVG-20010904/DTD/svg10.dtd">
<svg version="1.0" xmlns="http://www.w3.org/2000/svg"
 width="104.000000pt" height="104.000000pt" viewBox="0 0 104.000000 104.000000"
 preserveAspectRatio="xMidYMid meet">
<metadata>
Created by potrace 1.14, written by Peter Selinger 2001-2017
</metadata>
<g transform="translate(0.000000,104.000000) scale(0.100000,-0.100000)"
fill="#000000" stroke="none">
<path d="M490 960 c0 -5 -9 -10 -19 -10 -11 0 -23 -5 -26 -10 -4 -6 -11 -8
-16 -5 -5 4 -9 1 -9 -4 0 -6 -7 -11 -16 -11 -8 0 -12 -5 -9 -10 3 -6 0 -13 -8
-16 -24 -9 -49 -91 -51 -167 l-2 -72 -32 -3 c-18 -2 -33 -6 -33 -10 -1 -4 -2
-18 -3 -32 -1 -14 -6 -31 -10 -39 -7 -10 -5 -12 5 -7 8 4 6 1 -4 -7 -11 -10
-14 -16 -7 -19 7 -2 14 -28 16 -57 2 -29 9 -61 16 -69 11 -13 11 -14 0 -8 -11
7 -11 4 0 -13 7 -12 16 -21 20 -21 5 0 8 -7 8 -14 0 -8 11 -27 25 -42 14 -15
25 -24 25 -21 0 3 11 -5 25 -19 15 -15 32 -23 41 -20 10 4 13 2 8 -6 -5 -8 -2
-9 9 -5 10 4 17 2 17 -4 0 -7 10 -9 26 -5 17 5 24 3 19 -4 -4 -6 1 -18 11 -26
11 -9 13 -12 5 -8 -11 5 -13 -1 -9 -30 2 -20 0 -36 -5 -36 -5 0 -7 -6 -4 -12
3 -9 -7 -13 -28 -14 -52 -2 -82 -12 -89 -31 -4 -10 -4 -14 0 -10 4 4 13 2 20
-4 8 -6 63 -12 132 -12 99 -2 119 0 114 12 -3 9 -1 12 5 8 6 -4 13 0 17 8 4
10 -3 17 -22 21 -15 3 -37 10 -50 15 -15 6 -21 6 -17 -1 3 -5 3 -10 -2 -10
-22 1 -29 20 -29 73 0 58 4 63 44 58 6 -1 12 3 12 9 0 6 4 9 9 5 5 -3 12 -1
16 5 4 6 10 8 15 5 4 -3 13 2 20 10 7 8 17 12 23 8 6 -3 7 -1 3 5 -4 7 -1 12
9 12 9 0 13 5 10 10 -3 6 1 10 9 10 9 0 16 5 16 11 0 5 6 7 13 3 9 -5 9 -4 0
6 -10 11 -8 17 8 31 12 10 18 23 14 29 -3 5 1 13 9 16 9 3 16 10 16 16 0 5 -6
6 -12 2 -10 -6 -10 -5 -1 8 7 8 10 18 6 21 -3 4 -1 7 6 7 7 0 9 5 5 12 -10 15
-12 58 -3 52 12 -7 18 23 6 35 -6 6 -7 11 -3 11 5 0 3 7 -4 15 -9 11 -9 15 -1
15 8 0 9 5 2 19 -6 10 -7 21 -4 25 3 3 -10 6 -30 6 -23 0 -37 5 -38 13 0 6 -1
46 -2 87 -1 48 -6 80 -15 89 -7 7 -11 20 -8 28 4 9 -1 17 -13 20 -10 2 -23 15
-29 28 -7 16 -23 26 -46 31 -20 3 -34 9 -31 14 2 4 -18 8 -45 9 -29 1 -50 -3
-50 -9z m78 -44 c13 2 21 0 17 -5 -3 -5 5 -13 17 -17 27 -8 49 -29 41 -38 -4
-3 -1 -6 6 -6 7 0 9 -5 6 -11 -4 -5 1 -20 12 -31 18 -21 18 -21 -1 -14 -20 7
-20 7 -1 -14 12 -13 14 -20 6 -18 -8 2 -15 -7 -17 -21 -3 -14 -23 -41 -45 -62
-24 -22 -36 -40 -29 -44 5 -3 8 -11 5 -16 -4 -5 -3 -14 1 -21 4 -6 9 -23 10
-37 2 -14 4 -42 6 -61 2 -19 7 -41 12 -48 4 -7 2 -12 -5 -12 -8 0 -7 -5 4 -12
14 -11 14 -16 2 -32 -7 -10 -18 -15 -24 -11 -6 3 -11 0 -11 -7 0 -17 -65 -17
-96 0 -12 6 -24 8 -28 5 -3 -3 -7 3 -7 15 -1 12 -2 28 -3 35 -1 6 2 18 8 26 6
7 9 27 7 43 -2 21 1 28 9 23 9 -6 9 -2 1 13 -7 13 -7 23 -1 27 5 3 6 13 3 22
-4 9 -2 14 3 10 6 -3 10 10 9 31 0 26 -6 40 -20 47 -24 13 -67 74 -59 86 3 5
0 9 -7 9 -8 0 -8 4 -2 13 6 6 9 22 8 35 -1 12 2 22 7 22 5 0 6 5 3 10 -3 6 1
10 10 10 9 0 13 4 10 10 -3 5 5 15 19 21 14 7 23 16 19 22 -3 5 3 6 15 3 11
-4 23 -2 27 4 4 7 11 8 18 2 7 -5 22 -8 35 -6z m-237 -313 c0 -5 2 -16 4 -25
2 -10 -2 -21 -7 -25 -7 -3 -8 -1 -4 5 4 7 2 12 -3 12 -6 0 -11 9 -11 20 0 18
19 30 21 13z m418 -22 c-7 -2 -6 -7 2 -12 11 -7 11 -9 1 -9 -7 0 -10 -5 -6
-12 5 -7 3 -8 -5 -4 -7 5 -10 10 -7 13 3 3 1 14 -4 24 -11 20 10 34 22 15 4
-6 2 -13 -3 -15z m-413 -88 c-1 -21 2 -41 7 -44 4 -3 9 -18 11 -32 1 -15 6
-30 11 -35 4 -4 4 0 0 8 -5 8 7 -2 27 -22 19 -21 40 -38 46 -38 7 0 12 -4 12
-10 0 -5 3 -9 8 -9 31 5 51 -2 45 -18 -5 -12 -3 -14 7 -8 8 5 11 4 7 -2 -4 -6
-18 -10 -32 -10 -14 -1 -22 4 -18 10 4 6 -4 8 -21 5 -14 -3 -29 -1 -33 5 -3 6
-1 7 5 3 7 -4 12 -5 12 -1 0 3 -12 10 -26 15 -14 6 -22 15 -19 20 4 6 1 9 -7
8 -7 -2 -12 3 -10 10 1 6 -4 11 -10 10 -7 -2 -12 3 -10 10 1 6 -2 12 -8 12 -5
0 -10 9 -10 20 0 11 -4 20 -9 20 -5 0 -8 14 -7 31 1 16 -2 33 -7 36 -5 3 -3 9
4 14 11 7 11 9 1 9 -10 0 -10 3 0 14 19 20 26 11 24 -31z m417 20 c-5 -12 -3
-14 8 -8 12 8 12 6 0 -8 -11 -14 -11 -20 0 -34 10 -11 10 -14 2 -9 -9 5 -13 1
-13 -11 0 -23 -22 -73 -32 -73 -5 0 -8 -7 -8 -15 0 -8 -13 -23 -30 -34 -16
-10 -27 -21 -22 -26 4 -5 2 -6 -3 -2 -6 3 -17 2 -25 -3 -9 -5 -19 -5 -27 2
-10 8 -12 7 -7 -6 7 -19 -16 -22 -33 -5 -18 18 -5 36 23 33 13 -1 31 4 38 12
8 8 17 14 21 14 10 0 49 40 39 40 -5 0 -1 5 9 11 9 5 17 17 17 25 0 8 3 13 8
10 4 -2 7 17 7 42 -1 55 1 62 20 62 9 0 12 -6 8 -17z"/>
<path d="M680 340 c-9 -6 -10 -10 -3 -10 6 0 15 5 18 10 8 12 4 12 -15 0z"/>
</g>
</svg>
