<?xml version="1.0" standalone="no"?>
<!DOCTYPE svg PUBLIC "-//W3C//DTD SVG 20010904//EN"
 "http://www.w3.org/TR/2001/REC-SVG-20010904/DTD/svg10.dtd">
<svg version="1.0" xmlns="http://www.w3.org/2000/svg"
 width="119.000000pt" height="119.000000pt" viewBox="0 0 119.000000 119.000000"
 preserveAspectRatio="xMidYMid meet">
<metadata>
Created by potrace 1.14, written by Peter Selinger 2001-2017
</metadata>
<g transform="translate(0.000000,119.000000) scale(0.100000,-0.100000)"
fill="#000000" stroke="none">
<path d="M350 940 c0 -6 -3 -9 -7 -9 -23 4 -37 -5 -84 -51 -28 -27 -48 -50
-45 -50 3 0 1 -12 -5 -27 -23 -58 0 -168 43 -215 7 -7 22 -30 32 -50 17 -30
18 -39 7 -52 -8 -9 -18 -16 -23 -16 -5 0 -22 -12 -38 -27 -54 -51 -79 -73 -85
-73 -4 0 -18 -11 -33 -25 -15 -13 -45 -40 -67 -60 l-40 -35 406 0 c224 1 409
4 413 7 4 4 13 8 21 9 52 8 128 104 129 166 1 21 5 38 10 38 5 0 2 7 -5 17 -8
9 -12 17 -9 17 8 2 -23 86 -32 86 -4 0 -8 7 -8 15 0 8 -5 15 -12 15 -6 0 -9 3
-5 6 3 4 1 12 -6 20 -39 44 -39 43 -14 67 12 12 43 38 66 57 24 19 49 40 55
45 6 6 36 30 66 55 30 24 57 48 58 52 2 5 10 8 18 8 8 0 14 5 14 10 0 7 -138
10 -410 10 -254 -1 -410 -4 -410 -10z"/>
</g>
</svg>
