<svg width="17" height="17" viewBox="0 0 17 17" fill="none" xmlns="http://www.w3.org/2000/svg">
<path opacity="0.9" d="M10.8106 8.24297L14.2004 11.6328L13.7193 12.1135L10.3295 8.72373L10.8106 8.24297Z" fill="black"/>
<path opacity="0.9" d="M6.21453 8.25758L6.69529 8.73834L3.32929 12.1043L2.84853 11.6249L6.21453 8.25758Z" fill="black"/>
<path d="M8.50001 10.166C7.99001 10.166 7.446 9.962 7.072 9.554L2.82201 5.338L3.29801 4.862L7.54801 9.112C8.09201 9.656 8.942 9.656 9.486 9.112L13.736 4.862L14.212 5.338L9.928 9.588C9.55401 9.962 9.01 10.166 8.50001 10.166Z" fill="black"/>
<path d="M13.26 12.92H3.74C3.162 12.92 2.72 12.478 2.72 11.9V5.1C2.72 4.522 3.162 4.08 3.74 4.08H13.26C13.838 4.08 14.28 4.522 14.28 5.1V11.9C14.28 12.478 13.838 12.92 13.26 12.92ZM3.74 4.76C3.536 4.76 3.4 4.896 3.4 5.1V11.9C3.4 12.104 3.536 12.24 3.74 12.24H13.26C13.464 12.24 13.6 12.104 13.6 11.9V5.1C13.6 4.896 13.464 4.76 13.26 4.76H3.74Z" fill="black"/>
</svg>
