<svg width="13" height="15" viewBox="0 0 13 15" fill="none" xmlns="http://www.w3.org/2000/svg">
<path d="M6.50177 4.48958C5.93818 4.48958 5.39768 4.71347 4.99917 5.11198C4.60065 5.5105 4.37677 6.051 4.37677 6.61458C4.37677 7.17817 4.60065 7.71867 4.99917 8.11719C5.39768 8.5157 5.93818 8.73958 6.50177 8.73958C7.06535 8.73958 7.60586 8.5157 8.00437 8.11719C8.40289 7.71867 8.62677 7.17817 8.62677 6.61458C8.62677 6.051 8.40289 5.5105 8.00437 5.11198C7.60586 4.71347 7.06535 4.48958 6.50177 4.48958ZM5.26219 6.61458C5.26219 6.28583 5.39279 5.97053 5.62525 5.73807C5.85772 5.5056 6.17301 5.375 6.50177 5.375C6.83053 5.375 7.14582 5.5056 7.37829 5.73807C7.61075 5.97053 7.74135 6.28583 7.74135 6.61458C7.74135 6.94334 7.61075 7.25863 7.37829 7.4911C7.14582 7.72357 6.83053 7.85417 6.50177 7.85417C6.17301 7.85417 5.85772 7.72357 5.62525 7.4911C5.39279 7.25863 5.26219 6.94334 5.26219 6.61458ZM11.1042 10.3333L7.53133 14.1265C7.39888 14.2671 7.23907 14.3792 7.06171 14.4558C6.88435 14.5324 6.69319 14.5719 6.5 14.5719C6.3068 14.5719 6.11565 14.5324 5.93829 14.4558C5.76093 14.3792 5.60112 14.2671 5.46867 14.1265L1.89583 10.3333H1.90929L1.90327 10.3263L1.89583 10.3174C0.978787 9.23282 0.476728 7.85781 0.479165 6.4375C0.479165 3.11223 3.17473 0.416667 6.5 0.416667C9.82527 0.416667 12.5208 3.11223 12.5208 6.4375C12.5233 7.85781 12.0212 9.23282 11.1042 10.3174L11.0967 10.3263L11.0907 10.3333H11.1042ZM10.416 9.75994C11.2051 8.83299 11.6375 7.65485 11.6354 6.4375C11.6354 3.60133 9.33617 1.30208 6.5 1.30208C3.66383 1.30208 1.36458 3.60133 1.36458 6.4375C1.36458 7.70542 1.82287 8.86425 2.58398 9.75994L2.69306 9.8885L6.11325 13.5191C6.16292 13.5718 6.22285 13.6138 6.28936 13.6426C6.35587 13.6713 6.42755 13.6861 6.5 13.6861C6.57245 13.6861 6.64413 13.6713 6.71064 13.6426C6.77715 13.6138 6.83708 13.5718 6.88675 13.5191L10.3069 9.8885L10.416 9.75994Z" fill="black"/>
</svg>
