<svg width="18" height="18" viewBox="0 0 18 18" fill="none" xmlns="http://www.w3.org/2000/svg">
<path d="M1.8411 5.95463C2.05207 5.74372 2.33817 5.62524 2.63648 5.62524C2.93479 5.62524 3.22088 5.74372 3.43185 5.95463L9.0006 11.5234L14.5694 5.95463C14.7815 5.7497 15.0657 5.63631 15.3607 5.63887C15.6557 5.64143 15.9378 5.75975 16.1464 5.96833C16.355 6.17692 16.4733 6.45908 16.4759 6.75405C16.4784 7.04902 16.365 7.3332 16.1601 7.54538L9.79598 13.9095C9.58501 14.1204 9.29891 14.2389 9.0006 14.2389C8.70229 14.2389 8.4162 14.1204 8.20523 13.9095L1.8411 7.54538C1.6302 7.33441 1.51172 7.04831 1.51172 6.75C1.51172 6.45169 1.6302 6.1656 1.8411 5.95463Z" fill="#FE8D39"/>
</svg>
