<svg width="22" height="22" viewBox="0 0 22 22" fill="none" xmlns="http://www.w3.org/2000/svg">
<path d="M21.1406 15.125C21.6153 15.125 22 14.7403 22 14.2656V5.15625C22 3.26081 20.4579 1.71875 18.5625 1.71875H17.4453V0.859375C17.4453 0.384742 17.0606 0 16.5859 0C16.1113 0 15.7266 0.384742 15.7266 0.859375V1.71875H11.8164V0.859375C11.8164 0.384742 11.4317 0 10.957 0C10.4824 0 10.0977 0.384742 10.0977 0.859375V1.71875H6.23047V0.859375C6.23047 0.384742 5.84573 0 5.37109 0C4.89646 0 4.51172 0.384742 4.51172 0.859375V1.71875H3.4375C1.54206 1.71875 0 3.26081 0 5.15625V18.5625C0 20.4579 1.54206 22 3.4375 22H18.5625C20.4579 22 22 20.4579 22 18.5625C22 18.0879 21.6153 17.7031 21.1406 17.7031C20.666 17.7031 20.2812 18.0879 20.2812 18.5625C20.2812 19.5102 19.5102 20.2812 18.5625 20.2812H3.4375C2.48978 20.2812 1.71875 19.5102 1.71875 18.5625V5.15625C1.71875 4.20853 2.48978 3.4375 3.4375 3.4375H4.51172V4.29688C4.51172 4.77151 4.89646 5.15625 5.37109 5.15625C5.84573 5.15625 6.23047 4.77151 6.23047 4.29688V3.4375H10.0977V4.29688C10.0977 4.77151 10.4824 5.15625 10.957 5.15625C11.4317 5.15625 11.8164 4.77151 11.8164 4.29688V3.4375H15.7266V4.29688C15.7266 4.77151 16.1113 5.15625 16.5859 5.15625C17.0606 5.15625 17.4453 4.77151 17.4453 4.29688V3.4375H18.5625C19.5102 3.4375 20.2812 4.20853 20.2812 5.15625V14.2656C20.2812 14.7403 20.666 15.125 21.1406 15.125Z" fill="#008080"/>
<path d="M5.37109 9.88281C5.84571 9.88281 6.23047 9.49806 6.23047 9.02344C6.23047 8.54882 5.84571 8.16406 5.37109 8.16406C4.89647 8.16406 4.51172 8.54882 4.51172 9.02344C4.51172 9.49806 4.89647 9.88281 5.37109 9.88281Z" fill="#ED7014"/>
<path d="M12.8477 9.88281C13.3223 9.88281 13.707 9.49806 13.707 9.02344C13.707 8.54882 13.3223 8.16406 12.8477 8.16406C12.373 8.16406 11.9883 8.54882 11.9883 9.02344C11.9883 9.49806 12.373 9.88281 12.8477 9.88281Z" fill="#ED7014"/>
<path d="M16.5859 9.88281C17.0606 9.88281 17.4453 9.49806 17.4453 9.02344C17.4453 8.54882 17.0606 8.16406 16.5859 8.16406C16.1113 8.16406 15.7266 8.54882 15.7266 9.02344C15.7266 9.49806 16.1113 9.88281 16.5859 9.88281Z" fill="#ED7014"/>
<path d="M5.37109 13.6211C5.84571 13.6211 6.23047 13.2363 6.23047 12.7617C6.23047 12.2871 5.84571 11.9023 5.37109 11.9023C4.89647 11.9023 4.51172 12.2871 4.51172 12.7617C4.51172 13.2363 4.89647 13.6211 5.37109 13.6211Z" fill="#ED7014"/>
<path d="M5.37109 17.3594C5.84571 17.3594 6.23047 16.9746 6.23047 16.5C6.23047 16.0254 5.84571 15.6406 5.37109 15.6406C4.89647 15.6406 4.51172 16.0254 4.51172 16.5C4.51172 16.9746 4.89647 17.3594 5.37109 17.3594Z" fill="#ED7014"/>
<path d="M9.10938 9.88281C9.58399 9.88281 9.96875 9.49806 9.96875 9.02344C9.96875 8.54882 9.58399 8.16406 9.10938 8.16406C8.63476 8.16406 8.25 8.54882 8.25 9.02344C8.25 9.49806 8.63476 9.88281 9.10938 9.88281Z" fill="#ED7014"/>
<path d="M9.10938 13.6211C9.58399 13.6211 9.96875 13.2363 9.96875 12.7617C9.96875 12.2871 9.58399 11.9023 9.10938 11.9023C8.63476 11.9023 8.25 12.2871 8.25 12.7617C8.25 13.2363 8.63476 13.6211 9.10938 13.6211Z" fill="#ED7014"/>
<path d="M9.10938 17.3594C9.58399 17.3594 9.96875 16.9746 9.96875 16.5C9.96875 16.0254 9.58399 15.6406 9.10938 15.6406C8.63476 15.6406 8.25 16.0254 8.25 16.5C8.25 16.9746 8.63476 17.3594 9.10938 17.3594Z" fill="#ED7014"/>
<path d="M12.8477 13.6211C13.3223 13.6211 13.707 13.2363 13.707 12.7617C13.707 12.2871 13.3223 11.9023 12.8477 11.9023C12.373 11.9023 11.9883 12.2871 11.9883 12.7617C11.9883 13.2363 12.373 13.6211 12.8477 13.6211Z" fill="#ED7014"/>
<path d="M16.5859 13.6211C17.0606 13.6211 17.4453 13.2363 17.4453 12.7617C17.4453 12.2871 17.0606 11.9023 16.5859 11.9023C16.1113 11.9023 15.7266 12.2871 15.7266 12.7617C15.7266 13.2363 16.1113 13.6211 16.5859 13.6211Z" fill="#ED7014"/>
<path d="M12.8477 17.3594C13.3223 17.3594 13.707 16.9746 13.707 16.5C13.707 16.0254 13.3223 15.6406 12.8477 15.6406C12.373 15.6406 11.9883 16.0254 11.9883 16.5C11.9883 16.9746 12.373 17.3594 12.8477 17.3594Z" fill="#ED7014"/>
</svg>
