<svg width="29" height="25" viewBox="0 0 29 25" fill="none" xmlns="http://www.w3.org/2000/svg">
<path d="M28.2623 6.1884L14.6685 0.750905C14.5606 0.707787 14.4402 0.707787 14.3323 0.750905L0.738558 6.1884C0.654325 6.22196 0.582097 6.28001 0.531211 6.35506C0.480326 6.4301 0.453125 6.51869 0.453125 6.60936C0.453125 6.70003 0.480326 6.78861 0.531211 6.86366C0.582097 6.9387 0.654325 6.99676 0.738558 7.03031L14.3323 12.4678C14.4402 12.5109 14.5606 12.5109 14.6685 12.4678L22.4324 9.36209C22.5421 9.31623 22.6294 9.22905 22.6755 9.11938C22.7215 9.00971 22.7226 8.88633 22.6784 8.77588C22.6343 8.66542 22.5485 8.57675 22.4396 8.529C22.3306 8.48125 22.2073 8.47825 22.0962 8.52064L14.5004 11.5588L2.12648 6.60936L14.5004 1.65987L26.8744 6.60936L25.6604 7.09465C25.6052 7.11673 25.5548 7.14948 25.5121 7.19103C25.4695 7.23258 25.4355 7.28212 25.412 7.33682C25.3885 7.39152 25.3761 7.45031 25.3753 7.50983C25.3745 7.56935 25.3855 7.62844 25.4076 7.68372C25.4297 7.739 25.4624 7.78939 25.504 7.83201C25.5455 7.87464 25.5951 7.90866 25.6498 7.93214C25.7045 7.95562 25.7632 7.96809 25.8228 7.96885C25.8823 7.96961 25.9414 7.95864 25.9967 7.93656L28.2623 7.03031C28.3465 6.99676 28.4187 6.9387 28.4696 6.86366C28.5205 6.78861 28.5477 6.70003 28.5477 6.60936C28.5477 6.51869 28.5205 6.4301 28.4696 6.35506C28.4187 6.28001 28.3465 6.22196 28.2623 6.1884Z" fill="#2D3539" stroke="#2D3539" stroke-width="0.2"/>
<path d="M22.2031 10.2344C22.0829 10.2344 21.9677 10.2821 21.8827 10.3671C21.7977 10.4521 21.75 10.5673 21.75 10.6875V15.9039C19.6761 17.5138 17.1254 18.3877 14.5 18.3877C11.8746 18.3877 9.32386 17.5138 7.25 15.9039V10.6875C7.25 10.5673 7.20226 10.4521 7.11728 10.3671C7.03231 10.2821 6.91705 10.2344 6.79688 10.2344C6.6767 10.2344 6.56144 10.2821 6.47647 10.3671C6.39149 10.4521 6.34375 10.5673 6.34375 10.6875V16.125C6.34375 16.1932 6.35915 16.2606 6.38881 16.322C6.41847 16.3834 6.46162 16.4374 6.51503 16.4798C8.77802 18.3007 11.5954 19.2934 14.5 19.2934C17.4046 19.2934 20.222 18.3007 22.485 16.4798C22.5384 16.4374 22.5815 16.3834 22.6112 16.322C22.6408 16.2606 22.6562 16.1932 22.6562 16.125V10.6875C22.6562 10.5673 22.6085 10.4521 22.5235 10.3671C22.4386 10.2821 22.3233 10.2344 22.2031 10.2344Z" fill="#2D3539" stroke="#2D3539" stroke-width="0.2"/>
<path d="M24.9222 14.8562V8.05934C24.9222 7.95396 24.8854 7.85188 24.8183 7.77067C24.7511 7.68945 24.6577 7.63418 24.5542 7.61437L14.5855 5.71125C14.5266 5.69885 14.4658 5.69832 14.4067 5.70968C14.3475 5.72104 14.2913 5.74407 14.2412 5.77742C14.191 5.81077 14.1481 5.85377 14.1148 5.90391C14.0815 5.95406 14.0585 6.01034 14.0471 6.06946C14.0358 6.12859 14.0364 6.18938 14.0488 6.24828C14.0613 6.30718 14.0853 6.36301 14.1196 6.41252C14.1538 6.46202 14.1976 6.5042 14.2484 6.53659C14.2991 6.56899 14.3558 6.59094 14.4151 6.60118L24.0159 8.43408V14.8562C23.0059 15.2436 22.932 16.5459 23.3254 17.5532L22.6597 23.3233C22.6509 23.4023 22.663 23.4823 22.6948 23.5551C22.7266 23.628 22.777 23.6912 22.841 23.7384C23.3116 24.0913 23.884 24.2821 24.4722 24.2821C25.0605 24.2821 25.6329 24.0913 26.1035 23.7384C26.1674 23.6912 26.2179 23.628 26.2497 23.5551C26.2815 23.4823 26.2936 23.4023 26.2847 23.3233L25.6127 17.5528C26.006 16.545 25.9317 15.2432 24.9222 14.8562ZM24.469 15.6718C25.0259 15.6718 24.9675 16.56 24.8121 17.0919C24.5851 17.1295 24.3535 17.1295 24.1265 17.0919C23.9706 16.5595 23.9122 15.6718 24.469 15.6718ZM23.5918 23.1484L24.1845 18.0104C24.3733 18.036 24.5648 18.036 24.7536 18.0104L25.3463 23.1484C25.077 23.2947 24.7755 23.3713 24.469 23.3713C24.1626 23.3713 23.861 23.2947 23.5918 23.1484Z" fill="#FE8D39"/>
</svg>
