<svg width="18" height="17" viewBox="0 0 18 17" fill="none" xmlns="http://www.w3.org/2000/svg">
<path d="M3.60077 16.2035H12.6027C13.5577 16.2035 14.4736 15.8241 15.1488 15.1488C15.8241 14.4736 16.2035 13.5577 16.2035 12.6027V8.23677C16.2035 7.99802 16.1086 7.76905 15.9398 7.60023C15.771 7.43142 15.542 7.33657 15.3033 7.33657C15.0645 7.33657 14.8356 7.43142 14.6668 7.60023C14.4979 7.76905 14.4031 7.99802 14.4031 8.23677V12.6027C14.4031 13.0802 14.2134 13.5381 13.8758 13.8758C13.5381 14.2134 13.0802 14.4031 12.6027 14.4031H3.60077C3.12328 14.4031 2.66535 14.2134 2.32771 13.8758C1.99007 13.5381 1.80039 13.0802 1.80039 12.6027V3.60077C1.80039 3.12328 1.99007 2.66535 2.32771 2.32771C2.66535 1.99007 3.12328 1.80039 3.60077 1.80039H8.10174C8.34048 1.80039 8.56945 1.70554 8.73827 1.53673C8.90709 1.36791 9.00193 1.13894 9.00193 0.900193C9.00193 0.661447 8.90709 0.432479 8.73827 0.26366C8.56945 0.0948415 8.34048 0 8.10174 0H3.60077C2.64579 0 1.72992 0.379366 1.05464 1.05464C0.379366 1.72992 0 2.64579 0 3.60077V12.6027C0 13.5577 0.379366 14.4736 1.05464 15.1488C1.72992 15.8241 2.64579 16.2035 3.60077 16.2035Z" fill="#008080"/>
<path d="M15.5639 1.16122L8.10133 8.63283L5.13969 5.66219C4.97018 5.49268 4.74028 5.39745 4.50056 5.39745C4.26083 5.39745 4.03093 5.49268 3.86142 5.66219C3.69191 5.8317 3.59668 6.0616 3.59668 6.30133C3.59668 6.42003 3.62006 6.53756 3.66548 6.64723C3.71091 6.75689 3.77749 6.85653 3.86142 6.94046L7.46219 10.5412C7.54588 10.6256 7.64544 10.6926 7.75514 10.7383C7.86483 10.784 7.98249 10.8075 8.10133 10.8075C8.22016 10.8075 8.33783 10.784 8.44752 10.7383C8.55722 10.6926 8.65678 10.6256 8.74047 10.5412L16.8422 2.4395C17.0117 2.26999 17.1069 2.04008 17.1069 1.80036C17.1069 1.56064 17.0117 1.33073 16.8422 1.16122C16.6727 0.991714 16.4428 0.896484 16.2031 0.896484C15.9633 0.896484 15.7334 0.991714 15.5639 1.16122Z" fill="#008080"/>
</svg>
