<svg width="23" height="23" viewBox="0 0 23 23" fill="none" xmlns="http://www.w3.org/2000/svg">
<path d="M11.5 23C5.15901 23 0 17.841 0 11.5C0 5.15901 5.15901 0 11.5 0C17.841 0 23 5.15901 23 11.5C23 17.841 17.841 23 11.5 23ZM11.5 1.4375C5.95143 1.4375 1.4375 5.95143 1.4375 11.5C1.4375 17.0486 5.95143 21.5625 11.5 21.5625C17.0486 21.5625 21.5625 17.0486 21.5625 11.5C21.5625 5.95143 17.0486 1.4375 11.5 1.4375Z" fill="#2D3539"/>
<path d="M9.85188 15.6019L17.0394 8.41438C17.3202 8.13353 17.3202 7.67874 17.0394 7.39807C16.7585 7.1174 16.3037 7.11722 16.0231 7.39807L9.34373 14.0774L6.97688 11.7106C6.69603 11.4297 6.24124 11.4297 5.96057 11.7106C5.6799 11.9914 5.67972 12.4462 5.96057 12.7269L8.83557 15.6019C8.97591 15.7422 9.15991 15.8125 9.34373 15.8125C9.52755 15.8125 9.71155 15.7422 9.85188 15.6019Z" fill="#FE8D39"/>
</svg>
