<svg width="43" height="43" viewBox="0 0 43 43" fill="none" xmlns="http://www.w3.org/2000/svg">
<path d="M22.3398 5.375H2.51953C1.59177 5.375 0.839844 6.12692 0.839844 7.05469V40.4805C0.839844 41.4082 1.59177 42.1602 2.51953 42.1602H28.0508C28.9785 42.1602 29.7305 41.4082 29.7305 40.4805V12.7656L22.3398 5.375Z" fill="#FFF9F5"/>
<path d="M26.875 0.839844H7.05469C6.12692 0.839844 5.375 1.59177 5.375 2.51953V35.9453C5.375 36.8731 6.12692 37.625 7.05469 37.625H32.5859C33.5137 37.625 34.2656 36.8731 34.2656 35.9453V8.23047L26.875 0.839844Z" fill="white"/>
<path d="M26.875 0.839844H7.05469C6.12692 0.839844 5.375 1.59177 5.375 2.51953V35.9453C5.375 36.8731 6.12692 37.625 7.05469 37.625H32.5859C33.5137 37.625 34.2656 36.8731 34.2656 35.9453V8.23047L26.875 0.839844Z" fill="white"/>
<path d="M10.7109 5.375H28.8516V10.75H10.7109V5.375Z" fill="#FFF9F5"/>
<path d="M34.2656 8.23047H29.1846C27.9091 8.23047 26.875 7.19641 26.875 5.9209V0.839844L34.2656 8.23047Z" fill="#FFF9F5"/>
<path d="M34.8594 7.63667L27.4688 0.246048C27.3113 0.0885773 27.0978 0 26.875 0H7.05469C5.66534 0 4.53516 1.13018 4.53516 2.51953V4.53516H2.51953C1.13018 4.53516 0 5.66534 0 7.05469V40.4805C0 41.8698 1.13018 43 2.51953 43H28.0508C29.4401 43 30.5703 41.8698 30.5703 40.4805V38.4648H32.5859C33.9753 38.4648 35.1055 37.3347 35.1055 35.9453V26.2871C35.1055 25.8232 34.7295 25.4473 34.2656 25.4473C33.8017 25.4473 33.4258 25.8232 33.4258 26.2871V35.9453C33.4258 36.4085 33.0492 36.7852 32.5859 36.7852H7.05469C6.59146 36.7852 6.21484 36.4085 6.21484 35.9453V2.51953C6.21484 2.0563 6.59146 1.67969 7.05469 1.67969H26.0352V4.53516H10.7116C10.2477 4.53516 9.87177 4.91112 9.87177 5.375V10.75C9.87177 11.2139 10.2477 11.5898 10.7116 11.5898H28.8522C29.3161 11.5898 29.6921 11.2139 29.6921 10.75V9.07031H33.4258V19.4565C33.4258 19.9204 33.8017 20.2963 34.2656 20.2963C34.7295 20.2963 35.1055 19.9204 35.1055 19.4565V8.23047C35.1055 8.00771 35.0169 7.79414 34.8594 7.63667ZM7.05469 38.4648H28.8906V40.4805C28.8906 40.9437 28.514 41.3203 28.0508 41.3203H2.51953C2.0563 41.3203 1.67969 40.9437 1.67969 40.4805V7.05469C1.67969 6.59146 2.0563 6.21484 2.51953 6.21484H4.53516V35.9453C4.53516 37.3347 5.66534 38.4648 7.05469 38.4648ZM11.5515 9.91016V6.21484H26.0493C26.1605 7.40965 26.9416 8.41222 28.0124 8.84329V9.91016H11.5515ZM29.1846 7.39062C28.3743 7.39062 27.7148 6.73122 27.7148 5.9209V2.86761L29.9765 5.12895L32.2379 7.39062H29.1846Z" fill="#FE8D39"/>
<path d="M34.2656 22.0039C34.0448 22.0039 33.828 22.0938 33.6718 22.25C33.5157 22.4061 33.4258 22.623 33.4258 22.8438C33.4258 23.0645 33.5157 23.2814 33.6718 23.4375C33.828 23.5937 34.0448 23.6836 34.2656 23.6836C34.4864 23.6836 34.7033 23.5937 34.8594 23.4375C35.0156 23.2814 35.1055 23.0645 35.1055 22.8438C35.1055 22.623 35.0156 22.4061 34.8594 22.25C34.7033 22.0938 34.4864 22.0039 34.2656 22.0039Z" fill="#FE8D39"/>
<path d="M10.7109 15.6211C10.9321 15.6211 11.1486 15.5312 11.3047 15.375C11.4619 15.2189 11.5508 15.002 11.5508 14.7812C11.5508 14.5605 11.4619 14.3436 11.3047 14.1875C11.1486 14.0313 10.9321 13.9414 10.7109 13.9414C10.4902 13.9414 10.2733 14.0313 10.1171 14.1875C9.96098 14.3436 9.87109 14.5605 9.87109 14.7812C9.87109 15.002 9.96098 15.2189 10.1171 15.375C10.2736 15.5312 10.4902 15.6211 10.7109 15.6211Z" fill="#FE8D39"/>
<path d="M28.8516 17.9727H10.7109C10.2471 17.9727 9.87109 18.3486 9.87109 18.8125C9.87109 19.2764 10.2471 19.6523 10.7109 19.6523H28.8516C29.3154 19.6523 29.6914 19.2764 29.6914 18.8125C29.6914 18.3486 29.3154 17.9727 28.8516 17.9727Z" fill="#FE8D39"/>
<path d="M28.8516 22.0039H10.7109C10.2471 22.0039 9.87109 22.3799 9.87109 22.8438C9.87109 23.3076 10.2471 23.6836 10.7109 23.6836H28.8516C29.3154 23.6836 29.6914 23.3076 29.6914 22.8438C29.6914 22.3799 29.3154 22.0039 28.8516 22.0039Z" fill="#FE8D39"/>
<path d="M28.8516 26.0352H10.7109C10.2471 26.0352 9.87109 26.4111 9.87109 26.875C9.87109 27.3389 10.2471 27.7148 10.7109 27.7148H28.8516C29.3154 27.7148 29.6914 27.3389 29.6914 26.875C29.6914 26.4111 29.3154 26.0352 28.8516 26.0352Z" fill="#FE8D39"/>
<path d="M28.8516 30.0664H10.7109C10.2471 30.0664 9.87109 30.4424 9.87109 30.9062C9.87109 31.3701 10.2471 31.7461 10.7109 31.7461H28.8516C29.3154 31.7461 29.6914 31.3701 29.6914 30.9062C29.6914 30.4424 29.3154 30.0664 28.8516 30.0664Z" fill="#FE8D39"/>
<path d="M28.8531 13.9414H14.123C13.6595 13.9414 13.2832 14.3174 13.2832 14.7812C13.2832 15.2451 13.6595 15.6211 14.123 15.6211H28.8531C29.317 15.6211 29.693 15.2451 29.693 14.7812C29.693 14.3174 29.317 13.9414 28.8531 13.9414Z" fill="#FE8D39"/>
</svg>
