<svg width="20" height="20" viewBox="0 0 20 20" fill="none" xmlns="http://www.w3.org/2000/svg">
<path d="M10 20C15.5137 20 20 15.5141 20 10C20 7.32666 18.9604 4.81506 17.0725 2.92745C15.1845 1.03963 12.6733 0 10 0C4.48588 0 0 4.48588 0 10C0 12.6733 1.03963 15.1849 2.92745 17.0725C4.81506 18.9604 7.32666 20 10 20ZM10 18.3333C8.05257 18.3333 6.20829 17.6713 4.72412 16.4543L16.4543 4.72412C17.6713 6.20829 18.3333 8.05257 18.3333 10C18.3333 14.5949 14.5949 18.3333 10 18.3333ZM10 1.66667C11.947 1.66667 13.7917 2.32869 15.2755 3.54574L3.54574 15.2759C2.32869 13.7917 1.66667 11.9474 1.66667 10C1.66667 5.40507 5.40507 1.66667 10 1.66667Z" fill="black"/>
</svg>
