<svg width="42" height="42" viewBox="0 0 42 42" fill="none" xmlns="http://www.w3.org/2000/svg">
<path d="M22.6378 33.105H18.5634C17.5355 33.105 16.6992 33.9412 16.6992 34.9691V41.3478C16.6992 41.6876 16.9746 41.963 17.3145 41.963H23.8865C24.2264 41.963 24.5018 41.6876 24.5018 41.3478V34.9691C24.5018 33.9412 23.6656 33.105 22.6378 33.105ZM23.2713 40.7327H17.9297V34.9691C17.9297 34.6198 18.2139 34.3355 18.5634 34.3355H22.6378C22.9872 34.3355 23.2714 34.6198 23.2714 34.9691V40.7327H23.2713Z" fill="#008080"/>
<path d="M31.8177 17.0805C31.9414 16.3093 32.0046 15.524 32.0046 14.7369C32.0046 11.6118 31.0236 8.712 29.3545 6.32751L30.3591 4.53726H38.6807C39.0205 4.53726 39.2959 4.2618 39.2959 3.92203C39.2959 3.58226 39.0205 3.30679 38.6807 3.30679H29.9988C29.7764 3.30679 29.5712 3.42689 29.4623 3.62097L28.5384 5.26742C25.8398 2.07099 21.8055 0.0368652 17.3045 0.0368652C13.6917 0.0368652 10.219 1.35962 7.5262 3.76133C7.27264 3.98749 7.25041 4.3764 7.47657 4.62996C7.7029 4.8836 8.09181 4.90583 8.34529 4.67959C10.8124 2.47918 13.9942 1.26733 17.3046 1.26733C21.5952 1.26733 25.4237 3.28399 27.8921 6.41922L25.3796 10.8965C25.2133 11.1928 25.3187 11.5678 25.615 11.7341C25.7102 11.7875 25.8135 11.8129 25.9155 11.8129C26.1307 11.8129 26.3397 11.6997 26.4525 11.4987L28.6794 7.53058C30.0051 9.61582 30.7741 12.0882 30.7741 14.7369C30.7741 15.5079 30.7077 16.2768 30.5785 17.0296H27.3123C26.2847 17.0296 25.4486 17.8657 25.4486 18.8934V25.4666C23.255 27.1365 20.6693 28.0724 17.9197 28.1937V14.7369C17.9197 14.3971 17.6443 14.1216 17.3045 14.1216H3.8485C3.974 11.2804 4.96929 8.61299 6.74584 6.37394C6.95707 6.10775 6.91245 5.72081 6.64634 5.50958C6.38014 5.29835 5.99312 5.34281 5.78197 5.60908C3.7033 8.229 2.60449 11.3853 2.60449 14.7369C2.60449 15.0766 2.87987 15.3521 3.21973 15.3521H16.6893V28.8225C16.6893 29.1622 16.9646 29.4377 17.3045 29.4377C20.2469 29.4377 23.0381 28.591 25.4486 26.9782V41.3478C25.4486 41.6876 25.7239 41.963 26.0638 41.963H32.6352C32.9751 41.963 33.2505 41.6876 33.2505 41.3478V36.7286C33.2505 36.3889 32.9751 36.1134 32.6352 36.1134C32.2954 36.1134 32.02 36.3889 32.02 36.7286V40.7326H26.679V18.8934C26.679 18.5442 26.9631 18.2601 27.3123 18.2601H31.3868C31.736 18.2601 32.0201 18.5442 32.0201 18.8934V34.2677C32.0201 34.6075 32.2955 34.8829 32.6353 34.8829C32.9752 34.8829 33.2505 34.6075 33.2505 34.2677V18.8934C33.2505 18.014 32.6382 17.2755 31.8177 17.0805Z" fill="#008080"/>
<path d="M40.1358 26.3411H36.0613C35.0335 26.3411 34.1973 27.1773 34.1973 28.2051V41.3479C34.1973 41.6877 34.4726 41.9632 34.8125 41.9632H41.3847C41.7245 41.9632 41.9999 41.6877 41.9999 41.3479V28.2051C41.9999 27.1773 41.1637 26.3411 40.1358 26.3411ZM40.7694 40.7328H35.4278V28.2051C35.4278 27.8558 35.7121 27.5715 36.0614 27.5715H40.1358C40.4853 27.5715 40.7695 27.8558 40.7695 28.2051V40.7328H40.7694Z" fill="#008080"/>
<path d="M14.7 16.7258H0.615234C0.275379 16.7258 0 17.0013 0 17.3411C0 23.7196 4.0836 29.1614 9.7732 31.1916L8.07064 34.8834H1.45154C1.11169 34.8834 0.836308 35.1588 0.836308 35.4986C0.836308 35.8384 1.11169 36.1138 1.45154 36.1138H8.46431C8.70434 36.1138 8.92246 35.9742 9.02303 35.7563L10.9588 31.5589C12.1538 31.8736 13.4075 32.042 14.7 32.042C15.0399 32.042 15.3152 31.7665 15.3152 31.4267V17.3411C15.3152 17.0013 15.0399 16.7258 14.7 16.7258ZM14.0848 30.7976C13.1923 30.7573 12.3223 30.6291 11.4829 30.4225L12.2327 28.7966C12.375 28.488 12.2403 28.1225 11.9317 27.9802C11.6233 27.8379 11.2576 27.9727 11.1154 28.2812L10.2907 30.0695C5.20718 28.3031 1.49814 23.5722 1.24433 17.9562H14.0848V30.7976Z" fill="#008080"/>
<path d="M1.45117 33.4651H6.56246C6.90231 33.4651 7.17769 33.1896 7.17769 32.8499C7.17769 32.5101 6.90231 32.2346 6.56246 32.2346H1.45117C1.11132 32.2346 0.835938 32.5101 0.835938 32.8499C0.835938 33.1896 1.1114 33.4651 1.45117 33.4651Z" fill="#008080"/>
<path d="M32.6191 2.08765H38.6804C39.0203 2.08765 39.2957 1.81219 39.2957 1.47241C39.2957 1.13264 39.0203 0.857178 38.6804 0.857178H32.6191C32.2793 0.857178 32.0039 1.13264 32.0039 1.47241C32.0039 1.81219 32.2794 2.08765 32.6191 2.08765Z" fill="#008080"/>
<path d="M35.0693 14.4744C35.0693 14.8141 35.3447 15.0896 35.6846 15.0896H40.1545C40.4943 15.0896 40.7697 14.8141 40.7697 14.4744C40.7697 14.1346 40.4943 13.8591 40.1545 13.8591H35.6846C35.3447 13.8591 35.0693 14.1345 35.0693 14.4744Z" fill="#008080"/>
<path d="M40.1545 16.5105H35.6846C35.3447 16.5105 35.0693 16.786 35.0693 17.1257C35.0693 17.4655 35.3447 17.741 35.6846 17.741H40.1545C40.4943 17.741 40.7697 17.4655 40.7697 17.1257C40.7697 16.786 40.4943 16.5105 40.1545 16.5105Z" fill="#008080"/>
<path d="M40.1545 19.1621H35.6846C35.3447 19.1621 35.0693 19.4376 35.0693 19.7773C35.0693 20.1171 35.3447 20.3926 35.6846 20.3926H40.1545C40.4943 20.3926 40.7697 20.1171 40.7697 19.7773C40.7697 19.4376 40.4943 19.1621 40.1545 19.1621Z" fill="#008080"/>
</svg>
