<svg width="55" height="68" viewBox="0 0 55 68" fill="none" xmlns="http://www.w3.org/2000/svg">
<path d="M52.9117 28.9958C51.1651 27.5678 48.6916 27.1108 46.6092 27.831C46.0512 28.0243 45.5331 28.2953 45.0688 28.6367C43.8849 29.5077 41.2565 32.1221 39.1737 34.7096V14.7645C39.1737 13.0692 38.4768 11.4123 37.2618 10.218C36.0556 9.03252 34.4712 8.39316 32.8085 8.42424C32.0536 8.43772 31.3303 8.58745 30.6619 8.8491V6.90097C30.6619 5.05593 29.9034 3.25235 28.5801 1.95186C27.2688 0.662776 25.5527 -0.0320254 23.7378 0.00113445C20.1192 0.0638272 17.1649 3.00521 17.0566 6.60097C16.2727 6.24554 15.4214 6.04606 14.5401 6.01964C12.7018 5.96576 10.8811 6.67714 9.5464 7.97296C8.23918 9.24184 7.51899 10.9169 7.51899 12.6848L7.51432 14.5738C6.95009 14.3883 6.34855 14.2868 5.72318 14.2868C2.56729 14.2868 0 16.8541 0 20.0095L0.00207249 49.0025L0.00673555 49.1398C0.27046 52.9449 1.06681 56.2029 2.37455 58.8235C3.60043 61.2805 5.31075 63.2587 7.45785 64.7032C11.6831 67.5466 16.9027 67.9114 20.9777 67.9114C28.9801 67.9114 36.1794 63.9327 39.7799 57.5246C40.2177 56.8189 41.3715 55.0045 42.6176 53.0475C43.8311 51.1408 44.96 49.3839 45.9554 47.8336C46.5025 46.9813 47.0004 46.2062 47.4325 45.5306C49.0423 43.013 50.7578 40.5722 52.5319 38.2753C53.1899 37.4235 53.3925 37.1925 53.4386 37.1417C54.2691 36.2355 54.7924 35.1262 54.952 33.9329C55.2033 32.061 54.4593 30.261 52.9117 28.9958ZM51.0039 33.4045C50.9526 33.7858 50.7791 34.1474 50.5019 34.45C50.3573 34.6081 50.0988 34.9086 49.3796 35.8402C47.5336 38.2297 45.7491 40.768 44.0761 43.3845C43.645 44.0586 43.1492 44.8306 42.6031 45.6808C41.6057 47.2342 40.4752 48.9953 39.2571 50.9082C37.982 52.9112 36.8017 54.7666 36.3696 55.4645L36.3245 55.5412C33.4349 60.7142 27.5548 63.9276 20.9782 63.9276C17.469 63.9276 13.0132 63.64 9.68215 61.3986C6.28327 59.1116 4.4201 55.034 3.98591 48.9326L3.98384 20.01C3.98384 19.0509 4.76413 18.2706 5.72318 18.2706C6.68792 18.2706 7.47287 19.0509 7.47287 20.01V30.86C7.47287 30.8921 7.4765 30.9232 7.47754 30.9553C7.47961 30.9905 7.47961 31.0263 7.48324 31.0615C7.48635 31.0931 7.49256 31.1237 7.49723 31.1548C7.50241 31.1895 7.50603 31.2247 7.51277 31.2594C7.51951 31.2905 7.52883 31.3211 7.5366 31.3517C7.54489 31.3843 7.55163 31.418 7.56199 31.4501C7.57132 31.4812 7.58375 31.5112 7.59515 31.5413C7.60603 31.5719 7.61588 31.603 7.62883 31.633C7.64126 31.6631 7.65629 31.6916 7.67028 31.7206C7.68427 31.7496 7.69722 31.7791 7.71225 31.8076C7.72727 31.8356 7.74541 31.8625 7.76199 31.89C7.77857 31.9175 7.79411 31.9454 7.81173 31.9719C7.82986 31.9983 7.85007 32.0232 7.86924 32.0485C7.88841 32.0744 7.90602 32.1009 7.92623 32.1252C7.94644 32.1496 7.96872 32.1719 7.98944 32.1952C8.0112 32.219 8.03193 32.2444 8.05473 32.2672C8.077 32.2889 8.10032 32.3086 8.12364 32.3299C8.14747 32.3516 8.17078 32.375 8.19617 32.3957C8.22001 32.4154 8.24539 32.433 8.27026 32.4516C8.29669 32.4713 8.32208 32.4921 8.34902 32.5107C8.37441 32.5278 8.40135 32.5423 8.42725 32.5579C8.45575 32.5755 8.48373 32.5941 8.51326 32.6107C8.54021 32.6252 8.5687 32.6371 8.59616 32.6506C8.62621 32.6656 8.65627 32.6812 8.68735 32.6946C8.71585 32.7071 8.74642 32.7164 8.77543 32.7273C8.80704 32.7387 8.83813 32.7516 8.87025 32.762C8.90082 32.7713 8.93294 32.7781 8.96403 32.7863C8.99667 32.7946 9.02828 32.8045 9.06092 32.8112C9.09408 32.818 9.12724 32.8216 9.1604 32.8268C9.19356 32.8314 9.22568 32.8382 9.25884 32.8418C9.292 32.8449 9.3262 32.8454 9.35987 32.847C9.39303 32.8485 9.42619 32.8521 9.45987 32.8521C9.46143 32.8521 9.4635 32.8521 9.46505 32.8521C9.53396 32.8521 9.60184 32.8485 9.66868 32.8418C9.69769 32.8392 9.72619 32.833 9.7552 32.8288C9.79199 32.8237 9.82981 32.8195 9.86608 32.8117C9.90442 32.804 9.94121 32.7931 9.97851 32.7832C10.0044 32.776 10.0314 32.7708 10.0567 32.763C10.0982 32.7501 10.1386 32.734 10.179 32.7185C10.1987 32.7107 10.22 32.7045 10.2396 32.6962C10.2801 32.6791 10.3184 32.6589 10.3573 32.6397C10.3759 32.6304 10.3951 32.6226 10.4137 32.6128C10.45 32.5931 10.4842 32.5703 10.5189 32.5485C10.5386 32.5366 10.5588 32.5257 10.5775 32.5128C10.6096 32.4915 10.6402 32.4672 10.6707 32.4433C10.6909 32.4283 10.7117 32.4143 10.7308 32.3983C10.7593 32.3755 10.7852 32.3496 10.8122 32.3247C10.8324 32.3066 10.8531 32.2889 10.8728 32.2703C10.8977 32.2454 10.9199 32.2185 10.9433 32.1926C10.9624 32.1713 10.9832 32.1506 11.0013 32.1288C11.022 32.1035 11.0407 32.0765 11.0604 32.0501C11.079 32.0252 11.0987 32.0014 11.1158 31.9755C11.1339 31.9491 11.149 31.9216 11.1655 31.8941C11.1821 31.8667 11.2002 31.8397 11.2158 31.8118C11.2308 31.7838 11.2432 31.7548 11.2572 31.7263C11.2712 31.6967 11.2868 31.6677 11.2997 31.6377C11.3122 31.6087 11.3215 31.5781 11.3324 31.5486C11.3443 31.5175 11.3567 31.4869 11.3671 31.4548C11.3764 31.4242 11.3831 31.3931 11.3909 31.362C11.3992 31.3294 11.409 31.2973 11.4163 31.2641C11.4225 31.233 11.4261 31.2004 11.4308 31.1682C11.4365 31.1346 11.4427 31.1009 11.4464 31.0667C11.45 31.0346 11.45 31.0014 11.4515 30.9688C11.4536 30.9341 11.4572 30.9004 11.4572 30.8657L11.5033 12.6899C11.5033 12.004 11.794 11.3439 12.3215 10.8314C12.8883 10.2817 13.6551 9.97809 14.4224 10.0019C15.8597 10.0449 17.0291 11.2952 17.0291 12.792L17.0519 30.7548C17.0519 30.7911 17.0555 30.8263 17.0576 30.8615C17.0592 30.8931 17.0592 30.9258 17.0623 30.9569C17.0659 30.9942 17.0732 31.0299 17.0789 31.0662C17.0835 31.0957 17.0866 31.1258 17.0923 31.1548C17.1006 31.1942 17.112 31.2325 17.1224 31.2708C17.1291 31.2957 17.1343 31.3211 17.1416 31.3454C17.1545 31.3869 17.1711 31.4273 17.1866 31.4677C17.1944 31.4879 17.2001 31.5087 17.2084 31.5283C17.227 31.5713 17.2483 31.6133 17.2695 31.6548C17.2778 31.6703 17.284 31.6869 17.2923 31.7019C17.3156 31.7449 17.3421 31.7859 17.368 31.8263C17.3763 31.8397 17.3835 31.8532 17.3923 31.8662C17.4198 31.9071 17.4498 31.9454 17.4799 31.9838C17.4892 31.9957 17.4975 32.0081 17.5068 32.0195C17.5405 32.0605 17.5768 32.0988 17.6136 32.1366C17.6213 32.1449 17.6275 32.1532 17.6353 32.161C17.6731 32.1988 17.7136 32.234 17.7545 32.2687C17.7623 32.2755 17.769 32.2827 17.7768 32.2895C17.8177 32.3231 17.8602 32.3537 17.9032 32.3838C17.9125 32.3905 17.9208 32.3978 17.9301 32.404C17.9737 32.4335 18.0192 32.4599 18.0648 32.4858C18.0747 32.4915 18.084 32.4983 18.0944 32.504C18.142 32.5294 18.1913 32.5522 18.241 32.5744C18.2503 32.5786 18.2591 32.5838 18.2685 32.5879C18.3192 32.6091 18.3716 32.6273 18.4244 32.6449C18.4337 32.6475 18.442 32.6516 18.4514 32.6547C18.5037 32.6708 18.5571 32.6838 18.6104 32.6957C18.6213 32.6977 18.6317 32.7014 18.6425 32.704C18.7721 32.7304 18.9063 32.7444 19.0436 32.7444C19.0446 32.7444 19.0456 32.7444 19.0467 32.7444C19.0814 32.7444 19.1156 32.7407 19.1498 32.7392C19.183 32.7371 19.2161 32.7371 19.2488 32.734C19.285 32.7299 19.3197 32.7231 19.3555 32.7174C19.3855 32.7128 19.4166 32.7097 19.4467 32.7034C19.4824 32.6962 19.5171 32.6858 19.5524 32.6765C19.5809 32.6687 19.6094 32.663 19.6373 32.6542C19.6731 32.6433 19.7073 32.6294 19.742 32.6159C19.7679 32.606 19.7949 32.5983 19.8202 32.5874C19.856 32.5718 19.8907 32.5537 19.9254 32.5366C19.9482 32.5252 19.972 32.5154 19.9943 32.5034C20.0285 32.4848 20.0612 32.463 20.0943 32.4428C20.1156 32.4294 20.1378 32.4174 20.1586 32.4035C20.1902 32.3822 20.2197 32.3584 20.2498 32.3351C20.2705 32.3195 20.2917 32.305 20.3119 32.2884C20.3404 32.2651 20.3674 32.2387 20.3948 32.2133C20.414 32.1957 20.4342 32.1786 20.4534 32.1599C20.4788 32.134 20.5026 32.106 20.527 32.0791C20.5451 32.0589 20.5643 32.0397 20.5819 32.0185C20.6036 31.9915 20.6233 31.963 20.6435 31.9356C20.6612 31.9118 20.6798 31.889 20.6964 31.8651C20.715 31.8377 20.7306 31.8086 20.7477 31.7802C20.7637 31.7537 20.7814 31.7278 20.7959 31.7009C20.8114 31.6724 20.8238 31.6423 20.8378 31.6133C20.8518 31.5843 20.8674 31.5563 20.8798 31.5263C20.8917 31.4978 20.9016 31.4677 20.9119 31.4382C20.9238 31.4066 20.9368 31.3755 20.9466 31.3434C20.956 31.3123 20.9627 31.2807 20.971 31.2491C20.9793 31.217 20.9891 31.1853 20.9953 31.1527C21.0021 31.1201 21.0057 31.0864 21.0109 31.0537C21.0155 31.0206 21.0223 30.9879 21.0254 30.9548C21.029 30.9211 21.029 30.8869 21.0306 30.8527C21.0326 30.819 21.0358 30.7864 21.0358 30.7522V6.80563C21.0358 5.27613 22.2792 4.01088 23.8072 3.98446C24.5445 3.97409 25.245 4.25906 25.7885 4.79325C26.3543 5.34919 26.6786 6.11757 26.6786 6.90097V30.862C26.6786 30.8983 26.6822 30.9335 26.6843 30.9693C26.6859 31.0009 26.6859 31.033 26.689 31.0646C26.6926 31.0999 26.6999 31.1341 26.705 31.1688C26.7102 31.2004 26.7133 31.232 26.7196 31.2625C26.7268 31.2973 26.7372 31.3309 26.746 31.3651C26.7537 31.3947 26.7594 31.4242 26.7688 31.4532C26.7802 31.49 26.7947 31.5258 26.8082 31.5615C26.8175 31.5864 26.8253 31.6118 26.8356 31.6361C26.8517 31.6734 26.8703 31.7092 26.8885 31.7454C26.8988 31.7667 26.9081 31.789 26.9195 31.8102C26.9392 31.847 26.962 31.8817 26.9843 31.9169C26.9962 31.9356 27.0066 31.9558 27.0195 31.9744C27.0434 32.0097 27.0698 32.0434 27.0962 32.077C27.1092 32.0936 27.1206 32.1112 27.1341 32.1273C27.1631 32.163 27.1952 32.1962 27.2268 32.2299C27.2392 32.2423 27.2501 32.2563 27.2625 32.2687C27.2952 32.3019 27.3304 32.332 27.3657 32.3625C27.3786 32.3739 27.3905 32.3864 27.404 32.3972C27.4434 32.4299 27.4848 32.4594 27.5263 32.4889C27.5366 32.4962 27.5465 32.5045 27.5574 32.5123C27.6019 32.5423 27.6485 32.5698 27.6957 32.5962C27.7045 32.6009 27.7123 32.6071 27.7211 32.6117C27.7729 32.6397 27.8257 32.6646 27.8801 32.6884C27.8853 32.6905 27.89 32.6936 27.8952 32.6957C27.9516 32.7195 28.0097 32.7402 28.0687 32.7589C28.0719 32.7604 28.075 32.7615 28.0786 32.7625C28.2024 32.8014 28.3314 32.8278 28.4646 32.8418C28.4656 32.8418 28.4661 32.8418 28.4672 32.8418C28.534 32.8485 28.6019 32.8521 28.6708 32.8521C28.6713 32.8521 28.6718 32.8521 28.6729 32.8521C28.7081 32.8521 28.7428 32.8485 28.7781 32.847C28.8107 32.8449 28.8433 32.8449 28.8755 32.8418C28.9122 32.8382 28.948 32.8309 28.9843 32.8252C29.0138 32.8205 29.0438 32.8174 29.0734 32.8112C29.1122 32.8034 29.1495 32.792 29.1874 32.7822C29.2128 32.7755 29.2392 32.7703 29.2641 32.7625C29.3045 32.7496 29.3433 32.734 29.3827 32.719C29.4039 32.7107 29.4257 32.704 29.4469 32.6952C29.4868 32.6781 29.5252 32.6584 29.564 32.6387C29.5827 32.6294 29.6024 32.6216 29.621 32.6112C29.6589 32.5905 29.6951 32.5672 29.7319 32.5439C29.7495 32.533 29.7677 32.5231 29.7853 32.5112C29.8226 32.4864 29.8573 32.4584 29.8925 32.4309C29.9076 32.4195 29.9236 32.4086 29.9386 32.3967C29.9734 32.3677 30.006 32.3361 30.0392 32.305C30.0526 32.2926 30.0671 32.2812 30.0796 32.2682C30.1117 32.2361 30.1418 32.2019 30.1713 32.1672C30.1837 32.1537 30.1967 32.1408 30.2086 32.1268C30.2371 32.0921 30.263 32.0553 30.2889 32.019C30.2998 32.0035 30.3122 31.989 30.3231 31.9734C30.3474 31.9371 30.3692 31.8993 30.391 31.8615C30.4013 31.8439 30.4132 31.8273 30.4231 31.8092C30.4438 31.7708 30.4614 31.7309 30.4796 31.691C30.4884 31.6724 30.4987 31.6542 30.5065 31.6351C30.5231 31.5962 30.5366 31.5558 30.5505 31.5159C30.5578 31.4947 30.5671 31.4739 30.5739 31.4517C30.5853 31.4138 30.5941 31.3739 30.6039 31.3351C30.6096 31.3102 30.6174 31.2859 30.6226 31.261C30.6303 31.2227 30.635 31.1828 30.6407 31.1439C30.6443 31.117 30.65 31.0905 30.6526 31.0631C30.6568 31.0268 30.6568 30.9895 30.6583 30.9522C30.6599 30.9216 30.663 30.8916 30.663 30.86V14.4189C30.7925 13.3075 31.736 12.4273 32.8785 12.4076C33.4655 12.3977 34.0323 12.6288 34.4701 13.0594C34.9282 13.5091 35.1908 14.1308 35.1908 14.7645V38.2764L35.1919 38.3655C35.2028 39.6561 36.0504 40.7468 37.3006 41.0794C38.5426 41.4094 39.8115 40.8877 40.4643 39.7696L40.4767 39.7473C42.0383 37.0189 46.2123 32.7423 47.431 31.846C47.5719 31.7418 47.7341 31.6584 47.9128 31.5962C48.7066 31.3221 49.7019 31.5164 50.391 32.0801C50.7153 32.3459 51.0858 32.7915 51.0039 33.4045Z" fill="black"/>
</svg>
