<svg width="80" height="80" viewBox="0 0 80 80" fill="none" xmlns="http://www.w3.org/2000/svg">
<path d="M6.25195 2.49365C4.19607 2.49365 2.49707 4.19504 2.49707 6.25092V73.7485C2.49707 75.8044 4.19607 77.4937 6.25195 77.4937H26.2495C27.8792 77.4559 27.8792 75.0302 26.2495 74.9936H6.25195C5.53786 74.9936 4.99707 74.4625 4.99707 73.7485V6.25092C4.99707 5.53678 5.53786 4.99614 6.25195 4.99614H44.9995V11.251C44.9995 13.3069 46.6985 14.9986 48.7544 14.9986H54.9995V25.0009C54.9995 26.6692 57.5019 26.6692 57.5019 25.0009V13.7535C57.5019 13.4209 57.3692 13.1018 57.1333 12.8672L47.1309 2.86477C46.8987 2.63138 46.5837 2.49861 46.2544 2.49625L6.25195 2.49365ZM47.4995 6.76866L53.2295 12.4986H48.7544C48.0402 12.4986 47.4995 11.9652 47.4995 11.251V6.76866ZM18.4321 12.4986C16.7291 12.4608 16.7291 15.0354 18.4321 14.9986H38.7519C40.455 15.0364 40.455 12.4618 38.7519 12.4986H18.4321ZM11.2544 22.4986H48.7544C50.4574 22.5364 50.4574 19.9618 48.7544 19.9985H11.1897C9.49538 20.1181 9.62118 22.5481 11.2544 22.4986H11.2544ZM11.2544 30.001H16.2446C17.9477 30.0388 17.9477 27.4642 16.2446 27.501H11.1897C9.49538 27.6205 9.62118 30.0506 11.2544 30.001H11.2544ZM20.9346 30.001H46.2544C47.9574 30.0388 47.9574 27.4642 46.2544 27.501H20.8735C19.1798 27.6129 19.2987 30.0488 20.9345 30.001H20.9346ZM57.8681 53.1478C56.8471 51.7095 54.7407 53.3916 55.9174 54.7054L67.8656 69.6151C69.9036 72.1941 73.7684 71.9203 75.976 69.7128C78.1852 67.5036 78.4321 63.6603 75.871 61.6099L58.1195 47.396L60.6244 44.8911L61.6156 45.8823C62.1032 46.367 62.8907 46.367 63.3783 45.8823L67.1357 42.1348C67.6252 41.6464 67.6252 40.8532 67.1357 40.3648L55.8857 29.1147C55.6469 28.8747 55.321 28.7415 54.9823 28.7462L54.9824 28.7465C54.6566 28.7512 54.3455 28.884 54.1157 29.115L50.3682 32.8625C49.877 33.3512 49.877 34.1463 50.3682 34.635L58.857 43.1237C55.672 46.2798 52.5523 49.4284 49.3721 52.6086L43.6446 46.8714L50.8833 39.6325C51.701 38.8377 51.1149 37.453 49.9751 37.4865C49.6504 37.496 49.3421 37.632 49.1157 37.8649L41.877 45.1037L40.8833 44.1101C40.6424 43.8729 40.3156 43.7434 39.9776 43.7509C39.653 43.7534 39.3422 43.8824 39.1109 44.1101L35.3657 47.865C34.881 48.3526 34.881 49.14 35.3657 49.6276L46.6133 60.885C47.102 61.3762 47.897 61.3762 48.3858 60.885L52.1309 57.13C52.6156 56.6424 52.6156 55.855 52.1309 55.3674L51.1397 54.3762L56.3423 49.1736L74.3086 63.5583C75.5702 64.5684 75.4594 66.6898 74.2061 67.943C72.9534 69.1958 70.8136 69.3208 69.8188 68.058L57.8681 53.1478ZM55.0019 31.7637L64.477 41.2486L62.4946 43.2237C59.3539 40.0637 56.1833 36.9139 53.0171 33.7486L55.0019 31.7637ZM11.2544 37.4936H43.7519C45.466 37.6439 45.6112 35.0397 43.8911 34.9985C43.8448 34.9975 43.7982 34.9992 43.7519 35.0032H11.1897C9.58772 35.1965 9.70538 37.4607 11.2544 37.4935L11.2544 37.4936ZM11.2544 42.4961C9.55133 42.4583 9.55133 45.0328 11.2544 44.996H21.247C22.9501 45.0338 22.9501 42.4594 21.247 42.4961H11.2544ZM26.2495 42.4961C24.5464 42.4583 24.5464 45.0328 26.2495 44.996H31.2495C32.9525 45.0338 32.9525 42.4594 31.2495 42.4961H26.2495ZM39.997 46.7686C43.221 50.02 46.6526 53.4126 49.4843 56.2436L47.4995 58.2285L38.022 48.7412L39.997 46.7686ZM11.2544 49.9986C9.55136 49.9608 9.55136 52.5354 11.2544 52.4986H30.0044C31.7074 52.5364 31.7074 49.9618 30.0044 49.9986H11.2544ZM11.2544 59.9986H16.5596C18.2626 60.0364 18.2626 57.4618 16.5596 57.4985H11.1897C9.49538 57.6181 9.62118 60.0481 11.2544 59.9986H11.2544ZM21.2471 59.9986H36.2519C37.955 60.0364 37.955 57.4618 36.2519 57.4985H21.1872C19.4985 57.6124 19.6148 60.0409 21.2471 59.9986H21.2471ZM27.5019 67.501C29.205 67.5388 29.205 64.9642 27.5019 65.001H11.1897C9.49538 65.1205 9.62118 67.5506 11.2544 67.501H27.5019ZM33.7495 66.2461V70.0035C31.6936 70.0035 30.0044 71.6926 30.0044 73.7485V76.2485C30.0069 76.935 30.563 77.4909 31.2495 77.4937H56.2471C56.9374 77.4962 57.4992 76.9389 57.5019 76.2485V73.7485C57.5019 71.6926 55.8005 70.0035 53.7446 70.0035V66.2461C53.7421 65.5595 53.186 65.0037 52.4995 65.001H34.9348C34.2356 65.0652 33.7489 65.6035 33.7495 66.2461ZM36.2495 67.501H51.2446V70.0035H48.7544C47.0499 69.9657 47.0499 72.5417 48.7544 72.5035H53.7446C54.4588 72.5035 54.9995 73.0345 54.9995 73.7485V74.9936H32.4946V73.7485C32.4946 73.0345 33.0354 72.5035 33.7495 72.5035H43.7519C45.4564 72.5413 45.4564 69.9652 43.7519 70.0035H36.2495V67.501Z" fill="#FFFDFD"/>
</svg>
