<svg width="74" height="74" viewBox="0 0 74 74" fill="none" xmlns="http://www.w3.org/2000/svg">
<path d="M71.7598 62.2544H69.2111V22.6334C69.2111 19.3952 66.5766 16.7607 63.3384 16.7607H54.8447V8.18524C54.8447 6.3124 53.321 4.78875 51.4482 4.78875H50.0558V3.47843C50.0559 1.56036 48.4956 0 46.5777 0H22.6336C20.7157 0 19.1553 1.56036 19.1553 3.47843V16.7607H10.6616C7.42341 16.7607 4.7889 19.3952 4.7889 22.6334V62.2544H2.24023C1.00493 62.2544 0 63.2593 0 64.4946V68.291C0 71.4389 2.56109 74 5.70898 74H61.1707C61.7693 74 62.2547 73.5147 62.2547 72.916C62.2547 72.3174 61.7693 71.832 61.1707 71.832H18.9288V70.5216C18.9288 69.9229 18.4436 69.4376 17.8448 69.4376C17.246 69.4376 16.7609 69.9229 16.7609 70.5216V71.832H14.1399V70.5216C14.1399 69.9229 13.6547 69.4376 13.0559 69.4376C12.4571 69.4376 11.972 69.9229 11.972 70.5216V71.832H9.35117V70.5216C9.35117 69.9229 8.86598 69.4376 8.26719 69.4376C7.66839 69.4376 7.1832 69.9229 7.1832 70.5216V71.832H5.70898C3.75637 71.832 2.16797 70.2435 2.16797 68.291V64.4946C2.16797 64.4547 2.20049 64.4223 2.24023 64.4223H28.7328V66.93C28.7328 68.1878 29.7561 69.2113 31.0139 69.2113H42.986C44.2439 69.2113 45.2672 68.1878 45.2672 66.93V64.4223H71.7598C71.7995 64.4223 71.832 64.4547 71.832 64.4946V68.291C71.832 70.2435 70.2436 71.832 68.291 71.832H65.5065C64.9077 71.832 64.4225 72.3174 64.4225 72.916C64.4225 73.5147 64.9077 74 65.5065 74H68.291C71.4389 74 74 71.4389 74 68.291V64.4946C74 63.2593 72.9951 62.2544 71.7598 62.2544ZM63.3384 18.9287C65.3812 18.9287 67.0431 20.5906 67.0431 22.6334V62.2544H64.4226V23.8309C64.4226 22.573 63.3994 21.5498 62.1415 21.5498H54.8448V18.9287H63.3384ZM52.6769 8.18524V39.4763C52.6769 40.1537 52.1256 40.7048 51.4484 40.7048H27.3405C26.6631 40.7048 26.112 40.1537 26.112 39.4763V8.18524C26.112 7.50782 26.6631 6.95672 27.3405 6.95672H48.6937C48.7826 6.98028 48.8757 6.99416 48.972 6.99416C49.0682 6.99416 49.1613 6.98028 49.2502 6.95672H51.4482C52.1256 6.95672 52.6769 7.50782 52.6769 8.18524ZM21.3231 3.47843C21.3231 2.75578 21.9109 2.16797 22.6334 2.16797H46.5775C47.3 2.16797 47.8878 2.75578 47.8878 3.47843V4.78875H27.3405C25.4677 4.78875 23.9441 6.3124 23.9441 8.18524V35.916H22.6336C21.9111 35.916 21.3233 35.3282 21.3233 34.6055V3.47843H21.3231ZM6.95687 22.6334C6.95687 20.5906 8.61883 18.9287 10.6616 18.9287H19.1553V21.5498H11.8586C10.6008 21.5498 9.57751 22.573 9.57751 23.8309V31.2403C9.57751 31.8389 10.0627 32.3243 10.6615 32.3243C11.2603 32.3243 11.7455 31.8389 11.7455 31.2403V23.8309C11.7455 23.7685 11.7964 23.7177 11.8586 23.7177H19.1552V34.6055C19.1552 36.5235 20.7155 38.084 22.6334 38.084H23.9439V39.4763C23.9439 41.3491 25.4676 42.8727 27.3404 42.8727H51.4482C53.321 42.8727 54.8447 41.3491 54.8447 39.4763V23.7177H62.1414C62.2038 23.7177 62.2545 23.7686 62.2545 23.8309V62.2544H11.7455V35.5762C11.7455 34.9776 11.2603 34.4922 10.6615 34.4922C10.0627 34.4922 9.57751 34.9776 9.57751 35.5762V62.2545H6.95687V22.6334ZM43.0992 66.93C43.0992 66.9924 43.0483 67.0433 42.986 67.0433H31.0139C30.9515 67.0433 30.9008 66.9924 30.9008 66.93V64.4223H43.0992V66.93Z" fill="#FFFDFD"/>
<path d="M35.7619 16.5344H43.0269C44.2622 16.5344 45.2671 15.5294 45.2671 14.2941V11.8179C45.2671 10.5826 44.2622 9.57764 43.0269 9.57764H35.7617C34.5264 9.57764 33.5215 10.5826 33.5215 11.8179V14.2941C33.5216 15.5294 34.5266 16.5344 35.7619 16.5344ZM35.6896 11.8179C35.6896 11.778 35.7221 11.7456 35.7619 11.7456H43.0269C43.0666 11.7456 43.0991 11.778 43.0991 11.8179V14.2941C43.0991 14.334 43.0666 14.3664 43.0269 14.3664H35.7617C35.722 14.3664 35.6895 14.334 35.6895 14.2941V11.8179H35.6896Z" fill="#FFFDFD"/>
<path d="M48.9716 19.1553H29.8164C29.2176 19.1553 28.7324 19.6406 28.7324 20.2393C28.7324 20.8379 29.2176 21.3232 29.8164 21.3232H48.9716C49.5704 21.3232 50.0556 20.8379 50.0556 20.2393C50.0556 19.6406 49.5704 19.1553 48.9716 19.1553Z" fill="#FFFDFD"/>
<path d="M48.9716 23.9441H29.8164C29.2176 23.9441 28.7324 24.4294 28.7324 25.0281C28.7324 25.6267 29.2176 26.1121 29.8164 26.1121H48.9716C49.5704 26.1121 50.0556 25.6267 50.0556 25.0281C50.0556 24.4293 49.5704 23.9441 48.9716 23.9441Z" fill="#FFFDFD"/>
<path d="M46.5772 28.7329H32.2109C31.6121 28.7329 31.127 29.2182 31.127 29.8169C31.127 30.4155 31.6121 30.9009 32.2109 30.9009H46.5772C47.176 30.9009 47.6612 30.4155 47.6612 29.8169C47.6612 29.2182 47.1758 28.7329 46.5772 28.7329Z" fill="#FFFDFD"/>
<path d="M35.2869 58.8313C35.7117 59.3412 36.3361 59.6336 36.9998 59.6336C37.6634 59.6336 38.2877 59.3412 38.7126 58.8313L42.2526 54.5833C42.8125 53.9115 42.9297 53.0023 42.559 52.2102C42.1881 51.4182 41.4143 50.9262 40.5398 50.9262C40.5058 50.9262 40.478 50.8986 40.478 50.8646V48.3671C40.478 47.1378 39.4779 46.1375 38.2484 46.1375H35.751C34.5215 46.1375 33.5213 47.1376 33.5213 48.3671V50.8646C33.5213 50.8986 33.4937 50.9262 33.4596 50.9262C32.585 50.9262 31.8114 51.4182 31.4404 52.2102C31.0696 53.0021 31.1869 53.9115 31.7468 54.5831L35.2869 58.8313ZM33.404 53.1299C33.4204 53.0943 33.4386 53.0943 33.4598 53.0943C34.6891 53.0943 35.6894 52.0942 35.6894 50.8648V48.3673C35.6894 48.3333 35.717 48.3056 35.7511 48.3056H38.2485C38.2825 48.3056 38.3102 48.3332 38.3102 48.3673V50.8648C38.3102 52.0942 39.3105 53.0943 40.5399 53.0943C40.561 53.0943 40.5791 53.0943 40.5957 53.1299C40.6123 53.1653 40.6008 53.1793 40.5872 53.1955L37.0472 57.4436C37.0412 57.4508 37.0287 57.4657 36.9999 57.4657C36.9711 57.4657 36.9586 57.4508 36.9526 57.4436L33.4126 53.1955C33.3989 53.1792 33.3873 53.1653 33.404 53.1299Z" fill="#FFFDFD"/>
</svg>
