<svg width="74" height="74" viewBox="0 0 74 74" fill="none" xmlns="http://www.w3.org/2000/svg">
<g clip-path="url(#clip0_447_57360)">
<path d="M3.69427 66.5536H7.38854V70.2478C7.38854 72.2881 9.04254 73.9421 11.0828 73.9421H55.4152C57.4561 73.9421 59.1101 72.2881 59.1101 70.2478V36.9163L66.9617 29.6269L68.6363 31.431L61.9659 37.6252C61.4673 38.0883 61.4392 38.8677 61.9023 39.3663C62.3653 39.8644 63.1448 39.8924 63.6428 39.4294L70.3161 33.2375C70.7958 32.7933 71.0789 32.1766 71.103 31.5233C71.1276 30.8705 70.8915 30.2344 70.4468 29.7553L68.7716 27.9511L72.3799 24.6001C73.6952 23.4092 74.2688 21.6033 73.8808 19.8714C73.4929 18.14 72.2034 16.7514 70.5058 16.2356C68.8077 15.7198 66.964 16.1571 65.6785 17.3801L61.1664 21.5672L59.1101 23.4734V11.1377C59.1101 9.09747 57.4561 7.44348 55.4152 7.44348H51.7209V3.7492C51.7209 1.70893 50.067 0.0549316 48.0267 0.0549316H13.546C13.5203 0.0549316 13.4968 0.0686863 13.4698 0.0698324C13.3609 0.0767099 13.2538 0.0984881 13.1506 0.133448C13.1111 0.147202 13.0744 0.156945 13.036 0.174139C12.9024 0.234315 12.7798 0.317416 12.6755 0.420576L0.36106 12.735C0.2579 12.8399 0.174226 12.962 0.114622 13.0961C0.0974287 13.1327 0.0876859 13.1723 0.0739312 13.2107C0.0383985 13.3133 0.0171934 13.421 0.00974287 13.5293C0.0137547 13.5517 0 13.5752 0 13.601V62.8593C0 64.8996 1.654 66.5536 3.69427 66.5536ZM56.6468 70.2478C56.6468 70.9281 56.0955 71.4794 55.4152 71.4794H11.0828C10.4031 71.4794 9.85177 70.9281 9.85177 70.2478V66.5536H48.0267C50.067 66.5536 51.7209 64.8996 51.7209 62.8593V43.7718L56.6468 39.199V70.2478ZM33.7419 55.3842C32.4398 56.4576 30.956 57.2892 29.3605 57.8383C30.0012 56.2725 30.9331 54.8415 32.1062 53.6219L32.1767 53.697L33.7419 55.3842ZM35.6653 53.8362L34.8033 52.9078L33.7923 51.8189L38.5812 46.1113L41.7093 49.4829L35.6653 53.8362ZM43.6258 47.9252L41.5901 45.7422L40.2748 44.3243L61.9349 24.211L63.9718 26.4083L65.2871 27.8256L49.6537 42.3345C49.6365 42.3505 49.6188 42.3654 49.6027 42.3826L43.6258 47.9252ZM67.3497 19.1842C67.8254 18.7349 68.4627 18.4976 69.1166 18.5269C70.1121 18.5641 70.9866 19.1974 71.3334 20.131C71.6795 21.0646 71.4302 22.1145 70.7001 22.7925L67.0906 26.1447L65.0555 23.9502L63.7402 22.5341L67.3497 19.1842ZM55.4152 9.90671C56.0955 9.90671 56.6468 10.458 56.6468 11.1377V25.7601L51.7209 30.3329V9.90671H55.4152ZM49.2583 3.7492V32.6197L37.6964 43.3529C37.6792 43.3741 37.6637 43.3964 37.6494 43.4194C37.6322 43.4366 37.6075 43.4451 37.5915 43.4635L35.7839 45.619H8.62016C7.93988 45.619 7.38854 46.1703 7.38854 46.85C7.38854 47.5303 7.93988 48.0816 8.62016 48.0816H33.7161L31.2603 51.0073L31.0953 51.1615C29.4126 52.7106 28.0778 54.5996 27.1792 56.7029H16.0087C15.329 56.7029 14.7777 57.2543 14.7777 57.9345C14.7777 58.6148 15.329 59.1661 16.0087 59.1661H27.2594C27.3294 59.2968 27.4119 59.4206 27.5059 59.5352C27.9615 60.0224 28.5999 60.2963 29.267 60.29C29.5404 60.2906 29.8121 60.2488 30.0734 60.1674C32.3286 59.4298 34.3935 58.2045 36.1209 56.5786L36.2859 56.4273L44.2808 50.6675C44.3003 50.6532 44.3089 50.6297 44.3272 50.6148C44.3462 50.5999 44.3794 50.589 44.4 50.5689L49.2583 46.062V62.8593C49.2583 63.539 48.707 64.0903 48.0267 64.0903H3.69427C3.01399 64.0903 2.46266 63.539 2.46266 62.8593V14.8326H11.0828C13.1237 14.8326 14.7777 13.1786 14.7777 11.1377V2.51759H48.0267C48.707 2.51759 49.2583 3.06892 49.2583 3.7492ZM12.3144 4.25927V11.1377C12.3144 11.818 11.7631 12.3694 11.0828 12.3694H4.20434L12.3144 4.25927Z" fill="#FFFDFD"/>
<path fill-rule="evenodd" clip-rule="evenodd" d="M8.62029 59.1649H11.0829C11.7632 59.1649 12.3146 58.6136 12.3146 57.9333C12.3146 57.253 11.7632 56.7017 11.0829 56.7017H8.62029C7.94 56.7017 7.38867 57.253 7.38867 57.9333C7.38867 58.6136 7.94 59.1649 8.62029 59.1649Z" fill="#FFFDFD"/>
<path fill-rule="evenodd" clip-rule="evenodd" d="M7.38867 22.2211C7.38867 22.9014 7.94 23.4527 8.62029 23.4527H43.1009C43.7812 23.4527 44.3325 22.9014 44.3325 22.2211C44.3325 21.5408 43.7812 20.9895 43.1009 20.9895H8.62029C7.94 20.9895 7.38867 21.5408 7.38867 22.2211Z" fill="#FFFDFD"/>
<path fill-rule="evenodd" clip-rule="evenodd" d="M43.1005 27.147H36.9435C36.2632 27.147 35.7119 27.6983 35.7119 28.3786C35.7119 29.0583 36.2632 29.6096 36.9435 29.6096H43.1005C43.7807 29.6096 44.3321 29.0583 44.3321 28.3786C44.3321 27.6983 43.7807 27.147 43.1005 27.147Z" fill="#FFFDFD"/>
<path fill-rule="evenodd" clip-rule="evenodd" d="M8.62029 29.6096H30.7865C31.4668 29.6096 32.0181 29.0583 32.0181 28.3786C32.0181 27.6983 31.4668 27.147 30.7865 27.147H8.62029C7.94 27.147 7.38867 27.6983 7.38867 28.3786C7.38867 29.0583 7.94 29.6096 8.62029 29.6096Z" fill="#FFFDFD"/>
<path fill-rule="evenodd" clip-rule="evenodd" d="M14.7778 33.304H8.62029C7.94 33.304 7.38867 33.8553 7.38867 34.5356C7.38867 35.2159 7.94 35.7672 8.62029 35.7672H14.7778C15.4575 35.7672 16.0088 35.2159 16.0088 34.5356C16.0088 33.8553 15.4575 33.304 14.7778 33.304Z" fill="#FFFDFD"/>
<path fill-rule="evenodd" clip-rule="evenodd" d="M41.8703 33.304H20.9351C20.2554 33.304 19.7041 33.8553 19.7041 34.5356C19.7041 35.2159 20.2554 35.7672 20.9351 35.7672H41.8703C42.55 35.7672 43.1014 35.2159 43.1014 34.5356C43.1014 33.8553 42.55 33.304 41.8703 33.304Z" fill="#FFFDFD"/>
<path fill-rule="evenodd" clip-rule="evenodd" d="M12.3146 39.4614H8.62029C7.94 39.4614 7.38867 40.0128 7.38867 40.693C7.38867 41.3728 7.94 41.9241 8.62029 41.9241H12.3146C12.9948 41.9241 13.5462 41.3728 13.5462 40.693C13.5462 40.0128 12.9948 39.4614 12.3146 39.4614Z" fill="#FFFDFD"/>
<path fill-rule="evenodd" clip-rule="evenodd" d="M34.4806 39.4614H18.4718C17.7916 39.4614 17.2402 40.0128 17.2402 40.693C17.2402 41.3728 17.7916 41.9241 18.4718 41.9241H34.4806C35.1608 41.9241 35.7122 41.3728 35.7122 40.693C35.7122 40.0128 35.1608 39.4614 34.4806 39.4614Z" fill="#FFFDFD"/>
<path fill-rule="evenodd" clip-rule="evenodd" d="M23.3976 11.1377H33.2488C33.9291 11.1377 34.4804 10.5864 34.4804 9.90666C34.4804 9.22638 33.9291 8.67505 33.2488 8.67505H23.3976C22.7173 8.67505 22.166 9.22638 22.166 9.90666C22.166 10.5864 22.7173 11.1377 23.3976 11.1377Z" fill="#FFFDFD"/>
</g>
<defs>
<clipPath id="clip0_447_57360">
<rect width="74" height="74" fill="white"/>
</clipPath>
</defs>
</svg>
