<svg width="213" height="16" viewBox="0 0 213 16" fill="none" xmlns="http://www.w3.org/2000/svg">
<path d="M212.354 8.35355C212.549 8.15829 212.549 7.84171 212.354 7.64645L209.172 4.46447C208.976 4.2692 208.66 4.2692 208.464 4.46447C208.269 4.65973 208.269 4.97631 208.464 5.17157L211.293 8L208.464 10.8284C208.269 11.0237 208.269 11.3403 208.464 11.5355C208.66 11.7308 208.976 11.7308 209.172 11.5355L212.354 8.35355ZM0 8.5H2.03846V7.5H0V8.5ZM6.11538 8.5H10.1923V7.5H6.11538V8.5ZM14.2692 8.5H18.3462V7.5H14.2692V8.5ZM22.4231 8.5H26.5V7.5H22.4231V8.5ZM30.5769 8.5H34.6538V7.5H30.5769V8.5ZM38.7308 8.5H42.8077V7.5H38.7308V8.5ZM46.8846 8.5H50.9615V7.5H46.8846V8.5ZM55.0385 8.5H59.1154V7.5H55.0385V8.5ZM63.1923 8.5H67.2692V7.5H63.1923V8.5ZM71.3462 8.5H75.4231V7.5H71.3462V8.5ZM79.5 8.5H83.5769V7.5H79.5V8.5ZM87.6538 8.5H91.7308V7.5H87.6538V8.5ZM95.8077 8.5H99.8846V7.5H95.8077V8.5ZM103.962 8.5H108.038V7.5H103.962V8.5ZM112.115 8.5H116.192V7.5H112.115V8.5ZM120.269 8.5H124.346V7.5H120.269V8.5ZM128.423 8.5H132.5V7.5H128.423V8.5ZM136.577 8.5H140.654V7.5H136.577V8.5ZM144.731 8.5H148.808V7.5H144.731V8.5ZM152.885 8.5H156.961V7.5H152.885V8.5ZM161.038 8.5H165.115V7.5H161.038V8.5ZM169.192 8.5H173.269V7.5H169.192V8.5ZM177.346 8.5H181.423V7.5H177.346V8.5ZM185.5 8.5H189.577V7.5H185.5V8.5ZM193.654 8.5H197.731V7.5H193.654V8.5ZM201.808 8.5H205.885V7.5H201.808V8.5ZM209.961 8.5H212V7.5H209.961V8.5ZM212.707 8.70711C213.098 8.31658 213.098 7.68342 212.707 7.29289L206.343 0.928932C205.953 0.538408 205.319 0.538408 204.929 0.928932C204.538 1.31946 204.538 1.95262 204.929 2.34315L210.586 8L204.929 13.6569C204.538 14.0474 204.538 14.6805 204.929 15.0711C205.319 15.4616 205.953 15.4616 206.343 15.0711L212.707 8.70711ZM0 9H2.03846V7H0V9ZM6.11538 9H10.1923V7H6.11538V9ZM14.2692 9H18.3462V7H14.2692V9ZM22.4231 9H26.5V7H22.4231V9ZM30.5769 9H34.6538V7H30.5769V9ZM38.7308 9H42.8077V7H38.7308V9ZM46.8846 9H50.9615V7H46.8846V9ZM55.0385 9H59.1154V7H55.0385V9ZM63.1923 9H67.2692V7H63.1923V9ZM71.3462 9H75.4231V7H71.3462V9ZM79.5 9H83.5769V7H79.5V9ZM87.6538 9H91.7308V7H87.6538V9ZM95.8077 9H99.8846V7H95.8077V9ZM103.962 9H108.038V7H103.962V9ZM112.115 9H116.192V7H112.115V9ZM120.269 9H124.346V7H120.269V9ZM128.423 9H132.5V7H128.423V9ZM136.577 9H140.654V7H136.577V9ZM144.731 9H148.808V7H144.731V9ZM152.885 9H156.961V7H152.885V9ZM161.038 9H165.115V7H161.038V9ZM169.192 9H173.269V7H169.192V9ZM177.346 9H181.423V7H177.346V9ZM185.5 9H189.577V7H185.5V9ZM193.654 9H197.731V7H193.654V9ZM201.808 9H205.885V7H201.808V9ZM209.961 9H212V7H209.961V9Z" fill="#FE8D39"/>
</svg>
