<svg width="24" height="24" viewBox="0 0 24 24" fill="none" xmlns="http://www.w3.org/2000/svg">
<path fill-rule="evenodd" clip-rule="evenodd" d="M7 3.99542H4V6.99195H7V3.99542ZM4 2.99658C3.73478 2.99658 3.48043 3.10182 3.29289 3.28914C3.10536 3.47646 3 3.73051 3 3.99542V6.99195C3 7.25686 3.10536 7.51092 3.29289 7.69824C3.48043 7.88556 3.73478 7.99079 4 7.99079H7C7.26522 7.99079 7.51957 7.88556 7.70711 7.69824C7.89464 7.51092 8 7.25686 8 6.99195V3.99542C8 3.73051 7.89464 3.47646 7.70711 3.28914C7.51957 3.10182 7.26522 2.99658 7 2.99658H4ZM7 10.4879H4V13.4844H7V10.4879ZM4 9.48906C3.73478 9.48906 3.48043 9.59429 3.29289 9.78161C3.10536 9.96893 3 10.223 3 10.4879V13.4844C3 13.7493 3.10536 14.0034 3.29289 14.1907C3.48043 14.378 3.73478 14.4833 4 14.4833H7C7.26522 14.4833 7.51957 14.378 7.70711 14.1907C7.89464 14.0034 8 13.7493 8 13.4844V10.4879C8 10.223 7.89464 9.96893 7.70711 9.78161C7.51957 9.59429 7.26522 9.48906 7 9.48906H4ZM7 16.9804H4V19.9769H7V16.9804ZM4 15.9815C3.73478 15.9815 3.48043 16.0868 3.29289 16.2741C3.10536 16.4614 3 16.7155 3 16.9804V19.9769C3 20.2418 3.10536 20.4959 3.29289 20.6832C3.48043 20.8705 3.73478 20.9757 4 20.9757H7C7.26522 20.9757 7.51957 20.8705 7.70711 20.6832C7.89464 20.4959 8 20.2418 8 19.9769V16.9804C8 16.7155 7.89464 16.4614 7.70711 16.2741C7.51957 16.0868 7.26522 15.9815 7 15.9815H4ZM13.5 3.99542H10.5V6.99195H13.5V3.99542ZM10.5 2.99658C10.2348 2.99658 9.98043 3.10182 9.79289 3.28914C9.60536 3.47646 9.5 3.73051 9.5 3.99542V6.99195C9.5 7.25686 9.60536 7.51092 9.79289 7.69824C9.98043 7.88556 10.2348 7.99079 10.5 7.99079H13.5C13.7652 7.99079 14.0196 7.88556 14.2071 7.69824C14.3946 7.51092 14.5 7.25686 14.5 6.99195V3.99542C14.5 3.73051 14.3946 3.47646 14.2071 3.28914C14.0196 3.10182 13.7652 2.99658 13.5 2.99658H10.5ZM13.5 10.4879H10.5V13.4844H13.5V10.4879ZM10.5 9.48906C10.2348 9.48906 9.98043 9.59429 9.79289 9.78161C9.60536 9.96893 9.5 10.223 9.5 10.4879V13.4844C9.5 13.7493 9.60536 14.0034 9.79289 14.1907C9.98043 14.378 10.2348 14.4833 10.5 14.4833H13.5C13.7652 14.4833 14.0196 14.378 14.2071 14.1907C14.3946 14.0034 14.5 13.7493 14.5 13.4844V10.4879C14.5 10.223 14.3946 9.96893 14.2071 9.78161C14.0196 9.59429 13.7652 9.48906 13.5 9.48906H10.5ZM13.5 16.9804H10.5V19.9769H13.5V16.9804ZM10.5 15.9815C10.2348 15.9815 9.98043 16.0868 9.79289 16.2741C9.60536 16.4614 9.5 16.7155 9.5 16.9804V19.9769C9.5 20.2418 9.60536 20.4959 9.79289 20.6832C9.98043 20.8705 10.2348 20.9757 10.5 20.9757H13.5C13.7652 20.9757 14.0196 20.8705 14.2071 20.6832C14.3946 20.4959 14.5 20.2418 14.5 19.9769V16.9804C14.5 16.7155 14.3946 16.4614 14.2071 16.2741C14.0196 16.0868 13.7652 15.9815 13.5 15.9815H10.5ZM20 3.99542H17V6.99195H20V3.99542ZM17 2.99658C16.7348 2.99658 16.4804 3.10182 16.2929 3.28914C16.1054 3.47646 16 3.73051 16 3.99542V6.99195C16 7.25686 16.1054 7.51092 16.2929 7.69824C16.4804 7.88556 16.7348 7.99079 17 7.99079H20C20.2652 7.99079 20.5196 7.88556 20.7071 7.69824C20.8946 7.51092 21 7.25686 21 6.99195V3.99542C21 3.73051 20.8946 3.47646 20.7071 3.28914C20.5196 3.10182 20.2652 2.99658 20 2.99658H17ZM20 10.4879H17V13.4844H20V10.4879ZM17 9.48906C16.7348 9.48906 16.4804 9.59429 16.2929 9.78161C16.1054 9.96893 16 10.223 16 10.4879V13.4844C16 13.7493 16.1054 14.0034 16.2929 14.1907C16.4804 14.378 16.7348 14.4833 17 14.4833H20C20.2652 14.4833 20.5196 14.378 20.7071 14.1907C20.8946 14.0034 21 13.7493 21 13.4844V10.4879C21 10.223 20.8946 9.96893 20.7071 9.78161C20.5196 9.59429 20.2652 9.48906 20 9.48906H17ZM20 16.9804H17V19.9769H20V16.9804ZM17 15.9815C16.7348 15.9815 16.4804 16.0868 16.2929 16.2741C16.1054 16.4614 16 16.7155 16 16.9804V19.9769C16 20.2418 16.1054 20.4959 16.2929 20.6832C16.4804 20.8705 16.7348 20.9757 17 20.9757H20C20.2652 20.9757 20.5196 20.8705 20.7071 20.6832C20.8946 20.4959 21 20.2418 21 19.9769V16.9804C21 16.7155 20.8946 16.4614 20.7071 16.2741C20.5196 16.0868 20.2652 15.9815 20 15.9815H17Z" fill="#ED7014"/>
</svg>
