<svg width="79" height="84" viewBox="0 0 79 84" fill="none" xmlns="http://www.w3.org/2000/svg">
<path d="M73.5976 39.1214H71.6193V17.8561C71.6193 17.1651 71.0489 16.6073 70.353 16.628C69.6805 16.6481 69.162 17.2347 69.162 17.9075V39.1212H60.9273C60.2486 39.1212 59.6987 39.6713 59.6987 40.3499C59.6987 41.0284 60.2486 41.5785 60.9273 41.5785H73.5976C75.1853 41.5785 76.4771 42.8703 76.4771 44.4581C76.4771 46.0458 75.1853 47.3376 73.5976 47.3376H48.4963V41.5785H55.1937C55.8724 41.5785 56.4223 41.0284 56.4223 40.3499C56.4223 39.6713 55.8724 39.1212 55.1937 39.1212H48.2013C47.3127 39.1212 46.5482 39.6603 46.2162 40.4283H37.5248C37.2272 39.6646 36.4856 39.1212 35.6178 39.1212H32.0274C31.1597 39.1212 30.4181 39.6648 30.1204 40.4283H24.854V39.3737C24.854 38.3339 24.2958 37.4244 23.465 36.9218V33.7934C25.6232 33.1439 27.1999 31.1391 27.1999 28.7721C27.1999 25.8808 24.8478 23.5286 21.9564 23.5286H17.8128V2.45726H69.1619V12.1225C69.1619 12.8135 69.7323 13.3713 70.4282 13.3506C71.1007 13.3305 71.6191 12.7438 71.6191 12.071V2.04772C71.6191 0.916722 70.7024 0 69.5714 0H17.4033C16.2723 0 15.3556 0.916722 15.3556 2.04772V23.5288H11.6859C8.7947 23.5288 6.44245 25.881 6.44245 28.7722C6.44245 31.1391 8.01919 33.1437 10.1772 33.7934V36.9218C9.34644 37.4244 8.78815 38.3339 8.78815 39.3737V49.5423C8.78815 50.5821 9.34644 51.4916 10.1772 51.9942V55.1226C8.01919 55.7723 6.44245 57.7769 6.44245 60.1439C6.44245 63.0351 8.79453 65.3874 11.6859 65.3874H15.3556V69.6527H5.75277C4.1721 69.6527 2.88597 70.9388 2.88597 72.5195V74.5546H2.8668C1.28613 74.5546 0 75.8407 0 77.4214V81.8268C0 82.956 0.918524 83.8745 2.04772 83.8745H69.5714C70.7024 83.8745 71.6191 82.9578 71.6191 81.8268V49.7951H73.5974C76.5402 49.7951 78.9342 47.401 78.9342 44.4582C78.9342 41.5154 76.5404 39.1214 73.5976 39.1214ZM37.6655 42.8857H46.0391V46.0305H37.6655V42.8857ZM32.437 41.5786H35.2083V47.3378H32.437V41.5786ZM24.854 42.8857H29.9797V46.0305H24.854V42.8857ZM8.89971 28.7722C8.89971 27.2359 10.1496 25.986 11.6859 25.986H21.9564C23.4927 25.986 24.7426 27.2359 24.7426 28.7722C24.7426 30.3085 23.4927 31.5584 21.9564 31.5584H11.6859C10.1496 31.5586 8.89971 30.3087 8.89971 28.7722ZM11.6551 49.952C11.4292 49.952 11.2456 49.7682 11.2456 49.5425V39.3738C11.2456 39.1481 11.4292 38.9643 11.6551 38.9643H21.9872C22.2131 38.9643 22.3968 39.1481 22.3968 39.3738V49.5425C22.3968 49.7682 22.2131 49.952 21.9872 49.952H11.6551ZM21.0078 52.4093V54.9006H12.6344V52.4093H21.0078ZM12.6344 36.507V34.0157H21.0078V36.507H12.6344ZM11.6859 62.9303C10.1496 62.9303 8.89971 61.6803 8.89971 60.1441C8.89971 58.6078 10.1496 57.3579 11.6859 57.3579H21.9564C23.4927 57.3579 24.7426 58.6078 24.7426 60.1441C24.7426 61.6803 23.4927 62.9303 21.9564 62.9303H11.6859ZM31.1851 81.4172H2.45726V77.4214C2.45726 77.1957 2.6409 77.0118 2.8668 77.0118H10.4715C11.1502 77.0118 11.7002 76.4618 11.7002 75.7832C11.7002 75.1047 11.1502 74.5546 10.4715 74.5546H5.34323V72.5195C5.34323 72.2937 5.52687 72.1099 5.75277 72.1099H27.8894C28.1153 72.1099 28.299 72.2937 28.299 72.5195V74.5546H16.2051C15.5264 74.5546 14.9765 75.1047 14.9765 75.7832C14.9765 76.4618 15.5264 77.0118 16.2051 77.0118H30.7755C31.0015 77.0118 31.1851 77.1957 31.1851 77.4214V81.4172ZM69.162 81.4172H33.6423V77.4214C33.6423 75.8407 32.3562 74.5546 30.7755 74.5546H30.7562V72.5195C30.7562 70.9388 29.4701 69.6527 27.8894 69.6527H17.8128V65.3874H21.9564C24.8477 65.3874 27.1999 63.0353 27.1999 60.1439C27.1999 57.7769 25.6232 55.7723 23.465 55.1226V51.9942C24.2958 51.4916 24.854 50.5821 24.854 49.5423V48.4876H30.1204C30.4181 49.2514 31.1597 49.7947 32.0274 49.7947H35.6178C36.4856 49.7947 37.2272 49.2512 37.5248 48.4876H46.2162C46.5482 49.2556 47.3127 49.7947 48.2013 49.7947H69.1619V81.4172H69.162Z" fill="#008080"/>
<path d="M30.7637 20.3585C30.7637 27.3743 36.4714 33.0821 43.4872 33.0821C50.503 33.0821 56.2107 27.3743 56.2107 20.3585C56.2107 13.3427 50.503 7.63501 43.4872 7.63501C36.4714 7.63501 30.7637 13.3427 30.7637 20.3585ZM53.7535 20.3585C53.7535 26.0194 49.1481 30.6248 43.4872 30.6248C37.8263 30.6248 33.2209 26.0194 33.2209 20.3585C33.2209 14.6977 37.8263 10.0923 43.4872 10.0923C49.1481 10.0923 53.7535 14.6977 53.7535 20.3585Z" fill="#ED7014"/>
<path d="M39.9832 19.0101C39.5032 18.5303 38.7254 18.5303 38.2456 19.0101C37.7658 19.4899 37.7658 20.2679 38.2456 20.7475L42.0247 24.5266C42.2647 24.7665 42.5792 24.8865 42.8936 24.8865C43.208 24.8865 43.5225 24.7666 43.7625 24.5266L49.6203 18.6688C50.1001 18.189 50.1001 17.4111 49.6203 16.9314C49.1403 16.4516 48.3625 16.4516 47.8827 16.9314L42.8938 21.9205L39.9832 19.0101Z" fill="#ED7014"/>
<path d="M37.4492 54.8082C37.4492 55.4868 37.9992 56.0369 38.6778 56.0369H61.2732C61.9519 56.0369 62.5018 55.4868 62.5018 54.8082C62.5018 54.1297 61.9519 53.5796 61.2732 53.5796H38.6778C37.9992 53.5796 37.4492 54.1297 37.4492 54.8082Z" fill="#ED7014"/>
<path d="M61.2732 59.5552H49.6241C48.9454 59.5552 48.3955 60.1053 48.3955 60.7838C48.3955 61.4623 48.9454 62.0124 49.6241 62.0124H61.2732C61.9519 62.0124 62.5018 61.4623 62.5018 60.7838C62.5018 60.1053 61.9519 59.5552 61.2732 59.5552Z" fill="#ED7014"/>
<path d="M38.6778 62.0124H45.3647C46.0434 62.0124 46.5933 61.4623 46.5933 60.7838C46.5933 60.1053 46.0434 59.5552 45.3647 59.5552H38.6778C37.9992 59.5552 37.4492 60.1053 37.4492 60.7838C37.4492 61.4623 37.9992 62.0124 38.6778 62.0124Z" fill="#ED7014"/>
<path d="M61.2732 65.5308H38.6778C37.9992 65.5308 37.4492 66.0809 37.4492 66.7594C37.4492 67.4379 37.9992 67.988 38.6778 67.988H61.2732C61.9519 67.988 62.5018 67.4379 62.5018 66.7594C62.5018 66.0809 61.9519 65.5308 61.2732 65.5308Z" fill="#ED7014"/>
<path d="M61.273 71.5063H55.3575C54.6788 71.5063 54.1289 72.0564 54.1289 72.735C54.1289 73.4135 54.6788 73.9636 55.3575 73.9636H61.273C61.9517 73.9636 62.5016 73.4135 62.5016 72.735C62.5016 72.0564 61.9517 71.5063 61.273 71.5063Z" fill="#ED7014"/>
<path d="M51.5898 71.5063H38.6778C37.9992 71.5063 37.4492 72.0564 37.4492 72.735C37.4492 73.4135 37.9992 73.9636 38.6778 73.9636H51.5898C52.2685 73.9636 52.8184 73.4135 52.8184 72.735C52.8184 72.0564 52.2685 71.5063 51.5898 71.5063Z" fill="#ED7014"/>
</svg>
