<svg width="86" height="84" viewBox="0 0 86 84" fill="none" xmlns="http://www.w3.org/2000/svg">
<path d="M68.3047 0.0373535C61.1073 0.0373535 54.9176 4.43311 52.2784 10.681L33.7373 6.12594C33.5422 5.77874 25.3916 8.05758 24.991 8.07893C24.0965 8.29855 23.5495 9.20159 23.7693 10.0963C23.9891 10.9905 24.8928 11.538 25.7866 11.3178L33.3394 9.46257L51.2818 13.8705C50.9655 15.3926 50.8557 16.9543 50.9515 18.5057L33.7492 14.1447C33.4843 14.0778 33.2072 14.0765 32.9417 14.1415L9.53189 19.8899C8.78628 20.0732 8.26198 20.7416 8.26198 21.5095V49.3467C8.26198 54.8313 9.98349 60.0664 13.2404 64.4867C16.497 68.9024 20.99 72.0938 26.2331 73.7156L32.846 75.7643C33.1675 75.864 33.5117 75.864 33.8332 75.7643L40.4481 73.7141C45.6905 72.094 50.183 68.9031 53.4406 64.4862C56.6972 60.0666 58.4187 54.8315 58.4187 49.3467V31.7222C59.833 32.7021 61.3945 33.4734 63.0342 33.9957V49.193C63.2005 62.1189 54.2184 74.2996 41.8206 77.9609L33.3396 80.5867L24.8598 77.9608C12.4621 74.2994 3.48016 62.1186 3.64642 49.1928C3.64626 49.193 3.64626 16.756 3.64626 16.756L11.1518 14.9123C13.2781 14.3114 12.517 11.2201 10.3562 11.6735L1.58104 13.8293C0.835432 14.0124 0.311123 14.6808 0.311123 15.4488V49.193C0.126181 63.5496 10.1036 77.0804 23.8733 81.147L32.846 83.9255C33.1673 84.0248 33.5112 84.0248 33.8325 83.9255L42.8065 81.1471C56.577 77.0801 66.5538 63.5504 66.369 49.1928C66.3692 49.193 66.3692 34.7041 66.3692 34.7041C76.5654 35.9075 85.7585 27.6992 85.6918 17.4249C85.6919 7.83745 77.8922 0.0373535 68.3047 0.0373535ZM55.0834 49.3467C55.0834 54.1144 53.5867 58.6652 50.756 62.507C47.9249 66.3459 44.0197 69.1194 39.4619 70.5281L33.3393 72.4257L27.2191 70.5296C22.6608 69.1197 18.7553 66.3456 15.9247 62.5078C13.0933 58.6654 11.5968 54.1144 11.5968 49.3469V22.8171L33.3327 17.4798L51.5538 22.099C52.2297 24.5261 53.4458 26.8008 55.0831 28.7151L55.0834 49.3467ZM68.3047 31.4772C60.6207 31.4772 54.2129 25.0179 54.2542 17.3466C55.1956 -1.17136 81.597 -1.1807 82.3568 17.4253C82.3568 25.1735 76.0529 31.4772 68.3047 31.4772Z" fill="#008080"/>
<path d="M78.9233 22.3401L77.0588 12.5853C77.0578 12.5798 77.0567 12.5742 77.0555 12.5685C76.9064 11.8372 76.282 11.2974 75.5373 11.2554C74.7898 11.2172 74.1113 11.68 73.8813 12.3899C73.8761 12.4059 73.8711 12.4219 73.8664 12.4382L72.2293 18.1811L70.5308 12.4241C70.526 12.4071 70.5205 12.3904 70.515 12.3735C70.2772 11.6663 69.5903 11.2048 68.8466 11.2572C68.1022 11.3071 67.4837 11.8536 67.3396 12.6025L65.5794 22.3544C65.4405 23.1249 65.9521 23.8621 66.7226 24.0012C67.4939 24.1403 68.2303 23.6285 68.3694 22.858L69.2362 18.0549L70.6749 22.9313C70.6797 22.9479 70.6851 22.9644 70.6906 22.981C70.9165 23.6552 71.5467 24.1056 72.2572 24.1019C72.9681 24.0984 73.5931 23.6417 73.8124 22.9656C73.8176 22.9494 73.8227 22.9333 73.8274 22.9167L75.2161 18.0454L76.1386 22.8724C76.2855 23.6412 77.0281 24.1461 77.7969 23.9986C78.5664 23.8515 79.0703 23.109 78.9233 22.3401Z" fill="#ED7014"/>
<path d="M63.9933 11.2529H59.0774C57.2033 11.311 57.2047 14.0302 59.0774 14.0878H60.1069V22.6843C60.1069 23.1249 60.308 23.5185 60.6234 23.7786C61.5034 24.5414 62.9694 23.8632 62.9427 22.685V19.4778C62.9427 19.4723 62.9419 19.4671 62.9419 19.4616V14.0879H63.9937C65.8674 14.0299 65.8661 11.3105 63.9933 11.2529Z" fill="#ED7014"/>
<path d="M48.9235 38.2732L40.5079 35.5543L35.3213 28.3906C34.6664 27.486 33.2746 27.486 32.6199 28.3906L27.4333 35.5543L19.0175 38.2732C17.9556 38.6164 17.5228 39.9374 18.1827 40.8424L23.3931 47.9888L23.3784 56.8328C23.3766 57.9493 24.4994 58.7678 25.564 58.4208L33.9708 55.6738L42.3775 58.4208C43.4424 58.768 44.5647 57.9496 44.5631 56.8328L44.5486 47.9888L49.7586 40.8424C50.4182 39.9374 49.9854 38.6164 48.9235 38.2732ZM41.5321 46.4642C41.3237 46.7504 41.2114 47.0954 41.2121 47.4495L41.2238 54.5353L34.4885 52.3343C34.1518 52.2246 33.7892 52.2246 33.4525 52.3343L26.7171 54.5353L26.7287 47.4495C26.7292 47.0954 26.6172 46.7504 26.4087 46.4642L22.2343 40.7387L28.9769 38.5602C29.3139 38.4515 29.6074 38.238 29.8151 37.9514L33.9703 32.212L38.1256 37.9514C38.3332 38.2382 38.6267 38.4515 38.9638 38.5602L45.7064 40.7387L41.5321 46.4642Z" fill="#ED7014"/>
<path d="M18.063 13.1642C19.6332 13.1642 20.3218 11.089 19.056 10.1584C17.8428 9.2664 16.1041 10.3821 16.4358 11.8594C16.6048 12.6129 17.2895 13.1642 18.063 13.1642Z" fill="#008080"/>
</svg>
