<svg width="84" height="84" viewBox="0 0 84 84" fill="none" xmlns="http://www.w3.org/2000/svg">
<path d="M45.1831 74.9798H44.2939C44.6094 74.3643 44.7888 73.6678 44.7888 72.9298C44.7888 70.4428 42.7657 68.4197 40.2787 68.4197H9.41465C6.92769 68.4197 4.90454 70.4428 4.90454 72.9298C4.90454 73.6678 5.0838 74.3643 5.3995 74.9798H4.51011C2.02315 74.9798 0 77.003 0 79.4899C0 81.9769 2.02315 84.0001 4.51011 84.0001H45.1831C47.6701 84.0001 49.6932 81.9769 49.6932 79.4899C49.6932 77.003 47.6701 74.9798 45.1831 74.9798ZM45.1831 81.54H4.51011C3.37963 81.54 2.46006 80.6204 2.46006 79.4899C2.46006 78.3595 3.37963 77.4399 4.51011 77.4399H12.0841C13.6745 77.4399 13.6745 74.9798 12.0841 74.9798H9.41465C8.28417 74.9798 7.3646 74.0603 7.3646 72.9298C7.3646 71.7993 8.28417 70.8797 9.41465 70.8797H40.2787C41.4092 70.8797 42.3288 71.7993 42.3288 72.9298C42.3288 74.0603 41.4092 74.9798 40.2787 74.9798H18.6422C17.0518 74.9798 17.0518 77.4399 18.6422 77.4399H45.1831C46.3136 77.4399 47.2332 78.3595 47.2332 79.4899C47.2332 80.6204 46.3136 81.54 45.1831 81.54Z" fill="#ED7014"/>
<path d="M82.3438 52.8911L60.2888 30.836C61.6591 28.546 61.2337 25.5413 59.3083 23.7027L61.8975 21.1134C65.5976 25.1867 72.0058 19.3935 68.0147 15.4021L59.6692 7.05708C58.5447 5.9325 56.8051 7.67209 57.9298 8.7965L66.275 17.1417C67.8663 18.733 65.3985 21.1353 63.8398 19.5768L49.6924 5.42934C48.101 3.83801 50.5688 1.43568 52.1275 2.99421L53.4531 4.31985C54.5777 5.44443 56.3173 3.70483 55.1926 2.58042L53.8671 1.25478C49.9082 -2.70411 44.0521 3.63891 48.1558 7.37196L29.3829 26.1445C25.6827 22.0767 19.2703 27.8607 23.2657 31.8558L37.4132 46.0034C41.3672 49.9569 47.2354 43.6203 43.1243 39.8862L45.7136 37.297C47.552 39.2237 50.5603 39.655 52.8488 38.2793L74.9021 60.3326C79.7035 65.1342 87.1453 57.6923 82.3438 52.8911ZM41.5879 44.2638C40.9165 44.9354 39.8242 44.9353 39.1528 44.2638L25.0053 30.1162C23.4335 28.5447 25.8705 26.1114 27.4405 27.6811L41.5879 41.8287C42.2525 42.4931 42.2522 43.5996 41.5879 44.2638ZM41.3851 38.1468L31.1225 27.8841L49.8952 9.11139L60.1578 19.3739L41.3851 38.1468ZM52.2208 35.67C50.8886 37.0022 48.7454 36.8573 47.4581 35.5623L57.5734 25.447C58.8643 26.7417 59.0281 28.8626 57.6812 30.2097L52.2208 35.67ZM80.6042 58.593C79.5232 59.674 77.7226 59.674 76.6417 58.593L54.7093 36.6606L58.6718 32.6981L80.6042 54.6305C81.6851 55.7115 81.6851 57.5121 80.6042 58.593Z" fill="#008080"/>
<path d="M8.78026 58.5547L15.9139 63.3813C17.1924 64.2461 18.6062 62.2324 17.2926 61.3437L10.1589 56.5171C8.84159 55.6259 7.46298 57.6633 8.78026 58.5547Z" fill="#ED7014"/>
<path d="M33.4259 63.5927C33.6631 63.5927 33.9029 63.5241 34.1141 63.3813L41.2478 58.5547C42.565 57.6633 41.1863 55.6259 39.8692 56.5171L32.7355 61.3437C31.718 62.032 32.2854 63.5927 33.4259 63.5927Z" fill="#ED7014"/>
<path d="M26.2438 57.022V48.8212C26.2438 47.2308 23.7837 47.2308 23.7837 48.8212V57.022C23.7837 58.6125 26.2438 58.6125 26.2438 57.022Z" fill="#ED7014"/>
</svg>
