<svg width="84" height="84" viewBox="0 0 84 84" fill="none" xmlns="http://www.w3.org/2000/svg">
<path d="M80.3078 35.6833C78.7037 35.6833 77.3361 36.7119 76.8279 38.1443H69.8079V36.7087C69.8079 36.0294 69.2574 35.4783 68.5774 35.4783C67.8981 35.4783 67.347 36.0294 67.347 36.7087V42.7072C67.347 48.8435 65.2898 54.6215 61.5542 58.9762C56.3369 65.0561 49.7591 69.6793 41.9995 72.7202C35.0622 70.0016 29.0515 66.0058 24.1322 60.8424C23.6631 60.3502 22.8844 60.331 22.3923 60.8001C21.9007 61.2686 21.8815 62.0472 22.35 62.5394C24.0483 64.3216 25.8709 65.9687 27.8082 67.4818V76.8288C26.3765 77.3363 25.3473 78.7039 25.3473 80.3086C25.3473 82.344 27.0033 84 29.0387 84C31.0741 84 32.73 82.344 32.73 80.3086C32.73 78.7046 31.7015 77.3363 30.2691 76.8288V69.2845C33.6465 71.6083 37.3353 73.5533 41.3138 75.0946C41.5355 75.1798 41.7675 75.2228 42.0001 75.2228C42.2321 75.2228 42.4641 75.1798 42.6846 75.0946C50.9152 71.9069 57.8923 67.0235 63.4223 60.5784C65.9806 57.5964 67.8238 54.0166 68.8543 50.1207H73.0135C73.5217 51.5531 74.8893 52.5817 76.4934 52.5817C78.5288 52.5817 80.1848 50.9257 80.1848 48.8903C80.1848 46.8549 78.5288 45.1989 76.4934 45.1989C74.8893 45.1989 73.5217 46.2281 73.0135 47.6598H69.3894C69.6663 46.0448 69.8079 44.3876 69.8079 42.7072V40.6052H76.8279C77.3361 42.0375 78.7037 43.0661 80.3078 43.0661C82.3432 43.0661 83.9992 41.4101 83.9992 39.3747C83.9992 37.3393 82.3432 35.6833 80.3078 35.6833ZM29.0387 81.5385C28.36 81.5385 27.8082 80.9867 27.8082 80.308C27.8082 79.6293 28.36 79.0775 29.0387 79.0775C29.7173 79.0775 30.2691 79.6293 30.2691 80.308C30.2691 80.9867 29.7173 81.5385 29.0387 81.5385ZM76.4934 47.6598C77.1721 47.6598 77.7238 48.2116 77.7238 48.8903C77.7238 49.569 77.1721 50.1207 76.4934 50.1207C75.8147 50.1207 75.2629 49.569 75.2629 48.8903C75.2629 48.2116 75.8147 47.6598 76.4934 47.6598ZM80.3078 40.6052C79.6291 40.6052 79.0774 40.0534 79.0774 39.3747C79.0774 38.6961 79.6291 38.1443 80.3078 38.1443C80.9865 38.1443 81.5383 38.6961 81.5383 39.3747C81.5383 40.0534 80.9865 40.6052 80.3078 40.6052Z" fill="#008080"/>
<path d="M16.6522 42.7072V20.3231C21.1658 19.256 25.855 17.2674 30.5987 14.4073C37.6309 10.168 46.3685 10.168 53.4007 14.4073C55.5117 15.6794 57.6111 16.7785 59.6895 17.7013C59.7125 17.7122 59.7356 17.7231 59.76 17.7321C62.3285 18.8683 64.8644 19.7361 67.3471 20.3231V31.4446C67.3471 32.1246 67.8977 32.6751 68.5776 32.6751C69.2576 32.6751 69.8081 32.1246 69.8081 31.4446V19.8713C69.8081 18.9914 69.2018 18.2178 68.3661 18.032C66.1064 17.5296 63.7916 16.7746 61.4409 15.7787V7.17127C62.8733 6.66307 63.9019 5.29546 63.9019 3.69138C63.9019 1.65599 62.2459 0 60.2105 0C58.1751 0 56.5191 1.65599 56.5191 3.69138C56.5191 5.29546 57.5483 6.66307 58.98 7.17127V14.6553C57.5541 13.9561 56.1166 13.171 54.6715 12.3001C46.8555 7.58783 37.1439 7.58847 29.3285 12.3001C24.6425 15.1244 20.0347 17.0534 15.6332 18.032C14.7976 18.2178 14.1913 18.9914 14.1913 19.8713V27.3162H7.17127C6.66307 25.8839 5.29546 24.8553 3.69138 24.8553C1.65599 24.8553 0 26.5113 0 28.5467C0 30.582 1.65599 32.238 3.69138 32.238C5.29546 32.238 6.66307 31.2094 7.17127 29.7771H14.1913V36.8317H10.9857C10.4775 35.3994 9.10989 34.3708 7.5058 34.3708C5.47042 34.3708 3.81442 36.0268 3.81442 38.0622C3.81442 40.0976 5.47042 41.7536 7.5058 41.7536C9.10989 41.7536 10.4775 40.725 10.9857 39.2927H14.1913V42.7072C14.1913 48.6044 15.8947 54.1357 19.1163 58.7025C19.356 59.0422 19.7367 59.2235 20.1231 59.2235C20.368 59.2235 20.616 59.1505 20.8313 58.9986C21.3863 58.6064 21.5189 57.8386 21.1274 57.2836C18.1999 53.1341 16.6522 48.0937 16.6522 42.7072ZM60.2105 2.46092C60.8892 2.46092 61.4409 3.0127 61.4409 3.69138C61.4409 4.37005 60.8892 4.92184 60.2105 4.92184C59.5318 4.92184 58.98 4.37005 58.98 3.69138C58.98 3.0127 59.5318 2.46092 60.2105 2.46092ZM3.69138 29.7771C3.0127 29.7771 2.46092 29.2253 2.46092 28.5467C2.46092 27.868 3.0127 27.3162 3.69138 27.3162C4.37005 27.3162 4.92184 27.868 4.92184 28.5467C4.92184 29.2253 4.37005 29.7771 3.69138 29.7771ZM7.5058 39.2927C6.82713 39.2927 6.27534 38.7409 6.27534 38.0622C6.27534 37.3835 6.82713 36.8317 7.5058 36.8317C8.18448 36.8317 8.73626 37.3835 8.73626 38.0622C8.73626 38.7409 8.18448 39.2927 7.5058 39.2927Z" fill="#008080"/>
<path d="M28.4635 21.189C29.0723 20.8878 29.3222 20.1495 29.021 19.5407C28.7198 18.9319 27.9816 18.6819 27.3721 18.9831C25.0438 20.1348 22.706 21.0903 20.4245 21.8235C19.6401 22.0753 19.1133 22.7969 19.1133 23.6192V42.7073C19.1133 48.2565 20.9596 53.4648 24.312 57.3728C28.9012 62.7215 34.6222 66.8948 41.3167 69.7787C41.5333 69.8723 41.7666 69.919 41.9998 69.919C42.2331 69.919 42.4664 69.8723 42.6836 69.7787C49.3775 66.8954 55.0978 62.7221 59.6864 57.3741C63.0394 53.4648 64.8864 48.2565 64.8864 42.7073V23.6192C64.8864 22.7969 64.3596 22.0753 63.5752 21.8235C59.8261 20.6193 55.9758 18.8332 52.1306 16.5152C49.075 14.6727 45.572 13.6992 41.9998 13.6992C38.4283 13.6992 34.9253 14.6727 31.869 16.5152L31.6076 16.6722C31.0237 17.0202 30.8328 17.7758 31.1808 18.3596C31.5287 18.9434 32.2837 19.1344 32.8675 18.7864C32.9585 18.7319 33.0495 18.6775 33.1399 18.623C35.8123 17.0118 38.8763 16.1601 41.9998 16.1601C45.124 16.1601 48.188 17.0118 50.8604 18.623C54.7332 20.9576 58.6219 22.7777 62.4255 24.037V42.7067C62.4255 47.6689 60.7893 52.3087 57.8189 55.7713C53.5424 60.7553 48.2213 64.6639 41.9998 67.3921C35.7777 64.6633 30.4566 60.7547 26.1801 55.7707C23.2097 52.3081 21.5742 47.6689 21.5742 42.7067V24.037C23.8448 23.2853 26.1602 22.3278 28.4635 21.189Z" fill="#008080"/>
<path d="M42 28.7927C38.6079 28.7927 35.8476 31.5523 35.8476 34.945V36.9958H35.4375C33.8545 36.9958 32.5664 38.284 32.5664 39.8669V49.7106C32.5664 51.2936 33.8545 52.5817 35.4375 52.5817H48.5624C50.1454 52.5817 51.4335 51.2936 51.4335 49.7106V39.8669C51.4335 38.284 50.1454 36.9958 48.5624 36.9958H48.1523V34.945C48.1523 31.5523 45.3927 28.7927 42 28.7927ZM38.3086 34.945C38.3086 32.9097 39.9646 31.2537 42 31.2537C44.0354 31.2537 45.6914 32.9097 45.6914 34.945V36.9958H38.3086V34.945ZM48.9726 39.8669V49.7106C48.9726 49.9368 48.7887 50.1208 48.5624 50.1208H35.4375C35.2113 50.1208 35.0273 49.9368 35.0273 49.7106V39.8669C35.0273 39.6407 35.2113 39.4567 35.4375 39.4567H48.5624C48.7887 39.4567 48.9726 39.6407 48.9726 39.8669Z" fill="#ED7014"/>
<path d="M42 39.8669C39.9646 39.8669 38.3086 41.5229 38.3086 43.5583C38.3086 45.1624 39.3378 46.53 40.7695 47.0382V48.4802C40.7695 49.1595 41.3207 49.7107 42 49.7107C42.6799 49.7107 43.2305 49.1595 43.2305 48.4802V47.0382C44.6628 46.53 45.6914 45.1624 45.6914 43.5583C45.6914 41.5229 44.0354 39.8669 42 39.8669ZM42 44.7888C41.3213 44.7888 40.7695 44.237 40.7695 43.5583C40.7695 42.8797 41.3213 42.3279 42 42.3279C42.6787 42.3279 43.2305 42.8797 43.2305 43.5583C43.2305 44.237 42.6787 44.7888 42 44.7888Z" fill="#ED7014"/>
</svg>
