<svg width="84" height="85" viewBox="0 0 84 85" fill="none" xmlns="http://www.w3.org/2000/svg">
<path d="M42.2863 46.8416C41.5652 46.8416 40.9785 47.4348 40.9785 48.1647C40.9785 48.8939 41.5652 49.4878 42.2863 49.4878C43.0081 49.4878 43.5947 48.8939 43.5947 48.1647C43.5947 47.4348 43.0074 46.8416 42.2863 46.8416Z" fill="#ED7014"/>
<path d="M42.3684 42.4653C40.8557 42.4653 39.4287 43.058 38.3499 44.1342C37.871 44.6113 37.866 45.3912 38.3378 45.8748C38.8097 46.3591 39.5803 46.3642 40.0598 45.887C40.6801 45.2681 41.5001 44.9275 42.3684 44.9275C43.2766 44.9275 44.1214 45.2944 44.7481 45.9614C44.9872 46.216 45.3087 46.3443 45.6303 46.3443C45.9315 46.3443 46.2334 46.2321 46.4694 46.0057C46.9565 45.5368 46.9761 44.7576 46.5131 44.265C45.4381 43.1214 43.9274 42.4653 42.3684 42.4653Z" fill="#ED7014"/>
<path d="M49.6256 41.0961C47.7033 39.0982 45.1257 37.9983 42.3681 37.9983C39.6814 37.9983 37.1508 39.0501 35.243 40.9601C34.7648 41.4392 34.761 42.2185 35.2342 42.7014C35.7073 43.1844 36.4779 43.1882 36.9561 42.7104C38.4047 41.2596 40.3271 40.4605 42.3681 40.4605C44.4623 40.4605 46.4202 41.2956 47.8802 42.813C48.1193 43.0612 48.4358 43.1857 48.7529 43.1857C49.0586 43.1857 49.365 43.0696 49.6015 42.8368C50.0836 42.3628 50.0943 41.5829 49.6256 41.0961Z" fill="#ED7014"/>
<path d="M51.1228 39.5407C51.3613 39.7864 51.6765 39.9095 51.9917 39.9095C52.2993 39.9095 52.6075 39.7921 52.8447 39.5567C53.3242 39.0802 53.3312 38.3009 52.8606 37.8154C50.0731 34.946 46.347 33.365 42.3684 33.365C38.4717 33.365 34.7975 34.8921 32.0227 37.6654C31.5445 38.1432 31.5401 38.9224 32.0126 39.406C32.4857 39.8896 33.2557 39.8947 33.7346 39.4163C36.0508 37.1022 39.1167 35.8272 42.3684 35.8272C45.688 35.8272 48.797 37.1465 51.1228 39.5407Z" fill="#ED7014"/>
<path d="M6.94276 48.157C10.2814 48.157 12.9978 45.4094 12.9978 42.0326C12.9978 38.6558 10.2814 35.9082 6.94276 35.9082C3.60413 35.9082 0.887695 38.6558 0.887695 42.0326C0.887695 45.4094 3.60413 48.157 6.94276 48.157ZM6.94276 38.3704C8.93933 38.3704 10.563 40.0136 10.563 42.0326C10.563 44.0523 8.93933 45.6948 6.94276 45.6948C4.94681 45.6948 3.32253 44.0523 3.32253 42.0326C3.32253 40.0136 4.94681 38.3704 6.94276 38.3704Z" fill="#ED7014"/>
<path d="M77.9437 35.9082C74.6051 35.9082 71.8887 38.6558 71.8887 42.0326C71.8887 45.41 74.6051 48.157 77.9437 48.157C81.283 48.157 83.9988 45.41 83.9988 42.0326C83.9988 38.6558 81.2824 35.9082 77.9437 35.9082ZM77.9437 45.6948C75.9478 45.6948 74.3235 44.0516 74.3235 42.0326C74.3235 40.0136 75.9478 38.3704 77.9437 38.3704C79.9403 38.3704 81.564 40.0136 81.564 42.0326C81.564 44.0516 79.9403 45.6948 77.9437 45.6948Z" fill="#ED7014"/>
<path d="M42.4349 12.2488C45.7736 12.2488 48.49 9.5012 48.49 6.12441C48.49 2.74761 45.7736 0 42.4349 0C39.0963 0 36.3799 2.74697 36.3799 6.12441C36.3799 9.5012 39.0963 12.2488 42.4349 12.2488ZM42.4349 2.46221C44.4309 2.46221 46.0552 4.10539 46.0552 6.12441C46.0552 8.14343 44.4309 9.78661 42.4349 9.78661C40.439 9.78661 38.8147 8.14343 38.8147 6.12441C38.8147 4.10539 40.439 2.46221 42.4349 2.46221Z" fill="#ED7014"/>
<path d="M42.4349 71.8162C39.0963 71.8162 36.3799 74.5638 36.3799 77.9406C36.3799 81.318 39.0957 84.065 42.4349 84.065C45.7736 84.065 48.49 81.318 48.49 77.9406C48.49 74.5638 45.7736 71.8162 42.4349 71.8162ZM42.4349 81.6028C40.439 81.6028 38.8147 79.9596 38.8147 77.9406C38.8147 75.9215 40.439 74.2784 42.4349 74.2784C44.4309 74.2784 46.0552 75.9215 46.0552 77.9406C46.0552 79.9596 44.4309 81.6028 42.4349 81.6028Z" fill="#ED7014"/>
<path d="M77.9443 71.7124C76.8071 71.7124 75.7429 72.0318 74.8327 72.5853L62.7087 60.1203C66.934 55.2889 69.5033 48.9433 69.5033 42.0005C69.5033 35.0744 66.946 28.7415 62.7378 23.9146L74.7351 11.5798C75.6661 12.1712 76.7659 12.5143 77.9443 12.5143C81.2829 12.5143 83.9994 9.76731 83.9994 6.38988C83.9994 3.01309 81.2829 0.266113 77.9443 0.266113C74.6057 0.266113 71.8893 3.01309 71.8893 6.39052C71.8893 7.68672 72.2907 8.88993 72.9732 9.88084L61.0482 22.1406C56.1932 17.4836 49.6383 14.6225 42.4353 14.6225C38.4884 14.6225 34.683 15.4626 31.1249 17.1199C30.5142 17.4041 30.2472 18.1352 30.5281 18.7529C30.8097 19.3705 31.5328 19.6405 32.1435 19.3564C33.0701 18.9247 34.0164 18.556 34.9786 18.2462C33.7951 19.5045 32.7036 21.0759 31.7344 22.9384C30.7596 24.8112 29.9459 26.9072 29.3053 29.1642C27.2453 29.7741 25.3267 30.5316 23.6004 31.4269C21.7129 32.4056 20.1292 33.5113 18.8689 34.712C19.2856 33.3343 19.8235 31.99 20.4824 30.6848C22.1797 27.3234 24.6583 24.3436 27.6493 22.0694C28.1872 21.6608 28.2956 20.8892 27.891 20.346C27.4876 19.8021 26.724 19.6931 26.1861 20.1017C25.3604 20.7295 24.5701 21.4068 23.8198 22.1271L11.9114 9.88469C12.5957 8.89249 12.9978 7.68865 12.9978 6.39052C12.9978 3.01309 10.282 0.266113 6.94276 0.266113C3.60413 0.266113 0.887695 3.01309 0.887695 6.39052C0.887695 9.76731 3.60413 12.5143 6.94276 12.5143C8.11926 12.5143 9.21776 12.1724 10.1482 11.5824L22.1308 23.9017C20.6315 25.6225 19.3421 27.53 18.314 29.565C16.3586 33.4382 15.3673 37.6225 15.3673 42.0005C15.3673 48.9458 17.9385 55.2941 22.167 60.1255L10.0505 72.5827C9.14165 72.0305 8.07867 71.7118 6.94339 71.7118C3.60413 71.7118 0.887695 74.4594 0.887695 77.8362C0.887695 81.2136 3.60413 83.9606 6.94339 83.9606C10.282 83.9606 12.9984 81.2136 12.9984 77.8362C12.9984 76.497 12.5697 75.2579 11.846 74.2484L23.861 61.8963C28.7079 66.5282 35.2405 69.374 42.4182 69.3785C42.4239 69.3785 42.4289 69.3798 42.4347 69.3798C42.4404 69.3798 42.4461 69.3785 42.4518 69.3785C49.6326 69.3746 56.1678 66.5263 61.0159 61.8912L73.0391 74.2522C72.3167 75.2604 71.8893 76.4983 71.8893 77.8362C71.8893 81.213 74.6057 83.9606 77.9449 83.9606C81.2836 83.9606 84 81.2136 84 77.8362C84 74.4594 81.2829 71.7124 77.9443 71.7124ZM3.32253 6.39052C3.32253 4.37086 4.94681 2.72832 6.94276 2.72832C8.93933 2.72832 10.563 4.37086 10.563 6.39052C10.563 8.40954 8.9387 10.0521 6.94276 10.0521C4.94681 10.0521 3.32253 8.40954 3.32253 6.39052ZM49.0681 54.9766C49.176 55.6475 49.8013 56.1022 50.4654 55.9932C51.2639 55.8617 52.0427 55.7116 52.8032 55.5442C52.2875 57.1104 51.6787 58.5766 50.981 59.9164C48.9349 63.848 46.3688 66.2403 43.6524 66.7925V56.6198C44.3405 56.6037 45.028 56.5755 45.7067 56.5319C46.3777 56.4889 46.887 55.9046 46.8451 55.2261C46.8026 54.5475 46.2268 54.0325 45.5532 54.0748C44.5257 54.1403 43.4767 54.1736 42.4353 54.1736C38.4986 54.1736 34.7071 53.7105 31.293 52.8351C30.4748 49.4968 30.0429 45.816 30.0429 42.0005C30.0429 38.185 30.4748 34.5042 31.293 31.1659C34.7071 30.2904 38.4986 29.8273 42.4353 29.8273C46.372 29.8273 50.1635 30.2904 53.5776 31.1659C54.3957 34.5042 54.827 38.185 54.827 42.0005C54.827 45.8134 54.3964 49.4929 53.5788 52.8293C52.4594 53.1166 51.2892 53.3629 50.074 53.563C49.4106 53.6727 48.9603 54.3051 49.0681 54.9766ZM18.8816 49.3018C20.14 50.4979 21.7198 51.5992 23.6004 52.5747C25.3267 53.4694 27.2453 54.2275 29.3053 54.8368C29.9459 57.0937 30.7596 59.1904 31.7344 61.0632C32.7017 62.9212 33.7894 64.4893 34.9697 65.7464C27.2992 63.2733 21.248 57.0957 18.8816 49.3018ZM27.6233 43.2319C27.695 46.2886 28.0337 49.2562 28.6172 52.0378C27.225 51.5607 25.9166 51.0078 24.7115 50.3831C20.8503 48.3808 18.4941 45.8782 17.9334 43.2319H27.6233ZM32.0674 55.5461C34.9443 56.1798 38.0318 56.5467 41.2176 56.6211V66.7925C38.5011 66.2396 35.935 63.8473 33.8889 59.9164C33.1919 58.5772 32.583 57.1117 32.0674 55.5461ZM50.9816 24.0852C51.678 25.4244 52.2875 26.8892 52.8025 28.4548C49.9256 27.8211 46.8382 27.4543 43.6524 27.3799V17.2084C46.3688 17.7607 48.9349 20.1536 50.9816 24.0852ZM57.2473 40.7697C57.1756 37.7123 56.8369 34.7447 56.2534 31.9631C57.6456 32.4403 58.954 32.9931 60.159 33.6178C64.0203 35.6202 66.3771 38.1228 66.9371 40.7697H57.2473ZM57.2473 43.2319H66.9359C66.1722 46.7742 62.1626 50.0137 56.254 52.0334C56.8369 49.253 57.1756 46.2874 57.2473 43.2319ZM77.9443 2.72832C79.9409 2.72832 81.5645 4.37086 81.5645 6.39052C81.5645 8.40954 79.9409 10.0521 77.9443 10.0521C75.9484 10.0521 74.3241 8.40954 74.3241 6.39052C74.3241 4.37086 75.9484 2.72832 77.9443 2.72832ZM65.9889 34.6992C64.7306 33.5036 63.1507 32.4018 61.2702 31.4269C59.5432 30.5316 57.6253 29.7741 55.5653 29.1642C54.9247 26.9072 54.111 24.8112 53.1361 22.9378C52.1689 21.0804 51.0806 19.5122 49.9003 18.2552C57.5714 20.7283 63.6226 26.9053 65.9889 34.6992ZM33.8889 24.0852C35.9356 20.1542 38.5011 17.7613 41.2176 17.2084V27.3799C38.0324 27.4543 34.9443 27.8211 32.0681 28.4548C32.583 26.8892 33.1919 25.4244 33.8889 24.0852ZM24.7115 33.6178C25.9166 32.9931 27.225 32.4403 28.6172 31.9631C28.0337 34.7447 27.695 37.7123 27.6233 40.7697H17.9334C18.4941 38.1228 20.8503 35.6202 24.7115 33.6178ZM6.94276 81.4984C4.94681 81.4984 3.32253 79.8558 3.32253 77.8368C3.32253 75.8172 4.94681 74.1746 6.94276 74.1746C8.93933 74.1746 10.563 75.8172 10.563 77.8368C10.563 79.8558 8.9387 81.4984 6.94276 81.4984ZM49.9003 65.7464C51.0806 64.4893 52.1689 62.9212 53.1361 61.0632C54.111 59.1897 54.9247 57.0925 55.5659 54.8355C59.9834 53.5297 63.5693 51.5953 65.9972 49.2723C63.6378 57.0796 57.5809 63.2701 49.9003 65.7464ZM77.9443 81.4984C75.9484 81.4984 74.3241 79.8558 74.3241 77.8368C74.3241 75.8172 75.9484 74.1746 77.9443 74.1746C79.9409 74.1746 81.5645 75.8172 81.5645 77.8368C81.5645 79.8558 79.9409 81.4984 77.9443 81.4984Z" fill="#008080"/>
</svg>
