<svg width="80" height="84" viewBox="0 0 80 84" fill="none" xmlns="http://www.w3.org/2000/svg">
<path d="M77.7656 57.9415H63.6562V48.2518L78.9187 32.9894C79.2263 32.6817 79.3992 32.2644 79.3992 31.8293C79.3992 31.3942 79.2263 30.9768 78.9187 30.6692L71.958 23.7087C71.3173 23.068 70.2785 23.0682 69.6378 23.7087L63.6562 29.6899V1.64062C63.6562 0.734508 62.9217 0 62.0156 0H1.64062C0.734508 0 0 0.734508 0 1.64062V31.1994C0 32.1056 0.734508 32.8401 1.64062 32.8401C2.54674 32.8401 3.28125 32.1056 3.28125 31.1994V3.28125H60.375V32.9711L45.9042 47.442H23.7935C22.8874 47.442 22.1529 48.1765 22.1529 49.0826C22.1529 49.9887 22.8874 50.7232 23.7935 50.7232H42.6229L36.8466 56.4995C36.7014 56.6449 36.5868 56.8148 36.5055 56.9994L31.4729 68.4426H12.9437C12.0376 68.4426 11.3031 69.1771 11.3031 70.0832C11.3031 70.9894 12.0376 71.7239 12.9437 71.7239H49.6532C50.5593 71.7239 51.2938 70.9894 51.2938 70.0832C51.2938 69.1771 50.5593 68.4426 49.6532 68.4426H40.3504L45.6271 66.1216C45.8087 66.0419 45.9787 65.9288 46.1273 65.7804L60.375 51.5329V74.4844C60.375 76.8677 61.2578 79.0474 62.7109 80.7188H9.51562C6.07802 80.7188 3.28125 77.922 3.28125 74.4844V45.9651C3.28125 45.0589 2.54674 44.3244 1.64062 44.3244C0.734508 44.3244 0 45.0589 0 45.9651V74.4844C0 79.7313 4.26874 84 9.51562 84H69.8906C75.1375 84 79.4062 79.7313 79.4062 74.4844V59.5821C79.4062 58.676 78.6717 57.9415 77.7656 57.9415ZM35.7425 66.8845L38.5429 60.5161L42.1109 64.0841L35.7425 66.8845ZM44.9674 62.3001L42.6472 59.9799L40.3269 57.6596L70.7979 27.1888L75.4384 31.8291L44.9674 62.3001ZM76.125 74.4844C76.125 77.922 73.3282 80.7188 69.8906 80.7188C66.453 80.7188 63.6562 77.922 63.6562 74.4844V61.2227H76.125V74.4844Z" fill="#008080"/>
<path d="M29.5311 33.004C31.1989 33.004 32.697 32.4549 33.864 31.4157C34.0925 31.2121 34.3096 30.9883 34.5091 30.7504C35.0913 30.0563 35.0006 29.0214 34.3065 28.4391C33.6121 27.8567 32.5772 27.9476 31.9951 28.6417C31.8974 28.7584 31.7917 28.8673 31.6816 28.9654C31.1174 29.4679 30.3937 29.7227 29.5312 29.7227C27.1792 29.7227 25.2656 27.8091 25.2656 25.4571C25.2656 23.1051 27.1792 21.1915 29.5312 21.1915C30.3862 21.1915 31.2106 21.443 31.9151 21.9191C32.666 22.4264 33.6858 22.2289 34.1929 21.4781C34.7002 20.7274 34.5027 19.7075 33.7519 19.2003C32.5029 18.3563 31.0434 17.9104 29.5312 17.9104C25.37 17.9104 21.9844 21.296 21.9844 25.4573C21.9844 29.6186 25.3698 33.004 29.5311 33.004Z" fill="#ED7014"/>
<path d="M29.5312 40.2229C37.673 40.2229 44.2969 33.599 44.2969 25.4573C44.2969 17.3155 37.673 10.6917 29.5312 10.6917C21.3895 10.6917 14.7656 17.3155 14.7656 25.4573C14.7656 33.599 21.3895 40.2229 29.5312 40.2229ZM29.5312 13.9729C35.8637 13.9729 41.0156 19.1248 41.0156 25.4573C41.0156 31.7898 35.8637 36.9417 29.5312 36.9417C23.1988 36.9417 18.0469 31.7898 18.0469 25.4573C18.0469 19.1248 23.1988 13.9729 29.5312 13.9729Z" fill="#ED7014"/>
<path d="M12.9434 61.2227H24.393C25.2991 61.2227 26.0336 60.4881 26.0336 59.582C26.0336 58.6759 25.2991 57.9414 24.393 57.9414H12.9434C12.0372 57.9414 11.3027 58.6759 11.3027 59.582C11.3027 60.4881 12.0372 61.2227 12.9434 61.2227Z" fill="#ED7014"/>
<path d="M12.9434 47.4419C12.0372 47.4419 11.3027 48.1764 11.3027 49.0825C11.3027 49.9886 12.0372 50.7231 12.9434 50.7231H14.6056C15.5118 50.7231 16.2463 49.9886 16.2463 49.0825C16.2463 48.1764 15.5118 47.4419 14.6056 47.4419H12.9434Z" fill="#ED7014"/>
<path d="M1.64062 40.2231C2.07211 40.2231 2.49539 40.0476 2.80055 39.7424C3.1057 39.4373 3.28125 39.014 3.28125 38.5825C3.28125 38.151 3.1057 37.7278 2.80055 37.4226C2.49539 37.1174 2.07211 36.9419 1.64062 36.9419C1.20914 36.9419 0.785859 37.1174 0.480703 37.4226C0.175547 37.7278 0 38.151 0 38.5825C0 39.014 0.175547 39.4373 0.480703 39.7424C0.785859 40.0476 1.20914 40.2231 1.64062 40.2231Z" fill="#008080"/>
</svg>
