<svg width="24" height="24" viewBox="0 0 24 24" fill="none" xmlns="http://www.w3.org/2000/svg">
<g clip-path="url(#clip0_447_45876)">
<path d="M23.4012 2.35829L21.6418 0.598886C20.8434 -0.199489 19.5443 -0.199442 18.746 0.598886L2.44339 16.9014C2.2198 17.125 2.0488 17.4018 1.94877 17.7018L0.019954 23.4883C-0.0265929 23.628 0.00973528 23.782 0.113892 23.8862C0.188001 23.9603 0.287329 24.0001 0.38886 24.0001C0.42997 24.0001 0.471501 23.9936 0.511766 23.9801L6.29825 22.0513C6.59825 21.9513 6.87495 21.7802 7.09859 21.5567L23.4012 5.25409C24.1996 4.45567 24.1996 3.15662 23.4012 2.35829ZM1.00353 22.9966L1.58506 21.252L2.74808 22.415L1.00353 22.9966ZM6.0523 21.3136L3.5728 22.1402L1.85994 20.4273L2.68644 17.9477C2.70941 17.8789 2.73847 17.812 2.77292 17.7481L6.25203 21.2272C6.188 21.2616 6.1212 21.2906 6.0523 21.3136ZM6.84003 20.7155L3.28447 17.16L16.3818 4.06271L19.9373 7.61823L6.84003 20.7155ZM20.4871 7.06843L16.9316 3.51292L17.848 2.59651L21.4035 6.15203L20.4871 7.06843ZM22.8514 4.7042L21.9533 5.60223L18.3978 2.04671L19.2958 1.14868C19.5434 0.901089 19.8687 0.777339 20.1939 0.777339C20.5191 0.777339 20.8444 0.901136 21.0919 1.14868L22.8513 2.90809C23.3465 3.40328 23.3465 4.20901 22.8514 4.7042Z" fill="#2D3539" stroke="#2D3539" stroke-width="0.2"/>
<path d="M17.4596 6.54075C17.3077 6.38892 17.0616 6.38892 16.9098 6.54075L16.2877 7.16283C16.1359 7.31466 16.1359 7.56084 16.2877 7.71263C16.3636 7.78852 16.4631 7.82653 16.5626 7.82653C16.662 7.82653 16.7616 7.78856 16.8375 7.71263L17.4596 7.09055C17.6114 6.93877 17.6114 6.69263 17.4596 6.54075Z" fill="#FE8D39" stroke="#FE8D39" stroke-width="0.2"/>
<path d="M15.5931 8.40693C15.4413 8.25515 15.1951 8.25515 15.0433 8.40693L5.7125 17.7377C5.56068 17.8896 5.56068 18.1357 5.7125 18.2875C5.78839 18.3634 5.88791 18.4014 5.98738 18.4014C6.08685 18.4014 6.18636 18.3635 6.26225 18.2875L15.5931 8.95672C15.7449 8.80489 15.7449 8.55871 15.5931 8.40693Z" fill="#FE8D39" stroke="#FE8D39" stroke-width="0.2"/>
</g>
<defs>
<clipPath id="clip0_447_45876">
<rect width="24" height="24" fill="white"/>
</clipPath>
</defs>
</svg>
