<svg width="55" height="55" viewBox="0 0 55 55" fill="none" xmlns="http://www.w3.org/2000/svg">
<path d="M27.5 0C12.3131 0 0 12.3131 0 27.5C0 42.6911 12.3131 55 27.5 55C42.6917 55 55 42.6911 55 27.5C55 12.3131 42.6917 0 27.5 0ZM27.5 50.4171C14.8645 50.4171 4.58356 40.1355 4.58356 27.5C4.58356 14.8637 14.8645 4.58356 27.5 4.58356C40.1355 4.58356 50.4164 14.8637 50.4164 27.5C50.4164 40.1355 40.1355 50.4171 27.5 50.4171Z" fill="black"/>
<path d="M34.375 22.9169V21.7735C34.375 17.9757 31.2978 14.8965 27.5 14.8965H20.625V40.105H25.2086V29.7925H25.7455L29.4959 40.105H34.375L30.3868 29.1374C32.7367 28.0443 34.375 25.6799 34.375 22.9169ZM29.7914 22.9175C29.7914 24.1832 28.7644 25.209 27.5 25.209H25.2086V19.48H27.5V19.4807C28.767 19.4807 29.7914 20.5078 29.7914 21.7735V22.9175Z" fill="black"/>
</svg>
