<svg width="20" height="20" viewBox="0 0 20 20" fill="none" xmlns="http://www.w3.org/2000/svg">
<path d="M8.74966 4.99414C9.18749 4.99356 9.62112 5.07941 10.0256 5.24675C10.4301 5.41409 10.7975 5.65964 11.1067 5.96926C11.1067 5.96926 10.1559 4.99414 8.74966 4.99414ZM8.74966 4.99414C7.82883 4.99414 6.99549 5.36663 6.39258 5.96926C6.39258 5.96926 7.22191 4.99414 8.74966 4.99414ZM13.8422 13.8264L17.3776 17.3577" stroke="#ED7014" stroke-width="1.5" stroke-linecap="round" stroke-linejoin="round"/>
<path d="M8.74984 15.8148C12.6619 15.8148 15.8332 12.6472 15.8332 8.73968C15.8332 4.83213 12.6619 1.66455 8.74984 1.66455C4.83775 1.66455 1.6665 4.83213 1.6665 8.73968C1.6665 12.6472 4.83775 15.8148 8.74984 15.8148Z" stroke="white" stroke-width="1.5" stroke-linejoin="round"/>
</svg>
