<svg width="22" height="22" viewBox="0 0 22 22" fill="none" xmlns="http://www.w3.org/2000/svg">
<path d="M9.93757 5.25049C10.4849 5.24976 11.0269 5.35719 11.5325 5.56662C12.0382 5.77604 12.4974 6.08332 12.8839 6.4708C12.8839 6.4708 11.6954 5.25049 9.93757 5.25049ZM9.93757 5.25049C8.78652 5.25049 7.74486 5.71664 6.99121 6.4708C6.99121 6.4708 8.02788 5.25049 9.93757 5.25049ZM16.3032 16.3036L20.7225 20.7229" stroke="#ED7014" stroke-width="2" stroke-linecap="round" stroke-linejoin="round"/>
<path d="M9.93766 18.7918C14.8278 18.7918 18.7918 14.8278 18.7918 9.93766C18.7918 5.04756 14.8278 1.0835 9.93766 1.0835C5.04756 1.0835 1.0835 5.04756 1.0835 9.93766C1.0835 14.8278 5.04756 18.7918 9.93766 18.7918Z" stroke="white" stroke-width="2" stroke-linejoin="round"/>
</svg>
