<svg width="10" height="7" viewBox="0 0 10 7" fill="none" xmlns="http://www.w3.org/2000/svg">
<path d="M0.227402 0.96959C0.368048 0.828987 0.558779 0.75 0.757652 0.75C0.956525 0.75 1.14726 0.828987 1.2879 0.96959L5.0004 4.68209L8.7129 0.96959C8.85435 0.832971 9.04381 0.757375 9.24045 0.759084C9.4371 0.760793 9.62521 0.83967 9.76427 0.978726C9.90332 1.11778 9.9822 1.30589 9.98391 1.50254C9.98562 1.69919 9.91002 1.88864 9.7734 2.03009L5.53065 6.27284C5.39001 6.41344 5.19928 6.49243 5.0004 6.49243C4.80153 6.49243 4.6108 6.41344 4.47015 6.27284L0.227402 2.03009C0.0867991 1.88944 0.0078125 1.69871 0.0078125 1.49984C0.0078125 1.30097 0.0867991 1.11024 0.227402 0.96959Z" fill="#FFFDFD"/>
</svg>
