<svg width="12" height="12" viewBox="0 0 12 12" fill="none" xmlns="http://www.w3.org/2000/svg">
<path d="M1.2274 3.96959C1.36805 3.82899 1.55878 3.75 1.75765 3.75C1.95653 3.75 2.14726 3.82899 2.2879 3.96959L6.0004 7.68209L9.7129 3.96959C9.85435 3.83297 10.0438 3.75738 10.2405 3.75908C10.4371 3.76079 10.6252 3.83967 10.7643 3.97873C10.9033 4.11778 10.9822 4.30589 10.9839 4.50254C10.9856 4.69919 10.91 4.88864 10.7734 5.03009L6.53065 9.27284C6.39001 9.41344 6.19928 9.49243 6.0004 9.49243C5.80153 9.49243 5.6108 9.41344 5.47015 9.27284L1.2274 5.03009C1.0868 4.88944 1.00781 4.69871 1.00781 4.49984C1.00781 4.30097 1.0868 4.11024 1.2274 3.96959Z" fill="black"/>
</svg>
