<svg width="18" height="18" viewBox="0 0 18 18" fill="none" xmlns="http://www.w3.org/2000/svg">
<path d="M2.25 18H15.75C16.9905 18 18 16.9905 18 15.75V9.75C18 9.33525 17.6647 9 17.25 9C16.8353 9 16.5 9.33525 16.5 9.75V15.75C16.5 16.164 16.164 16.5 15.75 16.5H2.25C1.836 16.5 1.5 16.164 1.5 15.75V5.25C1.5 4.836 1.836 4.5 2.25 4.5H4.5C4.91475 4.5 5.25 4.16475 5.25 3.75C5.25 3.33525 4.91475 3 4.5 3H2.25C1.0095 3 0 4.0095 0 5.25V15.75C0 16.9905 1.0095 18 2.25 18Z" fill="#FE8D39"/>
<path d="M11.8125 3.00015H12V0.562646C12 0.333146 12.1395 0.126896 12.3525 0.0413964C12.5655 -0.0463536 12.8092 0.00689644 12.9675 0.171896L17.8425 5.2344C18.0525 5.45265 18.0525 5.7969 17.8425 6.01515L12.9675 11.0776C12.8085 11.2426 12.5633 11.2959 12.3525 11.2089C12.1395 11.1234 12 10.9171 12 10.6876V8.25015H11.109C8.7495 8.25015 6.62925 9.5604 5.57475 11.6701L5.565 11.6889C5.469 11.8831 5.27175 12.0001 5.0625 12.0001C5.01975 12.0001 4.97625 11.9949 4.9335 11.9844C4.67925 11.9251 4.5 11.6986 4.5 11.4376V10.3126C4.5 6.28065 7.7805 3.00015 11.8125 3.00015Z" fill="#FE8D39"/>
</svg>
