<svg width="15" height="26" viewBox="0 0 15 26" fill="none" xmlns="http://www.w3.org/2000/svg">
<path d="M0.923975 1.06753C0.572467 1.41914 0.375 1.89597 0.375 2.39315C0.375 2.89034 0.572467 3.36716 0.923975 3.71878L10.2052 13L0.923976 22.2813C0.582429 22.6349 0.393439 23.1085 0.397711 23.6002C0.401983 24.0918 0.599176 24.5621 0.946816 24.9097C1.29446 25.2573 1.76473 25.4545 2.25635 25.4588C2.74797 25.4631 3.2216 25.2741 3.57522 24.9325L14.1821 14.3257C14.5336 13.974 14.7311 13.4972 14.7311 13C14.7311 12.5028 14.5336 12.026 14.1821 11.6744L3.57522 1.06753C3.22361 0.716021 2.74678 0.518555 2.2496 0.518555C1.75242 0.518555 1.27559 0.716021 0.923975 1.06753Z" fill="black"/>
</svg>
