<svg width="44" height="23" viewBox="0 0 44 23" fill="none" xmlns="http://www.w3.org/2000/svg">
<path d="M0.411589 12.3628L10.5117 22.1611C10.8754 22.573 11.5042 22.6121 11.9161 22.2483C12.328 21.8846 12.3672 21.2558 12.0034 20.8439C11.9694 20.8055 11.9326 20.7697 11.8932 20.737L3.52008 12.6043L42.9089 12.0067C43.4583 11.9983 43.897 11.5461 43.8887 10.9966C43.8804 10.4471 43.4282 10.0085 42.8787 10.0168L3.48988 10.6145L11.6126 2.24147C12.0245 1.87775 12.0636 1.24892 11.6998 0.837015C11.336 0.425109 10.7072 0.385989 10.2953 0.749799C10.2569 0.783736 10.2211 0.820538 10.1885 0.859946L0.390221 10.9601C0.0104133 11.3539 0.0199226 11.9806 0.411589 12.3628Z" fill="black"/>
</svg>
