<svg width="30" height="30" viewBox="0 0 30 30" fill="none" xmlns="http://www.w3.org/2000/svg">
<path d="M20.076 3.06753C20.4275 3.41914 20.625 3.89597 20.625 4.39315C20.625 4.89034 20.4275 5.36716 20.076 5.71878L10.7948 15L20.076 24.2813C20.4176 24.6349 20.6066 25.1085 20.6023 25.6002C20.598 26.0918 20.4008 26.5621 20.0532 26.9097C19.7055 27.2573 19.2353 27.4545 18.7437 27.4588C18.252 27.4631 17.7784 27.2741 17.4248 26.9325L6.8179 16.3257C6.46639 15.974 6.26893 15.4972 6.26893 15C6.26893 14.5028 6.46639 14.026 6.8179 13.6744L17.4248 3.06753C17.7764 2.71602 18.2532 2.51855 18.7504 2.51855C19.2476 2.51855 19.7244 2.71602 20.076 3.06753Z" fill="black"/>
</svg>
