<svg width="15" height="15" viewBox="0 0 15 15" fill="none" xmlns="http://www.w3.org/2000/svg">
<g clip-path="url(#clip0_347_33889)">
<path d="M14.2821 4.29194C13.6698 2.99409 12.7001 1.90424 11.4784 1.13959C9.77917 0.0790467 7.76648 -0.257867 5.8153 0.193304C3.86413 0.641547 2.203 1.82514 1.14245 3.52436C0.0789756 5.22358 -0.257939 7.23334 0.193233 9.18744C0.644405 11.1386 1.828 12.7997 3.52429 13.8603C4.7196 14.6074 6.09069 15.0029 7.49402 15.0029H7.58484C8.9823 14.9853 10.3417 14.581 11.5194 13.8369C11.8622 13.6201 11.9618 13.1689 11.745 12.8261C11.5282 12.4833 11.077 12.3837 10.7343 12.6005C9.78796 13.2011 8.69226 13.5263 7.56726 13.541C6.41296 13.5556 5.28503 13.2363 4.30066 12.624C2.93249 11.7685 1.98034 10.4326 1.61999 8.86225C1.25964 7.29194 1.52917 5.67475 2.38464 4.30659C4.14831 1.4853 7.88073 0.623969 10.702 2.38764C11.6864 3.00287 12.4657 3.87885 12.9579 4.92182C13.4384 5.93842 13.6259 7.06635 13.4999 8.17963C13.4559 8.581 13.743 8.94428 14.1473 8.98823C14.5487 9.03217 14.912 8.74506 14.9559 8.34077C15.1112 6.95502 14.8768 5.55463 14.2821 4.29194Z" fill="#ED7014"/>
<path d="M9.92236 4.95703L6.38916 8.49023L5.07959 7.18066C4.79248 6.89355 4.32959 6.89355 4.04248 7.18066C3.75537 7.46777 3.75537 7.93066 4.04248 8.21777L5.87061 10.0459C6.01416 10.1895 6.20166 10.2598 6.38916 10.2598C6.57666 10.2598 6.76416 10.1895 6.90772 10.0459L10.9565 5.99414C11.2437 5.70703 11.2437 5.24414 10.9565 4.95703C10.6694 4.67285 10.2065 4.67285 9.92236 4.95703Z" fill="#ED7014"/>
</g>
<defs>
<clipPath id="clip0_347_33889">
<rect width="15" height="15" fill="white"/>
</clipPath>
</defs>
</svg>
