<svg width="24" height="25" viewBox="0 0 24 25" fill="none" xmlns="http://www.w3.org/2000/svg">
<path d="M12 4.98633C13.0609 4.98633 14.0783 5.40727 14.8284 6.15654C15.5786 6.90582 16 7.92206 16 8.9817C16 10.0413 15.5786 11.0576 14.8284 11.8068C14.0783 12.5561 13.0609 12.9771 12 12.9771C10.9391 12.9771 9.92172 12.5561 9.17157 11.8068C8.42143 11.0576 8 10.0413 8 8.9817C8 7.92206 8.42143 6.90582 9.17157 6.15654C9.92172 5.40727 10.9391 4.98633 12 4.98633ZM12 20.9678C12 20.9678 20 20.9678 20 18.9701C20 16.5729 16.1 13.9759 12 13.9759C7.9 13.9759 4 16.5729 4 18.9701C4 20.9678 12 20.9678 12 20.9678Z" fill="#ED7014"/>
</svg>
