<svg width="55" height="58" viewBox="0 0 55 58" fill="none" xmlns="http://www.w3.org/2000/svg">
<path d="M49.0221 55H5.97841C5.31841 55 4.78271 55.5357 4.78271 56.1957C4.78271 56.8556 5.31841 57.3913 5.97841 57.3913H49.0221C49.6821 57.3913 50.2178 56.8556 50.2178 56.1956C50.2178 55.5356 49.6821 55 49.0221 55Z" fill="black"/>
<path d="M54.9572 34.4588C54.9428 34.3823 54.9452 34.3058 54.9141 34.2293L54.9046 34.2078C54.9046 34.2078 54.9046 34.2078 54.9046 34.2054L45.3489 10.3138C45.3489 10.3114 45.3441 10.3114 45.3441 10.3066C45.1671 9.87382 44.7415 9.56534 44.2393 9.56534H28.6958V6.95391C30.0851 6.45891 31.0871 5.14372 31.0871 3.58698C31.0871 1.60932 29.4778 0 27.5001 0C25.5225 0 23.9131 1.60932 23.9131 3.58698C23.9131 5.14372 24.9151 6.45891 26.3044 6.95391V9.56523H10.7609C10.2588 9.56523 9.83313 9.87371 9.65614 10.3113C9.65614 10.3137 9.65132 10.3137 9.65132 10.3185L0.0956154 34.2102C0.0956154 34.2102 0.0956154 34.2102 0.0956154 34.2126L0.0860875 34.2341C0.0550377 34.3082 0.0573916 34.3871 0.0430437 34.4637C0.0286958 34.5306 0 34.5976 0 34.6741C0 34.6789 0.00235394 34.6836 0.00235394 34.6884C0.00235394 34.6979 0.00470789 34.7099 0.00470789 34.7195C0.0310497 40.6332 4.84231 45.435 10.7608 45.435C16.6793 45.435 21.4907 40.6333 21.5169 34.7195C21.5169 34.7075 21.5193 34.6979 21.5193 34.6884C21.5193 34.6836 21.5216 34.6789 21.5216 34.6741C21.5216 34.5975 21.4929 34.5306 21.4786 34.4588C21.4642 34.3823 21.4666 34.3058 21.4355 34.2293L21.426 34.2078C21.426 34.2078 21.426 34.2078 21.426 34.2054L12.528 11.9566H26.3043V50.2177H10.7609C10.1009 50.2177 9.56523 50.7534 9.56523 51.4134C9.56523 52.0734 10.1009 52.6091 10.7609 52.6091H44.2394C44.8994 52.6091 45.4351 52.0734 45.4351 51.4134C45.4351 50.7534 44.8993 50.2177 44.2393 50.2177H28.6958V11.9566H42.4722L33.5716 34.2079C33.5716 34.2079 33.5716 34.2079 33.5716 34.2102L33.5621 34.2317C33.5311 34.3058 33.5334 34.3848 33.5191 34.4613C33.5071 34.5307 33.4784 34.5976 33.4784 34.6742C33.4784 34.679 33.4807 34.6837 33.4807 34.6885C33.4807 34.7005 33.4831 34.71 33.4831 34.7196C33.5094 40.6333 38.3207 45.4351 44.2392 45.4351C50.1577 45.4351 54.9691 40.6334 54.9953 34.7196C54.9953 34.7076 54.9976 34.6981 54.9976 34.6885C54.9976 34.6837 55 34.679 55 34.6742C55.0002 34.5976 54.9715 34.5306 54.9572 34.4588ZM10.7609 43.0437C6.55217 43.0437 3.05846 39.9207 2.47737 35.8698H19.0468C18.4633 39.9207 14.9696 43.0437 10.7609 43.0437ZM18.559 33.4785H2.96284L10.7609 13.9797L18.559 33.4785ZM27.5001 4.78267C26.8401 4.78267 26.3044 4.24698 26.3044 3.58698C26.3044 2.92697 26.8401 2.39128 27.5001 2.39128C28.1601 2.39128 28.6958 2.92697 28.6958 3.58698C28.6958 4.24698 28.1601 4.78267 27.5001 4.78267ZM44.2393 13.9797L52.0374 33.4785H36.4389L44.2393 13.9797ZM44.2393 43.0437C40.0305 43.0437 36.5368 39.9207 35.9557 35.8698H52.5252C51.9418 39.9207 48.4481 43.0437 44.2393 43.0437Z" fill="black"/>
</svg>
