<svg width="10" height="6" viewBox="0 0 10 6" fill="none" xmlns="http://www.w3.org/2000/svg">
<path fill-rule="evenodd" clip-rule="evenodd" d="M0.660041 0.248786C0.53873 0.370134 0.470581 0.534695 0.470581 0.706281C0.470581 0.877867 0.53873 1.04243 0.660041 1.16378L4.5426 5.04634C4.66395 5.16765 4.82851 5.2358 5.0001 5.2358C5.17168 5.2358 5.33624 5.16765 5.45759 5.04634L9.34015 1.16378C9.45802 1.04173 9.52325 0.878276 9.52177 0.70861C9.5203 0.538945 9.45225 0.376645 9.33227 0.256669C9.21229 0.136693 9.04999 0.0686385 8.88033 0.0671642C8.71066 0.0656898 8.5472 0.130913 8.42516 0.248786L5.0001 3.67385L1.57503 0.248786C1.45368 0.127475 1.28912 0.0593262 1.11754 0.0593262C0.94595 0.0593262 0.781389 0.127475 0.660041 0.248786Z" fill="#1C5DAF"/>
</svg>
