<svg width="18" height="18" viewBox="0 0 18 18" fill="none" xmlns="http://www.w3.org/2000/svg">
<path d="M14.58 9.75002C14.415 9.75002 14.2425 9.69752 14.0775 9.66002C13.7433 9.58639 13.415 9.48864 13.095 9.36752C12.747 9.24095 12.3646 9.24752 12.0212 9.38598C11.6778 9.52444 11.3978 9.785 11.235 10.1175L11.07 10.455C10.3395 10.0487 9.66819 9.54395 9.07495 8.95502C8.48603 8.36179 7.98132 7.69052 7.57495 6.96002L7.88995 6.75002C8.22248 6.58721 8.48304 6.30717 8.6215 5.96379C8.75996 5.62041 8.76653 5.23796 8.63995 4.89002C8.52087 4.56934 8.42316 4.24112 8.34745 3.90752C8.30995 3.74252 8.27995 3.57002 8.25745 3.39752C8.16638 2.86924 7.88967 2.39083 7.47717 2.04845C7.06467 1.70608 6.54348 1.52223 6.00745 1.53002H3.75745C3.43423 1.52699 3.11414 1.59363 2.81899 1.72542C2.52383 1.85721 2.26054 2.05105 2.04703 2.29373C1.83352 2.53642 1.6748 2.82227 1.58169 3.13181C1.48858 3.44135 1.46326 3.76732 1.50745 4.08752C1.90701 7.22956 3.34197 10.1489 5.58569 12.3845C7.82941 14.6201 10.754 16.0444 13.8975 16.4325H14.1825C14.7355 16.4333 15.2695 16.2304 15.6825 15.8625C15.9197 15.6503 16.1093 15.3902 16.2386 15.0993C16.3678 14.8084 16.4339 14.4934 16.4325 14.175V11.925C16.4233 11.4041 16.2336 10.9024 15.8957 10.5058C15.5579 10.1091 15.0928 9.84199 14.58 9.75002ZM14.955 14.25C14.9548 14.3565 14.932 14.4618 14.888 14.5587C14.8441 14.6557 14.78 14.7422 14.7 14.8125C14.6161 14.8849 14.5182 14.9389 14.4123 14.9712C14.3063 15.0035 14.1949 15.0133 14.085 15C11.2761 14.6399 8.66713 13.3549 6.66949 11.3477C4.67185 9.34059 3.39926 6.72553 3.05245 3.91502C3.04052 3.80516 3.05098 3.69402 3.0832 3.58832C3.11543 3.48261 3.16876 3.38454 3.23995 3.30002C3.31024 3.22002 3.39675 3.1559 3.49374 3.11194C3.59073 3.06797 3.69596 3.04516 3.80245 3.04502H6.05245C6.22686 3.04114 6.39717 3.09818 6.53406 3.20633C6.67095 3.31447 6.76586 3.46695 6.80245 3.63752C6.83245 3.84252 6.86995 4.04502 6.91495 4.24502C7.00159 4.64038 7.1169 5.02891 7.25995 5.40752L6.20995 5.89502C6.12018 5.93621 6.03942 5.99473 5.97232 6.06722C5.90522 6.13971 5.8531 6.22473 5.81896 6.31742C5.78481 6.4101 5.76931 6.50862 5.77334 6.60731C5.77737 6.70601 5.80086 6.80293 5.84245 6.89252C6.92185 9.20459 8.78039 11.0631 11.0925 12.1425C11.275 12.2175 11.4799 12.2175 11.6625 12.1425C11.756 12.1091 11.8419 12.0574 11.9153 11.9904C11.9887 11.9235 12.0481 11.8426 12.09 11.7525L12.555 10.7025C12.9427 10.8412 13.3384 10.9564 13.74 11.0475C13.94 11.0925 14.1425 11.13 14.3475 11.16C14.518 11.1966 14.6705 11.2915 14.7786 11.4284C14.8868 11.5653 14.9438 11.7356 14.94 11.91L14.955 14.25Z" fill="white"/>
</svg>
