<svg width="25" height="25" viewBox="0 0 25 25" fill="none" xmlns="http://www.w3.org/2000/svg">
<g clip-path="url(#clip0_84_2075)">
<path d="M7.40088 10.2016C7.31006 10.1108 7.18408 10.0585 7.05566 10.0585C6.92725 10.0585 6.80132 10.1107 6.71045 10.2016C6.61963 10.2924 6.56738 10.4184 6.56738 10.5468C6.56738 10.6752 6.61963 10.8012 6.71045 10.892C6.80127 10.9828 6.92725 11.0351 7.05566 11.0351C7.18408 11.0351 7.31006 10.9828 7.40088 10.892C7.4917 10.8012 7.54395 10.6752 7.54395 10.5468C7.54395 10.4184 7.4917 10.2924 7.40088 10.2016Z" fill="#1C5DAF"/>
<path d="M23.5354 0H4.10189C3.29418 0 2.63705 0.657126 2.63705 1.46484V9.57028C2.63705 10.378 3.29418 11.0351 4.10189 11.0351H4.98079C5.25047 11.0351 5.46907 10.8165 5.46907 10.5468C5.46907 10.2772 5.25047 10.0586 4.98079 10.0586H4.10189C3.83265 10.0586 3.61361 9.83951 3.61361 9.57028V1.46484C3.61361 1.1956 3.83265 0.976559 4.10189 0.976559H23.5354C23.8046 0.976559 24.0237 1.1956 24.0237 1.46484V9.57028C24.0237 9.83951 23.8046 10.0586 23.5354 10.0586H20.2695C20.14 10.0586 20.0158 10.11 19.9242 10.2016L18.3163 11.8094L16.7085 10.2016C16.6169 10.11 16.4927 10.0586 16.3632 10.0586H12.5554C12.5193 9.96569 12.4785 9.87476 12.433 9.78614C12.0834 9.1069 11.4882 8.61047 10.7574 8.38825L10.0514 8.1736C9.80289 8.09792 9.53863 8.23034 9.45026 8.47463L8.34098 11.5405C8.03384 12.3902 7.42597 13.0979 6.63235 13.5297L5.59104 14.0967C5.33514 13.7861 4.94769 13.5877 4.51473 13.5877H1.39462C0.625876 13.5877 0.000488293 14.2131 0.000488293 14.9819V23.6057C0.000390637 24.3745 0.625828 24.9999 1.39457 24.9999H4.51468C5.00071 24.9999 5.42918 24.7498 5.67879 24.3716L6.17703 24.567C6.90641 24.8537 7.68324 25.0006 8.46696 25H15.0552C16.0437 25 16.8479 24.1958 16.8479 23.2073C16.8482 22.8917 16.7646 22.5817 16.6056 22.309C17.3329 22.0805 17.8619 21.4001 17.8619 20.5984C17.8623 20.2749 17.7745 19.9574 17.608 19.68C18.3043 19.4337 18.8046 18.7691 18.8046 17.9895C18.8046 17.1775 18.2617 16.4902 17.5201 16.2706C17.6759 15.9999 17.7578 15.6929 17.7576 15.3805C17.7576 14.392 16.9534 13.5878 15.9649 13.5878H12.0495L12.597 11.9621C12.6979 11.6636 12.7477 11.3502 12.7445 11.0352H16.161L17.9711 12.8453C18.0664 12.9406 18.1914 12.9883 18.3163 12.9883C18.4413 12.9883 18.5663 12.9406 18.6616 12.8453L20.4717 11.0351H23.5354C24.3431 11.0351 25.0002 10.378 25.0002 9.57028V1.46484C25.0002 0.657126 24.3431 0 23.5354 0ZM4.93231 23.6057C4.93226 23.836 4.74495 24.0233 4.51468 24.0233H1.39457C1.1643 24.0233 0.976998 23.836 0.976998 23.6057V14.9819C0.976998 14.7517 1.1643 14.5643 1.39457 14.5643H2.46635V20.576C2.46635 20.8457 2.68495 21.0643 2.95463 21.0643C3.2243 21.0643 3.44291 20.8457 3.44291 20.576V14.5643H4.51468C4.69705 14.5643 4.85208 14.682 4.90887 14.8453C4.91292 14.8689 4.91878 14.8924 4.92649 14.9156C4.92996 14.9372 4.93231 14.9593 4.93231 14.9819V23.6057ZM15.9649 14.5642V14.5643C16.415 14.5643 16.7811 14.9304 16.7811 15.3805C16.7811 15.8305 16.415 16.1967 15.9649 16.1967H13.316C13.0463 16.1967 12.8277 16.4153 12.8277 16.6849C12.8277 16.9546 13.0463 17.1732 13.316 17.1732L17.0119 17.1733C17.462 17.1733 17.8281 17.5394 17.8281 17.9895C17.8281 18.4395 17.462 18.8057 17.0119 18.8057H13.316C13.0463 18.8057 12.8277 19.0243 12.8277 19.294C12.8277 19.5636 13.0463 19.7822 13.316 19.7822H16.0693C16.5193 19.7822 16.8854 20.1484 16.8854 20.5984C16.8854 21.0485 16.5193 21.4146 16.0693 21.4146H13.316C13.0463 21.4146 12.8277 21.6332 12.8277 21.9028C12.8277 22.1725 13.0463 22.3911 13.316 22.3911H15.0553C15.5053 22.3911 15.8714 22.7573 15.8714 23.2073C15.8714 23.6574 15.5053 24.0235 15.0553 24.0235H8.46696C7.80256 24.0235 7.15207 23.9004 6.53357 23.6579L5.90881 23.4129V15.0356L7.09929 14.3874C8.10255 13.8415 8.87097 12.9469 9.25919 11.8728L10.2108 9.24279L10.4733 9.32257C10.9494 9.46735 11.337 9.79068 11.5647 10.2331C11.7924 10.6754 11.8304 11.1788 11.6715 11.6503L10.907 13.9201C10.8823 13.9936 10.8754 14.0718 10.8869 14.1485C10.8984 14.2251 10.928 14.2979 10.9732 14.3609C11.0184 14.4238 11.078 14.4751 11.1469 14.5104C11.2159 14.5458 11.2923 14.5643 11.3698 14.5642H15.9649Z" fill="#1C5DAF"/>
<path d="M22.7639 4.73517C22.6715 4.4508 22.4301 4.24743 22.1342 4.20451L21.2705 4.07927L20.884 3.2968C20.7516 3.02869 20.4837 2.86218 20.1846 2.86218H20.1845C19.8854 2.86228 19.6174 3.02893 19.4851 3.29714L19.0991 4.07985L18.2354 4.20559C17.9395 4.2487 17.6983 4.45217 17.6059 4.73664C17.5136 5.02106 17.5893 5.32746 17.8036 5.5362L18.4286 6.14518L18.2813 7.00538C18.2308 7.3002 18.3498 7.59244 18.5918 7.76822C18.7247 7.86528 18.8849 7.91768 19.0494 7.91788C19.1735 7.91788 19.2982 7.88794 19.4134 7.82735L20.1858 7.421L20.9584 7.82691C21.2231 7.96597 21.5379 7.94317 21.7798 7.76729C22.0217 7.59141 22.1405 7.29908 22.0899 7.0043L21.9421 6.1442L22.567 5.53483C22.7809 5.32594 22.8564 5.01955 22.7639 4.73517ZM21.1862 5.51725C21.0956 5.60554 21.0279 5.71453 20.9889 5.83482C20.9498 5.95511 20.9406 6.08309 20.962 6.20773L21.0598 6.77716L20.5482 6.50831C20.4362 6.44954 20.3117 6.41886 20.1852 6.41892C20.0588 6.41897 19.9343 6.44975 19.8224 6.5086L19.311 6.77765L19.4085 6.20817C19.4299 6.0835 19.4206 5.95551 19.3815 5.83523C19.3424 5.71495 19.2746 5.60598 19.184 5.51774L18.7701 5.11452L19.3419 5.03127C19.4671 5.01309 19.5859 4.96473 19.6882 4.89038C19.7905 4.81602 19.8732 4.71789 19.9291 4.60446L20.1847 4.08625L20.4406 4.60431C20.4966 4.7177 20.5793 4.81577 20.6816 4.89008C20.7839 4.96438 20.9028 5.01268 21.028 5.03083L21.5998 5.11374L21.1862 5.51725ZM16.5524 4.73517C16.4599 4.4508 16.2186 4.24748 15.9226 4.20451L15.0589 4.07927L14.6725 3.2968C14.54 3.02869 14.2721 2.86218 13.9731 2.86218H13.9729C13.6738 2.86228 13.4058 3.02893 13.2735 3.29719L12.8876 4.07985L12.0239 4.20559C11.7279 4.2487 11.4867 4.45217 11.3944 4.73664C11.3021 5.02106 11.3777 5.32746 11.592 5.5362L12.2171 6.14518L12.0698 7.00538C12.0193 7.3002 12.1383 7.59249 12.3803 7.76822C12.5131 7.86528 12.6733 7.91768 12.8379 7.91788C12.9619 7.91788 13.0865 7.88794 13.2017 7.82735L13.9741 7.421L14.7468 7.82691C15.0116 7.96597 15.3262 7.94317 15.5682 7.76729C15.8101 7.59141 15.9289 7.29908 15.8783 7.0043L15.7305 6.1442L16.3554 5.53483C16.5694 5.32594 16.6449 5.0196 16.5524 4.73517ZM14.9746 5.51725C14.8841 5.60554 14.8164 5.71453 14.7773 5.83482C14.7383 5.95511 14.7291 6.08309 14.7505 6.20773L14.8483 6.77716L14.3366 6.50836C14.2247 6.44956 14.1001 6.41887 13.9737 6.41891C13.8472 6.41895 13.7227 6.44973 13.6108 6.5086L13.0994 6.77765L13.1969 6.20817C13.2183 6.0835 13.209 5.95551 13.1699 5.83523C13.1308 5.71495 13.063 5.60598 12.9724 5.51774L12.5585 5.11452L13.1303 5.03127C13.2554 5.01307 13.3743 4.9647 13.4766 4.89034C13.5789 4.81598 13.6616 4.71785 13.7175 4.60441L13.9731 4.0862L14.2289 4.60422C14.2849 4.71763 14.3676 4.81573 14.47 4.89005C14.5723 4.96437 14.6912 5.01269 14.8164 5.03083L15.3882 5.11374L14.9746 5.51725ZM10.3409 4.73517C10.2484 4.4508 10.0071 4.24743 9.7111 4.20451L8.84744 4.07927L8.46096 3.2968C8.32854 3.02869 8.06062 2.86218 7.7616 2.86218H7.7614C7.46233 2.86228 7.19432 3.02893 7.06204 3.29719L6.67606 4.07985L5.81239 4.20559C5.51639 4.2487 5.27523 4.45222 5.18285 4.73669C5.09052 5.02111 5.16625 5.3275 5.38046 5.5362L6.00555 6.14518L5.85824 7.00538C5.80775 7.3002 5.92674 7.59249 6.16874 7.76822C6.30157 7.86528 6.46178 7.91768 6.6263 7.91788C6.75033 7.91788 6.87498 7.88794 6.99017 7.82735L7.76258 7.421L8.53518 7.82691C8.79993 7.96597 9.11467 7.94317 9.35661 7.76729C9.59851 7.59141 9.71731 7.29908 9.66667 7.0043L9.51892 6.1442L10.1438 5.53483C10.3579 5.32594 10.4334 5.0196 10.3409 4.73517ZM8.76311 5.51725C8.67256 5.60554 8.60485 5.71453 8.56581 5.83482C8.52676 5.95511 8.51756 6.08309 8.53899 6.20773L8.63679 6.77716L8.12512 6.50836C8.01318 6.44956 7.88862 6.41887 7.76218 6.41891C7.63574 6.41895 7.5112 6.44973 7.3993 6.5086L6.88792 6.77765L6.98548 6.20802C7.0068 6.08338 6.9975 5.95542 6.95838 5.83517C6.91926 5.71492 6.85149 5.60598 6.76092 5.51774L6.34701 5.11452L6.91878 5.03127C7.04394 5.01307 7.1628 4.9647 7.26511 4.89034C7.36741 4.81598 7.4501 4.71785 7.50604 4.60441L7.7616 4.0862L8.01741 4.60422C8.07339 4.71763 8.15612 4.81573 8.25846 4.89005C8.3608 4.96437 8.47969 5.01269 8.60486 5.03083L9.17673 5.11374L8.76311 5.51725ZM2.95459 21.8436C2.68491 21.8436 2.46631 22.0623 2.46631 22.3319V22.3395C2.46631 22.6092 2.68491 22.8278 2.95459 22.8278C3.22426 22.8278 3.44287 22.6092 3.44287 22.3395V22.3319C3.44287 22.0623 3.22426 21.8436 2.95459 21.8436Z" fill="#1C5DAF"/>
</g>
<defs>
<clipPath id="clip0_84_2075">
<rect width="25" height="25" fill="white"/>
</clipPath>
</defs>
</svg>
