<svg width="34" height="34" viewBox="0 0 34 34" fill="none" xmlns="http://www.w3.org/2000/svg">
<path d="M32.4277 8.05374C32.361 7.97156 32.2768 7.90536 32.1812 7.86001C32.0855 7.81465 31.981 7.7913 31.8752 7.79166H5.58891L4.9585 4.80958C4.92394 4.64848 4.8343 4.50447 4.70502 4.40233C4.57573 4.3002 4.41488 4.24633 4.25016 4.24999H1.41683C1.22897 4.24999 1.0488 4.32462 0.915962 4.45746C0.783124 4.5903 0.708496 4.77046 0.708496 4.95833C0.708496 5.14619 0.783124 5.32635 0.915962 5.45919C1.0488 5.59203 1.22897 5.66666 1.41683 5.66666H3.67641L7.32433 22.6667C7.47933 23.3817 7.85196 24.0311 8.39102 24.5258C8.93007 25.0204 9.60908 25.336 10.3347 25.4292C10.0579 25.8756 9.91298 26.3913 9.91683 26.9167C9.91683 27.6681 10.2153 28.3888 10.7467 28.9201C11.278 29.4515 11.9987 29.75 12.7502 29.75C13.5016 29.75 14.2223 29.4515 14.7536 28.9201C15.285 28.3888 15.5835 27.6681 15.5835 26.9167C15.5814 26.4173 15.4443 25.9278 15.1868 25.5H20.9385C20.681 25.9278 20.5439 26.4173 20.5418 26.9167C20.5418 27.6681 20.8403 28.3888 21.3717 28.9201C21.903 29.4515 22.6237 29.75 23.3752 29.75C24.1266 29.75 24.8473 29.4515 25.3786 28.9201C25.91 28.3888 26.2085 27.6681 26.2085 26.9167C26.2064 26.4173 26.0693 25.9278 25.8118 25.5H28.3335C28.5214 25.5 28.7015 25.4254 28.8344 25.2925C28.9672 25.1597 29.0418 24.9795 29.0418 24.7917C29.0418 24.6038 28.9672 24.4236 28.8344 24.2908C28.7015 24.158 28.5214 24.0833 28.3335 24.0833H10.7952C10.3073 24.0841 9.83396 23.917 9.45474 23.61C9.07552 23.303 8.8135 22.8749 8.71266 22.3975L8.62058 21.9583H29.0418C29.2056 21.9623 29.3656 21.9095 29.4948 21.8087C29.6239 21.708 29.7142 21.5656 29.7502 21.4058L32.5835 8.65583C32.605 8.55023 32.6022 8.4411 32.5752 8.33677C32.5482 8.23243 32.4977 8.13563 32.4277 8.05374ZM14.1668 26.9167C14.1668 27.1968 14.0837 27.4707 13.9281 27.7037C13.7724 27.9367 13.5512 28.1183 13.2923 28.2255C13.0334 28.3327 12.7486 28.3608 12.4738 28.3061C12.199 28.2514 11.9466 28.1165 11.7484 27.9184C11.5503 27.7203 11.4154 27.4678 11.3607 27.193C11.3061 26.9182 11.3341 26.6334 11.4413 26.3745C11.5486 26.1157 11.7301 25.8944 11.9631 25.7387C12.1961 25.5831 12.47 25.5 12.7502 25.5C13.1259 25.5 13.4862 25.6492 13.7519 25.9149C14.0176 26.1806 14.1668 26.5409 14.1668 26.9167ZM24.7918 26.9167C24.7918 27.1968 24.7087 27.4707 24.5531 27.7037C24.3974 27.9367 24.1762 28.1183 23.9173 28.2255C23.6584 28.3327 23.3736 28.3608 23.0988 28.3061C22.824 28.2514 22.5716 28.1165 22.3734 27.9184C22.1753 27.7203 22.0404 27.4678 21.9857 27.193C21.9311 26.9182 21.9591 26.6334 22.0663 26.3745C22.1736 26.1157 22.3551 25.8944 22.5881 25.7387C22.8211 25.5831 23.095 25.5 23.3752 25.5C23.7509 25.5 24.1112 25.6492 24.3769 25.9149C24.6426 26.1806 24.7918 26.5409 24.7918 26.9167ZM24.7068 9.20833L24.1543 14.1667H19.1252V9.20833H24.7068ZM19.1252 15.5833H23.9985L23.446 20.5417H19.1252V15.5833ZM17.7085 20.5417H12.6722L12.1268 15.5833H17.7085V20.5417ZM17.7085 14.1667H11.9639L11.4185 9.20833H17.7085V14.1667ZM9.99475 9.20833L10.5402 14.1667H6.94891L5.88641 9.20833H9.99475ZM7.2535 15.5833H10.7031L11.2485 20.5417H8.316L7.2535 15.5833ZM28.5035 20.5417H24.8768L25.4293 15.5833H29.5731L28.5035 20.5417ZM29.9202 14.1667C29.8637 14.1602 29.8066 14.1602 29.7502 14.1667H25.5852L26.1377 9.20833H30.9897L29.9202 14.1667Z" fill="#1C5DAF"/>
</svg>
