<svg width="30" height="30" viewBox="0 0 30 30" fill="none" xmlns="http://www.w3.org/2000/svg">
<g clip-path="url(#clip0_84_2080)">
<path d="M10.2616 12.549C13.1872 12.549 15.5673 10.1689 15.5673 7.24334C15.5673 4.31658 13.1872 1.93591 10.2616 1.93591C7.33603 1.93591 4.95596 4.31658 4.95596 7.24334C4.95537 10.1689 7.33603 12.549 10.2616 12.549ZM10.2616 2.87459C12.6698 2.87459 14.6292 4.83455 14.6292 7.24392C14.6292 9.65212 12.6698 11.6115 10.2616 11.6115C7.85342 11.6115 5.89404 9.65212 5.89404 7.24392C5.89404 4.83455 7.85342 2.87459 10.2616 2.87459ZM22.1737 12.4095C20.1522 12.4095 18.3071 13.1795 16.9167 14.4416C15.7911 13.7736 14.5149 13.4209 13.2013 13.4209H7.32139C3.28369 13.4209 -0.000488281 16.7056 -0.000488281 20.7428V26.5511C-0.000488281 27.3849 0.678027 28.0635 1.51182 28.0635H19.0114C19.3548 28.0635 19.6817 27.948 19.9448 27.74C20.6515 27.9504 21.3997 28.0635 22.1737 28.0635C26.4897 28.0635 30.0007 24.5525 30.0007 20.2365C30.0007 15.9211 26.4897 12.4095 22.1737 12.4095ZM11.3685 20.2904L10.2616 22.2521L9.15478 20.2904L9.70791 14.3595H10.8159L11.3685 20.2904ZM0.937598 26.5517V20.7433C0.937598 17.223 3.80107 14.3595 7.32139 14.3595H8.76455L8.20615 20.3496C8.19736 20.4448 8.2178 20.5405 8.26475 20.6238L9.85264 23.4375C9.93584 23.5851 10.0917 23.676 10.261 23.676C10.4304 23.676 10.5862 23.5845 10.6694 23.4375L12.2573 20.6238C12.3043 20.5405 12.3247 20.4448 12.3159 20.3496L11.7575 14.3595H13.2007C14.2688 14.3595 15.3083 14.6273 16.2399 15.1359C15.0593 16.507 14.3444 18.29 14.3444 20.2365C14.3444 21.2765 14.5489 22.2697 14.9187 23.1785C14.8409 23.2644 14.7978 23.3761 14.7979 23.492V27.1254H5.72471V23.492C5.72471 23.233 5.51494 23.0226 5.25537 23.0226C4.9958 23.0226 4.78604 23.2324 4.78604 23.492V27.1254H1.51182C1.19541 27.1254 0.937598 26.8681 0.937598 26.5517ZM15.7366 27.1254V24.6861C16.438 25.6974 17.3714 26.5365 18.4595 27.1254H15.7366ZM22.1737 27.1254C18.3745 27.1254 15.2831 24.0351 15.2831 20.2365C15.2831 16.4379 18.3739 13.3476 22.1737 13.3476C25.9724 13.3476 29.0626 16.4379 29.0626 20.2365C29.0626 24.0351 25.9718 27.1254 22.1737 27.1254ZM22.1737 14.6273C19.0806 14.6273 16.564 17.1439 16.564 20.2371C16.564 23.3302 19.0806 25.8469 22.1737 25.8469C25.2669 25.8469 27.7835 23.3302 27.7835 20.2371C27.7835 17.1439 25.2669 14.6273 22.1737 14.6273ZM22.1737 24.9082C19.5979 24.9082 17.5026 22.8129 17.5026 20.2371C17.5026 17.6613 19.5979 15.566 22.1737 15.566C24.7495 15.566 26.8448 17.6613 26.8448 20.2371C26.8448 22.8129 24.7495 24.9082 22.1737 24.9082ZM23.6403 20.349C23.9644 20.6636 24.1208 21.0761 24.0792 21.5097C24.0364 21.9556 23.7804 22.3728 23.3937 22.6254C23.1698 22.7724 22.912 22.8679 22.6425 22.9113V23.4375C22.6425 23.6965 22.4327 23.9068 22.1731 23.9068C21.9136 23.9068 21.7038 23.697 21.7038 23.4375V22.8527C21.6962 22.8504 21.688 22.8486 21.6804 22.8463C21.0599 22.6558 20.5683 22.1929 20.2964 21.542C20.1962 21.3029 20.3093 21.0281 20.5483 20.9279C20.7874 20.8277 21.0622 20.9408 21.1624 21.1799C21.3704 21.6779 21.7085 21.873 21.9552 21.9486C22.2739 22.0465 22.6278 22.0049 22.8786 21.8402C23.0292 21.7418 23.1282 21.5847 23.144 21.4201C23.1581 21.2736 23.103 21.1359 22.9853 21.0217C22.8628 20.9021 22.5616 20.8312 22.271 20.7621C21.7958 20.6496 21.2567 20.5224 20.8519 20.107C20.5097 19.756 20.3708 19.2287 20.4903 18.7306C20.6128 18.2191 20.9784 17.8254 21.4923 17.6508C21.5614 17.6273 21.6323 17.608 21.7038 17.5916V17.0355C21.7038 16.7765 21.9136 16.5662 22.1731 16.5662C22.4327 16.5662 22.6425 16.776 22.6425 17.0355V17.574C22.8481 17.6133 23.0444 17.6806 23.219 17.7761C23.6233 17.9976 23.8946 18.3474 24.0036 18.7875C24.0657 19.0388 23.9122 19.2931 23.6608 19.3558C23.4095 19.4179 23.1552 19.2644 23.0925 19.0131C23.0468 18.8291 22.9407 18.6937 22.7679 18.5988C22.5054 18.4552 22.114 18.4312 21.7929 18.539C21.5163 18.6328 21.4296 18.8361 21.4026 18.9486C21.3587 19.1332 21.4062 19.3306 21.5239 19.4513C21.7384 19.6717 22.1022 19.7572 22.4872 19.848C22.9032 19.9476 23.3321 20.049 23.6403 20.349Z" fill="#1C5DAF"/>
</g>
<defs>
<clipPath id="clip0_84_2080">
<rect width="30" height="30" fill="white"/>
</clipPath>
</defs>
</svg>
