<svg width="22" height="24" viewBox="0 0 22 24" fill="none" xmlns="http://www.w3.org/2000/svg">
<g clip-path="url(#clip0_1468_39)">
<path fill-rule="evenodd" clip-rule="evenodd" d="M6.12257 3.16093C4.86617 3.78912 4.50129 4.45666 4.50129 4.87205C4.50129 5.28743 4.86617 5.95497 6.12257 6.58317C7.31419 7.17897 9.03612 7.57874 10.9974 7.57874C12.9586 7.57874 14.6805 7.17897 15.8721 6.58317C17.1285 5.95497 17.4934 5.28743 17.4934 4.87205C17.4934 4.45666 17.1285 3.78912 15.8721 3.16093C14.6805 2.56512 12.9586 2.16535 10.9974 2.16535C9.03612 2.16535 7.31419 2.56512 6.12257 3.16093ZM17.4934 8.15392C17.2819 8.28667 17.0629 8.40871 16.8405 8.51992C15.2892 9.29558 13.2218 9.74409 10.9974 9.74409C8.77296 9.74409 6.70552 9.29558 5.15419 8.51992C4.93178 8.40871 4.71283 8.28667 4.50129 8.15392V9.56365C4.50129 10.0552 4.90213 10.7628 6.14074 11.4117C7.32807 12.0336 9.04334 12.4508 10.9974 12.4508C12.9514 12.4508 14.6666 12.0336 15.854 11.4117C17.0925 10.7628 17.4934 10.0552 17.4934 9.56365V8.15392ZM19.6588 4.87205V9.56365C19.6588 9.62428 19.6572 9.68447 19.6539 9.74409H19.6588V13.8944C19.6588 13.955 19.6572 14.0152 19.6539 14.0748H19.6588V18.2251C19.6588 19.9259 18.363 21.2033 16.8587 21.9912C15.3031 22.8061 13.229 23.2776 10.9974 23.2776C8.76574 23.2776 6.69163 22.8061 5.136 21.9912C3.63166 21.2033 2.33594 19.9259 2.33594 18.2251V14.0748H2.34083C2.33758 14.0152 2.33594 13.955 2.33594 13.8944V9.74409H2.34083C2.33758 9.68447 2.33594 9.62428 2.33594 9.56365V4.87205C2.33594 3.19463 3.66762 1.96747 5.15419 1.22418C6.70552 0.448517 8.77296 0 10.9974 0C13.2218 0 15.2892 0.448517 16.8405 1.22418C18.3271 1.96747 19.6588 3.19463 19.6588 4.87205ZM4.50129 17.2892V18.2251C4.50129 18.7166 4.90213 19.4242 6.14074 20.0731C7.32807 20.695 9.04334 21.1122 10.9974 21.1122C12.9514 21.1122 14.6666 20.695 15.854 20.0731C17.0925 19.4242 17.4934 18.7166 17.4934 18.2251V17.2892C17.2884 17.423 17.0756 17.5469 16.8587 17.6605C15.3031 18.4754 13.229 18.9469 10.9974 18.9469C8.76574 18.9469 6.69163 18.4754 5.136 17.6605C4.919 17.5469 4.70635 17.423 4.50129 17.2892ZM16.8587 13.3298C17.0756 13.2162 17.2884 13.0923 17.4934 12.9585V13.8944C17.4934 14.3859 17.0925 15.0935 15.854 15.7424C14.6666 16.3643 12.9514 16.7815 10.9974 16.7815C9.04334 16.7815 7.32807 16.3643 6.14074 15.7424C4.90213 15.0935 4.50129 14.3859 4.50129 13.8944V12.9585C4.70635 13.0923 4.919 13.2162 5.136 13.3298C6.69163 14.1447 8.76574 14.6161 10.9974 14.6161C13.229 14.6161 15.3031 14.1447 16.8587 13.3298Z" fill="#1C5DAF"/>
</g>
<defs>
<clipPath id="clip0_1468_39">
<rect width="22" height="23.2992" fill="white"/>
</clipPath>
</defs>
</svg>
