<svg width="266" height="27" viewBox="0 0 266 27" fill="none" xmlns="http://www.w3.org/2000/svg">
<path d="M13.7844 11.548C15.8762 12.2305 17.2171 13.8686 17.2171 16.271C17.2171 19.5743 14.6426 21.4853 9.70809 21.4853H0V2.37513H9.17173C13.8649 2.37513 16.2785 4.36805 16.2785 7.34378C16.2785 9.2548 15.313 10.729 13.7844 11.548ZM8.63538 5.70576H4.31769V10.2103H8.63538C10.754 10.2103 11.9072 9.44591 11.9072 7.94439C11.9072 6.44287 10.754 5.70576 8.63538 5.70576ZM9.38628 18.1547C11.639 18.1547 12.8458 17.4449 12.8458 15.8069C12.8458 14.1962 11.639 13.4317 9.38628 13.4317H4.31769V18.1547H9.38628Z" fill="white"/>
<path d="M21.284 21.4853V1.22851H25.4676V21.4853H21.284Z" fill="white"/>
<path d="M40.7748 6.79778H44.9584V21.4853H40.9893V19.7381C39.8898 21.0212 38.2807 21.7037 36.5107 21.7037C32.8903 21.7037 30.3426 19.6289 30.3426 15.0971V6.79778H34.5262V14.4692C34.5262 16.9262 35.5989 18.0182 37.4494 18.0182C39.3803 18.0182 40.7748 16.7624 40.7748 14.0597V6.79778Z" fill="white"/>
<path d="M64.04 14.1962C64.04 14.5238 63.9863 14.9879 63.9595 15.3428H53.0446C53.4469 17.1719 54.9755 18.2912 57.1746 18.2912C58.7032 18.2912 59.8027 17.8271 60.795 16.8716L63.0209 19.3286C61.68 20.8847 59.6687 21.7037 57.0673 21.7037C52.0792 21.7037 48.8342 18.5096 48.8342 14.1416C48.8342 9.74621 52.1328 6.57937 56.531 6.57937C60.7682 6.57937 64.04 9.4732 64.04 14.1962ZM56.5578 9.80081C54.6537 9.80081 53.286 10.9747 52.991 12.8584H60.0977C59.8027 11.002 58.435 9.80081 56.5578 9.80081Z" fill="white"/>
<path d="M67.898 21.4853V1.22851H72.0816V21.4853H67.898Z" fill="white"/>
<path d="M79.1288 4.75025C77.5734 4.75025 76.5275 3.71284 76.5275 2.37513C76.5275 1.03741 77.5734 0 79.1288 0C80.6843 0 81.7302 0.982811 81.7302 2.29323C81.7302 3.71284 80.6843 4.75025 79.1288 4.75025ZM77.037 21.4853V6.79778H81.2206V21.4853H77.037Z" fill="white"/>
<path d="M97.091 6.79778H101.06V19.0283C101.06 24.4884 98.1637 27 92.961 27C90.2256 27 87.5706 26.3175 85.8811 24.9798L87.5438 21.9221C88.7774 22.9323 90.7888 23.5875 92.6392 23.5875C95.5892 23.5875 96.8764 22.2224 96.8764 19.5743V18.9464C95.7769 20.1749 94.1947 20.7755 92.3174 20.7755C88.3215 20.7755 85.1034 17.9636 85.1034 13.6775C85.1034 9.3913 88.3215 6.57937 92.3174 6.57937C94.3287 6.57937 95.9915 7.26188 97.091 8.6815V6.79778ZM93.1488 17.2811C95.3478 17.2811 96.9301 15.8342 96.9301 13.6775C96.9301 11.5207 95.3478 10.0738 93.1488 10.0738C90.9497 10.0738 89.3406 11.5207 89.3406 13.6775C89.3406 15.8342 90.9497 17.2811 93.1488 17.2811Z" fill="white"/>
<path d="M114.796 6.57937C118.202 6.57937 120.776 8.5996 120.776 13.0768V21.4853H116.593V13.7321C116.593 11.3569 115.52 10.2649 113.67 10.2649C111.658 10.2649 110.21 11.5207 110.21 14.2235V21.4853H106.027V1.22851H110.21V8.32659C111.337 7.17998 112.946 6.57937 114.796 6.57937Z" fill="white"/>
<path d="M133.821 17.7725L134.947 20.7755C134.089 21.4034 132.829 21.7037 131.541 21.7037C128.135 21.7037 126.151 19.9292 126.151 16.4348V10.4014H123.925V7.12538H126.151V3.54904H130.335V7.12538H133.928V10.4014H130.335V16.3802C130.335 17.636 131.005 18.3185 132.131 18.3185C132.748 18.3185 133.365 18.1274 133.821 17.7725Z" fill="white"/>
<path d="M144.896 21.7037C140.203 21.7037 136.85 18.5642 136.85 14.1416C136.85 9.71891 140.203 6.57937 144.896 6.57937C147.926 6.57937 150.313 7.91709 151.359 10.3195L148.114 12.094C147.336 10.7017 146.183 10.0738 144.869 10.0738C142.75 10.0738 141.088 11.5753 141.088 14.1416C141.088 16.7078 142.75 18.2093 144.869 18.2093C146.183 18.2093 147.336 17.6087 148.114 16.1891L151.359 17.9909C150.313 20.3387 147.926 21.7037 144.896 21.7037Z" fill="white"/>
<path d="M161.523 21.7037C156.937 21.7037 153.584 18.5642 153.584 14.1416C153.584 9.71891 156.937 6.57937 161.523 6.57937C166.108 6.57937 169.434 9.71891 169.434 14.1416C169.434 18.5642 166.108 21.7037 161.523 21.7037ZM161.523 18.2093C163.614 18.2093 165.197 16.6805 165.197 14.1416C165.197 11.6026 163.614 10.0738 161.523 10.0738C159.431 10.0738 157.822 11.6026 157.822 14.1416C157.822 16.6805 159.431 18.2093 161.523 18.2093Z" fill="white"/>
<path d="M191.781 6.57937C195.213 6.57937 197.68 8.5996 197.68 13.0768V21.4853H193.497V13.7321C193.497 11.3569 192.451 10.2649 190.761 10.2649C188.884 10.2649 187.57 11.4934 187.57 14.1143V21.4853H183.387V13.7321C183.387 11.3569 182.394 10.2649 180.651 10.2649C178.801 10.2649 177.487 11.4934 177.487 14.1143V21.4853H173.303V6.79778H177.299V8.49039C178.372 7.23458 179.981 6.57937 181.831 6.57937C183.842 6.57937 185.559 7.37108 186.578 8.9818C187.731 7.48028 189.608 6.57937 191.781 6.57937Z" fill="white"/>
<path d="M211.031 6.57937C215.081 6.57937 218.218 9.52781 218.218 14.1416C218.218 18.7553 215.081 21.7037 211.031 21.7037C209.234 21.7037 207.759 21.1304 206.687 19.9292V26.7816H202.503V6.79778H206.499V8.49039C207.545 7.20728 209.1 6.57937 211.031 6.57937ZM210.307 18.2093C212.399 18.2093 213.981 16.6805 213.981 14.1416C213.981 11.6026 212.399 10.0738 210.307 10.0738C208.215 10.0738 206.633 11.6026 206.633 14.1416C206.633 16.6805 208.215 18.2093 210.307 18.2093Z" fill="white"/>
<path d="M227.675 6.57937C232.074 6.57937 234.621 8.6542 234.621 13.1041V21.4853H230.706V19.6562C229.928 20.9939 228.426 21.7037 226.308 21.7037C222.929 21.7037 220.917 19.7927 220.917 17.2538C220.917 14.6603 222.714 12.8584 227.112 12.8584H230.438C230.438 11.0293 229.365 9.96461 227.112 9.96461C225.584 9.96461 224.001 10.4833 222.956 11.3296L221.454 8.35389C223.036 7.20728 225.369 6.57937 227.675 6.57937ZM227.354 18.8372C228.748 18.8372 229.955 18.182 230.438 16.8443V15.3428H227.568C225.611 15.3428 224.994 16.0799 224.994 17.0627C224.994 18.1274 225.879 18.8372 227.354 18.8372Z" fill="white"/>
<path d="M243.476 8.7361C244.495 7.31648 246.212 6.57937 248.438 6.57937V10.5106C248.089 10.4833 247.821 10.456 247.499 10.456C245.193 10.456 243.664 11.7391 243.664 14.5511V21.4853H239.48V6.79778H243.476V8.7361Z" fill="white"/>
<path d="M266 14.1962C266 14.5238 265.946 14.9879 265.92 15.3428H255.005C255.407 17.1719 256.936 18.2912 259.135 18.2912C260.663 18.2912 261.763 17.8271 262.755 16.8716L264.981 19.3286C263.64 20.8847 261.629 21.7037 259.027 21.7037C254.039 21.7037 250.794 18.5096 250.794 14.1416C250.794 9.74621 254.093 6.57937 258.491 6.57937C262.728 6.57937 266 9.4732 266 14.1962ZM258.518 9.80081C256.614 9.80081 255.246 10.9747 254.951 12.8584H262.058C261.763 11.002 260.395 9.80081 258.518 9.80081Z" fill="white"/>
</svg>
