<svg width="1600" height="443" viewBox="0 0 1600 443" fill="none" xmlns="http://www.w3.org/2000/svg">
<path opacity="0.06" d="M281.23 272.252C131.81 254.789 1.60059 364.902 1.60059 364.902V443H1602V73.3699C1602 73.3699 1394.97 -22.5856 1249.79 4.97375C1042.12 44.3957 1106.86 267.17 910.93 341.133C666.78 433.3 543.439 302.897 281.23 272.252Z" fill="url(#paint0_linear_50_1088)"/>
<path opacity="0.06" d="M277.495 307.178C126.474 301.842 0 384.305 0 384.305V442.515H1600.4V117.997C1600.4 117.997 1407.25 15.7353 1262.07 43.2946C1054.4 82.7166 1105.26 243.401 909.33 317.364C665.18 409.531 541.663 316.511 277.495 307.178Z" fill="url(#paint1_linear_50_1088)"/>
<defs>
<linearGradient id="paint0_linear_50_1088" x1="847.96" y1="454.157" x2="740.321" y2="-62.5659" gradientUnits="userSpaceOnUse">
<stop stop-color="white"/>
<stop offset="1" stop-color="white" stop-opacity="0"/>
</linearGradient>
<linearGradient id="paint1_linear_50_1088" x1="800.466" y1="473.56" x2="731.462" y2="-83.6203" gradientUnits="userSpaceOnUse">
<stop stop-color="white"/>
<stop offset="1" stop-color="white" stop-opacity="0"/>
</linearGradient>
</defs>
</svg>
