<svg width="22" height="22" viewBox="0 0 22 22" fill="none" xmlns="http://www.w3.org/2000/svg">
<path d="M10.3086 13.75H4.35764L2.5243 18.3333H0.549805L6.41647 3.66663H8.2498L14.1165 18.3333H12.142L10.3086 13.75ZM9.5753 11.9166L7.33314 6.31121L5.09097 11.9166H9.5753ZM19.2498 11.4904V11H21.0831V18.3333H19.2498V17.8429C18.6924 18.1644 18.0602 18.3335 17.4167 18.3333C16.7732 18.3331 16.1411 18.1635 15.5839 17.8416C15.0266 17.5198 14.564 17.0569 14.2423 16.4996C13.9206 15.9423 13.7512 15.3101 13.7512 14.6666C13.7512 14.0231 13.9206 13.391 14.2423 12.8336C14.564 12.2763 15.0266 11.8135 15.5839 11.4916C16.1411 11.1697 16.7732 11.0002 17.4167 11C18.0602 10.9997 18.6924 11.1689 19.2498 11.4904ZM17.4165 16.5C17.9027 16.5 18.369 16.3068 18.7128 15.963C19.0567 15.6192 19.2498 15.1529 19.2498 14.6666C19.2498 14.1804 19.0567 13.7141 18.7128 13.3703C18.369 13.0264 17.9027 12.8333 17.4165 12.8333C16.9302 12.8333 16.4639 13.0264 16.1201 13.3703C15.7763 13.7141 15.5831 14.1804 15.5831 14.6666C15.5831 15.1529 15.7763 15.6192 16.1201 15.963C16.4639 16.3068 16.9302 16.5 17.4165 16.5Z" fill="#1C5DAF"/>
</svg>
