<svg width="23" height="23" viewBox="0 0 23 23" fill="none" xmlns="http://www.w3.org/2000/svg">
<g clip-path="url(#clip0_141_4735)">
<path d="M11.4997 0.958374C9.41473 0.958374 7.37661 1.57663 5.64304 2.73497C3.90948 3.8933 2.55832 5.53968 1.76045 7.46592C0.962575 9.39216 0.753815 11.5117 1.16057 13.5566C1.56732 15.6015 2.57132 17.4798 4.0456 18.9541C5.51987 20.4284 7.39822 21.4324 9.4431 21.8392C11.488 22.2459 13.6076 22.0371 15.5338 21.2393C17.46 20.4414 19.1064 19.0902 20.2648 17.3567C21.4231 15.6231 22.0413 13.585 22.0413 11.5C22.038 8.70523 20.9264 6.02583 18.9501 4.0496C16.9739 2.07337 14.2945 0.961671 11.4997 0.958374ZM11.4997 20.125C9.79382 20.125 8.12626 19.6192 6.70789 18.6715C5.28951 17.7237 4.18402 16.3767 3.53122 14.8007C2.87841 13.2247 2.70761 11.4905 3.04041 9.81739C3.3732 8.1443 4.19466 6.60747 5.40088 5.40124C6.60711 4.19502 8.14394 3.37357 9.81703 3.04077C11.4901 2.70797 13.2243 2.87877 14.8003 3.53158C16.3763 4.18439 17.7234 5.28987 18.6711 6.70825C19.6188 8.12662 20.1247 9.79418 20.1247 11.5C20.1219 13.7867 19.2123 15.9789 17.5954 17.5958C15.9785 19.2127 13.7863 20.1223 11.4997 20.125Z" fill="#1C5DAF"/>
<path d="M12.4577 11.1033V5.75008C12.4577 5.49592 12.3567 5.25216 12.177 5.07244C11.9973 4.89272 11.7535 4.79175 11.4993 4.79175C11.2452 4.79175 11.0014 4.89272 10.8217 5.07244C10.642 5.25216 10.541 5.49592 10.541 5.75008V11.5001C10.5411 11.7542 10.6421 11.9979 10.8218 12.1776L13.6968 15.0526C13.8776 15.2272 14.1196 15.3238 14.3709 15.3216C14.6222 15.3194 14.8625 15.2186 15.0402 15.0409C15.2179 14.8633 15.3187 14.6229 15.3209 14.3716C15.3231 14.1204 15.2265 13.8783 15.0519 13.6975L12.4577 11.1033Z" fill="#1C5DAF"/>
</g>
<defs>
<clipPath id="clip0_141_4735">
<rect width="23" height="23" fill="white"/>
</clipPath>
</defs>
</svg>
