<svg width="30" height="30" viewBox="0 0 30 30" fill="none" xmlns="http://www.w3.org/2000/svg">
<path d="M12.4745 11.3999C12.8935 11.4007 13.2952 11.5676 13.5915 11.8639C13.8878 12.1602 14.0547 12.5619 14.0555 12.9809C14.0555 13.1003 14.1029 13.2148 14.1873 13.2991C14.2717 13.3835 14.3861 13.4309 14.5055 13.4309C14.6248 13.4309 14.7393 13.3835 14.8237 13.2991C14.9081 13.2148 14.9555 13.1003 14.9555 12.9809C14.9541 12.4015 14.7504 11.8406 14.3796 11.3953C14.0088 10.95 13.4941 10.6482 12.9245 10.5419V9.94194C12.9245 9.8226 12.8771 9.70814 12.7927 9.62374C12.7083 9.53935 12.5938 9.49194 12.4745 9.49194C12.3551 9.49194 12.2407 9.53935 12.1563 9.62374C12.0719 9.70814 12.0245 9.8226 12.0245 9.94194V10.5419C11.4524 10.6447 10.9346 10.9452 10.5616 11.3911C10.1887 11.8369 9.98438 12.3997 9.98438 12.9809C9.98438 13.5622 10.1887 14.125 10.5616 14.5708C10.9346 15.0167 11.4524 15.3172 12.0245 15.4199V15.4619L12.0605 15.4259C12.1973 15.4486 12.3357 15.4606 12.4745 15.4619C12.787 15.4625 13.0924 15.5558 13.352 15.7298C13.6116 15.9039 13.8138 16.1511 13.933 16.44C14.0522 16.7289 14.0831 17.0467 14.0217 17.3532C13.9604 17.6597 13.8096 17.9411 13.5883 18.1619C13.3671 18.3827 13.0854 18.533 12.7788 18.5938C12.4722 18.6545 12.1545 18.6231 11.8658 18.5033C11.577 18.3836 11.3303 18.1809 11.1567 17.921C10.9831 17.6611 10.8905 17.3555 10.8905 17.0429C10.8905 16.9236 10.8431 16.8091 10.7587 16.7247C10.6743 16.6404 10.5598 16.5929 10.4405 16.5929C10.3211 16.5929 10.2067 16.6404 10.1223 16.7247C10.0379 16.8091 9.99047 16.9236 9.99047 17.0429C9.99196 17.6229 10.1961 18.184 10.5675 18.6294C10.9389 19.0747 11.4543 19.3763 12.0245 19.4819V20.0819C12.0245 20.2013 12.0719 20.3158 12.1563 20.4001C12.2407 20.4845 12.3551 20.5319 12.4745 20.5319C12.5938 20.5319 12.7083 20.4845 12.7927 20.4001C12.8771 20.3158 12.9245 20.2013 12.9245 20.0819V19.4819C13.4938 19.3758 14.0081 19.0739 14.3782 18.6284C14.7483 18.183 14.9509 17.6221 14.9509 17.0429C14.9509 16.4638 14.7483 15.9029 14.3782 15.4575C14.0081 15.012 13.4938 14.7101 12.9245 14.6039V14.5499L12.8855 14.5859C12.7496 14.5633 12.6122 14.5512 12.4745 14.5499C12.0552 14.5499 11.653 14.3834 11.3565 14.0869C11.06 13.7904 10.8935 13.3883 10.8935 12.9689C10.8935 12.5496 11.06 12.1475 11.3565 11.851C11.653 11.5545 12.0552 11.3879 12.4745 11.3879V11.3999Z" fill="#1C5DAF"/>
<path d="M22.3502 4.305C22.3133 4.22892 22.2558 4.16475 22.1842 4.11986C22.1126 4.07496 22.0297 4.05115 21.9452 4.05115C21.8607 4.05115 21.7778 4.07496 21.7062 4.11986C21.6346 4.16475 21.577 4.22892 21.5402 4.305L19.6742 8.184C18.3459 6.77905 16.6361 5.79282 14.7549 5.34655C12.8737 4.90027 10.9031 5.01341 9.08529 5.67205C7.2675 6.33068 5.68178 7.50611 4.52305 9.05385C3.36432 10.6016 2.68308 12.4542 2.56308 14.3839C2.44307 16.3136 2.88953 18.2363 3.84757 19.9156C4.80561 21.595 6.23348 22.9579 7.95565 23.8366C9.67782 24.7154 11.6192 25.0718 13.5413 24.8621C15.4633 24.6523 17.2821 23.8856 18.7742 22.656V25.5C18.7742 25.6193 18.8216 25.7338 18.906 25.8182C18.9904 25.9026 19.1048 25.95 19.2242 25.95H24.6632C24.7825 25.95 24.897 25.9026 24.9814 25.8182C25.0658 25.7338 25.1132 25.6193 25.1132 25.5V15.45H27.0002C27.0764 15.4506 27.1514 15.4316 27.2182 15.3949C27.2849 15.3581 27.341 15.3047 27.3812 15.24C27.4217 15.1755 27.4451 15.1017 27.4493 15.0256C27.4535 14.9495 27.4383 14.8736 27.4052 14.805L22.3502 4.305ZM18.7802 21.444C17.4901 22.7086 15.8502 23.5569 14.0726 23.879C12.2951 24.2012 10.4618 23.9825 8.80991 23.2511C7.15807 22.5197 5.76375 21.3094 4.80743 19.7768C3.8511 18.2442 3.37678 16.4598 3.44586 14.6546C3.51493 12.8495 4.12423 11.1066 5.19488 9.6515C6.26553 8.19645 7.74826 7.09623 9.45116 6.49324C11.1541 5.89026 12.9988 5.81225 14.7465 6.26933C16.4942 6.72641 18.0645 7.69752 19.2542 9.057L18.6542 10.299C17.6642 8.99733 16.2887 8.04122 14.7237 7.56682C13.1586 7.09242 11.4838 7.12393 9.93767 7.65685C8.39156 8.18978 7.05303 9.19695 6.11268 10.5349C5.17233 11.8729 4.67812 13.4735 4.70042 15.1087C4.72273 16.7439 5.26042 18.3304 6.23691 19.6422C7.2134 20.9541 8.57892 21.9244 10.139 22.4149C11.699 22.9055 13.3741 22.8913 14.9256 22.3744C16.4772 21.8575 17.8261 20.8642 18.7802 19.536V21.444ZM18.7802 17.727C18.1739 19.1325 17.1159 20.2954 15.774 21.0317C14.432 21.7679 12.8828 22.0353 11.3716 21.7916C9.8605 21.5478 8.47391 20.8068 7.43151 19.6859C6.38912 18.5651 5.75052 17.1284 5.61689 15.6036C5.48326 14.0788 5.86223 12.553 6.69377 11.2679C7.52531 9.98281 8.76187 9.01192 10.2076 8.50903C11.6533 8.00614 13.2254 8.00001 14.675 8.49161C16.1246 8.98321 17.3687 9.94443 18.2102 11.223L16.5002 14.805C16.4642 14.8719 16.4454 14.9466 16.4454 15.0225C16.4454 15.0984 16.4642 15.1731 16.5002 15.24C16.541 15.3042 16.5972 15.357 16.6638 15.3937C16.7304 15.4304 16.8052 15.4498 16.8812 15.45H18.7712L18.7802 17.727ZM24.6632 14.55C24.5438 14.55 24.4294 14.5974 24.345 14.6818C24.2606 14.7662 24.2132 14.8807 24.2132 15V25.05H19.6802V15C19.6802 14.8807 19.6328 14.7662 19.5484 14.6818C19.464 14.5974 19.3495 14.55 19.2302 14.55H17.6072L21.9452 5.55L26.2832 14.55H24.6632Z" fill="#1C5DAF"/>
</svg>
