<svg width="21" height="21" viewBox="0 0 21 21" fill="none" xmlns="http://www.w3.org/2000/svg">
<g clip-path="url(#clip0_141_4729)">
<path d="M20.4585 6.60872C19.7388 5.88906 18.5679 5.88911 17.848 6.60889L15.9971 8.4614V3.58583C15.9971 3.09282 15.8051 2.62935 15.4564 2.28076L13.7164 0.540586C13.3678 0.191953 12.9042 0 12.4112 0H1.84668C0.828959 0 0.000976562 0.827982 0.000976562 1.8457V19.1543C0.000976562 20.172 0.828959 21 1.84668 21H14.1514C15.1691 21 15.9971 20.172 15.9971 19.1543V13.6841L20.4584 9.21896C21.1798 8.49766 21.1799 7.33011 20.4585 6.60872ZM12.3057 1.23047C12.4219 1.23047 12.6459 1.21033 12.8463 1.41065L14.5864 3.15082C14.7817 3.3461 14.7666 3.56007 14.7666 3.69141H12.3057V1.23047ZM14.7666 19.1543C14.7666 19.4935 14.4906 19.7695 14.1514 19.7695H1.84668C1.50744 19.7695 1.23145 19.4935 1.23145 19.1543V1.8457C1.23145 1.50646 1.50744 1.23047 1.84668 1.23047H11.0752V4.30664C11.0752 4.64641 11.3507 4.92188 11.6904 4.92188H14.7666V9.69294L12.9514 11.5096L12.0818 12.3793C12.0142 12.4469 11.9633 12.5292 11.9331 12.6198L11.063 15.23C11.0269 15.3384 11.0216 15.4548 11.0479 15.566C11.0741 15.6772 11.1308 15.7789 11.2116 15.8597C11.2924 15.9405 11.3941 15.9972 11.5053 16.0234C11.6165 16.0497 11.7328 16.0444 11.8412 16.0083L14.4515 15.1382C14.5421 15.108 14.6244 15.0571 14.692 14.9896L14.7666 14.9149V19.1543ZM13.3868 12.8144L14.2569 13.6845L13.9246 14.0168L12.6195 14.4518L13.0545 13.1467L13.3868 12.8144ZM15.1268 12.8142L14.2567 11.9441L17.2142 8.98419L18.0842 9.85425L15.1268 12.8142ZM19.5882 8.34906L18.954 8.98382L18.0839 8.11375L18.7183 7.47879C18.9584 7.23889 19.3486 7.23893 19.5884 7.47879C19.8283 7.71873 19.8295 8.10768 19.5882 8.34906Z" fill="#1C5DAF"/>
<path d="M11.6904 6.15234H3.07715C2.73737 6.15234 2.46191 6.4278 2.46191 6.76758C2.46191 7.10735 2.73737 7.38281 3.07715 7.38281H11.6904C12.0302 7.38281 12.3057 7.10735 12.3057 6.76758C12.3057 6.4278 12.0302 6.15234 11.6904 6.15234ZM9.22949 8.61328H3.07715C2.73737 8.61328 2.46191 8.88874 2.46191 9.22852C2.46191 9.56829 2.73737 9.84375 3.07715 9.84375H9.22949C9.56927 9.84375 9.84473 9.56829 9.84473 9.22852C9.84473 8.88874 9.56927 8.61328 9.22949 8.61328ZM9.22949 11.0742H3.07715C2.73737 11.0742 2.46191 11.3497 2.46191 11.6895C2.46191 12.0292 2.73737 12.3047 3.07715 12.3047H9.22949C9.56927 12.3047 9.84473 12.0292 9.84473 11.6895C9.84473 11.3497 9.56927 11.0742 9.22949 11.0742ZM9.22949 13.5352H3.07715C2.73737 13.5352 2.46191 13.8106 2.46191 14.1504C2.46191 14.4902 2.73737 14.7656 3.07715 14.7656H9.22949C9.56927 14.7656 9.84473 14.4902 9.84473 14.1504C9.84473 13.8106 9.56927 13.5352 9.22949 13.5352ZM11.6904 17.3086H7.99902C7.65925 17.3086 7.38379 17.5841 7.38379 17.9238C7.38379 18.2636 7.65925 18.5391 7.99902 18.5391H11.6904C12.0302 18.5391 12.3057 18.2636 12.3057 17.9238C12.3057 17.5841 12.0302 17.3086 11.6904 17.3086Z" fill="#1C5DAF"/>
</g>
<defs>
<clipPath id="clip0_141_4729">
<rect width="21" height="21" fill="white"/>
</clipPath>
</defs>
</svg>
