<svg width="182" height="58" viewBox="0 0 182 58" fill="none" xmlns="http://www.w3.org/2000/svg">
<g opacity="0.6">
<path d="M41.4461 2.8928C42.2448 2.8928 42.8922 2.24523 42.8922 1.4464C42.8922 0.647572 42.2448 0 41.4461 0C40.6475 0 40 0.647572 40 1.4464C40 2.24523 40.6475 2.8928 41.4461 2.8928Z" fill="#1C5DAF"/>
<path d="M56.8631 2.8928C57.6618 2.8928 58.3092 2.24523 58.3092 1.4464C58.3092 0.647572 57.6618 0 56.8631 0C56.0644 0 55.417 0.647572 55.417 1.4464C55.417 2.24523 56.0644 2.8928 56.8631 2.8928Z" fill="#1C5DAF"/>
<path d="M72.2794 2.8928C73.078 2.8928 73.7255 2.24523 73.7255 1.4464C73.7255 0.647572 73.078 0 72.2794 0C71.4807 0 70.8333 0.647572 70.8333 1.4464C70.8333 2.24523 71.4807 2.8928 72.2794 2.8928Z" fill="#1C5DAF"/>
<path d="M87.6959 2.8928C88.4945 2.8928 89.142 2.24523 89.142 1.4464C89.142 0.647572 88.4945 0 87.6959 0C86.8972 0 86.2498 0.647572 86.2498 1.4464C86.2498 2.24523 86.8972 2.8928 87.6959 2.8928Z" fill="#1C5DAF"/>
<path d="M103.112 2.8928C103.911 2.8928 104.558 2.24523 104.558 1.4464C104.558 0.647572 103.911 0 103.112 0C102.313 0 101.666 0.647572 101.666 1.4464C101.666 2.24523 102.313 2.8928 103.112 2.8928Z" fill="#1C5DAF"/>
<path d="M118.542 2.8928C119.341 2.8928 119.988 2.24523 119.988 1.4464C119.988 0.647572 119.341 0 118.542 0C117.743 0 117.096 0.647572 117.096 1.4464C117.096 2.24523 117.743 2.8928 118.542 2.8928Z" fill="#1C5DAF"/>
<path d="M133.959 2.8928C134.757 2.8928 135.405 2.24523 135.405 1.4464C135.405 0.647572 134.757 0 133.959 0C133.16 0 132.512 0.647572 132.512 1.4464C132.512 2.24523 133.16 2.8928 133.959 2.8928Z" fill="#1C5DAF"/>
<path d="M149.375 2.8928C150.173 2.8928 150.821 2.24523 150.821 1.4464C150.821 0.647572 150.173 0 149.375 0C148.576 0 147.929 0.647572 147.929 1.4464C147.929 2.24523 148.576 2.8928 149.375 2.8928Z" fill="#1C5DAF"/>
<path d="M164.792 2.8928C165.59 2.8928 166.238 2.24523 166.238 1.4464C166.238 0.647572 165.59 0 164.792 0C163.993 0 163.346 0.647572 163.346 1.4464C163.346 2.24523 163.993 2.8928 164.792 2.8928Z" fill="#1C5DAF"/>
<path d="M180.209 2.8928C181.007 2.8928 181.655 2.24523 181.655 1.4464C181.655 0.647572 181.007 0 180.209 0C179.41 0 178.763 0.647572 178.763 1.4464C178.763 2.24523 179.41 2.8928 180.209 2.8928Z" fill="#1C5DAF"/>
<path d="M21.201 21.2053C21.9997 21.2053 22.6471 20.5577 22.6471 19.7589C22.6471 18.9601 21.9997 18.3125 21.201 18.3125C20.4023 18.3125 19.7549 18.9601 19.7549 19.7589C19.7549 20.5577 20.4023 21.2053 21.201 21.2053Z" fill="#1C5DAF"/>
<path d="M36.618 21.2053C37.4166 21.2053 38.0641 20.5577 38.0641 19.7589C38.0641 18.9601 37.4166 18.3125 36.618 18.3125C35.8193 18.3125 35.1719 18.9601 35.1719 19.7589C35.1719 20.5577 35.8193 21.2053 36.618 21.2053Z" fill="#1C5DAF"/>
<path d="M52.0467 21.2053C52.8454 21.2053 53.4928 20.5577 53.4928 19.7589C53.4928 18.9601 52.8454 18.3125 52.0467 18.3125C51.248 18.3125 50.6006 18.9601 50.6006 19.7589C50.6006 20.5577 51.248 21.2053 52.0467 21.2053Z" fill="#1C5DAF"/>
<path d="M67.4637 21.2053C68.2624 21.2053 68.9098 20.5577 68.9098 19.7589C68.9098 18.9601 68.2624 18.3125 67.4637 18.3125C66.665 18.3125 66.0176 18.9601 66.0176 19.7589C66.0176 20.5577 66.665 21.2053 67.4637 21.2053Z" fill="#1C5DAF"/>
<path d="M82.8807 21.2053C83.6793 21.2053 84.3268 20.5577 84.3268 19.7589C84.3268 18.9601 83.6793 18.3125 82.8807 18.3125C82.082 18.3125 81.4346 18.9601 81.4346 19.7589C81.4346 20.5577 82.082 21.2053 82.8807 21.2053Z" fill="#1C5DAF"/>
<path d="M98.297 21.2053C99.0956 21.2053 99.7431 20.5577 99.7431 19.7589C99.7431 18.9601 99.0956 18.3125 98.297 18.3125C97.4983 18.3125 96.8508 18.9601 96.8508 19.7589C96.8508 20.5577 97.4983 21.2053 98.297 21.2053Z" fill="#1C5DAF"/>
<path d="M113.714 21.2053C114.512 21.2053 115.16 20.5577 115.16 19.7589C115.16 18.9601 114.512 18.3125 113.714 18.3125C112.915 18.3125 112.268 18.9601 112.268 19.7589C112.268 20.5577 112.915 21.2053 113.714 21.2053Z" fill="#1C5DAF"/>
<path d="M129.143 21.2053C129.942 21.2053 130.589 20.5577 130.589 19.7589C130.589 18.9601 129.942 18.3125 129.143 18.3125C128.345 18.3125 127.697 18.9601 127.697 19.7589C127.697 20.5577 128.345 21.2053 129.143 21.2053Z" fill="#1C5DAF"/>
<path d="M144.56 21.2053C145.358 21.2053 146.006 20.5577 146.006 19.7589C146.006 18.9601 145.358 18.3125 144.56 18.3125C143.761 18.3125 143.114 18.9601 143.114 19.7589C143.114 20.5577 143.761 21.2053 144.56 21.2053Z" fill="#1C5DAF"/>
<path d="M159.976 21.2053C160.775 21.2053 161.422 20.5577 161.422 19.7589C161.422 18.9601 160.775 18.3125 159.976 18.3125C159.177 18.3125 158.53 18.9601 158.53 19.7589C158.53 20.5577 159.177 21.2053 159.976 21.2053Z" fill="#1C5DAF"/>
<path d="M1.44613 39.5179C2.24479 39.5179 2.89223 38.8703 2.89223 38.0715C2.89223 37.2727 2.24479 36.6251 1.44613 36.6251C0.64746 36.6251 0 37.2727 0 38.0715C0 38.8703 0.64746 39.5179 1.44613 39.5179Z" fill="#1C5DAF"/>
<path d="M16.8631 39.5179C17.6618 39.5179 18.3092 38.8703 18.3092 38.0715C18.3092 37.2727 17.6618 36.6251 16.8631 36.6251C16.0644 36.6251 15.417 37.2727 15.417 38.0715C15.417 38.8703 16.0644 39.5179 16.8631 39.5179Z" fill="#1C5DAF"/>
<path d="M32.2794 39.5179C33.078 39.5179 33.7255 38.8703 33.7255 38.0715C33.7255 37.2727 33.078 36.6251 32.2794 36.6251C31.4807 36.6251 30.8333 37.2727 30.8333 38.0715C30.8333 38.8703 31.4807 39.5179 32.2794 39.5179Z" fill="#1C5DAF"/>
<path d="M47.6959 39.5179C48.4945 39.5179 49.142 38.8703 49.142 38.0715C49.142 37.2727 48.4945 36.6251 47.6959 36.6251C46.8972 36.6251 46.2498 37.2727 46.2498 38.0715C46.2498 38.8703 46.8972 39.5179 47.6959 39.5179Z" fill="#1C5DAF"/>
<path d="M63.1121 39.5179C63.9108 39.5179 64.5582 38.8703 64.5582 38.0715C64.5582 37.2727 63.9108 36.6251 63.1121 36.6251C62.3135 36.6251 61.666 37.2727 61.666 38.0715C61.666 38.8703 62.3135 39.5179 63.1121 39.5179Z" fill="#1C5DAF"/>
<path d="M78.5421 39.5179C79.3407 39.5179 79.9882 38.8703 79.9882 38.0715C79.9882 37.2727 79.3407 36.6251 78.5421 36.6251C77.7434 36.6251 77.0959 37.2727 77.0959 38.0715C77.0959 38.8703 77.7434 39.5179 78.5421 39.5179Z" fill="#1C5DAF"/>
<path d="M93.9586 39.5179C94.7572 39.5179 95.4047 38.8703 95.4047 38.0715C95.4047 37.2727 94.7572 36.6251 93.9586 36.6251C93.1599 36.6251 92.5125 37.2727 92.5125 38.0715C92.5125 38.8703 93.1599 39.5179 93.9586 39.5179Z" fill="#1C5DAF"/>
<path d="M109.375 39.5179C110.173 39.5179 110.821 38.8703 110.821 38.0715C110.821 37.2727 110.173 36.6251 109.375 36.6251C108.576 36.6251 107.929 37.2727 107.929 38.0715C107.929 38.8703 108.576 39.5179 109.375 39.5179Z" fill="#1C5DAF"/>
<path d="M124.792 39.5179C125.59 39.5179 126.238 38.8703 126.238 38.0715C126.238 37.2727 125.59 36.6251 124.792 36.6251C123.993 36.6251 123.346 37.2727 123.346 38.0715C123.346 38.8703 123.993 39.5179 124.792 39.5179Z" fill="#1C5DAF"/>
<path d="M140.209 39.5179C141.007 39.5179 141.655 38.8703 141.655 38.0715C141.655 37.2727 141.007 36.6251 140.209 36.6251C139.41 36.6251 138.763 37.2727 138.763 38.0715C138.763 38.8703 139.41 39.5179 140.209 39.5179Z" fill="#1C5DAF"/>
<path d="M21.201 57.8305C21.9997 57.8305 22.6471 57.183 22.6471 56.3841C22.6471 55.5853 21.9997 54.9377 21.201 54.9377C20.4023 54.9377 19.7549 55.5853 19.7549 56.3841C19.7549 57.183 20.4023 57.8305 21.201 57.8305Z" fill="#1C5DAF"/>
<path d="M36.618 57.8305C37.4166 57.8305 38.0641 57.183 38.0641 56.3841C38.0641 55.5853 37.4166 54.9377 36.618 54.9377C35.8193 54.9377 35.1719 55.5853 35.1719 56.3841C35.1719 57.183 35.8193 57.8305 36.618 57.8305Z" fill="#1C5DAF"/>
<path d="M52.0467 57.8305C52.8454 57.8305 53.4928 57.183 53.4928 56.3841C53.4928 55.5853 52.8454 54.9377 52.0467 54.9377C51.248 54.9377 50.6006 55.5853 50.6006 56.3841C50.6006 57.183 51.248 57.8305 52.0467 57.8305Z" fill="#1C5DAF"/>
<path d="M67.4637 57.8305C68.2624 57.8305 68.9098 57.183 68.9098 56.3841C68.9098 55.5853 68.2624 54.9377 67.4637 54.9377C66.665 54.9377 66.0176 55.5853 66.0176 56.3841C66.0176 57.183 66.665 57.8305 67.4637 57.8305Z" fill="#1C5DAF"/>
<path d="M82.8807 57.8305C83.6793 57.8305 84.3268 57.183 84.3268 56.3841C84.3268 55.5853 83.6793 54.9377 82.8807 54.9377C82.082 54.9377 81.4346 55.5853 81.4346 56.3841C81.4346 57.183 82.082 57.8305 82.8807 57.8305Z" fill="#1C5DAF"/>
<path d="M98.297 57.8305C99.0956 57.8305 99.7431 57.183 99.7431 56.3841C99.7431 55.5853 99.0956 54.9377 98.297 54.9377C97.4983 54.9377 96.8508 55.5853 96.8508 56.3841C96.8508 57.183 97.4983 57.8305 98.297 57.8305Z" fill="#1C5DAF"/>
<path d="M113.714 57.8305C114.512 57.8305 115.16 57.183 115.16 56.3841C115.16 55.5853 114.512 54.9377 113.714 54.9377C112.915 54.9377 112.268 55.5853 112.268 56.3841C112.268 57.183 112.915 57.8305 113.714 57.8305Z" fill="#1C5DAF"/>
<path d="M129.143 57.8305C129.942 57.8305 130.589 57.183 130.589 56.3841C130.589 55.5853 129.942 54.9377 129.143 54.9377C128.345 54.9377 127.697 55.5853 127.697 56.3841C127.697 57.183 128.345 57.8305 129.143 57.8305Z" fill="#1C5DAF"/>
<path d="M144.56 57.8305C145.358 57.8305 146.006 57.183 146.006 56.3841C146.006 55.5853 145.358 54.9377 144.56 54.9377C143.761 54.9377 143.114 55.5853 143.114 56.3841C143.114 57.183 143.761 57.8305 144.56 57.8305Z" fill="#1C5DAF"/>
<path d="M159.976 57.8305C160.775 57.8305 161.422 57.183 161.422 56.3841C161.422 55.5853 160.775 54.9377 159.976 54.9377C159.177 54.9377 158.53 55.5853 158.53 56.3841C158.53 57.183 159.177 57.8305 159.976 57.8305Z" fill="#1C5DAF"/>
</g>
</svg>
