<svg width="13" height="12" viewBox="0 0 13 12" fill="none" xmlns="http://www.w3.org/2000/svg">
<g clip-path="url(#clip0_50_1107)">
<path d="M12.5238 3.52803C12.4957 2.89041 12.3926 2.45209 12.2449 2.07223C12.0925 1.66905 11.8581 1.30809 11.551 1.00801C11.2509 0.703262 10.8875 0.46645 10.489 0.316468C10.107 0.168783 9.67094 0.0656378 9.03334 0.0375542C8.39096 0.00703262 8.18704 0 6.55781 0C4.92859 0 4.72467 0.00703262 4.08467 0.0351631C3.44707 0.0632936 3.00873 0.166486 2.62899 0.314077C2.22569 0.46645 1.86473 0.700871 1.56465 1.00801C1.2599 1.30807 1.02321 1.67142 0.873109 2.06994C0.725424 2.45209 0.622302 2.88806 0.594195 3.52564C0.563697 4.16802 0.556641 4.37195 0.556641 6.00117C0.556641 7.6304 0.563697 7.83434 0.591804 8.47431C0.619934 9.11194 0.723126 9.55025 0.870835 9.93011C1.02321 10.3333 1.2599 10.6943 1.56465 10.9943C1.86473 11.2991 2.22808 11.5359 2.6266 11.6859C3.00871 11.8336 3.44468 11.9367 4.0824 11.9648C4.72227 11.993 4.92631 12 6.55554 12C8.18476 12 8.38869 11.993 9.02868 11.9648C9.66628 11.9367 10.1046 11.8336 10.4844 11.6859C10.8832 11.5317 11.2454 11.2958 11.5478 10.9935C11.8502 10.6911 12.086 10.3289 12.2402 9.93011C12.3878 9.54798 12.491 9.11191 12.5192 8.47431C12.5473 7.83434 12.5543 7.6304 12.5543 6.00117C12.5543 4.37195 12.5519 4.168 12.5238 3.52803ZM11.4432 8.42743C11.4174 9.01348 11.3189 9.32995 11.2369 9.54093C11.0352 10.0637 10.6203 10.4786 10.0976 10.6803C9.88659 10.7623 9.56785 10.8607 8.98407 10.8865C8.35113 10.9147 8.16132 10.9216 6.5602 10.9216C4.95909 10.9216 4.76688 10.9147 4.13622 10.8865C3.55017 10.8607 3.2337 10.7623 3.02272 10.6803C2.76259 10.5841 2.5258 10.4317 2.33357 10.2325C2.13432 10.0379 1.98194 9.80348 1.88578 9.54332C1.80374 9.33234 1.7053 9.01348 1.67959 8.42982C1.65136 7.79688 1.64442 7.60695 1.64442 6.00584C1.64442 4.40472 1.65136 4.21252 1.67959 3.58197C1.7053 2.99592 1.80374 2.67945 1.88578 2.46847C1.98194 2.20822 2.13432 1.97148 2.33596 1.77921C2.53044 1.57995 2.76486 1.42758 3.02512 1.33153C3.23609 1.24949 3.55495 1.15103 4.13861 1.12522C4.77155 1.09709 4.96148 1.09006 6.56248 1.09006C8.16599 1.09006 8.3558 1.09709 8.98646 1.12522C9.57251 1.15105 9.88898 1.24946 10.1 1.33151C10.3601 1.42758 10.5969 1.57995 10.7891 1.77921C10.9884 1.9738 11.1407 2.20822 11.2369 2.46847C11.3189 2.67945 11.4174 2.99819 11.4432 3.58197C11.4713 4.21491 11.4784 4.40472 11.4784 6.00584C11.4784 7.60695 11.4713 7.79449 11.4432 8.42743Z" fill="white"/>
<path d="M6.55822 2.91867C4.85637 2.91867 3.47559 4.29936 3.47559 6.00131C3.47559 7.70325 4.85637 9.08394 6.55822 9.08394C8.26011 9.08394 9.64085 7.70325 9.64085 6.00131C9.64085 4.29936 8.26011 2.91867 6.55822 2.91867ZM6.55822 8.00092C5.45414 8.00092 4.55856 7.10547 4.55856 6.00131C4.55856 4.89714 5.45414 4.0017 6.5582 4.0017C7.66236 4.0017 8.55783 4.89714 8.55783 6.00131C8.55783 7.10547 7.66234 8.00092 6.55822 8.00092ZM10.4825 2.79677C10.4825 3.19421 10.1602 3.51645 9.7627 3.51645C9.36529 3.51645 9.04306 3.19421 9.04306 2.79677C9.04306 2.39929 9.36529 2.07715 9.76273 2.07715C10.1602 2.07715 10.4825 2.39927 10.4825 2.79677Z" fill="white"/>
</g>
<defs>
<clipPath id="clip0_50_1107">
<rect width="12" height="12" fill="white" transform="translate(0.535156)"/>
</clipPath>
</defs>
</svg>
