<svg width="14" height="13" viewBox="0 0 14 13" fill="none" xmlns="http://www.w3.org/2000/svg">
<path fill-rule="evenodd" clip-rule="evenodd" d="M5.31713 4.52985H7.73123V5.73235C8.07898 5.04075 8.97078 4.41935 10.3104 4.41935C12.8786 4.41935 13.4883 5.79605 13.4883 8.32195V13H10.8883V8.8972C10.8883 7.45875 10.5405 6.64755 9.65523 6.64755C8.42738 6.64755 7.91713 7.5218 7.91713 8.89655V13H5.31713V4.52985ZM0.858781 12.8895H3.45878V4.41935H0.858781V12.8895ZM3.83123 1.6575C3.83133 1.87543 3.78811 2.0912 3.70408 2.29228C3.62006 2.49336 3.4969 2.67573 3.34178 2.8288C3.02744 3.14121 2.60196 3.31607 2.15878 3.315C1.71638 3.3147 1.29188 3.14028 0.977081 2.82945C0.822519 2.67586 0.699782 2.49329 0.615905 2.29218C0.532027 2.09108 0.488658 1.8754 0.488281 1.6575C0.488281 1.21745 0.663781 0.79625 0.977731 0.48555C1.29226 0.174303 1.71694 -0.000194487 2.15943 1.62672e-07C2.60273 1.62672e-07 3.02783 0.17485 3.34178 0.48555C3.65508 0.79625 3.83123 1.21745 3.83123 1.6575Z" fill="white"/>
</svg>
