<svg width="180" height="19" viewBox="0 0 180 19" fill="none" xmlns="http://www.w3.org/2000/svg">
<path d="M9.746 8.448C10.466 8.676 11.03 9.06 11.438 9.6C11.846 10.128 12.05 10.782 12.05 11.562C12.05 12.666 11.618 13.518 10.754 14.118C9.902 14.706 8.654 15 7.01 15H0.494V2.4H6.65C8.186 2.4 9.362 2.694 10.178 3.282C11.006 3.87 11.42 4.668 11.42 5.676C11.42 6.288 11.27 6.834 10.97 7.314C10.682 7.794 10.274 8.172 9.746 8.448ZM3.392 4.596V7.566H6.29C7.01 7.566 7.556 7.44 7.928 7.188C8.3 6.936 8.486 6.564 8.486 6.072C8.486 5.58 8.3 5.214 7.928 4.974C7.556 4.722 7.01 4.596 6.29 4.596H3.392ZM6.794 12.804C7.562 12.804 8.138 12.678 8.522 12.426C8.918 12.174 9.116 11.784 9.116 11.256C9.116 10.212 8.342 9.69 6.794 9.69H3.392V12.804H6.794ZM14.7797 1.644H17.5877V15H14.7797V1.644ZM30.6697 5.316V15H28.0057V13.848C27.6337 14.268 27.1897 14.592 26.6737 14.82C26.1577 15.036 25.5997 15.144 24.9997 15.144C23.7277 15.144 22.7197 14.778 21.9757 14.046C21.2317 13.314 20.8597 12.228 20.8597 10.788V5.316H23.6677V10.374C23.6677 11.934 24.3217 12.714 25.6297 12.714C26.3017 12.714 26.8417 12.498 27.2497 12.066C27.6577 11.622 27.8617 10.968 27.8617 10.104V5.316H30.6697ZM43.4772 10.194C43.4772 10.23 43.4592 10.482 43.4232 10.95H36.0972C36.2292 11.55 36.5412 12.024 37.0332 12.372C37.5252 12.72 38.1372 12.894 38.8692 12.894C39.3732 12.894 39.8172 12.822 40.2012 12.678C40.5972 12.522 40.9632 12.282 41.2992 11.958L42.7932 13.578C41.8812 14.622 40.5492 15.144 38.7972 15.144C37.7052 15.144 36.7392 14.934 35.8992 14.514C35.0592 14.082 34.4112 13.488 33.9552 12.732C33.4992 11.976 33.2712 11.118 33.2712 10.158C33.2712 9.21 33.4932 8.358 33.9372 7.602C34.3932 6.834 35.0112 6.24 35.7912 5.82C36.5832 5.388 37.4652 5.172 38.4372 5.172C39.3852 5.172 40.2432 5.376 41.0112 5.784C41.7792 6.192 42.3792 6.78 42.8112 7.548C43.2552 8.304 43.4772 9.186 43.4772 10.194ZM38.4552 7.296C37.8192 7.296 37.2852 7.476 36.8532 7.836C36.4212 8.196 36.1572 8.688 36.0612 9.312H40.8312C40.7352 8.7 40.4712 8.214 40.0392 7.854C39.6072 7.482 39.0792 7.296 38.4552 7.296ZM46.0666 1.644H48.8746V15H46.0666V1.644ZM52.2007 5.316H55.0087V15H52.2007V5.316ZM53.6047 3.966C53.0887 3.966 52.6687 3.816 52.3447 3.516C52.0207 3.216 51.8587 2.844 51.8587 2.4C51.8587 1.956 52.0207 1.584 52.3447 1.284C52.6687 0.983999 53.0887 0.833999 53.6047 0.833999C54.1207 0.833999 54.5407 0.977999 54.8647 1.266C55.1887 1.554 55.3507 1.914 55.3507 2.346C55.3507 2.814 55.1887 3.204 54.8647 3.516C54.5407 3.816 54.1207 3.966 53.6047 3.966ZM68.3248 5.316V13.38C68.3248 15.156 67.8628 16.476 66.9387 17.34C66.0148 18.204 64.6648 18.636 62.8888 18.636C61.9527 18.636 61.0647 18.522 60.2247 18.294C59.3847 18.066 58.6887 17.736 58.1367 17.304L59.2527 15.288C59.6607 15.624 60.1767 15.888 60.8007 16.08C61.4247 16.284 62.0487 16.386 62.6728 16.386C63.6448 16.386 64.3588 16.164 64.8147 15.72C65.2827 15.288 65.5167 14.628 65.5167 13.74V13.326C64.7848 14.13 63.7648 14.532 62.4568 14.532C61.5688 14.532 60.7527 14.34 60.0087 13.956C59.2767 13.56 58.6947 13.008 58.2627 12.3C57.8307 11.592 57.6147 10.776 57.6147 9.852C57.6147 8.928 57.8307 8.112 58.2627 7.404C58.6947 6.696 59.2767 6.15 60.0087 5.766C60.7527 5.37 61.5688 5.172 62.4568 5.172C63.8608 5.172 64.9288 5.634 65.6608 6.558V5.316H68.3248ZM63.0148 12.228C63.7588 12.228 64.3648 12.012 64.8328 11.58C65.3128 11.136 65.5528 10.56 65.5528 9.852C65.5528 9.144 65.3128 8.574 64.8328 8.142C64.3648 7.698 63.7588 7.476 63.0148 7.476C62.2707 7.476 61.6587 7.698 61.1787 8.142C60.6987 8.574 60.4587 9.144 60.4587 9.852C60.4587 10.56 60.6987 11.136 61.1787 11.58C61.6587 12.012 62.2707 12.228 63.0148 12.228ZM77.5443 5.172C78.7443 5.172 79.7103 5.532 80.4423 6.252C81.1863 6.972 81.5583 8.04 81.5583 9.456V15H78.7503V9.888C78.7503 9.12 78.5823 8.55 78.2463 8.178C77.9103 7.794 77.4243 7.602 76.7883 7.602C76.0803 7.602 75.5163 7.824 75.0963 8.268C74.6763 8.7 74.4663 9.348 74.4663 10.212V15H71.6583V1.644H74.4663V6.324C74.8383 5.952 75.2883 5.67 75.8163 5.478C76.3443 5.274 76.9203 5.172 77.5443 5.172ZM91.0696 14.532C90.7936 14.736 90.4516 14.892 90.0436 15C89.6476 15.096 89.2276 15.144 88.7836 15.144C87.6316 15.144 86.7376 14.85 86.1016 14.262C85.4776 13.674 85.1656 12.81 85.1656 11.67V7.692H83.6716V5.532H85.1656V3.174H87.9736V5.532H90.3856V7.692H87.9736V11.634C87.9736 12.042 88.0756 12.36 88.2796 12.588C88.4956 12.804 88.7956 12.912 89.1796 12.912C89.6236 12.912 90.0016 12.792 90.3136 12.552L91.0696 14.532ZM97.747 15.144C96.715 15.144 95.785 14.934 94.957 14.514C94.141 14.082 93.499 13.488 93.031 12.732C92.575 11.976 92.347 11.118 92.347 10.158C92.347 9.198 92.575 8.34 93.031 7.584C93.499 6.828 94.141 6.24 94.957 5.82C95.785 5.388 96.715 5.172 97.747 5.172C98.767 5.172 99.655 5.388 100.411 5.82C101.179 6.24 101.737 6.846 102.085 7.638L99.907 8.808C99.403 7.92 98.677 7.476 97.729 7.476C96.997 7.476 96.391 7.716 95.911 8.196C95.431 8.676 95.191 9.33 95.191 10.158C95.191 10.986 95.431 11.64 95.911 12.12C96.391 12.6 96.997 12.84 97.729 12.84C98.689 12.84 99.415 12.396 99.907 11.508L102.085 12.696C101.737 13.464 101.179 14.064 100.411 14.496C99.655 14.928 98.767 15.144 97.747 15.144ZM108.907 15.144C107.887 15.144 106.969 14.934 106.153 14.514C105.349 14.082 104.719 13.488 104.263 12.732C103.807 11.976 103.579 11.118 103.579 10.158C103.579 9.198 103.807 8.34 104.263 7.584C104.719 6.828 105.349 6.24 106.153 5.82C106.969 5.388 107.887 5.172 108.907 5.172C109.927 5.172 110.839 5.388 111.643 5.82C112.447 6.24 113.077 6.828 113.533 7.584C113.989 8.34 114.217 9.198 114.217 10.158C114.217 11.118 113.989 11.976 113.533 12.732C113.077 13.488 112.447 14.082 111.643 14.514C110.839 14.934 109.927 15.144 108.907 15.144ZM108.907 12.84C109.627 12.84 110.215 12.6 110.671 12.12C111.139 11.628 111.373 10.974 111.373 10.158C111.373 9.342 111.139 8.694 110.671 8.214C110.215 7.722 109.627 7.476 108.907 7.476C108.187 7.476 107.593 7.722 107.125 8.214C106.657 8.694 106.423 9.342 106.423 10.158C106.423 10.974 106.657 11.628 107.125 12.12C107.593 12.6 108.187 12.84 108.907 12.84ZM129.216 5.172C130.428 5.172 131.388 5.532 132.096 6.252C132.816 6.96 133.176 8.028 133.176 9.456V15H130.368V9.888C130.368 9.12 130.206 8.55 129.882 8.178C129.57 7.794 129.12 7.602 128.532 7.602C127.872 7.602 127.35 7.818 126.966 8.25C126.582 8.67 126.39 9.3 126.39 10.14V15H123.582V9.888C123.582 8.364 122.97 7.602 121.746 7.602C121.098 7.602 120.582 7.818 120.198 8.25C119.814 8.67 119.622 9.3 119.622 10.14V15H116.814V5.316H119.496V6.432C119.856 6.024 120.294 5.712 120.81 5.496C121.338 5.28 121.914 5.172 122.538 5.172C123.222 5.172 123.84 5.31 124.392 5.586C124.944 5.85 125.388 6.24 125.724 6.756C126.12 6.252 126.618 5.862 127.218 5.586C127.83 5.31 128.496 5.172 129.216 5.172ZM142.137 5.172C143.037 5.172 143.853 5.382 144.585 5.802C145.329 6.21 145.911 6.792 146.331 7.548C146.751 8.292 146.961 9.162 146.961 10.158C146.961 11.154 146.751 12.03 146.331 12.786C145.911 13.53 145.329 14.112 144.585 14.532C143.853 14.94 143.037 15.144 142.137 15.144C140.901 15.144 139.929 14.754 139.221 13.974V18.492H136.413V5.316H139.095V6.432C139.791 5.592 140.805 5.172 142.137 5.172ZM141.651 12.84C142.371 12.84 142.959 12.6 143.415 12.12C143.883 11.628 144.117 10.974 144.117 10.158C144.117 9.342 143.883 8.694 143.415 8.214C142.959 7.722 142.371 7.476 141.651 7.476C140.931 7.476 140.337 7.722 139.869 8.214C139.413 8.694 139.185 9.342 139.185 10.158C139.185 10.974 139.413 11.628 139.869 12.12C140.337 12.6 140.931 12.84 141.651 12.84ZM153.308 5.172C154.808 5.172 155.96 5.532 156.764 6.252C157.568 6.96 157.97 8.034 157.97 9.474V15H155.342V13.794C154.814 14.694 153.83 15.144 152.39 15.144C151.646 15.144 150.998 15.018 150.446 14.766C149.906 14.514 149.492 14.166 149.204 13.722C148.916 13.278 148.772 12.774 148.772 12.21C148.772 11.31 149.108 10.602 149.78 10.086C150.464 9.57 151.514 9.312 152.93 9.312H155.162C155.162 8.7 154.976 8.232 154.604 7.908C154.232 7.572 153.674 7.404 152.93 7.404C152.414 7.404 151.904 7.488 151.4 7.656C150.908 7.812 150.488 8.028 150.14 8.304L149.132 6.342C149.66 5.97 150.29 5.682 151.022 5.478C151.766 5.274 152.528 5.172 153.308 5.172ZM153.092 13.254C153.572 13.254 153.998 13.146 154.37 12.93C154.742 12.702 155.006 12.372 155.162 11.94V10.95H153.236C152.084 10.95 151.508 11.328 151.508 12.084C151.508 12.444 151.646 12.732 151.922 12.948C152.21 13.152 152.6 13.254 153.092 13.254ZM163.913 6.594C164.249 6.126 164.699 5.772 165.263 5.532C165.839 5.292 166.499 5.172 167.243 5.172V7.764C166.931 7.74 166.721 7.728 166.613 7.728C165.809 7.728 165.179 7.956 164.723 8.412C164.267 8.856 164.039 9.528 164.039 10.428V15H161.231V5.316H163.913V6.594ZM179.031 10.194C179.031 10.23 179.013 10.482 178.977 10.95H171.651C171.783 11.55 172.095 12.024 172.587 12.372C173.079 12.72 173.691 12.894 174.423 12.894C174.927 12.894 175.371 12.822 175.755 12.678C176.151 12.522 176.517 12.282 176.853 11.958L178.347 13.578C177.435 14.622 176.103 15.144 174.351 15.144C173.259 15.144 172.293 14.934 171.453 14.514C170.613 14.082 169.965 13.488 169.509 12.732C169.053 11.976 168.825 11.118 168.825 10.158C168.825 9.21 169.047 8.358 169.491 7.602C169.947 6.834 170.565 6.24 171.345 5.82C172.137 5.388 173.019 5.172 173.991 5.172C174.939 5.172 175.797 5.376 176.565 5.784C177.333 6.192 177.933 6.78 178.365 7.548C178.809 8.304 179.031 9.186 179.031 10.194ZM174.009 7.296C173.373 7.296 172.839 7.476 172.407 7.836C171.975 8.196 171.711 8.688 171.615 9.312H176.385C176.289 8.7 176.025 8.214 175.593 7.854C175.161 7.482 174.633 7.296 174.009 7.296Z" fill="#1C5DAF"/>
</svg>
