<svg width="19" height="19" viewBox="0 0 19 19" fill="none" xmlns="http://www.w3.org/2000/svg">
<path d="M15.0417 3.16663H3.95837C3.32848 3.16663 2.72439 3.41685 2.279 3.86225C1.8336 4.30765 1.58337 4.91174 1.58337 5.54163V13.4583C1.58337 14.0882 1.8336 14.6923 2.279 15.1377C2.72439 15.5831 3.32848 15.8333 3.95837 15.8333H15.0417C15.6716 15.8333 16.2757 15.5831 16.7211 15.1377C17.1665 14.6923 17.4167 14.0882 17.4167 13.4583V5.54163C17.4167 4.91174 17.1665 4.30765 16.7211 3.86225C16.2757 3.41685 15.6716 3.16663 15.0417 3.16663ZM3.95837 4.74996H15.0417C15.2517 4.74996 15.453 4.83337 15.6015 4.98183C15.75 5.1303 15.8334 5.33166 15.8334 5.54163L9.50004 9.40496L3.16671 5.54163C3.16671 5.33166 3.25011 5.1303 3.39858 4.98183C3.54705 4.83337 3.74841 4.74996 3.95837 4.74996ZM15.8334 13.4583C15.8334 13.6683 15.75 13.8696 15.6015 14.0181C15.453 14.1666 15.2517 14.25 15.0417 14.25H3.95837C3.74841 14.25 3.54705 14.1666 3.39858 14.0181C3.25011 13.8696 3.16671 13.6683 3.16671 13.4583V7.34663L9.08837 10.9645C9.20872 11.034 9.34524 11.0706 9.48421 11.0706C9.62317 11.0706 9.75969 11.034 9.88004 10.9645L15.8334 7.34663V13.4583Z" fill="white"/>
</svg>
