<svg width="165" height="61" viewBox="0 0 165 61" fill="none" xmlns="http://www.w3.org/2000/svg">
<g opacity="0.3" clip-path="url(#clip0_50_10)">
<g clip-path="url(#clip1_50_10)">
<circle cx="1.5" cy="53.5" r="1.5" transform="rotate(-90 1.5 53.5)" fill="#1C5DAF"/>
<circle cx="1.5" cy="44.5" r="1.5" transform="rotate(-90 1.5 44.5)" fill="#1C5DAF"/>
<circle cx="1.5" cy="35.5" r="1.5" transform="rotate(-90 1.5 35.5)" fill="#1C5DAF"/>
<circle cx="1.5" cy="26.5" r="1.5" transform="rotate(-90 1.5 26.5)" fill="#1C5DAF"/>
<circle cx="1.5" cy="17.5" r="1.5" transform="rotate(-90 1.5 17.5)" fill="#1C5DAF"/>
<circle cx="1.5" cy="8.5" r="1.5" transform="rotate(-90 1.5 8.5)" fill="#1C5DAF"/>
</g>
<g clip-path="url(#clip2_50_10)">
<circle cx="10.5" cy="53.5" r="1.5" transform="rotate(-90 10.5 53.5)" fill="#1C5DAF"/>
<circle cx="10.5" cy="44.5" r="1.5" transform="rotate(-90 10.5 44.5)" fill="#1C5DAF"/>
<circle cx="10.5" cy="35.5" r="1.5" transform="rotate(-90 10.5 35.5)" fill="#1C5DAF"/>
<circle cx="10.5" cy="26.5" r="1.5" transform="rotate(-90 10.5 26.5)" fill="#1C5DAF"/>
<circle cx="10.5" cy="17.5" r="1.5" transform="rotate(-90 10.5 17.5)" fill="#1C5DAF"/>
<circle cx="10.5" cy="8.5" r="1.5" transform="rotate(-90 10.5 8.5)" fill="#1C5DAF"/>
</g>
<g clip-path="url(#clip3_50_10)">
<circle cx="19.5" cy="53.5" r="1.5" transform="rotate(-90 19.5 53.5)" fill="#1C5DAF"/>
<circle cx="19.5" cy="44.5" r="1.5" transform="rotate(-90 19.5 44.5)" fill="#1C5DAF"/>
<circle cx="19.5" cy="35.5" r="1.5" transform="rotate(-90 19.5 35.5)" fill="#1C5DAF"/>
<circle cx="19.5" cy="26.5" r="1.5" transform="rotate(-90 19.5 26.5)" fill="#1C5DAF"/>
<circle cx="19.5" cy="17.5" r="1.5" transform="rotate(-90 19.5 17.5)" fill="#1C5DAF"/>
<circle cx="19.5" cy="8.5" r="1.5" transform="rotate(-90 19.5 8.5)" fill="#1C5DAF"/>
</g>
<g clip-path="url(#clip4_50_10)">
<circle cx="28.5" cy="53.5" r="1.5" transform="rotate(-90 28.5 53.5)" fill="#1C5DAF"/>
<circle cx="28.5" cy="44.5" r="1.5" transform="rotate(-90 28.5 44.5)" fill="#1C5DAF"/>
<circle cx="28.5" cy="35.5" r="1.5" transform="rotate(-90 28.5 35.5)" fill="#1C5DAF"/>
<circle cx="28.5" cy="26.5" r="1.5" transform="rotate(-90 28.5 26.5)" fill="#1C5DAF"/>
<circle cx="28.5" cy="17.5" r="1.5" transform="rotate(-90 28.5 17.5)" fill="#1C5DAF"/>
<circle cx="28.5" cy="8.5" r="1.5" transform="rotate(-90 28.5 8.5)" fill="#1C5DAF"/>
</g>
<g clip-path="url(#clip5_50_10)">
<circle cx="37.5" cy="53.5" r="1.5" transform="rotate(-90 37.5 53.5)" fill="#1C5DAF"/>
<circle cx="37.5" cy="44.5" r="1.5" transform="rotate(-90 37.5 44.5)" fill="#1C5DAF"/>
<circle cx="37.5" cy="35.5" r="1.5" transform="rotate(-90 37.5 35.5)" fill="#1C5DAF"/>
<circle cx="37.5" cy="26.5" r="1.5" transform="rotate(-90 37.5 26.5)" fill="#1C5DAF"/>
<circle cx="37.5" cy="17.5" r="1.5" transform="rotate(-90 37.5 17.5)" fill="#1C5DAF"/>
<circle cx="37.5" cy="8.5" r="1.5" transform="rotate(-90 37.5 8.5)" fill="#1C5DAF"/>
</g>
<g clip-path="url(#clip6_50_10)">
<circle cx="46.5" cy="53.5" r="1.5" transform="rotate(-90 46.5 53.5)" fill="#1C5DAF"/>
<circle cx="46.5" cy="44.5" r="1.5" transform="rotate(-90 46.5 44.5)" fill="#1C5DAF"/>
<circle cx="46.5" cy="35.5" r="1.5" transform="rotate(-90 46.5 35.5)" fill="#1C5DAF"/>
<circle cx="46.5" cy="26.5" r="1.5" transform="rotate(-90 46.5 26.5)" fill="#1C5DAF"/>
<circle cx="46.5" cy="17.5" r="1.5" transform="rotate(-90 46.5 17.5)" fill="#1C5DAF"/>
<circle cx="46.5" cy="8.5" r="1.5" transform="rotate(-90 46.5 8.5)" fill="#1C5DAF"/>
</g>
<g clip-path="url(#clip7_50_10)">
<circle cx="55.5" cy="53.5" r="1.5" transform="rotate(-90 55.5 53.5)" fill="#1C5DAF"/>
<circle cx="55.5" cy="44.5" r="1.5" transform="rotate(-90 55.5 44.5)" fill="#1C5DAF"/>
<circle cx="55.5" cy="35.5" r="1.5" transform="rotate(-90 55.5 35.5)" fill="#1C5DAF"/>
<circle cx="55.5" cy="26.5" r="1.5" transform="rotate(-90 55.5 26.5)" fill="#1C5DAF"/>
<circle cx="55.5" cy="17.5" r="1.5" transform="rotate(-90 55.5 17.5)" fill="#1C5DAF"/>
<circle cx="55.5" cy="8.5" r="1.5" transform="rotate(-90 55.5 8.5)" fill="#1C5DAF"/>
</g>
<g clip-path="url(#clip8_50_10)">
<circle cx="64.5" cy="53.5" r="1.5" transform="rotate(-90 64.5 53.5)" fill="#1C5DAF"/>
<circle cx="64.5" cy="44.5" r="1.5" transform="rotate(-90 64.5 44.5)" fill="#1C5DAF"/>
<circle cx="64.5" cy="35.5" r="1.5" transform="rotate(-90 64.5 35.5)" fill="#1C5DAF"/>
<circle cx="64.5" cy="26.5" r="1.5" transform="rotate(-90 64.5 26.5)" fill="#1C5DAF"/>
<circle cx="64.5" cy="17.5" r="1.5" transform="rotate(-90 64.5 17.5)" fill="#1C5DAF"/>
<circle cx="64.5" cy="8.5" r="1.5" transform="rotate(-90 64.5 8.5)" fill="#1C5DAF"/>
</g>
<g clip-path="url(#clip9_50_10)">
<circle cx="73.5" cy="53.5" r="1.5" transform="rotate(-90 73.5 53.5)" fill="#1C5DAF"/>
<circle cx="73.5" cy="44.5" r="1.5" transform="rotate(-90 73.5 44.5)" fill="#1C5DAF"/>
<circle cx="73.5" cy="35.5" r="1.5" transform="rotate(-90 73.5 35.5)" fill="#1C5DAF"/>
<circle cx="73.5" cy="26.5" r="1.5" transform="rotate(-90 73.5 26.5)" fill="#1C5DAF"/>
<circle cx="73.5" cy="17.5" r="1.5" transform="rotate(-90 73.5 17.5)" fill="#1C5DAF"/>
<circle cx="73.5" cy="8.5" r="1.5" transform="rotate(-90 73.5 8.5)" fill="#1C5DAF"/>
</g>
<g clip-path="url(#clip10_50_10)">
<circle cx="82.5" cy="53.5" r="1.5" transform="rotate(-90 82.5 53.5)" fill="#1C5DAF"/>
<circle cx="82.5" cy="44.5" r="1.5" transform="rotate(-90 82.5 44.5)" fill="#1C5DAF"/>
<circle cx="82.5" cy="35.5" r="1.5" transform="rotate(-90 82.5 35.5)" fill="#1C5DAF"/>
<circle cx="82.5" cy="26.5" r="1.5" transform="rotate(-90 82.5 26.5)" fill="#1C5DAF"/>
<circle cx="82.5" cy="17.5" r="1.5" transform="rotate(-90 82.5 17.5)" fill="#1C5DAF"/>
<circle cx="82.5" cy="8.5" r="1.5" transform="rotate(-90 82.5 8.5)" fill="#1C5DAF"/>
</g>
<g clip-path="url(#clip11_50_10)">
<circle cx="91.5" cy="53.5" r="1.5" transform="rotate(-90 91.5 53.5)" fill="#1C5DAF"/>
<circle cx="91.5" cy="44.5" r="1.5" transform="rotate(-90 91.5 44.5)" fill="#1C5DAF"/>
<circle cx="91.5" cy="35.5" r="1.5" transform="rotate(-90 91.5 35.5)" fill="#1C5DAF"/>
<circle cx="91.5" cy="26.5" r="1.5" transform="rotate(-90 91.5 26.5)" fill="#1C5DAF"/>
<circle cx="91.5" cy="17.5" r="1.5" transform="rotate(-90 91.5 17.5)" fill="#1C5DAF"/>
<circle cx="91.5" cy="8.5" r="1.5" transform="rotate(-90 91.5 8.5)" fill="#1C5DAF"/>
</g>
<g clip-path="url(#clip12_50_10)">
<circle cx="100.5" cy="53.5" r="1.5" transform="rotate(-90 100.5 53.5)" fill="#1C5DAF"/>
<circle cx="100.5" cy="44.5" r="1.5" transform="rotate(-90 100.5 44.5)" fill="#1C5DAF"/>
<circle cx="100.5" cy="35.5" r="1.5" transform="rotate(-90 100.5 35.5)" fill="#1C5DAF"/>
<circle cx="100.5" cy="26.5" r="1.5" transform="rotate(-90 100.5 26.5)" fill="#1C5DAF"/>
<circle cx="100.5" cy="17.5" r="1.5" transform="rotate(-90 100.5 17.5)" fill="#1C5DAF"/>
<circle cx="100.5" cy="8.5" r="1.5" transform="rotate(-90 100.5 8.5)" fill="#1C5DAF"/>
</g>
<g clip-path="url(#clip13_50_10)">
<circle cx="109.5" cy="53.5" r="1.5" transform="rotate(-90 109.5 53.5)" fill="#1C5DAF"/>
<circle cx="109.5" cy="44.5" r="1.5" transform="rotate(-90 109.5 44.5)" fill="#1C5DAF"/>
<circle cx="109.5" cy="35.5" r="1.5" transform="rotate(-90 109.5 35.5)" fill="#1C5DAF"/>
<circle cx="109.5" cy="26.5" r="1.5" transform="rotate(-90 109.5 26.5)" fill="#1C5DAF"/>
<circle cx="109.5" cy="17.5" r="1.5" transform="rotate(-90 109.5 17.5)" fill="#1C5DAF"/>
<circle cx="109.5" cy="8.5" r="1.5" transform="rotate(-90 109.5 8.5)" fill="#1C5DAF"/>
</g>
<g clip-path="url(#clip14_50_10)">
<circle cx="118.5" cy="53.5" r="1.5" transform="rotate(-90 118.5 53.5)" fill="#1C5DAF"/>
<circle cx="118.5" cy="44.5" r="1.5" transform="rotate(-90 118.5 44.5)" fill="#1C5DAF"/>
<circle cx="118.5" cy="35.5" r="1.5" transform="rotate(-90 118.5 35.5)" fill="#1C5DAF"/>
<circle cx="118.5" cy="26.5" r="1.5" transform="rotate(-90 118.5 26.5)" fill="#1C5DAF"/>
<circle cx="118.5" cy="17.5" r="1.5" transform="rotate(-90 118.5 17.5)" fill="#1C5DAF"/>
<circle cx="118.5" cy="8.5" r="1.5" transform="rotate(-90 118.5 8.5)" fill="#1C5DAF"/>
</g>
<g clip-path="url(#clip15_50_10)">
<circle cx="127.5" cy="53.5" r="1.5" transform="rotate(-90 127.5 53.5)" fill="#1C5DAF"/>
<circle cx="127.5" cy="44.5" r="1.5" transform="rotate(-90 127.5 44.5)" fill="#1C5DAF"/>
<circle cx="127.5" cy="35.5" r="1.5" transform="rotate(-90 127.5 35.5)" fill="#1C5DAF"/>
<circle cx="127.5" cy="26.5" r="1.5" transform="rotate(-90 127.5 26.5)" fill="#1C5DAF"/>
<circle cx="127.5" cy="17.5" r="1.5" transform="rotate(-90 127.5 17.5)" fill="#1C5DAF"/>
<circle cx="127.5" cy="8.5" r="1.5" transform="rotate(-90 127.5 8.5)" fill="#1C5DAF"/>
</g>
<g clip-path="url(#clip16_50_10)">
<circle cx="136.5" cy="53.5" r="1.5" transform="rotate(-90 136.5 53.5)" fill="#1C5DAF"/>
<circle cx="136.5" cy="44.5" r="1.5" transform="rotate(-90 136.5 44.5)" fill="#1C5DAF"/>
<circle cx="136.5" cy="35.5" r="1.5" transform="rotate(-90 136.5 35.5)" fill="#1C5DAF"/>
<circle cx="136.5" cy="26.5" r="1.5" transform="rotate(-90 136.5 26.5)" fill="#1C5DAF"/>
<circle cx="136.5" cy="17.5" r="1.5" transform="rotate(-90 136.5 17.5)" fill="#1C5DAF"/>
<circle cx="136.5" cy="8.5" r="1.5" transform="rotate(-90 136.5 8.5)" fill="#1C5DAF"/>
</g>
<g clip-path="url(#clip17_50_10)">
<circle cx="145.5" cy="53.5" r="1.5" transform="rotate(-90 145.5 53.5)" fill="#1C5DAF"/>
<circle cx="145.5" cy="44.5" r="1.5" transform="rotate(-90 145.5 44.5)" fill="#1C5DAF"/>
<circle cx="145.5" cy="35.5" r="1.5" transform="rotate(-90 145.5 35.5)" fill="#1C5DAF"/>
<circle cx="145.5" cy="26.5" r="1.5" transform="rotate(-90 145.5 26.5)" fill="#1C5DAF"/>
<circle cx="145.5" cy="17.5" r="1.5" transform="rotate(-90 145.5 17.5)" fill="#1C5DAF"/>
<circle cx="145.5" cy="8.5" r="1.5" transform="rotate(-90 145.5 8.5)" fill="#1C5DAF"/>
</g>
<g clip-path="url(#clip18_50_10)">
<circle cx="154.5" cy="53.5" r="1.5" transform="rotate(-90 154.5 53.5)" fill="#1C5DAF"/>
<circle cx="154.5" cy="44.5" r="1.5" transform="rotate(-90 154.5 44.5)" fill="#1C5DAF"/>
<circle cx="154.5" cy="35.5" r="1.5" transform="rotate(-90 154.5 35.5)" fill="#1C5DAF"/>
<circle cx="154.5" cy="26.5" r="1.5" transform="rotate(-90 154.5 26.5)" fill="#1C5DAF"/>
<circle cx="154.5" cy="17.5" r="1.5" transform="rotate(-90 154.5 17.5)" fill="#1C5DAF"/>
<circle cx="154.5" cy="8.5" r="1.5" transform="rotate(-90 154.5 8.5)" fill="#1C5DAF"/>
</g>
<g clip-path="url(#clip19_50_10)">
<circle cx="163.5" cy="53.5" r="1.5" transform="rotate(-90 163.5 53.5)" fill="#1C5DAF"/>
<circle cx="163.5" cy="44.5" r="1.5" transform="rotate(-90 163.5 44.5)" fill="#1C5DAF"/>
<circle cx="163.5" cy="35.5" r="1.5" transform="rotate(-90 163.5 35.5)" fill="#1C5DAF"/>
<circle cx="163.5" cy="26.5" r="1.5" transform="rotate(-90 163.5 26.5)" fill="#1C5DAF"/>
<circle cx="163.5" cy="17.5" r="1.5" transform="rotate(-90 163.5 17.5)" fill="#1C5DAF"/>
<circle cx="163.5" cy="8.5" r="1.5" transform="rotate(-90 163.5 8.5)" fill="#1C5DAF"/>
</g>
</g>
<defs>
<clipPath id="clip0_50_10">
<rect width="61" height="165" fill="white" transform="matrix(0 -1 1 0 0 61)"/>
</clipPath>
<clipPath id="clip1_50_10">
<rect width="100" height="9" fill="white" transform="matrix(0 -1 1 0 0 100)"/>
</clipPath>
<clipPath id="clip2_50_10">
<rect width="100" height="9" fill="white" transform="matrix(0 -1 1 0 9 100)"/>
</clipPath>
<clipPath id="clip3_50_10">
<rect width="100" height="9" fill="white" transform="matrix(0 -1 1 0 18 100)"/>
</clipPath>
<clipPath id="clip4_50_10">
<rect width="100" height="9" fill="white" transform="matrix(0 -1 1 0 27 100)"/>
</clipPath>
<clipPath id="clip5_50_10">
<rect width="100" height="9" fill="white" transform="matrix(0 -1 1 0 36 100)"/>
</clipPath>
<clipPath id="clip6_50_10">
<rect width="100" height="9" fill="white" transform="matrix(0 -1 1 0 45 100)"/>
</clipPath>
<clipPath id="clip7_50_10">
<rect width="100" height="9" fill="white" transform="matrix(0 -1 1 0 54 100)"/>
</clipPath>
<clipPath id="clip8_50_10">
<rect width="100" height="9" fill="white" transform="matrix(0 -1 1 0 63 100)"/>
</clipPath>
<clipPath id="clip9_50_10">
<rect width="100" height="9" fill="white" transform="matrix(0 -1 1 0 72 100)"/>
</clipPath>
<clipPath id="clip10_50_10">
<rect width="100" height="9" fill="white" transform="matrix(0 -1 1 0 81 100)"/>
</clipPath>
<clipPath id="clip11_50_10">
<rect width="100" height="9" fill="white" transform="matrix(0 -1 1 0 90 100)"/>
</clipPath>
<clipPath id="clip12_50_10">
<rect width="100" height="9" fill="white" transform="matrix(0 -1 1 0 99 100)"/>
</clipPath>
<clipPath id="clip13_50_10">
<rect width="100" height="9" fill="white" transform="matrix(0 -1 1 0 108 100)"/>
</clipPath>
<clipPath id="clip14_50_10">
<rect width="100" height="9" fill="white" transform="matrix(0 -1 1 0 117 100)"/>
</clipPath>
<clipPath id="clip15_50_10">
<rect width="100" height="9" fill="white" transform="matrix(0 -1 1 0 126 100)"/>
</clipPath>
<clipPath id="clip16_50_10">
<rect width="100" height="9" fill="white" transform="matrix(0 -1 1 0 135 100)"/>
</clipPath>
<clipPath id="clip17_50_10">
<rect width="100" height="9" fill="white" transform="matrix(0 -1 1 0 144 100)"/>
</clipPath>
<clipPath id="clip18_50_10">
<rect width="100" height="9" fill="white" transform="matrix(0 -1 1 0 153 100)"/>
</clipPath>
<clipPath id="clip19_50_10">
<rect width="100" height="9" fill="white" transform="matrix(0 -1 1 0 162 100)"/>
</clipPath>
</defs>
</svg>
