<svg width="12" height="14" viewBox="0 0 12 14" fill="none" xmlns="http://www.w3.org/2000/svg">
<path d="M9.31524 3.08308L9.78022 0.762723C9.83098 0.509553 9.72304 0.250936 9.50682 0.107544C9.29055 -0.0358481 9.00857 -0.0358481 8.79235 0.107544L5.64283 2.19639C5.64266 2.19652 5.64249 2.19665 5.64232 2.19677C5.62453 2.2086 5.6073 2.22128 5.59083 2.23477C5.58145 2.24247 5.57292 2.25081 5.56404 2.25894C5.5577 2.26477 5.55101 2.27021 5.54488 2.2763C5.53421 2.28694 5.52439 2.29817 5.51457 2.3094C5.5108 2.3137 5.50673 2.31774 5.50309 2.32212C5.49417 2.33289 5.48611 2.34421 5.47797 2.35544C5.47389 2.36106 5.46952 2.36646 5.46562 2.37221C5.45898 2.38208 5.4531 2.39233 5.44706 2.4025C5.44239 2.41037 5.43741 2.41803 5.43304 2.42607C5.42858 2.43437 5.42481 2.44297 5.4207 2.45148C5.41564 2.4619 5.41041 2.4722 5.40595 2.48292C5.40321 2.48956 5.40102 2.49641 5.39849 2.50313C5.39369 2.51585 5.38876 2.52858 5.38477 2.54168C5.38297 2.54751 5.38182 2.55342 5.38023 2.5593C5.37637 2.5733 5.37247 2.58729 5.3696 2.60168C5.36767 2.61116 5.36668 2.62082 5.36518 2.6304C5.36355 2.64112 5.36141 2.65171 5.36034 2.66265C5.35815 2.68384 5.35712 2.70511 5.35708 2.72647C5.35708 2.72664 5.35704 2.72686 5.35704 2.72703C5.35704 2.7295 5.35738 2.73184 5.35742 2.73426C5.3576 2.75285 5.35841 2.77145 5.36025 2.79004C5.36094 2.79668 5.36218 2.80311 5.36304 2.80966C5.36488 2.82378 5.36673 2.83791 5.36951 2.85195C5.37131 2.86097 5.37389 2.86974 5.37603 2.87863C5.37877 2.88986 5.38134 2.90114 5.38477 2.91229C5.38807 2.92318 5.39219 2.93369 5.39609 2.94433C5.39935 2.95318 5.40222 2.96211 5.40591 2.97088C5.41131 2.98386 5.41757 2.99632 5.42383 3.00883C5.42691 3.01505 5.42957 3.02139 5.43287 3.02747C5.44157 3.0436 5.45113 3.05917 5.46116 3.07444C5.46271 3.07678 5.46391 3.07925 5.46545 3.08155L5.46626 3.08274C5.46669 3.08338 5.46712 3.08402 5.46755 3.08466L7.56992 6.20784C7.69067 6.38727 7.89249 6.49152 8.10447 6.49152C8.14609 6.49152 8.18814 6.48752 8.22998 6.47927C8.48508 6.42889 8.68446 6.23099 8.73521 5.97778L9.03751 4.46918C10.0621 5.32817 10.714 6.61198 10.714 8.04433C10.714 10.6244 8.59937 12.7234 6.00009 12.7234C3.40076 12.7234 1.28605 10.6244 1.28605 8.04433C1.28605 6.33473 2.22527 4.7615 3.73714 3.93854C4.04853 3.76907 4.16251 3.3811 3.99177 3.07202C3.82103 2.76294 3.43017 2.64976 3.11878 2.81927C1.19504 3.86651 0 5.86859 0 8.04441C0 11.3283 2.69161 14 6.00004 14C9.30843 14 12 11.3283 12 8.04441C12 5.9762 10.9321 4.15112 9.31524 3.08308Z" fill="#4F4F4F"/>
</svg>
