<svg width="34" height="34" viewBox="0 0 34 34" fill="none" xmlns="http://www.w3.org/2000/svg">
<path d="M1.73542 11.9949C1.88558 11.8206 12.0133 2.05271 12.0133 2.05271C13.3483 0.742996 15.1449 0.0110546 17.015 0.0150308C18.8851 0.0190069 20.6786 0.758581 22.0079 2.07396C22.0079 2.07396 32.1144 11.8206 32.2632 11.9906L20.0047 24.2505C19.1949 25.0225 18.1189 25.4531 17 25.4531C15.8811 25.4531 14.8051 25.0225 13.9952 24.2505L1.73542 11.9949ZM22.0079 26.2593C20.6752 27.5789 18.8755 28.3192 17 28.3192C15.1245 28.3192 13.3248 27.5789 11.9921 26.2593L0.324417 14.5916C0.120771 15.2374 0.0115028 15.9093 0 16.5863L0 26.9166C0.00224946 28.7946 0.749249 30.5949 2.07714 31.9228C3.40504 33.2507 5.20541 33.9977 7.08333 34H26.9167C28.7946 33.9977 30.595 33.2507 31.9229 31.9228C33.2508 30.5949 33.9977 28.7946 34 26.9166V16.5863C33.9885 15.9093 33.8792 15.2374 33.6756 14.5916L22.0079 26.2593Z" fill="#1C5DAF"/>
</svg>
