<svg width="30" height="30" viewBox="0 0 30 30" fill="none" xmlns="http://www.w3.org/2000/svg">
<g opacity="0.5" clip-path="url(#clip0_141_4707)">
<path d="M14.9195 0.000209454C6.6365 0.0449926 -0.0435828 6.79587 0.00120042 15.0802C0.0445056 23.3645 6.79967 30.0431 15.0797 29.9998C23.3684 29.955 30.0441 23.2043 29.9993 14.9213C29.9532 6.63418 23.2067 -0.0430957 14.9195 0.000209454ZM15.0682 27.5552C8.134 27.5898 2.48925 22.0015 2.45023 15.0673C2.41417 8.13449 7.99818 2.48117 14.9323 2.44363C21.868 2.40609 27.5199 8.00029 27.5575 14.9302C27.5937 21.8671 22.001 27.5176 15.0682 27.5552ZM17.2905 21.5638L17.2284 10.351L11.4422 10.3886L11.4537 12.842L13.0248 12.8333L13.0711 21.5885L11.4047 21.5943L11.4177 23.9379L18.6796 23.8989L18.6651 21.5567L17.2905 21.5638ZM15.0854 8.69613C16.5006 8.69036 17.354 7.74312 17.3468 6.5792C17.3092 5.38646 16.4774 4.47675 15.1157 4.48252C13.7584 4.49124 12.8732 5.41247 12.879 6.60521C12.8862 7.76765 13.7498 8.70633 15.0854 8.69613Z" fill="#929DAC"/>
</g>
<defs>
<clipPath id="clip0_141_4707">
<rect width="30" height="30" fill="white"/>
</clipPath>
</defs>
</svg>
